<svg xmlns="http://www.w3.org/2000/svg" height="1024" preserveAspectRatio="none" style="display: block;" version="1.1" viewBox="0 0 2048 2048" width="1024">
<defs>
	<linearGradient gradientUnits="userSpaceOnUse" id="Gradient1" x1="55.1109" x2="87.7939" y1="934.169" y2="934.7">
		<stop class="stop0" offset="0" stop-color="rgb(215,89,87)" stop-opacity="1"></stop>
		<stop class="stop1" offset="1" stop-color="rgb(253,118,104)" stop-opacity="1"></stop>
	</linearGradient>
</defs>

<path d="M 400.493 116.723 C 404.927 88.4541 417.953 65.3118 441.196 48.212 C 463.818 31.8735 492.011 25.2083 519.554 29.6875 C 561.421 36.3549 592.536 66.5985 601.798 107.678 C 630.945 86.0201 668.699 89.5758 690.885 119.163 C 701.199 133.037 705.528 150.462 702.906 167.549 C 700.742 182.45 693.988 193.539 682.41 202.899 C 690.664 207.746 696.127 211.079 703.791 216.717 C 721.773 178.893 743.323 125.995 776.527 100.196 C 786.939 92.1063 799.357 86.4294 811.724 82.0382 C 937.195 37.4839 1194.31 97.2578 1320.63 138.456 C 1367.38 153.687 1413.11 171.932 1457.51 193.074 C 1504.05 215.469 1587.97 263.872 1609.37 313.367 C 1615.79 328.234 1609.96 374.41 1606.42 391.753 C 1595.17 446.748 1578.3 500.77 1561.46 554.313 L 1499.02 751.503 C 1489.72 781.357 1474.81 825.298 1468.15 855.379 C 1522.69 839.736 1574.2 816.805 1618.75 781.344 C 1635.9 767.697 1653.28 746.851 1673.11 738.173 C 1702.96 725.113 1731.36 753.305 1752.87 770.964 C 1759.52 771.909 1780.8 765.553 1790.8 764.6 C 1791.6 777.449 1792.61 790.284 1793.83 803.1 C 1811.21 803.061 1828.86 802.856 1846.22 803.042 C 1845.31 818.077 1844.81 832.732 1844.1 847.733 C 1859.86 849.919 1876.14 852.409 1891.88 854.33 C 1889.01 869.375 1885.44 884.67 1882.79 899.581 C 1902.55 907.161 1918.94 911.634 1937.98 918.317 C 1934.48 928.634 1927.07 954.107 1923.31 962.274 C 1938.51 970.514 1949.44 975.049 1964.47 982.368 C 1959.61 994.33 1950.92 1013.34 1947.31 1024.8 C 1960.26 1031.41 1973.36 1041.01 1985.86 1048.96 C 1976.34 1061.84 1970.37 1074.19 1961.83 1086.86 C 1972.73 1090.6 1986.74 1100.78 1996.61 1107.45 C 1988.28 1118.51 1978.55 1127.92 1968.86 1137.8 C 1969.22 1150.34 1970.38 1163.39 1971.26 1175.99 C 1971.26 1178.99 1971.51 1179.23 1970.33 1181.9 L 1968.69 1182.44 C 1965.78 1180.39 1965.66 1179.21 1964.35 1175.92 C 1952.85 1148.83 1938.52 1126.56 1912.35 1111.79 C 1857.66 1080.94 1816.24 1111.56 1788.95 1159.35 C 1768.44 1111.38 1723.41 1063.02 1666.27 1081.14 C 1648.65 1086.91 1633.69 1098.85 1624.16 1114.76 C 1621.35 1119.51 1619.62 1124.5 1617 1129.49 C 1613.16 1129.15 1609.27 1118.02 1607.34 1114.21 C 1592.82 1085.46 1578.52 1064.8 1550.95 1047.94 C 1596.74 1129.97 1609.7 1185.01 1609.07 1278.77 C 1621.39 1285.01 1648.66 1292.88 1663.42 1294.39 C 1707.94 1298.94 1742.74 1362.62 1684.87 1377.33 C 1660.72 1383.46 1632.7 1364.45 1612.99 1349.59 C 1627.31 1372.6 1648.27 1408.34 1633.17 1434.91 C 1627.9 1444.18 1619.04 1450.85 1608.67 1453.36 C 1589.56 1458.07 1565.83 1445.68 1559.65 1427.69 C 1553.84 1410.75 1550.78 1389.52 1547.27 1371.8 C 1536.47 1391.9 1530.88 1414.17 1517.27 1432.99 C 1500.17 1457.75 1458.96 1457.48 1450.51 1425.83 C 1443.72 1400.36 1463.6 1364.33 1475.08 1342.74 C 1462.6 1347.54 1452.7 1351.19 1439.62 1353.77 C 1453.87 1406.69 1419.33 1460.79 1362.47 1464.13 C 1349.97 1464.87 1337.28 1461.13 1324.54 1464.26 C 1305.88 1468.84 1293.14 1481.95 1274.84 1487.73 C 1275.1 1505.04 1274.07 1524.1 1274.02 1541.87 C 1289.09 1547.16 1302.8 1555.74 1314.14 1566.99 C 1333.32 1585.97 1341.57 1610.64 1341.27 1637.06 C 1340.93 1666.18 1333.89 1679.52 1314.08 1699.41 C 1319.54 1722.26 1314.86 1750.21 1340.64 1759 C 1345.08 1757.82 1349.57 1756.8 1354.1 1755.95 C 1370.43 1752.97 1390.17 1754.69 1404.13 1764.25 C 1419.29 1759.93 1430.62 1756.77 1445.99 1753.33 C 1473.19 1727.54 1505.78 1710.05 1543.49 1707.35 C 1581.07 1704.75 1618.04 1714.65 1647.38 1739.32 C 1695.68 1780.05 1715.06 1867.85 1671.89 1918.73 C 1648.37 1946.44 1620.81 1951.97 1586.74 1954.25 C 1577.33 1973.88 1566.78 1987.63 1548.71 2000.31 C 1536.89 2008.66 1523.59 2014.68 1509.51 2018.04 C 1472.1 2026.68 1396.86 2017.04 1357.38 2009.29 C 1275.69 1993.25 1175.79 1977.3 1102.13 1937.18 C 1090.16 1929.75 1078.23 1920.06 1070.43 1908.5 C 1042.09 1866.52 1061.57 1838.7 1075.44 1799.17 C 1083.57 1775.97 1092.96 1733.31 1097.33 1709.16 C 1083.84 1700.35 1071.18 1688.38 1066.21 1672.52 C 1049.51 1619.27 1079.55 1564.71 1131.85 1546.74 L 1132.26 1479.36 C 1119.54 1487.05 1110.43 1496.71 1095.86 1502.68 C 1065.92 1514.97 1036.74 1512.2 1009.69 1494.52 C 997.7 1486.69 985.824 1477.09 972.638 1471.61 C 940.349 1458.18 918.722 1474.57 890.08 1486.46 C 889.49 1506.03 889.777 1526.44 889.788 1546.08 C 937.212 1566.03 959.745 1613.51 948.014 1664.12 C 942.993 1685.78 929.076 1698.35 910.481 1709.33 C 912.116 1735.73 920.663 1774.43 927.986 1800.01 C 930.532 1808.91 934.883 1817.24 938.5 1825.74 C 947.791 1847.56 949.957 1868.43 941.877 1891.03 C 931.633 1919.67 906.822 1935.4 880.487 1947.59 C 810.147 1980.14 609.656 2022.11 529.309 2021.84 C 512.497 2021.79 494.496 2019.82 478.671 2013.87 C 450.471 2003.11 427.628 1981.7 415.072 1954.26 C 407.864 1953.98 399.8 1953.74 392.725 1952.5 C 343.377 1943.85 312.19 1905.7 309.277 1856.47 C 306.962 1817.94 320.048 1780.07 345.656 1751.19 C 369.907 1724.58 403.733 1708.7 439.693 1707.03 C 487.426 1704.68 523.534 1721.98 557.95 1753.5 C 575.355 1757.02 580.793 1758.01 597.84 1764.87 C 616.895 1753.41 630.804 1753.76 652.13 1757.35 C 660.982 1758.84 671.225 1757.58 678.549 1751.98 C 690.912 1742.53 695.022 1706.01 696.36 1690.45 C 636.163 1646.76 674.951 1541.41 746.738 1533.49 C 747.94 1500.59 748.651 1467.67 748.871 1434.75 C 722.546 1434.21 710.421 1449.85 684.502 1449.45 C 674.964 1449.3 669.859 1447.57 661.458 1444.23 C 632.96 1432.91 630.624 1407.49 607.135 1391.04 C 590.179 1379.17 577.9 1381.1 559.827 1374.4 C 545.418 1369.07 534.079 1355.73 528.578 1341.23 C 521.316 1322.56 521.949 1301.74 530.332 1283.55 C 537.65 1267.48 549.79 1256.51 566.164 1250.21 C 561.638 1208.68 563.712 1155.59 565.267 1113.95 C 557.273 1117.65 549.198 1121.17 541.047 1124.51 C 512.11 1136.31 484.549 1142.62 454.714 1130.04 C 415.376 1113.44 397.049 1073.9 410.089 1033.29 C 412.539 1025.67 415.315 1019.02 418.44 1011.65 C 410.808 993.155 403.955 979.808 387.282 967.786 C 349.438 940.499 299.159 952.288 267.159 982.896 C 257.891 991.761 252.59 998.736 245.097 1009.01 C 244.656 1007.38 244.195 1005.76 243.715 1004.15 C 216.529 913.226 124.797 922.894 74.7405 986.85 C 72.019 990.327 67.8039 996.59 63.5395 997.929 L 62.0871 996.554 C 61.3617 992.013 62.6102 988.79 63.7337 984.279 C 64.0508 978.153 65.4998 964.69 66.879 958.993 C 66.8535 958.592 66.8281 958.191 66.8026 957.789 C 60.0339 951.242 57.187 948.378 52.4813 940.201 C 62.425 933.361 69.5953 930.361 79.0991 921.522 C 75.5126 916.534 75.4125 916.49 73.29 910.838 C 70.704 906.357 66.1125 895.299 62.8496 889.143 C 74.9319 882.795 86.8677 874.19 98.0526 866.325 C 94.0996 854.343 90.4687 843.445 85.862 831.7 C 99.9348 827.825 113.904 823.583 127.756 818.981 C 124.108 805.041 119.559 785.831 117.187 771.924 C 131.023 770.409 149.303 770.098 164.193 768.834 C 163.821 751.897 162.417 734.177 161.881 717.031 C 176.811 717.03 194.54 718.459 209.773 719.143 C 209.435 703.123 209.282 687.1 209.315 671.077 C 224.731 673.503 240.17 675.779 255.63 677.904 C 258.396 665.218 259.593 651.554 262.591 638.13 C 272.426 642.007 278.341 643.463 288.684 645.89 L 289.61 646.138 C 295.107 647.572 298.691 648.109 304.081 650.503 C 305.993 641.546 314.561 619.693 317.929 607.861 C 329.766 614.143 343.058 619.454 354.236 625.63 C 367.771 615.469 399.134 605.705 416.279 608.289 C 445.996 612.767 462.501 644.921 481.181 665.848 C 511.981 700.354 552.582 734.558 593.918 755.767 C 603.182 690.026 610.874 624.896 624.426 559.647 C 628.459 540.231 630.703 518.849 635.866 499.839 C 612.237 518.284 587.559 528.561 557.015 524.932 C 531.794 521.736 508.868 508.672 493.264 488.602 C 485.547 478.649 480.084 467.138 477.254 454.865 C 463.628 459.16 450.602 462.624 436.233 461.343 C 363.149 454.832 321.494 387.655 349.035 320.336 C 292.575 305.717 268.037 249.709 282.202 195.539 C 289.484 167.597 307.661 143.738 332.669 129.302 C 353.342 117.297 376.867 111.834 400.493 116.723 z" fill="rgb(2,3,4)" transform="translate(0,0)"></path>
<path d="M 1654.01 754.11 C 1667.96 743.199 1680.16 734.549 1699 739.06 C 1716.13 743.161 1736.2 759.794 1748.39 772.068 C 1750.13 772.04 1751.11 771.518 1752.87 770.964 C 1759.52 771.909 1780.8 765.553 1790.8 764.6 C 1791.6 777.449 1792.61 790.284 1793.83 803.1 C 1811.21 803.061 1828.86 802.856 1846.22 803.042 C 1845.31 818.077 1844.81 832.732 1844.1 847.733 C 1859.86 849.919 1876.14 852.409 1891.88 854.33 C 1889.01 869.375 1885.44 884.67 1882.79 899.581 C 1902.55 907.161 1918.94 911.634 1937.98 918.317 C 1934.48 928.634 1927.07 954.107 1923.31 962.274 C 1938.51 970.514 1949.44 975.049 1964.47 982.368 C 1959.61 994.33 1950.92 1013.34 1947.31 1024.8 C 1960.26 1031.41 1973.36 1041.01 1985.86 1048.96 C 1976.34 1061.84 1970.37 1074.19 1961.83 1086.86 C 1972.73 1090.6 1986.74 1100.78 1996.61 1107.45 C 1988.28 1118.51 1978.55 1127.92 1968.86 1137.8 C 1966.08 1139.85 1965.84 1140.28 1963.54 1142.95 L 1962 1145.75 C 1960.94 1142.33 1959.49 1138.8 1958.31 1135.31 C 1956.23 1129.03 1954.08 1122.77 1951.86 1116.53 C 1920.88 1030.24 1872.14 941.919 1804.93 878.282 C 1774.26 849.235 1724.78 806.467 1679.53 823.278 C 1661.71 829.9 1647.43 841.425 1639.64 859.027 C 1643.12 855.793 1646.7 851.511 1649.9 847.934 C 1705.53 785.8 1773.73 851.77 1816.01 893.911 C 1865.3 943.037 1900.81 1006.67 1929.62 1069.04 C 1925.86 1070.05 1914.59 1063.35 1909.79 1061.79 C 1857.62 1044.87 1819.98 1063.1 1786.57 1104.25 C 1772.57 1089.32 1761.41 1072.01 1745.27 1058.78 C 1703.47 1024.52 1651.67 1038.87 1619.45 1077.94 C 1579.25 1014.38 1551.11 1016.94 1497 972.387 C 1492.12 968.371 1478.73 956.44 1474.95 951.747 C 1538.93 936.464 1614.72 895.763 1639.26 831.464 C 1636.31 834.684 1634.35 837.256 1631.73 840.759 C 1581.25 864.926 1515.32 900.318 1457.82 901.295 C 1460.66 887.407 1463.06 872.943 1466.98 859.384 C 1477.15 854.799 1502.6 847.679 1515.43 842.748 C 1560.63 825.375 1588.42 807.734 1626.68 779.274 C 1630.57 775.964 1633.87 772.64 1637.41 768.968 C 1643.25 763.04 1647.54 759.421 1654.01 754.11 z" fill="rgb(44,110,192)" transform="translate(0,0)"></path>
<path d="M 1752.87 770.964 C 1759.52 771.909 1780.8 765.553 1790.8 764.6 C 1791.6 777.449 1792.61 790.284 1793.83 803.1 C 1811.21 803.061 1828.86 802.856 1846.22 803.042 C 1845.31 818.077 1844.81 832.732 1844.1 847.733 C 1859.86 849.919 1876.14 852.409 1891.88 854.33 C 1889.01 869.375 1885.44 884.67 1882.79 899.581 C 1902.55 907.161 1918.94 911.634 1937.98 918.317 C 1934.48 928.634 1927.07 954.107 1923.31 962.274 C 1938.51 970.514 1949.44 975.049 1964.47 982.368 C 1959.61 994.33 1950.92 1013.34 1947.31 1024.8 C 1960.26 1031.41 1973.36 1041.01 1985.86 1048.96 C 1976.34 1061.84 1970.37 1074.19 1961.83 1086.86 C 1972.73 1090.6 1986.74 1100.78 1996.61 1107.45 C 1988.28 1118.51 1978.55 1127.92 1968.86 1137.8 C 1966.08 1139.85 1965.84 1140.28 1963.54 1142.95 L 1962 1145.75 C 1960.94 1142.33 1959.49 1138.8 1958.31 1135.31 C 1960.13 1133.1 1961.71 1131.08 1963.67 1128.99 C 1964.54 1127.42 1966.03 1125.85 1967.23 1124.43 C 1965.35 1114.82 1964.78 1107.04 1964.26 1097.34 C 1958.78 1093.19 1953.04 1092.23 1946.51 1090.9 C 1949.78 1085.38 1954.59 1079.02 1958.4 1073.71 C 1957.19 1069.33 1956.06 1064.94 1955.15 1060.49 C 1954.12 1055.31 1953.01 1050.15 1951.82 1045.02 C 1951.09 1041.95 1950.48 1038.88 1949.65 1035.84 C 1945.28 1031.1 1941.64 1030.19 1935.76 1027.81 L 1940.94 1015.91 C 1935.52 1004.07 1926.54 983.979 1922.01 972.334 C 1918.97 970.39 1917.59 969.885 1914.34 968.536 C 1913.24 965.377 1914.26 962.926 1914.88 959.248 L 1881.47 909.195 L 1873.71 906.439 C 1874.26 902.215 1874.98 898.636 1874.55 894.401 C 1872.14 891.966 1868.92 888.71 1866.91 885.99 C 1859.19 875.53 1849.67 866.731 1841.76 856.635 C 1836.71 853.914 1834.27 853.864 1834.31 848.01 C 1822.68 836.263 1810.71 825.508 1798.73 813.071 C 1794.52 812.089 1789.33 811.235 1785.01 810.397 L 1782.91 798.203 C 1781.49 796.812 1780.07 795.435 1778.63 794.07 C 1776.79 792.333 1775.46 791.504 1773.37 790.069 C 1769.65 786.308 1766.24 782.621 1762.4 778.942 L 1750.02 780.89 C 1746.32 781.371 1742.11 782.005 1738.42 781.583 C 1737.16 781.438 1735.94 780.107 1736.66 778.914 C 1738.71 775.537 1745 773.485 1748.39 772.068 C 1750.13 772.04 1751.11 771.518 1752.87 770.964 z" fill="rgb(236,123,109)" transform="translate(0,0)"></path>
<path d="M 1881.47 909.195 C 1886.84 910.259 1918.51 921.355 1927.1 923.996 C 1922.66 933.935 1918.01 948.587 1914.88 959.248 L 1881.47 909.195 z" fill="rgb(255,255,255)" transform="translate(0,0)"></path>
<path d="M 1798.73 813.071 C 1811.29 812.81 1822.96 812.437 1835.57 812.701 C 1835.45 820.629 1835.57 841.157 1834.31 848.01 C 1822.68 836.263 1810.71 825.508 1798.73 813.071 z" fill="rgb(255,255,255)" transform="translate(0,0)"></path>
<path d="M 1841.76 856.635 C 1854.7 857.499 1867.73 860.046 1880.73 861.378 C 1878.76 872.322 1876.02 883.402 1874.55 894.401 C 1872.14 891.966 1868.92 888.71 1866.91 885.99 C 1859.19 875.53 1849.67 866.731 1841.76 856.635 z" fill="rgb(255,255,255)" transform="translate(0,0)"></path>
<path d="M 1922.01 972.334 C 1929.84 975.768 1943.67 983.276 1951.86 987.565 C 1948.35 997.83 1944.96 1006 1940.94 1015.91 C 1935.52 1004.07 1926.54 983.979 1922.01 972.334 z" fill="rgb(255,255,255)" transform="translate(0,0)"></path>
<path d="M 1949.65 1035.84 C 1955.66 1038.78 1967.25 1047.96 1972.48 1052.45 C 1968.25 1060.24 1964.65 1065.82 1959.14 1072.76 L 1958.4 1073.71 C 1957.19 1069.33 1956.06 1064.94 1955.15 1060.49 C 1954.12 1055.31 1953.01 1050.15 1951.82 1045.02 C 1951.09 1041.95 1950.48 1038.88 1949.65 1035.84 z" fill="rgb(255,255,255)" transform="translate(0,0)"></path>
<path d="M 1964.26 1097.34 C 1970.84 1101.52 1977.38 1105.65 1983.91 1109.92 C 1979.96 1113.48 1971.44 1121.46 1967.23 1124.43 C 1965.35 1114.82 1964.78 1107.04 1964.26 1097.34 z" fill="rgb(255,255,255)" transform="translate(0,0)"></path>
<path d="M 1762.4 778.942 L 1780.27 774.807 C 1783 785.343 1783.62 786.658 1782.91 798.203 C 1781.49 796.812 1780.07 795.435 1778.63 794.07 C 1776.79 792.333 1775.46 791.504 1773.37 790.069 C 1769.65 786.308 1766.24 782.621 1762.4 778.942 z" fill="rgb(255,255,255)" transform="translate(0,0)"></path>
<path d="M 1963.67 1128.99 C 1964.24 1129.48 1964.81 1129.96 1965.37 1130.44 C 1962.74 1135.24 1963.46 1137.22 1963.54 1142.95 L 1962 1145.75 C 1960.94 1142.33 1959.49 1138.8 1958.31 1135.31 C 1960.13 1133.1 1961.71 1131.08 1963.67 1128.99 z" fill="rgb(252,154,108)" transform="translate(0,0)"></path>
<path d="M 1654.01 754.11 C 1667.96 743.199 1680.16 734.549 1699 739.06 C 1716.13 743.161 1736.2 759.794 1748.39 772.068 C 1745 773.485 1738.71 775.537 1736.66 778.914 C 1735.94 780.107 1737.16 781.438 1738.42 781.583 C 1742.11 782.005 1746.32 781.371 1750.02 780.89 C 1750.25 787.851 1752.19 795.681 1743.5 796.304 C 1731.52 797.163 1722.69 786.437 1714.64 779.362 C 1702.27 768.38 1692.4 762.59 1676.02 768.048 C 1656.62 774.508 1653.89 772.759 1654.01 754.11 z" fill="rgb(117,159,222)" transform="translate(0,0)"></path>
<path d="M 1773.37 790.069 C 1775.46 791.504 1776.79 792.333 1778.63 794.07 C 1779.08 797.352 1780.39 800.501 1779.62 803.849 C 1777.83 813.574 1765.36 814.839 1761.18 806.425 C 1757.63 799.262 1768.57 792.179 1773.37 790.069 z" fill="rgb(117,159,222)" transform="translate(0,0)"></path>
<path d="M 1626.68 779.274 C 1630.57 775.964 1633.87 772.64 1637.41 768.968 C 1641.73 772.888 1647.27 779.411 1642.01 784.498 C 1634.66 791.613 1629.96 784.489 1626.68 779.274 z" fill="rgb(117,159,222)" transform="translate(0,0)"></path>
<path d="M 1696.45 828.321 C 1727.06 823.761 1755.55 844.946 1760 875.576 C 1764.45 906.205 1743.16 934.617 1712.51 938.951 C 1682.02 943.262 1653.79 922.107 1649.37 891.636 C 1644.94 861.166 1666 832.856 1696.45 828.321 z" fill="rgb(2,3,4)" transform="translate(0,0)"></path>
<path d="M 1697.02 831.469 C 1725.78 827.277 1752.52 847.151 1756.79 875.904 C 1761.06 904.657 1741.26 931.444 1712.52 935.796 C 1683.67 940.165 1656.75 920.27 1652.46 891.404 C 1648.17 862.538 1668.14 835.677 1697.02 831.469 z" fill="rgb(236,123,109)" transform="translate(0,0)"></path>
<path d="M 317.929 607.861 C 329.766 614.143 343.058 619.454 354.236 625.63 L 357.962 626.199 C 421.408 598.551 430.714 606.239 470.962 658.78 C 518.427 712.216 535.344 722.422 593.38 758.842 L 589.126 798.222 C 554.307 796.87 519.423 778.263 492.674 756.986 C 484.507 750.489 477.315 741.007 468.878 735.156 C 468.15 731.718 469.049 732.58 467.046 731.087 L 467.712 730.707 L 466.419 729.811 C 464.613 733.142 467.221 742.906 468.483 746.489 C 480.348 780.18 516.853 812.896 547.095 828.811 L 548.749 829.667 L 547.753 830.758 C 535.875 843.647 515.762 859.418 502.385 872.218 C 472.392 900.917 451.758 927.774 428.58 961.684 C 418.116 943.778 407.709 924.418 385.95 919.473 C 332.588 907.346 296.802 925.875 257.536 958.971 C 235.993 908.989 200.116 887.799 146.453 888.818 C 142.264 888.897 127.745 889.138 124.301 887.967 C 175.844 816.661 238.731 756.299 315.395 709.917 C 372.147 675.582 417.393 684.654 454.345 743.719 C 455.788 746.026 459.871 754.918 462.241 755.297 C 463.139 752.985 462.531 751.301 461.297 749.078 C 432.506 697.224 384.869 669.095 328.733 699.047 C 244.366 744.061 178.03 810.971 120.772 886.678 C 107.541 904.345 87.7749 938.308 76.8458 957.069 C 75.6694 960.822 75.5493 961.531 72.995 964.495 C 70.7692 962.31 69.3347 960.927 66.879 958.993 C 66.8535 958.592 66.8281 958.191 66.8026 957.789 C 60.0339 951.242 57.187 948.378 52.4813 940.201 C 62.425 933.361 69.5953 930.361 79.0991 921.522 C 75.5126 916.534 75.4125 916.49 73.29 910.838 C 70.704 906.357 66.1125 895.299 62.8496 889.143 C 74.9319 882.795 86.8677 874.19 98.0526 866.325 C 94.0996 854.343 90.4687 843.445 85.862 831.7 C 99.9348 827.825 113.904 823.583 127.756 818.981 C 124.108 805.041 119.559 785.831 117.187 771.924 C 131.023 770.409 149.303 770.098 164.193 768.834 C 163.821 751.897 162.417 734.177 161.881 717.031 C 176.811 717.03 194.54 718.459 209.773 719.143 C 209.435 703.123 209.282 687.1 209.315 671.077 C 224.731 673.503 240.17 675.779 255.63 677.904 C 258.396 665.218 259.593 651.554 262.591 638.13 C 272.426 642.007 278.341 643.463 288.684 645.89 L 289.61 646.138 C 295.107 647.572 298.691 648.109 304.081 650.503 C 305.993 641.546 314.561 619.693 317.929 607.861 z" fill="rgb(44,110,192)" transform="translate(0,0)"></path>
<path d="M 317.929 607.861 C 329.766 614.143 343.058 619.454 354.236 625.63 L 357.962 626.199 C 361.155 627.419 363.91 627.931 365.665 630.673 L 365.443 632.489 C 358.948 635.926 356.576 633.906 349.902 632.428 C 347.243 631.443 344.345 630.718 341.601 629.956 C 336.565 633.265 332.106 635.317 326.901 638.236 L 325.696 638.807 C 322.761 640.144 318.758 642.97 315.953 644.827 L 315.965 645.427 C 312.477 649.955 311.406 654.919 309.848 660.475 C 305.771 659.075 302.239 657.64 297.967 657.055 L 294.588 659.122 C 284.161 665.521 274.146 674.775 264.581 680.489 C 261.679 687.029 261.217 686.109 253.829 687.842 C 242.458 697.524 228.128 707.828 219.143 719.453 C 218.729 724.409 219.577 723.646 216.925 726.667 C 213.888 727.331 211.259 727.803 208.191 728.301 C 193.554 740.803 185.555 751.951 173.018 765.511 C 173.518 770.158 174.228 769.905 172.571 773.507 C 169.391 775.243 167.474 775.708 164.069 776.765 C 155.241 787.463 143.703 802.81 135.268 812.509 L 138.343 824.61 L 125.46 829.668 C 118.891 840.407 113.221 848.77 107.069 860.134 C 108.62 863.345 110.728 866.681 110.455 870.081 C 107.638 874.593 104.281 873.03 98.8073 878.256 C 93.9382 886.962 87.397 900.391 82.5009 908.081 L 84.4619 911.117 C 75.5765 913.067 80.9032 917.228 73.29 910.838 C 70.704 906.357 66.1125 895.299 62.8496 889.143 C 74.9319 882.795 86.8677 874.19 98.0526 866.325 C 94.0996 854.343 90.4687 843.445 85.862 831.7 C 99.9348 827.825 113.904 823.583 127.756 818.981 C 124.108 805.041 119.559 785.831 117.187 771.924 C 131.023 770.409 149.303 770.098 164.193 768.834 C 163.821 751.897 162.417 734.177 161.881 717.031 C 176.811 717.03 194.54 718.459 209.773 719.143 C 209.435 703.123 209.282 687.1 209.315 671.077 C 224.731 673.503 240.17 675.779 255.63 677.904 C 258.396 665.218 259.593 651.554 262.591 638.13 C 272.426 642.007 278.341 643.463 288.684 645.89 L 289.61 646.138 C 295.107 647.572 298.691 648.109 304.081 650.503 C 305.993 641.546 314.561 619.693 317.929 607.861 z" fill="rgb(236,123,109)" transform="translate(0,0)"></path>
<path d="M 171.521 727.049 C 183.753 727.123 195.981 727.541 208.191 728.301 C 193.554 740.803 185.555 751.951 173.018 765.511 C 173.047 753.311 171.978 739.505 171.521 727.049 z" fill="rgb(255,255,255)" transform="translate(0,0)"></path>
<path d="M 218.679 681.598 C 231.534 683.419 240.233 684.356 252.857 687.602 L 253.829 687.842 C 242.458 697.524 228.128 707.828 219.143 719.453 C 218.475 707.866 218.901 693.653 218.679 681.598 z" fill="rgb(255,255,255)" transform="translate(0,0)"></path>
<path d="M 128.406 779.095 C 141.123 778.81 151.592 777.543 164.069 776.765 C 155.241 787.463 143.703 802.81 135.268 812.509 C 134.059 808.216 133.04 803.872 132.214 799.49 C 130.87 792.724 129.705 785.886 128.406 779.095 z" fill="rgb(255,255,255)" transform="translate(0,0)"></path>
<path d="M 269.095 650.349 L 276.983 652.233 C 284.391 654.01 290.338 655.787 297.967 657.055 L 294.588 659.122 C 284.161 665.521 274.146 674.775 264.581 680.489 L 267.829 658.494 C 268.237 655.613 268.609 653.218 269.095 650.349 z" fill="rgb(255,255,255)" transform="translate(0,0)"></path>
<path d="M 125.46 829.668 C 118.891 840.407 113.221 848.77 107.069 860.134 C 104.18 852.402 101.963 846.445 99.3484 838.473 C 108.695 834.584 116.976 833.018 125.46 829.668 z" fill="rgb(255,255,255)" transform="translate(0,0)"></path>
<path d="M 73.5411 892.953 C 80.6036 888.461 91.3357 882.164 98.8073 878.256 C 93.9382 886.962 87.397 900.391 82.5009 908.081 C 80.0111 903.411 77.3235 898.849 74.4456 894.408 L 73.5411 892.953 z" fill="rgb(255,255,255)" transform="translate(0,0)"></path>
<path d="M 324.957 622.135 C 330.228 624.323 336.466 627.408 341.601 629.956 C 336.565 633.265 332.106 635.317 326.901 638.236 L 325.696 638.807 C 322.761 640.144 318.758 642.97 315.953 644.827 C 318.823 637.223 322.129 630.074 324.957 622.135 z" fill="rgb(255,255,255)" transform="translate(0,0)"></path>
<path d="M 288.684 645.89 L 289.61 646.138 C 295.107 647.572 298.691 648.109 304.081 650.503 C 298.86 656.923 292.446 651.028 288.684 645.89 z" fill="rgb(236,123,109)" transform="translate(0,0)"></path>
<path d="M 357.962 626.199 C 421.408 598.551 430.714 606.239 470.962 658.78 C 463.13 700.44 431.828 649.813 414.767 643.958 C 394.857 637.125 378.452 646.6 359.737 653.807 C 347.728 648.749 341.698 644.834 349.902 632.428 C 356.576 633.906 358.948 635.926 365.443 632.489 L 365.665 630.673 C 363.91 627.931 361.155 627.419 357.962 626.199 z" fill="rgb(117,159,222)" transform="translate(0,0)"></path>
<path d="M 73.29 910.838 C 80.9032 917.228 75.5765 913.067 84.4619 911.117 C 87.8186 915.449 88.4056 916.31 90.8792 921.186 L 91.8227 923.002 C 85.4443 927.383 77.2707 931.347 72.7565 937.181 C 71.428 941.579 71.1666 942.893 68.8364 946.764 C 69.7435 948.27 70.538 949.236 71.4215 950.639 C 73.2681 952.77 75.025 954.925 76.8458 957.069 C 75.6694 960.822 75.5493 961.531 72.995 964.495 C 70.7692 962.31 69.3347 960.927 66.879 958.993 C 66.8535 958.592 66.8281 958.191 66.8026 957.789 C 60.0339 951.242 57.187 948.378 52.4813 940.201 C 62.425 933.361 69.5953 930.361 79.0991 921.522 C 75.5126 916.534 75.4125 916.49 73.29 910.838 z" fill="url(#Gradient1)" transform="translate(0,0)"></path>
<path d="M 66.8026 957.789 C 69.0049 954.058 67.834 953.788 71.4215 950.639 C 73.2681 952.77 75.025 954.925 76.8458 957.069 C 75.6694 960.822 75.5493 961.531 72.995 964.495 C 70.7692 962.31 69.3347 960.927 66.879 958.993 C 66.8535 958.592 66.8281 958.191 66.8026 957.789 z" fill="rgb(236,123,109)" transform="translate(0,0)"></path>
<path d="M 72.7565 937.181 C 71.428 941.579 71.1666 942.893 68.8364 946.764 C 62.3548 940.505 64.9346 941.126 71.9444 937.597 L 72.7565 937.181 z" fill="rgb(255,255,255)" transform="translate(0,0)"></path>
<path d="M 315.953 644.827 C 318.758 642.97 322.761 640.144 325.696 638.807 L 326.901 638.236 C 332.578 642.379 348.797 651.648 327.509 659.884 C 323.242 661.535 314.654 655.118 316.959 649.997 C 317.163 648.648 316.394 646.629 315.965 645.427 L 315.953 644.827 z" fill="rgb(117,159,222)" transform="translate(0,0)"></path>
<path d="M 363.361 696.164 C 393.781 692.651 421.312 714.403 424.931 744.81 C 428.55 775.216 406.894 802.823 376.5 806.548 C 345.956 810.292 318.183 788.506 314.546 757.949 C 310.909 727.392 332.792 699.695 363.361 696.164 z" fill="rgb(2,3,4)" transform="translate(0,0)"></path>
<path d="M 364.068 699.254 C 392.984 696.218 418.857 717.271 421.763 746.2 C 424.669 775.129 403.501 800.906 374.559 803.683 C 345.801 806.442 320.221 785.436 317.333 756.691 C 314.445 727.945 335.336 702.271 364.068 699.254 z" fill="rgb(236,123,109)" transform="translate(0,0)"></path>
<path d="M 474.217 679.448 C 477.279 678.191 480.781 678.692 483.367 680.756 C 485.954 682.821 487.218 686.125 486.671 689.389 C 486.124 692.653 483.85 695.364 480.732 696.471 C 476.068 698.128 470.935 695.762 469.166 691.139 C 467.397 686.517 469.639 681.328 474.217 679.448 z" fill="rgb(117,159,222)" transform="translate(0,0)"></path>
<path d="M 548.749 829.667 L 567.261 838.926 C 526.67 875.519 493.646 907.86 460.447 951.928 C 446.281 970.731 434.518 990.159 421.24 1008.11 C 408.185 982.262 397.718 964.405 367.601 954.458 C 343.466 946.482 317.137 948.538 294.532 960.164 C 275.468 969.83 260.672 984.415 247.109 1000.59 C 238.947 982.823 231.655 965.306 216.19 952.635 C 188.284 929.771 153.135 929.768 121.501 944.719 C 96.3069 956.627 82.108 972.338 65.1105 994.033 C 71.6484 971.126 108.886 906.08 124.301 887.967 C 127.745 889.138 142.264 888.897 146.453 888.818 C 200.116 887.799 235.993 908.989 257.536 958.971 C 296.802 925.875 332.588 907.346 385.95 919.473 C 407.709 924.418 418.116 943.778 428.58 961.684 C 451.758 927.774 472.392 900.917 502.385 872.218 C 515.762 859.418 535.875 843.647 547.753 830.758 L 548.749 829.667 z" fill="rgb(7,84,160)" transform="translate(0,0)"></path>
<path d="M 1474.95 951.747 C 1478.73 956.44 1492.12 968.371 1497 972.387 C 1551.11 1016.94 1579.25 1014.38 1619.45 1077.94 C 1651.67 1038.87 1703.47 1024.52 1745.27 1058.78 C 1761.41 1072.01 1772.57 1089.32 1786.57 1104.25 C 1819.98 1063.1 1857.62 1044.87 1909.79 1061.79 C 1914.59 1063.35 1925.86 1070.05 1929.62 1069.04 C 1937.04 1084.1 1956.95 1139.49 1961.45 1155.56 L 1958.21 1155.55 C 1949.48 1138.66 1934.49 1121.47 1918.27 1111.52 C 1864.12 1078.32 1819.83 1103.7 1789.26 1152.14 C 1775.28 1124.34 1759.39 1100.88 1731.63 1085.46 C 1701.25 1068.58 1664.13 1070.79 1637.83 1094.08 C 1627.13 1103.55 1622.08 1112.27 1615.38 1124.7 C 1606.33 1100.45 1586.51 1070.93 1566.15 1054.57 C 1561.03 1050.47 1551.15 1046.76 1547.72 1042.45 C 1540.4 1033.24 1533.45 1023.38 1526.15 1014.09 C 1508.68 991.501 1488.38 971.253 1465.75 953.844 C 1468.67 953.057 1471.96 952.405 1474.95 951.747 z" fill="rgb(7,84,160)" transform="translate(0,0)"></path>
<path d="M 1457.82 901.295 C 1515.32 900.318 1581.25 864.926 1631.73 840.759 C 1607.76 894.304 1537.43 931.88 1482.95 946.203 C 1476.18 947.983 1469.38 949.818 1462.62 951.676 L 1451.01 942.73 C 1453.85 928.755 1455.18 914.422 1457.82 901.295 z" fill="rgb(7,84,160)" transform="translate(0,0)"></path>
<path d="M 468.878 735.156 C 477.315 741.007 484.507 750.489 492.674 756.986 C 519.423 778.263 554.307 796.87 589.126 798.222 C 588.669 805.886 587.155 817.114 586.014 824.618 C 578.704 828.317 575.036 831.468 569.15 836.864 C 561.415 833.279 553.863 829.311 546.523 824.974 C 511.289 804.398 479.546 775.833 468.878 735.156 z" fill="rgb(7,84,160)" transform="translate(0,0)"></path>
<path d="M 1963.54 1142.95 C 1965.84 1140.28 1966.08 1139.85 1968.86 1137.8 C 1969.22 1150.34 1970.38 1163.39 1971.26 1175.99 C 1965.06 1172.89 1967.83 1170.74 1966.05 1163.73 C 1965.86 1159.81 1964.56 1156.34 1963.71 1152.52 L 1962.73 1148.54 C 1962.61 1148.09 1962.48 1147.63 1962.36 1147.18 L 1962 1145.75 L 1963.54 1142.95 z" fill="rgb(7,84,160)" transform="translate(0,0)"></path>
<path d="M 66.879 958.993 C 69.3347 960.927 70.7692 962.31 72.995 964.495 C 68.9494 971.6 69.2089 977.152 63.7337 984.279 C 64.0508 978.153 65.4998 964.69 66.879 958.993 z" fill="rgb(44,110,192)" transform="translate(0,0)"></path>
<path d="M 1958.21 1155.55 L 1961.45 1155.56 C 1964.68 1165.98 1961.55 1163.29 1958.21 1155.55 z" fill="rgb(20,65,127)" transform="translate(0,0)"></path>
<path d="M 762.033 119.784 C 843.043 12.8576 1214.97 104.066 1325.81 143.318 C 1339.05 147.35 1351.22 152.074 1364.15 156.917 C 1367.95 158.339 1377.99 162.504 1381.47 163.419 C 1443.27 186.667 1578.33 250.584 1604.72 310.374 C 1626.88 360.598 1561.46 541.641 1544.16 598.507 C 1518.02 684.425 1490.89 764.279 1465.95 850.32 C 1456.71 881.388 1454.72 910.023 1448.07 940.475 C 1429.55 928.357 1418.97 922.445 1398.16 914.135 L 1396.33 915.675 C 1398.01 918.452 1414 923.856 1418.81 926.283 C 1425.43 929.658 1431.86 933.383 1438.09 937.442 C 1484.84 967.75 1529.49 1015.62 1556.89 1064.46 C 1558.61 1067.52 1564.54 1078.88 1565.6 1081.84 C 1579.45 1109.8 1586.79 1130.98 1594.27 1161.27 C 1604.38 1188.46 1607.09 1250.74 1605.74 1280.17 C 1640.25 1299.21 1686.46 1289.91 1707.56 1327.27 C 1717.03 1344.04 1711.18 1365.63 1692.25 1372.44 C 1670.62 1380.22 1647.06 1370.75 1629.51 1357.8 C 1622.99 1353.09 1613.34 1344.9 1606.4 1341.76 L 1605.82 1342.85 C 1614.73 1365.71 1649.11 1402.86 1631.89 1430.89 C 1606.69 1471.9 1558.86 1447.07 1556.66 1403.54 C 1556.31 1396.53 1550.05 1367.02 1548.12 1359.68 C 1538.72 1383.33 1529.79 1407.22 1516.35 1429.3 C 1499.02 1457.75 1453.8 1451.84 1452.29 1417.32 C 1451.25 1393.46 1470.35 1353.49 1485.57 1335.03 C 1467.28 1342.54 1442.79 1354.3 1423 1350.66 C 1414.27 1349.04 1406.61 1343.87 1401.84 1336.39 C 1396.75 1328.38 1395.36 1317.32 1397.42 1308.17 C 1399.04 1300.71 1403.44 1294.14 1409.73 1289.81 C 1417.09 1284.7 1432.46 1280.84 1441.68 1277.83 C 1462.64 1271 1476.02 1267.1 1494.93 1255.6 C 1494.01 1205.61 1485.7 1170.62 1463.1 1125.59 C 1442.45 1084.44 1416.99 1052.73 1377.03 1029.07 C 1371.64 1025.87 1360.72 1018.61 1355.21 1016.82 L 1355 1018.19 C 1357.63 1022.31 1360.63 1023.21 1365.07 1025.44 L 1366.81 1026.33 C 1373.27 1029.51 1379.19 1033.72 1385.13 1037.77 C 1389.75 1040.91 1394.29 1044.19 1398.73 1047.59 C 1414.57 1059.62 1423.77 1070.17 1435.52 1085.95 C 1413.96 1086.15 1413.61 1089.42 1395.04 1099.82 C 1382.49 1096.75 1370.31 1095.22 1357.8 1099.37 L 1356.72 1099.72 C 1348.84 1103.19 1345.72 1105.58 1339.87 1111.42 C 1318.38 1101.04 1300.89 1105.81 1281.17 1116.16 C 1260.53 1106.09 1243.26 1110.03 1223.49 1119.2 C 1203.95 1109.99 1182.9 1110.04 1164.11 1121.14 C 1144.28 1109.47 1124.95 1109.09 1104.48 1118.96 C 1084.81 1108.56 1066.2 1104.52 1045.32 1114.82 C 1025.95 1102.81 1008.62 1100.42 987.162 1108.11 C 967.094 1095.15 953.045 1090.97 929.194 1098.4 C 924.223 1094.28 918.652 1090.93 912.675 1088.49 C 898.733 1082.65 886.839 1082.32 872.896 1088.01 C 854.693 1072.52 843.374 1070.3 820.13 1071.14 C 807.537 1053.5 796.097 1048.15 778.939 1035.22 C 771.272 1029.45 763.055 1021.76 755.951 1015.12 C 786.665 1024.07 821.937 1060.56 855.889 1042.9 C 866.388 1037.42 874.213 1027.91 877.572 1016.55 C 881.064 1004.36 879.379 991.277 872.914 980.372 C 858.14 955.539 809.663 947.862 782.216 941.088 C 789.712 933.006 792.006 929.525 797.047 919.744 C 815.843 923.482 834.245 919.351 848.599 906.383 C 860.068 895.993 866.785 881.364 867.191 865.894 C 867.666 849.49 862.347 835.419 851.143 823.436 C 875.979 803.05 881.266 769.977 864.164 742.947 C 855.3 729.061 841.176 719.371 825.03 716.1 C 806.171 712.283 792.021 717.112 776.644 727.304 C 773.537 720.629 770.627 715.202 765.771 709.611 C 755.495 697.654 740.761 690.44 725.014 689.658 C 705.228 688.684 690.172 697.662 675.947 710.167 C 673.832 713.026 671.575 715.975 669.529 718.862 C 665.19 728.272 663.324 734.736 661.182 744.758 L 660.361 744.816 C 622.436 748.092 608.541 796.865 636.499 824.276 C 606.116 847.801 608.868 887.759 637.155 912.293 C 636.844 922.221 636.109 931.601 635.911 941.762 C 611.718 950.258 596.172 957.936 573.809 970.277 C 578.42 918.999 584.029 867.501 590.33 816.417 C 595.009 778.486 598.282 731.45 605.909 694.452 C 606.698 686.061 608.51 676.08 609.732 667.598 C 610.194 663.88 611.071 657.569 611.737 653.887 C 612.084 650.76 612.312 648.445 612.865 645.324 C 613.481 636.791 615.133 627.499 616.549 619.076 C 616.856 614.809 617.915 609.539 618.833 605.306 C 624.494 579.209 627.806 552.213 633.479 526.188 C 635.525 513.915 638.49 504.446 641.744 492.617 L 641.977 491.742 C 645.051 494.32 648.415 497.146 651.6 499.554 C 677.154 513.765 699.23 517.127 726.003 501.964 C 730.924 499.177 734.513 494.718 738.942 494.251 C 738.987 490.446 742.57 487.797 745.308 484.766 C 755.663 495.865 760.791 500.068 774.907 506.255 C 806.419 516.498 835.765 506.127 855.217 479.647 C 864.734 493.819 875.03 501.622 891.208 506.627 C 889.632 546.172 900.108 579.141 927.226 608.583 C 953.678 637.309 990.458 654.353 1029.48 655.966 C 1065.56 657.403 1101.92 645.759 1128.47 620.924 C 1141.6 607.474 1154.82 594.518 1157.08 574.925 C 1158.94 558.779 1137.26 544.838 1124.96 552.99 C 1115.57 559.214 1108.09 577.563 1097.77 586.842 C 1079.4 603.358 1058.71 611.448 1033.53 610.882 C 1006.84 610.508 981.396 599.525 962.815 580.36 C 943.133 559.722 936.3 536.506 937.1 508.66 C 940.704 508.045 945.116 506.827 948.735 505.936 C 949.247 506.421 949.764 506.899 950.288 507.372 C 982.146 536.014 1027.8 547.924 1069.97 546.01 C 1126.48 543.445 1167.23 500.965 1110 457.051 C 1074.02 429.442 972.102 397.497 938.912 441.233 C 932.293 435.789 925.867 430.115 919.646 424.221 C 925.716 414.654 926.335 409.249 924.255 397.992 C 917.695 362.475 893.321 335.05 859.005 323.779 C 838.515 317.049 820.583 317.541 799.471 321.703 C 790.649 289.915 771.125 277.245 739.842 273.185 C 736.179 273.344 733.012 273.919 729.358 274.299 C 728.278 250.781 722.873 236.101 706.267 218.709 C 712.371 205.988 718.031 194.247 724.74 181.793 C 732.472 162.657 748.114 134.512 762.033 119.784 z" fill="rgb(44,110,192)" transform="translate(0,0)"></path>
<path d="M 815.837 130.685 C 831.42 120.982 849.782 114.229 867.82 110.919 C 943.711 96.9947 1087.9 117.377 1164.47 135.204 C 1199.17 143.173 1233.66 152.043 1267.9 161.805 C 1283.02 166.213 1304.35 174.361 1318.28 177.835 C 1337.09 169.841 1333.7 158.836 1325.81 143.318 C 1339.05 147.35 1351.22 152.074 1364.15 156.917 C 1367.95 158.339 1377.99 162.504 1381.47 163.419 C 1381.79 163.981 1382.1 164.555 1382.44 165.106 C 1386.75 172.007 1404.61 180.915 1412.18 185.613 C 1443.5 205.046 1513.43 248.252 1505.38 291.059 C 1503.56 300.719 1497.01 308.13 1488.93 313.351 C 1451.55 337.515 1363.26 324.298 1354.8 329.835 C 1338.04 328.995 1295.76 320.609 1277.14 316.988 C 1164.27 295.038 1048.52 264.401 943.012 218.091 C 917.965 207.097 885.7 191.275 862.901 176.139 C 849.837 167.277 837.961 156.78 827.561 144.903 C 823.702 140.548 819.783 134.416 815.837 130.685 z" fill="rgb(44,110,192)" transform="translate(0,0)"></path>
<path d="M 762.033 119.784 C 843.043 12.8576 1214.97 104.066 1325.81 143.318 C 1333.7 158.836 1337.09 169.841 1318.28 177.835 C 1304.35 174.361 1283.02 166.213 1267.9 161.805 C 1233.66 152.043 1199.17 143.173 1164.47 135.204 C 1087.9 117.377 943.711 96.9947 867.82 110.919 C 849.782 114.229 831.42 120.982 815.837 130.685 L 814.508 132.571 C 818.937 143.15 835.91 158.058 844.178 166.216 C 846.852 175.002 872.244 192.201 880.184 197.184 C 986.879 264.149 1121.6 300.751 1243.49 325.421 C 1275.39 331.773 1307.47 337.143 1339.7 341.525 C 1355.66 343.566 1372.09 345.182 1387.97 346.684 C 1403.43 348.147 1403.47 369.654 1380.67 367.633 C 1288.33 359.446 1196.37 340.646 1107.01 316.122 C 1022.32 292.881 937.718 263.085 859.233 223.493 C 830.966 209.093 798.973 189.301 777.564 165.585 C 764.722 151.361 760.455 139.016 762.033 119.784 z" fill="rgb(117,159,222)" transform="translate(0,0)"></path>
<path d="M 1381.47 163.419 C 1443.27 186.667 1578.33 250.584 1604.72 310.374 C 1626.88 360.598 1561.46 541.641 1544.16 598.507 C 1518.02 684.425 1490.89 764.279 1465.95 850.32 C 1456.71 881.388 1454.72 910.023 1448.07 940.475 C 1429.55 928.357 1418.97 922.445 1398.16 914.135 C 1398.93 913.946 1399.49 913.903 1400.13 913.416 C 1404.07 910.401 1452.14 767.767 1458.46 750.143 C 1467.16 725.938 1476.87 702.096 1485.33 677.807 C 1494.43 651.426 1503.24 624.942 1511.74 598.36 C 1519.2 574.809 1527.34 542.929 1532.91 518.674 C 1542.6 476.48 1553.52 424.409 1533.84 384.065 C 1527.41 370.886 1517.42 358.151 1509.55 345.612 C 1533.48 343.539 1560.34 342.038 1579.8 327.108 C 1582.13 325.324 1587.13 322.138 1587.57 319.51 C 1574.45 324.535 1567.48 332.341 1551.88 336.637 C 1508.24 348.66 1400.64 340.126 1354.8 329.835 C 1363.26 324.298 1451.55 337.515 1488.93 313.351 C 1497.01 308.13 1503.56 300.719 1505.38 291.059 C 1513.43 248.252 1443.5 205.046 1412.18 185.613 C 1404.61 180.915 1386.75 172.007 1382.44 165.106 C 1382.1 164.555 1381.79 163.981 1381.47 163.419 z" fill="rgb(7,84,160)" transform="translate(0,0)"></path>
<path d="M 738.942 494.251 C 738.987 490.446 742.57 487.797 745.308 484.766 C 755.663 495.865 760.791 500.068 774.907 506.255 L 771.635 509.134 C 783.326 517.013 796.468 526.66 799.397 541.528 C 800.912 549.065 799.27 556.893 794.855 563.187 C 765.432 605.688 640.264 576.615 637.604 525.97 C 636.418 526.857 635.962 526.63 634.54 526.322 L 633.479 526.188 C 635.525 513.915 638.49 504.446 641.744 492.617 L 641.977 491.742 C 645.051 494.32 648.415 497.146 651.6 499.554 C 677.154 513.765 699.23 517.127 726.003 501.964 C 730.924 499.177 734.513 494.718 738.942 494.251 z" fill="rgb(246,169,78)" transform="translate(0,0)"></path>
<path d="M 738.942 494.251 C 738.987 490.446 742.57 487.797 745.308 484.766 C 755.663 495.865 760.791 500.068 774.907 506.255 L 771.635 509.134 C 760.741 503.102 750.749 498.355 738.942 494.251 z" fill="rgb(7,84,160)" transform="translate(0,0)"></path>
<path d="M 641.977 491.742 C 645.051 494.32 648.415 497.146 651.6 499.554 C 640.393 507.924 638.804 511.779 637.604 525.97 C 636.418 526.857 635.962 526.63 634.54 526.322 L 633.479 526.188 C 635.525 513.915 638.49 504.446 641.744 492.617 L 641.977 491.742 z" fill="rgb(44,110,192)" transform="translate(0,0)"></path>
<path d="M 724.74 181.793 L 725.692 181.524 C 738.186 177.885 744.136 173.892 757.003 180.954 C 791.591 199.938 751.745 250.453 739.842 273.185 C 736.179 273.344 733.012 273.919 729.358 274.299 C 728.278 250.781 722.873 236.101 706.267 218.709 C 712.371 205.988 718.031 194.247 724.74 181.793 z" fill="rgb(117,159,222)" transform="translate(0,0)"></path>
<path d="M 1365.07 1025.44 L 1366.81 1026.33 C 1373.27 1029.51 1379.19 1033.72 1385.13 1037.77 C 1389.75 1040.91 1394.29 1044.19 1398.73 1047.59 C 1414.57 1059.62 1423.77 1070.17 1435.52 1085.95 C 1413.96 1086.15 1413.61 1089.42 1395.04 1099.82 C 1382.49 1096.75 1370.31 1095.22 1357.8 1099.37 L 1356.72 1099.72 C 1359.05 1075.18 1363.52 1049.95 1365.07 1025.44 z" fill="rgb(7,84,160)" transform="translate(0,0)"></path>
<path d="M 1549.63 1081.07 C 1556.25 1080.87 1559.16 1081.11 1565.6 1081.84 C 1579.45 1109.8 1586.79 1130.98 1594.27 1161.27 C 1585.5 1181.35 1566.9 1183.91 1563.05 1161.5 L 1562.24 1156.99 C 1560.29 1145.78 1556.8 1136.45 1553.98 1125.67 C 1548.99 1106.51 1532.21 1096.75 1549.63 1081.07 z" fill="rgb(117,159,222)" transform="translate(0,0)"></path>
<path d="M 815.837 130.685 C 819.783 134.416 823.702 140.548 827.561 144.903 C 837.961 156.78 849.837 167.277 862.901 176.139 C 885.7 191.275 917.965 207.097 943.012 218.091 C 1048.52 264.401 1164.27 295.038 1277.14 316.988 C 1295.76 320.609 1338.04 328.995 1354.8 329.835 C 1400.64 340.126 1508.24 348.66 1551.88 336.637 C 1567.48 332.341 1574.45 324.535 1587.57 319.51 C 1587.13 322.138 1582.13 325.324 1579.8 327.108 C 1560.34 342.038 1533.48 343.539 1509.55 345.612 C 1458.89 348.416 1373.2 336.967 1323.07 328.253 C 1179.58 303.304 961.155 251.61 844.178 166.216 C 835.91 158.058 818.937 143.15 814.508 132.571 L 815.837 130.685 z" fill="rgb(2,3,4)" transform="translate(0,0)"></path>
<path d="M 617.567 661.812 C 618.17 666.042 618.043 672.631 618.993 676.517 C 621.284 685.884 626.597 681.852 629.599 674.942 C 632.033 672.412 638.392 674.766 638.442 675.626 C 639.409 692.458 636.822 710.987 635.653 728.007 C 635.133 735.574 624.1 740.534 617.583 738.674 C 601.484 734.08 606.463 707.824 605.909 694.452 C 606.698 686.061 608.51 676.08 609.732 667.598 C 615.761 665.891 615.925 667.503 617.567 661.812 z" fill="rgb(117,159,222)" transform="translate(0,0)"></path>
<path d="M 669.529 718.862 C 663.415 708.475 660.018 696.187 657.752 684.429 C 655.116 670.748 650.381 598.74 659.701 588.549 C 661.435 586.653 662.867 587.096 665.168 587.207 C 667.145 588.821 668.766 591.098 668.433 593.678 C 663.087 635.211 662.454 668.971 675.947 710.167 C 673.832 713.026 671.575 715.975 669.529 718.862 z" fill="rgb(236,123,109)" transform="translate(0,0)"></path>
<path d="M 619.421 621.173 C 619.955 618.135 621.517 602.323 624.544 600.985 C 632.051 597.665 636.136 602.749 633.276 610.018 C 630.872 627.225 626.484 658.682 629.599 674.942 C 626.597 681.852 621.284 685.884 618.993 676.517 C 618.043 672.631 618.17 666.042 617.567 661.812 C 615.925 667.503 615.761 665.891 609.732 667.598 C 610.194 663.88 611.071 657.569 611.737 653.887 C 612.084 650.76 612.312 648.445 612.865 645.324 C 613.481 636.791 615.133 627.499 616.549 619.076 L 619.421 621.173 z" fill="rgb(236,123,109)" transform="translate(0,0)"></path>
<path d="M 616.549 619.076 L 619.421 621.173 C 618.687 627.364 618.13 634.65 617.566 640.891 C 616.462 639.21 616.343 638.748 615.658 636.891 L 615.599 636.924 C 615.359 641.374 615.421 641.517 612.865 645.324 C 613.481 636.791 615.133 627.499 616.549 619.076 z" fill="rgb(44,110,192)" transform="translate(0,0)"></path>
<path d="M 617.01 655.12 L 617.567 661.812 C 615.925 667.503 615.761 665.891 609.732 667.598 C 610.194 663.88 611.071 657.569 611.737 653.887 C 614.34 655.349 614.231 655.832 617.01 655.12 z" fill="rgb(73,148,233)" transform="translate(0,0)"></path>
<path d="M 612.865 645.324 C 615.421 641.517 615.359 641.374 615.599 636.924 L 615.658 636.891 C 616.343 638.748 616.462 639.21 617.566 640.891 C 617.08 645.8 617.082 650.22 617.01 655.12 C 614.231 655.832 614.34 655.349 611.737 653.887 C 612.084 650.76 612.312 648.445 612.865 645.324 z" fill="rgb(50,130,215)" transform="translate(0,0)"></path>
<path d="M 1310.21 636.415 C 1336.93 634.363 1368.79 643 1391.35 657.994 C 1407.36 668.635 1427.42 693.218 1411.94 712.391 C 1400.47 726.608 1380.06 730.894 1362.54 732.611 C 1327.39 735.621 1263.4 716.441 1255.82 676.532 C 1250.2 646.976 1288.94 638.013 1310.21 636.415 z" fill="rgb(246,169,78)" transform="translate(0,0)"></path>
<path d="M 1265.16 462.418 C 1295.51 459.515 1332.44 475.982 1352.31 498.486 C 1362.54 509.677 1378.63 536.43 1376.53 551.884 C 1372.83 579.039 1336.62 578.858 1330.85 551.215 C 1329.67 545.569 1323.31 534.922 1320.03 530.545 C 1298.38 507.709 1268.43 500.09 1240.24 517.418 C 1228.38 524.71 1214.67 540.609 1199.74 529.879 C 1187.63 521.169 1186.31 505.589 1196.2 494.837 C 1214.53 474.277 1238.14 464.692 1265.16 462.418 z" fill="rgb(2,3,4)" transform="translate(0,0)"></path>
<path d="M 1259.01 466.334 C 1260.09 466.23 1261.16 466.125 1262.24 466.02 C 1291.25 463.744 1319.95 473.356 1341.74 492.651 C 1356.86 505.904 1371.26 528.023 1373.5 548.474 C 1374.76 560.043 1363.87 570.068 1352.49 569.178 C 1337.15 567.979 1334.8 550.948 1329.3 539.806 C 1327.13 535.382 1324.87 532.383 1321.83 528.515 C 1298.07 504.225 1268.37 497.209 1237.57 514.309 C 1230.52 518.223 1225.1 527.284 1216.43 529.309 C 1199.14 533.348 1185.52 513.566 1196.31 499.168 C 1211.92 479.487 1234.49 469.735 1259.01 466.334 z" fill="rgb(236,123,109)" transform="translate(0,0)"></path>
<path d="M 1392.97 765.521 C 1395.51 765.739 1395.76 765.973 1398.18 766.889 C 1400.78 770.045 1401.29 770.782 1400.89 775.361 C 1397 820.019 1377.5 861.562 1343.57 890.759 C 1339.23 890.748 1338.29 890.489 1336.96 886.719 C 1338.08 879.685 1352.41 866.4 1358.16 858.436 C 1363.21 851.447 1367.74 844.102 1371.72 836.456 C 1379.15 822.178 1381.66 812.867 1385.64 797.467 C 1388.31 787.13 1387.85 773.144 1392.97 765.521 z" fill="rgb(236,123,109)" transform="translate(0,0)"></path>
<path d="M 1431.73 762.345 C 1442.09 764.455 1440.64 771.855 1439.13 781.005 C 1435.19 804.864 1426.01 842.034 1409.08 859.858 C 1408.05 859.636 1407.01 859.455 1405.98 859.218 C 1404.26 858.82 1402.27 858.06 1401.44 856.36 C 1401.15 855.752 1420.61 814.488 1423.77 801.482 C 1424.13 799.992 1424.51 798.481 1424.83 796.983 C 1426.31 790.086 1427.06 768.223 1430.03 764.423 C 1430.21 764.187 1430.42 763.97 1430.61 763.739 L 1431.73 762.345 z" fill="rgb(236,123,109)" transform="translate(0,0)"></path>
<path d="M 1509.95 526.601 C 1516.42 528.108 1517.66 533.4 1513.58 538.354 C 1497.66 557.719 1472.61 565.93 1448.17 560.896 C 1436.17 555.151 1443.3 545.443 1453.99 550.168 C 1457.67 551.796 1464.99 550.647 1469.01 550.231 C 1488.42 548.226 1496.99 539.177 1509.95 526.601 z" fill="rgb(236,123,109)" transform="translate(0,0)"></path>
<path d="M 1579 1195.11 C 1584.97 1194.84 1591.17 1194.06 1594.22 1199.88 C 1600.72 1212.27 1599.28 1221.14 1589 1228.83 C 1583.28 1229.36 1574.44 1229.94 1572.36 1223.72 C 1568.05 1210.85 1567.71 1201.51 1579 1195.11 z" fill="rgb(117,159,222)" transform="translate(0,0)"></path>
<path d="M 1445.22 571.43 C 1450.45 574.185 1455.17 578.223 1459.98 581.212 C 1473.2 589.642 1486.58 590.492 1501.53 591.327 C 1505.26 591.536 1504.84 598.53 1502.2 601.874 C 1481.8 602.813 1464.36 599.138 1448 586.504 C 1441.76 581.686 1438.55 579.028 1443.97 572.907 L 1445.22 571.43 z" fill="rgb(236,123,109)" transform="translate(0,0)"></path>
<path d="M 489.633 32.3117 C 535.407 27.3389 580.404 51.5284 595.416 96.639 C 598.25 105.156 598.371 117.881 601.765 125.736 C 603.75 122.693 602.398 114.862 601.969 111.036 C 615.342 100.834 631.057 95.1713 648.095 97.2121 C 663.77 99.1312 678.015 107.269 687.629 119.796 C 697.856 133.032 702.225 149.875 699.723 166.413 C 697.586 181.448 690.755 192.741 678.811 201.834 C 663.692 196.331 652.578 194.347 636.37 196.219 C 630.993 196.84 620.57 197.901 617.167 202.063 C 617.697 202.499 618.227 202.935 618.756 203.371 C 655.003 191.172 693.97 203.042 715.276 235.559 C 722.305 246.286 725.41 258.62 726.913 274.643 C 716.486 278.027 686.061 292.57 687.757 305.244 C 689.727 305.499 690.876 303.231 692.211 301.453 C 730.434 250.56 806.653 284.34 796.071 346.05 C 794.74 353.81 791.966 361.107 789.295 368.798 C 833.269 351.781 874.351 380.722 866.312 428.008 C 905.202 395.795 924.394 439.819 955.189 457.725 C 971.994 467.496 988.966 473.377 1007.81 478.144 C 963.399 500.355 906.616 526.468 864.36 486.553 C 859.757 481.084 858.899 479.239 855.633 472.957 C 849.901 480.929 845.927 486.413 838.23 492.66 C 825.042 503.41 808.088 508.411 791.177 506.539 C 778.754 505.138 767.854 500.553 758.206 492.679 C 749.723 485.757 744.703 475.84 737.758 467.169 L 737.43 468.23 L 736.793 466.586 L 738.203 467.909 L 737.755 469.198 C 739.601 475.236 740.703 476.789 743.904 481.997 C 714.182 515.685 676.145 516.68 642.642 487.545 C 628.452 504.108 610.647 515.183 589.243 520.024 C 565.312 525.521 540.177 521.216 519.44 508.068 C 497.597 494.152 485.133 475.359 479.632 450.371 C 430.966 468.176 381.475 452.796 354.505 406.673 C 339.726 381.399 338.884 342.939 355.001 317.794 C 304.098 307.111 278.677 267.467 282.059 216.469 C 283.767 187.968 297.108 161.42 318.959 143.041 C 343.567 122.002 368.808 116.713 400.122 119.281 C 399.928 127.951 398.935 143.992 403.925 151.149 C 407.613 150.135 402.238 130.156 402.631 125.243 C 406.614 75.4873 440.863 39.8541 489.633 32.3117 z" fill="rgb(233,230,219)" transform="translate(0,0)"></path>
<path d="M 502.556 51.2758 C 517.582 49.9949 540.378 54.5933 543.828 72.5077 C 546.157 84.5951 540.461 93.3096 529.664 98.6148 C 523.82 101.487 519.612 101.873 513.389 103.068 C 496.767 103.335 474.013 102.314 469.926 80.4918 C 466.39 61.6092 486.855 53.4173 502.556 51.2758 z" fill="rgb(255,255,255)" transform="translate(0,0)"></path>
<path d="M 641.565 119.002 C 648.934 118.511 657.637 118.696 663.144 123.737 C 677.051 136.467 682.778 160.202 661.29 167.308 C 646.265 166.536 633.742 159.785 628.375 145.389 C 622.675 130.1 628.03 123.657 641.565 119.002 z" fill="rgb(255,255,255)" transform="translate(0,0)"></path>
<path d="M 446.187 83.8225 C 450.227 83.9252 453.334 83.9248 457.021 86.1043 C 458.449 86.9557 459.467 88.3544 459.837 89.9752 C 460.835 94.2565 459.009 98.9056 456.478 102.292 L 455.406 103.759 C 442.291 105.268 436.964 93.8022 446.187 83.8225 z" fill="rgb(255,255,255)" transform="translate(0,0)"></path>
<path d="M 699.651 1693.93 C 722.494 1709.75 740.14 1715.34 765.907 1722.99 C 794.737 1728.27 820.72 1731.94 850.342 1727.51 C 871.843 1723.14 887.34 1720.62 907.428 1711.41 C 914.547 1756.36 919.412 1795.17 939.745 1835.53 C 949.339 1854.57 942.895 1892.1 929.78 1908.06 C 904.003 1942.68 849.025 1957.65 808.978 1968.78 C 799.637 1971.37 781.562 1976.54 772.909 1978.04 C 709.025 1996 573.314 2025.67 509.561 2017.78 C 478.082 2013.88 450.613 2000.42 430.931 1975.05 C 411.067 1949.44 406.727 1914.64 410.538 1883.23 C 412.401 1850.59 429.138 1810.68 453.291 1788.3 C 477.712 1765.67 515.355 1754.32 548.317 1755.86 C 584.678 1757.81 618.778 1774.12 643.13 1801.19 C 650.246 1809.14 652.621 1812.6 658.183 1821.66 C 660.519 1825.46 665.717 1837.58 667.024 1838.84 L 667.789 1838.01 C 660.244 1803.96 629.194 1782.21 601.085 1765.73 C 644.284 1746.31 680.641 1768.05 713.049 1798.12 C 715.686 1800.57 729.017 1816.01 730.755 1816.41 C 731.317 1813.3 731.202 1814.5 730.317 1811.18 C 717.068 1796.86 703.072 1782.79 686.246 1772.67 C 678.756 1768.16 670.932 1765.1 663.384 1760.98 C 670.979 1758.34 675.703 1756.62 682.831 1752.79 C 689.451 1744.63 691.133 1737.7 693.437 1727.9 C 695.54 1716.63 697.798 1705.22 699.651 1693.93 z" fill="rgb(44,110,192)" transform="translate(0,0)"></path>
<path d="M 850.342 1727.51 C 871.843 1723.14 887.34 1720.62 907.428 1711.41 C 914.547 1756.36 919.412 1795.17 939.745 1835.53 C 949.339 1854.57 942.895 1892.1 929.78 1908.06 C 904.003 1942.68 849.025 1957.65 808.978 1968.78 C 799.637 1971.37 781.562 1976.54 772.909 1978.04 C 778.038 1971.93 806.004 1957.79 815.375 1952.29 C 882.176 1913.08 920.71 1829.7 881.052 1757.91 C 877.69 1751.82 855.232 1728.56 850.342 1727.51 z" fill="rgb(7,84,160)" transform="translate(0,0)"></path>
<path d="M 410.538 1883.23 C 412.401 1850.59 429.138 1810.68 453.291 1788.3 C 477.712 1765.67 515.355 1754.32 548.317 1755.86 C 584.678 1757.81 618.778 1774.12 643.13 1801.19 C 640.819 1844.01 609.407 1810.2 592.94 1799.76 C 580.374 1792.04 564.892 1787.69 550.286 1786.39 C 501.874 1782.11 462.517 1814.88 445.062 1858.06 C 442.116 1865.34 439.309 1874.33 434.759 1880.6 C 429.806 1887.42 416.82 1888.92 410.538 1883.23 z" fill="rgb(117,159,222)" transform="translate(0,0)"></path>
<path d="M 699.651 1693.93 C 722.494 1709.75 740.14 1715.34 765.907 1722.99 C 753.714 1731.15 709.212 1728.93 693.437 1727.9 C 695.54 1716.63 697.798 1705.22 699.651 1693.93 z" fill="rgb(7,84,160)" transform="translate(0,0)"></path>
<path d="M 682.831 1752.79 C 711.954 1763.72 728.518 1778.77 730.317 1811.18 C 717.068 1796.86 703.072 1782.79 686.246 1772.67 C 678.756 1768.16 670.932 1765.1 663.384 1760.98 C 670.979 1758.34 675.703 1756.62 682.831 1752.79 z" fill="rgb(7,84,160)" transform="translate(0,0)"></path>
<path d="M 1251.21 1727.24 C 1274.25 1721.68 1291.27 1714.22 1311.16 1701.49 L 1312.16 1705.49 C 1314.62 1715.3 1316.26 1727.28 1317.48 1737.4 C 1319.81 1744.53 1320.3 1746.54 1324.39 1753 C 1330.06 1757.68 1330.56 1757.51 1336.74 1761.17 L 1335.88 1761.62 C 1302.79 1778.34 1295.79 1786.23 1270.45 1812.88 C 1268.94 1816.11 1267.87 1816.85 1268.33 1819.73 L 1269.94 1819.49 C 1286.16 1796.85 1317.1 1770.4 1343.94 1761.67 C 1364.78 1754.9 1383.29 1756.82 1402.56 1766.51 C 1375.48 1778.93 1351.22 1798.58 1336.97 1825.1 C 1334.91 1828.93 1331.4 1835.75 1331.3 1839.98 L 1332.46 1840.83 C 1334.48 1838.26 1338.25 1828.81 1340.21 1825.13 C 1346.28 1813.72 1354.17 1805.31 1363.34 1796.44 C 1391.6 1770.04 1428.18 1754.65 1467.15 1756.23 C 1537.15 1759.07 1581.93 1803.67 1592.42 1872.22 C 1595.48 1910.42 1593.34 1948.93 1567.83 1979.34 C 1524.14 2031.43 1453.29 2020.71 1393.53 2011.89 C 1342.3 2004.32 1285.27 1994.34 1235.09 1980.51 C 1232.21 1979.86 1229.34 1979.18 1226.47 1978.48 C 1177.81 1966.66 1096.02 1946.16 1069.4 1901.41 C 1059.25 1886.46 1055.02 1852.73 1063.27 1836.03 C 1082.8 1796.5 1089.59 1755.52 1100.44 1712.43 C 1118.9 1721.72 1129.1 1723.29 1148.76 1728.35 C 1186.38 1734.58 1212.99 1735.7 1251.21 1727.24 z" fill="rgb(44,110,192)" transform="translate(0,0)"></path>
<path d="M 1100.44 1712.43 C 1118.9 1721.72 1129.1 1723.29 1148.76 1728.35 C 1144.58 1731.54 1139.53 1734.25 1135.87 1737.81 C 1090.37 1782.07 1096.69 1859.98 1133.09 1906.41 C 1143.51 1919.98 1155.93 1931.88 1169.94 1941.71 C 1181.88 1950.25 1194.51 1958.05 1207.2 1965.44 C 1214.54 1969.72 1230.41 1973.6 1235.09 1980.51 C 1232.21 1979.86 1229.34 1979.18 1226.47 1978.48 C 1177.81 1966.66 1096.02 1946.16 1069.4 1901.41 C 1059.25 1886.46 1055.02 1852.73 1063.27 1836.03 C 1082.8 1796.5 1089.59 1755.52 1100.44 1712.43 z" fill="rgb(7,84,160)" transform="translate(0,0)"></path>
<path d="M 1363.34 1796.44 C 1391.6 1770.04 1428.18 1754.65 1467.15 1756.23 C 1537.15 1759.07 1581.93 1803.67 1592.42 1872.22 C 1592.21 1872.45 1592.01 1872.67 1591.8 1872.9 L 1590.76 1874 C 1584.39 1880.82 1575.39 1885.48 1567.58 1876.97 C 1562.4 1871.32 1559.11 1859.19 1555.8 1851.88 C 1544.37 1826.67 1524.8 1806.22 1499.6 1794.58 C 1469.66 1780.86 1434.78 1783.46 1407.19 1801.46 C 1396.57 1808.46 1366.59 1838.89 1361.81 1811.24 C 1360.83 1805.6 1362.08 1801.92 1363.34 1796.44 z" fill="rgb(117,159,222)" transform="translate(0,0)"></path>
<path d="M 1251.21 1727.24 C 1274.25 1721.68 1291.27 1714.22 1311.16 1701.49 L 1312.16 1705.49 C 1314.62 1715.3 1316.26 1727.28 1317.48 1737.4 C 1309 1736.31 1255.31 1729.72 1252.13 1727.78 L 1251.21 1727.24 z" fill="rgb(7,84,160)" transform="translate(0,0)"></path>
<path d="M 1324.39 1753 C 1330.06 1757.68 1330.56 1757.51 1336.74 1761.17 L 1335.88 1761.62 C 1302.79 1778.34 1295.79 1786.23 1270.45 1812.88 C 1273.34 1793.78 1287.87 1776.38 1303.32 1765.59 C 1310.15 1760.83 1317.77 1757.83 1324.39 1753 z" fill="rgb(7,84,160)" transform="translate(0,0)"></path>
<path d="M 569.844 1252.28 C 584.52 1250.3 600.122 1253.54 610.951 1263.03 C 639.167 1287.79 650.295 1332.83 697.903 1326.36 C 732.744 1321.63 766.138 1290.49 800.701 1317.92 C 810.597 1325.6 817.989 1335.21 826.691 1344.32 C 843.597 1362.01 864.154 1371.8 888.915 1368.75 C 921.744 1364.7 944.725 1331.98 979.548 1338.59 C 988.865 1340.36 999.711 1345.56 1006.63 1351.24 C 1030.82 1371.12 1053.93 1396.56 1088.55 1390.88 C 1125.25 1385.77 1140.46 1348.15 1174.45 1340.66 C 1202.42 1334.48 1221.88 1356.96 1243.08 1366.9 C 1283 1385.62 1311.04 1372.85 1336.77 1341.12 C 1348.01 1326.98 1362.63 1315.51 1381.2 1313.44 C 1384.64 1313.06 1388.23 1313.34 1390.94 1315.7 C 1400.67 1324.17 1386.11 1352.83 1436.33 1354.84 C 1442.67 1374.32 1441.16 1395.51 1432.1 1413.9 C 1420.92 1436.34 1405.48 1448.49 1382.35 1457.78 C 1362.97 1465.57 1338.86 1456.34 1324.2 1461.2 C 1281.08 1475.49 1264.55 1505.45 1214.59 1479.77 C 1212.28 1478.56 1210.01 1477.27 1207.79 1475.91 C 1177.31 1460.74 1156.44 1461.29 1126.13 1479.85 C 1109.03 1490.31 1098.22 1501.53 1077.65 1505.45 C 1036.64 1513.25 1018.45 1495.7 987.537 1475.97 C 940.997 1446.27 917.812 1476.36 876.231 1487.78 C 850.329 1494.89 820.219 1484.82 801.668 1465.77 C 793.526 1457.41 782.838 1445.43 772.835 1439.49 C 741.509 1420.88 726.099 1438.51 700.696 1444.48 L 699.068 1444.86 C 675.007 1448.05 654.613 1443.34 638.699 1423.13 C 626.863 1408.1 624.096 1398.99 607.167 1387.42 C 593.256 1376.15 571.942 1377.93 557.607 1370.01 C 510.426 1343.94 519.39 1267.68 569.844 1252.28 z" fill="rgb(233,230,219)" transform="translate(0,0)"></path>
<path d="M 1336.77 1341.12 C 1348.01 1326.98 1362.63 1315.51 1381.2 1313.44 C 1384.64 1313.06 1388.23 1313.34 1390.94 1315.7 C 1400.67 1324.17 1386.11 1352.83 1436.33 1354.84 C 1442.67 1374.32 1441.16 1395.51 1432.1 1413.9 C 1420.92 1436.34 1405.48 1448.49 1382.35 1457.78 C 1362.97 1465.57 1338.86 1456.34 1324.2 1461.2 C 1281.08 1475.49 1264.55 1505.45 1214.59 1479.77 C 1212.28 1478.56 1210.01 1477.27 1207.79 1475.91 C 1216.88 1474.79 1227.85 1475.2 1236.93 1474.84 C 1296.18 1472.49 1340.77 1423.08 1341.18 1364.52 C 1341.23 1356.51 1342.54 1347.62 1336.77 1341.12 z" fill="rgb(208,205,192)" transform="translate(0,0)"></path>
<path d="M 699.068 1444.86 C 675.007 1448.05 654.613 1443.34 638.699 1423.13 C 626.863 1408.1 624.096 1398.99 607.167 1387.42 C 593.256 1376.15 571.942 1377.93 557.607 1370.01 C 510.426 1343.94 519.39 1267.68 569.844 1252.28 C 568.034 1260.49 564.548 1267.55 562.279 1275.48 C 555.838 1298.01 555.763 1323.75 568.292 1344.26 C 583.255 1369.26 608.199 1372.57 629.773 1388.87 C 635.659 1393.32 643.612 1402.18 647.839 1407.79 C 663.229 1428.2 674.886 1435.9 698.334 1444.69 C 698.578 1444.75 698.823 1444.8 699.068 1444.86 z" fill="rgb(208,205,192)" transform="translate(0,0)"></path>
<path d="M 584.088 828.914 L 584.703 829.534 C 585.424 833.776 581.538 860.15 580.963 866.961 C 578.085 901.058 572.243 938.015 570.775 971.916 C 557.214 980.276 514.52 1006.35 506.664 1018.55 C 513.053 1016.96 524.475 1006.47 530.233 1002.17 C 563.54 977.734 600.119 958.108 638.895 943.866 C 638.909 933.079 638.986 924.493 640.092 913.715 C 658.845 923.498 668.418 925.619 689.262 919.936 C 691.795 925.939 694.025 930.483 697.981 935.631 C 707.082 947.434 720.628 954.985 735.454 956.521 C 752.044 958.357 766.739 953.226 779.71 943.221 C 811.846 953.202 870.356 956.812 875.76 997.604 C 877.283 1009.29 874.009 1021.09 866.685 1030.32 C 834.658 1070.31 771.518 1009.96 753.512 1011.93 L 752.511 1013.47 C 754.614 1022.76 779.929 1040.51 787.966 1046.11 C 806.248 1058.53 823.25 1071.44 822.406 1096.28 C 822.187 1113.95 804.426 1129.65 787.027 1130.3 C 736.427 1132.21 723.897 1071.47 673.312 1070.37 C 630.418 1069.44 606.061 1088.9 569.87 1107.64 C 543.3 1121.39 511.048 1136.34 480.84 1133.67 C 458.97 1131.7 438.8 1121.05 424.83 1104.11 C 412.853 1089.75 407.222 1071.14 409.227 1052.55 C 416.04 988.744 533.257 869.381 584.088 828.914 z" fill="rgb(44,110,192)" transform="translate(0,0)"></path>
<path d="M 566.975 1150.88 C 576.907 1157.02 578.227 1157.27 589.89 1158.55 C 599.549 1174.97 609.991 1179.45 628.462 1178.93 C 642.655 1200.24 659.269 1206.47 684.122 1202.67 C 699.618 1218.46 714.475 1223 735.824 1219.64 C 740.016 1223.97 743.351 1226.88 748.685 1229.85 C 761.3 1237.03 776.277 1238.81 790.222 1234.79 C 807.847 1249.85 823.426 1253.01 845.864 1246.53 C 865.339 1263.59 881.8 1266.11 906.329 1258.06 C 924.278 1272.68 943.613 1277.06 964.967 1266.68 C 982.659 1277.52 1002.91 1283.33 1022.43 1272.66 C 1041.89 1286.11 1061.64 1289.22 1083.13 1277.61 C 1103.1 1288.78 1124.89 1290.58 1144.71 1277.78 C 1164.45 1288.75 1188.28 1290.32 1206.53 1275.18 C 1229.28 1285.83 1245.85 1284.89 1266.68 1270.27 C 1287.31 1277.67 1308.06 1276.85 1324.86 1260.95 C 1328.57 1262.08 1332.51 1262.92 1336.29 1263.81 C 1334.15 1281.99 1332.32 1300.21 1330.79 1318.45 C 1330.31 1323.99 1328.73 1339.85 1329.08 1345.01 C 1315.24 1364.79 1295.15 1373.2 1271.56 1371.93 C 1235.05 1369.97 1212.05 1330.54 1174.69 1337.52 C 1140.67 1343.87 1121.84 1385.28 1085.53 1388.13 C 1035.97 1395.82 1012.68 1328.95 965.02 1335.04 C 926.695 1339.94 908.241 1374.86 864.905 1364.36 C 825.255 1354.76 819.32 1315.49 781.871 1305.53 C 751.632 1297.48 725.832 1320.02 696.765 1323.25 C 628.683 1329.06 640.68 1240.66 568.711 1249.14 C 565.821 1220.03 565.877 1180 566.975 1150.88 z" fill="rgb(44,110,192)" transform="translate(0,0)"></path>
<path d="M 660.898 747.282 C 661.128 752.306 660.864 762.291 663.954 765.761 L 664.968 765.083 C 664.707 759.619 664.452 754.152 664.681 748.684 C 665.908 719.356 690.444 694.132 719.978 692.848 C 734.557 692.155 748.78 697.484 759.312 707.588 C 782.276 729.314 773.132 736.636 772.574 761.774 L 773.788 761.821 C 779.122 750.208 779.921 742.826 777.592 729.791 C 793.608 720.252 808.064 715.027 827.067 719.799 C 842.18 723.678 855.106 733.459 862.947 746.949 C 870.998 760.489 873.256 776.701 869.213 791.926 C 865.131 806.783 857.069 815.525 845.164 824.179 C 849.987 827.533 853.01 829.566 855.98 834.768 C 880.016 873.347 848.359 926.994 799.079 916.667 C 796.914 916.214 801.844 901.876 800.895 899.997 C 801.65 891.478 800.076 885.25 799.401 877.063 L 797.37 874.333 L 796.135 874.656 C 795.81 880.203 797.204 883.196 797.171 887.937 C 798.115 894.598 797.606 904.482 796.124 910.999 C 792.826 925.389 783.813 937.816 771.161 945.422 C 758.402 953.234 741.992 955.434 727.535 951.704 C 714 948.217 702.499 939.308 695.739 927.075 C 687.388 912.144 688.366 897.311 693.08 881.706 C 694.312 878.012 695.38 876.952 694.679 873.722 C 692.282 874.825 691.352 877.231 690.408 879.681 C 690.018 880.716 689.649 881.76 689.304 882.811 C 685.396 897.357 685.786 902.385 687.607 917.345 C 685.059 917.875 682.57 918.514 679.996 918.915 C 635.916 925.781 604.313 882.459 624.203 842.734 C 628.958 834.304 633.555 829.169 641.99 824.397 C 625.092 808.026 619.415 793.756 629.094 771.084 C 635.733 759.523 642 751.988 655.678 748.437 C 657.405 747.997 659.146 747.611 660.898 747.282 z" fill="rgb(233,230,219)" transform="translate(0,0)"></path>
<path d="M 693.08 881.706 L 693.45 882.588 C 702.204 903.935 698.605 907.164 723.411 920.427 C 747.345 933.223 796.092 917.939 797.171 887.937 C 798.115 894.598 797.606 904.482 796.124 910.999 C 792.826 925.389 783.813 937.816 771.161 945.422 C 758.402 953.234 741.992 955.434 727.535 951.704 C 714 948.217 702.499 939.308 695.739 927.075 C 687.388 912.144 688.366 897.311 693.08 881.706 z" fill="rgb(208,205,192)" transform="translate(0,0)"></path>
<path d="M 855.98 834.768 C 880.016 873.347 848.359 926.994 799.079 916.667 C 796.914 916.214 801.844 901.876 800.895 899.997 C 801.65 891.478 800.076 885.25 799.401 877.063 C 809.391 881.752 830.077 879.717 839.373 872.792 C 854.569 861.471 852.632 850.05 855.98 834.768 z" fill="rgb(208,205,192)" transform="translate(0,0)"></path>
<path d="M 624.203 842.734 C 627.984 848.915 627.083 849.235 627.914 857.001 C 628.969 866.11 633.839 874.344 641.315 879.655 C 655.238 889.745 674.257 891.151 689.304 882.811 C 685.396 897.357 685.786 902.385 687.607 917.345 C 685.059 917.875 682.57 918.514 679.996 918.915 C 635.916 925.781 604.313 882.459 624.203 842.734 z" fill="rgb(208,205,192)" transform="translate(0,0)"></path>
<path d="M 629.094 771.084 L 629.451 772.465 C 630.272 775.557 631.65 779.951 631.993 783.495 C 633.862 802.834 667.36 800.888 660.926 817.997 C 658.945 823.264 646.784 824.875 641.99 824.397 C 625.092 808.026 619.415 793.756 629.094 771.084 z" fill="rgb(208,205,192)" transform="translate(0,0)"></path>
<path d="M 715.809 706.179 C 725.403 705.671 731.353 705.866 740.001 710.103 C 748.097 714.071 761.391 727.043 750.538 735.039 C 744.572 739.435 738.593 741.377 731.479 742.865 C 689.436 745.778 678.016 716.014 715.809 706.179 z" fill="rgb(255,255,255)" transform="translate(0,0)"></path>
<path d="M 678.108 1591.85 C 686.754 1567.36 705.062 1551.97 728.251 1541.75 C 719.476 1560.86 725.604 1568.49 739.429 1581.8 L 741.2 1583.31 C 750.289 1589.39 755.608 1592.16 765.766 1596.42 L 768.235 1597.48 C 779.84 1600.55 796.4 1605.08 808.129 1605.24 L 812.315 1606.05 C 824.857 1606.84 833.101 1606.49 845.541 1604.9 L 851.128 1604.46 C 867.058 1601.28 876.934 1598.13 892.116 1591.9 L 893.318 1590.65 C 906.665 1581.28 909.25 1578.31 911.396 1561.93 C 930.706 1579.16 943.839 1595.8 946.058 1622.82 L 946.364 1624.73 C 948.125 1635.4 949.203 1650.28 945.198 1660.29 C 941.639 1678.76 932.618 1692.06 916.408 1701.82 C 908.13 1708.52 903.086 1710.58 892.862 1713.8 C 880.51 1718.6 870.672 1720.33 857.755 1722.74 C 851.693 1723.87 847.938 1724.57 841.756 1725.01 C 830.999 1725.67 822.071 1726 811.268 1726.04 C 805.989 1725.4 800.306 1725.12 794.88 1724.51 C 786.676 1723.59 766.123 1721.15 759.77 1717.16 C 754.707 1717.96 745.329 1713.77 740.313 1711.84 C 724.173 1705.27 714.206 1699.93 700.105 1690.06 C 694.363 1685.07 691.453 1682.79 686.899 1676.69 C 672.897 1660.63 669.851 1648.05 670.856 1627.43 C 670.146 1617.86 674.175 1600.35 678.108 1591.85 z" fill="rgb(246,169,78)" transform="translate(0,0)"></path>
<path d="M 893.318 1590.65 C 906.665 1581.28 909.25 1578.31 911.396 1561.93 C 930.706 1579.16 943.839 1595.8 946.058 1622.82 L 946.364 1624.73 C 948.125 1635.4 949.203 1650.28 945.198 1660.29 C 941.639 1678.76 932.618 1692.06 916.408 1701.82 C 908.13 1708.52 903.086 1710.58 892.862 1713.8 C 880.51 1718.6 870.672 1720.33 857.755 1722.74 C 864.769 1686.95 866.926 1638.23 851.128 1604.46 C 867.058 1601.28 876.934 1598.13 892.116 1591.9 L 893.318 1590.65 z" fill="rgb(246,169,78)" transform="translate(0,0)"></path>
<path d="M 893.318 1590.65 C 906.665 1581.28 909.25 1578.31 911.396 1561.93 C 930.706 1579.16 943.839 1595.8 946.058 1622.82 L 946.364 1624.73 C 948.125 1635.4 949.203 1650.28 945.198 1660.29 C 941.639 1678.76 932.618 1692.06 916.408 1701.82 C 916.812 1691.39 920.209 1681.2 919.613 1666.94 C 918.37 1637.18 915.003 1612.28 893.318 1590.65 z" fill="rgb(246,169,78)" transform="translate(0,0)"></path>
<path d="M 918.6 1590.4 C 937.457 1602.82 935.75 1609.74 946.058 1622.82 L 946.364 1624.73 C 948.125 1635.4 949.203 1650.28 945.198 1660.29 C 940.824 1632.24 936.701 1614.43 915.608 1593.38 L 918.6 1590.4 z" fill="rgb(7,84,160)" transform="translate(0,0)"></path>
<path d="M 906.388 1583.67 C 910.48 1585.83 914.748 1587.86 918.6 1590.4 L 915.608 1593.38 C 912.007 1589.89 909.699 1587.44 906.388 1583.67 z" fill="rgb(7,84,160)" transform="translate(0,0)"></path>
<path d="M 893.318 1590.65 C 915.003 1612.28 918.37 1637.18 919.613 1666.94 C 920.209 1681.2 916.812 1691.39 916.408 1701.82 C 908.13 1708.52 903.086 1710.58 892.862 1713.8 C 894.21 1710.75 895.409 1707.63 896.456 1704.46 C 907.628 1671.5 907.829 1623.78 892.116 1591.9 L 893.318 1590.65 z" fill="rgb(44,110,192)" transform="translate(0,0)"></path>
<path d="M 678.108 1591.85 C 686.754 1567.36 705.062 1551.97 728.251 1541.75 C 719.476 1560.86 725.604 1568.49 739.429 1581.8 L 741.2 1583.31 C 750.289 1589.39 755.608 1592.16 765.766 1596.42 C 743.434 1621.49 737.431 1666.3 739.182 1698.51 C 739.464 1702.96 739.841 1707.41 740.313 1711.84 C 724.173 1705.27 714.206 1699.93 700.105 1690.06 C 694.363 1685.07 691.453 1682.79 686.899 1676.69 C 672.897 1660.63 669.851 1648.05 670.856 1627.43 C 670.146 1617.86 674.175 1600.35 678.108 1591.85 z" fill="rgb(246,169,78)" transform="translate(0,0)"></path>
<path d="M 678.108 1591.85 C 686.754 1567.36 705.062 1551.97 728.251 1541.75 C 719.476 1560.86 725.604 1568.49 739.429 1581.8 C 703.776 1607.72 693.709 1633.99 686.899 1676.69 C 672.897 1660.63 669.851 1648.05 670.856 1627.43 C 670.146 1617.86 674.175 1600.35 678.108 1591.85 z" fill="rgb(246,169,78)" transform="translate(0,0)"></path>
<path d="M 678.108 1591.85 C 691.894 1582.59 705.765 1569.2 723.491 1567.05 C 724.478 1566.94 724.917 1567.73 724.82 1568.62 C 723.993 1569.71 713.687 1574.8 711.112 1576.53 C 694.22 1587.9 677.791 1608.48 670.856 1627.43 C 670.146 1617.86 674.175 1600.35 678.108 1591.85 z" fill="rgb(7,84,160)" transform="translate(0,0)"></path>
<path d="M 739.429 1581.8 L 741.2 1583.31 C 711.053 1615.39 703.423 1646.24 700.105 1690.06 C 694.363 1685.07 691.453 1682.79 686.899 1676.69 C 693.709 1633.99 703.776 1607.72 739.429 1581.8 z" fill="rgb(7,84,160)" transform="translate(0,0)"></path>
<path d="M 845.541 1604.9 L 851.128 1604.46 C 866.926 1638.23 864.769 1686.95 857.755 1722.74 C 851.693 1723.87 847.938 1724.57 841.756 1725.01 C 830.999 1725.67 822.071 1726 811.268 1726.04 C 803.878 1699.13 808.408 1634.43 812.315 1606.05 C 824.857 1606.84 833.101 1606.49 845.541 1604.9 z" fill="rgb(246,169,78)" transform="translate(0,0)"></path>
<path d="M 845.541 1604.9 L 851.128 1604.46 C 866.926 1638.23 864.769 1686.95 857.755 1722.74 C 851.693 1723.87 847.938 1724.57 841.756 1725.01 C 842.645 1715.66 845.377 1702.34 846.516 1691.97 C 849.966 1660.53 849.248 1636 845.541 1604.9 z" fill="rgb(7,84,160)" transform="translate(0,0)"></path>
<path d="M 765.766 1596.42 L 768.235 1597.48 C 755.873 1638.13 750.059 1675.07 759.77 1717.16 C 754.707 1717.96 745.329 1713.77 740.313 1711.84 C 739.841 1707.41 739.464 1702.96 739.182 1698.51 C 737.431 1666.3 743.434 1621.49 765.766 1596.42 z" fill="rgb(7,84,160)" transform="translate(0,0)"></path>
<path d="M 808.129 1605.24 L 812.315 1606.05 C 808.408 1634.43 803.878 1699.13 811.268 1726.04 C 805.989 1725.4 800.306 1725.12 794.88 1724.51 C 790.687 1681.52 792.711 1645.82 808.129 1605.24 z" fill="rgb(7,84,160)" transform="translate(0,0)"></path>
<path d="M 1449.59 1753.2 C 1495.37 1717.27 1529.34 1702.06 1588.74 1713.54 C 1641.44 1727.93 1673.72 1758.69 1688.3 1811.99 C 1696.97 1836.58 1694.27 1874.4 1682.44 1897.73 C 1673.18 1915.96 1664.14 1924.7 1647.55 1936.06 C 1628.6 1948.51 1609.53 1950.13 1587.68 1951.11 C 1594.58 1931.59 1596.67 1914.09 1596.54 1893.48 C 1596.23 1846.36 1580.68 1813.13 1547.9 1780.44 C 1545.62 1779.53 1534.34 1771.22 1530.35 1769.36 C 1500.92 1755.6 1480.96 1752.44 1449.59 1753.2 z" fill="rgb(44,110,192)" transform="translate(0,0)"></path>
<path d="M 1547.9 1780.44 C 1569.22 1784.87 1605.42 1822.65 1616.94 1840.43 C 1633.84 1866.5 1645.76 1905.19 1647.55 1936.06 C 1628.6 1948.51 1609.53 1950.13 1587.68 1951.11 C 1594.58 1931.59 1596.67 1914.09 1596.54 1893.48 C 1596.23 1846.36 1580.68 1813.13 1547.9 1780.44 z" fill="rgb(7,84,160)" transform="translate(0,0)"></path>
<path d="M 1588.74 1713.54 C 1641.44 1727.93 1673.72 1758.69 1688.3 1811.99 C 1684.46 1810.19 1669.27 1791.96 1665.21 1787.8 C 1643.57 1765.6 1618.52 1751.03 1587.74 1745.9 C 1579.56 1744.54 1565.87 1746.67 1558.57 1742.99 C 1555.07 1741.27 1552.48 1738.14 1551.43 1734.39 C 1550.4 1730.56 1550.91 1726.48 1552.85 1723.02 C 1560.03 1710.43 1576.95 1717.6 1588.74 1713.54 z" fill="rgb(117,159,222)" transform="translate(0,0)"></path>
<path d="M 418.792 1712.66 C 470.567 1703.04 514.882 1718.08 553.63 1753.06 C 517.364 1751.57 488.707 1758.89 457.916 1779.34 C 409.931 1822.13 395.456 1890.62 413.949 1951.07 C 394.971 1950.87 368.484 1946.76 353.736 1933.84 C 317.919 1907.52 307.269 1870.14 313.782 1827.1 C 323.168 1767.02 360.297 1727.46 418.792 1712.66 z" fill="rgb(44,110,192)" transform="translate(0,0)"></path>
<path d="M 353.736 1933.84 C 355.256 1894.01 372.602 1846.75 400.377 1817.71 C 410.46 1807.16 443.553 1779.79 457.916 1779.34 C 409.931 1822.13 395.456 1890.62 413.949 1951.07 C 394.971 1950.87 368.484 1946.76 353.736 1933.84 z" fill="rgb(7,84,160)" transform="translate(0,0)"></path>
<path d="M 313.782 1827.1 C 323.168 1767.02 360.297 1727.46 418.792 1712.66 C 428.039 1718.35 455.055 1708.85 459.687 1725.31 C 464.003 1740.63 439.189 1743 429.397 1744.03 C 388.576 1748.35 350.927 1773.55 327.536 1806.67 C 323.32 1812.64 319.706 1823.26 313.782 1827.1 z" fill="rgb(117,159,222)" transform="translate(0,0)"></path>
<path d="M 751.948 1435.01 C 779.225 1441.59 782.022 1451.99 801.632 1469.9 C 826.877 1492.97 854.807 1498.2 886.983 1487.55 L 886.753 1548.55 C 887.503 1560.96 886.629 1576.85 887.082 1590.22 C 844.321 1609.85 790.394 1606.95 748.995 1585.15 C 750.328 1552.15 749.677 1517.42 750.866 1483.79 C 751.297 1467.68 751.939 1451.09 751.948 1435.01 z" fill="rgb(44,110,192)" transform="translate(0,0)"></path>
<path d="M 751.948 1435.01 C 779.225 1441.59 782.022 1451.99 801.632 1469.9 C 826.877 1492.97 854.807 1498.2 886.983 1487.55 L 886.753 1548.55 C 885.598 1543.12 885.9 1537.88 885.908 1532.3 C 844.852 1524.13 802.869 1512.31 765.881 1492.17 C 760.848 1489.42 755.929 1486.52 750.866 1483.79 C 751.297 1467.68 751.939 1451.09 751.948 1435.01 z" fill="rgb(7,84,160)" transform="translate(0,0)"></path>
<path d="M 1134.78 1533.1 C 1134.9 1522.32 1133.43 1486.04 1136.62 1478.39 C 1140.13 1475.23 1148.47 1471.97 1153.04 1470.76 C 1205.2 1456.92 1213.38 1504.53 1271.74 1488.81 C 1271.81 1497.43 1272.07 1505.92 1271.19 1514.51 C 1271.13 1535.47 1273.28 1573.39 1271.23 1592.12 C 1234.42 1611.12 1191.48 1614.43 1152.19 1601.28 C 1146.32 1599.37 1139.76 1597.42 1135.89 1592.54 C 1133.37 1583.84 1134.75 1544.56 1134.78 1533.1 z" fill="rgb(44,110,192)" transform="translate(0,0)"></path>
<path d="M 1134.78 1533.1 C 1134.9 1522.32 1133.43 1486.04 1136.62 1478.39 C 1140.13 1475.23 1148.47 1471.97 1153.04 1470.76 C 1205.2 1456.92 1213.38 1504.53 1271.74 1488.81 C 1271.81 1497.43 1272.07 1505.92 1271.19 1514.51 C 1270.98 1509.19 1270.79 1504.42 1270.94 1499.07 C 1260.64 1501.05 1241.73 1508.38 1231.1 1512.1 C 1204.52 1521.4 1162.97 1533 1134.78 1533.1 z" fill="rgb(7,84,160)" transform="translate(0,0)"></path>
<path d="M 1109.9 1561 C 1109.81 1570.56 1110.48 1572.3 1113.59 1581.04 C 1125.44 1591.94 1133.81 1597.92 1149.4 1603.25 C 1153.47 1604.64 1162.57 1607.05 1166.11 1608.54 C 1168.6 1609.33 1170.48 1610.06 1173.07 1610.5 C 1183.6 1611.32 1194.36 1612.36 1204.9 1612.31 C 1207.9 1653.99 1208.03 1688.68 1202.96 1730.19 C 1192.23 1730.17 1184.48 1729.8 1173.86 1729 C 1168.08 1728.42 1162.42 1727.55 1156.66 1726.71 C 1145.05 1723.87 1132.24 1720.97 1120.89 1717.54 C 1112.29 1714.87 1106.84 1711.48 1099.11 1706.98 C 1096.6 1705.11 1094.12 1703.22 1091.66 1701.3 C 1081.41 1693.27 1070.6 1681.59 1068.99 1668.19 C 1063.34 1659.58 1064.61 1636.47 1066.66 1626.34 C 1066.83 1624.41 1067.1 1622.5 1067.45 1620.59 C 1072.02 1594.89 1089.25 1575.52 1109.9 1561 z" fill="rgb(246,169,78)" transform="translate(0,0)"></path>
<path d="M 1173.07 1610.5 C 1183.6 1611.32 1194.36 1612.36 1204.9 1612.31 C 1207.9 1653.99 1208.03 1688.68 1202.96 1730.19 C 1192.23 1730.17 1184.48 1729.8 1173.86 1729 C 1165.86 1695.12 1165.78 1644.75 1173.07 1610.5 z" fill="rgb(246,169,78)" transform="translate(0,0)"></path>
<path d="M 1166.11 1608.54 C 1168.6 1609.33 1170.48 1610.06 1173.07 1610.5 C 1165.78 1644.75 1165.86 1695.12 1173.86 1729 C 1168.08 1728.42 1162.42 1727.55 1156.66 1726.71 C 1149.08 1687.07 1150.17 1646.06 1166.11 1608.54 z" fill="rgb(44,110,192)" transform="translate(0,0)"></path>
<path d="M 1125.31 1594.85 C 1111.06 1635.77 1107.5 1675.41 1120.89 1717.54 C 1112.29 1714.87 1106.84 1711.48 1099.11 1706.98 C 1097.71 1668.66 1093.97 1622.93 1125.31 1594.85 z" fill="rgb(7,84,160)" transform="translate(0,0)"></path>
<path d="M 1066.66 1626.34 C 1071.23 1621.17 1073.63 1613.87 1077.56 1609.18 C 1086.47 1598.54 1099.32 1585.12 1113.25 1582.61 C 1109.99 1586.87 1103.18 1591.92 1099.02 1596.27 C 1085.6 1610.32 1076.49 1627.92 1072.77 1646.99 C 1071.37 1654.05 1070.84 1661.31 1068.99 1668.19 C 1063.34 1659.58 1064.61 1636.47 1066.66 1626.34 z" fill="rgb(7,84,160)" transform="translate(0,0)"></path>
<path d="M 984.7 423.386 C 1026.41 417.955 1094.72 441.112 1123.02 472.985 C 1138.61 490.549 1139.39 513.607 1119.17 527.434 C 1093.94 544.688 1060.91 545.572 1032.23 540.97 C 1004.79 536.711 972.587 524.31 952.373 504.799 C 972.718 498.638 999.201 486.046 1018.15 477.037 C 990.899 471.25 963.044 462.134 941.803 443.473 C 942.733 442.113 943.706 440.782 944.719 439.482 C 954.26 427.444 970.538 425.042 984.7 423.386 z" fill="rgb(246,169,78)" transform="translate(0,0)"></path>
<path d="M 1072.96 472.066 C 1075.03 472.044 1078.02 471.888 1079.99 472.301 C 1084.9 473.281 1089.15 476.309 1091.68 480.624 C 1097.81 490.946 1092.46 501.183 1082.68 506.443 C 1058.93 507.336 1054.07 480.947 1072.96 472.066 z" fill="rgb(221,143,71)" transform="translate(0,0)"></path>
<path d="M 1291.03 1577.83 C 1293.63 1563 1295.62 1565.8 1288.47 1551.28 C 1308.76 1563.9 1326.22 1579.16 1332.69 1603.22 C 1335.51 1609.93 1337.33 1621.65 1336.9 1628.9 C 1341.14 1647.92 1335.99 1665.93 1325.58 1682.04 C 1325.14 1682.71 1324.7 1683.37 1324.25 1684.02 C 1319.35 1690.42 1315.28 1695.22 1308.36 1699.67 C 1296.83 1706.92 1284.96 1713.5 1271.97 1717.81 C 1265.82 1720 1258.4 1722.37 1251.97 1723.53 C 1240.47 1726.04 1229.45 1728.27 1217.66 1729.26 C 1212.63 1729.68 1208.03 1730.1 1202.96 1730.19 C 1208.03 1688.68 1207.9 1653.99 1204.9 1612.31 L 1208.67 1612.07 C 1223.88 1610.67 1233.99 1608.62 1248.64 1605.21 L 1251.32 1604.35 C 1269.82 1597.93 1277.45 1595.16 1289.99 1579.57 L 1291.03 1577.83 z" fill="rgb(246,169,78)" transform="translate(0,0)"></path>
<path d="M 1248.64 1605.21 L 1251.32 1604.35 C 1274.73 1631.44 1280.18 1684.21 1271.97 1717.81 C 1265.82 1720 1258.4 1722.37 1251.97 1723.53 C 1240.47 1726.04 1229.45 1728.27 1217.66 1729.26 C 1212.63 1729.68 1208.03 1730.1 1202.96 1730.19 C 1208.03 1688.68 1207.9 1653.99 1204.9 1612.31 L 1208.67 1612.07 C 1223.88 1610.67 1233.99 1608.62 1248.64 1605.21 z" fill="rgb(246,169,78)" transform="translate(0,0)"></path>
<path d="M 1248.64 1605.21 L 1251.32 1604.35 C 1274.73 1631.44 1280.18 1684.21 1271.97 1717.81 C 1265.82 1720 1258.4 1722.37 1251.97 1723.53 C 1267.16 1688.81 1261.39 1640.07 1248.64 1605.21 z" fill="rgb(44,110,192)" transform="translate(0,0)"></path>
<path d="M 1204.9 1612.31 L 1208.67 1612.07 C 1222.03 1651.52 1222.28 1688.47 1217.66 1729.26 C 1212.63 1729.68 1208.03 1730.1 1202.96 1730.19 C 1208.03 1688.68 1207.9 1653.99 1204.9 1612.31 z" fill="rgb(7,84,160)" transform="translate(0,0)"></path>
<path d="M 1280.07 1588.67 C 1303.26 1605.8 1315.1 1633.14 1320.91 1660.62 C 1322.48 1668.06 1321.97 1676.94 1324.25 1684.02 C 1319.35 1690.42 1315.28 1695.22 1308.36 1699.67 C 1308.28 1648.5 1306.44 1633.16 1280.07 1588.67 z" fill="rgb(7,84,160)" transform="translate(0,0)"></path>
<path d="M 1291.03 1577.83 C 1293.63 1563 1295.62 1565.8 1288.47 1551.28 C 1308.76 1563.9 1326.22 1579.16 1332.69 1603.22 C 1319.23 1591.26 1310.33 1582.32 1291.03 1577.83 z" fill="rgb(246,169,78)" transform="translate(0,0)"></path>
<path d="M 1291.03 1577.83 C 1310.33 1582.32 1319.23 1591.26 1332.69 1603.22 C 1335.51 1609.93 1337.33 1621.65 1336.9 1628.9 C 1333.51 1624.32 1329.81 1617.26 1326.49 1612.06 C 1315.67 1595.08 1305.71 1590.17 1289.99 1579.57 L 1291.03 1577.83 z" fill="rgb(44,110,192)" transform="translate(0,0)"></path>
<path d="M 894.239 508.17 C 911.429 511.139 916.838 511.426 933.943 509.365 C 933.426 530.883 935.831 546.353 947.179 565.272 C 960.971 587.975 983.203 604.282 1009 610.617 C 1044.64 619.342 1084.49 610.355 1108.03 580.314 C 1113.11 574.498 1120.31 559.137 1126.89 555.854 C 1136.78 550.922 1149.69 556.734 1152.27 567.624 C 1154.42 576.664 1153.71 578.595 1150.69 586.547 C 1144.81 598.41 1136.84 609.118 1127.17 618.159 C 1071.54 670.739 979.408 661.864 929.469 606.218 C 904.114 577.964 892.667 546.01 894.239 508.17 z" fill="rgb(236,123,109)" transform="translate(0,0)"></path>
<path d="M 1063.13 1112.22 C 1078.74 1111.34 1089.51 1113.8 1103.03 1121.72 C 1095.38 1169.48 1091.98 1229.49 1081.7 1275.74 C 1075.33 1278.78 1073.74 1279.6 1066.77 1281.17 C 1065.33 1281.4 1063.88 1281.57 1062.42 1281.7 C 1048.71 1282.97 1035.06 1278.75 1024.45 1269.98 C 1029.99 1219.79 1041.12 1167.92 1046.2 1117.19 C 1053.87 1114.22 1055.04 1113.74 1063.13 1112.22 z" fill="rgb(233,230,219)" transform="translate(0,0)"></path>
<path d="M 887.195 1087.19 C 902.217 1086.32 916.057 1091.34 927.305 1101.28 C 919.067 1145.59 910.248 1210.72 905.977 1255.96 C 898.589 1258 895.841 1258.75 888.251 1259.49 C 872.628 1261.1 859.482 1254.61 848.443 1244.06 C 849.627 1226.07 853.468 1204.26 856.213 1186.34 C 861.063 1154.7 866.609 1122.35 873.787 1091.21 C 879.391 1088.75 881.392 1088.4 887.195 1087.19 z" fill="rgb(233,230,219)" transform="translate(0,0)"></path>
<path d="M 1126.55 1115.25 C 1141.09 1114.27 1150.54 1116.62 1163.02 1123.5 C 1161.34 1157.27 1155.33 1194.22 1150.45 1227.68 C 1148.16 1243.33 1144.05 1260.52 1142.59 1276.05 C 1135.21 1280.17 1132.51 1281.05 1124.62 1282.86 C 1107.93 1284.22 1099.79 1282.66 1084.75 1275.51 C 1087.51 1263.78 1089.68 1243.74 1091.6 1231.23 C 1097.21 1194.76 1100.83 1157.76 1106.37 1121.26 C 1113.82 1117.59 1118.6 1116.53 1126.55 1115.25 z" fill="rgb(233,230,219)" transform="translate(0,0)"></path>
<path d="M 1186.97 1116.29 C 1197.14 1115 1214.38 1115.71 1221.89 1123.22 C 1227.02 1134.39 1208.78 1252.79 1205.42 1272.66 C 1196.96 1279.03 1192.71 1280.54 1182.75 1282.92 C 1168.53 1283.54 1157.92 1282.61 1145.78 1274.46 C 1154.61 1221.95 1161.36 1175.98 1166.41 1123.13 C 1174.02 1118.86 1178.68 1117.67 1186.97 1116.29 z" fill="rgb(233,230,219)" transform="translate(0,0)"></path>
<path d="M 940.971 1098.19 C 958.439 1096.9 971.742 1100.06 985.512 1111.55 C 982.079 1125.81 978.268 1158.56 976.245 1174.13 C 972.587 1202.29 966.981 1235.3 964.807 1263.21 L 953.057 1267.71 C 937.592 1272.04 920.892 1266.34 908.819 1256.48 C 909.803 1238.39 914.327 1210.59 916.786 1192.13 C 920.675 1162.94 924.697 1130.09 930.19 1101.23 C 934.169 1099.69 936.78 1099.16 940.971 1098.19 z" fill="rgb(233,230,219)" transform="translate(0,0)"></path>
<path d="M 1008.62 1106.42 C 1023.23 1107.53 1030.26 1109.87 1043.1 1116.82 C 1042.01 1136.2 1037.04 1164.97 1034.01 1184.87 L 1021.2 1270.95 C 1013.81 1274.13 1010.64 1274.84 1002.81 1275.32 C 988.871 1275.09 978.483 1272.88 967.556 1263.4 C 970.09 1237.97 973.838 1212.38 977.306 1187.04 C 980.784 1161.61 983.973 1135.77 988.698 1110.57 C 996.382 1107.53 1000.66 1107.08 1008.62 1106.42 z" fill="rgb(233,230,219)" transform="translate(0,0)"></path>
<path d="M 1255.2 1113.42 C 1267.14 1113.87 1269.91 1114.44 1281 1118.87 C 1281.36 1156.64 1273.36 1231.57 1264.67 1268.21 C 1254.02 1275.83 1249.81 1277.92 1236.64 1279.08 C 1223.55 1279.01 1221 1278.27 1208.65 1273.62 C 1209.75 1261.69 1212.6 1247.77 1214.15 1235.63 C 1218.59 1200.84 1225.96 1156.82 1225.56 1121.95 C 1236.51 1115.55 1243.07 1114.37 1255.2 1113.42 z" fill="rgb(233,230,219)" transform="translate(0,0)"></path>
<path d="M 1309.41 1109.19 C 1321.15 1108.16 1327.61 1109.71 1338.49 1113.42 C 1340.6 1146.71 1333.07 1224.39 1322.45 1258.12 C 1320.56 1264.11 1306.76 1269.07 1299.97 1270.86 C 1287.02 1273.15 1279.86 1271.68 1267.74 1267.92 C 1270.92 1255.27 1273.05 1238.64 1274.99 1225.62 C 1280.24 1190.46 1284.08 1153.67 1284.02 1118.08 C 1293.42 1113.39 1299.16 1111.2 1309.41 1109.19 z" fill="rgb(233,230,219)" transform="translate(0,0)"></path>
<path d="M 822.011 1074.16 C 843.208 1073.4 854.703 1076.34 870.89 1090.27 C 867.044 1104.4 863.905 1123.51 861.262 1138.18 C 854.868 1173.33 849.551 1208.66 845.32 1244.14 L 837.371 1245.98 C 835.37 1246.25 833.363 1246.46 831.352 1246.63 C 816.008 1247.83 803.655 1241.76 792.465 1232.06 C 794.095 1203.72 803.334 1152.16 811.664 1124.04 C 812.08 1122.63 820.191 1113.26 821.931 1110.24 C 828.532 1098.79 824.778 1086.13 822.011 1074.16 z" fill="rgb(233,230,219)" transform="translate(0,0)"></path>
<path d="M 1352.81 1105.19 C 1359.85 1101.59 1393.86 1094.42 1394.42 1106.12 C 1396.57 1151.34 1390.88 1202.32 1377.19 1245.51 C 1373.22 1258.01 1346.71 1261.81 1335 1260.58 C 1331.58 1259.85 1330.65 1259.84 1327.65 1257.9 C 1326.97 1254.39 1333.68 1221.13 1334.63 1214.07 C 1339.44 1180.39 1341.79 1146.41 1341.66 1112.39 C 1346.1 1108.89 1347.82 1107.87 1352.81 1105.19 z" fill="rgb(208,205,192)" transform="translate(0,0)"></path>
<path d="M 1341.66 1112.39 C 1346.1 1108.89 1347.82 1107.87 1352.81 1105.19 C 1355.35 1114.34 1343.6 1187.23 1341.69 1202.07 C 1339.68 1217.76 1337.22 1244.39 1335 1260.58 C 1331.58 1259.85 1330.65 1259.84 1327.65 1257.9 C 1326.97 1254.39 1333.68 1221.13 1334.63 1214.07 C 1339.44 1180.39 1341.79 1146.41 1341.66 1112.39 z" fill="rgb(233,230,219)" transform="translate(0,0)"></path>
<path d="M 1435.99 1089.38 C 1441.28 1092.95 1448.62 1106 1451.78 1111.64 C 1467.65 1139.94 1480.39 1169.76 1486.96 1201.65 C 1490.71 1219.9 1491.13 1235.71 1491.57 1254.17 C 1483.78 1258.86 1477.56 1261.57 1469.32 1265.24 C 1456.18 1270.34 1441.83 1274.8 1428.36 1279.21 C 1432.51 1216.01 1435.05 1152.71 1435.99 1089.38 z" fill="rgb(255,255,255)" transform="translate(0,0)"></path>
<path d="M 667.375 1073.41 C 681.33 1073.38 691.327 1075.62 703.79 1081.5 C 692.449 1109.61 686.504 1169.44 683.311 1199.86 C 678.859 1200.46 674.483 1200.56 669.996 1200.77 C 651.571 1198.73 640.555 1193.29 631.318 1176.82 C 635.516 1135.38 642.253 1112.89 656.164 1074.58 L 667.375 1073.41 z" fill="rgb(233,230,219)" transform="translate(0,0)"></path>
<path d="M 813.721 322.376 C 815.891 322.119 818.068 321.917 820.249 321.771 C 875.388 318.237 918.822 357.125 922.45 412.056 C 920.948 415.561 920.304 418.483 917.143 420.293 C 913.46 420.581 909.677 417.74 906.28 415.8 C 898.199 412.847 894.507 412.74 886.274 412.924 C 874.918 370.099 836.345 352.254 795.001 362.967 C 800.194 346.982 801.707 341.234 799.82 324.551 C 804.329 323.656 809.151 323.042 813.721 322.376 z" fill="rgb(236,123,109)" transform="translate(0,0)"></path>
<path d="M 705.639 1083.56 C 721.594 1097.56 732.414 1109.59 750.107 1122.4 C 744.877 1145.55 740.564 1168.89 737.178 1192.38 C 736.353 1198.14 735.206 1213.6 732.796 1216.81 C 729.382 1217.12 725.956 1217.27 722.528 1217.25 C 707.531 1217.05 697.102 1211.51 686.889 1201.18 C 686.369 1175.44 697.743 1108.6 705.639 1083.56 z" fill="rgb(233,230,219)" transform="translate(0,0)"></path>
<path d="M 1428.02 1089.25 C 1428.79 1089.19 1431.17 1089.29 1432.03 1089.31 C 1435.62 1094.66 1428.23 1214.03 1427.29 1230.3 C 1411.76 1242.98 1405.81 1246.1 1386.11 1244.77 L 1382.99 1244.08 C 1381.04 1241.62 1386.46 1223.97 1387.38 1219.55 C 1394.16 1186.82 1400.48 1135 1397.18 1102.36 C 1408.9 1095.3 1414.34 1091.77 1428.02 1089.25 z" fill="rgb(208,205,192)" transform="translate(0,0)"></path>
<path d="M 752.684 1124.21 C 773.023 1135.56 785.574 1136.78 807.009 1127.67 C 799.673 1161.68 793.746 1192.01 789.591 1226.75 L 788.639 1230.87 C 776.413 1241.44 747.407 1226.86 737.662 1217.06 C 738.93 1192.32 746.858 1148.35 752.684 1124.21 z" fill="rgb(233,230,219)" transform="translate(0,0)"></path>
<path d="M 1381.1 1246.48 C 1402.47 1250.31 1410.03 1248.57 1427.12 1235.01 C 1427.34 1250.57 1426.75 1264.53 1425.89 1280.09 C 1405.62 1285.54 1398.81 1290.46 1392.91 1311.55 C 1360.65 1308.05 1348.22 1322.29 1329.08 1345.01 C 1328.73 1339.85 1330.31 1323.99 1330.79 1318.45 C 1332.32 1300.21 1334.15 1281.99 1336.29 1263.81 C 1351.52 1264.39 1363.99 1262.89 1375.98 1251.75 C 1377.78 1250.08 1379.48 1248.32 1381.1 1246.48 z" fill="rgb(7,84,160)" transform="translate(0,0)"></path>
<path d="M 650.112 1075.31 C 653.993 1075.28 651.604 1079.35 650.632 1081.87 C 638.979 1111.96 631.729 1143.28 628.274 1175.23 C 627.674 1180.78 605.516 1171.28 602.86 1169.85 C 597.32 1165.1 595.879 1163.19 592.628 1156.73 C 593.651 1134.52 598.033 1116.08 601.488 1094.39 C 617.81 1084.44 631.18 1078.19 650.112 1075.31 z" fill="rgb(233,230,219)" transform="translate(0,0)"></path>
<path d="M 596.413 1096.89 C 596.482 1096.9 597.675 1097.12 597.674 1097.29 C 597.622 1103.64 592.561 1129.41 591.789 1134.49 C 590.662 1141.6 589.958 1148.76 589.68 1155.95 C 582.694 1154.91 581.546 1155.19 574.974 1152.43 C 572.309 1150.87 569.594 1149.37 566.977 1147.73 C 567.409 1135.9 567.606 1124.08 569.265 1112.37 C 578.125 1106.35 587.025 1101.99 596.413 1096.89 z" fill="rgb(233,230,219)" transform="translate(0,0)"></path>
<path d="M 745.848 1536.28 C 747.434 1538.76 746.102 1576.61 746.033 1582.7 C 742.406 1579.56 739.916 1577.28 736.48 1573.94 C 725.021 1561.37 723.122 1540.35 742.533 1536.86 L 745.848 1536.28 z" fill="rgb(221,143,71)" transform="translate(0,0)"></path>
<path d="M 1130.87 1550.02 C 1132.39 1552.33 1131.92 1585.86 1131.98 1591.03 C 1129.68 1589.56 1127.77 1588.02 1125.6 1586.42 L 1122.64 1584.25 C 1116.58 1578.72 1112.99 1574.57 1113.45 1565.69 C 1113.94 1556.05 1122.89 1553.97 1130.87 1550.02 z" fill="rgb(221,143,71)" transform="translate(0,0)"></path>
<path d="M 1274.12 1544.94 C 1281.06 1548.56 1281.92 1547.9 1285.91 1554.66 C 1295.9 1571.03 1286.56 1580.71 1274.04 1591.09 C 1274.06 1584.97 1274.16 1578.85 1274.34 1572.73 C 1273.99 1564.54 1274.13 1553.27 1274.12 1544.94 z" fill="rgb(246,169,78)" transform="translate(0,0)"></path>
<path d="M 1274.12 1544.94 C 1281.06 1548.56 1281.92 1547.9 1285.91 1554.66 C 1278 1553.93 1274.8 1551.56 1275.4 1558.5 C 1275.66 1561.58 1276.07 1570.77 1274.34 1572.73 C 1273.99 1564.54 1274.13 1553.27 1274.12 1544.94 z" fill="rgb(221,143,71)" transform="translate(0,0)"></path>
<path d="M 889.675 1549.88 C 908.147 1557.45 913.762 1561.08 900.426 1579.98 C 896.246 1583.96 894.24 1585.27 889.668 1588.55 L 889.675 1549.88 z" fill="rgb(221,143,71)" transform="translate(0,0)"></path>
<path d="M 855.028 372.887 C 873.648 387.051 876.296 390.411 883.933 413.494 C 879.269 415.888 875.617 417.854 871.088 420.563 C 870.382 401.189 866.923 390.109 853.881 375.259 L 855.028 372.887 z" fill="rgb(44,110,192)" transform="translate(0,0)"></path>
<path d="M 853.881 375.259 C 852.722 374.291 849.251 371.805 848.702 370.61 C 849.157 369.315 854.449 372.584 855.028 372.887 L 853.881 375.259 z" fill="rgb(7,84,160)" transform="translate(0,0)"></path>
<metadata><recraft-signature>{"signed_by": "recraft", "signature_b64": "HNWzYdy810rQ0hp1RPL/LvTHeiY7HUQ1UIF6fnYz5ip0g67EWypo+d8ZTSdTcq+dPpBkq5i0wlkJytVSIZNbDg==", "signing_algo": "Ed25519", "generation_timestamp": 1778557775, "identifier": "90c6a304-5d08-478a-a11c-87b4027f580c"}</recraft-signature></metadata></svg>