<svg xmlns="http://www.w3.org/2000/svg" height="1024" preserveAspectRatio="none" style="display: block;" version="1.1" viewBox="0 0 2048 2048" width="1024">
<defs>
	<linearGradient gradientUnits="userSpaceOnUse" id="Gradient1" x1="737.818" x2="615.076" y1="827.518" y2="733.512">
		<stop class="stop0" offset="0" stop-color="rgb(204,212,224)" stop-opacity="1"></stop>
		<stop class="stop1" offset="1" stop-color="rgb(233,233,232)" stop-opacity="1"></stop>
	</linearGradient>
	<linearGradient gradientUnits="userSpaceOnUse" id="Gradient2" x1="778.133" x2="642.803" y1="749.399" y2="682.837">
		<stop class="stop0" offset="0" stop-color="rgb(202,211,221)" stop-opacity="1"></stop>
		<stop class="stop1" offset="1" stop-color="rgb(239,237,236)" stop-opacity="1"></stop>
	</linearGradient>
	<linearGradient gradientUnits="userSpaceOnUse" id="Gradient3" x1="1594.29" x2="1480.31" y1="1384.9" y2="1322.41">
		<stop class="stop0" offset="0" stop-color="rgb(185,198,215)" stop-opacity="1"></stop>
		<stop class="stop1" offset="1" stop-color="rgb(224,224,229)" stop-opacity="1"></stop>
	</linearGradient>
	<linearGradient gradientUnits="userSpaceOnUse" id="Gradient4" x1="1686.18" x2="1634.75" y1="1295.11" y2="1148.96">
		<stop class="stop0" offset="0" stop-color="rgb(178,193,213)" stop-opacity="1"></stop>
		<stop class="stop1" offset="1" stop-color="rgb(234,233,233)" stop-opacity="1"></stop>
	</linearGradient>
	<linearGradient gradientUnits="userSpaceOnUse" id="Gradient5" x1="584.198" x2="352.855" y1="1419.5" y2="1213.19">
		<stop class="stop0" offset="0" stop-color="rgb(197,206,219)" stop-opacity="1"></stop>
		<stop class="stop1" offset="1" stop-color="rgb(243,243,243)" stop-opacity="1"></stop>
	</linearGradient>
</defs>

<path d="M 1312.13 1091.46 C 1360.52 1041.45 1403.2 980.795 1443.51 924.215 C 1496.28 850.143 1539.2 769.818 1591.07 695.118 C 1685.71 558.82 1817.8 460.536 1956.64 373.171 C 1964.37 368.307 1990.01 350.742 1998.26 351.125 C 2001.31 353.291 2004.15 356.466 2002.26 360.437 C 1953.28 463.2 1923.71 574.161 2002.69 672.071 C 2004.86 674.759 2015.59 688.295 2014.86 689.805 C 2008.26 703.444 1988.02 723.538 1980.71 738.418 C 1924.36 825.346 1955.35 911.973 1984.35 1000.92 C 1988.37 1013.24 1992.06 1025.71 1996.2 1038.03 C 1999.15 1046.82 2002.84 1052.11 1992.27 1055.67 C 1891.77 1089.56 1825.56 1178.28 1803.72 1279.59 C 1802.25 1286.41 1798.66 1318.73 1789.16 1318.24 C 1685.6 1293.43 1581.86 1365.81 1547.26 1462.34 C 1542.59 1475.38 1535.24 1511.25 1529.73 1519.56 C 1527.47 1520.52 1524.48 1521.06 1522.42 1519.71 C 1495.41 1501.98 1475.76 1492.53 1441.96 1493.01 C 1387.57 1493.76 1343.62 1532.35 1320.24 1579.46 C 1316.98 1586.02 1312.55 1594.75 1307.64 1600.27 C 1301.14 1601.51 1274.8 1587.43 1268.04 1584.22 C 1251.87 1576.63 1235.56 1569.32 1219.14 1562.29 C 1204.07 1603.22 1187.85 1642.92 1172.61 1683.58 C 1195.23 1688.21 1216.16 1699.87 1213.53 1725.99 C 1209.06 1770.34 1110.04 1767.2 1090.35 1740.43 C 1085.12 1733.21 1083.15 1724.12 1084.92 1715.37 C 1087.06 1704.52 1095.13 1694.7 1104.11 1688.53 C 1096.98 1665.71 1089.09 1637.83 1082.95 1614.79 C 1043.32 1624.24 1006.31 1622.59 966.804 1614.6 C 961.567 1639.65 952.277 1664.85 946.196 1689.89 C 959.457 1700.07 970.394 1716.3 963.25 1733.41 C 951.884 1760.63 912.441 1760.68 887.798 1759.56 C 869.334 1758.54 841.673 1753.25 836.302 1732.14 C 828.67 1702.14 852.263 1688.52 876.616 1682.69 C 860.422 1642.8 845.146 1602.55 830.799 1561.96 C 810.169 1569.3 789.938 1580.06 769.652 1588.62 C 761.75 1591.96 749.102 1599.86 740.701 1600.5 C 736.625 1600.81 731.343 1588.93 729.617 1585.14 C 716.559 1556.51 696.311 1529.9 669.919 1512.36 C 631.785 1487.33 582.981 1486.93 543.045 1508.08 C 535.19 1510.5 529.346 1518.9 521.881 1520.67 C 515.39 1521.8 513.529 1511.17 512.533 1506.94 C 509.669 1494.77 506.73 1482.91 503.054 1470.99 C 490.997 1430.56 467.989 1394.24 436.576 1366.07 C 396.747 1329.76 344.223 1310.59 290.367 1312.71 C 278.29 1313.17 266.606 1316.64 254.172 1317.29 C 251.063 1313.12 239.613 1257.88 236.545 1247.59 C 232.061 1233.04 226.68 1218.78 220.433 1204.9 C 196.661 1151.82 155.61 1104.31 104.65 1075.12 C 89.8192 1066.63 74.4253 1061.26 58.3878 1055.87 C 57.4545 1055.77 49.8496 1051.78 49.912 1050.82 C 50.7423 1038.09 62.8462 1007.98 66.3097 997.468 C 77.7197 962.842 87.0964 929.07 95.5027 894.384 C 110.021 834.477 95.6853 777.387 61.9509 726.795 C 54.2154 714.89 43.0285 704.48 36.4354 692.429 C 35.229 690.911 35.9835 687.309 37.1985 685.806 C 53.8107 665.425 65.0534 648.797 76.3057 625.34 C 115.063 544.545 90.7458 456.609 56.2266 379.415 C 52.9422 372.071 45.0242 361.719 48.9342 353.945 C 50.9075 352.172 52.3356 351.37 55.0609 351.221 C 62.1214 350.835 127.518 395.769 139.261 403.581 C 162.79 419.426 185.987 435.759 208.836 452.569 C 246.982 480.098 287.362 510.244 322.084 541.935 C 373.317 589.619 419.653 642.307 460.402 699.21 C 470.177 712.881 480.006 727.845 488.926 742.086 C 567.901 868.158 643.056 994.239 746.087 1103.26 C 742.097 1090.64 737.429 1076.21 735.186 1063.28 C 727.936 1021.46 732.552 968.712 746.161 928.635 L 739.965 927.72 C 677.713 918.252 624.099 889.579 586.483 838.18 C 551.497 790.904 537.113 731.491 546.599 673.448 C 578.333 471.999 834.566 412.904 930.331 599.435 C 952.208 642.049 953.241 691.371 945.103 737.414 C 1004.36 727.42 1047.42 725.78 1107.07 737.272 C 1106.2 733.032 1105.39 728.781 1104.64 724.519 C 1095.39 670.691 1106.66 614.175 1138.42 569.417 C 1168.19 526.86 1213.76 497.989 1264.96 489.239 C 1318.96 480.103 1371.02 494.702 1415.14 526.354 C 1462.1 560.584 1493.69 611.922 1503.08 669.262 C 1521.72 787.898 1448.11 898.462 1330.5 923.592 C 1321.82 925.445 1312.97 926.718 1304.2 928.063 C 1316.73 981.112 1324.61 1034.21 1309.11 1088.02 L 1312.13 1091.46 z" fill="rgb(26,24,24)" transform="translate(0,0)"></path>
<path d="M 1312.13 1091.46 C 1304.66 1099.69 1307.87 1093.97 1309.11 1088.02 L 1312.13 1091.46 z" fill="rgb(240,241,240)" transform="translate(0,0)"></path>
<path d="M 1157.68 1199.47 C 1104.04 1220.57 1020.74 1225.7 964.092 1215.9 C 898.324 1206.35 809.608 1172.97 771.82 1115.75 C 709.942 1022.04 765.257 852.747 854.441 794.056 C 925.246 747.461 999.643 734.26 1081.59 747.53 C 1140.98 757.149 1206.68 789.346 1241.26 837.913 C 1264.12 859.888 1286.51 915.107 1294.11 946.557 C 1299.48 969.528 1302.53 992.981 1303.2 1016.56 C 1304.02 1058.58 1297.05 1100.93 1266.84 1131.83 C 1241.88 1157.36 1193.68 1192.21 1157.68 1199.47 z" fill="rgb(39,174,221)" transform="translate(0,0)"></path>
<path d="M 1241.26 837.913 C 1264.12 859.888 1286.51 915.107 1294.11 946.557 C 1299.48 969.528 1302.53 992.981 1303.2 1016.56 C 1304.02 1058.58 1297.05 1100.93 1266.84 1131.83 C 1241.88 1157.36 1193.68 1192.21 1157.68 1199.47 C 1159.56 1195.9 1177.36 1181.29 1182.04 1177.81 C 1197.48 1166.34 1242.22 1118.42 1245.89 1102.51 C 1262.85 1090.56 1269.88 1081.61 1261.85 1060.68 C 1263.47 1056.89 1264.41 1051.11 1265.19 1046.81 C 1276.31 986.162 1271.38 921.961 1251.1 863.756 C 1248.06 855.016 1243.34 846.703 1241.26 837.913 z" fill="rgb(68,109,156)" transform="translate(0,0)"></path>
<path d="M 1245.89 1102.51 C 1224.9 1110.94 1199.63 1112.63 1180.61 1099.78 C 1149.19 1078.55 1168.96 1048.03 1200.01 1043.15 C 1222.45 1039.62 1246.65 1043.39 1261.85 1060.68 C 1269.88 1081.61 1262.85 1090.56 1245.89 1102.51 z" fill="rgb(26,24,24)" transform="translate(0,0)"></path>
<path d="M 1211.24 1046.37 C 1270 1044.2 1278 1097.7 1218.75 1103.46 C 1164.95 1107.23 1147.03 1052.7 1211.24 1046.37 z" fill="rgb(239,196,151)" transform="translate(0,0)"></path>
<path d="M 1012.14 1017.22 C 1030.18 1015.84 1047.18 1016.57 1063.74 1024.94 C 1078.86 1032.58 1091.35 1050.48 1081.27 1067.06 C 1072.68 1081.18 1056.12 1086.34 1041 1090.28 C 971 1101.26 929.852 1034.64 1012.14 1017.22 z" fill="rgb(26,24,24)" transform="translate(0,0)"></path>
<path d="M 1015.25 1023.3 C 1071.06 1015.54 1111.92 1065.77 1037.77 1084.18 C 972.452 1091.03 943.472 1035.24 1015.25 1023.3 z" fill="rgb(68,109,156)" transform="translate(0,0)"></path>
<path d="M 834.386 1041.39 C 852.719 1041.22 882.28 1048.87 886.938 1069.5 C 888.414 1076.24 887.054 1083.29 883.176 1089 C 876.063 1099.6 862.816 1105.99 850.492 1107.91 L 843.82 1108.97 C 829.323 1109.13 819.257 1108.49 806.116 1101.48 C 791.12 1093.49 781.175 1077.09 791.826 1061.41 C 801.924 1046.54 817.888 1043.1 834.386 1041.39 z" fill="rgb(26,24,24)" transform="translate(0,0)"></path>
<path d="M 828.184 1047.25 C 842.513 1045.56 852.281 1047.06 865.004 1053.03 C 887.022 1063.36 888.681 1085.59 866.408 1096.8 C 859.834 1100.11 856.011 1101.08 848.959 1102.81 C 788.848 1108.53 768.96 1058.38 828.184 1047.25 z" fill="rgb(239,196,151)" transform="translate(0,0)"></path>
<path d="M 886.214 954.03 C 924.219 955.398 922.583 1034.41 893.81 1047.48 L 892.208 1048.24 C 864.994 1046.78 860.693 1010.42 863.802 989.493 C 864.571 984.191 865.922 978.991 867.831 973.986 C 871.919 963.366 876.102 958.46 886.214 954.03 z" fill="rgb(26,24,24)" transform="translate(0,0)"></path>
<path d="M 1159.29 953.968 C 1193.8 955.381 1197.78 1032.73 1163.82 1048.12 C 1125.89 1046.56 1128.01 965.365 1157.41 954.703 L 1159.29 953.968 z" fill="rgb(26,24,24)" transform="translate(0,0)"></path>
<path d="M 989.825 785.263 C 990.555 785.418 991.282 785.59 992.004 785.778 C 999.87 787.818 997.004 798.208 984.942 800.481 C 971.798 802.957 950.166 819.154 938.315 824.514 C 910.161 811.2 980.929 787.153 989.825 785.263 z" fill="rgb(255,255,255)" transform="translate(0,0)"></path>
<path d="M 1052.74 771.434 C 1058.78 771.418 1061.86 771.86 1063.41 778.446 C 1064.91 785.301 1055.69 786.75 1051 786.556 C 1039.98 786.101 1029.9 787.562 1019.21 790.02 C 1014.85 790.729 1008.9 790.805 1008.06 785.515 C 1005.89 771.807 1046.25 771.841 1052.74 771.434 z" fill="rgb(255,255,255)" transform="translate(0,0)"></path>
<path d="M 901.563 832.733 C 905.302 833.151 911.067 834.723 910.862 839.133 C 910.622 844.289 900.338 851.524 896.991 854.99 C 890.564 861.643 885.465 868.687 879.148 875.047 L 877.919 875.056 C 872.753 875.049 869.213 871.237 870.547 866.965 C 873.863 856.348 893.668 838.88 901.563 832.733 z" fill="rgb(255,255,255)" transform="translate(0,0)"></path>
<path d="M 1190.63 894.816 C 1192.64 894.861 1197.6 894.509 1199.47 896.237 C 1206.12 903.028 1211.92 913.921 1214.72 923.018 C 1215.57 925.761 1214.07 928.191 1212.5 930.191 L 1211.51 931.493 C 1199.28 930.44 1203.55 926.823 1196.47 916.045 C 1191.88 909.042 1182.6 903.917 1189.63 895.998 L 1190.63 894.816 z" fill="rgb(255,255,255)" transform="translate(0,0)"></path>
<path d="M 1049.59 1111.6 C 1063.72 1122.21 1025.99 1138.67 1003.44 1123.1 L 1000.44 1121.01 C 999.095 1119.13 997.406 1116.29 999.262 1113.8 C 1000.78 1111.78 1004.3 1115.72 1005.35 1116.64 C 1012.14 1122.53 1021.75 1124.29 1030.5 1122.97 C 1038.03 1121.83 1043.77 1119.31 1048.34 1113.2 L 1049.59 1111.6 z" fill="rgb(26,24,24)" transform="translate(0,0)"></path>
<path d="M 1135.4 850.502 C 1140.8 848.532 1146.79 851.18 1148.97 856.498 C 1151.15 861.816 1148.74 867.906 1143.51 870.29 C 1139.94 871.917 1135.77 871.461 1132.64 869.101 C 1129.5 866.742 1127.91 862.857 1128.49 858.978 C 1129.07 855.099 1131.72 851.846 1135.4 850.502 z" fill="rgb(205,213,224)" transform="translate(0,0)"></path>
<path d="M 849.387 890.753 C 868.467 893.176 851.369 909.748 844.828 915.804 C 825.417 913.766 841.953 896.681 849.387 890.753 z" fill="rgb(255,255,255)" transform="translate(0,0)"></path>
<path d="M 829.763 1183.36 C 849.885 1194.83 871.81 1204.51 893.133 1213.6 C 1007.29 1245.19 1113.71 1244.49 1220.32 1186.5 C 1223.8 1196.76 1233.71 1233.29 1234.89 1243.84 C 1237.34 1256.42 1240.19 1269.96 1242.12 1282.54 C 1246.07 1297.19 1247.72 1311.28 1250.85 1325.85 C 1269.34 1411.91 1246.24 1500.27 1174.51 1555.62 C 1155.07 1573.27 1122.05 1588.99 1096.65 1596 C 1059.98 1608.52 1023.48 1610.33 985.402 1604.62 C 964.234 1600.42 943.582 1593.94 923.804 1585.3 C 862.687 1558.28 826.42 1516.91 802.742 1455.62 C 792.19 1415.73 790.31 1393.51 794.879 1352.04 C 800.262 1307.65 814.916 1242.97 826.553 1199.44 L 829.763 1183.36 z" fill="rgb(206,213,223)" transform="translate(0,0)"></path>
<path d="M 829.763 1183.36 C 849.885 1194.83 871.81 1204.51 893.133 1213.6 C 1007.29 1245.19 1113.71 1244.49 1220.32 1186.5 C 1223.8 1196.76 1233.71 1233.29 1234.89 1243.84 C 1237.34 1256.42 1240.19 1269.96 1242.12 1282.54 C 1246.07 1297.19 1247.72 1311.28 1250.85 1325.85 C 1269.34 1411.91 1246.24 1500.27 1174.51 1555.62 C 1175.44 1548.76 1176.21 1547.57 1176.38 1540 C 1176.56 1531.86 1174.72 1522 1175.24 1514.48 L 1174.51 1513.04 C 1168.27 1482.17 1156.93 1437.25 1138.43 1412.05 C 1136.78 1407.21 1126.81 1393.49 1123.23 1388.93 C 1088.24 1344.32 1029.55 1305.32 976.294 1285.34 C 953.75 1273.81 925.491 1264.91 902.504 1252.04 C 880.82 1239.9 863.1 1225.8 843.069 1211.34 C 838.103 1206.68 832.552 1202.67 826.553 1199.44 L 829.763 1183.36 z" fill="rgb(39,174,221)" transform="translate(0,0)"></path>
<path d="M 893.133 1213.6 C 1007.29 1245.19 1113.71 1244.49 1220.32 1186.5 C 1223.8 1196.76 1233.71 1233.29 1234.89 1243.84 C 1189.59 1263.57 1165.15 1271.61 1114.8 1273.06 C 1049.79 1275.2 985.24 1261.45 926.746 1233 C 918.503 1229.01 899.335 1219.45 893.133 1213.6 z" fill="rgb(68,109,156)" transform="translate(0,0)"></path>
<path d="M 1242.12 1282.54 C 1246.07 1297.19 1247.72 1311.28 1250.85 1325.85 C 1269.34 1411.91 1246.24 1500.27 1174.51 1555.62 C 1175.44 1548.76 1176.21 1547.57 1176.38 1540 C 1176.56 1531.86 1174.72 1522 1175.24 1514.48 C 1180.48 1507.08 1202.71 1473.12 1203.37 1465.63 C 1203.65 1465.14 1203.9 1464.62 1204.1 1464.08 C 1208.33 1459.54 1213.92 1444.07 1216.21 1437.85 C 1235.97 1384.21 1241.59 1339.17 1242.12 1282.54 z" fill="rgb(68,109,156)" transform="translate(0,0)"></path>
<path d="M 1203.37 1465.63 C 1200.57 1470.51 1194.42 1472.31 1189.43 1469.72 C 1184.44 1467.12 1182.38 1461.04 1184.78 1455.95 C 1187.17 1450.86 1193.16 1448.56 1198.34 1450.74 C 1203.53 1452.93 1206.07 1458.81 1204.1 1464.08 C 1203.9 1464.62 1203.65 1465.14 1203.37 1465.63 z" fill="rgb(205,213,224)" transform="translate(0,0)"></path>
<path d="M 1181.81 1285.91 L 1183.17 1285.86 C 1195.48 1285.38 1192.35 1297.39 1194.85 1308.51 C 1196.9 1317.67 1200.83 1334.29 1196.49 1342.12 C 1190.82 1341.97 1186.31 1342.61 1185.08 1335.51 C 1183.17 1324.39 1181.73 1313.17 1180.1 1301.99 C 1178.95 1294.09 1177.44 1292.43 1181.81 1285.91 z" fill="rgb(255,255,255)" transform="translate(0,0)"></path>
<path d="M 1158.58 1310.73 C 1161.99 1309.78 1165.65 1310.76 1168.14 1313.27 C 1170.63 1315.79 1171.57 1319.45 1170.59 1322.86 C 1169.61 1326.26 1166.86 1328.87 1163.42 1329.67 C 1158.23 1330.88 1153.04 1327.73 1151.72 1322.57 C 1150.4 1317.42 1153.45 1312.15 1158.58 1310.73 z" fill="rgb(205,213,224)" transform="translate(0,0)"></path>
<path d="M 1138.43 1412.05 C 1156.93 1437.25 1168.27 1482.17 1174.51 1513.04 L 1175.24 1514.48 C 1174.72 1522 1176.56 1531.86 1176.38 1540 C 1176.21 1547.57 1175.44 1548.76 1174.51 1555.62 C 1155.07 1573.27 1122.05 1588.99 1096.65 1596 C 1059.98 1608.52 1023.48 1610.33 985.402 1604.62 C 987.462 1596.69 1028.98 1572.6 1038.22 1564.5 C 1046.23 1557.47 1062.74 1550.21 1070.81 1541.49 C 1087.49 1523.47 1099.55 1499.23 1111.43 1477.94 C 1102.37 1468.68 1059.95 1433.06 1057.19 1427 C 1068.95 1435.24 1085.99 1453.84 1098.16 1463.59 C 1102.71 1467.23 1106.67 1472.08 1111.93 1475.03 C 1123.07 1461.49 1132.22 1438.94 1144.28 1427.02 C 1144.17 1423.41 1139.56 1417.79 1138.43 1412.05 z" fill="rgb(205,213,224)" transform="translate(0,0)"></path>
<path d="M 1174.51 1513.04 L 1175.24 1514.48 C 1174.72 1522 1176.56 1531.86 1176.38 1540 C 1176.21 1547.57 1175.44 1548.76 1174.51 1555.62 C 1155.07 1573.27 1122.05 1588.99 1096.65 1596 C 1100.07 1590.8 1104.66 1587.78 1109.41 1583.82 C 1128.75 1567.69 1147.1 1549.64 1163.53 1530.54 C 1166.49 1527.1 1172.28 1520.58 1173.93 1516.54 C 1173.71 1517.29 1174.71 1511.95 1174.51 1513.04 z" fill="rgb(206,213,223)" transform="translate(0,0)"></path>
<path d="M 843.069 1211.34 C 863.1 1225.8 880.82 1239.9 902.504 1252.04 C 925.491 1264.91 953.75 1273.81 976.294 1285.34 L 975.211 1286.14 C 970.077 1284.53 965.365 1282.04 960.505 1279.71 C 959.495 1287.67 954.1 1303.66 951.681 1312.13 C 947.759 1326.19 944.369 1340.39 941.521 1354.71 C 933.613 1354.28 920.636 1351.8 912.455 1350.57 C 897.089 1348.25 881.671 1346.28 866.213 1344.68 C 863.754 1336.27 843.332 1210.41 843.069 1211.34 z" fill="rgb(255,255,255)" transform="translate(0,0)"></path>
<path d="M 794.879 1352.04 C 819.339 1363.1 852.932 1370.85 878.031 1381.28 L 878.96 1381.65 C 867.401 1393.62 814.592 1449.87 804.726 1454.61 C 804.057 1454.93 803.4 1455.28 802.742 1455.62 C 792.19 1415.73 790.31 1393.51 794.879 1352.04 z" fill="rgb(255,255,255)" transform="translate(0,0)"></path>
<path d="M 1565.33 784.18 C 1690.74 849.776 1803.92 932.398 1922.62 1008.43 C 1941.21 1021.1 1960.14 1033.26 1979.38 1044.9 C 1904.42 1074.61 1844.4 1132.99 1812.62 1207.1 C 1800.93 1233.88 1793.22 1260.63 1785.89 1288.88 C 1771.17 1257.28 1757.05 1224.35 1742.41 1192.34 C 1722.6 1148.02 1704.36 1102.56 1684.68 1058.29 C 1644.17 967.19 1603.05 876.492 1565.33 784.18 z" fill="rgb(39,174,221)" transform="translate(0,0)"></path>
<path d="M 1922.62 1008.43 C 1941.21 1021.1 1960.14 1033.26 1979.38 1044.9 C 1904.42 1074.61 1844.4 1132.99 1812.62 1207.1 C 1800.93 1233.88 1793.22 1260.63 1785.89 1288.88 C 1771.17 1257.28 1757.05 1224.35 1742.41 1192.34 C 1745.98 1189.25 1761.37 1163.89 1765.01 1158.28 C 1771.71 1147.86 1778.84 1137.72 1786.37 1127.89 C 1812.28 1094.4 1847.06 1061.17 1881.03 1035.75 C 1893.68 1026.29 1908.85 1018.4 1921.65 1009.13 L 1922.62 1008.43 z" fill="rgb(68,109,156)" transform="translate(0,0)"></path>
<path d="M 1848.91 1096.89 C 1854.44 1100.01 1857.35 1102.4 1852.52 1108.05 C 1845.77 1115.97 1838.18 1124.29 1829.7 1130.28 C 1816.68 1125.6 1824.9 1118.48 1831.41 1112.24 C 1837.07 1106.82 1842.52 1101.47 1848.91 1096.89 z" fill="rgb(239,196,151)" transform="translate(0,0)"></path>
<path d="M 1807.44 1140.73 C 1822.32 1142.32 1814.93 1150.33 1809.44 1157.97 C 1804.74 1164.51 1800.6 1170.92 1795.32 1177.08 C 1781.8 1173.94 1788 1168.91 1793.34 1160.44 C 1797.69 1153.54 1802.16 1146.98 1807.44 1140.73 z" fill="rgb(239,196,151)" transform="translate(0,0)"></path>
<path d="M 1878.4 1076.39 C 1880.37 1075.4 1882.72 1075.56 1884.54 1076.8 C 1886.36 1078.04 1887.37 1080.18 1887.16 1082.37 C 1886.96 1084.57 1885.58 1086.48 1883.56 1087.37 C 1880.55 1088.69 1877.03 1087.37 1875.63 1084.39 C 1874.23 1081.41 1875.46 1077.86 1878.4 1076.39 z" fill="rgb(255,255,255)" transform="translate(0,0)"></path>
<path d="M 1725.36 971.385 C 1727.66 971.631 1730.12 971.39 1731.31 973.717 C 1745.49 1001.43 1758.2 1030.17 1771.17 1058.49 C 1771.9 1060.09 1771.41 1062.48 1771.13 1064.09 C 1770.83 1064.06 1770.54 1064.03 1770.24 1064.01 C 1769.78 1063.98 1769.33 1063.97 1768.87 1063.94 C 1767.93 1063.87 1767.13 1063.44 1766.57 1062.66 C 1761.48 1055.56 1724.55 977.593 1725.01 973.966 C 1725.06 973.62 1725.12 973.277 1725.16 972.931 L 1725.36 971.385 z" fill="rgb(26,24,24)" transform="translate(0,0)"></path>
<path d="M 1655.67 860.182 C 1667.24 860.099 1676.39 861.618 1682 873.495 C 1686.3 879.766 1678.17 888.372 1673.53 882.133 C 1668.84 875.837 1670.98 875.726 1663.13 871.663 C 1646.55 870.812 1648.01 883.907 1643.49 883.84 C 1630.58 883.651 1634.5 864.988 1655.67 860.182 z" fill="rgb(239,196,151)" transform="translate(0,0)"></path>
<path d="M 1711.25 916.148 C 1718.42 917.219 1716.61 918.705 1719.47 925.253 C 1720.48 927.559 1730.87 922.516 1726.2 933.253 C 1725.41 935.073 1717.74 932.172 1718.11 937.43 C 1718.25 939.459 1717.43 941.527 1716.45 943.036 L 1715.69 944.262 C 1708.29 942.394 1710.19 942.931 1708.75 935.585 C 1708.22 932.868 1695.8 936.363 1699.38 928.466 C 1700.74 925.474 1706.13 926.627 1708.41 925.374 C 1709.19 923.771 1709.36 921.014 1710.2 918.851 L 1711.25 916.148 z" fill="rgb(239,196,151)" transform="translate(0,0)"></path>
<path d="M 480.404 784.897 L 481.366 785.072 L 481.824 786.435 C 476.268 799.996 445.056 878.314 439.599 883.775 C 438.527 881.433 438.148 880.646 436.758 878.492 C 432.853 879.754 412.427 914.568 408.988 920.108 C 396.589 920.773 383.366 920.892 370.893 921.185 C 370.742 939.308 374.876 977.118 378.605 995.811 C 378.92 997.393 382.588 1001.55 383.851 1002.97 C 366.528 1047.46 376.299 1044.76 334.736 1071.1 C 338.698 1077.75 344.661 1086.24 349.031 1092.95 C 336.902 1121.89 323.303 1150.8 310.66 1179.67 C 294.297 1217.02 278.797 1254.77 262.167 1291.96 C 252.824 1249.62 240.885 1212.51 220.32 1174.36 C 189.964 1117.18 131.675 1065.99 70.1209 1045.53 C 103.935 1024.16 136.979 1001.45 170.589 979.818 C 273.181 913.784 371.935 841.12 480.404 784.897 z" fill="rgb(39,174,221)" transform="translate(0,0)"></path>
<path d="M 190.537 1040.25 C 221.746 1037.85 232.078 1070.75 215.612 1077.61 C 213.744 1078.39 211.636 1078.36 209.788 1077.53 C 203.321 1074.62 204.101 1068.63 200.377 1063.21 C 180.734 1062.48 189.858 1075.25 181.04 1076.84 C 159.944 1080.66 160.804 1048.31 190.537 1040.25 z" fill="rgb(26,24,24)" transform="translate(0,0)"></path>
<path d="M 188.359 1045.18 C 201.589 1044.06 208.348 1045.87 216.123 1057.45 C 219.404 1062.34 218.604 1074.35 211.327 1071.54 C 207.42 1070.03 209.787 1063.58 202.984 1058.99 L 201.419 1057.96 C 194.717 1056.6 183.709 1058.16 182.871 1064.01 C 180.993 1077.14 169.059 1074.92 172.319 1061.57 C 174.424 1052.95 180.942 1049.31 188.359 1045.18 z" fill="rgb(239,196,151)" transform="translate(0,0)"></path>
<path d="M 344.161 958.632 C 346.221 958.999 353.366 962.022 351.899 964.115 C 339.098 982.372 322.181 1006.48 306.763 1022.42 C 294.607 1018.33 299.187 1013.29 306.412 1004.61 C 318.416 990.188 330.538 971.284 344.161 958.632 z" fill="rgb(239,196,151)" transform="translate(0,0)"></path>
<path d="M 244.108 1113.38 C 254.959 1118 249.171 1126.14 251.967 1136.02 C 253.197 1140.36 249.91 1143.58 247.35 1146.38 C 243.169 1143.56 240.876 1141.81 240.758 1136.52 C 240.585 1128.83 236.85 1120.65 242.784 1114.76 L 244.108 1113.38 z" fill="rgb(239,196,151)" transform="translate(0,0)"></path>
<path d="M 263.672 1192.4 C 267.14 1191.26 270.955 1192.13 273.577 1194.67 C 276.199 1197.22 277.196 1201 276.165 1204.5 C 275.134 1208 272.246 1210.65 268.665 1211.36 C 263.573 1212.38 258.569 1209.25 257.247 1204.23 C 255.924 1199.21 258.74 1194.02 263.672 1192.4 z" fill="rgb(255,255,255)" transform="translate(0,0)"></path>
<path d="M 1440.2 953.738 C 1469.5 913.401 1495.77 871.107 1522.72 829.152 C 1532.86 813.366 1541.51 796.615 1551.99 780.712 C 1568.65 816.674 1586.73 860.75 1602.36 897.633 C 1595.35 894.31 1567.66 878.667 1562.5 878.522 C 1559.15 885.187 1558.74 897.298 1558.15 904.939 C 1552.22 981.968 1546.42 1059.09 1542.72 1136.26 C 1541.54 1160.94 1541.67 1185.91 1539.91 1210.48 L 1529.48 1205.96 C 1525.79 1226.77 1526.71 1250.06 1522.26 1271.82 C 1523.06 1279.84 1520.08 1307.29 1519.27 1316.88 L 1512.01 1403.5 C 1510.38 1421.9 1507.3 1447.92 1508.03 1465.87 L 1505.7 1466.46 C 1497.29 1451.09 1485.17 1434.22 1477.62 1419.28 C 1445.7 1370.76 1404.91 1330.93 1366.44 1287.59 C 1390.94 1232.45 1415.86 1177.51 1441.21 1122.76 C 1454.48 1093.69 1547.81 895.592 1534.52 879.081 L 1532.41 879.337 C 1530.01 880.961 1529.03 881.958 1528.09 884.824 C 1514.76 925.155 1500.52 967.043 1482.92 1005.74 C 1468.09 989.184 1454.12 971.117 1440.2 953.738 z" fill="rgb(39,174,221)" transform="translate(0,0)"></path>
<path d="M 1522.26 1271.82 C 1523.06 1279.84 1520.08 1307.29 1519.27 1316.88 L 1512.01 1403.5 C 1510.38 1421.9 1507.3 1447.92 1508.03 1465.87 L 1505.7 1466.46 C 1497.29 1451.09 1485.17 1434.22 1477.62 1419.28 C 1482.38 1408.31 1483.12 1392.6 1487.04 1381.08 C 1498.74 1346.66 1507.4 1304.45 1522.26 1271.82 z" fill="rgb(68,109,156)" transform="translate(0,0)"></path>
<path d="M 1483.79 1189.53 C 1484.31 1189.77 1489.07 1191.67 1488.42 1193.07 C 1480.23 1210.67 1469.4 1245.46 1459.35 1260.66 C 1458.05 1259.85 1454.08 1257.61 1454.37 1256.87 C 1458.92 1245.32 1478.86 1197.48 1483.79 1189.53 z" fill="rgb(26,24,24)" transform="translate(0,0)"></path>
<path d="M 1418.87 1286.21 C 1420.78 1287.01 1422.41 1287.54 1423.93 1289.05 C 1426.2 1290.62 1423.96 1296.61 1425.49 1297.34 C 1427.33 1298.22 1434.91 1297.21 1435.43 1301.94 C 1435.82 1305.39 1433.05 1308.06 1429.49 1307.77 C 1426.77 1307.55 1424.8 1308.37 1424.92 1311.47 C 1424.78 1314.84 1423.51 1316.67 1421.13 1318.78 L 1420.07 1319.73 C 1411.2 1314.92 1416.8 1308.3 1411.03 1308.09 C 1403.25 1307.81 1402.15 1303.71 1406.2 1297.54 C 1407.4 1295.71 1411.97 1297.87 1413.36 1296.93 C 1416.28 1290.71 1413.54 1291.57 1418.87 1286.21 z" fill="rgb(255,255,255)" transform="translate(0,0)"></path>
<path d="M 1914.16 714.305 C 1938.61 709.229 1964.7 706.223 1989.76 701.229 C 1953.33 745.175 1928.68 808.365 1935.35 865.446 C 1941.91 921.706 1962.93 980.814 1980.16 1034.66 C 1963.61 1021.75 1939.72 1007.59 1921.87 995.493 C 1880.69 969.05 1839.8 942.164 1799.2 914.839 C 1787.59 907.103 1776.12 899.166 1764.53 891.41 C 1703.32 850.458 1638.65 815.517 1575.44 778.032 C 1641.72 766.351 1707.9 754.109 1773.97 741.308 C 1820.89 732.55 1867.43 724.426 1914.16 714.305 z" fill="rgb(39,174,221)" transform="translate(0,0)"></path>
<path d="M 1914.16 714.305 C 1938.61 709.229 1964.7 706.223 1989.76 701.229 C 1953.33 745.175 1928.68 808.365 1935.35 865.446 C 1941.91 921.706 1962.93 980.814 1980.16 1034.66 C 1963.61 1021.75 1939.72 1007.59 1921.87 995.493 C 1925.61 988.708 1928.45 982.912 1931.73 975.881 C 1915.97 918.258 1905.16 862.686 1907.61 802.674 C 1908.05 791.867 1908.41 777.249 1910.32 766.797 C 1897.69 761.731 1891.77 755.709 1898.46 739.699 C 1899.99 736.033 1905.97 733.276 1909.99 732.7 L 1912.01 732.354 C 1911.87 725.862 1913.38 720.806 1914.16 714.305 z" fill="rgb(68,109,156)" transform="translate(0,0)"></path>
<path d="M 1912.01 732.354 C 1924.18 736.675 1932.48 739.957 1928.21 756.552 C 1926.24 764.203 1917.45 766.361 1910.32 766.797 C 1897.69 761.731 1891.77 755.709 1898.46 739.699 C 1899.99 736.033 1905.97 733.276 1909.99 732.7 L 1912.01 732.354 z" fill="rgb(255,255,255)" transform="translate(0,0)"></path>
<path d="M 1911.72 742.376 C 1919.19 745.141 1921.58 749.185 1915.75 755.802 L 1914.5 757.303 C 1907.68 755.423 1906.29 748.925 1910.62 743.799 L 1911.72 742.376 z" fill="rgb(34,129,181)" transform="translate(0,0)"></path>
<path d="M 1724.6 778.548 C 1725.98 778.589 1728.14 778.606 1729.48 778.98 C 1761.09 787.813 1793.02 795.837 1824.38 805.495 C 1826.78 806.233 1828.67 807.133 1830.01 809.281 C 1830.6 812.436 1829.35 814.012 1827.89 816.939 C 1826.35 816.808 1824.01 816.664 1822.53 816.229 C 1790.99 807.007 1758.96 799.33 1727.57 789.686 C 1725.21 788.964 1724.23 787.971 1722.95 785.983 C 1722.21 783.085 1723.39 781.382 1724.6 778.548 z" fill="rgb(239,196,151)" transform="translate(0,0)"></path>
<path d="M 1897.11 929.657 C 1901.72 927.335 1907.34 929.188 1909.66 933.795 C 1911.98 938.403 1910.13 944.02 1905.52 946.34 C 1900.91 948.66 1895.3 946.807 1892.97 942.2 C 1890.65 937.594 1892.51 931.978 1897.11 929.657 z" fill="rgb(255,255,255)" transform="translate(0,0)"></path>
<path d="M 496.335 778.751 C 526.606 830.746 572.443 904.99 608.419 953.049 C 594.984 970.154 578.462 989.751 565.973 1006.84 C 547.846 967.943 534.514 928.95 522.496 887.789 C 521.592 884.695 519.979 881.958 517.645 879.756 L 515.533 879.454 C 514.008 880.735 512.2 881.681 512.41 884.061 C 513.209 893.116 516.654 901.893 519.12 910.562 C 532.039 955.971 549.888 996.361 569.345 1039.16 L 600.028 1107.69 C 618.445 1148.59 637.5 1189.21 657.185 1229.51 C 666.001 1247.91 675.066 1268.16 684.334 1286.07 C 648.925 1322.59 612.748 1362.17 582.867 1403.18 C 569.188 1421.95 556.787 1443.06 544.285 1462.73 L 540.702 1461.74 C 541.594 1450.33 540.01 1434.61 539.166 1422.88 L 534.865 1362.25 L 519.316 1133.16 C 517.694 1132.19 517.184 1131.92 515.436 1131.2 C 513.436 1125.5 510.134 1084.43 509.438 1076.4 L 497.118 938.058 C 495.98 925.237 494.92 912.41 493.937 899.577 C 493.5 894.037 493.903 880.172 489.575 877.366 C 480.446 879.314 453.639 895.391 444.397 900.874 C 461.558 860.771 478.112 817.998 496.335 778.751 z" fill="rgb(39,174,221)" transform="translate(0,0)"></path>
<path d="M 569.002 1294.28 C 579.172 1297.85 597.653 1326.11 603.041 1335.98 C 603.633 1337.07 600.276 1340.63 599.818 1341.22 C 599.235 1341.21 595.032 1341.36 594.522 1340.8 C 587.998 1332.96 581.994 1324.44 575.765 1316.22 C 570.898 1309.8 562.989 1303.48 567.982 1295.92 L 569.002 1294.28 z" fill="rgb(239,196,151)" transform="translate(0,0)"></path>
<path d="M 562.078 1194.56 C 567.767 1197.38 569.669 1206.09 572.015 1212 C 577.772 1226.51 583.782 1240.88 589.568 1255.36 C 590.648 1258.07 589.6 1259.18 588.255 1261.47 C 587.789 1261.37 587.325 1261.26 586.858 1261.17 C 586.199 1261.05 585.618 1261 584.993 1260.76 C 583.205 1260.08 582.347 1257.87 581.638 1256.27 C 578.306 1248.76 558.847 1201.25 560.753 1197.19 C 560.893 1196.89 561.06 1196.6 561.209 1196.31 L 562.078 1194.56 z" fill="rgb(26,24,24)" transform="translate(0,0)"></path>
<path d="M 72.858 381.692 L 270.054 575.902 C 335.057 639.449 401.755 701.239 470.075 761.206 L 479.005 767.691 L 467.228 765.554 C 402.276 752.562 337.182 740.292 271.958 728.745 C 256.232 692.915 237.662 655.742 221.134 619.989 L 191.459 555.675 C 188.793 549.916 185.993 539.991 181.62 535.769 C 178.365 535.92 179.932 535.691 176.744 537.741 C 175.408 544.7 252.413 704.401 263.187 726.868 C 211.346 715.472 157.505 708.592 105.587 697.051 C 88.8191 693.323 70.9206 689.725 53.9653 687.124 C 101.621 630.183 119.409 562.585 106.519 489.713 C 117.196 494.043 141.907 507.012 151.473 508.233 C 153.546 506.61 152.959 507.68 153.596 505.183 C 149.951 498.858 113.417 483.908 105.499 481.461 C 96.6788 441.141 88.8821 420.126 72.858 381.692 z" fill="rgb(39,174,221)" transform="translate(0,0)"></path>
<path d="M 145.518 569.273 C 151.908 569.711 152.308 571.431 152.905 578.502 C 153.693 587.82 157.307 600.772 156.724 609.549 C 150.494 608.897 150.409 609.651 149.113 602.502 C 147.91 595.867 147.077 589.165 146.049 582.498 C 145.185 576.886 144.687 574.852 145.518 569.273 z" fill="rgb(26,24,24)" transform="translate(0,0)"></path>
<path d="M 737.369 502.406 C 746.011 501.127 758.66 501.768 767.652 502.379 C 845.612 507.672 910.847 565.807 929.743 640.931 C 939.376 679.227 937.574 707.216 928.179 745.267 C 900.487 754.033 875.727 769.259 850.364 782.779 C 859.686 768.988 866.929 753.9 871.86 738.002 C 923.373 575.739 738.881 476.406 630.393 603.233 C 615.278 620.903 606.197 642.429 599.514 664.653 C 596.87 675.037 595.051 683.743 594.004 694.481 C 589.786 737.494 602.99 780.402 630.66 813.602 C 668.787 859.088 711.131 870.29 767.43 875.194 C 760.837 888.948 756.462 900.162 751.096 914.348 C 707.892 908.973 669.193 895.575 635.073 867.627 C 591.616 832.713 564.206 781.644 559.129 726.131 C 548.596 618.264 627.646 512.459 737.369 502.406 z" fill="rgb(68,109,156)" transform="translate(0,0)"></path>
<path d="M 58.6947 698.679 C 127.355 712.077 196.117 724.952 264.973 737.303 L 269.906 750.466 C 262.728 761.566 256.583 773.054 250.194 784.622 C 255.34 804.131 267.151 831.513 273.984 851.688 C 260.519 865.416 246.451 878.939 232.871 892.665 C 232.144 901.899 227.673 920.66 225.747 930.964 L 179.403 961.959 C 142.759 986.163 105.958 1010.13 69.0027 1033.85 C 109.196 904.823 153.196 819.791 58.6947 698.679 z" fill="rgb(240,241,240)" transform="translate(0,0)"></path>
<path d="M 169.767 799.781 C 174.595 798.176 179.914 799.287 183.695 802.691 C 187.477 806.096 189.139 811.268 188.048 816.238 C 186.958 821.208 183.282 825.209 178.423 826.717 C 171.013 829.016 163.135 824.919 160.761 817.534 C 158.388 810.148 162.405 802.228 169.767 799.781 z" fill="rgb(26,24,24)" transform="translate(0,0)"></path>
<path d="M 170.536 805.752 C 174.457 803.719 179.284 805.172 181.433 809.03 C 183.582 812.889 182.274 817.758 178.481 820.021 C 175.925 821.546 172.741 821.56 170.172 820.057 C 167.602 818.555 166.053 815.773 166.129 812.797 C 166.205 809.821 167.893 807.122 170.536 805.752 z" fill="rgb(255,255,255)" transform="translate(0,0)"></path>
<path d="M 178.53 906.465 C 185.16 904.498 192.128 908.288 194.08 914.922 C 196.031 921.557 192.226 928.516 185.587 930.453 C 178.969 932.383 172.038 928.592 170.092 921.979 C 168.147 915.366 171.921 908.426 178.53 906.465 z" fill="rgb(26,24,24)" transform="translate(0,0)"></path>
<path d="M 178.926 912.35 C 181.311 911.098 184.197 911.289 186.397 912.845 C 188.596 914.401 189.736 917.059 189.349 919.725 C 188.962 922.391 187.112 924.615 184.561 925.481 C 181.019 926.684 177.147 924.959 175.672 921.522 C 174.196 918.084 175.614 914.089 178.926 912.35 z" fill="rgb(239,196,151)" transform="translate(0,0)"></path>
<path d="M 1279.75 502.409 C 1280.1 502.347 1280.46 502.285 1280.82 502.223 C 1328.63 498.288 1370.28 512.236 1408.39 539.961 C 1451.8 572.065 1480.92 619.887 1489.51 673.19 C 1498.1 728.107 1484.47 784.184 1451.64 829.038 C 1412.18 882.78 1363.54 904.834 1299.69 914.529 C 1294.28 901.027 1288.08 887.858 1281.11 875.092 C 1325.65 874.489 1377.72 858.034 1408.46 825.143 C 1444.41 786.671 1457.26 751.815 1456.86 700.497 C 1454.21 674.123 1449.38 653.921 1436.85 630.118 C 1399.64 559.439 1310.83 522.986 1237.84 562.482 C 1207.26 579.238 1184.62 607.492 1174.93 640.988 C 1160.24 691.7 1172.27 737.116 1196.87 781.931 C 1179.64 771.022 1142.88 751.298 1123.89 744.936 C 1120.74 732.812 1118.21 721.141 1116.88 708.658 C 1106.09 606.658 1176.42 513.162 1279.75 502.409 z" fill="rgb(68,109,156)" transform="translate(0,0)"></path>
<path d="M 1155.08 599.449 C 1170.27 605.522 1160.47 611.386 1155.81 624.151 C 1152.15 634.215 1151.88 644.754 1144.04 651.513 C 1140.5 650.666 1135.49 649.167 1136.14 644.535 C 1138.13 630.194 1144.89 609.544 1155.08 599.449 z" fill="rgb(255,255,255)" transform="translate(0,0)"></path>
<path d="M 1177.05 567.873 C 1181.07 567.616 1186.82 568.906 1186.5 574.407 C 1186.18 580.043 1175.26 588.526 1170.91 592.232 L 1170.09 592.516 C 1164.75 594.427 1161.82 592.406 1161.63 586.01 C 1161.51 581.955 1170.98 572.113 1174.42 569.689 L 1177.05 567.873 z" fill="rgb(255,255,255)" transform="translate(0,0)"></path>
<path d="M 1135.08 669.851 C 1148.15 673.162 1150.33 685.368 1138.48 692.936 C 1124.63 689.755 1123.21 677.49 1135.08 669.851 z" fill="rgb(240,241,240)" transform="translate(0,0)"></path>
<path d="M 1236.85 521.323 C 1239.55 520.053 1242.73 520.339 1245.16 522.072 C 1247.6 523.804 1248.91 526.714 1248.59 529.685 C 1248.27 532.655 1246.38 535.224 1243.64 536.406 C 1239.49 538.192 1234.68 536.322 1232.82 532.204 C 1230.97 528.086 1232.76 523.243 1236.85 521.323 z" fill="rgb(255,255,255)" transform="translate(0,0)"></path>
<path d="M 425.377 1150.6 C 434.817 1151.87 498.101 1141.02 512.825 1139.77 C 514.486 1168.51 516.299 1197.24 518.262 1225.96 C 519.076 1237.72 521.333 1259.9 521.094 1270.67 C 522.634 1279.14 523.237 1296.94 523.826 1305.94 L 528.103 1368.67 L 531.999 1424.73 C 532.516 1432.14 534.001 1448 533.498 1454.79 C 532.703 1465.54 526.656 1479.96 524.202 1491.5 L 523.952 1492.73 C 519.957 1479.41 517.725 1468.98 512.805 1455.22 C 496.696 1408.8 466.671 1368.48 426.819 1339.75 C 385.501 1309.72 325.357 1292.12 274.248 1300.32 C 305.525 1271.55 337.285 1243.31 369.515 1215.62 C 371.01 1222.75 373.101 1238.96 376.006 1244.89 C 381.32 1245.22 414.601 1156.26 425.377 1150.6 z" fill="url(#Gradient5)" transform="translate(0,0)"></path>
<path d="M 425.377 1150.6 C 434.817 1151.87 498.101 1141.02 512.825 1139.77 C 514.486 1168.51 516.299 1197.24 518.262 1225.96 C 519.076 1237.72 521.333 1259.9 521.094 1270.67 L 520.188 1270.01 C 516.328 1253.1 517.466 1227.75 515.3 1209.78 C 506.327 1212.1 497.795 1222.54 487.31 1223.23 C 476.908 1218.52 430.24 1162.64 425.377 1150.6 z" fill="rgb(205,213,224)" transform="translate(0,0)"></path>
<path d="M 439.73 1275.88 C 443.652 1276.07 446.865 1275.63 449.024 1279.97 C 458.505 1299.03 469.779 1275.75 471.001 1275.86 C 483.897 1277.07 482.559 1286.79 477.294 1295.99 C 454.441 1321.65 426.227 1290.22 438.689 1277.02 L 439.73 1275.88 z" fill="rgb(26,24,24)" transform="translate(0,0)"></path>
<path d="M 442.065 1280.67 C 447.184 1283.96 446.345 1288.14 453.535 1291.92 C 456.063 1293.26 459.025 1293.51 461.744 1292.63 C 471.495 1289.36 475.102 1273.37 475.887 1287.23 L 475.191 1288.44 C 462.624 1310.62 437.623 1296.45 442.065 1280.67 z" fill="rgb(239,196,151)" transform="translate(0,0)"></path>
<path d="M 1554.67 1099.56 C 1564.4 1114.52 1579.82 1152.31 1590.13 1160.12 C 1612.69 1175.02 1634.12 1191.55 1656.58 1206.84 C 1677.78 1221.12 1698.83 1235.62 1719.74 1250.32 C 1730.4 1257.71 1743.63 1266.3 1753.66 1274.07 C 1763.45 1282.46 1768.58 1290.35 1775.46 1301.33 C 1709.71 1294.8 1676.59 1307.37 1621.24 1340.53 C 1618.26 1343.87 1599.38 1358.02 1593.34 1364.3 C 1556.1 1402.97 1537.34 1441.17 1523.04 1492.12 C 1521.1 1486.43 1515.96 1470.15 1516.01 1464.74 C 1516.28 1438.71 1519.57 1410.23 1521.72 1384.23 L 1536.27 1215.96 C 1539.77 1217.5 1543.48 1220.06 1546.93 1218.49 L 1547.97 1214.64 C 1547.46 1204.94 1549.21 1182.8 1549.84 1172.43 C 1551.21 1148.12 1552.82 1123.83 1554.67 1099.56 z" fill="url(#Gradient4)" transform="translate(0,0)"></path>
<path d="M 1536.27 1215.96 C 1539.77 1217.5 1543.48 1220.06 1546.93 1218.49 L 1547.97 1214.64 C 1548.33 1218.44 1547.68 1220.49 1550.29 1222.16 C 1564.33 1231.1 1582.03 1240.06 1596.79 1247.67 C 1601.13 1252.31 1619.75 1255.56 1626.96 1257.25 C 1626.81 1268.65 1620.31 1338.64 1621.24 1340.53 C 1618.26 1343.87 1599.38 1358.02 1593.34 1364.3 C 1556.1 1402.97 1537.34 1441.17 1523.04 1492.12 C 1521.1 1486.43 1515.96 1470.15 1516.01 1464.74 C 1516.28 1438.71 1519.57 1410.23 1521.72 1384.23 L 1536.27 1215.96 z" fill="url(#Gradient3)" transform="translate(0,0)"></path>
<path d="M 1626.96 1257.25 C 1649.66 1259.85 1670.94 1264.01 1693.29 1267.51 C 1709.61 1270.07 1738.27 1276.79 1753.66 1274.07 C 1763.45 1282.46 1768.58 1290.35 1775.46 1301.33 C 1709.71 1294.8 1676.59 1307.37 1621.24 1340.53 C 1620.31 1338.64 1626.81 1268.65 1626.96 1257.25 z" fill="rgb(205,213,224)" transform="translate(0,0)"></path>
<path d="M 1554.67 1099.56 C 1564.4 1114.52 1579.82 1152.31 1590.13 1160.12 C 1591.16 1170.29 1597.99 1241.2 1596.79 1247.67 C 1582.03 1240.06 1564.33 1231.1 1550.29 1222.16 C 1547.68 1220.49 1548.33 1218.44 1547.97 1214.64 C 1547.46 1204.94 1549.21 1182.8 1549.84 1172.43 C 1551.21 1148.12 1552.82 1123.83 1554.67 1099.56 z" fill="rgb(255,255,255)" transform="translate(0,0)"></path>
<path d="M 1974.85 384.035 L 1975.36 384.728 C 1974.68 389.409 1960.07 425.027 1957.26 434.341 C 1952.1 451.473 1947.88 469.761 1942.99 486.706 C 1923.44 494.256 1889.84 511.05 1871.39 516.064 C 1864.83 537.788 1855.48 556.787 1847.2 577.709 C 1832.23 615.523 1817.75 651.755 1800.42 688.597 C 1803.91 700.414 1807.14 712.308 1810.09 724.269 C 1784.97 727.877 1754.9 734.449 1729.71 739.353 C 1680.69 748.876 1631.59 757.966 1582.41 766.621 L 1572.58 767.754 C 1587.74 751.851 1605.78 737.145 1622.26 722.369 C 1650.94 696.66 1679.44 670.74 1707.74 644.61 C 1742.78 612.055 1776.86 578.756 1810.85 545.142 C 1864.72 491.872 1922.17 438.299 1974.85 384.035 z" fill="rgb(39,174,221)" transform="translate(0,0)"></path>
<path d="M 1737.41 665.804 C 1737.82 666.006 1738.22 666.217 1738.64 666.411 C 1739.64 666.885 1740.59 667.291 1741.49 667.956 C 1742.95 669.038 1744.82 670.65 1745 672.59 C 1745.29 675.634 1712.23 711.776 1708.2 716.288 C 1705.9 715.543 1700.08 712.512 1701.39 709.935 C 1707.16 698.547 1728.39 673.289 1737.41 665.804 z" fill="rgb(239,196,151)" transform="translate(0,0)"></path>
<path d="M 1569.29 891.045 C 1582.67 897.894 1594.95 904.304 1607.98 911.768 C 1615.46 925.659 1623.44 944.733 1629.89 959.303 L 1668.63 1047.95 C 1683.67 1081.35 1698.46 1114.86 1713.02 1148.46 C 1720.09 1164.68 1729.28 1184.5 1735.18 1200.9 C 1733.5 1205.85 1721.28 1234.52 1718.66 1240.06 C 1686.61 1218.23 1654.77 1196.1 1623.13 1173.68 C 1618.13 1170.18 1595.08 1155.13 1592.63 1152.33 C 1580.9 1138.92 1568.51 1099.74 1554.66 1089.66 C 1560.89 1026.48 1564.95 954.973 1569.29 891.045 z" fill="rgb(39,174,221)" transform="translate(0,0)"></path>
<path d="M 1632.2 1112.9 C 1638.6 1112.94 1638.47 1112.68 1642.44 1118.27 C 1655.33 1136.4 1656.11 1109.09 1667.46 1114.13 C 1669.41 1115.02 1670.9 1116.7 1671.54 1118.75 C 1673.06 1123.46 1670.55 1128.84 1668.36 1132.85 C 1646.95 1156.48 1615.96 1128.55 1632.2 1112.9 z" fill="rgb(26,24,24)" transform="translate(0,0)"></path>
<path d="M 1634.01 1117.72 C 1639.63 1120.77 1639.51 1125.68 1644.22 1127.47 C 1654.68 1131.93 1659.16 1125.97 1665.06 1118.77 C 1665.66 1118.04 1666.88 1121.13 1666.58 1121.47 C 1666.53 1121.53 1666.69 1123.84 1666.69 1123.92 C 1655.45 1148.04 1629.37 1132.99 1634.01 1117.72 z" fill="rgb(239,196,151)" transform="translate(0,0)"></path>
<path d="M 1633.1 1058.55 C 1635.43 1057.4 1638.2 1057.6 1640.35 1059.06 C 1642.5 1060.52 1643.7 1063.03 1643.49 1065.62 C 1643.27 1068.22 1641.68 1070.49 1639.32 1071.58 C 1635.73 1073.23 1631.48 1071.7 1629.78 1068.14 C 1628.08 1064.57 1629.56 1060.3 1633.1 1058.55 z" fill="rgb(255,255,255)" transform="translate(0,0)"></path>
<path d="M 482.659 890.916 C 492.22 969.962 495.65 1053.33 504.704 1133.07 C 475.633 1137.77 446.251 1141.5 417.091 1145.88 C 405.063 1165.51 389.586 1204.4 377.697 1226.7 C 377.16 1218.38 376.229 1209.9 375.411 1201.59 C 363.109 1211.45 282.815 1283.38 277.931 1284.88 C 276.743 1282.23 277.115 1283.67 278.507 1279.76 C 282.454 1269.13 289.057 1254.99 293.637 1244.28 C 303.961 1219.53 314.638 1194.93 325.664 1170.48 C 332.772 1154.55 345.29 1123.67 353.341 1109.44 L 354.324 1109.55 L 356.773 1115.29 L 358.363 1115.76 C 362.475 1112.81 366.186 1109.34 370.198 1106.25 C 379.106 1099.39 388.709 1093.58 398.27 1087.69 C 390.552 1070.21 384.487 1066.37 377.434 1044.28 C 380.46 1035.56 385.34 1025.39 389.175 1016.83 C 394.522 1025.22 397.296 1032.42 404.096 1040.51 C 410.683 1025.13 420.106 980.906 426.129 971.185 C 429.782 971.404 430.321 971.508 434.069 970.99 C 438.64 967.568 442.206 959.972 445.003 954.746 C 442.908 942.016 443.145 928.93 440.609 915.158 C 454.437 906.754 468.457 898.671 482.659 890.916 z" fill="rgb(39,174,221)" transform="translate(0,0)"></path>
<path d="M 1877.51 523.127 C 1894.1 513.749 1922.85 504.207 1941.91 494.988 C 1932.83 564.772 1945.68 617.821 1987.46 676.541 C 1989.9 679.977 1994.27 685.098 1997.22 688.194 L 1916.29 704.033 L 1816.61 722.998 L 1808.47 688.737 C 1818.05 675.955 1841.89 645.034 1848.76 632.921 L 1838.91 619.763 C 1842.29 609.408 1848.46 595.159 1852.59 584.731 C 1860.6 564.079 1868.91 543.542 1877.51 523.127 z" fill="rgb(205,213,224)" transform="translate(0,0)"></path>
<path d="M 1894.25 598.521 C 1895.7 599.257 1897.26 599.731 1898.87 599.923 C 1924.83 611.185 1918.52 640.1 1919.11 663.483 C 1919.43 676.431 1917.36 691.017 1916.29 704.033 L 1816.61 722.998 L 1808.47 688.737 C 1818.05 675.955 1841.89 645.034 1848.76 632.921 C 1849.64 632.109 1856.4 628.617 1858.4 627.254 C 1868.06 620.675 1887.81 607.694 1894.25 598.521 z" fill="rgb(206,213,223)" transform="translate(0,0)"></path>
<path d="M 1877.51 523.127 C 1881.35 532.027 1890.31 565.283 1892.25 575.301 C 1888.46 578.145 1886.4 582.743 1886.81 587.466 C 1887.22 592.189 1890.03 596.368 1894.25 598.521 C 1887.81 607.694 1868.06 620.675 1858.4 627.254 C 1856.4 628.617 1849.64 632.109 1848.76 632.921 L 1838.91 619.763 C 1842.29 609.408 1848.46 595.159 1852.59 584.731 C 1860.6 564.079 1868.91 543.542 1877.51 523.127 z" fill="rgb(255,255,255)" transform="translate(0,0)"></path>
<path d="M 1892.25 575.301 C 1897.2 571.597 1904 571.646 1908.89 575.421 C 1913.77 579.197 1915.54 585.769 1913.2 591.485 C 1910.86 597.201 1905 600.653 1898.87 599.923 C 1897.26 599.731 1895.7 599.257 1894.25 598.521 C 1890.03 596.368 1887.22 592.189 1886.81 587.466 C 1886.4 582.743 1888.46 578.145 1892.25 575.301 z" fill="rgb(26,24,24)" transform="translate(0,0)"></path>
<path d="M 1895.91 579.571 C 1898.28 577.963 1901.33 577.759 1903.89 579.04 C 1906.45 580.32 1908.12 582.883 1908.26 585.743 C 1908.39 588.602 1906.97 591.311 1904.54 592.825 C 1900.88 595.104 1896.08 594.038 1893.73 590.428 C 1891.38 586.817 1892.35 581.991 1895.91 579.571 z" fill="rgb(239,196,151)" transform="translate(0,0)"></path>
<path d="M 1362.96 1297.86 C 1392.27 1331.53 1432.34 1371.22 1457.14 1406.52 C 1468.67 1423.02 1479.39 1440.06 1489.28 1457.59 C 1495.3 1468.31 1501.75 1482.19 1508.67 1491.96 L 1509.61 1493.26 C 1469.25 1477.31 1440.36 1473.76 1398.72 1486.75 C 1355.89 1503.81 1339.01 1525.53 1313.71 1561.77 C 1314.25 1548.63 1317.23 1530.3 1319.08 1517 L 1331.27 1433.92 L 1339.14 1378.02 C 1343.98 1341.33 1345.5 1331.7 1362.96 1297.86 z" fill="rgb(68,109,156)" transform="translate(0,0)"></path>
<path d="M 1410.7 1418.57 C 1420.86 1420.89 1418.11 1427.3 1413.05 1433.45 C 1403.33 1445.26 1394.1 1459.44 1383.39 1470.29 C 1371.92 1466.58 1375.54 1462.64 1381.57 1454.49 C 1386.01 1448.49 1390.8 1442.64 1395.44 1436.79 L 1399.18 1432.09 C 1403.18 1427 1406.23 1423.23 1410.7 1418.57 z" fill="rgb(239,196,151)" transform="translate(0,0)"></path>
<path d="M 687.67 1296.85 C 690.683 1300.72 701.177 1340.62 701.98 1346.68 C 711.333 1417.16 724.494 1488.97 732.698 1559.51 C 710.895 1522.83 683.098 1497.95 642.953 1483.81 C 602.528 1473.25 575.138 1479.92 537.09 1493.48 C 547.644 1476.74 556.392 1460.32 567.684 1443.1 C 602.291 1390.17 642.521 1341.14 687.67 1296.85 z" fill="rgb(68,109,156)" transform="translate(0,0)"></path>
<path d="M 272.538 738.394 C 339.287 751.611 406.146 764.267 473.108 776.361 C 466.379 780.492 459.114 784.51 452.132 788.204 C 412.067 809.402 374.633 833.158 336.8 858.044 C 301.999 880.157 268.523 903.412 234.118 925.492 C 243.613 880.437 253.862 884.285 282.459 852.423 C 274.598 830.166 266.441 808.014 257.991 785.973 C 263.671 774.08 271.6 761.274 278.221 749.66 L 272.538 738.394 z" fill="rgb(39,174,221)" transform="translate(0,0)"></path>
<path d="M 317.109 810.463 C 320.337 809.159 324.019 809.723 326.708 811.933 C 329.397 814.144 330.664 817.647 330.009 821.066 C 329.355 824.485 326.885 827.273 323.569 828.334 C 318.699 829.894 313.467 827.321 311.728 822.511 C 309.99 817.702 312.367 812.378 317.109 810.463 z" fill="rgb(255,255,255)" transform="translate(0,0)"></path>
<path d="M 1433.82 962.684 C 1436.15 964.688 1445.17 976.37 1447.51 979.282 L 1476.32 1015.2 C 1464.12 1029.02 1452.87 1043.08 1440.28 1056.91 C 1390.68 1111.38 1340.31 1151.67 1278.53 1192.27 C 1271.26 1196.71 1264.02 1201.19 1256.79 1205.7 C 1253.13 1197.76 1250.87 1192.48 1248.04 1184.24 C 1255.75 1171.11 1293.24 1134.47 1305.97 1120.11 C 1350.9 1069.41 1396.04 1019.21 1433.82 962.684 z" fill="rgb(68,109,156)" transform="translate(0,0)"></path>
<path d="M 613.701 961.774 C 617.985 966.38 631.874 986.536 636.372 992.683 C 649.976 1011.26 664.07 1029.48 678.64 1047.31 C 717.395 1094.64 758.424 1136.63 798.17 1182.21 L 792.24 1202.67 C 784.625 1199.01 775.825 1193.68 768.379 1189.43 C 710.766 1154.19 658.174 1111.34 612.028 1062.04 C 598.087 1047.18 585.556 1030.9 571.755 1015.78 C 584.797 998.151 600.106 979.888 613.701 961.774 z" fill="rgb(39,174,221)" transform="translate(0,0)"></path>
<path d="M 589.329 1052.83 C 607.259 1070.53 624.11 1089.87 642.557 1106.92 C 689.229 1150.04 734.82 1182.32 789.744 1213.97 L 785.243 1222.32 C 760.451 1236.73 715.609 1268.3 691.527 1278.24 C 680.096 1258.29 665.563 1225.76 655.345 1204.39 C 631.81 1154.65 608.752 1104.67 586.174 1054.48 L 589.329 1052.83 z" fill="rgb(68,109,156)" transform="translate(0,0)"></path>
<path d="M 723.322 1222.67 C 727.046 1222.26 730.434 1224.85 731.011 1228.55 C 731.589 1232.25 729.151 1235.76 725.479 1236.5 C 722.952 1237.01 720.348 1236.09 718.7 1234.11 C 717.052 1232.13 716.626 1229.4 717.592 1227.01 C 718.558 1224.62 720.759 1222.95 723.322 1222.67 z" fill="rgb(255,255,255)" transform="translate(0,0)"></path>
<path d="M 1463.17 1048.01 C 1463.62 1049.88 1368.88 1257.72 1358.57 1279.63 C 1339.33 1269.4 1318.53 1256.03 1299.64 1244.64 C 1290.66 1239.43 1276.77 1230.69 1267.35 1227.59 L 1261.18 1214.98 C 1307.6 1185.28 1352.23 1155.82 1393.38 1118.67 C 1417.9 1096.53 1440.05 1071.44 1463.17 1048.01 z" fill="rgb(68,109,156)" transform="translate(0,0)"></path>
<path d="M 1321.3 1216.37 C 1331.6 1219.88 1326.43 1219.81 1329.77 1227.28 C 1333.14 1228.61 1339.07 1226.38 1338.77 1232.99 C 1338.47 1239.56 1331.88 1236.54 1329.56 1237.31 C 1328.46 1237.68 1327.64 1244.99 1326.13 1248.19 C 1325.54 1248.07 1324.95 1247.94 1324.35 1247.81 C 1315.23 1246.76 1320.02 1243.32 1317.54 1237.45 C 1317.44 1237.23 1316.42 1237.03 1316.02 1237.01 C 1313.43 1236.91 1311.77 1237.01 1309.8 1235.18 C 1308.86 1234.33 1308.29 1232.73 1308.3 1231.53 C 1308.31 1228.71 1310.69 1226.61 1313.49 1227.18 C 1314.55 1227.4 1316.42 1227.77 1317.37 1226.94 C 1317.91 1226.46 1318.01 1225.22 1318.07 1224.55 C 1317.95 1221.69 1318.71 1219.48 1320.54 1217.31 L 1321.3 1216.37 z" fill="rgb(255,255,255)" transform="translate(0,0)"></path>
<path d="M 622.694 628.501 C 630.66 630.705 637.913 632.556 645.795 635.274 C 671.581 644.877 683.7 652.243 705.489 668.35 C 712.511 674.393 726.701 686.201 732.42 693.043 C 766.149 725.11 795.388 771.11 811.998 814.307 C 797.699 800.305 784.897 788.418 768.522 776.629 C 725.427 745.074 674.853 725.295 621.785 719.241 C 620.074 719.147 618.362 719.092 616.649 719.076 C 610.692 719.079 606.865 719.168 600.951 719.789 C 600.619 683.832 605.659 660.531 622.694 628.501 z" fill="url(#Gradient2)" transform="translate(0,0)"></path>
<path d="M 622.694 628.501 C 630.66 630.705 637.913 632.556 645.795 635.274 C 671.581 644.877 683.7 652.243 705.489 668.35 C 701.432 671.96 699.349 672.905 694.758 675.683 C 671.915 689.505 641.749 701.416 621.785 719.241 C 620.074 719.147 618.362 719.092 616.649 719.076 C 610.692 719.079 606.865 719.168 600.951 719.789 C 600.619 683.832 605.659 660.531 622.694 628.501 z" fill="rgb(255,255,255)" transform="translate(0,0)"></path>
<path d="M 622.694 628.501 C 630.66 630.705 637.913 632.556 645.795 635.274 C 632.192 651.95 618.978 697.272 616.649 719.076 C 610.692 719.079 606.865 719.168 600.951 719.789 C 600.619 683.832 605.659 660.531 622.694 628.501 z" fill="rgb(205,213,224)" transform="translate(0,0)"></path>
<path d="M 732.42 693.043 C 766.149 725.11 795.388 771.11 811.998 814.307 C 797.699 800.305 784.897 788.418 768.522 776.629 C 770.816 768.671 772.482 759.723 773.571 751.508 C 761.341 735.177 743.646 716.575 732.184 699.422 C 730.773 697.31 731.775 695.269 732.42 693.043 z" fill="rgb(137,159,192)" transform="translate(0,0)"></path>
<path d="M 1300.08 712.03 C 1331.45 672.605 1377.92 639.754 1427.23 628.038 C 1442.94 658.684 1450.57 684.375 1449.25 719.345 C 1398.49 717.802 1358.76 732.794 1314.7 755.374 C 1302.92 762.95 1292.6 769.564 1281.09 777.792 C 1275.2 770.176 1272.06 764.102 1269.35 754.828 C 1278.37 740.774 1289.49 724.789 1300.08 712.03 z" fill="rgb(240,241,240)" transform="translate(0,0)"></path>
<path d="M 1269.35 754.828 C 1278.37 740.774 1289.49 724.789 1300.08 712.03 C 1305.02 723.712 1310.57 747.929 1314.7 755.374 C 1302.92 762.95 1292.6 769.564 1281.09 777.792 C 1275.2 770.176 1272.06 764.102 1269.35 754.828 z" fill="rgb(206,213,223)" transform="translate(0,0)"></path>
<path d="M 601.556 728.65 C 606.755 728.469 610.365 728.459 615.606 728.738 C 664.447 730.733 723.356 755.073 763.179 784.118 C 761.17 789.723 755.693 811.211 751.33 812.477 C 715.315 807.635 683.199 811.409 649.312 823.841 C 639.779 814.779 627.505 800.315 622.354 788.163 C 611.319 773.33 603.92 746.695 601.556 728.65 z" fill="url(#Gradient1)" transform="translate(0,0)"></path>
<path d="M 601.556 728.65 C 606.755 728.469 610.365 728.459 615.606 728.738 C 615.951 744.166 617.778 757.793 620.131 772.989 C 620.901 777.961 622.785 783.466 622.354 788.163 C 611.319 773.33 603.92 746.695 601.556 728.65 z" fill="rgb(206,213,223)" transform="translate(0,0)"></path>
<path d="M 1318.43 764.309 C 1357.04 742.399 1403.46 727.651 1447.99 728.424 C 1446.07 741.113 1443.23 751.342 1439.37 763.532 C 1429.97 786.117 1418.94 804.537 1401.39 821.947 C 1365.58 812.342 1338.01 806.894 1300.25 812.327 C 1294.16 803.465 1290.91 795.494 1285.95 786.337 C 1296.5 778.584 1307.33 771.236 1318.43 764.309 z" fill="rgb(206,213,223)" transform="translate(0,0)"></path>
<path d="M 1318.43 764.309 C 1357.04 742.399 1403.46 727.651 1447.99 728.424 C 1446.07 741.113 1443.23 751.342 1439.37 763.532 C 1406.97 766.182 1374.59 770.095 1342.14 772.404 C 1335.37 772.886 1328.53 773.562 1321.8 774.446 L 1318.43 764.309 z" fill="rgb(240,241,240)" transform="translate(0,0)"></path>
<path d="M 1279.57 555.201 C 1304.59 552.831 1320.8 552.997 1345.15 559.985 L 1347.45 560.95 C 1346.83 563.604 1327.19 578.785 1323.97 581.777 C 1315.03 590.14 1306.74 599.181 1299.19 608.819 C 1274.1 640.909 1258.26 674.183 1243.49 711.828 C 1238.07 727.488 1233.16 743.319 1228.77 759.297 C 1223.64 760.577 1219.7 764.085 1214.11 766.034 C 1209.75 692.514 1225.58 608.708 1279.57 555.201 z" fill="rgb(206,213,223)" transform="translate(0,0)"></path>
<path d="M 1345.15 559.985 L 1347.45 560.95 C 1346.83 563.604 1327.19 578.785 1323.97 581.777 C 1315.03 590.14 1306.74 599.181 1299.19 608.819 C 1274.1 640.909 1258.26 674.183 1243.49 711.828 C 1242.65 710.261 1242.02 708.545 1241.58 706.978 C 1222.45 639.309 1275.17 566.817 1344.3 560.269 C 1344.59 560.174 1344.87 560.08 1345.15 559.985 z" fill="rgb(240,241,240)" transform="translate(0,0)"></path>
<path d="M 689.925 565.95 C 695.651 570.252 701.714 574.618 707.513 578.839 C 725.616 591.71 746.138 615.038 757.782 634.034 C 769.937 650.117 782.09 677.374 790.7 695.755 C 776.018 696.209 762.05 695.151 748.145 695.371 C 738.67 685.01 723.682 671.489 713.046 662.851 C 692.968 646.934 675.853 637.359 652.721 627.317 C 645.581 624.12 636.279 621.088 628.742 619.139 C 636.728 607.411 649.138 593.364 660.26 584.574 C 669.416 577.27 679.367 571.022 689.925 565.95 z" fill="rgb(255,255,255)" transform="translate(0,0)"></path>
<path d="M 757.782 634.034 C 769.937 650.117 782.09 677.374 790.7 695.755 C 776.018 696.209 762.05 695.151 748.145 695.371 C 738.67 685.01 723.682 671.489 713.046 662.851 C 726.375 653.169 747.315 644.818 757.782 634.034 z" fill="rgb(240,241,240)" transform="translate(0,0)"></path>
<path d="M 689.925 565.95 C 695.651 570.252 701.714 574.618 707.513 578.839 C 699.441 584.534 691.747 589.136 683.868 595.442 L 676.941 600.85 C 668.297 607.602 657.475 617.386 652.721 627.317 C 645.581 624.12 636.279 621.088 628.742 619.139 C 636.728 607.411 649.138 593.364 660.26 584.574 C 669.416 577.27 679.367 571.022 689.925 565.95 z" fill="rgb(206,213,223)" transform="translate(0,0)"></path>
<path d="M 1359.41 565.904 C 1387.34 579.61 1402.93 594.84 1421.5 619.326 C 1366.34 635.11 1334.89 659.476 1297.45 700.887 C 1292.89 692.264 1282.34 669.251 1274.83 664.353 C 1296.95 623.779 1320.16 591.61 1359.41 565.904 z" fill="rgb(240,241,240)" transform="translate(0,0)"></path>
<path d="M 838.363 1542.25 C 876.748 1579.1 904.423 1592.85 953.521 1610.51 C 946.586 1634.93 939.723 1661.77 932.339 1685.76 C 917.657 1682.23 908.474 1681.35 893.165 1681.51 C 888.963 1673.16 886.403 1667.29 883.008 1658.57 C 880.656 1651.07 876.392 1642.4 873.529 1634.85 C 866.481 1616.26 858.147 1597.76 851.359 1579.13 L 850.679 1577.31 C 846.022 1566.64 841.664 1553.52 838.363 1542.25 z" fill="rgb(68,109,156)" transform="translate(0,0)"></path>
<path d="M 850.679 1577.31 C 857.774 1577.99 878.755 1593.24 882.355 1599.74 C 872.993 1603.27 871.229 1603.32 876.493 1614.52 C 882.852 1628.04 887.001 1643.34 891.893 1657.58 C 888.848 1658.12 886.106 1658.21 883.008 1658.57 C 880.656 1651.07 876.392 1642.4 873.529 1634.85 C 866.481 1616.26 858.147 1597.76 851.359 1579.13 L 850.679 1577.31 z" fill="rgb(39,174,221)" transform="translate(0,0)"></path>
<path d="M 882.355 1599.74 C 884.941 1604.68 888.859 1609.1 890.884 1614.55 C 895.291 1626.41 900.693 1640.02 902.521 1652.49 C 903.143 1656.73 894.146 1657.55 891.893 1657.58 C 887.001 1643.34 882.852 1628.04 876.493 1614.52 C 871.229 1603.32 872.993 1603.27 882.355 1599.74 z" fill="rgb(255,255,255)" transform="translate(0,0)"></path>
<path d="M 905.774 1615.7 C 917.995 1618.67 918.412 1628.34 911.841 1637.66 C 901.56 1635.64 899.314 1623.71 905.774 1615.7 z" fill="rgb(255,255,255)" transform="translate(0,0)"></path>
<path d="M 288.474 532.456 C 292.816 534.687 304.677 545.767 308.951 549.437 C 327.224 565.132 343.486 582.969 360.066 600.303 C 395.987 637.861 428.825 676.395 457.555 719.747 C 463.532 728.766 475.554 744.884 479.462 754.342 C 473.136 751.338 439.125 720.426 432.717 714.581 C 390.104 675.709 343.101 634.806 303.039 593.438 C 297.433 573.297 292.575 552.956 288.474 532.456 z" fill="rgb(68,109,156)" transform="translate(0,0)"></path>
<path d="M 1210.71 1543.06 L 1210.83 1543.13 C 1211.68 1545.78 1163.86 1666.08 1158.64 1682.13 C 1142.58 1680.72 1132.83 1681.21 1116.91 1684.19 L 1113.24 1670.65 C 1107.35 1651.33 1102.1 1630.1 1096.6 1610.48 C 1152.41 1592.21 1167.44 1581.74 1210.71 1543.06 z" fill="rgb(68,109,156)" transform="translate(0,0)"></path>
<path d="M 1759.01 532.856 C 1759.38 536.572 1746.3 591.603 1743.54 594.94 C 1730.61 610.588 1710.45 628.403 1695.12 642.558 C 1654.2 680.172 1613.04 717.534 1571.66 754.643 C 1570.47 748.939 1581.44 736.52 1584.7 731.386 C 1631.91 657.162 1693.64 591.357 1759.01 532.856 z" fill="rgb(39,174,221)" transform="translate(0,0)"></path>
<path d="M 735.789 1331.08 C 736.777 1332.3 736.504 1345.77 736.662 1348.48 C 738.523 1380.49 755.608 1397.23 781.03 1413 C 773.706 1453.24 758.902 1505.16 748.414 1545.68 L 743.966 1561.6 C 738.85 1535.86 735.56 1506.23 731.981 1480 C 725.878 1434.8 719.361 1389.66 712.431 1344.58 C 722.212 1340.61 727.048 1336.99 735.789 1331.08 z" fill="rgb(68,109,156)" transform="translate(0,0)"></path>
<path d="M 1313.45 1329.83 C 1319.76 1333.4 1327.39 1339.24 1333.42 1343.59 C 1328.31 1378.2 1324.61 1413.3 1318.93 1447.82 C 1313.08 1483.34 1308.48 1518.66 1303.89 1554.36 L 1301.13 1553.55 C 1291.93 1513.29 1279.93 1472.88 1270.33 1432.66 C 1268.3 1424.13 1268.38 1420.4 1269.19 1411.77 C 1303.08 1389.98 1313.41 1370.6 1313.45 1329.83 z" fill="rgb(68,109,156)" transform="translate(0,0)"></path>
<path d="M 1205.02 778.655 C 1199.93 769.192 1194.55 760.59 1190.24 750.729 C 1165.51 694.11 1173.54 620.246 1224.24 580.354 C 1236.45 570.743 1248.46 565.425 1262.53 559.394 C 1243.44 583.927 1232.53 603.783 1221.29 632.63 C 1217.76 644.084 1215.02 653.788 1212.03 665.387 C 1207.41 689.606 1203.69 712.572 1203.69 737.287 C 1203.69 751.121 1204.66 764.798 1205.02 778.655 z" fill="rgb(206,213,223)" transform="translate(0,0)"></path>
<path d="M 1212.03 665.387 C 1211.82 655.955 1211.39 637.403 1221.29 632.63 C 1217.76 644.084 1215.02 653.788 1212.03 665.387 z" fill="rgb(165,181,206)" transform="translate(0,0)"></path>
<path d="M 1942.26 399.584 L 1944.02 400.871 C 1929.24 413.421 1910.26 435.572 1895.76 449.677 L 1843.16 499.837 C 1814.46 527.7 1786.34 555.833 1757.25 583.301 C 1762.42 566.971 1769.68 530.959 1774.52 519.491 C 1828.39 476.736 1884.37 436.717 1942.26 399.584 z" fill="rgb(255,255,255)" transform="translate(0,0)"></path>
<path d="M 784.153 1445.65 C 785.07 1447.27 784.965 1446.88 785.504 1448.55 C 792.247 1468.94 802.417 1487.92 811.065 1507.52 C 814.068 1514.33 816.368 1521.42 818.825 1528.43 C 821.26 1535.38 823.613 1542.36 825.983 1549.33 C 809.543 1555.98 793.209 1562.88 776.989 1570.04 C 767.375 1574.33 757.506 1579.08 747.937 1583.55 C 758.382 1539.88 772.031 1489 784.153 1445.65 z" fill="rgb(68,109,156)" transform="translate(0,0)"></path>
<path d="M 112.714 403.701 C 165.615 436.07 224.285 481.815 274.611 519.815 C 278.016 539.155 284.189 560.093 288.052 580.448 C 267.817 559.161 246.482 538.722 225.105 518.568 C 186.084 481.777 149.224 441.612 109.688 405.536 L 112.714 403.701 z" fill="rgb(39,174,221)" transform="translate(0,0)"></path>
<path d="M 1263.37 1445.79 C 1268.32 1454.27 1295.66 1569.01 1298.06 1583.26 C 1290.27 1580.17 1279.04 1574.25 1271.25 1570.43 C 1255.71 1563.22 1240.01 1556.35 1224.16 1549.84 C 1229.91 1534.8 1234.75 1518.36 1240.65 1503.58 C 1248.53 1483.86 1256.52 1466.06 1263.37 1445.79 z" fill="rgb(68,109,156)" transform="translate(0,0)"></path>
<path d="M 885.635 1695.32 C 905.242 1692.9 946.671 1693.31 951.899 1719.15 C 955.687 1737.87 930.51 1742.76 916.887 1744.91 C 905.387 1746.71 896.472 1746.77 884.916 1745.57 C 836.351 1740.54 834.788 1703.98 885.635 1695.32 z" fill="rgb(68,109,156)" transform="translate(0,0)"></path>
<path d="M 886.332 1703.35 C 912.431 1700.3 927.42 1727.09 892.033 1731.09 C 883.821 1731.14 864.032 1731.85 862.501 1719.8 C 860.888 1707.12 877.097 1704.71 886.332 1703.35 z" fill="rgb(255,255,255)" transform="translate(0,0)"></path>
<path d="M 657.94 830.231 C 688.147 820.153 720.655 817.281 752.186 821.996 L 756.007 822.689 C 769.411 825.001 782.893 827.622 795.961 831.454 C 788.788 841.596 779.039 855.5 772.662 866.128 C 767.549 866.546 757.277 867.386 752.301 866.42 C 715.627 863.428 686.8 853.393 657.94 830.231 z" fill="rgb(206,213,223)" transform="translate(0,0)"></path>
<path d="M 752.186 821.996 L 756.007 822.689 C 769.411 825.001 782.893 827.622 795.961 831.454 C 788.788 841.596 779.039 855.5 772.662 866.128 C 767.549 866.546 757.277 867.386 752.301 866.42 C 754.242 861.799 751.931 830.216 752.186 821.996 z" fill="rgb(137,159,192)" transform="translate(0,0)"></path>
<path d="M 1137.28 1694.37 C 1156.24 1692.96 1196.7 1695.28 1200.34 1720.34 C 1203.04 1738.87 1178.03 1743.58 1164.17 1744.87 C 1090.26 1755.35 1073.53 1702.45 1137.28 1694.37 z" fill="rgb(68,109,156)" transform="translate(0,0)"></path>
<path d="M 1131.86 1703.13 C 1142.55 1702.59 1157.9 1702.09 1161.75 1714.56 C 1165.21 1725.77 1152.46 1728.93 1145 1730.98 C 1136.38 1731.13 1105.95 1731.97 1114.58 1713.29 C 1117.13 1707.77 1126.13 1704.61 1131.86 1703.13 z" fill="rgb(255,255,255)" transform="translate(0,0)"></path>
<path d="M 699.993 561.985 C 725.024 555.344 744.327 551.509 770.501 555.256 C 774.296 555.8 774.737 557.948 776.759 560.74 L 777.296 561.471 C 788.212 571.609 800.554 592.499 807.28 605.742 C 796.787 617.889 781.382 622.467 767.513 631.005 C 752.029 609.851 739.914 593.046 719.415 575.572 C 714.582 571.918 709.238 567.281 703.964 564.247 L 699.993 561.985 z" fill="rgb(255,255,255)" transform="translate(0,0)"></path>
<path d="M 699.993 561.985 C 725.024 555.344 744.327 551.509 770.501 555.256 C 774.296 555.8 774.737 557.948 776.759 560.74 L 777.296 561.471 C 751.453 559.94 742.694 565.004 719.415 575.572 C 714.582 571.918 709.238 567.281 703.964 564.247 L 699.993 561.985 z" fill="rgb(206,213,223)" transform="translate(0,0)"></path>
<path d="M 1236.25 1211.48 C 1253.26 1222.11 1293.17 1297.7 1297.15 1320.3 C 1301.81 1346.72 1300.12 1356.26 1286.31 1378.84 C 1281.34 1385.09 1277.02 1388.46 1270.65 1393.05 C 1269.13 1331.22 1253.6 1270.73 1236.25 1211.48 z" fill="rgb(68,109,156)" transform="translate(0,0)"></path>
<path d="M 812.776 1210.92 C 814.521 1212.9 807.394 1233.69 806.355 1237.54 C 792.925 1287.23 779.677 1341.38 779.685 1393.03 C 773.295 1389.14 769.441 1385.95 764.479 1380.44 C 757.125 1370.72 752.366 1361.34 750.806 1349.03 C 746.05 1311.53 789.795 1239.33 812.776 1210.92 z" fill="rgb(39,174,221)" transform="translate(0,0)"></path>
<path d="M 825.746 580.56 C 864.186 614.868 876.75 655.183 871.335 705.873 C 860.839 705.998 854.044 705.163 844.083 704.864 C 839.185 663.767 831.843 635.858 814.114 598.239 C 818.536 590.737 821.14 587.433 825.746 580.56 z" fill="rgb(206,213,223)" transform="translate(0,0)"></path>
<path d="M 807.28 605.742 C 820.86 630.618 830.605 672.035 833.476 700.222 C 831.442 705.126 827.317 701.654 821.486 701.095 C 815.106 700.483 809.09 699.23 802.54 698.799 C 794.837 682.312 788.059 666.783 779.268 650.617 C 776.109 644.809 769.706 635.455 767.513 631.005 C 781.382 622.467 796.787 617.889 807.28 605.742 z" fill="rgb(240,241,240)" transform="translate(0,0)"></path>
<path d="M 377.049 927.467 C 387.007 927.023 396.977 926.947 406.94 927.239 C 411.869 939.658 416.866 949.608 422.046 961.438 C 417.123 977.814 411.697 994.738 407.392 1011.26 C 405.807 1016.91 404.449 1022.6 402.804 1028.28 C 397.94 1019.77 393.399 1012 389.505 1002.92 C 388.479 1000.53 383.55 994.525 383.266 992.953 C 380.276 976.43 380.54 957.883 378.113 940.998 C 377.57 937.222 377.046 930.707 377.049 927.467 z" fill="rgb(239,196,151)" transform="translate(0,0)"></path>
<path d="M 1301.8 821.887 C 1333.29 817.629 1362.6 820.871 1392.94 829.477 C 1369.81 848.307 1351.87 854.173 1324.08 862.562 C 1314.51 847.89 1309.65 835.028 1301.8 821.887 z" fill="rgb(165,181,206)" transform="translate(0,0)"></path>
<path d="M 1274.83 664.353 C 1282.34 669.251 1292.89 692.264 1297.45 700.887 L 1296.25 702.23 C 1284.88 714.804 1271.51 732.239 1262.22 746.398 C 1260.46 749.28 1258.58 752.081 1256.57 754.792 C 1254.63 751.511 1256.9 753.049 1256.47 750.614 C 1253.73 749.576 1245.64 755.552 1241.27 750.176 C 1242.5 745.517 1244.4 739.711 1245.36 735.269 C 1253.88 712.108 1262.37 685.892 1274.83 664.353 z" fill="rgb(206,213,223)" transform="translate(0,0)"></path>
<path d="M 1245.36 735.269 C 1256.46 738.927 1250.2 743.736 1262.22 746.398 C 1260.46 749.28 1258.58 752.081 1256.57 754.792 C 1254.63 751.511 1256.9 753.049 1256.47 750.614 C 1253.73 749.576 1245.64 755.552 1241.27 750.176 C 1242.5 745.517 1244.4 739.711 1245.36 735.269 z" fill="rgb(165,181,206)" transform="translate(0,0)"></path>
<path d="M 1254.25 831.614 C 1270.26 827.913 1285.53 824.473 1301.8 821.887 C 1309.65 835.028 1314.51 847.89 1324.08 862.562 C 1319.66 863.285 1314.9 864.448 1310.5 864.902 L 1277.76 868.119 C 1269.95 855.171 1264.06 845.84 1255.36 833.262 L 1254.25 831.614 z" fill="rgb(137,159,192)" transform="translate(0,0)"></path>
<path d="M 790.7 695.755 C 797.999 712.909 804.212 730.505 809.302 748.439 C 809.706 749.893 810.245 751.434 810.717 752.876 C 804.778 752.9 798.807 753.104 792.943 752.043 L 791.024 751.725 C 790.824 751.432 790.624 751.139 790.425 750.846 C 777.959 728.958 764.876 713.718 748.145 695.371 C 762.05 695.151 776.018 696.209 790.7 695.755 z" fill="rgb(206,213,223)" transform="translate(0,0)"></path>
<path d="M 833.476 700.222 C 833.965 701.569 833.941 701.541 834.046 702.98 C 835.961 729.13 837.164 755.489 833.051 781.504 C 832.412 785.546 832.09 789.67 831.036 793.67 L 830.263 796.576 C 829.557 793.551 828.927 790.511 828.208 787.489 L 825.237 773.487 C 820.213 750.752 811.867 720.277 802.54 698.799 C 809.09 699.23 815.106 700.483 821.486 701.095 C 827.317 701.654 831.442 705.126 833.476 700.222 z" fill="rgb(165,181,206)" transform="translate(0,0)"></path>
<path d="M 1735.18 1200.9 C 1745.72 1224.42 1756.65 1251.77 1768.07 1274.53 C 1756.5 1267.06 1745.59 1258.17 1734.04 1250.52 C 1729.55 1247.54 1722.63 1243.33 1718.66 1240.06 C 1721.28 1234.52 1733.5 1205.85 1735.18 1200.9 z" fill="rgb(68,109,156)" transform="translate(0,0)"></path>
<path d="M 372.748 1051.91 C 373.037 1052.35 373.538 1053.03 373.724 1053.56 C 377.753 1064.89 383.998 1074.59 389.329 1085.29 C 378.457 1092.04 369.941 1097.66 360.045 1106 C 359.016 1104.93 358.789 1104.45 358.371 1102.85 C 355.25 1090.93 350.216 1083.19 343.553 1073.14 C 356.129 1065.71 362.721 1062.9 372.748 1051.91 z" fill="rgb(239,196,151)" transform="translate(0,0)"></path>
<path d="M 695.626 1288.87 L 744.271 1302.11 C 742.823 1306.9 741.666 1311.34 740.089 1316.15 C 736.875 1318.34 733.809 1320.12 730.552 1322.19 C 723.236 1326.26 715.883 1331.05 708.722 1335.41 C 704.53 1320.07 700.706 1303.78 695.626 1288.87 z" fill="rgb(68,109,156)" transform="translate(0,0)"></path>
<path d="M 773.036 1242.02 C 773.602 1242.63 774.213 1242.85 773.676 1243.73 C 764.046 1259.39 756.841 1276.35 748.379 1292.56 L 732.017 1288.74 C 731.488 1288.61 730.958 1288.48 730.428 1288.34 L 717.222 1285.1 C 714.144 1284.55 710.606 1283.65 707.572 1282.88 C 726.673 1269.26 752.4 1255.73 773.036 1242.02 z" fill="rgb(39,174,221)" transform="translate(0,0)"></path>
<path d="M 844.083 704.864 C 854.044 705.163 860.839 705.998 871.335 705.873 C 870.532 712.866 868.875 719.709 867.12 726.515 L 866.641 728.414 C 860.142 753.45 856.033 754.067 847.33 773.518 C 842.393 779.793 844.939 769.017 845.18 765.787 C 844.838 759.399 845.729 747.927 845.713 740.469 C 845.687 728.858 844.194 715.77 844.083 704.864 z" fill="rgb(165,181,206)" transform="translate(0,0)"></path>
<path d="M 845.18 765.787 C 846.268 769.513 845.75 769.973 847.33 773.518 C 842.393 779.793 844.939 769.017 845.18 765.787 z" fill="rgb(206,213,223)" transform="translate(0,0)"></path>
<path d="M 1350.43 1289.12 C 1351.5 1289.01 1353.24 1288.54 1353.92 1289.69 C 1353.92 1290.04 1337.92 1329.78 1336.3 1333.59 C 1330.82 1329.13 1326.48 1326.04 1320.41 1322.37 C 1317.38 1320.74 1314.33 1318.78 1311.15 1317.05 C 1309.11 1312.02 1307.26 1306.92 1305.09 1301.94 C 1316.19 1298.81 1326.59 1295.33 1338.02 1292.32 L 1339.98 1291.81 C 1343.48 1290.89 1346.91 1289.94 1350.43 1289.12 z" fill="rgb(68,109,156)" transform="translate(0,0)"></path>
<path d="M 1277.42 1245.64 C 1286.24 1248.81 1330.03 1275.03 1340.69 1281.25 C 1337.17 1282.38 1333.84 1283.38 1330.3 1284.44 C 1321.68 1286.56 1311.14 1290.29 1302.88 1293.48 C 1294.2 1278.04 1286.54 1261.57 1277.42 1245.64 z" fill="rgb(68,109,156)" transform="translate(0,0)"></path>
<path d="M 432.729 894.863 C 434.639 898.026 436.879 945.625 437.591 953.395 C 437.47 952.075 434.041 973.399 427.378 959.795 L 426.581 958.187 C 422.091 947.47 417.583 937.128 413.221 926.301 C 419.057 915.422 425.573 904.922 432.729 894.863 z" fill="rgb(239,196,151)" transform="translate(0,0)"></path>
<path d="M 763.179 784.118 C 778.276 796.177 794.509 809.142 806.236 824.577 C 789.29 820.583 771.414 814.351 753.953 812.998 C 752.618 812.895 752.569 812.96 751.33 812.477 C 755.693 811.211 761.17 789.723 763.179 784.118 z" fill="rgb(137,159,192)" transform="translate(0,0)"></path>
<path d="M 1300.25 812.327 C 1294.99 813.236 1289.81 813.89 1284.49 814.876 C 1273.31 816.948 1262.39 819.614 1251.45 822.698 C 1250.37 823.002 1248.05 823.279 1247.11 822.483 C 1244.78 820.223 1252.22 814.112 1253.69 812.713 C 1261.14 805.632 1269.57 798.993 1277.64 792.618 C 1280.35 790.449 1283.13 788.354 1285.95 786.337 C 1290.91 795.494 1294.16 803.465 1300.25 812.327 z" fill="rgb(137,159,192)" transform="translate(0,0)"></path>
<path d="M 1269.35 754.828 C 1272.06 764.102 1275.2 770.176 1281.09 777.792 C 1263.4 792.111 1253.99 798.889 1237.29 815.593 C 1244.5 797.709 1257.48 770.066 1269.35 754.828 z" fill="rgb(137,159,192)" transform="translate(0,0)"></path>
<path d="M 1228.35 811.13 C 1230.56 791.342 1234.61 770.576 1240.83 751.576 L 1241.27 750.176 C 1245.64 755.552 1253.73 749.576 1256.47 750.614 C 1256.9 753.049 1254.63 751.511 1256.57 754.792 C 1255.67 757.588 1249.34 768.42 1247.48 771.987 C 1240.71 784.967 1234.79 798.061 1228.35 811.13 z" fill="rgb(137,159,192)" transform="translate(0,0)"></path>
<path d="M 810.717 752.876 C 811.857 758.468 813.605 763.931 814.803 769.514 L 815.866 774.511 L 817.866 784.51 L 819.818 795.009 C 820.853 800.754 820.995 803.442 821.426 809.249 C 818.761 804.806 816.746 801.023 814.645 796.243 C 807.822 780.718 799.744 766.256 791.024 751.725 L 792.943 752.043 C 798.807 753.104 804.778 752.9 810.717 752.876 z" fill="rgb(137,159,192)" transform="translate(0,0)"></path>
<path d="M 787.624 559.115 C 805.182 566.948 809.606 568.591 825.746 580.56 C 821.14 587.433 818.536 590.737 814.114 598.239 C 803.824 582.266 800.406 575.022 787.624 559.115 z" fill="rgb(255,255,255)" transform="translate(0,0)"></path>
<path d="M 1214.11 766.034 C 1219.7 764.085 1223.64 760.577 1228.77 759.297 C 1225.55 773.003 1223.28 785.543 1219.46 799.369 C 1215.98 787.9 1214.79 778.064 1214.11 766.034 z" fill="rgb(137,159,192)" transform="translate(0,0)"></path>
<path d="M 1834.6 628.631 C 1843.56 635.506 1835.42 640.46 1829.74 648.428 L 1827.84 651.13 C 1827.47 651.654 1827.12 652.352 1826.44 652.336 C 1826.12 652.049 1826.25 652.217 1826.05 651.834 C 1826.1 647.201 1832.43 633.361 1834.6 628.631 z" fill="rgb(206,213,223)" transform="translate(0,0)"></path>
<path d="M 99.5555 396.054 L 102.382 397.603 C 105.808 399.437 109.506 401.5 112.714 403.701 L 109.688 405.536 C 105.997 402.434 102.981 399.418 99.5555 396.054 z" fill="rgb(34,129,181)" transform="translate(0,0)"></path>
<path d="M 540.702 1461.74 L 544.285 1462.73 C 543.575 1464.16 540.81 1469.89 539.531 1470.33 C 538.311 1469.42 540.374 1463.05 540.702 1461.74 z" fill="rgb(39,174,221)" transform="translate(0,0)"></path>
<path d="M 586.174 1054.48 C 584.152 1050.76 582.214 1046.71 580.322 1042.89 C 583.501 1046.58 585.981 1049.31 589.329 1052.83 L 586.174 1054.48 z" fill="rgb(68,109,156)" transform="translate(0,0)"></path>
<path d="M 1505.7 1466.46 L 1508.03 1465.87 C 1508.27 1466.87 1509.45 1470.52 1509.1 1471.46 C 1507.53 1472.65 1506.39 1468.22 1506.04 1467.34 L 1505.7 1466.46 z" fill="rgb(64,84,113)" transform="translate(0,0)"></path>
<path d="M 1942.26 399.584 C 1943.04 398.98 1947.07 395.467 1948.29 396.555 C 1948.27 397.941 1944.87 400.211 1944.02 400.871 L 1942.26 399.584 z" fill="rgb(165,181,206)" transform="translate(0,0)"></path>
<path d="M 1303.89 1554.36 C 1303.92 1555.47 1304.26 1557.82 1303.12 1558.43 C 1301.96 1557.97 1301.39 1554.47 1301.13 1553.55 L 1303.89 1554.36 z" fill="rgb(64,84,113)" transform="translate(0,0)"></path>
<metadata><recraft-signature>{"signed_by": "recraft", "signature_b64": "V4GirAdNlmlc2DqSO8raANoLemwh4NRljbY+PV6XIssJPIjl9tJ1cEJN4ZtM1Bd9UdVjQF+KAYOO+PtUVC1LDg==", "signing_algo": "Ed25519", "generation_timestamp": 1778553198, "identifier": "5730ab77-e48b-4055-a73e-14f4a9e1973a"}</recraft-signature></metadata></svg>