<svg xmlns="http://www.w3.org/2000/svg" height="1024" preserveAspectRatio="none" style="display: block;" version="1.1" viewBox="0 0 2048 2048" width="1024">
<defs>
	<linearGradient gradientUnits="userSpaceOnUse" id="Gradient1" x1="707.94" x2="739.587" y1="848.021" y2="892.308">
		<stop class="stop0" offset="0" stop-color="rgb(10,13,21)" stop-opacity="1"></stop>
		<stop class="stop1" offset="1" stop-color="rgb(18,47,84)" stop-opacity="1"></stop>
	</linearGradient>
	<linearGradient gradientUnits="userSpaceOnUse" id="Gradient2" x1="1003.69" x2="1067.8" y1="1576.97" y2="1571.37">
		<stop class="stop0" offset="0" stop-color="rgb(0,0,0)" stop-opacity="1"></stop>
		<stop class="stop1" offset="1" stop-color="rgb(20,45,78)" stop-opacity="1"></stop>
	</linearGradient>
</defs>

<path d="M 1080.55 1009.79 C 1170.11 958.367 1236.39 872.207 1257.93 770.895 C 1266.21 731.92 1268.59 699.047 1282.98 660.949 C 1306.13 599.605 1344.43 554.932 1405.43 528.955 C 1433.15 516.784 1461.6 507.853 1488.79 494.133 C 1609.63 433.162 1743.96 344.72 1805.42 219.627 C 1814.32 201.5 1819.49 181.88 1822.38 162.215 C 1823.84 152.247 1821.53 134.306 1824.92 126.127 C 1826.64 121.955 1830.06 118.713 1834.32 117.21 C 1869.92 104.44 1899.95 153.081 1907.39 181.626 C 1924.71 248.049 1909.55 305.671 1877.39 364.205 C 1881.51 363.224 1886.5 362.618 1890.71 362.749 C 1904.38 363.176 1917.23 369.322 1926.14 379.688 C 1947.56 404.191 1945.12 442.821 1931.51 470.441 C 1919.05 495.736 1898.77 521.168 1877.57 539.659 C 1901.08 548.782 1919.28 564.419 1923.96 590.007 C 1934.57 647.932 1877.51 690.598 1835.05 716.843 C 1844.6 727.156 1849.65 740.457 1851.48 754.274 C 1854.7 778.532 1848.2 803.076 1833.41 822.567 C 1814.44 847.09 1786.8 859.586 1756.54 863.484 C 1759.87 874.339 1761.45 881.216 1761.33 892.79 C 1761.09 915.565 1751.72 937.291 1735.31 953.092 C 1713.24 974.708 1689.19 982.347 1659.04 982.045 C 1658.46 1009.99 1645.85 1032.47 1623.54 1049.25 C 1598.92 1067.77 1570.9 1072.03 1540.9 1067.65 C 1526.74 1109.71 1478.79 1124.66 1438.89 1112.38 C 1443.65 1118.16 1445.88 1121.56 1449.9 1127.95 C 1471.19 1118.66 1508.6 1112.58 1531.83 1110.65 C 1584.49 1106.58 1638.63 1122.23 1678.95 1156.5 C 1728.13 1198.31 1743.71 1272.33 1698.22 1323.09 C 1703.88 1322.89 1709.07 1322.73 1714.74 1323.12 C 1772.84 1327.01 1802.17 1388.1 1777.44 1438.55 C 1771.99 1449.65 1766.12 1456.85 1758.35 1466.4 C 1888.28 1514.06 1828.19 1703.91 1688.15 1660.93 C 1695.64 1684.7 1696.91 1701.46 1691.61 1725.55 C 1704.23 1721.18 1716.23 1719.37 1729.51 1721.48 C 1747.64 1724.35 1763.86 1734.39 1774.52 1749.34 C 1790.32 1771.61 1789.64 1794.77 1785.24 1820.36 C 1830.07 1803.48 1870.2 1818.05 1877.19 1869.94 C 1791.59 1871.02 1703.47 1869.79 1617.73 1869.87 L 1528.77 1870.09 C 1514.72 1870.14 1491.77 1870.84 1478.49 1869.59 C 1477.24 1873.8 1475.75 1882.84 1471.46 1885.23 C 1453.82 1895.05 1430.77 1897 1410.68 1898.58 C 1387.52 1900.41 1363.59 1899.57 1340.54 1896.3 C 1308.54 1891.76 1312.36 1883.37 1316.75 1857.61 C 1303.45 1859.47 1246.71 1858.07 1230.04 1858.1 C 1218.27 1879.13 1076.87 1881.73 1075.87 1858.08 C 1074.58 1827.8 1095.71 1785.68 1118.89 1763.35 C 1105.5 1738.51 1119.97 1724.17 1133.1 1704.71 C 1138.66 1696.45 1143.73 1687.87 1148.27 1679 C 1162.77 1650.17 1169.13 1625.82 1169.49 1594.92 C 1170.09 1542.86 1145.45 1528.79 1108.88 1499.33 C 1094.02 1487.36 1081.64 1464.15 1075.42 1445.16 C 1073.44 1440.56 1074.39 1437.84 1071.51 1433.31 C 1067.95 1431.57 1068.73 1432.21 1063.99 1432.86 C 1060.58 1433.5 1058.92 1433.77 1055.5 1434.14 L 1043.88 1435.44 C 1037.73 1436.29 1031.6 1437.24 1025.48 1438.29 C 1019.26 1468.3 1017.75 1508.07 1027.46 1537.16 C 1037.27 1566.52 1041.12 1574.57 1030.98 1603.94 C 1018.82 1639.16 1024.01 1687.81 1026.78 1724.74 C 1028.47 1747.37 1061.03 1758.52 1036.08 1787.89 L 1034.96 1789.23 C 1034.73 1789.49 1034.49 1789.75 1034.26 1790.02 C 1039.3 1809.84 1041.8 1830.02 1027.7 1847.24 L 1027.06 1842.87 C 1003.5 1805.02 954.54 1791.14 912.576 1801.28 L 911.031 1802.73 L 909.537 1801.94 C 907.788 1803.98 904.421 1806.6 903.212 1808.3 C 902.174 1810.41 902.626 1810.44 901.119 1811.43 C 884.771 1829.95 878.61 1842.98 872.234 1866.59 C 844.423 1867.01 816.61 1867.17 788.797 1867.06 C 789.015 1851.12 788.924 1842.9 783.455 1827.94 L 781.927 1824.78 C 778.354 1820.57 775.409 1815.34 771.597 1811.12 C 749.187 1786.26 699.884 1771.87 669.174 1786.94 L 666.077 1789.86 C 646.617 1804.21 634.147 1845.53 629.299 1868.09 C 619.081 1868.06 557.21 1867.46 551.317 1868.6 C 569.893 1870.82 605.955 1868.09 627.582 1869.21 L 627.95 1870.11 L 627.188 1870.95 C 605.156 1872.92 559.857 1871.76 536.52 1871.69 L 377.944 1871.62 C 378.296 1865.52 378.874 1859.84 380.426 1853.9 C 384.275 1838.7 394.079 1825.7 407.626 1817.82 C 425.079 1807.84 442.231 1808.25 461.01 1813.41 C 459.234 1807.18 458.151 1802.05 457.942 1795.59 C 457.424 1774.86 465.101 1754.75 479.308 1739.64 C 508.96 1708.4 561.539 1705.64 596.392 1729.35 C 603.386 1734.11 608.502 1738.93 614.58 1744.83 C 614.299 1734.92 613.872 1726.67 616.104 1716.91 C 619.534 1701.67 628.932 1688.45 642.195 1680.2 C 659.107 1669.87 675.601 1670.25 694.006 1674.75 C 697.679 1654.1 701.391 1630.31 699.001 1609.52 C 697.615 1597.45 693.899 1587.67 693.941 1574.84 C 694.068 1535.61 701.915 1507.63 690.916 1468.59 C 680.378 1431.2 662.098 1399.39 652.55 1361.75 C 649.565 1349.98 647.461 1338.91 645.949 1326.87 C 645.324 1321.89 645.135 1306.45 644.076 1302.94 C 640.795 1292.06 634.367 1280.7 630.737 1269.61 C 619.131 1234.13 617.181 1204.53 618.293 1168.06 C 575.588 1181.36 547.698 1165.83 525.952 1129.2 C 507.379 1133.72 487.792 1131.21 470.953 1122.17 C 452.499 1112.27 442.496 1098.55 436.675 1078.77 C 392.439 1080.5 357.948 1054.19 351.254 1009.95 C 294.357 1000.27 251.616 953.724 273.753 895.035 C 242.73 884.394 218.123 869.398 205.081 837.73 C 194.394 811.782 198.915 791.271 209.427 766.536 C 169.415 741.772 107.208 690.112 135.024 631.836 C 141.931 617.365 158.756 610.258 173.903 606.547 C 139.908 571.294 90.2053 493.656 131.64 443.106 C 141.515 431.058 157.303 428.352 172.338 427.838 C 148.051 372.744 135.153 310.671 160.449 252.929 C 169.769 231.653 188.517 210.381 210.318 201.517 C 220.098 197.541 233.261 199.167 236.835 211.026 C 238.562 218.19 235.502 229.625 235.899 237.791 C 236.917 258.77 240.826 279.357 247.061 299.431 C 276.432 389.406 348.576 470.37 424.392 524.714 C 434.699 532.102 451.045 543.323 461.834 548.947 L 463.281 549.692 C 470.087 538.551 474.12 535.48 484.963 529.381 C 454.476 487.42 479.503 429.383 537.656 439.453 C 536.327 432.177 535.284 424.851 534.529 417.493 C 532.254 395.269 530.252 354.703 546.282 337.437 C 565.976 316.226 570.875 344.995 572.951 358.658 C 575.075 372.638 588.223 388.403 596.661 399.693 C 619.658 394.499 641.582 391.538 665.005 396.903 C 665.458 396.177 665.923 395.458 666.4 394.748 C 677.039 378.973 697.937 366.683 716.577 363.342 C 754.973 356.46 798.827 378.315 829.275 399.628 C 834.889 387.836 840.602 376.437 844.453 363.752 C 847.13 355.971 843.427 342.636 848.265 336.022 C 853.787 328.475 870.546 337.376 875.145 341.65 C 905.177 369.558 918.622 419.27 922.134 458.519 C 941.809 457.673 960.189 463.136 975.555 475.598 C 1006.9 501.017 1011.83 541.729 1015.87 579.006 C 1050.88 564.063 1086.44 571.337 1107.03 605.215 C 1116.58 620.995 1119.38 639.957 1114.8 657.826 C 1109.71 677.634 1098.06 690.24 1080.96 700.472 L 1088.38 703.257 C 1170.48 734.518 1184.9 843.561 1098.51 880.861 C 1137.96 920.867 1118.23 970.087 1073.34 994.759 C 1075.57 1000.28 1077.81 1004.51 1080.55 1009.79 z" fill="rgb(2,2,3)" transform="translate(0,0)"></path>
<path d="M 803.914 445.111 C 820.81 422.083 840.232 390.155 848.107 362.843 C 850.553 354.359 846.717 343.178 851.767 337.975 C 878.914 328.609 903.537 389.611 909.246 408.655 C 921.923 450.934 926.705 510.427 900.363 548.673 L 902.054 549.154 C 902.603 556.66 910.448 571.471 912.815 580.129 C 921.246 610.971 923.243 641.6 919.341 673.32 C 919.059 675.611 918.084 683.017 917.224 684.782 L 915.856 683.392 C 916.599 679.035 918.367 670.883 917.255 666.985 L 916.047 666.776 C 909.145 676.645 914.982 688.041 911.192 701.608 C 907.635 757.122 898.74 812.776 959.509 839.475 C 940.262 861.172 930.912 883.47 932.641 912.938 C 933.949 938.144 945.305 961.774 964.17 978.542 C 983.854 996.315 1009.86 1005.43 1036.33 1003.83 C 1049.64 1002.95 1058.52 1000.36 1070.84 995.736 C 1073.16 1001.29 1075.05 1006.1 1078.05 1011.34 C 1053.63 1024.63 1029.39 1036.98 1002.96 1045.84 C 998.38 1047.37 993.455 1046.81 989.501 1049.23 L 989.07 1051.08 C 1002.28 1054.72 1059.14 1025.72 1073.17 1018 C 1162.13 969.026 1231.45 888.094 1256.85 788.78 C 1260.57 774.223 1264.49 759.484 1266.46 744.603 C 1277 665.1 1308.08 585.466 1381.87 544.733 C 1413.31 527.373 1447.21 516.938 1479.78 501.907 C 1538.83 475.355 1586.91 445.959 1638.67 407.653 C 1654.34 415.312 1665.72 431.103 1671.39 447.158 C 1692.37 506.499 1645.11 560.711 1593.21 582.737 C 1583.44 586.882 1573.18 589.599 1563.42 594.024 C 1531.89 608.314 1519.89 631.956 1515.97 665.069 C 1486.11 659 1459.26 662.548 1433.36 679.515 C 1411.83 693.565 1396.72 715.558 1391.34 740.699 C 1386.2 765.602 1390.88 784.403 1399.71 807.548 C 1397.65 816.623 1395.53 825.75 1391.48 834.18 C 1372.42 873.817 1331.35 902.692 1288.46 909.935 C 1300.75 968.158 1261.96 1015.77 1205.66 1028.83 C 1198.82 1030.42 1189.51 1029.7 1183.53 1032.03 L 1183.99 1033.47 C 1188.21 1034.69 1188.61 1034.63 1193.07 1034.58 C 1189.48 1054.35 1182.5 1069.57 1165.44 1081.49 C 1152.46 1090.7 1136.33 1094.33 1120.66 1091.58 C 1114.59 1090.46 1110.23 1088.48 1104.74 1085.98 C 1093.47 1108.76 1080.23 1120.57 1055.81 1129.67 C 1047.8 1132.66 1028.37 1135.89 1020.44 1134.48 C 1015 1131.1 1016.86 1129.26 1012.77 1129.45 C 1012.26 1131.49 1012.28 1131.53 1013.72 1133.47 C 1038.89 1167.39 1074.99 1176.75 1112.64 1156.49 C 1116.01 1161.58 1119.71 1166.8 1124.53 1170.56 C 1158.93 1197.32 1197.21 1191.22 1224.64 1160.51 C 1243.1 1173.86 1258.13 1179.86 1281.43 1176.28 C 1305.15 1172.64 1321.72 1160.77 1335.49 1141.62 L 1336.21 1140.6 C 1373.07 1157.61 1410.49 1141.66 1434.04 1111.19 C 1485.41 1174.16 1497.85 1258.75 1470.6 1334.23 C 1452.99 1383.02 1421.87 1444.47 1460.72 1490.41 C 1477.5 1510.25 1500.07 1520.28 1494.9 1550.98 C 1489.44 1583.4 1475.59 1601.91 1474.03 1636.62 C 1473.26 1654.22 1475.27 1671.82 1480 1688.79 C 1489.35 1721.78 1510.8 1750.03 1483.96 1778.6 C 1492.72 1800.7 1494.76 1812.63 1476.18 1829.98 L 1477.21 1831.18 C 1476.92 1836.66 1478.6 1859.57 1479.29 1865.92 C 1481.47 1867 1481.58 1867.08 1483.91 1867.86 L 1484.04 1868.91 L 1478.49 1869.59 C 1477.24 1873.8 1475.75 1882.84 1471.46 1885.23 C 1453.82 1895.05 1430.77 1897 1410.68 1898.58 C 1387.52 1900.41 1363.59 1899.57 1340.54 1896.3 C 1308.54 1891.76 1312.36 1883.37 1316.75 1857.61 C 1303.45 1859.47 1246.71 1858.07 1230.04 1858.1 C 1218.27 1879.13 1076.87 1881.73 1075.87 1858.08 C 1074.58 1827.8 1095.71 1785.68 1118.89 1763.35 C 1105.5 1738.51 1119.97 1724.17 1133.1 1704.71 C 1138.66 1696.45 1143.73 1687.87 1148.27 1679 C 1162.77 1650.17 1169.13 1625.82 1169.49 1594.92 C 1170.09 1542.86 1145.45 1528.79 1108.88 1499.33 C 1094.02 1487.36 1081.64 1464.15 1075.42 1445.16 C 1073.44 1440.56 1074.39 1437.84 1071.51 1433.31 C 1067.95 1431.57 1068.73 1432.21 1063.99 1432.86 C 1060.58 1433.5 1058.92 1433.77 1055.5 1434.14 L 1043.88 1435.44 C 1037.73 1436.29 1031.6 1437.24 1025.48 1438.29 C 1019.26 1468.3 1017.75 1508.07 1027.46 1537.16 C 1037.27 1566.52 1041.12 1574.57 1030.98 1603.94 C 1018.82 1639.16 1024.01 1687.81 1026.78 1724.74 C 1028.47 1747.37 1061.03 1758.52 1036.08 1787.89 L 1034.96 1789.23 C 1034.73 1789.49 1034.49 1789.75 1034.26 1790.02 C 1039.3 1809.84 1041.8 1830.02 1027.7 1847.24 L 1027.06 1842.87 C 1003.5 1805.02 954.54 1791.14 912.576 1801.28 L 911.031 1802.73 L 909.537 1801.94 C 907.788 1803.98 904.421 1806.6 903.212 1808.3 C 902.174 1810.41 902.626 1810.44 901.119 1811.43 C 884.771 1829.95 878.61 1842.98 872.234 1866.59 C 844.423 1867.01 816.61 1867.17 788.797 1867.06 C 789.015 1851.12 788.924 1842.9 783.455 1827.94 L 781.927 1824.78 C 796.802 1810.46 798.269 1794.39 793.82 1774.81 C 817.319 1746.62 792.99 1743.19 790.04 1718.41 C 788.516 1705.61 790.38 1683.55 790.542 1669.78 C 790.824 1645.82 790.317 1620.09 793.975 1596.44 C 799.805 1576.66 812.853 1554.52 809.408 1532.87 C 804.849 1504.22 802.999 1492.3 810.656 1463.73 C 812.455 1458.28 814.408 1452.87 816.514 1447.53 L 818.513 1445.83 L 821.763 1446.34 C 824.798 1440.12 825.717 1434.88 829.797 1428.21 L 828.403 1427.63 C 826.461 1429.23 827.489 1428.6 825.352 1429.58 L 823.58 1427.43 L 823.787 1425.54 C 826.738 1425.68 826.834 1425.56 829.775 1425.22 C 819.234 1422.1 806.897 1419.89 795.951 1416.75 C 770.178 1409.35 749.254 1399.94 726.376 1386.33 C 697.384 1369.25 673.553 1343.34 656.014 1315.3 C 610.56 1242.65 614.022 1144.8 641.964 1066.29 C 658.762 1019.09 676.382 983.46 688.235 933.491 C 689.941 923.661 690.913 907.89 693.205 899.386 C 692.639 897.834 690.808 895.603 689.755 894.148 C 689.712 888.75 689.806 883.695 689.155 878.327 C 665.028 886.38 638.202 897.11 622.41 918.043 C 615.448 927.271 610.253 936.625 602.613 945.733 C 600.801 946.688 600.562 946.382 599.817 947.693 C 595.053 952.545 593.866 953.643 588.204 957.575 C 562.093 970.602 557.397 967.532 530.007 963.592 C 483.189 956.857 464.803 947.888 453.499 898.234 C 453.028 894.144 452.838 891.062 452.116 886.914 C 452.606 885.786 449.604 876.649 448.971 874.945 C 445.199 864.797 446.316 860.891 447.868 851.169 C 451.545 838.303 469.574 823.57 478.108 811.99 C 509.975 768.749 521.105 707.219 521.968 654.776 C 533.724 656.349 545.899 661.465 558.216 662.407 C 612.847 666.585 660.207 641.942 680.269 589.64 C 687.59 570.554 693.858 548.211 710.959 535.521 C 731.742 520.099 760.341 514.679 785.8 517.064 C 789.053 517.36 789.783 517.661 793.219 517.421 C 797.835 518.774 798.58 521.111 801.497 520.618 L 800.809 516.728 C 796.351 513.141 795.496 515.974 791.727 512.726 C 787.448 495.223 782.654 488.911 783.021 469.39 C 783.752 468.065 783.794 468.183 783.58 466.81 C 783.331 456.522 785.836 447.161 789.76 437.743 C 791.506 437.532 793.257 437.368 795.012 437.251 L 796.292 437.859 C 799.082 439.157 801.008 439.768 803.399 441.592 C 803.511 442.781 803.725 443.93 803.914 445.111 z" fill="rgb(232,231,231)" transform="translate(0,0)"></path>
<path d="M 1078.28 1444.67 L 1077.45 1440.97 C 1080.31 1437.92 1087.92 1437.42 1092.21 1437.03 C 1137.66 1432.83 1185.87 1413.33 1225.63 1391.5 C 1231.93 1408.73 1240.87 1428.95 1252.08 1443.57 L 1252.25 1447.41 C 1240.68 1471.42 1259.87 1499.26 1276.2 1515.55 C 1303.83 1543.11 1278.41 1569.57 1269.23 1599.41 C 1253.52 1650.48 1230.99 1705.63 1253.71 1758.42 C 1254.44 1760.14 1254.22 1766.37 1253.1 1768.01 C 1252.1 1770.02 1248.81 1770.54 1246.61 1771.1 C 1236.64 1783.86 1248.42 1789.44 1225.36 1800.88 L 1225.82 1803.53 C 1227.25 1806.11 1228.98 1809.02 1230.14 1811.7 L 1230.94 1814.17 C 1231.42 1821.65 1233.31 1828.19 1232.89 1836 C 1232.54 1842.52 1231.2 1848.57 1230.75 1854.96 L 1230.04 1858.1 C 1218.27 1879.13 1076.87 1881.73 1075.87 1858.08 C 1074.58 1827.8 1095.71 1785.68 1118.89 1763.35 C 1105.5 1738.51 1119.97 1724.17 1133.1 1704.71 C 1138.66 1696.45 1143.73 1687.87 1148.27 1679 C 1162.77 1650.17 1169.13 1625.82 1169.49 1594.92 C 1170.09 1542.86 1145.45 1528.79 1108.88 1499.33 C 1094.02 1487.36 1081.64 1464.15 1075.42 1445.16 L 1078.28 1444.67 z" fill="rgb(203,202,204)" transform="translate(0,0)"></path>
<path d="M 1122.73 1762.01 C 1149.08 1755.41 1171.31 1760.16 1195.11 1773.22 C 1212.34 1782.68 1214.66 1791.88 1225.36 1800.88 L 1225.82 1803.53 C 1227.25 1806.11 1228.98 1809.02 1230.14 1811.7 L 1230.94 1814.17 C 1231.42 1821.65 1233.31 1828.19 1232.89 1836 C 1232.54 1842.52 1231.2 1848.57 1230.75 1854.96 L 1230.04 1858.1 C 1218.27 1879.13 1076.87 1881.73 1075.87 1858.08 C 1074.58 1827.8 1095.71 1785.68 1118.89 1763.35 C 1121.25 1762.99 1120.5 1763.13 1122.73 1762.01 z" fill="rgb(16,41,73)" transform="translate(0,0)"></path>
<path d="M 1075.42 1445.16 L 1078.28 1444.67 C 1095.5 1487.87 1110.17 1496.16 1144.28 1523.67 C 1185.15 1556.62 1175.47 1625.22 1156.8 1668.51 C 1151.96 1679.72 1146.27 1690.55 1139.78 1700.9 C 1127.09 1721.49 1107.57 1736.95 1122.73 1762.01 C 1120.5 1763.13 1121.25 1762.99 1118.89 1763.35 C 1105.5 1738.51 1119.97 1724.17 1133.1 1704.71 C 1138.66 1696.45 1143.73 1687.87 1148.27 1679 C 1162.77 1650.17 1169.13 1625.82 1169.49 1594.92 C 1170.09 1542.86 1145.45 1528.79 1108.88 1499.33 C 1094.02 1487.36 1081.64 1464.15 1075.42 1445.16 z" fill="rgb(2,2,3)" transform="translate(0,0)"></path>
<path d="M 829.797 1428.21 C 844.666 1431.78 856.565 1432.4 871.527 1433.71 C 886.163 1462.95 904.944 1505.64 909.356 1537.82 C 911.582 1554.05 906.567 1576.6 909.691 1594.2 C 914.757 1622.73 921.426 1649.4 919.85 1678.71 C 918.946 1695.52 917.396 1712.18 913.465 1728.64 C 907.917 1757.19 895.296 1774.54 909.537 1801.94 C 907.788 1803.98 904.421 1806.6 903.212 1808.3 C 902.174 1810.41 902.626 1810.44 901.119 1811.43 C 884.771 1829.95 878.61 1842.98 872.234 1866.59 C 844.423 1867.01 816.61 1867.17 788.797 1867.06 C 789.015 1851.12 788.924 1842.9 783.455 1827.94 L 781.927 1824.78 C 796.802 1810.46 798.269 1794.39 793.82 1774.81 C 817.319 1746.62 792.99 1743.19 790.04 1718.41 C 788.516 1705.61 790.38 1683.55 790.542 1669.78 C 790.824 1645.82 790.317 1620.09 793.975 1596.44 C 799.805 1576.66 812.853 1554.52 809.408 1532.87 C 804.849 1504.22 802.999 1492.3 810.656 1463.73 C 812.455 1458.28 814.408 1452.87 816.514 1447.53 L 818.513 1445.83 L 821.763 1446.34 C 824.798 1440.12 825.717 1434.88 829.797 1428.21 z" fill="rgb(255,255,255)" transform="translate(0,0)"></path>
<path d="M 803.887 1739.67 C 832.351 1748.12 846.465 1768.3 843.872 1798.46 C 842.787 1811.08 838.076 1822.17 833.5 1833.89 C 856.153 1814.99 868.493 1801.04 901.119 1811.43 C 884.771 1829.95 878.61 1842.98 872.234 1866.59 C 844.423 1867.01 816.61 1867.17 788.797 1867.06 C 789.015 1851.12 788.924 1842.9 783.455 1827.94 C 800.664 1812.51 800.66 1797.4 797.675 1776.12 C 808.063 1761.95 808.937 1755.98 803.887 1739.67 z" fill="rgb(75,152,206)" transform="translate(0,0)"></path>
<path d="M 816.514 1447.53 L 818.513 1445.83 L 821.763 1446.34 C 811.381 1469.67 806.435 1488.97 810.562 1514.38 C 812.522 1526.45 813.994 1537.54 812.534 1549.81 C 810.468 1567.17 800.777 1581.47 797.278 1598.14 C 794.546 1611.15 791.384 1717.05 795.106 1725.49 C 796.767 1729.25 799.754 1732.98 802.092 1736.38 C 841.252 1746.86 854.702 1778.23 844.245 1815.21 C 843.662 1817.34 843.006 1819.46 842.277 1821.54 C 862.223 1804.97 878.231 1800.93 903.212 1808.3 C 902.174 1810.41 902.626 1810.44 901.119 1811.43 C 868.493 1801.04 856.153 1814.99 833.5 1833.89 C 838.076 1822.17 842.787 1811.08 843.872 1798.46 C 846.465 1768.3 832.351 1748.12 803.887 1739.67 C 808.937 1755.98 808.063 1761.95 797.675 1776.12 C 800.66 1797.4 800.664 1812.51 783.455 1827.94 L 781.927 1824.78 C 796.802 1810.46 798.269 1794.39 793.82 1774.81 C 817.319 1746.62 792.99 1743.19 790.04 1718.41 C 788.516 1705.61 790.38 1683.55 790.542 1669.78 C 790.824 1645.82 790.317 1620.09 793.975 1596.44 C 799.805 1576.66 812.853 1554.52 809.408 1532.87 C 804.849 1504.22 802.999 1492.3 810.656 1463.73 C 812.455 1458.28 814.408 1452.87 816.514 1447.53 z" fill="rgb(2,2,3)" transform="translate(0,0)"></path>
<path d="M 1255.59 1444.73 C 1256.57 1441.78 1256.64 1440.54 1259.15 1438.75 C 1263.41 1439.64 1265.38 1444.68 1267.45 1448.36 L 1268.4 1443.69 C 1278.75 1460.37 1288.62 1473.99 1303.91 1486.5 C 1325.33 1503.79 1350.83 1514.19 1364.48 1539.56 C 1373.72 1556.75 1376.66 1573.46 1381.42 1591.4 C 1394.03 1638.94 1385.05 1681.92 1366.46 1726.11 C 1362.95 1734.46 1357.97 1743.22 1355.7 1751.98 C 1353.19 1763.26 1354.55 1772.54 1362.35 1781.14 L 1359.15 1782.77 C 1336.56 1797.39 1324.18 1830.32 1318.06 1855.33 C 1313.71 1855.29 1308.75 1855.12 1304.45 1855.23 C 1308.4 1855.78 1312.35 1856.24 1316.32 1856.6 L 1316.75 1857.61 C 1303.45 1859.47 1246.71 1858.07 1230.04 1858.1 L 1230.75 1854.96 C 1231.2 1848.57 1232.54 1842.52 1232.89 1836 C 1233.31 1828.19 1231.42 1821.65 1230.94 1814.17 L 1230.14 1811.7 C 1228.98 1809.02 1227.25 1806.11 1225.82 1803.53 L 1225.36 1800.88 C 1248.42 1789.44 1236.64 1783.86 1246.61 1771.1 C 1248.81 1770.54 1252.1 1770.02 1253.1 1768.01 C 1254.22 1766.37 1254.44 1760.14 1253.71 1758.42 C 1230.99 1705.63 1253.52 1650.48 1269.23 1599.41 C 1278.41 1569.57 1303.83 1543.11 1276.2 1515.55 C 1259.87 1499.26 1240.68 1471.42 1252.25 1447.41 L 1255.59 1444.73 z" fill="rgb(255,255,255)" transform="translate(0,0)"></path>
<path d="M 1267.45 1448.36 L 1268.4 1443.69 C 1278.75 1460.37 1288.62 1473.99 1303.91 1486.5 C 1325.33 1503.79 1350.83 1514.19 1364.48 1539.56 C 1373.72 1556.75 1376.66 1573.46 1381.42 1591.4 C 1394.03 1638.94 1385.05 1681.92 1366.46 1726.11 C 1362.95 1734.46 1357.97 1743.22 1355.7 1751.98 C 1353.19 1763.26 1354.55 1772.54 1362.35 1781.14 L 1359.15 1782.77 C 1336.56 1797.39 1324.18 1830.32 1318.06 1855.33 C 1313.71 1855.29 1308.75 1855.12 1304.45 1855.23 C 1308.4 1855.78 1312.35 1856.24 1316.32 1856.6 L 1316.75 1857.61 C 1303.45 1859.47 1246.71 1858.07 1230.04 1858.1 L 1230.75 1854.96 C 1231.2 1848.57 1232.54 1842.52 1232.89 1836 C 1233.31 1828.19 1231.42 1821.65 1230.94 1814.17 L 1230.14 1811.7 C 1243.62 1804.9 1256.13 1802.3 1269.7 1810.66 C 1278.73 1787.02 1291.04 1779.74 1315.23 1778.21 C 1287.44 1737.4 1309.29 1681.98 1357.55 1670.45 C 1365.22 1668.62 1373.42 1667.76 1381.27 1666.7 C 1386.02 1632.14 1382.69 1616.94 1376.51 1585.63 C 1365.98 1532.37 1346.48 1518.99 1303.33 1490.52 C 1291.38 1482.63 1275.77 1461.41 1267.45 1448.36 z" fill="rgb(2,2,3)" transform="translate(0,0)"></path>
<path d="M 1286.01 1855.02 C 1265.01 1829.66 1266.76 1794.03 1301.62 1783.18 C 1315.62 1778.82 1318.85 1785.24 1323.17 1784.69 C 1326.26 1778 1323.54 1767.72 1328.66 1757.92 C 1336.12 1743.65 1345.48 1737.93 1359.83 1732.59 C 1352.13 1749.8 1346.07 1766.23 1359.15 1782.77 C 1336.56 1797.39 1324.18 1830.32 1318.06 1855.33 C 1313.71 1855.29 1308.75 1855.12 1304.45 1855.23 L 1286.01 1855.02 z" fill="rgb(162,162,191)" transform="translate(0,0)"></path>
<path d="M 1230.94 1814.17 C 1241.24 1809.58 1250.38 1806.44 1261.51 1809.97 C 1262.59 1810.31 1268.58 1813.51 1268.48 1814.62 C 1267.03 1830.01 1272.7 1842.66 1281.71 1854.92 C 1264.73 1854.66 1247.74 1854.67 1230.75 1854.96 C 1231.2 1848.57 1232.54 1842.52 1232.89 1836 C 1233.31 1828.19 1231.42 1821.65 1230.94 1814.17 z" fill="rgb(162,162,191)" transform="translate(0,0)"></path>
<path d="M 1372.56 1671.34 C 1375.65 1670.97 1376.68 1670.61 1379.64 1671.69 C 1381.28 1679.08 1364.84 1720.21 1361.03 1729.35 C 1330.7 1738.65 1327.43 1750.07 1320.2 1777.32 L 1318.65 1777.51 C 1312.83 1768.86 1308.61 1759.24 1307.11 1748.87 C 1304.58 1730.86 1309.37 1712.58 1320.42 1698.13 C 1334.18 1680.08 1351.01 1674.31 1372.56 1671.34 z" fill="rgb(162,162,191)" transform="translate(0,0)"></path>
<path d="M 1252.25 1447.41 L 1255.59 1444.73 C 1251.43 1461.26 1250.74 1474.27 1259.99 1489.89 C 1274.31 1514.07 1298.73 1521.32 1290.37 1554.75 C 1286.69 1569.46 1280.05 1578.97 1275.54 1592.09 C 1263.92 1625.87 1251.18 1662.44 1247.87 1698.15 C 1246.7 1710.82 1247.58 1715.58 1248.68 1728.02 C 1249.86 1741.39 1263.87 1763.78 1253.63 1772.57 C 1254.36 1771.95 1250.96 1774.23 1251.72 1773.54 C 1238.85 1785.28 1249.58 1795.44 1225.82 1803.53 L 1225.36 1800.88 C 1248.42 1789.44 1236.64 1783.86 1246.61 1771.1 C 1248.81 1770.54 1252.1 1770.02 1253.1 1768.01 C 1254.22 1766.37 1254.44 1760.14 1253.71 1758.42 C 1230.99 1705.63 1253.52 1650.48 1269.23 1599.41 C 1278.41 1569.57 1303.83 1543.11 1276.2 1515.55 C 1259.87 1499.26 1240.68 1471.42 1252.25 1447.41 z" fill="rgb(2,2,3)" transform="translate(0,0)"></path>
<path d="M 1362.35 1781.14 C 1402.37 1768.18 1458.52 1790.45 1476.18 1829.98 L 1477.21 1831.18 C 1476.92 1836.66 1478.6 1859.57 1479.29 1865.92 C 1481.47 1867 1481.58 1867.08 1483.91 1867.86 L 1484.04 1868.91 L 1478.49 1869.59 C 1477.24 1873.8 1475.75 1882.84 1471.46 1885.23 C 1453.82 1895.05 1430.77 1897 1410.68 1898.58 C 1387.52 1900.41 1363.59 1899.57 1340.54 1896.3 C 1308.54 1891.76 1312.36 1883.37 1316.75 1857.61 L 1316.32 1856.6 C 1312.35 1856.24 1308.4 1855.78 1304.45 1855.23 C 1308.75 1855.12 1313.71 1855.29 1318.06 1855.33 C 1324.18 1830.32 1336.56 1797.39 1359.15 1782.77 L 1362.35 1781.14 z" fill="rgb(16,41,73)" transform="translate(0,0)"></path>
<path d="M 1029.98 1789.48 C 1034.69 1784.89 1038.83 1779.83 1040.76 1773.42 C 1045.33 1758.24 1031.98 1747.44 1026.04 1734.99 C 1019.09 1720.4 1018.83 1639.1 1022.02 1621.44 C 1024.9 1605.5 1033.32 1591.69 1033.27 1574.99 C 1033.23 1562.14 1027.71 1550.62 1024.23 1538.49 C 1017.26 1514.24 1015.4 1489.59 1017.77 1464.49 C 1019.48 1447.75 1022.74 1431.2 1027.49 1415.05 C 1033.62 1394.23 1040.51 1378.49 1041.65 1356.18 C 1042.09 1347.69 1041.56 1339.19 1040.07 1330.82 C 1039.28 1326.14 1034 1306.47 1034.88 1303.99 C 1037.61 1305.63 1037.18 1306.26 1038.83 1309.71 C 1057.65 1321.1 1071.3 1393.02 1066.36 1414.56 C 1065.57 1418.01 1064.94 1426.42 1066.83 1428.68 L 1062.24 1429.67 L 1063.99 1432.86 C 1060.58 1433.5 1058.92 1433.77 1055.5 1434.14 L 1043.88 1435.44 C 1037.73 1436.29 1031.6 1437.24 1025.48 1438.29 C 1019.26 1468.3 1017.75 1508.07 1027.46 1537.16 C 1037.27 1566.52 1041.12 1574.57 1030.98 1603.94 C 1018.82 1639.16 1024.01 1687.81 1026.78 1724.74 C 1028.47 1747.37 1061.03 1758.52 1036.08 1787.89 L 1034.96 1789.23 C 1034.73 1789.49 1034.49 1789.75 1034.26 1790.02 C 1039.3 1809.84 1041.8 1830.02 1027.7 1847.24 L 1027.06 1842.87 C 1037.56 1824.7 1037.47 1808.53 1029.98 1789.48 z" fill="url(#Gradient2)" transform="translate(0,0)"></path>
<path d="M 1038.83 1309.71 C 1057.65 1321.1 1071.3 1393.02 1066.36 1414.56 C 1065.57 1418.01 1064.94 1426.42 1066.83 1428.68 L 1062.24 1429.67 L 1063.99 1432.86 C 1060.58 1433.5 1058.92 1433.77 1055.5 1434.14 L 1043.88 1435.44 L 1043.2 1432.23 C 1042.61 1427.64 1047.66 1409.56 1048.76 1403.82 C 1056.05 1365.84 1050.94 1344.47 1038.83 1309.71 z" fill="rgb(203,202,204)" transform="translate(0,0)"></path>
<path d="M 1043.2 1432.23 C 1049.6 1431.58 1055.89 1430.7 1062.24 1429.67 L 1063.99 1432.86 C 1060.58 1433.5 1058.92 1433.77 1055.5 1434.14 L 1043.88 1435.44 L 1043.2 1432.23 z" fill="rgb(2,2,3)" transform="translate(0,0)"></path>
<path d="M 1234.51 1361.05 C 1235.1 1361.38 1236.07 1362.3 1236.72 1362.27 C 1236.93 1362.1 1237.14 1361.93 1237.36 1361.76 C 1242.49 1378.73 1247.13 1397.48 1253.65 1413.9 C 1257.07 1422.47 1264.1 1435.12 1268.4 1443.69 L 1267.45 1448.36 C 1265.38 1444.68 1263.41 1439.64 1259.15 1438.75 C 1256.64 1440.54 1256.57 1441.78 1255.59 1444.73 L 1252.25 1447.41 L 1252.08 1443.57 C 1240.87 1428.95 1231.93 1408.73 1225.63 1391.5 C 1185.87 1413.33 1137.66 1432.83 1092.21 1437.03 C 1087.92 1437.42 1080.31 1437.92 1077.45 1440.97 L 1078.28 1444.67 L 1075.42 1445.16 C 1073.44 1440.56 1074.39 1437.84 1071.51 1433.31 C 1067.95 1431.57 1068.73 1432.21 1063.99 1432.86 L 1062.24 1429.67 L 1066.83 1428.68 C 1114.52 1416.7 1159.8 1404.84 1203.05 1381.01 C 1212.31 1375.92 1226.58 1367.96 1234.51 1361.05 z" fill="rgb(16,41,73)" transform="translate(0,0)"></path>
<path d="M 844.942 766.329 C 850.323 791.067 833.123 826.315 820.715 846.992 C 792.266 894.401 741.973 923.592 688.235 933.491 C 689.941 923.661 690.913 907.89 693.205 899.386 C 711.341 899.65 749.1 885.468 765.003 876.071 C 813.014 847.703 830.741 817.646 844.942 766.329 z" fill="rgb(203,202,204)" transform="translate(0,0)"></path>
<path d="M 843.607 764.607 L 845.27 765.073 L 844.942 766.329 C 830.741 817.646 813.014 847.703 765.003 876.071 C 749.1 885.468 711.341 899.65 693.205 899.386 C 692.639 897.834 690.808 895.603 689.755 894.148 C 689.712 888.75 689.806 883.695 689.155 878.327 C 665.028 886.38 638.202 897.11 622.41 918.043 C 615.448 927.271 610.253 936.625 602.613 945.733 C 600.801 946.688 600.562 946.382 599.817 947.693 C 595.053 952.545 593.866 953.643 588.204 957.575 C 590.114 954.033 590.141 955.574 589.776 952.421 C 609.651 934.236 616.375 916.244 632.624 902.537 C 669.322 871.579 724.601 870.487 766.022 852.505 C 808.162 834.21 827.581 805.584 843.607 764.607 z" fill="url(#Gradient1)" transform="translate(0,0)"></path>
<path d="M 900.363 548.673 L 902.054 549.154 C 902.603 556.66 910.448 571.471 912.815 580.129 C 921.246 610.971 923.243 641.6 919.341 673.32 C 919.059 675.611 918.084 683.017 917.224 684.782 L 915.856 683.392 C 916.599 679.035 918.367 670.883 917.255 666.985 L 916.047 666.776 C 909.145 676.645 914.982 688.041 911.192 701.608 C 910.966 650.509 904.973 613.889 884.516 566.921 C 889.234 561.126 895.363 554.525 900.363 548.673 z" fill="rgb(16,41,73)" transform="translate(0,0)"></path>
<path d="M 870.178 1429.82 C 851.379 1391.75 826.628 1346.76 843.102 1305.2 C 844.017 1302.89 843.579 1303.15 845.405 1301.45 L 846.815 1302.49 C 846.304 1310.87 842.039 1320.41 841.274 1328.71 C 838.639 1357.28 858.674 1400.69 872.255 1426.1 C 886.938 1459.19 906.104 1498.2 912.751 1533.95 C 914.981 1545.94 911.571 1563.13 912.192 1575.53 C 912.438 1594.07 915.354 1607.56 919.846 1625.48 C 923.077 1651.13 924.766 1673.27 921.967 1699.27 C 920.768 1710.53 918.818 1721.69 916.128 1732.69 C 909.524 1759.83 900.388 1774.01 912.576 1801.28 L 911.031 1802.73 L 909.537 1801.94 C 895.296 1774.54 907.917 1757.19 913.465 1728.64 C 917.396 1712.18 918.946 1695.52 919.85 1678.71 C 921.426 1649.4 914.757 1622.73 909.691 1594.2 C 906.567 1576.6 911.582 1554.05 909.356 1537.82 C 904.944 1505.64 886.163 1462.95 871.527 1433.71 C 856.565 1432.4 844.666 1431.78 829.797 1428.21 L 828.403 1427.63 C 826.461 1429.23 827.489 1428.6 825.352 1429.58 L 823.58 1427.43 L 823.787 1425.54 C 826.738 1425.68 826.834 1425.56 829.775 1425.22 C 843.611 1427.38 856.175 1429.09 870.178 1429.82 z" fill="rgb(2,2,3)" transform="translate(0,0)"></path>
<path d="M 872.255 1426.1 C 887.053 1434.46 912.155 1495.39 917.412 1514.89 C 923.59 1537.82 919.413 1555.02 919.318 1578.67 C 919.259 1593.32 920.515 1611.34 919.846 1625.48 C 915.354 1607.56 912.438 1594.07 912.192 1575.53 C 911.571 1563.13 914.981 1545.94 912.751 1533.95 C 906.104 1498.2 886.938 1459.19 872.255 1426.1 z" fill="rgb(211,176,122)" transform="translate(0,0)"></path>
<path d="M 795.012 437.251 L 796.292 437.859 C 799.082 439.157 801.008 439.768 803.399 441.592 C 803.511 442.781 803.725 443.93 803.914 445.111 C 792.506 465.32 794.041 495.29 800.809 516.728 C 796.351 513.141 795.496 515.974 791.727 512.726 C 787.448 495.223 782.654 488.911 783.021 469.39 C 783.752 468.065 783.794 468.183 783.58 466.81 C 783.331 456.522 785.836 447.161 789.76 437.743 C 791.506 437.532 793.257 437.368 795.012 437.251 z" fill="rgb(16,41,73)" transform="translate(0,0)"></path>
<path d="M 453.499 898.234 C 453.769 896.505 453.727 889.841 456.665 892.569 C 459.366 912.61 465.368 932.964 482.33 945.324 C 513.128 967.765 564.219 961.702 590.465 934.62 C 595.112 929.824 601.119 922.675 606.47 919.245 L 607.037 920.428 C 600.792 933.965 577.881 951.542 563.351 956.215 C 552.091 959.836 546.828 960.461 534.859 961.784 C 559.498 966.162 568.074 964.155 589.776 952.421 C 590.141 955.574 590.114 954.033 588.204 957.575 C 562.093 970.602 557.397 967.532 530.007 963.592 C 483.189 956.857 464.803 947.888 453.499 898.234 z" fill="rgb(2,2,3)" transform="translate(0,0)"></path>
<path d="M 447.868 851.169 C 450.679 852.144 455.171 853.883 456.307 856.829 C 459.678 865.569 457.734 883.12 456.665 892.569 C 453.727 889.841 453.769 896.505 453.499 898.234 C 453.028 894.144 452.838 891.062 452.116 886.914 C 452.606 885.786 449.604 876.649 448.971 874.945 C 445.199 864.797 446.316 860.891 447.868 851.169 z" fill="rgb(16,41,73)" transform="translate(0,0)"></path>
<path d="M 1234.51 1361.05 C 1231.92 1351.16 1225.27 1316.19 1227.56 1304.31 C 1228.29 1300.52 1232.39 1306 1230.69 1307.49 C 1230.24 1326.28 1234.33 1343.53 1237.36 1361.76 C 1237.14 1361.93 1236.93 1362.1 1236.72 1362.27 C 1236.07 1362.3 1235.1 1361.38 1234.51 1361.05 z" fill="rgb(2,2,3)" transform="translate(0,0)"></path>
<path d="M 843.607 764.607 C 844.597 757.618 847.139 758.455 845.27 765.073 L 843.607 764.607 z" fill="rgb(142,146,168)" transform="translate(0,0)"></path>
<path d="M 668.943 698.854 C 670.264 687.641 680.114 674.529 688.954 668.01 C 711.549 651.348 728.333 660.186 751.68 664.249 C 768.056 667.098 777.069 660.879 788.91 651.447 C 784.829 663.716 783.585 669.587 771.052 674.642 L 771.935 677.16 C 784.727 676.603 789.058 676.284 800.07 669.06 C 781.785 699.909 765.62 684.604 762.274 688.555 C 761.718 704.55 762.09 717.248 748.981 728.333 C 722.894 750.394 691.819 719.869 696.906 690.968 C 699 679.07 701.059 675.844 707.812 666.969 C 686.448 674.736 675.959 687.05 670.565 708.955 C 670.542 709.102 670.519 709.25 670.496 709.397 L 670.29 710.587 C 668.546 720.919 667.574 704.567 668.943 698.854 z" fill="rgb(16,41,73)" transform="translate(0,0)"></path>
<path d="M 668.943 698.854 C 669.33 703.196 668.27 705.506 670.565 708.955 C 670.542 709.102 670.519 709.25 670.496 709.397 L 670.29 710.587 C 668.546 720.919 667.574 704.567 668.943 698.854 z" fill="rgb(10,24,40)" transform="translate(0,0)"></path>
<path d="M 771.935 677.16 L 770.463 677.102 C 769.796 677.082 765.746 677.406 765.462 676.13 C 766.164 674.637 769.583 674.783 771.052 674.642 L 771.935 677.16 z" fill="rgb(203,202,204)" transform="translate(0,0)"></path>
<path d="M 871.275 389.745 C 884.279 401.608 888.096 447.339 887.196 464.146 C 885.487 496.078 876.517 525.153 852.696 547.319 C 850.554 548.601 851.662 548.467 849.401 547.911 C 843.564 535.744 839.465 514.774 839.307 501.261 C 839.014 476.065 853.072 452.434 860.893 429.104 C 865.148 416.409 868.011 402.788 871.275 389.745 z" fill="rgb(16,41,73)" transform="translate(0,0)"></path>
<path d="M 1382.17 1230.38 C 1392.61 1236.42 1391.34 1267.43 1417.53 1271.82 C 1439.9 1275.56 1407.53 1285.55 1402.33 1289.57 C 1390.73 1298.52 1392.06 1310.8 1384.99 1321.53 C 1381.01 1320.58 1380.6 1319.44 1379.28 1315.42 C 1376.51 1306.92 1373.3 1297.59 1367.09 1290.93 C 1363.05 1286.61 1356.4 1284.06 1351 1281.95 C 1348.38 1280.54 1343.52 1280.41 1341.96 1277.47 C 1340.59 1274.43 1345.78 1273.16 1347.42 1272.7 C 1355.01 1270.58 1364.08 1266.96 1368.96 1260.48 C 1375.5 1251.78 1377.9 1240.26 1382.17 1230.38 z" fill="rgb(16,41,73)" transform="translate(0,0)"></path>
<path d="M 677.863 1043.25 C 680.407 1046.69 674.641 1064.82 673.359 1069.08 C 661.546 1108.31 656.6 1144.95 659.656 1185.84 C 659.955 1189.84 659.204 1195.72 655.981 1198.66 C 652.517 1198.62 654.227 1199.03 650.94 1196.59 C 635.236 1170.59 648.208 1074.28 666.696 1048.74 C 670.023 1044.15 672.532 1043.91 677.863 1043.25 z" fill="rgb(255,255,255)" transform="translate(0,0)"></path>
<path d="M 695.104 1186.25 C 695.154 1186.26 696.997 1186.93 697.032 1186.96 C 702.89 1192.1 701.233 1201.1 708.472 1209.09 C 715.459 1216.81 723.522 1216.6 728.575 1222.17 C 730.078 1223.82 715.904 1229.01 712.991 1231.12 C 702.689 1238.58 703.1 1246.67 698.099 1257.13 C 694.708 1256.97 693.936 1255.88 693.162 1252.5 C 688.158 1230.6 677.411 1229.12 660.268 1222.47 C 668.606 1218.81 678.702 1217.25 684.66 1209.67 C 689.846 1203.08 691.623 1193.91 695.104 1186.25 z" fill="rgb(16,41,73)" transform="translate(0,0)"></path>
<path d="M 1334.26 666.446 C 1337.92 668.963 1338.4 672.412 1340.16 676.989 C 1343.67 686.161 1348.05 694.493 1358.53 696.84 C 1360.02 697.174 1364.59 697.938 1365.11 699.868 C 1363.64 704.187 1353.7 705.03 1348.77 709.408 C 1340.2 717.017 1341.34 724.842 1335.7 732.371 C 1329.97 728.654 1328.58 717.221 1322.33 710.669 C 1319.16 707.346 1295.2 700.531 1309.09 697.355 C 1329.57 692.672 1326.23 678.308 1334.26 666.446 z" fill="rgb(16,41,73)" transform="translate(0,0)"></path>
<path d="M 963.086 1570.23 C 967.534 1572.01 967.855 1575.36 969.334 1579.94 C 973.596 1593.13 980.444 1593.85 991.938 1598.96 C 970.841 1609.3 974.733 1605.34 965.699 1626.84 C 958.467 1623.67 959.897 1613.57 952.221 1607.41 C 946.665 1602.95 929.867 1600.38 944.361 1595.57 C 956.609 1591.5 958.738 1580.38 963.086 1570.23 z" fill="rgb(16,41,73)" transform="translate(0,0)"></path>
<path d="M 1447.12 554.404 C 1453.7 557.928 1451.64 566.753 1458.56 572.468 C 1462.15 575.43 1465.18 576.126 1469.18 578.349 L 1473.07 580.552 C 1464.31 584.953 1455.41 586.598 1452.87 596.988 C 1451.77 601.46 1451.13 603.256 1447.78 606.205 C 1437.69 587.344 1443.06 590.951 1422.96 580.263 C 1427.73 577.487 1433.07 575.453 1437.48 572.338 L 1438.97 571.314 C 1441.64 565.928 1444.24 558.815 1447.12 554.404 z" fill="rgb(16,41,73)" transform="translate(0,0)"></path>
<path d="M 770.034 573.436 C 776.461 577.944 774.088 586.183 781.174 591.859 C 782.806 593.167 799.217 599.916 790.482 602.724 C 774.72 607.792 777.728 615.479 770.734 625.549 C 767.694 619.297 765.472 612.104 760.569 607.842 C 753.007 601.269 737.34 600.722 756.245 594.366 C 764.293 591.66 767.247 580.806 770.034 573.436 z" fill="rgb(16,41,73)" transform="translate(0,0)"></path>
<path d="M 1395.14 1571.73 C 1405.01 1575.52 1409.6 1581.92 1421.99 1583.93 C 1435.56 1586.8 1447.84 1581.34 1458.94 1573.79 C 1466.79 1568.45 1461.32 1580.27 1460.27 1582.57 C 1440.25 1609.52 1405.8 1603.57 1395.14 1571.73 z" fill="rgb(211,176,122)" transform="translate(0,0)"></path>
<path d="M 543.251 859.777 C 568.385 859.181 557.751 881.225 546.332 892.334 C 544.45 893.206 533.427 897.188 533.643 894.208 C 534.222 886.224 536.807 866.886 542.058 861.134 L 543.251 859.777 z" fill="rgb(16,41,73)" transform="translate(0,0)"></path>
<path d="M 1394.01 611.573 C 1397.2 610.627 1400.57 612.336 1401.69 615.467 C 1402.81 618.598 1401.29 622.059 1398.23 623.35 C 1396.09 624.25 1393.63 623.894 1391.83 622.426 C 1390.04 620.958 1389.2 618.618 1389.66 616.343 C 1390.11 614.069 1391.79 612.234 1394.01 611.573 z" fill="rgb(16,41,73)" transform="translate(0,0)"></path>
<path d="M 1423.07 1671.53 C 1426.12 1670.16 1429.71 1671.47 1431.15 1674.48 C 1432.6 1677.5 1431.37 1681.12 1428.39 1682.63 C 1426.4 1683.64 1424.02 1683.5 1422.16 1682.25 C 1420.31 1681 1419.28 1678.85 1419.47 1676.63 C 1419.66 1674.4 1421.03 1672.45 1423.07 1671.53 z" fill="rgb(16,41,73)" transform="translate(0,0)"></path>
<path d="M 1474.48 1735.66 C 1477.59 1735.42 1480.36 1737.59 1480.88 1740.66 C 1481.4 1743.74 1479.48 1746.69 1476.47 1747.48 C 1474.27 1748.06 1471.92 1747.35 1470.42 1745.63 C 1468.92 1743.92 1468.51 1741.5 1469.37 1739.39 C 1470.23 1737.28 1472.21 1735.84 1474.48 1735.66 z" fill="rgb(16,41,73)" transform="translate(0,0)"></path>
<path d="M 958.87 1068.49 C 961.86 1067.51 965.101 1069.01 966.287 1071.92 C 967.473 1074.84 966.199 1078.18 963.371 1079.56 C 961.361 1080.54 958.969 1080.32 957.171 1078.99 C 955.373 1077.66 954.469 1075.43 954.826 1073.22 C 955.184 1071.01 956.743 1069.19 958.87 1068.49 z" fill="rgb(16,41,73)" transform="translate(0,0)"></path>
<path d="M 1415.17 1352.4 C 1418.2 1351.31 1421.54 1352.84 1422.7 1355.85 C 1423.86 1358.85 1422.41 1362.23 1419.44 1363.46 C 1417.45 1364.28 1415.17 1363.97 1413.48 1362.63 C 1411.79 1361.29 1410.96 1359.14 1411.32 1357.01 C 1411.67 1354.89 1413.14 1353.12 1415.17 1352.4 z" fill="rgb(16,41,73)" transform="translate(0,0)"></path>
<path d="M 990.095 1013.42 C 991.872 1012.26 994.143 1012.19 995.988 1013.23 C 997.832 1014.28 998.942 1016.26 998.867 1018.38 C 998.792 1020.49 997.545 1022.39 995.631 1023.3 C 992.931 1024.59 989.696 1023.56 988.235 1020.95 C 986.775 1018.34 987.588 1015.05 990.095 1013.42 z" fill="rgb(16,41,73)" transform="translate(0,0)"></path>
<path d="M 577.083 838.893 C 589.144 840.821 595.462 854.219 591.958 865.35 C 589.049 862.853 589.208 855.768 588.53 851.551 L 587.798 850.602 C 583.686 845.162 577.444 843.276 577.083 838.893 z" fill="rgb(2,2,3)" transform="translate(0,0)"></path>
<path d="M 686.095 1015.75 C 688.662 1014.41 691.833 1015.32 693.286 1017.83 C 694.738 1020.34 693.956 1023.55 691.511 1025.1 C 689.836 1026.17 687.711 1026.23 685.976 1025.26 C 684.241 1024.3 683.175 1022.46 683.2 1020.47 C 683.225 1018.49 684.336 1016.67 686.095 1015.75 z" fill="rgb(255,255,255)" transform="translate(0,0)"></path>
<path d="M 1364.2 1393.68 C 1365.49 1392.63 1367.26 1392.39 1368.79 1393.04 C 1370.33 1393.7 1371.37 1395.14 1371.51 1396.8 C 1371.64 1398.46 1370.85 1400.06 1369.44 1400.96 C 1367.44 1402.24 1364.78 1401.73 1363.38 1399.8 C 1361.99 1397.86 1362.35 1395.18 1364.2 1393.68 z" fill="rgb(16,41,73)" transform="translate(0,0)"></path>
<path d="M 1328.91 1358.54 C 1331.06 1357.33 1333.78 1358.1 1334.99 1360.25 C 1336.19 1362.4 1335.43 1365.12 1333.28 1366.33 C 1331.12 1367.54 1328.4 1366.77 1327.19 1364.62 C 1325.98 1362.47 1326.75 1359.74 1328.91 1358.54 z" fill="rgb(16,41,73)" transform="translate(0,0)"></path>
<path d="M 961.336 1685.5 C 963.399 1684.46 965.918 1685.22 967.055 1687.23 C 968.192 1689.25 967.545 1691.8 965.586 1693.03 C 964.236 1693.87 962.531 1693.91 961.147 1693.12 C 959.763 1692.33 958.925 1690.85 958.964 1689.26 C 959.003 1687.66 959.914 1686.22 961.336 1685.5 z" fill="rgb(16,41,73)" transform="translate(0,0)"></path>
<path d="M 980.544 1753.96 C 982.793 1753.5 984.994 1754.94 985.466 1757.19 C 985.939 1759.44 984.506 1761.64 982.261 1762.12 C 980.002 1762.61 977.778 1761.17 977.303 1758.9 C 976.827 1756.64 978.281 1754.43 980.544 1753.96 z" fill="rgb(16,41,73)" transform="translate(0,0)"></path>
<path d="M 734.375 568.404 C 736.366 567.734 738.539 568.702 739.372 570.632 C 740.204 572.561 739.419 574.807 737.565 575.796 C 736.221 576.513 734.588 576.414 733.342 575.538 C 732.095 574.663 731.447 573.161 731.665 571.654 C 731.883 570.146 732.931 568.89 734.375 568.404 z" fill="rgb(16,41,73)" transform="translate(0,0)"></path>
<path d="M 412.148 846.095 C 397.118 841.886 384.419 837.098 370.976 828.873 C 343.699 812.472 324.099 785.86 316.527 754.945 C 310.795 730.623 314.319 703.881 327.602 682.542 C 340.078 662.648 359.93 648.508 382.809 643.219 C 420.619 634.838 463.779 655.886 480.025 691.006 C 483.584 698.701 484.938 704.856 486.682 713.169 C 460.267 712.743 428.604 718.447 415.93 745.515 C 402.306 774.614 429.596 807.929 460.362 793.366 C 465.698 790.84 469.738 786.211 471.327 780.447 L 470.505 779.648 C 462.002 788.509 448.482 798.267 437.088 792.974 C 405.389 778.249 411.544 738.234 440.531 725.203 C 463.948 714.675 487.709 713.976 510.233 721.275 L 511.585 721.723 C 505.092 748.392 500.554 764.986 488.279 790.89 C 475.975 816.854 445.331 833.167 443.043 860.207 C 442.392 867.89 447.113 881.45 452.116 886.914 C 452.838 891.062 453.028 894.144 453.499 898.234 C 464.803 947.888 483.189 956.857 530.007 963.592 C 557.397 967.532 562.093 970.602 588.204 957.575 C 593.866 953.643 595.053 952.545 599.817 947.693 C 608.885 972.485 634.006 1004.64 656.251 1020.07 C 650.625 1035.25 643.881 1050.79 638.055 1066.34 C 604.262 1086.76 556.487 1074.14 554.1 1030.91 C 506.853 1035.86 467.341 1012.81 469.932 960.981 C 450.171 961.55 433.029 955.928 417.908 942.934 C 403.669 930.94 394.936 913.66 393.724 895.082 C 392.416 874.93 399.211 860.926 412.148 846.095 z" fill="rgb(162,162,191)" transform="translate(0,0)"></path>
<path d="M 542.146 511.955 C 541.322 509.639 540.576 507.297 539.911 504.931 C 525.891 454.875 554.084 415.232 602.916 402.026 C 642.997 391.186 681.92 400.227 717.364 420.722 C 678.521 425.658 643.719 441.634 625.718 478.674 C 619.106 492.279 611.848 515.225 613.369 530.483 C 614.644 528.976 620.906 500.353 622.709 494.703 C 638.304 445.826 685.732 421.291 735.177 424.398 C 754.356 425.604 771.194 431.173 789.76 437.743 C 785.836 447.161 783.331 456.522 783.58 466.81 C 783.794 468.183 783.752 468.065 783.021 469.39 C 782.654 488.911 787.448 495.223 791.727 512.726 C 743.458 494.937 704.066 508.76 677.754 553.186 C 669.416 570.479 665.451 589.262 654.345 605.248 C 644.049 620.07 629.959 631.19 613.514 638.453 C 582.099 651.967 546.636 652.617 514.746 640.265 C 430.13 607.361 456.806 504.884 523.905 536.496 L 525.204 537.121 C 532.469 520.146 544.955 510.958 563.514 507.532 C 567.919 506.719 572.435 508.374 576.748 506.324 L 576.568 504.807 C 569.251 500.339 549.517 508.131 542.146 511.955 z" fill="rgb(162,162,191)" transform="translate(0,0)"></path>
<path d="M 633.627 549.631 C 634.749 540.551 636.488 530.223 639.372 521.568 C 646.74 498.761 663.001 479.894 684.47 469.24 C 718.715 452.556 748.807 457.834 783.021 469.39 C 782.654 488.911 787.448 495.223 791.727 512.726 C 743.458 494.937 704.066 508.76 677.754 553.186 C 655.712 555.805 655.631 557.777 633.627 549.631 z" fill="rgb(211,176,122)" transform="translate(0,0)"></path>
<path d="M 633.627 549.631 C 631.68 560.994 630.112 567.714 624.322 577.916 C 611.72 600.117 582.767 615.933 559.099 600.336 C 550.109 594.412 543.664 586.396 541.861 575.512 C 540.497 566.769 542.647 557.841 547.841 550.676 C 558.054 536.493 576.16 535.071 590.132 544.761 C 592.433 546.356 592.33 545.952 592.594 548.444 C 587.499 549.569 578.892 538.627 567.305 542.102 C 527.098 553.916 544.664 605.59 582.121 602.635 C 611.721 600.838 628.415 571.931 630.676 544.859 C 636.895 470.385 719.257 434.01 783.58 466.81 C 783.794 468.183 783.752 468.065 783.021 469.39 C 748.807 457.834 718.715 452.556 684.47 469.24 C 663.001 479.894 646.74 498.761 639.372 521.568 C 636.488 530.223 634.749 540.551 633.627 549.631 z" fill="rgb(2,2,3)" transform="translate(0,0)"></path>
<path d="M 618.525 412.168 C 619.523 412.102 620.524 412.077 621.524 412.095 C 623.978 412.115 626.229 414.935 625.646 417.091 C 624.639 420.525 617.495 422.937 614.489 424.293 C 598.547 431.483 586.122 442.241 576.16 456.601 C 571.581 463.2 570.206 471.405 563.574 476.111 C 555.305 478.04 554.287 478.719 556.354 469.585 C 558.477 460.205 562.218 449.863 568.315 442.286 C 580.916 426.571 598.727 415.887 618.525 412.168 z" fill="rgb(203,202,204)" transform="translate(0,0)"></path>
<path d="M 480.238 556.502 C 483.685 559.526 488.751 584.398 496.497 593.001 C 506.733 604.369 512.656 606.842 526.771 613.309 C 529.793 614.693 526.416 619.321 524.481 620.798 C 513.416 619.328 504.197 616.902 495.011 610.089 C 479.59 598.652 467.806 573.827 480.238 556.502 z" fill="rgb(203,202,204)" transform="translate(0,0)"></path>
<path d="M 648.498 1309.68 C 661.616 1330.2 671.307 1342.97 686.302 1362.23 C 688.058 1364.13 693.231 1370.03 695.009 1371.17 C 704.866 1376.21 711.72 1390.61 722.563 1392.45 C 724.174 1388.55 723.501 1388.42 726.376 1386.33 C 749.254 1399.94 770.178 1409.35 795.951 1416.75 C 806.897 1419.89 819.234 1422.1 829.775 1425.22 C 826.834 1425.56 826.738 1425.68 823.787 1425.54 L 823.58 1427.43 L 825.352 1429.58 C 827.489 1428.6 826.461 1429.23 828.403 1427.63 L 829.797 1428.21 C 825.717 1434.88 824.798 1440.12 821.763 1446.34 L 818.513 1445.83 L 816.514 1447.53 C 814.408 1452.87 812.455 1458.28 810.656 1463.73 C 802.999 1492.3 804.849 1504.22 809.408 1532.87 C 812.853 1554.52 799.805 1576.66 793.975 1596.44 C 790.317 1620.09 790.824 1645.82 790.542 1669.78 C 790.38 1683.55 788.516 1705.61 790.04 1718.41 C 792.99 1743.19 817.319 1746.62 793.82 1774.81 C 798.269 1794.39 796.802 1810.46 781.927 1824.78 C 778.354 1820.57 775.409 1815.34 771.597 1811.12 C 749.187 1786.26 699.884 1771.87 669.174 1786.94 C 653.584 1757.49 669.507 1748.54 680.836 1724.58 C 696.706 1691.03 705.308 1647.94 702.546 1610.84 C 701.663 1599 696.971 1585.79 697.482 1573.46 C 697.744 1537.11 705.205 1501.05 693.803 1465.53 C 676.363 1410.23 649.928 1370.49 648.498 1309.68 z" fill="rgb(232,231,231)" transform="translate(0,0)"></path>
<path d="M 695.009 1371.17 C 704.866 1376.21 711.72 1390.61 722.563 1392.45 C 724.174 1388.55 723.501 1388.42 726.376 1386.33 C 749.254 1399.94 770.178 1409.35 795.951 1416.75 C 806.897 1419.89 819.234 1422.1 829.775 1425.22 C 826.834 1425.56 826.738 1425.68 823.787 1425.54 L 823.58 1427.43 L 825.352 1429.58 C 827.489 1428.6 826.461 1429.23 828.403 1427.63 L 829.797 1428.21 C 825.717 1434.88 824.798 1440.12 821.763 1446.34 L 818.513 1445.83 L 816.514 1447.53 C 804.934 1443.62 795.985 1441.95 783.07 1437.08 C 755.753 1426.79 712.701 1394.44 695.009 1371.17 z" fill="rgb(16,41,73)" transform="translate(0,0)"></path>
<path d="M 686.302 1362.23 C 688.058 1364.13 693.231 1370.03 695.009 1371.17 C 712.701 1394.44 755.753 1426.79 783.07 1437.08 C 795.985 1441.95 804.934 1443.62 816.514 1447.53 C 814.408 1452.87 812.455 1458.28 810.656 1463.73 C 808.789 1461.21 787.354 1453.61 782.953 1451.1 C 755.013 1435.12 728.892 1414.61 707.92 1390.09 C 701.651 1382.76 686.948 1371.71 686.302 1362.23 z" fill="rgb(203,202,204)" transform="translate(0,0)"></path>
<path d="M 715.53 1564.7 C 730.343 1570.68 735.408 1579.1 753.505 1576.06 C 767.404 1573.72 771.235 1570.86 782.774 1563.12 C 781.183 1567.13 779.863 1571.29 777.79 1575.08 L 777.138 1576.34 C 758.085 1603.14 722.436 1595.08 715.53 1564.7 z" fill="rgb(211,176,122)" transform="translate(0,0)"></path>
<path d="M 773.455 1737.44 C 775.609 1736.58 778.06 1736.95 779.859 1738.42 C 781.659 1739.88 782.525 1742.2 782.124 1744.49 C 781.723 1746.77 780.118 1748.66 777.927 1749.42 C 774.643 1750.57 771.047 1748.88 769.831 1745.62 C 768.615 1742.36 770.224 1738.73 773.455 1737.44 z" fill="rgb(16,41,73)" transform="translate(0,0)"></path>
<path d="M 902.054 549.154 C 926.465 561.339 945.941 600.056 953.994 624.579 C 966.828 663.663 970.438 706.472 971.393 747.423 C 971.844 764.819 969.683 782.786 987.899 792.8 C 1005.53 802.49 1028.99 788.153 1022 767.545 C 1020.25 762.374 1014.2 757.023 1008.47 756.913 L 1007.42 757.765 C 1014 762.45 1018.42 763.091 1020.02 772.167 C 1022.04 784.509 1011.74 791.513 1001.08 792.597 C 987.537 793.975 973.329 778.6 974.48 765.776 C 978.121 725.231 1030.15 722.617 1052.09 749.094 C 1061.64 760.437 1066 775.268 1064.09 789.975 C 1055.8 853.433 960.111 859.415 927.714 811.32 C 904.999 777.598 910.882 723.071 917.224 684.782 C 918.084 683.017 919.059 675.611 919.341 673.32 C 923.243 641.6 921.246 610.971 912.815 580.129 C 910.448 571.471 902.603 556.66 902.054 549.154 z" fill="rgb(75,152,206)" transform="translate(0,0)"></path>
<path d="M 620.636 1765.26 C 624.751 1729.31 644.866 1714.2 680.422 1717.33 C 667.121 1748.13 650.442 1752.82 666.077 1789.86 C 646.617 1804.21 634.147 1845.53 629.299 1868.09 C 619.081 1868.06 557.21 1867.46 551.317 1868.6 C 528.019 1830.51 534.461 1783.66 581.54 1767.27 C 596.985 1761.9 618.776 1765.77 631.319 1775.44 C 637.351 1780.09 642.889 1785.93 649.921 1789.62 C 640.084 1776.92 634.808 1773.11 620.636 1765.26 z" fill="rgb(162,162,191)" transform="translate(0,0)"></path>
<path d="M 592.629 1780.2 C 607.719 1778.87 603.926 1786.87 594.975 1790.47 C 573.594 1799.08 572.01 1811.9 562.949 1829.86 C 553.178 1841.02 555.595 1822.37 557.54 1817.32 C 564.553 1799.08 573.52 1786.34 592.629 1780.2 z" fill="rgb(203,202,204)" transform="translate(0,0)"></path>
<path d="M 602.613 945.733 C 610.253 936.625 615.448 927.271 622.41 918.043 C 638.202 897.11 665.028 886.38 689.155 878.327 C 689.806 883.695 689.712 888.75 689.755 894.148 C 685.983 944.497 675.277 971.135 657.139 1017.11 C 636.649 1002.7 610.643 968.788 602.613 945.733 z" fill="rgb(255,255,255)" transform="translate(0,0)"></path>
<path d="M 668.355 397.418 C 712.069 343.195 779.896 367.412 827.653 402.508 C 820.157 414.598 809.682 429.552 803.399 441.592 C 801.008 439.768 799.082 439.157 796.292 437.859 L 795.012 437.251 C 778.615 430.012 763.511 424.966 745.797 422.019 C 741.677 421.334 726.709 421.072 724.637 420.028 C 705.165 410.219 689.565 403.109 668.355 397.418 z" fill="rgb(162,162,191)" transform="translate(0,0)"></path>
<path d="M 1477.21 1831.18 C 1507.8 1816.62 1485.13 1785.57 1490.29 1775.82 C 1492.52 1775.24 1494.5 1775.02 1496.37 1776.69 C 1526.04 1803.29 1552.54 1811.3 1594.04 1808.91 C 1580.6 1850.19 1545.17 1866.34 1503.18 1866.56 C 1497.59 1866.59 1489.22 1866.41 1483.91 1867.86 C 1481.58 1867.08 1481.47 1867 1479.29 1865.92 C 1478.6 1859.57 1476.92 1836.66 1477.21 1831.18 z" fill="rgb(162,162,191)" transform="translate(0,0)"></path>
<path d="M 521.968 654.776 L 521.999 648.688 C 524.316 645.091 528.798 647.944 532.893 648.928 C 582.193 661.755 647.9 639.823 666.926 589.125 C 679.76 554.924 692.65 522.757 732.067 511.491 C 752.249 505.723 774.394 506.877 793.219 517.421 C 789.783 517.661 789.053 517.36 785.8 517.064 C 760.341 514.679 731.742 520.099 710.959 535.521 C 693.858 548.211 687.59 570.554 680.269 589.64 C 660.207 641.942 612.847 666.585 558.216 662.407 C 545.899 661.465 533.724 656.349 521.968 654.776 z" fill="rgb(203,202,204)" transform="translate(0,0)"></path>
<path d="M 1837 119.128 C 1848.25 118.391 1857.32 119.614 1867 126.208 C 1908.05 154.158 1913.87 213.913 1909.93 258.71 C 1904.22 323.621 1866.41 384.776 1822.72 431.264 C 1814.89 439.564 1806.79 447.594 1798.41 455.341 C 1794.05 459.353 1779.86 470.761 1777.59 474.277 C 1787.09 475.741 1841.69 416.478 1849.72 405.095 C 1856.21 398.81 1866.66 376.644 1873.13 371.983 C 1904.6 349.336 1936.73 389.086 1938.32 416.755 C 1940.68 457.675 1923.64 482.426 1900.83 511.211 C 1871.12 545.891 1830.72 574.951 1789.53 594.563 C 1777.84 530.939 1739.72 503.128 1678.89 489.307 C 1680.46 478.131 1679.96 466.761 1677.39 455.769 C 1672.08 432.646 1660.99 417.981 1641.25 405.576 C 1720.89 349.653 1816.33 256.785 1826.79 154.213 C 1828.44 138.067 1820.19 129.416 1837 119.128 z" fill="rgb(75,152,206)" transform="translate(0,0)"></path>
<path d="M 1866.12 184.68 C 1869.93 185.591 1873.68 187.051 1875.69 190.854 C 1898.33 233.643 1887.52 290.684 1866.41 332.346 C 1852.73 359.356 1824.44 389.792 1799.57 408.397 C 1794.35 411.495 1790.15 414.073 1784.1 412.105 C 1783.01 410.555 1782.36 410.355 1782.71 408.665 C 1786.48 395.645 1799.91 384.722 1808.02 373.732 C 1838.84 331.976 1850.05 284.33 1853.98 233.489 C 1854.97 220.568 1856.68 205.765 1859.32 193.021 C 1860 189.716 1863.6 186.895 1866.12 184.68 z" fill="rgb(127,175,214)" transform="translate(0,0)"></path>
<path d="M 216.978 203.078 C 242.847 200.353 231.239 230.554 232.937 247.546 C 241.719 335.416 306.565 431.477 372.263 487.007 C 344.534 501.513 335.97 528.981 337.998 558.507 C 284.342 567.476 246.83 603.271 238.08 657.177 C 203.692 636.707 163.292 594.963 142.764 560.706 C 124.321 529.569 105.171 477.002 134.708 444.742 C 145.555 432.894 158.839 431.761 173.959 431.448 C 194.382 469.145 216.407 501.477 245.729 533.154 C 249.029 536.72 257.551 546.578 261.724 548.295 C 261.949 547.797 262.174 547.3 262.398 546.802 C 250.84 532.816 238.691 520.973 227.112 506.739 C 169.151 435.48 122.241 333.754 168.259 244.601 C 177.441 226.812 197.254 208.735 216.978 203.078 z" fill="rgb(75,152,206)" transform="translate(0,0)"></path>
<path d="M 1831.8 718.81 C 1832.29 719.15 1832.78 719.49 1833.28 719.831 C 1856.71 748.618 1852.55 792.064 1830.54 820.54 C 1806.11 852.152 1778.72 856.802 1741.99 861.965 L 1741.3 862.931 C 1745.82 864.692 1748.53 864.113 1753.38 863.831 C 1773.84 927.598 1720.22 983.251 1656.3 978.662 C 1651.59 978.324 1633.87 974.01 1631.8 974.77 L 1631.94 976.082 C 1636.55 979.792 1649.42 981.281 1655.84 982.399 C 1655.07 1021.07 1626.25 1051.87 1590.01 1062.04 C 1572.3 1067.01 1555.64 1066.62 1537.73 1063.32 C 1537.22 1066.14 1536.3 1070.49 1535.09 1073 C 1516.49 1111.89 1470.09 1121.75 1432.79 1106.2 C 1423.36 1122.59 1408.03 1134.77 1389.94 1140.26 C 1371.94 1145.67 1352.03 1145.3 1335.28 1136.23 C 1332.31 1140.65 1328.63 1145.66 1325.01 1149.54 C 1311.06 1164.64 1291.57 1173.43 1271.02 1173.87 C 1252.87 1174.4 1237.39 1168.37 1224.31 1155.84 C 1209.9 1173.09 1199.88 1180.64 1177.34 1183.58 C 1152.35 1186.43 1128.6 1175.55 1115.16 1154.27 C 1122.26 1147.8 1126 1144.38 1132 1137.02 C 1151.86 1153.25 1182.05 1152.9 1203.79 1140.57 C 1213.1 1135.28 1219.21 1127.92 1225.63 1119.57 C 1265.45 1150.15 1307.14 1134.3 1334.42 1096.62 C 1377.76 1109.11 1410.56 1086.74 1427.56 1047.39 C 1432.91 1048.87 1438.34 1050.34 1443.84 1051.11 C 1464.69 1054.17 1485.89 1048.74 1502.7 1036.03 C 1523 1020.55 1529.2 1003.51 1532.3 979.34 L 1536.8 979.277 C 1565.05 978.772 1588.12 971.977 1608.33 950.948 C 1627.53 930.967 1631.47 909.911 1630.87 883.341 C 1632.83 883.157 1634.78 882.888 1636.71 882.536 C 1690.66 872.957 1724.32 824.564 1715.04 770.604 C 1750.12 760.464 1801.11 738.84 1831.8 718.81 z" fill="rgb(211,176,122)" transform="translate(0,0)"></path>
<path d="M 1591.03 589.301 C 1610.64 587.911 1630.74 591.679 1647.58 602.103 C 1666.77 614.066 1680.31 633.281 1685.11 655.379 C 1690.69 680.536 1685.29 707.516 1671.34 729.085 C 1654.97 754.627 1629.02 772.515 1599.33 778.721 C 1621.62 820.412 1599.57 869.312 1558.04 887.73 C 1545.35 893.358 1536.03 894.818 1522.35 896.086 C 1516.92 841.931 1469.83 814.022 1418.37 824.923 C 1403.7 809.337 1398.53 798.765 1394.28 777.889 C 1392.03 760.871 1392.06 746.44 1397.67 729.939 C 1414.82 679.966 1473.16 653.476 1522.58 670.596 C 1547.82 679.342 1568.07 704.833 1556.59 731.975 C 1552.84 740.8 1545.58 747.661 1536.56 750.904 C 1516.09 758.435 1500.66 748.124 1494.38 728.357 L 1492.97 727.792 L 1491.74 729.496 C 1492 738.272 1502.36 750.497 1510.04 753.623 C 1539.04 765.193 1567.8 739.901 1562.7 709.33 C 1558.73 685.546 1541.07 673.571 1519.81 665.973 C 1523.39 621.691 1547.17 596.98 1591.03 589.301 z" fill="rgb(162,162,191)" transform="translate(0,0)"></path>
<path d="M 1644.43 628.792 C 1661.47 630.009 1671.68 653.463 1664.71 667.378 L 1664.06 668.733 C 1663.47 668.854 1660.54 669.733 1659.97 669.068 C 1656.55 664.357 1652.82 655.788 1651.04 650.002 C 1648.24 640.866 1640.01 637.001 1644.43 628.792 z" fill="rgb(203,202,204)" transform="translate(0,0)"></path>
<path d="M 1662.18 677.378 C 1664.45 676.937 1666.67 678.328 1667.26 680.559 C 1667.85 682.789 1666.6 685.094 1664.42 685.829 C 1662.87 686.349 1661.16 685.964 1659.98 684.83 C 1658.81 683.696 1658.36 682.003 1658.82 680.436 C 1659.28 678.87 1660.58 677.691 1662.18 677.378 z" fill="rgb(203,202,204)" transform="translate(0,0)"></path>
<path d="M 1628.08 621.446 C 1631.02 620.789 1630.12 622.148 1628.98 624.377 C 1625.38 625.5 1626.6 623.295 1628.08 621.446 z" fill="rgb(203,202,204)" transform="translate(0,0)"></path>
<path d="M 1543.86 1113.45 C 1570.3 1112.82 1596.61 1117.27 1621.38 1126.56 C 1689.49 1151.86 1742.05 1216.65 1714.52 1291.14 C 1708.09 1308.52 1700.32 1319.8 1683.22 1328.2 C 1666.66 1336.34 1659.02 1346.12 1652.57 1363 C 1647.24 1355.08 1642.8 1350.07 1635.44 1343.99 C 1611.23 1324 1569.79 1329.38 1550.99 1354.9 C 1543.45 1365.02 1540.37 1377.78 1542.47 1390.23 C 1547.75 1423.33 1584.48 1440.27 1608.78 1411.37 C 1614.46 1404.61 1612.87 1393.44 1611.05 1385.12 L 1609.52 1384.74 C 1608.85 1389.62 1609.78 1400.1 1608.41 1404.34 C 1602.64 1422.08 1579.95 1427.94 1564.66 1418.69 C 1544.86 1406.75 1540.59 1380.3 1551.13 1360.65 C 1564.5 1335.56 1602.65 1328.44 1626.31 1341.95 C 1646.31 1353.36 1656.46 1371.98 1656.29 1394.86 C 1656.17 1410.26 1654.3 1421.42 1646.41 1434.81 C 1612.47 1492.38 1525.22 1489.8 1484.97 1440.9 C 1475.33 1429.19 1471.13 1419.78 1467.35 1405.28 C 1460 1330.83 1533.54 1293.01 1598.54 1306.42 C 1603.63 1307.47 1622.78 1314.65 1624.43 1314.61 L 1624.81 1313.05 C 1620.61 1308.15 1600.86 1303.57 1594.2 1302.02 C 1619 1270.52 1611.47 1225.25 1584.54 1197.56 C 1553 1165.14 1508.76 1155.81 1465.17 1154.46 L 1459.59 1143.92 C 1501.88 1134.06 1543.09 1135.03 1585.52 1148.8 C 1639.61 1166.36 1678.67 1217.37 1658.31 1275.07 C 1655.36 1283.41 1650.22 1291.13 1647.06 1299.83 L 1647.33 1299.3 L 1647.56 1300.68 C 1665.44 1279.58 1670.79 1247.59 1663.74 1221.2 C 1641.55 1138.16 1529.29 1122.86 1458.15 1141.18 L 1451.68 1130.19 C 1479.02 1119.74 1514.85 1114.81 1543.86 1113.45 z" fill="rgb(162,162,191)" transform="translate(0,0)"></path>
<path d="M 1692.04 1209.92 C 1709.75 1218.2 1711.5 1263 1703.05 1279.18 C 1690.27 1281.12 1693.8 1267.18 1692.82 1258.45 C 1691.59 1247.4 1692.23 1235.51 1689.65 1224.58 C 1687.68 1216.24 1686.58 1217.11 1692.04 1209.92 z" fill="rgb(203,202,204)" transform="translate(0,0)"></path>
<path d="M 1671.01 1186.02 C 1679.6 1185.21 1681.75 1185.24 1684.93 1193.67 C 1675.95 1193.98 1673.34 1195.65 1671.01 1186.02 z" fill="rgb(203,202,204)" transform="translate(0,0)"></path>
<path d="M 1704.88 751.803 L 1706.03 752.308 C 1709.55 757.748 1712.05 770.82 1712.94 777.327 C 1716.35 800.828 1710.01 824.702 1695.39 843.414 C 1678.09 865.971 1654.63 877.196 1626.94 880.814 C 1627.34 885.047 1627.48 888.696 1627.57 892.873 C 1628.2 927.761 1605.73 958.871 1573.03 970.444 C 1557.68 975.874 1545.36 976.264 1529.29 975.982 C 1528.67 986.733 1527.9 993.745 1523.71 1004.02 C 1516.23 1021.91 1501.88 1036.04 1483.88 1043.26 C 1465.07 1050.8 1444.03 1050.61 1425.36 1042.72 C 1423.92 1047.27 1422.17 1051.71 1420.13 1056.03 C 1411.71 1073.47 1396.74 1086.88 1378.47 1093.32 C 1363.01 1098.74 1347.99 1098.78 1333.05 1091.52 C 1330.24 1096.82 1326.84 1101.77 1322.91 1106.3 C 1296.05 1137.23 1255.96 1141.34 1224.66 1114.08 C 1205.46 1149.29 1162.06 1156.63 1130.95 1132.19 C 1124.48 1142.81 1115.13 1151.38 1103.98 1156.88 C 1087.12 1165.27 1069.37 1165.6 1051.72 1159.7 C 1037.18 1153.33 1032.34 1149.44 1021.41 1137.93 C 1061.94 1136.56 1085.77 1125.45 1106.47 1090.18 C 1131.34 1101.38 1146.04 1094.79 1168.54 1084.14 C 1171.17 1082.89 1182.22 1081.05 1185.62 1080.53 C 1202.13 1078.02 1211.89 1071.72 1223.44 1060.07 C 1256.55 1098.19 1320.07 1085.93 1335.58 1036.96 C 1375.73 1038.14 1404.44 1019 1416.41 980.507 C 1447.88 985.222 1472.97 981.738 1497.32 958.656 C 1514.46 942.4 1522.09 922.779 1522.46 899.289 C 1581.93 895.123 1621.71 850.663 1608.37 790.556 C 1644.07 782.758 1673.91 771.571 1704.88 751.803 z" fill="rgb(75,152,206)" transform="translate(0,0)"></path>
<path d="M 213.022 769.52 C 245.18 787.765 263.268 797.607 297.681 813.038 C 297.978 866.787 323.119 900.34 372.9 919.306 C 365.793 973.621 398.242 1012.39 451.769 1019.5 C 453.304 1063.46 493.634 1090.1 535.572 1081.59 C 550.729 1119.58 584.131 1135.32 623.457 1124.95 C 621.244 1138.56 620.19 1150.27 618.951 1164 C 602.907 1169.93 592.419 1170.76 575.64 1167.44 C 572.852 1166.68 570.102 1165.79 567.401 1164.76 C 547.266 1157.27 536.746 1143.14 528.271 1124.22 C 488.913 1136.87 449.059 1115.67 439.633 1074.95 C 394.906 1077.85 362.714 1054.48 354.441 1010.04 C 360.368 1010.11 373.487 1011.46 377.009 1006.87 L 376.387 1005.09 C 372.486 1005.01 369.164 1006.74 365.238 1006.91 C 307.695 1009.51 252.238 954.312 276.959 896.164 C 280.426 896.799 282.56 896.922 286.098 897.138 L 285.808 896.9 L 288.682 896.663 L 288.878 896.349 C 286.001 894.574 275.952 891.645 272.122 890.706 C 220.39 878.035 183.007 819.195 213.022 769.52 z" fill="rgb(211,176,122)" transform="translate(0,0)"></path>
<path d="M 1754.91 1469.84 C 1759.43 1469.74 1764.94 1471.81 1769.05 1473.7 C 1792.75 1484.84 1811.2 1504.74 1820.52 1529.21 C 1829.89 1554.16 1828.98 1581.82 1817.98 1606.11 C 1806.66 1630.17 1786.4 1648.87 1761.52 1658.25 C 1738.25 1666.83 1709.4 1666.87 1686.72 1656.4 C 1669.84 1621.94 1650.28 1600.62 1614.97 1583.96 C 1621.38 1567.05 1622.78 1561.31 1622.26 1543.3 C 1634.07 1522.27 1636.64 1517.56 1654.26 1500.67 C 1675.97 1501.88 1689.6 1499.13 1710.34 1498.11 C 1746.74 1496.33 1778.39 1527.9 1779.1 1564.61 C 1777.59 1575.86 1776.16 1583.71 1768.72 1593.12 C 1760.16 1603.87 1747.7 1610.8 1734.06 1612.41 C 1720.31 1613.87 1706.55 1609.75 1695.86 1600.99 C 1686.46 1593.16 1680.39 1582.76 1679.48 1570.45 C 1678.79 1560.78 1682.02 1551.24 1688.46 1543.99 C 1700.63 1530.32 1730.22 1531.08 1732.07 1552.84 C 1732.49 1557.79 1725.96 1563.98 1723.49 1569.41 L 1724.8 1569.44 C 1752.36 1550.96 1720.77 1517.54 1691.8 1537.27 C 1683.83 1542.69 1678.39 1551.1 1676.7 1560.59 C 1668.29 1605.44 1728.71 1632.89 1762.61 1603.67 C 1798.32 1572.88 1781.38 1522.8 1743.95 1502.97 C 1733.15 1497.25 1725.53 1495.53 1713.66 1494.26 C 1731.3 1486.71 1739.61 1481 1754.91 1469.84 z" fill="rgb(162,162,191)" transform="translate(0,0)"></path>
<path d="M 1764.57 1487.91 L 1765.55 1487.94 C 1776.56 1488.17 1784.81 1496.44 1790.82 1505.05 C 1799.76 1517.85 1804.39 1518.88 1794.64 1529.19 C 1791.63 1528.65 1779.19 1511.83 1776.57 1507.8 C 1770.7 1498.76 1753.65 1498.23 1764.57 1487.91 z" fill="rgb(203,202,204)" transform="translate(0,0)"></path>
<path d="M 1800.4 1536.69 C 1802.76 1535.98 1805.26 1537.28 1806.04 1539.61 C 1806.83 1541.95 1805.62 1544.49 1803.31 1545.35 C 1801.74 1545.93 1799.99 1545.62 1798.72 1544.53 C 1797.46 1543.44 1796.89 1541.74 1797.24 1540.11 C 1797.59 1538.48 1798.8 1537.17 1800.4 1536.69 z" fill="rgb(203,202,204)" transform="translate(0,0)"></path>
<path d="M 1678.22 492.67 C 1693.76 494.32 1718.48 504.59 1731.79 512.316 C 1791.92 547.233 1803.54 627.826 1768.15 684.963 C 1735.25 738.065 1677.7 769.78 1618.23 785 L 1616.89 785.298 L 1614.96 785.695 C 1611.14 786.508 1608.35 787.707 1606.04 783.75 C 1608.37 778.909 1620.19 775.631 1625.46 773.337 C 1636.99 768.186 1647.53 761.076 1656.63 752.324 C 1677.99 731.832 1690.49 705.204 1690.74 675.442 C 1691.12 651.756 1681.98 628.906 1665.38 612.007 C 1646.55 592.988 1621.52 585.671 1595.33 585.439 C 1636.89 565.763 1667.62 538.799 1678.22 492.67 z" fill="rgb(162,162,191)" transform="translate(0,0)"></path>
<path d="M 1721.01 527.483 C 1728.22 527.923 1732.97 530.536 1738.73 535.29 L 1743.09 538.855 C 1755.47 549.1 1766.89 568.179 1768.92 584.511 C 1769.41 588.488 1766.98 591.457 1764.59 594.226 C 1757.7 589.67 1752.02 562.285 1730.79 546.587 L 1726.74 543.59 C 1717.47 537.113 1715.09 535.49 1721.01 527.483 z" fill="rgb(203,202,204)" transform="translate(0,0)"></path>
<path d="M 1499.16 1607.67 C 1514.87 1590.06 1538.29 1577.78 1561.88 1577.82 C 1713.31 1578.1 1746.07 1791.43 1581.89 1806.18 C 1548.71 1809.17 1518.71 1793.15 1494.76 1770.56 C 1504.29 1751.29 1501.31 1739.76 1494.68 1720.21 C 1494.37 1719.3 1494.05 1718.39 1493.72 1717.48 C 1512.69 1736.59 1528.72 1746.07 1556.33 1747.09 C 1589.76 1748.32 1623.58 1720.2 1623.22 1685.89 C 1623.02 1671.59 1617.24 1657.94 1607.11 1647.84 C 1597.7 1638.74 1585.04 1633.76 1571.95 1634.02 C 1569.67 1634.09 1567.38 1634.2 1565.1 1634.36 C 1561.64 1631.66 1552.88 1629.8 1548.19 1628.26 C 1535.26 1624.01 1508.73 1615.8 1499.16 1607.67 z" fill="rgb(211,176,122)" transform="translate(0,0)"></path>
<path d="M 1567.21 1592.02 C 1601.17 1590.83 1638.34 1608.49 1654.47 1639.48 C 1657.03 1644.4 1654.74 1648.78 1652.52 1653.21 C 1631.39 1637.01 1615.83 1618.98 1589.14 1610.32 C 1582.77 1608.25 1574.67 1604.63 1568.62 1601.76 C 1563.79 1599.47 1562.61 1597.17 1566.14 1593.24 L 1567.21 1592.02 z" fill="rgb(215,196,175)" transform="translate(0,0)"></path>
<path d="M 1654.72 1661.39 C 1667.37 1660.08 1669.35 1658.97 1664.97 1671.81 C 1658.65 1672.96 1655.88 1666.79 1654.72 1661.39 z" fill="rgb(215,196,175)" transform="translate(0,0)"></path>
<path d="M 1042.82 831.501 C 1043.35 833.232 1043.94 834.944 1044.6 836.631 C 1048.53 846.63 1051.34 851.105 1061.14 855.517 C 1061.25 859.375 1061.29 863.451 1061.55 867.28 C 1037.69 868.204 1014.87 880.602 1011.09 906.297 C 1005.16 946.494 1062.28 965.121 1069.74 921.328 C 1070.27 918.211 1064.41 907.185 1061.27 904.91 L 1059.79 905.642 C 1058.82 909.545 1064.11 911.161 1065.24 915.605 C 1071.13 938.725 1043.14 950.75 1026.17 938.014 C 1010.77 926.455 1011.55 902.645 1022.62 888.376 C 1030.61 878.255 1042.44 871.906 1055.29 870.846 C 1070.7 869.491 1085.1 874.458 1096.75 884.456 C 1108 894.039 1114.93 907.74 1115.98 922.482 C 1117.3 940 1111.5 957.308 1099.89 970.498 C 1083.57 989.282 1059.46 999.202 1034.93 1000.79 C 1010.22 1002.27 985.957 993.749 967.597 977.152 C 948.795 960.683 937.373 937.369 935.883 912.419 C 934.319 883.706 944.07 861.449 963.023 840.524 C 993.712 851.09 1015.39 849.226 1042.82 831.501 z" fill="rgb(75,152,206)" transform="translate(0,0)"></path>
<path d="M 1337.15 895.901 C 1361.02 899.183 1380.02 901.955 1397.62 921.368 C 1409.31 934.212 1415.4 951.186 1414.54 968.533 C 1413.53 986.698 1405.2 1003.68 1391.45 1015.59 C 1374.09 1030.86 1355.45 1034.29 1333.2 1032.95 C 1322.23 1075.44 1277.13 1089.9 1240 1070.02 C 1232.7 1065.04 1229.26 1061.7 1222.95 1055.49 C 1208.44 1072.72 1195.04 1077.18 1173.41 1079.2 C 1187.46 1065.65 1193.42 1053 1196.44 1033.67 C 1225.6 1030.3 1252.38 1015.92 1271.32 993.489 C 1292.93 967.411 1295.6 944.509 1292.79 912.596 C 1310.61 908.373 1321.05 904.296 1337.15 895.901 z" fill="rgb(162,162,191)" transform="translate(0,0)"></path>
<path d="M 305.282 794.453 C 320.96 804.994 335.317 810.637 350.39 819.63 C 372.212 832.648 381.7 839.382 406.627 847.463 C 365.992 898.269 404.791 960.131 466.162 964.681 C 466.037 967.754 466.049 970.831 466.199 973.903 C 467.792 1009.51 500.852 1031.94 533.71 1035.1 C 539.03 1035.61 545.274 1035.12 550.643 1034.84 C 551.366 1038.37 552.399 1043 553.71 1046.33 C 559.064 1059.86 569.797 1070.57 583.346 1075.88 C 602.4 1083.45 618.739 1079.23 636.299 1071.4 C 633.678 1080.67 631.188 1089.98 628.828 1099.33 L 623.624 1121.46 C 584.693 1131.83 551.078 1116.4 537.875 1077.5 C 528.467 1079.85 519.47 1080.8 509.804 1079.52 C 455.923 1072.38 457.991 1020.12 453.315 1016.97 C 451.449 1015.71 443.959 1015.07 441.446 1014.54 C 421.782 1010.41 404.271 1001 391.938 984.81 C 376.448 964.471 373.14 941.853 376.584 917.131 C 375.693 916.842 374.805 916.544 373.92 916.239 C 324.215 899.038 286.736 846.98 305.282 794.453 z" fill="rgb(75,152,206)" transform="translate(0,0)"></path>
<path d="M 1874.8 541.831 C 1894.42 550.385 1909.14 559.056 1917.76 580.036 C 1924.58 596.653 1922.86 617.961 1915.62 634.116 C 1889.83 691.648 1802.44 734.891 1746.27 757.064 C 1735.67 761.03 1724.88 764.408 1714.1 767.892 C 1712.54 761.743 1710.27 755.395 1708.25 749.351 C 1765.16 710.401 1794.27 667.492 1790.73 597.373 C 1827.59 579.809 1843.95 567.76 1874.8 541.831 z" fill="rgb(75,152,206)" transform="translate(0,0)"></path>
<path d="M 1703.97 1326.39 C 1707.54 1326.22 1712.07 1326.18 1715.64 1326.48 C 1735.21 1327.95 1753.36 1337.28 1765.94 1352.36 C 1796.9 1389.51 1782.96 1442.33 1747.65 1470.92 C 1720.82 1492.64 1688.68 1501.35 1654.47 1497.2 C 1643.34 1495.85 1632.15 1490.66 1621.35 1489.55 L 1621.22 1490.35 C 1630.78 1497.03 1639.75 1497.63 1651.14 1499.49 C 1635.36 1514.22 1632.26 1519.33 1621.81 1537.93 C 1615.93 1511.69 1605.5 1497.46 1586.17 1479.7 C 1603.04 1475.21 1611.07 1472.62 1625.41 1462.81 C 1644.13 1449.25 1652.44 1433.65 1658.62 1412.07 C 1663.87 1418.47 1668.6 1422.75 1676.15 1426.58 C 1687.37 1432.32 1700.17 1433.45 1712.05 1429.21 C 1729.91 1422.83 1743.46 1402.57 1734.98 1383.93 C 1732.14 1377.69 1727.38 1371.73 1720.72 1369.28 C 1715.08 1367.19 1708.84 1367.43 1703.38 1369.96 C 1689.71 1376.27 1687.55 1396.3 1697.19 1398.61 C 1697.49 1395.04 1695.72 1391.69 1695.19 1387.92 C 1694.6 1384.02 1695.73 1380.05 1698.27 1377.03 C 1701.56 1373.11 1706.69 1371.19 1711.72 1371.05 C 1717.64 1370.85 1723.35 1373.18 1727.44 1377.46 C 1738.85 1389.56 1734.89 1408.43 1723.06 1418.78 C 1715 1425.78 1704.42 1429.16 1693.8 1428.13 C 1678.11 1426.71 1668.52 1418.74 1659.11 1407.3 C 1660.2 1390.82 1659.82 1384.72 1655.01 1369.11 C 1659.67 1343.54 1678.47 1328.42 1703.97 1326.39 z" fill="rgb(211,176,122)" transform="translate(0,0)"></path>
<path d="M 374.401 488.859 C 400.777 511.914 430.89 536.11 462.086 552.219 C 448.142 599.225 477.193 629.079 518.751 645.17 C 519.018 655.832 518.488 663.679 517.74 674.236 C 514.389 671.814 509.399 667.398 505.595 667.778 L 504.942 669.355 C 508.225 677.507 511.738 680.279 517.935 686.399 C 517.434 689.317 516.809 695.222 515.699 697.806 C 514.833 703.903 513.937 711.843 512.336 717.616 C 511.856 717.885 511.377 718.154 510.897 718.423 C 502.095 716.206 499.271 715.652 490.406 714.424 C 488.319 706.834 486.45 699.386 484.064 691.875 C 472.892 665.438 447.431 647.092 420.146 640.214 C 415.427 638.532 404.215 639.312 400.169 637.71 C 359.596 621.646 333.326 573.331 342.861 530.545 C 347.356 510.375 357.904 499.268 374.401 488.859 z" fill="rgb(232,231,231)" transform="translate(0,0)"></path>
<path d="M 484.064 691.875 C 492.111 693.991 508.965 710.061 510.897 718.423 C 502.095 716.206 499.271 715.652 490.406 714.424 C 488.319 706.834 486.45 699.386 484.064 691.875 z" fill="rgb(215,196,175)" transform="translate(0,0)"></path>
<path d="M 507.205 685.874 C 511.928 687.472 513.1 687.455 517.935 686.399 C 517.434 689.317 516.809 695.222 515.699 697.806 C 513.365 695.048 509.285 695.558 503.458 691.011 C 505.187 688.935 505.767 688.171 507.205 685.874 z" fill="rgb(10,24,40)" transform="translate(0,0)"></path>
<path d="M 503.458 691.011 C 499.956 684.925 497.101 681.486 507.205 685.874 C 505.767 688.171 505.187 688.935 503.458 691.011 z" fill="rgb(16,41,73)" transform="translate(0,0)"></path>
<path d="M 335.476 562.161 C 336.781 562.087 337.83 561.871 338.227 563.126 C 340.569 570.518 343.561 584.173 346.709 590.592 C 357.544 612.69 372.533 625.509 392.443 638.436 C 373.651 640.677 355.962 648.502 341.662 660.9 C 322.97 677.165 311.951 701.281 310.712 725.813 C 308.919 761.348 322.734 787.273 345.255 813.019 L 336.24 809.153 C 330.378 806.282 324.665 803.116 319.124 799.666 C 284.301 778.162 252.184 744.381 243.63 703.386 C 229.005 633.3 266.42 577.158 335.476 562.161 z" fill="rgb(162,162,191)" transform="translate(0,0)"></path>
<path d="M 1430.72 826.334 C 1454.37 822.677 1481.98 832.425 1498.57 849.56 C 1512.44 863.979 1519.86 883.406 1519.15 903.4 C 1518.01 940.605 1488.16 971.75 1452.1 977.963 C 1444.09 979.343 1438.03 979.194 1429.85 978.947 L 1416.97 976.993 C 1417.08 976.265 1417.18 975.536 1417.27 974.805 C 1423.06 925.638 1387 898.228 1341.93 892.999 C 1362.89 878.666 1373.56 868.44 1388 847.67 C 1397.79 833.575 1414.24 828.451 1430.72 826.334 z" fill="rgb(162,162,191)" transform="translate(0,0)"></path>
<path d="M 1480.67 861.564 C 1492.28 864.245 1500.7 884.908 1491.96 896.579 L 1491.54 896.504 C 1492.01 896.583 1488.59 896.192 1488.3 895.507 C 1484.29 885.999 1479.98 876.303 1476.29 866.705 C 1475.9 865.679 1480.02 862.189 1480.67 861.564 z" fill="rgb(203,202,204)" transform="translate(0,0)"></path>
<path d="M 1468.08 853.569 C 1474.2 854.369 1474.25 856.833 1470.33 861.482 L 1469.04 863.073 C 1461.71 860.6 1463.37 859.552 1468.08 853.569 z" fill="rgb(203,202,204)" transform="translate(0,0)"></path>
<path d="M 1492.25 905.372 C 1498.33 907.359 1495.94 910.336 1493.4 915.132 C 1488.85 912.685 1487.67 911.62 1491.1 906.982 L 1492.25 905.372 z" fill="rgb(203,202,204)" transform="translate(0,0)"></path>
<path d="M 905.752 546.522 C 915.553 529.258 918.545 517.502 921.571 497.733 C 967.848 516.14 980.532 556.066 986.499 602.541 C 989.871 628.808 986.343 656.872 1000.24 680.583 C 1012.3 703.023 1030.48 704.477 1052.04 711.686 C 1112.15 731.786 1135.3 816.969 1072.19 848.709 C 1054.21 857.75 1050.28 843.03 1045.03 829.273 C 1058.37 816.407 1067.01 803.24 1067.51 783.926 C 1067.86 768.961 1062.05 754.508 1051.43 743.96 C 1029.39 722.187 998.844 722.805 977.38 745.002 C 977 746.115 976.707 746.726 976.173 747.725 C 975.986 748.076 974.982 749.19 974.693 748.549 C 973.597 746.114 974.126 739.979 974.157 737.378 C 971.056 675.728 963.903 598.711 915.141 554.554 C 912.071 551.807 908.941 549.129 905.752 546.522 z" fill="rgb(162,162,191)" transform="translate(0,0)"></path>
<path d="M 974.157 737.378 L 974.703 739.147 C 975.75 742.595 974.614 742.822 977.38 745.002 C 977 746.115 976.707 746.726 976.173 747.725 C 975.986 748.076 974.982 749.19 974.693 748.549 C 973.597 746.114 974.126 739.979 974.157 737.378 z" fill="rgb(142,146,168)" transform="translate(0,0)"></path>
<path d="M 171.178 610.091 C 172.119 610.003 176.217 609.815 176.812 610.402 C 196.083 629.433 214.191 646.545 237.681 660.403 C 233.324 715.291 258.36 761.386 302.973 792.788 C 300.572 799.075 299.453 803.307 297.75 809.793 L 273.978 798.94 L 273.085 798.523 C 225.14 775.911 154.891 737.656 136.166 684.964 C 123.951 650.591 134.026 621.814 171.178 610.091 z" fill="rgb(75,152,206)" transform="translate(0,0)"></path>
<path d="M 1476.76 1183.17 C 1497.19 1187.9 1520.88 1213.85 1529.22 1232.54 C 1540 1256.69 1538.9 1282.86 1529.64 1307.2 C 1507.45 1316.24 1491.83 1326.44 1477.9 1346.37 C 1441.39 1398.6 1476.99 1460.39 1533.69 1476.14 C 1548.33 1480.21 1566.08 1483.01 1581.26 1480.02 C 1600.18 1494.1 1615.27 1517.35 1618.58 1540.87 C 1620.65 1555.64 1617.56 1567.03 1612.79 1580.81 C 1612.31 1581.4 1611.44 1582.62 1610.53 1582.38 C 1601.63 1580.05 1592.72 1577.57 1583.67 1575.9 C 1578.54 1574.95 1573.34 1574.7 1568.15 1574.49 C 1576.13 1561.76 1581.07 1550.53 1579.76 1534.93 C 1578.56 1520.7 1571.78 1507.52 1560.88 1498.28 C 1535.22 1476.71 1504.16 1482.69 1484.5 1508.88 C 1437.18 1469.88 1437.83 1431.03 1458.95 1376.67 C 1486.35 1306.16 1498.69 1258.47 1476.76 1183.17 z" fill="rgb(75,152,206)" transform="translate(0,0)"></path>
<path d="M 1708.86 1724.31 C 1716.38 1723.34 1725.36 1723.85 1732.76 1725.46 C 1749.82 1729.08 1764.63 1739.58 1773.72 1754.47 C 1788.48 1778.23 1786.3 1801.56 1780.21 1827.47 C 1817.48 1803.28 1867.56 1819.42 1873.58 1866.99 L 1832.75 1866.87 C 1794.4 1866.66 1752.32 1867.83 1714.35 1866.36 C 1727.87 1842.26 1733.95 1813.78 1713.31 1789.92 C 1700.72 1775.37 1684.05 1773.86 1665.95 1772.9 C 1679.77 1755.38 1683.49 1749.91 1691.09 1728.54 C 1698.22 1726.33 1701.5 1725.52 1708.86 1724.31 z" fill="rgb(162,162,191)" transform="translate(0,0)"></path>
<path d="M 1724.26 1738.99 C 1752.53 1744.92 1776.2 1774.96 1773.11 1804.19 C 1761.89 1803.72 1764.99 1799.6 1759.62 1788.62 C 1754.56 1778.28 1749.41 1769.41 1740.76 1761.59 C 1731.5 1753.21 1721.94 1752.96 1724.26 1738.99 z" fill="rgb(203,202,204)" transform="translate(0,0)"></path>
<path d="M 1499.16 1607.67 C 1508.73 1615.8 1535.26 1624.01 1548.19 1628.26 C 1552.88 1629.8 1561.64 1631.66 1565.1 1634.36 C 1560.66 1635.9 1557.09 1637.18 1552.94 1639.54 C 1543.36 1644.87 1536.5 1654.04 1534.1 1664.75 C 1532.51 1671.5 1534.06 1678.34 1537.9 1684.05 C 1542.76 1691.18 1550.27 1696.07 1558.76 1697.63 C 1576.03 1700.84 1585.78 1693.61 1588.42 1676.77 L 1587.65 1676.66 C 1582.72 1685.11 1582.24 1691.35 1571.81 1694.32 C 1549.35 1700.7 1527.55 1675.94 1541.13 1655.23 C 1554.88 1634.25 1579.5 1631.27 1599.37 1645.77 C 1610.47 1653.87 1617.7 1666.24 1619.3 1679.89 C 1621.18 1694.99 1616.65 1708.36 1607.2 1719.99 C 1596.59 1733.28 1581.06 1741.71 1564.14 1743.39 C 1515.37 1748.28 1480.84 1710.49 1478.7 1664.85 C 1477.52 1639.64 1483.45 1626.44 1499.16 1607.67 z" fill="rgb(162,162,191)" transform="translate(0,0)"></path>
<path d="M 1045.2 574.347 C 1056.14 573.76 1069.1 577.255 1078.63 582.577 C 1094.63 591.453 1106.41 606.381 1111.31 624.014 C 1115.87 640.636 1113.46 658.397 1104.64 673.205 C 1093.97 691.44 1080.13 698.946 1060.37 704.102 C 1044.04 707.085 1026.28 703.893 1013.78 692.389 C 990.538 671.006 991.713 636.554 990.75 607.515 C 992.535 605.058 994.382 602.646 996.288 600.282 C 1009.78 583.429 1024.04 576.759 1045.2 574.347 z" fill="rgb(211,176,122)" transform="translate(0,0)"></path>
<path d="M 1043.98 609.271 C 1060.11 607.923 1074.31 619.809 1075.84 635.921 C 1077.36 652.034 1065.63 666.369 1049.53 668.064 C 1038.96 669.177 1028.61 664.527 1022.43 655.888 C 1016.24 647.248 1015.18 635.951 1019.63 626.307 C 1024.09 616.662 1033.39 610.156 1043.98 609.271 z" fill="rgb(2,2,3)" transform="translate(0,0)"></path>
<path d="M 1040.21 613.247 C 1054.32 609.746 1068.59 618.395 1072.01 632.527 C 1075.43 646.659 1066.71 660.878 1052.56 664.224 C 1038.51 667.544 1024.43 658.899 1021.03 644.876 C 1017.64 630.854 1026.2 616.721 1040.21 613.247 z" fill="rgb(211,176,122)" transform="translate(0,0)"></path>
<path d="M 1662.45 1776.39 C 1680.96 1777.09 1696.22 1776.52 1710.52 1791.52 C 1720.28 1801.76 1723.63 1817.09 1722.82 1830.9 C 1721.98 1845.38 1717.45 1854.53 1710.27 1866.75 C 1675.68 1866.89 1641.09 1866.81 1606.5 1866.5 C 1591.31 1866.44 1568.32 1867.19 1553.73 1866.08 C 1549.64 1866.5 1541.01 1866.17 1536.53 1866.11 C 1539.78 1864.7 1541.35 1864.27 1544.8 1863.32 C 1572.39 1850.52 1589.09 1839.15 1597.14 1808.33 C 1625.64 1801.87 1640.4 1795.51 1662.45 1776.39 z" fill="rgb(162,162,191)" transform="translate(0,0)"></path>
<path d="M 494.484 1783.27 C 514.727 1781.97 527.33 1787.68 537.821 1805.17 C 531.788 1832.76 534.325 1843.77 547.128 1868.46 L 424.5 1868.32 L 380.677 1868.34 C 388.208 1824.67 416.977 1804.61 460.864 1816.42 C 463.736 1822.22 464.985 1824.28 468.575 1829.56 C 466.701 1822.46 464.924 1815.34 463.243 1808.2 C 469.769 1791.19 476.274 1786.26 494.484 1783.27 z" fill="rgb(75,152,206)" transform="translate(0,0)"></path>
<path d="M 485.489 1816.59 C 488.107 1814.36 492.041 1814.68 494.265 1817.3 C 496.488 1819.93 496.154 1823.86 493.519 1826.08 C 490.898 1828.28 486.991 1827.95 484.779 1825.33 C 482.568 1822.72 482.885 1818.81 485.489 1816.59 z" fill="rgb(10,24,40)" transform="translate(0,0)"></path>
<path d="M 1466.8 1157.48 C 1500.06 1159.27 1533.95 1164.95 1562.29 1183.34 C 1604 1210.39 1620 1257.49 1592.03 1300.31 C 1590.29 1301.22 1573.17 1300.5 1569.53 1300.62 C 1556.62 1301.03 1546.14 1302.59 1533.65 1305.78 C 1551.69 1251.75 1529.7 1199.68 1475.57 1179.44 C 1473.05 1172.48 1469.59 1164.45 1466.8 1157.48 z" fill="rgb(211,176,122)" transform="translate(0,0)"></path>
<path d="M 533.158 1717.36 C 563.999 1713.12 598.391 1727.63 616.279 1752.83 C 618.815 1756.4 619.887 1759.54 618.967 1763.87 C 615.498 1764.59 608.426 1762.43 604.498 1762.21 C 574.471 1760.54 553.27 1774.71 539.796 1800.49 L 538.628 1800.43 L 534.796 1795.32 C 522.944 1781.23 503.128 1776.75 485.807 1781.66 C 472.818 1785.34 467.083 1792.53 461.279 1803.71 C 459.563 1756.03 485.27 1723.76 533.158 1717.36 z" fill="rgb(75,152,206)" transform="translate(0,0)"></path>
<path d="M 522.693 1731.1 C 532.56 1730.66 543.989 1737.17 531.489 1742.28 C 513.721 1749.55 511.951 1752.87 499.605 1765.45 C 492.766 1767.79 485.578 1767.53 486.47 1759.17 C 487.642 1748.19 514.104 1733.82 522.693 1731.1 z" fill="rgb(127,175,214)" transform="translate(0,0)"></path>
<path d="M 1052.82 708.322 C 1061.57 706.802 1068.51 705.637 1076.81 702.353 C 1107.76 713.463 1130.32 728.711 1145.08 759.344 C 1166.65 804.131 1147.55 855.191 1102.16 875.49 C 1099.88 876.507 1097.59 877.482 1095.27 878.416 C 1082.09 870.865 1077.02 868.367 1061.55 867.28 C 1061.29 863.451 1061.25 859.375 1061.14 855.517 C 1079.03 850.341 1095.35 841.343 1103.73 824.192 C 1129.8 770.844 1099.18 730.736 1052.82 708.322 z" fill="rgb(162,162,191)" transform="translate(0,0)"></path>
<path d="M 1127.11 761.342 C 1144.8 769.124 1142.6 788.947 1138.19 804.52 C 1127.01 813.575 1130.18 796.209 1129.95 789.986 C 1129.6 780.37 1127.26 770.794 1127.11 761.342 z" fill="rgb(203,202,204)" transform="translate(0,0)"></path>
<path d="M 1128.09 815.409 C 1132.17 817.789 1132.84 819.06 1130.66 823.402 L 1129.99 824.805 C 1123.88 822.847 1125.99 821.391 1128.09 815.409 z" fill="rgb(203,202,204)" transform="translate(0,0)"></path>
<path d="M 1486.53 1510.28 C 1528.41 1456.35 1606.3 1513.7 1564.5 1574.08 C 1524.63 1577.57 1494.47 1595.56 1479.55 1633.91 C 1478.29 1632.17 1478.2 1632.24 1477.52 1630.32 C 1481.31 1594.99 1489.2 1591.01 1496.87 1560.53 L 1497.32 1558.77 C 1497.41 1558.42 1497.49 1558.07 1497.58 1557.71 C 1535.14 1578.86 1568.67 1532.87 1536.4 1513.29 L 1533.93 1513.11 L 1533.4 1514.4 C 1539.57 1520.64 1546.36 1524.17 1546.34 1534.24 C 1546.33 1540.77 1542.55 1547.22 1537.89 1551.47 C 1525.47 1562.81 1511.95 1562.2 1498.14 1554.47 C 1498.72 1536.56 1498.62 1525.23 1486.53 1510.28 z" fill="rgb(75,152,206)" transform="translate(0,0)"></path>
<path d="M 922.583 462.077 C 937.911 460.077 957.927 466.559 970.198 475.759 C 1006.32 502.841 1007.19 542.026 1013.5 581.149 C 1007.51 584.721 1005.7 586.03 1000.43 590.601 C 996.488 594.597 993.196 599.027 989.75 603.454 C 986.027 561.849 967.639 506.703 921.953 495.341 C 923.223 484.062 922.864 473.359 922.583 462.077 z" fill="rgb(211,176,122)" transform="translate(0,0)"></path>
<path d="M 516.289 441.118 C 520.106 440.903 543.451 438.782 539.03 448.475 C 529.746 468.832 531.35 493.969 539.349 513.903 C 531.038 520.493 528.696 522.968 523.78 532.397 C 519.832 531.035 515.828 529.844 511.778 528.827 C 502.465 527.545 498.065 527.71 488.626 528.443 C 465.059 495.379 473.04 450.719 516.289 441.118 z" fill="rgb(75,152,206)" transform="translate(0,0)"></path>
<path d="M 553.895 334.873 C 557.019 334.702 558.448 334.845 561.487 335.12 C 568.91 339.959 566.498 354.392 570.356 364.028 C 576.325 378.939 583.718 388.341 592.967 401.208 C 577.729 407.579 569.996 412.082 557.618 422.795 C 550.645 429.372 547.168 434.446 542.126 442.441 C 535.592 416.696 529.524 353.081 553.895 334.873 z" fill="rgb(232,231,231)" transform="translate(0,0)"></path>
<path d="M 665.809 1675.25 C 677.086 1674.31 682.261 1675.48 693.015 1677.62 C 689.798 1691.3 686.909 1702.16 681.149 1715.1 C 661.408 1710.35 643.846 1716.88 629.479 1730.73 C 622.743 1739.02 622.244 1742.25 619.332 1752.05 C 614.382 1714.03 623.941 1683.48 665.809 1675.25 z" fill="rgb(211,176,122)" transform="translate(0,0)"></path>
<path d="M 1402.54 810.756 C 1405.04 813.193 1411.72 821.576 1415.88 825.837 C 1412.03 827.281 1408.88 828.372 1405.01 829.965 C 1402.17 831.374 1398.95 832.714 1396.02 834.076 C 1398.45 825.611 1400.33 819.408 1402.54 810.756 z" fill="rgb(162,162,191)" transform="translate(0,0)"></path>
<path d="M 1477.52 1630.32 C 1478.2 1632.24 1478.29 1632.17 1479.55 1633.91 C 1479.06 1635.49 1478.77 1638.1 1477.42 1639.11 C 1476.51 1637.22 1477.03 1632.44 1477.52 1630.32 z" fill="rgb(75,109,148)" transform="translate(0,0)"></path>
<path d="M 511.207 673.902 C 515.214 674.918 516.885 673.886 516.45 677.792 C 513.977 677.905 512.809 675.7 511.207 673.902 z" fill="rgb(75,109,148)" transform="translate(0,0)"></path>
<path d="M 669.174 1786.94 C 699.884 1771.87 749.187 1786.26 771.597 1811.12 C 775.409 1815.34 778.354 1820.57 781.927 1824.78 L 783.455 1827.94 C 788.924 1842.9 789.015 1851.12 788.797 1867.06 C 816.61 1867.17 844.423 1867.01 872.234 1866.59 C 878.61 1842.98 884.771 1829.95 901.119 1811.43 C 902.626 1810.44 902.174 1810.41 903.212 1808.3 C 904.421 1806.6 907.788 1803.98 909.537 1801.94 L 911.031 1802.73 L 912.576 1801.28 C 954.54 1791.14 1003.5 1805.02 1027.06 1842.87 L 1027.7 1847.24 C 1033.38 1859.88 1032.96 1892.62 1026.17 1905.02 C 995.338 1921.21 910.534 1922.84 876.784 1912.04 C 873.897 1911.12 867.293 1908.15 866.217 1905.5 C 863.222 1898.13 868.615 1877.21 870.681 1870.09 C 843.322 1870.83 815.95 1870.99 788.584 1870.59 C 787.992 1875.45 787.591 1883.19 782.769 1886.14 C 756.368 1902.3 651.979 1906.21 628.711 1886.91 C 625.734 1881.04 629.278 1876.6 627.188 1870.95 L 627.95 1870.11 L 627.582 1869.21 C 605.955 1868.09 569.893 1870.82 551.317 1868.6 C 557.21 1867.46 619.081 1868.06 629.299 1868.09 C 634.147 1845.53 646.617 1804.21 666.077 1789.86 L 669.174 1786.94 z" fill="rgb(16,41,73)" transform="translate(0,0)"></path>
<metadata><recraft-signature>{"signed_by": "recraft", "signature_b64": "z7JVAT9mEfptrAIx9CX1N4oNVcAJ2GBJ9Fi2UFHK/q1x0V3Lfxu1oGW/sYgvrvDAuSnfLR1Q6IFFRPX7+6OkAw==", "signing_algo": "Ed25519", "generation_timestamp": 1778557571, "identifier": "07ea3257-c5d3-415b-b5c6-5e5515c44139"}</recraft-signature></metadata></svg>