<svg xmlns="http://www.w3.org/2000/svg" height="1024" preserveAspectRatio="none" style="display: block;" version="1.1" viewBox="0 0 2048 2048" width="1024">
<path d="M 0 0 L 2048 0 L 2048 2048 L 0 2048 L 0 0 z" fill="rgb(255,255,255)" transform="translate(0,0)"></path>
<path d="M 1011.39 211.404 C 1049.32 207.736 1099.58 214.911 1134.66 228.943 C 1186.38 249.629 1228.64 281.982 1250.71 334 C 1279.08 400.872 1257.33 460.906 1219.31 518.153 C 1207.92 536.783 1194.19 553.869 1185.68 574.116 C 1177.79 592.932 1186.18 635.059 1214.66 618.006 C 1241.81 601.746 1248.17 563.389 1255.73 535.016 C 1270.59 479.308 1298.01 432.001 1350.34 404.006 C 1393.33 380.514 1444.14 375.945 1490.63 391.392 C 1552.94 411.646 1615.46 468.744 1646.34 526.703 C 1669.97 571.063 1679.56 626.096 1663.84 674.997 C 1643.54 735.78 1604.14 770.567 1544.2 794.621 C 1522.45 803.346 1415.23 824.216 1429.5 867.952 C 1432.44 876.96 1460.87 878.097 1470.13 875.729 C 1484.47 872.061 1501.29 864.945 1515.26 859.064 C 1535.74 849.661 1559.69 841.704 1579.65 831.658 C 1616.48 812.485 1651.07 802.91 1692.5 813.935 C 1814.51 846.404 1857.09 986.161 1827.51 1098.09 C 1812.05 1156.56 1783.68 1205.34 1731.83 1237.08 C 1659.94 1281.1 1583.36 1257.43 1517.97 1214.92 C 1501.32 1205.66 1481.92 1187.8 1463.18 1183.96 C 1439.21 1179.05 1410.43 1190.9 1429.44 1218.35 C 1452.38 1251.49 1490.8 1252.82 1525.94 1262.87 C 1543.05 1267.67 1559.75 1273.83 1575.87 1281.3 C 1659.74 1321.09 1690.59 1424.74 1653.57 1507.1 C 1610.9 1602.03 1509.06 1681.39 1401.24 1666.83 C 1351.14 1659.74 1306.48 1631.5 1278.61 1589.27 C 1264.71 1568.03 1254.1 1540.18 1245.13 1516.47 C 1233.96 1486.93 1223.93 1433.23 1185.04 1428.44 C 1172.79 1432.29 1170.34 1455.47 1173.03 1466.47 C 1183.05 1507.51 1204.34 1549.44 1221.66 1587.86 C 1230.49 1607.44 1238.05 1620.79 1240.07 1641.97 C 1243.84 1684.29 1230.46 1726.35 1202.92 1758.7 C 1162.16 1807.43 1100.34 1831.69 1038.25 1836.94 C 958.199 1839.58 867.309 1818.5 817.219 1750.62 C 805.219 1734.4 796.356 1716.08 791.086 1696.6 C 773.374 1633.12 795.868 1581.77 829.311 1528.63 C 841.67 1507.56 861.869 1487.94 865.568 1463.14 C 869.581 1436.24 854.716 1409.02 827.745 1433.22 C 803.555 1454.93 800.044 1486.29 791.807 1516.1 C 780.08 1558.53 760.828 1595.25 726.408 1623.54 C 690.382 1653.55 643.897 1668 597.206 1663.69 C 480.618 1652.05 365.053 1523.61 378.058 1404.5 C 383.658 1348.19 416.97 1298.38 466.873 1271.69 C 491.515 1258.29 517.222 1250.04 543.716 1241.32 C 550.723 1239.01 558.069 1236.7 565.036 1234.16 C 577.617 1229.38 593.945 1224.84 604.08 1215.99 C 618.972 1202.99 636.647 1179.71 605.441 1173.65 C 585.704 1169.81 573.069 1174 554.999 1181.14 C 526.585 1192.38 499.347 1203.38 471.365 1215.4 C 459.214 1220.67 447.445 1227.36 434.823 1231.47 C 419.89 1236.23 404.243 1238.36 388.581 1237.77 C 343.326 1236.47 301.899 1216.22 271.136 1183.29 C 227.305 1136.37 211.185 1074.28 213.636 1011.26 C 216.214 944.981 238.195 880.497 288.098 834.717 C 355.512 772.873 436.664 778.296 511.961 821.987 C 534.406 835.011 572.723 863.616 596.918 864.231 C 605.192 864.441 614.365 862.649 620.421 856.572 C 623.698 853.317 625.49 848.855 625.372 844.237 C 625.254 837.543 621.682 831.024 617.773 825.811 C 599.854 801.915 574.812 798.158 547.51 792.041 C 533.52 788.907 518.988 785.235 505.515 780.474 C 476.522 770.228 453.681 759.353 431.098 738.146 C 398.967 707.944 380.156 666.212 378.807 622.136 C 375.096 504.294 502.319 381.342 618.478 377.9 C 650.73 376.787 682.627 384.92 710.409 401.338 C 771.265 436.614 791.137 492.468 811.734 555.148 C 817.969 572.342 824.329 593.383 838.537 605.758 C 846.292 612.513 862.781 625.633 870.954 613.89 C 887.07 590.574 870.889 561.236 862.236 538.779 C 848.805 503.924 830.494 469.98 816.022 436.133 C 796.285 386.947 811.751 328.252 845.393 289.318 C 888.54 239.383 947.53 217.092 1011.39 211.404 z" fill="rgb(48,57,232)" transform="translate(0,0)"></path>
<path d="M 946.464 494.8 C 1008.31 531.707 1061.98 531.991 1120.88 488.147 C 1084.29 534.219 1064.84 569.906 1070.32 630.67 C 1076.5 699.218 1135.79 763.803 1207.94 753.2 C 1290.01 741.138 1329.15 671.652 1342.25 597.31 C 1347.45 671.908 1388.16 708.305 1459.34 721.16 C 1444.29 724.004 1429.51 725.455 1414.53 729.058 C 1377.58 737.799 1341.78 762.348 1320.26 793.552 C 1281.51 849.755 1282.39 927.246 1343.82 966.978 C 1412.57 1011.44 1493.37 998.031 1553.8 946.719 C 1532.19 976.119 1520.02 1010.16 1525.75 1046.82 C 1530.32 1076.09 1542.72 1095.38 1559.51 1119.01 C 1486.05 1058.54 1382.87 1048.63 1315.73 1125.77 C 1267.52 1181.16 1296.11 1261.64 1348.71 1302.11 C 1382.25 1328.45 1412.87 1338.79 1454.78 1343.04 C 1417.77 1346.98 1384.31 1357.39 1360.19 1387.52 C 1346.4 1404.74 1334.89 1432.17 1331.7 1453.84 C 1330 1453.45 1329.96 1453 1329.14 1451.55 C 1324.13 1371.44 1249.02 1285.58 1162.63 1302.24 C 1106.89 1312.99 1066.78 1363.06 1058.76 1417.92 C 1050.88 1471.78 1068.5 1506.47 1099.14 1548.39 C 1039.37 1512.12 982.891 1518.2 928.501 1560.92 C 948.537 1535.65 964.655 1513.69 974.262 1482.08 C 986.861 1440.35 982.19 1395.3 961.297 1357.04 C 926.853 1293.03 857.842 1274.37 794.603 1309.25 C 757.377 1329.72 729.688 1364 717.503 1404.7 C 713.175 1418.69 711.362 1431.56 707.557 1444.34 L 707.299 1445.19 C 703.228 1414.35 699.393 1390.64 677.456 1366.59 C 658.554 1345.86 619.391 1329.01 591.864 1328.06 C 592.761 1327.38 593.646 1326.68 594.52 1325.97 C 622.631 1326.52 669.336 1308.12 691.492 1290.99 C 798.654 1208.15 765.371 1077.25 630.917 1056.95 C 583.758 1049.83 540.879 1066.3 504.09 1095.14 L 501.857 1092.91 C 538.039 1034.93 526.104 980.055 485.032 928.254 C 518.045 952.306 558.346 974.902 599.465 977.071 C 723.337 983.604 812.255 869.882 722.542 764.455 C 694.235 731.189 644.781 707.932 601.971 705.027 L 602.645 702.862 C 670.684 690.537 705.711 655.447 717.251 586.851 C 727.262 644.393 741.287 686.162 790.963 721.645 C 897.007 797.39 1014.83 693.735 989.127 576.621 C 982.023 544.183 967.992 519.32 946.464 494.8 z" fill="rgb(255,255,255)" transform="translate(0,0)"></path>
<path d="M 984.975 726.374 L 986.104 726.317 C 1033.1 724.359 1064.36 775.108 1044.4 816.82 C 1030.03 847.803 998.538 848.229 971.127 861.731 C 905.412 894.101 850.913 963.21 851.254 1038.66 C 851.445 1081.04 874.158 1121.53 904.275 1149.96 C 944.524 1187.96 995.216 1207.14 1050.43 1204.95 C 1138.91 1203.6 1206.04 1127.21 1206.01 1040.71 C 1206 1007.49 1184.32 972.873 1153.68 958.589 C 1106.28 936.499 1046.53 959.36 1013.6 996.904 C 997.63 1014.9 985.784 1038.28 1008.12 1057.68 C 1032.66 1078.33 1049.07 1054.65 1062.02 1035.8 C 1070.71 1023.16 1085.92 1013.84 1101.13 1012.04 C 1117.13 1010.3 1133.15 1015.14 1145.52 1025.44 C 1176.95 1051.91 1172.69 1095.27 1144.6 1122.77 C 1055.63 1209.87 902.294 1186.97 898.135 1044.2 C 899.856 1004.55 913.821 966.416 938.109 935.034 C 979.422 880.75 1028.27 857.958 1095.57 848.11 C 1146.68 840.873 1193.82 848.693 1234.96 881.086 C 1340.49 964.168 1325.3 1113.9 1248.93 1211.08 C 1207.17 1264.22 1146.07 1298.66 1078.99 1306.87 C 1059.7 1309.1 1041.99 1308.84 1022.94 1307.24 C 777.886 1286.71 647.991 1040.38 814.211 841.098 C 854.866 792.355 919.189 733.32 984.975 726.374 z" fill="rgb(48,57,232)" transform="translate(0,0)"></path>
<path d="M 1329.14 1451.55 C 1329.96 1453 1330 1453.45 1331.7 1453.84 C 1331.52 1456.15 1331.21 1458.16 1330.98 1460.45 L 1331.12 1459.89 C 1331.1 1460.01 1331.09 1460.12 1331.07 1460.24 C 1330.82 1460.85 1330.57 1461.45 1330.32 1462.05 C 1328.8 1461.75 1329.17 1453.1 1329.14 1451.55 z" fill="rgb(165,163,240)" transform="translate(0,0)"></path>
<path d="M 504.09 1095.14 C 503.13 1096 499.928 1099.23 498.709 1099.17 C 497.965 1098.1 501.281 1093.77 501.857 1092.91 L 504.09 1095.14 z" fill="rgb(242,240,248)" transform="translate(0,0)"></path>
<path d="M 591.864 1328.06 C 591.065 1328.06 588.951 1328.4 588.422 1327.48 C 588.879 1325.82 593.31 1325.99 594.52 1325.97 C 593.646 1326.68 592.761 1327.38 591.864 1328.06 z" fill="rgb(130,132,231)" transform="translate(0,0)"></path>
<path d="M 601.971 705.027 C 600.832 704.827 597.498 704.337 596.8 703.513 C 597.529 703.134 598.193 703.13 599.02 703.08 C 600.229 703.02 601.438 702.947 602.645 702.862 L 601.971 705.027 z" fill="rgb(165,163,240)" transform="translate(0,0)"></path>
<metadata><recraft-signature>{"signed_by": "recraft", "signature_b64": "leI0nh1GT5TkApMMc9VrSMgZDadgy6IvRs1QK48EzopiNsWv9WELc0w/SDOc49C0cVd9A+QZ4jHIaTLU8kmFAA==", "signing_algo": "Ed25519", "generation_timestamp": 1777382431, "identifier": "fbbe6c08-46b2-4fab-b426-5d80b3826759"}</recraft-signature></metadata></svg>