<svg xmlns="http://www.w3.org/2000/svg" height="1024" preserveAspectRatio="none" style="display: block;" version="1.1" viewBox="0 0 2048 2048" width="1024">
<defs>
	<linearGradient gradientUnits="userSpaceOnUse" id="Gradient1" x1="615.283" x2="674.522" y1="818.481" y2="890.448">
		<stop class="stop0" offset="0" stop-color="rgb(237,129,41)" stop-opacity="1"></stop>
		<stop class="stop1" offset="1" stop-color="rgb(231,90,51)" stop-opacity="1"></stop>
	</linearGradient>
</defs>
<path d="M 699.907 701.712 C 689.369 682.817 684.08 678.329 677.755 654.528 C 669.617 623.905 673.377 596.473 688.884 568.745 C 706.81 536.691 761.922 512.791 795.955 502.994 C 823.895 494.951 860.373 502.2 885.127 518.009 C 940.967 553.671 962.116 612.266 976.952 672.845 C 989.824 620.276 1025.55 540.124 1085.47 531.07 C 1119.67 525.902 1191.4 571.273 1226.45 581.956 C 1238.04 585.489 1258.3 596.253 1268.65 603.098 C 1278.07 609.33 1278.91 625.742 1279.75 636.138 C 1292.91 627.047 1302.98 618.017 1317.51 609.756 C 1339.62 597.274 1383.49 578.024 1409.74 587.089 C 1428.46 593.556 1470.04 618.872 1486.13 631.42 C 1509.82 649.891 1511.52 687.197 1503.67 714.431 C 1490.04 761.771 1452.71 794.645 1410.26 817.638 L 1409.51 832.499 C 1439.34 822.801 1466.67 816.307 1497.92 823.339 C 1572.01 840.014 1624.86 885.049 1623.26 963.697 C 1622.66 1010.85 1603.02 1055.76 1568.81 1088.21 C 1561.38 1095.23 1550.12 1104.19 1541.66 1110.42 C 1492.76 1146.42 1468.58 1233.7 1550.04 1247.82 C 1583.58 1232.44 1610.44 1205.24 1604.95 1165.92 C 1600.51 1134.07 1560.22 1168.72 1568.06 1189.62 C 1572.4 1201.19 1574.51 1204.81 1585.52 1210.76 L 1586.78 1211.42 C 1571.22 1211.39 1556.17 1211.81 1542.55 1202.89 C 1524.85 1191.31 1525.86 1168.27 1538.21 1153.06 C 1555.14 1129.15 1602.38 1127.74 1622.88 1147.6 C 1646.92 1170.88 1650.54 1211.6 1625.85 1236.31 C 1602.33 1259.86 1576.37 1269.02 1543.61 1270.94 C 1532.88 1271.57 1521.58 1270.2 1511.11 1268.23 C 1490.2 1262.64 1461.59 1250.68 1445.48 1236.22 C 1428.09 1220.6 1424.91 1201.39 1424.23 1179.38 C 1424.62 1175.24 1424.82 1171.35 1425.31 1167.18 C 1426.39 1162.75 1427.92 1157.78 1429.22 1153.38 C 1444.85 1104.91 1490.67 1089.23 1520.27 1049.38 C 1544.56 1016.67 1551.03 984.545 1546.17 944.199 C 1542.53 914.027 1526.29 878.828 1501.66 860.38 C 1479.66 869.309 1459.28 883.708 1441.69 899.486 C 1466.66 908.404 1484.23 914.366 1492.28 943.173 C 1493.44 947.212 1494.04 951.395 1494.05 955.6 C 1494.16 971.912 1490.79 992.682 1489.12 1009.04 C 1487.02 1029.6 1487.66 1051.85 1477.8 1070.32 C 1468.22 1088.25 1456.94 1092.97 1438.29 1098.38 C 1437.74 1109.62 1430.59 1139.79 1427.35 1151.12 C 1426.38 1156.01 1424.89 1160.53 1424.23 1165.62 C 1423.6 1167.33 1423.49 1167.58 1423.2 1169.35 C 1421.65 1173.97 1421 1177.06 1417.95 1180.88 C 1417.61 1182.58 1417.04 1184.84 1416.99 1186.51 C 1418.46 1205.22 1388.41 1333.38 1381.58 1357.9 C 1379.29 1366.36 1376.33 1374.63 1372.71 1382.61 C 1360.88 1408.59 1351.05 1413.76 1325.33 1423.91 C 1311.11 1429.52 1296.66 1435.8 1282.19 1441.19 C 1266.16 1477.07 1243.36 1473.8 1212.21 1486.35 C 1196.24 1492.79 1177.53 1506.41 1160.84 1512.85 C 1152.88 1515.92 1144.96 1521.24 1137 1519.21 C 1136.05 1518.97 1137.33 1516.9 1134.29 1515.52 C 1118.28 1519.7 1088.19 1534.46 1071.52 1540.82 C 1024.74 1558.69 997.829 1548.45 955.21 1527.48 C 951.618 1525.71 927.676 1514.86 924.31 1516.17 C 924.633 1518.84 924.788 1519.07 924.367 1521.68 C 913.677 1524.97 843.123 1486.35 829.441 1482.92 C 795.696 1474.46 786.654 1476.55 769.687 1442.1 C 751.092 1433.63 719.559 1423.64 703.596 1413.98 C 670.698 1394.06 660.605 1322.72 653.454 1287.95 C 646.639 1254.46 639.438 1221.05 631.853 1187.73 C 601.107 1233.24 561.688 1213.61 519.929 1238.71 C 462.633 1273.13 465.241 1366.36 536.623 1381.63 C 563.659 1387.42 590.326 1370.33 597.272 1343.85 C 603.071 1321.73 582.77 1283.19 559.351 1303.51 C 554.58 1307.7 551.648 1313.6 551.189 1319.94 C 550.494 1330.75 555.958 1338.42 562.777 1345.87 C 497.137 1349.16 522.362 1261.06 577.619 1270.55 C 592.291 1273.19 605.338 1281.49 613.954 1293.66 C 636.978 1326.67 611.784 1373.15 582.263 1392.57 C 541.376 1419.46 479.099 1414 445.381 1377.64 C 422.761 1353.25 411.558 1317.4 418.721 1285.03 C 428.657 1240.12 458.604 1206.16 505.418 1201.04 C 527.312 1197.98 566.573 1176.11 570.614 1151.29 C 577.89 1109.42 529.36 1090.66 500.22 1071.54 C 452.018 1039.91 419.073 1000.42 431.586 938.686 C 440.117 898.119 464.386 862.59 499.072 839.89 C 550.321 805.987 600.158 801.753 658.471 813.466 C 659.37 805.211 658.985 795.993 660.094 787.608 C 664.988 750.629 675.373 728.832 699.907 701.712 z M 1282.98 1438.26 C 1288.48 1436.27 1293.88 1434.03 1299.18 1431.54 C 1296.51 1428.87 1297 1427.4 1294.55 1430.07 C 1294.67 1428 1294.74 1425.92 1294.76 1423.85 C 1294.9 1415.11 1288.13 1431.54 1287.97 1431.92 C 1287.62 1430.21 1287.3 1428.7 1286.89 1426.99 L 1286.29 1428.79 L 1285.9 1429.99 C 1285 1432.75 1283.92 1435.49 1282.98 1438.26 z M 1057.81 935.962 C 1048.87 929.018 1037.78 917.913 1027.11 919.251 C 981.717 929.064 935.923 944.939 890.906 953.936 C 859.585 960.195 779.925 950.294 752.769 931.139 C 728.958 937.656 694.029 951.203 695.866 981.027 C 696.831 996.696 699.017 1012.17 701.098 1027.73 L 712.255 1108.29 C 721.647 1177.17 732.384 1245.86 744.46 1314.31 C 750.845 1349.52 757.861 1385.54 766.691 1420.26 C 773.88 1448.52 780.309 1468.95 811.95 1476.69 C 833.294 1479.05 857.313 1493.57 877.705 1502.67 C 892.579 1509.33 907.867 1515.03 923.474 1519.72 C 910.035 1508.56 903.928 1492.96 899.504 1476.38 C 888.017 1433.35 883.986 1388.08 878.6 1343.98 C 871.296 1288.64 864.879 1233.19 859.35 1177.65 C 856.573 1147.79 854.07 1117.12 853.965 1087.12 C 853.835 1049.94 850.174 1001.52 893.25 986.786 C 947.556 968.205 1003.13 953.29 1057.81 935.962 z M 1172.53 951.038 C 1207.55 986.669 1241.52 1046.57 1241.05 1097.26 C 1240.88 1121.43 1233.33 1144.96 1219.43 1164.72 C 1215.28 1170.57 1207.66 1178.11 1206.48 1184.81 C 1188.36 1287.47 1178.19 1396.08 1150.31 1496.69 L 1142.85 1516.06 C 1167.33 1509.81 1187.56 1495.03 1210.22 1484.71 C 1220.45 1480.05 1231.45 1477.72 1242.09 1474.26 C 1246.96 1472.67 1252.32 1470.66 1256.68 1467.96 C 1263.73 1463.61 1270.29 1456.91 1274.57 1449.83 C 1285.6 1431.56 1291.88 1402.84 1296.92 1382.09 C 1307.31 1339.24 1375.55 991.129 1369.28 967.389 C 1366.14 955.454 1356.28 946.237 1345.68 940.575 C 1340.22 937.654 1332.29 934.109 1326.1 933.785 C 1320.11 938.758 1312.17 945.011 1304.73 947.505 C 1266.2 960.423 1211.56 959.449 1172.53 951.038 z M 1070.61 789.354 C 1074.1 785.129 1078.81 779.265 1082.89 775.67 C 1100.26 760.359 1107.18 737.909 1119.49 719.042 C 1150.4 671.677 1198.61 601.931 1261 600.655 C 1233.08 586.667 1202.92 573.869 1174 561.969 C 1148.75 551.577 1113.49 530.515 1086.04 533.331 C 1028.07 541.73 985.068 627.668 979.417 679.93 C 979.095 682.9 980.13 691.766 980.706 695.113 C 985.568 723.35 984.58 750.069 984.078 778.532 C 1015.19 810.281 1018.68 829.581 1024.53 872.658 C 1037.98 840.346 1047.42 816.46 1070.61 789.354 z M 805.768 920.573 C 789.762 911.362 777.307 897.241 765.56 883.286 L 766.394 881.557 C 789.839 904.864 831.074 937.763 865.135 940.762 C 865.704 939.711 865.875 939.453 866.272 938.374 C 844.35 925.364 830.174 912.474 823.199 886.482 C 822.126 882.483 819.328 877.099 822.614 874.261 C 820.041 874.486 819.953 874.913 817.951 876.534 C 808.14 814.623 849.977 765.675 910.782 759.052 C 923.472 757.67 935.303 759.557 947.768 761.734 C 956.68 765.099 963.448 767.567 972.2 771.62 C 968.475 768.436 964.958 765.28 960.822 762.621 C 920.689 730.833 820.455 663.652 766.531 668.986 C 740.294 671.582 705.595 696.731 689.443 718.251 C 667.93 746.914 657.929 782.519 662.022 818.328 C 665.488 848.649 684.126 873.372 707.922 891.305 C 736.647 912.953 765.845 918.108 800.238 922.505 C 801.375 922.697 808.996 923.909 809.625 923.14 C 809.614 922.989 809.602 922.838 809.59 922.688 C 808.811 921.72 806.92 920.987 805.768 920.573 z M 1376.77 795.542 C 1377.97 794.415 1379.15 793.28 1380.33 792.136 C 1377.17 749.823 1346.5 718.511 1307.87 704.997 C 1342.26 734.759 1358.77 752.034 1376.77 795.542 z M 1508.28 1255.35 C 1524.78 1254.98 1529.28 1254.12 1545.2 1249.34 C 1506.86 1239.71 1486.73 1212.61 1496.27 1172.77 C 1506.59 1132.62 1536.13 1112.22 1565.74 1087.27 C 1598.44 1059.72 1616.87 1014.6 1620.54 972.875 C 1623.48 939.397 1614.09 892.954 1585.75 871.488 C 1583.39 871.007 1583.94 870.909 1581.65 871.123 C 1566.88 874.891 1553.12 878.681 1544.77 892.654 C 1542.25 896.876 1539.96 906.505 1541.18 910.928 C 1550.45 944.799 1554.61 975.422 1543.47 1010.62 C 1537.8 1028.1 1528.59 1044.23 1516.43 1058.01 C 1485.15 1093.8 1437.33 1115.92 1428.39 1166.62 C 1418.49 1222.78 1454.53 1255.04 1508.28 1255.35 z M 881.651 706.649 C 886.38 709.196 892.171 712.116 896.633 714.941 C 884.622 662.152 824.285 542.786 765.737 538.805 C 728.492 577.595 738.032 627.252 769.428 666.502 C 804.989 665.667 851.434 688.033 881.651 706.649 z M 1224.24 847.713 C 1228.79 848.769 1234.9 850.233 1239.47 851.144 C 1243.12 851.871 1260.47 856.993 1262.43 856.569 C 1265.86 855.829 1260.63 837.465 1259.33 835.019 C 1257.27 831.125 1255.12 821.463 1251.85 818.332 C 1233.61 828.841 1220.42 833.305 1203.27 842.304 C 1211.15 845.077 1217 845.493 1224.24 847.713 z M 1370.71 720.258 C 1380.6 732.672 1385.35 741.714 1393.85 753.259 C 1412.81 728.897 1441.15 663.688 1428.11 632.979 C 1426.3 631.783 1427.19 631.934 1425.53 632.057 C 1392.77 641.402 1355.9 663.415 1330.72 686.593 C 1347.72 697.012 1357.04 705.405 1370.71 720.258 z M 1175.79 1006.94 C 1177.02 1009.8 1178.87 1010.09 1181.79 1009.5 L 1183.13 1007.73 C 1185.26 1001.83 1177.31 995.118 1174.16 990.713 C 1172.97 989.051 1168.96 989.493 1167.09 989.479 C 1165.92 991.952 1165.74 993.226 1165 995.944 C 1169.12 999.694 1172.41 1002.54 1175.79 1006.94 z M 1343.81 919.577 C 1347.16 915.509 1346.34 913.232 1352.06 911.299 C 1354.02 910.636 1355.49 909.946 1357.11 908.599 L 1357.44 907.521 L 1357.58 907.689 C 1357 906.901 1353.81 907.744 1351.2 906.477 C 1347.4 907.776 1335.58 913.474 1331.19 915.478 L 1330.5 915.768 C 1321.63 918.437 1312.87 921.542 1303.91 924.159 C 1306.96 925.091 1309.71 926.128 1312.88 926.573 C 1317.29 925.672 1318.59 925.868 1323.17 925.897 L 1324.6 926.373 C 1331.69 928.385 1331.95 926.233 1336.97 932.128 C 1337.68 932.953 1343.8 933.675 1344.95 933.192 C 1351.08 930.606 1343.03 928.3 1341.71 926.002 C 1341.16 924.662 1343.4 920.521 1343.81 919.577 z M 1378.86 888.439 C 1378.68 890.662 1378.37 891.209 1377.94 893.384 C 1378.76 894.592 1383.26 893.992 1383.02 892.049 C 1382.83 890.577 1382.95 890.49 1383.1 888.924 C 1381.67 888.746 1380.29 888.546 1378.86 888.439 z M 758.751 925.709 C 759.88 925.316 761.012 924.931 762.147 924.552 C 771.712 921.379 761.077 919.265 757.359 918.589 C 754.78 917.403 753.824 917.179 751.071 916.46 C 749.985 915.781 750.28 915.904 749.045 915.575 L 747.472 916.183 C 745.946 916.758 743.765 916.549 742.562 917.35 L 742.481 917.512 C 743.089 918.762 749.703 919.695 751.049 919.938 C 753.237 921.958 755.116 924.247 757.24 926.333 C 757.744 926.125 758.247 925.917 758.751 925.709 z M 469.43 1044.7 C 481.633 1055.33 494.679 1064.96 508.44 1073.48 C 534.074 1089.71 571.682 1105.19 573.66 1140.12 C 575.671 1175.66 541.366 1191.47 513.162 1201.65 C 525.465 1203.04 534.539 1204.06 546.558 1207.19 C 557.043 1209.92 568.349 1219.96 577.225 1218.99 C 622.18 1210.48 643.11 1182.11 634.884 1135.97 C 630.299 1110.25 613.664 1091.06 592.637 1076.57 C 566.382 1058.79 529.191 1061.23 498.608 1053.62 C 491.207 1051.78 474.003 1045.44 469.43 1044.7 z M 668.986 887.655 C 649.552 866.859 614.614 842.449 585.767 839.911 C 549.871 859.403 521.092 889.799 509.363 929.565 C 499.507 962.712 503.494 998.438 520.416 1028.6 C 525.235 1037.27 533.824 1049.84 541.096 1056.68 L 573.439 1063.87 C 571.555 1057.26 570.326 1052.85 569.186 1046.1 C 567.946 1029.63 566.947 1013.09 566.051 996.515 C 564.596 969.598 558.346 943.042 577.106 920.382 C 580.673 916.073 588.225 909.458 593.289 907.553 C 616.571 898.794 644.819 894.348 668.986 887.655 z M 867.573 833.981 C 868.519 834.203 869.778 834.768 870.67 835.129 C 870.953 827.952 862.523 823.055 859.478 815.029 C 854.666 802.345 854.887 796.314 855.079 783.369 C 841.139 795.521 832.791 805.926 825.433 823.159 C 839.442 826.877 853.162 831.99 867.573 833.981 z M 1360.87 947.594 C 1361.96 949.345 1362.83 950.008 1364.31 951.504 C 1367.39 946.512 1367.49 947.448 1363.11 941.876 C 1362.83 940.676 1351.63 931.401 1352.61 938.028 C 1353.18 941.897 1360.03 940.467 1360.87 947.594 z M 1318.36 640.676 C 1312.85 653.83 1301.43 652.665 1311.52 656.915 C 1314.18 658.037 1316.06 664.02 1318.54 665.046 C 1319.56 665.532 1320.42 663.13 1320.62 662.577 C 1324.68 658.052 1326.69 656.277 1332.68 654.538 C 1337.6 653.109 1330.66 651.974 1329.55 651.828 C 1321.98 650.835 1321.71 645.661 1318.36 640.676 z M 448.801 1266.49 C 444.425 1280.51 442.763 1279.1 430.74 1287.95 C 447.176 1294.94 445.147 1296.53 453.209 1311.6 C 456.597 1297.85 459.297 1294.43 470.111 1285.78 C 469.327 1285.33 468.578 1284.82 467.814 1284.34 C 462.163 1280.75 457.494 1279.32 453.565 1273.42 C 452.025 1271.11 450.854 1268.4 448.801 1266.49 z M 599.554 809.385 C 548.628 813.373 502.447 831.967 467.024 871.444 C 428.787 914.058 414.548 991.304 460.191 1034.47 C 474.599 1048.1 510.853 1053.48 530.652 1056.57 L 534.824 1056.96 L 535.712 1056.03 C 533.915 1052.01 523.514 1039.06 519.956 1032.94 C 464.507 937.529 542.379 828.267 644.872 819.726 C 648.376 819.434 655.869 820.216 658.767 818.808 L 658.965 817.497 C 652.415 811.986 609.531 808.863 599.554 809.385 z M 1355.94 1114.43 C 1355.44 1114.83 1354.95 1115.22 1354.45 1115.61 C 1355.01 1115.3 1355.57 1114.99 1356.13 1114.67 C 1356.56 1114.29 1356.99 1113.91 1357.42 1113.53 C 1356.93 1113.83 1356.43 1114.13 1355.94 1114.43 z M 890.709 548.407 C 895.943 565.702 897.746 566.85 886.077 579.562 C 912.228 586.01 916.966 598.229 933.324 617.277 C 933.989 618.277 936.04 621.201 936.521 618.209 L 936.567 618.157 C 937.641 601.311 905.909 558.027 890.709 548.407 z" fill="rgb(0,0,0)" transform="translate(0,0)"></path>
<path d="M 1286.89 1426.99 C 1287.3 1428.7 1287.62 1430.21 1287.97 1431.92 C 1290.16 1431.29 1292.35 1430.67 1294.55 1430.07 C 1297 1427.4 1296.51 1428.87 1299.18 1431.54 C 1293.88 1434.03 1288.48 1436.27 1282.98 1438.26 C 1283.92 1435.49 1285 1432.75 1285.9 1429.99 L 1286.29 1428.79 L 1286.89 1426.99 z" fill="rgb(233,207,179)" fill-opacity="0.988235" transform="translate(0,0)"></path>
<path d="M 1287.97 1431.92 C 1288.13 1431.54 1294.9 1415.11 1294.76 1423.85 C 1294.74 1425.92 1294.67 1428 1294.55 1430.07 C 1292.35 1430.67 1290.16 1431.29 1287.97 1431.92 z" fill="rgb(250,242,226)" fill-opacity="0.0509804" transform="translate(0,0)"></path>
<path d="M 1286.89 1426.99 C 1306.57 1370.48 1314.38 1306.01 1327.39 1247.48 C 1332.36 1228.12 1332.98 1201.43 1339.8 1183.05 C 1346.44 1165.17 1413.36 1095.32 1432.07 1113.74 C 1433.12 1121.09 1420.64 1169.24 1417.95 1180.88 C 1417.61 1182.58 1417.04 1184.84 1416.99 1186.51 L 1395.69 1285.66 C 1388.14 1321.64 1379.31 1388.92 1347.39 1411.04 C 1338.08 1417.5 1311.07 1426.47 1299.18 1431.54 C 1296.51 1428.87 1297 1427.4 1294.55 1430.07 C 1294.67 1428 1294.74 1425.92 1294.76 1423.85 C 1294.9 1415.11 1288.13 1431.54 1287.97 1431.92 C 1287.62 1430.21 1287.3 1428.7 1286.89 1426.99 z" fill="rgb(229,207,179)" transform="translate(0,0)"></path>
<path d="M 931.355 1198.24 C 962.168 1195.77 1016.21 1229.01 1045.01 1241.31 C 1073.9 1253.64 1096.84 1228.75 1122.74 1218.15 C 1128.62 1215.74 1165.47 1205.46 1169.05 1206.79 C 1175.91 1214.75 1180.09 1237.25 1181.2 1247.58 C 1185.88 1291.28 1180.8 1335.55 1172.81 1378.55 C 1169.56 1396.03 1168 1410.91 1162.11 1427.98 C 1152.82 1454.54 1139.12 1479.35 1121.6 1501.37 C 1101.01 1528.44 1075.19 1539.52 1042.37 1546.16 C 1014.95 1551.7 976.294 1538.77 954.634 1523 C 919.944 1497.74 894.559 1439.42 888.5 1397.98 C 885.501 1381.24 884.47 1364.46 881.786 1347.67 C 874.876 1304.45 871.851 1257.16 897.046 1218.83 C 904.627 1207.29 917.678 1200.41 931.355 1198.24 z" fill="rgb(229,207,179)" transform="translate(0,0)"></path>
<path d="M 1027.11 919.251 C 1037.78 917.913 1048.87 929.018 1057.81 935.962 C 1003.13 953.29 947.556 968.205 893.25 986.786 C 850.174 1001.52 853.835 1049.94 853.965 1087.12 C 854.07 1117.12 856.573 1147.79 859.35 1177.65 C 864.879 1233.19 871.296 1288.64 878.6 1343.98 C 883.986 1388.08 888.017 1433.35 899.504 1476.38 C 903.928 1492.96 910.035 1508.56 923.474 1519.72 C 907.867 1515.03 892.579 1509.33 877.705 1502.67 C 857.313 1493.57 833.294 1479.05 811.95 1476.69 C 780.309 1468.95 773.88 1448.52 766.691 1420.26 C 757.861 1385.54 750.845 1349.52 744.46 1314.31 C 732.384 1245.86 721.647 1177.17 712.255 1108.29 L 701.098 1027.73 C 699.017 1012.17 696.831 996.696 695.866 981.027 C 694.029 951.203 728.958 937.656 752.769 931.139 C 779.925 950.294 859.585 960.195 890.906 953.936 C 935.923 944.939 981.717 929.064 1027.11 919.251 z M 752.579 973.972 C 757.388 974.104 763.655 973.802 768.171 974.437 L 770.673 972.272 C 767.823 971.338 767.068 971.159 764.501 969.757 C 750.181 965.28 734.503 954.963 729.433 971.405 C 728.582 974.166 728.639 978.278 732.947 979.38 C 739.125 978.301 745.386 974.96 752.579 973.972 z M 798.48 1434.8 C 797.197 1427.17 784.966 1405.44 781.11 1396.92 C 777.255 1388.17 774.107 1380.05 769.891 1371.22 C 771.407 1380.74 772.811 1389.58 775.929 1398.72 C 779.162 1405.29 779.467 1412.46 785.004 1419.74 C 789.779 1426.02 790.199 1431.27 798.48 1434.8 z" fill="rgb(223,52,53)" transform="translate(0,0)"></path>
<path d="M 769.891 1371.22 C 774.107 1380.05 777.255 1388.17 781.11 1396.92 L 775.929 1398.72 C 772.811 1389.58 771.407 1380.74 769.891 1371.22 z" fill="rgb(251,237,239)" fill-opacity="0.686275" transform="translate(0,0)"></path>
<path d="M 764.501 969.757 C 767.068 971.159 767.823 971.338 770.673 972.272 L 768.171 974.437 C 763.655 973.802 757.388 974.104 752.579 973.972 C 761.528 971.801 757.087 974.106 764.501 969.757 z" fill="rgb(252,249,250)" fill-opacity="0.137255" transform="translate(0,0)"></path>
<path d="M 770.673 972.272 C 776.913 972.749 780.651 974.581 786.518 976.694 C 780.723 976.179 773.868 975.593 768.171 974.437 L 770.673 972.272 z" fill="rgb(236,139,143)" transform="translate(0,0)"></path>
<path d="M 798.48 1434.8 C 801.678 1435.58 804.321 1440.16 804.758 1443.06 C 801.937 1440.8 796.535 1438.07 798.48 1434.8 z" fill="rgb(251,237,239)" transform="translate(0,0)"></path>
<path d="M 1326.1 933.785 C 1332.29 934.109 1340.22 937.654 1345.68 940.575 C 1356.28 946.237 1366.14 955.454 1369.28 967.389 C 1375.55 991.129 1307.31 1339.24 1296.92 1382.09 C 1291.88 1402.84 1285.6 1431.56 1274.57 1449.83 C 1270.29 1456.91 1263.73 1463.61 1256.68 1467.96 C 1252.32 1470.66 1246.96 1472.67 1242.09 1474.26 C 1231.45 1477.72 1220.45 1480.05 1210.22 1484.71 C 1187.56 1495.03 1167.33 1509.81 1142.85 1516.06 L 1150.31 1496.69 C 1178.19 1396.08 1188.36 1287.47 1206.48 1184.81 C 1207.66 1178.11 1215.28 1170.57 1219.43 1164.72 C 1233.33 1144.96 1240.88 1121.43 1241.05 1097.26 C 1241.52 1046.57 1207.55 986.669 1172.53 951.038 C 1211.56 959.449 1266.2 960.423 1304.73 947.505 C 1312.17 945.011 1320.11 938.758 1326.1 933.785 z M 1248.06 995.927 C 1258.67 987.715 1264.13 983.771 1277.25 980.878 C 1280.82 980.487 1282.35 980.141 1285.93 980.139 L 1287.15 977.96 C 1282.31 977.794 1279.77 977.873 1274.98 978.538 C 1258.4 978.791 1248.49 978.816 1232.08 977.798 C 1237.82 983.348 1243.04 989.709 1248.06 995.927 z" fill="rgb(223,52,53)" transform="translate(0,0)"></path>
<path d="M 1274.98 978.538 C 1279.77 977.873 1282.31 977.794 1287.15 977.96 L 1285.93 980.139 C 1282.35 980.141 1280.82 980.487 1277.25 980.878 L 1274.98 978.538 z" fill="rgb(251,237,239)" fill-opacity="0.988235" transform="translate(0,0)"></path>
<path d="M 1287.15 977.96 C 1290.11 977.816 1288.79 977.516 1291.31 978.19 C 1291.49 979.341 1286.66 979.998 1285.93 980.139 L 1287.15 977.96 z" fill="rgb(236,139,143)" transform="translate(0,0)"></path>
<path d="M 1060.48 938.174 C 1083.91 956.963 1117.3 991.487 1132.55 1016.62 C 1111.25 1023.74 1087.65 1027.73 1065.76 1033.22 L 1065.28 1035.46 C 1092.49 1032.32 1109.31 1031.47 1135.72 1022.54 C 1148.54 1044.38 1156.34 1068.79 1158.56 1094.01 C 1160.8 1121.55 1154.25 1148.26 1136.17 1169.54 C 1123.94 1171.61 1090.87 1168.29 1083.21 1158.93 C 1082.22 1160.51 1107.64 1146.23 1110.27 1144.52 C 1128.86 1132.46 1135.86 1101.15 1112.73 1090.65 C 1028.73 1052.5 1000.82 1164.84 1077.35 1204.57 C 1034.11 1217.22 1018.27 1209.06 976.095 1197.34 L 871.758 1167.24 C 862.374 1136.5 861.768 1101.69 866.687 1070.12 C 873.421 1026.91 890.981 1008.9 935.795 1017.52 L 936.677 1015.33 C 915.987 1010.17 896.025 1004.92 875.176 1000.28 C 895.583 986.512 920.778 980.869 944.495 973.581 L 1013.37 952.54 C 1029 947.869 1045.2 943.667 1060.48 938.174 z" fill="rgb(229,207,179)" transform="translate(0,0)"></path>
<path d="M 936.677 1015.33 C 941.96 1016.28 946.494 1018.27 951.547 1019.55 C 947.288 1019.77 947.323 1019.59 943.022 1018.84 L 937.727 1017.91 C 937.083 1017.78 936.439 1017.65 935.795 1017.52 L 936.677 1015.33 z" fill="rgb(95,80,69)" transform="translate(0,0)"></path>
<path d="M 1065.28 1035.46 C 1063.64 1035.73 1055.68 1036.56 1054.91 1035.62 L 1054.93 1035.56 C 1056.33 1034.87 1064.14 1033.46 1065.76 1033.22 L 1065.28 1035.46 z" fill="rgb(95,80,69)" transform="translate(0,0)"></path>
<path d="M 1086.04 533.331 C 1113.49 530.515 1148.75 551.577 1174 561.969 C 1202.92 573.869 1233.08 586.667 1261 600.655 C 1198.61 601.931 1150.4 671.677 1119.49 719.042 C 1107.18 737.909 1100.26 760.359 1082.89 775.67 C 1078.81 779.265 1074.1 785.129 1070.61 789.354 C 1047.42 816.46 1037.98 840.346 1024.53 872.658 C 1018.68 829.581 1015.19 810.281 984.078 778.532 C 984.58 750.069 985.568 723.35 980.706 695.113 C 980.13 691.766 979.095 682.9 979.417 679.93 C 985.068 627.668 1028.07 541.73 1086.04 533.331 z M 1021.05 637.619 C 1029.81 609.6 1045.64 582.114 1066.84 561.875 C 1068.77 560.037 1067.01 559.626 1065.41 559.568 C 1040.74 573.432 1022.85 592.935 1019.83 622.494 C 1019.55 625.186 1018.2 636.251 1020.33 638.376 C 1020.57 638.124 1020.81 637.871 1021.05 637.619 z M 1131.13 643.924 C 1133.01 640.183 1138.41 634.988 1138.71 633.403 C 1140.61 631.732 1144.1 629.487 1145.29 627.622 C 1149.05 624.627 1155.28 621.029 1155.76 615.973 C 1150.67 615.913 1150.61 616.954 1146.16 620.034 L 1145.62 620.412 C 1140.87 623.844 1128.66 634.031 1125.77 638.947 C 1121.21 643.136 1116.7 648.704 1113.2 653.811 C 1111.85 654.885 1110.26 657.23 1109.5 658.783 C 1105.52 664.247 1101.74 669.863 1098.18 675.616 L 1100.49 677.406 C 1104.51 672.037 1108.58 667.295 1112.96 662.226 C 1114.71 660.908 1116.86 658.262 1118.48 656.57 L 1119.08 655.957 C 1119.41 655.328 1119.75 654.699 1120.08 654.071 C 1122.72 652.206 1129.61 646.756 1131.13 643.924 z M 1170.58 605.594 L 1172.26 606.123 C 1178.8 608.257 1181.2 607.223 1188.3 607.791 C 1192.31 607.021 1203.22 602.97 1207.31 601.541 C 1189.68 600.48 1187.33 600.487 1170.58 605.594 z" fill="rgb(223,52,53)" transform="translate(0,0)"></path>
<path d="M 1155.76 615.973 C 1155.43 615.718 1154.39 615.049 1154.15 614.508 C 1155.47 612.183 1167.59 606.919 1170.58 605.594 L 1172.26 606.123 C 1178.8 608.257 1181.2 607.223 1188.3 607.791 C 1157.27 621.981 1156.4 625.137 1131.13 643.924 C 1133.01 640.183 1138.41 634.988 1138.71 633.403 C 1140.61 631.732 1144.1 629.487 1145.29 627.622 C 1149.05 624.627 1155.28 621.029 1155.76 615.973 z" fill="rgb(252,249,250)" transform="translate(0,0)"></path>
<path d="M 1125.77 638.947 C 1128.66 634.031 1140.87 623.844 1145.62 620.412 C 1144.59 623.791 1144.54 623.912 1142.79 626.894 C 1139.93 628.15 1137.53 630.183 1138.71 633.403 C 1138.41 634.988 1133.01 640.183 1131.13 643.924 C 1129.61 646.756 1122.72 652.206 1120.08 654.071 C 1122.01 647.341 1128.99 644.103 1125.77 638.947 z" fill="rgb(252,249,250)" fill-opacity="0.815686" transform="translate(0,0)"></path>
<path d="M 1170.58 605.594 C 1187.33 600.487 1189.68 600.48 1207.31 601.541 C 1203.22 602.97 1192.31 607.021 1188.3 607.791 C 1181.2 607.223 1178.8 608.257 1172.26 606.123 L 1170.58 605.594 z" fill="rgb(251,237,239)" fill-opacity="0.960784" transform="translate(0,0)"></path>
<path d="M 1125.77 638.947 C 1128.99 644.103 1122.01 647.341 1120.08 654.071 C 1119.75 654.699 1119.41 655.328 1119.08 655.957 C 1115.51 656.723 1115.59 656.595 1113.2 653.811 C 1116.7 648.704 1121.21 643.136 1125.77 638.947 z" fill="rgb(252,249,250)" fill-opacity="0.631373" transform="translate(0,0)"></path>
<path d="M 1109.5 658.783 C 1112.03 659.632 1111.78 659.911 1112.96 662.226 C 1108.58 667.295 1104.51 672.037 1100.49 677.406 L 1098.18 675.616 C 1101.74 669.863 1105.52 664.247 1109.5 658.783 z" fill="rgb(252,249,250)" fill-opacity="0.537255" transform="translate(0,0)"></path>
<path d="M 1145.62 620.412 L 1146.16 620.034 C 1150.61 616.954 1150.67 615.913 1155.76 615.973 C 1155.28 621.029 1149.05 624.627 1145.29 627.622 C 1143.88 627.54 1144.1 627.586 1142.79 626.894 C 1144.54 623.912 1144.59 623.791 1145.62 620.412 z" fill="rgb(252,249,250)" fill-opacity="0.215686" transform="translate(0,0)"></path>
<path d="M 1113.2 653.811 C 1115.59 656.595 1115.51 656.723 1119.08 655.957 L 1118.48 656.57 C 1116.86 658.262 1114.71 660.908 1112.96 662.226 C 1111.78 659.911 1112.03 659.632 1109.5 658.783 C 1110.26 657.23 1111.85 654.885 1113.2 653.811 z" fill="rgb(252,249,250)" fill-opacity="0.737255" transform="translate(0,0)"></path>
<path d="M 1091.55 688.454 C 1093.38 684.342 1095.46 679.157 1098.18 675.616 L 1100.49 677.406 C 1097.91 681.02 1094.45 685.032 1091.55 688.454 z" fill="rgb(249,194,200)" transform="translate(0,0)"></path>
<path d="M 1138.71 633.403 C 1137.53 630.183 1139.93 628.15 1142.79 626.894 C 1144.1 627.586 1143.88 627.54 1145.29 627.622 C 1144.1 629.487 1140.61 631.732 1138.71 633.403 z" fill="rgb(252,249,250)" fill-opacity="0.698039" transform="translate(0,0)"></path>
<path d="M 800.238 922.505 C 765.845 918.108 736.647 912.953 707.922 891.305 C 684.126 873.372 665.488 848.649 662.022 818.328 C 657.929 782.519 667.93 746.914 689.443 718.251 C 705.595 696.731 740.294 671.582 766.531 668.986 C 820.455 663.652 920.689 730.833 960.822 762.621 C 964.958 765.28 968.475 768.436 972.2 771.62 C 963.448 767.567 956.68 765.099 947.768 761.734 C 935.303 759.557 923.472 757.67 910.782 759.052 C 849.977 765.675 808.14 814.623 817.951 876.534 C 819.953 874.913 820.041 874.486 822.614 874.261 C 819.328 877.099 822.126 882.483 823.199 886.482 C 830.174 912.474 844.35 925.364 866.272 938.374 C 865.875 939.453 865.704 939.711 865.135 940.762 C 831.074 937.763 789.839 904.864 766.394 881.557 L 765.56 883.286 C 777.307 897.241 789.762 911.362 805.768 920.573 C 806.92 920.987 808.811 921.72 809.59 922.688 C 809.602 922.838 809.614 922.989 809.625 923.14 C 808.996 923.909 801.375 922.697 800.238 922.505 z M 678.936 802.419 C 675.501 811.061 681.194 818.238 680.865 800.745 C 682.048 779.379 694.905 752.251 707.726 735.104 C 711.956 730.62 716.16 726.893 720.149 722.721 C 738.172 710.431 747.548 707.8 765.615 698.155 C 740.427 698.191 726.35 699.655 707.057 717.532 C 705.68 718.825 704.795 719.642 703.586 721.128 C 681.788 743.614 678.222 772.332 678.936 802.419 z" fill="rgb(223,52,53)" transform="translate(0,0)"></path>
<path d="M 817.951 876.534 C 819.953 874.913 820.041 874.486 822.614 874.261 C 819.328 877.099 822.126 882.483 823.199 886.482 C 830.174 912.474 844.35 925.364 866.272 938.374 C 865.875 939.453 865.704 939.711 865.135 940.762 C 863.545 939.735 861.826 938.458 860.119 937.688 C 838.54 927.957 824.062 904.475 819.125 881.99 C 818.737 880.221 818.376 878.363 817.951 876.534 z" fill="rgb(18,4,4)" transform="translate(0,0)"></path>
<path d="M 947.768 761.734 C 956.48 759.581 954.201 765.397 960.822 762.621 C 964.958 765.28 968.475 768.436 972.2 771.62 C 963.448 767.567 956.68 765.099 947.768 761.734 z" fill="rgb(228,78,51)" transform="translate(0,0)"></path>
<path d="M 805.768 920.573 C 806.92 920.987 808.811 921.72 809.59 922.688 C 809.602 922.838 809.614 922.989 809.625 923.14 C 808.996 923.909 801.375 922.697 800.238 922.505 C 802.886 921.805 803.355 921.715 805.768 920.573 z" fill="rgb(184,66,47)" transform="translate(0,0)"></path>
<path d="M 765.56 883.286 C 761.48 878.939 761.03 877.54 758.088 872.512 C 760.59 875.049 764.543 878.676 766.394 881.557 L 765.56 883.286 z" fill="rgb(106,31,32)" transform="translate(0,0)"></path>
<path d="M 707.057 717.532 C 718.469 719.802 712.07 718.419 720.149 722.721 C 716.16 726.893 711.956 730.62 707.726 735.104 C 703.756 726.535 703.509 733.839 703.586 721.128 C 704.795 719.642 705.68 718.825 707.057 717.532 z" fill="rgb(252,249,250)" fill-opacity="0.219608" transform="translate(0,0)"></path>
<path d="M 680.865 800.745 C 681.194 818.238 675.501 811.061 678.936 802.419 L 680.865 800.745 z" fill="rgb(236,139,143)" fill-opacity="0.984314" transform="translate(0,0)"></path>
<path d="M 1086.48 775.846 C 1119.25 740.832 1231.54 679.04 1280.44 675.801 C 1343.68 671.61 1407.4 753.1 1407.3 814.51 C 1407.16 897.82 1329.23 916.582 1263.35 929.399 C 1261.32 929.498 1261.42 929.419 1260.45 927.663 C 1249.18 933.473 1215.43 948.674 1202.75 944.402 L 1203.17 943.413 L 1201.74 941.642 C 1233 927.815 1248.67 910.135 1259.84 878.341 L 1261.99 879.155 C 1278.97 820.814 1225.62 771.96 1172.66 761.487 C 1143.16 755.368 1112.44 761.449 1087.5 778.346 L 1086.48 775.846 z M 1376.77 795.542 C 1377.97 794.415 1379.15 793.28 1380.33 792.136 C 1377.17 749.823 1346.5 718.511 1307.87 704.997 C 1342.26 734.759 1358.77 752.034 1376.77 795.542 z" fill="rgb(223,52,53)" transform="translate(0,0)"></path>
<path d="M 1261.99 879.155 C 1253.5 910.401 1232.25 930.766 1203.17 943.413 L 1201.74 941.642 C 1233 927.815 1248.67 910.135 1259.84 878.341 L 1261.99 879.155 z" fill="rgb(18,4,4)" transform="translate(0,0)"></path>
<path d="M 1302.3 888.847 C 1294.2 903.665 1279.99 917.522 1265.83 926.487 C 1264.1 927.583 1264.1 927.697 1263.35 929.399 C 1261.32 929.498 1261.42 929.419 1260.45 927.663 C 1260.87 927.333 1261.29 927.002 1261.71 926.672 C 1278.37 916.207 1288.68 902.665 1302.3 888.847 z" fill="rgb(18,4,4)" transform="translate(0,0)"></path>
<path d="M 1380.33 792.136 C 1382.56 800.057 1382.92 806.769 1383.47 814.881 L 1383.11 813.988 C 1380.59 807.853 1378.55 801.962 1376.77 795.542 C 1377.97 794.415 1379.15 793.28 1380.33 792.136 z" fill="rgb(251,237,239)" transform="translate(0,0)"></path>
<path d="M 576.762 1065.16 C 575.799 1062.65 574.972 1060.14 574.298 1057.54 C 570.735 1043.77 565.491 965.042 566.943 951.627 C 567.82 943.176 570.608 935.036 575.097 927.823 C 579.841 920.167 586.61 913.972 594.656 909.922 C 605.167 904.558 664.15 891.869 679.582 888.199 C 700.487 910.748 720.249 906.581 747.444 915.066 L 749.045 915.575 L 747.472 916.183 C 745.946 916.758 743.765 916.549 742.562 917.35 L 742.481 917.512 C 743.089 918.762 749.703 919.695 751.049 919.938 C 753.237 921.958 755.116 924.247 757.24 926.333 C 681.04 948.398 689.764 969.065 699.532 1037.09 L 711.548 1122.87 C 681.683 1115.68 650.634 1105.39 620.661 1097.24 C 605.614 1081.7 596.324 1074.05 576.762 1065.16 z" fill="rgb(229,207,179)" transform="translate(0,0)"></path>
<path d="M 618.296 936.013 C 627.704 936.203 650.459 942.13 657.154 948.541 C 642.944 950.052 628.687 946.195 618.296 936.013 z" fill="rgb(0,0,0)" transform="translate(0,0)"></path>
<path d="M 660.011 950.276 C 661.998 950.12 663.995 949.889 665.985 950.137 C 668.373 950.435 690.121 954.442 690.594 955.58 C 690.949 956.435 690.159 957.449 689.784 958.12 C 688.336 958.539 684.344 959.871 683.001 959.702 C 678.02 959.078 660.196 956.454 660.011 950.276 z" fill="rgb(0,0,0)" transform="translate(0,0)"></path>
<path d="M 1581.65 871.123 C 1583.94 870.909 1583.39 871.007 1585.75 871.488 C 1614.09 892.954 1623.48 939.397 1620.54 972.875 C 1616.87 1014.6 1598.44 1059.72 1565.74 1087.27 C 1536.13 1112.22 1506.59 1132.62 1496.27 1172.77 C 1486.73 1212.61 1506.86 1239.71 1545.2 1249.34 C 1529.28 1254.12 1524.78 1254.98 1508.28 1255.35 C 1454.53 1255.04 1418.49 1222.78 1428.39 1166.62 C 1437.33 1115.92 1485.15 1093.8 1516.43 1058.01 C 1528.59 1044.23 1537.8 1028.1 1543.47 1010.62 C 1554.61 975.422 1550.45 944.799 1541.18 910.928 C 1539.96 906.505 1542.25 896.876 1544.77 892.654 C 1553.12 878.681 1566.88 874.891 1581.65 871.123 z M 1461.16 1162.09 C 1465.64 1155.88 1469.17 1152.79 1474.62 1147.49 C 1456.64 1137.69 1467.49 1139.91 1461.85 1132.94 C 1458.19 1140.04 1456.65 1143.52 1449.64 1147.64 C 1449 1148.02 1448.16 1148.6 1447.98 1149.37 C 1449.64 1150.83 1456.45 1153.34 1459.47 1160.03 C 1459.8 1160.76 1460.57 1161.51 1461.16 1162.09 z M 1587.49 985.133 C 1598.15 970.87 1594.96 983.065 1587.32 968.73 C 1586.33 970.14 1578.28 978.81 1578.66 977.481 C 1578.44 976.753 1587.09 984.71 1587.49 985.133 z" fill="rgb(248,156,50)" transform="translate(0,0)"></path>
<path d="M 950.586 871.941 C 970.392 871.095 1000.68 871.1 1019.16 875.69 C 1068.45 887.927 1129.68 912.577 1166.34 948.647 C 1222.33 1003.73 1271.77 1107.23 1207.59 1174.85 C 1183.49 1200.26 1135.44 1220.62 1102.26 1205.55 C 1101.26 1204.64 1100.46 1203.89 1099.5 1202.96 C 1100.38 1201.9 1099.91 1202.28 1101.05 1201.6 C 1129.43 1184.7 1148.08 1167.34 1157.58 1135.07 C 1168.14 1097.38 1157.45 1055.24 1139.1 1021.85 C 1125.67 997.399 1107.39 977.697 1087.64 958.695 C 1049.63 922.131 1002.62 889.739 951.589 875.221 L 950.586 871.941 z M 1165 995.944 C 1169.12 999.694 1172.41 1002.54 1175.79 1006.94 C 1177.02 1009.8 1178.87 1010.09 1181.79 1009.5 L 1183.13 1007.73 C 1185.26 1001.83 1177.31 995.118 1174.16 990.713 C 1172.97 989.051 1168.96 989.493 1167.09 989.479 C 1165.92 991.952 1165.74 993.226 1165 995.944 z" fill="rgb(248,156,50)" transform="translate(0,0)"></path>
<path d="M 1167.09 989.479 C 1168.96 989.493 1172.97 989.051 1174.16 990.713 C 1177.31 995.118 1185.26 1001.83 1183.13 1007.73 L 1181.79 1009.5 C 1178.87 1010.09 1177.02 1009.8 1175.79 1006.94 C 1172.41 1002.54 1169.12 999.694 1165 995.944 C 1165.74 993.226 1165.92 991.952 1167.09 989.479 z" fill="rgb(252,249,250)" fill-opacity="0.0313725" transform="translate(0,0)"></path>
<path d="M 1162.75 993.705 L 1165 995.944 C 1169.12 999.694 1172.41 1002.54 1175.79 1006.94 C 1174.39 1007.53 1157.97 1004.11 1153.4 1003.84 C 1158.4 999.622 1159.25 999.124 1162.75 993.705 z" fill="rgb(252,249,250)" transform="translate(0,0)"></path>
<path d="M 1156.24 969.947 C 1158.72 972.496 1163.22 976.706 1165.15 979.441 C 1169.76 985.952 1176.3 986.736 1167.09 989.479 C 1165.92 991.952 1165.74 993.226 1165 995.944 L 1162.75 993.705 C 1163.58 981.855 1161.62 980.503 1156.24 969.947 z" fill="rgb(250,242,226)" transform="translate(0,0)"></path>
<path d="M 1183.13 1007.73 C 1183.08 1007.74 1185.38 1007.08 1185.57 1007.44 C 1189.25 1014.09 1192.46 1024.66 1194.87 1031.88 C 1191.98 1027.53 1189.47 1023.34 1186.35 1019.12 C 1185.31 1017.71 1180.38 1012.93 1180.22 1012.61 C 1180.4 1011.77 1181.29 1010.92 1181.79 1009.5 L 1183.13 1007.73 z" fill="rgb(250,242,226)" transform="translate(0,0)"></path>
<path d="M 1378.86 888.439 C 1378.68 890.662 1378.37 891.209 1377.94 893.384 C 1378.76 894.592 1383.26 893.992 1383.02 892.049 C 1382.83 890.577 1382.95 890.49 1383.1 888.924 C 1470.73 912.908 1502.26 898.413 1486.93 1008.99 C 1477.31 1078.44 1485.81 1081.65 1413.59 1102.83 L 1349.29 1121.79 C 1358.16 1081.06 1363.97 1039.4 1370.6 998.257 C 1373.47 980.487 1376.23 966.83 1364.31 951.504 C 1367.39 946.512 1367.49 947.448 1363.11 941.876 C 1362.83 940.676 1351.63 931.401 1352.61 938.028 C 1353.18 941.897 1360.03 940.467 1360.87 947.594 C 1346.88 935.808 1330.07 931.207 1312.88 926.573 C 1317.29 925.672 1318.59 925.868 1323.17 925.897 L 1324.6 926.373 C 1331.69 928.385 1331.95 926.233 1336.97 932.128 C 1337.68 932.953 1343.8 933.675 1344.95 933.192 C 1351.08 930.606 1343.03 928.3 1341.71 926.002 C 1341.16 924.662 1343.4 920.521 1343.81 919.577 C 1347.16 915.509 1346.34 913.232 1352.06 911.299 C 1354.02 910.636 1355.49 909.946 1357.11 908.599 L 1357.44 907.521 L 1357.58 907.689 C 1357 906.901 1353.81 907.744 1351.2 906.477 C 1361.95 900.312 1368.9 895.573 1378.86 888.439 z M 1356.13 1114.67 C 1356.56 1114.29 1356.99 1113.91 1357.42 1113.53 C 1356.93 1113.83 1356.43 1114.13 1355.94 1114.43 C 1355.44 1114.83 1354.95 1115.22 1354.45 1115.61 C 1355.01 1115.3 1355.57 1114.99 1356.13 1114.67 z" fill="rgb(229,207,179)" transform="translate(0,0)"></path>
<path d="M 1454.52 941.183 C 1455.25 941.071 1456.06 940.817 1456.69 941.313 L 1456.66 941.482 C 1455.73 942.647 1446.27 946.756 1444.53 947.518 C 1424.75 956.165 1405.23 963.474 1383.43 963.819 C 1376.23 961.171 1379.49 960.717 1385.52 959.235 L 1393.01 957.353 C 1407.89 953.689 1422.7 948.704 1437.51 945.238 L 1454.52 941.183 z" fill="rgb(0,0,0)" transform="translate(0,0)"></path>
<path d="M 1355.94 1114.43 C 1356.43 1114.13 1356.93 1113.83 1357.42 1113.53 C 1356.99 1113.91 1356.56 1114.29 1356.13 1114.67 C 1355.57 1114.99 1355.01 1115.3 1354.45 1115.61 C 1354.95 1115.22 1355.44 1114.83 1355.94 1114.43 z" fill="rgb(233,207,179)" fill-opacity="0.572549" transform="translate(0,0)"></path>
<path d="M 819.055 502.413 C 820.751 502.395 822.448 502.416 824.144 502.475 C 928.662 505.279 975.543 632.219 980.582 720.25 C 981.65 738.923 981.531 756.582 980.981 775.272 C 968.409 762.597 947.317 748.39 932.463 738.256 L 900.748 717.287 C 879.037 654.877 851.058 581.918 791.559 545.789 C 772.348 534.124 751.871 533.65 730.074 535.159 C 760.569 517.758 783.01 504.668 819.055 502.413 z M 886.077 579.562 C 912.228 586.01 916.966 598.229 933.324 617.277 C 933.989 618.277 936.04 621.201 936.521 618.209 L 936.567 618.157 C 937.641 601.311 905.909 558.027 890.709 548.407 C 895.943 565.702 897.746 566.85 886.077 579.562 z" fill="rgb(248,156,50)" transform="translate(0,0)"></path>
<path d="M 634.101 1116.38 C 638.343 1116.05 643.796 1116.22 647.862 1116.59 C 677.067 1119.19 710.919 1167.19 719.745 1191.21 C 724.926 1205.32 730.644 1252.03 733.643 1269.58 C 740.958 1313.01 749.393 1356.26 758.94 1399.26 C 759.131 1400.16 767.002 1441.13 767.607 1437.74 L 765.38 1438.23 C 721.263 1416.77 689.191 1418.87 673.608 1363.49 C 663.618 1327.98 657.047 1292.26 649.23 1256.2 C 644.078 1232.43 638.364 1208.47 634.826 1184.47 C 634.163 1180.04 640.953 1156.91 639.406 1146.44 C 638.323 1139.11 632.021 1120.51 634.101 1116.38 z" fill="rgb(229,207,179)" transform="translate(0,0)"></path>
<path d="M 599.554 809.385 C 609.531 808.863 652.415 811.986 658.965 817.497 L 658.767 818.808 C 655.869 820.216 648.376 819.434 644.872 819.726 C 542.379 828.267 464.507 937.529 519.956 1032.94 C 523.514 1039.06 533.915 1052.01 535.712 1056.03 L 534.824 1056.96 L 530.652 1056.57 C 510.853 1053.48 474.599 1048.1 460.191 1034.47 C 414.548 991.304 428.787 914.058 467.024 871.444 C 502.447 831.967 548.628 813.373 599.554 809.385 z M 460.945 939.419 C 460.956 937.999 461.478 929.904 460.506 929.544 C 459.736 929.9 459.212 931.414 458.852 932.171 C 455.544 943.742 454.737 952.459 457.017 964.501 C 457.915 969.246 465.887 986.872 471.009 987.771 C 472.519 987.165 469.69 981.101 469.234 980.006 C 463.723 966.763 461.68 953.624 460.945 939.419 z" fill="rgb(248,156,50)" transform="translate(0,0)"></path>
<path d="M 458.852 932.171 C 459.212 931.414 459.736 929.9 460.506 929.544 C 461.478 929.904 460.956 937.999 460.945 939.419 C 460.134 936.874 459.499 934.764 458.852 932.171 z" fill="rgb(250,242,226)" fill-opacity="0.0588235" transform="translate(0,0)"></path>
<path d="M 540.321 1388.52 C 511.684 1395.43 498.387 1411.13 467.398 1392.13 C 444.404 1378.1 428.004 1355.42 421.874 1329.19 C 410.663 1280.98 437.846 1218.97 489.089 1207.55 C 514.872 1201.8 545.25 1206.1 567.651 1220.44 C 546.266 1224.71 530.943 1226.97 513.003 1240.32 C 494.264 1254.06 481.819 1274.75 478.451 1297.74 C 472.101 1341.08 496.985 1378.65 541.319 1384.67 C 547.347 1385.68 543.838 1386.78 540.321 1388.52 z M 430.74 1287.95 C 447.176 1294.94 445.147 1296.53 453.209 1311.6 C 456.597 1297.85 459.297 1294.43 470.111 1285.78 C 469.327 1285.33 468.578 1284.82 467.814 1284.34 C 462.163 1280.75 457.494 1279.32 453.565 1273.42 C 452.025 1271.11 450.854 1268.4 448.801 1266.49 C 444.425 1280.51 442.763 1279.1 430.74 1287.95 z" fill="rgb(248,156,50)" transform="translate(0,0)"></path>
<path d="M 541.319 1384.67 C 547.347 1385.68 543.838 1386.78 540.321 1388.52 L 541.319 1384.67 z" fill="rgb(229,140,54)" transform="translate(0,0)"></path>
<path d="M 469.43 1044.7 C 474.003 1045.44 491.207 1051.78 498.608 1053.62 C 529.191 1061.23 566.382 1058.79 592.637 1076.57 C 613.664 1091.06 630.299 1110.25 634.884 1135.97 C 643.11 1182.11 622.18 1210.48 577.225 1218.99 C 568.349 1219.96 557.043 1209.92 546.558 1207.19 C 534.539 1204.06 525.465 1203.04 513.162 1201.65 C 541.366 1191.47 575.671 1175.66 573.66 1140.12 C 571.682 1105.19 534.074 1089.71 508.44 1073.48 C 494.679 1064.96 481.633 1055.33 469.43 1044.7 z M 599.533 1129.82 C 599.437 1132.1 605.408 1138.43 607.14 1140.5 C 605.261 1134.99 604.709 1132.41 601.956 1127.25 C 596.584 1107.34 581.439 1097.48 567.533 1084.57 C 570.156 1088.63 577.587 1098.98 578.069 1103 C 580.717 1125.12 576.153 1119.47 599.533 1129.82 z" fill="rgb(248,156,50)" transform="translate(0,0)"></path>
<path d="M 601.956 1127.25 C 604.709 1132.41 605.261 1134.99 607.14 1140.5 C 605.408 1138.43 599.437 1132.1 599.533 1129.82 L 601.956 1127.25 z" fill="rgb(250,242,226)" fill-opacity="0.988235" transform="translate(0,0)"></path>
<path d="M 1056.63 877.799 C 1117.67 868.569 1175.42 856.532 1236.87 872.252 C 1242.42 873.673 1255.51 875.098 1259.84 878.341 C 1248.67 910.135 1233 927.815 1201.74 941.642 C 1178.65 949.72 1164.52 941.659 1146.16 928.746 C 1118.71 909.443 1087.86 889.575 1056.63 877.799 z" fill="rgb(223,52,53)" transform="translate(0,0)"></path>
<path d="M 1383.56 588.32 C 1419.05 584.443 1443.94 608.253 1473.96 625.197 C 1421.7 622.48 1383.71 641.69 1342.59 673.435 C 1337.95 677.244 1333.23 680.952 1328.43 684.557 C 1302.67 673.265 1293.08 670.405 1265.63 674.798 C 1273.75 662.205 1275.3 656.677 1278.24 642.107 C 1305.36 615.099 1345.71 594.207 1383.56 588.32 z M 1320.62 662.577 C 1324.68 658.052 1326.69 656.277 1332.68 654.538 C 1337.6 653.109 1330.66 651.974 1329.55 651.828 C 1321.98 650.835 1321.71 645.661 1318.36 640.676 C 1312.85 653.83 1301.43 652.665 1311.52 656.915 C 1314.18 658.037 1316.06 664.02 1318.54 665.046 C 1319.56 665.532 1320.42 663.13 1320.62 662.577 z" fill="rgb(248,156,50)" transform="translate(0,0)"></path>
<path d="M 1475.76 670.379 C 1507.25 671.105 1509.69 681.132 1502.7 709.531 C 1492.07 752.698 1457.45 786.741 1420.55 809.011 C 1418.93 810.122 1412.33 813.322 1410.23 814.403 C 1408.86 791.475 1405.47 777.712 1395.72 756.917 C 1401.21 746.139 1407.92 735.652 1413.57 724.79 C 1418.59 715.137 1423.44 697.986 1430.07 690.405 C 1440.9 677.999 1459.77 671.686 1475.76 670.379 z" fill="rgb(248,156,50)" transform="translate(0,0)"></path>
<path d="M 822.614 874.261 C 834.204 873.106 846.469 870.015 857.552 869.257 C 910.844 865.613 960.444 874.294 1006.85 902.089 C 994.494 906.121 985.459 909.546 973.583 914.311 C 953.065 922.543 920.23 939.835 899.354 942.618 C 888.145 944.129 876.736 942.665 866.272 938.374 C 844.35 925.364 830.174 912.474 823.199 886.482 C 822.126 882.483 819.328 877.099 822.614 874.261 z" fill="rgb(223,52,53)" transform="translate(0,0)"></path>
<path d="M 723.858 562.251 C 729.311 561.582 738.834 560.406 743.278 563.491 C 743.991 566.541 741.653 574.627 740.947 578.362 C 734.314 613.432 746.407 638.112 766.027 666.232 C 745.347 669.89 729.797 678.72 713.376 691.188 C 709.791 694.099 706.063 697.548 702.576 700.633 C 676.215 664.611 667.042 620.191 686.137 578.653 C 698.655 570.189 709.132 565.228 723.858 562.251 z" fill="rgb(248,156,50)" transform="translate(0,0)"></path>
<path d="M 1460.04 823.394 C 1494.75 819.487 1529.64 834.247 1559.42 850.034 C 1518.38 848.003 1495.9 856.273 1462.01 879.794 C 1453.82 885.914 1445.79 892.244 1437.92 898.778 C 1419.23 895.26 1399.95 889.654 1380.8 885.876 C 1397.9 869.004 1403.72 859.38 1408.77 835.874 C 1428.53 827.893 1439.06 825.499 1460.04 823.394 z" fill="rgb(248,156,50)" transform="translate(0,0)"></path>
<path d="M 907.695 762.366 C 951.159 754.931 999.234 783.789 1012.34 825.55 C 1015.89 836.87 1022.61 860.842 1021.16 872.355 C 1017.68 873.502 1017.69 872.826 1013.5 872.017 C 1005.49 870.301 994.329 869.254 986.146 868.831 C 973.364 823.863 933.949 787.141 894.312 764.617 C 898.667 763.702 903.281 763.058 907.695 762.366 z" fill="rgb(248,156,50)" transform="translate(0,0)"></path>
<path d="M 1179.96 772.344 C 1195.19 770.556 1200.08 773.242 1212.62 781.066 C 1169.86 794.286 1144.23 812.703 1112.76 844.029 C 1105.37 851.385 1098.24 860.63 1090.96 868.484 C 1084.77 870.197 1074.77 871.802 1068.21 873.053 C 1057.19 875.415 1049.96 877.16 1038.65 877.432 C 1079.05 830.397 1113.19 782.124 1179.96 772.344 z" fill="rgb(227,107,47)" transform="translate(0,0)"></path>
<path d="M 1091.06 1206.31 L 1089.23 1205.67 C 1068.62 1198.26 1051.8 1188.1 1042.19 1167.55 C 1034.43 1150.65 1033.71 1131.35 1040.19 1113.91 C 1052.02 1082.7 1078.03 1079.96 1106.06 1090.5 C 1084.05 1100.62 1078.36 1121.24 1076.13 1143.3 C 1073.2 1172.21 1072.55 1186.31 1096.68 1204.88 L 1091.06 1206.31 z" fill="rgb(223,52,53)" transform="translate(0,0)"></path>
<path d="M 557.793 1344.94 C 493.742 1333.15 538.316 1260.13 580.527 1273.66 C 644.792 1294.25 622.672 1366.77 575.294 1393.43 L 574.044 1394.13 L 572.392 1392.62 C 588.778 1377.37 597.811 1361.22 600.114 1337.47 C 602.277 1315.16 580.748 1280.01 556.872 1301.78 C 543.481 1313.98 547.711 1330.9 557.793 1344.94 z" fill="rgb(248,156,50)" transform="translate(0,0)"></path>
<path d="M 1510.6 1258.26 C 1556.62 1254.97 1583.32 1237.39 1606.02 1199.66 C 1609.96 1193.1 1627.94 1175.32 1634.36 1170.42 C 1668.07 1244.45 1555.03 1286.72 1496.09 1260.76 C 1494.98 1260.52 1490.7 1259.44 1490.24 1258 C 1490.23 1257.97 1490.27 1257.77 1490.33 1257.76 C 1493.54 1257.49 1508.87 1258.23 1510.6 1258.26 z" fill="rgb(223,52,53)" transform="translate(0,0)"></path>
<path d="M 1496.09 1260.76 C 1494.98 1260.52 1490.7 1259.44 1490.24 1258 C 1490.23 1257.97 1490.27 1257.77 1490.33 1257.76 C 1493.54 1257.49 1508.87 1258.23 1510.6 1258.26 C 1503.52 1260.18 1500.41 1258.47 1496.09 1260.76 z" fill="rgb(228,78,51)" transform="translate(0,0)"></path>
<path d="M 1144.29 762.409 C 1161.45 761.041 1173.65 764.502 1190.08 768.479 C 1187.79 768.608 1185.51 768.772 1183.23 768.971 C 1155.47 771.447 1122.08 788.555 1100.67 805.838 C 1083.34 819.833 1067.43 838.624 1053.1 855.674 L 1036.98 875.831 L 1026.43 874.206 C 1036.49 852.598 1046.5 823.322 1062.2 805.616 C 1087.22 777.405 1107.36 765.509 1144.29 762.409 z" fill="rgb(248,156,50)" transform="translate(0,0)"></path>
<path d="M 1576.88 1208.68 C 1559.92 1208.59 1537.33 1205.68 1533.02 1185.5 C 1525.37 1149.77 1566.68 1129.48 1597.02 1137.81 C 1615.72 1142.94 1622.64 1148.15 1632.62 1164.67 C 1632.59 1164.64 1630.66 1163.1 1630.62 1163.06 C 1621.32 1153.31 1597.57 1145.81 1584.85 1153.27 C 1582.52 1156.04 1580.27 1157.12 1576.94 1158.48 C 1560.81 1170.97 1562.73 1193.05 1575.65 1207.31 L 1576.88 1208.68 z" fill="rgb(248,156,50)" transform="translate(0,0)"></path>
<path d="M 1576.94 1158.48 C 1580.44 1155.26 1580.5 1155.27 1584.85 1153.27 C 1582.52 1156.04 1580.27 1157.12 1576.94 1158.48 z" fill="rgb(18,4,4)" transform="translate(0,0)"></path>
<path d="M 638.778 823.356 C 644.224 822.59 653.746 822.949 659.505 822.968 C 664.801 848.263 673.77 863.445 692.106 881.449 C 685.473 883.824 679.484 885.236 672.757 887.074 C 667.387 881.689 663.112 878.272 657.522 873.215 C 632.502 853.68 621.935 845.229 589.935 837.708 C 607.405 829.665 619.896 826.363 638.778 823.356 z" fill="url(#Gradient1)" transform="translate(0,0)"></path>
<path d="M 819.589 847.012 C 820.559 841.257 821.371 830.744 825.432 827.047 C 834.381 827.109 856.416 833.993 865.767 836.622 L 867.573 833.981 C 868.519 834.203 869.778 834.768 870.67 835.129 L 870.284 837.201 C 877.535 839.367 889.78 849.13 897.435 853.246 C 909.241 859.596 916.634 862.167 929.063 866.34 C 926.309 867.855 926.275 867.804 923.282 868.561 C 902.526 866.312 882.791 866.408 862.406 865.431 C 853.157 864.988 828.473 852.196 819.589 847.012 z" fill="rgb(223,52,53)" transform="translate(0,0)"></path>
<path d="M 867.573 833.981 C 868.519 834.203 869.778 834.768 870.67 835.129 L 870.284 837.201 C 868.775 837.04 867.268 836.847 865.767 836.622 L 867.573 833.981 z" fill="rgb(18,4,4)" transform="translate(0,0)"></path>
<path d="M 1148.36 860.382 C 1155.79 857.864 1190.37 845.555 1196.05 845.52 C 1211.17 845.426 1245 855.342 1260.1 859.352 L 1261.01 860.598 C 1256.66 864.224 1234.15 867.533 1228.13 867 C 1219.45 866.231 1208.86 864.14 1199.99 863.099 C 1183.05 861.238 1165.96 860.993 1148.97 862.367 C 1148.68 861.563 1148.5 861.24 1148.36 860.382 z" fill="rgb(223,52,53)" transform="translate(0,0)"></path>
<path d="M 1114.98 1109.13 C 1127.3 1108.38 1126.89 1112.02 1122.49 1124.5 C 1117.15 1139.65 1099.71 1148.79 1085.25 1154.32 C 1082.65 1155.24 1080.07 1156.02 1077.41 1156.7 C 1080.26 1130.97 1087.15 1115.69 1114.98 1109.13 z" fill="rgb(228,78,51)" transform="translate(0,0)"></path>
<path d="M 1338.79 920.347 C 1340.71 920.126 1341.95 920.027 1343.81 919.577 C 1343.4 920.521 1341.16 924.662 1341.71 926.002 C 1343.03 928.3 1351.08 930.606 1344.95 933.192 C 1343.8 933.675 1337.68 932.953 1336.97 932.128 C 1331.95 926.233 1331.69 928.385 1324.6 926.373 C 1329.05 923.512 1333.5 921.401 1338.79 920.347 z" fill="rgb(229,207,179)" fill-opacity="0.909804" transform="translate(0,0)"></path>
<path d="M 1331.19 915.478 C 1335.58 913.474 1347.4 907.776 1351.2 906.477 C 1353.81 907.744 1357 906.901 1357.58 907.689 L 1357.44 907.521 L 1357.11 908.599 C 1355.49 909.946 1354.02 910.636 1352.06 911.299 C 1346.34 913.232 1347.16 915.509 1343.81 919.577 C 1341.95 920.027 1340.71 920.126 1338.79 920.347 C 1342.89 913.722 1337.42 917.332 1331.19 915.478 z" fill="rgb(229,207,179)" fill-opacity="0.886275" transform="translate(0,0)"></path>
<path d="M 1330.5 915.768 L 1331.19 915.478 C 1337.42 917.332 1342.89 913.722 1338.79 920.347 C 1333.5 921.401 1329.05 923.512 1324.6 926.373 L 1323.17 925.897 C 1321.12 925.577 1315.84 925.547 1314.75 923.296 C 1316.9 919.957 1326.44 926.077 1330.5 915.768 z" fill="rgb(229,207,179)" fill-opacity="0.780392" transform="translate(0,0)"></path>
<path d="M 1303.91 924.159 C 1312.87 921.542 1321.63 918.437 1330.5 915.768 C 1326.44 926.077 1316.9 919.957 1314.75 923.296 C 1315.84 925.547 1321.12 925.577 1323.17 925.897 C 1318.59 925.868 1317.29 925.672 1312.88 926.573 C 1309.71 926.128 1306.96 925.091 1303.91 924.159 z" fill="rgb(233,207,179)" fill-opacity="0.980392" transform="translate(0,0)"></path>
<path d="M 1360.87 947.594 C 1360.03 940.467 1353.18 941.897 1352.61 938.028 C 1351.63 931.401 1362.83 940.676 1363.11 941.876 C 1367.49 947.448 1367.39 946.512 1364.31 951.504 C 1362.83 950.008 1361.96 949.345 1360.87 947.594 z" fill="rgb(229,207,179)" fill-opacity="0.878431" transform="translate(0,0)"></path>
<path d="M 751.071 916.46 C 753.824 917.179 754.78 917.403 757.359 918.589 C 756.81 920.064 758.529 922.769 758.751 925.709 C 758.247 925.917 757.744 926.125 757.24 926.333 C 755.116 924.247 753.237 921.958 751.049 919.938 C 749.784 918.302 750.074 918.217 751.071 916.46 z" fill="rgb(233,207,179)" fill-opacity="0.121569" transform="translate(0,0)"></path>
<path d="M 757.359 918.589 C 761.077 919.265 771.712 921.379 762.147 924.552 C 761.012 924.931 759.88 925.316 758.751 925.709 C 758.529 922.769 756.81 920.064 757.359 918.589 z" fill="rgb(233,207,179)" fill-opacity="0.0235294" transform="translate(0,0)"></path>
<path d="M 1099.5 1202.96 C 1100.46 1203.89 1101.26 1204.64 1102.26 1205.55 L 1100.82 1207.73 C 1097.28 1207.99 1094.65 1207.07 1091.06 1206.31 L 1096.68 1204.88 L 1097.66 1204.96 L 1099.5 1202.96 z" fill="rgb(228,78,51)" transform="translate(0,0)"></path>
<path d="M 1099.5 1202.96 C 1100.46 1203.89 1101.26 1204.64 1102.26 1205.55 L 1100.82 1207.73 C 1099.67 1206.65 1098.93 1205.87 1097.66 1204.96 L 1099.5 1202.96 z" fill="rgb(18,4,4)" transform="translate(0,0)"></path>
<path d="M 749.045 915.575 C 750.28 915.904 749.985 915.781 751.071 916.46 C 750.074 918.217 749.784 918.302 751.049 919.938 C 749.703 919.695 743.089 918.762 742.481 917.512 L 742.562 917.35 C 743.765 916.549 745.946 916.758 747.472 916.183 L 749.045 915.575 z" fill="rgb(233,207,179)" fill-opacity="0.54902" transform="translate(0,0)"></path>
<path d="M 929.063 866.34 C 930.908 866.775 934.082 867.187 935.375 868.54 C 935.42 870.075 924.485 868.739 923.282 868.561 C 926.275 867.804 926.309 867.855 929.063 866.34 z" fill="rgb(184,66,47)" transform="translate(0,0)"></path>
<path d="M 1378.86 888.439 C 1380.29 888.546 1381.67 888.746 1383.1 888.924 C 1382.95 890.49 1382.83 890.577 1383.02 892.049 C 1383.26 893.992 1378.76 894.592 1377.94 893.384 C 1378.37 891.209 1378.68 890.662 1378.86 888.439 z" fill="rgb(229,207,179)" fill-opacity="0.505882" transform="translate(0,0)"></path>
<path d="M 572.392 1392.62 L 574.044 1394.13 C 569.706 1397.08 564.946 1398.74 560.105 1400.89 C 563.472 1398.54 568.982 1394.58 572.392 1392.62 z" fill="rgb(184,66,47)" transform="translate(0,0)"></path>
<path d="M 1086.48 775.846 L 1087.5 778.346 C 1086.74 778.934 1081.4 783.608 1080.66 782.352 C 1080.86 780.884 1085.25 777.018 1086.48 775.846 z" fill="rgb(228,78,51)" transform="translate(0,0)"></path>
<path d="M 951.589 875.221 C 950.362 874.942 944.844 874.076 943.854 872.955 C 943.718 872.8 943.75 872.773 943.807 872.617 C 944.904 871.688 949.196 871.938 950.586 871.941 L 951.589 875.221 z" fill="rgb(229,140,54)" transform="translate(0,0)"></path>
<path d="M 1148.97 862.367 C 1144.02 864.274 1139.54 862.272 1148.36 860.382 C 1148.5 861.24 1148.68 861.563 1148.97 862.367 z" fill="rgb(106,31,32)" transform="translate(0,0)"></path>
<path d="M 607.352 676.706 C 615.336 708.701 618.023 707.918 650.285 715.389 C 622.822 717.597 613.875 721.07 608.21 749.764 C 607.869 750.778 607.989 750.655 607.439 751.383 C 606.726 750.844 606.17 746.38 606.101 745.488 C 604.176 720.854 590.238 719.674 569.845 713.615 C 602.984 706.726 597.563 705.513 607.352 676.706 z" fill="rgb(248,156,50)" transform="translate(0,0)"></path>
<path d="M 1542.69 736.248 C 1550.86 762.227 1547.03 761.411 1575.72 769.675 C 1550.98 776.93 1550.19 778.031 1543.96 801.714 L 1542 801.182 C 1538.06 785.279 1535.59 773.811 1515.98 771.494 L 1514.98 768.486 C 1535.4 762.321 1538.01 757.457 1542.69 736.248 z" fill="rgb(223,52,53)" transform="translate(0,0)"></path>
<path d="M 1645.28 1040.64 C 1653.17 1064.98 1649.06 1064.45 1675.55 1072.34 L 1673.65 1072.93 C 1653.47 1079.42 1649.79 1082.73 1645.2 1104.32 C 1640.67 1094.28 1642.17 1082.64 1630.43 1078.19 C 1624.53 1075.95 1619.14 1074.51 1613 1072.99 C 1636.85 1067.21 1640.2 1063.86 1645.28 1040.64 z" fill="rgb(248,156,50)" transform="translate(0,0)"></path>
<path d="M 1462.33 1295.56 C 1464.92 1301.99 1464.91 1307.69 1468.44 1314.31 C 1473.38 1323.58 1482.58 1324.63 1491.65 1327.34 C 1470.62 1334.07 1466.06 1336.04 1462.29 1358.84 C 1453.55 1332.44 1459.52 1336.77 1431.19 1327.48 C 1453.4 1322.57 1457.44 1317.39 1462.33 1295.56 z" fill="rgb(248,156,50)" transform="translate(0,0)"></path>
<path d="M 622.617 563.753 C 624.652 565.785 626.145 573.037 628.144 576.431 C 633.575 585.651 640.18 586.859 649.633 589.716 C 632.174 596.039 628.412 598.321 623.15 617.513 C 620.749 612.583 620.582 607.931 617.826 602.588 C 612.9 593.039 601.5 591.819 591.809 589.326 C 609.98 586.036 618.093 584.317 622.617 563.753 z" fill="rgb(248,156,50)" transform="translate(0,0)"></path>
<path d="M 617.196 1426.55 C 620.319 1433.98 620.416 1435.78 624.914 1442.59 C 630.035 1445.54 632.56 1446.67 637.939 1449.04 C 630.907 1452.7 628.748 1452.98 622.126 1458.04 C 620.87 1461.21 618.516 1469.65 616.757 1470.84 C 613.379 1454.81 609.012 1453.91 594.039 1448.72 C 609.866 1444.66 612.486 1442.45 617.196 1426.55 z" fill="rgb(248,156,50)" transform="translate(0,0)"></path>
<path d="M 980.675 505.763 C 988.134 513.336 977.829 521.062 1000.61 529.189 C 982.792 537.768 986.991 538.407 980.651 553.839 C 977.36 536.625 975.489 535.194 960.19 529.174 C 974.411 523.813 976.387 521.036 980.675 505.763 z" fill="rgb(248,156,50)" transform="translate(0,0)"></path>
<path d="M 488.537 770.673 C 495.559 777.468 487.87 784.216 506.876 790.328 L 511.066 791.688 C 502.864 794.602 501.093 794.805 493.45 799.27 C 492.034 804.05 491.176 808.53 489.965 813.333 C 482.388 795.769 483.816 797.405 465.479 790.834 C 480.946 787.961 483.692 785.731 488.537 770.673 z" fill="rgb(223,52,53)" transform="translate(0,0)"></path>
<path d="M 1296.5 535.767 C 1298.53 537.856 1298.55 540.762 1300 544.004 C 1302.87 550.407 1308.39 552.413 1314.47 555.058 C 1293.67 566.8 1301.65 573.015 1297.38 576.519 C 1296.96 576.564 1297.24 576.573 1296.44 576.384 C 1295.26 572.507 1294.3 568.568 1292.96 564.738 C 1285.77 559.04 1283.86 558.482 1275.5 555.434 C 1281.48 553.201 1285.1 552.113 1290.41 548.291 L 1292.01 547.166 C 1294.61 541.725 1294.81 541.589 1296.5 535.767 z" fill="rgb(223,52,53)" transform="translate(0,0)"></path>
<path d="M 433.641 1092.21 C 439.029 1106.38 437.513 1107.08 452.441 1112.4 L 452.163 1112.35 C 448.28 1114.27 444.824 1116.01 441.068 1118.14 C 435.92 1126.28 437.457 1126.34 434.21 1134.39 C 429.642 1119.71 427.605 1117.29 413.118 1111.6 C 426.628 1107.33 429.81 1106.34 433.641 1092.21 z" fill="rgb(223,52,53)" transform="translate(0,0)"></path>
<path d="M 1677.6 1123.91 C 1679.17 1127.8 1680.55 1131.74 1682.37 1135.5 L 1682.85 1136.53 C 1687.66 1139.56 1689.47 1140.57 1694.55 1143 C 1684.09 1146.78 1682.7 1147.96 1678.49 1157.83 L 1677.09 1158.26 C 1671.95 1150.06 1671.02 1147.7 1661.01 1143.85 C 1660.5 1143.66 1660.08 1143.48 1659.76 1143.04 C 1662.51 1138.64 1670.51 1143.12 1677.6 1123.91 z" fill="rgb(248,156,50)" transform="translate(0,0)"></path>
<path d="M 1424.23 1165.62 C 1424.89 1160.53 1426.38 1156.01 1427.35 1151.12 L 1429.22 1153.38 C 1427.92 1157.78 1426.39 1162.75 1425.31 1167.18 L 1424.23 1165.62 z" fill="rgb(171,164,161)" fill-opacity="0.964706" transform="translate(0,0)"></path>
<path d="M 1424.23 1165.62 L 1425.31 1167.18 C 1424.82 1171.35 1424.62 1175.24 1424.23 1179.38 C 1423.88 1176.01 1423.63 1172.72 1423.2 1169.35 C 1423.49 1167.58 1423.6 1167.33 1424.23 1165.62 z" fill="rgb(184,173,181)" fill-opacity="0.156863" transform="translate(0,0)"></path>
<path d="M 1515.98 771.494 C 1515.25 771.374 1511.41 771.237 1511.66 770.005 C 1512.45 769.071 1513.85 768.826 1514.98 768.486 L 1515.98 771.494 z" fill="rgb(228,78,51)" fill-opacity="0.831373" transform="translate(0,0)"></path>
<path d="M 1542 801.182 L 1543.96 801.714 C 1543.27 805.698 1542.29 803.7 1542 801.182 z" fill="rgb(228,78,51)" fill-opacity="0.890196" transform="translate(0,0)"></path>
<path d="M 1678.49 1157.83 C 1678.5 1158.13 1678.83 1160.39 1677.77 1160.18 C 1677.18 1159.68 1677.24 1159.07 1677.09 1158.26 L 1678.49 1157.83 z" fill="rgb(248,156,50)" fill-opacity="0.92549" transform="translate(0,0)"></path>
<metadata><recraft-signature>{"signed_by": "recraft", "signature_b64": "ZmA/GyFbauiFaRUlD39lo3EJcpgKWpXDOq9YwgvGLotELBmStHafD1MDuv/55XgN8W68TAoOzuxKJOumVkQUAw==", "signing_algo": "Ed25519", "generation_timestamp": 1779105839, "identifier": "85d09d06-b575-4df7-9ea8-a5a1f26568a4"}</recraft-signature></metadata></svg>