<svg xmlns="http://www.w3.org/2000/svg" height="1024" preserveAspectRatio="none" style="display: block;" version="1.1" viewBox="0 0 2048 2048" width="1024">
<defs>
	<linearGradient gradientUnits="userSpaceOnUse" id="Gradient1" x1="1012.45" x2="1024.28" y1="563.972" y2="917.227">
		<stop class="stop0" offset="0" stop-color="rgb(235,160,82)" stop-opacity="1"></stop>
		<stop class="stop1" offset="1" stop-color="rgb(149,109,93)" stop-opacity="1"></stop>
	</linearGradient>
</defs>

<path d="M 978.543 213.891 C 1010.85 150.935 1052.93 98.0401 1123.33 75.5108 C 1127.82 74.0483 1132.37 72.768 1136.96 71.6731 C 1107.35 112.241 1083.25 157.696 1070.91 206.682 C 1120.58 173.313 1182.42 152.377 1241.75 145.365 C 1214.2 167.526 1192.29 186.979 1169.6 214.377 C 1162.96 222.397 1155.11 230.525 1149.51 239.325 C 1181.46 233.409 1212.96 238.408 1242.42 251.627 C 1219.02 250.908 1197.81 258.673 1175.8 265.742 C 1230.52 267.547 1288.24 278.423 1329.08 318.343 C 1306.24 313.529 1284.9 314.655 1262.81 311.735 C 1300.45 332.686 1351.37 375.75 1369.14 415.643 C 1361.59 409.352 1353.05 404.1 1344.55 399.16 C 1348.34 406.096 1352.66 413.599 1355.83 420.765 C 1365.81 426.42 1387.36 435.428 1394.99 441.911 C 1414.93 458.846 1416.72 511.583 1414 534.957 L 1425.06 538.592 C 1442.4 503.903 1461.06 469.721 1488.26 441.64 C 1492.5 437.264 1496.61 432.703 1500.72 428.203 L 1504.02 428.906 C 1498.35 444.16 1495.27 458.969 1491.8 474.79 C 1506.59 443.457 1543.79 404.417 1570.49 382.353 C 1561.57 400.104 1555.85 413.003 1550.24 432.171 C 1585.52 385.586 1624.33 361.53 1677.75 341.15 C 1658.06 355.941 1640.06 372.845 1624.06 391.561 C 1672.87 362.967 1722.29 344.926 1779.35 342.274 C 1812.92 340.622 1846.42 346.703 1877.27 360.046 C 1881.38 361.806 1889.63 365.016 1892.58 367.722 L 1891.79 368.865 L 1887.31 369.605 C 1884.33 370.521 1882.53 370.987 1879.49 371.581 C 1855.99 378.774 1845.23 382.341 1823.19 394.092 C 1823.37 394.365 1823.55 394.638 1823.74 394.911 C 1838.26 413.093 1852.1 427.375 1865.45 446.907 C 1907.49 509.507 1923.96 585.826 1911.48 660.19 C 1900.21 724.467 1863.57 781.513 1809.8 818.497 C 1783.38 836.873 1753.57 849.799 1722.11 856.522 C 1719.13 857.694 1716.96 858.396 1713.86 859.144 L 1708.75 860.569 C 1688.68 866.973 1659.15 868.678 1638.31 867.381 C 1574.73 863.102 1515.4 833.956 1473.15 786.252 C 1466.26 779.589 1461.12 771.028 1454.14 764.052 C 1467.3 799.231 1477.26 819.429 1498.42 850.652 C 1477.65 845.87 1458.69 835.222 1439.44 826.555 C 1464.2 864.227 1504.75 924.805 1536.68 955.302 C 1517.19 955.083 1506.03 952.967 1486.98 947.956 C 1524.49 979.699 1574.83 1041.99 1594.1 1086.97 C 1574.58 1071.86 1560.24 1061.7 1538.03 1050.21 C 1585.39 1108.97 1621.37 1180.6 1626.42 1256.97 C 1612.1 1234.78 1603.91 1222.58 1587.3 1202.21 C 1611.23 1266.96 1622.78 1308.18 1616.38 1378.67 C 1610.27 1362.77 1607.07 1352.97 1599 1337.65 C 1599.28 1392.12 1606.13 1453.82 1545.81 1477.63 C 1541.58 1479.3 1537.29 1480.52 1532.87 1481.59 C 1522.66 1484.77 1504.46 1484.79 1493.88 1481.93 C 1491.36 1480.58 1488.96 1479.34 1486.46 1477.92 C 1486.09 1477.75 1485.73 1477.58 1485.38 1477.39 C 1470.73 1469.87 1463.46 1449.88 1458.58 1435.25 C 1457.85 1432.93 1457.08 1430.63 1456.27 1428.35 C 1455.39 1424.34 1454.63 1420.32 1453.98 1416.27 C 1448.92 1385.75 1451.92 1377.99 1469.35 1353.62 C 1464.52 1329.28 1459.22 1316.6 1453.61 1294.61 C 1447.77 1342.13 1424.1 1411.4 1392.49 1446.92 C 1391.3 1448.87 1389.88 1450.49 1388.22 1452.04 C 1389.02 1447.6 1389.89 1443.16 1390.83 1438.74 C 1392.03 1427.16 1393.14 1420.36 1393.13 1408.52 C 1392.65 1403.36 1393.8 1399.89 1391.43 1395.62 C 1378.07 1437.66 1354.61 1477.08 1321.39 1506.52 C 1325.14 1495.87 1327.2 1489.02 1330 1478.08 L 1313.67 1489.64 C 1315.19 1508.04 1319.49 1531.96 1319.96 1549.37 C 1376.14 1571.34 1341.58 1618.66 1301.39 1634.43 C 1300.75 1634.68 1300.11 1634.92 1299.46 1635.15 C 1293.3 1647.31 1282.09 1655.16 1270.47 1661.59 C 1269.62 1670.97 1270.19 1685.33 1270.55 1695.1 C 1233.3 1710.19 1194.22 1707.66 1156.07 1697.17 L 1156.11 1665.34 C 1156.01 1663.28 1156.52 1658.74 1154.35 1657.76 C 1127.7 1645.71 1067.82 1616.33 1090.57 1578.62 C 1097.96 1566.37 1099.94 1565.13 1101.92 1550.4 C 1037.83 1561.58 1011.5 1560.23 948.368 1550.47 C 948.798 1553.24 950.093 1562.26 951.229 1564.15 C 961.742 1581.69 974.21 1594.51 958.25 1614.72 C 942.159 1635.08 917.65 1647.87 894.643 1658.67 C 893.89 1659.02 894.017 1666.09 894.003 1667.5 L 893.962 1695.62 C 861.969 1710.04 813.725 1707.14 780.872 1695.26 C 780.587 1684.82 780.943 1672.72 780.913 1662.14 C 764.503 1652.47 763.877 1653.5 752.305 1636.43 C 733.514 1627.62 714.067 1615.53 705.484 1595.68 C 696.853 1575.73 711.969 1557.53 729.961 1550.2 C 730.059 1536.7 734.654 1503.16 737.391 1490 C 731.624 1486.11 725.877 1482.2 720.152 1478.25 C 722.708 1487.66 724.753 1497.38 729.215 1505.94 C 719.291 1498.66 713.295 1491.68 705.253 1482.61 C 680.55 1454.75 670.499 1431.56 657.972 1397.56 L 655.035 1397.13 C 654.643 1413.73 658.259 1437.39 661.396 1453.58 C 624.572 1411.53 605.29 1353.43 595.684 1299.18 L 594.16 1299.13 C 589.788 1316.28 584.406 1330.15 581.662 1348.07 C 581.517 1358.14 590.242 1366.23 594.645 1375.91 C 601.573 1391.14 597.861 1413.97 592.906 1429.44 C 592.176 1431.72 591.631 1433.88 590.999 1436.19 C 585.667 1452.67 578.735 1468.96 563.528 1478.74 C 561.253 1479.7 559.003 1480.72 556.779 1481.79 C 546.804 1485.42 526.989 1484.22 516.839 1481.56 C 512.048 1480.71 507.425 1479.51 502.957 1477.57 C 450.035 1454.56 450.862 1412.11 450.114 1360.48 C 450 1352.61 450.447 1345 450.997 1337.13 C 442.709 1352.81 439.153 1362.08 433.432 1378.55 C 425.618 1309.73 439.863 1265.11 463.494 1202.91 C 451.558 1215.89 433.37 1237.15 426.642 1253.05 L 424.488 1256.23 L 423.605 1255.33 L 424.114 1247.76 C 425.027 1185.29 472.231 1097.09 512.217 1049.28 C 490.185 1061.94 474.493 1071.06 454.78 1087.22 C 470.197 1045.04 528.569 978.373 562.093 947.758 C 542.11 953.171 532.989 954.991 512.504 956.128 C 551.95 915.446 578.642 873.823 610.787 827.378 C 593.462 835.786 569.897 845.283 551.249 850.05 C 574.305 815.166 580.23 803.861 595.333 764.755 C 589.259 771.13 584.553 778.001 578.046 784.376 C 576.168 786.483 574.405 788.451 572.448 790.502 C 510.268 853.404 416.169 887.382 329.745 857.546 C 327.824 857.46 318.79 855.123 316.701 854.556 C 286.627 846.393 252.311 829.228 227.762 809.998 C 175.661 768.817 142.385 708.352 135.473 642.302 C 127.94 572.476 146.018 502.29 186.345 444.791 C 199.655 425.907 213.331 412.951 227.405 395.356 C 206.403 383.638 188.103 376.897 165.148 370.471 L 159.041 369.911 C 153.818 368.129 156.276 367.36 159.869 365.959 C 212.315 336.897 284.237 337.9 340.445 354.351 C 375.109 364.496 395.567 374.901 426.099 392.288 C 407.083 369.018 395.989 358.785 371.614 341.618 C 425.158 359.502 463.624 388.916 500.331 431.093 C 493.684 410.349 489.472 401.501 478.742 382.086 C 505.695 399.735 540.955 446.012 559.025 472.542 C 554.126 453.626 549.109 440.696 543.595 422.614 C 585.7 466.368 597.34 484.855 625.577 538.09 C 628.749 537.029 634.568 535.492 636.723 533.174 C 632.405 509.837 636.756 483.392 642.855 460.741 C 648.529 439.673 675.784 430.423 694.284 420.983 C 697.498 414.083 700.334 406.866 703.207 399.803 C 693.621 405.548 689.883 407.039 680.719 414.068 C 701.071 372.262 746.955 331.377 788.986 312.299 C 763.428 313.199 746.036 313.889 720.684 317.643 C 764.908 280.775 800.645 269.39 857.882 266.876 C 861.98 266.084 865.204 266.039 869.251 265.188 C 851.192 256.372 829.145 253.159 809.466 250.72 C 847.041 232.463 887.759 234.2 927.161 244.32 C 915.43 226.528 894.123 214.723 875.031 206.348 L 877.087 202.517 C 905.538 204.476 932.558 206.107 956.319 224.945 C 961.962 195.796 967.776 178.788 988.879 156.859 C 983.53 176.846 979.559 192.848 978.543 213.891 z" fill="rgb(135,98,92)" transform="translate(0,0)"></path>
<path d="M 978.543 213.891 C 1010.85 150.935 1052.93 98.0401 1123.33 75.5108 C 1127.82 74.0483 1132.37 72.768 1136.96 71.6731 C 1107.35 112.241 1083.25 157.696 1070.91 206.682 C 1120.58 173.313 1182.42 152.377 1241.75 145.365 C 1214.2 167.526 1192.29 186.979 1169.6 214.377 C 1162.96 222.397 1155.11 230.525 1149.51 239.325 C 1181.46 233.409 1212.96 238.408 1242.42 251.627 C 1219.02 250.908 1197.81 258.673 1175.8 265.742 C 1230.52 267.547 1288.24 278.423 1329.08 318.343 C 1306.24 313.529 1284.9 314.655 1262.81 311.735 C 1300.45 332.686 1351.37 375.75 1369.14 415.643 C 1361.59 409.352 1353.05 404.1 1344.55 399.16 C 1348.34 406.096 1352.66 413.599 1355.83 420.765 C 1365.81 426.42 1387.36 435.428 1394.99 441.911 C 1414.93 458.846 1416.72 511.583 1414 534.957 L 1412.11 538.664 L 1411.46 539.438 C 1402.66 550.131 1408.26 548.488 1395.84 557.913 C 1335.24 532.687 1255.27 508.456 1189.01 506.78 C 1171.37 533.39 1155.3 548.503 1126.82 563.809 C 1125.92 561.975 1124.8 558.687 1123.58 557.597 C 1122.57 557.542 1110.82 567.457 1109.84 569.094 C 1061.89 600.437 1017.25 605.566 964.044 584.345 C 959.826 588.751 938.213 567.057 931.7 570.65 C 933.241 569.8 925.771 570.863 924.49 571.805 C 922.705 573.117 924.36 568.184 921.488 566.015 C 921.665 565.251 921.842 564.487 922.019 563.724 C 893.68 549.288 877.499 532.113 858.581 507.483 C 785.713 509.764 721.132 531.907 654.429 557.954 C 644.967 551.796 643.897 549.704 638.833 539.981 L 636.723 533.174 C 632.405 509.837 636.756 483.392 642.855 460.741 C 648.529 439.673 675.784 430.423 694.284 420.983 C 697.498 414.083 700.334 406.866 703.207 399.803 C 693.621 405.548 689.883 407.039 680.719 414.068 C 701.071 372.262 746.955 331.377 788.986 312.299 C 763.428 313.199 746.036 313.889 720.684 317.643 C 764.908 280.775 800.645 269.39 857.882 266.876 C 861.98 266.084 865.204 266.039 869.251 265.188 C 851.192 256.372 829.145 253.159 809.466 250.72 C 847.041 232.463 887.759 234.2 927.161 244.32 C 915.43 226.528 894.123 214.723 875.031 206.348 L 877.087 202.517 C 905.538 204.476 932.558 206.107 956.319 224.945 C 961.962 195.796 967.776 178.788 988.879 156.859 C 983.53 176.846 979.559 192.848 978.543 213.891 z" fill="rgb(9,28,30)" transform="translate(0,0)"></path>
<path d="M 978.543 213.891 C 1010.85 150.935 1052.93 98.0401 1123.33 75.5108 C 1127.82 74.0483 1132.37 72.768 1136.96 71.6731 C 1107.35 112.241 1083.25 157.696 1070.91 206.682 C 1120.58 173.313 1182.42 152.377 1241.75 145.365 C 1214.2 167.526 1192.29 186.979 1169.6 214.377 C 1162.96 222.397 1155.11 230.525 1149.51 239.325 C 1181.46 233.409 1212.96 238.408 1242.42 251.627 C 1219.02 250.908 1197.81 258.673 1175.8 265.742 C 1230.52 267.547 1288.24 278.423 1329.08 318.343 C 1306.24 313.529 1284.9 314.655 1262.81 311.735 C 1300.45 332.686 1351.37 375.75 1369.14 415.643 C 1361.59 409.352 1353.05 404.1 1344.55 399.16 C 1348.34 406.096 1352.66 413.599 1355.83 420.765 C 1302.68 400.722 1263.56 383.917 1206 372.124 L 1199.02 370.598 C 1195.38 340.584 1198.87 328.767 1164.03 328.061 C 1155.28 327.883 1142.62 325.407 1133.14 324.81 C 1106.37 290.259 1064.84 270.392 1021.14 271.226 C 977.439 272.06 936.703 293.497 911.269 329.044 C 903.271 328.142 868.057 328.21 861.622 334.198 C 854.257 341.051 854.144 359.733 853.044 369.92 C 850.831 370.474 847.433 371.458 845.281 371.723 C 809.309 377.669 771.862 390.221 737.782 403.223 C 725.43 407.935 705.713 417.466 694.284 420.983 C 697.498 414.083 700.334 406.866 703.207 399.803 C 693.621 405.548 689.883 407.039 680.719 414.068 C 701.071 372.262 746.955 331.377 788.986 312.299 C 763.428 313.199 746.036 313.889 720.684 317.643 C 764.908 280.775 800.645 269.39 857.882 266.876 C 861.98 266.084 865.204 266.039 869.251 265.188 C 851.192 256.372 829.145 253.159 809.466 250.72 C 847.041 232.463 887.759 234.2 927.161 244.32 C 915.43 226.528 894.123 214.723 875.031 206.348 L 877.087 202.517 C 905.538 204.476 932.558 206.107 956.319 224.945 C 961.962 195.796 967.776 178.788 988.879 156.859 C 983.53 176.846 979.559 192.848 978.543 213.891 z" fill="rgb(135,98,92)" transform="translate(0,0)"></path>
<path d="M 869.251 265.188 C 874.717 268.403 858.828 266.906 857.882 266.876 C 861.98 266.084 865.204 266.039 869.251 265.188 z" fill="rgb(239,233,220)" transform="translate(0,0)"></path>
<path d="M 1164.73 204.073 C 1165.32 204.471 1165.15 204.297 1165.36 204.587 C 1165.4 205.36 1164.69 206.549 1164.24 207.093 C 1150.67 223.631 1144.56 238.031 1136.45 257.187 C 1121.85 264.439 1111.85 268.242 1101.16 281.065 C 1100.4 280.262 1100.12 279.969 1100.45 278.789 C 1107.51 252.838 1127.44 230.71 1148.44 214.901 C 1153.66 210.985 1159.1 207.37 1164.73 204.073 z" fill="rgb(9,28,30)" transform="translate(0,0)"></path>
<path d="M 911.269 329.044 C 936.703 293.497 977.439 272.06 1021.14 271.226 C 1064.84 270.392 1106.37 290.259 1133.14 324.81 C 1165.28 366.286 1171.18 422.375 1148.39 469.637 C 1125.33 517.46 1076.94 547.867 1023.85 547.893 C 970.753 547.918 922.329 517.557 899.223 469.756 C 877.192 424.18 881.813 370.211 911.269 329.044 z" fill="rgb(217,203,184)" transform="translate(0,0)"></path>
<path d="M 1009.71 305.567 C 1068.25 298.248 1121.6 339.867 1128.74 398.426 C 1135.89 456.985 1094.11 510.211 1035.53 517.181 C 977.196 524.122 924.242 482.557 917.128 424.244 C 910.013 365.931 951.42 312.855 1009.71 305.567 z" fill="rgb(9,28,30)" transform="translate(0,0)"></path>
<path d="M 1012.25 319.612 C 1062.81 313.799 1108.46 350.187 1114.07 400.769 C 1119.68 451.351 1083.11 496.858 1032.51 502.265 C 982.188 507.642 936.993 471.323 931.415 421.027 C 925.837 370.731 961.975 325.391 1012.25 319.612 z" fill="rgb(205,136,74)" transform="translate(0,0)"></path>
<path d="M 1010.17 343.189 C 1017.08 342.675 1031.07 341.536 1034.7 349.614 C 1043.01 368.098 1019.3 367.233 1009 374.011 C 992.004 385.205 982.945 397.091 978.088 416.732 C 975.58 426.929 960.532 425.574 959.355 414.415 C 955.661 379.378 976.852 351.207 1010.17 343.189 z" fill="rgb(239,233,220)" transform="translate(0,0)"></path>
<path d="M 1008.78 280.387 C 1027.02 277.46 1053.58 282.396 1070.37 290.032 C 1081.56 295.119 1110.37 309.662 1115.07 321.516 L 1114.22 323.189 C 1113.36 323.3 1112.51 323.41 1111.65 323.521 C 1103.8 318.223 1094.93 309.083 1086.91 304.643 C 1071.34 296.035 1057.34 291.336 1040.21 288.025 C 1038.38 287.721 1036.54 287.483 1034.69 287.311 C 998.376 283.976 966.895 296.221 941.656 321.353 C 939.93 323.071 937.518 322.141 935.511 321.71 L 934.508 319.936 C 934.945 318.67 935.606 316.995 936.575 316.059 C 956.477 296.824 982.031 283.656 1008.78 280.387 z" fill="rgb(239,233,220)" transform="translate(0,0)"></path>
<path d="M 694.284 420.983 C 705.713 417.466 725.43 407.935 737.782 403.223 C 771.862 390.221 809.309 377.669 845.281 371.723 C 840.471 404.893 841.1 438.831 844.178 472.113 C 781.063 481.536 724.968 495.842 666.81 522.559 C 657.625 526.778 643.346 538.09 638.833 539.981 L 636.723 533.174 C 632.405 509.837 636.756 483.392 642.855 460.741 C 648.529 439.673 675.784 430.423 694.284 420.983 z" fill="rgb(84,91,96)" transform="translate(0,0)"></path>
<path d="M 794.487 395.043 C 806.857 393.984 804.927 405.595 797.909 407.667 C 769.036 416.19 742.108 428.605 714.273 439.415 C 710.038 440.076 708.348 438.897 706.736 435.01 C 704.381 429.333 712.358 425.994 716.386 424.29 C 741.929 413.487 767.718 402.484 794.487 395.043 z" fill="rgb(217,203,184)" transform="translate(0,0)"></path>
<path d="M 1206 372.124 C 1263.56 383.917 1302.68 400.722 1355.83 420.765 C 1365.81 426.42 1387.36 435.428 1394.99 441.911 C 1414.93 458.846 1416.72 511.583 1414 534.957 L 1412.11 538.664 C 1359.44 505.514 1268.39 479.662 1206.92 473.6 L 1208.2 461.639 C 1228.13 467.401 1246.17 465.42 1245.39 440.237 C 1221.97 456.244 1199.98 439.305 1207.82 411.465 L 1208.25 409.81 C 1207.26 397.264 1206.51 384.699 1206 372.124 z" fill="rgb(84,91,96)" transform="translate(0,0)"></path>
<path d="M 1208.25 409.81 C 1223.39 391.322 1249.03 398.211 1251.5 421.898 C 1252.47 431.197 1248.34 433.095 1245.39 440.237 C 1221.97 456.244 1199.98 439.305 1207.82 411.465 L 1208.25 409.81 z" fill="rgb(211,95,70)" transform="translate(0,0)"></path>
<path d="M 1133.14 324.81 C 1142.62 325.407 1155.28 327.883 1164.03 328.061 C 1198.87 328.767 1195.38 340.584 1199.02 370.598 C 1199.06 392.138 1200.61 413.084 1199.55 434.689 C 1198.7 452.073 1196.26 466.885 1193.5 483.983 C 1177.71 478.343 1163.89 474.691 1148.39 469.637 C 1171.18 422.375 1165.28 366.286 1133.14 324.81 z" fill="rgb(84,91,96)" transform="translate(0,0)"></path>
<path d="M 853.044 369.92 C 854.144 359.733 854.257 341.051 861.622 334.198 C 868.057 328.21 903.271 328.142 911.269 329.044 C 881.813 370.211 877.192 424.18 899.223 469.756 C 885.043 474.432 870.167 478.677 855.821 482.966 C 851.821 457.502 850.257 431.714 851.153 405.952 C 851.508 393.886 852.805 382.034 853.044 369.92 z" fill="rgb(84,91,96)" transform="translate(0,0)"></path>
<path d="M 922.019 563.724 C 922.198 563.226 924.057 557.059 925.675 558.371 C 934.891 565.847 943.431 573.231 953.998 578.906 C 956.999 580.517 961.356 582.515 964.044 584.345 C 959.826 588.751 938.213 567.057 931.7 570.65 C 933.241 569.8 925.771 570.863 924.49 571.805 C 922.705 573.117 924.36 568.184 921.488 566.015 C 921.665 565.251 921.842 564.487 922.019 563.724 z" fill="rgb(205,136,74)" transform="translate(0,0)"></path>
<path d="M 657.131 1080.05 L 658.224 1082.11 C 629.984 1144.6 626.006 1198.4 644.495 1264.29 C 649.518 1240.59 655.058 1217.7 666.738 1196.15 C 669.12 1200.66 667.25 1207.3 668.877 1215.1 C 671.666 1272.9 682.51 1321.25 717.651 1368.8 C 719.344 1348.5 721.293 1332.44 723.88 1312.5 C 743.427 1367.21 772.611 1414.59 816.373 1453.44 C 812.929 1438.07 807.357 1415.02 807.873 1399.47 C 808.867 1389.49 807.299 1379.83 808.843 1370.87 C 839.956 1432.21 869.814 1465.26 932.989 1493.69 C 923.313 1467.27 916.998 1443.11 910.056 1415.81 C 933.656 1450.55 970.602 1478.45 1011.58 1488.87 L 994.509 1456.73 C 1030.23 1444.82 1056.86 1433.21 1081.05 1402.9 C 1081.29 1432.97 1073.93 1447.1 1059.18 1472.36 C 1095.25 1458.37 1121.63 1443.69 1146.54 1413.54 C 1142.38 1443.26 1136.26 1458.45 1119.35 1483.48 C 1176.33 1458.45 1212.79 1421.94 1242.46 1367.96 C 1243.53 1398.67 1241.06 1423.47 1232.12 1452.86 C 1277.31 1417.15 1303.17 1366.13 1325.95 1315.19 C 1328.8 1332.85 1330.37 1351.18 1331.91 1368.99 C 1339.59 1360.6 1347 1347.54 1352.04 1337.37 C 1373.75 1293.56 1379.84 1254.35 1380.85 1206.14 C 1381.15 1202.64 1381.2 1199.14 1381.61 1195.65 C 1392.03 1213.55 1400.05 1243.14 1405.02 1263.03 C 1425.04 1206.53 1416.19 1135.82 1390.82 1082.21 L 1391.86 1080.36 C 1429.82 1130.93 1440.24 1160.56 1458.09 1220.77 C 1462 1202.78 1465.32 1188.21 1467.11 1169.79 C 1478.68 1190.81 1490.65 1237.52 1489.9 1261.66 C 1490.78 1262.6 1491.55 1263.53 1492.38 1264.51 C 1500.57 1242.22 1504.25 1229.84 1509.17 1206.11 C 1518.36 1263.63 1503.95 1305.94 1470.43 1352.14 L 1469.35 1353.62 C 1464.52 1329.28 1459.22 1316.6 1453.61 1294.61 C 1447.77 1342.13 1424.1 1411.4 1392.49 1446.92 C 1391.3 1448.87 1389.88 1450.49 1388.22 1452.04 C 1389.02 1447.6 1389.89 1443.16 1390.83 1438.74 C 1392.03 1427.16 1393.14 1420.36 1393.13 1408.52 C 1392.65 1403.36 1393.8 1399.89 1391.43 1395.62 C 1378.07 1437.66 1354.61 1477.08 1321.39 1506.52 C 1325.14 1495.87 1327.2 1489.02 1330 1478.08 L 1313.67 1489.64 C 1315.19 1508.04 1319.49 1531.96 1319.96 1549.37 C 1376.14 1571.34 1341.58 1618.66 1301.39 1634.43 C 1300.75 1634.68 1300.11 1634.92 1299.46 1635.15 C 1293.3 1647.31 1282.09 1655.16 1270.47 1661.59 C 1269.62 1670.97 1270.19 1685.33 1270.55 1695.1 C 1233.3 1710.19 1194.22 1707.66 1156.07 1697.17 L 1156.11 1665.34 C 1156.01 1663.28 1156.52 1658.74 1154.35 1657.76 C 1127.7 1645.71 1067.82 1616.33 1090.57 1578.62 C 1097.96 1566.37 1099.94 1565.13 1101.92 1550.4 C 1037.83 1561.58 1011.5 1560.23 948.368 1550.47 C 948.798 1553.24 950.093 1562.26 951.229 1564.15 C 961.742 1581.69 974.21 1594.51 958.25 1614.72 C 942.159 1635.08 917.65 1647.87 894.643 1658.67 C 893.89 1659.02 894.017 1666.09 894.003 1667.5 L 893.962 1695.62 C 861.969 1710.04 813.725 1707.14 780.872 1695.26 C 780.587 1684.82 780.943 1672.72 780.913 1662.14 C 764.503 1652.47 763.877 1653.5 752.305 1636.43 C 733.514 1627.62 714.067 1615.53 705.484 1595.68 C 696.853 1575.73 711.969 1557.53 729.961 1550.2 C 730.059 1536.7 734.654 1503.16 737.391 1490 C 731.624 1486.11 725.877 1482.2 720.152 1478.25 C 722.708 1487.66 724.753 1497.38 729.215 1505.94 C 719.291 1498.66 713.295 1491.68 705.253 1482.61 C 680.55 1454.75 670.499 1431.56 657.972 1397.56 L 655.035 1397.13 C 654.643 1413.73 658.259 1437.39 661.396 1453.58 C 624.572 1411.53 605.29 1353.43 595.684 1299.18 L 594.16 1299.13 C 589.788 1316.28 584.406 1330.15 581.662 1348.07 C 580.907 1350.49 581.421 1349.31 580.085 1351.59 L 578.175 1350.66 C 542.236 1300.27 533.128 1265.56 538.929 1204.61 C 541.322 1224.03 548.635 1249.17 558.745 1265.95 C 559.955 1231.38 567.37 1203.92 579.905 1172.3 L 583.268 1173.39 C 582.958 1187.01 587.909 1207.81 592.047 1220.62 C 600.789 1169.51 627.063 1121.46 657.131 1080.05 z" fill="rgb(9,28,30)" transform="translate(0,0)"></path>
<path d="M 1153.71 1573.18 C 1204.69 1592.62 1251.57 1578.62 1292.63 1544.7 C 1279.39 1571.21 1266.17 1589.21 1241.19 1605.2 C 1272.09 1601.2 1313.92 1583.93 1319.96 1549.37 C 1376.14 1571.34 1341.58 1618.66 1301.39 1634.43 C 1300.75 1634.68 1300.11 1634.92 1299.46 1635.15 C 1301.91 1628.5 1303.97 1621.17 1306.03 1614.35 C 1297.51 1621.71 1287.96 1627.81 1277.7 1632.46 C 1230.58 1653.87 1140.42 1644.05 1116.88 1591.75 C 1142.26 1610.21 1160.6 1612.66 1192.1 1613.2 C 1175.62 1601.82 1164.71 1589.91 1153.71 1573.18 z" fill="rgb(135,98,92)" transform="translate(0,0)"></path>
<path d="M 757.042 1543.26 C 798.333 1579.54 842.811 1591.45 895.261 1574.18 C 883.383 1591.85 874.548 1601.22 856.841 1613.34 C 884.391 1612.64 910.914 1609.8 932.835 1591.51 C 922.812 1613.36 907.534 1625.54 884.87 1632.98 C 835.009 1649.35 787.314 1649.49 746.174 1615.01 C 747.997 1623.51 749.446 1628.17 752.305 1636.43 C 733.514 1627.62 714.067 1615.53 705.484 1595.68 C 696.853 1575.73 711.969 1557.53 729.961 1550.2 C 733.995 1578.96 770.469 1597.59 795.925 1603.2 L 798.967 1600 C 779.453 1582.28 767.932 1567.5 757.042 1543.26 z" fill="rgb(135,98,92)" transform="translate(0,0)"></path>
<path d="M 798.967 1600 C 800.345 1600.92 802.651 1602.14 803.453 1603.44 C 803.387 1604.86 796.82 1603.34 795.925 1603.2 L 798.967 1600 z" fill="rgb(15,19,19)" transform="translate(0,0)"></path>
<path d="M 1391.43 1395.62 C 1391.79 1392.33 1393.09 1388.89 1393.8 1385.46 C 1394.08 1393.53 1394.41 1400.47 1393.13 1408.52 C 1392.65 1403.36 1393.8 1399.89 1391.43 1395.62 z" fill="rgb(239,233,220)" transform="translate(0,0)"></path>
<path d="M 1390.83 1438.74 C 1391.33 1442.25 1391.12 1443.66 1392.49 1446.92 C 1391.3 1448.87 1389.88 1450.49 1388.22 1452.04 C 1389.02 1447.6 1389.89 1443.16 1390.83 1438.74 z" fill="rgb(15,19,19)" transform="translate(0,0)"></path>
<path d="M 654.725 1395.45 C 653.268 1390.65 653.898 1379.99 656.732 1393.13 C 655.358 1393.71 655.539 1393.91 654.725 1395.45 z" fill="rgb(84,91,96)" transform="translate(0,0)"></path>
<path d="M 654.725 1395.45 C 655.539 1393.91 655.358 1393.71 656.732 1393.13 L 657.972 1397.56 L 655.035 1397.13 L 654.725 1395.45 z" fill="rgb(239,233,220)" transform="translate(0,0)"></path>
<path d="M 1489.9 1261.66 C 1490.78 1262.6 1491.55 1263.53 1492.38 1264.51 C 1489.43 1268.84 1489.95 1264.43 1489.9 1261.66 z" fill="rgb(111,89,85)" transform="translate(0,0)"></path>
<path d="M 594.16 1299.13 C 594.421 1295.33 595.849 1295 595.684 1299.18 L 594.16 1299.13 z" fill="rgb(146,144,139)" transform="translate(0,0)"></path>
<path d="M 1610.75 485.577 C 1660.86 436.041 1733.24 391.536 1802.64 376.25 C 1830.49 370.115 1852.09 369.583 1880.2 368.683 L 1879.49 371.581 C 1855.99 378.774 1845.23 382.341 1823.19 394.092 C 1823.37 394.365 1823.55 394.638 1823.74 394.911 C 1838.26 413.093 1852.1 427.375 1865.45 446.907 C 1907.49 509.507 1923.96 585.826 1911.48 660.19 C 1900.21 724.467 1863.57 781.513 1809.8 818.497 C 1783.38 836.873 1753.57 849.799 1722.11 856.522 C 1719.13 857.694 1716.96 858.396 1713.86 859.144 L 1708.75 860.569 C 1688.68 866.973 1659.15 868.678 1638.31 867.381 C 1574.73 863.102 1515.4 833.956 1473.15 786.252 C 1477.38 786.622 1495.27 797.774 1503.43 800.935 C 1477.43 777.486 1453.49 744.801 1437.9 713.298 C 1432.52 702.416 1427.74 688.686 1422.63 677.261 C 1411.78 652.306 1400.15 627.7 1387.75 603.479 C 1407.14 613.303 1431.73 618.928 1453.36 620.267 C 1433.21 604.346 1423.21 594.873 1405.64 576.222 C 1424.03 578.636 1452.26 578.068 1470.47 575.595 C 1462.71 582.139 1456.61 585.782 1447.67 590.281 C 1475.23 604.743 1518.2 608.504 1548.72 603.57 C 1538.4 597.089 1527.93 590.003 1517.58 583.387 C 1544.18 577.859 1583.95 563.984 1603.1 544.14 C 1588.6 541.718 1576.1 537.238 1562.27 532.526 C 1574.58 524.989 1587.56 518.178 1599.89 510.646 C 1613.53 502.312 1626.78 493.165 1639.99 484.153 L 1639.49 480.498 C 1629.64 481.926 1620.42 483.092 1610.75 485.577 z" fill="rgb(217,203,184)" transform="translate(0,0)"></path>
<path d="M 1610.75 485.577 C 1660.86 436.041 1733.24 391.536 1802.64 376.25 C 1830.49 370.115 1852.09 369.583 1880.2 368.683 L 1879.49 371.581 C 1855.99 378.774 1845.23 382.341 1823.19 394.092 C 1767.58 425.626 1734.38 457.852 1690.75 504.605 C 1659.34 538.257 1636.44 565.561 1597.25 590.388 C 1601.38 593.181 1606.6 596.956 1611.4 599.285 C 1628.44 607.557 1655.63 617.444 1660.79 638.254 C 1664.3 652.454 1648.59 662.65 1636.46 663.17 C 1616.22 665.473 1595.71 661.126 1577.39 652.532 C 1549.31 663.08 1536.22 665.042 1506.63 660.838 C 1534.48 687.307 1584.04 695.811 1590.79 738.959 C 1591.65 744.485 1588.73 754.223 1584.63 757.908 C 1549.51 789.406 1507.72 743.151 1502.24 709.166 C 1477.02 704.93 1467.83 698.701 1449.84 680.616 C 1468.12 743.893 1517.28 799.185 1574.53 830.811 C 1617.75 854.691 1657.55 861.617 1706.34 858.604 C 1707.65 859.154 1707.6 859.342 1708.75 860.569 C 1688.68 866.973 1659.15 868.678 1638.31 867.381 C 1574.73 863.102 1515.4 833.956 1473.15 786.252 C 1477.38 786.622 1495.27 797.774 1503.43 800.935 C 1477.43 777.486 1453.49 744.801 1437.9 713.298 C 1432.52 702.416 1427.74 688.686 1422.63 677.261 C 1411.78 652.306 1400.15 627.7 1387.75 603.479 C 1407.14 613.303 1431.73 618.928 1453.36 620.267 C 1433.21 604.346 1423.21 594.873 1405.64 576.222 C 1424.03 578.636 1452.26 578.068 1470.47 575.595 C 1462.71 582.139 1456.61 585.782 1447.67 590.281 C 1475.23 604.743 1518.2 608.504 1548.72 603.57 C 1538.4 597.089 1527.93 590.003 1517.58 583.387 C 1544.18 577.859 1583.95 563.984 1603.1 544.14 C 1588.6 541.718 1576.1 537.238 1562.27 532.526 C 1574.58 524.989 1587.56 518.178 1599.89 510.646 C 1613.53 502.312 1626.78 493.165 1639.99 484.153 L 1639.49 480.498 C 1629.64 481.926 1620.42 483.092 1610.75 485.577 z" fill="rgb(9,28,30)" transform="translate(0,0)"></path>
<path d="M 1639.49 480.498 C 1646.74 479.567 1645.56 480.89 1639.99 484.153 L 1639.49 480.498 z" fill="rgb(111,89,85)" transform="translate(0,0)"></path>
<path d="M 1711.36 857.543 C 1716.11 856.556 1717.33 856.171 1722.11 856.522 C 1719.13 857.694 1716.96 858.396 1713.86 859.144 L 1711.36 857.543 z" fill="rgb(110,109,99)" transform="translate(0,0)"></path>
<path d="M 1706.34 858.604 C 1707.95 858.043 1709.67 857.841 1711.36 857.543 L 1713.86 859.144 L 1708.75 860.569 C 1707.6 859.342 1707.65 859.154 1706.34 858.604 z" fill="rgb(15,19,19)" transform="translate(0,0)"></path>
<path d="M 1676.68 698.37 C 1707.19 696.993 1755.48 716.208 1769.11 745.907 C 1779.31 768.11 1761.07 786.76 1741.14 794.245 C 1738.82 794.869 1736.48 795.367 1734.1 795.738 C 1668.2 806.542 1610.32 705.411 1676.68 698.37 z" fill="rgb(135,98,92)" transform="translate(0,0)"></path>
<path d="M 1789.86 486.372 C 1820.34 481.838 1844.98 503.743 1823.38 532.284 C 1803.44 558.642 1763.36 567.97 1732.24 572.666 C 1706.4 576.204 1674.57 568.185 1699.06 536.65 C 1719.81 509.919 1756.25 490.693 1789.86 486.372 z" fill="rgb(135,98,92)" transform="translate(0,0)"></path>
<path d="M 1781.12 621.25 C 1819.22 619.853 1876.67 655.328 1817.23 667.817 C 1749.95 677.79 1739.47 628.9 1777.58 621.872 L 1781.12 621.25 z" fill="rgb(135,98,92)" transform="translate(0,0)"></path>
<path d="M 165.148 370.471 C 176.869 363.749 247.853 375.482 264.19 380.235 C 312.578 394.314 361.189 420.925 401.094 451.848 C 414.135 461.954 426.908 474.813 439.371 485.692 L 412.596 481.644 L 411.944 485.158 C 433.331 500.402 463.927 519.071 486.84 531.876 C 475.321 538.175 458.709 542.266 445.652 543.595 C 476.901 567.798 493.931 574.73 533.411 583.974 C 522.094 590.385 511.831 596.77 501.528 604.8 C 553.788 608.768 588.159 603.276 635.919 580.219 C 624.082 597.679 612.494 608.459 595.985 621.47 C 619.395 617.798 637.851 614.594 659.597 603.781 C 640.839 632.757 633.694 652.709 623.015 685.154 C 614.73 710.324 598.309 738.629 582.857 759.799 C 572.354 773.743 559.967 786.608 549.496 800.282 C 555.751 796.676 564.38 792.048 570.251 788.205 L 572.448 790.502 C 510.268 853.404 416.169 887.382 329.745 857.546 C 327.824 857.46 318.79 855.123 316.701 854.556 C 286.627 846.393 252.311 829.228 227.762 809.998 C 175.661 768.817 142.385 708.352 135.473 642.302 C 127.94 572.476 146.018 502.29 186.345 444.791 C 199.655 425.907 213.331 412.951 227.405 395.356 C 206.403 383.638 188.103 376.897 165.148 370.471 z" fill="rgb(217,203,184)" transform="translate(0,0)"></path>
<path d="M 165.148 370.471 C 176.869 363.749 247.853 375.482 264.19 380.235 C 312.578 394.314 361.189 420.925 401.094 451.848 C 414.135 461.954 426.908 474.813 439.371 485.692 L 412.596 481.644 L 411.944 485.158 C 433.331 500.402 463.927 519.071 486.84 531.876 C 475.321 538.175 458.709 542.266 445.652 543.595 C 476.901 567.798 493.931 574.73 533.411 583.974 C 522.094 590.385 511.831 596.77 501.528 604.8 C 553.788 608.768 588.159 603.276 635.919 580.219 C 624.082 597.679 612.494 608.459 595.985 621.47 C 619.395 617.798 637.851 614.594 659.597 603.781 C 640.839 632.757 633.694 652.709 623.015 685.154 C 614.73 710.324 598.309 738.629 582.857 759.799 C 572.354 773.743 559.967 786.608 549.496 800.282 C 555.751 796.676 564.38 792.048 570.251 788.205 L 572.448 790.502 C 510.268 853.404 416.169 887.382 329.745 857.546 C 332.183 857.207 358.932 859.558 365.501 859.591 C 402.46 859.778 442.692 848.482 474.98 831.014 C 526.457 803.165 582.069 742.704 598.433 686.515 C 587.183 697.933 572.26 707.416 556.048 709.216 C 549.921 733.333 530.016 762.75 502.077 761.363 C 493.473 760.861 485.468 756.791 479.993 750.135 C 460.206 726.386 486.259 701.371 506.387 689.936 C 512.835 686.274 524.26 682.65 529.888 678.267 C 536.628 673.018 542.459 666.001 549.543 660.262 C 527.096 662.049 511.016 661.522 489.506 655.661 C 484.279 654.14 481.535 652.349 476.006 653.061 C 455.139 655.748 412.063 654.452 408.65 626.854 C 414.504 610.375 436.988 601.24 452.701 591.118 C 419.348 569.57 396.49 545.066 369.847 516.368 C 332.836 476.502 276.913 419.593 227.405 395.356 C 206.403 383.638 188.103 376.897 165.148 370.471 z" fill="rgb(9,28,30)" transform="translate(0,0)"></path>
<path d="M 411.944 485.158 C 410.969 484.542 407.829 482.911 407.726 481.647 C 408.386 480.881 409.982 481.308 410.821 481.422 L 412.596 481.644 L 411.944 485.158 z" fill="rgb(111,89,85)" transform="translate(0,0)"></path>
<path d="M 408.65 626.854 C 412.063 654.452 455.139 655.748 476.006 653.061 C 481.535 652.349 484.279 654.14 489.506 655.661 C 482.359 663.152 477.349 665.486 466.969 669.497 C 447.063 677.19 402.993 685.371 389.51 662.95 C 380.605 648.141 397.109 634.607 408.65 626.854 z" fill="rgb(135,98,92)" transform="translate(0,0)"></path>
<path d="M 289.988 584.416 C 328.687 581.094 347.167 611.506 324.149 643.988 C 307.529 667.441 279.651 687.155 251.239 692.763 C 201.934 696.273 196.454 644.212 221.854 613.645 C 239.305 592.645 263.626 586.635 289.988 584.416 z" fill="rgb(135,98,92)" transform="translate(0,0)"></path>
<path d="M 371.471 716.392 C 405.426 713.911 412.965 746.188 393.097 769.139 C 373.954 791.253 346.65 800.98 318.307 804.003 C 286.026 801.311 272.328 783.869 296.118 756.394 C 314.82 734.795 342.705 718.836 371.471 716.392 z" fill="rgb(135,98,92)" transform="translate(0,0)"></path>
<path d="M 272.979 482.261 C 293.769 482.628 329.476 503.754 336.397 524.441 C 339.917 534.963 322.741 539.386 315.547 540.936 C 298.151 541.496 285.829 540.302 270.598 530.825 C 248.224 516.902 239.836 487.818 272.979 482.261 z" fill="rgb(135,98,92)" transform="translate(0,0)"></path>
<path d="M 1109.84 569.094 C 1110.82 567.457 1122.57 557.542 1123.58 557.597 C 1124.8 558.687 1125.92 561.975 1126.82 563.809 C 1127.11 565.746 1130.45 573.708 1131.44 576.347 C 1157.84 629.619 1177.16 689.022 1203.48 742.65 C 1209.28 754.453 1206.13 751.062 1208.56 761.449 C 1211.62 773.346 1212.84 772.329 1217.42 781.869 C 1222.19 798.224 1236.56 827.3 1243.77 843.806 C 1253.46 865.993 1263.46 891.036 1274.06 912.499 C 1260.3 906.174 1198.77 876.895 1187.67 876.881 C 1174.59 812.423 1118.58 771.604 1056.61 759.271 C 977.548 743.535 877.353 793.81 862.394 877.195 C 839.921 881.994 795.59 903.676 775.184 913.747 C 786.06 888.405 796.414 862.253 807.184 836.792 C 812.046 825.299 825.336 795.779 827.856 785.762 C 837.499 777.33 842.501 764.777 841.297 752.024 C 844.67 747.91 859.951 709.335 862.914 702.406 L 921.488 566.015 C 924.36 568.184 922.705 573.117 924.49 571.805 C 925.771 570.863 933.241 569.8 931.7 570.65 C 938.213 567.057 959.826 588.751 964.044 584.345 C 1017.25 605.566 1061.89 600.437 1109.84 569.094 z" fill="url(#Gradient1)" transform="translate(0,0)"></path>
<path d="M 1109.84 569.094 C 1110.82 567.457 1122.57 557.542 1123.58 557.597 C 1124.8 558.687 1125.92 561.975 1126.82 563.809 C 1127.11 565.746 1130.45 573.708 1131.44 576.347 C 1130.57 575.652 1121.2 568.429 1120.99 567.52 C 1119.06 559.384 1115.02 570.408 1109.84 569.094 z" fill="rgb(205,136,74)" transform="translate(0,0)"></path>
<path d="M 862.394 877.195 C 877.353 793.81 977.548 743.535 1056.61 759.271 C 1118.58 771.604 1174.59 812.423 1187.67 876.881 C 1188.24 886.593 1187.58 889.631 1187.4 898.627 C 1187.04 901.116 1186.63 903.598 1186.18 906.072 C 1183.78 915.966 1179.86 925.429 1174.58 934.129 C 1153.49 969.097 1110.56 992.022 1071.92 1001.23 C 1019.28 1013.77 965.48 1006.12 919.48 977.316 C 888.412 957.859 870.088 935.702 861.63 899.932 C 861.45 898.788 861.3 897.649 861.039 896.522 C 860.943 888.814 861.386 884.906 862.394 877.195 z" fill="rgb(217,203,184)" transform="translate(0,0)"></path>
<path d="M 1005.73 764.393 C 1022.82 761.896 1094.46 764.049 1095.11 788.443 C 1093.62 791.412 1090.97 794.684 1087.54 793.979 C 1067.17 789.783 1052.16 784.198 1030.75 783.753 C 1013 782.844 995.227 784.997 978.207 790.116 C 969.756 792.678 956.149 797.446 947.803 798.101 C 940.912 791.54 946.562 781.958 953.657 778.925 C 969.74 772.05 988.68 766.284 1005.73 764.393 z" fill="rgb(239,233,220)" transform="translate(0,0)"></path>
<path d="M 949.15 823.123 C 979.753 820.497 985.974 845.52 985.831 870.559 C 976.597 862.317 973.289 857.568 962.731 850.7 C 941.45 842.842 941.336 863.709 934.749 867.614 C 924.615 873.622 919.572 837.016 949.15 823.123 z" fill="rgb(9,28,30)" transform="translate(0,0)"></path>
<path d="M 1092.41 822.266 C 1107.22 823.181 1107.19 825.928 1116.48 835.043 C 1125.03 843.433 1124.04 879.377 1113.58 864.358 C 1109.2 858.064 1105.42 848.591 1095.67 848.022 L 1093.67 847.917 C 1079.47 852.964 1074.57 861.193 1064.24 871.873 C 1063.48 850.511 1067.69 827.361 1092.41 822.266 z" fill="rgb(9,28,30)" transform="translate(0,0)"></path>
<path d="M 861.63 899.932 C 870.088 935.702 888.412 957.859 919.48 977.316 C 965.48 1006.12 1019.28 1013.77 1071.92 1001.23 C 1110.56 992.022 1153.49 969.097 1174.58 934.129 C 1179.86 925.429 1183.78 915.966 1186.18 906.072 L 1188.44 907.006 C 1184.59 950.905 1167.71 983.09 1133.71 1011.51 C 1099.17 1040.02 1054.79 1053.8 1010.17 1049.85 C 965.059 1045.6 922.768 1025.26 893.7 990.134 C 874.776 967.138 863.32 938.916 860.861 909.237 C 861.215 905.972 861.432 903.187 861.63 899.932 z" fill="rgb(9,28,30)" transform="translate(0,0)"></path>
<path d="M 1208.56 761.449 C 1209.02 756.012 1208.98 752.295 1209.79 746.987 C 1214.55 715.613 1259.82 704.665 1278.07 729.252 C 1308.36 770.05 1260.37 820.937 1217.42 781.869 C 1212.84 772.329 1211.62 773.346 1208.56 761.449 z" fill="rgb(9,28,30)" transform="translate(0,0)"></path>
<path d="M 827.856 785.762 C 813.999 797.878 793.646 798.924 778.62 788.293 C 763.593 777.662 757.805 758.122 764.617 741.022 C 771.43 723.922 789.069 713.715 807.289 716.329 C 825.51 718.943 839.567 733.698 841.297 752.024 C 842.501 764.777 837.499 777.33 827.856 785.762 z" fill="rgb(9,28,30)" transform="translate(0,0)"></path>
<path d="M 528.63 1411.85 C 538.557 1434.76 547.667 1456.54 562.428 1477.15 L 563.528 1478.74 C 561.253 1479.7 559.003 1480.72 556.779 1481.79 C 540.913 1468.4 532.049 1431.49 528.63 1411.85 z" fill="rgb(9,28,30)" transform="translate(0,0)"></path>
<path d="M 1516.62 1423.12 L 1518.69 1426.97 C 1513.55 1444.77 1505.68 1467.29 1493.88 1481.93 C 1491.36 1480.58 1488.96 1479.34 1486.46 1477.92 C 1499.54 1455.7 1505.49 1446.64 1516.62 1423.12 z" fill="rgb(9,28,30)" transform="translate(0,0)"></path>
<path d="M 1456.27 1428.35 L 1461.08 1424.11 C 1475.31 1411.61 1484.9 1394.04 1495.46 1378.5 C 1494.6 1382.01 1493.69 1385.5 1492.72 1388.98 C 1489.62 1400.39 1470.85 1435.48 1458.58 1435.25 C 1457.85 1432.93 1457.08 1430.63 1456.27 1428.35 z" fill="rgb(9,28,30)" transform="translate(0,0)"></path>
<path d="M 1556.75 1425.23 C 1558.03 1427.75 1557.98 1427.85 1558.56 1430.64 C 1555.99 1449.2 1552.74 1460.09 1545.81 1477.63 C 1541.58 1479.3 1537.29 1480.52 1532.87 1481.59 C 1531.57 1478.01 1535.09 1475.88 1537.74 1470.87 C 1545.6 1455.96 1551.18 1441.02 1556.75 1425.23 z" fill="rgb(9,28,30)" transform="translate(0,0)"></path>
<path d="M 558.855 1384.46 C 568.405 1402.58 578.904 1414.98 592.906 1429.44 C 592.176 1431.72 591.631 1433.88 590.999 1436.19 C 579.253 1432.19 562.733 1406.86 559.38 1394.83 C 558.845 1392.91 558.508 1392.1 557.694 1390.22 C 558.087 1388.38 558.587 1386.3 558.855 1384.46 z" fill="rgb(9,28,30)" transform="translate(0,0)"></path>
<path d="M 491.818 1434.06 C 492.064 1431.2 492.349 1428.34 492.672 1425.48 C 497.082 1439.39 501.209 1451.56 507.507 1464.87 C 510.322 1470.82 514.417 1476.21 516.839 1481.56 C 512.048 1480.71 507.425 1479.51 502.957 1477.57 C 498.263 1466.82 493.079 1445.66 491.818 1434.06 z" fill="rgb(9,28,30)" transform="translate(0,0)"></path>
<path d="M 807.873 1399.47 C 806.42 1389.74 807.313 1378.9 806.952 1369.02 C 806.929 1368.39 807.443 1368.52 807.735 1368.57 L 807.408 1368.5 L 808.047 1368.99 C 808.291 1369.77 808.423 1370.14 808.843 1370.87 C 807.299 1379.83 808.867 1389.49 807.873 1399.47 z" fill="rgb(15,19,19)" transform="translate(0,0)"></path>
<path d="M 666.738 1196.15 C 670.885 1184.88 668.902 1214.1 668.877 1215.1 C 667.25 1207.3 669.12 1200.66 666.738 1196.15 z" fill="rgb(15,19,19)" transform="translate(0,0)"></path>
<path d="M 570.251 788.205 C 573.219 785.704 574.115 784.54 578.046 784.376 C 576.168 786.483 574.405 788.451 572.448 790.502 L 570.251 788.205 z" fill="rgb(66,58,56)" transform="translate(0,0)"></path>
<path d="M 1516.62 1423.12 C 1517.16 1421.7 1517.97 1418.51 1519.34 1417.75 C 1520.85 1417.81 1518.85 1425.94 1518.69 1426.97 L 1516.62 1423.12 z" fill="rgb(15,19,19)" transform="translate(0,0)"></path>
<path d="M 1880.2 368.683 C 1883.29 367.643 1884.55 368.146 1887.31 369.605 C 1884.33 370.521 1882.53 370.987 1879.49 371.581 L 1880.2 368.683 z" fill="rgb(66,58,56)" transform="translate(0,0)"></path>
<path d="M 491.818 1434.06 C 491.555 1432.68 490.107 1421.73 490.643 1421.34 C 492.572 1421.15 492.566 1424.05 492.672 1425.48 C 492.349 1428.34 492.064 1431.2 491.818 1434.06 z" fill="rgb(66,58,56)" transform="translate(0,0)"></path>
<path d="M 1556.75 1425.23 C 1556.89 1424.06 1557.02 1421.12 1558.34 1420.63 C 1559.74 1421.36 1558.79 1429.17 1558.56 1430.64 C 1557.98 1427.85 1558.03 1427.75 1556.75 1425.23 z" fill="rgb(66,58,56)" transform="translate(0,0)"></path>
<path d="M 1187.4 898.627 C 1189.54 902.28 1189.25 902.495 1188.44 907.006 L 1186.18 906.072 C 1186.63 903.598 1187.04 901.116 1187.4 898.627 z" fill="rgb(66,58,56)" transform="translate(0,0)"></path>
<path d="M 1380.85 1206.14 C 1380.52 1204 1379.07 1195.08 1380.63 1193.48 L 1380.73 1193.56 L 1381.01 1193.52 C 1381.58 1194.77 1381.47 1194.36 1381.61 1195.65 C 1381.2 1199.14 1381.15 1202.64 1380.85 1206.14 z" fill="rgb(15,19,19)" transform="translate(0,0)"></path>
<path d="M 860.861 909.237 C 859.611 903.08 859.353 902.121 861.039 896.522 C 861.3 897.649 861.45 898.788 861.63 899.932 C 861.432 903.187 861.215 905.972 860.861 909.237 z" fill="rgb(66,58,56)" transform="translate(0,0)"></path>
<path d="M 657.131 1080.05 C 657.836 1079.01 659.052 1076.87 660.367 1076.53 C 661.819 1077.3 658.718 1081.3 658.224 1082.11 L 657.131 1080.05 z" fill="rgb(15,19,19)" transform="translate(0,0)"></path>
<path d="M 579.905 1172.3 C 580.434 1171.07 581.292 1168.56 582.479 1167.86 C 583.302 1168.34 583.216 1172.53 583.268 1173.39 L 579.905 1172.3 z" fill="rgb(15,19,19)" transform="translate(0,0)"></path>
<path d="M 159.041 369.911 C 153.818 368.129 156.276 367.36 159.869 365.959 L 159.041 369.911 z" fill="rgb(158,96,81)" transform="translate(0,0)"></path>
<path d="M 1390.82 1082.21 C 1390.03 1080.8 1388.45 1078.49 1388.45 1076.88 C 1388.53 1076.79 1388.61 1076.71 1388.69 1076.62 C 1389.85 1076.94 1391.28 1079.5 1391.86 1080.36 L 1390.82 1082.21 z" fill="rgb(66,58,56)" transform="translate(0,0)"></path>
<path d="M 557.694 1390.22 C 557.409 1388.81 556.167 1384.87 556.97 1383.53 C 557.075 1383.35 557.207 1383.27 557.405 1383.26 C 557.925 1383.25 558.687 1384.28 558.855 1384.46 C 558.587 1386.3 558.087 1388.38 557.694 1390.22 z" fill="rgb(15,19,19)" transform="translate(0,0)"></path>
<path d="M 780.913 1662.14 C 780.943 1672.72 780.587 1684.82 780.872 1695.26 C 813.725 1707.14 861.969 1710.04 893.962 1695.62 L 894.003 1667.5 L 900.968 1666.75 C 920.245 1664.7 952.279 1680.65 953.186 1702.19 C 953.811 1717.02 940.178 1728.53 928.795 1735.77 C 929.033 1741.22 928.96 1745.76 930.366 1751.04 C 934.019 1750.94 937.827 1753.96 940.334 1756.44 C 963.271 1779.1 972.586 1823.91 962.348 1854.21 C 956.588 1871.2 949.597 1893.7 940.328 1908.77 C 917.273 1916.3 892.279 1921.77 868.873 1928.96 C 861.68 1924.78 856.845 1920.09 850.883 1914.3 C 828.563 1920.84 813.028 1929.08 791.238 1936.96 C 782.346 1940.17 759.341 1942.42 746.416 1944.34 C 666.161 1956.26 577.805 1953.67 501.205 1925.44 C 487.976 1920.56 472.631 1886.58 469.037 1873.3 C 467.995 1869.48 467.129 1865.62 466.44 1861.73 C 465.913 1859.86 464.609 1848.62 464.277 1846.07 C 465.158 1841.04 465.051 1836.11 465.705 1830.96 C 467.644 1815 472.454 1799.52 479.903 1785.27 C 498.141 1749.61 530.723 1725.5 568.478 1713.45 C 604.674 1701.77 643.495 1700.95 680.154 1711.08 C 685.648 1712.64 694.175 1715.08 699.034 1717.57 L 703.563 1713.5 C 694.824 1703.38 692.854 1691.35 703.134 1681.7 C 722.93 1663.14 754.853 1664.9 779.967 1664.95 L 780.913 1662.14 z" fill="rgb(217,203,184)" transform="translate(0,0)"></path>
<path d="M 466.44 1861.73 C 468.348 1862.01 467.823 1861.78 469.281 1862.47 C 606.268 1927.83 740.025 1914.8 882.674 1877.35 C 906.923 1870.98 938.77 1859.71 961.327 1854.45 L 962.348 1854.21 C 956.588 1871.2 949.597 1893.7 940.328 1908.77 C 917.273 1916.3 892.279 1921.77 868.873 1928.96 C 861.68 1924.78 856.845 1920.09 850.883 1914.3 C 828.563 1920.84 813.028 1929.08 791.238 1936.96 C 782.346 1940.17 759.341 1942.42 746.416 1944.34 C 666.161 1956.26 577.805 1953.67 501.205 1925.44 C 487.976 1920.56 472.631 1886.58 469.037 1873.3 C 467.995 1869.48 467.129 1865.62 466.44 1861.73 z" fill="rgb(9,28,30)" transform="translate(0,0)"></path>
<path d="M 780.913 1662.14 C 780.943 1672.72 780.587 1684.82 780.872 1695.26 C 813.725 1707.14 861.969 1710.04 893.962 1695.62 L 894.003 1667.5 L 900.968 1666.75 C 920.245 1664.7 952.279 1680.65 953.186 1702.19 C 953.811 1717.02 940.178 1728.53 928.795 1735.77 C 925.388 1737.94 921.908 1740 918.361 1741.93 C 869.688 1767.96 811.002 1764.39 759.69 1748.98 C 758.938 1747.68 758.136 1746.41 757.284 1745.18 C 748.59 1732.38 721.07 1700.65 703.563 1713.5 C 694.824 1703.38 692.854 1691.35 703.134 1681.7 C 722.93 1663.14 754.853 1664.9 779.967 1664.95 L 780.913 1662.14 z" fill="rgb(217,203,184)" transform="translate(0,0)"></path>
<path d="M 780.913 1662.14 C 780.943 1672.72 780.587 1684.82 780.872 1695.26 C 813.725 1707.14 861.969 1710.04 893.962 1695.62 L 894.051 1715.77 C 890.349 1718.3 887.019 1719.09 882.921 1722.11 C 853.188 1728.66 809.746 1720.26 780.814 1712.47 C 780.235 1711.56 779.715 1710.68 779.065 1709.82 C 781.029 1705.66 780.012 1671.86 779.967 1664.95 L 780.913 1662.14 z" fill="rgb(135,98,92)" transform="translate(0,0)"></path>
<path d="M 894.051 1715.77 C 901.288 1712.47 906.776 1710.93 913.292 1705.44 C 914.719 1704.24 917.919 1702.84 919.669 1702.01 C 908.067 1713.72 899.912 1719.61 882.921 1722.11 C 887.019 1719.09 890.349 1718.3 894.051 1715.77 z" fill="rgb(15,19,19)" transform="translate(0,0)"></path>
<path d="M 780.814 1712.47 C 773.159 1710.19 755.536 1702.34 753.29 1693.98 C 753.354 1693.81 753.418 1693.64 753.483 1693.47 C 753.429 1693.45 759.682 1699.02 761.263 1700.16 C 767.303 1704.53 772.448 1706.53 779.065 1709.82 C 779.715 1710.68 780.235 1711.56 780.814 1712.47 z" fill="rgb(15,19,19)" transform="translate(0,0)"></path>
<path d="M 703.563 1713.5 C 721.07 1700.65 748.59 1732.38 757.284 1745.18 C 758.136 1746.41 758.938 1747.68 759.69 1748.98 C 811.002 1764.39 869.688 1767.96 918.361 1741.93 C 921.908 1740 925.388 1737.94 928.795 1735.77 C 929.033 1741.22 928.96 1745.76 930.366 1751.04 C 922.642 1760.57 884.109 1769.28 871.009 1770.36 C 832.359 1773.56 801.169 1769.93 764.714 1757.51 C 779.177 1783.01 786.554 1808.49 790.254 1837.57 C 789.666 1842.01 790.208 1842.55 788.341 1846.3 C 777.304 1806.09 758.5 1763 725.87 1735.55 C 717.75 1728.73 707.46 1724.34 699.034 1717.57 L 703.563 1713.5 z" fill="rgb(9,28,30)" transform="translate(0,0)"></path>
<path d="M 464.277 1846.07 C 469.484 1846.49 504.129 1858.72 512.233 1861.22 C 541.517 1870.27 565.94 1876.28 596.129 1881.37 L 592.434 1883.55 C 560.595 1879.05 488.336 1865.19 464.277 1846.07 z" fill="rgb(15,19,19)" transform="translate(0,0)"></path>
<path d="M 596.129 1881.37 C 596.962 1881.46 625.823 1885.64 625.576 1885.54 C 623.944 1887.06 596.292 1884.19 592.434 1883.55 L 596.129 1881.37 z" fill="rgb(84,91,96)" transform="translate(0,0)"></path>
<path d="M 790.254 1837.57 C 791.305 1844.17 791.379 1850.13 792.57 1857.44 L 790.933 1859.61 C 790.262 1855.02 788.713 1850.46 788.341 1846.3 C 790.208 1842.55 789.666 1842.01 790.254 1837.57 z" fill="rgb(15,19,19)" transform="translate(0,0)"></path>
<path d="M 792.57 1857.44 C 792.763 1858.37 793.562 1862.1 792.093 1862.42 C 791.197 1861.61 791.196 1860.79 790.933 1859.61 L 792.57 1857.44 z" fill="rgb(146,144,139)" transform="translate(0,0)"></path>
<path d="M 910.481 1787.9 C 925.444 1785.65 939.442 1795.83 941.905 1810.76 C 944.367 1825.69 934.381 1839.83 919.488 1842.51 C 909.666 1844.27 899.656 1840.6 893.29 1832.92 C 886.925 1825.23 885.19 1814.72 888.75 1805.4 C 892.31 1796.07 900.614 1789.39 910.481 1787.9 z" fill="rgb(158,96,81)" transform="translate(0,0)"></path>
<path d="M 559.579 1738.15 C 574.638 1737.59 574.891 1750.39 566.807 1753.47 C 542.379 1762.78 531.557 1778.09 514.126 1795.37 C 503.487 1800.17 500.303 1785.2 509.298 1775.27 C 523.96 1759.08 538.26 1745.73 559.579 1738.15 z" fill="rgb(239,233,220)" transform="translate(0,0)"></path>
<path d="M 1270.47 1661.59 L 1271.04 1666.24 C 1297.21 1665.46 1326.26 1662.88 1347.72 1681.24 C 1358.73 1690.66 1356.12 1705.01 1347.17 1714.86 L 1350.62 1717.7 C 1355.01 1714.89 1364.65 1712.72 1370.08 1711.17 C 1401.3 1702.28 1430.07 1701.91 1461.81 1708 C 1526.02 1720.32 1587.36 1775.82 1584.95 1845.61 L 1584.87 1847.19 C 1584.98 1853 1585.53 1856.82 1583.55 1862.29 C 1583.4 1863.01 1583.25 1863.73 1583.08 1864.44 C 1579.07 1881.62 1565.81 1914.92 1549.89 1924.86 C 1543.78 1928.67 1520.79 1934.19 1512.32 1936.34 C 1430.2 1957.16 1344.35 1954.11 1261.74 1937.77 C 1249.78 1935.4 1239.51 1928.83 1228.23 1924.15 C 1218.1 1919.95 1209.38 1917.56 1198.92 1914.74 C 1192.76 1920 1187.93 1924.03 1181.37 1928.74 C 1158.2 1921.41 1132.83 1916.06 1110.32 1908.11 C 1101.13 1894.12 1092.23 1870.88 1087.48 1854.97 C 1075.28 1826.11 1086.48 1767.98 1117.54 1750.85 C 1120.29 1749.33 1118.41 1751.72 1120.49 1748.02 L 1122.54 1736.21 L 1117.73 1732.63 C 1070.83 1697.21 1115.91 1667.55 1156.11 1665.34 L 1156.07 1697.17 C 1194.22 1707.66 1233.3 1710.19 1270.55 1695.1 C 1270.19 1685.33 1269.62 1670.97 1270.47 1661.59 z" fill="rgb(217,203,184)" transform="translate(0,0)"></path>
<path d="M 1087.48 1854.97 C 1090.43 1854.37 1107.05 1860.47 1111.86 1861.91 C 1141.29 1870.54 1170.9 1878.53 1200.67 1885.87 C 1311.02 1912.31 1420.29 1921.33 1529.05 1883.49 C 1538.25 1880.29 1580.41 1862.59 1583.55 1862.29 C 1583.4 1863.01 1583.25 1863.73 1583.08 1864.44 C 1579.07 1881.62 1565.81 1914.92 1549.89 1924.86 C 1543.78 1928.67 1520.79 1934.19 1512.32 1936.34 C 1430.2 1957.16 1344.35 1954.11 1261.74 1937.77 C 1249.78 1935.4 1239.51 1928.83 1228.23 1924.15 C 1218.1 1919.95 1209.38 1917.56 1198.92 1914.74 C 1192.76 1920 1187.93 1924.03 1181.37 1928.74 C 1158.2 1921.41 1132.83 1916.06 1110.32 1908.11 C 1101.13 1894.12 1092.23 1870.88 1087.48 1854.97 z" fill="rgb(9,28,30)" transform="translate(0,0)"></path>
<path d="M 1270.47 1661.59 L 1271.04 1666.24 C 1297.21 1665.46 1326.26 1662.88 1347.72 1681.24 C 1358.73 1690.66 1356.12 1705.01 1347.17 1714.86 C 1329.92 1695.03 1298.2 1737.25 1289.8 1750.23 C 1230.15 1763.29 1177.68 1769.05 1122.54 1736.21 L 1117.73 1732.63 C 1070.83 1697.21 1115.91 1667.55 1156.11 1665.34 L 1156.07 1697.17 C 1194.22 1707.66 1233.3 1710.19 1270.55 1695.1 C 1270.19 1685.33 1269.62 1670.97 1270.47 1661.59 z" fill="rgb(217,203,184)" transform="translate(0,0)"></path>
<path d="M 1270.47 1661.59 L 1271.04 1666.24 C 1271.06 1679.98 1270.73 1695.3 1271.15 1708.9 C 1270.85 1709.66 1271.05 1709.84 1271.45 1710.51 L 1271.9 1711.19 C 1239.87 1721.11 1215.38 1725.77 1180.99 1723.26 C 1178.53 1723.08 1168.64 1722.16 1166.78 1721.37 C 1168.5 1718.63 1158.81 1716.32 1155.93 1714.64 L 1156.07 1697.17 C 1194.22 1707.66 1233.3 1710.19 1270.55 1695.1 C 1270.19 1685.33 1269.62 1670.97 1270.47 1661.59 z" fill="rgb(135,98,92)" transform="translate(0,0)"></path>
<path d="M 1131.89 1701.14 C 1143.73 1709.53 1141.76 1708.33 1155.1 1714.26 L 1155.93 1714.64 C 1158.81 1716.32 1168.5 1718.63 1166.78 1721.37 C 1151.57 1719.43 1141.28 1712.74 1131.89 1701.14 z" fill="rgb(15,19,19)" transform="translate(0,0)"></path>
<path d="M 1299.16 1691.26 C 1292.06 1700.42 1285.5 1705.98 1274.4 1710.35 L 1271.84 1709.08 C 1283.88 1702.75 1288.22 1699.45 1299.16 1691.26 z" fill="rgb(15,19,19)" transform="translate(0,0)"></path>
<path d="M 1271.15 1708.9 L 1271.84 1709.08 L 1274.4 1710.35 L 1271.9 1711.19 L 1271.45 1710.51 C 1271.05 1709.84 1270.85 1709.66 1271.15 1708.9 z" fill="rgb(111,89,85)" transform="translate(0,0)"></path>
<path d="M 1289.8 1750.23 C 1298.2 1737.25 1329.92 1695.03 1347.17 1714.86 L 1350.62 1717.7 C 1344.49 1723.82 1331.19 1729.35 1323.48 1736.13 C 1292.11 1763.72 1273.03 1804.71 1262.83 1844.56 L 1259.98 1841.63 C 1261.43 1812.71 1271.18 1783.44 1284.83 1758.11 C 1240.46 1775.82 1169.25 1776.87 1126 1755.29 C 1122.26 1753.42 1121.51 1751.69 1120.49 1748.02 L 1122.54 1736.21 C 1177.68 1769.05 1230.15 1763.29 1289.8 1750.23 z" fill="rgb(9,28,30)" transform="translate(0,0)"></path>
<path d="M 1449.62 1882.16 C 1477.55 1879.64 1516.64 1867.53 1543.58 1859.27 C 1551.15 1856.94 1578.86 1846.01 1584.95 1845.61 L 1584.87 1847.19 C 1543.94 1868.48 1492.56 1879.72 1447.03 1884.45 L 1449.62 1882.16 z" fill="rgb(15,19,19)" transform="translate(0,0)"></path>
<path d="M 1427.47 1885.5 C 1434.79 1884 1442.18 1882.88 1449.62 1882.16 L 1447.03 1884.45 C 1444.91 1885.17 1434.36 1885.76 1431.5 1885.81 C 1430.85 1885.76 1430.2 1885.71 1429.55 1885.65 C 1428.95 1885.62 1428.35 1885.59 1427.75 1885.57 C 1427.66 1885.57 1427.57 1885.57 1427.48 1885.57 L 1427.47 1885.5 z" fill="rgb(110,109,99)" transform="translate(0,0)"></path>
<path d="M 1259.98 1841.63 L 1262.83 1844.56 L 1262.53 1845.91 C 1262 1848.19 1261.5 1850.46 1261.24 1852.78 L 1258.82 1858.06 C 1259.16 1852.51 1259.65 1847.08 1259.98 1841.63 z" fill="rgb(15,19,19)" transform="translate(0,0)"></path>
<path d="M 1261.24 1852.78 C 1261.02 1854.21 1260.58 1859.03 1259.56 1859.83 C 1259.45 1859.71 1259.34 1859.6 1259.22 1859.48 C 1259.09 1859.01 1258.95 1858.53 1258.82 1858.06 L 1261.24 1852.78 z" fill="rgb(146,144,139)" transform="translate(0,0)"></path>
<path d="M 1133.24 1788.17 C 1148.5 1786.63 1162.1 1797.8 1163.56 1813.06 C 1165.02 1828.33 1153.77 1841.87 1138.49 1843.24 C 1123.34 1844.6 1109.93 1833.47 1108.48 1818.32 C 1107.04 1803.17 1118.1 1789.7 1133.24 1788.17 z" fill="rgb(158,96,81)" transform="translate(0,0)"></path>
<path d="M 1481.27 1737.92 C 1499.71 1737.67 1509.33 1746.71 1524.17 1757.44 C 1532.56 1764.7 1543.63 1773.8 1547.27 1784.52 C 1548.46 1788.02 1545.19 1792.52 1543.63 1795.27 C 1535.3 1796.45 1534.14 1793.44 1528.59 1786.73 C 1515.5 1770.93 1499.14 1760.07 1480.54 1751.92 C 1475.54 1749.73 1478.03 1741.89 1481.27 1737.92 z" fill="rgb(239,233,220)" transform="translate(0,0)"></path>
<path d="M 1500.72 428.203 C 1501.76 427.013 1504.86 423.039 1506.26 422.917 C 1506.83 423.716 1504.44 427.952 1504.02 428.906 L 1500.72 428.203 z" fill="rgb(158,96,81)" transform="translate(0,0)"></path>
<path d="M 875.031 206.348 C 867.826 202.475 870.041 203.021 877.087 202.517 L 875.031 206.348 z" fill="rgb(158,96,81)" transform="translate(0,0)"></path>
<metadata><recraft-signature>{"signed_by": "recraft", "signature_b64": "cy+DMmhGE4nHrDtwmg6DCrGzvL2xVS4Z3rwcH3dSaTdkeNwOqGXaZkoA9Nr0xl42uv2262Cid8wk6bRg+U4xDg==", "signing_algo": "Ed25519", "generation_timestamp": 1778553305, "identifier": "a4987c86-d74b-4876-9f13-0653f8a957a6"}</recraft-signature></metadata></svg>