<svg xmlns="http://www.w3.org/2000/svg" height="1024" preserveAspectRatio="none" style="display: block;" version="1.1" viewBox="0 0 2048 2048" width="1024">

<path d="M 327.786 1070.09 C 330.923 1070.39 332.958 1070.38 336.119 1070.39 C 347.676 1071.18 356.506 1071.82 367.989 1074.21 C 372.26 1075.13 376.495 1076.21 380.686 1077.45 C 379.232 1087.99 376.606 1106.92 375.403 1116.91 C 373.682 1131.2 358.774 1200.12 363.842 1208.46 C 362.065 1224.69 362.336 1235.65 367.423 1251.52 C 372.239 1264.25 375.675 1272 382.547 1283.71 L 387.306 1291.28 C 400.609 1309.23 406.573 1315.66 424.109 1330.17 C 449.813 1350.22 472.363 1363.9 504.5 1372.18 C 511.398 1373.79 524.826 1376.4 530.83 1378.26 C 560.326 1383.3 657.707 1389.67 686.218 1384.13 C 695.528 1382.25 704.33 1378.41 712.032 1372.85 C 720.997 1366.48 726.067 1360.41 732.365 1351.61 C 738.656 1394.4 759.202 1392.81 797.294 1389.28 C 808.394 1388.25 819.867 1382.44 830.874 1382.99 C 837.538 1383.22 851.5 1392.09 854.146 1391.07 C 858.623 1370.78 865.826 1339.95 864.324 1320.03 C 871.333 1336.71 887.589 1371.12 895.981 1386.84 C 908.486 1386.96 949.443 1388.02 959.501 1385.78 C 972.122 1389.75 992.928 1391.48 1004.48 1384.15 C 1017.05 1376.18 1019.71 1362.38 1022.93 1349.02 C 1034.98 1391.99 1063.43 1396.82 1103.74 1388.1 C 1114.39 1385.8 1123.23 1377.31 1135.43 1377.78 C 1146.52 1378.2 1151.13 1384.46 1161.09 1387.89 C 1179.14 1392.68 1216.77 1390.37 1232.82 1382.95 C 1242.08 1378.66 1249.26 1337.61 1252.57 1324.94 C 1277.17 1392.74 1280.06 1391.79 1352.9 1390.22 C 1406.36 1389.06 1466.17 1393.41 1518.64 1379.47 C 1527.18 1377.66 1536.48 1374.97 1544.99 1372.7 C 1579.2 1361.36 1595.97 1351.92 1624.54 1330.53 C 1641.3 1316.64 1648.87 1309.9 1661.88 1292.03 C 1663.71 1289.4 1665.56 1286.79 1667.43 1284.18 C 1673.88 1272.95 1677.73 1263.94 1681.99 1251.8 C 1685.08 1241.89 1685.52 1235.67 1686.19 1225.35 L 1686.32 1224.8 C 1692.27 1199.41 1665.23 1085.58 1668.15 1079.61 C 1682.25 1075 1697.84 1071.22 1712.72 1070.86 C 1715.03 1070.86 1717.15 1070.88 1719.46 1070.99 C 1720.94 1070.94 1722.43 1070.89 1723.91 1070.83 C 1772.28 1075.88 1803.41 1110.45 1798.3 1160.25 C 1794.89 1193.61 1773.52 1226.4 1799.26 1257 C 1830.5 1297.06 1881.13 1278.97 1922.84 1274.37 C 1939.05 1272.58 1972.27 1279.87 1970.95 1299.24 C 1968.99 1328.17 1958.4 1360.88 2000.07 1367.66 C 2020.35 1370.96 2033.01 1363.27 2048 1349.26 L 2048 2048 L 0 2048 L 0 1348.99 C 13.3066 1360.05 22.5083 1367.96 41.5788 1367.97 C 51.846 1367.98 66.3192 1363.32 72.9228 1355.6 C 85.5972 1340.78 79.4323 1319.58 78.042 1302.34 C 77.5884 1296.71 79.6177 1288.83 84.078 1285.15 C 111.779 1262.26 162.379 1284.49 194.544 1282.67 C 216.128 1281.45 232.412 1275.83 246.331 1260.99 C 278.056 1227.16 251.659 1190.09 250.095 1152.51 C 249.245 1132.08 255.484 1109.76 270.341 1095.18 C 284.921 1080.88 304.302 1070.96 325.004 1070.84 L 327.786 1070.09 z" fill="rgb(255,255,255)" transform="translate(0,0)"></path>
<path d="M 1681.99 1251.8 C 1693.21 1260.97 1716.35 1267.39 1730.54 1270.24 C 1774.72 1279.13 1819.57 1285.52 1854.07 1317.51 C 1865.44 1328.05 1874.2 1339.72 1875.8 1355.58 C 1878.42 1381.28 1857.17 1393.08 1840.96 1406.96 C 1813.43 1430.55 1801.62 1481.97 1834.8 1506.19 C 1857.7 1522.92 1891.89 1520.78 1898.54 1555.38 C 1904.17 1584.67 1879.91 1596.64 1857.89 1607.41 C 1839.88 1616.18 1827.32 1633.73 1830.89 1654.36 C 1839.15 1702.16 1896.14 1682.16 1928.29 1695.94 C 1958.73 1708.99 1968.81 1743.2 1941.86 1765.74 C 1939.51 1765.58 1938.41 1765.62 1936.05 1765.77 C 1940.87 1757.7 1943.6 1750.55 1941.05 1741.05 C 1929.43 1697.73 1872.56 1708.68 1839.36 1706.12 C 1827.62 1705.22 1814.03 1701.24 1804.07 1695.25 C 1791.78 1687.78 1783.08 1675.62 1779.98 1661.57 C 1775.2 1640.7 1788.27 1623.2 1804.82 1612.16 C 1816.75 1604.21 1831.36 1601.04 1839.28 1587.13 C 1843.96 1578.89 1844.02 1567.55 1841.6 1558.76 C 1836.48 1538.5 1814.04 1529.59 1797.33 1520.43 C 1760.65 1500.34 1749.4 1462.6 1782.32 1431.75 C 1794.95 1419.92 1811.88 1410.71 1820.69 1395.81 C 1826.6 1385.82 1826.43 1372.67 1822.86 1361.89 C 1805.99 1310.33 1742.09 1308.59 1698.25 1296.89 C 1686.44 1293.75 1678.15 1289.82 1667.43 1284.18 C 1673.88 1272.95 1677.73 1263.94 1681.99 1251.8 z" fill="rgb(244,162,47)" transform="translate(0,0)"></path>
<path d="M 1784.97 1449.76 C 1787.22 1452.1 1781.77 1460.91 1781.89 1467 C 1782.18 1481.75 1787.94 1493.29 1798.55 1503.44 C 1799.8 1504.63 1808.35 1511.5 1808.3 1512.5 C 1808.08 1512.73 1808.26 1512.59 1807.6 1512.92 C 1778.13 1498.78 1768.43 1479.4 1784.97 1449.76 z" fill="rgb(250,194,109)" transform="translate(0,0)"></path>
<path d="M 1798.28 1633.11 L 1799.34 1635.24 C 1795.76 1641.5 1796.08 1643.59 1795.89 1650.51 C 1795.47 1665.51 1806.83 1674 1816.69 1683.36 C 1803.24 1675.92 1791.19 1668.29 1790.51 1650.76 C 1790.22 1643.35 1793.19 1638.29 1798.28 1633.11 z" fill="rgb(250,194,109)" transform="translate(0,0)"></path>
<path d="M 1810 1307.94 C 1815.13 1308.85 1816.58 1309.8 1821.09 1311.94 C 1838.31 1320.09 1841.56 1325.84 1849.07 1342.27 C 1844.28 1339.51 1837.7 1325.16 1828.54 1320.97 C 1827.67 1320.57 1810.21 1308.16 1810 1307.94 z" fill="rgb(250,194,109)" transform="translate(0,0)"></path>
<path d="M 1798.28 1633.11 C 1799.05 1632.06 1800.78 1629.61 1802.3 1629.82 C 1802.92 1630.99 1800.01 1634.37 1799.34 1635.24 L 1798.28 1633.11 z" fill="rgb(250,194,109)" transform="translate(0,0)"></path>
<path d="M 367.423 1251.52 C 372.239 1264.25 375.675 1272 382.547 1283.71 C 334.338 1310.57 248.931 1299.74 226.3 1360.98 C 209.64 1406.07 262.064 1417.03 279.393 1447.61 C 297.485 1478.99 277.386 1507.94 248.895 1521.77 C 232.473 1530.58 213.461 1537.62 207.844 1557.39 C 200.241 1584.15 213.86 1597.94 236.786 1608.93 C 287.422 1633.21 277.525 1689.4 225.033 1703.23 C 180.433 1714.99 119.908 1686.32 106.435 1750.32 C 109.827 1761.01 112.491 1767.15 122.252 1773.86 L 121.558 1775.48 C 94.1267 1761.94 80.4442 1732.41 103.7 1707.37 C 131.722 1677.2 176.182 1700.27 206.476 1676.61 C 218.58 1667.16 222.218 1644.86 215.938 1631.27 C 202.779 1598.16 143.768 1602.62 149.272 1558.28 C 153.734 1522.33 192.23 1522.07 216.068 1504.15 C 246.48 1481.29 233.969 1427.32 208.033 1406.58 C 175.722 1380.73 156.222 1360.4 191.277 1321.87 C 208.773 1302.99 228.8 1293.5 253.534 1284.6 C 286.492 1272.75 338.165 1273.49 366.289 1252.39 L 367.423 1251.52 z" fill="rgb(244,162,47)" transform="translate(0,0)"></path>
<path d="M 262.546 1448.78 C 274.85 1457.37 274.007 1480.58 266.489 1491.99 C 260.44 1501.18 251.073 1508.18 241.5 1513.12 C 240.951 1513.28 239.708 1513.78 239.053 1513.44 C 238.818 1511.99 242.983 1509.78 243.969 1509.15 C 254.227 1502.58 262.223 1490.83 264.91 1478.99 C 266.565 1471.7 267.512 1462.17 264.951 1455.01 C 264.286 1453.29 263.491 1451.45 262.833 1449.6 L 262.546 1448.78 z" fill="rgb(250,194,109)" transform="translate(0,0)"></path>
<path d="M 245.748 1629.57 C 254.962 1632.2 258.797 1644.67 257.528 1653.33 C 255.511 1667.09 247.765 1672.6 237.695 1680.21 C 237.085 1680.42 235.257 1681.34 234.756 1680.39 C 235.444 1678.01 253.518 1665.77 252.955 1655.5 C 252.537 1647.85 254.898 1642.07 249.539 1634.66 C 248.307 1632.94 247.043 1631.24 245.748 1629.57 z" fill="rgb(250,194,109)" transform="translate(0,0)"></path>
<path d="M 234.395 1309.86 C 234.68 1309.96 234.965 1310.07 235.25 1310.17 C 235.365 1310.28 235.48 1310.39 235.595 1310.49 C 234.881 1312.22 227.086 1315.98 224.797 1317.74 C 214.137 1325.94 208.106 1332.93 201.188 1344.14 C 201.012 1344.22 200.836 1344.29 200.659 1344.37 C 200.181 1343.39 201.943 1339.31 202.363 1338.32 C 209.041 1322.51 219.323 1316.32 234.395 1309.86 z" fill="rgb(250,194,109)" transform="translate(0,0)"></path>
<path d="M 1624.54 1330.53 C 1641.3 1316.64 1648.87 1309.9 1661.88 1292.03 C 1686.43 1324.13 1730.73 1361.57 1727.48 1405.73 C 1726.42 1420.16 1715.08 1432.91 1703.92 1440.9 C 1677.31 1461.31 1633.08 1466.48 1626.13 1505.49 C 1624.71 1514.44 1626.55 1526.33 1632.35 1533.43 C 1654.86 1560.98 1703.15 1533.75 1725.48 1560.4 C 1741.51 1579.52 1733.58 1606.95 1715.64 1621.41 C 1714.45 1622.36 1713.25 1623.29 1712.04 1624.21 L 1710.07 1622.09 C 1718.38 1612.85 1723.71 1602.68 1720.86 1589.89 C 1715.29 1564.92 1686.49 1565.67 1666.32 1564.46 C 1644.24 1563.13 1620.64 1560.93 1601.56 1548.49 C 1570.07 1527.97 1584.59 1488.54 1607 1467.58 C 1624.84 1450.82 1646.88 1440.33 1660.76 1419.34 C 1685.94 1381.24 1655.79 1350.05 1624.54 1330.53 z" fill="rgb(244,162,47)" transform="translate(0,0)"></path>
<path d="M 387.306 1291.28 C 400.609 1309.23 406.573 1315.66 424.109 1330.17 C 360.233 1374.32 365.353 1412.33 428.26 1455.74 C 472.378 1486.18 484.56 1546.1 418.957 1560.48 C 397.726 1565.13 375.763 1563.38 354.464 1567.06 C 312.968 1578.77 324.104 1607.31 345.629 1629.68 C 343.28 1628.25 340.971 1626.77 338.705 1625.21 C 318.348 1611.33 305.697 1586 321.913 1562.73 C 337.596 1542.8 366.291 1549.23 388.079 1546.8 C 411.794 1544.34 427.04 1529.31 422.538 1504.48 C 413.415 1454.16 329.852 1456.99 321.55 1406.84 C 314.436 1363.87 364.526 1324.63 386.357 1292.68 L 387.306 1291.28 z" fill="rgb(244,162,47)" transform="translate(0,0)"></path>
<path d="M 504.5 1372.18 C 511.398 1373.79 524.826 1376.4 530.83 1378.26 C 518.867 1385.51 507.617 1393.67 503.925 1408.28 C 499.995 1423.83 509.791 1434.55 525.107 1436.34 C 551.195 1439.39 588.189 1430.72 606.228 1455.87 C 631.172 1489.75 561.464 1489.67 585.171 1521.77 C 602.639 1544.29 645.138 1519.02 651.451 1556.82 L 648.448 1558.89 C 647.142 1554.18 645.704 1550.42 641.949 1547.07 C 629.511 1535.96 608.895 1543.47 593.96 1543.81 C 583.076 1544.05 571.582 1541.53 563.616 1533.65 C 559.422 1529.51 555.688 1523.75 555.798 1517.65 C 556.042 1504.1 571 1496.97 579.601 1488.95 C 584.061 1484.78 587.928 1479.27 587.934 1472.93 C 587.939 1468.63 585.962 1464.74 583.288 1461.48 C 566.302 1440.83 514.998 1461.22 490.479 1436.56 C 483.78 1429.82 480.685 1419.64 481.157 1410.27 C 481.925 1394.99 493.487 1381.73 504.5 1372.18 z" fill="rgb(244,162,47)" transform="translate(0,0)"></path>
<path d="M 1544.99 1372.7 C 1562.6 1390.67 1578.07 1413.7 1557.22 1437.93 C 1538.53 1459.64 1484.39 1443.17 1467.76 1458.89 C 1436.36 1488.59 1515.22 1498.36 1485.77 1532.51 C 1463.56 1558.27 1425.37 1529.03 1406.8 1547.17 C 1402.99 1550.82 1400.89 1555.89 1400.98 1561.15 C 1401.01 1562.18 1401.06 1562.99 1401.19 1564 L 1399.07 1564.96 C 1389.66 1519.76 1452.21 1543.66 1466.02 1519.53 C 1483.23 1489.48 1420 1489.4 1441.56 1457.07 C 1459.79 1429.73 1497.7 1439.95 1525.08 1436.15 C 1540.76 1433.97 1547.72 1421.77 1544.07 1406.91 C 1540.58 1392.72 1530.01 1386.56 1518.64 1379.47 C 1527.18 1377.66 1536.48 1374.97 1544.99 1372.7 z" fill="rgb(244,162,47)" transform="translate(0,0)"></path>
<path d="M 1920.14 1778.42 C 1925.23 1774.61 1931.88 1768.83 1936.05 1765.77 C 1938.41 1765.62 1939.51 1765.58 1941.86 1765.74 C 1934.96 1771.95 1928.37 1774.85 1920.14 1778.42 z" fill="rgb(245,180,94)" transform="translate(0,0)"></path>
<path d="M 651.451 1556.82 C 651.153 1559.86 649.97 1569.94 646.736 1571.02 C 646.566 1570.55 648.196 1559.98 648.448 1558.89 L 651.451 1556.82 z" fill="rgb(245,180,94)" transform="translate(0,0)"></path>
<path d="M 1710.07 1622.09 L 1712.04 1624.21 C 1708.61 1626.56 1705.23 1628.07 1701.58 1630.02 C 1704.59 1627.02 1706.71 1624.73 1710.07 1622.09 z" fill="rgb(245,180,94)" transform="translate(0,0)"></path>
<path d="M 122.252 1773.86 C 131.539 1778.86 126.933 1779.44 121.558 1775.48 L 122.252 1773.86 z" fill="rgb(230,213,191)" transform="translate(0,0)"></path>
<path d="M 1399.07 1564.96 L 1401.19 1564 C 1402.85 1570.49 1401.52 1571.98 1399.07 1564.96 z" fill="rgb(230,213,191)" transform="translate(0,0)"></path>
<path d="M 459.34 658.95 C 478.071 659.136 503.57 663.028 521.513 667.698 C 523.338 671.233 524.375 672.997 525.511 676.765 C 527.239 680.914 529.189 684.846 530.557 689.113 C 535.902 702.25 536.29 708.975 537.785 722.17 C 546.891 703.981 556.571 685.782 571.311 671.476 C 615.718 676.233 675.341 726.203 695.936 764.599 C 690.148 785.646 681.032 810.469 674.303 832.513 C 691.044 829.907 713.753 828.536 727.88 839.506 C 732.976 839.314 738.917 838.947 743.946 838.913 C 767.459 835.403 854.554 835.523 877.246 839.166 C 884.771 860.886 907.031 885.625 922.123 902.005 C 921.372 888.47 918.239 859.503 928.775 850.776 C 953.092 830.631 1012.1 836.263 1036.33 849.285 C 1038.86 861.139 1041.56 873.117 1043.58 885.058 C 1068.44 823.008 1140.32 836.34 1194.49 841.041 C 1218.59 845.587 1247.02 837.123 1262.38 861.297 C 1273.18 878.297 1277.44 900.333 1280.86 919.871 C 1283.28 892.302 1287.11 857.52 1315.96 845.134 C 1324.14 841.434 1333.3 840.064 1342.12 838.513 C 1362.2 930.893 1361.33 1000.36 1341.42 1092.82 C 1336.17 1117.2 1332.4 1140.83 1325.3 1165.3 C 1326.15 1166.15 1326.99 1167.02 1327.82 1167.89 C 1333.6 1157.89 1342.73 1135.65 1347.57 1124.51 C 1365.89 1082.89 1382.27 1040.44 1396.65 997.294 L 1397.2 995.787 L 1398.67 992.194 C 1402.47 981.573 1403.91 970.468 1407.35 959.696 C 1415.29 951.949 1423.94 946.557 1433.3 940.7 C 1437.86 914.493 1456.54 892.706 1465.96 870.35 C 1526.87 840.821 1607.31 863.451 1652.76 910.962 C 1660.25 919.537 1665.31 927.459 1671.05 937.289 C 1677.81 953.087 1681.82 965.582 1681.54 983.15 C 1681.27 999.526 1674.92 1021.27 1660.14 1030.2 L 1660.46 1032.09 C 1659.62 1036.18 1665.13 1076 1668.15 1079.61 C 1665.23 1085.58 1692.27 1199.41 1686.32 1224.8 L 1686.19 1225.35 C 1685.52 1235.67 1685.08 1241.89 1681.99 1251.8 C 1677.73 1263.94 1673.88 1272.95 1667.43 1284.18 C 1665.56 1286.79 1663.71 1289.4 1661.88 1292.03 C 1648.87 1309.9 1641.3 1316.64 1624.54 1330.53 C 1595.97 1351.92 1579.2 1361.36 1544.99 1372.7 C 1536.48 1374.97 1527.18 1377.66 1518.64 1379.47 C 1466.17 1393.41 1406.36 1389.06 1352.9 1390.22 C 1280.06 1391.79 1277.17 1392.74 1252.57 1324.94 C 1249.26 1337.61 1242.08 1378.66 1232.82 1382.95 C 1216.77 1390.37 1179.14 1392.68 1161.09 1387.89 C 1151.13 1384.46 1146.52 1378.2 1135.43 1377.78 C 1123.23 1377.31 1114.39 1385.8 1103.74 1388.1 C 1063.43 1396.82 1034.98 1391.99 1022.93 1349.02 C 1019.71 1362.38 1017.05 1376.18 1004.48 1384.15 C 992.928 1391.48 972.122 1389.75 959.501 1385.78 C 949.443 1388.02 908.486 1386.96 895.981 1386.84 C 887.589 1371.12 871.333 1336.71 864.324 1320.03 C 865.826 1339.95 858.623 1370.78 854.146 1391.07 C 851.5 1392.09 837.538 1383.22 830.874 1382.99 C 819.867 1382.44 808.394 1388.25 797.294 1389.28 C 759.202 1392.81 738.656 1394.4 732.365 1351.61 C 726.067 1360.41 720.997 1366.48 712.032 1372.85 C 704.33 1378.41 695.528 1382.25 686.218 1384.13 C 657.707 1389.67 560.326 1383.3 530.83 1378.26 C 524.826 1376.4 511.398 1373.79 504.5 1372.18 C 472.363 1363.9 449.813 1350.22 424.109 1330.17 C 406.573 1315.66 400.609 1309.23 387.306 1291.28 L 382.547 1283.71 C 375.675 1272 372.239 1264.25 367.423 1251.52 C 362.336 1235.65 362.065 1224.69 363.842 1208.46 C 358.774 1200.12 373.682 1131.2 375.403 1116.91 C 376.606 1106.92 379.232 1087.99 380.686 1077.45 C 383.713 1063.29 385.626 1047.89 387.924 1033.58 C 388.057 1032.75 385.883 1031.41 385.491 1031.13 L 386.412 1029.91 C 360.964 1002.17 365.209 968.566 378.485 936.162 C 383.793 926.37 388.286 920.721 395.32 912.147 C 391.39 901.493 386.58 877.362 383.555 867.145 C 379.247 852.591 357.664 772.64 350.262 765.553 C 348.968 758.179 338.977 733.833 335.895 726.475 C 350.102 701.187 395.036 671.275 423.854 666.115 C 430.288 670.104 447.729 685.762 454.146 691.297 C 456.121 680.434 458.163 669.942 459.34 658.95 z" fill="rgb(230,213,191)" transform="translate(0,0)"></path>
<path d="M 459.34 658.95 C 478.071 659.136 503.57 663.028 521.513 667.698 C 523.338 671.233 524.375 672.997 525.511 676.765 C 527.239 680.914 529.189 684.846 530.557 689.113 C 535.902 702.25 536.29 708.975 537.785 722.17 C 546.891 703.981 556.571 685.782 571.311 671.476 C 615.718 676.233 675.341 726.203 695.936 764.599 C 690.148 785.646 681.032 810.469 674.303 832.513 C 691.044 829.907 713.753 828.536 727.88 839.506 C 679.531 951.229 692.428 1069.66 725.196 1183.83 C 734.175 1216.56 731.886 1248.43 714.774 1278.29 C 694.113 1313.74 660.156 1339.47 620.441 1349.78 C 581.874 1360 539.049 1355.61 504.432 1335.36 C 468.371 1314.26 449.061 1283.69 439.11 1243.69 C 436.927 1234.92 434.086 1221.03 434.004 1211.98 C 433.282 1210.9 432.572 1209.81 431.876 1208.71 C 430.805 1235.55 432.972 1265 441.467 1290.58 L 439.97 1293.1 C 423.52 1260.52 413.843 1228.8 415.441 1191.86 C 414.81 1190.61 414.17 1189.38 413.52 1188.15 C 389.794 1271.91 418.061 1341.06 505.49 1365 C 517.951 1368.38 530.648 1370.81 543.475 1372.27 C 569.578 1375.14 601.403 1374.39 627.968 1374.96 C 640.082 1375.22 667.027 1375.39 678.025 1373.69 C 686.153 1372.52 693.996 1369.86 701.16 1365.84 C 721.848 1354.01 738.015 1320.06 748.601 1298.79 C 745.503 1317.24 739.207 1354.81 748.937 1371.21 C 756.495 1383.95 783.822 1380.1 795.93 1378.09 C 821.378 1372.94 836.633 1365.02 854.146 1391.07 C 851.5 1392.09 837.538 1383.22 830.874 1382.99 C 819.867 1382.44 808.394 1388.25 797.294 1389.28 C 759.202 1392.81 738.656 1394.4 732.365 1351.61 C 726.067 1360.41 720.997 1366.48 712.032 1372.85 C 704.33 1378.41 695.528 1382.25 686.218 1384.13 C 657.707 1389.67 560.326 1383.3 530.83 1378.26 C 524.826 1376.4 511.398 1373.79 504.5 1372.18 C 472.363 1363.9 449.813 1350.22 424.109 1330.17 C 406.573 1315.66 400.609 1309.23 387.306 1291.28 L 382.547 1283.71 C 375.675 1272 372.239 1264.25 367.423 1251.52 C 362.336 1235.65 362.065 1224.69 363.842 1208.46 C 358.774 1200.12 373.682 1131.2 375.403 1116.91 C 376.606 1106.92 379.232 1087.99 380.686 1077.45 C 383.713 1063.29 385.626 1047.89 387.924 1033.58 C 388.057 1032.75 385.883 1031.41 385.491 1031.13 L 386.412 1029.91 C 360.964 1002.17 365.209 968.566 378.485 936.162 C 383.793 926.37 388.286 920.721 395.32 912.147 C 391.39 901.493 386.58 877.362 383.555 867.145 C 379.247 852.591 357.664 772.64 350.262 765.553 C 348.968 758.179 338.977 733.833 335.895 726.475 C 350.102 701.187 395.036 671.275 423.854 666.115 C 430.288 670.104 447.729 685.762 454.146 691.297 C 456.121 680.434 458.163 669.942 459.34 658.95 z" fill="rgb(41,42,67)" transform="translate(0,0)"></path>
<path d="M 395.32 912.147 C 441.042 864.696 523.219 839.399 584.014 871.222 C 592.695 886.232 613.022 924.606 614.761 940.445 C 624.808 946.86 635.906 953.368 642.614 963.442 C 644.768 971.559 647.322 979.137 649.51 987.054 C 650.326 989.806 651.045 992.365 652.079 995.055 C 663.301 1031.66 678.179 1069.67 692.155 1105.34 C 700.599 1126.89 711.73 1148.52 719.687 1170.42 C 684.527 1120.5 637.004 1097.76 576.004 1109.96 C 545.29 1083.19 539.567 1056.23 531.275 1017.49 L 529.603 1018.33 C 531.749 1048.46 532.342 1074.6 528.753 1104.51 C 522.539 1104.67 516.19 1104.77 509.995 1105.19 C 446.824 1109.44 383.618 1145.68 363.842 1208.46 C 358.774 1200.12 373.682 1131.2 375.403 1116.91 C 376.606 1106.92 379.232 1087.99 380.686 1077.45 C 383.713 1063.29 385.626 1047.89 387.924 1033.58 C 388.057 1032.75 385.883 1031.41 385.491 1031.13 L 386.412 1029.91 C 360.964 1002.17 365.209 968.566 378.485 936.162 C 383.793 926.37 388.286 920.721 395.32 912.147 z" fill="rgb(230,213,191)" transform="translate(0,0)"></path>
<path d="M 395.32 912.147 C 441.042 864.696 523.219 839.399 584.014 871.222 C 592.695 886.232 613.022 924.606 614.761 940.445 C 608.623 937.462 602.348 934.374 596.058 931.74 C 529.602 903.908 444.796 918.47 396.754 974.279 C 393.888 991.326 392.201 1010.5 388.794 1027.15 L 388.228 1029.55 L 386.412 1029.91 C 360.964 1002.17 365.209 968.566 378.485 936.162 C 383.793 926.37 388.286 920.721 395.32 912.147 z" fill="rgb(244,162,47)" transform="translate(0,0)"></path>
<path d="M 396.754 974.279 C 393.888 991.326 392.201 1010.5 388.794 1027.15 C 380.309 1010.71 383.51 989.302 395.668 975.543 L 396.754 974.279 z" fill="rgb(41,42,67)" transform="translate(0,0)"></path>
<path d="M 434.848 928.919 C 463.1 907.301 484.35 895.098 521.147 901.822 C 522.075 902.196 522.943 902.009 523.149 903.016 C 522.105 904.379 516.245 903.979 514.441 904.018 C 497.736 904.53 469.163 913.708 453.561 920.12 C 447.462 922.627 441.357 926.294 434.848 928.919 z" fill="rgb(250,194,109)" transform="translate(0,0)"></path>
<path d="M 521.147 901.822 C 522.075 902.196 522.943 902.009 523.149 903.016 C 522.105 904.379 516.245 903.979 514.441 904.018 C 516.659 903.234 518.895 902.502 521.147 901.822 z" fill="rgb(245,180,94)" transform="translate(0,0)"></path>
<path d="M 529.603 1018.33 C 529.172 1016.42 528.141 1006.06 528.74 1004.93 C 530.222 1005.19 531.195 1015.74 531.275 1017.49 L 529.603 1018.33 z" fill="rgb(134,122,120)" transform="translate(0,0)"></path>
<path d="M 459.34 658.95 C 478.071 659.136 503.57 663.028 521.513 667.698 C 523.338 671.233 524.375 672.997 525.511 676.765 C 527.239 680.914 529.189 684.846 530.557 689.113 C 535.902 702.25 536.29 708.975 537.785 722.17 C 531.896 723.74 534.713 729.388 533.878 736.073 L 533.88 758.539 L 536.908 758.481 C 544.923 728.005 555.184 707.335 574.991 682.086 C 616.957 692.32 663.193 731.429 686.294 767.401 C 673.73 809.325 659.152 850.482 649.354 893.342 C 647.537 901.291 645.005 911.277 642.512 919.039 C 630.328 900.486 604.54 879.88 584.014 871.222 C 523.219 839.399 441.042 864.696 395.32 912.147 C 391.39 901.493 386.58 877.362 383.555 867.145 C 379.247 852.591 357.664 772.64 350.262 765.553 C 348.968 758.179 338.977 733.833 335.895 726.475 C 350.102 701.187 395.036 671.275 423.854 666.115 C 430.288 670.104 447.729 685.762 454.146 691.297 C 456.121 680.434 458.163 669.942 459.34 658.95 z" fill="rgb(230,213,191)" transform="translate(0,0)"></path>
<path d="M 530.557 689.113 C 535.902 702.25 536.29 708.975 537.785 722.17 C 531.896 723.74 534.713 729.388 533.878 736.073 C 533.088 730.518 533.322 725.522 532.646 720.504 L 531.113 709.495 C 530.367 703.785 529.186 698.525 528.397 692.814 C 529.247 691.054 529.431 690.844 530.557 689.113 z" fill="rgb(48,45,61)" transform="translate(0,0)"></path>
<path d="M 528.397 692.814 C 527.047 688.697 525.265 681.17 525.511 676.765 C 527.239 680.914 529.189 684.846 530.557 689.113 C 529.431 690.844 529.247 691.054 528.397 692.814 z" fill="rgb(69,66,77)" transform="translate(0,0)"></path>
<path d="M 533.88 758.539 L 536.908 758.481 L 536.466 760.535 C 536.161 761.973 534.898 771.389 533.679 771.275 C 532.689 769.281 533.557 760.99 533.88 758.539 z" fill="rgb(69,66,77)" transform="translate(0,0)"></path>
<path d="M 584.014 871.222 C 604.54 879.88 630.328 900.486 642.512 919.039 L 643.013 920.541 C 644.33 924.361 647.94 931.138 649.848 935.567 C 656.348 950.659 661.595 975.905 654.281 991.277 C 653.662 992.6 652.925 993.864 652.079 995.055 C 651.045 992.365 650.326 989.806 649.51 987.054 C 647.322 979.137 644.768 971.559 642.614 963.442 C 635.906 953.368 624.808 946.86 614.761 940.445 C 613.022 924.606 592.695 886.232 584.014 871.222 z" fill="rgb(217,129,61)" transform="translate(0,0)"></path>
<path d="M 642.614 963.442 C 650.73 968.786 650.678 978.82 649.51 987.054 C 647.322 979.137 644.768 971.559 642.614 963.442 z" fill="rgb(53,44,46)" transform="translate(0,0)"></path>
<path d="M 413.52 1188.15 C 413.838 1186.79 414.409 1183.69 415.544 1182.8 C 416.814 1183.29 415.681 1190.68 415.441 1191.86 C 414.81 1190.61 414.17 1189.38 413.52 1188.15 z" fill="rgb(176,166,161)" transform="translate(0,0)"></path>
<path d="M 431.876 1208.71 C 431.934 1207.53 431.731 1204.88 433.108 1204.38 C 434.555 1204.91 434.024 1210.98 434.004 1211.98 C 433.282 1210.9 432.572 1209.81 431.876 1208.71 z" fill="rgb(134,122,120)" transform="translate(0,0)"></path>
<path d="M 536.274 1114 C 539.239 1103.24 540.139 1091.04 541.176 1079.88 C 553.56 1098.74 557.209 1103.69 574.278 1118.3 C 597.876 1109.77 622.975 1114.71 646.033 1122.32 C 645.866 1140.06 645.898 1157.79 646.127 1175.52 C 646.953 1187.53 647.622 1199.55 648.135 1211.57 C 620.545 1154.64 542.131 1142.6 488.735 1168.2 C 474.539 1175 452.814 1190.69 445.975 1205.34 C 445.639 1205.84 443.561 1209.67 442.702 1209.35 C 442.149 1208.6 442.878 1204.02 442.96 1202.54 C 443.439 1196.09 443.967 1189.65 444.545 1183.21 C 445.156 1165.6 445.65 1147.98 446.025 1130.36 C 476.202 1117.72 504.015 1114.34 536.274 1114 z" fill="rgb(230,213,191)" transform="translate(0,0)"></path>
<path d="M 536.274 1114 C 539.239 1103.24 540.139 1091.04 541.176 1079.88 C 553.56 1098.74 557.209 1103.69 574.278 1118.3 C 597.876 1109.77 622.975 1114.71 646.033 1122.32 C 645.866 1140.06 645.898 1157.79 646.127 1175.52 C 642.115 1171.18 639.796 1166.89 636.251 1162.34 C 626.585 1149.92 613.641 1140.68 600.188 1132.78 C 592.474 1128.2 581 1124.33 574.295 1119.2 C 532.292 1117.13 506.029 1121.7 472.637 1150.6 C 460.36 1161.22 453.761 1174.4 444.545 1183.21 C 445.156 1165.6 445.65 1147.98 446.025 1130.36 C 476.202 1117.72 504.015 1114.34 536.274 1114 z" fill="rgb(222,201,177)" transform="translate(0,0)"></path>
<path d="M 442.96 1202.54 L 445.975 1205.34 C 445.639 1205.84 443.561 1209.67 442.702 1209.35 C 442.149 1208.6 442.878 1204.02 442.96 1202.54 z" fill="rgb(222,201,177)" transform="translate(0,0)"></path>
<path d="M 663.412 1268.09 C 676.783 1233 682.314 1205.67 674.116 1168.78 C 684.398 1187.43 690.964 1207.9 693.451 1229.06 C 712.673 1383.83 472.457 1380.67 459.797 1257.32 L 462.638 1255.44 C 482.987 1333.66 595.791 1364.35 637.33 1288.03 C 651.845 1261.36 660.081 1237.78 660.943 1207.21 L 663.118 1202.97 C 663.991 1226.54 664.282 1240.48 661.47 1264.2 C 661.68 1266.22 662.138 1266.46 663.412 1268.09 z" fill="rgb(230,213,191)" transform="translate(0,0)"></path>
<path d="M 658.817 1278.37 C 659.385 1275.23 660.499 1266.63 661.47 1264.2 C 661.68 1266.22 662.138 1266.46 663.412 1268.09 C 662.374 1271.71 660.688 1275.12 658.817 1278.37 z" fill="rgb(88,86,88)" transform="translate(0,0)"></path>
<path d="M 460.474 1242.3 C 461.984 1228.93 466.265 1216.92 470.231 1204.21 C 481.508 1168.06 530.234 1161.9 562.324 1165.51 C 583.443 1167.89 605.346 1178.07 623.9 1188.98 C 621.236 1207.45 619.212 1228.87 615.979 1246.83 C 585.151 1205.11 523.428 1194.11 481.112 1225.19 C 474.72 1229.84 468.939 1235.28 463.906 1241.38 L 460.474 1242.3 z" fill="rgb(222,201,177)" transform="translate(0,0)"></path>
<path d="M 493.211 1235.99 C 494.95 1258.56 499.528 1272.27 516.925 1288.22 C 523.832 1294.55 541.175 1303.65 550.043 1305.38 C 540.887 1298.6 533.039 1295.74 525.152 1285.52 C 512.728 1269.42 512.515 1256.93 514.717 1238.36 C 516.27 1249.51 517.733 1257.68 523.574 1267.17 C 545.023 1302.02 601.141 1311.08 623.372 1271.42 C 629.11 1261.18 630.815 1255.23 633.353 1243.94 L 635.94 1245.82 C 636.22 1259.7 635.621 1268.11 631.615 1280.87 C 623.509 1306.68 592.832 1328.27 565.527 1327.04 C 511.624 1324.61 475.421 1290.31 493.211 1235.99 z" fill="rgb(230,213,191)" transform="translate(0,0)"></path>
<path d="M 550.043 1305.38 C 551.882 1305.15 552.364 1304.62 552.916 1306.5 C 551.202 1306.54 550.959 1306.88 550.043 1305.38 z" fill="rgb(176,166,161)" transform="translate(0,0)"></path>
<path d="M 554.537 1234.19 C 563.284 1233.51 570.206 1233.38 578.984 1236.21 C 593.209 1240.8 613.086 1256.29 606.858 1273.46 C 603.887 1281.65 594.508 1285.53 586.901 1288.57 C 581.712 1289.33 577.783 1290.11 572.498 1290 C 557.898 1289.69 539.405 1279.22 535.148 1264.48 C 533.424 1258.63 534.119 1252.33 537.078 1246.99 C 541.384 1239.23 546.341 1236.52 554.537 1234.19 z" fill="rgb(222,201,177)" transform="translate(0,0)"></path>
<path d="M 460.474 1242.3 L 463.906 1241.38 C 460.401 1248.16 461.375 1247.35 462.638 1255.44 L 459.797 1257.32 C 459.86 1254.76 460.017 1244.63 460.474 1242.3 z" fill="rgb(222,201,177)" transform="translate(0,0)"></path>
<path d="M 634.166 1238.02 L 636.431 1238.85 C 636.116 1241.52 635.992 1243.12 635.94 1245.82 L 633.353 1243.94 C 633.564 1241.95 633.887 1240.01 634.166 1238.02 z" fill="rgb(222,201,177)" transform="translate(0,0)"></path>
<path d="M 660.943 1207.21 C 660.947 1206.4 660.617 1196.74 662.489 1196.68 C 662.306 1196.87 662.388 1196.74 662.288 1197.13 C 663.623 1198.73 663.063 1200.75 663.118 1202.97 L 660.943 1207.21 z" fill="rgb(148,140,145)" transform="translate(0,0)"></path>
<path d="M 634.166 1238.02 L 634.269 1236.68 C 635.72 1231.81 635.96 1235.9 636.431 1238.85 L 634.166 1238.02 z" fill="rgb(148,140,145)" transform="translate(0,0)"></path>
<path d="M 1465.96 870.35 C 1526.87 840.821 1607.31 863.451 1652.76 910.962 C 1660.25 919.537 1665.31 927.459 1671.05 937.289 C 1677.81 953.087 1681.82 965.582 1681.54 983.15 C 1681.27 999.526 1674.92 1021.27 1660.14 1030.2 L 1660.46 1032.09 C 1659.62 1036.18 1665.13 1076 1668.15 1079.61 C 1665.23 1085.58 1692.27 1199.41 1686.32 1224.8 L 1686.19 1225.35 C 1685.52 1235.67 1685.08 1241.89 1681.99 1251.8 C 1677.73 1263.94 1673.88 1272.95 1667.43 1284.18 C 1665.56 1286.79 1663.71 1289.4 1661.88 1292.03 C 1648.87 1309.9 1641.3 1316.64 1624.54 1330.53 C 1595.97 1351.92 1579.2 1361.36 1544.99 1372.7 C 1536.48 1374.97 1527.18 1377.66 1518.64 1379.47 C 1466.17 1393.41 1406.36 1389.06 1352.9 1390.22 C 1280.06 1391.79 1277.17 1392.74 1252.57 1324.94 C 1249.26 1337.61 1242.08 1378.66 1232.82 1382.95 C 1216.77 1390.37 1179.14 1392.68 1161.09 1387.89 C 1151.13 1384.46 1146.52 1378.2 1135.43 1377.78 C 1123.23 1377.31 1114.39 1385.8 1103.74 1388.1 C 1063.43 1396.82 1034.98 1391.99 1022.93 1349.02 C 1019.71 1362.38 1017.05 1376.18 1004.48 1384.15 C 992.928 1391.48 972.122 1389.75 959.501 1385.78 C 972.331 1382.31 985.005 1383.1 997.927 1375.47 C 1011.42 1367.51 1010.54 1357.94 1014.21 1344.06 C 1017.03 1333.34 1019.34 1322.3 1022.44 1311.59 C 1027.23 1330.59 1034.04 1364.84 1050.75 1374.35 C 1081.19 1391.66 1109 1369.97 1138.67 1366.88 C 1147.87 1365.92 1154.65 1372.99 1162.8 1375.72 C 1182.46 1382.32 1209.31 1379.43 1228.97 1374.34 C 1236.71 1343.98 1241.88 1319.57 1254 1290.55 C 1254.69 1293.63 1255.44 1296.7 1256.22 1299.76 C 1262.74 1324.95 1277.6 1380.5 1309.31 1379.71 C 1366 1378.31 1424.74 1381.68 1481.1 1376.54 C 1498.87 1375.07 1516.47 1372.04 1533.7 1367.48 C 1619.69 1344.2 1652.83 1274.9 1629.61 1191.21 L 1627.47 1193.31 C 1631.22 1219.29 1622.16 1253.47 1611.7 1277.28 C 1607.75 1286.26 1603.22 1292.85 1599.73 1300.3 L 1598.92 1299.54 C 1607.41 1273.3 1610.56 1253.31 1611.23 1226.03 C 1611.04 1223.49 1611.91 1218.65 1609.29 1218.31 C 1603.92 1298.25 1541.86 1356.54 1461.53 1355.55 C 1421.81 1355.2 1383.86 1339.04 1356.1 1310.62 C 1325.56 1279.13 1315.44 1249.56 1316.07 1207.1 C 1317.73 1195.2 1319.32 1189.34 1323.51 1178.11 C 1322.63 1177.35 1322.26 1177.38 1322.82 1176.38 C 1324.42 1174.26 1325.56 1172.19 1326.95 1169.94 L 1327.82 1167.89 C 1333.6 1157.89 1342.73 1135.65 1347.57 1124.51 C 1365.89 1082.89 1382.27 1040.44 1396.65 997.294 L 1397.2 995.787 L 1398.67 992.194 C 1402.47 981.573 1403.91 970.468 1407.35 959.696 C 1415.29 951.949 1423.94 946.557 1433.3 940.7 C 1437.86 914.493 1456.54 892.706 1465.96 870.35 z" fill="rgb(41,42,67)" transform="translate(0,0)"></path>
<path d="M 1465.96 870.35 C 1526.87 840.821 1607.31 863.451 1652.76 910.962 C 1660.25 919.537 1665.31 927.459 1671.05 937.289 C 1677.81 953.087 1681.82 965.582 1681.54 983.15 C 1681.27 999.526 1674.92 1021.27 1660.14 1030.2 L 1660.46 1032.09 C 1659.62 1036.18 1665.13 1076 1668.15 1079.61 C 1665.23 1085.58 1692.27 1199.41 1686.32 1224.8 L 1686.19 1225.35 C 1684.65 1216.94 1683.86 1210.92 1680.38 1202.98 C 1665.16 1168.29 1626.9 1144.7 1593.25 1130.87 C 1588.52 1128.93 1578.06 1125.06 1573.61 1121.9 C 1573.14 1120.76 1572.66 1119.62 1572.18 1118.48 C 1571.91 1113.82 1571.03 1108.21 1570.21 1103.6 C 1564.64 1072.04 1559.81 1041.92 1560.4 1009.71 L 1558.32 1009.11 C 1550.78 1044.16 1541.07 1074.5 1524.23 1106.24 C 1453.14 1088.87 1369.4 1105.93 1328.15 1171.12 L 1326.95 1169.94 L 1327.82 1167.89 C 1333.6 1157.89 1342.73 1135.65 1347.57 1124.51 C 1365.89 1082.89 1382.27 1040.44 1396.65 997.294 L 1397.2 995.787 L 1398.67 992.194 C 1402.47 981.573 1403.91 970.468 1407.35 959.696 C 1415.29 951.949 1423.94 946.557 1433.3 940.7 C 1437.86 914.493 1456.54 892.706 1465.96 870.35 z" fill="rgb(230,213,191)" transform="translate(0,0)"></path>
<path d="M 1465.96 870.35 C 1526.87 840.821 1607.31 863.451 1652.76 910.962 C 1660.25 919.537 1665.31 927.459 1671.05 937.289 C 1677.81 953.087 1681.82 965.582 1681.54 983.15 C 1681.27 999.526 1674.92 1021.27 1660.14 1030.2 L 1659.68 1029.34 C 1656.63 1015.95 1653.45 987.061 1652.78 973.365 C 1642.62 957.45 1598.33 932.425 1579.25 926.542 C 1527.91 910.713 1480.35 917.454 1433.3 940.7 C 1437.86 914.493 1456.54 892.706 1465.96 870.35 z" fill="rgb(244,162,47)" transform="translate(0,0)"></path>
<path d="M 1652.78 973.365 C 1669.62 994.649 1669.34 1004.75 1659.68 1029.34 C 1656.63 1015.95 1653.45 987.061 1652.78 973.365 z" fill="rgb(41,42,67)" transform="translate(0,0)"></path>
<path d="M 1527.29 901.619 C 1539.07 899.905 1542.53 898.218 1555 899.993 C 1578.43 903.328 1594.98 916.438 1614.43 927.398 L 1608.9 926.054 C 1603.38 924.66 1596.55 920.084 1591 918.006 C 1575.14 912.06 1551.33 904.752 1534.33 903.985 C 1532.83 903.988 1523.1 904.801 1523.58 902.603 C 1524.78 901.793 1525.83 901.813 1527.29 901.619 z" fill="rgb(250,194,109)" transform="translate(0,0)"></path>
<path d="M 1534.33 903.985 C 1532.83 903.988 1523.1 904.801 1523.58 902.603 C 1524.78 901.793 1525.83 901.813 1527.29 901.619 C 1529.94 902.835 1531.53 903.157 1534.33 903.985 z" fill="rgb(245,180,94)" transform="translate(0,0)"></path>
<path d="M 1433.3 940.7 C 1480.35 917.454 1527.91 910.713 1579.25 926.542 C 1598.33 932.425 1642.62 957.45 1652.78 973.365 C 1653.45 987.061 1656.63 1015.95 1659.68 1029.34 L 1660.14 1030.2 L 1660.46 1032.09 C 1659.62 1036.18 1665.13 1076 1668.15 1079.61 C 1665.23 1085.58 1692.27 1199.41 1686.32 1224.8 L 1686.19 1225.35 C 1684.65 1216.94 1683.86 1210.92 1680.38 1202.98 C 1665.16 1168.29 1626.9 1144.7 1593.25 1130.87 C 1588.52 1128.93 1578.06 1125.06 1573.61 1121.9 C 1573.14 1120.76 1572.66 1119.62 1572.18 1118.48 C 1605.09 1121.04 1633.05 1129.84 1663.28 1142.25 C 1659.83 1124.8 1656.74 1103.82 1653.81 1086.11 C 1648.6 1054.65 1640.56 1010.01 1641.04 978.187 C 1616.63 956.79 1589.68 938.664 1557.2 933.279 C 1512.79 925.916 1464.97 942.493 1431.49 971.803 C 1422.42 979.745 1412.87 989.466 1403.46 997.058 C 1401.27 998.822 1399.15 997.858 1396.65 997.294 L 1397.2 995.787 L 1398.67 992.194 C 1402.47 981.573 1403.91 970.468 1407.35 959.696 C 1415.29 951.949 1423.94 946.557 1433.3 940.7 z" fill="rgb(233,178,163)" transform="translate(0,0)"></path>
<path d="M 1558.32 1009.11 C 1560.74 1001.29 1562.08 1001.95 1560.4 1009.71 L 1558.32 1009.11 z" fill="rgb(134,122,120)" transform="translate(0,0)"></path>
<path d="M 1401.9 1159.68 C 1429.26 1135.47 1467.7 1122.41 1504.49 1124.28 C 1531.63 1125.67 1558.87 1144.56 1577.05 1163.84 C 1584.27 1171.49 1593.56 1189.13 1598.08 1193.5 C 1598.62 1196.98 1599.24 1202.2 1599.96 1205.49 L 1598.78 1206.42 C 1585.15 1184.79 1565.87 1172.73 1542.67 1162.91 C 1500.94 1145.25 1423.11 1159.27 1405.07 1205.43 L 1401.91 1206.17 C 1402.3 1191.13 1401.95 1174.82 1401.9 1159.68 z" fill="rgb(230,213,191)" transform="translate(0,0)"></path>
<path d="M 1527.93 1118.76 C 1542.88 1101.59 1548.64 1088.19 1556.03 1067.09 C 1558.09 1087.12 1564.25 1111.09 1565.3 1129.73 C 1576.3 1132.34 1582.42 1134.93 1592.75 1139.58 C 1594.82 1157.77 1596.17 1175.49 1598.08 1193.5 C 1593.56 1189.13 1584.27 1171.49 1577.05 1163.84 C 1558.87 1144.56 1531.63 1125.67 1504.49 1124.28 C 1467.7 1122.41 1429.26 1135.47 1401.9 1159.68 L 1401.44 1123.79 C 1439.05 1107.53 1488.75 1106.27 1527.93 1118.76 z" fill="rgb(222,201,177)" transform="translate(0,0)"></path>
<path d="M 1609.47 1206.96 C 1613.51 1210.96 1611.87 1220.8 1611.23 1226.03 C 1611.04 1223.49 1611.91 1218.65 1609.29 1218.31 C 1609.62 1214.2 1609.78 1212.45 1609.17 1208.42 L 1609.47 1206.96 z" fill="rgb(148,140,145)" transform="translate(0,0)"></path>
<path d="M 1599.96 1205.49 C 1604.01 1206.46 1605.36 1205.43 1609.47 1206.96 L 1609.17 1208.42 C 1604.29 1208.05 1602.65 1206.86 1598.78 1206.42 L 1599.96 1205.49 z" fill="rgb(48,45,61)" transform="translate(0,0)"></path>
<path d="M 1326.95 1169.94 L 1328.15 1171.12 C 1327.08 1173.21 1325.53 1177.01 1323.51 1178.11 C 1322.63 1177.35 1322.26 1177.38 1322.82 1176.38 C 1324.42 1174.26 1325.56 1172.19 1326.95 1169.94 z" fill="rgb(148,140,145)" transform="translate(0,0)"></path>
<path d="M 1627.47 1193.31 C 1627.26 1192.08 1626.47 1188.75 1627.61 1187.72 C 1628.52 1187.88 1628.88 1188.9 1629.13 1189.72 L 1629.61 1191.21 L 1627.47 1193.31 z" fill="rgb(176,166,161)" transform="translate(0,0)"></path>
<path d="M 1401.91 1206.17 L 1405.07 1205.43 C 1403.81 1209.17 1402.12 1214.07 1401.91 1206.17 z" fill="rgb(222,201,177)" transform="translate(0,0)"></path>
<path d="M 1371.97 1168.33 C 1366.24 1198.76 1368.41 1231.11 1380.18 1259.96 L 1383.36 1258.2 C 1381.81 1237.02 1381.63 1221.77 1384.34 1200.41 C 1384.32 1200.55 1384.73 1197.22 1384.76 1197.37 C 1384.67 1196.88 1385.38 1194.22 1386.01 1194.64 C 1387.64 1195.73 1387 1202.54 1386.97 1203.98 C 1388.7 1265.52 1414.23 1330.23 1485.65 1327.5 C 1512.29 1326.66 1537.46 1315.07 1555.41 1295.36 C 1568.54 1281.11 1576.4 1265.25 1579.63 1246.19 C 1579.53 1245.4 1579.27 1244.26 1579.65 1243.46 L 1579.76 1243.45 C 1580.16 1243.83 1580.21 1244.45 1580.35 1244.98 C 1584.4 1266.51 1580.49 1281.44 1568.15 1299.64 C 1518.16 1373.32 1368.05 1362.31 1352.32 1265.86 C 1347.13 1234.03 1356.24 1196.67 1371.97 1168.33 z" fill="rgb(230,213,191)" transform="translate(0,0)"></path>
<path d="M 1383.36 1258.2 C 1384.53 1263.72 1385.51 1269.49 1386.67 1275.1 C 1384.29 1269.96 1381.93 1265.4 1380.18 1259.96 L 1383.36 1258.2 z" fill="rgb(69,66,77)" transform="translate(0,0)"></path>
<path d="M 1384.34 1200.41 C 1384.32 1200.55 1384.73 1197.22 1384.76 1197.37 C 1384.67 1196.88 1385.38 1194.22 1386.01 1194.64 C 1387.64 1195.73 1387 1202.54 1386.97 1203.98 C 1386.16 1202.07 1386.32 1200.54 1384.34 1200.41 z" fill="rgb(148,140,145)" transform="translate(0,0)"></path>
<path d="M 1579.63 1246.19 C 1579.53 1245.4 1579.27 1244.26 1579.65 1243.46 L 1579.76 1243.45 C 1580.16 1243.83 1580.21 1244.45 1580.35 1244.98 C 1580.11 1245.39 1579.87 1245.79 1579.63 1246.19 z" fill="rgb(148,140,145)" transform="translate(0,0)"></path>
<path d="M 1422.31 1189.73 C 1459.62 1163.29 1508.94 1151.24 1551.15 1176.35 C 1564.44 1184.26 1567.25 1198.91 1569.8 1213.21 C 1571.03 1220.18 1572.9 1229.24 1573.67 1236.1 C 1539.28 1190.01 1463.48 1200.37 1431.61 1245.44 C 1430.34 1237.59 1429.01 1229.75 1427.64 1221.92 C 1426.06 1210.58 1424.54 1200.98 1422.31 1189.73 z" fill="rgb(230,213,191)" transform="translate(0,0)"></path>
<path d="M 1422.31 1189.73 C 1459.62 1163.29 1508.94 1151.24 1551.15 1176.35 C 1564.44 1184.26 1567.25 1198.91 1569.8 1213.21 C 1563.88 1208.58 1557.89 1201.54 1552.33 1196.29 C 1518.1 1164 1479.92 1179.18 1447.11 1204.54 C 1440.28 1209.82 1436.17 1219.87 1427.64 1221.92 C 1426.06 1210.58 1424.54 1200.98 1422.31 1189.73 z" fill="rgb(222,201,177)" transform="translate(0,0)"></path>
<path d="M 1409.75 1230.76 L 1411.97 1231.09 C 1413.8 1248.32 1422.24 1275.02 1436.64 1285.67 C 1471.69 1311.58 1529.25 1291.17 1535.03 1246.54 L 1537.96 1244.88 C 1542.59 1266.74 1531.39 1283.58 1515.34 1296.8 L 1517.53 1298.5 C 1538.47 1286.76 1552.7 1270.02 1556.52 1246.01 C 1557.2 1245.18 1556.95 1245.56 1557.34 1244.91 C 1558.79 1248.59 1559.28 1253.48 1559.24 1257.35 C 1558.6 1319.1 1467.51 1343.11 1428.04 1302.13 C 1410.14 1283.55 1409.44 1254.78 1409.75 1230.76 z" fill="rgb(230,213,191)" transform="translate(0,0)"></path>
<path d="M 1508.69 1301.2 C 1511.03 1299.89 1513.17 1298.37 1515.34 1296.8 L 1517.53 1298.5 L 1515.79 1299.39 C 1513.27 1300.64 1512.61 1300.8 1510.31 1302.42 L 1508.69 1301.2 z" fill="rgb(53,44,46)" transform="translate(0,0)"></path>
<path d="M 1510.31 1302.42 C 1505.78 1304.17 1502.5 1304.04 1508.69 1301.2 L 1510.31 1302.42 z" fill="rgb(176,166,161)" transform="translate(0,0)"></path>
<path d="M 1480.37 1232.3 C 1528.67 1229.49 1533.81 1280.91 1478.21 1290.93 C 1416.54 1291.64 1433.95 1239.05 1480.37 1232.3 z" fill="rgb(222,201,177)" transform="translate(0,0)"></path>
<path d="M 1535.03 1246.54 C 1534.94 1239.26 1535.37 1238.33 1537.96 1244.88 L 1535.03 1246.54 z" fill="rgb(222,201,177)" transform="translate(0,0)"></path>
<path d="M 1409.75 1230.76 C 1409.77 1229.46 1409.3 1224.89 1410.84 1224.46 C 1411.97 1225.11 1411.89 1229.9 1411.97 1231.09 L 1409.75 1230.76 z" fill="rgb(69,66,77)" transform="translate(0,0)"></path>
<path d="M 1556.52 1246.01 C 1556.45 1245.19 1556.2 1244.07 1556.71 1243.36 C 1557.18 1243.69 1557.18 1244.3 1557.34 1244.91 C 1556.95 1245.56 1557.2 1245.18 1556.52 1246.01 z" fill="rgb(148,140,145)" transform="translate(0,0)"></path>
<path d="M 1315.96 845.134 C 1324.14 841.434 1333.3 840.064 1342.12 838.513 C 1362.2 930.893 1361.33 1000.36 1341.42 1092.82 C 1336.17 1117.2 1332.4 1140.83 1325.3 1165.3 C 1326.15 1166.15 1326.99 1167.02 1327.82 1167.89 L 1326.95 1169.94 C 1325.56 1172.19 1324.42 1174.26 1322.82 1176.38 C 1322.26 1177.38 1322.63 1177.35 1323.51 1178.11 C 1319.32 1189.34 1317.73 1195.2 1316.07 1207.1 C 1315.99 1201.88 1313.45 1188.76 1312.39 1182.92 C 1303.29 1132.77 1314.37 1090.05 1321.9 1040.72 C 1329.49 991.021 1326.95 936.391 1321.15 886.558 C 1320.22 878.559 1318.81 850.842 1315.96 845.134 z" fill="rgb(222,201,177)" transform="translate(0,0)"></path>
<path d="M 1325.3 1165.3 C 1326.15 1166.15 1326.99 1167.02 1327.82 1167.89 L 1326.95 1169.94 C 1325.56 1172.19 1324.42 1174.26 1322.82 1176.38 C 1323.68 1172.85 1324.66 1168.84 1325.3 1165.3 z" fill="rgb(48,45,61)" transform="translate(0,0)"></path>
<path d="M 727.88 839.506 C 732.976 839.314 738.917 838.947 743.946 838.913 C 747.298 839.013 751.699 838.754 754.481 840.243 C 750.81 851.575 746.518 862.676 742.706 874.011 C 732.631 903.969 727.827 931.905 725.144 963.416 C 722.667 994.62 722.743 1025.97 725.371 1057.17 C 728.478 1095.03 733.941 1135.92 731.22 1174.37 C 730.87 1179.32 727.685 1180.53 725.196 1183.83 C 692.428 1069.66 679.531 951.229 727.88 839.506 z" fill="rgb(222,201,177)" transform="translate(0,0)"></path>
<path d="M 441.467 1290.58 L 442.063 1292.14 L 442.651 1293.61 L 444 1297.04 C 444.246 1297.65 444.62 1298.64 444.432 1299.29 C 444.237 1299.46 444.366 1299.4 444.018 1299.43 C 443.536 1298.96 443.054 1298.49 442.571 1298.02 L 443.004 1298.72 C 442.024 1297.48 440.783 1294.67 439.97 1293.1 L 441.467 1290.58 z" fill="rgb(88,86,88)" transform="translate(0,0)"></path>
<path d="M 1599.73 1300.3 C 1599.46 1300.74 1599 1301.81 1598.75 1301.9 C 1597.28 1302.45 1598.91 1299.55 1598.92 1299.54 L 1599.73 1300.3 z" fill="rgb(176,166,161)" transform="translate(0,0)"></path>
<path d="M 1062.71 913.375 C 1072.88 911.809 1089.78 913.104 1099.49 916.638 C 1147.85 934.24 1139.36 981.988 1164.39 1013.62 C 1179.16 1032.29 1214.14 1041.93 1225.78 1069.84 C 1232.31 1085.5 1232.62 1101.64 1226.55 1117.23 C 1216.78 1142.34 1194.02 1142.55 1173.6 1150.76 C 1144.68 1162.4 1148.41 1194.4 1139.1 1218.53 C 1123.26 1259.61 1057.04 1222.72 1025.34 1231.67 C 1005.55 1237.26 1001.23 1253.84 975.868 1263.34 C 913.571 1276.65 925.585 1212.15 893.694 1183.32 C 873.85 1165.38 825.506 1171.46 820.218 1139.67 C 812.908 1096.62 857.376 1086.44 878.072 1059.85 C 898.743 1033.3 867.735 1018.61 865.993 1001.84 C 862.87 971.749 913.114 955.155 936.986 956.514 C 949.989 957.254 971.242 957.126 983.964 952.118 C 1017.68 935.06 1021.91 918.72 1062.71 913.375 z" fill="rgb(210,65,71)" transform="translate(0,0)"></path>
<path d="M 1133.3 1079.16 C 1140.44 1129.68 1115.24 1176.23 1069.83 1199.21 C 1039.78 1214.12 1005.07 1216.64 973.186 1206.22 C 911.833 1185.72 875.992 1122.38 896.666 1059.8 C 918.138 994.808 993.809 962.473 1056.82 984.875 C 1087.21 995.676 1108.67 1016.47 1122.12 1045.52 L 1121.44 1046.24 C 1104.63 1016.6 1083.55 997.354 1049.88 988.002 C 1018.43 979.426 984.849 983.922 956.762 1000.47 C 932.071 1015.03 914.31 1038.94 907.511 1066.79 C 901.283 1091.96 905.347 1118.57 918.804 1140.74 C 934.386 1166.42 961.026 1184.29 990.01 1191.31 C 1020.98 1198.51 1053.54 1193.09 1080.5 1176.23 C 1110.68 1157.46 1135.34 1118.93 1131.63 1082.41 L 1133.3 1079.16 z" fill="rgb(104,8,23)" transform="translate(0,0)"></path>
<path d="M 1058.6 929.3 C 1089.85 914.796 1118.09 937.133 1132.48 964.518 C 1134.55 968.459 1136.02 974.59 1137.26 978.959 C 1122.06 957.6 1101.28 934.233 1073.76 930.34 C 1071.54 930.668 1058.02 931.751 1056.75 930.358 L 1056.8 930.124 C 1057.59 929.339 1057.54 929.468 1058.6 929.3 z" fill="rgb(233,178,163)" transform="translate(0,0)"></path>
<path d="M 1073.76 930.34 C 1071.54 930.668 1058.02 931.751 1056.75 930.358 L 1056.8 930.124 C 1057.59 929.339 1057.54 929.468 1058.6 929.3 C 1063.91 930.079 1071.16 928.746 1073.76 930.34 z" fill="rgb(243,142,138)" transform="translate(0,0)"></path>
<path d="M 852.046 1095.01 C 852.977 1096.01 852.84 1096.5 851.648 1097.56 C 846.164 1102.46 841.93 1110.45 840.348 1117.57 C 837.813 1127.68 842.177 1133.39 845.237 1140.89 C 850.669 1154.21 871.425 1154.97 874.236 1157.46 C 873.853 1157.89 873.204 1158.04 872.651 1158.17 L 868.955 1159.06 C 856.796 1158.44 844.279 1155.85 836.313 1145.71 C 832.158 1140.42 830.296 1133.68 831.143 1127 C 832.928 1112.96 840.961 1103.07 852.046 1095.01 z" fill="rgb(233,178,163)" transform="translate(0,0)"></path>
<path d="M 933.903 1237.61 C 952.332 1246.85 952.389 1251.37 976.019 1248.82 L 976.279 1248.8 C 976.283 1249.09 976.313 1248.87 976 1249.6 C 961.504 1256.23 942.886 1251.1 933.903 1237.61 z" fill="rgb(243,142,138)" transform="translate(0,0)"></path>
<path d="M 1131.63 1082.41 C 1131.4 1081.14 1129.61 1069.43 1131.4 1069.53 C 1131.85 1069.9 1131.59 1069.64 1132.05 1070.42 L 1131.29 1070.53 L 1132.26 1071.48 C 1132.37 1073.78 1133.1 1076.55 1133.3 1079.16 L 1131.63 1082.41 z" fill="rgb(159,34,44)" transform="translate(0,0)"></path>
<path d="M 1122.12 1045.52 C 1122.34 1045.86 1123.75 1047.6 1122.67 1048.04 C 1121.92 1047.93 1121.65 1046.7 1121.44 1046.24 L 1122.12 1045.52 z" fill="rgb(159,34,44)" transform="translate(0,0)"></path>
<path d="M 1542.07 698.198 C 1545.86 687.632 1551.1 665.177 1559.34 659.724 C 1569.48 653.012 1607.77 660.461 1619.36 663.138 C 1653.09 678.678 1689.69 697.846 1714.84 725.498 C 1712.43 732.468 1700.3 760.535 1701.03 764.72 C 1699.06 765.729 1697.99 765.913 1697.05 768.21 C 1689.21 787.527 1683.3 808.021 1676.63 827.768 C 1670.72 845.293 1666.57 863.221 1661.6 881.004 C 1660.01 886.672 1655.02 907.056 1652.76 910.962 C 1607.31 863.451 1526.87 840.821 1465.96 870.35 C 1456.54 892.706 1437.86 914.493 1433.3 940.7 C 1423.94 946.557 1415.29 951.949 1407.35 959.696 C 1403.91 970.468 1402.47 981.573 1398.67 992.194 L 1397.2 995.787 L 1396.65 997.294 C 1382.27 1040.44 1365.89 1082.89 1347.57 1124.51 C 1342.73 1135.65 1333.6 1157.89 1327.82 1167.89 C 1326.99 1167.02 1326.15 1166.15 1325.3 1165.3 C 1332.4 1140.83 1336.17 1117.2 1341.42 1092.82 C 1361.33 1000.36 1362.2 930.893 1342.12 838.513 C 1333.3 840.064 1324.14 841.434 1315.96 845.134 C 1287.11 857.52 1283.28 892.302 1280.86 919.871 C 1277.44 900.333 1273.18 878.297 1262.38 861.297 C 1247.02 837.123 1218.59 845.587 1194.49 841.041 C 1235.47 834.052 1261.15 829.552 1278.98 873.819 C 1292.78 830.206 1336.04 822.095 1374.69 836.398 C 1367.61 812.829 1359.03 787.031 1352.89 763.481 C 1361.74 744.235 1388.98 717.555 1406 704.997 C 1440.64 679.434 1484.47 654.272 1529 660.335 C 1536.85 672.853 1538.98 684.076 1542.07 698.198 z" fill="rgb(230,213,191)" transform="translate(0,0)"></path>
<path d="M 1542.07 698.198 C 1545.86 687.632 1551.1 665.177 1559.34 659.724 C 1569.48 653.012 1607.77 660.461 1619.36 663.138 C 1604.14 665.985 1580.91 667.409 1565.73 666.931 C 1554.12 689.541 1544.05 735.437 1541.97 761.417 C 1541.01 764.63 1540.64 766.132 1540.07 769.428 C 1538.1 737.475 1532.72 700.355 1523.31 669.865 C 1473.11 668.367 1425.27 699.334 1388.85 731.771 C 1381.19 738.589 1367.27 754.097 1362.09 762.987 C 1375.99 811.498 1395.18 873.689 1404.16 922.202 C 1395.44 944.203 1382.41 973.017 1397.2 995.787 L 1396.65 997.294 C 1382.27 1040.44 1365.89 1082.89 1347.57 1124.51 C 1342.73 1135.65 1333.6 1157.89 1327.82 1167.89 C 1326.99 1167.02 1326.15 1166.15 1325.3 1165.3 C 1332.4 1140.83 1336.17 1117.2 1341.42 1092.82 C 1361.33 1000.36 1362.2 930.893 1342.12 838.513 C 1333.3 840.064 1324.14 841.434 1315.96 845.134 C 1287.11 857.52 1283.28 892.302 1280.86 919.871 C 1277.44 900.333 1273.18 878.297 1262.38 861.297 C 1247.02 837.123 1218.59 845.587 1194.49 841.041 C 1235.47 834.052 1261.15 829.552 1278.98 873.819 C 1292.78 830.206 1336.04 822.095 1374.69 836.398 C 1367.61 812.829 1359.03 787.031 1352.89 763.481 C 1361.74 744.235 1388.98 717.555 1406 704.997 C 1440.64 679.434 1484.47 654.272 1529 660.335 C 1536.85 672.853 1538.98 684.076 1542.07 698.198 z" fill="rgb(41,42,67)" transform="translate(0,0)"></path>
<path d="M 1404.16 922.202 C 1419.73 898.131 1439.62 881.493 1465.96 870.35 C 1456.54 892.706 1437.86 914.493 1433.3 940.7 C 1423.94 946.557 1415.29 951.949 1407.35 959.696 C 1403.91 970.468 1402.47 981.573 1398.67 992.194 L 1397.2 995.787 C 1382.41 973.017 1395.44 944.203 1404.16 922.202 z" fill="rgb(217,129,61)" transform="translate(0,0)"></path>
<path d="M 1398.67 992.194 C 1396.62 979.734 1397.07 968.183 1407.35 959.696 C 1403.91 970.468 1402.47 981.573 1398.67 992.194 z" fill="rgb(48,45,61)" transform="translate(0,0)"></path>
<path d="M 1540.07 769.428 C 1540.64 766.132 1541.01 764.63 1541.97 761.417 C 1541.99 762.618 1542.59 771.324 1540.51 771.701 C 1540.22 771.501 1540.37 771.671 1540.17 771.021 L 1540.13 770.99 C 1540.11 770.469 1540.09 769.949 1540.07 769.428 z" fill="rgb(148,140,145)" transform="translate(0,0)"></path>
<path d="M 1744.17 1030.68 C 1778.81 1041.15 1816 1061.93 1833.55 1094.16 C 1851.32 1126.79 1837.18 1147.67 1820.04 1174.6 C 1807.82 1193.79 1807.19 1230.55 1817.22 1250.48 C 1830.43 1277.94 1860.18 1278.02 1883.5 1264.57 C 1905.22 1252.19 1927.31 1236.22 1953.82 1243.82 C 1968.88 1248.13 1983.09 1259.06 1990.76 1272.55 C 2008.56 1303.87 1977.84 1344.1 2026.9 1355.24 C 2036.11 1352.98 2039.75 1351 2048 1346.01 L 2048 1349.26 C 2033.01 1363.27 2020.35 1370.96 2000.07 1367.66 C 1958.4 1360.88 1968.99 1328.17 1970.95 1299.24 C 1972.27 1279.87 1939.05 1272.58 1922.84 1274.37 C 1881.13 1278.97 1830.5 1297.06 1799.26 1257 C 1773.52 1226.4 1794.89 1193.61 1798.3 1160.25 C 1803.41 1110.45 1772.28 1075.88 1723.91 1070.83 C 1728.81 1062.08 1737.26 1047.75 1740.28 1038.57 L 1740.82 1036.98 C 1741.52 1034.86 1741.77 1034.06 1742.62 1032.05 C 1743.38 1031.49 1743.7 1031.37 1744.17 1030.68 z" fill="rgb(244,162,47)" transform="translate(0,0)"></path>
<path d="M 1917.12 1257.3 C 1941.14 1247.9 1960.36 1252.97 1977.21 1272.45 C 1958.16 1259.38 1942.51 1254.2 1919.27 1259.47 C 1917.74 1259.83 1909.43 1263.07 1909.8 1261.05 L 1910.66 1261.06 L 1910.15 1261.04 L 1910.58 1261.01 L 1911.14 1259.99 C 1913.15 1259.13 1915.14 1258.23 1917.12 1257.3 z" fill="rgb(250,194,109)" transform="translate(0,0)"></path>
<path d="M 1789.21 1061.88 C 1795.18 1063.58 1797.13 1065.38 1801.93 1069.09 C 1821.98 1084.63 1829.58 1103.24 1829.5 1128.07 C 1829.21 1128.04 1828.92 1128.02 1828.63 1127.99 C 1828.79 1128.32 1827.58 1118.39 1827.35 1117 C 1824.47 1099.74 1815.59 1084.92 1802.61 1073.29 C 1798.22 1069.36 1793.37 1066.08 1789.21 1061.88 z" fill="rgb(250,194,109)" transform="translate(0,0)"></path>
<path d="M 0 1343.77 C 2.7283 1346.45 4.7518 1348.11 8.07851 1350.09 C 14.9415 1354.25 23.2353 1355.32 30.9304 1353.05 C 36.7618 1351.32 43.6638 1346.68 46.4621 1341.4 C 58.9989 1317.73 43.6339 1295.66 59.1171 1271.02 C 73.9525 1247.41 104.014 1236.41 130.139 1245.55 C 155.417 1254.39 177.317 1279.91 206.948 1271.69 C 227.433 1265.98 238.002 1243.26 239.23 1223.44 C 240.371 1208.31 236.403 1186.18 228.091 1173.15 C 210.338 1145.3 198.213 1122.62 217.571 1090.43 C 234.932 1061.55 275.545 1038.09 308.051 1030.1 C 310.629 1042.73 318.026 1059.88 325.004 1070.84 C 304.302 1070.96 284.921 1080.88 270.341 1095.18 C 255.484 1109.76 249.245 1132.08 250.095 1152.51 C 251.659 1190.09 278.056 1227.16 246.331 1260.99 C 232.412 1275.83 216.128 1281.45 194.544 1282.67 C 162.379 1284.49 111.779 1262.26 84.078 1285.15 C 79.6177 1288.83 77.5884 1296.71 78.042 1302.34 C 79.4323 1319.58 85.5972 1340.78 72.9228 1355.6 C 66.3192 1363.32 51.846 1367.98 41.5788 1367.97 C 22.5083 1367.96 13.3066 1360.05 0 1348.99 L 0 1343.77 z" fill="rgb(244,162,47)" transform="translate(0,0)"></path>
<path d="M 109.491 1252.37 C 122.563 1251.17 136.96 1258.85 147.825 1265.18 C 131.839 1261.54 124.931 1257.97 107.054 1257.87 C 91.583 1259.17 87.4285 1262.49 75.6762 1271.59 C 84.3873 1257.72 93.6758 1254.34 109.491 1252.37 z" fill="rgb(250,194,109)" transform="translate(0,0)"></path>
<path d="M 256.692 1063.02 C 257.429 1063.45 257.219 1063.19 257.492 1063.61 C 257.679 1062.53 241.305 1078.43 239.221 1081.12 C 225.916 1098.27 220.499 1108.7 219.496 1130.07 C 217.551 1127.92 218.364 1123.2 218.674 1120.52 C 221.386 1097.1 234.444 1074.27 256.692 1063.02 z" fill="rgb(250,194,109)" transform="translate(0,0)"></path>
<path d="M 1701.03 764.72 C 1711.07 761.902 1754.46 752.986 1761.19 762.126 C 1747.32 784.419 1729.15 805.975 1716.15 829.16 C 1697.52 862.39 1682.14 900.84 1671.05 937.289 C 1665.31 927.459 1660.25 919.537 1652.76 910.962 C 1655.02 907.056 1660.01 886.672 1661.6 881.004 C 1666.57 863.221 1670.72 845.293 1676.63 827.768 C 1683.3 808.021 1689.21 787.527 1697.05 768.21 C 1697.99 765.913 1699.06 765.729 1701.03 764.72 z" fill="rgb(233,178,163)" transform="translate(0,0)"></path>
<path d="M 285.068 760.519 C 311.472 758.645 323.813 758.432 350.262 765.553 C 357.664 772.64 379.247 852.591 383.555 867.145 C 386.58 877.362 391.39 901.493 395.32 912.147 C 388.286 920.721 383.793 926.37 378.485 936.162 C 371.589 919.839 365.465 899.013 358.595 881.977 C 339.203 833.885 319.483 798.963 285.068 760.519 z" fill="rgb(233,178,163)" transform="translate(0,0)"></path>
<path d="M 1660.46 1032.09 C 1693.51 1025.27 1692.84 1024.42 1728.1 1027.26 C 1733.35 1028.5 1738.83 1029.48 1744.17 1030.68 C 1743.7 1031.37 1743.38 1031.49 1742.62 1032.05 C 1741.77 1034.06 1741.52 1034.86 1740.82 1036.98 L 1740.28 1038.57 C 1737.26 1047.75 1728.81 1062.08 1723.91 1070.83 C 1722.43 1070.89 1720.94 1070.94 1719.46 1070.99 C 1717.15 1070.88 1715.03 1070.86 1712.72 1070.86 C 1697.84 1071.22 1682.25 1075 1668.15 1079.61 C 1665.13 1076 1659.62 1036.18 1660.46 1032.09 z" fill="rgb(217,129,61)" transform="translate(0,0)"></path>
<path d="M 1728.1 1027.26 C 1733.35 1028.5 1738.83 1029.48 1744.17 1030.68 C 1743.7 1031.37 1743.38 1031.49 1742.62 1032.05 C 1741.77 1034.06 1741.52 1034.86 1740.82 1036.98 L 1740.28 1038.57 C 1737.26 1047.75 1728.81 1062.08 1723.91 1070.83 C 1722.43 1070.89 1720.94 1070.94 1719.46 1070.99 C 1717.15 1070.88 1715.03 1070.86 1712.72 1070.86 C 1716.96 1059.21 1727.41 1038.5 1728.1 1027.26 z" fill="rgb(244,162,47)" transform="translate(0,0)"></path>
<path d="M 1719.46 1070.99 C 1720.82 1061.28 1733.03 1038.38 1739.99 1031.05 C 1740.4 1030.61 1742.35 1031.89 1742.62 1032.05 C 1741.77 1034.06 1741.52 1034.86 1740.82 1036.98 L 1740.28 1038.57 C 1737.26 1047.75 1728.81 1062.08 1723.91 1070.83 C 1722.43 1070.89 1720.94 1070.94 1719.46 1070.99 z" fill="rgb(217,129,61)" transform="translate(0,0)"></path>
<path d="M 319.546 1027.51 C 335.975 1025.39 352.62 1025.59 368.993 1028.1 C 374.536 1028.95 379.81 1030.53 385.491 1031.13 C 385.883 1031.41 388.057 1032.75 387.924 1033.58 C 385.626 1047.89 383.713 1063.29 380.686 1077.45 C 376.495 1076.21 372.26 1075.13 367.989 1074.21 C 356.506 1071.82 347.676 1071.18 336.119 1070.39 C 332.958 1070.38 330.923 1070.39 327.786 1070.09 L 325.004 1070.84 C 318.026 1059.88 310.629 1042.73 308.051 1030.1 L 310.581 1029.26 C 314.026 1028.81 316.247 1028.11 319.546 1027.51 z" fill="rgb(217,129,61)" transform="translate(0,0)"></path>
<path d="M 310.581 1029.26 C 314.026 1028.81 316.247 1028.11 319.546 1027.51 C 323.588 1044.98 330.8 1053.94 335.71 1069.15 L 336.119 1070.39 C 332.958 1070.38 330.923 1070.39 327.786 1070.09 L 325.004 1070.84 C 318.026 1059.88 310.629 1042.73 308.051 1030.1 L 310.581 1029.26 z" fill="rgb(244,162,47)" transform="translate(0,0)"></path>
<path d="M 308.051 1030.1 L 310.581 1029.26 C 313.157 1031.56 326.871 1065.13 327.786 1070.09 L 325.004 1070.84 C 318.026 1059.88 310.629 1042.73 308.051 1030.1 z" fill="rgb(217,129,61)" transform="translate(0,0)"></path>
<path d="M 893.664 609.834 C 904.777 612.354 910.538 634.177 916.24 644.697 C 971.007 647.78 957.003 655.649 928.503 684.126 C 930.729 693.341 937.83 717.942 929.764 723.638 C 921.685 724.414 903.338 713.207 894.893 708.828 C 885.704 710.981 869.112 724.501 860.066 725.273 C 851.866 725.971 859.483 688.649 860.258 683.311 C 852.978 676.316 839.033 665.5 836.517 656.503 C 838.437 644.909 863.72 645.726 873.793 644.759 C 880.433 633.911 885.843 616.479 893.664 609.834 z" fill="rgb(244,162,47)" transform="translate(0,0)"></path>
<path d="M 1151.06 610.527 C 1158.85 610.901 1161.32 616.548 1164.42 623.056 C 1167.87 630.324 1171.19 637.289 1174.88 644.464 C 1225.21 650.29 1221.28 650.761 1188.11 683.345 C 1189.73 692.768 1196.92 718.408 1189.13 723.801 C 1180.72 724.602 1164.52 714.017 1156.32 709.419 C 1145.88 707.102 1125.55 730.424 1116.43 722.797 C 1113.68 715.993 1118.08 693.202 1119.19 684.275 C 1106.62 666.376 1073.16 650.754 1117.82 646.545 C 1122.57 646.097 1127.91 645.181 1132.72 644.55 C 1137.48 634.756 1144.87 618.519 1151.06 610.527 z" fill="rgb(244,162,47)" transform="translate(0,0)"></path>
<metadata><recraft-signature>{"signed_by": "recraft", "signature_b64": "1S8G+y12FQoEl/FBUR658/qhtebS0fhpWOAE7rbBuDEHWckDkgfMKN3TpXf3SSirjwAKiJIzUhgzIH8I6zGcAw==", "signing_algo": "Ed25519", "generation_timestamp": 1777471650, "identifier": "123f48f7-c52d-4742-8d03-b62593455480"}</recraft-signature></metadata></svg>