<svg xmlns="http://www.w3.org/2000/svg" height="1024" preserveAspectRatio="none" style="display: block;" version="1.1" viewBox="0 0 2048 2048" width="1024">

<path d="M 1028.93 636.121 C 1017.35 606.837 1011.99 575.467 1013.18 544 C 1016.4 447.793 1078.44 341.143 1185.77 345.242 C 1187.84 345.297 1189.44 345.144 1191.36 345.746 C 1201.35 346.292 1207.97 348.128 1217.47 350.466 C 1258.03 364.658 1288.39 387.802 1307.11 427.178 C 1328.21 471.576 1321.63 504.038 1311.51 548.847 C 1339.31 532.389 1392.68 511.216 1425.26 516.701 C 1500.75 519.549 1559.93 576.463 1556.38 653.364 C 1554.27 698.984 1528.17 739.578 1495.46 769.977 C 1435.79 824.851 1335.01 857.64 1254.12 855.56 C 1244.48 854.418 1232.06 855.805 1222.2 856.672 C 1174.41 860.874 1138.43 877.416 1101.1 906.938 C 1096.03 910.946 1091.11 915.152 1086.37 919.546 L 1084.62 919.673 C 1084.29 918.782 1089.7 891.544 1090.09 888.009 C 1093.26 859.666 1092.85 833.097 1087.84 804.952 C 1084.92 789.618 1065.24 729.228 1057.56 716.695 C 1055.15 711.477 1052.79 704.154 1050.84 698.624 C 1043.51 677.938 1035.29 657.084 1028.93 636.121 z" fill="rgb(247,76,91)" transform="translate(0,0)"></path>
<path d="M 1425.26 516.701 C 1500.75 519.549 1559.93 576.463 1556.38 653.364 C 1554.27 698.984 1528.17 739.578 1495.46 769.977 C 1435.79 824.851 1335.01 857.64 1254.12 855.56 C 1244.48 854.418 1232.06 855.805 1222.2 856.672 C 1174.41 860.874 1138.43 877.416 1101.1 906.938 C 1096.03 910.946 1091.11 915.152 1086.37 919.546 L 1084.62 919.673 C 1084.29 918.782 1089.7 891.544 1090.09 888.009 C 1093.26 859.666 1092.85 833.097 1087.84 804.952 L 1089.26 804.376 C 1095.58 830.659 1096.99 881.798 1089.09 907.965 C 1128.46 860.91 1182.23 825.856 1243.84 817.012 C 1266.94 813.698 1284.86 816.868 1307.67 804.804 C 1320.3 798.12 1326.72 790.487 1335.78 779.787 C 1354.57 756.318 1379.99 743.936 1408.48 737.125 C 1470.85 722.215 1501.91 657.15 1483.01 597.632 C 1474.49 570.774 1450.82 533.784 1425.82 520.25 C 1425.09 518.075 1425.12 518.892 1425.26 516.701 z" fill="rgb(171,9,63)" transform="translate(0,0)"></path>
<path d="M 1490.56 710.783 C 1492.01 712.654 1494.48 718.596 1495.86 721.289 C 1501.03 724.865 1505.16 726.772 1510.71 729.696 C 1496.38 733.805 1495.25 733.387 1490.6 747.438 C 1490.37 747.49 1489.56 747.726 1489.5 747.504 C 1486.42 735.213 1485.48 733.939 1472.06 728.865 C 1485.83 721.813 1482.14 724.602 1490.56 710.783 z" fill="rgb(247,76,91)" transform="translate(0,0)"></path>
<path d="M 1217.47 350.466 C 1258.03 364.658 1288.39 387.802 1307.11 427.178 C 1328.21 471.576 1321.63 504.038 1311.51 548.847 L 1312.12 551.129 C 1308.57 555.115 1308.58 564.02 1306.54 566.964 C 1289.95 590.89 1248.1 605.953 1223.73 615.374 C 1264.76 550.337 1298.41 477.256 1257.37 401.549 C 1250.3 388.489 1226.42 355.58 1212.2 351.408 C 1213.95 351.072 1215.71 350.758 1217.47 350.466 z" fill="rgb(171,9,63)" transform="translate(0,0)"></path>
<path d="M 1028.93 636.121 C 1017.35 606.837 1011.99 575.467 1013.18 544 C 1016.4 447.793 1078.44 341.143 1185.77 345.242 C 1182.22 347.181 1174.77 346.622 1170.38 347.139 C 1162.72 348.075 1155.11 349.437 1147.6 351.219 C 1122.86 357.188 1099.04 372.099 1080.44 389.878 C 1023.03 444.756 1003.19 539.195 1025.7 614.289 C 1026.44 616.745 1029.45 626.465 1029.63 628.441 C 1036.8 645.453 1046.94 675.112 1053.24 693.22 C 1063.3 722.142 1085.88 775.458 1089.26 804.376 L 1087.84 804.952 C 1084.92 789.618 1065.24 729.228 1057.56 716.695 C 1055.15 711.477 1052.79 704.154 1050.84 698.624 C 1043.51 677.938 1035.29 657.084 1028.93 636.121 z" fill="rgb(202,24,62)" transform="translate(0,0)"></path>
<path d="M 1311.51 548.847 C 1339.31 532.389 1392.68 511.216 1425.26 516.701 C 1425.12 518.892 1425.09 518.075 1425.82 520.25 C 1386.88 514.23 1345.96 533.758 1312.12 551.129 L 1311.51 548.847 z" fill="rgb(202,24,62)" transform="translate(0,0)"></path>
<path d="M 1191.36 345.746 C 1201.35 346.292 1207.97 348.128 1217.47 350.466 C 1215.71 350.758 1213.95 351.072 1212.2 351.408 C 1206.87 350.973 1195.54 349.236 1191.36 345.746 z" fill="rgb(202,24,62)" transform="translate(0,0)"></path>
<path d="M 1167.64 373.227 C 1188.85 372.096 1207.91 375.951 1220.84 394.887 C 1230.29 408.741 1226.43 426.188 1212.72 435.437 C 1206.83 439.415 1195.24 430.437 1189.01 429.589 C 1176.5 427.125 1164.21 429.549 1153.17 436.001 C 1117.75 457.046 1112.08 494.109 1102.23 529.562 C 1091.32 557.795 1054.34 544.449 1052.53 521.72 C 1047.26 455.454 1104.45 384.994 1167.64 373.227 z" fill="rgb(246,235,223)" transform="translate(0,0)"></path>
<path d="M 1073.15 601.17 C 1094.85 599.143 1098.85 606.231 1101.71 625.907 C 1107.87 668.268 1124.94 707.501 1134.24 748.874 C 1136.11 757.206 1123.83 761.794 1117.1 762.405 C 1097.79 750.875 1080.16 681.567 1070.19 658.964 C 1066 649.483 1060.12 634.37 1056.63 624.342 C 1052.79 613.299 1064.02 605.235 1073.15 601.17 z" fill="rgb(246,235,223)" transform="translate(0,0)"></path>
<path d="M 1398.57 551.382 C 1407.98 552.079 1423.72 557.461 1416.66 571.344 C 1412.45 579.629 1392.48 581.221 1384.01 584.537 C 1374.14 588.402 1363.04 592.612 1354.36 599.431 C 1338.64 610.073 1326.56 626.847 1308.26 630.877 C 1292.57 631.88 1282.74 616.777 1294.57 604.409 C 1302.27 596.036 1312.2 589.31 1321.77 583.092 C 1345.46 567.697 1369.92 553.433 1398.57 551.382 z" fill="rgb(246,235,223)" transform="translate(0,0)"></path>
<path d="M 1057.56 716.695 C 1065.24 729.228 1084.92 789.618 1087.84 804.952 C 1092.85 833.097 1093.26 859.666 1090.09 888.009 C 1089.7 891.544 1084.29 918.782 1084.62 919.673 L 1086.37 919.546 C 1091.11 915.152 1096.03 910.946 1101.1 906.938 C 1138.43 877.416 1174.41 860.874 1222.2 856.672 C 1232.06 855.805 1244.48 854.418 1254.12 855.56 C 1257.45 873.354 1259.24 888.568 1255.77 906.595 C 1246.77 953.332 1211.76 987.073 1165.14 995.519 C 1163.03 995.914 1160.91 996.258 1158.78 996.552 C 1166.9 1045.75 1154.94 1089.87 1111.51 1119.09 C 1095.66 1129.75 1081.65 1132.97 1063.35 1136.89 C 1071.74 1171.06 1070.69 1201.29 1051.89 1232.14 C 1036.74 1257.45 1012.11 1275.67 983.479 1282.76 C 979.005 1283.86 973.849 1284.69 969.274 1285.45 C 981.369 1333.65 964.346 1389.33 921.316 1416.59 C 884.529 1440.39 861.584 1441.54 819.662 1432.82 C 796.187 1426.11 766.496 1410.49 747.894 1394.69 C 739.585 1390.14 721.438 1370.82 715.512 1363.07 C 692.367 1332.8 683.923 1298.96 688.712 1261.47 C 702.143 1199.63 733.712 1150.55 800.973 1142.26 C 789.989 1092.99 802.473 1047.01 844.247 1015.9 C 860.49 1003.81 877.72 999.289 896.969 994.474 C 896.768 993.367 896.573 992.26 896.384 991.151 C 887.547 939.369 909.173 889.952 956.667 866.329 C 968.674 860.357 978.975 858.73 991.959 856.626 C 984.957 838.336 985.538 809.005 991.522 790.635 C 1004.23 751.622 1023.96 735.184 1057.56 716.695 z" fill="rgb(45,73,113)" transform="translate(0,0)"></path>
<path d="M 1086.37 919.546 C 1091.11 915.152 1096.03 910.946 1101.1 906.938 C 1138.43 877.416 1174.41 860.874 1222.2 856.672 C 1232.06 855.805 1244.48 854.418 1254.12 855.56 C 1257.45 873.354 1259.24 888.568 1255.77 906.595 C 1246.77 953.332 1211.76 987.073 1165.14 995.519 C 1163.03 995.914 1160.91 996.258 1158.78 996.552 C 1166.9 1045.75 1154.94 1089.87 1111.51 1119.09 C 1095.66 1129.75 1081.65 1132.97 1063.35 1136.89 C 1071.74 1171.06 1070.69 1201.29 1051.89 1232.14 C 1036.74 1257.45 1012.11 1275.67 983.479 1282.76 C 979.005 1283.86 973.849 1284.69 969.274 1285.45 C 981.369 1333.65 964.346 1389.33 921.316 1416.59 C 884.529 1440.39 861.584 1441.54 819.662 1432.82 C 796.187 1426.11 766.496 1410.49 747.894 1394.69 C 754.965 1397.03 762.216 1400.68 770.5 1403.25 C 798.373 1411.97 821.341 1413.37 850.251 1406.98 C 891.955 1397.76 933.751 1357.93 924.141 1312.04 C 920.129 1292.88 898.412 1287.02 883.095 1278.51 C 849.542 1259.88 829.645 1227.38 818.741 1191.25 C 831.547 1210.33 845.455 1225.18 865.4 1237.81 C 913.46 1268.24 983.815 1261 1015.51 1210.64 C 1023.26 1198.33 1026.31 1183.01 1022.75 1168.94 C 1016.27 1143.31 995.369 1142.03 975.664 1131.78 C 938.746 1110.18 923.852 1083.56 912.714 1044.28 C 940.722 1084.73 978.006 1111.36 1029.11 1109.44 C 1060.01 1108.28 1090.18 1094.27 1107.79 1068.23 C 1118.2 1052.82 1126.25 1029.88 1112.1 1013.95 C 1108.2 1009.69 1090.77 1004.04 1084.41 1001.09 C 1077.43 997.871 1070.71 994.139 1064.28 989.926 C 1037.18 971.916 1018.33 943.876 1011.89 911.972 C 1047.44 955.522 1086.72 976.885 1144.5 965.159 C 1165.69 960.86 1212.25 933.27 1204.67 907.322 C 1203.58 903.617 1201.04 900.511 1197.62 898.714 C 1180.55 889.56 1130.08 898.99 1113.01 908.463 C 1105.53 912.607 1094.41 917.476 1086.37 919.546 z" fill="rgb(21,46,74)" transform="translate(0,0)"></path>
<path d="M 785.018 1174.21 C 786.519 1174.17 790.47 1174.35 791.639 1175.04 C 812.427 1187.45 782.513 1200.39 774.068 1207.24 C 768.342 1211.94 763.276 1217.4 759.006 1223.45 C 748.497 1238.28 744.397 1251.94 742.035 1269.83 C 740.215 1283.61 745.115 1301.08 728.459 1304.8 C 719.884 1303.04 715.765 1298.89 714.486 1289.77 C 707.839 1242.38 735.095 1184.53 785.018 1174.21 z" fill="rgb(246,235,223)" transform="translate(0,0)"></path>
<path d="M 872.19 1030.07 C 875.906 1030.1 879.72 1029.95 882.932 1031.95 C 908.709 1047.97 877.889 1066.23 867.195 1076.88 C 863.141 1080.95 859.69 1085.58 856.949 1090.63 C 848.387 1106.34 845.284 1125.08 845.389 1142.82 C 845.434 1150.47 847.762 1154.9 843.806 1161.53 C 835.113 1164.59 830.8 1160.43 827.908 1152.1 C 813.856 1111.63 827.377 1046.66 872.19 1030.07 z" fill="rgb(246,235,223)" transform="translate(0,0)"></path>
<path d="M 971.17 887.013 C 975.303 887.233 980.255 887.94 983.786 890.321 C 1003.57 903.664 974.51 922.32 964.546 933.924 C 959.587 939.697 955.325 946.034 951.848 952.803 C 947.487 961.353 946.737 965.686 944.202 974.193 C 940.681 986.016 946.3 1014.8 940.916 1022.68 C 932.954 1023.97 928.422 1021.32 925.78 1013.05 C 915.201 979.963 919.866 939.962 941.606 912.199 C 948.434 903.481 960.979 891.192 971.17 887.013 z" fill="rgb(246,235,223)" transform="translate(0,0)"></path>
<path d="M 1032.08 764.547 C 1045.11 766.712 1040.04 772.331 1035.46 779.806 C 1024.22 798.825 1017.89 824.7 1022.71 846.545 C 1024.42 854.278 1028.02 857.053 1025.14 863.95 C 1024.09 863.934 1020 864.252 1019.26 862.778 C 1005.49 835.112 1009.62 786.697 1032.08 764.547 z" fill="rgb(246,235,223)" transform="translate(0,0)"></path>
<path d="M 618.666 1282.98 C 623.306 1275.36 629.853 1269.09 637.659 1264.79 C 653.821 1255.92 671.544 1256.22 688.712 1261.47 C 683.923 1298.96 692.367 1332.8 715.512 1363.07 C 721.438 1370.82 739.585 1390.14 747.894 1394.69 C 766.496 1410.49 796.187 1426.11 819.662 1432.82 C 861.584 1441.54 884.529 1440.39 921.316 1416.59 C 928.065 1432.35 935.115 1446.4 934.761 1464.02 C 933.895 1507.25 894.127 1530.81 853.788 1523.66 C 848.535 1529.02 837.129 1539.87 833.513 1545.95 C 810.205 1585.13 792.04 1629.84 775.587 1672.68 C 754.463 1727.67 715.741 1757.81 655.201 1759.02 C 614.54 1759.83 575.817 1742.43 542.749 1718.48 C 539.152 1716.72 529.547 1708.14 526.656 1705.28 C 495.616 1674.56 471.216 1632.92 471.02 1588.22 C 471.11 1566.35 477.033 1544.9 488.179 1526.09 C 498.978 1508.16 522.803 1486.86 538.283 1471.35 L 626.992 1383.53 L 627.724 1382.08 C 626.9 1379.4 622.779 1371.99 621.359 1369.02 C 607.622 1340.31 600.598 1311.62 618.666 1282.98 z" fill="rgb(45,73,113)" transform="translate(0,0)"></path>
<path d="M 618.666 1282.98 C 623.306 1275.36 629.853 1269.09 637.659 1264.79 C 653.821 1255.92 671.544 1256.22 688.712 1261.47 C 683.923 1298.96 692.367 1332.8 715.512 1363.07 C 721.438 1370.82 739.585 1390.14 747.894 1394.69 C 766.496 1410.49 796.187 1426.11 819.662 1432.82 C 861.584 1441.54 884.529 1440.39 921.316 1416.59 C 928.065 1432.35 935.115 1446.4 934.761 1464.02 C 933.895 1507.25 894.127 1530.81 853.788 1523.66 C 775.114 1514.19 709.587 1472.6 655.305 1416.32 C 645.7 1406.36 637.561 1393.18 628.365 1382.8 L 627.724 1382.08 C 626.9 1379.4 622.779 1371.99 621.359 1369.02 C 607.622 1340.31 600.598 1311.62 618.666 1282.98 z" fill="rgb(247,164,58)" transform="translate(0,0)"></path>
<path d="M 618.666 1282.98 C 622.471 1288.73 618.156 1296.38 617.915 1303.32 C 615.098 1384.56 713.759 1477.29 789.499 1492.43 C 826.635 1500.03 865.264 1492.2 896.507 1470.73 C 908.17 1462.8 917.569 1454.42 927.211 1444.23 C 920.417 1445.15 902.991 1447.04 896.517 1446.76 C 879.666 1446.05 831.746 1443.6 819.662 1432.82 C 861.584 1441.54 884.529 1440.39 921.316 1416.59 C 928.065 1432.35 935.115 1446.4 934.761 1464.02 C 933.895 1507.25 894.127 1530.81 853.788 1523.66 C 775.114 1514.19 709.587 1472.6 655.305 1416.32 C 645.7 1406.36 637.561 1393.18 628.365 1382.8 L 627.724 1382.08 C 626.9 1379.4 622.779 1371.99 621.359 1369.02 C 607.622 1340.31 600.598 1311.62 618.666 1282.98 z" fill="rgb(199,122,37)" transform="translate(0,0)"></path>
<path d="M 657.318 1270.97 C 680.99 1270.52 666.189 1295.89 662.992 1309.51 C 661.42 1316.21 660.65 1323.07 660.698 1329.95 C 660.852 1342.34 664.833 1352.96 670.275 1363.91 C 673.879 1371.17 688.018 1387.33 680.884 1393.98 C 676.453 1394.59 678.009 1394.53 673.373 1392.38 C 662.978 1384.05 652.963 1371.19 645.522 1360.2 C 627.605 1333.74 627.959 1289.31 657.318 1270.97 z" fill="rgb(246,235,223)" transform="translate(0,0)"></path>
<path d="M 627.724 1382.08 L 628.365 1382.8 C 637.561 1393.18 645.7 1406.36 655.305 1416.32 C 709.587 1472.6 775.114 1514.19 853.788 1523.66 C 848.535 1529.02 837.129 1539.87 833.513 1545.95 C 810.205 1585.13 792.04 1629.84 775.587 1672.68 C 754.463 1727.67 715.741 1757.81 655.201 1759.02 C 614.54 1759.83 575.817 1742.43 542.749 1718.48 C 543.536 1717.89 544.323 1717.31 545.11 1716.73 C 558.248 1718.13 572.884 1724.19 586.489 1724.8 C 609.509 1725.83 625.894 1725.2 647.044 1717.85 C 730.446 1688.86 738.706 1626.7 772.078 1558.69 C 742.834 1546.68 722.953 1536.99 698.935 1515.12 C 688.286 1505.46 678.692 1494.7 670.314 1483.01 C 656.863 1463.88 628.112 1406.66 626.992 1383.53 L 627.724 1382.08 z" fill="rgb(21,46,74)" transform="translate(0,0)"></path>
<path d="M 618.456 1434.75 C 625.536 1434.75 631.176 1437.04 634.015 1444.53 C 634.737 1446.89 634.266 1450.26 632.9 1452.25 C 628.286 1458.92 621.34 1463.83 615.651 1469.68 C 601.45 1483.76 588.292 1498.47 575.377 1513.71 C 566.189 1524.55 561.373 1540.34 547.373 1544.26 C 523.905 1541.73 530.165 1519.56 541.447 1506.59 C 564.005 1480.65 590.66 1454.96 618.456 1434.75 z" fill="rgb(246,235,223)" transform="translate(0,0)"></path>
<path d="M 520.182 1561.96 C 544.445 1560.53 536.975 1580.56 534.695 1597.41 C 534.192 1601.13 528.069 1604.4 524.942 1605.99 C 520.058 1605.93 514.565 1605.69 511.512 1601.49 C 504.692 1592.1 506.442 1570.09 516.999 1563.83 L 520.182 1561.96 z" fill="rgb(246,235,223)" transform="translate(0,0)"></path>
<path d="M 1563.34 331.483 C 1565.4 331.798 1566.92 332.143 1568.96 332.581 C 1573.26 336.393 1577.53 381.892 1587.61 396.8 C 1605.27 422.91 1617.65 428.806 1649.18 435.513 C 1657.62 437.309 1679.05 437.954 1682.54 446.015 C 1681.33 448.155 1679.31 449.462 1677 450.083 C 1659.24 454.867 1643.39 455.021 1625.6 461.829 C 1593.27 474.211 1582.31 498.163 1576.34 530.527 C 1574.94 538.149 1573.27 552.65 1570.3 559.276 C 1567.86 559.217 1566.7 558.981 1564.27 558.566 C 1559.62 554.814 1558.77 542.23 1557.74 535.869 C 1550.24 489.106 1530.1 465.353 1483.01 455.782 C 1475.74 454.303 1459.24 452.411 1453.41 448.299 C 1452.92 444.632 1452.66 446.324 1454.06 443.016 C 1458.71 438.797 1490.88 434.533 1500.92 431.481 C 1538.33 420.111 1549.98 396.589 1557.07 359.927 C 1558.63 351.827 1559.68 338.288 1563.34 331.483 z" fill="rgb(245,160,158)" transform="translate(0,0)"></path>
<path d="M 1438.02 857.397 C 1455.66 853.811 1472.89 865.152 1476.57 882.777 C 1480.26 900.403 1469.01 917.694 1451.41 921.474 C 1433.66 925.284 1416.21 913.931 1412.5 896.168 C 1408.79 878.404 1420.23 861.012 1438.02 857.397 z" fill="rgb(246,235,223)" transform="translate(0,0)"></path>
<path d="M 1034.6 293.451 C 1044.84 291.872 1055.14 295.933 1061.56 304.077 C 1067.97 312.221 1069.5 323.187 1065.56 332.775 C 1061.62 342.362 1052.82 349.086 1042.54 350.37 C 1026.95 352.317 1012.68 341.383 1010.51 325.823 C 1008.34 310.263 1019.07 295.845 1034.6 293.451 z" fill="rgb(246,235,223)" transform="translate(0,0)"></path>
<metadata><recraft-signature>{"signed_by": "recraft", "signature_b64": "vic2HUBLtN0bmcvtGCnekB2TrmSmbebn2YfpnTlq0rGKywr2QS0Hl3ndrWxr724fygaZ7QxPE9s+hUCaKiY/CA==", "signing_algo": "Ed25519", "generation_timestamp": 1777471602, "identifier": "d6e2ac6a-19f1-40f6-a971-3ce666399e53"}</recraft-signature></metadata></svg>