<?xml version="1.0" encoding="utf-8" ?><svg xmlns="http://www.w3.org/2000/svg" xmlns:xlink="http://www.w3.org/1999/xlink" width="1024" height="1024" viewBox="0 0 1024 1024"><path d="M298.99 205.511C288.071 209.027 280.514 211.921 268.472 211.095C264.332 211.033 258.321 209.365 254.325 210.077C245.229 211.7 215.297 222.398 209.424 212.722C210.018 206.856 229.956 196.259 235.909 190.811C248.152 179.606 256.875 168.31 269.407 156.983C285.354 142.568 309.093 126.618 330.243 121.378C361.491 117.194 412.052 146.219 438.042 162.315C450.279 169.893 465.932 181.354 477.67 189.639C507.298 184.761 540.285 180.703 569.938 186.768C671.702 207.58 555.2 287.441 521.99 309.09C541.074 322.961 555.893 311.485 556.169 343.214C549.594 335.313 546.639 334.272 536.899 331.573C540.719 335.281 543.738 339.612 545.28 344.758C547.075 350.869 546.324 357.446 543.198 362.995C539.06 370.427 532.947 373.508 525.233 375.742C525.345 374.851 525.452 373.959 525.553 373.066C526.71 362.858 524.647 359.717 518.426 351.922C519.52 362.544 518.332 368.186 513.642 377.574C516.74 377.469 519.839 377.41 522.938 377.398C539.254 377.391 550.622 382.804 560.528 395.832C563.147 399.276 569.827 388.639 578.812 397.867C589.176 395.192 599.43 388.856 610.974 386.239C628.913 382.172 639.241 389.748 656.388 392.436C660.295 393.048 667.144 389.805 671.426 392.987C673.522 394.544 672.638 395.977 673.007 398.859C676.01 399.631 722.913 384.526 730.25 382.677C730.779 377.95 733.243 369.049 737.269 366.205C741.149 363.466 746.646 365.29 750.893 366.192C753.864 363.739 757.798 359.403 761.864 360.636C765.07 363.196 765.174 367.831 765.679 371.928C777.673 378.118 779.087 381.907 765.226 386.635C764.681 390.151 763.74 397.696 760.507 399.32C755.397 398.621 752.422 400.594 747.185 399.936C740.379 399.082 737.168 395.017 733.132 390.112C726.692 393.18 716.266 395.688 709.077 397.954L660.947 413.207C662.065 423.136 661.676 426.998 650.439 425.481C648.6 431.306 649.187 432.612 642.789 434.113C639.565 440.72 636.442 440.272 634.574 443.368C626.587 456.602 609.357 450.848 597.89 446.064C594.87 444.804 589.5 441.272 586.189 439.655C583.584 438.384 582.67 439.372 579.853 440.344C580.142 442.422 584.095 448.82 585.263 451.367C587.019 455.267 588.342 459.347 589.208 463.535C591.629 475.238 589.609 485.059 576.111 487.06C565.232 488.673 563.805 475.436 562.862 467.661C557.799 482.756 557.694 513.36 564.38 527.708C560.477 525.519 556.853 523.448 552.789 521.547C550.483 523.795 549.05 525.158 546.501 527.16C543.879 515.791 545.177 503.007 546.592 491.49C546.997 488.188 548.083 485.549 548.241 482.071L547.402 481.822C539.195 484.597 539.694 486.538 535.997 493.726C528.841 507.638 526.192 520.89 524.878 536.282C522.079 533.31 518.849 528.719 515.807 525.252C512.156 527.329 510.544 528.057 506.618 529.582C510.446 511.196 513.695 501.322 525.688 486.101C512.651 487.157 497.237 484.856 484.41 482.324C483.872 493.773 481.158 503.447 480.182 514.578C479.91 517.678 481.105 524.078 481.544 527.543C479.438 532.462 478.123 533.306 474.223 536.881C473.651 540.947 473.015 545.004 472.317 549.05C485.025 555.515 492.023 563.495 503.666 570.236C507.619 572.561 511.754 574.561 516.03 576.218C528.124 580.968 552.142 587.151 557.897 598.96C560.076 603.43 556.537 610.786 554.766 615.349C574.849 624.364 607.255 645.329 620.076 662.716C633.518 680.943 645.758 698.839 643.129 722.195C647.671 728.177 650.057 732.4 652.73 739.354L650.629 744.784C657.297 755.037 665.322 772.242 671.631 783.687C674.126 782.835 676.695 782.221 679.306 781.855C700.482 778.922 701.112 792.153 702.59 808.233C708.129 810.464 708.118 811.836 709.972 817.29C711.752 818.093 713.982 818.805 715.854 819.468C716.453 821.695 716.987 824.132 717.53 826.391C724.689 829.065 724.65 828.899 726.69 836.227C729.351 837.741 732.448 839.266 735.209 840.788C739.85 852.646 746.525 851.853 753.561 860.839C756.594 864.712 760.331 878.546 761.041 883.795C760.29 890.738 760.416 893.124 761.024 900.063C761.049 912.03 747.578 915.056 738.222 917.394C718.638 922.288 695.175 922.425 677.399 911.707C669.368 906.865 661.935 901.072 653.92 896.141C641.499 898.877 631.067 893.474 621.935 885.261C621.278 880.148 620.712 872.786 620.866 867.777C621.082 860.738 622.154 857.861 626.992 853.291C626.544 836.851 627.844 821.853 632.834 806.055C623.886 796.707 611.511 782.767 602.283 774.478L593.955 774.447C588.935 771.599 585.52 766.553 582.16 761.987C526.667 770.673 533.332 733.064 502.399 705.403C490.48 694.745 432.017 665.394 416.126 660.422C379.524 671.962 351.152 706.086 329.285 736.082C308.16 765.06 300.183 784.536 260.407 780.404C254.726 789.612 253.446 793.098 242.1 792.424C233.323 803.414 222.738 812.731 214.647 822.71C217.989 835.484 216.841 853.664 217.615 866.934C219.142 871.431 220.838 872.895 221.317 877.868C222.849 893.799 220.923 905.498 201.655 906.834C195.632 912.485 191.889 920.09 184.2 926.3C170.231 937.582 148.494 937.739 131.511 936.537C122.248 935.881 107.39 932.256 101.505 924.594C98.1808 920.266 97.852 915.287 98.7835 909.825C100.474 899.911 103.22 886.28 109.004 877.962C110.447 875.886 115.053 872.172 116.746 869.917C118.762 867.23 119.592 863.697 121.265 860.792C121.886 859.713 125.963 857.313 126.459 856.531C131.112 849.19 128.724 849.446 135.542 844.234L137.045 838.861C138.816 837.217 140.82 835.53 142.651 833.925C142.969 828.611 144.567 827.19 149.051 824.716L149.086 823.86C149.963 802.627 153.328 797.825 176.023 799.128C180.47 787.386 188.186 773.327 194.14 762.133C192.592 758.74 191.91 756.975 190.798 753.417C192.832 746.954 193.326 745.761 197.35 740.1C182.029 694.366 217.902 677.003 243.997 649.537L244.393 649.113C160.963 659.108 166.273 589.057 106.559 585.529C94.5292 614.296 90.8415 635.317 89.4178 666.091C57.1261 648.046 32.9377 602.481 36.5885 565.682C39.2684 538.669 49.8934 516.331 67.6123 496.041C97.4833 461.837 140.341 445.385 184.364 439.517C224.001 434.367 264.884 437.123 303.212 423.596C321.634 417.095 327.696 408.989 341.939 396.602C327.953 389.499 324.459 383.831 323.138 368.28C319.361 378.773 319.708 382.559 321.786 393.553C307.549 390.272 302.34 385.098 298.596 371.161L291.062 371.112C290.845 376.785 290.844 378.873 291.188 384.67C284.812 380.844 282.119 378.058 278.664 371.452C276.004 371.185 271.383 370.972 268.793 370.794C230.937 367.656 220.94 350.642 242.75 318.697C263.268 288.646 285.696 273.464 313.833 251.703C315.169 243.25 316.601 233.569 314.543 225.139C313.337 220.2 311.577 215.564 310.681 210.487L310.568 209.824C306.92 208.825 302.57 206.942 298.99 205.511ZM751.189 368.84C748.078 368.056 743.729 366.57 740.776 367.485C739.245 369.781 743.441 377.008 744.351 380.251L740.219 389.957C745.053 389.496 749.044 388.947 753.826 388.205L754 388.603L753.103 388.956C752.928 391.37 758.112 395.801 760.046 397.439C764.669 383.122 759.113 385.905 774.462 379.848C770.752 377.75 767.243 375.786 763.661 373.459C763.306 370.709 762.935 363.568 760.501 361.946C757.534 364.064 753.903 366.517 751.189 368.84ZM577.539 474.754C579.924 468.752 577.129 448.774 572.1 445.746C571.408 454.49 571.409 467.212 576.792 474.692L577.539 474.754ZM737.418 392.758C740.357 395.029 742.778 397.202 746.615 397.615C749.647 398.273 753.045 399.708 754.47 396.14C753.873 393.007 750.819 390.67 747.663 391.245C743.6 391.618 741.374 391.883 737.418 392.758ZM546.91 479.023C550.623 477.939 551.262 474.965 550.949 471.414C548.917 473.513 546.943 475.219 546.316 478.126L546.91 479.023ZM737.342 369.873C736.124 371.701 734.556 373.628 734.179 375.706C734.966 378.118 735.64 377.762 738.138 378.067L739.89 377.286C740.895 374.646 739.176 371.81 737.342 369.873ZM737.971 388.817L741.612 380.004L733.731 380.037C732.759 383.703 733.063 389.027 737.115 390.558C737.792 389.571 737.64 389.949 737.971 388.817ZM719.722 387.606C720.185 389.184 720.479 390.376 721.206 391.871C724.594 391.198 729.835 390.653 730.716 386.815L729.87 385.914C725.823 384.786 723.832 386.116 719.722 387.606Z"/><path fill="#80BFC6" d="M277.926 621.307C292.684 628.213 309.148 628.531 323.858 635.267C337.554 641.539 347.866 653.369 361.687 659.52C366.413 661.623 373.61 664.121 378.598 661.931C393.671 655.314 416.114 585.37 423.67 567.028C423.743 574.348 424.047 586.472 423.068 593.634C422.935 613.84 417.611 627.937 413.637 647.186C421.668 631.948 424.979 607.944 425.525 590.586C425.74 584.543 426.061 578.055 426.061 572.036C432.916 586.843 460.375 643.735 473.614 648.642C477.648 650.137 482.125 649.066 485.805 647.134C497.544 640.971 505.054 627.088 513.385 617.143C517.965 611.676 522.871 607.104 528.696 602.999C531.52 604.437 536.332 606.721 538.837 608.357C573.706 626.959 612.323 646.831 631.279 683.438C640.048 700.372 646.674 711.6 637.526 729.825C637.986 725.298 638.811 717.466 636.765 713.364L636.092 713.002C634.367 717.794 636.328 727.28 634.188 731.991C630.734 739.592 620.556 745.174 613.416 748.844C598.193 756.504 588.596 750.545 574.861 749.383C580.125 754.022 587.936 754.293 594.685 754.633C583.532 759.833 573.441 762.783 561.048 761.151C539.664 758.335 531.789 741.655 521.146 725.421C517.115 719.272 511.378 712.109 506.796 706.088C511.592 708.302 519.064 712.297 524.128 711.79C514.738 706.966 503.199 701.853 494.263 696.843C468.637 682.477 447.833 670.445 420.247 659.845C436.345 657.283 442.036 659.678 457.456 659.486C450.126 656.599 438.457 655.589 430.568 656.063C394.448 658.236 368.346 686.264 345.455 711.179C340.758 718.778 333.468 726.508 328.138 733.739C315.508 750.872 304.426 772.826 281.902 778.08C271.673 780.466 261.637 779.189 252.085 774.906C256.08 773.92 265.914 771.906 268.142 768.799L267.925 768.204C263.254 768.844 257.447 771.612 251.953 772.314C239.588 773.894 230.136 770.601 220.295 763.166C212.596 757.35 206.813 748.817 206.397 739.016C206.162 733.462 206.79 727.898 206.025 722.376L205.924 721.676C202.841 729.803 203.4 736.234 204.699 744.695C198.387 736.947 195.208 729.895 195.471 719.603C196.155 692.807 222.474 672.275 240.65 655.625C251.186 645.973 261.719 636.833 271.987 626.915C273.719 625.13 276.07 623.041 277.926 621.307Z"/><path fill="#65A1A9" d="M277.926 621.307C292.684 628.213 309.148 628.531 323.858 635.267C337.554 641.539 347.866 653.369 361.687 659.52C366.413 661.623 373.61 664.121 378.598 661.931C393.671 655.314 416.114 585.37 423.67 567.028C423.743 574.348 424.047 586.472 423.068 593.634C422.904 591.765 423.21 591.018 422.207 589.966C420.252 591.197 418.085 597.237 417.241 599.333C399.456 643.466 391.502 695.629 333.979 651.182C313.339 635.234 293.621 635.897 271.987 626.915C273.719 625.13 276.07 623.041 277.926 621.307Z"/><path fill="#65A1A9" d="M426.061 572.036C432.916 586.843 460.375 643.735 473.614 648.642C477.648 650.137 482.125 649.066 485.805 647.134C497.544 640.971 505.054 627.088 513.385 617.143C517.965 611.676 522.871 607.104 528.696 602.999C531.52 604.437 536.332 606.721 538.837 608.357C511.933 619.104 508.234 654.989 477.728 654.478C462.176 654.217 454.448 638.132 447.65 626.197C443.109 618.269 438.781 610.222 434.67 602.064C433.123 599.009 429.74 589.622 426.363 589.555L425.525 590.586C425.74 584.543 426.061 578.055 426.061 572.036Z"/><path fill="#65A1A9" d="M506.796 706.088C511.592 708.302 519.064 712.297 524.128 711.79C526.894 712.972 528.965 714.629 530.698 717.108C541.969 733.219 552.454 750.732 574.861 749.383C580.125 754.022 587.936 754.293 594.685 754.633C583.532 759.833 573.441 762.783 561.048 761.151C539.664 758.335 531.789 741.655 521.146 725.421C517.115 719.272 511.378 712.109 506.796 706.088Z"/><path fill="#65A1A9" d="M267.925 768.204C269.366 767.939 268.243 768.073 269.275 768.077C290.024 768.143 306.313 748.326 319.351 734.794C326.194 727.691 336.872 713.685 345.455 711.179C340.758 718.778 333.468 726.508 328.138 733.739C315.508 750.872 304.426 772.826 281.902 778.08C271.673 780.466 261.637 779.189 252.085 774.906C256.08 773.92 265.914 771.906 268.142 768.799L267.925 768.204Z"/><path d="M255.869 711.46C256.638 711.618 256.533 711.698 257.246 712.211C258.877 716.324 257.359 725.095 256.812 729.614C260.326 732.384 269.864 738.219 267.966 742.721C264.602 745.582 257.572 746.654 253.049 747.705C247.411 763.219 245.088 768.207 236.254 750.997C230.448 745.084 220.04 750.372 218.528 744.695C219.413 740.293 224.799 734.845 227.856 731.384C220.543 710.918 225.84 712.03 241.459 719.812C246.196 716.915 251.001 714.131 255.869 711.46Z"/><path fill="#FBB46D" d="M254.828 714.463C256.655 717.427 254.906 727.054 254.398 730.509C258.726 734.056 263.003 737.666 267.226 741.337C262.632 742.827 256.279 744.613 251.598 745.59C249.357 750.865 247.264 755.725 244.772 760.894C241.635 756.435 239.238 752.058 236.552 747.329C233.494 745.491 223.373 745.295 219.541 745.055C222.922 740.701 226.377 736.405 229.904 732.169C228.633 726.466 227.559 721.614 226.714 715.814C231.697 717.784 236.893 720.262 241.697 722.622L254.828 714.463Z"/><path d="M590.47 675.126C596.176 676.699 601.812 680.465 606.942 683.529C624.951 674.67 625.258 676.247 621.459 694.599C624.461 697.787 631.229 704.267 631.589 708.318C629.458 711.648 618.941 709.901 614.758 712.317C606.188 732.065 604.015 727.744 596.856 711.291C576.271 707.797 576.744 706.404 592.411 693.448C591.011 687.252 590.59 681.446 590.47 675.126Z"/><path fill="#FBB46D" d="M592.439 678.175C595.944 679.355 602.961 683.896 606.375 686.012C609.53 685.051 618.235 680.909 621.714 679.365C621.301 684.263 619.919 690.729 619.283 695.961L630.018 707.8C626.127 708.324 615.734 708.51 613.181 710.7C610.801 715.331 608.161 719.987 605.642 724.556C603.114 719.569 600.854 714.592 598.525 709.514C593.051 708.34 587.601 707.259 582.23 705.674C586.278 701.865 590.574 698.046 594.694 694.292C593.736 688.67 593.087 683.83 592.439 678.175Z"/><path fill="#9976BC" d="M338.077 440.874L338.789 441.178C339.442 444.376 339.815 455.575 340.091 459.734C340.305 470.296 343.911 485.332 342.21 495.592C340.094 508.361 333.259 508.957 342.605 522.644C342.209 528.798 341.2 532.975 341.896 539.286C325.827 545.842 316.906 556.177 302.421 564.689C297.122 567.785 291.734 570.727 286.265 573.512C274.402 579.464 255.768 586.873 245.968 596.138C244.014 597.985 244.115 604.777 244.84 607.467C247.696 618.061 255.609 624.888 264.563 630.532C259.06 635.922 252.521 641.583 246.751 646.786C240.119 647.496 233.456 647.875 226.786 647.922C199.605 647.928 184.986 637.741 166.327 619.135C146.85 599.301 136.3 586.512 107.579 583.863C131.703 529.94 169.003 497.743 226.68 484.389C251.015 478.755 276.017 474.46 299.03 464.582C313.644 458.309 325.233 449.955 338.077 440.874Z"/><path fill="#C8AAE6" d="M445.596 411.692C453.893 407.3 460.646 401.803 468.629 397.234C498.675 380.038 533.9 367.005 560.159 397.076C558.473 399.983 557.234 402.12 556.546 405.53C556.413 407.154 556.381 407.103 555.75 408.626C551.195 411.578 540.128 402.998 534.498 402.726C540.389 408.573 547.986 409.241 555.497 412.171C555.512 415.271 555.43 419.072 555.762 422.09C556.191 423.678 556.666 425.327 557.062 426.916C553.306 427.066 550.079 427.31 546.335 427.677C532.288 433.586 501.766 449.055 523.076 466.6C528.472 470.151 530.067 471.302 536.16 472.866L536.862 473.053L537.285 473.161L527.077 483.33C505.167 486.128 488.162 481.148 466.989 477.226C461.998 476.301 452.129 475.008 447.909 473.447C435.924 472.409 365.3 458.102 360.734 465.143C368.516 466.527 378.174 465.336 387.255 466.709C383.381 469.265 380.721 471.236 376.147 472.361C374.409 472.954 372.37 473.451 371.074 474.658L371.576 475.149C376.076 475.01 377.332 474.433 381.486 472.684C384.555 470.749 387.645 468.848 390.755 466.981C417.224 469.985 443.539 475.375 469.824 479.723C473.901 480.397 478.855 481.218 482.816 482.291C482.753 483.579 482.516 490.037 482.316 490.891C479.679 504.109 476.805 512.495 479.715 526.001C476.995 532.324 475.662 533.659 468.943 536.305C468.457 536.495 467.969 536.682 467.48 536.866C463.99 538.744 459.696 540.051 455.884 541.08C458.915 536.539 462.347 531.372 463.457 526.021C459.155 528.62 456.179 539.145 451.2 542.331C444.797 546.428 444.431 537.811 438.961 536.775C433.38 537.937 431.729 541.33 427.159 544.252C413.299 553.112 414.136 537.79 404.429 537.447C398.257 537.923 393.524 544.621 386.788 542.592C374.919 539.016 373.919 523.169 367.579 514.013C366.986 519.922 371.641 524.026 370.365 527.194C369.178 527.641 368.755 527.62 367.423 526.964C363.268 527.987 361.433 529.053 357.57 530.956C350.884 527.407 341.455 520.854 340.24 512.967C339.328 508.094 343.52 501.286 343.93 497.045C345.54 480.386 341.679 461.492 341.447 444.816L341.494 438.091C356.964 425.832 380.106 405.759 399.112 401.727C419.18 395.949 449.075 394.842 470.071 393.964C461.212 399.431 452.91 404.17 445.596 411.692Z"/><path fill="#9976BC" d="M523.076 466.6C528.472 470.151 530.067 471.302 536.16 472.866L536.862 473.053L537.285 473.161L527.077 483.33C505.167 486.128 488.162 481.148 466.989 477.226C461.998 476.301 452.129 475.008 447.909 473.447C452.08 472.427 460.308 473.244 464.791 473.55C482.671 474.773 507.396 476.261 523.076 466.6Z"/><path fill="#9976BC" d="M390.755 466.981C417.224 469.985 443.539 475.375 469.824 479.723C473.901 480.397 478.855 481.218 482.816 482.291C482.753 483.579 482.516 490.037 482.316 490.891L481.452 490.059C477.505 489.111 458.891 485.856 455.18 486.211L454.646 487.065C455.129 483.074 452.581 479.342 448.688 478.339C444.794 477.336 440.76 479.372 439.255 483.101C433.098 479.891 411.592 477.966 404.039 474.808C396.344 471.59 387.346 474.139 381.486 472.684C384.555 470.749 387.645 468.848 390.755 466.981Z"/><path fill="#9976BC" d="M341.494 438.091C356.964 425.832 380.106 405.759 399.112 401.727C395.423 406.025 386.218 408.122 381.643 411.463C367.728 421.627 356.057 435.753 341.447 444.816L341.494 438.091Z"/><path d="M439.255 483.101C440.76 479.372 444.794 477.336 448.688 478.339C452.581 479.342 455.129 483.074 454.646 487.065C454.271 490.159 452.137 492.755 449.174 493.721C446.211 494.688 442.957 493.85 440.83 491.572C438.703 489.295 438.089 485.991 439.255 483.101Z"/><path fill="#FBB46D" d="M445.352 480.257C448.528 479.614 451.625 481.657 452.285 484.829C452.944 488.001 450.917 491.109 447.749 491.785C444.557 492.466 441.42 490.421 440.756 487.226C440.092 484.03 442.154 480.904 445.352 480.257Z"/><path fill="#9976BC" d="M534.498 402.726C532.841 400.331 533.029 398.906 535.25 397.023C541.651 395.36 551.554 401.806 556.546 405.53C556.413 407.154 556.381 407.103 555.75 408.626C551.195 411.578 540.128 402.998 534.498 402.726Z"/><path fill="#9976BC" d="M360.734 465.143C368.516 466.527 378.174 465.336 387.255 466.709C383.381 469.265 380.721 471.236 376.147 472.361C371.818 468.83 366.453 471.684 360.734 465.143Z"/><path fill="#B28ED6" d="M463.457 526.021C465.041 527.561 465.679 528.177 466.995 529.92C466.998 531.907 466.797 535.146 467.48 536.866C463.99 538.744 459.696 540.051 455.884 541.08C458.915 536.539 462.347 531.372 463.457 526.021Z"/><path fill="#9976BC" d="M367.423 526.964C366.223 524.019 362.368 514.795 365.459 512.744C366.717 513.044 366.632 513.095 367.579 514.013C366.986 519.922 371.641 524.026 370.365 527.194C369.178 527.641 368.755 527.62 367.423 526.964Z"/><path fill="#9976BC" d="M555.762 422.09C556.191 423.678 556.666 425.327 557.062 426.916C553.306 427.066 550.079 427.31 546.335 427.677C548.777 424.846 552.294 423.661 555.762 422.09Z"/><path d="M440.722 507.271C444.949 505.903 449.486 508.206 450.876 512.425C452.265 516.645 449.985 521.194 445.773 522.605C441.53 524.026 436.941 521.725 435.542 517.476C434.142 513.226 436.466 508.649 440.722 507.271Z"/><path fill="#FBB46D" d="M442.167 509.247C445.339 508.674 448.379 510.767 448.978 513.934C449.577 517.101 447.51 520.159 444.348 520.784C441.148 521.417 438.046 519.321 437.44 516.115C436.834 512.91 438.957 509.826 442.167 509.247Z"/><path fill="#C8AAE6" d="M292.611 443.876L291.74 444.77L292.097 445.182C301.201 443.657 318.017 425.609 323.946 418.035C340.249 397.211 357.297 383.306 385.496 388.796L384.485 390.131L384.669 391.278C376.364 394.403 369.165 397.345 361.635 402.167C357.538 404.791 353.851 407.844 350.04 410.36C347.453 412.795 345.242 414.794 342.966 417.534C371.337 399.832 380.816 385.046 416.646 395.614C408.786 397.182 399.539 398.511 392.213 401.612C358.169 416.024 336.04 444.972 301.92 460.541C261.018 479.205 216.393 478.127 177.147 500.323C155.253 512.751 136.613 530.186 122.751 551.202C99.4011 586.223 90.2167 621.509 87.756 663.054C62.8776 644.379 43.8239 617.949 39.253 586.662C36.4005 566.51 39.7987 545.968 48.9887 527.808L56.9876 540.394C54.9864 545.168 50.4173 554.379 51.3623 559.132C54.6289 563.607 66.633 557.927 70.9534 556.195C89.9988 571.297 91.5154 573.233 90.9304 547.092C96.7678 543.086 102.592 539.375 107.514 534.256C101.8 529.423 95.7036 528.232 88.7388 525.601C87.5812 520.883 85.6855 509.411 81.9309 506.987C77.1882 506.709 70.821 517.518 67.9335 521.496C62.9002 521.475 57.4 521.565 52.4139 521.246C73.9655 483.175 111.328 459.158 152.74 447.686C164.399 444.456 185.479 440.401 197.624 440.378C197.187 443.768 196.658 447.372 196.415 450.761C192.952 452.757 189.316 455.123 186.25 457.693C189.919 459.532 193.627 461.291 197.372 462.969C198.203 466.203 198.787 470.915 201.531 472.555C204.75 471.972 207.32 467.592 209.064 464.905C212.435 465.173 217.047 466.159 219.524 464.098C220.481 460.783 217.805 457.731 216.052 454.867C217.132 451.435 218.591 447.215 219.483 443.796C215.233 444.428 212.043 444.908 207.902 445.955L199.784 439.629C233.023 438.534 278.112 435.588 309.043 423.644C312.651 421.333 318.055 418.829 322.018 416.929C315.05 425.779 303.086 439.109 292.611 443.876Z"/><path fill="#9976BC" d="M309.043 423.644C312.651 421.333 318.055 418.829 322.018 416.929C315.05 425.779 303.086 439.109 292.611 443.876C295.2 437.388 305.514 431.356 309.248 425.393C309.694 424.68 309.418 424.587 309.043 423.644Z"/><path fill="#9976BC" d="M350.04 410.36C351.911 401.513 375.211 388.317 384.485 390.131L384.669 391.278C376.364 394.403 369.165 397.345 361.635 402.167C357.538 404.791 353.851 407.844 350.04 410.36Z"/><path d="M136.682 458.312C141.036 461.999 142.896 465.537 145.781 470.451C149.734 470.33 158.136 469.125 159.487 473.61C158.735 477.536 155.225 480.961 152.577 484.109C153.855 487.653 156.262 493.815 154.963 497.359C151.301 500.026 144.99 493.493 140.248 495.64C137.19 498.03 132.34 502.795 128.576 500.376C126.626 496.932 127.453 491.87 127.669 487.735C123.541 484.728 119.634 481.43 115.978 477.864C121.081 475.155 125.09 474.265 130.719 472.911C132.648 467.246 134.008 463.661 136.682 458.312Z"/><path fill="#FBB46D" d="M137.142 462.187C139.172 463.376 143.424 470.146 145.003 472.509L158.759 472.585C156.001 476.305 153.181 479.978 150.298 483.603C151.683 488.08 152.921 491.968 153.9 496.572C149.372 494.854 145.415 493.382 140.662 492.413L129.577 500.735C129.551 495.867 129.708 491.92 129.985 487.078C126.493 484.193 122.977 481.335 119.438 478.506C123.724 476.919 127.716 475.812 132.097 474.564C133.699 470.406 135.38 466.28 137.142 462.187Z"/><path d="M72.6096 591.328C77.0781 595.403 72.5745 598.408 83.5751 603.471C75.7444 606.487 75.1721 607.9 71.788 615.342C67.9287 607.695 69.1508 605.456 60.1815 602.403C63.4977 601.482 65.6099 600.612 68.7888 599.314C70.2389 596.837 71.426 593.965 72.6096 591.328Z"/><path fill="#FBB46D" d="M72.4487 596.783C73.3766 597.29 77.2887 602.256 78.3281 603.49C75.2713 605.508 74.3861 606.458 72.2192 609.209C70.4398 608.156 67.9225 604.509 66.5261 602.705C69.5245 600.622 70.3178 599.724 72.4487 596.783Z"/><path fill="#FCAA9F" d="M474.34 235.944C488.211 250.614 497.854 258.57 502.556 279.157C502.95 282.317 505.959 305.587 498.87 303.893C492.007 302.253 489.26 296.608 479.993 301.41C474.066 304.48 467.047 318.259 471.253 323.98C471.697 332.819 474.322 336.449 483.889 336.881C486.279 336.356 486.748 336.135 488.946 335.031C493.97 332.926 495.366 330.746 497.167 325.792L498.546 327.022C498.447 333.599 498.756 350.663 495.891 355.96C491.718 364.95 486.547 371.037 478.324 376.706C463.326 386.925 444.881 390.761 427.052 387.369C410.26 384.181 391.928 375.176 380.419 362.322C377.317 358.858 374.202 354.173 371.527 350.285C363.221 352.747 356.184 353.241 347.769 349.177C331.1 341.126 328.206 311.012 348.29 305.61C353.547 304.197 359.547 306.714 364.145 309.584C365.482 318.862 368.544 323.925 375.439 330.072C377.513 323.205 379.169 313.815 380.987 306.456L383.326 300.214C400.289 295.763 400.211 293.016 413.755 286.531C415.208 286.381 415.781 286.922 417.056 287.674C421.142 290.447 442.738 308.936 447.717 301.439C451.882 295.169 441.603 289.673 436.792 286.856C439.733 280.607 444.961 283.095 450.074 277.706C447.913 277.979 446.622 278.135 444.458 278.162C460.165 268.909 468.278 260.155 472.91 242.014C473.414 239.998 473.89 237.974 474.34 235.944Z"/><path fill="#EC8280" d="M497.167 325.792L498.546 327.022C498.447 333.599 498.756 350.663 495.891 355.96C491.433 354.505 482.869 356.456 480.196 349.804C478.969 346.751 478.481 341.28 479.622 338.142C481.368 336.792 481.317 337.205 483.889 336.881C486.279 336.356 486.748 336.135 488.946 335.031C493.97 332.926 495.366 330.746 497.167 325.792Z"/><path fill="#EC8280" d="M474.34 235.944C488.211 250.614 497.854 258.57 502.556 279.157C497.413 277.325 493.973 265.024 490.212 260.247C485.778 254.617 481.307 249.722 476.448 244.515C468.786 263.038 465.385 265.095 450.074 277.706C447.913 277.979 446.622 278.135 444.458 278.162C460.165 268.909 468.278 260.155 472.91 242.014C473.414 239.998 473.89 237.974 474.34 235.944Z"/><path fill="#EC8280" d="M383.326 300.214C400.289 295.763 400.211 293.016 413.755 286.531C415.208 286.381 415.781 286.922 417.056 287.674C406.518 295.889 393.621 302.123 380.987 306.456L383.326 300.214Z"/><path d="M398.6 301.006C401.937 302.843 405.441 305.145 409.291 303.656C417.399 300.52 421.987 295.938 431.265 299.687C448.433 306.625 451.105 336.798 428.512 337.746C427.159 338.255 426.899 338.428 425.458 338.674C416.415 338.03 413.973 335.992 407.911 329.791L406.431 326.189C403.057 321.734 400.675 316.887 397.444 312.687L404.827 312.35L398.6 301.006Z"/><path fill="#FEFEFE" d="M406.431 326.189C407.272 308.598 416.211 296.806 434.667 305.521C419.77 307.798 428.428 311.224 426.986 316.278C424.502 318.022 421.718 317.796 418.865 317.517C416.787 326.973 418.954 333.822 428.512 337.746C427.159 338.255 426.899 338.428 425.458 338.674C416.415 338.03 413.973 335.992 407.911 329.791L406.431 326.189Z"/><path fill="#EC8280" d="M407.911 329.791C413.973 335.992 416.415 338.03 425.458 338.674C425.774 339.249 426.034 339.854 426.232 340.48C433.91 365.439 381.119 362.576 396.157 336.066C398.493 331.947 403.551 330.513 407.911 329.791Z"/><path fill="#EC8280" d="M341.306 322.194C345.986 307.72 359.596 318.135 363.292 327.372C366.489 332.374 366.725 340.181 360.423 342.784L358.714 343.187C346.149 348.525 341.676 331.29 341.306 322.194Z"/><path fill="#EC8280" d="M360.423 342.784C359.337 341.771 357.483 340.17 356.688 338.97C352.218 332.217 354.014 325.218 363.292 327.372C366.489 332.374 366.725 340.181 360.423 342.784Z"/><path d="M341.306 322.194C345.986 307.72 359.596 318.135 363.292 327.372C354.014 325.218 352.218 332.217 356.688 338.97C357.483 340.17 359.337 341.771 360.423 342.784L358.714 343.187C356.919 342.789 353.863 340.498 353.169 338.785C350.336 331.791 353.928 327.626 359.573 324.254C352.895 315.882 349.507 315.477 341.306 322.194Z"/><path d="M488.767 281.555C491.385 281.353 497.757 280.729 498.664 283.793C494.825 287.995 481.903 298.108 476.881 302.162C474.688 303.483 473.513 303.843 470.982 303.648C468.059 301.961 468.453 298.916 469.666 296.144C473.066 288.379 481.349 284.517 488.767 281.555Z"/><path fill="#845656" d="M489.62 283.642C491.881 283.571 494.54 283.66 496.837 283.677C489.237 288.382 482.797 294.936 475.579 300.4C473.925 301.325 472.538 301.714 470.77 301.099C467.671 293.778 484.325 285.656 489.62 283.642Z"/><path fill="#EC8280" d="M463.01 329.256C468.45 330.52 475.326 345.741 462.852 348.334C462.201 348.198 461.554 348.045 460.911 347.874C459.038 347.359 458.37 346.98 457.4 345.318C457.574 340.563 459.657 333.006 463.01 329.256Z"/><path d="M463.01 329.256C468.45 330.52 475.326 345.741 462.852 348.334C464.781 344.864 466.693 342.6 468.731 338.572C464.851 335.176 463.692 334.274 463.01 329.256Z"/><path d="M440.243 354.171C445.246 355.496 448.123 360.818 453.551 361.673C457.203 362.248 463.103 359.915 465.708 362.428C457.181 365.987 444.182 363.664 440.243 354.171Z"/><path fill="#845656" d="M326.804 272.84C329.719 270.126 336.461 265.926 339.967 263.667C349.665 257.412 359.517 251.398 369.514 245.633C390.272 233.76 419.935 218.476 443.654 212.441C448.923 211.1 460.558 212.857 465.963 214.322C469.344 216.497 470.627 220.064 471.411 223.896C476.373 248.127 459.685 269.666 438.32 278.545C445.799 263.848 448.724 255.655 448.516 238.782L448.28 239.18C444.849 245.071 442.886 251.12 438.983 257.086C422.662 282.034 392.402 302.565 361.627 300.213C359.096 300.018 352.995 298.214 351.168 298.595C351.429 299.7 351.703 299.737 353.034 300.488C360.475 304.683 372.821 302.538 380.827 301.279C377.142 311.48 375.591 316.267 374.711 327.296C368.368 319.198 368.018 315.879 365.136 306.155L364.373 306.102C358.958 305.692 353.51 302.116 348.476 303.475C326.812 309.326 329.101 333.335 340.883 346.706C351.016 353.444 356.145 355.464 368.608 352.999C369.398 352.842 370.187 352.675 370.974 352.499C377.219 362.281 383.062 367.933 391.535 375.668C392.035 376.125 391.968 379.165 391.688 379.967C382.622 378.603 378.392 373.584 373.044 385.423C363.864 386.39 356.792 388.058 348.473 392.154C346.626 393.063 343.798 394.841 341.846 394.298C324.335 385.62 322.914 374.044 329.269 357.25C318.721 368.442 317.262 376.052 319.069 390.988C304.925 386.934 297.605 375.51 301.49 360.801C302.853 355.64 305.642 351.648 308.673 347.325C295.327 356.469 287.886 364.924 289.405 382.116C280.116 373.691 277.188 367.674 278.678 354.859C281.399 331.472 308.515 328.212 318.776 310.178L319.135 309.536C323.197 296.571 323.566 285.45 326.804 272.84Z"/><path fill="#6E4645" d="M340.883 346.706C351.016 353.444 356.145 355.464 368.608 352.999C369.398 352.842 370.187 352.675 370.974 352.499C377.219 362.281 383.062 367.933 391.535 375.668C392.035 376.125 391.968 379.165 391.688 379.967C382.622 378.603 378.392 373.584 373.044 385.423C363.864 386.39 356.792 388.058 348.473 392.154C346.626 393.063 343.798 394.841 341.846 394.298C341.669 392.086 339.534 384.768 338.804 382.272C335.155 369.807 335.966 358.723 340.883 346.706Z"/><path fill="#6E4645" d="M326.804 272.84C329.719 270.126 336.461 265.926 339.967 263.667C349.665 257.412 359.517 251.398 369.514 245.633C390.272 233.76 419.935 218.476 443.654 212.441C448.923 211.1 460.558 212.857 465.963 214.322C461.196 217.058 447.777 217.98 441.505 219.818C406.077 230.199 372.022 245.015 345.953 271.894C338.194 279.893 325.671 306.795 319.135 309.536C323.197 296.571 323.566 285.45 326.804 272.84Z"/><path fill="#E59896" d="M392.268 245.965C402.424 245.723 400.091 252.505 393.879 257.025C384.157 256.428 386.221 250.37 392.268 245.965Z"/><path fill="#E59896" d="M408.332 247.417C417.985 247.622 413.453 254.149 409.099 258.023C406.25 258.1 404.337 258.061 403.479 255.018C404.234 251.312 405.755 250.115 408.332 247.417Z"/><path fill="#C8AAE6" d="M324.032 124.134C328.768 123.333 333.13 122.337 337.982 122.59C358.258 123.65 380.682 133.857 398.621 142.522C395.916 145.587 393.049 148.667 390.294 151.703C385.829 151.17 374.779 148.56 373.135 153.494C373.688 157.868 377.611 162.947 380.122 166.792C377.892 170.57 372.434 178.591 374.524 182.656C378.184 184.638 386.894 181.397 391.212 180.16C396.065 184.371 401.196 188.251 406.571 191.772C407.725 186.057 408.28 179.32 408.57 173.501C414.978 170.124 418.757 168.111 424.368 163.571C419.371 160.574 413.163 158.142 407.715 155.997L405.73 146.253C418.271 152.981 430.623 160.056 442.772 167.469L442.422 174.496C432.219 178.029 432.946 180.335 441.501 185.321C441.231 187.944 440.944 189.948 441.887 192.383C444.976 195.216 448.391 191.253 451.017 189.103C454.069 189.976 457.145 190.761 460.242 191.459L459.618 192.341C448.057 195.121 436.888 197.184 425.236 200.288C403.304 206.131 384.247 213.676 363.604 222.622C361.412 219.525 359.948 217.145 358.027 213.859C359.868 209.807 362.75 204.411 362.871 200.153C360.804 195.52 351.214 199.683 347.191 200.896C342.663 197 338.359 193.325 333.337 190.074C331.851 196.988 331.544 201.015 331.37 208.108C325.609 211.296 321.029 214.047 316.16 218.451C320.894 221.567 325.964 223.769 331.129 226.03C331.561 230.65 332.079 235.263 332.684 239.864C327.665 242.628 321.397 246.847 316.401 249.952C316.626 244.213 318.327 232.692 317.203 227.611C314.988 217.594 312.351 214.813 312.144 204.004C312.016 197.348 316.263 182.099 315.284 178.573L314.534 178.381L313.774 179.361C311.933 189.478 310.138 197.297 309.936 207.701L305.623 206.349C299.768 204.067 296.177 201.64 291.813 196.969C289.912 194.935 287.149 190.046 285.013 189.071L284.621 189.759L285.244 191.536C289.495 197.208 291.425 199.945 296.794 204.598L291.545 206.307C277.809 210.165 265.944 208.469 251.97 208.558C247.112 208.589 239.849 213.913 235.975 211.739L235.758 210.606C237.082 207.651 241.479 205.418 241.081 202.813C237.928 200.421 232.891 202.545 231.67 197.765C234.098 195.072 251.087 177.39 253.449 177.696C252.383 181.321 248.951 183.143 245.836 185.893C249.138 188.135 250.755 188.577 254.454 189.852C255.506 193.027 255.775 197.672 259.914 197.124C262.146 195.76 263.403 193.574 264.969 191.404C268.379 191.76 271.968 192.8 274.118 189.647C274.131 186.705 272.397 185.278 270.461 183.119C271.892 179.572 273.024 176.002 274.217 172.373L263.367 174.927L258.195 170.556C264.581 163.977 289.513 140.354 297.393 139.25C302.583 142.562 293.665 153.793 298.913 155.933C302.86 155.396 309.713 151.084 313.426 148.975C317.2 150.922 324.237 155.64 328.198 153.533C330.194 150.038 328.011 142.944 327.159 138.962C330.42 136.24 335.157 132.767 336.821 128.97C336.647 124.056 327.76 124.425 324.032 124.134Z"/><path fill="#B28ED6" d="M305.623 206.349C307.88 203.648 307.016 185.249 313.774 179.361C311.933 189.478 310.138 197.297 309.936 207.701L305.623 206.349Z"/><path fill="#B28ED6" d="M285.244 191.536C289.495 197.208 291.425 199.945 296.794 204.598L291.545 206.307C289.732 200.449 285.209 197.735 285.244 191.536Z"/><path fill="#C8AAE6" d="M342.668 540.926C345.03 543.069 347.301 544.788 349.825 546.729C352.16 548.186 354.463 549.694 356.731 551.252C347.898 553.925 344.882 556.443 337.742 559.039C336.719 559.885 336.781 559.874 336.094 561.027L336.541 561.604C345.724 557.944 348.918 555.192 359.094 552.753C363.953 554.811 368.856 556.764 373.8 558.609L381.585 560.871C377.85 564.166 366.861 573.457 366.688 578.406C372.748 573.256 376.939 567.324 384.219 561.74C394.305 564.063 402.144 564.673 412.407 565.593C408.509 577.462 380.928 643.256 372.459 646.291C368.104 647.852 358.566 641.198 354.993 638.902C346.239 633.277 337.501 626.098 327.696 622.509C313.758 617.407 298.092 617.827 284.977 610.28C275.697 604.94 271.413 594.182 261.491 588.17C274.762 582.561 298.759 570.119 310.722 562.071C323.903 553.205 326.832 548.708 342.668 540.926Z"/><path fill="#9976BC" d="M373.8 558.609L381.585 560.871C377.85 564.166 366.861 573.457 366.688 578.406C361.013 577.396 372.505 561.02 373.562 559.059L373.8 558.609Z"/><path fill="#9976BC" d="M349.825 546.729C352.16 548.186 354.463 549.694 356.731 551.252C347.898 553.925 344.882 556.443 337.742 559.039C339.523 554.694 346.189 551.115 349.825 546.729Z"/><path fill="#9976BC" d="M544.948 193.222C557.65 192.592 575.365 194.264 587.432 197.457C594.425 199.307 603.355 202.667 606.979 209.316C609.243 213.47 609.453 219.752 607.889 223.969C596.242 255.377 548.136 291.935 520.584 307.157C518.925 304.331 515.818 299.39 517.202 296.285C522.473 288.357 526.51 280.616 527.889 271.063C529.568 260.148 526.754 249.018 520.091 240.211C504.448 219.654 474.691 213.087 450.635 209.65C476.606 200.716 517.102 194.204 544.948 193.222Z"/><path fill="#C8AAE6" d="M526.137 186.281C544.518 184.591 577.57 187.399 593.03 196.581C561.225 189.119 540.653 190.461 508.705 194.367C415.637 205.747 345.025 255.557 270.252 308.889C255.191 319.704 242.813 327.907 233.298 344.322C240.985 311.95 277.051 282.591 302.275 263.04C349.44 226.482 404.68 204.019 463.321 194.018C484.877 190.342 504.115 187.204 526.137 186.281Z"/><path fill="#FCAA9F" d="M572.832 400.913C597.104 396.747 610.508 380.936 636.68 389.489C639.088 390.428 654.187 393.52 655.214 394.539C661.789 401.067 665.093 394.21 671.078 396.353C672.67 401.248 653.569 404.544 650.106 405.244C642.055 401.919 635.444 397.153 626.632 395.021C635.2 401.744 645.479 405.394 654.849 410.844C658.624 412.642 661.739 416.241 659.922 420.77C656.724 428.742 639.623 418.704 634.303 417.066C637.573 421.723 646.6 422.017 648.752 427.946C647.808 434.433 633.974 430.943 629.534 429.971C632.91 433.01 638.266 432.833 639.225 436.028C638.618 438.102 637.379 439.047 635.679 440.488C632.377 440.492 628.159 440.372 624.972 440.798L624.678 441.218C626.347 441.963 630.536 443.16 631.434 443.996C630.205 450.439 617.727 449.334 612.825 448.743C611.864 448.57 610.906 448.384 609.951 448.183C599.194 445.912 595.121 442.289 586.184 436.607C583.208 434.714 576.407 434.191 574.271 429.905C569.844 421.023 570.579 409.966 572.832 400.913Z"/><path fill="#EC8280" d="M628.054 429.34L629.534 429.971C632.91 433.01 638.266 432.833 639.225 436.028C638.618 438.102 637.379 439.047 635.679 440.488C632.377 440.492 628.159 440.372 624.972 440.798L624.678 441.218C626.347 441.963 630.536 443.16 631.434 443.996C630.205 450.439 617.727 449.334 612.825 448.743L614.969 448.367C619.968 444.759 625.615 434.897 628.054 429.34Z"/><path fill="#E59896" d="M628.054 429.34C631.987 424.593 632.923 422.82 634.303 417.066C637.573 421.723 646.6 422.017 648.752 427.946C647.808 434.433 633.974 430.943 629.534 429.971L628.054 429.34Z"/><path fill="#C8AAE6" d="M471.623 551.106C482.432 556.468 487.543 562.146 497.046 568.548C509.175 576.719 525.136 582.117 538.952 587.108C523.947 590.833 515.243 594.87 504.635 606.76C497.421 614.847 489.547 629.254 479.504 633.425L478.863 633.697C478.734 633.749 478.604 633.801 478.475 633.852C462.193 617.735 446.201 583.985 433.795 564.147C440.307 562.999 446.217 561.921 452.597 559.99C455.318 561.817 465.692 571.303 467.697 570.488C463.109 565.342 460.461 563.187 454.865 559.097L461.461 556.292C465.335 554.539 467.921 553.21 471.623 551.106Z"/><path fill="#9976BC" d="M454.865 559.097L461.461 556.292C464.203 563.096 467.521 562.648 467.697 570.488C463.109 565.342 460.461 563.187 454.865 559.097Z"/><path fill="#FEFEFE" d="M626.133 856.388C627.215 857.523 631.045 861.407 632.311 862.096C641.829 867.277 653.315 869.121 662.96 874.186C670.095 877.932 676.543 882.521 683.682 886.218C699.75 894.539 722.25 892.433 739.143 888.069C742.293 887.256 745.515 886.031 748.518 884.757C751.321 883.568 755.192 880.823 757.905 880.269C761.736 883.72 759.417 902.73 757.175 907.249C736.325 921.255 697.625 922.433 676.441 908.745C668.938 903.896 662.329 898.572 654.299 894.253C651.171 894.825 648.034 895.348 644.889 895.821C638.135 893.173 628.919 889.116 623.738 884.182C622.366 874.722 621.562 865.025 626.133 856.388Z"/><path fill="#9976BC" d="M322.428 275.459C325.23 278.099 318.092 305.52 315.939 309.382C307.622 324.3 288.895 328.006 280.455 343.227C275.483 352.194 275.254 359.717 277.704 369.504C265.395 369.709 254.964 367.651 243.739 362.805C239.142 359.811 232.891 354.368 234.738 348.423C240.292 330.549 263.417 316.406 277.716 306.311C292.452 295.786 307.358 285.5 322.428 275.459Z"/><path fill="#6E4645" d="M512.947 301.724L514.296 300.71C516.732 303.289 518.423 308.933 521.068 310.839C538.939 323.721 548.125 312.826 555.366 338.071C544.782 330.469 542.317 330.238 529.606 328.856C549.194 342.744 550.166 361.331 528.011 373.337C528 366.731 527.81 362.583 524.811 356.509C521.887 353.498 518.359 350.691 514.964 348.233C517.55 360.377 519.089 367.777 510.177 378.21C496.057 380.83 483.773 388.791 471.091 391.216C466.427 392.108 439.973 394.501 437.066 392.529C437.534 389.636 451.099 390.137 454.348 389.327C472.726 384.741 492.617 373.671 498.516 354.457C502.383 341.865 497.745 313.67 506.535 304.465L507.228 304.765C507.229 305.272 507.194 304.961 507.464 305.672C509.365 304.973 511.334 303.076 512.947 301.724Z"/><path fill="#845656" d="M512.947 301.724L514.296 300.71C516.732 303.289 518.423 308.933 521.068 310.839C538.939 323.721 548.125 312.826 555.366 338.071C544.782 330.469 542.317 330.238 529.606 328.856C549.194 342.744 550.166 361.331 528.011 373.337C528 366.731 527.81 362.583 524.811 356.509C524.099 349.898 518.487 344.953 514.669 339.634C508.783 331.653 507.331 321.024 510.057 311.581C510.941 308.516 512.595 304.817 512.947 301.724Z"/><path fill="#FEFEFE" d="M216.93 871.357L217.704 871.752C220.507 876.975 219.549 889.931 218.87 895.721C213.051 903.077 209.21 903.97 200.487 905.654C195.12 910.601 190.962 916.705 185.994 922.019C177.526 931.079 163.343 933.847 151.4 934.644C135.794 935.685 114.109 934.74 102.141 923.132C100.678 918.543 100.188 904.301 102.661 899.551C103.126 898.659 109.612 904.623 111.003 905.334C130.177 915.132 162.636 916.301 179.731 901.702C184.392 897.629 187.951 891.122 193.494 886.957C201.304 881.09 209.53 877.573 216.93 871.357Z"/><path fill="#80BFC6" d="M344.685 524.114C348.909 528.357 350.832 529.917 356.039 532.841C373.693 528.138 368.996 528.111 380.041 541.733C385.462 544.835 388.41 546.087 394.713 544.2C404.955 538.476 406.118 537.999 413.669 547.171C418.655 550.029 422.985 548.776 427.903 546.727C431.253 543.584 434.749 540.997 438.551 538.445C440.95 540.428 443.339 543.155 445.501 545.472C453.112 545.307 464.839 540.4 472.088 537.605C471.552 542.036 471.054 544.94 470.079 549.296C465.748 552.004 461.034 554.744 456.232 556.505C423.195 568.623 367.98 564.436 343.488 537.755C343.551 533.747 344.268 528.212 344.685 524.114Z"/><path fill="#65A1A9" d="M356.039 532.841C373.693 528.138 368.996 528.111 380.041 541.733C373.964 540.17 361.288 535.966 356.039 532.841Z"/><path fill="#65A1A9" d="M394.713 544.2C404.955 538.476 406.118 537.999 413.669 547.171C408.399 546.831 399.348 546.169 394.713 544.2Z"/><path fill="#65A1A9" d="M427.903 546.727C431.253 543.584 434.749 540.997 438.551 538.445C440.95 540.428 443.339 543.155 445.501 545.472C441.494 545.88 431.414 547.139 427.903 546.727Z"/><path fill="#9976BC" d="M128.474 870.671C151.186 868.736 170.038 878.988 176.927 901.192C168.768 906.586 163.701 908.49 153.878 909.615C140.056 911.155 122.002 909.252 110.095 901.973C99.3379 895.397 108.595 878.721 116.819 874.091C121.353 871.537 123.584 871.276 128.474 870.671Z"/><path fill="#FBB46D" d="M414.92 565.438L421.57 565.374C412.45 592.282 402.281 619.006 389.372 644.347C385.756 651.446 383.199 656.739 376.006 660.745C353.947 658.442 342.354 640.973 323.239 632.404C308.471 625.783 290.814 626.618 276.717 618.207C269.274 613.767 263.928 603.492 256.653 598.707C255.38 597.889 253.345 597.257 251.882 597.881C245.286 600.693 251.386 612.294 253.442 616.315C255.204 618.897 256.551 621.06 258.139 623.756C254.292 619.797 250.332 615.685 248.268 610.47C246.63 606.33 246.104 602.113 248.003 597.966C249.42 594.871 251.904 592.025 255.225 590.978C265.125 587.858 271.958 600.937 277.461 607.005C289.632 620.427 310.793 618.826 326.724 624.602C340.611 629.637 350.995 640.632 363.996 647.109C366.567 648.39 370.047 649.805 372.921 648.703C384.072 644.427 409.245 579.945 414.92 565.438Z"/><path fill="#845656" d="M470.419 215.108C482.967 217.889 494.9 222.942 505.63 230.017C510.374 233.114 512.559 234.84 516.326 239.073C534.003 262.396 525.574 284.854 507.228 304.765L506.535 304.465C507.059 282.256 504.309 266.822 489.572 248.972C485.213 243.692 479.753 239.13 475.555 233.691L475.066 233.05C474.482 225.101 474.128 222.229 470.419 215.108Z"/><path fill="#E59896" d="M505.63 230.017C510.374 233.114 512.559 234.84 516.326 239.073C513.348 241.075 510.453 242.153 507.02 240.257C505.553 239.458 504.499 238.068 504.127 236.44C503.53 233.9 504.433 232.153 505.63 230.017Z"/><path fill="#E59896" d="M496.693 238.398C499.791 238.484 503.12 239.831 504.937 242.446C505.81 243.688 506.115 245.242 505.776 246.721C505.219 249.07 503.699 249.855 501.79 251.113C492.48 250.54 489.919 245.326 496.693 238.398Z"/><path fill="#9976BC" d="M732.834 852.212C738.232 851.704 742.96 853.118 746.964 856.829C775.395 883.181 730.82 889.154 712.976 889.598C703.014 889.615 698.684 889.287 689.192 886.3C695.813 862.802 708.622 854.054 732.834 852.212Z"/><path fill="#9976BC" d="M632.73 814.814C639.344 822.094 642.319 823.826 652.218 822.957C663.025 839.655 678.634 855.63 693.658 868.611C691.003 873.076 689.911 875.745 688.435 880.666C688.037 882.515 688.031 883.057 686.966 884.665C684.213 884.44 667.619 873.979 663.399 872.095C659.456 870.335 654.92 868.38 650.496 866.704C651.026 841.607 648.763 844.595 629.782 830.689C630.547 825.352 631.667 820.099 632.73 814.814Z"/><path fill="#FBB46D" d="M427.816 564.558C428.861 564.541 429.986 564.578 431.039 564.592C433.465 566.313 437.253 574.461 438.967 577.466C449.51 596.143 459.71 615.288 473.27 632.022C483.8 645.016 500.179 613.635 507.504 607.083C516.342 599.178 525.978 589.965 538.855 589.477C545.829 589.213 550.861 593.156 555.32 597.641L548.227 595.429C510.3 595.127 502.366 644.424 479.245 646.951C475.745 647.334 472.665 645.955 470.091 643.652C458.007 632.838 440.272 595.219 432.137 579.505C430.077 575.525 425.782 570.8 425.574 566.249C426.375 564.676 425.775 565.344 427.816 564.558Z"/><path fill="#FBB46D" d="M80.9253 508.31C83.0925 509.779 86.0697 523.831 86.7601 526.945C92.9156 529.477 99.1325 531.857 105.405 534.083C99.9581 538.193 94.3917 542.142 88.7132 545.925C89.1028 550.799 88.5877 561.63 88.4729 566.857L74.3122 555.835C73.5978 555.329 72.9677 554.963 72.2208 554.509C67.4994 554.132 57.2258 557.978 52.2214 559.591C54.2357 553.243 56.9599 546.59 59.1494 540.161C57.0486 536.356 50.7625 528.68 52.3066 524.791C55.2058 522.664 64.6897 523.454 68.9346 523.508L80.9253 508.31Z"/><path fill="#C8AAE6" d="M678.509 784.127C699.118 781.152 699.592 792.362 700.244 808.456C688.795 807.905 683.832 808.903 673.095 812.991C670.292 814.078 666.522 816.281 663.788 817.774C645.983 800.215 658.873 788.038 678.509 784.127Z"/><path fill="#C8AAE6" d="M168.409 801.195C184.491 800.508 202.535 808.56 195.386 827.888L191.056 831.7L184.048 828.447C172.393 824.156 163.651 823.559 151.454 824.547C151.203 809.399 150.755 802.444 168.409 801.195Z"/><path fill="#9976BC" d="M213.186 833.964L213.763 834.168C214.507 837.376 214.775 843.876 215.023 847.397C201.921 858.961 200.081 860.771 202.036 878.44C190.593 885.194 188.044 888.809 179.384 898.766C178.269 898.074 178.123 896.702 177.535 895.13C175.748 890.558 173.504 887.204 170.706 883.234C182.437 870.567 194.344 852.579 202.905 837.613C207.977 837.328 209.036 836.596 213.186 833.964Z"/><path fill="#FBB46D" d="M400.772 143.864C405.297 147.791 405.149 151.533 405.84 157.369L420.849 163.81C416.852 166.605 410.902 169.738 406.54 172.193C406.529 176.877 405.734 183.979 405.326 188.879C401.288 185.442 396.641 181.853 392.47 178.507C388.307 178.519 379.38 180.89 375.036 181.918C377.034 177.08 380.085 171.387 382.478 166.635C379.381 161.727 376.958 157.544 374.167 152.46L391.351 153.797C394.313 150.535 397.543 146.798 400.772 143.864Z"/><path fill="#FBB46D" d="M334.822 193.301C338.599 196.401 342.319 199.57 345.979 202.807C351.091 202.093 356.566 200.622 361.619 199.398C359.604 204.63 357.648 208.997 355.843 214.427C357.826 217.418 359.835 220.79 361.75 223.857C354.445 227.544 347.723 225.474 345.661 227.051C342.347 230.972 338.68 234.58 334.705 237.829C333.844 233.421 333.383 229.048 332.879 224.593C328.93 222.992 323.535 220.102 319.606 218.145C323.444 215.359 328.844 211.98 332.875 209.312C333.367 203.662 333.703 198.876 334.822 193.301Z"/><path fill="#FBB46D" d="M552.238 462.98C552.452 465.538 544.604 475.846 542.869 478.558C531.857 495.771 525.701 511.012 523.325 531.457C520.85 527.78 519.542 524.443 514.693 524.347L508.985 526.603C512.744 507.298 522.559 489.693 537.005 476.346C541.698 471.97 547.439 467.944 551.73 463.511L552.238 462.98Z"/><path fill="#FCAA9F" d="M649.334 747.317C651.738 749.491 654.024 754.393 655.505 757.33C648.451 765.758 639.653 772.555 629.717 777.252C626.318 778.858 616.288 783.097 612.658 781.798L604.668 774.143C624.139 769.86 636.649 762.329 649.334 747.317Z"/><path fill="#FBB46D" d="M321.836 126.01C326.942 126.41 330.886 127.005 335.904 127.809C332.412 131.173 328.886 134.501 325.326 137.793C325.743 142.781 326.715 148.326 327.478 153.32L313.175 146.443C308.506 149.153 304.059 151.852 299.127 154.065C299.687 150.169 301.323 144.771 301.538 140.757C301.576 140.055 300.245 139.194 300.572 137.038C304.115 133.842 317.061 127.908 321.836 126.01Z"/><path fill="#FBB46D" d="M563.64 447.499C564.383 452.444 560.471 467.209 559.526 472.494C556.054 491.895 556.864 505.163 561.271 523.909C559.324 522.72 554.356 519.071 552.316 519.871L547.604 524.096C547.234 516.693 547.125 508.619 547.715 501.265C548.916 486.319 555.763 460.829 563.64 447.499Z"/><path fill="#FEFEFE" d="M664.796 776.844C666.833 777.79 668.263 781.833 669.233 784.008C655.258 790.626 649.765 798.094 655.936 813.387C648.604 815.728 646.045 815.907 639.845 810.841C635.818 806.573 631.785 802.389 628.01 797.893C644.241 794.269 652.902 787.98 664.796 776.844Z"/><path fill="#FCAA9F" d="M195.146 764.218C197.176 765.998 200.601 770.888 203.044 773.272C214.839 784.788 224.401 788.196 239.609 792.42L233.72 798.675C231.631 799.777 228.386 799.207 226.071 798.566C211.659 794.578 198.769 785.614 190.929 773.028C192.411 769.351 193.154 767.605 195.146 764.218Z"/><path fill="#FBB46D" d="M553.672 428.636C557.389 428.383 560.849 428.999 564.542 429.489C548.817 432.5 530.56 441.98 529.995 461.378C529.925 463.753 531.334 466.396 531.231 469.3C530.42 468.89 529.622 468.454 528.839 467.992C512.413 458.402 516.967 446.13 531.064 437.417C538.487 432.829 545.156 430.434 553.672 428.636Z"/><path fill="#FEFEFE" d="M189.435 775.757C190.736 776.501 194.5 781.768 196.094 783.396C206.908 794.444 216.879 797.924 231.281 801.368L226.557 806.711C225.12 807.796 223.977 807.596 222.271 807.235C206.88 803.977 195.019 795.274 185.876 782.668C186.829 780.15 188.107 778.093 189.435 775.757Z"/><path fill="#FBB46D" d="M199.756 442.312C202.303 444.315 204.885 446.274 207.5 448.188L217.098 445.732L213.784 455.324C215.388 457.998 217.49 461.004 219.238 463.638C216.653 463.367 209.499 462.25 207.587 463.568L201.988 471.075L199.101 461.225C195.947 459.938 192.816 458.594 189.711 457.194L198.366 452.012C198.622 448.17 198.99 446.115 199.756 442.312Z"/><path fill="#FBB46D" d="M652.875 407.33C658.489 405.329 669.676 402.739 675.832 400.967C690.501 396.643 705.132 392.189 719.722 387.606C720.185 389.184 720.479 390.376 721.206 391.871C719.465 392.815 708.302 396.399 705.861 397.209C690.686 402.354 675.379 407.103 659.955 411.448L652.875 407.33Z"/><path fill="#FBB46D" d="M572.005 395.607C573.428 395.476 573.409 395.593 574.868 395.85L575.188 396.426C574.12 397.997 572.823 398.307 571.047 399.084C567.514 409.09 568.399 419.863 571.618 429.835L571.826 430.46L571.346 430.72L567.995 428.7C564.135 428.408 558.94 427.65 558.054 423.105C556.702 416.173 557.24 406.86 560.507 400.533C562.013 397.616 569.079 396.351 572.005 395.607Z"/><path fill="#FEFEFE" d="M656.228 759.871C657.87 761.57 659.055 764.357 660.088 766.515C659.386 767.338 658.66 768.14 657.912 768.921C649.777 777.378 632.275 789.232 620.383 789.462L614.848 784.226C635.423 778.374 641.377 774.916 656.228 759.871Z"/><path fill="#FEFEFE" d="M471.253 323.98C472.682 312.841 477.516 300.972 491.015 303.036C491.917 303.176 492.818 303.331 493.715 303.5C490.109 304.938 487.178 306.048 483.781 307.909C493.589 317.742 481.814 313.387 479.896 319.693C478.044 325.782 483.327 332.451 488.946 335.031C486.748 336.135 486.279 336.356 483.889 336.881C474.322 336.449 471.697 332.819 471.253 323.98Z"/><path fill="#FBB46D" d="M561.733 436.367C565.559 441.143 547.381 473.734 534.268 469.564C532.849 466.226 532.648 465.325 531.946 461.767C547.038 456.926 552.792 448.881 561.733 436.367Z"/><path fill="#E59896" d="M446.758 247.935C445.192 255.832 444.122 261.051 440.891 268.39C438.878 273.092 436.283 277.38 433.737 281.81C438.572 280.494 439.996 279.835 444.458 278.162C446.622 278.135 447.913 277.979 450.074 277.706C444.961 283.095 439.733 280.607 436.792 286.856C432.938 284.671 428.858 282.913 424.624 281.611L422.399 280.702L422.111 279.954C424.465 276.777 428.498 273.605 431.318 270.433C437.804 263.137 441.916 256.238 446.758 247.935Z"/><path fill="#EC8280" d="M446.758 247.935C445.192 255.832 444.122 261.051 440.891 268.39C437.205 268.343 426.737 278.47 424.624 281.611L422.399 280.702L422.111 279.954C424.465 276.777 428.498 273.605 431.318 270.433C437.804 263.137 441.916 256.238 446.758 247.935Z"/><path fill="#C8AAE6" d="M661.107 768.429C662.252 770.123 663.364 772.799 664.245 774.721C663.269 775.641 662.287 776.555 661.299 777.463C653.595 784.538 637.034 796.288 626.135 795.828L621.736 791.382C639.392 787.126 648.583 781.407 661.107 768.429Z"/><path fill="#FBB46D" d="M572.714 439.316C581.975 440.978 589.915 465.195 588.008 473.8C586.932 478.66 586.758 479.741 582.896 482.618C581.055 483.622 578.288 484.676 576.29 485.506C582.412 472.429 581.707 462.088 576.524 448.608C575.337 445.522 573.661 442.434 572.714 439.316Z"/><path fill="#C8AAE6" d="M184.605 784.942C186.047 786.192 190.808 791.674 192.709 793.5C203.038 803.419 210.611 806.227 224.016 809.376L220.354 813.344C208.49 815.799 188.815 799.896 182.018 791.06C182.745 789.056 183.745 786.914 184.605 784.942Z"/><path fill="#B28ED6" d="M557.613 432.904L559.115 433.197L559.109 433.777L555.249 437.184C556.242 437.215 558.385 436.066 559.451 435.579C553.903 445.449 548.037 451.177 538.644 457.354C536.256 458.476 534.049 459.017 531.523 459.744C536.247 444.718 543.486 438.943 557.613 432.904Z"/><path fill="#FBB46D" d="M256.856 172.37C258.906 173.863 260.943 175.374 262.966 176.904C265.628 176.417 268.687 175.581 271.349 174.925L268.327 182.983C269.487 185.005 271.596 188 272.938 190.025L263.901 189.568C262.256 191.808 260.418 194.125 258.717 196.34C257.894 194.077 257.013 190.869 256.293 188.498L248.565 185.498C250.748 184.099 253.146 182.302 255.283 180.78C255.705 178.088 256.342 175.075 256.856 172.37Z"/><path fill="#FBB46D" d="M444.76 169.17C448.892 171.632 454.714 175.769 458.859 178.523C456.065 183.291 456.984 183.711 458.651 188.908C454.788 187.834 452.889 186.87 449.132 188.257L443.444 192.825L443.468 183.952L435.765 179.27L443.861 175.92L444.76 169.17Z"/><path fill="#FEFEFE" d="M193.535 806.24C195.18 806.787 200.846 809.69 202.617 810.582C208.425 813.508 211.583 814.27 217.92 815.722C215.897 818.511 212.866 821.754 210.524 824.399C208.028 827.085 207.16 828.12 204.15 830.238L197.869 828.152C200.687 818.261 200.242 814.222 193.535 806.24Z"/><path fill="#FBB46D" d="M628.584 839.235C641.905 846.742 643.374 848.567 642.709 863.853C639.911 863.779 634.184 861.517 632.056 859.239C627.185 854.022 628.288 845.918 628.584 839.235Z"/><path fill="#FBB46D" d="M568.396 440.722C571.201 444.077 568.656 460.405 570.506 465.515C574.229 475.8 580.559 474.825 573.287 485.285C561.91 483.027 564.754 448.41 568.396 440.722Z"/><path fill="#FEFEFE" d="M161.533 826.256C168.706 826.536 190.868 829.472 192.473 837.89C192.039 839.581 192.514 839.009 191.218 839.823C189.478 839.573 184.526 836.047 181.822 834.951C172.547 831.648 164.775 830.814 154.896 831.335C152.338 831.469 147.478 832.327 145.343 831.775L145.154 830.794C147.725 825.728 156.517 826.381 161.533 826.256Z"/><path fill="#FEFEFE" d="M689.821 810.608C693.902 810.392 706.297 809.422 707.069 814.947C704.775 816.624 696.284 815.101 692.866 815.552C687.585 816.249 682.911 817.713 677.857 819.189C673.251 820.735 670.172 823.359 665.897 824.601C664.216 823.7 663.998 821.48 665.047 820.3C670.312 814.379 682.53 812.119 689.821 810.608Z"/><path fill="#80BFC6" d="M618.442 748.971C621.074 751.447 625.754 759.63 627.817 763.068C624.51 765.135 620.409 766.88 616.818 768.528C613.311 763.886 610.176 758.973 607.443 753.837C611.18 752.331 614.782 750.649 618.442 748.971Z"/><path fill="#FBB46D" d="M653.06 820.442C646.221 820.965 639.117 820.209 634.349 814.189C633.358 812.938 633.333 809.958 634.885 809.016C637.488 809.887 641.369 815.145 644.387 816.684C647.945 818.499 653.668 816.273 657.47 815.224C662.941 819.949 659.623 818.103 658.798 822.327C656.938 831.848 664.788 829.864 669.384 825.959L672.566 829.953L671.997 830.365L671.201 830.961C667.83 833.437 668.484 834.532 668.439 838.539L666.719 838.377C661.525 832.265 657.504 827.093 653.06 820.442Z"/><path fill="#FEFEFE" d="M128.689 859.203C135.202 858.658 141.757 858.942 148.198 860.049C153.846 861.074 165.353 864.147 168.672 868.94C168.742 870.689 169.008 869.956 167.95 871.246C165.888 871.537 166.896 871.638 164.848 870.719C156.161 866.432 152.744 865.798 143.433 864.041C138.26 863.065 124.487 864.428 122.484 863.287L122.264 862.25C123.817 860.201 126.297 859.567 128.689 859.203Z"/><path fill="#845656" d="M418.829 282.313C423.843 282.741 431.398 286.095 435.763 288.505C441.712 291.789 447.878 294.423 444.979 301.969C437.354 299.458 423.457 290.777 417.701 284.941C417.556 283.56 417.784 283.8 418.829 282.313Z"/><path fill="#FEFEFE" d="M723.403 840.645C726.467 840.308 734.429 840.116 734.586 844.431C733.118 845.869 730.443 845.716 728.397 845.678C718.935 845.501 710.992 848.438 702.384 852.317C699.9 853.895 697.272 856.045 694.399 854.523C693.382 846.204 717.422 841.728 723.403 840.645Z"/><defs><linearGradient id="gradient_0" gradientUnits="userSpaceOnUse" x1="149.24818" y1="861.94836" x2="158.53479" y2="847.31812"><stop offset="0" stop-color="#F4EBFD"/><stop offset="1" stop-color="white"/></linearGradient></defs><path fill="url(#gradient_0)" d="M175.796 862.536C167.98 855.655 153.929 852.756 143.734 852.298C140.659 852.16 133.27 853.058 131.166 851.84L131.161 850.838C131.901 849.818 132.438 849.197 133.738 848.949C149.232 845.984 163.481 850.251 176.464 857.455C178.528 859.22 179.992 860.565 177.929 863.33C176.385 863.354 177.087 863.567 175.796 862.536Z"/><path fill="#F6B7CA" d="M176.464 857.455C178.528 859.22 179.992 860.565 177.929 863.33C176.385 863.354 177.087 863.567 175.796 862.536C175.967 860.894 176.244 859.106 176.464 857.455Z"/><path fill="#80BFC6" d="M630.363 740.9C634.186 744.736 636.845 750.079 639.439 754.849C635.981 757.678 633.487 759.506 629.707 761.804C626.627 757.493 623.625 752.251 620.857 747.67L630.363 740.9Z"/><path fill="#80BFC6" d="M217.239 764.24C217.487 764.343 227.125 770.606 229.098 771.711C226.803 775.681 224.047 779.593 221.466 783.402C217.986 782.39 212.692 778.388 209.58 776.162C212.01 772.111 214.564 768.135 217.239 764.24Z"/><path fill="#FEFEFE" d="M144.882 837.202C156.117 837.12 167.731 838.36 178.242 842.604C180.576 843.547 185.185 847.027 184.124 849.892C182.503 850.266 182.748 850.019 180.872 849.357C172.204 845.275 164.579 842.382 154.925 841.466C151.128 841.106 140.358 842.896 138.687 839.839C139.897 837.765 142.706 837.375 144.882 837.202Z"/><path fill="#80BFC6" d="M206.159 751.748C207.368 752.508 213.724 760.554 215.667 762.565C212.719 766.751 210.567 770.168 208.291 774.726C204.12 771.436 202.077 768.753 198.904 764.534C201.273 759.61 203.291 756.301 206.159 751.748Z"/><path fill="#80BFC6" d="M603.825 754.565L604.649 754.714C607.272 757.355 612.251 765.527 614.602 769.192L605.632 771.712C601.743 771.464 595.805 760.691 594.124 757.443C597.613 756.156 600.207 755.487 603.825 754.565Z"/><path fill="#80BFC6" d="M231.37 772.55C235.882 774.655 239.514 775.028 244.389 775.7C241.683 780.271 238.702 784.447 235.671 788.798C231.701 788.6 226.989 786.279 223.24 784.669C226.247 780.694 228.702 776.743 231.37 772.55Z"/><path fill="#FEFEFE" d="M715.486 829.677C718.247 829.482 722.067 829.46 723.943 831.869C722.931 834.987 712.845 834.666 709.746 835.217C702.223 836.553 695.706 840.381 689.22 844.168C687.526 845.249 687.124 845.935 685.455 845.934C684.623 845.007 684.015 844.539 683.681 843.366C690.539 835.124 705.329 831.186 715.486 829.677Z"/><path fill="#FEFEFE" d="M702.251 819.58C705.491 819.425 713.991 818.476 714.374 822.917C712.779 824.026 704.461 823.358 701.064 824.221C693.578 826.123 688.93 827.996 682.102 831.492C680.076 832.983 675.349 836.529 673.036 834.886C672.322 827.061 696.758 820.817 702.251 819.58Z"/><path fill="#EC8280" d="M393.96 376.761C395.453 377.248 399.624 379.305 400.846 380.087C411.275 386.765 421.496 388.177 433.114 391.084C434.094 391.329 434.205 391.927 434.523 392.733L433.887 393.992C430.81 394.56 425.318 394.845 422.04 395.114C417.403 392.552 412.706 390 407.97 387.626C403.51 385.39 398.667 383.577 394.365 381.08C393.407 379.054 393.771 379.345 393.96 376.761Z"/><path fill="#80BFC6" d="M246.707 775.074C249.786 776.072 256.044 777.629 257.713 780.08C257.611 781.877 257.849 780.998 256.581 782.668C254.208 786.041 251.867 788.213 248.796 790.884C244.504 790.558 242.221 790.338 238.045 789.451C240.464 786.213 242.063 784.032 244.099 780.571L246.707 775.074Z"/><path fill="#65A1A9" d="M246.707 775.074C249.786 776.072 256.044 777.629 257.713 780.08C257.611 781.877 257.849 780.998 256.581 782.668C253.704 781.056 247.587 780.872 244.099 780.571L246.707 775.074Z"/><path fill="#FBB46D" d="M205.297 832.231C208.317 829.923 211.429 826.047 214.267 826.28C216.06 831.8 205.507 835.379 201.486 836.35C198.035 841.704 194.299 848.339 190.782 853.351L190.008 851.701C189.66 845.16 185.039 847.544 186.703 842.258L187.511 841.798C190.753 843.353 193.877 846.479 196.827 841.63C198.498 838.884 193.588 833.569 195.887 831.341C197.632 830.127 203.145 831.712 205.297 832.231Z"/><path fill="#80BFC6" d="M638.117 731.975C642.025 735.635 644.844 741.49 647.302 746.225C645.287 748.805 643.475 750.742 641.247 753.132C639.09 750.474 635.738 743.819 632.103 739.183L638.117 731.975Z"/><path fill="#FCAA9F" d="M229.245 198.395C233.527 202.073 233.776 202.655 239.267 203.937C237.994 205.076 235.352 207.287 234.4 208.513C233.157 214.167 231.589 214.047 226.253 214.494C225.143 211.098 224.692 209.656 222.611 206.667C223.304 206.276 224.449 205.324 225.125 204.802L222.089 204.445L221.831 203.911C224.331 201.719 226.453 201.087 229.245 198.395Z"/><path fill="#FBB46D" d="M229.245 198.395C233.527 202.073 233.776 202.655 239.267 203.937C237.994 205.076 235.352 207.287 234.4 208.513C232.576 206.176 227.964 202.054 225.125 204.802L222.089 204.445L221.831 203.911C224.331 201.719 226.453 201.087 229.245 198.395Z"/><path fill="#FBB46D" d="M379.107 379.856C388.349 380.667 401.053 385.826 409.048 390.612C408.316 390.953 406.664 390.334 405.629 390.091C403.87 389.642 399.214 389.15 397.03 388.765C389.471 387.434 382.327 385.825 374.668 385.2C376.061 383.269 377.543 381.644 379.107 379.856Z"/><path fill="#80BFC6" d="M198.917 741.867C201.739 744.57 203.223 746.332 205.709 749.384C202.954 752.419 200.558 756.697 198.541 760.24C197.709 761.248 198.219 760.896 197.032 761.325C194.676 759.913 194.085 756.651 193.268 753.997C194.253 748.599 195.831 746.068 198.917 741.867Z"/><path fill="#C8AAE6" d="M703.141 826.093C703.605 826.034 704.071 825.982 704.537 825.937C706.277 825.77 708.086 825.675 709.457 826.792C707.844 829.39 697.947 831.751 694.564 833.479C692.273 834.649 690.16 835.623 687.722 837.005C686.382 837.94 686.226 838.171 684.631 838.623C682.531 837.92 682.182 836.942 680.552 835.12C688.654 830.154 693.98 828.328 703.141 826.093Z"/><path fill="#C8AAE6" d="M143.905 843.683C153.669 842.384 167.802 845.372 177.063 849.718C177.828 850.077 177.689 850.094 177.862 850.954L175.835 853.665C174.692 853.799 164.589 849.541 162.566 848.601C159.499 847.177 144.257 846.26 143.215 844.81L143.905 843.683Z"/><path fill="#F2A25F" d="M628.691 833.756C630.849 834.181 632.821 835.675 634.761 836.69C647.351 843.278 649.445 852.435 647.942 865.386C647.659 865.424 646.649 865.325 646.319 865.301C643.953 862.801 645.267 853.651 644.125 849.777C641.777 841.808 630.351 841.394 628.691 833.756Z"/><path fill="#FBB46D" d="M676.669 840.795C677.867 839.406 678.481 838.348 680.211 837.858L681.022 838.338C681.359 841.257 680.687 841.852 678.929 844.069C678.66 844.409 678.388 844.746 678.113 845.081C680.4 853.339 685.255 849.344 691.508 847.676C689.95 850.409 688.075 853.107 687.606 856.161L686.832 858.939C682.289 854.886 678.147 850.744 673.824 846.463C673.501 844.864 673.02 843.301 672.577 841.728C674.057 841.504 675.225 841.164 676.669 840.795Z"/><path fill="#FCAA9F" d="M676.669 840.795C677.867 839.406 678.481 838.348 680.211 837.858L681.022 838.338C681.359 841.257 680.687 841.852 678.929 844.069C678.66 844.409 678.388 844.746 678.113 845.081C676.865 843.355 676.954 842.999 676.669 840.795Z"/><path fill="#F2A25F" d="M190.008 851.701L190.782 853.351C184.818 861.505 178.367 869.372 172.573 877.538L171.762 876.649C177.377 869 169.731 869.409 172.187 863.515L172.847 863.381C175.548 865.445 180.903 868.212 181.535 861.579C181.726 859.565 177.87 854.307 176.567 852.429C182.201 854.076 186.224 858.498 190.008 851.701Z"/><path fill="#C8AAE6" d="M714.837 836.641C717.978 836.224 718.422 835.634 720.674 837.843L720.558 838.667C710.687 840.982 705.875 841.961 696.914 847.049C695.008 848.165 694.069 849.119 692.328 847.443C692.839 840.434 709.32 837.657 714.837 836.641Z"/><path fill="#65A1A9" d="M592.01 757.982L592.68 758.45C595.184 764.569 597.262 767.282 601.458 772.425L594.479 772.4C589.77 769.035 587.578 765.832 584.069 761.366C586.298 760.273 589.662 758.965 592.01 757.982Z"/><path fill="#B28ED6" d="M131.5 865.641C135.952 865.37 163.004 867.229 161.88 874.319C159.659 875.59 159.111 874.785 157.184 873.778C151.614 871.112 145.642 869.384 139.51 868.664C135.906 868.251 126.955 868.7 125.456 867.984L125.524 867.332C127.485 866.175 129.243 866.051 131.5 865.641Z"/><path fill="#B28ED6" d="M156.663 833.213C168.592 833.156 174.735 834.703 185.71 839.053L183.448 842.276C181.747 842.729 182.223 842.536 180.143 841.498C167.719 835.08 160.821 836.429 148.298 834.224C151.158 833.645 153.771 833.465 156.663 833.213Z"/><path fill="#C8AAE6" d="M135.623 854.727C136.321 854.678 137.02 854.634 137.718 854.597C145.187 854.2 162.284 855.67 168.617 861.144C169.879 862.234 169.389 863.268 169.198 864.886C163.784 863.228 158.644 859.999 151.622 858.438C146.187 857.23 141.706 856.899 136.256 856.102C135.727 856.025 135.767 855.397 135.623 854.727Z"/><path fill="#B28ED6" d="M726.781 847.695C728.631 847.481 730.011 847.353 731.356 848.848C729.785 851.153 721.131 850.889 717.253 852.446C712.772 854.246 709.426 856.016 705.168 858.202C704.623 858.453 704.173 858.498 703.569 858.63C701.845 857.094 702.358 857.989 701.695 856.025C704.181 851.135 721.629 848.268 726.781 847.695Z"/><path fill="#C8AAE6" d="M226.253 214.494C222.048 214.677 213.537 215.719 211.553 210.802C212.517 206.153 218.892 206.378 222.611 206.667C224.692 209.656 225.143 211.098 226.253 214.494Z"/><path fill="#B28ED6" d="M460.242 191.459C461.153 187.654 459.021 184.981 459.783 181.505C460.536 180.983 460.563 180.71 461.329 181.034C464.966 182.572 471.387 187.488 474.486 189.912C469.542 190.795 464.586 191.605 459.618 192.341L460.242 191.459Z"/><path fill="#F2A25F" d="M214.7 856.856L215.306 857.554C215.871 861.368 215.548 865.958 215.127 869.797C213.316 871.616 211.28 873.146 209.27 874.749C205.972 868.393 209.948 861.184 214.7 856.856Z"/><path fill="#C8AAE6" d="M692.731 818.201C693.59 818.025 697.232 817.931 698.315 817.881C689.2 820.349 683.384 823.103 675.189 827.473C673.147 827.644 671.848 825.714 670.463 824.301C679.34 820.664 683.248 819.043 692.731 818.201Z"/><path fill="#80BFC6" d="M642.717 725.777C645.842 727.679 651.814 738.806 649.279 742.551L648.248 742.69C645.209 737.357 643.646 734.628 639.456 730.222L642.717 725.777Z"/><path fill="#F2A25F" d="M214.566 850.931L215.287 851.78C214.77 855.088 208.777 858.766 207.583 861.544C205.439 866.535 207.252 871.993 205.198 877.341C203.182 875.471 202.886 870.229 203.243 867.657C204.336 859.785 208.508 855.476 214.566 850.931Z"/><path fill="#F2A25F" d="M687.606 856.161C690.413 865.759 696.74 857.424 700.373 858.691C700.474 861.552 699.201 862.672 697.327 864.673C696.601 865.456 695.853 866.218 695.084 866.959L686.832 858.939L687.606 856.161Z"/><path fill="#FBB46D" d="M565 430.213C570.809 431.47 571.635 434.377 569.475 439.49C563.234 438.101 562.269 435.981 565 430.213Z"/><path fill="#9976BC" d="M299.813 356.889C300.219 358.876 298.7 366.85 298.051 368.893C296.909 369.745 294.323 369.485 292.749 369.491C292.521 365.553 297.319 359.81 299.813 356.889Z"/><path fill="#FEFEFE" d="M180.591 793.327C182.558 794.915 188.937 801.204 189.659 803.285L188.867 803.142C185.43 801.469 181.547 800.356 177.886 799.192C178.716 797.272 179.706 795.239 180.591 793.327Z"/><path fill="#FBB46D" d="M169.166 881.459C166.89 879.899 165.092 878.674 163.565 876.383L164.005 875.745C167.215 875.392 167.688 876.275 171.198 876.601L171.762 876.649L172.573 877.538C171.546 878.824 170.264 880.21 169.166 881.459Z"/><path fill="#F2A25F" d="M666.719 838.377L668.439 838.539C670.053 840.139 670.635 840.467 672.577 841.728C673.02 843.301 673.501 844.864 673.824 846.463C671.384 844.145 668.911 841.006 666.719 838.377Z"/><path fill="#C8AAE6" d="M348.417 227.781L350.025 228.12L350.352 228.878C349.4 230.246 347.292 231.196 345.769 232.057L344.437 232.323L344.338 231.779C345.835 229.682 346.339 229.415 348.417 227.781Z"/><path fill="#E59896" d="M500.251 314.392C499.985 318.637 499.416 322.858 498.546 327.022L497.167 325.792C498.089 322.159 499.064 317.884 500.251 314.392Z"/><path fill="#F9CBD6" d="M690.691 852.352C691.892 853.654 690.656 855.284 691.002 856.007C691.891 857.864 693.683 856.731 695.166 858.945C690.418 858.793 688.531 856.927 690.691 852.352Z"/><path fill="#F6B7CA" d="M187.008 849.139L187.402 849.467C187.871 851.143 188.022 850.421 187.324 851.749C185.363 853.113 185.104 853.059 182.674 853.485L182.179 852.86C183.369 850.476 184.211 853.13 187.008 849.139Z"/><path fill="#FCAA9F" d="M170.543 869.238C172.311 870.412 172.63 870.802 172.262 872.782C170.975 874.439 170.789 874.42 168.742 875.181C168.112 874.452 168.398 874.876 167.933 873.879C171.122 872.076 170.986 872.57 170.543 869.238Z"/><path fill="#F2A25F" d="M195.126 836.303L195.652 836.875C196.49 839.671 193.935 841.283 191.757 842.225L191.357 840.978C193.548 839.191 194.083 838.888 195.126 836.303Z"/><path fill="#F9CBD6" d="M670.48 835.366C671.679 836.06 675.466 837.742 676.132 838.406C674.345 838.85 674.382 838.931 672.495 838.534C671.11 837.563 671.062 836.957 670.48 835.366Z"/><path fill="#B28ED6" d="M385.496 388.796L391.17 390.139C388.983 390.461 386.805 390.717 384.669 391.278L384.485 390.131L385.496 388.796Z"/><path fill="#F9CBD6" d="M664.408 393.619C665.169 393.656 664.711 393.58 665.734 394.039C664.76 394.983 663.037 395.233 661.642 395.605C661.217 395.352 660.749 394.967 660.343 394.661C661.312 393.652 662.616 393.855 664.408 393.619Z"/><path fill="#9976BC" d="M921.623 298.199C938.314 297.823 948.589 304.774 944.385 322.573C945.253 322.771 946.117 322.986 946.977 323.216C969.869 329.404 962.308 351.793 944.141 360.35C937.93 363.222 929.795 366.103 926.536 357.907C919.902 341.373 913.091 324.684 907.481 307.781C905.316 301.255 917.158 299.005 921.623 298.199ZM941.195 345.499C947.86 339.723 944.873 335.051 937.058 335.457C936.677 335.477 936.295 335.503 935.915 335.534C934.287 336.064 933.559 335.974 932.658 337.073C932.508 341.043 933.366 346.193 937.935 347.316C939.743 346.894 939.794 346.672 941.195 345.499ZM930.109 322.852C934.354 315.619 932.318 311.254 923.584 311.273C922.215 315.004 924.588 321.446 927.583 323.918C928.897 323.865 928.975 323.615 930.109 322.852Z"/><path fill="#9976BC" d="M857.645 439.869C868.992 442.883 861.798 456.23 863.699 461.979L864.331 462.253C868.562 458.937 875.02 442.776 882.13 443.637C891.988 448.496 882.45 486.963 879.227 495.443C878.608 497.073 875.765 501.79 873.713 501.829C860.413 502.083 869.907 480.859 869.892 474.717L869.269 475.26L868.991 475.63C860.647 486.658 848.708 498.436 849.656 474.258C846.534 479.239 830.874 511.993 825.288 492.306C828.937 480.36 847.356 447.014 857.645 439.869Z"/><path fill="#80BFC6" d="M875.22 369.099C905.963 365.548 898.061 416.068 872.092 426.183C840.313 431.847 849.8 379.025 875.22 369.099ZM869.791 411.308C875.142 406.827 888.138 388.926 877.395 384.709C872.408 390.012 862.514 403.99 867.593 411.232C869.066 411.697 868.358 411.698 869.791 411.308Z"/><path fill="#FBB46D" d="M818.474 320.557C820.416 320.467 822.387 320.508 824.289 320.962C828.24 321.892 831.633 324.41 833.667 327.923C837.439 334.307 836.507 339.632 834.722 346.183C852.601 353.748 851.484 372.573 835.901 381.898C834.748 382.384 833.593 382.798 832.389 383.143C827.907 384.426 822.348 384.841 818.182 382.354C815.08 380.502 814.122 378.046 813.21 374.684C811.115 366.965 805.182 332.381 808.73 326.607C810.947 322.998 814.547 321.603 818.474 320.557ZM827.198 378.831C831.333 377.52 833.147 376.859 836.736 374.124C846.618 361.758 840.537 352.704 825.708 351.163C828.428 344.497 829.484 341.706 830.737 334.713C827.79 327.815 824.931 325.894 817.389 326.558C815.622 328.123 812.805 330.548 812.95 333.296C813.353 340.961 814.785 347.645 816.088 355.371C817.018 360.881 816.853 370.844 819.575 375.512C820.472 377.05 825.386 378.416 827.198 378.831Z"/><path fill="#FBB46D" d="M827.166 357.472C830.143 357.906 832.678 358.561 834.215 361.398C835.143 363.115 835.288 365.147 834.614 366.978C833.607 369.762 831.929 370.963 829.402 372.166C820.306 371.41 818.719 361.209 827.166 357.472Z"/><path fill="#FBB46D" d="M818.58 330.677C820.439 329.794 822.629 329.982 824.312 331.168C825.994 332.354 826.907 334.354 826.701 336.401C826.495 338.449 825.202 340.227 823.317 341.054C820.462 342.307 817.13 341.036 815.836 338.199C814.541 335.363 815.763 332.013 818.58 330.677Z"/><path fill="#80BFC6" d="M854.302 240.205C877.826 238.122 854.668 268.967 850.203 275.888C851.597 275.457 852.995 275.041 854.398 274.642C859.526 273.191 871.184 270.717 876.393 273.812C877.152 274.231 878.094 275.785 877.838 276.708C874.692 288.1 846.817 290.371 838.864 290.802C820.588 288.275 839.852 264.053 844.81 257.071C840.872 258.019 806.126 266.341 815.765 252.718C820.986 245.339 845.346 240.867 854.302 240.205Z"/><path fill="#F6B7CA" d="M873.235 302.568C896.408 300.473 914.825 342.79 888.782 352.203C883.375 352.757 879.498 352.847 874.349 349.742C862.626 342.671 855.415 321.794 862.141 309.468C864.471 305.198 868.751 303.67 873.235 302.568ZM887.685 347.874C906.256 341.072 893.779 307.124 873.081 306.577C853.801 313.757 870.036 352.358 887.685 347.874Z"/><path fill="#F6B7CA" d="M874.307 310.983C878.317 310.696 881.574 311.723 884.11 314.992C889.851 322.392 895.348 335.999 887.01 343.225C882.667 344.09 879.678 343.239 876.933 339.493C872.071 332.857 866.077 316.842 874.307 310.983ZM885.092 340.296C886.626 336.526 887.339 334.454 886.505 330.3C885.24 324 883.027 316.986 876.422 314.72C872.147 321.843 876.776 338.565 885.092 340.296Z"/><path fill="#F6B7CA" d="M938.68 430.95C948.452 432.906 942.858 446.268 940.42 452.206C944.2 452.652 948.328 452.425 950.002 456.372C949.908 462.827 939.047 466.712 933.972 468.547C932.57 472.765 925.705 492.333 918.111 488.29C916.076 487.206 915.961 481.085 915.814 478.785C913.65 480.648 911.414 482.426 909.111 484.115C906.205 485.242 903.255 485.968 900.346 484.524C895.706 478.199 905.796 468.638 910.108 464.485C907.899 460.897 897.94 445.774 906.555 443.004C910.642 441.689 918.392 447.156 921.975 449.555C925.589 442.763 931.336 434.065 938.68 430.95Z"/><path fill="#F9CBD6" d="M938.652 436.387L939.618 437.199C939.75 441.354 935.54 451.999 934.145 457.073C937.6 457.136 940.861 456.331 943.82 458.054L943.918 458.933C941.758 461.381 934.159 464.378 930.898 465.756C927.638 470.691 925.108 477.925 920.911 484.39C921.053 480.669 921.937 476.936 918.871 474.434C915.575 473.937 912.75 476.435 909.884 478.308C908.256 479.174 905.894 480.077 904.141 480.814C906.897 473.867 910.584 470.234 915.501 464.614C912.997 460.847 907.948 453.706 908.415 449.195C911.315 445.595 919.802 452.171 922.73 454.046C928.376 448.641 932.602 442.098 938.652 436.387Z"/><path fill="#FBB46D" d="M918.756 375.616C946.227 374.048 945.602 417.514 922.626 425.437C911.531 426.356 904.656 421.902 902.172 410.541C899.269 397.267 903.137 378.598 918.756 375.616ZM922.37 420.483C937.835 412.681 940.396 378.053 919.234 379.563C913.734 382.133 910.926 385.189 908.808 391.047C904.744 402.29 904.874 423.623 922.37 420.483Z"/><path fill="#FBB46D" d="M919.098 384.529C920.415 384.506 921.869 384.453 923.144 384.8C925.684 385.469 927.837 387.151 929.102 389.452C933.604 397.556 929.099 412.151 921.045 416.723C919.77 416.939 917.841 416.85 916.603 416.519C914.404 415.949 912.525 414.522 911.384 412.558C906.662 404.466 910.985 389.42 919.098 384.529ZM919.853 412.265C923.65 407.713 931.736 389.267 920.273 389.404C915.801 393.865 914.597 399.247 914.186 405.401C913.947 408.989 915.448 412.95 919.853 412.265Z"/><path fill="#F6B7CA" d="M834.68 396.125C837.034 397.043 837.626 399.787 837.686 402.123C837.943 412.214 834.064 422.163 830.219 431.311C829.092 433.993 824.489 441.825 824.589 443.923C826.475 443.836 826.759 443.755 828.626 444.329C832.738 449.765 813.059 466.224 809.542 469.849C802.965 476.627 799.436 473.028 795.013 476.49C789.934 480.466 784.935 484.205 779.765 487.896C775.136 491.202 746.007 502.851 744.667 493.374C745.363 491.71 745.942 491.472 747.349 490.487C752.669 488.33 755.838 485.991 759.95 491.09C767.184 489.489 776.716 484.883 784.082 482.003C779.526 482.657 770.501 485.559 766.837 484.639L766.603 483.833C767.437 482.735 782.225 474.751 785.369 472.172C815.006 447.863 828.855 434.712 834.68 396.125Z"/><path fill="#F6B7CA" d="M708.49 235.108C722.28 234.152 738.078 236.627 750.989 241.692C756.451 243.835 758.644 246.035 761.295 251.108C771.016 255.912 777.438 258.501 786.271 265.1C787.935 264.381 789.575 263.817 791.437 264.313C801.368 266.956 822.625 289.846 819.442 300.441C815.707 303.081 811.813 296.883 809.994 294.304C799.289 280.168 777.013 263.064 760.69 256.178C756.859 254.549 752.88 253.291 748.808 252.422C743.418 251.234 728.51 249.796 725.104 245.663C725.028 241.492 732.406 242.375 735.739 242.238C721.647 239.499 715.006 240.32 701.246 240.357L700.406 239.514L700.715 238.335C703.149 235.875 705.136 235.731 708.49 235.108ZM817.085 297.63C816.053 292.944 810.418 282.631 805.738 281.267C807.385 284.486 814.591 296.113 817.085 297.63Z"/><path fill="#FBB46D" d="M975.572 366.306C977.746 366.614 979.384 367.503 980.367 369.554C983.963 377.055 984.653 386.136 985.841 394.299C986.363 397.885 986.244 405.466 982.161 406.897C975.924 409.083 974.579 398.023 973.891 394.076C972.156 396.617 971.757 398.102 968.482 398.041C966.319 397.015 964.875 395.008 963.242 393.163C962.836 396.899 962.35 400.161 961.735 403.872C961.224 405.722 960.717 407.321 959.106 408.532C956.771 410.287 952.259 410.844 951.503 407.1C951.018 403.97 950.491 398.88 951.127 395.654C952.313 389.639 951.725 364.189 961.663 367.82C963.995 368.672 966.947 374.732 967.991 377.755C970.046 373.374 971.59 369.085 975.572 366.306ZM956.27 405.861C957.621 399.998 958.453 395.564 959.462 389.611C959.865 387.642 959.922 386.201 961.219 384.713C964.562 383.951 967.535 389.98 969.258 392.565C970.447 389.585 971.626 384.284 975.495 385.185C978.74 388.548 978.745 397.62 981.285 404.095C981.383 398.43 979.346 374.981 976.096 371.301C973.385 376.844 971.011 380.799 970.081 386.959C966.291 382.076 962.569 375.721 958.989 371.459C957.043 382.043 954.732 395.278 956.27 405.861Z"/><path fill="#FBB46D" d="M891.775 501.013C902.307 503.639 891.644 518.378 888.096 522.986C875.608 539.205 858.969 548.108 838.836 550.672C836.792 550.229 836.064 550.118 834.652 548.56C833.386 542.909 845.435 538.597 849.555 535.985C857.124 531.186 863.567 525.472 870.436 520.003C875.736 515.785 886.549 503.318 891.775 501.013ZM843.313 546.007C862.188 540.837 876.44 532.845 887.708 515.687C888.778 514.057 890.805 509.791 890.925 507.928C878.568 519.372 866.616 531.293 852.049 539.961C850.054 541.148 844.521 544.036 843.241 545.538L843.313 546.007Z"/><path fill="#FBB46D" d="M877.689 238.052C890.538 237.796 902.015 244.693 911.436 252.923C916.203 257.088 924.742 267.111 924.75 273.739C924.753 276.615 923.609 277.667 921.713 279.541C912.953 279.548 865.585 248.461 877.689 238.052ZM920.693 274.773C913.769 260.174 896.97 243.949 880.111 242.769C886.98 251.266 910.897 271.585 920.693 274.773Z"/><path fill="#80BFC6" d="M822.175 508.01C833.017 507.702 825.858 513.568 826.401 518.303C836.8 518.478 843.432 524.555 831.139 530.489C826.25 532.849 818.888 533.372 814.2 535.44C806.961 538.634 806.877 542.438 797.907 542.276C795.62 539.498 795.57 537.953 795.416 534.397C791.268 534.632 788.426 534.934 784.335 534.307L783.578 533.81C781.738 532.581 781.421 532.209 781.031 530.306C782.934 524.25 797.554 521.108 803.251 521.862C810.318 515.222 813.332 512.128 822.175 508.01Z"/><path fill="#A6D8DE" d="M822.769 512.453L823.349 513.26C823.067 516.368 821.249 517.134 820.471 520.563C821.809 524.468 828.263 521.537 831.2 524.223C829.431 526.471 815.748 530.197 812.422 532.039C810.986 532.834 801.806 537.396 800.8 537.393L800.906 536.781C800.988 535.783 801.211 533.445 800.643 532.68C798.273 529.483 790.153 530.592 785.281 530.052C792.327 527.252 801.621 525.702 807.621 522.616C811.671 520.534 817.481 515.56 822.128 512.825L822.769 512.453Z"/><path fill="#F6B7CA" d="M971.715 437.179C973.153 437.343 973.054 437.314 974.164 438.249C980.193 450.251 946.526 495.531 935.729 504.253C933.53 506.03 931.154 505.462 928.736 505.095C922.404 510.133 916.489 514.822 909.913 519.52C908.514 520.015 908.005 520.368 906.799 519.682L906.757 518.638C909.311 514.084 920.382 506.217 924.561 502.296C927.103 499.911 929.321 496.571 931.834 494.08C934.437 491.501 935.303 491.878 938.922 491.952C943.536 481.683 950.86 474.884 956.999 465.538C962.244 457.553 966.633 444.557 971.715 437.179Z"/><path fill="#E59896" d="M615.957 271.556C626.366 271 636.717 277.699 641.702 287.099C644.037 291.503 637.703 292.939 634.563 293.264C629.18 293.095 621.304 292.833 616.197 291.677C603.11 288.713 606.831 277.044 615.957 271.556Z"/><path fill="#F9CBD6" d="M616.547 275.47C622.473 275.277 637.289 282.561 636.983 288.811C635.784 289.773 635.796 289.4 633.757 289.288C624.997 288.632 602.136 289.035 616.547 275.47Z"/><path fill="#FBB46D" d="M692.716 469.378C698.413 470.264 697.948 473.235 698.212 477.989C714.104 487.217 704.106 498.342 688.878 497.967C684.533 495.922 684.882 493.67 684.309 489.42C680.817 488.817 678.057 488.823 675.543 486.458C673.79 481.8 681.001 480.392 684.304 479.403C687.055 475.199 688.573 472.303 692.716 469.378ZM679.666 485.069C682.417 485.343 685.172 485.562 687.931 485.726C687.759 488.334 687.162 491.225 688.013 493.47C689.17 494.578 689.247 494.443 690.85 494.823C694.261 494.461 699.334 493.831 701.496 491.057C705.873 485.438 697.894 482.064 694.661 480.452C694.619 478.016 694.818 476.041 693.862 473.84L692.826 473.164C686.785 481.03 689.459 480.328 679.666 485.069Z"/><path fill="#FBB46D" d="M781.897 213.928C786.423 214.62 802.576 220.995 802.29 226.288C801.057 228.191 799.35 229.055 797.43 230.336C797.767 233.365 798.774 235.857 796.548 238.371C794.679 239.369 794.475 239.274 792.276 239.252C790.412 238.32 788.784 236.9 787.129 235.606C780.207 235.432 767.085 231.085 770.817 222.194C773.547 215.691 778.469 220.774 781.897 213.928ZM789.666 231.92C791.791 232.867 791.553 233.218 793.114 232.635C795.371 228.633 793.521 228.81 796.887 225.138C793.596 223.651 788.387 220.196 786.025 219.634L785.922 220.386C784.793 228.108 779.986 225.111 778.759 229.281C780.685 231.445 786.746 230.263 789.666 231.92ZM780.518 225.187L781.824 224.104L781.772 223.156C780.306 221.898 778.772 221.805 776.883 221.945C775.982 223.949 775.723 223.665 776.013 225.458C777.71 226.159 778.591 225.8 780.518 225.187Z"/><path fill="#FBB46D" d="M773.642 342.794C774.492 342.968 775.88 343.3 776.633 343.671C785.486 348.034 794.542 366.187 797.71 374.743C800.767 383.002 800.41 397.413 796.024 405.038C794.812 407.146 793.595 410.094 791.093 410.895L790.36 410.401C789.052 405.908 791.867 399.142 794.77 395.616L795.252 395.037C796.207 387.199 796.501 384.127 794.649 376.504C792.786 370.843 789.872 365.41 786.86 360.286C789.885 370.491 791.836 379.371 790.458 390.047C790.031 393.357 790.018 398.953 786.063 399.926L785.145 399.211C784.03 395.6 786.219 389.551 786.745 385.464C787.948 376.127 785.647 367.808 781.422 359.433C779.413 355.452 774.706 349.031 773.207 344.756C773.352 344.102 773.497 343.448 773.642 342.794Z"/><path fill="#80BFC6" d="M652.893 317.06C655.759 316.863 657.809 316.815 660.429 318.269C665.536 321.103 678.829 335.622 674.969 341.514C672.977 342.356 671.237 342.071 669.034 341.998C664.086 341.085 660.275 340.216 655.836 337.73C646.152 332.306 642.311 324.14 652.893 317.06Z"/><path fill="#A6D8DE" d="M655.006 319.812C655.276 319.858 655.544 319.918 655.808 319.993C659.114 320.95 671.964 335.392 670.749 338.823L669.034 338.781C661.42 336.007 643.108 329.692 655.006 319.812Z"/><path fill="#EC8280" d="M675.833 265.964C676.633 266.257 678.037 266.61 678.372 267.232C682.398 274.7 674.119 290.769 667.945 295.327C665.385 297.216 662.938 297.074 660.716 296.65C647.267 286.488 665.218 269.129 675.833 265.964Z"/><defs><linearGradient id="gradient_1" gradientUnits="userSpaceOnUse" x1="669.29431" y1="270.06601" x2="665.55353" y2="292.918"><stop offset="0" stop-color="#FFC5D4"/><stop offset="1" stop-color="#F5DBDE"/></linearGradient></defs><path fill="url(#gradient_1)" d="M676.122 269.497C677.784 271.167 669.442 290.238 666.479 292.182C664.174 293.695 664.342 293.66 661.641 293.473C655.433 283.835 669.335 274.342 676.122 269.497Z"/><path fill="#FBB46D" d="M703.548 312.515C717.22 312.078 726.483 319.681 737.546 326.575C739.941 328.067 748.415 335.366 745.637 338.242L743.781 338.267C733.619 331.787 726.73 326.85 714.593 326.682C710.565 326.337 703.163 325.929 700.75 322.174C697.707 317.44 699.488 314.996 703.548 312.515ZM726.84 324.854L727.516 324.718C724.854 321.402 712.543 316.237 707.73 315.75C706.686 315.639 705.638 315.566 704.588 315.529C703.043 317.238 703.25 316.527 702.98 318.521C705.284 324.315 720.398 323.366 726.84 324.854Z"/><path fill="#F6B7CA" d="M751.711 534.634C756.479 534.48 771.953 533.181 774.729 536.806C774.205 542.701 754.939 546.524 750.223 547.104C741.396 548.19 721.686 552.402 714.374 547.206C713.413 545.506 713.564 546.387 713.896 544.472C715.15 542.929 715.337 542.919 717.181 542.028C720.76 540.42 730.005 536.995 733.407 539.359L733.307 540.25C730.086 543.397 724.611 544.363 720.176 545.558C741.217 545.243 745.571 544.46 766.044 539.413C761.787 539.589 748.498 540.71 746.249 537.054L746.73 536.073C748.266 534.706 749.52 534.866 751.711 534.634Z"/><path fill="#B28ED6" d="M808.783 422.307C813.318 423.14 817.663 432.117 814.824 436.177C812.894 438.936 807.955 439.804 804.917 440.645C803.556 446.478 803.719 451.35 796.215 449.933C782.359 442.154 789.908 436.067 799.283 429.341C802.433 427.082 805.67 424.635 808.783 422.307Z"/><path fill="#FBB46D" d="M811.485 484.464C813.768 484.409 814.311 484.645 815.696 486.283C817.006 491.855 808.944 497.101 804.541 499.101C796.614 502.702 788.304 504.507 779.845 501.482C773.51 496.124 783.326 486.968 789.392 489.681C790.972 490.388 791.53 492.046 792.195 493.504C799.05 490.956 804.982 487.775 811.485 484.464ZM781.053 497.751C785.512 502.212 812.32 495.832 812.325 487.878L811.946 487.491C807.154 490.079 794.921 498.164 789.621 497.521C788.508 497.386 786.413 495.219 785.535 494.359C783.129 493.913 782.088 495.786 781.053 497.751Z"/><path fill="#9D9C9F" fill-opacity="0.019607844" d="M811.946 487.491L812.325 487.878C812.32 495.832 785.512 502.212 781.053 497.751C782.088 495.786 783.129 493.913 785.535 494.359C786.413 495.219 788.508 497.386 789.621 497.521C794.921 498.164 807.154 490.079 811.946 487.491Z"/><path fill="#F6B7CA" d="M722.34 288.495C734.06 288.182 746.541 294.243 756.1 300.464C758.411 301.968 762.574 305.236 762.496 308.244L761.734 308.871C757.612 308.742 754.76 306.269 751.196 303.98C745.296 300.706 739.048 298.104 732.568 296.222C729.254 300.838 726.686 300.958 720.95 300.254C718.202 299.917 710.905 298.859 709.271 296.709C710.772 293.387 717.813 294.702 719.516 291.305C720.018 290.303 721.44 289.188 722.34 288.495Z"/><path fill="#9976BC" d="M726.643 416.861C732.183 417.473 730.536 420.956 732.113 425.808L732.324 426.439C734.336 427.796 735.717 428.282 736.065 430.746C735.224 432.442 733.443 433.232 731.771 434.249C730.521 436.795 729.804 439.139 727.569 440.631C725.826 441.042 725.425 440.743 723.752 440.138C719.782 436.837 716.449 439.898 713.683 437.469C713.237 433.683 712.961 425.004 713.524 421.31C715.955 419.534 719.047 420.399 721.997 420.82C723.884 418.783 724.335 418.406 726.643 416.861Z"/><path fill="#B28ED6" d="M726.641 421.967C726.907 422.155 727.173 422.342 727.439 422.53C728.423 426.782 728.705 427.481 732.622 429.248C731.09 430.248 729.331 431.245 727.747 432.192C727.373 433.838 727.164 435.442 726.281 436.851C724.584 436.912 724.295 436.212 722.533 434.983C720.628 434.572 719.183 435.307 717.554 434.139L717.541 433.345C717.435 428.568 717.54 428.827 715.8 424.246C721.48 424.619 722.035 425.138 726.641 421.967Z"/><path fill="#F6B7CA" d="M709.339 340.902C713.843 342.215 713.694 343.001 715.607 347.061C718.591 346.97 721.961 346.182 722.95 349.539C722.64 351.819 721.55 353.326 720.409 355.357C721.553 364.652 720.327 364.18 711.377 363.554C708.631 364.739 707.377 365.832 704.653 364.268C703.37 362.299 703.181 359.623 702.774 357.219C700.48 355.553 698.177 354.573 699.167 351.564C700.717 350.006 702.255 349.634 704.317 348.836C705.725 345.438 706.321 342.947 709.339 340.902Z"/><path fill="#F9CBD6" d="M709.925 343.715C715.045 348.048 710.936 348.462 719.911 350.421L716.367 355.961C716.764 357.487 717.356 358.883 716.919 360.321C715.308 360.838 713.49 360.066 711.586 359.619C710.194 360.516 709.137 361.409 707.526 361.628C706.256 360.435 706.273 359.16 705.764 357.236L701.14 353.376C703.282 352.452 705.041 351.488 707.088 350.394C708.012 347.619 708.377 346.269 709.925 343.715Z"/><path fill="#FBB46D" d="M787.838 414.707C789.156 415.386 788.633 414.91 789.407 416.244C789.274 423.194 778.781 435.702 773.046 439.534C771.202 440.766 768.463 439.096 766.799 440.059C761.778 442.964 761.674 445.51 755.743 442.55C755.807 432.707 768.636 420.393 771.725 432.918C778.748 426.457 781.761 421.398 787.838 414.707Z"/><path fill="#80BFC6" d="M782.362 294.142C784.703 294.016 789.399 294.037 791.532 294.844C795.715 296.426 794.005 300.902 793.254 304.009C795.573 306.25 799.739 309.028 798.582 312.213C797.117 313.578 787.967 318.232 785.687 318.657C779.121 308.587 789.663 308.54 788.985 304.34C786.598 305.478 786.355 306.093 784.645 308.253C781.859 304.518 777.029 303.078 776.536 299.073C777.63 296.532 779.939 295.363 782.362 294.142Z"/><path fill="#80BFC6" d="M765.554 451.776C768.33 453.161 768.343 455.791 768.953 458.61L773.55 461.5C772.593 463.308 768.083 472.422 766.281 472.268C761.947 471.895 763.494 470.685 759.52 473.394C757.75 474.076 756.787 474.503 755.079 473.693C754.231 472.154 754.453 470.031 754.452 468.188C752.942 466.613 751.861 466.007 751.266 463.862C751.487 459.02 757.721 457.759 761.164 455.454C762.805 454.355 764.113 453.107 765.554 451.776Z"/><path fill="#A6D8DE" d="M763.573 458.093C763.672 458.194 766.97 462.966 767.006 463.098C765.397 465.071 765.425 464.903 765.05 467.429L764.925 468.247L764.011 468.692C762.154 467.82 762.026 467.742 760.012 468.097L759.623 468.634L758.867 468.505C757.594 466.174 757.025 465.255 755.157 463.377C759.299 461.45 760.231 460.981 763.573 458.093Z"/><path fill="#F6B7CA" d="M951.079 290.793C960.875 292.415 970.257 314.511 973.064 322.859C974.08 325.88 974.282 327.826 973.149 330.771C967.925 328.434 962.767 314.604 959.242 309.361C956.552 305.362 953.832 300.133 951.28 295.919C950.18 294.103 950.411 292.69 951.079 290.793Z"/><path fill="#EED4B0" d="M817.656 392.793C818.276 392.916 819.694 393.02 819.834 393.478C821.361 398.479 820.3 402.986 821.972 408.294C816.253 410.768 812.96 414.209 808.169 416.001C805.337 415.303 803.737 414.42 803.475 411.088C802.922 404.074 811.039 404.025 811.978 402.602C814.083 399.41 813.744 396.833 817.656 392.793ZM808.326 412.565C810.642 411.158 812.359 410.356 813.138 407.73C812.731 406.263 813.114 406.872 811.89 405.878C809.716 406.922 809.071 407.058 807.507 408.789C806.986 410.573 806.895 411.076 808.326 412.565Z"/><path fill="#FCAA9F" d="M755.199 315.254C763.265 316.721 785.254 332.599 782.108 341.503C776.804 339.333 771.137 330.938 766.018 327.643C760.467 324.07 751.74 324.088 755.199 315.254Z"/><path fill="#F6B7CA" d="M718.26 252.094C725.659 251.8 748.963 254.754 750.747 263.17L750.209 263.938L748.393 264.159C742.768 262.079 737.256 260.016 731.301 258.465C726.903 257.32 720.672 258.119 716.452 256.279C715.409 255.824 715.349 255.076 715.225 254.248C716.08 252.848 716.745 252.747 718.26 252.094Z"/><path fill="#80BFC6" d="M657.748 349.175C662.858 349.116 667.909 350.261 672.494 352.516C674.819 353.666 677.632 355.187 678.503 357.696L678.029 358.52C676.513 358.981 675.975 358.885 674.423 358.848C667.748 357.706 664.624 358.08 658.085 357.84C656.285 357.774 654.747 356.775 653.637 355.31C653.145 353.489 653.227 353.544 653.766 351.827C655.051 350.149 655.723 350.06 657.748 349.175Z"/><path fill="#A6D8DE" d="M657.582 353.616C660.905 353.238 663.465 353.283 666.172 355.258C662.273 355.447 660.62 356.012 657.582 353.616Z"/><path fill="#F6B7CA" d="M755.056 279.682C757.418 280.231 757.557 281.077 759.539 281.959C761.456 282.811 764.365 281.77 766.086 283.172C766.589 285.729 765.028 286.373 765.116 288.83C765.198 291.125 766.002 291.41 764.997 293.225L763.623 293.43C761.332 293.432 756.421 294.419 754.859 293.957C748.635 292.113 753.881 282.37 755.056 279.682Z"/><path fill="#F9CBD6" d="M756.94 284.905C761.086 285.092 763.408 288.118 760.355 291.483C757.768 291.018 756.21 291.137 755.165 288.59C755.426 286.775 755.881 286.38 756.94 284.905Z"/><path fill="#E59896" d="M685.419 446.546C689.55 446.241 697.202 446.855 697.815 452.117C697.078 455.036 695.81 455.608 693.219 457.277C684.796 459.468 674.724 452.735 685.419 446.546Z"/><path fill="#F9CBD6" d="M686.634 448.93C689.098 448.997 691.654 449.535 692.918 451.771C692.617 453.503 692.686 452.977 691.169 454.476C688.461 454.608 685.39 454.832 684.462 451.837C684.87 450.268 685.413 450 686.634 448.93Z"/><path fill="#F6B7CA" d="M702.786 524.132C705.734 523.745 707.962 523.552 710.214 525.677C712.05 530.221 708.475 531.473 704.86 532.532C701.119 532.713 696.548 533.199 695.331 528.627C695.967 524.853 699.646 524.556 702.786 524.132Z"/><path fill="#F6B7CA" d="M672.72 504.139C680.406 505.141 684.614 510.918 675.514 513.985C668.388 512.886 663.906 507.775 672.72 504.139Z"/><path fill="#80BFC6" d="M773.362 408.871C779.145 412.538 767.991 420.785 764.042 421.83C761.972 420.515 761.752 420.385 761.755 418.095C763.526 414.185 769.582 410.835 773.362 408.871Z"/><path fill="#FBB46D" d="M746.544 449.491C748.518 449.665 749.693 449.413 749.91 451.575C747.823 455.322 742.344 457.211 738.525 458.668C736.12 458.361 736.541 458.751 734.801 457.496L734.736 456.371C736.701 453.181 743.044 450.741 746.544 449.491Z"/><path fill="#F2A25F" d="M751.709 341.207C756.692 342.145 761.188 346.683 758.479 351.868C757.309 351.964 757.22 351.923 756.04 351.832C752.389 349.487 750.262 345.466 751.709 341.207Z"/><path fill="#F6B7CA" d="M770.735 563.526C773.597 563.273 778.928 563.059 779.581 566.652C778.967 568.166 778.259 568.456 776.917 569.4C773.818 570.114 770.038 570.47 768.667 567.024C768.967 565.067 769.335 564.903 770.735 563.526Z"/><path fill="#F6B7CA" d="M730.449 492.417C732.046 492.485 733.214 492.299 734.361 493.309C734.374 494.958 734.322 494.495 733.233 496.141C731.036 496.025 731.294 496.358 729.671 495.34C729.404 493.425 729.301 494.393 730.449 492.417Z"/><path d="M761.041 883.795C761.801 887.603 762.039 896.475 761.024 900.063C760.416 893.124 760.29 890.738 761.041 883.795Z"/></svg>