<svg xmlns="http://www.w3.org/2000/svg" height="1024" preserveAspectRatio="none" style="display: block;" version="1.1" viewBox="0 0 2048 2048" width="1024">
<path d="M 0 0 L 2048 0 L 2048 2048 L 0 2048 L 0 0 z" fill="rgb(250,249,248)" transform="translate(0,0)"></path>
<path d="M 703.459 399.271 C 704.351 399.2 705.244 399.135 706.137 399.076 C 780.787 394.096 853.088 470.808 896.402 525.03 C 917.209 551.077 942.8 592.701 967.147 614.04 C 994.355 598.354 1024.63 606.801 1055.11 604.898 C 1067.74 604.11 1078.01 607.43 1088.61 614.293 C 1110.2 595.568 1130.31 567.1 1147.63 543.636 C 1189.2 487.968 1239.46 430.393 1305.89 405.006 C 1357.65 385.227 1418.85 413.417 1419.28 473.024 C 1419.42 492.116 1413.57 506.48 1404.8 523.206 C 1434.36 545.327 1496.98 609.649 1487.07 651.945 C 1479.56 684.002 1433.21 706.284 1405.75 721.417 C 1454.25 724.557 1502.17 740.038 1542.74 766.672 C 1609.01 810.165 1642.16 887.191 1634 965.183 C 1629.44 1008.77 1617.4 1043.6 1626.75 1089.51 C 1641.37 1161.26 1697.09 1212.42 1769.97 1220.41 C 1779.15 1221.42 1808.4 1220.47 1812.04 1222.92 C 1812.25 1225.33 1812.36 1225.53 1810.66 1227.42 C 1805.47 1233.19 1798.3 1238.15 1792.44 1243.3 C 1771.72 1261.47 1749.77 1281.97 1738.19 1307.4 C 1715.75 1356.69 1754.97 1403.05 1752.88 1411.41 C 1749.7 1412.5 1745.97 1411.3 1742.79 1410.18 C 1670.73 1384.8 1605.55 1351.45 1556.64 1291.18 C 1502.05 1223.93 1487.56 1141.83 1497.3 1057.93 C 1504.14 999.03 1519.09 939.721 1513.45 879.73 C 1511.54 859.37 1510.15 841.091 1500.86 822.524 C 1493.78 832.808 1484.65 843.123 1476.73 852.775 C 1470.85 859.94 1459 870.751 1455.39 878.484 C 1462.03 885.805 1475.73 896.206 1478 906.319 C 1484.89 937.314 1467.92 968.778 1464.67 998.73 C 1460.87 1033.75 1477.42 1065.56 1431 1079.51 C 1430.8 1105.23 1429.76 1127.44 1431.61 1153.54 C 1438.82 1255.39 1464.68 1362.58 1521.15 1448.82 C 1539.39 1475.09 1566.49 1511.09 1598.64 1520.53 C 1617.82 1526.15 1651.88 1522.72 1664.25 1543.48 C 1667.21 1548.52 1667.92 1554.57 1666.2 1560.15 C 1661.88 1574.52 1643.79 1586 1631.5 1592.98 C 1650.38 1593.8 1752.37 1600.48 1760.43 1611.78 L 1759.81 1613.82 C 1741.1 1628.43 1599.98 1634.26 1568.32 1636.78 C 1534.58 1637.62 1497.15 1640.5 1462.88 1641.86 C 1393.51 1644.46 1324.11 1646.4 1254.69 1647.68 C 981.783 1653.39 708.753 1648.85 436.183 1634.06 C 413.628 1632.62 304.354 1626.63 291.291 1614.08 C 291.042 1612.67 290.544 1612.23 291.603 1611.03 C 301.704 1599.57 394.212 1595.37 414.612 1593.13 C 400.499 1583.78 370.218 1563.5 384.45 1543.06 C 400.61 1519.84 435.514 1528.16 458.175 1517.95 C 475.994 1509.92 491.674 1495.07 504.538 1480.62 C 582.396 1387.05 614.338 1250.72 619.213 1131.66 C 619.846 1116.19 620.359 1095.86 619.357 1080.87 C 601.678 1076.64 592.049 1068.6 589.521 1049.86 C 587.369 1033.9 592.28 1018.84 589.726 1002.61 C 585.029 972.761 571.877 942.936 575.244 912.36 C 576.842 898.51 596.736 884.278 597.621 877.945 C 592.663 869.729 582.464 860.444 576.1 852.748 C 567.972 842.918 560.299 832.856 551.895 823.284 C 543.683 839.63 541.753 856.551 539.399 874.222 C 530.231 944.033 549.624 1014.15 554.689 1083.4 C 563.766 1207.53 502.924 1315.93 392.809 1373.36 C 378.97 1380.58 308.263 1415.29 296.94 1412.04 C 296.041 1405.77 306.543 1392.87 309.253 1386.13 C 322.508 1353.14 322.878 1323.12 303.59 1292.38 C 286.442 1265.04 262.756 1248.64 240.033 1226.73 C 239.328 1223.71 239.128 1225.09 240.554 1222.43 C 247.294 1221.03 266.722 1221.25 274.238 1220.83 C 377.048 1215.05 441.594 1127.16 427.246 1027.28 C 425.175 1004.91 419.118 982.508 417.714 960.089 C 408.548 813.741 517.233 731.767 650.59 721.246 C 621.337 708.287 568.204 680.084 567.313 641.327 C 567.56 621.422 579.317 604.034 589.246 588.332 C 606.707 560.719 629.05 543.21 651.497 520.806 C 627.766 476.456 633.161 428.835 683.375 404.958 C 689.855 401.876 696.428 400.617 703.459 399.271 z" fill="rgb(9,8,8)" transform="translate(0,0)"></path>
<path d="M 922.098 1209.45 C 922.228 1195.82 922.133 1182.19 921.811 1168.57 C 921.025 1143.91 914.842 1116.41 934.756 1097.89 C 959.427 1074.95 1002.48 1076.57 1034.36 1075.96 C 1058.13 1076.27 1101.31 1079.44 1117.82 1098.11 C 1136.27 1118.97 1130.57 1151.63 1130.39 1177.36 C 1130.27 1195.25 1129.79 1209.68 1131.05 1227.64 L 1133.02 1221.37 C 1132.21 1195.66 1137.07 1167.17 1137.01 1141.54 C 1136.94 1113.76 1162.85 1083.26 1189.71 1078.31 C 1219.84 1072.75 1281.38 1082.08 1295.55 1113.82 C 1301.69 1127.55 1302.78 1158.57 1304.71 1174.74 C 1306.62 1190.27 1309.13 1205.73 1312.22 1221.07 L 1314.56 1220.93 C 1309.46 1195.33 1305.31 1156.31 1306.85 1129.95 C 1307.32 1121.84 1315.15 1103.39 1319.66 1096.17 C 1325.06 1087.54 1335.62 1081.43 1345.89 1079.99 C 1364.4 1077.39 1392.26 1081.88 1407.54 1093.26 C 1414.13 1098.17 1418.89 1104.25 1422.85 1111.21 C 1424.68 1245.3 1461.09 1408.86 1559.55 1506.12 C 1521.59 1504.98 1520.96 1503.1 1485.93 1484.39 C 1497.74 1483.78 1500.78 1483.05 1511.78 1478.69 C 1495.79 1477.58 1491.23 1482.52 1470.42 1477.53 C 1467.39 1474.88 1464.02 1471.78 1460.93 1469.29 C 1477.19 1473.14 1483.94 1474.96 1500.45 1472.11 C 1490.35 1469.43 1477.25 1469.84 1467.52 1465.82 C 1392.63 1434.87 1347.55 1343.78 1326.21 1270.32 L 1324.61 1271.38 C 1345.47 1356.85 1384.43 1440.6 1462.57 1487.99 C 1488.06 1503.29 1515.66 1514.79 1544.49 1522.12 C 1555.38 1524.98 1566.47 1527.03 1577.66 1528.24 C 1591.33 1529.6 1679.32 1528.28 1655.86 1564.68 C 1638.38 1591.79 1581.59 1607.33 1551.23 1613.78 C 1460.57 1628.36 1342.37 1616.94 1264.51 1566.07 C 1195.82 1521.2 1160.96 1426.5 1145.88 1350.26 C 1141.55 1327.8 1138.17 1305.17 1135.73 1282.43 C 1133.29 1282.56 1134.02 1287.12 1133.8 1289.42 C 1134.42 1337.74 1147.49 1402.99 1160.48 1449.65 C 1169.54 1482.2 1186.67 1531.08 1189.83 1563.4 C 1175.66 1595.45 1133.71 1617.84 1100.75 1623.02 C 1027.82 1634.48 899.948 1639.83 860.933 1563.23 C 864.718 1532.02 880.65 1487.07 889.016 1455.7 C 904.561 1399.37 914.462 1341.64 918.571 1283.35 C 917.886 1280.42 917.93 1280.53 916.334 1278.02 C 913.483 1302.45 909.694 1326.46 904.397 1350.47 C 886.682 1430.8 854.322 1523.4 781.248 1569.49 C 706.447 1616.66 566.304 1631.14 481.06 1611.16 C 454.117 1604.85 406.445 1589.16 391.539 1563.52 C 389.288 1559.65 387.974 1555.08 389.321 1550.67 C 395.84 1529.34 443.695 1530.4 460.724 1529.11 C 472.118 1528.25 483.523 1526.94 494.689 1524.47 C 522.907 1518.21 553.052 1507.44 578.052 1492.9 C 661.652 1444.29 701.5 1362.06 725.486 1272.17 L 722.917 1273.96 C 702.696 1340.35 657.608 1426.02 594.683 1460.26 C 585.668 1465.17 570.857 1470.35 560.531 1470.07 L 550.944 1471.95 C 566.296 1475.15 573.436 1472.99 588.27 1469.96 L 587.469 1470.59 L 586.121 1471.64 C 561.808 1490.66 546.562 1474.05 535.121 1476.82 C 539.278 1482.28 555.924 1484.26 562.516 1485.1 C 551.623 1491.91 527.529 1505.04 515.122 1506.24 C 507.838 1506.94 497.052 1506.95 488.523 1507.83 L 491.198 1505.22 C 587.672 1410.41 625.83 1242.13 627.011 1111.11 C 638.76 1092.6 646.052 1087.35 666.086 1082.09 C 730.936 1065.1 749.156 1110.63 741.515 1165.73 C 739.238 1182.15 737.884 1201.27 734.483 1218.64 L 736.351 1220.19 C 740.67 1202 743.887 1183.57 745.985 1164.99 C 747.401 1152.21 747.54 1135.16 751.078 1123.43 C 763.218 1087.25 796.325 1079.79 828.688 1078.12 C 884.426 1075.25 913.387 1099.59 915.796 1155.11 C 916.576 1173.07 918.608 1195.32 919.16 1214.6 L 919.493 1214.15 C 921.168 1211.97 921.36 1211.99 922.098 1209.45 z" fill="rgb(235,218,203)" transform="translate(0,0)"></path>
<path d="M 922.098 1209.45 C 922.132 1212.68 921.171 1238.83 920.279 1239.61 L 920.152 1239.6 C 918.791 1237.98 918.855 1217.64 919.16 1214.6 L 919.493 1214.15 C 921.168 1211.97 921.36 1211.99 922.098 1209.45 z" fill="rgb(76,68,65)" transform="translate(0,0)"></path>
<path d="M 916.334 1278.02 C 916.49 1275.6 917.782 1258.78 918.56 1257.49 L 918.948 1257.3 C 920.319 1258.19 919.075 1280.39 918.571 1283.35 C 917.886 1280.42 917.93 1280.53 916.334 1278.02 z" fill="rgb(76,68,65)" transform="translate(0,0)"></path>
<path d="M 722.917 1273.96 L 724.686 1266.98 C 725.183 1264.9 727.713 1251.6 729.354 1251.08 C 730.368 1252.04 726.325 1269.9 725.486 1272.17 L 722.917 1273.96 z" fill="rgb(106,90,84)" transform="translate(0,0)"></path>
<path d="M 1132.89 1263.83 C 1133.61 1266.42 1134.27 1268.59 1135.12 1271.13 C 1134.92 1275.95 1135.59 1277.99 1135.73 1282.43 C 1133.29 1282.56 1134.02 1287.12 1133.8 1289.42 C 1132.54 1280.94 1133.11 1272.42 1132.89 1263.83 z" fill="rgb(48,35,31)" transform="translate(0,0)"></path>
<path d="M 1324.61 1271.38 C 1323.07 1266.16 1321.82 1260.87 1320.87 1255.52 C 1320.88 1255.58 1319.41 1250 1321.44 1251.34 C 1321.62 1251.46 1323.03 1257.8 1323.2 1258.47 L 1324.31 1262.43 C 1325.15 1265.45 1325.89 1267.15 1326.21 1270.32 L 1324.61 1271.38 z" fill="rgb(106,90,84)" transform="translate(0,0)"></path>
<path d="M 1133.02 1221.37 C 1133.07 1224.73 1133.25 1238.68 1132.5 1241.55 C 1130.85 1239.9 1131.36 1237.94 1131.11 1235.5 C 1130.86 1232.89 1130.84 1230.26 1131.05 1227.64 L 1133.02 1221.37 z" fill="rgb(106,90,84)" transform="translate(0,0)"></path>
<path d="M 734.483 1218.64 L 736.351 1220.19 C 736.07 1222.35 735.718 1224.4 735.156 1226.51 C 734.968 1227.22 733.578 1236.01 732.409 1235.65 C 731.506 1234.36 734.041 1221.01 734.483 1218.64 z" fill="rgb(76,68,65)" transform="translate(0,0)"></path>
<path d="M 1312.22 1221.07 L 1314.56 1220.93 C 1315.14 1224.11 1315.5 1227.35 1316.25 1230.5 C 1316.21 1230.32 1317.73 1235.65 1315.68 1234.75 C 1315.24 1234.55 1315.02 1233.56 1314.92 1233.08 C 1314.03 1229.08 1312.89 1225.13 1312.22 1221.07 z" fill="rgb(76,68,65)" transform="translate(0,0)"></path>
<path d="M 1132.89 1263.83 C 1132.6 1261.38 1132.51 1261.58 1132.9 1259.28 L 1133.19 1259.38 L 1133.23 1259.17 L 1133.34 1259.13 C 1134.76 1259.99 1135.11 1269.35 1135.12 1271.13 C 1134.27 1268.59 1133.61 1266.42 1132.89 1263.83 z" fill="rgb(144,134,128)" transform="translate(0,0)"></path>
<path d="M 550.944 1471.95 C 550.501 1471.93 548.946 1472.02 548.506 1471.56 C 548.875 1469.4 558.724 1470.03 560.531 1470.07 L 550.944 1471.95 z" fill="rgb(106,90,84)" transform="translate(0,0)"></path>
<path d="M 1297.28 1385.73 C 1304.8 1410.88 1296.11 1416 1326.51 1421.83 L 1338.38 1424.21 C 1328.21 1425.58 1316.2 1425.95 1307.61 1432.13 C 1299.01 1438.3 1300.3 1450.19 1297.4 1458.41 L 1296.73 1460.28 C 1288.06 1427.44 1290.36 1431.2 1257.3 1424.23 C 1266.36 1422.41 1278.18 1419.88 1286.39 1415.75 C 1293.21 1412.33 1295.07 1392.83 1297.28 1385.73 z" fill="rgb(238,129,99)" transform="translate(0,0)"></path>
<path d="M 705.96 1471.58 C 709.271 1479.23 709.115 1490.54 712.851 1496.98 C 717.009 1504.15 738.233 1507.51 745.768 1509.37 C 716.602 1515.19 712.328 1511.45 706.355 1543.49 C 705.957 1542.48 705.36 1541.08 705.187 1539.99 C 701.189 1514.99 690.67 1512.45 666.914 1509.08 C 702.736 1500.4 697.05 1505.75 705.96 1471.58 z" fill="rgb(226,156,56)" transform="translate(0,0)"></path>
<path d="M 1318.47 1479.8 C 1320.17 1481.77 1320.76 1489.13 1323.21 1493.01 C 1328.77 1501.8 1333.64 1501.95 1342.7 1504.81 C 1337.29 1506.39 1333.46 1507.68 1328.29 1509.92 C 1322.29 1518.77 1323.08 1521.3 1318.79 1528.63 C 1309.01 1508.49 1315.65 1509.59 1292.33 1504.53 C 1312.54 1499.75 1313.29 1501.42 1318.47 1479.8 z" fill="rgb(250,249,248)" transform="translate(0,0)"></path>
<path d="M 665.199 1233.94 C 666.633 1238.65 670.466 1245.42 673.1 1249.48 C 679.045 1252.52 683.429 1253.56 689.801 1255.27 C 683.255 1257.43 678.293 1258.95 672.075 1262.03 C 669.04 1268.26 668.755 1270.74 666.512 1277.08 C 663.433 1269.61 663.615 1268.52 659.2 1260.92 L 657.627 1260.25 C 653.006 1258.23 647.438 1256.34 642.631 1254.59 C 647.565 1252.72 652.646 1251.11 657.347 1248.69 L 658.971 1247.89 C 661.174 1244.26 663.014 1241.69 664.198 1237.51 L 665.199 1233.94 z" fill="rgb(250,249,248)" transform="translate(0,0)"></path>
<path d="M 987.598 1414.81 C 988.976 1417.2 991.155 1425.59 992.53 1429.02 L 993.208 1429.38 C 998.827 1432.39 1004.76 1434.5 1010.73 1436.74 C 989.499 1444.64 995.307 1440.71 987.772 1459.89 C 984.125 1442.09 981.624 1440.01 965.033 1437.42 C 972.953 1434.59 975.35 1434.02 982.217 1429.41 C 984.798 1423.83 985.722 1420.49 987.598 1414.81 z" fill="rgb(250,249,248)" transform="translate(0,0)"></path>
<path d="M 869.286 1250.72 C 873.888 1268.97 872.856 1267.48 890.964 1273.88 C 884.602 1275.79 880.897 1276.89 875.12 1280.27 C 873.132 1283.89 869.775 1294 868.399 1295.28 C 861.558 1276.31 864.286 1279.06 844.794 1274.41 C 851.71 1272.44 855.533 1271.44 861.847 1267.96 C 866.103 1260.62 865.836 1260.07 868.577 1252.6 L 869.286 1250.72 z" fill="rgb(250,249,248)" transform="translate(0,0)"></path>
<path d="M 1242.37 1182.75 C 1244.14 1184.87 1245.3 1191.31 1246.26 1194.4 C 1253.67 1197.7 1253.91 1197.36 1261.73 1199.41 C 1256.2 1201.52 1246.44 1203.44 1245.03 1209.97 L 1244.24 1213.67 C 1244.17 1214.06 1244.1 1214.45 1244.02 1214.83 L 1243.66 1216.58 C 1241.69 1217.08 1241.33 1215.3 1241.12 1213.52 C 1239.93 1203.1 1233.73 1202.8 1224.29 1199.64 C 1228.78 1198.27 1234.38 1196.59 1238.68 1194.82 C 1240.18 1190.69 1241.02 1186.85 1242.37 1182.75 z" fill="rgb(226,156,56)" transform="translate(0,0)"></path>
<path d="M 768.147 1283.61 C 769.314 1286.66 770.291 1289.77 771.447 1292.83 C 776.17 1296.09 778.707 1297.51 783.852 1300.34 C 772.025 1305.55 773.561 1303.64 768.683 1316.17 C 763.42 1305.62 763.978 1305.79 753.472 1299.2 C 764.97 1293.34 764.735 1295.34 768.147 1283.61 z" fill="rgb(225,82,78)" transform="translate(0,0)"></path>
<path d="M 818.974 1154.56 C 826.97 1164.63 816.122 1166.43 835.915 1171.85 C 829.238 1175 822.598 1176.48 821.466 1184.22 C 821.1 1186.72 821.116 1187.58 818.722 1187.71 C 817.778 1183.44 816.701 1180.31 815.388 1176.24 C 809.994 1174.45 805.247 1173.36 799.722 1172.1 C 803.6 1171.13 807.663 1170.12 811.508 1169.07 L 814.56 1168.23 C 815.852 1164.87 817 1161.46 817.999 1158 L 818.974 1154.56 z" fill="rgb(226,156,56)" transform="translate(0,0)"></path>
<path d="M 663.05 1112.55 C 666.917 1116.33 664.607 1121.23 669.408 1125.2 C 670.839 1126.38 680.841 1128.31 675.065 1130.29 C 664.869 1133.79 666.762 1139 663.571 1146.24 C 656.796 1132.18 664.22 1134.63 646.974 1128.74 C 650.971 1127.41 655.105 1126.38 658.997 1125.02 C 660.395 1120.33 661.248 1117.15 663.05 1112.55 z" fill="rgb(242,185,153)" transform="translate(0,0)"></path>
<path d="M 1487.4 1563.43 C 1488.55 1567.28 1489.78 1571.37 1490.86 1575.24 L 1494.28 1576.45 C 1497.11 1577.43 1497.53 1577.51 1500.17 1578.85 C 1500.16 1578.85 1503.23 1579.45 1502.49 1580.28 C 1501.63 1581.24 1498.83 1581.39 1497.8 1581.58 C 1490.62 1582.86 1489.73 1588.81 1486.43 1594.95 C 1484.24 1589.13 1483.31 1582.97 1476.62 1580.73 C 1475.9 1580.5 1473.81 1579.94 1473.79 1578.93 C 1474.45 1578.07 1479.83 1576.06 1481.05 1575.5 L 1482.45 1574.85 C 1484.23 1571 1485.76 1567.32 1487.4 1563.43 z" fill="rgb(226,156,56)" transform="translate(0,0)"></path>
<path d="M 1370.32 1161.02 C 1375.35 1159.66 1379.17 1160.07 1381.76 1154.91 C 1381.79 1155.15 1385.82 1147.22 1386.08 1148.25 C 1387.92 1155.64 1387.08 1159.55 1396.58 1161.13 C 1400.83 1161.84 1389.26 1166.46 1386.75 1173.88 C 1385.52 1178.14 1384.41 1179.76 1384.13 1174.07 C 1380.83 1166.12 1377.76 1165.48 1370.32 1161.02 z" fill="rgb(225,82,78)" transform="translate(0,0)"></path>
<path d="M 1384.13 1174.07 L 1386.75 1173.88 C 1385.52 1178.14 1384.41 1179.76 1384.13 1174.07 z" fill="rgb(238,129,99)" transform="translate(0,0)"></path>
<path d="M 1199.2 1288.7 C 1201.21 1291.87 1202.27 1296.52 1203.72 1300.21 C 1204.72 1300.65 1212.95 1303.88 1213.06 1304.23 C 1213.52 1305.68 1208.29 1305.75 1206.85 1306.74 C 1202.11 1310.01 1201.27 1315.29 1200.26 1320.58 C 1196.15 1312.28 1198.17 1306.75 1185.99 1305.17 C 1185.56 1305.11 1185.25 1304.92 1185.05 1304.54 C 1185.53 1303.97 1188.39 1302.91 1188.92 1302.72 C 1196.1 1300.14 1196.61 1295.06 1199.2 1288.7 z" fill="rgb(225,82,78)" transform="translate(0,0)"></path>
<path d="M 1447.85 1389.84 L 1448.12 1388.65 C 1449.58 1385.87 1449.76 1387.89 1450.34 1390.28 C 1450.54 1391.06 1450.74 1391.85 1450.95 1392.63 C 1451.14 1399.06 1456.89 1400.16 1461.71 1402.66 L 1460.22 1403.37 C 1450.37 1408.19 1450.23 1406.69 1449.35 1417.1 C 1449.31 1417.56 1449.01 1417.83 1448.62 1418.03 C 1448.07 1417.69 1447.35 1415.96 1447.26 1415.45 C 1445 1403.02 1438.46 1406.63 1433.65 1403.09 C 1434.35 1401.51 1441.67 1400.25 1443.66 1399.68 C 1445.07 1396.4 1446.36 1393.07 1447.85 1389.84 z" fill="rgb(225,82,78)" transform="translate(0,0)"></path>
<path d="M 1447.85 1389.84 L 1448.12 1388.65 C 1449.58 1385.87 1449.76 1387.89 1450.34 1390.28 C 1450.54 1391.06 1450.74 1391.85 1450.95 1392.63 C 1449.91 1391.7 1448.87 1390.8 1447.85 1389.84 z" fill="rgb(250,87,97)" transform="translate(0,0)"></path>
<path d="M 916.818 1546.45 C 919.284 1549.4 919.026 1550.51 920.663 1554.2 L 922.196 1557.65 C 924.2 1558.66 928.815 1560.32 930.126 1561.18 C 932.134 1562.5 923.546 1564.59 922.428 1565.45 C 919.49 1567.7 918.789 1573.44 918.087 1576.63 C 915.922 1570.79 914.077 1563.89 907.393 1562.37 C 906.462 1562.16 904.217 1561.91 904.387 1560.72 C 910.098 1555.42 911.993 1564.35 916.818 1546.45 z" fill="rgb(235,56,65)" transform="translate(0,0)"></path>
<path d="M 966.298 1170.6 C 968.645 1172.64 969.495 1179.39 970.583 1182.98 C 972.504 1183.8 977.001 1185.11 978.42 1186.7 C 978.717 1187.31 977.352 1187.9 977.129 1187.9 C 970.848 1187.93 968.721 1197.95 967.421 1201.22 C 963.78 1197.55 965.735 1190.33 958.474 1188.02 C 952.729 1186.2 956.228 1185.54 958.989 1184.19 C 963.751 1181.85 964.857 1175.12 966.298 1170.6 z" fill="rgb(250,249,248)" transform="translate(0,0)"></path>
<path d="M 1056.34 1560.73 C 1065.38 1571.75 1050.22 1568.15 1072.37 1574.68 C 1059.03 1578.82 1062.08 1575.31 1057.23 1588.37 C 1055.88 1587.26 1055.63 1587.09 1055 1585.52 C 1051.92 1577.93 1051.06 1578.3 1044.12 1575.3 C 1043.88 1575.19 1043.92 1575.01 1043.89 1574.63 C 1044.82 1573.35 1050.53 1571.4 1052.23 1570.65 L 1052.41 1570.26 C 1053.7 1567.51 1054.48 1565.41 1055.59 1562.6 L 1056.34 1560.73 z" fill="rgb(226,156,56)" transform="translate(0,0)"></path>
<path d="M 1368.61 1224.65 C 1370.53 1226.47 1371.1 1229.63 1371.6 1232.17 C 1372.45 1236.47 1379.08 1236.82 1379.81 1238.47 C 1379.2 1239.81 1370.7 1243.4 1370.54 1248.05 C 1370.48 1249.71 1369.35 1251.13 1367.85 1252.03 C 1365.61 1246.3 1364.54 1241.01 1357.53 1240.01 C 1353.07 1239.37 1353.59 1237.9 1357.53 1237.23 C 1366.27 1235.74 1365.84 1232.23 1368.61 1224.65 z" fill="rgb(242,185,153)" transform="translate(0,0)"></path>
<path d="M 1024.27 1118.7 C 1025.22 1121.64 1026.11 1124.6 1027.23 1127.47 L 1027.92 1129.37 C 1029.71 1130.06 1035.57 1131.45 1036.65 1132.79 C 1037.48 1133.82 1033.07 1135.07 1032.6 1135.25 C 1027.97 1137.06 1026.67 1140.65 1024.87 1144.8 C 1020.41 1135.53 1020.51 1137.37 1010.4 1132.52 C 1022.54 1129.55 1019.01 1130 1024.27 1118.7 z" fill="rgb(225,82,78)" transform="translate(0,0)"></path>
<path d="M 780.001 1463.46 C 783.595 1463.03 786.905 1465.46 787.565 1469.02 C 788.226 1472.58 786.009 1476.04 782.5 1476.93 C 780.02 1477.56 777.397 1476.75 775.695 1474.84 C 773.992 1472.94 773.491 1470.24 774.396 1467.85 C 775.301 1465.45 777.461 1463.76 780.001 1463.46 z" fill="rgb(250,249,248)" transform="translate(0,0)"></path>
<path d="M 1404.33 1543.43 C 1407.63 1542.27 1411.26 1543.88 1412.61 1547.11 C 1413.95 1550.34 1412.54 1554.05 1409.4 1555.58 C 1407.2 1556.64 1404.59 1556.4 1402.62 1554.96 C 1400.65 1553.51 1399.65 1551.1 1400 1548.68 C 1400.36 1546.26 1402.03 1544.24 1404.33 1543.43 z" fill="rgb(235,56,65)" transform="translate(0,0)"></path>
<path d="M 1398.25 1319.35 C 1401.54 1321.87 1403.57 1325.48 1407.52 1327.53 C 1410.36 1329 1402.11 1333.31 1399.71 1335.77 C 1399.48 1335.99 1399.24 1336.21 1399.01 1336.43 C 1398.65 1335.99 1398.29 1335.54 1397.93 1335.1 C 1396.57 1331.11 1394.2 1331.27 1391.5 1328.99 C 1390.82 1328.4 1391.72 1327.38 1392.4 1327.14 C 1396.21 1325.76 1397.01 1322.63 1398.25 1319.35 z" fill="rgb(250,249,248)" transform="translate(0,0)"></path>
<path d="M 801.329 1375.68 C 801.945 1376.27 802.553 1376.77 802.793 1377.53 C 803.829 1381.63 807.026 1382.15 809.568 1384.77 C 811.274 1386.53 802.097 1388.89 802.935 1392.23 C 802.957 1392.31 801.957 1395.42 802.091 1394.98 C 798.832 1391.74 803.395 1390.35 794.356 1384.8 L 794.406 1384.43 C 798.364 1381.57 799.157 1379.99 801.329 1375.68 z" fill="rgb(250,249,248)" transform="translate(0,0)"></path>
<path d="M 1004.09 1225.87 C 1018.37 1246.15 1011.09 1225.33 1004.78 1245.37 C 1003.56 1241.65 1003.67 1237.63 999.208 1236.61 C 992.56 1235.1 1000.55 1233.77 1004.09 1225.87 z" fill="rgb(250,249,248)" transform="translate(0,0)"></path>
<path d="M 450.449 1558.58 C 454.476 1560.09 475.638 1582.08 481.389 1587.13 C 472.024 1584.26 454.159 1568.2 450.449 1558.58 z" fill="rgb(9,8,8)" transform="translate(0,0)"></path>
<path d="M 636.439 1337.63 C 638.992 1336.1 642.289 1336.74 644.081 1339.12 C 645.874 1341.49 645.584 1344.84 643.409 1346.87 C 641.783 1348.4 639.43 1348.85 637.351 1348.06 C 635.271 1347.26 633.828 1345.35 633.634 1343.13 C 633.44 1340.91 634.529 1338.77 636.439 1337.63 z" fill="rgb(226,156,56)" transform="translate(0,0)"></path>
<path d="M 1573.08 1581.99 C 1573.61 1581.64 1574.15 1581.28 1574.69 1580.92 C 1582.93 1575.28 1589.94 1568.02 1595.3 1559.58 C 1597.82 1555.6 1599.2 1558.23 1598.74 1559.42 C 1594.3 1570.88 1582.15 1577.87 1572.95 1584.63 L 1573.08 1581.99 z" fill="rgb(9,8,8)" transform="translate(0,0)"></path>
<path d="M 437.757 1548.54 C 441.863 1551.6 440.462 1554.37 443.538 1559.74 C 446.663 1565.2 451.129 1568.61 454.014 1573.05 C 444.728 1568.84 435.525 1559.51 437.757 1548.54 z" fill="rgb(9,8,8)" transform="translate(0,0)"></path>
<path d="M 1278.66 1307.65 C 1281.17 1306.31 1284.29 1307.26 1285.63 1309.77 C 1286.97 1312.28 1286.01 1315.39 1283.5 1316.73 C 1280.99 1318.06 1277.88 1317.11 1276.55 1314.6 C 1275.21 1312.1 1276.16 1308.98 1278.66 1307.65 z" fill="rgb(226,156,56)" transform="translate(0,0)"></path>
<path d="M 964.616 1518.37 C 966.205 1517.45 968.166 1517.46 969.75 1518.39 C 971.333 1519.32 972.293 1521.03 972.262 1522.87 C 972.231 1524.7 971.214 1526.38 969.6 1527.26 C 967.152 1528.59 964.09 1527.7 962.727 1525.28 C 961.363 1522.85 962.205 1519.77 964.616 1518.37 z" fill="rgb(226,156,56)" transform="translate(0,0)"></path>
<path d="M 577.606 1424.27 C 579.148 1423.37 581.059 1423.4 582.576 1424.34 C 584.093 1425.28 584.968 1426.98 584.851 1428.76 C 584.734 1430.54 583.645 1432.11 582.018 1432.84 C 579.677 1433.9 576.92 1432.93 575.745 1430.65 C 574.57 1428.37 575.388 1425.56 577.606 1424.27 z" fill="rgb(235,56,65)" transform="translate(0,0)"></path>
<path d="M 1611.53 1548.6 C 1618.27 1555.03 1604.09 1567.67 1599.46 1571.09 C 1598.43 1570.4 1598.14 1570.19 1599.13 1569.18 C 1605.92 1562.27 1608.8 1557.7 1611.53 1548.6 z" fill="rgb(9,8,8)" transform="translate(0,0)"></path>
<path d="M 827.385 1447.63 C 828.621 1446.63 830.309 1446.4 831.769 1447.03 C 833.229 1447.66 834.221 1449.04 834.344 1450.63 C 834.468 1452.21 833.703 1453.74 832.359 1454.58 C 830.441 1455.79 827.914 1455.3 826.596 1453.45 C 825.277 1451.61 825.623 1449.06 827.385 1447.63 z" fill="rgb(235,56,65)" transform="translate(0,0)"></path>
<path d="M 1249.5 1377.67 C 1251.69 1377.35 1253.76 1378.76 1254.27 1380.91 C 1254.78 1383.07 1253.55 1385.25 1251.45 1385.94 C 1249.92 1386.45 1248.23 1386.05 1247.09 1384.91 C 1245.95 1383.76 1245.56 1382.07 1246.06 1380.54 C 1246.57 1379.01 1247.9 1377.9 1249.5 1377.67 z" fill="rgb(225,82,78)" transform="translate(0,0)"></path>
<path d="M 597.742 1524.9 C 598.918 1524.22 600.37 1524.23 601.536 1524.93 C 602.702 1525.63 603.4 1526.9 603.361 1528.26 C 603.322 1529.61 602.551 1530.84 601.347 1531.47 C 599.539 1532.42 597.308 1531.74 596.327 1529.95 C 595.346 1528.16 595.975 1525.92 597.742 1524.9 z" fill="rgb(238,129,99)" transform="translate(0,0)"></path>
<path d="M 1573.08 1581.99 L 1572.95 1584.63 C 1572.29 1584.97 1570.17 1586.54 1569.36 1585.81 C 1569.23 1584.32 1572.08 1582.73 1573.08 1581.99 z" fill="rgb(144,134,128)" transform="translate(0,0)"></path>
<path d="M 595.111 1037.87 C 596.513 1021.81 596.709 1012.26 594.701 996.49 C 591.191 968.935 566.759 915.731 591.861 894.6 C 597.765 889.63 600.434 889.094 607.693 888.756 C 629.735 887.73 651.898 887.867 673.956 887.594 C 727.37 886.901 780.791 886.88 834.206 887.533 L 1123.48 887.608 L 1334.75 886.987 C 1369.12 886.929 1422.18 885.707 1455.49 889.057 L 1457.26 889.24 C 1491.96 915.8 1462.67 963.391 1458.93 998.229 C 1457.32 1013.18 1459.9 1027.87 1458.47 1041.45 C 1457.46 1048.62 1451.67 1065.49 1443.41 1066.54 C 1423.12 1069.12 1401.38 1068.5 1380.87 1068.59 L 1213.46 1068.09 L 770.654 1068.2 C 722.446 1068.02 674.191 1067.92 625.99 1067.7 C 616.508 1067.65 608.547 1067.77 601.82 1060.21 C 596.126 1053.81 594.95 1046.14 595.111 1037.87 z" fill="rgb(235,56,65)" transform="translate(0,0)"></path>
<path d="M 1440.07 1061.78 C 1455.24 1051.21 1454.27 1037.48 1457.51 1035.48 C 1457.87 1037.52 1458.21 1039.39 1458.47 1041.45 C 1457.46 1048.62 1451.67 1065.49 1443.41 1066.54 C 1423.12 1069.12 1401.38 1068.5 1380.87 1068.59 L 1213.46 1068.09 L 770.654 1068.2 C 722.446 1068.02 674.191 1067.92 625.99 1067.7 C 616.508 1067.65 608.547 1067.77 601.82 1060.21 C 596.126 1053.81 594.95 1046.14 595.111 1037.87 C 602.106 1041.84 601.927 1053.25 615.469 1061.84 L 932.167 1063.24 L 1101.35 1062.03 L 1295.21 1062.24 C 1339.9 1062.52 1396.1 1064.09 1440.07 1061.78 z" fill="rgb(250,87,97)" transform="translate(0,0)"></path>
<path d="M 659.642 899.431 C 661.186 899.304 662.734 899.223 664.283 899.19 C 671.228 899.085 682.907 898.281 687.521 902.784 L 687.272 904.254 C 677.397 909.463 635.505 905.121 617.214 917.767 C 611.54 921.711 607.691 927.771 606.534 934.583 C 604.713 945.758 613.463 963.708 616.753 976.779 C 620.696 992.447 615.651 1020.46 622.054 1030.23 C 628.845 1040.6 666.806 1038.25 680.61 1039.88 L 682.014 1040.05 C 687.307 1040.55 688.997 1040.21 692.485 1043.83 L 691.842 1045.53 C 685.421 1048.99 672.919 1048.78 665.79 1048.97 C 649.954 1049.89 615.802 1048.25 613.384 1027.14 C 610.464 1001.65 613.745 982.214 604.067 956.716 C 586.324 909.967 621.002 902.192 659.642 899.431 z" fill="rgb(250,249,248)" transform="translate(0,0)"></path>
<path d="M 840.498 937.969 C 840.599 938.551 840.7 939.133 840.801 939.716 C 841.005 941.689 841.462 943.583 841.818 945.514 C 842.821 950.956 844.376 957.089 847.268 961.847 C 847.63 962.42 847.993 962.993 848.355 963.567 C 848.623 964.038 848.891 964.51 849.16 964.982 C 859.102 970.273 863.288 970.497 873.901 973.039 C 847.536 977.798 846.34 979.527 840.252 1006.67 C 836.966 1001.12 833.508 987.302 831.157 980.274 C 822.48 976.862 814.857 974.913 805.805 973.041 C 824.681 968.548 832.838 969.005 837.832 948.484 L 838.803 944.413 C 839.386 941.874 839.718 940.505 840.498 937.969 z" fill="rgb(238,129,99)" transform="translate(0,0)"></path>
<path d="M 1433.7 899.823 C 1454.94 908.149 1460.99 932.842 1453.81 951.693 C 1446.02 972.164 1448.56 1005.59 1441.84 1023.59 C 1426.42 1014.59 1455.24 945.005 1448.54 928.245 C 1445.52 920.695 1445.65 918.542 1438.93 912.087 C 1432.82 906.207 1429.49 906.957 1433.7 899.823 z" fill="rgb(250,249,248)" transform="translate(0,0)"></path>
<path d="M 1351.57 916.807 C 1352.91 918.251 1356.39 933.424 1358.61 938.016 C 1365.85 940.981 1371.79 942.568 1379.24 944.881 C 1358.2 950.748 1359.28 947.105 1352.12 969.057 C 1350.97 969.979 1350.64 969.461 1350.29 968.027 L 1349.31 963.967 C 1345.39 947.956 1340.85 947.683 1324.98 945.282 C 1346.52 939.987 1347 938.957 1351.57 916.807 z" fill="rgb(238,129,99)" transform="translate(0,0)"></path>
<path d="M 991.052 990.509 C 993.727 995.879 994.262 1001.68 1000.85 1003.49 C 1003.89 1004.32 1005.65 1005.84 1001.58 1007.17 C 994.71 1009.43 993.343 1016.1 990.93 1021.61 C 987.697 1007.91 978.623 1006.42 978.517 1005.52 C 986.789 998.783 987.026 1003.59 991.052 990.509 z" fill="rgb(226,156,56)" transform="translate(0,0)"></path>
<path d="M 1154.86 923.784 C 1155.42 924.358 1156.9 926.08 1156.82 926.561 C 1156.22 930.578 1165.4 934.238 1165.53 934.761 C 1164.85 936.395 1159.83 935.676 1155.72 946.488 C 1153.3 946.929 1152.54 943.141 1151.74 941.218 C 1150.53 938.321 1144.83 935.867 1144.93 934.551 C 1148.78 929.612 1149.04 936.86 1154.86 923.784 z" fill="rgb(250,249,248)" transform="translate(0,0)"></path>
<path d="M 1217.53 998.691 C 1218.43 999.542 1218.82 999.861 1219.08 1000.99 C 1219.87 1005.77 1223.19 1006.05 1226.64 1008.36 C 1227.48 1008.92 1224.88 1010.4 1224.47 1010.5 C 1219.8 1011.61 1219.32 1014.86 1217.24 1018.73 C 1214.28 1012.14 1214.12 1011.27 1207.34 1009.49 C 1207.05 1009.42 1206.89 1008.88 1206.85 1008.61 C 1207.02 1008.29 1214.11 1004.05 1217.53 998.691 z" fill="rgb(250,249,248)" transform="translate(0,0)"></path>
<path d="M 1018.44 926.729 C 1020.54 930.647 1019.37 933.563 1023.76 935.519 C 1024.76 935.965 1027.44 936.967 1027.68 938.031 C 1026.07 941.441 1022.45 936.447 1019.16 949.7 C 1015.91 945.834 1017.18 942.159 1012.57 939.874 C 1011.69 939.435 1009.53 938.703 1009.23 937.542 C 1010.24 935.199 1013.94 938.143 1018.44 926.729 z" fill="rgb(250,249,248)" transform="translate(0,0)"></path>
<path d="M 1291.12 1023.47 C 1293.37 1022.05 1296.35 1022.73 1297.76 1024.99 C 1299.18 1027.24 1298.5 1030.21 1296.24 1031.63 C 1293.99 1033.04 1291.02 1032.36 1289.61 1030.11 C 1288.19 1027.86 1288.87 1024.89 1291.12 1023.47 z" fill="rgb(250,249,248)" transform="translate(0,0)"></path>
<path d="M 699.236 900.223 C 703.931 900.528 712.916 900.457 708.685 907.433 C 705.137 907.147 693.068 906.83 699.236 900.223 z" fill="rgb(250,249,248)" transform="translate(0,0)"></path>
<path d="M 737.792 1040.35 C 743.567 1039.73 751.69 1037.3 753.075 1043.73 C 746.098 1045.79 740.63 1047.28 737.792 1040.35 z" fill="rgb(250,249,248)" transform="translate(0,0)"></path>
<path d="M 1438.91 1031.5 C 1444.99 1033.44 1441.71 1040.33 1439.48 1044.28 L 1438.49 1043.23 C 1434.38 1038.95 1435.99 1036.18 1438.91 1031.5 z" fill="rgb(250,249,248)" transform="translate(0,0)"></path>
<path d="M 718.715 1039.07 C 720.082 1038.68 721.552 1039.06 722.559 1040.06 C 723.565 1041.07 723.95 1042.54 723.564 1043.91 C 723.179 1045.27 722.083 1046.33 720.701 1046.66 C 718.626 1047.15 716.536 1045.9 715.996 1043.83 C 715.456 1041.77 716.664 1039.66 718.715 1039.07 z" fill="rgb(250,249,248)" transform="translate(0,0)"></path>
<path d="M 880.738 804.04 C 892.504 786.106 902.651 770.24 925.496 764.459 C 998.336 746.028 1078.13 742.31 1147.18 775.963 C 1153.94 779.255 1167.88 795.653 1173.12 801.594 C 1169.34 790.463 1167.69 786.388 1160.6 777.097 C 1184.96 785.877 1193.79 794.882 1208.43 816.291 C 1198.13 787.341 1183.24 778.224 1155.11 769.21 C 1153.19 768.922 1152.88 769.241 1152.03 767.701 C 1153.43 765.893 1172.47 767.413 1175.52 767.865 C 1202.48 768.237 1228.12 768.506 1255.06 768.367 C 1304.13 768.113 1396.24 741.517 1414 806.55 C 1427.78 789.714 1435.56 785.064 1457.05 781.382 C 1472.78 788.291 1488.63 801.915 1497.28 816.779 C 1489.3 834.502 1467.99 856.366 1453.98 870.317 C 1431.73 870.103 1416.51 874.996 1394.95 876.465 C 1400.85 856.886 1405.41 840.338 1409.67 820.352 C 1389.82 859.836 1374.86 876.739 1327.14 879.519 C 1305.48 880.781 1283.71 879.461 1262.01 879.652 C 1227.66 879.118 1192.52 879.184 1158.27 877.532 C 1163.94 860.38 1169.72 834.059 1171.81 815.959 C 1162.31 833.113 1154.79 862.083 1134.03 868.401 C 1096.35 879.871 942.431 886.389 911.288 868.725 C 898.487 861.464 887.424 833.503 884.286 819.704 C 884.228 819.449 884.19 819.189 884.142 818.931 C 883.624 820.735 883.091 822.534 882.543 824.328 C 885.509 839.964 889.241 857.741 891.596 873.347 C 860.125 873.879 828.664 874.897 797.224 876.4 C 760.629 878.256 705.489 885.671 671.747 867.63 C 663.047 862.978 648.226 837.934 644.54 828.023 L 642.487 829.719 C 644.338 843.876 651.64 861.919 656.777 875.358 C 640.471 875.362 618.256 872.757 600.274 872.207 C 581.159 853.026 570.84 839.387 554.349 817.967 C 563.199 803.821 577.191 791.272 591.948 783.522 C 614.3 784.947 624.517 792.256 637.206 809.991 C 644.206 777.529 668.58 766.761 698.68 764.111 C 730.708 761.291 766.794 768.417 799.321 769.046 C 818.875 769.294 838.432 769.085 857.976 768.421 C 871.329 767.898 889.137 766.404 902.04 767.374 C 898.197 769.057 893.493 770.486 889.484 771.926 C 865.35 780.593 853.956 792.622 843.401 815.359 C 859.578 794.571 867.502 786.601 892.127 777.305 C 884.787 788.876 883.402 790.565 880.738 804.04 z" fill="rgb(235,218,203)" transform="translate(0,0)"></path>
<path d="M 1155.11 769.21 C 1153.19 768.922 1152.88 769.241 1152.03 767.701 C 1153.43 765.893 1172.47 767.413 1175.52 767.865 C 1166.82 768.673 1160.17 766.173 1155.11 769.21 z" fill="rgb(225,204,182)" transform="translate(0,0)"></path>
<path d="M 882.543 824.328 C 882.372 823.121 881.355 817.471 882.451 816.586 C 883.205 816.804 883.748 818.224 884.142 818.931 C 883.624 820.735 883.091 822.534 882.543 824.328 z" fill="rgb(106,90,84)" transform="translate(0,0)"></path>
<path d="M 642.487 829.719 C 642.145 828.803 641.872 827.879 641.798 826.896 C 641.766 826.477 641.73 825.841 642.078 825.518 C 642.16 825.442 642.251 825.417 642.358 825.433 C 642.623 825.474 642.991 825.838 643.15 826.056 C 643.365 826.352 643.549 826.67 643.76 826.968 C 644.012 827.325 644.28 827.671 644.54 828.023 L 642.487 829.719 z" fill="rgb(48,35,31)" transform="translate(0,0)"></path>
<path d="M 963.514 780.959 C 966.141 786.755 965.942 795.223 969.328 800.78 C 972.606 806.16 986.756 807.029 992.867 808.271 C 970.471 814.73 971.015 813.796 963.205 835.166 C 955.912 814.275 958.453 814.786 934.987 807.896 C 958.997 802.305 956.137 803.882 963.514 780.959 z" fill="rgb(242,185,153)" transform="translate(0,0)"></path>
<path d="M 1336.53 792.675 C 1339.56 795.569 1338.61 799.844 1341.78 802.613 C 1347.1 807.258 1357.53 805.37 1344.43 809.873 C 1340.31 811.288 1338.79 818.649 1337.57 822.516 C 1335.92 823.002 1335.47 822.101 1335.27 820.468 C 1334.35 812.557 1331.97 810.181 1324.8 807.439 C 1323.02 806.757 1326.96 805.217 1327 805.197 C 1333.49 802.54 1334.35 798.554 1336.53 792.675 z" fill="rgb(225,82,78)" transform="translate(0,0)"></path>
<path d="M 1258.24 795.583 C 1260.84 797.769 1261.92 803.87 1262.89 807.229 C 1264.04 807.778 1270.07 809.657 1270.23 810.569 C 1269.74 811.651 1266.08 812.874 1264.88 813.48 L 1263.3 814.291 C 1261.81 818.279 1260.6 822.342 1259.21 826.363 C 1257.34 822.901 1256.54 819.566 1255.31 815.796 C 1251.41 813.76 1247.49 812.135 1243.44 810.415 C 1259.23 805.662 1253.6 810.487 1258.24 795.583 z" fill="rgb(226,156,56)" transform="translate(0,0)"></path>
<path d="M 819.615 793.734 C 821.743 795.804 821.861 799.552 822.798 802.567 C 824.207 807.099 831.032 806.516 831.773 808.578 C 831.139 809.927 824.471 810.59 819.821 821.474 C 818.343 820.165 817.666 818.846 817.581 817.172 C 817.208 809.831 798.142 808.878 812.997 805.887 C 816.25 805.231 818.483 796.524 819.615 793.734 z" fill="rgb(242,185,153)" transform="translate(0,0)"></path>
<path d="M 742.134 827.622 C 748.424 844.984 750.756 836.511 753.818 841.431 C 750.492 846.378 747.397 839.838 742.484 855.254 C 739.933 850.981 739.959 845.515 734.437 843.121 C 733.292 842.624 731.346 842.077 730.899 840.946 C 732.232 837.926 736.667 843.478 742.134 827.622 z" fill="rgb(225,82,78)" transform="translate(0,0)"></path>
<path d="M 587.649 843.772 C 584.589 841.69 565.93 826.624 570.921 822.13 C 573.23 822.367 578.653 831.583 580.501 833.947 C 581.498 832.772 582.072 832.142 582.912 830.92 C 584.804 835.11 587.737 835.938 590.4 839.874 L 589.799 841.001 C 588.694 843.117 590.31 843.242 587.649 843.772 z" fill="rgb(9,8,8)" transform="translate(0,0)"></path>
<path d="M 580.501 833.947 C 581.498 832.772 582.072 832.142 582.912 830.92 C 584.804 835.11 587.737 835.938 590.4 839.874 L 589.799 841.001 C 588.694 843.117 590.31 843.242 587.649 843.772 C 586.772 839.228 583.895 837.546 580.501 833.947 z" fill="rgb(225,204,182)" transform="translate(0,0)"></path>
<path d="M 1481.35 820.658 C 1486.8 825.619 1467.57 840.231 1464.2 843.141 C 1461.25 840.259 1478.24 824.064 1481.35 820.658 z" fill="rgb(9,8,8)" transform="translate(0,0)"></path>
<path d="M 1086.29 814.486 C 1088.9 813.318 1091.97 814.484 1093.14 817.091 C 1094.31 819.699 1093.15 822.763 1090.55 823.941 C 1087.94 825.122 1084.86 823.959 1083.68 821.344 C 1082.51 818.73 1083.68 815.657 1086.29 814.486 z" fill="rgb(226,156,56)" transform="translate(0,0)"></path>
<path d="M 1465.63 826.658 C 1471.69 832.233 1456.59 842.864 1452.53 845.761 C 1451.75 845.799 1451.19 846.135 1450.84 845.351 C 1452.27 842.111 1462.01 833.123 1465.63 826.658 z" fill="rgb(9,8,8)" transform="translate(0,0)"></path>
<path d="M 582.912 830.92 C 584.583 828.997 584.995 828.223 586.752 830.53 C 591.886 837.268 597.65 843.555 603.079 850.129 C 595.897 845.419 596.445 846.028 590.4 839.874 C 587.737 835.938 584.804 835.11 582.912 830.92 z" fill="rgb(9,8,8)" transform="translate(0,0)"></path>
<path d="M 1374.67 731.89 C 1378.23 730.64 1391.24 725.831 1394.15 725.947 C 1487.2 729.583 1587.25 776.886 1617.15 871.324 C 1624.29 893.875 1631.3 920.543 1629.5 944.288 C 1623.69 1020.96 1599.21 1082.66 1648.07 1153.99 C 1664.09 1177.82 1686.18 1196.94 1712.05 1209.38 C 1743.15 1224.33 1768.23 1227.68 1801.95 1227.04 C 1749.12 1275.24 1701.43 1316.75 1738.89 1393.46 C 1740.83 1397.08 1742.71 1400.74 1744.53 1404.44 C 1735.52 1401.33 1722.59 1397.11 1714.07 1393.41 C 1687.62 1383.28 1662.25 1370.55 1638.31 1355.4 C 1589.8 1324.05 1549.64 1283.5 1525.49 1230.4 C 1461.43 1089.53 1542.88 978.106 1514.49 846.181 C 1513.68 842.359 1512.95 838.554 1512.51 834.672 C 1509.25 823.76 1503.56 814.402 1496.22 805.489 C 1460.43 761.987 1407.12 754.955 1354.51 750.702 C 1340.32 749.556 1325.14 750.882 1310.89 749.376 L 1309.48 749.22 C 1352.2 743.615 1407.79 750.724 1449.03 762.717 L 1449.99 761.965 L 1449.03 760.497 C 1422.03 747.007 1381.5 744.568 1351.23 743.944 C 1346.18 744.062 1340.98 745.112 1337.5 742.261 C 1339.92 742.021 1341.94 741.737 1344.35 741.355 C 1376.11 733.965 1385.45 741.968 1410.47 741.552 L 1410.93 739.966 C 1407.36 737.741 1382.11 735.642 1376.39 735.113 L 1374.67 731.89 z" fill="rgb(235,56,65)" transform="translate(0,0)"></path>
<path d="M 1512.51 834.672 C 1513.83 834.693 1514.04 834.74 1515.36 834.961 C 1531.14 871.211 1530.65 948.125 1521.91 989.459 C 1521.73 989.847 1521.56 990.234 1521.38 990.621 C 1521.07 990.069 1520.75 989.517 1520.44 988.965 C 1525.43 938.162 1527.48 895.216 1516.47 844.832 L 1514.49 846.181 C 1513.68 842.359 1512.95 838.554 1512.51 834.672 z" fill="rgb(9,8,8)" transform="translate(0,0)"></path>
<path d="M 1512.51 834.672 C 1513.83 834.693 1514.04 834.74 1515.36 834.961 C 1515.32 838.969 1515.82 840.817 1516.47 844.832 L 1514.49 846.181 C 1513.68 842.359 1512.95 838.554 1512.51 834.672 z" fill="rgb(177,65,52)" transform="translate(0,0)"></path>
<path d="M 1714.07 1393.41 C 1720.53 1389.38 1727.99 1395.41 1738.89 1393.46 C 1740.83 1397.08 1742.71 1400.74 1744.53 1404.44 C 1735.52 1401.33 1722.59 1397.11 1714.07 1393.41 z" fill="rgb(225,82,78)" transform="translate(0,0)"></path>
<path d="M 1337.5 742.261 C 1339.92 742.021 1341.94 741.737 1344.35 741.355 C 1344.64 743.921 1348.79 743.467 1351.23 743.944 C 1346.18 744.062 1340.98 745.112 1337.5 742.261 z" fill="rgb(127,50,51)" transform="translate(0,0)"></path>
<path d="M 1513.83 1088.24 C 1516.37 1088.83 1516.19 1088.79 1518.22 1090.45 C 1519.35 1093.61 1519.02 1124.01 1519.15 1129.79 C 1520.83 1204.88 1565.76 1272.14 1626.62 1313.55 C 1634.31 1318.78 1649.13 1329.62 1649.42 1339.68 C 1625.16 1337.5 1587.74 1294.05 1571.74 1275.24 C 1527.96 1223.79 1506.56 1155.54 1513.83 1088.24 z" fill="rgb(250,249,248)" transform="translate(0,0)"></path>
<path d="M 1532.4 786.459 C 1544.18 787.118 1570.95 818.941 1577.65 828.443 C 1583.56 836.967 1588.83 845.922 1593.41 855.233 C 1600.62 869.752 1618.69 918.007 1613.63 933.081 C 1613.05 932.799 1610.32 931.417 1610.13 930.496 C 1605.6 908.211 1601.61 887.162 1591.38 866.587 C 1583.28 850.677 1572.83 836.083 1560.37 823.301 C 1552.01 814.574 1538.67 804.823 1531.92 795.187 C 1530.04 792.497 1531.28 789.235 1532.4 786.459 z" fill="rgb(250,249,248)" transform="translate(0,0)"></path>
<path d="M 1577.31 1031.6 C 1579.2 1036.4 1579.5 1042.88 1582.37 1046.66 C 1586.86 1052.54 1598.12 1053.08 1604.89 1053.96 C 1580.46 1060.79 1585.35 1056 1576.56 1078.21 C 1573.97 1074.7 1574.74 1067.86 1571.61 1063.31 C 1566.83 1056.38 1557.4 1056.2 1549.89 1054.91 C 1571.08 1051.88 1572.51 1051.71 1577.31 1031.6 z" fill="rgb(226,156,56)" transform="translate(0,0)"></path>
<path d="M 1667.96 1346.72 C 1670.48 1347.15 1681.15 1351.14 1682.63 1352.18 C 1691.34 1358.33 1708.3 1351.91 1706.42 1363.83 C 1697.16 1364.52 1668.8 1357.61 1667.96 1346.72 z" fill="rgb(250,249,248)" transform="translate(0,0)"></path>
<path d="M 1514.42 772.379 C 1521.29 773.942 1526.67 777.136 1523.71 784.495 C 1518.61 782.636 1511.84 780.345 1514.01 773.716 L 1514.42 772.379 z" fill="rgb(250,249,248)" transform="translate(0,0)"></path>
<path d="M 1644.06 1221.5 C 1646.23 1219.87 1649.31 1220.28 1650.98 1222.43 C 1652.64 1224.59 1652.26 1227.68 1650.12 1229.36 C 1648.72 1230.47 1646.83 1230.74 1645.18 1230.06 C 1643.52 1229.39 1642.36 1227.88 1642.12 1226.11 C 1641.89 1224.34 1642.63 1222.58 1644.06 1221.5 z" fill="rgb(250,249,248)" transform="translate(0,0)"></path>
<path d="M 1610.79 958.296 C 1618.16 961.374 1617.36 964.273 1613.68 970.32 C 1606.45 968.459 1608.1 964.076 1610.79 958.296 z" fill="rgb(250,249,248)" transform="translate(0,0)"></path>
<path d="M 249.376 1227.59 C 283.072 1227.17 310.124 1224.14 341.338 1209.4 C 365.619 1197.75 386.621 1180.24 402.457 1158.46 C 431.96 1118.69 439.634 1068.71 432.189 1020.8 C 429.02 1000.41 424.432 977.852 423.237 957.441 C 421.283 927.356 425.609 897.194 435.942 868.871 C 469.624 775.846 563.241 730.066 657.529 726.679 C 664.71 726.421 675.709 730.697 682.405 733.121 C 683.973 733.37 684.365 733.162 685.03 734.733 C 680.995 734.888 675.777 734.957 671.791 734.943 C 662.382 735.941 653.739 737.22 644.664 739.906 L 644.035 740.782 C 670.479 740.941 680.41 735.189 708.785 741.28 L 707.61 744.031 C 678.068 743.838 649.18 747.854 620.382 754.131 C 616.671 754.94 607.315 756.469 605.002 758.396 C 611.389 760.749 656.12 749.867 672.77 749.966 C 673.908 750.097 683.28 750.456 683.284 750.46 C 683.425 750.94 683.165 751.208 682.905 751.76 C 537.062 765.77 513.45 848.521 527.236 979.303 C 527.628 983.022 527.517 985.965 529.148 989.495 L 530.376 989.291 C 531.594 981.561 528.217 960.646 527.876 950.486 C 526.955 923.093 527.356 888.055 532.236 861.264 L 534.498 862.04 C 531.133 892.618 530.775 923.452 533.428 954.1 C 543.183 1066.83 573.945 1141.97 511.718 1253.73 C 471.086 1326.71 386.134 1381.25 306.96 1403.57 C 347.538 1319.16 310.991 1283.35 249.376 1227.59 z" fill="rgb(235,56,65)" transform="translate(0,0)"></path>
<path d="M 682.405 733.121 C 683.973 733.37 684.365 733.162 685.03 734.733 C 680.995 734.888 675.777 734.957 671.791 734.943 C 675.42 734.093 678.777 733.876 682.405 733.121 z" fill="rgb(127,50,51)" transform="translate(0,0)"></path>
<path d="M 532.796 1112.42 C 537.022 1116.36 535.153 1125.99 534.666 1131.44 C 526.686 1220.57 469.821 1300.98 393.554 1345.93 C 383.656 1351.76 372.572 1359.94 360.405 1357.44 C 358.499 1354.64 357.702 1353.99 357.612 1350.58 C 360.662 1345.44 382.053 1338.18 388.828 1334.83 C 460.27 1299.61 512.335 1226.78 527.518 1149.17 C 529.678 1138.14 528.569 1122.62 532.796 1112.42 z" fill="rgb(250,249,248)" transform="translate(0,0)"></path>
<path d="M 515.784 788.844 C 518.517 788.605 518.36 788.518 520.931 789.402 L 521.89 791.387 C 520.526 798.101 496.112 818.604 488.941 826.689 C 482.431 834.032 476.644 841.985 471.658 850.437 C 445.636 893.756 437.915 943.009 446.708 992.459 C 449.481 1008.05 453.836 1024.45 457.633 1039.9 C 455.532 1041.69 454.887 1041.54 452.761 1040.29 C 449.58 1034.7 448.606 1025.72 446.763 1019.4 C 424.577 943.406 445.676 835.832 515.784 788.844 z" fill="rgb(250,249,248)" transform="translate(0,0)"></path>
<path d="M 392.212 1234.64 C 399.165 1254.03 395.497 1252.39 415.305 1260.79 C 394.216 1266.96 398.317 1267.83 392.453 1287.61 C 386.132 1267.17 389.772 1265.84 367.91 1260.62 C 375.68 1257.43 378.741 1256.44 385.961 1251.82 C 389.542 1244.87 389.924 1242.06 392.212 1234.64 z" fill="rgb(238,129,99)" transform="translate(0,0)"></path>
<path d="M 533.303 1081.38 C 538.632 1083.2 538.19 1091.33 535.151 1093.8 L 533.976 1094.8 C 529.098 1091.02 526.666 1087.83 531.89 1082.78 L 533.303 1081.38 z" fill="rgb(250,249,248)" transform="translate(0,0)"></path>
<path d="M 454.621 1047.55 C 461.481 1049.26 462.695 1054.95 461.016 1061.22 C 454.378 1060.02 453.488 1053.25 454.621 1047.55 z" fill="rgb(250,249,248)" transform="translate(0,0)"></path>
<path d="M 534.224 770.59 C 542.58 771.547 541.941 771.429 537.083 778.496 C 529.236 780.989 531.625 774.786 534.224 770.59 z" fill="rgb(250,249,248)" transform="translate(0,0)"></path>
<path d="M 651.515 528.868 C 656.887 531.608 679.376 542.99 684.703 540.785 L 685.119 538.602 C 681.706 533.518 661.917 531.223 656.478 524.41 C 656.56 522.462 656.934 517.341 655.994 515.972 C 648.141 504.536 643.615 492.431 642.995 478.095 C 642.168 459.605 648.677 441.536 661.104 427.82 C 730.143 352.973 849.17 471.333 890.955 526.437 C 913.135 555.688 936.492 592.819 963.091 617.394 C 956.102 624.413 953.748 628.053 949.487 636.667 C 886.402 624.143 843.57 585.054 801.778 539.831 C 800.19 538.114 798.248 536.513 795.879 536.271 L 794.839 537.535 C 797.822 543.489 810.248 554.819 815.494 560.598 C 855.405 604.563 893.731 626.124 950.519 642.581 L 946.993 644.409 C 937.918 649.051 934.739 653.774 928.305 661.569 C 896.351 669.052 867.278 660.185 839.772 644.089 L 837.936 645.902 C 870.612 667.181 889.309 671.924 928.061 666.884 C 932.941 675.694 936.455 681.84 942.214 690.233 C 920.62 698.41 899.454 698.634 876.819 695.87 C 855.241 693.235 838.661 683.156 818.957 678.052 C 858.557 701.781 902.527 708.898 946.392 692.993 C 948.237 701.805 950.312 710.568 952.613 719.273 C 928.998 722.22 908.104 721.911 884.603 718.394 C 794.65 704.935 667.694 585.414 575.566 629.269 L 575.764 628.471 C 585.112 592.075 623.298 553.458 651.515 528.868 z" fill="rgb(226,156,56)" transform="translate(0,0)"></path>
<path d="M 837.936 645.902 C 828.641 639.249 831.518 638.972 839.772 644.089 L 837.936 645.902 z" fill="rgb(48,35,31)" transform="translate(0,0)"></path>
<path d="M 703.627 431.192 C 706.079 430.987 708.538 430.875 710.998 430.857 C 721.979 430.844 737.321 435.099 746.003 442.524 C 749.253 445.304 744.647 446.83 742.009 445.771 C 726.02 439.353 718.361 435.52 701.876 443.834 C 693.54 449.545 685.246 461.228 677.685 464.556 C 667.944 468.844 671.642 455.91 674.146 451.995 C 681.606 440.337 690.884 434.989 703.627 431.192 z" fill="rgb(250,249,248)" transform="translate(0,0)"></path>
<path d="M 893.202 548.584 C 898.189 549.822 901.35 551.617 904.436 556.164 C 914.85 571.505 925.818 586.315 936.975 601.053 C 937.88 602.249 936.326 602.735 935.401 602.85 C 925.469 596.563 916.146 587.683 906.985 580.14 C 899.167 573.703 882.098 560.596 891.961 549.995 L 893.202 548.584 z" fill="rgb(250,249,248)" transform="translate(0,0)"></path>
<path d="M 630.443 567.729 C 631.026 568.136 632.126 568.718 632.39 569.492 C 633.034 571.381 607.479 598.748 605.041 605.004 C 604.811 605.594 604.607 606.194 604.37 606.781 C 604.128 607.381 603.86 607.969 603.604 608.563 C 621.257 605.337 644.028 603.098 660.479 613.177 C 661.731 613.944 661.604 615.435 661.538 616.652 C 645.135 611.911 628.547 608.184 611.497 611.788 C 578.122 618.843 623.645 573.459 630.443 567.729 z" fill="rgb(250,249,248)" transform="translate(0,0)"></path>
<path d="M 695.101 419.157 C 704.229 418.666 711.015 418.991 719.956 419.745 C 703.399 424.604 694.914 420.214 680.986 430.106 C 666.564 440.35 662.314 449.645 659.125 465.776 C 659.022 468.891 659.094 472.363 659.278 475.504 C 659.405 477.676 657.039 482.41 655.484 478.805 C 653.549 474.32 654.84 465.373 655.766 460.486 C 659.678 439.822 674.427 423.691 695.101 419.157 z" fill="rgb(250,249,248)" transform="translate(0,0)"></path>
<path d="M 787.536 583.783 C 792.616 590.667 788.657 595.062 803.133 598.697 C 803.319 598.744 803.269 599.133 803.241 599.274 C 798.417 603.975 795.172 595.673 788.628 614.323 C 784.309 609.668 783.919 602.577 775.672 600.443 C 769.461 598.837 773.903 597.431 777.21 596.36 C 783.959 594.175 785.29 589.561 787.536 583.783 z" fill="rgb(254,219,65)" transform="translate(0,0)"></path>
<path d="M 715.645 572.213 C 716.872 573.921 717.61 576.583 718.352 578.383 C 720.226 582.932 722.657 582.407 726.527 584.268 C 727.706 584.835 725.872 586.042 725.088 586.303 C 719.965 588.009 718.576 591.757 716.428 596.231 C 713.724 592.869 713.032 588.599 708.368 586.375 C 707.565 585.993 705.028 585.107 705.167 583.993 C 710.638 578.945 710.746 586.29 715.645 572.213 z" fill="rgb(250,249,248)" transform="translate(0,0)"></path>
<path d="M 785.234 438.771 C 789.055 439.569 820.109 466.264 822.699 470.117 C 815.761 468.309 787.985 444.677 785.234 438.771 z" fill="rgb(9,8,8)" transform="translate(0,0)"></path>
<path d="M 753.87 447.296 C 759.7 449.921 768.944 453.959 764.061 461.026 L 763.08 462.573 C 757.909 462.696 755.125 457.594 752.049 453.945 C 751.037 452.745 753.472 448.206 753.87 447.296 z" fill="rgb(255,248,165)" transform="translate(0,0)"></path>
<path d="M 835.36 486.79 C 839.854 488.354 856.57 502.385 855.919 506.952 L 855.727 508.403 C 850.59 506.858 835.379 492.24 835.36 486.79 z" fill="rgb(250,249,248)" transform="translate(0,0)"></path>
<path d="M 760.003 434.983 C 770.798 436.024 790.194 451.585 797.786 459.233 C 794.521 458.272 762.202 437.394 760.003 434.983 z" fill="rgb(9,8,8)" transform="translate(0,0)"></path>
<path d="M 751.777 526.747 C 753.933 525.495 756.696 526.232 757.942 528.391 C 759.189 530.55 758.445 533.312 756.283 534.553 C 754.128 535.79 751.378 535.05 750.136 532.898 C 748.894 530.746 749.628 527.994 751.777 526.747 z" fill="rgb(250,249,248)" transform="translate(0,0)"></path>
<path d="M 880.315 532.367 C 887.275 535.536 887.976 537.033 883.929 543.467 C 879.949 540.584 875.006 538.002 879.503 533.254 L 880.315 532.367 z" fill="rgb(250,249,248)" transform="translate(0,0)"></path>
<path d="M 863.273 515.724 C 864.374 514.7 865.957 514.379 867.371 514.892 C 868.784 515.406 869.792 516.668 869.979 518.161 C 870.166 519.653 869.502 521.125 868.258 521.972 C 866.526 523.152 864.177 522.798 862.869 521.159 C 861.562 519.521 861.738 517.152 863.273 515.724 z" fill="rgb(250,249,248)" transform="translate(0,0)"></path>
<path d="M 656.569 491.835 C 657.88 490.656 659.883 490.704 661.136 491.945 C 662.39 493.185 662.458 495.187 661.293 496.511 C 660.476 497.438 659.213 497.836 658.012 497.546 C 656.811 497.255 655.87 496.324 655.568 495.126 C 655.265 493.928 655.65 492.661 656.569 491.835 z" fill="rgb(250,249,248)" transform="translate(0,0)"></path>
<path d="M 1093.1 617.444 C 1121.1 592.517 1137.13 566.269 1159.12 537.048 C 1198.52 484.69 1275.48 400.16 1346.32 404.309 C 1366.28 405.428 1384.97 414.472 1398.23 429.432 C 1423.04 457.96 1415.24 496.791 1396.73 526.31 C 1395.32 528.553 1376.18 535.146 1374.35 537.989 C 1378.79 542.268 1398.55 532.27 1403.41 529.284 C 1434.52 555.633 1469.11 588.989 1480.96 629.348 C 1435.29 610.637 1401.42 619.304 1356.94 638.123 C 1266.92 676.199 1205.33 733.618 1101.22 718.505 C 1104.05 709.763 1105.79 703.04 1107.88 694.073 C 1152.07 705.328 1190.17 704.335 1230.95 682.314 C 1231.87 681.816 1232.56 680.959 1233.24 680.197 L 1232.5 679.652 C 1222.06 682.93 1212.34 687.909 1201.82 690.896 C 1170.14 699.893 1145.42 698.301 1113.96 691.22 C 1120.19 683.107 1123.48 676.724 1128.53 667.841 C 1166.81 670.63 1196.34 665.729 1226.43 639.98 C 1227.55 639.027 1228.64 638.056 1229.73 637.069 C 1220.94 641.385 1212.66 646.491 1203.92 650.938 C 1180.36 662.93 1153.04 665.815 1127.02 661.91 C 1123.7 658.167 1110.22 644.208 1108.51 641.206 C 1163.68 631.6 1215.41 590.221 1251.52 549.178 C 1254.96 545.266 1258.58 542.221 1261.53 537.801 L 1260.98 536.134 C 1255.58 534.791 1242.58 551.691 1237.92 556.607 C 1195.48 601.466 1164.46 620.74 1105.54 637.908 C 1103.64 633.447 1103.04 631.966 1100.45 627.948 C 1097.77 623.35 1096.46 621.587 1093.1 617.444 z" fill="rgb(226,156,56)" transform="translate(0,0)"></path>
<path d="M 1237.14 472.764 C 1241.69 475.1 1239.04 477.88 1235.9 479.828 C 1220.76 486.772 1217.32 507.174 1208.68 516.383 C 1195 530.976 1176.13 550.109 1161.71 563.56 C 1158.23 562.481 1156.28 560.954 1158.3 557.028 C 1172.46 529.459 1208.84 484.902 1237.14 472.764 z" fill="rgb(250,249,248)" transform="translate(0,0)"></path>
<path d="M 1304.46 445.716 C 1307 448.113 1307.49 458.881 1310.45 463.599 C 1316.02 472.478 1327.79 475.222 1337.09 477.998 C 1313.35 484.861 1313.03 487.078 1306.96 508.665 C 1303.97 501.756 1302.19 494.915 1298.99 487.865 C 1290.06 483.686 1281.61 480.713 1272.47 477.17 C 1283.53 474.807 1287.82 474.782 1297.96 468.098 C 1301.84 459.596 1302.76 455.048 1304.46 445.716 z" fill="rgb(254,219,65)" transform="translate(0,0)"></path>
<path d="M 1369.35 421.874 C 1388.63 421.241 1400.92 449.067 1403.16 464.996 C 1404.36 473.497 1403.97 478.538 1402.31 486.801 C 1398.91 488.944 1399.5 485.891 1399.62 482.997 C 1400.36 465.167 1395.58 446.223 1382.76 433.238 C 1378.61 429.038 1373.64 426.123 1369.35 421.874 z" fill="rgb(250,249,248)" transform="translate(0,0)"></path>
<path d="M 1345.9 435.846 C 1366.36 438.632 1379.92 468.686 1375.62 486.996 C 1374.19 493.113 1374.65 493.869 1371.8 499.686 C 1368.08 497.753 1369.04 497.266 1369.92 491.997 C 1372.77 474.882 1372.23 455.391 1355.66 445.376 C 1351.33 442.76 1344.63 441.082 1345.9 435.846 z" fill="rgb(250,249,248)" transform="translate(0,0)"></path>
<path d="M 1413.48 604.359 C 1419.53 603.331 1441.45 602.339 1445.43 607.485 C 1445.35 607.606 1445.05 608.29 1444.92 608.304 C 1439.06 608.914 1418.36 608.843 1413.77 609.099 C 1405.48 610.675 1397.51 612.382 1389.58 615.401 C 1387.33 616.256 1383.54 615.426 1385.53 613.617 C 1392.43 607.336 1404.49 605.554 1413.48 604.359 z" fill="rgb(250,249,248)" transform="translate(0,0)"></path>
<path d="M 1344.58 573.78 C 1347.49 576.76 1345.66 580.749 1352.19 582.623 C 1357.08 584.027 1356.79 585.406 1352.37 586.614 C 1348.26 587.738 1346.47 594.109 1345.06 597.798 C 1341.96 593.697 1341.51 588.795 1336.29 586.644 C 1335.53 586.328 1333.63 585.79 1333.61 584.682 C 1335.09 581.985 1339.35 586.036 1344.58 573.78 z" fill="rgb(250,249,248)" transform="translate(0,0)"></path>
<path d="M 1266.32 628.762 C 1268.3 633.712 1268.83 639.93 1274.53 641.945 C 1279.06 643.548 1274.2 644.744 1271.88 646.846 C 1269.02 649.445 1268.32 651.891 1266.93 655.482 C 1266.07 654.536 1265.3 653.782 1264.94 652.514 C 1262.89 645.261 1258.44 645.475 1255.98 643.369 L 1256.02 642.873 C 1256.97 642.093 1258.26 642.095 1259.35 641.556 C 1264.17 639.163 1264.89 633.392 1266.32 628.762 z" fill="rgb(250,249,248)" transform="translate(0,0)"></path>
<path d="M 1131.71 589.842 C 1136.02 594.43 1130.93 600.513 1126.44 602.929 C 1121.72 596.269 1125.42 594.092 1131.71 589.842 z" fill="rgb(250,249,248)" transform="translate(0,0)"></path>
<path d="M 1148.69 569.649 C 1155.23 574.608 1149.13 578.571 1144.15 582.576 C 1137.78 579.679 1145.56 573.076 1148.69 569.649 z" fill="rgb(250,249,248)" transform="translate(0,0)"></path>
<path d="M 1365.41 510.516 C 1370.38 513.725 1368.82 516.19 1366.28 520.579 C 1361.45 518.244 1360.22 516.584 1364.15 512.044 L 1365.41 510.516 z" fill="rgb(250,249,248)" transform="translate(0,0)"></path>
<path d="M 991.443 610.388 C 1008.16 609.477 1068.07 607.345 1080.17 614.271 C 1090.16 619.991 1096.17 630.419 1099.03 641.281 C 1103.75 659.22 1104.83 703.677 1095.07 719.275 C 1088.27 730.125 1075.7 738.388 1063.25 741.073 C 1041.14 742.561 991.31 744.706 970.965 734.025 C 960.731 728.653 955.476 709.761 953.918 698.178 C 949.302 663.875 945.57 616.825 991.443 610.388 z" fill="rgb(226,156,56)" transform="translate(0,0)"></path>
<path d="M 1003.85 617.423 C 1006.75 617.193 1020.54 616.269 1022.12 619.57 C 1020.48 627.185 971.646 617.743 966.685 674.011 C 966.622 674.565 966.551 675.118 966.474 675.67 L 966.209 677.504 C 965.146 685.381 961.209 687.183 959.829 679.511 C 955.624 656.136 961.715 624.602 989.004 619.073 C 994.063 618.048 998.703 617.855 1003.85 617.423 z" fill="rgb(250,249,248)" transform="translate(0,0)"></path>
<path d="M 976.628 712.642 C 980.123 713.563 982.712 714.956 986.508 715.829 C 992.209 718.048 1002.51 716.737 1007.58 718.287 C 1015.16 720.606 1002.55 722.501 1002.34 722.536 C 1001.4 722.663 1000.45 722.779 999.499 722.884 L 981.498 724.798 C 977.816 725.154 974.995 723.77 972.149 721.493 C 968.982 718.958 975.205 714.195 976.628 712.642 z" fill="rgb(250,249,248)" transform="translate(0,0)"></path>
<path d="M 1081.54 698.51 C 1082.12 698.998 1083.12 699.655 1083.19 700.524 C 1084.45 715.552 1068.72 728.073 1055.99 730.94 L 1049.19 732.41 C 1048.95 732.145 1048.16 731.484 1048.24 730.932 C 1048.4 729.794 1066.73 722.506 1069.25 720.698 C 1077.33 714.895 1080.18 708.058 1081.54 698.51 z" fill="rgb(9,8,8)" transform="translate(0,0)"></path>
<path d="M 1093.49 685.77 C 1096.01 688.094 1095.18 689.806 1095.04 693.312 C 1094.43 709.338 1086.02 725.484 1070.5 731.638 C 1070.22 731.327 1069.6 730.73 1069.42 730.287 C 1081.56 720.534 1089.82 716.907 1090.89 697.998 C 1091.27 691.417 1090.09 691.194 1093.49 685.77 z" fill="rgb(9,8,8)" transform="translate(0,0)"></path>
<path d="M 1039.89 716.768 C 1034.86 717.351 1025.47 722.143 1024.55 721.146 C 1017.59 713.55 1036.72 712.69 1039.39 712.353 C 1039.55 713.826 1039.71 715.298 1039.89 716.768 z" fill="rgb(250,249,248)" transform="translate(0,0)"></path>
<path d="M 963.802 693.347 C 969.723 695.639 968.774 704.571 966.789 709.437 C 961.326 705.199 960.619 699.441 963.802 693.347 z" fill="rgb(250,249,248)" transform="translate(0,0)"></path>
<path d="M 1055.83 617.688 C 1056.55 616.459 1057.92 615.758 1059.33 615.888 C 1060.75 616.019 1061.97 616.959 1062.45 618.299 C 1062.93 619.639 1062.59 621.137 1061.58 622.141 C 1060.28 623.441 1058.21 623.57 1056.75 622.442 C 1055.29 621.314 1054.9 619.279 1055.83 617.688 z" fill="rgb(250,249,248)" transform="translate(0,0)"></path>
<path d="M 1036.7 616.823 C 1037.7 615.284 1039.74 614.812 1041.32 615.754 C 1042.9 616.696 1043.45 618.716 1042.57 620.33 C 1041.97 621.431 1040.82 622.116 1039.56 622.114 C 1038.31 622.112 1037.15 621.423 1036.56 620.319 C 1035.96 619.216 1036.01 617.874 1036.7 616.823 z" fill="rgb(250,249,248)" transform="translate(0,0)"></path>
<path d="M 1039.39 712.353 L 1041.17 712.594 C 1047.52 713.367 1042.65 715.221 1039.89 716.768 C 1039.71 715.298 1039.55 713.826 1039.39 712.353 z" fill="rgb(235,218,203)" transform="translate(0,0)"></path>
<path d="M 962.68 724.454 C 961.054 725.32 959.391 726.115 957.697 726.837 C 945.792 731.905 921.417 738.197 908.511 741.139 C 827.353 760.045 742.308 753.009 665.36 721.022 C 640.866 711.033 615.49 699.01 596.051 680.601 C 587.019 672.049 569.135 654.154 575.172 640.202 C 578.502 632.508 587.004 630.167 594.313 627.657 C 607.224 656.915 622.075 662.431 650.122 674.3 C 706.392 698.5 767.304 700.218 826.796 709.581 C 852.659 713.652 876.772 726.198 904.43 726.008 L 909.674 727.92 C 894.835 728.657 820.393 724.757 813.506 728.697 C 818.63 731.617 880.862 732.122 892.905 733.156 C 912.387 734.829 941.778 725.541 962.68 724.454 z" fill="rgb(201,134,51)" transform="translate(0,0)"></path>
<path d="M 593.534 640.687 C 595.844 642.494 595.979 643.066 596.255 645.985 C 597.251 656.528 600.491 665.301 607.846 673.106 C 609.114 674.45 613.695 678.847 614.45 680.444 C 614.349 681.998 612.46 683.121 611.406 684.009 L 610.432 683.482 C 599.637 677.748 578.759 652.713 592.049 641.973 L 593.534 640.687 z" fill="rgb(250,249,248)" transform="translate(0,0)"></path>
<path d="M 625 688.805 C 629.914 689.252 637.297 693.651 641.023 696.478 C 648.928 702.477 675.42 708.825 680.081 714.868 C 669.047 714.845 630.057 697.604 625 688.805 z" fill="rgb(9,8,8)" transform="translate(0,0)"></path>
<path d="M 791.167 738.342 C 796.408 737.914 802.012 735.677 800.216 741.978 C 794.975 743.485 790.827 744.972 791.167 738.342 z" fill="rgb(250,249,248)" transform="translate(0,0)"></path>
<path d="M 774.109 737.194 C 780.094 736.779 782.89 735.791 784.239 742.084 C 779.354 742.225 774.517 742.984 774.109 737.194 z" fill="rgb(250,249,248)" transform="translate(0,0)"></path>
<path d="M 752.333 736.269 C 757.822 736.039 762.579 735.042 762.981 741.038 C 759.084 740.9 753.319 740.744 752.333 736.269 z" fill="rgb(250,249,248)" transform="translate(0,0)"></path>
<path d="M 1463.32 628.399 C 1478.99 635.225 1487.23 638.172 1478.31 657.21 C 1476.15 661.818 1473.73 665.671 1470.33 669.515 C 1445.35 699.032 1408.06 714.479 1372.29 727.016 C 1297.19 753.883 1215.84 758.054 1138.39 739.009 C 1132.33 737.581 1099.66 729.582 1096.41 726.544 C 1098.3 724.846 1097.59 725.119 1099.8 724.258 C 1116.48 727.685 1133.23 731.018 1150.31 731.598 C 1175.44 732.451 1200.45 728.77 1225.54 728.238 C 1230.31 728.137 1235.04 728.011 1239.76 727.267 L 1240.56 725.894 C 1239.32 724.295 1239.25 723.783 1236.91 723.838 C 1206.69 724.547 1176.19 727.861 1145.99 728.039 C 1148.54 727.649 1149.87 728.013 1151.7 726.353 C 1175.38 724.303 1200.67 717.02 1223.64 710.232 C 1279.7 704.099 1442.95 688.462 1463.32 628.399 z" fill="rgb(201,134,51)" transform="translate(0,0)"></path>
<path d="M 1462.42 646.61 C 1476.64 656.947 1454.97 676.243 1446.83 682.988 C 1446.42 682.867 1446.02 682.745 1445.61 682.624 C 1437.02 676.088 1449.85 670.528 1451.35 668.617 C 1457.25 661.125 1458.63 654.038 1462.42 646.61 z" fill="rgb(250,249,248)" transform="translate(0,0)"></path>
<path d="M 1431.62 687.945 C 1431.94 687.963 1435.41 688.38 1433.71 689.657 C 1418.28 701.271 1396.66 709.344 1378.21 715.1 C 1372.74 711.84 1383.55 709.76 1385.67 709.093 C 1401.99 703.97 1416.74 696.185 1431.62 687.945 z" fill="rgb(9,8,8)" transform="translate(0,0)"></path>
<path d="M 1262.22 736.496 C 1269.44 736.13 1274.28 733.655 1272.71 741.627 C 1266.66 741.637 1262.11 743.188 1262.22 736.496 z" fill="rgb(235,218,203)" transform="translate(0,0)"></path>
<path d="M 1297.01 736.048 C 1301.26 735.998 1305.99 734.566 1304.75 740.154 C 1299.67 740.046 1294.35 741.866 1297.01 736.048 z" fill="rgb(250,249,248)" transform="translate(0,0)"></path>
<path d="M 1282.79 735.899 C 1288.23 736.342 1290 735.461 1290.19 741.156 L 1288.39 740.964 C 1283.91 740.53 1283.4 740.402 1282.79 735.899 z" fill="rgb(250,249,248)" transform="translate(0,0)"></path>
<path d="M 868.042 1489.43 L 869.42 1491.56 C 862.648 1508.04 848.251 1566.11 849.557 1584.25 C 850.817 1601.75 861.118 1611.24 873.626 1621.41 C 842.798 1617.87 811.325 1613.45 780.846 1607.56 C 766.624 1604.81 752.557 1601.46 738.225 1599.29 C 781.138 1581.03 799.536 1569.26 831.823 1535.23 C 826.927 1546.05 814.841 1567.89 811.945 1578.07 C 828.033 1562.68 858.06 1510.28 868.042 1489.43 z" fill="rgb(235,218,203)" transform="translate(0,0)"></path>
<path d="M 792.77 1586.94 C 791.369 1587.73 775.305 1599.44 776.445 1594.79 C 776.552 1594.36 793.667 1579.17 794.725 1583.54 C 794.089 1584.68 793.437 1585.81 792.77 1586.94 z" fill="rgb(9,8,8)" transform="translate(0,0)"></path>
<path d="M 792.77 1586.94 C 793.437 1585.81 794.089 1584.68 794.725 1583.54 C 795.678 1584.87 796.904 1586.3 797.958 1587.59 C 798.603 1588.19 798.424 1587.89 798.654 1588.37 C 798.305 1590.22 791.648 1594.7 789.872 1595.91 C 787.836 1597.28 785.79 1598.63 783.734 1599.97 C 788.531 1593.64 788.269 1594.01 793.863 1588.76 L 792.77 1586.94 z" fill="rgb(9,8,8)" transform="translate(0,0)"></path>
<path d="M 792.77 1586.94 C 793.437 1585.81 794.089 1584.68 794.725 1583.54 C 795.678 1584.87 796.904 1586.3 797.958 1587.59 C 796.589 1587.97 795.224 1588.36 793.863 1588.76 L 792.77 1586.94 z" fill="rgb(225,204,182)" transform="translate(0,0)"></path>
<path d="M 1182.53 1495.64 L 1184.24 1492.23 C 1194.23 1511.82 1222.63 1564.26 1238.33 1577.61 C 1234.06 1565.64 1223.86 1546.97 1217.73 1535.01 C 1246.07 1564.74 1273.71 1584.22 1312.52 1599.01 C 1273.91 1607.13 1235.51 1614.76 1196.27 1618.97 C 1189.88 1619.66 1183.49 1620.22 1177.11 1621.05 C 1189.1 1612.56 1198.87 1602.43 1201.24 1587.24 C 1204.82 1564.17 1190.9 1518.26 1182.53 1495.64 z" fill="rgb(235,218,203)" transform="translate(0,0)"></path>
<path d="M 1257.13 1585.1 C 1257.27 1584.52 1257.41 1583.93 1257.54 1583.34 C 1260.08 1585.18 1278.03 1595.05 1273.44 1596.47 C 1273.37 1596.49 1265.99 1592.72 1265.07 1592.26 C 1264.68 1593.52 1264.31 1594.79 1263.94 1596.07 C 1260.48 1597.3 1253.12 1590.11 1251.06 1587.29 C 1254.36 1586.6 1254.28 1586.7 1257.13 1585.1 z" fill="rgb(9,8,8)" transform="translate(0,0)"></path>
<path d="M 1257.13 1585.1 C 1257.27 1584.52 1257.41 1583.93 1257.54 1583.34 C 1260.08 1585.18 1278.03 1595.05 1273.44 1596.47 C 1273.37 1596.49 1265.99 1592.72 1265.07 1592.26 C 1262.09 1590.27 1258.33 1588.37 1257.13 1585.1 z" fill="rgb(9,8,8)" transform="translate(0,0)"></path>
<path d="M 1257.13 1585.1 C 1258.33 1588.37 1262.09 1590.27 1265.07 1592.26 C 1264.68 1593.52 1264.31 1594.79 1263.94 1596.07 C 1261.34 1592.63 1257.31 1588.41 1252.88 1587.64 L 1251.06 1587.29 C 1254.36 1586.6 1254.28 1586.7 1257.13 1585.1 z" fill="rgb(225,204,182)" transform="translate(0,0)"></path>
<path d="M 672.77 749.966 C 681.261 748.234 724.831 746.738 733.218 748.933 L 733.403 749.49 L 733.628 749.451 C 732.574 749.905 685.727 751.874 682.905 751.76 C 683.165 751.208 683.425 750.94 683.284 750.46 C 683.28 750.456 673.908 750.097 672.77 749.966 z" fill="rgb(225,82,78)" transform="translate(0,0)"></path>
<path d="M 532.236 861.264 C 532.606 858.559 534.221 846.387 536.47 844.854 C 537.129 845.285 534.987 860.261 534.498 862.04 L 532.236 861.264 z" fill="rgb(177,65,52)" transform="translate(0,0)"></path>
<path d="M 868.042 1489.43 C 868.875 1487.16 869.827 1484.97 870.826 1482.77 L 870.741 1482.91 L 872.056 1481.53 L 871.274 1481.93 C 871.943 1481.02 871.575 1481.26 872.166 1480.97 L 872.322 1480.98 C 873.074 1482.53 870.026 1489.83 869.42 1491.56 L 868.042 1489.43 z" fill="rgb(144,134,128)" transform="translate(0,0)"></path>
<path d="M 1178.76 1480.9 C 1180.55 1484.63 1182.58 1488.5 1184.24 1492.23 L 1182.53 1495.64 C 1181.44 1490.83 1179.93 1486.07 1178.76 1480.9 z" fill="rgb(250,249,248)" transform="translate(0,0)"></path>
<path d="M 1145.99 728.039 C 1144.68 728.049 1140.03 728.055 1138.91 727.513 C 1140.44 726.658 1149.42 726.04 1151.7 726.353 C 1149.87 728.013 1148.54 727.649 1145.99 728.039 z" fill="rgb(96,74,47)" transform="translate(0,0)"></path>
<path d="M 708.785 741.28 C 711.174 741.596 713.475 742.035 715.889 742.366 C 712.557 744.475 711.926 744.012 707.61 744.031 L 708.785 741.28 z" fill="rgb(127,50,51)" transform="translate(0,0)"></path>
<path d="M 904.43 726.008 C 906.654 725.977 913.893 725.55 915.365 726.827 C 915.449 727.212 915.456 727.048 915.381 727.33 C 913.985 728.108 911.291 727.923 909.674 727.92 L 904.43 726.008 z" fill="rgb(96,74,47)" transform="translate(0,0)"></path>
<path d="M 1369.26 735.181 C 1368.76 734.673 1368.85 734.863 1368.77 734.579 C 1369.6 733.558 1373.12 732.616 1374.67 731.89 L 1376.39 735.113 L 1369.26 735.181 z" fill="rgb(225,82,78)" transform="translate(0,0)"></path>
<metadata><recraft-signature>{"signed_by": "recraft", "signature_b64": "GJnBhAUXuAfbOiZJJudoYQVa7VACMckyaELY3w+zeFwrKjRqU8is/TTEnoG6XTsCWxq2CI3bfCuI0GEfeO+QBg==", "signing_algo": "Ed25519", "generation_timestamp": 1777513862, "identifier": "40b72b47-9925-4712-aceb-03632adf619d"}</recraft-signature></metadata></svg>