<svg xmlns="http://www.w3.org/2000/svg" height="1024" preserveAspectRatio="none" style="display: block;" version="1.1" viewBox="0 0 2048 2048" width="1024">
<defs>
	<linearGradient gradientUnits="userSpaceOnUse" id="Gradient1" x1="813.018" x2="739.578" y1="303.266" y2="349.508">
		<stop class="stop0" offset="0" stop-color="rgb(191,92,28)" stop-opacity="1"></stop>
		<stop class="stop1" offset="1" stop-color="rgb(217,113,39)" stop-opacity="1"></stop>
	</linearGradient>
</defs>

<path d="M 1003.81 244.29 C 1008.35 240.737 1022.86 233.79 1028.45 231.22 C 1046.83 222.696 1065.61 215.081 1084.74 208.4 C 1096 204.586 1109.85 201.039 1120.4 197.152 C 1086.59 230.395 1057.6 280.707 1097.94 323.303 C 1105.67 331.466 1118.1 339.101 1129.46 339.753 C 1152.45 336.562 1175.58 328.132 1198.92 324.806 C 1276.16 313.804 1358.76 317.043 1434.08 337.819 C 1442.62 340.081 1450.88 342.176 1459.24 345.116 C 1449.7 346.61 1443.84 347.667 1434.36 350.299 C 1403.98 363.072 1379.05 378.667 1365.83 410.767 C 1364.3 414.373 1363.01 418.07 1361.94 421.838 C 1378.12 446.374 1386.02 457.041 1388.17 488.029 C 1485.5 514.583 1578.17 571.945 1648.47 643.908 L 1636.08 641.25 C 1603.27 634.996 1572.51 635.949 1543.38 654.978 C 1538.59 658.11 1530.52 669.149 1528.79 670.131 C 1526.88 673.951 1524.9 678.132 1522.89 681.86 C 1518.3 697.152 1516.43 710.072 1523.74 725.584 C 1527.62 733.813 1539.29 742.593 1544.95 749.662 C 1559.64 767.997 1591.62 806.747 1600.79 827.882 C 1603.21 830.028 1615.27 851.106 1615.66 853.843 C 1633.54 879.698 1659.35 955.425 1665.42 986.246 C 1648.12 967.243 1632.78 956.326 1608.8 946.755 C 1576.2 933.744 1528.8 935.438 1515.01 974.276 C 1533.88 1048.8 1544.25 1118.36 1535.32 1195.74 C 1533.54 1211.17 1530.92 1229.47 1525.52 1243.92 C 1524.45 1238.38 1524.35 1236.1 1521.5 1231.17 L 1520.87 1230.45 C 1502.1 1211.78 1493.98 1193.88 1465.33 1181.58 C 1463.78 1181.33 1463.91 1181.36 1462.48 1182.05 C 1461.88 1181.37 1461.28 1180.7 1460.68 1180.02 C 1438.66 1169.71 1412.35 1168.81 1394.15 1186.99 L 1390.01 1192.12 L 1387.86 1192.71 C 1382.54 1209.08 1379.08 1226.09 1373.41 1243.01 C 1354.65 1297.83 1326.62 1349.01 1290.53 1394.33 L 1291.66 1396.6 L 1291.64 1398.28 C 1284.25 1410.22 1280.65 1418.98 1271.36 1431.7 L 1270.98 1432.42 L 1272.37 1433.66 C 1276.72 1442.61 1277.26 1444.8 1280.35 1453.97 L 1281.59 1453.52 C 1282.1 1454.91 1282.61 1456.3 1283.09 1457.7 C 1292.34 1484.24 1300.62 1516.41 1308.5 1543.88 L 1343.39 1664.29 C 1348.2 1681.77 1353.24 1699.19 1358.51 1716.54 C 1364.67 1736.9 1375.75 1762.05 1364.58 1781.83 C 1348.4 1810.49 1312.27 1829.2 1282.19 1839.29 C 1261.7 1846.17 1243.32 1847.71 1223.86 1837.66 C 1203.32 1850.22 1184.87 1851.42 1166.47 1834.31 C 1161.63 1835.85 1156.65 1837.57 1151.57 1837.53 C 1119.57 1837.23 1111.86 1801.03 1118.01 1775.98 C 1125 1747.51 1144.78 1725.91 1171.66 1714.91 C 1178.45 1712.13 1184.4 1710.99 1191.66 1709.59 L 1147.86 1615.56 C 1138.47 1595.54 1127.96 1574.55 1119.71 1554.16 C 1056.11 1578.3 992.517 1585.54 925.586 1572.87 C 917.49 1592.32 909.506 1616.14 901.855 1636.35 L 859.554 1746.42 C 855.163 1757.99 840.256 1801.79 834.267 1809.01 C 822.158 1823.61 767.968 1833.71 749.507 1834.58 C 727.136 1835.65 707.77 1833.99 690.353 1818.99 C 667.87 1823.85 653.47 1823.63 636.185 1806.06 C 603.39 1806.28 592.139 1780.57 596.673 1751.7 C 602.721 1716.17 641.887 1684.64 677.821 1685.97 C 690.672 1686.45 697.8 1691.47 711.285 1688.41 C 726.058 1619.81 739.121 1549.87 753.605 1480.95 C 723.331 1446.25 711.795 1427.54 693.926 1385.66 C 667.572 1386.13 641.072 1382.54 614.934 1379.78 L 614.364 1378.41 C 624.611 1373.47 634.21 1368.97 643.465 1361.95 C 653.188 1354.47 662.302 1346.23 670.719 1337.31 L 672.007 1335.98 C 672.983 1334.81 674.377 1332.9 674.333 1331.42 C 673.935 1317.78 671.056 1304.18 670.811 1290.51 C 669.739 1285.8 670.762 1275.89 671.083 1270.6 C 670.956 1263.94 673.596 1253.6 668.983 1249.37 L 666.915 1249.99 C 665.756 1252.8 665.65 1254.04 663.615 1256.08 C 657.741 1261.66 656.15 1266.92 651.738 1272.02 C 649.012 1269.8 623.149 1262.28 615.422 1258.67 C 586.244 1245.01 551.258 1224.89 526.275 1204.68 L 526.494 1201 L 527.359 1199.76 L 534.161 1188.51 C 487.911 1167.73 446.422 1144.81 406.173 1113.79 C 402.381 1110.87 391.768 1103.39 390.029 1099.95 C 393.26 1098.78 395.518 1099.76 399.293 1100.35 C 413.561 1101.12 421.308 1100.36 435.267 1099.68 C 437.215 1098.56 448.123 1097.07 451.452 1095.95 C 475.914 1087.66 491.371 1075.87 503.504 1053.81 C 509.218 1038.07 510.183 1016.67 502.147 1001.45 C 498.253 994.073 484.297 983.343 478.271 976.423 C 460.946 956.527 429.385 926.198 417.627 903.167 C 400.16 885.368 366.581 816.657 356.73 792.007 L 356.168 790.717 C 352.132 781.949 348.794 771.925 344.899 762.862 C 363.155 778.573 385.53 790.218 409.495 794.25 C 419.293 795.898 429.119 794.948 438.873 795.148 C 472.041 789.033 484.984 775.1 494.347 743.187 C 466.296 661.027 458.611 588.872 468.634 501.42 C 469.961 489.838 473.335 465.616 476.736 454.818 C 477.126 449.597 478.022 446.263 479.184 441.185 C 483.373 452.452 489.072 461.681 492.888 471.581 C 496.391 474.934 500.345 480.571 503.382 484.547 C 512.922 497.036 522.024 503.638 535.764 511.11 L 537.99 512.06 C 553.799 518.733 559.136 519.208 575.921 519.38 C 616.905 512.223 615.864 480.047 627.365 448.413 C 631.608 436.742 636.281 423.42 642.06 412.48 L 642.576 411.524 L 643.452 408.823 C 673.34 343.107 716.336 284.188 769.803 235.678 L 774.711 231.545 L 775.58 231.888 C 767.585 260.558 767.384 295.501 782.31 322.02 C 797.856 349.639 825.957 366.392 857.708 356.325 C 881.024 331.82 902.504 310.262 930.08 290.265 C 932.273 288.675 940.624 282.32 942.785 281.604 C 951.325 273.235 992.305 248.755 1003.81 244.29 z" fill="rgb(56,32,15)" transform="translate(0,0)"></path>
<path d="M 1003.81 244.29 C 1008.35 240.737 1022.86 233.79 1028.45 231.22 C 1046.83 222.696 1065.61 215.081 1084.74 208.4 C 1096 204.586 1109.85 201.039 1120.4 197.152 C 1086.59 230.395 1057.6 280.707 1097.94 323.303 C 1105.67 331.466 1118.1 339.101 1129.46 339.753 C 1152.45 336.562 1175.58 328.132 1198.92 324.806 C 1276.16 313.804 1358.76 317.043 1434.08 337.819 L 1433.05 339.003 L 1434.19 339.125 C 1431.23 341.249 1417.85 341.146 1413.33 341.363 C 1372.27 343.342 1338.38 356.616 1306.18 382.526 C 1266.22 367.763 1223.7 371.83 1189.99 399.094 C 1185.89 402.409 1178.56 409.841 1174.46 412.038 C 1121.73 440.237 1077.12 475.124 1055.58 533.09 C 1044.43 563.093 1043.71 588.578 1043.93 620.86 C 1028.95 618.569 985.245 616.768 971.261 621.179 L 971.017 622.786 C 953.637 625.857 938.063 629.018 921.495 635.706 C 898.245 643.651 887.139 651.487 867.171 662.832 C 849.728 673.856 828.886 692.872 815.457 708.99 C 806.835 720.153 800.716 729.505 792.637 740.646 C 760.861 799.475 750.837 863.624 770.12 928.553 C 773.134 938.383 776.588 948.072 780.471 957.591 L 778.66 957.689 C 785.853 973.715 792.282 985.018 802.478 999.406 C 806.265 1004.75 812.754 1012.81 815.903 1017.68 C 759.338 1058.32 713.771 1070.79 644.88 1066.94 L 645.006 1069 C 605.477 1064.81 574.157 1050.39 541.131 1029.55 C 540.494 1028.99 540.606 1029.03 539.847 1028.72 L 534.852 1025.38 C 533.906 1024.61 533.945 1024.62 532.863 1024.08 C 532.073 1023.4 531.838 1023.09 530.917 1022.65 L 516.174 1011.54 C 515.657 1010.98 515.676 1010.96 515.012 1010.58 L 505.255 1002.98 C 508.388 1013.57 514.146 1047.11 503.504 1053.81 C 509.218 1038.07 510.183 1016.67 502.147 1001.45 C 498.253 994.073 484.297 983.343 478.271 976.423 C 460.946 956.527 429.385 926.198 417.627 903.167 C 400.16 885.368 366.581 816.657 356.73 792.007 L 356.168 790.717 C 352.132 781.949 348.794 771.925 344.899 762.862 C 363.155 778.573 385.53 790.218 409.495 794.25 C 419.293 795.898 429.119 794.948 438.873 795.148 C 472.041 789.033 484.984 775.1 494.347 743.187 C 466.296 661.027 458.611 588.872 468.634 501.42 C 469.961 489.838 473.335 465.616 476.736 454.818 C 477.126 449.597 478.022 446.263 479.184 441.185 C 483.373 452.452 489.072 461.681 492.888 471.581 C 496.391 474.934 500.345 480.571 503.382 484.547 C 512.922 497.036 522.024 503.638 535.764 511.11 L 537.99 512.06 C 553.799 518.733 559.136 519.208 575.921 519.38 C 616.905 512.223 615.864 480.047 627.365 448.413 C 631.608 436.742 636.281 423.42 642.06 412.48 L 642.576 411.524 L 643.452 408.823 C 673.34 343.107 716.336 284.188 769.803 235.678 L 774.711 231.545 L 775.58 231.888 C 767.585 260.558 767.384 295.501 782.31 322.02 C 797.856 349.639 825.957 366.392 857.708 356.325 C 881.024 331.82 902.504 310.262 930.08 290.265 C 932.273 288.675 940.624 282.32 942.785 281.604 C 951.325 273.235 992.305 248.755 1003.81 244.29 z" fill="rgb(56,32,15)" transform="translate(0,0)"></path>
<path d="M 1261.64 320.877 C 1272.27 321.399 1299.3 321.41 1310.15 320.882 C 1344.82 322.678 1377.48 326.037 1411.34 333.762 C 1416.61 334.964 1428.32 337.225 1433.05 339.003 L 1434.19 339.125 C 1431.23 341.249 1417.85 341.146 1413.33 341.363 C 1372.27 343.342 1338.38 356.616 1306.18 382.526 C 1266.22 367.763 1223.7 371.83 1189.99 399.094 C 1185.89 402.409 1178.56 409.841 1174.46 412.038 C 1121.73 440.237 1077.12 475.124 1055.58 533.09 C 1044.43 563.093 1043.71 588.578 1043.93 620.86 C 1028.95 618.569 985.245 616.768 971.261 621.179 L 969.067 620.523 C 963.424 611.15 961.409 577.232 961.506 565.898 C 962.026 505.073 983.449 445.47 1026.34 401.911 C 1079.21 348.215 1187.89 320.867 1261.64 320.877 z" fill="rgb(253,179,35)" transform="translate(0,0)"></path>
<path d="M 1335.94 333.451 C 1336.57 334.042 1337.2 334.628 1337.84 335.209 C 1319.64 343.057 1316.64 349.27 1307.42 366.281 C 1305.91 369.07 1303.97 370.633 1300.66 370.779 C 1293.27 371.106 1280.6 367.026 1273.62 366.961 C 1254.7 366.785 1232.73 371.841 1214.55 376.418 C 1236.63 357.333 1259.18 353.238 1287.01 355.893 C 1297.4 335.07 1315.47 335.948 1335.94 333.451 z" fill="rgb(254,196,101)" transform="translate(0,0)"></path>
<path d="M 1335.94 333.451 C 1337.16 333.23 1339.88 332.529 1340.6 333.873 C 1340.19 334.899 1338.73 334.991 1337.84 335.209 C 1337.2 334.628 1336.57 334.042 1335.94 333.451 z" fill="rgb(216,153,46)" transform="translate(0,0)"></path>
<path d="M 356.73 792.007 C 358.39 789.124 354.338 785.096 354.437 780.158 C 361.754 786.754 367.103 795.29 374.183 801.82 C 403.804 829.141 436.478 842.553 475.331 850.92 L 476.657 852.435 C 483.252 860.071 488.918 869.915 495.258 877.588 C 552.507 946.878 644.63 992.152 735.197 971.791 C 742.122 970.235 777.404 957.473 778.66 957.689 C 785.853 973.715 792.282 985.018 802.478 999.406 C 806.265 1004.75 812.754 1012.81 815.903 1017.68 C 759.338 1058.32 713.771 1070.79 644.88 1066.94 L 645.006 1069 C 605.477 1064.81 574.157 1050.39 541.131 1029.55 C 540.494 1028.99 540.606 1029.03 539.847 1028.72 L 534.852 1025.38 C 533.906 1024.61 533.945 1024.62 532.863 1024.08 C 532.073 1023.4 531.838 1023.09 530.917 1022.65 L 516.174 1011.54 C 515.657 1010.98 515.676 1010.96 515.012 1010.58 L 505.255 1002.98 C 508.388 1013.57 514.146 1047.11 503.504 1053.81 C 509.218 1038.07 510.183 1016.67 502.147 1001.45 C 498.253 994.073 484.297 983.343 478.271 976.423 C 460.946 956.527 429.385 926.198 417.627 903.167 C 400.16 885.368 366.581 816.657 356.73 792.007 z" fill="rgb(253,179,35)" transform="translate(0,0)"></path>
<path d="M 417.627 903.167 C 420.743 904.388 437.525 928.061 441.442 932.773 C 495.547 997.847 557.805 1055.71 644.88 1066.94 L 645.006 1069 C 605.477 1064.81 574.157 1050.39 541.131 1029.55 C 540.494 1028.99 540.606 1029.03 539.847 1028.72 L 534.852 1025.38 C 533.906 1024.61 533.945 1024.62 532.863 1024.08 C 532.073 1023.4 531.838 1023.09 530.917 1022.65 L 516.174 1011.54 C 515.657 1010.98 515.676 1010.96 515.012 1010.58 L 505.255 1002.98 C 508.388 1013.57 514.146 1047.11 503.504 1053.81 C 509.218 1038.07 510.183 1016.67 502.147 1001.45 C 498.253 994.073 484.297 983.343 478.271 976.423 C 460.946 956.527 429.385 926.198 417.627 903.167 z" fill="rgb(56,32,15)" transform="translate(0,0)"></path>
<path d="M 408.591 857.642 C 412.067 858.299 418.356 864.292 422.251 866.311 C 441.465 876.27 459.243 877.277 480.097 877 C 486.848 887.781 492.061 899.036 499.648 909.458 C 510.201 923.952 524.044 936.312 537.456 948.115 C 532.94 947.53 521.743 944.101 517.391 942.271 C 491.519 931.391 478.7 920.132 467.448 895.21 C 438.186 889.281 425.76 881.987 408.591 857.642 z" fill="rgb(254,196,101)" transform="translate(0,0)"></path>
<path d="M 700.499 518.064 C 689.748 482.736 689.001 455.834 708.525 422.715 C 724.17 396.543 749.614 377.698 779.21 370.36 C 812.88 361.66 841.392 368.275 870.918 385.643 C 871.678 386.069 871.511 385.938 872.211 386.497 C 881.637 393.41 888.349 399.642 895.6 408.971 C 895.978 409.625 896.009 409.658 896.537 410.202 C 913.972 435.971 922.493 461.395 915.824 492.577 C 899.33 569.695 807.456 611.375 740.83 566.063 C 739.677 565.284 739.374 565.173 738.072 564.551 C 722.234 553.743 713.168 540.645 703.326 524.694 C 703.083 524.408 702.84 524.122 702.597 523.835 C 701.911 521.851 701.281 520.024 700.499 518.064 z" fill="rgb(214,111,36)" transform="translate(0,0)"></path>
<path d="M 786.237 402.615 C 828.116 399.046 864.934 430.163 868.392 472.052 C 871.851 513.941 840.637 550.676 798.739 554.024 C 756.998 557.36 720.429 526.287 716.983 484.554 C 713.537 442.822 744.514 406.171 786.237 402.615 z" fill="rgb(56,32,15)" transform="translate(0,0)"></path>
<path d="M 787.492 404.522 C 828.05 401.694 863.285 432.138 866.371 472.678 C 869.458 513.218 839.238 548.646 798.719 551.991 C 757.833 555.366 722.013 524.813 718.899 483.906 C 715.784 442.999 746.565 407.375 787.492 404.522 z" fill="rgb(253,179,35)" transform="translate(0,0)"></path>
<path d="M 782.256 436.338 C 806.153 432.412 828.731 448.532 832.779 472.409 C 836.828 496.285 820.825 518.946 796.969 523.117 C 772.939 527.319 750.076 511.173 745.998 487.122 C 741.921 463.071 758.184 440.291 782.256 436.338 z" fill="rgb(56,32,15)" transform="translate(0,0)"></path>
<path d="M 816.859 448.049 C 834.1 463.085 836.147 489.149 821.465 506.692 C 806.783 524.235 780.766 526.812 762.928 512.489 C 745.09 498.167 741.985 472.208 755.941 454.082 C 769.898 435.957 795.789 432.324 814.194 445.909 C 815.323 446.708 815.827 447.128 816.859 448.049 z" fill="rgb(214,111,36)" transform="translate(0,0)"></path>
<path d="M 780.941 455.74 C 789.847 453.913 799.048 457.014 805.03 463.86 C 811.012 470.706 812.851 480.24 809.845 488.82 C 806.839 497.4 799.452 503.702 790.505 505.318 C 776.899 507.776 763.846 498.831 761.227 485.255 C 758.608 471.678 767.397 458.52 780.941 455.74 z" fill="rgb(56,32,15)" transform="translate(0,0)"></path>
<path d="M 781.641 457.664 C 789.89 456.071 798.355 459.058 803.779 465.474 C 809.202 471.889 810.738 480.734 807.794 488.602 C 804.85 496.471 797.887 502.136 789.584 503.417 C 777.077 505.346 765.328 496.906 763.163 484.437 C 760.999 471.969 769.216 460.063 781.641 457.664 z" fill="rgb(253,179,35)" transform="translate(0,0)"></path>
<path d="M 769.803 235.678 L 771.65 238.552 C 767.851 242.27 767.296 243.894 764.829 248.589 C 749.69 279.678 744.632 311.683 748.095 346.304 C 749.14 356.762 752.795 368.23 753.785 377.004 L 752.509 377.778 C 744.761 383.271 736.286 388.359 728.937 394.916 C 700.338 420.434 685.044 461.647 692.705 499.54 C 693.986 505.879 697.273 512.388 698.079 518.874 C 699.014 532.313 698.72 545.166 700.323 558.643 L 700.692 559.905 C 701.636 583.638 712.736 610.155 723.069 631.22 C 720.887 633.466 718.589 635.841 716.569 638.228 C 702.74 654.526 695.881 675.613 697.477 696.929 C 699.659 724.408 712.854 743.147 733.081 760.442 C 703.712 745.868 677.844 725.112 657.253 699.598 C 642.378 681.377 634.307 665.459 624.593 645.159 C 587.784 568.241 613.28 487.092 642.521 412.838 C 642.539 412.4 642.558 411.962 642.576 411.524 L 643.452 408.823 C 673.34 343.107 716.336 284.188 769.803 235.678 z" fill="rgb(253,179,35)" transform="translate(0,0)"></path>
<path d="M 769.803 235.678 L 771.65 238.552 C 767.851 242.27 767.296 243.894 764.829 248.589 L 763.616 246.173 L 762.276 245.44 C 756.544 249.556 748.965 257.903 743.818 263.314 C 715.228 293.11 690.26 326.181 669.433 361.838 C 665.63 368.361 646.783 406.74 643.452 408.823 C 673.34 343.107 716.336 284.188 769.803 235.678 z" fill="rgb(9,7,6)" transform="translate(0,0)"></path>
<path d="M 752.509 377.778 C 739.223 328.423 743.558 292.409 763.616 246.173 L 764.829 248.589 C 749.69 279.678 744.632 311.683 748.095 346.304 C 749.14 356.762 752.795 368.23 753.785 377.004 L 752.509 377.778 z" fill="rgb(84,42,15)" transform="translate(0,0)"></path>
<path d="M 730.579 301.9 L 731.321 302.898 C 721.527 321.879 726.587 345.435 732.63 364.942 C 713.513 383.188 705.003 396.455 695.62 421.893 C 692.776 429.603 691.122 437.597 688.124 445.442 L 687.725 446.461 C 680.876 441.541 682.763 415.807 684.23 407.715 C 688.352 384.988 699.709 371.391 718.241 358.542 C 712.014 339.82 716.218 315.926 730.579 301.9 z" fill="rgb(254,196,101)" transform="translate(0,0)"></path>
<path d="M 479.184 441.185 C 483.373 452.452 489.072 461.681 492.888 471.581 C 496.391 474.934 500.345 480.571 503.382 484.547 C 512.922 497.036 522.024 503.638 535.764 511.11 L 537.99 512.06 C 553.799 518.733 559.136 519.208 575.921 519.38 L 575.823 521.527 C 592.675 517.172 600.774 513.996 611.744 499.62 C 607.634 521.085 603.947 541.252 604.027 563.314 C 604.18 605.391 621.08 651.315 644.536 685.894 C 654.265 700.023 665.5 713.054 678.044 724.756 C 678.894 725.976 679.091 726.316 680.416 726.937 L 686.081 731.7 C 687.361 732.408 687.359 732.267 688.093 733.361 L 699.94 742.648 C 700.756 743.113 700.709 743.09 701.461 743.711 L 703.878 745.429 C 704.302 746.154 704.721 746.299 705.45 746.802 C 707.214 747.705 708.248 748.499 709.884 749.637 C 710.363 750.3 711.281 750.809 711.993 751.305 C 713.162 751.662 712.995 751.597 714.018 752.287 L 719.872 755.518 C 720.547 755.814 720.751 755.807 721.158 756.32 C 735.086 763.964 757.748 774.384 772.266 780.693 C 766.667 797.363 762.807 811.131 760.557 828.539 C 659.078 822.549 584.912 762.639 556.721 665.369 C 548.01 635.314 543.058 608.128 542.966 576.74 C 526.985 563.127 511.519 541.74 501.648 523.335 C 494.229 509.503 478.002 469.733 482.664 454.724 C 481.37 445.5 478.136 454.305 477.303 455.24 C 477.114 455.1 476.925 454.959 476.736 454.818 C 477.126 449.597 478.022 446.263 479.184 441.185 z" fill="rgb(214,111,36)" transform="translate(0,0)"></path>
<path d="M 575.823 521.527 C 568.542 523.03 556.148 520.622 549.048 518.249 L 547.598 517.752 C 545.039 516.898 535.036 514.461 535.764 511.11 L 537.99 512.06 C 553.799 518.733 559.136 519.208 575.921 519.38 L 575.823 521.527 z" fill="rgb(185,107,53)" transform="translate(0,0)"></path>
<path d="M 479.184 441.185 C 483.373 452.452 489.072 461.681 492.888 471.581 C 489.719 470.693 484.441 458.165 482.664 454.724 C 481.37 445.5 478.136 454.305 477.303 455.24 C 477.114 455.1 476.925 454.959 476.736 454.818 C 477.126 449.597 478.022 446.263 479.184 441.185 z" fill="rgb(9,7,6)" transform="translate(0,0)"></path>
<path d="M 495.211 747.524 C 508.486 777.33 519.896 799.839 540.438 825.833 C 541.085 826.44 540.972 826.273 541.395 826.995 C 587.952 883.82 689.751 925.974 762.098 905.472 C 766.661 923.982 770.875 937.022 777.263 954.912 C 678.558 1000.12 577.357 963.276 506.118 887.151 C 494.787 875.043 486.975 862.193 476.694 849.628 C 468.846 846.854 455.896 844.699 446.419 841.45 C 406.167 827.654 383.39 810.298 356.444 779.004 L 354.437 780.158 C 354.338 785.096 358.39 789.124 356.73 792.007 L 356.168 790.717 C 352.132 781.949 348.794 771.925 344.899 762.862 C 363.155 778.573 385.53 790.218 409.495 794.25 C 419.293 795.898 429.119 794.948 438.873 795.148 L 438.839 797.025 C 470.595 791.644 484.885 777.671 495.211 747.524 z" fill="rgb(214,111,36)" transform="translate(0,0)"></path>
<path d="M 344.899 762.862 C 363.155 778.573 385.53 790.218 409.495 794.25 C 419.293 795.898 429.119 794.948 438.873 795.148 L 438.839 797.025 C 428.382 796.703 420.819 797.409 410.494 796.068 C 387.451 793.076 370.42 782.437 351.02 771.414 C 352.872 774.111 354.687 776.222 356.444 779.004 L 354.437 780.158 C 354.338 785.096 358.39 789.124 356.73 792.007 L 356.168 790.717 C 352.132 781.949 348.794 771.925 344.899 762.862 z" fill="rgb(9,7,6)" transform="translate(0,0)"></path>
<path d="M 1003.81 244.29 C 1007.46 243.885 1012.49 240.618 1016.04 238.962 C 1043.7 226.048 1075.52 211.431 1105.06 203.928 C 1060.34 236.899 1028.52 271.994 1017.43 328.988 C 973.665 354.45 931.706 390.096 914.39 439.285 C 898.607 403.218 884.631 388.054 848.403 371.977 C 860.921 352.789 878.8 335.624 895.881 320.392 C 902.762 314.256 941.84 283.941 942.785 281.604 C 951.325 273.235 992.305 248.755 1003.81 244.29 z" fill="rgb(253,179,35)" transform="translate(0,0)"></path>
<path d="M 1026.3 246.888 L 1027.05 247.18 C 1027.03 248.825 1019.66 259.981 1018.05 263.685 C 1009.92 282.463 1009.19 295.226 1011.3 314.938 C 982.638 323.54 958.332 349.029 937.695 370.15 L 936.34 370.852 L 936.134 368.992 C 949.975 335.179 961.334 319.218 993.838 301.812 C 993.908 300.309 993.999 298.806 994.109 297.305 C 995.947 272.853 1009.12 261.674 1026.3 246.888 z" fill="rgb(254,196,101)" transform="translate(0,0)"></path>
<path d="M 775.017 773.811 C 767.139 772.285 760.004 771.026 752.506 768.127 C 731.965 759.984 715.43 744.123 706.439 723.939 C 687.587 681.106 708.809 632.233 750.927 614.689 C 797.207 595.41 843.082 620.19 862.114 663.795 C 850.6 671.929 842.509 678.448 832.366 688.217 C 828.178 692.488 815.516 703.841 815.457 708.99 C 806.835 720.153 800.716 729.505 792.637 740.646 L 791.321 740.134 C 790.467 741.466 788.49 744.755 787.565 745.786 C 782.501 755.19 778.926 763.957 775.017 773.811 z" fill="rgb(185,107,53)" transform="translate(0,0)"></path>
<path d="M 787.565 745.786 C 775.834 741.468 767.421 745.034 753.923 734.823 C 729.722 716.515 721.708 685.318 742.237 659.824 C 750.969 649.01 763.651 642.122 777.476 640.686 C 808.396 637.346 830.252 657.873 832.366 688.217 C 828.178 692.488 815.516 703.841 815.457 708.99 C 806.835 720.153 800.716 729.505 792.637 740.646 L 791.321 740.134 C 790.467 741.466 788.49 744.755 787.565 745.786 z" fill="rgb(131,64,32)" transform="translate(0,0)"></path>
<path d="M 791.323 586.416 C 792.143 586.472 792.963 586.52 793.784 586.561 C 831.025 588.545 859.162 575.636 886.193 551.316 C 895.091 587.667 900.103 602.231 920.655 634.39 L 921.495 635.706 C 898.245 643.651 887.139 651.487 867.171 662.832 L 864.335 661.499 C 861.636 659.356 857.935 650.309 855.63 646.564 C 841.869 624.212 821.209 613.58 796.916 607.158 C 793.708 599.69 792.661 594.317 791.323 586.416 z" fill="rgb(253,179,35)" transform="translate(0,0)"></path>
<path d="M 920.655 634.39 L 921.495 635.706 C 898.245 643.651 887.139 651.487 867.171 662.832 L 864.335 661.499 C 869.877 658.905 875.497 654.911 881.008 651.814 C 893.614 644.707 906.894 638.87 920.655 634.39 z" fill="rgb(91,55,19)" transform="translate(0,0)"></path>
<path d="M 771.65 238.552 C 771.865 240.453 771.73 241.555 771.16 243.374 C 768.019 253.394 768.86 263.102 768.805 273.362 C 768.639 304.419 779.785 330.286 804.133 349.499 C 804.853 349.822 804.734 349.786 805.281 350.423 C 826.265 361.925 830.474 361.145 853.445 360.114 C 852.628 362.992 848.032 368.963 846.093 371.722 C 819.031 362.496 801.073 361.654 772.975 369.89 C 767.828 371.399 757.997 376.233 753.785 377.004 C 752.795 368.23 749.14 356.762 748.095 346.304 C 744.632 311.683 749.69 279.678 764.829 248.589 C 767.296 243.894 767.851 242.27 771.65 238.552 z" fill="url(#Gradient1)" transform="translate(0,0)"></path>
<path d="M 700.472 522.238 C 711.32 543.141 718.533 552.477 737.349 566.832 C 737.922 567.13 738.499 567.421 739.079 567.704 C 755.597 578.2 770.774 582.386 789.494 586.3 C 790.867 594.688 792.017 598.995 794.489 607.184 C 792.605 606.969 790.718 606.786 788.829 606.632 C 762.676 604.546 744.289 613.141 724.935 629.761 C 713.853 609.437 704.925 585.094 702.964 561.898 C 702.852 560.477 702.825 559.794 702.567 558.42 C 700.826 546.482 700.801 534.312 700.472 522.238 z" fill="rgb(214,111,36)" transform="translate(0,0)"></path>
<path d="M 1261.64 320.877 C 1270.9 319.225 1301.01 319.144 1310.15 320.882 C 1299.3 321.41 1272.27 321.399 1261.64 320.877 z" fill="rgb(178,117,31)" transform="translate(0,0)"></path>
<path d="M 702.597 523.835 C 701.833 523.802 701.066 523.764 700.307 523.726 C 699.785 523.583 699.376 523.176 699.231 522.654 C 698.855 521.284 699.947 519.209 700.499 518.064 C 701.281 520.024 701.911 521.851 702.597 523.835 z" fill="rgb(9,7,6)" transform="translate(0,0)"></path>
<path d="M 738.072 564.551 C 739.374 565.173 739.677 565.284 740.83 566.063 L 739.079 567.704 C 738.499 567.421 737.922 567.13 737.349 566.832 C 737.583 566.07 737.824 565.309 738.072 564.551 z" fill="rgb(91,55,19)" transform="translate(0,0)"></path>
<path d="M 700.323 558.643 L 702.567 558.42 C 702.825 559.794 702.852 560.477 702.964 561.898 L 700.692 559.905 L 700.323 558.643 z" fill="rgb(91,55,19)" transform="translate(0,0)"></path>
<path d="M 477.449 457.555 C 479.355 459.316 483.444 480.944 484.846 486.022 C 493.685 518.034 515.47 556.503 540.856 577.665 C 540.564 612.777 548.982 649.443 560.347 682.584 C 589.667 768.088 668.56 828.833 760.263 830.099 C 757.191 854.737 757.892 879.699 762.343 904.125 L 752.997 905.796 C 729.06 909.509 704.657 908.984 680.902 904.246 C 635.795 895.503 579.995 868.933 549.784 833.883 C 464.804 735.293 453.52 579.006 477.449 457.555 z" fill="rgb(253,179,35)" transform="translate(0,0)"></path>
<path d="M 490.594 542.546 C 492.763 545.467 493.148 548.209 494.732 551.317 C 503.763 569.031 514.065 576.439 532.172 583.476 C 532.016 612.22 533.962 641.343 544.654 668.364 C 546.022 671.82 549.538 679.233 548.241 682.693 L 546.16 682.291 C 515.041 656.345 498.606 631.157 510.871 590.196 C 509.439 588.938 508.047 587.636 506.695 586.293 C 493.206 572.833 490.753 560.691 490.594 542.546 z" fill="rgb(254,196,101)" transform="translate(0,0)"></path>
<path d="M 1108.24 203.725 L 1108.85 203.945 C 1109.51 206.278 1055.85 259.201 1086.12 311.124 C 1095.23 326.55 1110.09 337.738 1127.43 342.241 C 1072.62 357.89 1023.1 391.684 993.48 441.058 C 961.276 495.36 951.675 560.134 966.742 621.442 C 955.971 623.287 949.35 624.703 938.738 627.498 C 933.226 629.174 927.588 631.199 922.119 633.066 C 903.956 606.96 894.212 579.646 888.285 548.678 C 916.775 513.932 926.401 486.177 915.669 441.459 C 934.376 390.482 972.882 356.853 1018.75 330.451 C 1034.19 267.13 1059.03 241.479 1108.24 203.725 z" fill="rgb(214,111,36)" transform="translate(0,0)"></path>
<path d="M 761.794 773.265 C 766.964 773.721 771.816 773.553 774.864 777.836 C 769.676 778.096 766.027 776.748 761.794 773.265 z" fill="rgb(214,111,36)" transform="translate(0,0)"></path>
<path d="M 990.689 620.88 C 999.413 621.209 1013.26 621.136 1022.08 620.913 C 1092.61 625.506 1150.77 652.987 1198.11 706.212 C 1223.63 734.894 1247.7 782.361 1251.07 820.912 C 1251.37 891.518 1220 963.161 1163.09 1005.98 C 1159.3 1014.42 1157.42 1027.88 1153.84 1037.47 C 1151.11 1044.79 1143.82 1056.7 1142 1062.72 C 1101.23 1093.55 1034.12 1106.86 984.093 1101.64 L 985.247 1104.03 L 981.608 1103.86 C 981.563 1102.94 981.533 1102.02 981.516 1101.11 C 946.418 1100.41 906.126 1082.89 876.091 1065.65 L 874.593 1066.66 C 872.429 1065.17 870.409 1063.86 868.183 1062.46 C 867.594 1061.91 867.685 1061.92 866.98 1061.61 C 861.965 1058.28 859.923 1054.53 855.258 1058 C 845.954 1069.34 835.167 1081.29 824.008 1090.9 L 822.818 1089.22 C 833.735 1081.17 847.042 1064.95 855.929 1054.27 C 846.296 1047.39 839.006 1041.05 830.561 1032.64 C 826.188 1028.28 821.329 1022.63 816.593 1018.99 L 815.903 1017.68 C 812.754 1012.81 806.265 1004.75 802.478 999.406 C 792.282 985.018 785.853 973.715 778.66 957.689 L 780.471 957.591 C 776.588 948.072 773.134 938.383 770.12 928.553 C 750.837 863.624 760.861 799.475 792.637 740.646 C 800.716 729.505 806.835 720.153 815.457 708.99 C 828.886 692.872 849.728 673.856 867.171 662.832 C 887.139 651.487 898.245 643.651 921.495 635.706 C 938.063 629.018 953.637 625.857 971.017 622.786 C 978.67 621.637 982.985 621.132 990.689 620.88 z" fill="rgb(253,179,35)" transform="translate(0,0)"></path>
<path d="M 903.48 885.966 C 926.119 866.165 945.488 857.356 975.539 851.587 C 1020.48 842.765 1067.07 852.416 1104.81 878.363 C 1107.85 877.63 1108.92 877.361 1111.78 879.477 C 1145.94 904.769 1164.93 943.56 1164.79 986.028 C 1164.76 992.626 1162.85 999.442 1163.09 1005.98 C 1159.3 1014.42 1157.42 1027.88 1153.84 1037.47 C 1151.11 1044.79 1143.82 1056.7 1142 1062.72 C 1101.23 1093.55 1034.12 1106.86 984.093 1101.64 L 985.247 1104.03 L 981.608 1103.86 C 981.563 1102.94 981.533 1102.02 981.516 1101.11 C 946.418 1100.41 906.126 1082.89 876.091 1065.65 L 874.864 1064.35 C 870.405 1051.37 860.396 1036.79 856.906 1025.25 C 856.106 1020.21 853.806 1013.87 852.775 1007.74 C 849.191 986.382 851.308 963.572 857.733 943.001 C 864.629 920.921 883.018 893.399 903.852 882.746 L 903.48 885.966 z" fill="rgb(237,219,193)" transform="translate(0,0)"></path>
<path d="M 1104.81 878.363 C 1107.85 877.63 1108.92 877.361 1111.78 879.477 C 1145.94 904.769 1164.93 943.56 1164.79 986.028 C 1164.76 992.626 1162.85 999.442 1163.09 1005.98 C 1159.3 1014.42 1157.42 1027.88 1153.84 1037.47 C 1151.11 1044.79 1143.82 1056.7 1142 1062.72 C 1101.23 1093.55 1034.12 1106.86 984.093 1101.64 L 985.247 1104.03 L 981.608 1103.86 C 981.563 1102.94 981.533 1102.02 981.516 1101.11 C 946.418 1100.41 906.126 1082.89 876.091 1065.65 L 874.864 1064.35 C 870.405 1051.37 860.396 1036.79 856.906 1025.25 C 856.106 1020.21 853.806 1013.87 852.775 1007.74 C 849.191 986.382 851.308 963.572 857.733 943.001 C 864.629 920.921 883.018 893.399 903.852 882.746 L 903.48 885.966 C 867.452 926.11 863.565 980.084 902.334 1019.99 C 971.577 1091.25 1139.14 1066 1141.03 951.407 C 1141.55 920.019 1126.15 899.071 1104.81 878.363 z" fill="rgb(216,153,46)" transform="translate(0,0)"></path>
<path d="M 981.516 1101.11 C 982.951 1101.27 982.74 1101.21 984.093 1101.64 L 985.247 1104.03 L 981.608 1103.86 C 981.563 1102.94 981.533 1102.02 981.516 1101.11 z" fill="rgb(129,89,24)" transform="translate(0,0)"></path>
<path d="M 967.797 861.288 C 980.723 862.04 994.432 866.95 1007.42 867.213 C 1025.98 867.858 1045.82 856.365 1063.88 865.136 C 1089.05 877.358 1078.59 898.805 1059.69 910.619 C 1043.52 920.727 1032.01 925.745 1014.95 932.325 C 1015.69 951.875 1019.14 973.019 1040.34 980.652 C 1050.02 983.872 1066.35 978.58 1069.85 968.344 C 1071.64 963.09 1075.43 952.416 1082.7 956.685 C 1085.18 961.077 1085.35 968.718 1083.52 973.166 C 1074.56 994.873 1051.24 997.548 1032.8 991.919 C 1019.04 985.91 1014.12 979.852 1007.44 967.142 C 1002.01 978.665 993.577 987.387 981.462 991.962 C 970.79 996.007 958.932 995.542 948.61 990.673 C 937.284 985.272 919.959 960.334 936.985 956.964 C 943.725 959.114 945.21 971.993 950.178 974.881 C 986.558 996.032 1000.22 959.896 999.511 932.12 C 975.54 923.237 945.766 912.846 936.434 886.593 C 941.405 869.149 950.407 863.911 967.797 861.288 z" fill="rgb(131,64,32)" transform="translate(0,0)"></path>
<path d="M 780.471 957.591 C 784.269 965.063 788.653 974.341 793.255 981.158 C 797.978 983.054 797.072 983.273 800.611 986.69 C 817.069 1002.58 835.188 1017.19 856.906 1025.25 C 860.396 1036.79 870.405 1051.37 874.864 1064.35 L 876.091 1065.65 L 874.593 1066.66 C 872.429 1065.17 870.409 1063.86 868.183 1062.46 C 867.594 1061.91 867.685 1061.92 866.98 1061.61 C 861.965 1058.28 859.923 1054.53 855.258 1058 C 845.954 1069.34 835.167 1081.29 824.008 1090.9 L 822.818 1089.22 C 833.735 1081.17 847.042 1064.95 855.929 1054.27 C 846.296 1047.39 839.006 1041.05 830.561 1032.64 C 826.188 1028.28 821.329 1022.63 816.593 1018.99 L 815.903 1017.68 C 812.754 1012.81 806.265 1004.75 802.478 999.406 C 792.282 985.018 785.853 973.715 778.66 957.689 L 780.471 957.591 z" fill="rgb(192,131,34)" transform="translate(0,0)"></path>
<path d="M 780.471 957.591 C 784.269 965.063 788.653 974.341 793.255 981.158 C 810.726 1014.63 842.912 1044.83 874.864 1064.35 L 876.091 1065.65 L 874.593 1066.66 C 872.429 1065.17 870.409 1063.86 868.183 1062.46 C 867.594 1061.91 867.685 1061.92 866.98 1061.61 C 861.965 1058.28 859.923 1054.53 855.258 1058 C 845.954 1069.34 835.167 1081.29 824.008 1090.9 L 822.818 1089.22 C 833.735 1081.17 847.042 1064.95 855.929 1054.27 C 846.296 1047.39 839.006 1041.05 830.561 1032.64 C 826.188 1028.28 821.329 1022.63 816.593 1018.99 L 815.903 1017.68 C 812.754 1012.81 806.265 1004.75 802.478 999.406 C 792.282 985.018 785.853 973.715 778.66 957.689 L 780.471 957.591 z" fill="rgb(56,32,15)" transform="translate(0,0)"></path>
<path d="M 891.37 792.267 C 909.078 788.998 926.141 800.513 929.736 818.158 C 933.33 835.802 922.132 853.075 904.556 856.994 C 892.896 859.594 880.74 855.695 872.766 846.799 C 864.793 837.902 862.245 825.393 866.102 814.086 C 869.96 802.779 879.622 794.435 891.37 792.267 z" fill="rgb(255,255,255)" transform="translate(0,0)"></path>
<path d="M 917.518 814.046 C 927.56 839.61 901.465 857.224 883.037 842.489 C 859.412 823.599 890.245 783.69 915.101 810.404 C 916.128 811.809 916.659 812.557 917.518 814.046 z" fill="rgb(9,7,6)" transform="translate(0,0)"></path>
<path d="M 915.616 816.884 C 904.598 828.266 902.443 808.979 912.947 810.591 C 913.808 812.721 914.733 814.766 915.616 816.884 z" fill="rgb(255,255,255)" transform="translate(0,0)"></path>
<path d="M 1116.62 792.047 C 1134.64 789.938 1150.97 802.794 1153.16 820.806 C 1155.34 838.818 1142.56 855.207 1124.55 857.469 C 1106.44 859.744 1089.93 846.864 1087.74 828.744 C 1085.54 810.624 1098.49 794.169 1116.62 792.047 z" fill="rgb(255,255,255)" transform="translate(0,0)"></path>
<path d="M 1139.17 811.828 C 1151.37 834.691 1129.95 854.702 1111.45 846.156 C 1085.2 834.025 1100.28 788.649 1133.54 806.31 C 1136.02 808.417 1137.01 809.342 1139.17 811.828 z" fill="rgb(9,7,6)" transform="translate(0,0)"></path>
<path d="M 1133.54 806.31 C 1136.02 808.417 1137.01 809.342 1139.17 811.828 L 1138.28 813.917 C 1133.82 826.15 1123.09 818.22 1132.99 808.785 C 1133.17 807.96 1133.36 807.135 1133.54 806.31 z" fill="rgb(255,255,255)" transform="translate(0,0)"></path>
<path d="M 1133.54 806.31 C 1136.02 808.417 1137.01 809.342 1139.17 811.828 L 1138.28 813.917 C 1136.52 812.181 1134.74 810.525 1132.99 808.785 C 1133.17 807.96 1133.36 807.135 1133.54 806.31 z" fill="rgb(9,7,6)" transform="translate(0,0)"></path>
<path d="M 1100.28 711.103 C 1111.78 710.651 1122.21 715.479 1133.6 718.643 L 1135.48 719.154 C 1137.83 719.787 1140.16 720.466 1142.48 721.193 C 1164.85 728.335 1168.61 747.05 1146.8 758.577 C 1134.48 759.456 1116.12 750.937 1103.56 747.761 C 1097.33 746.186 1090.07 741.644 1087.2 735.414 C 1085.24 731.17 1085.15 726.301 1086.95 721.987 C 1089.6 715.494 1094.37 713.635 1100.28 711.103 z" fill="rgb(131,64,32)" transform="translate(0,0)"></path>
<path d="M 911.96 710.343 C 934.769 712.078 933.958 739.793 919.724 744.631 C 911.746 747.343 882.492 758.067 874.515 759.594 L 873.007 759.38 C 868.892 758.835 867.034 758.584 863.425 756.115 C 859.287 753.329 856.502 748.939 855.744 744.008 C 852.378 721.474 883.358 719.871 897.973 713.659 C 902.282 711.828 907.326 711.046 911.96 710.343 z" fill="rgb(131,64,32)" transform="translate(0,0)"></path>
<path d="M 503.504 1053.81 C 514.146 1047.11 508.388 1013.57 505.255 1002.98 L 515.012 1010.58 C 515.676 1010.96 515.657 1010.98 516.174 1011.54 L 530.917 1022.65 C 531.838 1023.09 532.073 1023.4 532.863 1024.08 C 533.945 1024.62 533.906 1024.61 534.852 1025.38 L 539.847 1028.72 C 540.606 1029.03 540.494 1028.99 541.131 1029.55 C 574.157 1050.39 605.477 1064.81 645.006 1069 L 644.88 1066.94 C 713.771 1070.79 759.338 1058.32 815.903 1017.68 L 816.593 1018.99 C 821.329 1022.63 826.188 1028.28 830.561 1032.64 C 839.006 1041.05 846.296 1047.39 855.929 1054.27 C 847.042 1064.95 833.735 1081.17 822.818 1089.22 L 824.008 1090.9 C 835.167 1081.29 845.954 1069.34 855.258 1058 C 859.923 1054.53 861.965 1058.28 866.98 1061.61 C 867.685 1061.92 867.594 1061.91 868.183 1062.46 C 870.409 1063.86 872.429 1065.17 874.593 1066.66 L 876.091 1065.65 C 906.126 1082.89 946.418 1100.41 981.516 1101.11 C 981.533 1102.02 981.563 1102.94 981.608 1103.86 C 981.06 1106.71 980.327 1109.16 979.647 1111.96 C 955.882 1236 856.018 1288.13 739.639 1296.65 C 718.718 1320.76 711.735 1328.65 684.066 1346.33 C 678.09 1350.49 662.754 1359.36 655.938 1361.47 C 654.573 1363.69 649.984 1364.99 647.281 1366.2 C 639.612 1369.59 631.881 1372.83 624.091 1375.93 L 623.858 1378.98 C 621.911 1378.7 621.78 1378.46 619.871 1377.48 C 617.734 1379.44 617.24 1378.74 614.364 1378.41 C 624.611 1373.47 634.21 1368.97 643.465 1361.95 C 653.188 1354.47 662.302 1346.23 670.719 1337.31 L 672.007 1335.98 C 672.983 1334.81 674.377 1332.9 674.333 1331.42 C 673.935 1317.78 671.056 1304.18 670.811 1290.51 C 669.739 1285.8 670.762 1275.89 671.083 1270.6 C 670.956 1263.94 673.596 1253.6 668.983 1249.37 L 666.915 1249.99 C 665.756 1252.8 665.65 1254.04 663.615 1256.08 C 657.741 1261.66 656.15 1266.92 651.738 1272.02 C 649.012 1269.8 623.149 1262.28 615.422 1258.67 C 586.244 1245.01 551.258 1224.89 526.275 1204.68 L 526.494 1201 L 527.359 1199.76 L 534.161 1188.51 C 487.911 1167.73 446.422 1144.81 406.173 1113.79 C 402.381 1110.87 391.768 1103.39 390.029 1099.95 C 393.26 1098.78 395.518 1099.76 399.293 1100.35 C 413.561 1101.12 421.308 1100.36 435.267 1099.68 C 437.215 1098.56 448.123 1097.07 451.452 1095.95 C 475.914 1087.66 491.371 1075.87 503.504 1053.81 z" fill="rgb(253,179,35)" transform="translate(0,0)"></path>
<path d="M 503.504 1053.81 C 514.146 1047.11 508.388 1013.57 505.255 1002.98 L 515.012 1010.58 C 515.676 1010.96 515.657 1010.98 516.174 1011.54 L 530.917 1022.65 C 531.838 1023.09 532.073 1023.4 532.863 1024.08 C 533.945 1024.62 533.906 1024.61 534.852 1025.38 L 539.847 1028.72 C 540.606 1029.03 540.494 1028.99 541.131 1029.55 C 574.157 1050.39 605.477 1064.81 645.006 1069 L 644.88 1066.94 C 713.771 1070.79 759.338 1058.32 815.903 1017.68 L 816.593 1018.99 C 821.329 1022.63 826.188 1028.28 830.561 1032.64 C 839.006 1041.05 846.296 1047.39 855.929 1054.27 C 847.042 1064.95 833.735 1081.17 822.818 1089.22 C 797.262 1113.23 759.036 1129.65 724.885 1136.03 C 664.339 1147.36 608.978 1132.84 554.623 1107.14 C 543.659 1110.7 533.589 1114.52 522.192 1116.78 C 483.457 1124.46 441.74 1119.78 405.04 1105.71 C 399.836 1104.01 397.111 1105.64 399.293 1100.35 C 413.561 1101.12 421.308 1100.36 435.267 1099.68 C 437.215 1098.56 448.123 1097.07 451.452 1095.95 C 475.914 1087.66 491.371 1075.87 503.504 1053.81 z" fill="rgb(214,111,36)" transform="translate(0,0)"></path>
<path d="M 644.88 1066.94 C 713.771 1070.79 759.338 1058.32 815.903 1017.68 L 816.593 1018.99 C 765.864 1057.65 708.556 1074.91 645.006 1069 L 644.88 1066.94 z" fill="rgb(56,32,15)" transform="translate(0,0)"></path>
<path d="M 399.293 1100.35 C 413.561 1101.12 421.308 1100.36 435.267 1099.68 C 426.771 1103.6 431.221 1101.53 421.501 1103.01 C 416.63 1103.76 406.369 1101.62 405.04 1105.71 C 399.836 1104.01 397.111 1105.64 399.293 1100.35 z" fill="rgb(185,107,53)" transform="translate(0,0)"></path>
<path d="M 920.573 1097.99 C 938.322 1103.2 956.084 1108.79 974.512 1111.03 C 975.879 1111.2 976.417 1111.41 977.701 1111.89 C 966.287 1167.28 937.199 1218.01 889.112 1249.03 C 849.135 1274.82 796.856 1291.19 749.479 1294.13 C 744.499 1294.05 743.667 1293.85 738.806 1294.91 C 732.263 1300.44 726.781 1309.46 720.73 1315.53 C 710.161 1326.13 696.395 1335.96 683.943 1344.31 L 684.066 1346.33 C 678.09 1350.49 662.754 1359.36 655.938 1361.47 C 654.573 1363.69 649.984 1364.99 647.281 1366.2 C 639.612 1369.59 631.881 1372.83 624.091 1375.93 L 623.858 1378.98 C 621.911 1378.7 621.78 1378.46 619.871 1377.48 C 617.734 1379.44 617.24 1378.74 614.364 1378.41 C 624.611 1373.47 634.21 1368.97 643.465 1361.95 C 653.188 1354.47 662.302 1346.23 670.719 1337.31 L 672.007 1335.98 L 673.181 1337.17 C 681.159 1326.37 684.688 1318.41 687.281 1305.36 C 686.951 1300.18 686.959 1296.83 687.212 1291.61 C 687.161 1290.87 687.095 1290.13 687.013 1289.39 C 683.615 1258.91 669.401 1244.02 646.946 1226.48 C 679.039 1231.51 696.958 1233.22 730.053 1231.72 C 731.518 1231.76 731.563 1231.92 732.666 1231.3 C 762.772 1230.52 797.493 1216.54 823.832 1202.55 C 824.46 1201.92 824.31 1202 825.113 1201.67 C 866.504 1177.33 899.729 1141.24 920.573 1097.99 z" fill="rgb(214,111,36)" transform="translate(0,0)"></path>
<path d="M 672.007 1335.98 L 673.181 1337.17 C 670.195 1340.65 642.074 1366.97 642.448 1365.45 C 643.256 1365.93 645.671 1365.49 646.547 1365.45 L 647.281 1366.2 C 639.612 1369.59 631.881 1372.83 624.091 1375.93 L 623.858 1378.98 C 621.911 1378.7 621.78 1378.46 619.871 1377.48 C 617.734 1379.44 617.24 1378.74 614.364 1378.41 C 624.611 1373.47 634.21 1368.97 643.465 1361.95 C 653.188 1354.47 662.302 1346.23 670.719 1337.31 L 672.007 1335.98 z" fill="rgb(9,7,6)" transform="translate(0,0)"></path>
<path d="M 619.871 1377.48 L 624.091 1375.93 L 623.858 1378.98 C 621.911 1378.7 621.78 1378.46 619.871 1377.48 z" fill="rgb(216,153,46)" transform="translate(0,0)"></path>
<path d="M 683.943 1344.31 L 684.066 1346.33 C 678.09 1350.49 662.754 1359.36 655.938 1361.47 C 663.196 1354.6 674.888 1348.52 683.943 1344.31 z" fill="rgb(91,55,19)" transform="translate(0,0)"></path>
<path d="M 646.547 1365.45 C 649.088 1362.82 652.261 1361.48 655.938 1361.47 C 654.573 1363.69 649.984 1364.99 647.281 1366.2 L 646.547 1365.45 z" fill="rgb(91,55,19)" transform="translate(0,0)"></path>
<path d="M 687.212 1291.61 C 688.583 1297.43 688.63 1299.54 687.281 1305.36 C 686.951 1300.18 686.959 1296.83 687.212 1291.61 z" fill="rgb(131,64,32)" transform="translate(0,0)"></path>
<path d="M 876.091 1065.65 C 906.126 1082.89 946.418 1100.41 981.516 1101.11 C 981.533 1102.02 981.563 1102.94 981.608 1103.86 C 981.06 1106.71 980.327 1109.16 979.647 1111.96 C 955.882 1236 856.018 1288.13 739.639 1296.65 C 718.718 1320.76 711.735 1328.65 684.066 1346.33 L 683.943 1344.31 C 696.395 1335.96 710.161 1326.13 720.73 1315.53 C 726.781 1309.46 732.263 1300.44 738.806 1294.91 C 743.667 1293.85 744.499 1294.05 749.479 1294.13 C 796.856 1291.19 849.135 1274.82 889.112 1249.03 C 937.199 1218.01 966.287 1167.28 977.701 1111.89 C 976.417 1111.41 975.879 1111.2 974.512 1111.03 C 956.084 1108.79 938.322 1103.2 920.573 1097.99 C 899.729 1141.24 866.504 1177.33 825.113 1201.67 C 824.31 1202 824.46 1201.92 823.832 1202.55 C 797.493 1216.54 762.772 1230.52 732.666 1231.3 C 731.563 1231.92 731.518 1231.76 730.053 1231.72 C 696.958 1233.22 679.039 1231.51 646.946 1226.48 C 669.401 1244.02 683.615 1258.91 687.013 1289.39 C 687.095 1290.13 687.161 1290.87 687.212 1291.61 C 686.959 1296.83 686.951 1300.18 687.281 1305.36 C 684.688 1318.41 681.159 1326.37 673.181 1337.17 L 672.007 1335.98 C 672.983 1334.81 674.377 1332.9 674.333 1331.42 C 673.935 1317.78 671.056 1304.18 670.811 1290.51 C 669.739 1285.8 670.762 1275.89 671.083 1270.6 C 670.956 1263.94 673.596 1253.6 668.983 1249.37 L 666.915 1249.99 C 665.756 1252.8 665.65 1254.04 663.615 1256.08 C 657.741 1261.66 656.15 1266.92 651.738 1272.02 C 649.012 1269.8 623.149 1262.28 615.422 1258.67 C 586.244 1245.01 551.258 1224.89 526.275 1204.68 L 526.494 1201 L 527.359 1199.76 L 534.161 1188.51 C 487.911 1167.73 446.422 1144.81 406.173 1113.79 C 402.381 1110.87 391.768 1103.39 390.029 1099.95 C 393.26 1098.78 395.518 1099.76 399.293 1100.35 C 397.111 1105.64 399.836 1104.01 405.04 1105.71 C 441.74 1119.78 483.457 1124.46 522.192 1116.78 C 533.589 1114.52 543.659 1110.7 554.623 1107.14 C 608.978 1132.84 664.339 1147.36 724.885 1136.03 C 759.036 1129.65 797.262 1113.23 822.818 1089.22 L 824.008 1090.9 C 754.092 1150.57 659.1 1154.3 577.097 1119.63 C 569.47 1116.4 561.816 1112.66 554.331 1109.11 C 498.448 1129.37 456.5 1125.31 401.444 1106.69 C 408.483 1114.55 426.544 1126.89 435.763 1132.83 C 556.624 1210.61 737.793 1285.58 861.905 1172.47 C 884.189 1152.17 906.664 1124.71 918.951 1097.23 C 920.173 1095.06 920.916 1092.8 922.216 1090.32 C 908.159 1085.31 897.377 1078.88 884.221 1072.48 C 883.566 1071.9 883.701 1071.95 882.903 1071.64 L 879.079 1069.62 C 878.248 1069.27 878.18 1069.27 877.521 1068.86 L 876.091 1065.65 z" fill="rgb(56,32,15)" transform="translate(0,0)"></path>
<path d="M 536.203 1189.97 C 562.998 1202.03 590.375 1212.69 619.073 1219.3 C 637.407 1223.52 655.125 1230.78 666.438 1246.77 L 666.915 1249.99 C 665.756 1252.8 665.65 1254.04 663.615 1256.08 C 657.741 1261.66 656.15 1266.92 651.738 1272.02 C 649.012 1269.8 623.149 1262.28 615.422 1258.67 C 586.244 1245.01 551.258 1224.89 526.275 1204.68 L 526.494 1201 L 527.359 1199.76 C 530.588 1198.72 533.965 1193.03 536.203 1189.97 z" fill="rgb(178,117,31)" transform="translate(0,0)"></path>
<path d="M 673.33 1255.69 L 674.952 1258.45 C 685.894 1277.14 689.661 1306.9 678.291 1326.23 C 674.553 1332.58 672.998 1299.35 673.03 1298.17 C 672.198 1295.54 671.52 1293.19 670.811 1290.51 C 669.739 1285.8 670.762 1275.89 671.083 1270.6 L 672.241 1270.89 C 672.825 1265.42 673.036 1261.2 673.33 1255.69 z" fill="rgb(253,179,35)" transform="translate(0,0)"></path>
<path d="M 671.083 1270.6 L 672.241 1270.89 C 672.022 1280.57 672.882 1288.8 673.03 1298.17 C 672.198 1295.54 671.52 1293.19 670.811 1290.51 C 669.739 1285.8 670.762 1275.89 671.083 1270.6 z" fill="rgb(129,89,24)" transform="translate(0,0)"></path>
<path d="M 920.573 1097.99 C 921.265 1096.73 923.58 1091.35 924.261 1091.4 C 925.92 1091.51 941.435 1096.32 943.523 1096.86 C 948.622 1098.22 953.782 1099.35 958.987 1100.23 C 965.685 1101.3 972.421 1102.35 979.083 1103.59 C 978.678 1106.43 978.115 1109.04 977.701 1111.89 C 976.417 1111.41 975.879 1111.2 974.512 1111.03 C 956.084 1108.79 938.322 1103.2 920.573 1097.99 z" fill="rgb(185,107,53)" transform="translate(0,0)"></path>
<path d="M 738.806 1294.91 C 743.667 1293.85 744.499 1294.05 749.479 1294.13 C 744.283 1295.4 744.217 1295.27 738.806 1294.91 z" fill="rgb(91,55,19)" transform="translate(0,0)"></path>
<path d="M 730.053 1231.72 C 731.274 1230.98 731.184 1231.08 732.666 1231.3 C 731.563 1231.92 731.518 1231.76 730.053 1231.72 z" fill="rgb(131,64,32)" transform="translate(0,0)"></path>
<path d="M 855.258 1058 C 859.923 1054.53 861.965 1058.28 866.98 1061.61 C 867.685 1061.92 867.594 1061.91 868.183 1062.46 C 870.409 1063.86 872.429 1065.17 874.593 1066.66 L 876.091 1065.65 L 877.521 1068.86 C 878.18 1069.27 878.248 1069.27 879.079 1069.62 L 882.903 1071.64 C 883.701 1071.95 883.566 1071.9 884.221 1072.48 C 897.377 1078.88 908.159 1085.31 922.216 1090.32 C 920.916 1092.8 920.173 1095.06 918.951 1097.23 C 912.742 1094.18 905.503 1091.62 899.004 1088.78 C 881.485 1081.1 869.18 1070.73 855.258 1058 z" fill="rgb(192,131,34)" transform="translate(0,0)"></path>
<path d="M 490.01 1154.44 C 496.052 1154.29 502.085 1153.88 508.092 1153.21 C 527.409 1151.07 544.589 1142.96 556.929 1127.58 C 577.753 1142.96 614.942 1152.17 640.19 1155.1 C 645.228 1154.98 643.248 1156.61 640.047 1158.04 C 612.966 1167 577.806 1172.21 554.447 1151.12 C 528.63 1166.18 516.857 1163.84 490.01 1154.44 z" fill="rgb(254,196,101)" transform="translate(0,0)"></path>
<path d="M 640.19 1155.1 C 645.228 1154.98 643.248 1156.61 640.047 1158.04 C 640.064 1157.2 640.045 1155.94 640.19 1155.1 z" fill="rgb(254,196,101)" transform="translate(0,0)"></path>
<path d="M 1164.36 1331 C 1170.74 1330.57 1174.92 1330.37 1181.32 1330.57 L 1181.05 1332.58 C 1189.05 1335.82 1191.21 1338.53 1197.74 1343.94 C 1225.83 1374.17 1238.72 1393.9 1236.68 1437.29 C 1236.49 1441.24 1235.82 1447.64 1235.79 1451.36 L 1235.9 1453.52 C 1232.83 1459.17 1231.53 1471.74 1232.44 1478.01 C 1204.86 1506.32 1169.56 1529.7 1133.76 1546.11 C 1049.88 1584 954.446 1587.35 868.107 1555.44 C 792.155 1526.98 734.785 1471.22 701.166 1397.9 C 705.254 1396.17 743.812 1395.55 751.768 1394.94 C 766.903 1393.86 781.981 1392.1 796.956 1389.66 C 845.575 1381.35 874.736 1370.76 920.208 1354.88 C 959.812 1377.34 955.835 1432.04 936.33 1466.6 C 931.057 1475.95 923.417 1486.39 917.109 1495.09 C 925.862 1495.1 964.933 1477.56 975.412 1473.25 L 976.787 1470.51 L 977.348 1470.15 C 1027.16 1445.64 1053.36 1428.73 1096.57 1395.31 C 1096.82 1395.07 1097.06 1394.83 1097.31 1394.59 L 1100.25 1395.11 C 1104.25 1390.78 1116.35 1380.84 1121.82 1375.63 C 1136.7 1361.44 1150.9 1346.55 1164.36 1331 z" fill="rgb(253,179,35)" transform="translate(0,0)"></path>
<path d="M 1164.36 1331 C 1170.74 1330.57 1174.92 1330.37 1181.32 1330.57 L 1181.05 1332.58 C 1166.03 1347.54 1151.68 1364.55 1136.46 1378.79 C 1080.18 1431.41 990.088 1490.22 914.287 1507.52 C 915.254 1503.39 916.194 1499.24 917.109 1495.09 C 925.862 1495.1 964.933 1477.56 975.412 1473.25 L 976.787 1470.51 L 977.348 1470.15 C 1027.16 1445.64 1053.36 1428.73 1096.57 1395.31 C 1096.82 1395.07 1097.06 1394.83 1097.31 1394.59 L 1100.25 1395.11 C 1104.25 1390.78 1116.35 1380.84 1121.82 1375.63 C 1136.7 1361.44 1150.9 1346.55 1164.36 1331 z" fill="rgb(192,131,34)" transform="translate(0,0)"></path>
<path d="M 1096.57 1395.31 L 1097.37 1397.24 C 1074.11 1414.81 1051.37 1431.95 1026.1 1446.6 C 1015.72 1452.55 1005.19 1458.24 994.516 1463.65 C 991.688 1465.12 981.394 1470.15 979.323 1471.57 L 977.348 1470.15 C 1027.16 1445.64 1053.36 1428.73 1096.57 1395.31 z" fill="rgb(91,55,19)" transform="translate(0,0)"></path>
<path d="M 1097.31 1394.59 L 1100.25 1395.11 C 1099.26 1395.86 1098.37 1396.52 1097.37 1397.24 L 1096.57 1395.31 C 1096.82 1395.07 1097.06 1394.83 1097.31 1394.59 z" fill="rgb(129,89,24)" transform="translate(0,0)"></path>
<path d="M 976.787 1470.51 L 977.348 1470.15 L 979.323 1471.57 C 977.939 1472.25 976.86 1472.66 975.412 1473.25 L 976.787 1470.51 z" fill="rgb(129,89,24)" transform="translate(0,0)"></path>
<path d="M 1255.88 935.51 C 1299.37 953.821 1325.31 972.279 1352.81 1011.29 C 1393.06 1068.42 1402.61 1125.3 1387.86 1192.71 C 1382.54 1209.08 1379.08 1226.09 1373.41 1243.01 C 1354.65 1297.83 1326.62 1349.01 1290.53 1394.33 L 1291.66 1396.6 L 1291.64 1398.28 C 1284.25 1410.22 1280.65 1418.98 1271.36 1431.7 L 1270.98 1432.42 C 1256.9 1448.5 1249.61 1460.97 1232.44 1478.01 C 1231.53 1471.74 1232.83 1459.17 1235.9 1453.52 L 1235.79 1451.36 C 1235.82 1447.64 1236.49 1441.24 1236.68 1437.29 C 1238.72 1393.9 1225.83 1374.17 1197.74 1343.94 C 1191.21 1338.53 1189.05 1335.82 1181.05 1332.58 L 1181.32 1330.57 C 1174.92 1330.37 1170.74 1330.57 1164.36 1331 C 1150.9 1346.55 1136.7 1361.44 1121.82 1375.63 C 1116.35 1380.84 1104.25 1390.78 1100.25 1395.11 L 1097.31 1394.59 C 1152.78 1352.21 1214.96 1270.74 1227.34 1201.07 C 1237.05 1146.4 1221.93 1086.15 1190.74 1040.69 C 1188.9 1037.77 1187.02 1034.88 1185.1 1032.01 L 1186.24 1030.43 C 1188.31 1033.6 1189.82 1036.09 1192.28 1039.05 C 1198.04 1032.32 1204.42 1026.29 1210.4 1019.71 C 1214.98 1014.67 1218.3 1007.45 1222.65 1002.74 L 1222.1 1002.45 C 1221.91 1001.38 1221.73 1000.37 1221.58 999.295 L 1223.18 1000.5 C 1227.97 991.726 1234.08 985.99 1239.68 974.781 C 1244.61 964.89 1251.41 943.23 1255.88 935.51 z" fill="rgb(253,179,35)" transform="translate(0,0)"></path>
<path d="M 1221.58 999.295 L 1223.18 1000.5 C 1319.93 1084.98 1320.86 1190.31 1265.46 1298.04 C 1277.03 1349.92 1270.34 1398.31 1244.62 1445.11 C 1258.39 1432.42 1277.55 1409.22 1290.53 1394.33 L 1291.66 1396.6 L 1291.64 1398.28 C 1284.25 1410.22 1280.65 1418.98 1271.36 1431.7 L 1270.98 1432.42 C 1256.9 1448.5 1249.61 1460.97 1232.44 1478.01 C 1231.53 1471.74 1232.83 1459.17 1235.9 1453.52 L 1235.79 1451.36 C 1235.82 1447.64 1236.49 1441.24 1236.68 1437.29 C 1238.72 1393.9 1225.83 1374.17 1197.74 1343.94 C 1191.21 1338.53 1189.05 1335.82 1181.05 1332.58 L 1181.32 1330.57 C 1174.92 1330.37 1170.74 1330.57 1164.36 1331 C 1150.9 1346.55 1136.7 1361.44 1121.82 1375.63 C 1116.35 1380.84 1104.25 1390.78 1100.25 1395.11 L 1097.31 1394.59 C 1152.78 1352.21 1214.96 1270.74 1227.34 1201.07 C 1237.05 1146.4 1221.93 1086.15 1190.74 1040.69 C 1188.9 1037.77 1187.02 1034.88 1185.1 1032.01 L 1186.24 1030.43 C 1188.31 1033.6 1189.82 1036.09 1192.28 1039.05 C 1198.04 1032.32 1204.42 1026.29 1210.4 1019.71 C 1214.98 1014.67 1218.3 1007.45 1222.65 1002.74 L 1222.1 1002.45 C 1221.91 1001.38 1221.73 1000.37 1221.58 999.295 z" fill="rgb(214,111,36)" transform="translate(0,0)"></path>
<path d="M 1221.58 999.295 L 1223.18 1000.5 C 1319.93 1084.98 1320.86 1190.31 1265.46 1298.04 C 1277.03 1349.92 1270.34 1398.31 1244.62 1445.11 C 1258.39 1432.42 1277.55 1409.22 1290.53 1394.33 L 1291.66 1396.6 L 1291.64 1398.28 C 1284.25 1410.22 1280.65 1418.98 1271.36 1431.7 L 1270.98 1432.42 C 1256.9 1448.5 1249.61 1460.97 1232.44 1478.01 C 1231.53 1471.74 1232.83 1459.17 1235.9 1453.52 L 1235.79 1451.36 C 1235.82 1447.64 1236.49 1441.24 1236.68 1437.29 C 1238.72 1393.9 1225.83 1374.17 1197.74 1343.94 C 1191.21 1338.53 1189.05 1335.82 1181.05 1332.58 L 1181.32 1330.57 C 1174.92 1330.37 1170.74 1330.57 1164.36 1331 C 1150.9 1346.55 1136.7 1361.44 1121.82 1375.63 C 1116.35 1380.84 1104.25 1390.78 1100.25 1395.11 L 1097.31 1394.59 C 1152.78 1352.21 1214.96 1270.74 1227.34 1201.07 C 1237.05 1146.4 1221.93 1086.15 1190.74 1040.69 C 1188.9 1037.77 1187.02 1034.88 1185.1 1032.01 L 1186.24 1030.43 C 1188.31 1033.6 1189.82 1036.09 1192.28 1039.05 C 1212.77 1071.59 1232.43 1117.57 1232.1 1156.47 C 1231.8 1162.67 1231.79 1168.89 1232.08 1175.1 C 1229.4 1235.08 1200.32 1281.28 1166.61 1328.3 C 1203.77 1328.07 1220.42 1344.74 1235.43 1377.16 C 1240.48 1379.35 1244.34 1406.62 1244.14 1413 C 1243.92 1420.27 1245.61 1426.33 1243.99 1433.99 C 1243.51 1437.26 1243.32 1438.17 1244.43 1440.69 C 1269.44 1400.18 1273.63 1343.64 1263.41 1297.67 C 1291.96 1242.28 1311.24 1177.63 1294.6 1115.53 C 1285.68 1082.25 1271.82 1053.86 1248.62 1028.12 C 1248.22 1027.52 1248.24 1027.44 1247.69 1027.08 C 1241.22 1019.96 1235.41 1014.46 1228.45 1007.89 C 1227.26 1006.01 1226.79 1005.61 1224.9 1004.41 L 1222.65 1002.74 L 1222.1 1002.45 C 1221.91 1001.38 1221.73 1000.37 1221.58 999.295 z" fill="rgb(56,32,15)" transform="translate(0,0)"></path>
<path d="M 1200.44 1337.19 C 1237.71 1359.7 1245.56 1408.49 1238.57 1448.53 C 1238.5 1448.93 1235.97 1451.19 1235.79 1451.36 C 1235.82 1447.64 1236.49 1441.24 1236.68 1437.29 C 1238.72 1393.9 1225.83 1374.17 1197.74 1343.94 C 1195.43 1337.37 1191.53 1338.08 1200.44 1337.19 z" fill="rgb(192,131,34)" transform="translate(0,0)"></path>
<path d="M 1235.9 1453.52 C 1242.14 1451.4 1242.42 1448.25 1246.42 1445.67 C 1255.31 1439.97 1286.8 1399.35 1291.66 1396.6 L 1291.64 1398.28 C 1284.25 1410.22 1280.65 1418.98 1271.36 1431.7 L 1270.98 1432.42 C 1256.9 1448.5 1249.61 1460.97 1232.44 1478.01 C 1231.53 1471.74 1232.83 1459.17 1235.9 1453.52 z" fill="rgb(178,117,31)" transform="translate(0,0)"></path>
<path d="M 1235.43 1377.16 C 1240.48 1379.35 1244.34 1406.62 1244.14 1413 C 1243.92 1420.27 1245.61 1426.33 1243.99 1433.99 C 1243.51 1437.26 1243.32 1438.17 1244.43 1440.69 C 1244.31 1441.38 1243.84 1444.99 1242.5 1444.84 C 1242.28 1444.54 1243.84 1396.06 1238.69 1389.01 C 1238.61 1388.91 1235.47 1378.1 1235.43 1377.16 z" fill="rgb(185,107,53)" transform="translate(0,0)"></path>
<path d="M 1181.32 1330.57 C 1189.33 1331.78 1193.58 1332.96 1200.44 1337.19 C 1191.53 1338.08 1195.43 1337.37 1197.74 1343.94 C 1191.21 1338.53 1189.05 1335.82 1181.05 1332.58 L 1181.32 1330.57 z" fill="rgb(216,153,46)" transform="translate(0,0)"></path>
<path d="M 1232.1 1156.47 C 1233.43 1162.74 1233.53 1168.84 1232.08 1175.1 C 1231.79 1168.89 1231.8 1162.67 1232.1 1156.47 z" fill="rgb(131,64,32)" transform="translate(0,0)"></path>
<path d="M 1224.9 1004.41 C 1226.79 1005.61 1227.26 1006.01 1228.45 1007.89 C 1226.73 1007.19 1225.84 1005.95 1224.9 1004.41 z" fill="rgb(131,64,32)" transform="translate(0,0)"></path>
<path d="M 1279.6 1295.08 C 1296.94 1264.24 1306.92 1242.44 1310.86 1206.28 C 1323.38 1238.53 1326.66 1264.18 1299.8 1290.88 C 1306.94 1303.3 1305.55 1317.89 1301.93 1331.16 C 1301.13 1334.08 1300.3 1336.99 1299.45 1339.89 C 1299.38 1340.2 1299.3 1340.51 1299.23 1340.81 C 1299.46 1340.98 1298.49 1343.8 1297.93 1343.53 C 1296.08 1342.6 1297.38 1332.21 1297.44 1331.49 C 1294.68 1316.71 1290.8 1305.86 1279.6 1295.08 z" fill="rgb(254,196,101)" transform="translate(0,0)"></path>
<path d="M 1297.44 1331.49 C 1298.3 1335.39 1297.45 1336.51 1299.45 1339.89 C 1299.38 1340.2 1299.3 1340.51 1299.23 1340.81 C 1299.46 1340.98 1298.49 1343.8 1297.93 1343.53 C 1296.08 1342.6 1297.38 1332.21 1297.44 1331.49 z" fill="rgb(216,153,46)" transform="translate(0,0)"></path>
<path d="M 1201.97 392.651 C 1240.48 371.337 1278.94 370.375 1318.36 390.426 C 1320.61 391.795 1322.53 392.921 1324.89 394.129 C 1327.54 395.352 1327.66 395.416 1330.06 397.124 L 1331.17 397.611 C 1357.37 414.822 1377.52 439.233 1383.97 470.521 C 1389.56 498.905 1383.73 528.349 1367.74 552.458 C 1361.46 561.847 1355.96 567.494 1347.99 575.323 C 1307.1 610.818 1256.65 613.058 1209.57 588.059 C 1199.98 581.929 1193.71 577.343 1184.97 570.107 C 1182.79 568.147 1181.15 566.485 1179.16 564.342 C 1168.77 550.566 1161.62 542.421 1155.79 525.146 C 1138.4 471.799 1154.69 425.358 1200.74 393.469 C 1201.35 392.91 1201.23 392.959 1201.97 392.651 z" fill="rgb(214,111,36)" transform="translate(0,0)"></path>
<path d="M 1263.27 577.294 C 1239.21 575.969 1216.52 563.997 1200.58 546.125 C 1185.5 528.932 1177.72 506.535 1178.9 483.697 C 1181.73 434.606 1224.47 398.887 1273.03 402.391 C 1297.33 404.182 1319.89 415.652 1335.66 434.228 C 1351.2 451.952 1358.87 475.227 1356.93 498.718 C 1355.09 521.052 1345.43 542.623 1328.05 557.06 C 1315.37 567.599 1294.32 577.065 1277.75 577.326 C 1276.98 577.766 1276.78 577.661 1275.84 577.703 L 1265.97 577.705 C 1264.43 577.801 1264.42 577.974 1263.27 577.294 z" fill="rgb(56,32,15)" transform="translate(0,0)"></path>
<path d="M 1263.27 577.294 C 1264.77 577.108 1264.7 577.016 1265.97 577.705 C 1264.43 577.801 1264.42 577.974 1263.27 577.294 z" fill="rgb(131,64,32)" transform="translate(0,0)"></path>
<path d="M 1275.84 577.703 C 1276.79 577.265 1276.71 577.264 1277.75 577.326 C 1276.98 577.766 1276.78 577.661 1275.84 577.703 z" fill="rgb(131,64,32)" transform="translate(0,0)"></path>
<path d="M 1262.54 404.4 C 1281.76 403.065 1303.72 410.14 1319.18 421.607 C 1338.21 435.445 1350.87 456.367 1354.29 479.648 C 1361.66 532.929 1326.59 569.304 1275.42 575.964 C 1227.58 575.971 1187.04 546.369 1181.55 497.291 C 1179.12 474.452 1186.02 451.598 1200.69 433.922 C 1216.31 414.848 1238.6 406.618 1262.54 404.4 z" fill="rgb(253,179,35)" transform="translate(0,0)"></path>
<path d="M 1264.34 436.775 C 1294.15 431.185 1322.84 450.836 1328.4 480.65 C 1333.95 510.463 1314.27 539.13 1284.45 544.652 C 1254.68 550.166 1226.07 530.52 1220.52 500.755 C 1214.97 470.99 1234.58 442.357 1264.34 436.775 z" fill="rgb(56,32,15)" transform="translate(0,0)"></path>
<path d="M 1222.58 483.291 C 1223.14 475.213 1226.67 466.069 1231.25 459.428 C 1239.09 448.169 1251.18 440.586 1264.73 438.426 C 1279.82 435.931 1293.74 439.986 1306.06 448.534 C 1306.77 448.909 1306.6 448.802 1307.25 449.379 L 1311.11 452.691 C 1312.65 453.486 1312.53 453.417 1313.46 454.92 L 1316.73 458.982 C 1317.32 459.505 1317.22 459.458 1317.64 460.131 L 1320.66 465.021 C 1321.5 465.645 1321.37 465.653 1321.7 466.795 C 1327.81 480.234 1329.38 494.721 1324.21 508.829 C 1319.24 522.053 1309.28 532.803 1296.47 538.777 C 1283.23 544.789 1268.1 545.115 1254.61 539.679 C 1231.56 530.656 1220.72 508.947 1222.21 485.153 C 1222.25 484.247 1222.15 484.043 1222.58 483.291 z" fill="rgb(214,111,36)" transform="translate(0,0)"></path>
<path d="M 1271.02 458.112 C 1286.22 455.487 1300.66 465.677 1303.29 480.874 C 1305.91 496.07 1295.72 510.517 1280.53 513.143 C 1265.33 515.768 1250.88 505.577 1248.26 490.381 C 1245.63 475.185 1255.82 460.738 1271.02 458.112 z" fill="rgb(56,32,15)" transform="translate(0,0)"></path>
<path d="M 1270.9 460.058 C 1285.02 457.311 1298.69 466.582 1301.36 480.725 C 1304.03 494.868 1294.69 508.485 1280.53 511.08 C 1272.95 512.471 1265.13 510.416 1259.21 505.474 C 1253.29 500.532 1249.88 493.213 1249.89 485.501 C 1249.91 473.089 1258.71 462.426 1270.9 460.058 z" fill="rgb(253,179,35)" transform="translate(0,0)"></path>
<path d="M 1190.74 1040.69 C 1221.93 1086.15 1237.05 1146.4 1227.34 1201.07 C 1214.96 1270.74 1152.78 1352.21 1097.31 1394.59 C 1097.06 1394.83 1096.82 1395.07 1096.57 1395.31 C 1053.36 1428.73 1027.16 1445.64 977.348 1470.15 L 976.787 1470.51 C 961.188 1476.91 946.161 1484.34 930.169 1489.71 C 980.65 1447.83 1001.75 1416.66 1013.55 1352.58 C 1022.75 1345.14 1032.62 1338.87 1042.27 1330.83 C 1071.26 1306.33 1094.25 1275.5 1109.48 1240.73 C 1133.42 1186.91 1137.17 1144.58 1116.26 1090.37 L 1116.9 1090.08 C 1148.24 1076.01 1165.9 1063.87 1190.74 1040.69 z" fill="rgb(253,179,35)" transform="translate(0,0)"></path>
<path d="M 1111.57 1286.63 C 1114.52 1295.61 1108.28 1313.44 1104.29 1321.82 C 1093.71 1343.95 1074.77 1360.97 1051.64 1369.13 C 1046.11 1398.53 1040.9 1407.23 1018.9 1427.23 C 1018.41 1423.03 1029.59 1404.84 1031.58 1396.14 C 1035.17 1380.43 1035.97 1371.41 1036.02 1355.34 C 1072.92 1335.88 1088.38 1320.17 1111.57 1286.63 z" fill="rgb(254,196,101)" transform="translate(0,0)"></path>
<path d="M 979.647 1111.96 C 1005.96 1112.3 1038.3 1113.82 1064.17 1107.95 C 1060.75 1205.76 1006.01 1297.78 914.59 1336.7 C 830.531 1372.47 714.625 1394.89 623.858 1378.98 L 624.091 1375.93 C 631.881 1372.83 639.612 1369.59 647.281 1366.2 C 649.984 1364.99 654.573 1363.69 655.938 1361.47 C 662.754 1359.36 678.09 1350.49 684.066 1346.33 C 711.735 1328.65 718.718 1320.76 739.639 1296.65 C 856.018 1288.13 955.882 1236 979.647 1111.96 z" fill="rgb(253,179,35)" transform="translate(0,0)"></path>
<path d="M 842.96 1297.99 L 843.828 1298.75 C 842.26 1302.55 826.678 1314.56 822.217 1317.26 C 797.438 1332.2 773.124 1335.89 745.471 1330.12 C 736.275 1347.18 721.379 1353.42 703.304 1356.85 L 702.482 1355.88 C 703.904 1353.01 713.673 1350 719.578 1343.8 C 729.661 1333.23 734.231 1322.62 740.737 1309.82 C 770.12 1318.95 814.983 1309.27 842.96 1297.99 z" fill="rgb(254,196,101)" transform="translate(0,0)"></path>
<path d="M 1360.12 419.449 C 1376.54 380.636 1394.11 365.138 1432.91 348.962 L 1434.36 350.299 C 1403.98 363.072 1379.05 378.667 1365.83 410.767 C 1364.3 414.373 1363.01 418.07 1361.94 421.838 C 1378.12 446.374 1386.02 457.041 1388.17 488.029 C 1485.5 514.583 1578.17 571.945 1648.47 643.908 L 1636.08 641.25 C 1603.27 634.996 1572.51 635.949 1543.38 654.978 C 1538.59 658.11 1530.52 669.149 1528.79 670.131 C 1526.88 673.951 1524.9 678.132 1522.89 681.86 L 1521.32 681.91 C 1515.49 695.454 1516.77 707.997 1519.57 721.909 C 1454.25 662.993 1398.22 637.539 1309.62 657.841 C 1295.99 627.242 1263.38 604.445 1229.2 606.15 C 1208.54 607.18 1192.83 614.674 1176.51 626.836 C 1181.9 618.51 1199.9 595.472 1207.38 589.111 L 1209.57 588.059 C 1256.65 613.058 1307.1 610.818 1347.99 575.323 C 1355.96 567.494 1361.46 561.847 1367.74 552.458 C 1383.73 528.349 1389.56 498.905 1383.97 470.521 C 1377.52 439.233 1357.37 414.822 1331.17 397.611 L 1332.83 395.995 C 1344.81 404.46 1350.24 408.715 1360.12 419.449 z" fill="rgb(214,111,36)" transform="translate(0,0)"></path>
<path d="M 1360.12 419.449 C 1376.54 380.636 1394.11 365.138 1432.91 348.962 L 1434.36 350.299 C 1403.98 363.072 1379.05 378.667 1365.83 410.767 C 1364.3 414.373 1363.01 418.07 1361.94 421.838 C 1378.12 446.374 1386.02 457.041 1388.17 488.029 C 1485.5 514.583 1578.17 571.945 1648.47 643.908 L 1636.08 641.25 L 1636.91 639.09 C 1638.29 638.764 1637.7 639.11 1638.68 638.006 C 1634.4 633.921 1626.2 630.391 1620.76 627.808 C 1596.36 616.216 1573.51 609.919 1546.29 608.905 C 1540 609.086 1528.93 609.059 1522.58 608.878 C 1510.98 609.134 1495.8 613.041 1484.26 615.751 C 1473.27 609.443 1463.59 604.012 1452.26 598.362 C 1451.56 597.863 1451.66 597.862 1450.88 597.653 C 1426.92 586.887 1394.43 577.02 1368.17 575.627 C 1367.24 575.203 1367.32 575.201 1366.29 575.251 C 1360.21 574.676 1354.26 572.644 1350.06 575.776 L 1347.99 575.323 C 1355.96 567.494 1361.46 561.847 1367.74 552.458 C 1383.73 528.349 1389.56 498.905 1383.97 470.521 C 1377.52 439.233 1357.37 414.822 1331.17 397.611 L 1332.83 395.995 C 1344.81 404.46 1350.24 408.715 1360.12 419.449 z" fill="rgb(56,32,15)" transform="translate(0,0)"></path>
<path d="M 1522.58 608.878 C 1530.4 607.178 1538.48 607.187 1546.29 608.905 C 1540 609.086 1528.93 609.059 1522.58 608.878 z" fill="rgb(131,64,32)" transform="translate(0,0)"></path>
<path d="M 1388.13 489.495 C 1470.52 510.981 1575.23 571.55 1634.84 632.266 C 1624.75 627.428 1614.55 622.833 1604.24 618.487 C 1567.63 603.005 1522.48 604.106 1484.42 613.675 C 1436.67 585.023 1408.51 577.655 1354.04 572.429 C 1377.89 548.662 1387.19 522.484 1388.13 489.495 z" fill="rgb(253,179,35)" transform="translate(0,0)"></path>
<path d="M 1391.25 550.812 C 1418.86 539.021 1452.75 539.712 1474.17 563.004 C 1504.18 551.849 1518.28 558.884 1545.33 573.05 C 1517.84 567.26 1498.18 572.226 1473.59 584.747 C 1453.65 567.613 1419.11 555.076 1393.67 554.656 L 1391.25 550.812 z" fill="rgb(254,196,101)" transform="translate(0,0)"></path>
<path d="M 1391.25 550.812 L 1393.67 554.656 C 1388.31 553.875 1383.85 553.985 1391.25 550.812 z" fill="rgb(254,196,101)" transform="translate(0,0)"></path>
<path d="M 1347.99 575.323 L 1350.06 575.776 C 1330.9 594.63 1305.28 605.491 1278.41 606.155 C 1272.48 605.868 1266.53 605.856 1260.59 606.118 C 1243.2 605.85 1222.55 596.946 1207.38 589.111 L 1209.57 588.059 C 1256.65 613.058 1307.1 610.818 1347.99 575.323 z" fill="rgb(56,32,15)" transform="translate(0,0)"></path>
<path d="M 1528.79 670.131 C 1528.27 667.262 1535.65 658.888 1537.92 657.129 C 1547.73 649.527 1559.55 643.351 1571.34 639.977 C 1594.56 633.335 1613.46 634.465 1636.91 639.09 L 1636.08 641.25 C 1603.27 634.996 1572.51 635.949 1543.38 654.978 C 1538.59 658.11 1530.52 669.149 1528.79 670.131 z" fill="rgb(131,64,32)" transform="translate(0,0)"></path>
<path d="M 1260.59 606.118 C 1266.53 605.856 1272.48 605.868 1278.41 606.155 C 1272.03 607.364 1266.95 607.328 1260.59 606.118 z" fill="rgb(91,55,19)" transform="translate(0,0)"></path>
<path d="M 1366.29 575.251 C 1367.32 575.201 1367.24 575.203 1368.17 575.627 C 1367.23 575.604 1367.04 575.728 1366.29 575.251 z" fill="rgb(131,64,32)" transform="translate(0,0)"></path>
<path d="M 1139.14 1593 C 1150.16 1583.98 1174.14 1572.27 1187.17 1562.94 C 1226.55 1534.72 1254.93 1505.69 1284.96 1468.44 L 1346.58 1681.75 C 1353.09 1705 1360.77 1729.03 1366.5 1752.18 C 1318.56 1727 1267.46 1690.37 1214.83 1710.26 C 1212.92 1710.98 1197.93 1709.57 1194.02 1709.76 C 1175.21 1672.62 1157.01 1631.05 1139.14 1593 z" fill="rgb(253,179,35)" transform="translate(0,0)"></path>
<path d="M 1310.15 659.356 C 1421.94 631.495 1502.23 694.635 1566.01 778.843 C 1572.23 786.89 1578.18 795.141 1583.86 803.582 C 1588.16 810.07 1595.5 822.842 1600.79 827.882 C 1603.21 830.028 1615.27 851.106 1615.66 853.843 C 1616.48 858.224 1633.21 892.036 1636.74 900.708 C 1646.88 925.686 1652.18 944.514 1659.29 970.636 C 1652.12 960.326 1646.41 948.667 1638.5 937.798 C 1612.24 901.698 1580.16 882.233 1538.05 869.988 C 1486.27 781.352 1401.08 734.335 1298.15 743.271 C 1318.49 714.643 1321.85 692.327 1310.15 659.356 z" fill="rgb(253,179,35)" transform="translate(0,0)"></path>
<path d="M 1501.09 793.093 C 1530.43 802.711 1545.71 816.651 1558.93 843.923 C 1572.59 843.456 1578.71 846.724 1590.17 854.078 C 1596.9 858.395 1610.49 872.605 1611.76 880.029 C 1609.08 878.274 1607.39 876.228 1604.99 874.218 C 1587.69 859.753 1572.3 858.613 1550.77 860.185 C 1542.03 846.014 1537.11 833.175 1525.69 818.926 C 1520.83 812.857 1502.11 796.257 1501.09 793.093 z" fill="rgb(254,196,101)" transform="translate(0,0)"></path>
<path d="M 1266.85 878.268 C 1320.86 887.933 1364.33 906.952 1399.58 950.026 C 1400.05 950.749 1399.9 950.581 1400.51 951.232 L 1406.59 958.967 C 1407.11 959.821 1406.82 959.399 1407.49 960.225 L 1411.6 965.972 C 1412.15 966.922 1412.46 967.11 1413.26 967.907 C 1413.71 968.951 1413.72 968.981 1414.36 969.92 C 1438.28 1007.76 1458.88 1065.14 1459.16 1110.22 C 1476.85 1123.95 1493.33 1142.91 1503.73 1162.8 C 1504.22 1163.24 1504.24 1163.49 1504.54 1164.16 C 1511.62 1178.01 1527.92 1219.78 1525.34 1233.61 L 1521.5 1231.17 L 1520.87 1230.45 C 1502.1 1211.78 1493.98 1193.88 1465.33 1181.58 C 1463.78 1181.33 1463.91 1181.36 1462.48 1182.05 C 1461.88 1181.37 1461.28 1180.7 1460.68 1180.02 C 1438.66 1169.71 1412.35 1168.81 1394.15 1186.99 L 1392.66 1184.99 L 1391.62 1184.98 C 1403.17 1115.9 1393.59 1064.4 1351.87 1006.58 C 1325.78 970.415 1297.36 949.779 1256.05 933.365 C 1257.36 929.333 1258.35 925.166 1259.22 921.017 L 1262.16 907.512 C 1263.23 902.551 1265.84 880.681 1266.85 878.268 z" fill="rgb(214,111,36)" transform="translate(0,0)"></path>
<path d="M 1392.66 1184.99 C 1396.11 1183.1 1397.93 1180.42 1401.01 1178.49 C 1413.2 1170.82 1429.73 1169.12 1443.48 1172.13 C 1446.01 1172.66 1448.52 1173.27 1451.01 1173.97 C 1454.45 1174.96 1457.17 1175.48 1460.19 1177.37 L 1460.68 1180.02 C 1438.66 1169.71 1412.35 1168.81 1394.15 1186.99 L 1392.66 1184.99 z" fill="rgb(56,32,15)" transform="translate(0,0)"></path>
<path d="M 1460.19 1177.37 C 1483.2 1187.9 1499.24 1200.71 1514.55 1220.95 C 1516.83 1223.95 1520.25 1226.76 1520.87 1230.45 C 1502.1 1211.78 1493.98 1193.88 1465.33 1181.58 C 1463.78 1181.33 1463.91 1181.36 1462.48 1182.05 C 1461.88 1181.37 1461.28 1180.7 1460.68 1180.02 L 1460.19 1177.37 z" fill="rgb(9,7,6)" transform="translate(0,0)"></path>
<path d="M 1155.79 525.146 C 1161.62 542.421 1168.77 550.566 1179.16 564.342 C 1181.15 566.485 1182.79 568.147 1184.97 570.107 L 1184.09 571.669 C 1189.68 577.498 1198.8 583.232 1205.56 587.568 C 1189.43 605.838 1162.07 640.059 1150.56 661.308 C 1129.6 647.253 1111.3 639.299 1087.91 630.672 C 1097.61 602.117 1129.74 542.209 1153.79 525.849 L 1155.79 525.146 z" fill="rgb(253,179,35)" transform="translate(0,0)"></path>
<path d="M 1155.79 525.146 C 1161.62 542.421 1168.77 550.566 1179.16 564.342 L 1177.66 565.27 C 1166.27 553.838 1160.04 540.336 1153.79 525.849 L 1155.79 525.146 z" fill="rgb(56,32,15)" transform="translate(0,0)"></path>
<path d="M 1179.16 564.342 C 1181.15 566.485 1182.79 568.147 1184.97 570.107 L 1184.09 571.669 C 1181.68 569.489 1179.88 567.61 1177.66 565.27 L 1179.16 564.342 z" fill="rgb(9,7,6)" transform="translate(0,0)"></path>
<path d="M 1245.37 1466.92 C 1254.65 1456.07 1263.66 1444.98 1272.37 1433.66 C 1276.72 1442.61 1277.26 1444.8 1280.35 1453.97 C 1281.86 1458.8 1283.39 1463.62 1284.96 1468.44 C 1254.93 1505.69 1226.55 1534.72 1187.17 1562.94 C 1174.14 1572.27 1150.16 1583.98 1139.14 1593 C 1137.11 1586.26 1125.7 1565.12 1121.66 1553.53 C 1145.95 1542.96 1160.43 1535.78 1182.76 1521.52 C 1183.34 1520.95 1183.22 1521 1183.94 1520.68 C 1195.53 1512.55 1206.96 1503.33 1217.85 1494.29 C 1219.44 1492.33 1220.52 1491.72 1222.55 1490.2 C 1230.35 1483.41 1237.35 1475.6 1244.43 1468.05 C 1244.87 1467.34 1244.76 1467.37 1245.37 1466.92 z" fill="rgb(178,117,31)" transform="translate(0,0)"></path>
<path d="M 1217.85 1494.29 C 1219.44 1492.33 1220.52 1491.72 1222.55 1490.2 C 1220.82 1492.32 1220.4 1493.48 1217.85 1494.29 z" fill="rgb(129,89,24)" transform="translate(0,0)"></path>
<path d="M 1251.07 820.912 C 1261.81 881.878 1247.97 944.614 1212.59 995.409 C 1194.99 1020.39 1168.76 1047.64 1142 1062.72 C 1143.82 1056.7 1151.11 1044.79 1153.84 1037.47 C 1157.42 1027.88 1159.3 1014.42 1163.09 1005.98 C 1220 963.161 1251.37 891.518 1251.07 820.912 z" fill="rgb(192,131,34)" transform="translate(0,0)"></path>
<path d="M 1434.08 337.819 C 1442.62 340.081 1450.88 342.176 1459.24 345.116 C 1449.7 346.61 1443.84 347.667 1434.36 350.299 L 1432.91 348.962 C 1394.11 365.138 1376.54 380.636 1360.12 419.449 C 1350.24 408.715 1344.81 404.46 1332.83 395.995 L 1331.17 397.611 L 1330.06 397.124 C 1327.66 395.416 1327.54 395.352 1324.89 394.129 C 1322.53 392.921 1320.61 391.795 1318.36 390.426 L 1319.05 388.456 C 1315.98 387.181 1311.45 384.775 1308.34 383.247 C 1337.78 359.845 1369.42 347.197 1406.94 343.706 C 1407.85 343.633 1407.99 343.727 1408.72 343.263 C 1415.28 342.949 1434.04 343.916 1438.01 341.059 L 1437.61 340.811 C 1436.16 339.902 1435.74 339.437 1434.19 339.125 L 1433.05 339.003 L 1434.08 337.819 z" fill="rgb(214,111,36)" transform="translate(0,0)"></path>
<path d="M 1434.08 337.819 C 1442.62 340.081 1450.88 342.176 1459.24 345.116 C 1449.7 346.61 1443.84 347.667 1434.36 350.299 L 1432.91 348.962 C 1438.55 347.083 1442.51 346.123 1448.31 344.744 C 1445.47 343.768 1440.3 342.351 1438.01 341.059 L 1437.61 340.811 C 1436.16 339.902 1435.74 339.437 1434.19 339.125 L 1433.05 339.003 L 1434.08 337.819 z" fill="rgb(9,7,6)" transform="translate(0,0)"></path>
<path d="M 1319.05 388.456 C 1321 389.187 1322.88 389.762 1324.19 391.349 L 1324.89 394.129 C 1322.53 392.921 1320.61 391.795 1318.36 390.426 L 1319.05 388.456 z" fill="rgb(131,64,32)" transform="translate(0,0)"></path>
<path d="M 1324.19 391.349 C 1326.2 392.467 1328.24 393.538 1330.3 394.561 L 1330.06 397.124 C 1327.66 395.416 1327.54 395.352 1324.89 394.129 L 1324.19 391.349 z" fill="rgb(56,32,15)" transform="translate(0,0)"></path>
<path d="M 1330.3 394.561 C 1331.52 395.199 1331.77 395.307 1332.83 395.995 L 1331.17 397.611 L 1330.06 397.124 L 1330.3 394.561 z" fill="rgb(131,64,32)" transform="translate(0,0)"></path>
<path d="M 896.768 1346.66 C 906.367 1348.56 911.619 1350.44 920.208 1354.88 C 874.736 1370.76 845.575 1381.35 796.956 1389.66 C 781.981 1392.1 766.903 1393.86 751.768 1394.94 C 743.812 1395.55 705.254 1396.17 701.166 1397.9 C 698.919 1393.4 697.965 1390.47 696.335 1385.77 C 700.451 1384.62 700.702 1384.83 705.034 1384.87 C 709.699 1384.79 714.364 1384.69 719.028 1384.57 C 720.325 1383.94 720.257 1384.04 721.75 1384.28 L 732.816 1383.64 C 733.736 1383.62 733.932 1383.75 734.644 1383.27 L 745.839 1382.74 C 746.721 1382.71 746.937 1382.81 747.67 1382.4 C 803.96 1376.26 844.244 1364.53 896.768 1346.66 z" fill="rgb(192,131,34)" transform="translate(0,0)"></path>
<path d="M 696.335 1385.77 C 700.451 1384.62 700.702 1384.83 705.034 1384.87 C 700.579 1386.02 700.808 1385.94 696.335 1385.77 z" fill="rgb(178,117,31)" transform="translate(0,0)"></path>
<path d="M 719.028 1384.57 C 720.325 1383.94 720.257 1384.04 721.75 1384.28 C 720.583 1384.93 720.579 1384.75 719.028 1384.57 z" fill="rgb(129,89,24)" transform="translate(0,0)"></path>
<path d="M 1185.1 1032.01 C 1187.02 1034.88 1188.9 1037.77 1190.74 1040.69 C 1165.9 1063.87 1148.24 1076.01 1116.9 1090.08 L 1116.26 1090.37 C 1115.41 1087.33 1114.51 1084.35 1113.68 1081.27 C 1132.47 1071.06 1148.93 1062.41 1165.72 1048.71 C 1172.05 1043.54 1178.92 1036.64 1185.1 1032.01 z" fill="rgb(192,131,34)" transform="translate(0,0)"></path>
<path d="M 1246.14 932.05 C 1249.4 933.204 1252.73 934.05 1255.88 935.51 C 1251.41 943.23 1244.61 964.89 1239.68 974.781 C 1234.08 985.99 1227.97 991.726 1223.18 1000.5 L 1221.58 999.295 C 1221.31 999.049 1221.04 998.803 1220.77 998.556 C 1218.64 996.857 1215.31 995.374 1217.06 992.623 C 1227.99 975.443 1238.69 954.877 1245.04 935.494 L 1246.14 932.05 z" fill="rgb(192,131,34)" transform="translate(0,0)"></path>
<path d="M 985.247 1104.03 C 995.036 1104.3 1004.51 1105.73 1014.5 1104.99 C 1027.11 1104.06 1039.5 1102.94 1051.97 1100.94 C 1064.59 1098.91 1064.17 1095.49 1064.17 1107.95 C 1038.3 1113.82 1005.96 1112.3 979.647 1111.96 C 980.327 1109.16 981.06 1106.71 981.608 1103.86 L 985.247 1104.03 z" fill="rgb(192,131,34)" transform="translate(0,0)"></path>
<path d="M 1255.5 875.904 C 1259.29 876.607 1262.97 877.623 1266.85 878.268 C 1265.84 880.681 1263.23 902.551 1262.16 907.512 L 1259.22 921.017 C 1258.35 925.166 1257.36 929.333 1256.05 933.365 C 1253.71 932.543 1251.35 931.759 1248.99 931.014 C 1248.24 930.784 1247.49 930.553 1246.74 930.323 C 1252.68 910.585 1254.31 896.159 1255.5 875.904 z" fill="rgb(185,107,53)" transform="translate(0,0)"></path>
<path d="M 1186.24 1030.43 C 1191.22 1025.62 1195.87 1020.5 1200.17 1015.08 C 1204.46 1009.76 1208.98 1004.43 1212.79 998.744 C 1215.02 995.409 1217.08 998.038 1219.18 1000.26 L 1220.77 998.556 C 1221.04 998.803 1221.31 999.049 1221.58 999.295 C 1221.73 1000.37 1221.91 1001.38 1222.1 1002.45 L 1222.65 1002.74 C 1218.3 1007.45 1214.98 1014.67 1210.4 1019.71 C 1204.42 1026.29 1198.04 1032.32 1192.28 1039.05 C 1189.82 1036.09 1188.31 1033.6 1186.24 1030.43 z" fill="rgb(185,107,53)" transform="translate(0,0)"></path>
<path d="M 1220.77 998.556 C 1221.04 998.803 1221.31 999.049 1221.58 999.295 C 1221.73 1000.37 1221.91 1001.38 1222.1 1002.45 C 1220.92 1001.63 1220.23 1001.2 1219.18 1000.26 L 1220.77 998.556 z" fill="rgb(91,55,19)" transform="translate(0,0)"></path>
<path d="M 990.689 620.88 C 998.931 619.158 1013.83 618.962 1022.08 620.913 C 1013.26 621.136 999.413 621.209 990.689 620.88 z" fill="rgb(129,89,24)" transform="translate(0,0)"></path>
<path d="M 1257.96 803.918 C 1271 803.974 1289.79 803.054 1301.97 804.134 C 1355.5 808.878 1416.89 833.506 1454.81 872.615 C 1520.19 940.046 1537.34 1060.37 1537.15 1151.16 C 1537.12 1169.13 1533.6 1203.76 1529.76 1221.22 C 1528.03 1220.21 1527.26 1219.79 1525.46 1218.93 C 1516.75 1174.47 1496.84 1137.84 1461.22 1109.03 C 1460.88 1063.31 1436.61 995.89 1409.57 959.678 C 1372.01 909.377 1327.5 886.168 1266.03 876.583 C 1252.39 874.016 1256.89 875.191 1256.75 863.101 C 1256.61 850.519 1255.89 837.476 1254.21 825.001 C 1253.33 818.519 1251.7 811.751 1251.35 805.446 C 1251.32 804.983 1257.27 803.986 1257.96 803.918 z" fill="rgb(253,179,35)" transform="translate(0,0)"></path>
<path d="M 1266.03 876.583 C 1252.39 874.016 1256.89 875.191 1256.75 863.101 C 1256.61 850.519 1255.89 837.476 1254.21 825.001 C 1253.33 818.519 1251.7 811.751 1251.35 805.446 C 1251.32 804.983 1257.27 803.986 1257.96 803.918 C 1255.09 807.436 1259.45 815.527 1260.76 820.52 L 1261.73 824.529 C 1266.45 844.471 1266.57 855.985 1266.03 876.583 z" fill="rgb(192,131,34)" transform="translate(0,0)"></path>
<path d="M 1460.86 1024.57 C 1473.32 1030.83 1488.79 1060.87 1488.13 1074.63 C 1487.01 1098.19 1481.82 1087.74 1501.76 1100.16 C 1515.97 1109.02 1523.05 1128.62 1525.61 1144.36 C 1523.32 1144.28 1519.29 1135.67 1516.34 1132.24 C 1507.29 1121.71 1484.48 1109.71 1471.98 1103.79 C 1472.94 1063.81 1474.43 1064.31 1460.86 1024.57 z" fill="rgb(254,196,101)" transform="translate(0,0)"></path>
<path d="M 746.58 1522.19 C 747.594 1514.73 753.457 1490.18 755.897 1483.28 L 766.13 1493.69 C 767.688 1494.58 767.461 1494.39 768.428 1495.92 C 816.133 1539.01 861.238 1559.89 923.625 1572.63 C 919.406 1583.97 908.54 1610.93 905.741 1621.18 C 882.549 1680.03 860.898 1740.39 837.811 1799.15 C 814.969 1757.28 809.773 1719.09 761.988 1699.06 C 741.837 1690.61 735.5 1686.87 713.267 1688.52 C 715.279 1675.03 719.951 1655.94 722.698 1642.01 L 746.58 1522.19 z" fill="rgb(253,179,35)" transform="translate(0,0)"></path>
<path d="M 746.58 1522.19 C 747.594 1514.73 753.457 1490.18 755.897 1483.28 L 766.13 1493.69 C 767.688 1494.58 767.461 1494.39 768.428 1495.92 C 816.133 1539.01 861.238 1559.89 923.625 1572.63 C 919.406 1583.97 908.54 1610.93 905.741 1621.18 C 895.478 1618.67 882.658 1612.59 872.761 1608.31 C 824.138 1587.26 785.717 1557.39 746.58 1522.19 z" fill="rgb(178,117,31)" transform="translate(0,0)"></path>
<path d="M 1296.89 745.101 C 1312.4 744.164 1327.57 743.229 1343.1 744.374 C 1394.3 748.546 1442.76 769.175 1481.26 803.176 C 1498.53 818.457 1525.03 850.417 1536.54 871.318 C 1559.62 878.491 1568.97 881.64 1589.96 894.593 C 1590.83 894.998 1590.8 895.093 1591.48 895.844 C 1593.28 896.728 1594.2 897.464 1595.87 898.637 C 1596.6 898.969 1596.59 898.976 1597.2 899.498 C 1606.91 906.641 1618.99 916.517 1626.61 925.953 C 1627.17 926.294 1627.2 926.486 1627.6 927.081 C 1631.11 931.368 1634.43 935.366 1637.65 939.883 C 1638.26 940.372 1638.17 940.374 1638.6 941.096 L 1642.58 946.954 C 1644.28 947.943 1644.72 949.986 1645.5 951.692 C 1646.23 952.293 1646.22 952.179 1646.51 952.962 C 1651.99 962.411 1655.42 969.373 1661.82 978.473 C 1646.74 965.597 1634.68 956.044 1616.26 947.905 C 1581.17 932.4 1531.18 930.666 1513.64 972.281 C 1500.4 932.25 1480.89 893.49 1449.38 864.631 C 1409.2 827.836 1352.74 806.348 1298.78 802.057 C 1286.02 801.043 1269.87 801.823 1256.98 802.338 C 1253.6 802.685 1249.23 804.124 1249.09 799.598 C 1248.92 794.129 1241.81 779.099 1241.76 774.999 C 1242.71 773.869 1245.9 773.706 1247.32 773.443 C 1270.82 767.568 1279.96 762.659 1296.89 745.101 z" fill="rgb(214,111,36)" transform="translate(0,0)"></path>
<path d="M 1256.98 802.338 C 1253.6 802.685 1249.23 804.124 1249.09 799.598 C 1248.92 794.129 1241.81 779.099 1241.76 774.999 C 1242.71 773.869 1245.9 773.706 1247.32 773.443 C 1249.04 781.665 1254.07 794.037 1256.98 802.338 z" fill="rgb(185,107,53)" transform="translate(0,0)"></path>
<path d="M 1642.58 946.954 C 1644.28 947.943 1644.72 949.986 1645.5 951.692 C 1643.58 949.622 1643.4 949.605 1642.58 946.954 z" fill="rgb(185,107,53)" transform="translate(0,0)"></path>
<path d="M 1111.49 1082.43 C 1112.44 1084.99 1113.42 1087.54 1114.2 1090.16 L 1114.74 1091.81 C 1135.16 1143.09 1130.76 1186.46 1108.97 1237.21 C 1093.59 1273.3 1069.86 1305.21 1039.72 1330.32 C 1030.26 1338.16 1019.89 1344.43 1011.29 1351.51 C 1003.78 1397.65 989.24 1432.99 954.041 1465.67 C 947.357 1471.87 931.658 1488.59 923.965 1490.56 C 924.185 1487.97 929.969 1480.89 931.815 1478.09 C 963.201 1430.51 965.449 1361.79 899.42 1345.08 C 919.552 1337.4 932.518 1331.11 950.998 1319.46 C 951.315 1318.86 951.439 1318.94 952.26 1318.62 C 1020.03 1271.36 1066.46 1192.69 1066.06 1108.92 C 1066.05 1105.36 1066.07 1101.81 1066.11 1098.25 C 1083.5 1094.13 1095.37 1090.05 1111.49 1082.43 z" fill="rgb(214,111,36)" transform="translate(0,0)"></path>
<path d="M 1111.49 1082.43 C 1112.44 1084.99 1113.42 1087.54 1114.2 1090.16 L 1114.74 1091.81 C 1101.87 1097.39 1088.02 1102.19 1074.48 1105.82 C 1071.3 1106.67 1068.4 1106.7 1066.06 1108.92 C 1066.05 1105.36 1066.07 1101.81 1066.11 1098.25 C 1083.5 1094.13 1095.37 1090.05 1111.49 1082.43 z" fill="rgb(185,107,53)" transform="translate(0,0)"></path>
<path d="M 688.979 1817.3 C 659.62 1823.73 635.23 1816.74 629.082 1783.92 C 625.694 1765.39 629.95 1746.28 640.878 1730.94 C 656.479 1708.66 681.543 1695.81 707.815 1691.14 C 735.525 1685.84 761.427 1698.26 783.593 1713.87 C 806.919 1730.29 816.311 1759.66 828.408 1784.23 C 831.851 1791.22 839.558 1801.15 832.59 1807.48 C 814.323 1824.08 773.839 1831.08 750.723 1832.3 C 748.753 1833.97 746.981 1833.42 744.153 1833.19 L 740.816 1832.9 L 734.651 1832.85 C 732.364 1833.49 731.277 1833.97 729.336 1832.5 C 714.332 1830.35 698.555 1827.11 689.16 1813.91 C 664.809 1779.7 688.018 1736.84 721.177 1720.2 L 721.68 1719.01 C 719.982 1718.46 718.94 1719.19 717.298 1720.16 C 681.729 1741.06 663.442 1780.78 688.979 1817.3 z" fill="rgb(237,219,193)" transform="translate(0,0)"></path>
<path d="M 740.816 1832.9 C 744.572 1832.36 746.918 1831.99 750.723 1832.3 C 748.753 1833.97 746.981 1833.42 744.153 1833.19 L 740.816 1832.9 z" fill="rgb(126,117,100)" transform="translate(0,0)"></path>
<path d="M 729.336 1832.5 C 731.565 1832.12 732.579 1831.89 734.651 1832.85 C 732.364 1833.49 731.277 1833.97 729.336 1832.5 z" fill="rgb(126,117,100)" transform="translate(0,0)"></path>
<path d="M 1245.97 1706.39 C 1251.18 1706.09 1256.18 1706.03 1261.34 1706.8 C 1267.94 1707.78 1274.39 1709.74 1280.59 1712.16 C 1292.06 1716.62 1363.07 1749.81 1366.67 1756.29 C 1370.05 1762.38 1367.4 1771.18 1364.77 1776.97 C 1351.87 1805.46 1316.03 1825.39 1287.97 1835.4 C 1270.35 1841.69 1247.04 1847.14 1229.41 1838.33 C 1218.95 1833.11 1212.53 1823.48 1209.18 1812.53 C 1203.64 1794.46 1206.35 1778.49 1215.08 1761.96 C 1224.19 1748.34 1228.33 1747.52 1237.1 1737.45 L 1236.83 1736.46 C 1233.12 1738.38 1231.04 1740.47 1228.04 1743.25 C 1199.96 1769.31 1194.37 1808.08 1222.29 1836.84 C 1158.21 1872.07 1133.66 1784.02 1171.72 1744.13 C 1193.99 1720.79 1213.01 1709.5 1245.97 1706.39 z" fill="rgb(237,219,193)" transform="translate(0,0)"></path>
<path d="M 1152.5 662.864 C 1163.58 639.725 1178.71 622.806 1203.46 613.651 C 1247.95 597.194 1294.47 620.715 1310.34 665.266 C 1325.13 706.774 1301.49 753.886 1259.59 768.006 C 1253.8 769.945 1246.73 771.513 1240.58 772.664 C 1237.15 763.957 1232.65 753.383 1228.1 745.124 C 1224.02 737.769 1220.34 732.213 1215.63 725.207 C 1215.09 724.662 1215.11 724.715 1214.79 724.026 C 1206.4 710.51 1192.04 696.136 1180.63 684.82 C 1171.37 677.024 1162.69 669.484 1152.5 662.864 z" fill="rgb(185,107,53)" transform="translate(0,0)"></path>
<path d="M 1180.63 684.82 C 1184.92 668.731 1190.11 656.078 1205.42 647.079 C 1217.32 640.083 1231.93 637.878 1245.29 641.478 C 1258.72 645.02 1270.07 653.995 1276.61 666.246 C 1283.47 679.285 1284.74 694.552 1280.12 708.542 C 1275.75 721.957 1266.12 733.019 1253.43 739.185 C 1244.7 743.487 1237.61 744.507 1228.1 745.124 C 1224.02 737.769 1220.34 732.213 1215.63 725.207 C 1215.09 724.662 1215.11 724.715 1214.79 724.026 C 1206.4 710.51 1192.04 696.136 1180.63 684.82 z" fill="rgb(131,64,32)" transform="translate(0,0)"></path>
<path d="M 1172.18 415.275 C 1147.78 453.149 1139.02 478.426 1152.95 523.16 C 1123.79 550.488 1099.73 592.52 1086 629.855 C 1071.71 625.648 1060.57 623.49 1045.83 621.161 L 1046.24 589.753 C 1045.95 587.803 1045.69 587.814 1046.72 586.294 C 1051.5 502.111 1103.39 454.219 1172.18 415.275 z" fill="rgb(214,111,36)" transform="translate(0,0)"></path>
<path d="M 1046.24 589.753 C 1045.95 587.803 1045.69 587.814 1046.72 586.294 C 1046.93 588.196 1047.11 588.187 1046.24 589.753 z" fill="rgb(131,64,32)" transform="translate(0,0)"></path>
<path d="M 1191.69 1711.95 C 1199.51 1711.62 1203.79 1711.82 1211.57 1712.3 C 1208.02 1713.83 1204.24 1716.03 1200.99 1717.34 C 1179.18 1731.57 1164.57 1744.3 1155.06 1770.09 C 1149.75 1784.51 1149.99 1802.05 1155.47 1816.59 C 1156.26 1818.68 1162 1828.01 1163.78 1831.59 L 1163.09 1833.63 C 1161.19 1835.15 1159.73 1835.6 1157.33 1835.77 C 1132.67 1837.36 1120.6 1821.37 1118.22 1798.61 C 1114.01 1758.44 1151.19 1714.6 1191.69 1711.95 z" fill="rgb(237,219,193)" transform="translate(0,0)"></path>
<path d="M 1191.69 1711.95 C 1199.51 1711.62 1203.79 1711.82 1211.57 1712.3 C 1208.02 1713.83 1204.24 1716.03 1200.99 1717.34 C 1199.75 1712.39 1196.06 1713.07 1191.69 1711.95 z" fill="rgb(254,196,101)" transform="translate(0,0)"></path>
<path d="M 597.68 1762.26 C 598.509 1741.63 605.426 1727.23 620.121 1712.82 C 643.028 1690.36 668.366 1684.15 699.146 1690.67 C 652.656 1704.91 613.065 1740.86 629.884 1793.25 C 630.96 1796.54 632.088 1799.82 633.269 1803.07 L 632.714 1804.06 C 609.512 1805.55 599.288 1784.95 597.647 1764.74 C 596.695 1763.47 596.694 1763.51 597.68 1762.26 z" fill="rgb(237,219,193)" transform="translate(0,0)"></path>
<path d="M 597.647 1764.74 C 596.695 1763.47 596.694 1763.51 597.68 1762.26 C 597.842 1763.42 597.78 1763.53 597.647 1764.74 z" fill="rgb(126,117,100)" transform="translate(0,0)"></path>
<path d="M 1525.46 1218.93 C 1527.26 1219.79 1528.03 1220.21 1529.76 1221.22 C 1526.77 1234.84 1526.44 1226.04 1525.46 1218.93 z" fill="rgb(216,153,46)" transform="translate(0,0)"></path>
<path d="M 1714.86 998.194 C 1742.53 975.189 1762.11 960.996 1738.59 922.846 C 1763.68 941.429 1779.51 968.981 1783.84 999.825 C 1788.23 1031.04 1785.82 1063.95 1766.2 1089.92 C 1757.87 1100.96 1745.37 1111.22 1731.34 1113 C 1728.72 1113.32 1726.1 1113.58 1723.48 1113.78 C 1713.79 1138.06 1698.54 1160.07 1673.65 1170.71 C 1671.75 1171.53 1669.82 1172.31 1667.88 1173.03 C 1652.11 1226.17 1629.56 1267.12 1590.48 1307.51 C 1579.17 1319.2 1566.15 1329.47 1555.36 1340.39 C 1565.33 1348.15 1574.36 1357.15 1580.34 1368.33 C 1597.73 1400.86 1595.78 1429.25 1561.18 1447.76 C 1550.7 1470.1 1531.41 1479.68 1507.14 1475.46 C 1487.09 1498.48 1458.7 1496.64 1435.41 1480.02 C 1409 1491.41 1390.83 1472.28 1381.44 1449.62 C 1352.99 1455.34 1331.82 1457.56 1302.27 1453.31 C 1295.24 1452.29 1287.86 1446.69 1280.95 1447.54 C 1280.18 1450.33 1280.73 1450.28 1281.59 1453.52 L 1280.35 1453.97 C 1277.26 1444.8 1276.72 1442.61 1272.37 1433.66 L 1270.98 1432.42 L 1271.36 1431.7 C 1280.65 1418.98 1284.25 1410.22 1291.64 1398.28 L 1291.66 1396.6 L 1290.53 1394.33 C 1326.62 1349.01 1354.65 1297.83 1373.41 1243.01 C 1379.08 1226.09 1382.54 1209.08 1387.86 1192.71 L 1390.01 1192.12 L 1394.15 1186.99 C 1412.35 1168.81 1438.66 1169.71 1460.68 1180.02 C 1461.28 1180.7 1461.88 1181.37 1462.48 1182.05 C 1463.91 1181.36 1463.78 1181.33 1465.33 1181.58 C 1465.95 1185.5 1482.42 1214.37 1485.38 1220.49 C 1499.72 1250.16 1518.14 1282.62 1531 1312.81 C 1568.81 1298.29 1606.02 1246.79 1625.5 1212.08 C 1631.49 1200.49 1636.63 1189.07 1642.02 1177.2 C 1586.17 1177.61 1545.02 1126.65 1567.8 1072.78 C 1569.43 1068.21 1573.16 1062.51 1576.28 1058.83 C 1586.67 1044.23 1606.33 1037.91 1623.62 1040.85 C 1638.21 1043.44 1651.2 1051.67 1659.78 1063.75 C 1675.47 1085.51 1679.08 1112.26 1674.81 1138.24 C 1689.92 1126.8 1693.88 1121.18 1702.73 1104.67 C 1682.44 1076.77 1682.52 1047.52 1698.19 1017.65 C 1703.62 1008.89 1706.56 1004.81 1714.86 998.194 z" fill="rgb(54,47,39)" transform="translate(0,0)"></path>
<path d="M 1401.31 1360.66 C 1436.23 1321.27 1480.48 1311.32 1529.97 1327.78 C 1542.92 1333.55 1548.1 1336.57 1559.03 1345.72 C 1560.21 1347.44 1565.71 1353.09 1567.55 1354.05 L 1574.58 1362.98 C 1574.93 1363.67 1574.93 1363.66 1575.46 1364.22 C 1594.63 1392.51 1596.29 1427.53 1561.8 1445.24 C 1563.66 1435.37 1560.28 1399.53 1549.65 1397.45 L 1549.69 1398.86 C 1556.28 1408.33 1556.95 1413.86 1559.7 1425.01 C 1563.77 1441.47 1556.88 1460.51 1541.11 1468.02 C 1533.9 1471.46 1519.22 1477.36 1511.49 1474.68 C 1506.97 1468.85 1518.85 1456.56 1514.24 1442.07 C 1512.32 1436.01 1508.03 1421.2 1501.92 1417.12 C 1500.65 1418.86 1507.18 1427.45 1508.37 1430.32 C 1511.1 1436.06 1511.96 1442.48 1512.64 1448.72 C 1516.98 1488.33 1462.76 1502.59 1437.76 1479.2 C 1452.71 1464.1 1458.83 1445.48 1444.63 1427.45 L 1443.64 1428.32 C 1454.4 1448.48 1452.47 1474.88 1425.84 1481.28 C 1400.05 1487.47 1381.63 1454.44 1379.44 1431.82 C 1376.68 1403.29 1383.54 1383.41 1401.31 1360.66 z" fill="rgb(237,219,193)" transform="translate(0,0)"></path>
<path d="M 1394.15 1186.99 C 1412.35 1168.81 1438.66 1169.71 1460.68 1180.02 C 1461.28 1180.7 1461.88 1181.37 1462.48 1182.05 C 1463.91 1181.36 1463.78 1181.33 1465.33 1181.58 C 1465.95 1185.5 1482.42 1214.37 1485.38 1220.49 C 1499.72 1250.16 1518.14 1282.62 1531 1312.81 C 1568.81 1298.29 1606.02 1246.79 1625.5 1212.08 L 1627.01 1213.01 C 1605.96 1251.91 1572.16 1295.25 1531.87 1315.15 L 1535.13 1322.7 L 1533.76 1324.04 C 1532.95 1326.11 1533.48 1325.47 1531.91 1326.87 L 1529.97 1327.78 C 1480.48 1311.32 1436.23 1321.27 1401.31 1360.66 L 1398.34 1360.08 C 1394.1 1356.62 1365.44 1301.7 1361.08 1293.16 L 1362.62 1292.72 C 1362.04 1291.61 1359.03 1286.17 1359.37 1285 C 1361.14 1278.88 1364.34 1272.92 1366.77 1267.01 C 1376.75 1242.67 1382.67 1217.28 1390.01 1192.12 L 1394.15 1186.99 z" fill="rgb(253,179,35)" transform="translate(0,0)"></path>
<path d="M 1394.15 1186.99 C 1412.35 1168.81 1438.66 1169.71 1460.68 1180.02 C 1461.28 1180.7 1461.88 1181.37 1462.48 1182.05 C 1452.02 1184.86 1436.95 1188.68 1426.93 1192.28 C 1416.25 1223.69 1392.49 1281.64 1370.21 1305.9 C 1367.71 1301.48 1365.18 1297.09 1362.62 1292.72 C 1362.04 1291.61 1359.03 1286.17 1359.37 1285 C 1361.14 1278.88 1364.34 1272.92 1366.77 1267.01 C 1376.75 1242.67 1382.67 1217.28 1390.01 1192.12 L 1394.15 1186.99 z" fill="rgb(178,117,31)" transform="translate(0,0)"></path>
<path d="M 1462.48 1182.05 C 1463.91 1181.36 1463.78 1181.33 1465.33 1181.58 C 1465.95 1185.5 1482.42 1214.37 1485.38 1220.49 C 1499.72 1250.16 1518.14 1282.62 1531 1312.81 C 1568.81 1298.29 1606.02 1246.79 1625.5 1212.08 L 1627.01 1213.01 C 1605.96 1251.91 1572.16 1295.25 1531.87 1315.15 L 1535.13 1322.7 L 1533.76 1324.04 C 1523.12 1298.85 1510.14 1273.25 1497.88 1248.77 C 1486.82 1226.69 1475.19 1203.11 1462.48 1182.05 z" fill="rgb(91,55,19)" transform="translate(0,0)"></path>
<path d="M 1362.62 1292.72 C 1365.18 1297.09 1367.71 1301.48 1370.21 1305.9 C 1378.82 1323.77 1389.73 1342.7 1399.44 1360.03 C 1422.07 1333.98 1444.8 1321.77 1479.95 1318.15 C 1495.1 1316.6 1518.17 1320.04 1531.91 1326.87 L 1529.97 1327.78 C 1480.48 1311.32 1436.23 1321.27 1401.31 1360.66 L 1398.34 1360.08 C 1394.1 1356.62 1365.44 1301.7 1361.08 1293.16 L 1362.62 1292.72 z" fill="rgb(91,55,19)" transform="translate(0,0)"></path>
<path d="M 1745.74 930.749 C 1773.26 957.149 1783.29 985.616 1784.34 1023.56 C 1784.79 1049.18 1776.7 1077.19 1758.49 1095.82 C 1749.85 1104.66 1738.25 1111.89 1725.71 1111.63 C 1697.14 1111.03 1687.2 1075.2 1688.97 1051.81 C 1689.91 1039.36 1693.99 1029.22 1699.41 1018.33 L 1698.19 1017.65 C 1703.62 1008.89 1706.56 1004.81 1714.86 998.194 L 1715.39 999.424 C 1744.03 977.803 1757.24 969.207 1745.74 930.749 z" fill="rgb(214,111,36)" transform="translate(0,0)"></path>
<path d="M 1714.86 998.194 L 1715.39 999.424 C 1711.92 1003.27 1705.47 1010.02 1702.98 1014.42 C 1701.82 1016.48 1701.17 1016.85 1699.41 1018.33 L 1698.19 1017.65 C 1703.62 1008.89 1706.56 1004.81 1714.86 998.194 z" fill="rgb(185,107,53)" transform="translate(0,0)"></path>
<path d="M 1576.28 1058.83 C 1579.22 1058.4 1583.23 1053.8 1585.98 1051.74 C 1600.76 1040.64 1619.16 1039.04 1636.29 1046.45 C 1668.25 1060.28 1680.1 1107.54 1672.92 1138.93 C 1665.61 1143.23 1661.1 1145.11 1652.68 1147.2 C 1656.03 1121.8 1656.33 1078.69 1622.01 1074.3 C 1614.41 1073.37 1606.77 1075.68 1600.95 1080.66 C 1564.03 1112.38 1647.35 1203.54 1704.66 1105.86 C 1711.71 1110.16 1713.89 1111.09 1722.11 1113.62 C 1710.61 1138.83 1697.09 1160.15 1669.8 1170.41 C 1614.52 1191.2 1548.77 1145.45 1565.56 1084.19 C 1566.29 1081.54 1567.96 1075.14 1567.8 1072.78 C 1569.43 1068.21 1573.16 1062.51 1576.28 1058.83 z" fill="rgb(214,111,36)" transform="translate(0,0)"></path>
<path d="M 1293.92 1393.54 C 1308.63 1373.41 1322.36 1353.76 1335.06 1332.19 C 1343.62 1317.66 1349.73 1303.08 1357.25 1288.58 L 1358.1 1288.68 L 1361.08 1293.16 C 1365.44 1301.7 1394.1 1356.62 1398.34 1360.08 C 1397.49 1361.86 1397.89 1361.18 1396.89 1362.71 C 1387.18 1377.44 1381.85 1387.03 1378.39 1404.22 C 1346.67 1407.71 1323.82 1405.35 1293.92 1393.54 z" fill="rgb(255,255,255)" transform="translate(0,0)"></path>
<path d="M 1644.59 1177.24 C 1652.48 1176.8 1657.53 1175.84 1665.27 1173.99 C 1650.06 1229.91 1620.22 1278.26 1577.78 1317.49 C 1571.47 1323.32 1560.12 1333.95 1553.39 1338.88 C 1545.51 1333.24 1538.26 1330.71 1535.13 1322.7 L 1531.87 1315.15 C 1572.16 1295.25 1605.96 1251.91 1627.01 1213.01 C 1632.8 1201.05 1638.66 1189.12 1644.59 1177.24 z" fill="rgb(214,111,36)" transform="translate(0,0)"></path>
<path d="M 1293.09 1398.74 L 1294.73 1396.57 C 1297.4 1396.31 1297.18 1396.82 1299.58 1397.68 C 1326.75 1407.45 1349.55 1408.87 1377.39 1405.83 C 1376.3 1423.96 1376.69 1430.2 1380.58 1448.04 C 1345.67 1454.11 1313.9 1458.82 1279.96 1443.89 C 1278.08 1440.25 1275.84 1435.26 1273.14 1432.38 C 1272.34 1432.15 1271.96 1432.14 1271.36 1431.7 C 1280.65 1418.98 1284.25 1410.22 1291.64 1398.28 L 1293.09 1398.74 z" fill="rgb(214,111,36)" transform="translate(0,0)"></path>
<path d="M 1271.36 1431.7 C 1280.65 1418.98 1284.25 1410.22 1291.64 1398.28 L 1293.09 1398.74 C 1289.08 1409.76 1279.4 1422.33 1273.14 1432.38 C 1272.34 1432.15 1271.96 1432.14 1271.36 1431.7 z" fill="rgb(56,32,15)" transform="translate(0,0)"></path>
<path d="M 1559.03 1345.72 C 1561.48 1347 1566.02 1351.75 1567.55 1354.05 C 1565.71 1353.09 1560.21 1347.44 1559.03 1345.72 z" fill="rgb(126,117,100)" transform="translate(0,0)"></path>
<path d="M 1613.31 1076.22 C 1621.36 1075.79 1628.45 1076.03 1635.02 1081.17 C 1655.7 1097.36 1653.89 1124.96 1650.33 1147.13 C 1645.71 1147.13 1641.01 1147.11 1636.41 1146.78 C 1619.33 1143.35 1603.81 1134.41 1597.47 1117.56 C 1590.79 1099.78 1594.13 1082.48 1613.31 1076.22 z" fill="rgb(255,255,255)" transform="translate(0,0)"></path>
<path d="M 526.494 1201 L 526.275 1204.68 C 551.258 1224.89 586.244 1245.01 615.422 1258.67 C 623.149 1262.28 649.012 1269.8 651.738 1272.02 C 656.15 1266.92 657.741 1261.66 663.615 1256.08 C 656.104 1270.6 645.563 1284.53 637.449 1298.47 C 621.397 1326.06 601.43 1355.1 585.724 1382.46 C 596.477 1410.26 602.443 1447.97 574.454 1468.6 C 573.382 1469.47 572.292 1470.31 571.184 1471.13 C 566.444 1473.03 564.296 1474.34 559.079 1475.39 L 555.851 1476.07 C 549.722 1476.03 540.515 1474.25 537.191 1475.68 C 522.675 1492.95 490.678 1498.98 471.798 1485.15 C 469.185 1483.24 465.175 1479.58 462.745 1478.18 C 435.341 1481.33 420.785 1476.96 407.778 1450.9 C 406.591 1450.38 405.409 1449.85 404.233 1449.31 C 364.35 1430.97 379.729 1375.57 403.213 1350.24 C 417.509 1334.81 431.431 1327.89 450.977 1320.97 C 457.759 1308.39 468.121 1292.88 475.893 1280.41 C 492.449 1253.74 509.317 1227.27 526.494 1201 z" fill="rgb(237,219,193)" transform="translate(0,0)"></path>
<path d="M 526.275 1204.68 C 551.258 1224.89 586.244 1245.01 615.422 1258.67 C 623.149 1262.28 649.012 1269.8 651.738 1272.02 C 646.483 1281.84 635.829 1297.51 629.68 1307.56 C 614.943 1332.1 599.968 1356.5 584.758 1380.76 C 556.449 1331.32 509.024 1310.33 453.219 1320.63 C 461.363 1304.82 479.307 1277.73 489.148 1262.2 C 499.549 1245.78 515.165 1219.71 526.275 1204.68 z" fill="rgb(253,179,35)" transform="translate(0,0)"></path>
<path d="M 526.494 1201 L 526.275 1204.68 C 515.165 1219.71 499.549 1245.78 489.148 1262.2 C 479.307 1277.73 461.363 1304.82 453.219 1320.63 C 509.024 1310.33 556.449 1331.32 584.758 1380.76 C 599.968 1356.5 614.943 1332.1 629.68 1307.56 C 635.829 1297.51 646.483 1281.84 651.738 1272.02 C 656.15 1266.92 657.741 1261.66 663.615 1256.08 C 656.104 1270.6 645.563 1284.53 637.449 1298.47 C 621.397 1326.06 601.43 1355.1 585.724 1382.46 C 596.477 1410.26 602.443 1447.97 574.454 1468.6 L 573.723 1466.84 C 584.624 1458.2 591.667 1443.79 592.599 1430.17 C 596.625 1371.41 546.179 1325.51 490.145 1320.3 C 437.979 1315.45 388.883 1346.98 382.43 1400.8 C 380.146 1422.82 386.16 1439.02 407.127 1448.53 C 406.564 1435.74 407.488 1410.76 418.21 1401.44 L 419.262 1402.07 C 414.325 1413.06 408.955 1422.27 408.672 1434.46 C 407.905 1467.48 432.185 1480.75 461.948 1476.16 C 456.561 1464.37 453.802 1456.63 456.456 1443.2 C 457.467 1438.09 461.264 1421.76 465.339 1418.99 C 465.651 1424.27 458.963 1437.16 458.377 1444.51 C 454.2 1496.93 503.799 1501.19 536.466 1474.99 L 537.191 1475.68 C 522.675 1492.95 490.678 1498.98 471.798 1485.15 C 469.185 1483.24 465.175 1479.58 462.745 1478.18 C 435.341 1481.33 420.785 1476.96 407.778 1450.9 C 406.591 1450.38 405.409 1449.85 404.233 1449.31 C 364.35 1430.97 379.729 1375.57 403.213 1350.24 C 417.509 1334.81 431.431 1327.89 450.977 1320.97 C 457.759 1308.39 468.121 1292.88 475.893 1280.41 C 492.449 1253.74 509.317 1227.27 526.494 1201 z" fill="rgb(54,47,39)" transform="translate(0,0)"></path>
<path d="M 535.405 1472.34 L 534.48 1471.9 C 523.186 1466.49 515.375 1454.32 517.952 1441.5 C 518.413 1439.22 520.351 1428.79 522.463 1428.21 C 523.857 1428.57 522.115 1432.36 521.954 1432.96 C 519.465 1442.25 517.721 1450.64 523.24 1459.27 C 526.901 1465 530.445 1466.66 535.488 1470.61 L 535.405 1472.34 z" fill="rgb(54,47,39)" transform="translate(0,0)"></path>
<path d="M 535.488 1470.61 C 543.43 1474.18 547.471 1473.94 555.824 1474.01 L 555.851 1476.07 C 549.722 1476.03 540.515 1474.25 537.191 1475.68 L 536.466 1474.99 C 536.315 1473.33 536.53 1473.37 535.405 1472.34 L 535.488 1470.61 z" fill="rgb(9,7,6)" transform="translate(0,0)"></path>
<path d="M 569.992 1469.52 L 571.184 1471.13 C 566.444 1473.03 564.296 1474.34 559.079 1475.39 L 555.851 1476.07 L 555.824 1474.01 C 563.16 1472.29 562.998 1472.9 569.992 1469.52 z" fill="rgb(54,47,39)" transform="translate(0,0)"></path>
<path d="M 569.992 1469.52 C 571.48 1468.07 571.8 1467.99 573.723 1466.84 L 574.454 1468.6 C 573.382 1469.47 572.292 1470.31 571.184 1471.13 L 569.992 1469.52 z" fill="rgb(126,117,100)" transform="translate(0,0)"></path>
<metadata><recraft-signature>{"signed_by": "recraft", "signature_b64": "ZtHz5RT6No9TRMd9ju3AS+FDvdSUy/2Pfkjv7GyfLmjRfNi9ysDWmHxnXcmpmWuBzBmJteKUAuCkxH6CQM3JCg==", "signing_algo": "Ed25519", "generation_timestamp": 1778553509, "identifier": "fed95dcc-9930-441b-9724-ba239c5af7c9"}</recraft-signature></metadata></svg>