<svg xmlns="http://www.w3.org/2000/svg" height="1024" preserveAspectRatio="none" style="display: block;" version="1.1" viewBox="0 0 2048 2048" width="1024">
<defs>
	<linearGradient gradientUnits="userSpaceOnUse" id="Gradient1" x1="1534.03" x2="1616.31" y1="997.466" y2="1234.02">
		<stop class="stop0" offset="0" stop-color="rgb(0,0,0)" stop-opacity="1"></stop>
		<stop class="stop1" offset="1" stop-color="rgb(16,45,52)" stop-opacity="1"></stop>
	</linearGradient>
</defs>

<path d="M 848.568 224.752 C 835.449 166.003 914.916 153.001 920.897 211.109 C 921.025 216.17 921.014 220.735 920.932 225.798 C 934.548 223.258 952.244 219.684 965.659 218.642 C 1019.4 214.465 1081.78 224.54 1126.61 255.824 C 1166.55 283.701 1202.95 327.207 1233.36 365.387 C 1263.43 361.656 1293.57 358.518 1323.77 355.974 C 1412.72 347.766 1509.51 340.335 1595.05 371.228 C 1635.77 385.932 1670.17 408.428 1676.32 454.673 C 1681.23 491.641 1666.63 529.478 1644.07 558.522 C 1596.62 617.597 1523.32 658.066 1453.66 685.126 C 1442.87 689.315 1428.03 694.65 1416.77 698.6 C 1416.06 698.846 1415.17 702.564 1414.98 703.639 C 1415.27 744.379 1366.62 765.11 1331.88 765.03 C 1326.48 764.966 1321.1 764.525 1315.76 763.709 C 1305.54 800.749 1278.98 821.706 1241.35 828.922 C 1223.1 832.421 1206.79 829.699 1188.99 825.046 C 1179.09 831.099 1168.84 837.094 1158.22 841.819 C 1156.4 842.546 1153.71 843.507 1152.06 844.394 C 1067.43 884.675 959.606 880.867 882.308 825.856 L 858.672 841.254 C 850.194 846.76 842.125 852.871 834.527 859.54 C 831.51 861.742 828.197 863.977 825.598 866.607 L 824.382 866.992 C 820.899 861.713 817.696 857.036 814.783 851.408 C 789.398 871.608 787.213 873.335 755.639 881.629 C 669.907 905.907 520.56 927.75 434.408 898.459 C 411.646 890.72 389.665 879.02 378.826 856.454 C 367.014 831.859 369.453 801.919 378.448 776.865 C 411.928 683.613 543.421 602.53 629.858 561.817 C 624.194 558.192 622.574 555.869 618.897 550.256 C 613.35 546.164 605.701 545.286 599.915 536.026 C 593.619 525.421 593.387 505.343 596.94 493.435 C 608.143 455.901 646.683 438.354 682.201 447.728 C 686.928 438.915 693.705 411.204 698.004 399.661 C 719.512 341.696 761.185 293.422 815.388 263.681 C 829.942 255.73 841.611 252.089 855.934 245.522 C 852.719 237.477 851.043 233.201 848.568 224.752 z" fill="rgb(220,169,141)" transform="translate(0,0)"></path>
<path d="M 848.568 224.752 C 835.449 166.003 914.916 153.001 920.897 211.109 C 921.025 216.17 921.014 220.735 920.932 225.798 C 934.548 223.258 952.244 219.684 965.659 218.642 C 1019.4 214.465 1081.78 224.54 1126.61 255.824 C 1166.55 283.701 1202.95 327.207 1233.36 365.387 C 1263.43 361.656 1293.57 358.518 1323.77 355.974 C 1412.72 347.766 1509.51 340.335 1595.05 371.228 C 1635.77 385.932 1670.17 408.428 1676.32 454.673 C 1681.23 491.641 1666.63 529.478 1644.07 558.522 C 1596.62 617.597 1523.32 658.066 1453.66 685.126 C 1442.87 689.315 1428.03 694.65 1416.77 698.6 C 1416.06 698.846 1415.17 702.564 1414.98 703.639 C 1415.29 690.466 1413.08 685.941 1406.68 674.765 C 1436.56 666.065 1454 652.123 1453.82 618.57 L 1452.05 619.468 C 1440.88 625.104 1403.86 639.573 1396.24 623.393 L 1395.01 623.128 C 1395.96 582.559 1374.1 550.615 1331.11 545.031 C 1319.79 543.561 1310.23 545.449 1299.41 548.87 C 1295.29 557.729 1287.93 567.265 1279.43 571.945 C 1217.86 605.847 1140.42 557.88 1108.8 508.357 L 1106.02 508.148 C 1067.32 517.726 1003.84 537.145 965.719 550.567 L 955.555 553.585 L 937.717 560.111 C 930.959 583.898 914.18 608.807 896.043 625.442 C 890.619 630.416 879.08 643.043 872.534 633.795 C 872.962 626.293 887.831 617.942 893.573 611.983 C 907.899 597.118 914.841 583.704 923.278 565.355 C 909.727 570.143 867.896 583.969 858.171 589.519 C 831.09 556.589 802.378 528.357 775.823 492.716 C 774.942 492.89 774.06 493.064 773.179 493.237 C 767.253 500.557 762.89 507.183 753.604 510.932 L 743.411 513.086 C 738.438 513.178 736.399 512.656 731.589 511.313 C 720.908 523.842 716.911 525.083 702.422 533.429 C 685.69 542.605 648.461 567.852 629.858 561.817 C 624.194 558.192 622.574 555.869 618.897 550.256 C 613.35 546.164 605.701 545.286 599.915 536.026 C 593.619 525.421 593.387 505.343 596.94 493.435 C 608.143 455.901 646.683 438.354 682.201 447.728 C 686.928 438.915 693.705 411.204 698.004 399.661 C 719.512 341.696 761.185 293.422 815.388 263.681 C 829.942 255.73 841.611 252.089 855.934 245.522 C 852.719 237.477 851.043 233.201 848.568 224.752 z" fill="rgb(220,169,141)" transform="translate(0,0)"></path>
<path d="M 1407.78 452.494 C 1410.32 439.751 1418.95 432.074 1432.38 431.066 C 1450 429.744 1475.51 423.456 1484.42 443.377 C 1517.09 440.406 1570.78 433.991 1600.04 453.447 C 1618.68 465.849 1597.97 494.227 1586.59 505.657 C 1548.09 544.319 1499.27 572.561 1450.61 596.548 C 1432.83 605.381 1413.43 613.7 1396.24 623.393 L 1395.01 623.128 C 1395.96 582.559 1374.1 550.615 1331.11 545.031 C 1319.79 543.561 1310.23 545.449 1299.41 548.87 C 1301.46 537.883 1303.1 528.693 1299.45 517.633 C 1291.69 494.103 1262.85 487.651 1241.55 495.531 C 1239.63 487.902 1238.9 484.779 1235.6 477.713 C 1292.69 467.342 1350.12 458.931 1407.78 452.494 z" fill="rgb(14,41,47)" transform="translate(0,0)"></path>
<path d="M 1466.32 525.628 C 1473.75 522.988 1481.93 526.806 1484.68 534.201 C 1487.43 541.596 1483.73 549.828 1476.37 552.684 C 1471.52 554.57 1466.03 553.695 1462 550.394 C 1457.97 547.094 1456.03 541.88 1456.93 536.751 C 1457.82 531.621 1461.41 527.371 1466.32 525.628 z" fill="rgb(15,104,118)" transform="translate(0,0)"></path>
<path d="M 1466.85 461.159 C 1477.26 460.267 1487.04 460.739 1485.85 475.016 C 1485.43 480.072 1481.55 483.144 1477.65 485.896 C 1459.56 487.538 1451.4 472.089 1466.85 461.159 z" fill="rgb(15,104,118)" transform="translate(0,0)"></path>
<path d="M 1531.5 487.85 C 1537.87 485.445 1544.99 488.625 1547.45 494.975 C 1549.91 501.325 1546.79 508.471 1540.47 510.986 C 1534.06 513.532 1526.81 510.367 1524.32 503.939 C 1521.83 497.511 1525.05 490.285 1531.5 487.85 z" fill="rgb(15,104,118)" transform="translate(0,0)"></path>
<path d="M 1411.19 496.028 C 1429.52 495.851 1430.31 512.203 1417.2 519.654 C 1412.61 520.15 1408.7 519.598 1406.17 515.412 C 1400.15 505.455 1403.49 501.404 1411.19 496.028 z" fill="rgb(15,104,118)" transform="translate(0,0)"></path>
<path d="M 747.739 453.841 C 749.988 430.769 765.393 398.535 784.175 384.267 C 795.137 375.543 814.922 366.17 829.316 369.31 C 852.345 374.334 877.81 403.827 874.505 427.795 C 873.293 441.032 870.71 454.329 859.647 463.135 C 841.39 477.667 799.013 488.483 775.823 492.716 C 774.942 492.89 774.06 493.064 773.179 493.237 C 767.253 500.557 762.89 507.183 753.604 510.932 L 743.411 513.086 C 738.438 513.178 736.399 512.656 731.589 511.313 C 720.908 523.842 716.911 525.083 702.422 533.429 C 685.69 542.605 648.461 567.852 629.858 561.817 C 624.194 558.192 622.574 555.869 618.897 550.256 C 613.35 546.164 605.701 545.286 599.915 536.026 C 593.619 525.421 593.387 505.343 596.94 493.435 C 608.143 455.901 646.683 438.354 682.201 447.728 C 701.812 452.869 706.116 458.911 721.346 464.929 C 731.017 455.661 734.906 455.272 747.739 453.841 z" fill="rgb(219,76,47)" transform="translate(0,0)"></path>
<path d="M 618.897 550.256 C 613.35 546.164 605.701 545.286 599.915 536.026 C 593.619 525.421 593.387 505.343 596.94 493.435 C 608.143 455.901 646.683 438.354 682.201 447.728 C 701.812 452.869 706.116 458.911 721.346 464.929 C 711.212 481.091 712.48 495.191 727.508 507.86 C 703.073 533.864 663.042 548.861 627.946 550.074 C 624.931 550.171 621.914 550.232 618.897 550.256 z" fill="rgb(219,76,47)" transform="translate(0,0)"></path>
<path d="M 659.041 480.233 C 684.318 478.875 722.185 497.238 680.836 504.997 C 643.173 510.53 619.834 487.58 659.041 480.233 z" fill="rgb(16,14,14)" transform="translate(0,0)"></path>
<path d="M 657.827 486.167 C 666.336 485.254 685.432 486.465 692.74 493.983 C 694.638 495.935 682.26 499.289 679.729 500.061 C 662.426 502.888 622.431 494.318 657.827 486.167 z" fill="rgb(219,76,47)" transform="translate(0,0)"></path>
<path d="M 774.712 487.877 C 802.731 483.615 838.096 468.975 857.197 447.308 C 862.582 441.199 869.802 429.757 873.364 426.387 L 874.505 427.795 C 873.293 441.032 870.71 454.329 859.647 463.135 C 841.39 477.667 799.013 488.483 775.823 492.716 C 774.942 492.89 774.06 493.064 773.179 493.237 C 767.253 500.557 762.89 507.183 753.604 510.932 L 743.411 513.086 C 738.438 513.178 736.399 512.656 731.589 511.313 C 720.908 523.842 716.911 525.083 702.422 533.429 C 685.69 542.605 648.461 567.852 629.858 561.817 C 624.194 558.192 622.574 555.869 618.897 550.256 C 621.914 550.232 624.931 550.171 627.946 550.074 C 663.042 548.861 703.073 533.864 727.508 507.86 C 712.48 495.191 711.212 481.091 721.346 464.929 C 731.017 455.661 734.906 455.272 747.739 453.841 C 769.452 455.582 776.34 467.786 774.712 487.877 z" fill="rgb(16,14,14)" transform="translate(0,0)"></path>
<path d="M 740.437 459.097 C 780.453 457.807 776.153 496.536 750.579 506.77 C 716.41 513.339 709.629 468.934 740.437 459.097 z" fill="rgb(219,76,47)" transform="translate(0,0)"></path>
<path d="M 822.554 406.147 L 823.601 406.467 C 825.547 407.085 828.575 408.306 828.791 410.541 C 831.077 434.237 808.17 447.936 791.258 453.865 C 789.794 453.822 785.172 454.227 785.062 451.551 C 784.759 444.24 788.575 435.317 792.275 429.163 C 799.208 417.634 809.554 409.31 822.554 406.147 z" fill="rgb(16,14,14)" transform="translate(0,0)"></path>
<path d="M 820.167 411.751 C 826.74 412.516 823.866 417.993 821.894 422.994 C 816.909 435.639 806.382 442.198 794.305 447.212 C 791.739 447.745 790.345 447.396 791.377 444.315 C 796.736 428.311 805.884 419.372 820.167 411.751 z" fill="rgb(219,76,47)" transform="translate(0,0)"></path>
<path d="M 1139.83 498.752 C 1170.77 493 1204.78 482.568 1235.6 477.713 C 1238.9 484.779 1239.63 487.902 1241.55 495.531 C 1262.85 487.651 1291.69 494.103 1299.45 517.633 C 1303.1 528.693 1301.46 537.883 1299.41 548.87 C 1295.29 557.729 1287.93 567.265 1279.43 571.945 C 1217.86 605.847 1140.42 557.88 1108.8 508.357 C 1110.63 507.219 1124.69 503.031 1127.34 502.208 C 1153.11 531.584 1180.59 554.944 1221.91 556.276 C 1225.93 556.406 1228.11 555.773 1230.79 552.926 C 1231.08 549.553 1230.59 549.319 1228.98 546.346 C 1222.12 543.332 1204.94 544.097 1196.13 540.501 C 1174.24 531.56 1154.31 517.477 1139.83 498.752 z" fill="rgb(225,101,73)" transform="translate(0,0)"></path>
<path d="M 848.568 224.752 C 835.449 166.003 914.916 153.001 920.897 211.109 C 921.025 216.17 921.014 220.735 920.932 225.798 C 911.988 226.489 863.724 241.275 855.934 245.522 C 852.719 237.477 851.043 233.201 848.568 224.752 z" fill="rgb(220,169,141)" transform="translate(0,0)"></path>
<path d="M 920.897 211.109 C 921.025 216.17 921.014 220.735 920.932 225.798 C 911.988 226.489 863.724 241.275 855.934 245.522 C 852.719 237.477 851.043 233.201 848.568 224.752 C 853.879 228.089 859.525 233.099 866.03 233.626 C 879.822 234.746 912.831 223.985 919.91 212.48 L 920.897 211.109 z" fill="rgb(16,14,14)" transform="translate(0,0)"></path>
<path d="M 1192.6 364.597 C 1199.17 363.857 1202.83 362.658 1208.42 366.395 L 1208.14 367.841 C 1204.05 369.381 1168.44 371.925 1160.59 372.957 C 1141.91 375.493 1123.35 378.889 1104.97 383.134 C 1036.1 398.537 947.381 429.018 881.217 454.096 C 877.376 455.69 875.097 457.463 871.532 454.949 L 872.096 453.027 C 876.305 449.732 908.157 438.867 916.247 436.009 C 1005.94 404.32 1097.26 372.534 1192.6 364.597 z" fill="rgb(16,14,14)" transform="translate(0,0)"></path>
<path d="M 1130.16 298.354 C 1134.24 300.987 1133.83 299.904 1135.74 303.673 C 1135.4 307.63 1113.32 337.038 1109.28 340.849 C 1096.57 333.295 1085.68 322.18 1075.11 311.896 C 1067.76 323.826 1059.17 342.004 1050.19 351.874 C 1036.39 343.572 1022.84 334.851 1009.57 325.723 C 1007.04 323.717 1005.47 322.931 1004.47 319.89 C 1005.5 316.614 1004.55 317.797 1006.95 315.922 C 1014.24 315.682 1040.16 334.3 1047.68 339.407 C 1056.26 327.576 1065.12 310.529 1074.22 299.745 C 1081.37 304.008 1100.47 322.721 1107.65 329.451 C 1115.16 317.582 1120.96 308.926 1130.16 298.354 z" fill="rgb(239,124,42)" transform="translate(0,0)"></path>
<path d="M 1358.79 386.655 C 1363.01 387.219 1364.2 387.37 1365.16 391.316 C 1362.68 397.518 1340.61 427.932 1335.67 433.285 C 1326.26 427.236 1315.24 416.43 1306.97 408.536 C 1302.57 416.146 1294.57 431.775 1289.56 437.593 C 1280.09 434.038 1266.94 422.621 1258.63 416.031 C 1256.76 414.497 1256.28 413.857 1254.69 412 C 1254.78 407.935 1255.64 407.044 1259.01 405.478 C 1266.35 406.529 1279.44 420.843 1285.73 426.806 C 1289.87 419.435 1299.12 400.592 1306.32 398.208 C 1313.19 398.696 1326.97 414.722 1333.82 419.853 C 1342.28 407.058 1348.03 397.688 1358.79 386.655 z" fill="rgb(239,124,42)" transform="translate(0,0)"></path>
<path d="M 946.63 248.583 C 952.516 253.393 973.9 268.271 973.255 275.907 L 971.514 276.588 C 963.278 274.853 952.641 265.381 945.668 259.94 C 939.267 270.428 930.276 283.293 922.956 293.054 C 915.03 287.175 905.446 276.234 898.437 268.812 C 895.251 273.031 892.903 276.758 890.097 281.191 C 884.321 291.399 882.397 302.153 874.437 309.504 L 871.878 308.779 C 870.012 296.846 885.171 261.338 899.262 259.521 C 902.994 259.039 917.952 277.184 920.926 280.515 C 929.243 267.155 934.501 258.415 946.63 248.583 z" fill="rgb(239,124,42)" transform="translate(0,0)"></path>
<path d="M 1172.63 412.436 C 1174.26 412.503 1180.23 413.429 1179.56 416.146 C 1178.38 420.929 1166.91 458.418 1163.01 457.744 C 1151.87 455.816 1132.98 440.562 1123.56 433.294 C 1121 443.391 1120.41 463.664 1114.81 469.839 C 1106.51 462.823 1108.34 455.954 1110.87 444.992 C 1117.97 414.26 1120.07 414.887 1141.97 435.152 C 1144.78 437.758 1154.51 444.968 1158.43 448.142 C 1162.6 435.033 1164.29 423.243 1172.63 412.436 z" fill="rgb(239,124,42)" transform="translate(0,0)"></path>
<path d="M 957.192 319.39 C 958.438 319.659 964.776 321.781 964.064 323.547 C 937.631 389.109 950.437 384.408 895.345 354.579 C 893.558 353.389 891.334 352.37 890.405 350.669 C 889.446 348.912 893.322 344.234 894.54 344.536 C 905.021 347.132 927.186 363.034 934.797 368.033 C 939.434 358.527 953.425 325.002 957.192 319.39 z" fill="rgb(239,124,42)" transform="translate(0,0)"></path>
<path d="M 1474.67 379.523 C 1481.58 380.626 1496.43 398.598 1504.45 405.714 C 1506.94 401.544 1515.38 385.571 1519.96 383.214 C 1521 382.679 1526.24 388.166 1525.44 389.527 C 1521.49 396.261 1512.95 413.52 1506.99 417.491 L 1505.6 418.445 C 1494.99 410.025 1486.76 400.693 1476.63 391.8 C 1472.94 397.069 1469.64 401.727 1465.62 408.644 C 1463.07 414.781 1456.83 419.884 1454.9 410.521 C 1453.85 405.469 1471.69 382.866 1474.67 379.523 z" fill="rgb(239,124,42)" transform="translate(0,0)"></path>
<path d="M 1006.06 453.752 C 1017.32 458.26 1013.33 460.288 1008.27 471.028 C 985.629 519.04 993.06 517.56 948.839 493.021 C 944.035 489.259 941.295 485.63 948.024 482.956 C 950.756 481.871 977.591 498.306 980.947 500.212 L 982.577 501.11 C 986.576 492.988 1002.7 458.546 1006.06 453.752 z" fill="rgb(239,124,42)" transform="translate(0,0)"></path>
<path d="M 1529.46 593.281 C 1539.18 598.033 1534.82 601.223 1531.7 610.255 C 1520.44 642.84 1517.96 641.635 1492.17 622.071 C 1489.61 629.961 1488.02 637.774 1484.45 645.037 C 1471.08 641.16 1481.97 626.056 1484.95 615.997 C 1488.48 604.035 1508.02 621.55 1514.14 625.801 C 1519.12 614.434 1522.86 603.889 1529.46 593.281 z" fill="rgb(239,124,42)" transform="translate(0,0)"></path>
<path d="M 1622.83 409.702 C 1630.94 411.045 1633.68 436.788 1634.93 444.383 C 1639.42 440.889 1643.03 437.53 1648.44 432.883 C 1653.43 427.967 1659.96 423.532 1660.36 434.017 C 1660.48 437.097 1638.53 452.162 1635.5 454.472 C 1625.01 460.675 1622.41 427.985 1621.47 421.468 C 1618.09 423.967 1602.88 435.773 1599.99 434.667 C 1588.16 430.14 1602.93 422.809 1606.37 420.644 C 1612.33 416.9 1617.66 413.202 1622.83 409.702 z" fill="rgb(239,124,42)" transform="translate(0,0)"></path>
<path d="M 913.135 488.435 C 920.603 491.636 920.8 493.143 916.593 500.474 C 908.424 514.708 902.099 532.648 891.847 545.387 C 882.298 544.829 886.459 536.464 889.575 531.001 C 896.11 519.544 903.701 499.587 911.927 489.895 L 913.135 488.435 z" fill="rgb(239,124,42)" transform="translate(0,0)"></path>
<path d="M 1031.77 233.834 C 1036.34 235.553 1060.18 248.777 1059.07 252.987 C 1055.26 267.349 1038.19 243.339 1033.12 247.949 C 1030.87 251.476 1020.77 268.227 1018.03 268.159 C 1007.16 267.888 1016.93 255.142 1018.56 253.224 C 1024.31 246.475 1026 239.834 1031.77 233.834 z" fill="rgb(239,124,42)" transform="translate(0,0)"></path>
<path d="M 815.592 309.495 C 818.324 310.67 846.244 335.564 831.517 334.854 C 827.127 334.642 820.624 325.198 817.954 322.074 C 815.015 325.563 813.265 328.021 810.521 331.465 C 807.903 335.7 802.551 343.98 797.513 345.941 C 795.967 347.038 792.414 344.09 792.857 343.022 C 796.221 334.918 810.453 315.654 815.592 309.495 z" fill="rgb(239,124,42)" transform="translate(0,0)"></path>
<path d="M 745.344 354.523 C 751.398 355.355 758.942 358.94 763.531 362.933 C 765.411 364.57 767.907 367.356 767.91 370.037 C 767.911 370.843 767.591 371.486 767.008 372.024 C 765.795 373.142 763.626 373.916 761.983 373.873 C 758.669 373.788 755.022 370.371 752.824 368.207 C 752.025 367.42 751.913 367.237 751.169 366.658 C 750.766 366.344 750.173 366.051 749.649 366.187 C 748.342 366.526 747.025 371.779 746.543 372.97 C 745.839 375.345 739.16 398.509 733.032 386.999 C 731.287 383.721 741.72 359.269 745.344 354.523 z" fill="rgb(239,124,42)" transform="translate(0,0)"></path>
<path d="M 1584.61 542.908 C 1589.9 541.287 1595.51 544.162 1597.28 549.397 C 1599.06 554.632 1596.34 560.327 1591.16 562.248 C 1587.68 563.542 1583.76 562.837 1580.94 560.41 C 1578.13 557.983 1576.85 554.216 1577.61 550.576 C 1578.38 546.936 1581.06 543.999 1584.61 542.908 z" fill="rgb(70,146,154)" transform="translate(0,0)"></path>
<path d="M 1623.89 477.751 C 1626.28 476.608 1629.11 476.875 1631.25 478.445 C 1633.38 480.016 1634.48 482.635 1634.11 485.26 C 1633.73 487.885 1631.94 490.09 1629.45 490.996 C 1625.84 492.307 1621.84 490.558 1620.36 487.021 C 1618.88 483.484 1620.43 479.405 1623.89 477.751 z" fill="rgb(14,41,47)" transform="translate(0,0)"></path>
<path d="M 1610.04 505.35 C 1613.62 503.929 1617.68 505.648 1619.16 509.211 C 1620.63 512.774 1618.97 516.861 1615.43 518.389 C 1613.1 519.398 1610.4 519.069 1608.37 517.529 C 1606.34 515.989 1605.3 513.475 1605.65 510.953 C 1605.99 508.43 1607.67 506.289 1610.04 505.35 z" fill="rgb(70,146,154)" transform="translate(0,0)"></path>
<path d="M 702.422 533.429 C 689.393 572.476 671.652 624.371 660.789 663.767 C 671.03 653.361 684.336 639.387 695.209 629.821 C 696.987 634.922 701.683 647.689 702.302 652.369 C 704.709 658.142 706.147 664.15 707.779 670.191 C 700.412 672.163 693.861 673.86 687 677.232 C 643.889 698.419 626.846 744.661 665.379 780.755 C 662.05 787.211 660.329 791.249 658.761 798.439 C 658.484 799.71 657.34 806.483 657.117 807.094 C 656.189 851.134 693.868 876.565 733.728 879.472 C 740.255 879.948 749.376 880.46 755.639 881.629 C 669.907 905.907 520.56 927.75 434.408 898.459 C 411.646 890.72 389.665 879.02 378.826 856.454 C 367.014 831.859 369.453 801.919 378.448 776.865 C 411.928 683.613 543.421 602.53 629.858 561.817 C 648.461 567.852 685.69 542.605 702.422 533.429 z" fill="rgb(220,169,141)" transform="translate(0,0)"></path>
<path d="M 702.302 652.369 C 704.709 658.142 706.147 664.15 707.779 670.191 C 700.412 672.163 693.861 673.86 687 677.232 C 643.889 698.419 626.846 744.661 665.379 780.755 C 662.05 787.211 660.329 791.249 658.761 798.439 C 658.484 799.71 657.34 806.483 657.117 807.094 C 645.59 808.946 634.048 810.708 622.493 812.378 C 583.126 817.862 509.43 823.032 476.704 799.941 C 439.749 773.867 536.907 733.15 544.739 724.435 C 545.309 718.205 544.487 716.832 550.236 714.178 C 553.926 714.053 554.726 714.857 558.19 716.697 L 559.331 717.314 C 609.223 692.142 652.772 675.161 702.302 652.369 z" fill="rgb(14,41,47)" transform="translate(0,0)"></path>
<path d="M 611.309 764.038 C 617.732 762.163 624.455 765.872 626.293 772.306 C 628.131 778.74 624.383 785.441 617.938 787.242 C 611.546 789.028 604.912 785.317 603.089 778.935 C 601.265 772.554 604.938 765.898 611.309 764.038 z" fill="rgb(15,104,118)" transform="translate(0,0)"></path>
<path d="M 544.511 761.895 C 550.148 760.538 555.821 763.99 557.206 769.62 C 558.591 775.249 555.167 780.94 549.544 782.353 C 543.882 783.776 538.142 780.322 536.748 774.653 C 535.353 768.984 538.835 763.261 544.511 761.895 z" fill="rgb(15,104,118)" transform="translate(0,0)"></path>
<path d="M 587.974 723.581 C 593.427 721.579 599.471 724.376 601.475 729.828 C 603.479 735.281 600.684 741.326 595.233 743.332 C 589.778 745.34 583.728 742.543 581.723 737.087 C 579.718 731.631 582.517 725.583 587.974 723.581 z" fill="rgb(15,104,118)" transform="translate(0,0)"></path>
<path d="M 422.773 790.149 C 436.109 789.386 448.097 792.875 461.091 794.818 C 462.328 795.003 462.586 803.51 461.307 803.629 C 453.12 804.39 441.17 800.907 432.918 799.128 C 445.756 831.92 451.271 841.34 408.342 832.018 C 409.862 835.574 411.723 840.121 413.139 843.728 C 414.823 847.542 419.541 857.01 419.646 860.654 C 419.663 861.252 413.681 865.405 411.346 862.49 C 408.144 858.494 407.651 853.659 405.667 849.019 C 404.013 842.411 398.244 833.552 397.469 827.062 C 396.766 821.168 410.188 823.751 411.502 823.931 C 418.456 824.885 425.255 825.134 432.115 825.698 C 429.456 818.572 419.284 795.87 422.773 790.149 z" fill="rgb(239,124,42)" transform="translate(0,0)"></path>
<path d="M 514.943 664.889 C 545.176 664.157 567.423 689.939 520.753 674.894 C 515.438 687.948 514.319 695.799 506.917 708.372 C 504.23 706.939 481.278 694.173 480.414 694.465 C 479.628 695.317 479.952 700.416 479.964 701.75 C 479.985 711.193 480.27 721.091 479.874 730.437 C 478.333 735.028 471.044 731.021 471.191 728.356 C 473.423 687.795 458.646 668.613 502.757 697.586 C 505.727 688.863 510.035 671.621 514.943 664.889 z" fill="rgb(239,124,42)" transform="translate(0,0)"></path>
<path d="M 480.202 839.348 C 480.469 839.402 480.735 839.461 481.003 839.511 C 481.65 839.632 482.385 839.699 483.014 839.946 C 485.158 840.79 496.386 876.046 498.459 881.227 C 501.109 872.301 505.964 852.428 510.998 845.501 C 516.35 838.139 535.122 860.528 539.063 863.54 C 542.096 865.858 537.273 869.745 535.073 870.921 C 528.312 866.196 522.631 860.955 516.379 855.532 C 514.299 861.728 506.084 889.895 504.632 891.795 C 492.173 908.091 478.082 850.095 476.455 844.479 C 476.006 842.927 479.698 839.86 480.202 839.348 z" fill="rgb(239,124,42)" transform="translate(0,0)"></path>
<path d="M 631.32 838.483 C 640.694 840.063 642.469 845.218 649.153 852.404 C 651.641 855.078 657.441 861.847 649.004 864.763 C 646.538 865.615 637.247 853.271 634.962 850.656 C 632.013 856.114 623.248 876.717 619.094 880.94 C 617.947 882.106 613.146 879.434 611.555 878.491 C 608.373 876.314 586.805 860.914 587.009 859.021 C 588.642 843.946 610.103 867.125 614.935 871.159 C 619.36 859.778 624.846 848.837 631.32 838.483 z" fill="rgb(239,124,42)" transform="translate(0,0)"></path>
<path d="M 642.469 595.411 C 643.934 595.815 649.553 597.606 649.023 600 C 645.966 615.31 638.373 630.431 633.75 645.389 C 629.31 659.755 613.415 639.64 607.758 634.072 C 606.07 632.325 603.461 629.898 602.401 627.731 C 601.612 626.121 605.016 621.698 606.715 621.131 C 607.214 621.237 623.936 638.414 626.001 640.427 C 629.97 626.405 635.776 608.14 642.469 595.411 z" fill="rgb(239,124,42)" transform="translate(0,0)"></path>
<path d="M 775.823 492.716 C 802.378 528.357 831.09 556.589 858.171 589.519 C 867.896 583.969 909.727 570.143 923.278 565.355 C 914.841 583.704 907.899 597.118 893.573 611.983 C 887.831 617.942 872.962 626.293 872.534 633.795 C 879.08 643.043 890.619 630.416 896.043 625.442 C 914.18 608.807 930.959 583.898 937.717 560.111 L 955.555 553.585 C 948.236 597.85 926.54 638.041 890.141 665.18 C 855.883 690.721 800.877 702.291 766.006 671.152 C 758.98 693.987 745.945 706.827 722.096 710.836 C 715.126 735.386 712.571 755.338 725.589 778.929 C 734.707 795.406 749.955 807.622 768.024 812.926 C 799.259 821.862 820.789 810.331 841.823 788.475 C 849.871 796.778 856.829 803.921 865.477 811.651 C 869.742 815.463 878.85 822.31 882.308 825.856 L 858.672 841.254 C 850.194 846.76 842.125 852.871 834.527 859.54 C 831.51 861.742 828.197 863.977 825.598 866.607 L 824.382 866.992 C 820.899 861.713 817.696 857.036 814.783 851.408 C 789.398 871.608 787.213 873.335 755.639 881.629 C 749.376 880.46 740.255 879.948 733.728 879.472 C 693.868 876.565 656.189 851.134 657.117 807.094 C 657.34 806.483 658.484 799.71 658.761 798.439 C 660.329 791.249 662.05 787.211 665.379 780.755 C 626.846 744.661 643.889 698.419 687 677.232 C 693.861 673.86 700.412 672.163 707.779 670.191 C 706.147 664.15 704.709 658.142 702.302 652.369 C 701.683 647.689 696.987 634.922 695.209 629.821 C 684.336 639.387 671.03 653.361 660.789 663.767 C 671.652 624.371 689.393 572.476 702.422 533.429 C 716.911 525.083 720.908 523.842 731.589 511.313 C 736.399 512.656 738.438 513.178 743.411 513.086 L 753.604 510.932 C 762.89 507.183 767.253 500.557 773.179 493.237 C 774.06 493.064 774.942 492.89 775.823 492.716 z" fill="rgb(225,101,73)" transform="translate(0,0)"></path>
<path d="M 702.422 533.429 C 716.911 525.083 720.908 523.842 731.589 511.313 C 736.399 512.656 738.438 513.178 743.411 513.086 L 753.604 510.932 C 754.545 518.078 759.15 527.683 762.059 534.558 C 773.083 560.61 783.317 586.865 794.502 612.857 C 773.37 622.006 746.669 631.831 726.61 641.239 C 723.196 659.249 719.946 682.433 718.569 700.801 L 707.779 670.191 C 706.147 664.15 704.709 658.142 702.302 652.369 C 701.683 647.689 696.987 634.922 695.209 629.821 C 684.336 639.387 671.03 653.361 660.789 663.767 C 671.652 624.371 689.393 572.476 702.422 533.429 z" fill="rgb(219,76,47)" transform="translate(0,0)"></path>
<path d="M 743.411 513.086 L 753.604 510.932 C 754.545 518.078 759.15 527.683 762.059 534.558 C 773.083 560.61 783.317 586.865 794.502 612.857 C 773.37 622.006 746.669 631.831 726.61 641.239 C 729.792 627.373 732.518 601.492 734.31 586.809 C 737.209 563.042 741.286 536.754 743.411 513.086 z" fill="rgb(220,169,141)" transform="translate(0,0)"></path>
<path d="M 775.823 492.716 C 802.378 528.357 831.09 556.589 858.171 589.519 C 863.411 598.342 874.003 608.617 881.446 616.058 C 864.547 611.907 843.184 601.204 825.33 595.509 C 823.293 613.618 819.136 645.963 815.502 663.407 C 811.148 652.897 799.08 620.788 794.502 612.857 C 783.317 586.865 773.083 560.61 762.059 534.558 C 759.15 527.683 754.545 518.078 753.604 510.932 C 762.89 507.183 767.253 500.557 773.179 493.237 C 774.06 493.064 774.942 492.89 775.823 492.716 z" fill="rgb(219,76,47)" transform="translate(0,0)"></path>
<path d="M 1453.82 618.57 C 1454 652.123 1436.56 666.065 1406.68 674.765 C 1413.08 685.941 1415.29 690.466 1414.98 703.639 C 1415.27 744.379 1366.62 765.11 1331.88 765.03 C 1326.48 764.966 1321.1 764.525 1315.76 763.709 C 1305.54 800.749 1278.98 821.706 1241.35 828.922 C 1223.1 832.421 1206.79 829.699 1188.99 825.046 C 1193.3 821.443 1200.1 816.93 1204.93 813.611 C 1250.28 782.407 1281.85 738.7 1298.54 685.852 C 1299.53 686.131 1300.53 686.4 1301.54 686.659 C 1336.35 695.584 1370.41 679.77 1387.02 647.937 C 1391.14 640.045 1392.93 631.729 1395.01 623.128 L 1396.24 623.393 C 1403.86 639.573 1440.88 625.104 1452.05 619.468 L 1453.82 618.57 z" fill="rgb(225,101,73)" transform="translate(0,0)"></path>
<path d="M 965.719 550.567 C 1003.84 537.145 1067.32 517.726 1106.02 508.148 C 1105.38 521.26 1104.46 531.348 1099.07 543.474 C 1075.34 596.771 1007.71 600.672 971.408 558.124 C 969.343 555.737 967.442 553.212 965.719 550.567 z" fill="rgb(225,101,73)" transform="translate(0,0)"></path>
<path d="M 942.537 720.344 C 997.665 711.838 1010.61 778.155 948.079 787.377 C 888.121 792.682 878.863 728.996 942.537 720.344 z" fill="rgb(225,101,73)" transform="translate(0,0)"></path>
<path d="M 1239.96 668.331 C 1298.05 660.059 1311.73 723.104 1246.33 733.778 C 1186.86 739.421 1178.06 678.529 1239.96 668.331 z" fill="rgb(225,101,73)" transform="translate(0,0)"></path>
<path d="M 988.631 626.175 C 1001.33 627.044 1008.58 632.486 1009.97 646.004 C 1011.62 662.22 1019.35 685.173 1016.39 701.177 C 1015.02 708.547 1007.93 711.897 1001.64 713.862 L 1000.72 714.154 C 987.863 713.992 979.1 709.322 978.696 695.013 C 978.239 678.794 966.112 649.588 973.904 634.991 C 976.909 629.364 983.151 627.359 988.631 626.175 z" fill="rgb(16,14,14)" transform="translate(0,0)"></path>
<path d="M 1183.07 590.244 C 1214.43 592.895 1204.75 623.636 1212.03 647 C 1216.98 662.886 1211.28 672.949 1195.52 678.346 C 1181.48 678.578 1173.97 669.301 1174.13 656.493 C 1174.4 635.105 1152.19 597.716 1183.07 590.244 z" fill="rgb(16,14,14)" transform="translate(0,0)"></path>
<path d="M 1142.82 688.381 C 1143.43 688.557 1144.04 688.722 1144.66 688.877 C 1145.34 689.01 1147.79 689.794 1147.78 690.608 C 1147.47 745.918 1084.18 757.448 1059.77 709.61 C 1059.06 707.64 1056.71 703.007 1059.45 701.474 C 1060.02 701.157 1060.7 701.084 1061.33 701.272 C 1063.31 701.851 1065.83 709.168 1067.49 712.002 C 1073.58 722.476 1083.73 729.972 1095.53 732.717 C 1117.64 737.697 1137.52 722.034 1140.91 700.5 C 1141.55 696.477 1142.06 692.368 1142.82 688.381 z" fill="rgb(16,14,14)" transform="translate(0,0)"></path>
<path d="M 772.203 729.307 C 793.349 727.659 812.114 743.973 815.015 765.016 C 814.638 767.87 810.616 767.893 810.227 765.041 C 809.615 760.561 799.64 740.609 793.952 743.517 L 792.478 744.287 C 787.442 748.242 782.134 752.39 779.422 758.384 C 778.63 760.135 776.295 764.164 774.237 760.815 C 770.311 754.425 788.508 741.721 789.007 739.029 C 786.962 732.807 770.121 735.706 764.838 736.52 C 752.057 738.49 755.042 731.923 772.203 729.307 z" fill="rgb(16,14,14)" transform="translate(0,0)"></path>
<path d="M 1341 592.086 C 1354.21 592.834 1329.91 602.325 1330.09 602.225 C 1326.28 604.341 1322.82 607.659 1319.65 610.58 C 1320.68 610.839 1321.71 611.081 1322.73 611.367 C 1323.32 611.533 1323.9 611.768 1324.51 611.884 C 1329.17 612.772 1336.46 613.882 1339.46 618.081 C 1340.15 619.036 1340.51 620.324 1340.21 621.482 C 1340.09 621.951 1339.86 622.508 1339.4 622.735 C 1338.36 623.241 1320.25 615.678 1316.92 614.75 C 1315.04 618.343 1314.15 620.285 1312.63 624.03 C 1310.43 632.049 1310.57 637.384 1310.75 645.511 C 1310.8 647.875 1306.07 648.671 1305.68 645.009 C 1302.95 619.054 1315.17 598.576 1341 592.086 z" fill="rgb(16,14,14)" transform="translate(0,0)"></path>
<path d="M 882.308 825.856 C 959.606 880.867 1067.43 884.675 1152.06 844.394 C 1153.71 843.507 1156.4 842.546 1158.22 841.819 C 1166.9 849.336 1175.25 856.468 1183.49 864.492 L 1184.12 864.706 C 1201.02 873.992 1218.75 889.398 1238.24 898.573 C 1250.92 903.703 1263.4 908.967 1276.45 913.136 C 1305.17 922.317 1334.4 924.036 1363.22 928.991 C 1387.64 933.874 1424.19 937.708 1442.27 956.955 C 1453.25 967.883 1460.94 982.827 1461 998.537 C 1461.01 999.968 1460.99 1001.4 1460.92 1002.83 C 1474.07 1003.3 1493.91 1004.11 1506.74 1006.2 C 1498.82 1038.24 1496.79 1091.12 1496.15 1124.25 L 1480.48 1124.23 L 1455.9 1123.8 C 1446.28 1138.23 1438.9 1148.07 1425.28 1159.02 C 1406.74 1174.73 1363.84 1186.37 1339.64 1183.23 C 1327.56 1181.66 1317.13 1180.67 1305.21 1177.63 C 1300.84 1176.52 1286.71 1173.03 1283.19 1172.84 C 1297.67 1214.55 1309.12 1257.2 1323.17 1298.2 C 1309.67 1304.65 1298.72 1309.47 1284.53 1314.66 L 1275.33 1317.57 C 1263.66 1320.67 1251.51 1324.09 1239.82 1326.95 C 1230.73 1328.91 1217.55 1331.91 1208.56 1332.81 C 1205.28 1333.05 1201.69 1333.23 1198.48 1333.71 C 1184 1336.77 1140.05 1343.5 1125.47 1343.98 L 1119.67 1344.41 C 1115.03 1345.7 1111.79 1344.32 1107.73 1345.94 C 1105.89 1345.09 1050.81 1349.72 1045.33 1350.06 C 1037.43 1323.65 1025.61 1278.78 1024.99 1250.97 L 1023.19 1249.37 C 1017.58 1284.93 1009 1321.73 990.888 1353.14 C 974.498 1352.99 951.08 1353.37 935.294 1351.59 C 930.268 1350.94 929.453 1350.79 924.535 1351.86 L 924.283 1352.52 C 921.701 1350.34 859.614 1343.61 851.109 1342.79 L 842.548 1340.92 C 830.517 1340.83 793.108 1330.41 788.556 1332.96 C 786.808 1330.4 771.344 1327.34 767.196 1326.34 L 756.939 1323.71 C 735.684 1316.61 718.786 1309.62 698.196 1300.85 C 702.011 1281.76 706.442 1262.8 711.484 1243.99 C 695.271 1252.91 678.178 1253.94 659.917 1251.51 C 648.972 1250.52 635.606 1246.56 624.573 1243.94 C 618.593 1257.51 606.621 1267.36 594.647 1275.71 C 593.924 1270.55 592.759 1265.45 591.165 1260.49 C 580.739 1228.77 554.988 1203.62 525.219 1189.47 C 515.772 1184.97 504.159 1182.64 495.227 1177.81 C 506.752 1164.86 519.849 1151.38 531.769 1138.67 C 493.461 1111.37 495.879 1075.12 524.786 1042.18 C 539.948 1024.79 553.781 1013.53 573.953 1002.49 C 603.747 981.914 662.719 968.856 696.172 954.22 C 701.728 952.991 730.695 939.018 737.973 935.868 C 766.047 919.025 800.556 890.014 824.382 866.992 L 825.598 866.607 C 828.197 863.977 831.51 861.742 834.527 859.54 C 842.125 852.871 850.194 846.76 858.672 841.254 L 882.308 825.856 z" fill="rgb(225,207,187)" transform="translate(0,0)"></path>
<path d="M 1229.8 1023.7 C 1233.7 1033.79 1238.97 1049.56 1243.24 1058.84 C 1255.76 1096.51 1270.38 1134.21 1283.19 1172.84 C 1297.67 1214.55 1309.12 1257.2 1323.17 1298.2 C 1309.67 1304.65 1298.72 1309.47 1284.53 1314.66 L 1275.33 1317.57 C 1263.66 1320.67 1251.51 1324.09 1239.82 1326.95 C 1230.73 1328.91 1217.55 1331.91 1208.56 1332.81 C 1205.28 1333.05 1201.69 1333.23 1198.48 1333.71 C 1184 1336.77 1140.05 1343.5 1125.47 1343.98 L 1119.67 1344.41 C 1115.03 1345.7 1111.79 1344.32 1107.73 1345.94 C 1105.89 1345.09 1050.81 1349.72 1045.33 1350.06 C 1037.43 1323.65 1025.61 1278.78 1024.99 1250.97 L 1023.19 1249.37 C 1017.58 1284.93 1009 1321.73 990.888 1353.14 C 974.498 1352.99 951.08 1353.37 935.294 1351.59 C 930.268 1350.94 929.453 1350.79 924.535 1351.86 L 924.283 1352.52 C 921.701 1350.34 859.614 1343.61 851.109 1342.79 L 842.548 1340.92 C 848.673 1319.35 854.3 1292.97 859.504 1271.05 L 884.604 1167.7 L 901.095 1101.53 C 903.706 1091.17 908.78 1072.95 910.166 1063.05 L 920.191 1062.1 C 942.602 1060.85 970.481 1057.53 993.275 1055.54 C 994.998 1054.95 1003.8 1054.56 1006.18 1054.4 C 1020.2 1053.93 1029.23 1052.91 1042.85 1050.71 C 1043.5 1047.55 1044.81 1043.66 1045.77 1040.5 C 1076.95 1021.65 1074.55 1048.31 1091.18 1046.54 C 1101.69 1044.76 1112.13 1043.49 1122.6 1041.48 L 1132.67 1040.18 C 1151.94 1037.75 1177.08 1034.18 1195.92 1030.49 L 1205.28 1028.94 C 1213.97 1027.71 1221.37 1025.99 1229.8 1023.7 z" fill="rgb(239,124,42)" transform="translate(0,0)"></path>
<path d="M 1229.8 1023.7 C 1233.7 1033.79 1238.97 1049.56 1243.24 1058.84 C 1255.76 1096.51 1270.38 1134.21 1283.19 1172.84 C 1297.67 1214.55 1309.12 1257.2 1323.17 1298.2 C 1309.67 1304.65 1298.72 1309.47 1284.53 1314.66 L 1275.33 1317.57 C 1263.66 1320.67 1251.51 1324.09 1239.82 1326.95 C 1230.73 1328.91 1217.55 1331.91 1208.56 1332.81 C 1205.97 1319.64 1200.92 1301.73 1197.54 1288.35 L 1177.32 1209.14 C 1173.37 1194.48 1169.53 1179.79 1165.79 1165.07 C 1163.15 1154.46 1160.23 1140.74 1156.91 1130.72 L 1157.85 1129.78 C 1180.8 1106.07 1154.23 1078.37 1136.4 1062.2 C 1135.36 1054.36 1134.23 1047.94 1132.67 1040.18 C 1151.94 1037.75 1177.08 1034.18 1195.92 1030.49 L 1205.28 1028.94 C 1213.97 1027.71 1221.37 1025.99 1229.8 1023.7 z" fill="rgb(114,35,33)" transform="translate(0,0)"></path>
<path d="M 1229.8 1023.7 C 1233.7 1033.79 1238.97 1049.56 1243.24 1058.84 C 1255.76 1096.51 1270.38 1134.21 1283.19 1172.84 C 1297.67 1214.55 1309.12 1257.2 1323.17 1298.2 C 1309.67 1304.65 1298.72 1309.47 1284.53 1314.66 C 1282.92 1309.48 1281.85 1304.29 1280.37 1299.11 C 1254.79 1209.39 1231.47 1118.4 1205.28 1028.94 C 1213.97 1027.71 1221.37 1025.99 1229.8 1023.7 z" fill="rgb(114,35,33)" transform="translate(0,0)"></path>
<path d="M 1195.92 1030.49 L 1205.28 1028.94 C 1231.47 1118.4 1254.79 1209.39 1280.37 1299.11 C 1281.85 1304.29 1282.92 1309.48 1284.53 1314.66 L 1275.33 1317.57 C 1257.63 1261.32 1242.21 1200.3 1226.67 1143.3 C 1216.58 1106.28 1205.09 1067.51 1195.92 1030.49 z" fill="rgb(239,124,42)" transform="translate(0,0)"></path>
<path d="M 1065.18 1078.39 C 1067.16 1086.06 1068.58 1094.32 1070.2 1102.11 C 1086.66 1181.48 1097.22 1262.08 1115.57 1341.03 C 1116.21 1343.8 1117.46 1343.64 1119.67 1344.41 C 1115.03 1345.7 1111.79 1344.32 1107.73 1345.94 C 1105.89 1345.09 1050.81 1349.72 1045.33 1350.06 C 1037.43 1323.65 1025.61 1278.78 1024.99 1250.97 L 1023.19 1249.37 C 1017.58 1284.93 1009 1321.73 990.888 1353.14 C 974.498 1352.99 951.08 1353.37 935.294 1351.59 C 937.848 1336.46 943.08 1316.29 946.475 1300.87 L 967.996 1204.25 C 972.527 1184.7 978.632 1160.97 981.457 1141.45 C 999.766 1150.8 1012.4 1146.86 1027.9 1134.31 C 1018.66 1185.43 1012.02 1176.6 979.835 1212.9 L 989.761 1224.42 C 998.955 1217.77 1007.46 1210.2 1015.14 1201.84 C 1012.71 1213.44 1010.03 1224.98 1007.11 1236.45 C 1015.23 1237.72 1023.36 1238.92 1031.5 1240.06 C 1037.67 1201.24 1043.45 1162.49 1052.43 1124.2 C 1056.01 1108.95 1060.9 1093.54 1065.18 1078.39 z" fill="rgb(114,35,33)" transform="translate(0,0)"></path>
<path d="M 1023.19 1249.37 C 1023.06 1247.49 1022.89 1244.81 1023.13 1243 L 1024.07 1242.12 L 1023.39 1242.05 C 1025.48 1238.16 1024.98 1251.45 1024.99 1250.97 L 1023.19 1249.37 z" fill="rgb(190,145,144)" transform="translate(0,0)"></path>
<path d="M 993.275 1055.54 L 994.703 1057 C 993.657 1065.21 990.656 1073.02 990.718 1080.82 C 979.818 1096.45 967.449 1113.39 975.319 1133.41 C 954.706 1204.46 942.722 1280.26 924.535 1351.86 L 924.283 1352.52 C 921.701 1350.34 859.614 1343.61 851.109 1342.79 L 842.548 1340.92 C 848.673 1319.35 854.3 1292.97 859.504 1271.05 L 884.604 1167.7 L 901.095 1101.53 C 903.706 1091.17 908.78 1072.95 910.166 1063.05 L 920.191 1062.1 C 942.602 1060.85 970.481 1057.53 993.275 1055.54 z" fill="rgb(114,35,33)" transform="translate(0,0)"></path>
<path d="M 910.166 1063.05 L 920.191 1062.1 C 913.029 1094.38 854.78 1338.39 851.109 1342.79 L 842.548 1340.92 C 848.673 1319.35 854.3 1292.97 859.504 1271.05 L 884.604 1167.7 L 901.095 1101.53 C 903.706 1091.17 908.78 1072.95 910.166 1063.05 z" fill="rgb(239,124,42)" transform="translate(0,0)"></path>
<path d="M 1097.29 1119.13 C 1110.42 1131.49 1128.6 1141.49 1147.09 1136.16 C 1150.09 1145.96 1153.04 1156.44 1155.47 1166.4 C 1169.15 1222.2 1185.46 1277.79 1198.48 1333.71 C 1184 1336.77 1140.05 1343.5 1125.47 1343.98 C 1124.84 1337.05 1120.58 1318.11 1119.11 1310.58 C 1113.93 1284.03 1108.65 1259.26 1105.01 1232.44 C 1109.98 1231.75 1114.99 1230.43 1119.89 1229.27 C 1116.98 1219.5 1114.7 1211.57 1112.53 1201.52 C 1118.75 1206.11 1128.84 1215.11 1135.15 1220.25 L 1146.85 1206.49 C 1133.27 1192.55 1119.52 1179.52 1105.58 1165.97 C 1102.35 1152.18 1099.61 1133.33 1097.29 1119.13 z" fill="rgb(114,35,33)" transform="translate(0,0)"></path>
<path d="M 1091.18 1046.54 C 1101.69 1044.76 1112.13 1043.49 1122.6 1041.48 C 1123.54 1046.68 1124.36 1051.34 1125.53 1056.48 C 1118.59 1054.23 1095.7 1048.99 1091.18 1046.54 z" fill="rgb(114,35,33)" transform="translate(0,0)"></path>
<path d="M 1006.18 1054.4 C 1020.2 1053.93 1029.23 1052.91 1042.85 1050.71 C 1040.09 1052.57 1040.6 1052.25 1037.35 1053.42 C 1024.96 1057.86 1014.04 1063.22 1002.64 1069.78 L 1005.3 1058.01 C 1005.56 1056.82 1005.88 1055.59 1006.18 1054.4 z" fill="rgb(114,35,33)" transform="translate(0,0)"></path>
<path d="M 1084.27 1065.48 C 1099.03 1067.6 1119.97 1074.01 1131.44 1084.12 C 1138.31 1090.17 1141.79 1106.77 1142.17 1115.83 C 1110.44 1120.62 1096.85 1088.48 1084.27 1065.48 z" fill="rgb(114,35,33)" transform="translate(0,0)"></path>
<path d="M 1042.73 1069.96 C 1048.53 1074.88 1019.74 1115.36 1013.75 1119.74 C 1005.64 1125.66 1006.77 1125.14 996.979 1124.95 C 993.164 1119.37 994.871 1118.02 996.967 1111.5 C 1004.46 1088.19 1022.12 1079.41 1042.73 1069.96 z" fill="rgb(114,35,33)" transform="translate(0,0)"></path>
<path d="M 850.26 1067.98 C 870.051 1066.4 890.477 1065.11 910.166 1063.05 C 908.78 1072.95 903.706 1091.17 901.095 1101.53 L 884.604 1167.7 L 859.504 1271.05 C 854.3 1292.97 848.673 1319.35 842.548 1340.92 C 830.517 1340.83 793.108 1330.41 788.556 1332.96 C 786.808 1330.4 771.344 1327.34 767.196 1326.34 L 756.939 1323.71 C 735.684 1316.61 718.786 1309.62 698.196 1300.85 C 702.011 1281.76 706.442 1262.8 711.484 1243.99 C 723.135 1233 739.981 1220.29 748.708 1205.87 C 769.213 1180.71 779.387 1163.2 795.964 1135.54 C 805.63 1124.66 825.83 1082.29 832.024 1068.8 L 838.964 1068.8 C 842.402 1068.18 846.698 1068.15 850.26 1067.98 z" fill="rgb(114,35,33)" transform="translate(0,0)"></path>
<path d="M 832.024 1068.8 L 838.964 1068.8 C 834.554 1085.14 827.662 1104.46 822.295 1120.77 C 812.948 1149.02 803.765 1177.33 794.746 1205.7 L 769.535 1284.69 C 766.329 1294.73 760.567 1314.83 756.939 1323.71 C 735.684 1316.61 718.786 1309.62 698.196 1300.85 C 702.011 1281.76 706.442 1262.8 711.484 1243.99 C 723.135 1233 739.981 1220.29 748.708 1205.87 C 769.213 1180.71 779.387 1163.2 795.964 1135.54 C 805.63 1124.66 825.83 1082.29 832.024 1068.8 z" fill="rgb(114,35,33)" transform="translate(0,0)"></path>
<path d="M 838.964 1068.8 C 842.402 1068.18 846.698 1068.15 850.26 1067.98 C 832.214 1121.9 815.824 1175.44 798.121 1229.2 C 790.969 1250.99 783.932 1272.81 777.012 1294.67 C 774.868 1301.39 768.354 1320.38 767.196 1326.34 L 756.939 1323.71 C 760.567 1314.83 766.329 1294.73 769.535 1284.69 L 794.746 1205.7 C 803.765 1177.33 812.948 1149.02 822.295 1120.77 C 827.662 1104.46 834.554 1085.14 838.964 1068.8 z" fill="rgb(239,124,42)" transform="translate(0,0)"></path>
<path d="M 882.308 825.856 C 959.606 880.867 1067.43 884.675 1152.06 844.394 C 1165.15 894.822 1133.71 951.902 1079.88 915.67 C 1071.52 910.049 1051.9 889.952 1047.72 888.457 C 1045.54 884.62 1043.67 880.856 1041.68 876.923 L 1040.93 877.163 C 1039.04 879.128 1032.08 895.539 1030.83 898.775 C 1014.39 941.6 982.75 953.328 940.762 933.254 C 902.622 915.02 873.749 882.165 858.672 841.254 L 882.308 825.856 z" fill="rgb(14,41,47)" transform="translate(0,0)"></path>
<path d="M 858.672 841.254 C 873.749 882.165 902.622 915.02 940.762 933.254 C 982.75 953.328 1014.39 941.6 1030.83 898.775 C 1032.08 895.539 1039.04 879.128 1040.93 877.163 L 1041.68 876.923 C 1037.73 910.312 1040.31 913.142 1028.21 948.459 C 1083.16 903.661 1111.19 1001.43 1073.22 1027.43 C 1066.13 1032.36 1057.3 1034.08 1048.87 1032.19 C 1020.24 1026.02 1016.55 997.359 1019.71 972.974 L 1017.08 969.668 C 992.01 1004.4 949.517 980.066 921.832 962.416 C 882.262 937.189 854.31 901.61 834.527 859.54 C 842.125 852.871 850.194 846.76 858.672 841.254 z" fill="rgb(15,104,118)" transform="translate(0,0)"></path>
<path d="M 1017.08 969.668 L 1017.97 968.304 C 1018.55 967.338 1019.13 965.896 1020.28 965.462 C 1021.32 965.681 1019.84 972.046 1019.71 972.974 L 1017.08 969.668 z" fill="rgb(221,215,206)" transform="translate(0,0)"></path>
<path d="M 524.786 1042.18 C 541.939 1055.16 553.171 1074.48 555.971 1095.81 C 558.203 1111.28 555.853 1127.06 549.213 1141.21 C 588.843 1158.29 631.972 1196.45 624.573 1243.94 C 618.593 1257.51 606.621 1267.36 594.647 1275.71 C 593.924 1270.55 592.759 1265.45 591.165 1260.49 C 580.739 1228.77 554.988 1203.62 525.219 1189.47 C 515.772 1184.97 504.159 1182.64 495.227 1177.81 C 506.752 1164.86 519.849 1151.38 531.769 1138.67 C 493.461 1111.37 495.879 1075.12 524.786 1042.18 z" fill="rgb(15,104,118)" transform="translate(0,0)"></path>
<path d="M 1221.47 1000.73 C 1192.4 1023.37 1158.44 1005.04 1164 970.196 C 1165.7 959.565 1171.66 950.089 1180.51 943.955 C 1200.5 930.071 1204.55 955.368 1209.97 970.232 C 1221.36 959.106 1232.54 952.408 1249.29 952.543 C 1263.23 952.662 1276.51 958.471 1286.05 968.624 C 1296.11 979.189 1302.25 994.16 1301.62 1008.81 C 1301.04 1022.41 1295.09 1035.23 1285.06 1044.44 C 1273.04 1055.3 1258.97 1058.78 1243.24 1058.84 C 1238.97 1049.56 1233.7 1033.79 1229.8 1023.7 C 1226.69 1015.93 1224.17 1008.66 1221.47 1000.73 z" fill="rgb(15,104,118)" transform="translate(0,0)"></path>
<path d="M 795.964 1135.54 C 789.845 1132.52 785.573 1130.6 779.992 1126.62 C 755.439 1109.06 748.112 1076.96 760.914 1049.62 C 768.457 1033.47 782.136 1021 798.912 1014.99 C 817.437 1008.43 833.723 1010.79 850.981 1019.12 C 847.659 1030.65 837.381 1058.56 832.024 1068.8 C 825.83 1082.29 805.63 1124.66 795.964 1135.54 z" fill="rgb(15,104,118)" transform="translate(0,0)"></path>
<path d="M 824.382 866.992 L 825.598 866.607 C 839.252 878.743 848.251 890.646 849.084 910.079 C 849.794 924.206 844.692 938.008 834.963 948.276 C 808.332 976.508 753.255 973.891 737.973 935.868 C 766.047 919.025 800.556 890.014 824.382 866.992 z" fill="rgb(15,104,118)" transform="translate(0,0)"></path>
<path d="M 1460.92 1002.83 C 1474.07 1003.3 1493.91 1004.11 1506.74 1006.2 C 1498.82 1038.24 1496.79 1091.12 1496.15 1124.25 L 1480.48 1124.23 L 1455.9 1123.8 C 1446.28 1138.23 1438.9 1148.07 1425.28 1159.02 C 1419.68 1135.03 1436.7 1119.69 1455.93 1109.95 C 1448.83 1083.33 1450.09 1027.39 1460.92 1002.83 z" fill="rgb(15,104,118)" transform="translate(0,0)"></path>
<path d="M 1152.06 844.394 C 1153.71 843.507 1156.4 842.546 1158.22 841.819 C 1166.9 849.336 1175.25 856.468 1183.49 864.492 L 1184.12 864.706 C 1184.2 870.913 1184.65 876.948 1184.78 883.055 L 1182.05 882.667 C 1180.11 909.841 1174.26 937.356 1152.84 956.136 C 1133.9 972.739 1114.68 965.486 1097.34 951.357 C 1075.32 933.406 1061.21 913.186 1047.72 888.457 C 1051.9 889.952 1071.52 910.049 1079.88 915.67 C 1133.71 951.902 1165.15 894.822 1152.06 844.394 z" fill="rgb(15,104,118)" transform="translate(0,0)"></path>
<path d="M 1183.49 864.492 L 1184.12 864.706 C 1184.2 870.913 1184.65 876.948 1184.78 883.055 L 1182.05 882.667 C 1181.96 877.796 1181.09 868.134 1183.49 864.492 z" fill="rgb(221,215,206)" transform="translate(0,0)"></path>
<path d="M 1363.22 928.991 C 1387.64 933.874 1424.19 937.708 1442.27 956.955 C 1441.72 963.78 1440.86 968.94 1437.54 975.21 C 1431.96 985.97 1422.19 993.954 1410.54 997.279 C 1398.43 1000.68 1385.46 998.982 1374.62 992.59 C 1352.91 979.732 1348.38 950.404 1362.43 930.422 C 1362.7 929.945 1362.96 929.468 1363.22 928.991 z" fill="rgb(15,104,118)" transform="translate(0,0)"></path>
<path d="M 659.917 1251.51 C 639.933 1189.32 714.582 1164.08 748.708 1205.87 C 739.981 1220.29 723.135 1233 711.484 1243.99 C 695.271 1252.91 678.178 1253.94 659.917 1251.51 z" fill="rgb(15,104,118)" transform="translate(0,0)"></path>
<path d="M 696.172 954.22 C 701.895 965.764 693.853 982.2 686.875 991.749 C 661.319 1026.72 607.755 1018.84 573.953 1002.49 C 603.747 981.914 662.719 968.856 696.172 954.22 z" fill="rgb(15,104,118)" transform="translate(0,0)"></path>
<path d="M 1184.12 864.706 C 1201.02 873.992 1218.75 889.398 1238.24 898.573 C 1223.21 907.228 1190.71 901.26 1184.78 883.055 C 1184.65 876.948 1184.2 870.913 1184.12 864.706 z" fill="rgb(15,104,118)" transform="translate(0,0)"></path>
<path d="M 1355.11 1062.96 C 1384.91 1059.22 1412.08 1080.41 1415.7 1110.23 C 1419.32 1140.04 1398.02 1167.12 1368.18 1170.62 C 1338.53 1174.1 1311.64 1152.94 1308.04 1123.3 C 1304.44 1093.66 1325.48 1066.68 1355.11 1062.96 z" fill="rgb(15,104,118)" transform="translate(0,0)"></path>
<path d="M 643.719 1054.16 C 672.489 1049.2 699.779 1068.66 704.458 1097.48 C 709.138 1126.29 689.409 1153.39 660.548 1157.79 C 632.083 1162.13 605.436 1142.73 600.82 1114.31 C 596.205 1085.88 615.344 1059.05 643.719 1054.16 z" fill="rgb(15,104,118)" transform="translate(0,0)"></path>
<path d="M 893.977 964.705 C 916.95 960.189 939.201 975.259 943.532 998.267 C 947.863 1021.28 932.614 1043.4 909.571 1047.55 C 886.79 1051.65 864.966 1036.61 860.684 1013.86 C 856.403 991.114 871.265 969.17 893.977 964.705 z" fill="rgb(15,104,118)" transform="translate(0,0)"></path>
<path d="M 788.556 1332.96 C 793.108 1330.41 830.517 1340.83 842.548 1340.92 L 851.109 1342.79 C 859.614 1343.61 921.701 1350.34 924.283 1352.52 C 923.431 1361.7 922.645 1368.97 921.097 1378.03 C 919.872 1384.84 913.555 1425.04 913.844 1429.31 C 937.681 1435.15 987.018 1448.09 994.039 1475.72 C 995.235 1477.43 996.043 1478.62 997.104 1480.45 C 1008.39 1510.27 999.228 1531.3 974.413 1549.24 C 972.502 1560.47 970.341 1570.55 967.878 1581.65 C 988.356 1597.8 979.699 1626.46 958.632 1638.35 C 975.597 1662.26 980.074 1685.52 980.142 1714.69 C 978.598 1744.53 967.967 1777.89 944.295 1797.52 C 870.838 1858.43 723.683 1868.3 632.917 1863.79 C 586.734 1861.5 495.177 1851.86 465.363 1815.93 C 448.585 1795.71 439.009 1768.44 438.027 1742.29 C 437.173 1728.2 438.077 1716.66 439.451 1702.75 C 441.282 1688.85 444.557 1675.18 449.222 1661.96 C 453.489 1648.51 461.778 1635.07 469.937 1623.66 C 475.956 1615.19 483.997 1605.99 491.144 1598.47 C 511.216 1579.7 528.88 1568.82 554.752 1560.45 C 558.214 1559.25 559.556 1558.96 563.208 1558.19 C 599.116 1549.64 627.794 1550.82 663.819 1558.57 C 674.121 1560.32 685.196 1563.54 695.288 1566.42 C 695.283 1561.32 695.527 1556.76 695.815 1551.69 L 696.182 1538.94 C 669.415 1521.79 663.862 1496.8 677.303 1468.94 L 679.614 1469.9 L 680.848 1466.89 L 679.887 1465.88 C 689.37 1438.32 752.389 1425.72 777.149 1421.42 C 779.178 1408.3 780.05 1393.19 782.461 1380.35 C 784.946 1364.62 786.978 1348.81 788.556 1332.96 z" fill="rgb(15,104,118)" transform="translate(0,0)"></path>
<path d="M 788.556 1332.96 C 793.108 1330.41 830.517 1340.83 842.548 1340.92 L 851.109 1342.79 C 859.614 1343.61 921.701 1350.34 924.283 1352.52 C 923.431 1361.7 922.645 1368.97 921.097 1378.03 C 919.872 1384.84 913.555 1425.04 913.844 1429.31 C 937.681 1435.15 987.018 1448.09 994.039 1475.72 C 995.235 1477.43 996.043 1478.62 997.104 1480.45 C 1008.39 1510.27 999.228 1531.3 974.413 1549.24 C 972.502 1560.47 970.341 1570.55 967.878 1581.65 C 988.356 1597.8 979.699 1626.46 958.632 1638.35 C 975.597 1662.26 980.074 1685.52 980.142 1714.69 C 953.12 1740.34 896.898 1766.38 860.771 1777.77 C 844.866 1783.08 826.519 1788.52 809.994 1791.6 C 811.387 1716.12 765.856 1630.64 706.198 1585.02 C 698.959 1579.48 665.77 1561.38 663.819 1558.57 C 674.121 1560.32 685.196 1563.54 695.288 1566.42 C 695.283 1561.32 695.527 1556.76 695.815 1551.69 L 696.182 1538.94 C 669.415 1521.79 663.862 1496.8 677.303 1468.94 L 679.614 1469.9 L 680.848 1466.89 L 679.887 1465.88 C 689.37 1438.32 752.389 1425.72 777.149 1421.42 C 779.178 1408.3 780.05 1393.19 782.461 1380.35 C 784.946 1364.62 786.978 1348.81 788.556 1332.96 z" fill="rgb(14,41,47)" transform="translate(0,0)"></path>
<path d="M 788.556 1332.96 C 793.108 1330.41 830.517 1340.83 842.548 1340.92 L 851.109 1342.79 C 859.614 1343.61 921.701 1350.34 924.283 1352.52 C 923.431 1361.7 922.645 1368.97 921.097 1378.03 C 919.872 1384.84 913.555 1425.04 913.844 1429.31 C 912.509 1434.75 911.93 1439.56 911.165 1445.09 C 910.717 1448.13 910.303 1450.95 909.906 1454 L 907.883 1468.49 C 907.225 1473.27 906.445 1478.01 905.608 1482.76 C 861.599 1490.99 811.546 1492.92 768.476 1479.16 C 770.189 1465.7 772.926 1452.22 774.565 1438.77 C 775.849 1432.27 776.497 1428.01 777.149 1421.42 C 779.178 1408.3 780.05 1393.19 782.461 1380.35 C 784.946 1364.62 786.978 1348.81 788.556 1332.96 z" fill="rgb(220,169,141)" transform="translate(0,0)"></path>
<path d="M 788.556 1332.96 C 793.108 1330.41 830.517 1340.83 842.548 1340.92 L 851.109 1342.79 C 859.614 1343.61 921.701 1350.34 924.283 1352.52 C 923.431 1361.7 922.645 1368.97 921.097 1378.03 C 907.132 1378.65 785.945 1382.73 782.906 1380.93 L 782.461 1380.35 C 784.946 1364.62 786.978 1348.81 788.556 1332.96 z" fill="rgb(74,20,18)" transform="translate(0,0)"></path>
<path d="M 777.149 1421.42 C 776.497 1428.01 775.849 1432.27 774.565 1438.77 C 772.926 1452.22 770.189 1465.7 768.476 1479.16 C 811.546 1492.92 861.599 1490.99 905.608 1482.76 C 906.445 1478.01 907.225 1473.27 907.883 1468.49 L 909.906 1454 C 910.303 1450.95 910.717 1448.13 911.165 1445.09 C 911.93 1439.56 912.509 1434.75 913.844 1429.31 C 937.681 1435.15 987.018 1448.09 994.039 1475.72 C 995.235 1477.43 996.043 1478.62 997.104 1480.45 L 993.895 1481.76 L 993.259 1482.22 L 991.669 1480 C 952.251 1555.95 722.781 1550.59 682.333 1471.27 C 681.844 1469.35 681.607 1468.76 680.848 1466.89 L 679.887 1465.88 C 689.37 1438.32 752.389 1425.72 777.149 1421.42 z" fill="rgb(14,41,47)" transform="translate(0,0)"></path>
<path d="M 768.476 1479.16 C 761.787 1479.64 736.641 1467.6 734.108 1459.98 C 730.021 1447.67 768.455 1435.33 774.565 1438.77 C 772.926 1452.22 770.189 1465.7 768.476 1479.16 z" fill="rgb(16,14,14)" transform="translate(0,0)"></path>
<path d="M 911.165 1445.09 L 914.999 1445.97 C 921.34 1447.47 943.119 1455.05 939.928 1463.98 C 936.784 1472.78 913.66 1480.12 905.608 1482.76 C 906.445 1478.01 907.225 1473.27 907.883 1468.49 L 909.906 1454 C 910.303 1450.95 910.717 1448.13 911.165 1445.09 z" fill="rgb(16,14,14)" transform="translate(0,0)"></path>
<path d="M 991.669 1480 C 992.469 1478.49 993.162 1477.19 994.039 1475.72 C 995.235 1477.43 996.043 1478.62 997.104 1480.45 L 993.895 1481.76 L 993.259 1482.22 L 991.669 1480 z" fill="rgb(32,43,51)" transform="translate(0,0)"></path>
<path d="M 991.669 1480 C 992.469 1478.49 993.162 1477.19 994.039 1475.72 L 993.895 1481.76 L 993.259 1482.22 L 991.669 1480 z" fill="rgb(173,181,182)" transform="translate(0,0)"></path>
<path d="M 695.288 1566.42 C 695.283 1561.32 695.527 1556.76 695.815 1551.69 C 696.064 1557.06 696.27 1561.76 696.159 1567.17 C 713.613 1573.91 725.019 1581.82 740.927 1591.2 C 740.952 1580.94 740.792 1570.15 741.332 1559.96 C 751.462 1563.24 765.73 1567.79 776.199 1569.65 C 776.127 1584.97 775.825 1600.99 776.411 1616.25 C 818.376 1651.32 840.532 1691.61 854.228 1744.54 C 856.034 1751.52 858.104 1773.49 860.771 1777.77 C 844.866 1783.08 826.519 1788.52 809.994 1791.6 C 811.387 1716.12 765.856 1630.64 706.198 1585.02 C 698.959 1579.48 665.77 1561.38 663.819 1558.57 C 674.121 1560.32 685.196 1563.54 695.288 1566.42 z" fill="rgb(15,104,118)" transform="translate(0,0)"></path>
<path d="M 682.333 1471.27 C 722.781 1550.59 952.251 1555.95 991.669 1480 L 993.259 1482.22 C 990.789 1491.05 984.623 1498.6 978.061 1504.82 C 917.929 1561.84 715.625 1556.89 680.509 1475.85 L 682.333 1471.27 z" fill="rgb(253,253,252)" transform="translate(0,0)"></path>
<path d="M 680.848 1466.89 C 681.607 1468.76 681.844 1469.35 682.333 1471.27 L 680.509 1475.85 C 680.244 1473.86 679.946 1471.88 679.614 1469.9 L 680.848 1466.89 z" fill="rgb(221,215,206)" transform="translate(0,0)"></path>
<path d="M 909.4 1646.39 C 930.172 1642.07 950.523 1655.37 954.919 1676.12 C 959.316 1696.88 946.104 1717.28 925.367 1721.76 C 904.513 1726.26 883.969 1712.96 879.548 1692.09 C 875.126 1671.22 888.511 1650.73 909.4 1646.39 z" fill="rgb(70,146,154)" transform="translate(0,0)"></path>
<path d="M 843.937 1576.51 C 850.688 1576.37 857.44 1576.32 864.193 1576.37 C 864.787 1600.24 864.791 1624.11 864.204 1647.98 C 857.661 1650.97 853.009 1653.48 845.995 1656.13 L 842.241 1657.52 C 838.634 1659.02 835.151 1660.22 831.575 1661.61 L 828.039 1663.01 L 828.104 1576.68 C 833.38 1576.53 838.659 1576.48 843.937 1576.51 z" fill="rgb(15,104,118)" transform="translate(0,0)"></path>
<path d="M 938.234 1563.13 C 941.225 1564.01 939.711 1595.82 939.694 1600.8 C 930.084 1608.28 921.394 1615.07 910.665 1621.06 C 907.339 1620.43 909.459 1576.26 909.505 1570.51 C 911.126 1570.11 912.939 1569.55 914.514 1569.21 L 919.016 1568.22 C 925.634 1566.79 931.744 1564.79 938.234 1563.13 z" fill="rgb(15,104,118)" transform="translate(0,0)"></path>
<path d="M 980.142 1714.69 C 978.598 1744.53 967.967 1777.89 944.295 1797.52 C 870.838 1858.43 723.683 1868.3 632.917 1863.79 C 586.734 1861.5 495.177 1851.86 465.363 1815.93 C 448.585 1795.71 439.009 1768.44 438.027 1742.29 C 481.972 1775.4 545.348 1791.75 598.679 1800.52 C 610.414 1802.25 620.38 1803.25 632.183 1804.26 C 650.252 1806.15 674.199 1806.49 692.428 1806.06 C 704.387 1805.81 716.975 1804.79 728.917 1803.89 C 748.713 1802.38 764.703 1800.07 784.299 1796.74 L 809.994 1791.6 C 826.519 1788.52 844.866 1783.08 860.771 1777.77 C 896.898 1766.38 953.12 1740.34 980.142 1714.69 z" fill="rgb(225,207,187)" transform="translate(0,0)"></path>
<path d="M 449.222 1661.96 C 534.72 1656.39 626.042 1708.64 632.06 1800.52 C 632.139 1801.77 632.18 1803.02 632.183 1804.26 C 620.38 1803.25 610.414 1802.25 598.679 1800.52 C 545.348 1791.75 481.972 1775.4 438.027 1742.29 C 437.173 1728.2 438.077 1716.66 439.451 1702.75 C 441.282 1688.85 444.557 1675.18 449.222 1661.96 z" fill="rgb(14,41,47)" transform="translate(0,0)"></path>
<path d="M 439.451 1702.75 C 465.485 1702.78 487.142 1702.34 512.161 1711.22 C 557.858 1727.43 584.626 1754.7 598.679 1800.52 C 545.348 1791.75 481.972 1775.4 438.027 1742.29 C 437.173 1728.2 438.077 1716.66 439.451 1702.75 z" fill="rgb(15,104,118)" transform="translate(0,0)"></path>
<path d="M 449.222 1661.96 C 453.489 1648.51 461.778 1635.07 469.937 1623.66 C 473.182 1623.77 495.577 1624.89 496.755 1624.19 C 503.645 1630.34 505.947 1630.82 514.62 1626.6 L 515.379 1626.24 C 604.905 1638.29 664.678 1691.09 686.693 1778.7 C 688.966 1787.75 690.24 1797.16 692.428 1806.06 C 674.199 1806.49 650.252 1806.15 632.183 1804.26 C 632.18 1803.02 632.139 1801.77 632.06 1800.52 C 626.042 1708.64 534.72 1656.39 449.222 1661.96 z" fill="rgb(15,104,118)" transform="translate(0,0)"></path>
<path d="M 529.939 1595.08 C 533.057 1593.46 541.346 1593.68 544.895 1593.94 C 553.179 1600.38 556.986 1600.99 566.973 1597.04 C 669.049 1621.24 723.85 1701.31 728.917 1803.89 C 716.975 1804.79 704.387 1805.81 692.428 1806.06 C 690.24 1797.16 688.966 1787.75 686.693 1778.7 C 664.678 1691.09 604.905 1638.29 515.379 1626.24 L 514.62 1626.6 C 505.947 1630.82 503.645 1630.34 496.755 1624.19 C 495.577 1624.89 473.182 1623.77 469.937 1623.66 C 475.956 1615.19 483.997 1605.99 491.144 1598.47 C 497.785 1599.13 512.16 1595.37 522.398 1596.32 C 524.596 1594.79 527.367 1594.34 529.939 1595.08 z" fill="rgb(14,41,47)" transform="translate(0,0)"></path>
<path d="M 496.755 1624.19 L 496.966 1622.17 C 497.004 1621.72 497.043 1621.27 497.082 1620.83 C 497.438 1617.73 499.076 1614.93 501.598 1613.1 C 510.011 1607 515.923 1617.23 515.379 1626.24 L 514.62 1626.6 C 505.947 1630.82 503.645 1630.34 496.755 1624.19 z" fill="rgb(109,171,176)" transform="translate(0,0)"></path>
<path d="M 529.939 1595.08 C 533.921 1596.24 536.572 1599.99 536.326 1604.13 C 536.079 1608.27 533 1611.69 528.91 1612.36 C 524.819 1613.03 520.808 1610.78 519.248 1606.94 C 517.688 1603.1 518.996 1598.69 522.398 1596.32 C 524.596 1594.79 527.367 1594.34 529.939 1595.08 z" fill="rgb(109,171,176)" transform="translate(0,0)"></path>
<path d="M 563.208 1558.19 C 599.116 1549.64 627.794 1550.82 663.819 1558.57 C 665.77 1561.38 698.959 1579.48 706.198 1585.02 C 765.856 1630.64 811.387 1716.12 809.994 1791.6 L 784.299 1796.74 C 774.064 1686.12 702.905 1583.02 587.151 1564.21 C 579.102 1562.9 570.083 1561.22 561.988 1561.22 L 563.208 1558.19 z" fill="rgb(14,41,47)" transform="translate(0,0)"></path>
<path d="M 544.895 1593.94 C 540.774 1577.18 555.562 1568.06 565.495 1575.98 C 568.589 1578.44 570.537 1582.06 570.885 1586 C 571.309 1590.37 569.237 1593.53 566.973 1597.04 C 556.986 1600.99 553.179 1600.38 544.895 1593.94 z" fill="rgb(109,171,176)" transform="translate(0,0)"></path>
<path d="M 563.208 1558.19 L 561.988 1561.22 C 558.606 1561.7 558.133 1561.34 554.752 1560.45 C 558.214 1559.25 559.556 1558.96 563.208 1558.19 z" fill="rgb(22,85,92)" transform="translate(0,0)"></path>
<path d="M 603.592 1575.5 C 611.587 1573.21 619.916 1577.88 622.129 1585.9 C 624.342 1593.92 619.589 1602.2 611.55 1604.33 C 603.624 1606.44 595.482 1601.76 593.3 1593.86 C 591.118 1585.95 595.709 1577.76 603.592 1575.5 z" fill="rgb(70,146,154)" transform="translate(0,0)"></path>
<path d="M 1349.76 1467.88 C 1356.26 1477.68 1358.89 1491.39 1356.68 1502.86 C 1353.7 1518.24 1343.51 1528.69 1332.81 1539.25 C 1332.03 1540.02 1332.15 1543.91 1332.19 1544.92 C 1332.85 1553.72 1332.88 1562.21 1332.99 1571.01 C 1338.84 1569.39 1352.7 1565.15 1358.08 1564.34 C 1389.23 1555.41 1440.27 1552.76 1472.23 1561.35 C 1473.96 1561.59 1475.48 1561.98 1477.16 1562.37 C 1502.47 1569.63 1518.54 1579.13 1538.52 1596.09 C 1549.47 1605.5 1554.43 1610.82 1562.7 1622.81 C 1572.7 1635.92 1578.16 1648.19 1583.91 1663.63 C 1587.65 1677.65 1590.17 1689.12 1592.2 1703.62 C 1593.1 1715.11 1594.44 1730.33 1593.75 1741.53 C 1591.24 1767.88 1586.79 1794.45 1567.88 1814.96 C 1533.6 1852.16 1452.34 1862.31 1402.37 1865.13 C 1303.61 1870.7 1160.86 1860.95 1080.85 1796.19 C 1055.7 1775.84 1047.29 1745.64 1045.74 1714.7 C 1043.54 1702.82 1048.58 1678.46 1052.71 1666.64 C 1056.08 1656.99 1061.53 1648.69 1067.96 1640.83 C 1046.88 1627.48 1036.7 1602.09 1057.28 1583.35 C 1053.5 1571.45 1051.84 1561.7 1050.09 1549.39 C 1023.3 1531.28 1018.23 1507.11 1029.97 1477.53 C 1048.73 1566.18 1322.56 1564.31 1346.7 1470.29 C 1347.91 1469.23 1348.43 1468.84 1349.76 1467.88 z" fill="rgb(15,104,118)" transform="translate(0,0)"></path>
<path d="M 1349.76 1467.88 C 1356.26 1477.68 1358.89 1491.39 1356.68 1502.86 C 1353.7 1518.24 1343.51 1528.69 1332.81 1539.25 C 1332.03 1540.02 1332.15 1543.91 1332.19 1544.92 C 1332.85 1553.72 1332.88 1562.21 1332.99 1571.01 C 1338.84 1569.39 1352.7 1565.15 1358.08 1564.34 C 1355.08 1568.69 1348.65 1570.97 1344.13 1574.03 C 1333.19 1581.45 1322.55 1589.28 1312.65 1598.06 C 1262.44 1641.23 1225.12 1728.44 1227.01 1795.53 C 1207.37 1792.11 1188 1787.23 1169.09 1780.93 C 1123.1 1763.98 1083.28 1747.93 1045.74 1714.7 C 1043.54 1702.82 1048.58 1678.46 1052.71 1666.64 C 1056.08 1656.99 1061.53 1648.69 1067.96 1640.83 C 1046.88 1627.48 1036.7 1602.09 1057.28 1583.35 C 1053.5 1571.45 1051.84 1561.7 1050.09 1549.39 C 1023.3 1531.28 1018.23 1507.11 1029.97 1477.53 C 1048.73 1566.18 1322.56 1564.31 1346.7 1470.29 C 1347.91 1469.23 1348.43 1468.84 1349.76 1467.88 z" fill="rgb(14,41,47)" transform="translate(0,0)"></path>
<path d="M 1332.19 1544.92 C 1332.85 1553.72 1332.88 1562.21 1332.99 1571.01 C 1338.84 1569.39 1352.7 1565.15 1358.08 1564.34 C 1355.08 1568.69 1348.65 1570.97 1344.13 1574.03 C 1333.19 1581.45 1322.55 1589.28 1312.65 1598.06 C 1262.44 1641.23 1225.12 1728.44 1227.01 1795.53 C 1207.37 1792.11 1188 1787.23 1169.09 1780.93 C 1171.43 1773.87 1174.98 1748.68 1178.11 1737.53 C 1193.85 1681.49 1221.65 1642.38 1266.16 1605.67 L 1265.99 1566.22 C 1278.24 1563.27 1286.26 1561.29 1298.21 1557.44 L 1298.53 1586.58 C 1310.91 1580.15 1319.24 1576.41 1332.09 1571.5 C 1331.89 1562.64 1331.52 1553.75 1332.19 1544.92 z" fill="rgb(15,104,118)" transform="translate(0,0)"></path>
<path d="M 1102.04 1647.38 C 1122.8 1642.74 1143.4 1655.79 1148.09 1676.54 C 1152.78 1697.29 1139.79 1717.92 1119.05 1722.67 C 1098.23 1727.43 1077.51 1714.38 1072.8 1693.55 C 1068.1 1672.72 1081.2 1652.03 1102.04 1647.38 z" fill="rgb(70,146,154)" transform="translate(0,0)"></path>
<path d="M 1175.34 1575.19 C 1185.62 1575.41 1195.59 1575.31 1205.84 1575.34 C 1205.81 1604.55 1205.54 1634.57 1205.85 1663.72 C 1196.71 1659.4 1184.82 1656.59 1175.04 1653.1 C 1175 1627.13 1175.1 1601.16 1175.34 1575.19 z" fill="rgb(15,104,118)" transform="translate(0,0)"></path>
<path d="M 1092.93 1564.65 C 1103.23 1567.93 1111.25 1569.42 1121.98 1570.27 L 1121.12 1623.49 C 1117.9 1623.62 1097.09 1609.18 1092.97 1606.52 L 1092.93 1564.65 z" fill="rgb(15,104,118)" transform="translate(0,0)"></path>
<path d="M 1045.74 1714.7 C 1083.28 1747.93 1123.1 1763.98 1169.09 1780.93 C 1188 1787.23 1207.37 1792.11 1227.01 1795.53 C 1234.06 1796.87 1242.17 1798.61 1249.18 1799.62 C 1268.27 1803.05 1286.31 1804.9 1305.58 1806.92 C 1318.1 1807.41 1330.62 1807.83 1343.14 1808.18 C 1360.71 1808.6 1383.87 1808.17 1401.3 1806.32 C 1411.21 1805.67 1425.24 1803.79 1434.84 1801.97 C 1495.89 1792.2 1542.28 1775.41 1593.75 1741.53 C 1591.24 1767.88 1586.79 1794.45 1567.88 1814.96 C 1533.6 1852.16 1452.34 1862.31 1402.37 1865.13 C 1303.61 1870.7 1160.86 1860.95 1080.85 1796.19 C 1055.7 1775.84 1047.29 1745.64 1045.74 1714.7 z" fill="rgb(225,207,187)" transform="translate(0,0)"></path>
<path d="M 1401.3 1806.32 C 1406.15 1734.09 1457.72 1682.78 1526.89 1665.76 C 1542.1 1662.01 1568.83 1658.73 1583.91 1663.63 C 1587.65 1677.65 1590.17 1689.12 1592.2 1703.62 C 1593.1 1715.11 1594.44 1730.33 1593.75 1741.53 C 1542.28 1775.41 1495.89 1792.2 1434.84 1801.97 C 1425.24 1803.79 1411.21 1805.67 1401.3 1806.32 z" fill="rgb(14,41,47)" transform="translate(0,0)"></path>
<path d="M 1434.84 1801.97 C 1455.02 1730.25 1520.93 1696.74 1592.2 1703.62 C 1593.1 1715.11 1594.44 1730.33 1593.75 1741.53 C 1542.28 1775.41 1495.89 1792.2 1434.84 1801.97 z" fill="rgb(15,104,118)" transform="translate(0,0)"></path>
<path d="M 1562.7 1622.81 C 1572.7 1635.92 1578.16 1648.19 1583.91 1663.63 C 1568.83 1658.73 1542.1 1662.01 1526.89 1665.76 C 1457.72 1682.78 1406.15 1734.09 1401.3 1806.32 C 1383.87 1808.17 1360.71 1808.6 1343.14 1808.18 C 1352.16 1719.77 1412.09 1650.22 1498.29 1630.03 C 1505.22 1628.41 1512.21 1627 1519.19 1625.61 C 1527.77 1630.81 1528.84 1630.21 1536.56 1623 C 1541.38 1623.09 1559.09 1623.79 1562.7 1622.81 z" fill="rgb(15,104,118)" transform="translate(0,0)"></path>
<path d="M 1486.5 1591.75 C 1492.5 1592.02 1496.35 1591.87 1502.07 1593.95 C 1505.31 1592.64 1509.01 1593.21 1511.69 1595.45 C 1518.67 1594.83 1535.84 1596.73 1538.52 1596.09 C 1549.47 1605.5 1554.43 1610.82 1562.7 1622.81 C 1559.09 1623.79 1541.38 1623.09 1536.56 1623 C 1528.84 1630.21 1527.77 1630.81 1519.19 1625.61 C 1512.21 1627 1505.22 1628.41 1498.29 1630.03 C 1412.09 1650.22 1352.16 1719.77 1343.14 1808.18 C 1330.62 1807.83 1318.1 1807.41 1305.58 1806.92 C 1307.62 1763.88 1317.8 1727.55 1340.04 1690.29 C 1367.7 1643.64 1412.59 1609.74 1465.02 1595.91 C 1468.07 1599.14 1472.55 1600.58 1476.91 1599.74 C 1481.26 1598.9 1484.89 1595.88 1486.5 1591.75 z" fill="rgb(14,41,47)" transform="translate(0,0)"></path>
<path d="M 1502.07 1593.95 C 1505.31 1592.64 1509.01 1593.21 1511.69 1595.45 C 1514.95 1598.17 1515.99 1602.73 1514.24 1606.6 C 1512.49 1610.46 1508.38 1612.69 1504.18 1612.03 C 1499.99 1611.38 1496.75 1608.01 1496.26 1603.8 C 1495.76 1599.58 1498.14 1595.56 1502.07 1593.95 z" fill="rgb(109,171,176)" transform="translate(0,0)"></path>
<path d="M 1519.19 1625.61 C 1516.2 1608.88 1534.19 1608.62 1536.19 1620.99 L 1536.56 1623 C 1528.84 1630.21 1527.77 1630.81 1519.19 1625.61 z" fill="rgb(109,171,176)" transform="translate(0,0)"></path>
<path d="M 1358.08 1564.34 C 1389.23 1555.41 1440.27 1552.76 1472.23 1561.35 C 1468.03 1562.75 1465.06 1562.97 1460.85 1563.96 C 1368.43 1568.54 1296.52 1641.68 1266.86 1725.35 C 1262.3 1738.58 1258.55 1752.08 1255.63 1765.78 C 1254.68 1770.37 1250.99 1798.1 1249.18 1799.62 C 1242.17 1798.61 1234.06 1796.87 1227.01 1795.53 C 1225.12 1728.44 1262.44 1641.23 1312.65 1598.06 C 1322.55 1589.28 1333.19 1581.45 1344.13 1574.03 C 1348.65 1570.97 1355.08 1568.69 1358.08 1564.34 z" fill="rgb(14,41,47)" transform="translate(0,0)"></path>
<path d="M 1465.02 1595.91 C 1460.62 1591.24 1460.31 1584.04 1464.28 1579.01 C 1468.26 1573.97 1475.33 1572.6 1480.89 1575.79 C 1486.46 1578.99 1488.85 1585.78 1486.5 1591.75 C 1484.89 1595.88 1481.26 1598.9 1476.91 1599.74 C 1472.55 1600.58 1468.07 1599.14 1465.02 1595.91 z" fill="rgb(109,171,176)" transform="translate(0,0)"></path>
<path d="M 1472.23 1561.35 C 1473.96 1561.59 1475.48 1561.98 1477.16 1562.37 C 1470.44 1564.64 1468.19 1564.24 1460.85 1563.96 C 1465.06 1562.97 1468.03 1562.75 1472.23 1561.35 z" fill="rgb(22,85,92)" transform="translate(0,0)"></path>
<path d="M 1420.33 1575.69 C 1428.15 1572.58 1437.01 1576.4 1440.1 1584.23 C 1443.19 1592.06 1439.33 1600.91 1431.49 1603.97 C 1423.69 1607.02 1414.9 1603.18 1411.82 1595.39 C 1408.75 1587.61 1412.55 1578.8 1420.33 1575.69 z" fill="rgb(109,171,176)" transform="translate(0,0)"></path>
<path d="M 387.751 1221.33 C 385.46 1220.83 380.91 1219.96 378.927 1219.19 C 351.652 1208.6 352.003 1167.81 382.172 1160.54 C 401.336 1155.93 486.26 1181.74 495.227 1177.81 C 504.159 1182.64 515.772 1184.97 525.219 1189.47 C 554.988 1203.62 580.739 1228.77 591.165 1260.49 C 592.759 1265.45 593.924 1270.55 594.647 1275.71 C 595.846 1297.58 597.976 1385.24 578.763 1400.83 C 540.988 1431.47 516.279 1393.25 522.413 1354.38 C 523.113 1348.38 521.971 1334.01 521.848 1329.95 C 499.972 1351.59 477.233 1371.14 453.002 1390.44 C 437.164 1403.05 418.809 1416.91 400.555 1397.73 C 387.808 1384.34 390.613 1370.1 399.618 1354.82 C 388.379 1360.2 378.707 1363.84 366.07 1359.31 C 357.704 1356.39 350.921 1350.14 347.333 1342.04 C 339.537 1324.16 348.318 1304.01 364.852 1294.71 L 363.819 1292.07 C 333.864 1295.71 311.578 1268.1 328.829 1241.26 C 339.22 1225.09 369.396 1223.91 387.751 1221.33 z" fill="rgb(220,169,141)" transform="translate(0,0)"></path>
<path d="M 373.871 1290.2 L 374.131 1288.96 C 375.077 1283.58 435.556 1269.15 444.005 1265.94 C 445.248 1265.46 447.764 1266.24 449.023 1266.6 L 448.38 1268.08 C 447.998 1269.06 447.484 1270.34 446.37 1270.69 C 423.618 1277.7 400.563 1283.73 377.754 1290.56 C 376.235 1291.02 375.314 1290.64 373.871 1290.2 z" fill="rgb(16,14,14)" transform="translate(0,0)"></path>
<path d="M 363.819 1292.07 C 367.863 1290.93 369.732 1290.25 373.871 1290.2 C 371.829 1292.53 367.805 1293.62 364.852 1294.71 L 363.819 1292.07 z" fill="rgb(221,215,206)" transform="translate(0,0)"></path>
<path d="M 470.831 1304.84 C 473.657 1305.54 474.42 1307.83 472.875 1309.05 C 455.133 1322.98 419.759 1345.45 401.179 1355.15 C 400.62 1354.79 400.178 1354.58 399.742 1354.13 C 399.387 1353.76 399.238 1353.14 399.354 1352.65 C 400.021 1349.79 463.474 1309.67 470.831 1304.84 z" fill="rgb(16,14,14)" transform="translate(0,0)"></path>
<path d="M 406.917 1217.13 C 416.296 1216.85 425.738 1217.19 435.121 1217.12 C 438.054 1217.1 437.055 1220.87 436.81 1222.6 C 432.405 1222.73 408.316 1224.45 407.283 1219.6 C 407.161 1218.78 407.039 1217.95 406.917 1217.13 z" fill="rgb(16,14,14)" transform="translate(0,0)"></path>
<path d="M 1543.05 1244.81 C 1554.81 1247.05 1569.49 1248.68 1581.57 1250.28 C 1578.76 1269.33 1574.19 1297.53 1572.71 1316.57 C 1643.44 1328.06 1669.11 1388.3 1658.45 1453.98 C 1657.4 1463.19 1656.03 1471.97 1655.03 1481.39 C 1648.49 1479.48 1642.62 1479.8 1636.67 1478.11 L 1635.74 1478.24 C 1632.55 1477.85 1629.28 1477.36 1626.09 1477.22 C 1615.73 1476.59 1601.29 1474.73 1590.68 1473.52 C 1580.37 1471.75 1565.17 1471.15 1554.26 1470.08 C 1552.97 1493.47 1548.39 1518.06 1546.48 1541.8 C 1534.75 1540.56 1515.03 1539.8 1504.26 1537.56 C 1492.01 1535.24 1477.77 1534.64 1464.83 1532.94 C 1453.44 1532.59 1438.23 1530.59 1426.66 1529.19 C 1416.66 1527.28 1404.82 1526.35 1394.58 1525.61 C 1396.21 1501.69 1399.14 1476.25 1402.03 1452.41 C 1406.5 1412.77 1414.01 1373.84 1444.55 1346.21 C 1471.36 1321.95 1498.65 1312.85 1534.13 1313.93 C 1537.33 1291.94 1540.56 1266.8 1543.05 1244.81 z" fill="rgb(14,41,47)" transform="translate(0,0)"></path>
<path d="M 1543.05 1244.81 C 1554.81 1247.05 1569.49 1248.68 1581.57 1250.28 C 1578.76 1269.33 1574.19 1297.53 1572.71 1316.57 C 1643.44 1328.06 1669.11 1388.3 1658.45 1453.98 C 1657.4 1463.19 1656.03 1471.97 1655.03 1481.39 C 1648.49 1479.48 1642.62 1479.8 1636.67 1478.11 L 1635.74 1478.24 C 1640.64 1410.35 1643.57 1361.12 1567.41 1340.12 L 1560.94 1388.84 C 1559.39 1400.63 1558.69 1420.7 1549.51 1429.01 C 1541.08 1436.63 1533.05 1430.33 1526.98 1423.28 C 1526.45 1411.21 1528.71 1396.99 1530.2 1384.87 C 1532.33 1368.55 1534 1352.17 1535.2 1335.76 C 1498.91 1336.18 1461.82 1354.44 1442.28 1385.27 C 1428.04 1407.73 1424.26 1429.91 1423.21 1455.96 C 1415.96 1455.01 1409.17 1454.1 1402.03 1452.41 C 1406.5 1412.77 1414.01 1373.84 1444.55 1346.21 C 1471.36 1321.95 1498.65 1312.85 1534.13 1313.93 C 1537.33 1291.94 1540.56 1266.8 1543.05 1244.81 z" fill="rgb(15,104,118)" transform="translate(0,0)"></path>
<path d="M 1653.64 1458.92 C 1656.13 1457.08 1656.45 1456.46 1658.45 1453.98 C 1657.4 1463.19 1656.03 1471.97 1655.03 1481.39 C 1648.49 1479.48 1642.62 1479.8 1636.67 1478.11 C 1648.23 1476.07 1654.7 1482.16 1653.78 1472.62 C 1653.68 1471.65 1656.06 1467.56 1653.83 1464.59 C 1653.64 1462.32 1653.43 1461.14 1653.64 1458.92 z" fill="rgb(22,85,92)" transform="translate(0,0)"></path>
<path d="M 1653.83 1464.59 L 1652.9 1465.69 C 1645.33 1475.14 1636.14 1455.39 1653.64 1458.92 C 1653.43 1461.14 1653.64 1462.32 1653.83 1464.59 z" fill="rgb(219,76,47)" transform="translate(0,0)"></path>
<path d="M 1604.11 1337.58 C 1606.54 1335.97 1609.8 1336.56 1611.5 1338.93 C 1613.2 1341.3 1612.71 1344.58 1610.4 1346.36 C 1608.84 1347.56 1606.74 1347.82 1604.94 1347.03 C 1603.13 1346.23 1601.9 1344.51 1601.73 1342.55 C 1601.55 1340.58 1602.47 1338.68 1604.11 1337.58 z" fill="rgb(225,101,73)" transform="translate(0,0)"></path>
<path d="M 1518.85 1320.5 C 1521.52 1319.22 1524.73 1320.34 1526.01 1323.02 C 1527.3 1325.69 1526.17 1328.9 1523.49 1330.18 C 1520.82 1331.45 1517.62 1330.33 1516.34 1327.66 C 1515.06 1324.99 1516.18 1321.79 1518.85 1320.5 z" fill="rgb(225,101,73)" transform="translate(0,0)"></path>
<path d="M 1489.17 1325.14 C 1491.76 1324.06 1494.75 1325.17 1496.01 1327.68 C 1497.27 1330.19 1496.37 1333.25 1493.95 1334.68 C 1492.23 1335.7 1490.08 1335.68 1488.39 1334.62 C 1486.69 1333.56 1485.73 1331.64 1485.89 1329.64 C 1486.06 1327.65 1487.32 1325.91 1489.17 1325.14 z" fill="rgb(219,76,47)" transform="translate(0,0)"></path>
<path d="M 1576.21 1324.59 C 1577.63 1323.39 1579.59 1323.07 1581.32 1323.76 C 1583.04 1324.45 1584.25 1326.03 1584.45 1327.88 C 1584.66 1329.73 1583.83 1331.54 1582.29 1332.58 C 1580.08 1334.1 1577.07 1333.61 1575.45 1331.48 C 1573.83 1329.35 1574.16 1326.32 1576.21 1324.59 z" fill="rgb(225,101,73)" transform="translate(0,0)"></path>
<path d="M 1420.68 1395.46 C 1422.12 1394.35 1424.05 1394.11 1425.71 1394.82 C 1427.38 1395.54 1428.54 1397.1 1428.72 1398.91 C 1428.91 1400.71 1428.11 1402.48 1426.62 1403.52 C 1424.39 1405.08 1421.33 1404.58 1419.71 1402.39 C 1418.1 1400.2 1418.53 1397.13 1420.68 1395.46 z" fill="rgb(219,76,47)" transform="translate(0,0)"></path>
<path d="M 1455.27 1344.41 C 1456.79 1343.41 1458.73 1343.31 1460.35 1344.15 C 1461.96 1345 1462.99 1346.65 1463.02 1348.47 C 1463.06 1350.29 1462.1 1351.99 1460.53 1352.9 C 1458.19 1354.25 1455.2 1353.5 1453.78 1351.21 C 1452.36 1348.91 1453.02 1345.9 1455.27 1344.41 z" fill="rgb(219,76,47)" transform="translate(0,0)"></path>
<path d="M 1649.19 1425.69 C 1651.56 1424.63 1654.36 1425.57 1655.61 1427.85 C 1656.86 1430.14 1656.15 1433 1653.97 1434.43 C 1652.4 1435.46 1650.38 1435.53 1648.75 1434.59 C 1647.11 1433.66 1646.14 1431.89 1646.23 1430.01 C 1646.33 1428.13 1647.47 1426.46 1649.19 1425.69 z" fill="rgb(219,76,47)" transform="translate(0,0)"></path>
<path d="M 1633.66 1361.05 C 1636.31 1360.5 1638.91 1362.15 1639.53 1364.78 C 1640.15 1367.41 1638.56 1370.06 1635.95 1370.75 C 1634.2 1371.21 1632.33 1370.69 1631.08 1369.38 C 1629.83 1368.07 1629.38 1366.19 1629.92 1364.45 C 1630.45 1362.72 1631.89 1361.42 1633.66 1361.05 z" fill="rgb(219,76,47)" transform="translate(0,0)"></path>
<path d="M 1412.67 1426.48 C 1414.87 1424.99 1417.87 1425.57 1419.35 1427.78 C 1420.84 1429.99 1420.23 1432.98 1418.01 1434.45 C 1415.81 1435.9 1412.86 1435.31 1411.39 1433.12 C 1409.92 1430.93 1410.49 1427.97 1412.67 1426.48 z" fill="rgb(219,76,47)" transform="translate(0,0)"></path>
<path d="M 1433.99 1368.34 C 1435.43 1367.36 1437.31 1367.27 1438.83 1368.12 C 1440.36 1368.96 1441.27 1370.6 1441.2 1372.34 C 1441.12 1374.08 1440.07 1375.63 1438.48 1376.35 C 1436.31 1377.33 1433.74 1376.48 1432.57 1374.4 C 1431.4 1372.32 1432.02 1369.68 1433.99 1368.34 z" fill="rgb(219,76,47)" transform="translate(0,0)"></path>
<path d="M 1645.12 1394.41 C 1646.55 1393.41 1648.44 1393.31 1649.97 1394.16 C 1651.51 1395.01 1652.43 1396.65 1652.34 1398.41 C 1652.26 1400.16 1651.18 1401.71 1649.57 1402.4 C 1647.4 1403.33 1644.88 1402.48 1643.73 1400.42 C 1642.59 1398.36 1643.18 1395.76 1645.12 1394.41 z" fill="rgb(219,76,47)" transform="translate(0,0)"></path>
<path d="M 1402.03 1452.41 C 1409.17 1454.1 1415.96 1455.01 1423.21 1455.96 C 1426.98 1456.28 1430.27 1456.86 1434.18 1457.15 C 1446.66 1458.84 1459.74 1459.64 1472.39 1461.03 C 1481.38 1461.3 1505.4 1463.62 1513.81 1465.42 L 1554.26 1470.08 C 1552.97 1493.47 1548.39 1518.06 1546.48 1541.8 C 1534.75 1540.56 1515.03 1539.8 1504.26 1537.56 C 1492.01 1535.24 1477.77 1534.64 1464.83 1532.94 C 1453.44 1532.59 1438.23 1530.59 1426.66 1529.19 C 1416.66 1527.28 1404.82 1526.35 1394.58 1525.61 C 1396.21 1501.69 1399.14 1476.25 1402.03 1452.41 z" fill="rgb(225,207,187)" transform="translate(0,0)"></path>
<path d="M 1402.03 1452.41 C 1409.17 1454.1 1415.96 1455.01 1423.21 1455.96 C 1426.98 1456.28 1430.27 1456.86 1434.18 1457.15 C 1446.66 1458.84 1459.74 1459.64 1472.39 1461.03 C 1470.77 1484.83 1465.85 1509.43 1464.83 1532.94 C 1453.44 1532.59 1438.23 1530.59 1426.66 1529.19 C 1416.66 1527.28 1404.82 1526.35 1394.58 1525.61 C 1396.21 1501.69 1399.14 1476.25 1402.03 1452.41 z" fill="rgb(225,207,187)" transform="translate(0,0)"></path>
<path d="M 1402.03 1452.41 C 1409.17 1454.1 1415.96 1455.01 1423.21 1455.96 C 1426.98 1456.28 1430.27 1456.86 1434.18 1457.15 C 1431.93 1479.52 1427.77 1507.35 1426.66 1529.19 C 1416.66 1527.28 1404.82 1526.35 1394.58 1525.61 C 1396.21 1501.69 1399.14 1476.25 1402.03 1452.41 z" fill="rgb(219,76,47)" transform="translate(0,0)"></path>
<path d="M 1472.39 1461.03 C 1481.38 1461.3 1505.4 1463.62 1513.81 1465.42 C 1510.26 1473.93 1510.73 1502.44 1507.92 1513 C 1506.12 1519.77 1506.58 1530.45 1504.26 1537.56 C 1492.01 1535.24 1477.77 1534.64 1464.83 1532.94 C 1465.85 1509.43 1470.77 1484.83 1472.39 1461.03 z" fill="rgb(219,76,47)" transform="translate(0,0)"></path>
<path d="M 1208.56 1332.81 C 1217.55 1331.91 1230.73 1328.91 1239.82 1326.95 C 1241.38 1340.11 1242.16 1354.49 1243.1 1367.8 C 1244.54 1381.51 1245.04 1411.59 1247.43 1422.63 C 1285.26 1428.24 1322.36 1432.31 1347.12 1463.37 C 1346.44 1464.31 1346.15 1464.81 1345.6 1465.83 C 1309.76 1550.19 1070.86 1559.71 1031.23 1474.69 C 1045.83 1447.19 1084.2 1435.49 1112.72 1429.94 L 1109.53 1381.1 C 1108.6 1369.66 1108.25 1357.46 1107.73 1345.94 C 1111.79 1344.32 1115.03 1345.7 1119.67 1344.41 L 1125.47 1343.98 C 1140.05 1343.5 1184 1336.77 1198.48 1333.71 C 1201.69 1333.23 1205.28 1333.05 1208.56 1332.81 z" fill="rgb(220,169,141)" transform="translate(0,0)"></path>
<path d="M 1247.43 1422.63 C 1285.26 1428.24 1322.36 1432.31 1347.12 1463.37 C 1346.44 1464.31 1346.15 1464.81 1345.6 1465.83 C 1309.76 1550.19 1070.86 1559.71 1031.23 1474.69 C 1045.83 1447.19 1084.2 1435.49 1112.72 1429.94 L 1113.29 1443.77 C 1114.43 1454.82 1114.84 1468.43 1115.3 1479.56 C 1172.23 1490.06 1193.02 1491.28 1251.05 1479.65 C 1250.52 1466.67 1249.47 1450.31 1248.56 1437.14 C 1248.09 1433.99 1247.7 1426.1 1247.43 1422.63 z" fill="rgb(14,41,47)" transform="translate(0,0)"></path>
<path d="M 1248.56 1437.14 C 1267.21 1436.3 1283 1440.76 1293.93 1456.36 L 1291.31 1459.27 C 1282.88 1468.56 1263.34 1477.44 1251.05 1479.65 C 1250.52 1466.67 1249.47 1450.31 1248.56 1437.14 z" fill="rgb(16,14,14)" transform="translate(0,0)"></path>
<path d="M 1115.3 1479.56 C 1106.57 1476.7 1091.65 1471.57 1087.02 1463.39 C 1083 1456.28 1108.48 1445.47 1113.29 1443.77 C 1114.43 1454.82 1114.84 1468.43 1115.3 1479.56 z" fill="rgb(16,14,14)" transform="translate(0,0)"></path>
<path d="M 1208.56 1332.81 C 1217.55 1331.91 1230.73 1328.91 1239.82 1326.95 C 1241.38 1340.11 1242.16 1354.49 1243.1 1367.8 C 1200.09 1372.7 1152.54 1377.78 1109.53 1381.1 C 1108.6 1369.66 1108.25 1357.46 1107.73 1345.94 C 1111.79 1344.32 1115.03 1345.7 1119.67 1344.41 L 1125.47 1343.98 C 1140.05 1343.5 1184 1336.77 1198.48 1333.71 C 1201.69 1333.23 1205.28 1333.05 1208.56 1332.81 z" fill="rgb(74,20,18)" transform="translate(0,0)"></path>
<path d="M 1506.74 1006.2 C 1508.65 1002.96 1511.44 993.264 1513.34 988.98 C 1525.83 960.769 1545.94 941.357 1578.14 956.432 C 1582.1 961.847 1589.3 970.186 1588.85 976.918 L 1592.73 978.808 C 1596.96 978.938 1603.64 979.841 1606.47 977.339 L 1608.01 978.683 C 1650.35 982.424 1671.59 1008.84 1648.75 1048.99 C 1664 1069.82 1660.97 1088.34 1642.56 1106.19 C 1655.69 1124 1651.16 1138.94 1635.75 1153.36 C 1633.45 1183.7 1614.64 1185.47 1589.28 1184.18 C 1586.94 1206.24 1584.37 1228.28 1581.57 1250.28 C 1569.49 1248.68 1554.81 1247.05 1543.05 1244.81 C 1545.36 1225.95 1549.11 1202.36 1550.37 1183.07 C 1550.51 1180.84 1547.52 1179.82 1545.46 1178.65 C 1513.35 1173.68 1499.27 1156.48 1496.17 1124.9 C 1490.16 1124.95 1486.45 1124.77 1480.48 1124.23 L 1496.15 1124.25 C 1496.79 1091.12 1498.82 1038.24 1506.74 1006.2 z" fill="rgb(220,169,141)" transform="translate(0,0)"></path>
<path d="M 1506.74 1006.2 C 1508.65 1002.96 1511.44 993.264 1513.34 988.98 C 1525.83 960.769 1545.94 941.357 1578.14 956.432 C 1582.1 961.847 1589.3 970.186 1588.85 976.918 C 1584.99 998.466 1594.74 1029.22 1572.35 1045.74 C 1534.59 1073.6 1526.54 1025.33 1523.22 1023.32 L 1521.08 1023.69 C 1518.15 1030.31 1529.05 1048.11 1532.96 1053.33 C 1528.23 1067.47 1532.14 1080.43 1540.66 1092.18 C 1529.45 1108.27 1525.57 1125.27 1540.27 1140.98 C 1535.64 1155.65 1535.84 1165.62 1545.46 1178.65 C 1513.35 1173.68 1499.27 1156.48 1496.17 1124.9 C 1490.16 1124.95 1486.45 1124.77 1480.48 1124.23 L 1496.15 1124.25 C 1496.79 1091.12 1498.82 1038.24 1506.74 1006.2 z" fill="rgb(220,169,141)" transform="translate(0,0)"></path>
<path d="M 1588.85 976.918 L 1592.73 978.808 C 1595.11 1001.15 1594.75 1022.09 1583.58 1042.2 C 1594.25 1043.55 1622.82 1042.6 1627.97 1046.88 L 1627.63 1048.42 L 1627.73 1046.45 L 1626.87 1048.86 C 1619.23 1050.81 1588.65 1048.12 1579.44 1047.32 C 1564.72 1059.6 1554.58 1061.24 1536.93 1054.91 C 1530.18 1104.52 1572.31 1098.47 1607.16 1100.08 C 1611.95 1100.3 1619.22 1099.47 1623.06 1102.59 C 1621.16 1106.28 1610.55 1105.41 1606.59 1105.26 C 1583.62 1104.43 1564.62 1106.01 1543.85 1094.93 C 1506.34 1162.05 1608.25 1144.46 1616.15 1152.45 C 1612.94 1155.54 1607.87 1155.56 1603.46 1155.33 C 1582.11 1154.24 1562.09 1155.66 1543.44 1143.76 C 1540.57 1168.47 1546.91 1180.93 1573.43 1183.44 C 1578.69 1183.94 1583.98 1184.19 1589.28 1184.18 C 1586.94 1206.24 1584.37 1228.28 1581.57 1250.28 C 1569.49 1248.68 1554.81 1247.05 1543.05 1244.81 C 1545.36 1225.95 1549.11 1202.36 1550.37 1183.07 C 1550.51 1180.84 1547.52 1179.82 1545.46 1178.65 C 1535.84 1165.62 1535.64 1155.65 1540.27 1140.98 C 1525.57 1125.27 1529.45 1108.27 1540.66 1092.18 C 1532.14 1080.43 1528.23 1067.47 1532.96 1053.33 C 1529.05 1048.11 1518.15 1030.31 1521.08 1023.69 L 1523.22 1023.32 C 1526.54 1025.33 1534.59 1073.6 1572.35 1045.74 C 1594.74 1029.22 1584.99 998.466 1588.85 976.918 z" fill="url(#Gradient1)" transform="translate(0,0)"></path>
<path d="M 1533.27 745.284 C 1568.16 749.268 1603.07 753.049 1638 756.628 C 1656.46 758.676 1676.01 761.446 1694.35 763.156 C 1693.58 770.55 1691.08 805.412 1689.46 809.755 C 1684.71 861.035 1671.08 889.213 1615.46 894.524 L 1606.47 977.339 C 1603.64 979.841 1596.96 978.938 1592.73 978.808 L 1588.85 976.918 C 1589.3 970.186 1582.1 961.847 1578.14 956.432 C 1579.5 936.485 1582.75 911.977 1585.41 892.057 C 1559.1 886.184 1540.89 876.007 1531.1 849.329 C 1523.64 828.996 1527.02 810.431 1529.26 789.573 C 1530.9 775.683 1532.77 759.242 1533.27 745.284 z" fill="rgb(253,253,252)" transform="translate(0,0)"></path>
<path d="M 1533.27 745.284 C 1568.16 749.268 1603.07 753.049 1638 756.628 C 1656.46 758.676 1676.01 761.446 1694.35 763.156 C 1693.58 770.55 1691.08 805.412 1689.46 809.755 L 1688.92 808.744 C 1685.97 806.445 1679.3 806.362 1675.23 805.94 C 1670.78 803.372 1559.26 792.716 1545.28 790.489 C 1540.88 789.818 1533.91 789.763 1529.26 789.573 C 1530.9 775.683 1532.77 759.242 1533.27 745.284 z" fill="rgb(15,104,118)" transform="translate(0,0)"></path>
<path d="M 1529.26 789.573 C 1533.91 789.763 1540.88 789.818 1545.28 790.489 C 1542.01 810.843 1538.61 835.296 1551.37 853.398 C 1571.12 881.403 1623.22 886.387 1650.48 867.377 C 1670.57 853.368 1674.61 828.802 1675.23 805.94 C 1679.3 806.362 1685.97 806.445 1688.92 808.744 L 1689.46 809.755 C 1684.71 861.035 1671.08 889.213 1615.46 894.524 L 1606.47 977.339 C 1603.64 979.841 1596.96 978.938 1592.73 978.808 L 1588.85 976.918 C 1589.3 970.186 1582.1 961.847 1578.14 956.432 C 1579.5 936.485 1582.75 911.977 1585.41 892.057 C 1559.1 886.184 1540.89 876.007 1531.1 849.329 C 1523.64 828.996 1527.02 810.431 1529.26 789.573 z" fill="rgb(14,41,47)" transform="translate(0,0)"></path>
<path d="M 1554.26 1470.08 C 1565.17 1471.15 1580.37 1471.75 1590.68 1473.52 C 1601.29 1474.73 1615.73 1476.59 1626.09 1477.22 C 1629.28 1477.36 1632.55 1477.85 1635.74 1478.24 L 1636.67 1478.11 C 1642.62 1479.8 1648.49 1479.48 1655.03 1481.39 C 1654.79 1503.34 1650.07 1530.07 1647.69 1552.2 C 1638.37 1550.92 1628.08 1549.82 1618.67 1548.9 C 1613.95 1548.97 1588.06 1546.42 1582.87 1545.46 C 1571.9 1544.02 1557.56 1542.61 1546.48 1541.8 C 1548.39 1518.06 1552.97 1493.47 1554.26 1470.08 z" fill="rgb(225,207,187)" transform="translate(0,0)"></path>
<path d="M 1554.26 1470.08 C 1565.17 1471.15 1580.37 1471.75 1590.68 1473.52 C 1590.2 1476.29 1590.11 1477.72 1589.86 1480.5 C 1587.94 1501.23 1583.87 1524.88 1582.87 1545.46 C 1571.9 1544.02 1557.56 1542.61 1546.48 1541.8 C 1548.39 1518.06 1552.97 1493.47 1554.26 1470.08 z" fill="rgb(219,76,47)" transform="translate(0,0)"></path>
<path d="M 1626.09 1477.22 C 1629.28 1477.36 1632.55 1477.85 1635.74 1478.24 L 1636.67 1478.11 C 1642.62 1479.8 1648.49 1479.48 1655.03 1481.39 C 1654.79 1503.34 1650.07 1530.07 1647.69 1552.2 C 1638.37 1550.92 1628.08 1549.82 1618.67 1548.9 C 1620.1 1525.71 1625.61 1499.81 1626.09 1477.22 z" fill="rgb(219,76,47)" transform="translate(0,0)"></path>
<path d="M 543.84 391.129 C 567.175 389.762 595.111 392.294 618.497 394.199 C 624.669 394.702 634.292 407.511 618.754 414.088 C 597.117 418.219 567.045 411.505 544.994 410.27 C 531.545 409.516 535.782 397.847 543.84 391.129 z" fill="rgb(239,124,42)" transform="translate(0,0)"></path>
<path d="M 1275.97 206.716 C 1296.32 213.013 1267.55 232.608 1261.21 237.786 C 1244.92 251.104 1228.79 262.789 1209.86 272.134 C 1204.18 271.487 1200.75 266.344 1203.07 262.502 C 1214.95 242.786 1257.04 217.303 1275.97 206.716 z" fill="rgb(239,124,42)" transform="translate(0,0)"></path>
<path d="M 661.978 214.486 C 669.398 219.023 722.09 263.188 725.834 268.987 C 727.645 271.792 728.908 274.668 728.055 278.03 C 727.411 280.566 725.844 281.714 723.661 282.978 C 710.413 277.653 699.548 271.527 688.136 262.779 C 680.507 257.059 673.317 250.775 666.627 243.98 C 656.871 233.927 650.178 225.654 661.978 214.486 z" fill="rgb(239,124,42)" transform="translate(0,0)"></path>
<path d="M 1184.08 145.857 C 1186.92 146.089 1195.37 147.545 1193.68 151.99 C 1185.67 173.107 1164.37 212.186 1148.79 227.612 C 1140.77 229.553 1138.39 221.731 1140.82 215.988 C 1148.98 196.714 1168.31 158.218 1184.08 145.857 z" fill="rgb(239,124,42)" transform="translate(0,0)"></path>
<path d="M 1327.22 282.905 C 1329.78 282.989 1334.04 283.635 1334.16 286.487 C 1334.9 303.802 1314.34 308.399 1301.51 313.058 C 1288.11 317.922 1274.01 321.799 1260.23 325.333 C 1248.22 325.476 1252.95 313.707 1256.52 312.024 C 1277.18 302.279 1307.29 292.635 1327.22 282.905 z" fill="rgb(239,124,42)" transform="translate(0,0)"></path>
<path d="M 601.4 301.747 C 611.86 303.24 625.178 311.025 635.433 314.807 C 643.691 317.852 653.04 321.375 660.835 325.307 C 668.603 329.225 668.697 338.937 660.574 342.807 C 642.784 338.855 610.417 325.47 594.837 315.102 C 588.335 310.776 598.172 303.92 601.4 301.747 z" fill="rgb(239,124,42)" transform="translate(0,0)"></path>
<path d="M 1088.49 122.653 L 1089.52 122.827 C 1103.82 125.309 1097.54 149.775 1096.11 159.511 C 1093.97 174.032 1088.17 189.389 1079.45 201.254 C 1058.91 206.983 1081.55 159.252 1080.86 150.995 C 1080.28 143.946 1084.92 128.856 1088.49 122.653 z" fill="rgb(239,124,42)" transform="translate(0,0)"></path>
<path d="M 759.783 180.672 C 776.636 186.52 785.248 221.489 791.063 237.009 C 792.419 240.628 788.435 244.99 786.229 247.379 L 785.306 247.262 C 783.523 247.049 778.811 246.405 777.381 244.249 C 768.704 231.168 757.773 204.808 754.938 189.491 C 754.243 185.736 758.001 182.484 759.783 180.672 z" fill="rgb(239,124,42)" transform="translate(0,0)"></path>
<path d="M 577.856 490.13 C 580.746 489.842 583.55 488.957 586.262 490.662 C 589.833 492.292 591.757 501.315 588.834 503.934 C 578.252 513.416 554.324 519.297 541.133 521.55 C 526.68 522.943 522.048 508.281 542.013 502.308 L 543.977 501.742 C 556.25 498.113 566.023 494.017 577.856 490.13 z" fill="rgb(239,124,42)" transform="translate(0,0)"></path>
<path d="M 1347.12 1463.37 C 1348.08 1464.94 1348.9 1466.24 1349.76 1467.88 C 1348.43 1468.84 1347.91 1469.23 1346.7 1470.29 C 1346.27 1468.72 1345.91 1467.43 1345.6 1465.83 C 1346.15 1464.81 1346.44 1464.31 1347.12 1463.37 z" fill="rgb(32,43,51)" transform="translate(0,0)"></path>
<path d="M 677.303 1468.94 C 678.307 1467.36 678.454 1467.32 679.887 1465.88 L 680.848 1466.89 L 679.614 1469.9 L 677.303 1468.94 z" fill="rgb(32,43,51)" transform="translate(0,0)"></path>
<metadata><recraft-signature>{"signed_by": "recraft", "signature_b64": "gG1IcVDQRWg3gxmIRLTc1eUyKg5miNGXLe9l/z5MmjOMlckDoAh0hdXtFXtMq0xBoE/n+0N8XR7C+/h3cvQTBA==", "signing_algo": "Ed25519", "generation_timestamp": 1778553551, "identifier": "166bb6c7-4ad7-4bb4-9483-3724a3257d63"}</recraft-signature></metadata></svg>