<svg xmlns="http://www.w3.org/2000/svg" height="1024" preserveAspectRatio="none" style="display: block;" version="1.1" viewBox="0 0 2048 2048" width="1024">
<defs>
	<linearGradient gradientUnits="userSpaceOnUse" id="Gradient1" x1="1233.51" x2="1184.03" y1="1804.04" y2="1745.41">
		<stop class="stop0" offset="0" stop-color="rgb(0,0,0)" stop-opacity="1"></stop>
		<stop class="stop1" offset="1" stop-color="rgb(24,30,43)" stop-opacity="1"></stop>
	</linearGradient>
</defs>

<path d="M 897.757 198.601 C 913.24 192.453 1020.3 195.006 1040.21 197.485 C 1086.61 202.375 1153.52 212.731 1198.68 226.305 C 1201.08 227.104 1203.75 227.759 1206.25 228.532 C 1232.96 236.012 1281.01 252.154 1305.65 264.824 C 1369.39 293.446 1451.44 334.508 1504.62 380.14 C 1507.48 383.019 1510.65 385.613 1513.66 388.4 C 1515.57 389.768 1522.23 394.779 1523.87 395.684 C 1535.98 400.44 1586.73 438.59 1595.96 448.41 C 1604.8 456.398 1613.56 464.341 1622.41 472.507 C 1653.79 501.445 1681.57 536.79 1703.91 573.151 C 1712.4 586.96 1718.95 603.041 1726.8 617.304 C 1738.38 622.39 1758.28 630.813 1765.05 642.122 C 1800.12 668.427 1823 719.639 1829.32 762.507 C 1836.82 813.439 1825.13 866.357 1794.41 908.078 C 1790.7 913.117 1775.84 932.258 1771.06 933.435 C 1761.66 942.712 1750.72 949.253 1739.39 955.816 C 1737.73 956.775 1727.36 962.436 1726.48 963.286 C 1719.13 974.916 1716.91 978.594 1706.86 988.263 C 1694.71 1014.83 1683.25 1038 1672.29 1065.28 C 1666.41 1079.12 1662.51 1093.4 1657.45 1107.47 C 1642.95 1147.82 1634.61 1186.48 1626.23 1228.29 L 1626.89 1229.09 C 1634.96 1238.72 1643.97 1247.17 1652.08 1257.05 C 1672.56 1282 1690.43 1320.67 1681.61 1353.65 C 1679.8 1360.94 1673.66 1372.22 1672.94 1376.96 C 1669.99 1396.44 1669.23 1413.62 1662.28 1432.49 C 1659.41 1440.31 1646.67 1459.84 1647.3 1465.05 L 1647.85 1470.78 C 1648.85 1494.19 1648.09 1509.78 1642 1532.88 C 1671.82 1572.06 1683.31 1604.69 1678.8 1654.16 C 1719.66 1659.58 1827.91 1678.6 1859.2 1699.6 C 1864.73 1703.31 1870.85 1708.51 1871.93 1715.49 C 1872.51 1719.21 1871.2 1722.68 1868.92 1725.58 C 1849.71 1750.01 1761.03 1754.95 1729.38 1759.53 C 1735.79 1761.91 1745.12 1765.29 1749.98 1769.87 C 1783.43 1801.34 1718.91 1812.95 1700.22 1816.31 C 1644 1826.32 1586.84 1829.95 1529.81 1827.12 C 1478.26 1824.91 1429.4 1818.4 1377.54 1824.09 C 1349.85 1827.13 1321.38 1828.18 1295.29 1839.61 C 1283.36 1844.84 1280.63 1845.31 1282.95 1858.38 C 1223.92 1898.46 985.342 1894.23 921.262 1864.72 C 918.416 1842.71 915.208 1841.82 893.492 1837.13 C 818.098 1820.86 743.144 1833.7 667.448 1836.83 C 588.796 1840.18 510.025 1834.13 432.807 1818.8 C 409.547 1814.07 387.439 1808.61 365.363 1799.66 C 334.787 1787.28 336.998 1772.7 354.052 1748.5 C 336.848 1736.71 311.14 1736.63 290.858 1733.57 C 263.275 1729.41 204.782 1718.89 182.748 1703.14 C 177.327 1699.27 171.887 1693.57 171.091 1686.64 C 170.532 1681.76 172.582 1677.29 175.557 1673.54 C 202.945 1639.01 332.753 1636.08 378.172 1630.6 C 371.845 1621.32 363.846 1593.96 378.739 1589.54 C 381.602 1588.69 388.04 1588.73 391.176 1588.87 C 416.988 1590.07 443.056 1583.74 466.972 1574.37 C 493.188 1562.86 516.738 1545.8 532.303 1521.45 C 461.106 1488.59 391.367 1430.15 343.351 1368.5 C 339.368 1364.73 321.761 1341.48 319.139 1336.42 C 311.488 1325.98 300.291 1306.95 293.763 1295.57 C 283.821 1279.78 261.37 1237.16 254.754 1219.02 C 240.106 1181.34 229.092 1147.92 221.439 1108.02 C 216.137 1079 211.845 1044.72 210.881 1015.25 C 209.08 1005.31 210.309 941.637 211.7 931.767 C 215.775 869.875 228.076 812.282 245.367 752.971 C 247.268 743.118 255.403 719.44 258.94 709.841 C 281.665 649.225 310.012 590.868 343.611 535.534 C 350.698 524.564 357.909 512.789 365.177 502.056 C 378.646 485.262 390.834 468.301 404.876 451.738 C 436.81 414.072 468.077 384.455 505.801 353.106 C 512.233 344.477 580.813 299.838 592.714 293.501 C 594.973 291.601 605.917 285.777 609.179 284.013 C 640.104 267.542 672.113 253.19 704.984 241.057 C 707.919 240.677 719.612 236.692 722.883 235.495 C 780.473 214.408 837.2 205.648 897.757 198.601 z" fill="rgb(210,177,142)" transform="translate(0,0)"></path>
<path d="M 897.757 198.601 C 913.24 192.453 1020.3 195.006 1040.21 197.485 C 1086.61 202.375 1153.52 212.731 1198.68 226.305 C 1201.08 227.104 1203.75 227.759 1206.25 228.532 C 1232.96 236.012 1281.01 252.154 1305.65 264.824 C 1369.39 293.446 1451.44 334.508 1504.62 380.14 C 1496.91 381.089 1501.28 381.571 1493.27 377.923 L 1492.38 377.525 L 1492.2 379.372 C 1467.58 370.02 1437.41 360.831 1411.34 356.852 C 1394.73 354.608 1377.97 351.142 1361.1 350.918 C 1333.78 345.895 1254.41 354.222 1227.46 363.005 C 1210.55 366.203 1173.8 378.08 1157.97 385.24 C 1144.16 389.756 1085.57 419.911 1074.1 429.268 C 1064.8 435.402 1044.06 449.736 1036.22 457.548 C 1031.07 461.544 1023.47 467.109 1018.98 471.459 C 1010.73 478.908 994.656 493.604 988.177 501.997 C 957.063 535.449 916.158 596.411 898.409 638.822 C 900.739 642.507 903.269 659.828 904.529 664.996 C 915.777 711.171 956.453 738.58 1003.46 729.48 C 1008.55 728.494 1016.73 726.611 1021.8 726.952 C 1016.31 740.695 1011.48 753.954 1006.21 767.646 C 989.267 823.321 984.902 864.408 984.797 922.569 C 985.711 940.207 987.119 962.198 990.457 979.576 C 994.992 1009.45 1001.69 1038.96 1010.49 1067.86 C 1012.87 1075.63 1024.17 1104.83 1024.73 1110.27 C 1005.09 1108.27 985.484 1114.35 970.42 1127.11 C 953.603 1141.09 945.31 1159.27 942.876 1181.05 C 941.903 1189.75 947.302 1211.62 945.689 1214.62 L 944.841 1216.06 C 896.23 1212.64 871.78 1264.04 900.662 1301.19 C 913.176 1317.28 943.823 1322.16 961.468 1309.04 C 963.249 1318.63 964.504 1318.09 967.375 1326.12 L 965.575 1329.41 C 959.278 1345.64 952.578 1362.47 944.285 1377.75 C 869.525 1515.5 679.87 1579.29 535.205 1522.61 C 534.236 1522.23 533.268 1521.85 532.303 1521.45 C 461.106 1488.59 391.367 1430.15 343.351 1368.5 C 339.368 1364.73 321.761 1341.48 319.139 1336.42 C 311.488 1325.98 300.291 1306.95 293.763 1295.57 C 283.821 1279.78 261.37 1237.16 254.754 1219.02 C 240.106 1181.34 229.092 1147.92 221.439 1108.02 C 216.137 1079 211.845 1044.72 210.881 1015.25 C 209.08 1005.31 210.309 941.637 211.7 931.767 C 215.775 869.875 228.076 812.282 245.367 752.971 C 247.268 743.118 255.403 719.44 258.94 709.841 C 281.665 649.225 310.012 590.868 343.611 535.534 C 350.698 524.564 357.909 512.789 365.177 502.056 C 378.646 485.262 390.834 468.301 404.876 451.738 C 436.81 414.072 468.077 384.455 505.801 353.106 C 512.233 344.477 580.813 299.838 592.714 293.501 C 594.973 291.601 605.917 285.777 609.179 284.013 C 640.104 267.542 672.113 253.19 704.984 241.057 C 707.919 240.677 719.612 236.692 722.883 235.495 C 780.473 214.408 837.2 205.648 897.757 198.601 z" fill="rgb(234,121,138)" transform="translate(0,0)"></path>
<path d="M 897.757 198.601 C 913.24 192.453 1020.3 195.006 1040.21 197.485 C 1086.61 202.375 1153.52 212.731 1198.68 226.305 L 1195.69 228.424 C 1160.76 225.576 1156.85 245.043 1127.55 254.347 C 1106.19 261.131 1067.88 246.916 1051.56 263.293 C 1033.32 281.598 1027.4 305.37 993.657 303.553 C 972.173 301.432 955.222 295.029 936.868 310.525 C 916.478 327.739 921.399 382.675 883.661 376.705 C 846.674 370.854 825.196 385.989 820.985 425.139 C 819.472 439.204 828.607 462.78 814.048 473.992 C 786.624 491.738 755.388 484.228 752.825 528.034 C 751.88 544.192 758.709 578.042 744.438 586.338 C 714.191 603.918 690.343 597.505 686.242 643.833 C 683.738 672.129 707.71 706.97 680.446 729.953 C 664.764 743.739 649.096 742.861 632.995 760.352 C 604.663 791.129 622.26 833.261 594.732 861.401 C 568.37 888.35 532.29 859.755 501.352 888.217 C 495.025 893.676 486.476 904.751 483.939 912.492 C 477.388 932.476 466.79 968.829 438.007 963.248 C 402.488 956.361 387.204 934.403 347.651 954.018 C 327.667 967.1 302.553 984.131 283.754 955.834 C 275.473 943.367 269.848 928.823 253.668 924.251 C 243.971 921.511 232.275 921.128 222.951 925.307 C 219.09 927.142 215.769 929.858 211.7 931.767 C 215.775 869.875 228.076 812.282 245.367 752.971 C 247.268 743.118 255.403 719.44 258.94 709.841 C 281.665 649.225 310.012 590.868 343.611 535.534 C 350.698 524.564 357.909 512.789 365.177 502.056 C 378.646 485.262 390.834 468.301 404.876 451.738 C 436.81 414.072 468.077 384.455 505.801 353.106 C 512.233 344.477 580.813 299.838 592.714 293.501 C 594.973 291.601 605.917 285.777 609.179 284.013 C 640.104 267.542 672.113 253.19 704.984 241.057 C 707.919 240.677 719.612 236.692 722.883 235.495 C 780.473 214.408 837.2 205.648 897.757 198.601 z" fill="rgb(234,121,138)" transform="translate(0,0)"></path>
<path d="M 897.757 198.601 L 898.096 200.198 C 888.241 205.966 881.021 210.719 872.087 217.907 C 860.264 227.418 847.96 241.2 834.396 247.498 C 813.795 257.063 791.686 250.547 771.975 264.207 C 750.073 279.385 746.769 312.666 727.592 328.947 C 705.929 347.339 682.632 337.5 661.67 363.016 C 646.011 382.077 642.95 425.431 628.684 440.126 C 607.518 461.93 575.437 458.308 565.506 498.509 C 556.388 535.422 565.056 570.138 526.331 592.243 C 511.99 600.428 497.65 603.864 485.648 616.046 C 472.087 629.812 466.664 647.643 457.345 663.851 C 433.786 704.821 398.316 719.349 352.793 715.526 L 351.223 714.83 C 331.068 718.478 319.04 732.811 299.361 733.209 C 283.097 733.539 269.727 720.815 258.94 709.841 C 281.665 649.225 310.012 590.868 343.611 535.534 C 350.698 524.564 357.909 512.789 365.177 502.056 C 378.646 485.262 390.834 468.301 404.876 451.738 C 436.81 414.072 468.077 384.455 505.801 353.106 C 512.233 344.477 580.813 299.838 592.714 293.501 C 594.973 291.601 605.917 285.777 609.179 284.013 C 640.104 267.542 672.113 253.19 704.984 241.057 C 707.919 240.677 719.612 236.692 722.883 235.495 C 780.473 214.408 837.2 205.648 897.757 198.601 z" fill="rgb(234,121,138)" transform="translate(0,0)"></path>
<path d="M 592.714 293.501 C 594.973 291.601 605.917 285.777 609.179 284.013 C 640.104 267.542 672.113 253.19 704.984 241.057 C 697.026 265.751 689.283 282.543 664.866 295.048 C 651.467 301.91 640.004 304.202 627.178 312.641 C 600.731 330.044 604.396 359.694 580.535 379.322 C 557.667 398.135 517.572 392.339 506.192 425.136 C 502.493 435.793 501.623 449.257 498.663 460.403 C 490.468 491.265 465.104 518.706 437.224 533.336 C 427.947 538.204 420.404 540.146 410.262 542.291 L 409.568 542.644 C 386.669 547.894 364.575 546.654 343.611 535.534 C 350.698 524.564 357.909 512.789 365.177 502.056 C 378.646 485.262 390.834 468.301 404.876 451.738 C 436.81 414.072 468.077 384.455 505.801 353.106 C 512.233 344.477 580.813 299.838 592.714 293.501 z" fill="rgb(230,211,191)" transform="translate(0,0)"></path>
<path d="M 505.801 353.106 C 506.294 363.377 495.821 375.254 492.136 384.583 C 481.287 399.688 476.488 410.822 470.069 428.4 C 462.097 441.135 439.155 479.073 435.215 491.806 L 433.628 493.613 C 428.95 503.282 423.873 512.833 419.233 522.598 C 416.345 528.677 413.478 536.943 410.262 542.291 L 409.568 542.644 C 386.669 547.894 364.575 546.654 343.611 535.534 C 350.698 524.564 357.909 512.789 365.177 502.056 C 378.646 485.262 390.834 468.301 404.876 451.738 C 436.81 414.072 468.077 384.455 505.801 353.106 z" fill="rgb(201,76,103)" transform="translate(0,0)"></path>
<path d="M 365.177 502.056 C 372.713 508.716 407.875 506.689 417.316 501.104 C 420.974 498.94 426.636 496.584 430.486 494.935 L 433.628 493.613 C 428.95 503.282 423.873 512.833 419.233 522.598 C 416.345 528.677 413.478 536.943 410.262 542.291 L 409.568 542.644 C 386.669 547.894 364.575 546.654 343.611 535.534 C 350.698 524.564 357.909 512.789 365.177 502.056 z" fill="rgb(210,177,142)" transform="translate(0,0)"></path>
<path d="M 592.714 293.501 C 594.254 295.567 587.87 306.582 586.635 309.734 C 576.291 336.131 561.181 357.161 532.985 365.8 C 514.012 372.329 508.291 371.796 492.136 384.583 C 495.821 375.254 506.294 363.377 505.801 353.106 C 512.233 344.477 580.813 299.838 592.714 293.501 z" fill="rgb(234,121,138)" transform="translate(0,0)"></path>
<path d="M 470.069 428.4 C 467.863 452.577 456.749 478.727 435.215 491.806 C 439.155 479.073 462.097 441.135 470.069 428.4 z" fill="rgb(234,121,138)" transform="translate(0,0)"></path>
<path d="M 343.611 535.534 C 364.575 546.654 386.669 547.894 409.568 542.644 C 405.752 556.355 390.249 587.218 383.851 604.379 C 374.526 629.89 366.259 655.776 359.069 681.969 C 356.14 692.989 354.052 703.957 351.223 714.83 C 331.068 718.478 319.04 732.811 299.361 733.209 C 283.097 733.539 269.727 720.815 258.94 709.841 C 281.665 649.225 310.012 590.868 343.611 535.534 z" fill="rgb(201,76,103)" transform="translate(0,0)"></path>
<path d="M 897.757 198.601 C 913.24 192.453 1020.3 195.006 1040.21 197.485 C 1019.44 217.156 1003.16 227.353 973.712 226.093 C 945.411 224.883 927.915 222.36 905.961 243.59 C 896.152 253.076 885.051 265.494 873.859 273.019 C 850.631 288.635 818.301 284.059 795.045 297.812 C 772.003 311.439 773.16 339.243 753.75 358.278 C 735.478 376.197 712.901 372.141 697.865 387.342 C 679.921 405.482 682.571 437.483 668.714 460.647 C 655.476 482.778 627.23 491.096 615.187 509.15 C 598.427 534.273 607.688 565.638 590.478 594.546 C 570.619 627.905 547.092 629.01 520.839 651.728 C 507.658 663.136 494.156 689.259 484.264 704.289 C 462.743 736.99 428.654 762.191 388.064 760.763 C 370.943 760.161 361.599 757.72 343.475 759.271 C 345.962 750.482 348.239 719.364 352.793 715.526 C 398.316 719.349 433.786 704.821 457.345 663.851 C 466.664 647.643 472.087 629.812 485.648 616.046 C 497.65 603.864 511.99 600.428 526.331 592.243 C 565.056 570.138 556.388 535.422 565.506 498.509 C 575.437 458.308 607.518 461.93 628.684 440.126 C 642.95 425.431 646.011 382.077 661.67 363.016 C 682.632 337.5 705.929 347.339 727.592 328.947 C 746.769 312.666 750.073 279.385 771.975 264.207 C 791.686 250.547 813.795 257.063 834.396 247.498 C 847.96 241.2 860.264 227.418 872.087 217.907 C 881.021 210.719 888.241 205.966 898.096 200.198 L 897.757 198.601 z" fill="rgb(230,211,191)" transform="translate(0,0)"></path>
<path d="M 258.94 709.841 C 269.727 720.815 283.097 733.539 299.361 733.209 C 319.04 732.811 331.068 718.478 351.223 714.83 L 352.793 715.526 C 348.239 719.364 345.962 750.482 343.475 759.271 L 343.12 759.624 C 343.586 766.252 338.775 800.342 338.216 810.371 C 335.22 858.46 338.39 906.735 347.651 954.018 C 327.667 967.1 302.553 984.131 283.754 955.834 C 275.473 943.367 269.848 928.823 253.668 924.251 C 243.971 921.511 232.275 921.128 222.951 925.307 C 219.09 927.142 215.769 929.858 211.7 931.767 C 215.775 869.875 228.076 812.282 245.367 752.971 C 247.268 743.118 255.403 719.44 258.94 709.841 z" fill="rgb(201,76,103)" transform="translate(0,0)"></path>
<path d="M 258.94 709.841 C 269.727 720.815 283.097 733.539 299.361 733.209 C 319.04 732.811 331.068 718.478 351.223 714.83 L 352.793 715.526 C 348.239 719.364 345.962 750.482 343.475 759.271 L 343.12 759.624 C 328.052 763.897 314.771 777.448 296.884 777.921 C 273.525 778.539 261.23 766.52 245.367 752.971 C 247.268 743.118 255.403 719.44 258.94 709.841 z" fill="rgb(210,177,142)" transform="translate(0,0)"></path>
<path d="M 221.439 1108.02 C 225.05 1107.57 242.492 1118.96 247.182 1121.68 C 255.572 1126.49 264.108 1131.03 272.778 1135.32 C 318.788 1158.26 352.411 1161.22 395.113 1194.74 C 462.457 1247.6 475.725 1310.67 563.622 1340.23 C 591.467 1349.54 621.036 1352.54 650.184 1349.01 C 679.828 1345.41 712.671 1333.8 737.023 1316.57 C 799.31 1272.49 797.802 1193.36 878.284 1166.5 C 888.599 1163.06 899.105 1161.05 909.881 1159.78 C 921.913 1179.26 931.801 1196.34 945.689 1214.62 L 944.841 1216.06 C 896.23 1212.64 871.78 1264.04 900.662 1301.19 C 913.176 1317.28 943.823 1322.16 961.468 1309.04 C 963.249 1318.63 964.504 1318.09 967.375 1326.12 L 965.575 1329.41 C 959.278 1345.64 952.578 1362.47 944.285 1377.75 C 869.525 1515.5 679.87 1579.29 535.205 1522.61 C 534.236 1522.23 533.268 1521.85 532.303 1521.45 C 461.106 1488.59 391.367 1430.15 343.351 1368.5 C 339.368 1364.73 321.761 1341.48 319.139 1336.42 C 311.488 1325.98 300.291 1306.95 293.763 1295.57 C 283.821 1279.78 261.37 1237.16 254.754 1219.02 C 240.106 1181.34 229.092 1147.92 221.439 1108.02 z" fill="rgb(15,32,43)" transform="translate(0,0)"></path>
<path d="M 254.754 1219.02 C 271.68 1205.91 291.274 1215.87 303.032 1231.48 C 311.341 1242.52 314.274 1258.15 311.953 1271.5 C 309.419 1284.78 304.995 1289.44 293.763 1295.57 C 283.821 1279.78 261.37 1237.16 254.754 1219.02 z" fill="rgb(210,177,142)" transform="translate(0,0)"></path>
<path d="M 319.139 1336.42 C 332.49 1327.71 341.377 1328.95 351.798 1343.6 C 358.031 1352.37 351.564 1362.81 343.351 1368.5 C 339.368 1364.73 321.761 1341.48 319.139 1336.42 z" fill="rgb(210,177,142)" transform="translate(0,0)"></path>
<path d="M 829.089 1320.2 C 878.597 1317.58 884.02 1372.65 837.264 1385.01 C 779.978 1387.8 785.086 1329.12 829.089 1320.2 z" fill="rgb(230,211,191)" transform="translate(0,0)"></path>
<path d="M 608.078 1392.14 C 656.582 1388.88 659.354 1445.5 625.124 1455.47 C 581.83 1455.22 564.045 1401.76 608.078 1392.14 z" fill="rgb(230,211,191)" transform="translate(0,0)"></path>
<path d="M 372.74 1229.17 C 412.227 1227.21 427.529 1285.91 391.458 1296.24 C 364.821 1296.39 348.008 1278.43 350.736 1250.49 C 351.907 1238.49 361.571 1232.26 372.74 1229.17 z" fill="rgb(210,177,142)" transform="translate(0,0)"></path>
<path d="M 763.611 1405.05 C 799.548 1403.43 802.841 1441.51 770.828 1454.88 C 732.011 1456.81 732.239 1415.24 763.611 1405.05 z" fill="rgb(230,211,191)" transform="translate(0,0)"></path>
<path d="M 451.063 1379.14 C 473.635 1377.61 484.021 1388.84 489.395 1409.88 C 486.723 1418.71 485.853 1422.88 476.836 1427.5 L 475.268 1428.34 C 461.695 1431.41 449.427 1427.61 442.993 1415 C 435.682 1400.68 436.523 1386.85 451.063 1379.14 z" fill="rgb(230,211,191)" transform="translate(0,0)"></path>
<path d="M 551.122 1475.78 C 559.467 1473.2 568.333 1477.82 571.012 1486.13 C 573.691 1494.44 569.186 1503.36 560.906 1506.14 C 555.46 1507.97 549.452 1506.73 545.177 1502.89 C 540.902 1499.05 539.02 1493.22 540.251 1487.6 C 541.481 1481.99 545.634 1477.48 551.122 1475.78 z" fill="rgb(230,211,191)" transform="translate(0,0)"></path>
<path d="M 1198.68 226.305 C 1201.08 227.104 1203.75 227.759 1206.25 228.532 C 1232.96 236.012 1281.01 252.154 1305.65 264.824 C 1297.32 273.637 1287.26 281.48 1275.26 280.573 C 1237.69 277.735 1213.57 247.634 1180.46 285.758 C 1170.93 296.726 1155.66 309.144 1140.14 307.559 C 1121.3 306.886 1101.5 295.897 1085.09 310.436 C 1067.27 328.94 1064.38 357.689 1030.18 357.995 C 1015.79 358.124 998.138 348.449 986.142 360.676 C 967.693 379.478 969.684 402.705 947.967 421.25 C 929.561 436.967 907.199 426.96 893.474 443.817 C 885.891 453.131 886.531 477.593 884.763 489.801 C 883.543 497.845 881.199 505.678 877.8 513.07 C 864.093 542.949 831.112 540.83 829.282 575.494 C 828.879 583.128 830.861 592.222 830.966 599.823 C 831.196 616.438 825.845 632.274 813.855 643.928 C 797.689 659.642 776.121 663.86 775.718 690.54 C 775.548 701.78 779.033 713.447 781.493 724.644 C 788.013 750.925 781.991 774.027 763.369 793.15 C 745.418 811.584 707.958 817.272 710.61 848.336 C 713.125 877.797 715.432 902.702 692.606 925.538 C 682.633 935.515 670.201 942.526 655.169 942.536 C 636.317 941.981 618.754 931.604 602.746 947.621 C 581.446 968.931 593.884 998.208 572.266 1020.46 C 547.98 1045.45 523.267 1014.41 498.88 1039.48 C 484.505 1054.25 470.586 1073.75 447.963 1073.07 C 417.682 1072.51 408.13 1048.38 378.099 1044.06 L 377.287 1043.64 C 363.371 1011.07 355.977 988.012 347.651 954.018 C 387.204 934.403 402.488 956.361 438.007 963.248 C 466.79 968.829 477.388 932.476 483.939 912.492 C 486.476 904.751 495.025 893.676 501.352 888.217 C 532.29 859.755 568.37 888.35 594.732 861.401 C 622.26 833.261 604.663 791.129 632.995 760.352 C 649.096 742.861 664.764 743.739 680.446 729.953 C 707.71 706.97 683.738 672.129 686.242 643.833 C 690.343 597.505 714.191 603.918 744.438 586.338 C 758.709 578.042 751.88 544.192 752.825 528.034 C 755.388 484.228 786.624 491.738 814.048 473.992 C 828.607 462.78 819.472 439.204 820.985 425.139 C 825.196 385.989 846.674 370.854 883.661 376.705 C 921.399 382.675 916.478 327.739 936.868 310.525 C 955.222 295.029 972.173 301.432 993.657 303.553 C 1027.4 305.37 1033.32 281.598 1051.56 263.293 C 1067.88 246.916 1106.19 261.131 1127.55 254.347 C 1156.85 245.043 1160.76 225.576 1195.69 228.424 L 1198.68 226.305 z" fill="rgb(230,211,191)" transform="translate(0,0)"></path>
<path d="M 1198.68 226.305 C 1201.08 227.104 1203.75 227.759 1206.25 228.532 C 1201.61 229.318 1200.38 229.291 1195.69 228.424 L 1198.68 226.305 z" fill="rgb(228,136,136)" transform="translate(0,0)"></path>
<path d="M 824.763 887.856 C 826.301 896.622 825.733 907.414 825.814 916.422 C 825.861 927.314 826.394 938.199 827.41 949.043 C 833.801 1020.67 847.288 1100.91 878.284 1166.5 C 797.802 1193.36 799.31 1272.49 737.023 1316.57 C 712.671 1333.8 679.828 1345.41 650.184 1349.01 C 621.036 1352.54 591.467 1349.54 563.622 1340.23 C 475.725 1310.67 462.457 1247.6 395.113 1194.74 C 352.411 1161.22 318.788 1158.26 272.778 1135.32 C 264.108 1131.03 255.572 1126.49 247.182 1121.68 C 242.492 1118.96 225.05 1107.57 221.439 1108.02 C 216.137 1079 211.845 1044.72 210.881 1015.25 C 209.08 1005.31 210.309 941.637 211.7 931.767 C 215.769 929.858 219.09 927.142 222.951 925.307 C 232.275 921.128 243.971 921.511 253.668 924.251 C 269.848 928.823 275.473 943.367 283.754 955.834 C 302.553 984.131 327.667 967.1 347.651 954.018 C 355.977 988.012 363.371 1011.07 377.287 1043.64 L 378.099 1044.06 C 380.033 1048.23 382.8 1052.35 385.091 1056.38 C 419.376 1117.03 475.682 1169.35 545.435 1183.79 C 622.876 1199.81 694.351 1166.29 741.603 1105.28 C 791.812 1040.44 809.229 966.098 824.763 887.856 z" fill="rgb(201,76,103)" transform="translate(0,0)"></path>
<path d="M 211.7 931.767 C 215.769 929.858 219.09 927.142 222.951 925.307 C 232.275 921.128 243.971 921.511 253.668 924.251 C 269.848 928.823 275.473 943.367 283.754 955.834 C 302.553 984.131 327.667 967.1 347.651 954.018 C 355.977 988.012 363.371 1011.07 377.287 1043.64 C 352.241 1047.12 345.604 1082.5 311.319 1068.33 C 276.854 1054.08 281.001 1018.84 252.505 1000.33 C 238.462 991.216 224.446 992.281 210.504 1000.53 C 210.913 1005.8 210.907 1010.02 210.881 1015.25 C 209.08 1005.31 210.309 941.637 211.7 931.767 z" fill="rgb(210,177,142)" transform="translate(0,0)"></path>
<path d="M 791.949 1107.09 C 829.572 1106.3 826.09 1160.19 785.349 1172.9 C 749.454 1174.06 748.447 1117.97 791.949 1107.09 z" fill="rgb(230,211,191)" transform="translate(0,0)"></path>
<path d="M 706.007 1228.22 C 744.837 1228.27 746.393 1271.18 708.852 1282.61 C 668.376 1285.94 671.258 1234.85 702.561 1228.85 L 706.007 1228.22 z" fill="rgb(230,211,191)" transform="translate(0,0)"></path>
<path d="M 534 1243.14 C 537.475 1242.89 541.786 1242.38 545.154 1243.49 C 549.389 1244.88 552.861 1247.95 554.744 1251.99 C 559.339 1262.1 553.264 1269.79 544.107 1273.91 C 521.951 1273.55 513.329 1255.69 534 1243.14 z" fill="rgb(230,211,191)" transform="translate(0,0)"></path>
<path d="M 898.409 638.822 C 900.739 642.507 903.269 659.828 904.529 664.996 C 915.777 711.171 956.453 738.58 1003.46 729.48 C 1008.55 728.494 1016.73 726.611 1021.8 726.952 C 1016.31 740.695 1011.48 753.954 1006.21 767.646 C 989.267 823.321 984.902 864.408 984.797 922.569 C 985.711 940.207 987.119 962.198 990.457 979.576 C 994.992 1009.45 1001.69 1038.96 1010.49 1067.86 C 1012.87 1075.63 1024.17 1104.83 1024.73 1110.27 C 1005.09 1108.27 985.484 1114.35 970.42 1127.11 C 953.603 1141.09 945.31 1159.27 942.876 1181.05 C 941.903 1189.75 947.302 1211.62 945.689 1214.62 C 931.801 1196.34 921.913 1179.26 909.881 1159.78 C 908.126 1155.65 903.168 1146.81 900.901 1142.22 C 895.685 1131.7 890.816 1121 886.303 1110.15 C 869.204 1065.77 860.973 1037.47 852.648 991.226 C 836.96 899.592 843.482 813.251 867.122 723.687 C 877.268 690.704 884.435 670.63 898.409 638.822 z" fill="rgb(230,211,191)" transform="translate(0,0)"></path>
<path d="M 990.457 979.576 C 994.992 1009.45 1001.69 1038.96 1010.49 1067.86 C 1012.87 1075.63 1024.17 1104.83 1024.73 1110.27 C 1005.09 1108.27 985.484 1114.35 970.42 1127.11 C 953.603 1141.09 945.31 1159.27 942.876 1181.05 C 941.903 1189.75 947.302 1211.62 945.689 1214.62 C 931.801 1196.34 921.913 1179.26 909.881 1159.78 C 908.126 1155.65 903.168 1146.81 900.901 1142.22 C 895.685 1131.7 890.816 1121 886.303 1110.15 C 892.352 1101.39 894.235 1088.24 897.107 1077.86 C 910.611 1029.1 934.154 982.866 990.457 979.576 z" fill="rgb(230,211,191)" transform="translate(0,0)"></path>
<path d="M 852.648 991.226 C 856.117 985.48 857.767 969.412 860.622 961.839 C 881.095 907.528 929.815 884.882 983.857 901.51 C 983.832 908.152 983.283 916.253 984.797 922.569 C 985.711 940.207 987.119 962.198 990.457 979.576 C 934.154 982.866 910.611 1029.1 897.107 1077.86 C 894.235 1088.24 892.352 1101.39 886.303 1110.15 C 869.204 1065.77 860.973 1037.47 852.648 991.226 z" fill="rgb(255,254,253)" transform="translate(0,0)"></path>
<path d="M 898.409 638.822 C 900.739 642.507 903.269 659.828 904.529 664.996 C 915.777 711.171 956.453 738.58 1003.46 729.48 C 1008.55 728.494 1016.73 726.611 1021.8 726.952 C 1016.31 740.695 1011.48 753.954 1006.21 767.646 C 999.579 770.004 985.005 787.688 971.9 793.437 C 954.738 800.965 938.538 801.411 920.861 795.441 C 898.504 787.656 882.896 768.672 875.197 746.786 C 872.641 739.52 870.471 730.234 867.122 723.687 C 877.268 690.704 884.435 670.63 898.409 638.822 z" fill="rgb(255,254,253)" transform="translate(0,0)"></path>
<path d="M 824.763 887.856 C 829.362 860.101 832.691 832.034 837.49 804.244 C 849.023 737.467 865.971 682.651 894.518 621.261 C 948.406 504.705 1046.5 414.414 1167.11 370.351 C 1269.44 333.285 1392.75 330.725 1492.38 377.525 L 1492.2 379.372 C 1467.58 370.02 1437.41 360.831 1411.34 356.852 C 1394.73 354.608 1377.97 351.142 1361.1 350.918 C 1333.78 345.895 1254.41 354.222 1227.46 363.005 C 1210.55 366.203 1173.8 378.08 1157.97 385.24 C 1144.16 389.756 1085.57 419.911 1074.1 429.268 C 1064.8 435.402 1044.06 449.736 1036.22 457.548 C 1031.07 461.544 1023.47 467.109 1018.98 471.459 C 1010.73 478.908 994.656 493.604 988.177 501.997 C 957.063 535.449 916.158 596.411 898.409 638.822 C 884.435 670.63 877.268 690.704 867.122 723.687 C 843.482 813.251 836.96 899.592 852.648 991.226 C 860.973 1037.47 869.204 1065.77 886.303 1110.15 C 890.816 1121 895.685 1131.7 900.901 1142.22 C 903.168 1146.81 908.126 1155.65 909.881 1159.78 C 899.105 1161.05 888.599 1163.06 878.284 1166.5 C 847.288 1100.91 833.801 1020.67 827.41 949.043 C 826.394 938.199 825.861 927.314 825.814 916.422 C 825.733 907.414 826.301 896.622 824.763 887.856 z" fill="rgb(178,61,85)" transform="translate(0,0)"></path>
<path d="M 945.689 1214.62 C 947.302 1211.62 941.903 1189.75 942.876 1181.05 C 945.31 1159.27 953.603 1141.09 970.42 1127.11 C 985.484 1114.35 1005.09 1108.27 1024.73 1110.27 C 1024.42 1110.73 1023.69 1111.96 1023.33 1112.27 C 1028.47 1113.1 1035.3 1113.43 1040.11 1114.75 C 1063.29 1121.1 1076.13 1135.39 1087.66 1155.5 C 1096.21 1125.09 1126.24 1108.17 1156.58 1117.97 C 1170.9 1122.7 1182.72 1133 1189.34 1146.55 C 1194.2 1156.69 1194.57 1165.4 1195.07 1176.34 L 1197.58 1178.36 C 1189.14 1184.12 1183.67 1188.73 1176.83 1196.58 C 1169.76 1203.92 1163.77 1210.53 1159.25 1219.81 C 1129.59 1266.97 1144.92 1327.56 1170.83 1372.05 C 1173.93 1377.37 1187.25 1393.1 1187.74 1397.42 C 1180.91 1390.87 1174.52 1382.58 1168.62 1375.17 C 1159.08 1370.62 1161.63 1364.72 1149.05 1360.92 C 1159.37 1387.97 1170.32 1396.18 1189.08 1415.98 C 1222.57 1451.33 1261.59 1476.2 1305.74 1496.28 C 1325.39 1505.22 1373.16 1523.27 1394.7 1525.6 C 1399.44 1525.07 1404.23 1525.71 1408.92 1526.57 C 1418.98 1527.94 1429.4 1529.25 1439.59 1529.14 C 1451.81 1531.38 1479.9 1530.15 1492.45 1529.24 C 1545.92 1525.35 1609.93 1500.33 1645.24 1458.5 C 1646.1 1462.23 1646.23 1462.51 1644.79 1466.04 L 1647.3 1465.05 L 1647.85 1470.78 C 1648.85 1494.19 1648.09 1509.78 1642 1532.88 C 1671.82 1572.06 1683.31 1604.69 1678.8 1654.16 C 1719.66 1659.58 1827.91 1678.6 1859.2 1699.6 C 1864.73 1703.31 1870.85 1708.51 1871.93 1715.49 C 1872.51 1719.21 1871.2 1722.68 1868.92 1725.58 C 1849.71 1750.01 1761.03 1754.95 1729.38 1759.53 C 1735.79 1761.91 1745.12 1765.29 1749.98 1769.87 C 1783.43 1801.34 1718.91 1812.95 1700.22 1816.31 C 1644 1826.32 1586.84 1829.95 1529.81 1827.12 C 1478.26 1824.91 1429.4 1818.4 1377.54 1824.09 C 1349.85 1827.13 1321.38 1828.18 1295.29 1839.61 C 1283.36 1844.84 1280.63 1845.31 1282.95 1858.38 C 1223.92 1898.46 985.342 1894.23 921.262 1864.72 C 918.416 1842.71 915.208 1841.82 893.492 1837.13 C 818.098 1820.86 743.144 1833.7 667.448 1836.83 C 588.796 1840.18 510.025 1834.13 432.807 1818.8 C 409.547 1814.07 387.439 1808.61 365.363 1799.66 C 334.787 1787.28 336.998 1772.7 354.052 1748.5 C 336.848 1736.71 311.14 1736.63 290.858 1733.57 C 263.275 1729.41 204.782 1718.89 182.748 1703.14 C 177.327 1699.27 171.887 1693.57 171.091 1686.64 C 170.532 1681.76 172.582 1677.29 175.557 1673.54 C 202.945 1639.01 332.753 1636.08 378.172 1630.6 C 371.845 1621.32 363.846 1593.96 378.739 1589.54 C 381.602 1588.69 388.04 1588.73 391.176 1588.87 C 416.988 1590.07 443.056 1583.74 466.972 1574.37 C 493.188 1562.86 516.738 1545.8 532.303 1521.45 C 533.268 1521.85 534.236 1522.23 535.205 1522.61 C 679.87 1579.29 869.525 1515.5 944.285 1377.75 C 952.578 1362.47 959.278 1345.64 965.575 1329.41 L 967.375 1326.12 C 964.504 1318.09 963.249 1318.63 961.468 1309.04 C 943.823 1322.16 913.176 1317.28 900.662 1301.19 C 871.78 1264.04 896.23 1212.64 944.841 1216.06 L 945.689 1214.62 z" fill="rgb(230,211,191)" transform="translate(0,0)"></path>
<path d="M 945.689 1214.62 C 947.302 1211.62 941.903 1189.75 942.876 1181.05 C 945.31 1159.27 953.603 1141.09 970.42 1127.11 C 985.484 1114.35 1005.09 1108.27 1024.73 1110.27 C 1024.42 1110.73 1023.69 1111.96 1023.33 1112.27 C 1028.47 1113.1 1035.3 1113.43 1040.11 1114.75 C 1063.29 1121.1 1076.13 1135.39 1087.66 1155.5 C 1096.21 1125.09 1126.24 1108.17 1156.58 1117.97 C 1170.9 1122.7 1182.72 1133 1189.34 1146.55 C 1194.2 1156.69 1194.57 1165.4 1195.07 1176.34 L 1197.58 1178.36 C 1189.14 1184.12 1183.67 1188.73 1176.83 1196.58 C 1169.76 1203.92 1163.77 1210.53 1159.25 1219.81 C 1129.59 1266.97 1144.92 1327.56 1170.83 1372.05 C 1173.93 1377.37 1187.25 1393.1 1187.74 1397.42 C 1180.91 1390.87 1174.52 1382.58 1168.62 1375.17 C 1159.08 1370.62 1161.63 1364.72 1149.05 1360.92 C 1159.37 1387.97 1170.32 1396.18 1189.08 1415.98 C 1222.57 1451.33 1261.59 1476.2 1305.74 1496.28 C 1325.39 1505.22 1373.16 1523.27 1394.7 1525.6 C 1399.44 1525.07 1404.23 1525.71 1408.92 1526.57 C 1418.98 1527.94 1429.4 1529.25 1439.59 1529.14 C 1451.81 1531.38 1479.9 1530.15 1492.45 1529.24 C 1545.92 1525.35 1609.93 1500.33 1645.24 1458.5 C 1646.1 1462.23 1646.23 1462.51 1644.79 1466.04 L 1647.3 1465.05 L 1647.85 1470.78 C 1648.85 1494.19 1648.09 1509.78 1642 1532.88 C 1671.82 1572.06 1683.31 1604.69 1678.8 1654.16 C 1674.43 1672.59 1667.53 1690.46 1655.68 1705.69 C 1653.07 1709.06 1645.01 1715.54 1643.77 1717.24 C 1635.69 1727.31 1620.76 1733.43 1609.85 1739.35 C 1581.93 1747.07 1572.93 1749.24 1543.19 1749.07 L 1542.93 1747.08 C 1532.94 1746.25 1522.9 1745.52 1512.99 1744.15 L 1492.78 1741.54 C 1491.24 1741.48 1490.81 1741.17 1489.14 1740.6 C 1472.55 1749.32 1457.95 1757.95 1440.64 1765.82 C 1374.7 1790.01 1332.09 1792.28 1263.7 1779.56 C 1250.62 1776.69 1237.52 1773.96 1224.39 1771.37 C 1234.45 1749.52 1234.38 1713.41 1233.73 1689.42 L 1232.71 1687.29 C 1225.08 1679.91 1220.33 1673.13 1214.57 1664.27 C 1211.34 1659.3 1212.84 1660.26 1212.8 1653.96 C 1213.21 1628.01 1212.24 1621.35 1207.22 1595.68 C 1200.86 1576.25 1195.44 1564.89 1186.08 1547.11 L 1188.75 1546.43 L 1191.87 1549.11 L 1193.3 1546.78 C 1153.73 1502.28 1124.19 1460.15 1124.05 1398.73 C 1125.32 1397.13 1125.01 1397.5 1125.86 1395.6 L 1124.61 1392.79 C 1121.07 1397.73 1117.75 1402.75 1113.56 1407.13 C 1102.22 1421.05 1088.03 1430.34 1074.5 1441.78 C 1054.62 1429.01 1055.91 1414.32 1071.27 1398.13 C 1068.53 1390.39 1067.9 1389.56 1067.84 1381.47 C 1043.05 1387.52 1034.22 1385.32 1010.29 1377.64 C 1003.04 1383.5 988.382 1395.88 980.781 1400.34 C 984.27 1386.19 987.965 1367.81 992.67 1354.55 C 979.418 1346.65 974.233 1342.11 965.575 1329.41 L 967.375 1326.12 C 964.504 1318.09 963.249 1318.63 961.468 1309.04 C 943.823 1322.16 913.176 1317.28 900.662 1301.19 C 871.78 1264.04 896.23 1212.64 944.841 1216.06 L 945.689 1214.62 z" fill="rgb(6,7,7)" transform="translate(0,0)"></path>
<path d="M 945.689 1214.62 C 947.302 1211.62 941.903 1189.75 942.876 1181.05 C 945.31 1159.27 953.603 1141.09 970.42 1127.11 C 985.484 1114.35 1005.09 1108.27 1024.73 1110.27 C 1024.42 1110.73 1023.69 1111.96 1023.33 1112.27 C 1028.47 1113.1 1035.3 1113.43 1040.11 1114.75 C 1063.29 1121.1 1076.13 1135.39 1087.66 1155.5 C 1096.21 1125.09 1126.24 1108.17 1156.58 1117.97 C 1170.9 1122.7 1182.72 1133 1189.34 1146.55 C 1194.2 1156.69 1194.57 1165.4 1195.07 1176.34 C 1190.54 1181.82 1182.68 1186.97 1177.24 1192.28 C 1158.09 1211.01 1144.11 1237.13 1140.75 1263.8 C 1119.64 1280.47 1115 1287.12 1086.31 1278.93 C 1079.85 1302.13 1075.6 1319.6 1053.03 1333.12 C 1039.45 1341.25 1019.8 1343.38 1004.65 1338.73 C 983.974 1332.39 978.935 1322.47 969.922 1305.29 L 968.042 1301.67 C 965.828 1304.06 963.442 1306.49 961.468 1309.04 C 943.823 1322.16 913.176 1317.28 900.662 1301.19 C 871.78 1264.04 896.23 1212.64 944.841 1216.06 L 945.689 1214.62 z" fill="rgb(86,193,200)" transform="translate(0,0)"></path>
<path d="M 945.689 1214.62 C 947.302 1211.62 941.903 1189.75 942.876 1181.05 C 945.31 1159.27 953.603 1141.09 970.42 1127.11 C 985.484 1114.35 1005.09 1108.27 1024.73 1110.27 C 1024.42 1110.73 1023.69 1111.96 1023.33 1112.27 C 973.437 1112.73 938.445 1148.62 947.199 1201.57 C 948.127 1207.19 950.455 1210.66 950.18 1216.7 L 948.882 1217.42 L 944.841 1216.06 L 945.689 1214.62 z" fill="rgb(6,7,7)" transform="translate(0,0)"></path>
<path d="M 1140.73 1345.31 C 1143.77 1346.31 1148.71 1358.23 1149.05 1360.92 C 1159.37 1387.97 1170.32 1396.18 1189.08 1415.98 C 1222.57 1451.33 1261.59 1476.2 1305.74 1496.28 C 1325.39 1505.22 1373.16 1523.27 1394.7 1525.6 C 1399.44 1525.07 1404.23 1525.71 1408.92 1526.57 C 1418.98 1527.94 1429.4 1529.25 1439.59 1529.14 C 1451.81 1531.38 1479.9 1530.15 1492.45 1529.24 C 1545.92 1525.35 1609.93 1500.33 1645.24 1458.5 C 1646.1 1462.23 1646.23 1462.51 1644.79 1466.04 L 1647.3 1465.05 L 1647.85 1470.78 L 1645.43 1469.54 C 1646.86 1487.74 1645.96 1514.62 1639.18 1531.78 C 1628.4 1546.2 1619.53 1560.55 1606.85 1573.54 C 1551.44 1630.26 1460.59 1640.49 1388.05 1614.78 C 1381.94 1612.62 1362.27 1604.91 1357.23 1604.1 C 1318.68 1584.47 1281.42 1560.64 1249.62 1531.58 C 1205.94 1491.65 1164.01 1439.24 1148.1 1381.56 C 1144.64 1369.03 1141.45 1358.37 1140.73 1345.31 z" fill="rgb(230,211,191)" transform="translate(0,0)"></path>
<path d="M 1645.24 1458.5 C 1646.1 1462.23 1646.23 1462.51 1644.79 1466.04 L 1647.3 1465.05 L 1647.85 1470.78 L 1645.43 1469.54 L 1644.3 1468.66 C 1638.28 1475.3 1629.24 1486.46 1622.73 1491.94 C 1588.55 1520.71 1539.3 1532.88 1495.53 1534.83 C 1466.6 1536.34 1437.6 1534.25 1409.19 1528.61 L 1408.92 1526.57 C 1418.98 1527.94 1429.4 1529.25 1439.59 1529.14 C 1451.81 1531.38 1479.9 1530.15 1492.45 1529.24 C 1545.92 1525.35 1609.93 1500.33 1645.24 1458.5 z" fill="rgb(6,7,7)" transform="translate(0,0)"></path>
<path d="M 1394.7 1525.6 C 1399.44 1525.07 1404.23 1525.71 1408.92 1526.57 L 1409.19 1528.61 C 1404.78 1528.09 1399.03 1526.73 1394.7 1525.6 z" fill="rgb(98,54,54)" transform="translate(0,0)"></path>
<path d="M 1186.08 1547.11 L 1188.75 1546.43 L 1191.87 1549.11 C 1197.79 1557.25 1212.46 1571.29 1220.14 1578.53 C 1275.1 1630.31 1346.8 1669.52 1421.87 1680.93 C 1476.74 1689.27 1521.69 1684.46 1569.64 1656.5 C 1572.75 1652.55 1575.02 1652.22 1579.7 1651.88 C 1555.55 1693.38 1527.66 1714.15 1489.14 1740.6 C 1472.55 1749.32 1457.95 1757.95 1440.64 1765.82 C 1374.7 1790.01 1332.09 1792.28 1263.7 1779.56 C 1250.62 1776.69 1237.52 1773.96 1224.39 1771.37 C 1234.45 1749.52 1234.38 1713.41 1233.73 1689.42 L 1232.71 1687.29 C 1225.08 1679.91 1220.33 1673.13 1214.57 1664.27 C 1211.34 1659.3 1212.84 1660.26 1212.8 1653.96 C 1213.21 1628.01 1212.24 1621.35 1207.22 1595.68 C 1200.86 1576.25 1195.44 1564.89 1186.08 1547.11 z" fill="rgb(230,211,191)" transform="translate(0,0)"></path>
<path d="M 1569.64 1656.5 C 1572.75 1652.55 1575.02 1652.22 1579.7 1651.88 C 1555.55 1693.38 1527.66 1714.15 1489.14 1740.6 C 1472.55 1749.32 1457.95 1757.95 1440.64 1765.82 C 1374.7 1790.01 1332.09 1792.28 1263.7 1779.56 C 1250.62 1776.69 1237.52 1773.96 1224.39 1771.37 C 1234.45 1749.52 1234.38 1713.41 1233.73 1689.42 L 1247.7 1702.1 C 1330.44 1776.9 1453.32 1749.17 1536.86 1690.19 C 1548.94 1681.66 1560.26 1668.95 1570.14 1657.97 L 1569.64 1656.5 z" fill="rgb(234,121,138)" transform="translate(0,0)"></path>
<path d="M 1207.22 1595.68 C 1213.72 1601.81 1223.53 1631.95 1225.72 1641.02 C 1226.66 1644.81 1227.47 1648.64 1228.15 1652.49 C 1229.94 1662.35 1232.44 1677.39 1232.71 1687.29 C 1225.08 1679.91 1220.33 1673.13 1214.57 1664.27 C 1211.34 1659.3 1212.84 1660.26 1212.8 1653.96 C 1213.21 1628.01 1212.24 1621.35 1207.22 1595.68 z" fill="rgb(210,177,142)" transform="translate(0,0)"></path>
<path d="M 1131.31 1380.74 C 1135.03 1384 1137.36 1395.65 1139.01 1401.05 C 1145.12 1421.06 1153.28 1437.8 1165.77 1454.64 C 1197.61 1497.6 1234.58 1535.58 1279.32 1565.11 C 1287.98 1570.6 1310.03 1586.01 1319.01 1585.57 C 1327.5 1590.2 1348.77 1602.25 1357.23 1604.1 C 1362.27 1604.91 1381.94 1612.62 1388.05 1614.78 C 1460.59 1640.49 1551.44 1630.26 1606.85 1573.54 C 1619.53 1560.55 1628.4 1546.2 1639.18 1531.78 C 1610.97 1666.7 1466.08 1692.25 1353.66 1649.53 C 1265.31 1615.96 1183.75 1550.55 1140.39 1465.58 C 1128.18 1441.64 1121.77 1406.26 1131.31 1380.74 z" fill="rgb(234,121,138)" transform="translate(0,0)"></path>
<path d="M 1642 1532.88 C 1671.82 1572.06 1683.31 1604.69 1678.8 1654.16 C 1674.43 1672.59 1667.53 1690.46 1655.68 1705.69 C 1653.07 1709.06 1645.01 1715.54 1643.77 1717.24 C 1635.69 1727.31 1620.76 1733.43 1609.85 1739.35 C 1581.93 1747.07 1572.93 1749.24 1543.19 1749.07 L 1542.93 1747.08 C 1532.94 1746.25 1522.9 1745.52 1512.99 1744.15 L 1492.78 1741.54 C 1532.2 1714.89 1560.29 1691.86 1584.41 1649.16 C 1590.7 1640.18 1594.77 1623.94 1600.79 1615.54 C 1613.8 1597.38 1623.42 1582.94 1632.94 1562.33 C 1636.48 1551.93 1639.15 1543.54 1642 1532.88 z" fill="rgb(210,177,142)" transform="translate(0,0)"></path>
<path d="M 1632.94 1562.33 C 1636.22 1598.76 1610.47 1659.02 1587.08 1686.68 C 1575.95 1699.85 1562.49 1709.88 1552.59 1725.05 C 1557.92 1730.49 1560.41 1733.13 1567.28 1736.97 C 1584.89 1737.49 1592.44 1734.9 1609.34 1729.58 C 1615.45 1727.65 1635.63 1719.16 1640.02 1719.38 C 1641.24 1718.57 1642.49 1717.94 1643.77 1717.24 C 1635.69 1727.31 1620.76 1733.43 1609.85 1739.35 C 1581.93 1747.07 1572.93 1749.24 1543.19 1749.07 L 1542.93 1747.08 C 1532.94 1746.25 1522.9 1745.52 1512.99 1744.15 L 1492.78 1741.54 C 1532.2 1714.89 1560.29 1691.86 1584.41 1649.16 C 1590.7 1640.18 1594.77 1623.94 1600.79 1615.54 C 1613.8 1597.38 1623.42 1582.94 1632.94 1562.33 z" fill="rgb(166,133,104)" transform="translate(0,0)"></path>
<path d="M 1640.02 1719.38 C 1641.24 1718.57 1642.49 1717.94 1643.77 1717.24 C 1635.69 1727.31 1620.76 1733.43 1609.85 1739.35 C 1581.93 1747.07 1572.93 1749.24 1543.19 1749.07 L 1542.93 1747.08 C 1557.12 1746.17 1562.69 1747.66 1578.51 1745.15 C 1581.87 1744.65 1585.21 1744.02 1588.52 1743.26 C 1605.51 1739.57 1626.51 1730.33 1640.02 1719.38 z" fill="rgb(6,7,7)" transform="translate(0,0)"></path>
<path d="M 1138.83 1299.82 C 1139.53 1322.22 1133.96 1330.65 1139.1 1356.44 C 1135.69 1364.12 1126.09 1385.17 1124.61 1392.79 C 1121.07 1397.73 1117.75 1402.75 1113.56 1407.13 C 1102.22 1421.05 1088.03 1430.34 1074.5 1441.78 C 1054.62 1429.01 1055.91 1414.32 1071.27 1398.13 C 1068.53 1390.39 1067.9 1389.56 1067.84 1381.47 C 1043.05 1387.52 1034.22 1385.32 1010.29 1377.64 C 1003.04 1383.5 988.382 1395.88 980.781 1400.34 C 984.27 1386.19 987.965 1367.81 992.67 1354.55 C 1039.21 1375.1 1086.15 1353.68 1096.23 1302.88 C 1113.93 1308.95 1121.43 1308.03 1138.83 1299.82 z" fill="rgb(210,177,142)" transform="translate(0,0)"></path>
<path d="M 1067.84 1381.47 C 1084.72 1363.94 1112.61 1352.32 1113.72 1389 C 1113.92 1395.46 1112.67 1400.38 1113.56 1407.13 C 1102.22 1421.05 1088.03 1430.34 1074.5 1441.78 C 1054.62 1429.01 1055.91 1414.32 1071.27 1398.13 C 1068.53 1390.39 1067.9 1389.56 1067.84 1381.47 z" fill="rgb(255,254,253)" transform="translate(0,0)"></path>
<path d="M 1193.3 1546.78 C 1206.46 1558.92 1217.76 1570.68 1231.83 1582.09 C 1298.78 1636.33 1380.28 1674.28 1468 1670.89 C 1517.02 1669 1551.34 1656.92 1588.75 1625.92 L 1591.41 1628.26 C 1589.33 1632.86 1582.36 1648.76 1579.7 1651.88 C 1575.02 1652.22 1572.75 1652.55 1569.64 1656.5 C 1521.69 1684.46 1476.74 1689.27 1421.87 1680.93 C 1346.8 1669.52 1275.1 1630.31 1220.14 1578.53 C 1212.46 1571.29 1197.79 1557.25 1191.87 1549.11 L 1193.3 1546.78 z" fill="rgb(201,76,103)" transform="translate(0,0)"></path>
<path d="M 1086.31 1278.93 C 1115 1287.12 1119.64 1280.47 1140.75 1263.8 C 1140.16 1274.26 1139.42 1284.55 1140.64 1295 C 1124.06 1305.26 1111.95 1307.14 1093.96 1298.88 C 1091.68 1318.06 1083.95 1333.41 1068.57 1345.59 C 1054.16 1356.92 1035.79 1361.96 1017.62 1359.57 C 1000.05 1357.37 984.03 1348.81 973.187 1334.7 C 971.056 1331.97 969.114 1329.11 967.375 1326.12 C 964.504 1318.09 963.249 1318.63 961.468 1309.04 C 963.442 1306.49 965.828 1304.06 968.042 1301.67 L 969.922 1305.29 C 978.935 1322.47 983.974 1332.39 1004.65 1338.73 C 1019.8 1343.38 1039.45 1341.25 1053.03 1333.12 C 1075.6 1319.6 1079.85 1302.13 1086.31 1278.93 z" fill="rgb(73,154,163)" transform="translate(0,0)"></path>
<path d="M 1131.31 1380.74 C 1134.22 1373.54 1136.4 1369.09 1140.05 1362.22 C 1145.06 1380.68 1150.21 1399.52 1158.18 1417.03 C 1178.46 1461.61 1211.37 1499.68 1247.08 1532.68 C 1255.78 1540.73 1276.23 1555.75 1281.53 1561.19 L 1319.01 1585.57 C 1310.03 1586.01 1287.98 1570.6 1279.32 1565.11 C 1234.58 1535.58 1197.61 1497.6 1165.77 1454.64 C 1153.28 1437.8 1145.12 1421.06 1139.01 1401.05 C 1137.36 1395.65 1135.03 1384 1131.31 1380.74 z" fill="rgb(201,76,103)" transform="translate(0,0)"></path>
<path d="M 1140.73 1345.31 C 1138.09 1337.81 1140.64 1318.82 1141.7 1310.8 C 1148.82 1338.4 1156.19 1350.46 1168.62 1375.17 C 1159.08 1370.62 1161.63 1364.72 1149.05 1360.92 C 1148.71 1358.23 1143.77 1346.31 1140.73 1345.31 z" fill="rgb(201,76,103)" transform="translate(0,0)"></path>
<path d="M 1588.75 1625.92 C 1594.33 1618.73 1592.72 1624.11 1591.41 1628.26 L 1588.75 1625.92 z" fill="rgb(201,76,103)" transform="translate(0,0)"></path>
<path d="M 378.172 1630.6 L 379.611 1633.05 C 380.944 1636.24 384.621 1643.2 387.021 1645.29 C 399.899 1664.27 420.513 1677.83 440.892 1687.55 C 427.447 1688.63 415.419 1688.74 403.859 1696.59 C 412.417 1708.8 436.518 1713.31 450.503 1717.35 C 477.653 1725.18 505.499 1731.42 533.351 1736.17 C 578.721 1744.51 622.54 1746.78 668.591 1747.42 C 690.812 1747.72 710.61 1748.76 733.002 1746.3 C 741.772 1752.7 746.96 1755.84 757.033 1759.9 C 795.255 1774.45 827.044 1779.18 868.025 1773.04 C 881.609 1771.01 898.401 1767.01 911.836 1768.23 C 930.736 1769.93 951.325 1778.15 969.565 1783.97 C 1029 1802.94 1079.34 1807.28 1137.69 1781.26 C 1142.44 1779.14 1147.16 1776.94 1151.83 1774.67 C 1154.24 1766.41 1160.46 1761.7 1168.73 1759.68 C 1187.38 1762.6 1205.75 1767.79 1224.39 1771.37 C 1237.52 1773.96 1250.62 1776.69 1263.7 1779.56 C 1332.09 1792.28 1374.7 1790.01 1440.64 1765.82 C 1457.95 1757.95 1472.55 1749.32 1489.14 1740.6 C 1490.81 1741.17 1491.24 1741.48 1492.78 1741.54 L 1512.99 1744.15 C 1522.9 1745.52 1532.94 1746.25 1542.93 1747.08 L 1543.19 1749.07 C 1572.93 1749.24 1581.93 1747.07 1609.85 1739.35 C 1620.76 1733.43 1635.69 1727.31 1643.77 1717.24 C 1645.01 1715.54 1653.07 1709.06 1655.68 1705.69 C 1667.53 1690.46 1674.43 1672.59 1678.8 1654.16 C 1719.66 1659.58 1827.91 1678.6 1859.2 1699.6 C 1864.73 1703.31 1870.85 1708.51 1871.93 1715.49 C 1872.51 1719.21 1871.2 1722.68 1868.92 1725.58 C 1849.71 1750.01 1761.03 1754.95 1729.38 1759.53 C 1735.79 1761.91 1745.12 1765.29 1749.98 1769.87 C 1783.43 1801.34 1718.91 1812.95 1700.22 1816.31 C 1644 1826.32 1586.84 1829.95 1529.81 1827.12 C 1478.26 1824.91 1429.4 1818.4 1377.54 1824.09 C 1349.85 1827.13 1321.38 1828.18 1295.29 1839.61 C 1283.36 1844.84 1280.63 1845.31 1282.95 1858.38 C 1223.92 1898.46 985.342 1894.23 921.262 1864.72 C 918.416 1842.71 915.208 1841.82 893.492 1837.13 C 818.098 1820.86 743.144 1833.7 667.448 1836.83 C 588.796 1840.18 510.025 1834.13 432.807 1818.8 C 409.547 1814.07 387.439 1808.61 365.363 1799.66 C 334.787 1787.28 336.998 1772.7 354.052 1748.5 C 336.848 1736.71 311.14 1736.63 290.858 1733.57 C 263.275 1729.41 204.782 1718.89 182.748 1703.14 C 177.327 1699.27 171.887 1693.57 171.091 1686.64 C 170.532 1681.76 172.582 1677.29 175.557 1673.54 C 202.945 1639.01 332.753 1636.08 378.172 1630.6 z" fill="rgb(86,193,200)" transform="translate(0,0)"></path>
<path d="M 1609.85 1739.35 C 1600.58 1750.42 1562.86 1762.46 1548.4 1767.2 C 1464.97 1794.8 1377.05 1806.32 1289.33 1801.14 C 1267.44 1799.59 1245.56 1797.91 1223.69 1796.11 C 1208.93 1794.95 1193.77 1793.24 1178.97 1794.28 C 1165.14 1795.26 1151.59 1803.58 1138.34 1807.5 C 1116.66 1813.91 1092.43 1816.59 1069.81 1817.23 C 1033.64 1818.26 996.844 1811.83 961.928 1802.86 C 939.361 1797.06 916.682 1790.06 893.557 1786.87 C 862.192 1782.53 830.11 1783.31 798.561 1780.53 C 760.067 1777.13 722.237 1768.85 683.853 1764.48 C 632.688 1758.65 437.324 1748.84 403.332 1714.92 C 400.78 1712.37 397.403 1707.75 398.033 1703.88 C 398.528 1700.83 401.374 1698.06 403.859 1696.59 C 412.417 1708.8 436.518 1713.31 450.503 1717.35 C 477.653 1725.18 505.499 1731.42 533.351 1736.17 C 578.721 1744.51 622.54 1746.78 668.591 1747.42 C 690.812 1747.72 710.61 1748.76 733.002 1746.3 C 741.772 1752.7 746.96 1755.84 757.033 1759.9 C 795.255 1774.45 827.044 1779.18 868.025 1773.04 C 881.609 1771.01 898.401 1767.01 911.836 1768.23 C 930.736 1769.93 951.325 1778.15 969.565 1783.97 C 1029 1802.94 1079.34 1807.28 1137.69 1781.26 C 1142.44 1779.14 1147.16 1776.94 1151.83 1774.67 C 1154.24 1766.41 1160.46 1761.7 1168.73 1759.68 C 1187.38 1762.6 1205.75 1767.79 1224.39 1771.37 C 1237.52 1773.96 1250.62 1776.69 1263.7 1779.56 C 1332.09 1792.28 1374.7 1790.01 1440.64 1765.82 C 1457.95 1757.95 1472.55 1749.32 1489.14 1740.6 C 1490.81 1741.17 1491.24 1741.48 1492.78 1741.54 L 1512.99 1744.15 C 1522.9 1745.52 1532.94 1746.25 1542.93 1747.08 L 1543.19 1749.07 C 1572.93 1749.24 1581.93 1747.07 1609.85 1739.35 z" fill="rgb(73,154,163)" transform="translate(0,0)"></path>
<path d="M 1489.14 1740.6 C 1490.81 1741.17 1491.24 1741.48 1492.78 1741.54 L 1512.99 1744.15 C 1522.9 1745.52 1532.94 1746.25 1542.93 1747.08 L 1543.19 1749.07 C 1524.84 1747.65 1526.16 1750.01 1509.48 1756.89 C 1501.89 1760.06 1494.04 1762.54 1486.02 1764.3 C 1473.56 1767.09 1456.05 1769.58 1443.42 1768.86 C 1441.43 1768 1441.55 1767.79 1440.64 1765.82 C 1457.95 1757.95 1472.55 1749.32 1489.14 1740.6 z" fill="rgb(15,32,43)" transform="translate(0,0)"></path>
<path d="M 1151.83 1774.67 C 1154.24 1766.41 1160.46 1761.7 1168.73 1759.68 C 1187.38 1762.6 1205.75 1767.79 1224.39 1771.37 C 1237.52 1773.96 1250.62 1776.69 1263.7 1779.56 L 1259.35 1781.44 C 1229.58 1774.77 1180.46 1764.89 1151.83 1774.67 z" fill="url(#Gradient1)" transform="translate(0,0)"></path>
<path d="M 1440.64 1765.82 C 1441.55 1767.79 1441.43 1768 1443.42 1768.86 C 1432.52 1769.92 1408.49 1779.82 1396.14 1782.71 C 1349.67 1793.59 1305.57 1790.91 1259.35 1781.44 L 1263.7 1779.56 C 1332.09 1792.28 1374.7 1790.01 1440.64 1765.82 z" fill="rgb(6,7,7)" transform="translate(0,0)"></path>
<path d="M 578.113 1781.36 C 585.662 1780.39 592.574 1785.71 593.553 1793.26 C 594.533 1800.81 589.21 1807.72 581.662 1808.71 C 574.108 1809.69 567.188 1804.36 566.208 1796.81 C 565.227 1789.25 570.559 1782.34 578.113 1781.36 z" fill="rgb(140,219,217)" transform="translate(0,0)"></path>
<path d="M 676.764 1783.23 C 683.78 1780.43 691.741 1783.87 694.492 1790.91 C 697.243 1797.95 693.731 1805.88 686.669 1808.58 C 679.689 1811.24 671.868 1807.78 669.148 1800.82 C 666.429 1793.86 669.828 1786.01 676.764 1783.23 z" fill="rgb(140,219,217)" transform="translate(0,0)"></path>
<path d="M 1035.44 1828.28 C 1042.6 1826 1050.24 1829.97 1052.49 1837.13 C 1054.74 1844.29 1050.74 1851.92 1043.57 1854.14 C 1036.44 1856.35 1028.86 1852.38 1026.63 1845.26 C 1024.39 1838.13 1028.33 1830.54 1035.44 1828.28 z" fill="rgb(140,219,217)" transform="translate(0,0)"></path>
<path d="M 1190.33 1808.7 C 1195.12 1807.6 1200.14 1809.2 1203.41 1812.88 C 1206.68 1816.55 1207.69 1821.72 1206.04 1826.36 C 1204.39 1830.99 1200.35 1834.36 1195.49 1835.15 C 1188.31 1836.31 1181.5 1831.56 1180.11 1824.42 C 1178.71 1817.28 1183.24 1810.33 1190.33 1808.7 z" fill="rgb(140,219,217)" transform="translate(0,0)"></path>
<path d="M 488.546 1761.53 C 495.255 1759.07 502.682 1762.52 505.143 1769.22 C 507.603 1775.93 504.166 1783.36 497.462 1785.83 C 490.749 1788.3 483.305 1784.85 480.842 1778.14 C 478.378 1771.42 481.829 1763.98 488.546 1761.53 z" fill="rgb(140,219,217)" transform="translate(0,0)"></path>
<path d="M 1595.21 1784.06 C 1601.98 1783.74 1607.8 1788.81 1608.43 1795.56 C 1609.06 1802.31 1604.27 1808.36 1597.55 1809.3 C 1592.92 1809.95 1588.31 1808 1585.55 1804.23 C 1582.8 1800.45 1582.33 1795.47 1584.35 1791.26 C 1586.37 1787.04 1590.54 1784.28 1595.21 1784.06 z" fill="rgb(140,219,217)" transform="translate(0,0)"></path>
<path d="M 1124.05 1398.73 C 1124.19 1460.15 1153.73 1502.28 1193.3 1546.78 L 1191.87 1549.11 L 1188.75 1546.43 L 1186.08 1547.11 C 1195.44 1564.89 1200.86 1576.25 1207.22 1595.68 C 1212.24 1621.35 1213.21 1628.01 1212.8 1653.96 C 1212.84 1660.26 1211.34 1659.3 1214.57 1664.27 C 1220.33 1673.13 1225.08 1679.91 1232.71 1687.29 L 1233.73 1689.42 C 1234.38 1713.41 1234.45 1749.52 1224.39 1771.37 C 1205.75 1767.79 1187.38 1762.6 1168.73 1759.68 C 1160.46 1761.7 1154.24 1766.41 1151.83 1774.67 C 1147.16 1776.94 1142.44 1779.14 1137.69 1781.26 C 1079.34 1807.28 1029 1802.94 969.565 1783.97 C 951.325 1778.15 930.736 1769.93 911.836 1768.23 C 898.401 1767.01 881.609 1771.01 868.025 1773.04 C 827.044 1779.18 795.255 1774.45 757.033 1759.9 L 758.022 1757.63 C 753.522 1755.69 749.156 1753.44 744.955 1750.91 C 736.368 1745.65 727.703 1736.37 725.655 1726.32 C 721.812 1707.45 747.959 1711.21 759.021 1710.95 C 767.293 1710.69 775.549 1710.04 783.761 1709 C 812.188 1705.48 844.179 1695.82 869.183 1681.72 C 895.648 1668.95 914.889 1638.72 936.956 1622.19 C 975.316 1593.45 1010.11 1572.4 1038.93 1532.16 C 1054.54 1510.38 1061.38 1488.32 1074.23 1465.59 C 1086.9 1443.21 1107.93 1419.48 1124.05 1398.73 z" fill="rgb(210,177,142)" transform="translate(0,0)"></path>
<path d="M 1124.05 1398.73 C 1124.19 1460.15 1153.73 1502.28 1193.3 1546.78 L 1191.87 1549.11 L 1188.75 1546.43 L 1186.08 1547.11 C 1184.41 1545.75 1172.2 1527.1 1169.55 1523.73 C 1165.96 1519.17 1163.82 1517 1159.38 1512.67 C 1156.77 1509.63 1156.9 1509.73 1153.34 1508.34 C 1140.51 1495.67 1124.6 1476.32 1105.47 1475.87 C 1089.85 1475.51 1082.91 1487.4 1077.29 1499.96 C 1068.65 1519.3 1060.89 1542.81 1049.13 1560.35 C 1006.9 1623.34 938.883 1663.85 877.761 1706.14 C 865.556 1714.57 855.138 1720.33 839.661 1724.81 C 817.466 1731.05 792.93 1730.06 771.423 1737.98 C 769.353 1738.74 769.104 1741.89 769.501 1743.65 C 772.62 1757.43 793.186 1762.24 800.98 1769.31 C 788.726 1768.83 769.451 1762.02 758.022 1757.63 C 753.522 1755.69 749.156 1753.44 744.955 1750.91 C 736.368 1745.65 727.703 1736.37 725.655 1726.32 C 721.812 1707.45 747.959 1711.21 759.021 1710.95 C 767.293 1710.69 775.549 1710.04 783.761 1709 C 812.188 1705.48 844.179 1695.82 869.183 1681.72 C 895.648 1668.95 914.889 1638.72 936.956 1622.19 C 975.316 1593.45 1010.11 1572.4 1038.93 1532.16 C 1054.54 1510.38 1061.38 1488.32 1074.23 1465.59 C 1086.9 1443.21 1107.93 1419.48 1124.05 1398.73 z" fill="rgb(166,133,104)" transform="translate(0,0)"></path>
<path d="M 1212.8 1653.96 C 1212.84 1660.26 1211.34 1659.3 1214.57 1664.27 C 1220.33 1673.13 1225.08 1679.91 1232.71 1687.29 L 1233.73 1689.42 C 1234.38 1713.41 1234.45 1749.52 1224.39 1771.37 C 1205.75 1767.79 1187.38 1762.6 1168.73 1759.68 C 1200.32 1731.18 1208.72 1694.26 1212.8 1653.96 z" fill="rgb(201,76,103)" transform="translate(0,0)"></path>
<path d="M 1159.38 1512.67 C 1163.82 1517 1165.96 1519.17 1169.55 1523.73 C 1172.2 1527.1 1184.41 1545.75 1186.08 1547.11 C 1195.44 1564.89 1200.86 1576.25 1207.22 1595.68 C 1212.24 1621.35 1213.21 1628.01 1212.8 1653.96 C 1208.72 1694.26 1200.32 1731.18 1168.73 1759.68 C 1160.46 1761.7 1154.24 1766.41 1151.83 1774.67 C 1147.16 1776.94 1142.44 1779.14 1137.69 1781.26 C 1079.34 1807.28 1029 1802.94 969.565 1783.97 C 951.325 1778.15 930.736 1769.93 911.836 1768.23 C 898.401 1767.01 881.609 1771.01 868.025 1773.04 C 827.044 1779.18 795.255 1774.45 757.033 1759.9 L 758.022 1757.63 C 769.451 1762.02 788.726 1768.83 800.98 1769.31 C 836.13 1781.82 886.583 1762.71 921.689 1765.57 C 939.372 1767.01 962.435 1777.3 979.461 1783.34 C 999.063 1790.46 1019.57 1794.81 1040.38 1796.24 C 1130.11 1802.61 1202.02 1745.97 1207.7 1654.59 C 1210.68 1603.16 1193.06 1552.66 1158.73 1514.24 L 1159.38 1512.67 z" fill="rgb(6,7,7)" transform="translate(0,0)"></path>
<path d="M 1153.34 1508.34 C 1156.9 1509.73 1156.77 1509.63 1159.38 1512.67 L 1158.73 1514.24 C 1156.7 1512.23 1155.2 1510.5 1153.34 1508.34 z" fill="rgb(64,56,51)" transform="translate(0,0)"></path>
<path d="M 532.303 1521.45 C 533.268 1521.85 534.236 1522.23 535.205 1522.61 C 679.87 1579.29 869.525 1515.5 944.285 1377.75 C 952.578 1362.47 959.278 1345.64 965.575 1329.41 C 974.233 1342.11 979.418 1346.65 992.67 1354.55 C 987.965 1367.81 984.27 1386.19 980.781 1400.34 L 980.432 1401.43 C 973.573 1406.52 966.056 1413.19 959.153 1418.67 C 944.363 1430.41 925.813 1443.64 912.624 1456.93 C 884.247 1485.52 869.723 1513.68 831.61 1532.6 C 796.237 1550.16 759.976 1566.37 720.781 1573.73 C 707.322 1576.25 693.666 1577.57 679.973 1577.68 C 650.131 1577.65 638.614 1574.59 612.737 1594.94 C 604.346 1601.54 596.276 1608.54 589.025 1616.72 L 586.831 1618.46 C 551.914 1618.51 554.134 1599.81 528.343 1589.72 C 509.864 1582.5 484.812 1594.89 466.972 1574.37 C 493.188 1562.86 516.738 1545.8 532.303 1521.45 z" fill="rgb(201,76,103)" transform="translate(0,0)"></path>
<path d="M 378.172 1630.6 C 371.845 1621.32 363.846 1593.96 378.739 1589.54 C 381.602 1588.69 388.04 1588.73 391.176 1588.87 C 416.988 1590.07 443.056 1583.74 466.972 1574.37 C 484.812 1594.89 509.864 1582.5 528.343 1589.72 C 554.134 1599.81 551.914 1618.51 586.831 1618.46 C 581.413 1625.82 577.131 1632.33 569.82 1637.94 C 549.737 1647.09 559.791 1666.86 556.66 1668.76 C 536.525 1681.01 536.93 1702.66 559.85 1710.05 L 561.946 1713.35 C 505.078 1708.05 431.913 1687.42 390.857 1646.55 C 389.569 1646.07 388.328 1645.7 387.021 1645.29 C 384.621 1643.2 380.944 1636.24 379.611 1633.05 L 378.172 1630.6 z" fill="rgb(210,177,142)" transform="translate(0,0)"></path>
<path d="M 379.611 1633.05 C 383.358 1637.11 386.878 1642.09 390.857 1646.55 C 389.569 1646.07 388.328 1645.7 387.021 1645.29 C 384.621 1643.2 380.944 1636.24 379.611 1633.05 z" fill="rgb(6,7,7)" transform="translate(0,0)"></path>
<path d="M 470.079 1608.1 C 480.864 1607.62 483.509 1608.25 493.046 1613.8 C 509.815 1623.55 513.282 1647.45 490.502 1650.83 C 489.112 1651.04 487.849 1651.04 486.329 1651.27 C 481.637 1665.69 483.456 1672.32 466.943 1677.02 C 450.911 1677.22 440.867 1670.9 433.117 1656.44 C 430.461 1651.48 429.706 1645.13 431.591 1639.74 C 436.105 1626.82 447.599 1626.73 459.057 1627.41 C 460.264 1626.73 460.213 1621.61 460.328 1621 C 461.724 1613.62 464.444 1611.93 470.079 1608.1 z" fill="rgb(255,254,253)" transform="translate(0,0)"></path>
<path d="M 1124.61 1392.79 L 1125.86 1395.6 C 1125.01 1397.5 1125.32 1397.13 1124.05 1398.73 C 1107.93 1419.48 1086.9 1443.21 1074.23 1465.59 C 1061.38 1488.32 1054.54 1510.38 1038.93 1532.16 C 1010.11 1572.4 975.316 1593.45 936.956 1622.19 C 914.889 1638.72 895.648 1668.95 869.183 1681.72 C 844.179 1695.82 812.188 1705.48 783.761 1709 C 775.549 1710.04 767.293 1710.69 759.021 1710.95 C 747.959 1711.21 721.812 1707.45 725.655 1726.32 C 727.703 1736.37 736.368 1745.65 744.955 1750.91 C 749.156 1753.44 753.522 1755.69 758.022 1757.63 L 757.033 1759.9 C 746.96 1755.84 741.772 1752.7 733.002 1746.3 C 710.61 1748.76 690.812 1747.72 668.591 1747.42 C 622.54 1746.78 578.721 1744.51 533.351 1736.17 C 505.499 1731.42 477.653 1725.18 450.503 1717.35 C 436.518 1713.31 412.417 1708.8 403.859 1696.59 C 415.419 1688.74 427.447 1688.63 440.892 1687.55 C 420.513 1677.83 399.899 1664.27 387.021 1645.29 C 388.328 1645.7 389.569 1646.07 390.857 1646.55 C 431.913 1687.42 505.078 1708.05 561.946 1713.35 C 597.64 1718.7 639.229 1716.24 675.007 1710.95 C 687.257 1710.05 704.75 1704.12 716.49 1703.7 C 766.995 1701.88 815.834 1702.37 859.891 1672.87 C 880.313 1659.19 887.543 1640.2 903.583 1622.79 C 913.258 1612.29 932.858 1602.99 945.802 1596.16 C 970.254 1582.12 989.308 1570.97 1011.27 1552.71 L 1011.87 1552.22 C 1024.89 1539.53 1039.51 1522.45 1045.74 1505.19 C 1056.72 1474.78 1050.14 1465.43 1074.5 1441.78 C 1088.03 1430.34 1102.22 1421.05 1113.56 1407.13 C 1117.75 1402.75 1121.07 1397.73 1124.61 1392.79 z" fill="rgb(15,32,43)" transform="translate(0,0)"></path>
<path d="M 589.025 1616.72 C 596.276 1608.54 604.346 1601.54 612.737 1594.94 C 638.614 1574.59 650.131 1577.65 679.973 1577.68 C 693.666 1577.57 707.322 1576.25 720.781 1573.73 C 759.976 1566.37 796.237 1550.16 831.61 1532.6 C 869.723 1513.68 884.247 1485.52 912.624 1456.93 C 925.813 1443.64 944.363 1430.41 959.153 1418.67 C 966.056 1413.19 973.573 1406.52 980.432 1401.43 C 976.611 1424.26 959.868 1453.62 940.418 1466.98 C 925.493 1477.22 908.788 1483.3 895.979 1495.95 C 881.655 1510.09 876.111 1537.42 858.732 1548.38 C 837.171 1561.98 813.658 1554.55 786.521 1562.53 C 741.789 1575.68 739.068 1626.37 692.305 1619.06 C 678.904 1616.96 669.292 1609.25 657.926 1603.17 C 633.989 1590.37 611.51 1611.85 589.025 1616.72 z" fill="rgb(234,121,138)" transform="translate(0,0)"></path>
<path d="M 926.021 1556.37 C 913.558 1537.08 918.329 1533.99 933.917 1519.84 C 955.426 1500.32 979.777 1486.35 990.752 1524.84 C 1010.38 1532.82 1011.74 1533.28 1011.87 1552.22 L 1011.27 1552.71 C 989.308 1570.97 970.254 1582.12 945.802 1596.16 C 923.546 1592.3 915.73 1579.07 925.229 1558.15 L 926.021 1556.37 z" fill="rgb(255,254,253)" transform="translate(0,0)"></path>
<path d="M 569.82 1637.94 C 594.102 1638.5 644.979 1630.65 624.683 1674.12 C 629.783 1712 606.199 1701.46 577.006 1709.33 C 571.001 1710.95 566.048 1710.64 559.85 1710.05 C 536.93 1702.66 536.525 1681.01 556.66 1668.76 C 559.791 1666.86 549.737 1647.09 569.82 1637.94 z" fill="rgb(255,254,253)" transform="translate(0,0)"></path>
<path d="M 795.558 1598.22 C 822.769 1594.92 831.878 1609.68 819.905 1633.7 C 826.367 1639.04 831.169 1643.11 833.432 1651.77 C 834.914 1657.26 834.091 1663.12 831.153 1667.99 C 824.203 1679.37 810.45 1681.45 798.25 1681.26 C 787.966 1681.08 767.184 1682.93 759.406 1677.57 C 755.976 1675.24 753.651 1671.6 752.971 1667.51 C 750.734 1653.95 753.208 1649.92 762.484 1640.86 C 761.428 1632.96 758.608 1620.14 763.409 1613.39 C 769.682 1604.58 785.411 1600.1 795.558 1598.22 z" fill="rgb(255,254,253)" transform="translate(0,0)"></path>
<path d="M 1227.46 363.005 C 1254.41 354.222 1333.78 345.895 1361.1 350.918 C 1377.97 351.142 1394.73 354.608 1411.34 356.852 C 1437.41 360.831 1467.58 370.02 1492.2 379.372 L 1492.38 377.525 L 1493.27 377.923 C 1501.28 381.571 1496.91 381.089 1504.62 380.14 C 1507.48 383.019 1510.65 385.613 1513.66 388.4 C 1515.57 389.768 1522.23 394.779 1523.87 395.684 C 1535.98 400.44 1586.73 438.59 1595.96 448.41 C 1604.8 456.398 1613.56 464.341 1622.41 472.507 C 1653.79 501.445 1681.57 536.79 1703.91 573.151 C 1712.4 586.96 1718.95 603.041 1726.8 617.304 C 1738.38 622.39 1758.28 630.813 1765.05 642.122 C 1800.12 668.427 1823 719.639 1829.32 762.507 C 1836.82 813.439 1825.13 866.357 1794.41 908.078 C 1790.7 913.117 1775.84 932.258 1771.06 933.435 C 1765.84 934.654 1754.95 940.12 1749.58 942.386 C 1672.01 975.108 1577.12 933.246 1534.23 864.374 C 1519.17 840.186 1505.13 808.659 1504.87 779.713 C 1504.87 730 1524.5 682.297 1559.48 646.978 C 1570.1 636.211 1603.57 609.846 1618.34 609.748 C 1634.8 605.806 1633.63 602.975 1655.21 600.463 C 1628.38 561.571 1565.58 518.943 1521.61 501.156 C 1404.33 453.705 1275.7 475.761 1173.99 548.065 C 1101.55 599.557 1060.81 648.167 1021.8 726.952 C 1016.73 726.611 1008.55 728.494 1003.46 729.48 C 956.453 738.58 915.777 711.171 904.529 664.996 C 903.269 659.828 900.739 642.507 898.409 638.822 C 916.158 596.411 957.063 535.449 988.177 501.997 C 994.656 493.604 1010.73 478.908 1018.98 471.459 C 1023.47 467.109 1031.07 461.544 1036.22 457.548 C 1044.06 449.736 1064.8 435.402 1074.1 429.268 C 1085.57 419.911 1144.16 389.756 1157.97 385.24 C 1173.8 378.08 1210.55 366.203 1227.46 363.005 z" fill="rgb(230,211,191)" transform="translate(0,0)"></path>
<path d="M 988.177 501.997 C 994.656 493.604 1010.73 478.908 1018.98 471.459 C 1020.94 476.804 1023.03 485.012 1023.99 490.609 C 1034.16 549.66 1067.08 579.406 1128.01 570.69 C 1101.45 592.822 1082.73 613.374 1045.11 608.966 C 991.973 602.738 982.769 554.028 987.225 510.483 C 987.517 507.652 987.835 504.823 988.177 501.997 z" fill="rgb(255,254,253)" transform="translate(0,0)"></path>
<path d="M 1157.97 385.24 C 1173.8 378.08 1210.55 366.203 1227.46 363.005 C 1235.32 367.358 1247.28 368.426 1255.88 372.174 C 1279.56 382.497 1304.32 397.423 1312.97 423.311 C 1318.85 440.948 1313.2 465.286 1293.03 470.38 C 1285.38 472.259 1274.41 471.235 1267.46 466.662 C 1248.26 451.493 1246.56 428.02 1224.03 411.634 C 1208.98 400.686 1200.1 396.693 1181.81 391.263 C 1177.55 389.997 1159.89 386.624 1157.97 385.24 z" fill="rgb(255,254,253)" transform="translate(0,0)"></path>
<path d="M 1074.1 429.268 C 1075.58 432.87 1073.76 445.101 1073.14 449.722 C 1069.87 473.799 1082.23 497.238 1102.08 510.539 C 1116.89 520.452 1135.09 523.945 1152.53 520.22 C 1153.18 520.066 1153.84 519.912 1154.5 519.758 C 1132.36 580.876 1064.12 566.56 1042.11 515.905 C 1033.25 495.512 1035.46 478.688 1036.22 457.548 C 1044.06 449.736 1064.8 435.402 1074.1 429.268 z" fill="rgb(255,254,253)" transform="translate(0,0)"></path>
<path d="M 1523.87 395.684 C 1535.98 400.44 1586.73 438.59 1595.96 448.41 C 1594.12 467.323 1592.9 500.847 1569.68 505.494 C 1552.9 508.852 1539.63 503.286 1531.04 488.77 C 1528.04 442.292 1566.83 457.312 1523.87 395.684 z" fill="rgb(255,254,253)" transform="translate(0,0)"></path>
<path d="M 1361.1 350.918 C 1377.97 351.142 1394.73 354.608 1411.34 356.852 C 1417.41 366.007 1429.8 374.349 1437.07 384.427 C 1444.95 393.205 1458.89 419.733 1450.81 431.399 C 1432.41 457.95 1405.23 447.298 1403.09 416.496 C 1401.72 396.888 1388.68 374.874 1374.57 362.83 C 1371.86 360.512 1361.65 353.083 1361.1 350.918 z" fill="rgb(255,254,253)" transform="translate(0,0)"></path>
<path d="M 1765.05 642.122 C 1763.87 647.802 1758.73 655.935 1754.01 652.613 C 1736.79 640.489 1720.29 632.595 1698.96 628.822 C 1677.33 625.212 1655.18 626.455 1634.09 632.464 C 1629.28 633.805 1609.25 643.797 1607.51 643.161 C 1596.82 639.263 1596.73 629.725 1608.02 624.069 C 1647.56 604.265 1685.37 605.29 1726.8 617.304 C 1738.38 622.39 1758.28 630.813 1765.05 642.122 z" fill="rgb(6,7,7)" transform="translate(0,0)"></path>
<path d="M 1492.38 377.525 L 1493.27 377.923 C 1501.28 381.571 1496.91 381.089 1504.62 380.14 C 1507.48 383.019 1510.65 385.613 1513.66 388.4 C 1508.76 388.022 1496.15 382.093 1492.2 379.372 L 1492.38 377.525 z" fill="rgb(201,76,103)" transform="translate(0,0)"></path>
<path d="M 1691.08 694.247 C 1759.24 684.781 1798.58 860.728 1724.95 889.729 C 1659.01 901.923 1617.41 724.319 1691.08 694.247 z" fill="rgb(6,7,7)" transform="translate(0,0)"></path>
<path d="M 1709.11 709.009 C 1722.61 708.32 1728.21 715.707 1735.56 726.695 C 1745.78 741.986 1752.26 773.417 1733.09 784.475 C 1704.98 787.313 1694.57 748.597 1697.23 726.509 C 1698.22 718.231 1702.58 713.409 1709.11 709.009 z" fill="rgb(255,254,253)" transform="translate(0,0)"></path>
<path d="M 1314.24 1348.91 C 1322.34 1302.74 1332.12 1257.08 1337.74 1210.53 C 1339.23 1198.24 1354.99 1090.92 1356.2 1088.78 C 1357.64 1092.01 1356.93 1092.49 1356.56 1096.59 C 1355.84 1101.99 1352.89 1122.08 1353.26 1126.51 C 1352.86 1131.93 1352.33 1141.53 1349.98 1146.25 C 1381.27 1154.75 1409.43 1154.61 1441.24 1147.68 C 1456.23 1144.3 1470.9 1139.59 1485.06 1133.59 C 1492.6 1130.48 1526.93 1112.06 1530.57 1113.12 L 1530.37 1115.73 C 1525.94 1181.23 1538.41 1252.26 1560.83 1313.83 C 1568.36 1334.54 1578.31 1355.05 1586.71 1375.47 C 1596.09 1368.74 1614.76 1357.71 1620.9 1347.8 C 1630.32 1338.29 1635.74 1322.04 1641.43 1317.84 C 1650.88 1296.1 1638.97 1260.05 1626.87 1241.31 L 1627.6 1235.65 L 1624.64 1235.34 L 1626.23 1228.29 L 1626.89 1229.09 C 1634.96 1238.72 1643.97 1247.17 1652.08 1257.05 C 1672.56 1282 1690.43 1320.67 1681.61 1353.65 C 1679.8 1360.94 1673.66 1372.22 1672.94 1376.96 C 1669.99 1396.44 1669.23 1413.62 1662.28 1432.49 C 1659.41 1440.31 1646.67 1459.84 1647.3 1465.05 L 1644.79 1466.04 C 1646.23 1462.51 1646.1 1462.23 1645.24 1458.5 C 1609.93 1500.33 1545.92 1525.35 1492.45 1529.24 C 1479.9 1530.15 1451.81 1531.38 1439.59 1529.14 C 1429.4 1529.25 1418.98 1527.94 1408.92 1526.57 C 1404.23 1525.71 1399.44 1525.07 1394.7 1525.6 C 1373.16 1523.27 1325.39 1505.22 1305.74 1496.28 C 1261.59 1476.2 1222.57 1451.33 1189.08 1415.98 C 1170.32 1396.18 1159.37 1387.97 1149.05 1360.92 C 1161.63 1364.72 1159.08 1370.62 1168.62 1375.17 C 1174.52 1382.58 1180.91 1390.87 1187.74 1397.42 C 1187.25 1393.1 1173.93 1377.37 1170.83 1372.05 C 1144.92 1327.56 1129.59 1266.97 1159.25 1219.81 C 1163.77 1210.53 1169.76 1203.92 1176.83 1196.58 L 1177.73 1196.59 C 1181 1196.59 1183.21 1196.46 1186.5 1196.84 C 1203.56 1198.86 1204.06 1201.42 1208.05 1215.68 C 1193.5 1251.17 1203.25 1283.16 1225.72 1313.07 L 1228.03 1311.46 C 1245.17 1338.4 1280.25 1361.86 1308.02 1376.53 C 1309.79 1368.32 1311.94 1356.73 1314.24 1348.91 z" fill="rgb(234,121,138)" transform="translate(0,0)"></path>
<path d="M 1349.98 1146.25 C 1381.27 1154.75 1409.43 1154.61 1441.24 1147.68 C 1456.23 1144.3 1470.9 1139.59 1485.06 1133.59 C 1492.6 1130.48 1526.93 1112.06 1530.57 1113.12 L 1530.37 1115.73 C 1525.94 1181.23 1538.41 1252.26 1560.83 1313.83 C 1568.36 1334.54 1578.31 1355.05 1586.71 1375.47 C 1579.77 1380.31 1562.76 1387.82 1554.75 1390.7 C 1495.91 1411.86 1425.53 1413.77 1364.95 1398.41 C 1346.02 1393.61 1330.31 1387.02 1312.91 1379.12 C 1323.09 1331.14 1331.43 1276.52 1338.33 1227.96 C 1341.66 1209.63 1348.71 1164.12 1349.98 1146.25 z" fill="rgb(210,177,142)" transform="translate(0,0)"></path>
<path d="M 1349.98 1146.25 C 1381.27 1154.75 1409.43 1154.61 1441.24 1147.68 C 1456.23 1144.3 1470.9 1139.59 1485.06 1133.59 C 1492.6 1130.48 1526.93 1112.06 1530.57 1113.12 L 1530.37 1115.73 C 1516.12 1128.72 1501.7 1143.27 1486.64 1155.25 C 1444.8 1188.53 1391.4 1219.2 1338.33 1227.96 C 1341.66 1209.63 1348.71 1164.12 1349.98 1146.25 z" fill="rgb(201,76,103)" transform="translate(0,0)"></path>
<path d="M 1187.74 1397.42 C 1187.25 1393.1 1173.93 1377.37 1170.83 1372.05 C 1144.92 1327.56 1129.59 1266.97 1159.25 1219.81 C 1159.35 1220.46 1159.44 1221.11 1159.54 1221.76 C 1146.17 1318.55 1196.04 1383.77 1267.38 1447.73 C 1240.97 1437.33 1207.67 1417.51 1187.74 1397.42 z" fill="rgb(201,76,103)" transform="translate(0,0)"></path>
<path d="M 1665.58 1390.02 L 1668.56 1392.21 C 1665 1416.34 1660.43 1438.29 1645.24 1458.5 C 1609.93 1500.33 1545.92 1525.35 1492.45 1529.24 C 1479.9 1530.15 1451.81 1531.38 1439.59 1529.14 C 1502.67 1523.65 1571.84 1507.67 1621.77 1464.58 C 1635.7 1452.56 1658.65 1417.63 1659.23 1399.04 C 1660.28 1397.01 1664.06 1392.11 1665.58 1390.02 z" fill="rgb(201,76,103)" transform="translate(0,0)"></path>
<path d="M 1314.24 1348.91 C 1322.34 1302.74 1332.12 1257.08 1337.74 1210.53 C 1339.23 1198.24 1354.99 1090.92 1356.2 1088.78 C 1357.64 1092.01 1356.93 1092.49 1356.56 1096.59 C 1355.84 1101.99 1352.89 1122.08 1353.26 1126.51 C 1352.86 1131.93 1352.33 1141.53 1349.98 1146.25 C 1348.71 1164.12 1341.66 1209.63 1338.33 1227.96 C 1331.43 1276.52 1323.09 1331.14 1312.91 1379.12 C 1330.31 1387.02 1346.02 1393.61 1364.95 1398.41 C 1425.53 1413.77 1495.91 1411.86 1554.75 1390.7 C 1562.76 1387.82 1579.77 1380.31 1586.71 1375.47 C 1596.09 1368.74 1614.76 1357.71 1620.9 1347.8 C 1630.32 1338.29 1635.74 1322.04 1641.43 1317.84 C 1637.19 1335.07 1617.9 1358.8 1603.38 1368.58 C 1495.51 1441.25 1302.87 1420.21 1225.72 1313.07 L 1228.03 1311.46 C 1245.17 1338.4 1280.25 1361.86 1308.02 1376.53 C 1309.79 1368.32 1311.94 1356.73 1314.24 1348.91 z" fill="rgb(6,7,7)" transform="translate(0,0)"></path>
<path d="M 1626.23 1228.29 L 1626.89 1229.09 C 1634.96 1238.72 1643.97 1247.17 1652.08 1257.05 C 1672.56 1282 1690.43 1320.67 1681.61 1353.65 C 1679.8 1360.94 1673.66 1372.22 1672.94 1376.96 C 1669.99 1396.44 1669.23 1413.62 1662.28 1432.49 C 1659.41 1440.31 1646.67 1459.84 1647.3 1465.05 L 1644.79 1466.04 C 1646.23 1462.51 1646.1 1462.23 1645.24 1458.5 C 1660.43 1438.29 1665 1416.34 1668.56 1392.21 L 1665.58 1390.02 C 1664.06 1392.11 1660.28 1397.01 1659.23 1399.04 C 1641.98 1420.05 1619.64 1434.53 1594.53 1444.39 C 1603.48 1437.97 1613.77 1431.89 1622.42 1425.3 C 1678.31 1382.71 1701.82 1332.82 1658.49 1270.58 C 1654.51 1264.86 1633.87 1236.87 1627.6 1235.65 L 1624.64 1235.34 L 1626.23 1228.29 z" fill="rgb(6,7,7)" transform="translate(0,0)"></path>
<path d="M 1665.58 1390.02 C 1668.81 1382.37 1669 1387.45 1668.56 1392.21 L 1665.58 1390.02 z" fill="rgb(178,61,85)" transform="translate(0,0)"></path>
<path d="M 1286.88 1428.88 C 1339.59 1462.59 1419.67 1478.19 1481.26 1471.8 C 1445.57 1487.74 1377.56 1474.98 1342.11 1461.39 C 1322.12 1453.88 1303.26 1443.68 1286.04 1431.06 L 1286.88 1428.88 z" fill="rgb(6,7,7)" transform="translate(0,0)"></path>
<path d="M 1286.04 1431.06 C 1285.13 1430.35 1277.59 1425.16 1278.77 1423.76 C 1280.24 1423.77 1285.38 1427.8 1286.88 1428.88 L 1286.04 1431.06 z" fill="rgb(35,15,17)" transform="translate(0,0)"></path>
<path d="M 1115.66 690.819 C 1116.67 647.475 1198.55 638.669 1229.6 640.105 C 1362.21 646.235 1460.08 786.361 1408.39 911.667 C 1406.89 915.317 1401.27 925.736 1400.81 927.902 C 1397.59 933.164 1395.72 936.376 1391.79 941.141 C 1355.71 975.049 1328.83 994.669 1278.13 998.559 C 1230.67 1001.95 1183.83 986.224 1148.03 954.89 C 1088.23 903.505 1063.41 818.004 1090.78 743.554 C 1093.99 734.817 1098.65 721.709 1104.76 714.573 C 1104.65 713.888 1104.56 713.202 1104.48 712.514 C 1103.48 703.582 1110.06 697.654 1115.66 690.819 z" fill="rgb(230,211,191)" transform="translate(0,0)"></path>
<path d="M 1115.66 690.819 C 1135.95 671.868 1160.48 658.048 1187.2 650.515 C 1194.83 648.424 1210.94 643.114 1209.15 657.955 C 1208.18 666.069 1186.63 669.191 1179.86 671.529 C 1152.91 680.832 1135.05 696.835 1116.35 717.519 C 1113.39 720.783 1107.68 717.056 1104.76 714.573 C 1104.65 713.888 1104.56 713.202 1104.48 712.514 C 1103.48 703.582 1110.06 697.654 1115.66 690.819 z" fill="rgb(6,7,7)" transform="translate(0,0)"></path>
<path d="M 1269.51 732.243 C 1340.5 729.834 1378.06 916.091 1303.37 936.165 C 1230.95 939.015 1194.33 754.008 1269.51 732.243 z" fill="rgb(6,7,7)" transform="translate(0,0)"></path>
<path d="M 1288.27 749.215 C 1320.6 756.389 1333.68 816.91 1307.65 826.436 L 1305.84 827.15 C 1278.81 823.721 1264.24 778.599 1276.22 756.602 C 1278.86 751.749 1283.37 750.393 1288.27 749.215 z" fill="rgb(255,254,253)" transform="translate(0,0)"></path>
<path d="M 1021.8 726.952 C 1060.81 648.167 1101.55 599.557 1173.99 548.065 C 1275.7 475.761 1404.33 453.705 1521.61 501.156 C 1565.58 518.943 1628.38 561.571 1655.21 600.463 C 1633.63 602.975 1634.8 605.806 1618.34 609.748 C 1482.92 486.13 1265.41 500.838 1140.46 631.437 C 1125.97 646.583 1117.04 662.686 1105.78 679.848 C 1099.38 689.606 1087.97 699.004 1081.56 709.104 C 1023.46 793.543 1036.09 908.579 1112.67 977.242 C 1150.53 1011.79 1200.67 1029.7 1251.85 1026.95 C 1277.38 1025.39 1297.13 1019.02 1319.89 1008.25 L 1320.85 1010.98 C 1284.07 1037.25 1248.28 1045.07 1203.36 1037.71 L 1202.08 1037.5 C 1209.38 1050.36 1215.68 1058.75 1227.36 1068.05 C 1228.26 1068.77 1237.85 1076.76 1238.15 1077.2 C 1238 1079.2 1237.47 1080.05 1238.98 1081.22 C 1237.41 1086.05 1241.18 1146.48 1241.12 1157.65 C 1240.22 1158.22 1239.25 1158.53 1238.24 1158.94 C 1238.05 1164.03 1237.59 1178.58 1238.44 1183.15 C 1234.58 1187.08 1229.61 1190.08 1225.24 1193.58 C 1217.24 1200.01 1213.26 1207.23 1208.05 1215.68 C 1204.06 1201.42 1203.56 1198.86 1186.5 1196.84 C 1183.21 1196.46 1181 1196.59 1177.73 1196.59 L 1176.83 1196.58 C 1183.67 1188.73 1189.14 1184.12 1197.58 1178.36 L 1195.07 1176.34 C 1194.57 1165.4 1194.2 1156.69 1189.34 1146.55 C 1182.72 1133 1170.9 1122.7 1156.58 1117.97 C 1126.24 1108.17 1096.21 1125.09 1087.66 1155.5 C 1076.13 1135.39 1063.29 1121.1 1040.11 1114.75 C 1035.3 1113.43 1028.47 1113.1 1023.33 1112.27 C 1023.69 1111.96 1024.42 1110.73 1024.73 1110.27 C 1024.17 1104.83 1012.87 1075.63 1010.49 1067.86 C 1001.69 1038.96 994.992 1009.45 990.457 979.576 C 987.119 962.198 985.711 940.207 984.797 922.569 C 984.902 864.408 989.267 823.321 1006.21 767.646 C 1011.48 753.954 1016.31 740.695 1021.8 726.952 z" fill="rgb(15,32,43)" transform="translate(0,0)"></path>
<path d="M 1197.58 1178.36 C 1206.66 1172.42 1227.76 1161.11 1238.24 1158.94 C 1238.05 1164.03 1237.59 1178.58 1238.44 1183.15 C 1234.58 1187.08 1229.61 1190.08 1225.24 1193.58 C 1217.24 1200.01 1213.26 1207.23 1208.05 1215.68 C 1204.06 1201.42 1203.56 1198.86 1186.5 1196.84 C 1183.21 1196.46 1181 1196.59 1177.73 1196.59 L 1176.83 1196.58 C 1183.67 1188.73 1189.14 1184.12 1197.58 1178.36 z" fill="rgb(201,76,103)" transform="translate(0,0)"></path>
<path d="M 1629.67 1049.21 L 1631.03 1048.01 L 1633.53 1049.52 C 1629.08 1053.8 1623.76 1058.65 1619.82 1063.25 C 1603.8 1101.52 1588.14 1136.53 1577.89 1177.27 C 1573.48 1194.76 1567.69 1210.37 1566.99 1228.85 C 1566.53 1242.96 1569.07 1257.01 1574.43 1270.07 C 1582.83 1290.59 1591.24 1300.47 1614.34 1296.48 C 1616.69 1277.27 1621.56 1255.02 1624.64 1235.34 L 1627.6 1235.65 L 1626.87 1241.31 C 1638.97 1260.05 1650.88 1296.1 1641.43 1317.84 C 1635.74 1322.04 1630.32 1338.29 1620.9 1347.8 C 1614.76 1357.71 1596.09 1368.74 1586.71 1375.47 C 1578.31 1355.05 1568.36 1334.54 1560.83 1313.83 C 1538.41 1252.26 1525.94 1181.23 1530.37 1115.73 L 1530.57 1113.12 C 1526.93 1112.06 1492.6 1130.48 1485.06 1133.59 C 1470.9 1139.59 1456.23 1144.3 1441.24 1147.68 C 1409.43 1154.61 1381.27 1154.75 1349.98 1146.25 C 1352.33 1141.53 1352.86 1131.93 1353.26 1126.51 C 1352.89 1122.08 1355.84 1101.99 1356.56 1096.59 C 1359.44 1100.14 1363.02 1104.34 1366.21 1107.5 C 1375.42 1116.65 1399.01 1116 1411.92 1115.95 C 1464.54 1115.62 1516.56 1104.71 1564.88 1083.88 C 1586.19 1074.83 1606.67 1061.77 1626.42 1049.75 C 1627.28 1049.22 1628.68 1049.25 1629.67 1049.21 z" fill="rgb(15,32,43)" transform="translate(0,0)"></path>
<path d="M 1619.82 1063.25 C 1603.8 1101.52 1588.14 1136.53 1577.89 1177.27 C 1573.48 1194.76 1567.69 1210.37 1566.99 1228.85 C 1566.53 1242.96 1569.07 1257.01 1574.43 1270.07 C 1582.83 1290.59 1591.24 1300.47 1614.34 1296.48 C 1613.28 1306.09 1613.26 1337.85 1598.47 1334.6 C 1565.47 1327.34 1555.47 1281.35 1546.82 1253.47 C 1544.59 1246.27 1541.07 1230.84 1540.33 1222.86 C 1551.02 1181.36 1559.52 1140.82 1566.32 1098.5 C 1587.32 1087.17 1600.96 1077.52 1619.82 1063.25 z" fill="rgb(166,133,104)" transform="translate(0,0)"></path>
<path d="M 1356.56 1096.59 C 1359.44 1100.14 1363.02 1104.34 1366.21 1107.5 C 1375.42 1116.65 1399.01 1116 1411.92 1115.95 C 1464.54 1115.62 1516.56 1104.71 1564.88 1083.88 C 1586.19 1074.83 1606.67 1061.77 1626.42 1049.75 C 1627.28 1049.22 1628.68 1049.25 1629.67 1049.21 C 1570.32 1115.02 1438.63 1140.95 1353.26 1126.51 C 1352.89 1122.08 1355.84 1101.99 1356.56 1096.59 z" fill="rgb(166,133,104)" transform="translate(0,0)"></path>
<path d="M 1626.87 1241.31 C 1638.97 1260.05 1650.88 1296.1 1641.43 1317.84 C 1635.74 1322.04 1630.32 1338.29 1620.9 1347.8 C 1625.78 1330.51 1629.34 1312.61 1626.86 1294.52 C 1625.61 1285.46 1622.82 1275.87 1623.1 1266.74 C 1623.35 1258.77 1625.39 1249.24 1626.87 1241.31 z" fill="rgb(201,76,103)" transform="translate(0,0)"></path>
<path d="M 1241.12 1157.65 C 1241.18 1146.48 1237.41 1086.05 1238.98 1081.22 C 1250.6 1088.55 1260.31 1093.22 1273.62 1097.43 C 1268.44 1111.07 1263.31 1166.33 1260.6 1184.29 C 1258.09 1200.71 1255.41 1217.11 1252.58 1233.48 C 1250.48 1245.4 1246.18 1263.59 1246.77 1275.07 C 1248.12 1301.33 1257.7 1337.13 1285.77 1346.25 C 1297.3 1349.99 1302.64 1349.42 1314.24 1348.91 C 1311.94 1356.73 1309.79 1368.32 1308.02 1376.53 C 1280.25 1361.86 1245.17 1338.4 1228.03 1311.46 L 1225.72 1313.07 C 1203.25 1283.16 1193.5 1251.17 1208.05 1215.68 C 1213.26 1207.23 1217.24 1200.01 1225.24 1193.58 C 1229.61 1190.08 1234.58 1187.08 1238.44 1183.15 C 1237.59 1178.58 1238.05 1164.03 1238.24 1158.94 C 1239.25 1158.53 1240.22 1158.22 1241.12 1157.65 z" fill="rgb(166,133,104)" transform="translate(0,0)"></path>
<path d="M 1238.44 1183.15 C 1240.28 1183.54 1240.07 1183.57 1241.17 1185.15 C 1241.05 1210.2 1235.22 1287.33 1228.03 1311.46 L 1225.72 1313.07 C 1203.25 1283.16 1193.5 1251.17 1208.05 1215.68 C 1213.26 1207.23 1217.24 1200.01 1225.24 1193.58 C 1229.61 1190.08 1234.58 1187.08 1238.44 1183.15 z" fill="rgb(15,32,43)" transform="translate(0,0)"></path>
<path d="M 1238.24 1158.94 C 1239.25 1158.53 1240.22 1158.22 1241.12 1157.65 L 1241.17 1185.15 C 1240.07 1183.57 1240.28 1183.54 1238.44 1183.15 C 1237.59 1178.58 1238.05 1164.03 1238.24 1158.94 z" fill="rgb(6,7,7)" transform="translate(0,0)"></path>
<path d="M 1400.81 927.902 C 1400.39 934.994 1395.5 942.662 1392.41 948.976 C 1381.14 972.008 1367.39 992.466 1348.07 1009.67 C 1333.11 1022.79 1316.59 1034.02 1298.89 1043.09 C 1291.31 1047 1267.26 1056.72 1265.01 1063.94 C 1266.18 1076.66 1281.04 1085.93 1286.17 1097.08 C 1288.13 1097.36 1290.91 1097.75 1292.74 1098.38 L 1293.19 1099.25 L 1293.3 1098.63 L 1293.56 1099.31 L 1293.87 1099.02 L 1293.94 1099.39 C 1290.75 1101.39 1277.52 1098.38 1273.62 1097.43 C 1260.31 1093.22 1250.6 1088.55 1238.98 1081.22 C 1237.47 1080.05 1238 1079.2 1238.15 1077.2 C 1237.85 1076.76 1228.26 1068.77 1227.36 1068.05 C 1215.68 1058.75 1209.38 1050.36 1202.08 1037.5 L 1203.36 1037.71 C 1248.28 1045.07 1284.07 1037.25 1320.85 1010.98 L 1319.89 1008.25 C 1321.56 1006.97 1324.76 1005.28 1326.68 1004.14 C 1327.94 1003.04 1328.21 1002.8 1329.65 1001.94 C 1343.67 992.097 1390.83 957.323 1391.79 941.141 C 1395.72 936.376 1397.59 933.164 1400.81 927.902 z" fill="rgb(166,133,104)" transform="translate(0,0)"></path>
<path d="M 1238.15 1077.2 L 1238.99 1077.67 C 1253.28 1085.87 1269.28 1095.77 1286.17 1097.08 C 1288.13 1097.36 1290.91 1097.75 1292.74 1098.38 L 1293.19 1099.25 L 1293.3 1098.63 L 1293.56 1099.31 L 1293.87 1099.02 L 1293.94 1099.39 C 1290.75 1101.39 1277.52 1098.38 1273.62 1097.43 C 1260.31 1093.22 1250.6 1088.55 1238.98 1081.22 C 1237.47 1080.05 1238 1079.2 1238.15 1077.2 z" fill="rgb(6,7,7)" transform="translate(0,0)"></path>
<path d="M 1326.68 1004.14 C 1326.52 1005.15 1326.45 1006.06 1326.35 1007.08 C 1324.15 1008.41 1322.87 1009.43 1320.85 1010.98 L 1319.89 1008.25 C 1321.56 1006.97 1324.76 1005.28 1326.68 1004.14 z" fill="rgb(64,56,51)" transform="translate(0,0)"></path>
<path d="M 1329.65 1001.94 C 1329.33 1005.25 1329.13 1005.19 1326.35 1007.08 C 1326.45 1006.06 1326.52 1005.15 1326.68 1004.14 C 1327.94 1003.04 1328.21 1002.8 1329.65 1001.94 z" fill="rgb(138,114,93)" transform="translate(0,0)"></path>
<path d="M 1633.31 964.351 C 1637.5 965.459 1656.18 969.459 1658.54 970.72 C 1662.24 976.965 1692.13 974.825 1699.01 973.282 C 1704.33 972.087 1713.31 968.719 1717.74 968.372 C 1712.33 975.9 1700.24 986.656 1691.83 990.448 C 1680.56 984.538 1661.24 985.988 1649.46 977.043 C 1643.78 972.727 1638.85 968.971 1633.31 964.351 z" fill="rgb(166,133,104)" transform="translate(0,0)"></path>
<path d="M 1718.08 965.253 C 1720.63 964.363 1724.31 961.588 1726.48 963.286 C 1719.13 974.916 1716.91 978.594 1706.86 988.263 C 1689.28 998.277 1678.73 1004.95 1657.13 1003.04 C 1673.14 998.814 1677.08 997.896 1691.83 990.448 C 1700.24 986.656 1712.33 975.9 1717.74 968.372 C 1713.31 968.719 1704.33 972.087 1699.01 973.282 C 1692.13 974.825 1662.24 976.965 1658.54 970.72 C 1684.35 973.14 1692.52 973.643 1718.08 965.253 z" fill="rgb(6,7,7)" transform="translate(0,0)"></path>
<path d="M 1631.03 1048.01 L 1632.45 1046.86 C 1637.93 1042.3 1637.39 1045.34 1633.53 1049.52 L 1631.03 1048.01 z" fill="rgb(6,7,7)" transform="translate(0,0)"></path>
<path d="M 1536.1 926.811 C 1545.84 927.924 1548.71 936.443 1546.66 945.058 C 1543.2 959.648 1533.83 972.88 1521.23 981.032 C 1507.51 989.77 1490.86 992.655 1475.01 989.043 C 1457.69 984.945 1445.55 974.327 1436.52 959.413 C 1433.93 953.408 1425.87 933.256 1443.93 935.204 C 1449.57 935.813 1450.26 949.507 1453.92 955.06 C 1471.07 980.907 1517.17 978.992 1526.65 947.169 C 1529.3 938.292 1528.15 932.087 1536.1 926.811 z" fill="rgb(6,7,7)" transform="translate(0,0)"></path>
<path d="M 1672.29 1065.28 C 1689.8 1063.88 1704.41 1063.22 1718.85 1075.19 C 1736.03 1089.44 1739.18 1111.06 1736.83 1131.63 C 1749.35 1116.63 1768.66 1118.3 1782.41 1130.8 C 1790.89 1138.45 1795.85 1149.25 1796.14 1160.66 C 1796.3 1171.77 1792.63 1179.45 1786.97 1188.62 C 1802.89 1183.83 1816.16 1185.55 1830.69 1193.5 C 1842.9 1200.08 1851.95 1211.29 1855.81 1224.61 C 1860.22 1239.8 1858.29 1256.12 1850.48 1269.86 C 1834.38 1298.44 1798.63 1307.79 1771.8 1287.94 C 1771.02 1303.71 1770.38 1309.03 1763.24 1323.07 C 1749.28 1350.54 1710.63 1365.62 1681.61 1353.65 C 1690.43 1320.67 1672.56 1282 1652.08 1257.05 C 1643.97 1247.17 1634.96 1238.72 1626.89 1229.09 L 1626.23 1228.29 C 1634.61 1186.48 1642.95 1147.82 1657.45 1107.47 C 1662.51 1093.4 1666.41 1079.12 1672.29 1065.28 z" fill="rgb(86,193,200)" transform="translate(0,0)"></path>
<path d="M 213.026 1348.3 C 219.112 1347.9 225.214 1348.77 230.947 1350.85 C 260.132 1361.3 281.357 1393.37 301.016 1415.61 C 305.626 1420.82 326.906 1435.22 327.907 1441.7 C 330.375 1457.68 318.472 1465.26 303.262 1457.07 C 268.102 1435.06 189.677 1440.44 180.821 1387.41 C 179.315 1378.88 181.353 1370.11 186.463 1363.12 C 193.2 1353.84 202.105 1350.11 213.026 1348.3 z" fill="rgb(86,193,200)" transform="translate(0,0)"></path>
<path d="M 218.002 1360.82 C 237.141 1361.77 271.172 1386 266.058 1406.26 L 264.898 1406.2 C 260.424 1406.01 256.961 1405.39 253.168 1402.71 C 241.864 1394.71 212.168 1377.39 218.002 1360.82 z" fill="rgb(255,254,253)" transform="translate(0,0)"></path>
<path d="M 261.695 1408.57 C 270.253 1409.91 276.271 1413.74 270.334 1422.24 C 264.514 1420.89 252.159 1417.26 260.477 1409.71 L 261.695 1408.57 z" fill="rgb(255,254,253)" transform="translate(0,0)"></path>
<path d="M 1726.11 361.101 C 1730.68 360.756 1737.1 360.122 1741.49 361.194 C 1773.66 369.045 1769.56 405.979 1742.38 417.66 C 1722.33 426.277 1704.04 426.906 1686.21 439.594 C 1679.46 445.795 1678.95 449.017 1673.55 454.724 C 1672.27 455.415 1668.86 454.836 1667.98 454.045 C 1654.92 442.304 1669.39 410.328 1676.06 399.559 C 1688.44 379.569 1703.82 366.614 1726.11 361.101 z" fill="rgb(86,193,200)" transform="translate(0,0)"></path>
<path d="M 1738.47 372.788 C 1743.45 371.874 1748.3 374.952 1749.59 379.85 C 1750.88 384.749 1748.19 389.818 1743.4 391.484 C 1739.96 392.681 1736.14 391.849 1733.51 389.331 C 1730.88 386.813 1729.88 383.032 1730.93 379.543 C 1731.97 376.054 1734.88 373.445 1738.47 372.788 z" fill="rgb(255,254,253)" transform="translate(0,0)"></path>
<path d="M 240.188 472.104 C 279.769 466.402 284.013 524.827 289.698 551.204 C 291.484 559.485 294.163 567.319 295.832 575.647 L 294.673 577.07 C 289.156 578.233 283.734 576.286 278.544 574.524 C 255.357 562.893 234.56 542.659 223.783 518.982 C 214.295 498.134 218.433 480.934 240.188 472.104 z" fill="rgb(86,193,200)" transform="translate(0,0)"></path>
<path d="M 242.688 483.151 C 256.748 482.377 265.681 491.346 263.189 505.607 L 262.531 509.237 C 259.013 507.485 256.26 501.401 254.087 498.02 C 250.546 492.508 243.951 489.355 242.688 483.151 z" fill="rgb(255,254,253)" transform="translate(0,0)"></path>
<path d="M 1819.89 1365.34 C 1834.28 1364.31 1845.49 1368.3 1847.96 1383.51 C 1853.74 1419.09 1816.58 1437.12 1788.48 1439.12 C 1774.18 1439.08 1769.2 1438.73 1755.65 1433.85 C 1760.59 1426.85 1766.06 1420.3 1770.81 1413.12 C 1781.43 1397.1 1789.6 1377.06 1808.09 1368.51 C 1811.83 1366.78 1815.87 1366.03 1819.89 1365.34 z" fill="rgb(86,193,200)" transform="translate(0,0)"></path>
<path d="M 1830.5 1378.81 C 1835.28 1378.53 1839.45 1382.05 1839.97 1386.81 C 1840.49 1391.58 1837.18 1395.91 1832.45 1396.67 C 1829.17 1397.2 1825.86 1395.88 1823.85 1393.23 C 1821.85 1390.58 1821.46 1387.04 1822.85 1384.03 C 1824.24 1381.01 1827.18 1379 1830.5 1378.81 z" fill="rgb(255,254,253)" transform="translate(0,0)"></path>
<path d="M 1777.56 1529.14 C 1790.82 1528.1 1804.96 1528.81 1808.94 1544.01 C 1816.2 1571.72 1775.68 1582.51 1756.39 1584.63 C 1742.41 1586.18 1714.41 1580.6 1727.27 1560.62 C 1737.9 1544.09 1758.47 1533.17 1777.56 1529.14 z" fill="rgb(86,193,200)" transform="translate(0,0)"></path>
<path d="M 1789.26 1539.99 C 1806.34 1539.49 1803.96 1551.59 1788.7 1556.77 C 1767.63 1558.48 1778.05 1544.4 1789.26 1539.99 z" fill="rgb(255,254,253)" transform="translate(0,0)"></path>
<path d="M 1627.69 283.127 C 1630.33 283.007 1634.43 282.751 1637 283.1 C 1641.37 283.68 1645.3 286.023 1647.9 289.584 C 1663.06 310.579 1629.63 330.78 1620.17 343.988 C 1615.07 351.112 1613.89 357.475 1612.63 365.937 C 1611.31 377.802 1596.53 359.163 1594.64 350.962 C 1588.12 322.61 1597.03 291.309 1627.69 283.127 z" fill="rgb(86,193,200)" transform="translate(0,0)"></path>
<path d="M 1631.27 293.501 C 1635.61 292.676 1639.85 295.369 1640.94 299.65 C 1642.03 303.931 1639.61 308.322 1635.4 309.678 C 1632.44 310.632 1629.19 309.864 1626.97 307.682 C 1624.75 305.501 1623.93 302.268 1624.83 299.29 C 1625.73 296.313 1628.22 294.082 1631.27 293.501 z" fill="rgb(255,254,253)" transform="translate(0,0)"></path>
<path d="M 1863.42 1008.21 C 1868.02 1007.86 1873.55 1007.07 1877.98 1008.28 C 1888.03 1011.16 1895.56 1022.84 1891.98 1033 C 1887.28 1046.31 1874.34 1052.46 1862.53 1058.23 C 1854.26 1062.27 1845.52 1065.83 1837.24 1070.04 C 1830.5 1073.67 1825.47 1077.42 1819.19 1081.67 C 1818.62 1048.12 1832.27 1022.45 1863.42 1008.21 z" fill="rgb(86,193,200)" transform="translate(0,0)"></path>
<path d="M 1869.79 1020.61 C 1873.79 1019.32 1878.08 1021.52 1879.37 1025.52 C 1880.67 1029.51 1878.49 1033.81 1874.49 1035.12 C 1870.48 1036.43 1866.17 1034.24 1864.86 1030.22 C 1863.56 1026.2 1865.77 1021.89 1869.79 1020.61 z" fill="rgb(255,254,253)" transform="translate(0,0)"></path>
<path d="M 417.902 268.059 C 453.549 264.621 455.334 326.464 434.724 334.46 L 433.002 335.159 C 407.863 332.995 387.386 282.762 417.902 268.059 z" fill="rgb(86,193,200)" transform="translate(0,0)"></path>
<path d="M 417.673 279.919 C 433.554 279.946 435.799 292.194 434.683 306.133 C 429.685 298.193 427.69 289.767 419.259 284.682 C 417.718 283.752 417.766 281.517 417.673 279.919 z" fill="rgb(255,254,253)" transform="translate(0,0)"></path>
<path d="M 325.061 391.06 C 347.159 390.172 356.466 404.661 360.658 424.547 C 363.416 437.63 360.221 444.254 347.605 445.648 C 346.937 445.463 346.27 445.275 345.603 445.084 L 343.779 444.524 C 342.726 444.211 341.673 443.898 340.619 443.585 C 317.748 437.684 295.178 405.16 325.061 391.06 z" fill="rgb(86,193,200)" transform="translate(0,0)"></path>
<path d="M 350.956 1512.18 C 362.17 1511.32 374.025 1512.2 379.622 1524.32 C 386.105 1538.36 384.279 1552.43 369.209 1559.4 C 332.468 1559.68 325.062 1522.27 350.956 1512.18 z" fill="rgb(86,193,200)" transform="translate(0,0)"></path>
<path d="M 229.231 1520.24 C 251.749 1520.91 262.711 1551.91 236.763 1559.44 C 225.786 1556.89 217.258 1553.49 214.335 1541.42 C 211.629 1530.23 219.173 1522.75 229.231 1520.24 z" fill="rgb(86,193,200)" transform="translate(0,0)"></path>
<path d="M 1765.28 482.121 C 1790.88 482.692 1787.09 511.17 1767.58 517.19 L 1765.71 517.803 C 1739.26 518.732 1746 487.489 1763.4 482.682 L 1765.28 482.121 z" fill="rgb(86,193,200)" transform="translate(0,0)"></path>
<path d="M 1706.18 1448.94 C 1728.23 1449.01 1732.37 1471.79 1711.39 1480.85 C 1688.16 1484.36 1687.65 1461.17 1706.18 1448.94 z" fill="rgb(86,193,200)" transform="translate(0,0)"></path>
<metadata><recraft-signature>{"signed_by": "recraft", "signature_b64": "/Zcd+XYkHVodq+isaudsoAmchQlYscRefsi9Q1VgqPRdCqvUbFMsyLjygM51Y6lzaAqyDYntnN0SZIMMd8VRCg==", "signing_algo": "Ed25519", "generation_timestamp": 1778557586, "identifier": "b357c4c2-c795-4f8f-84c3-c048f4d74da8"}</recraft-signature></metadata></svg>