<svg xmlns="http://www.w3.org/2000/svg" height="1024" preserveAspectRatio="none" style="display: block;" version="1.1" viewBox="0 0 2048 2048" width="1024">
<defs>
	<linearGradient gradientUnits="userSpaceOnUse" id="Gradient1" x1="1560.21" x2="1566.09" y1="390.116" y2="306.223">
		<stop class="stop0" offset="0" stop-color="rgb(0,0,0)" stop-opacity="0.984314"></stop>
		<stop class="stop1" offset="1" stop-color="rgb(32,20,19)" stop-opacity="1"></stop>
	</linearGradient>
</defs>
<path d="M 1006.33 206.546 C 1010.67 197.094 1016.74 180.228 1027.03 176.02 C 1030.6 174.558 1034.4 174.892 1037.79 176.684 C 1042.78 179.325 1093.18 284.027 1099.9 296.924 C 1125.91 299.129 1151.93 301.18 1177.96 303.076 C 1192.38 304.117 1206.97 304.676 1221.28 306.63 C 1227.02 307.414 1234.15 311.602 1233.55 318.263 C 1230.64 324.449 1214.74 338.742 1208.82 344.444 C 1198.85 354.394 1137.36 413.152 1134.73 418.674 C 1135.35 421.604 1135.41 423.384 1137.4 425.6 C 1153.15 427.809 1372.44 426.493 1375.46 425.215 L 1374.13 420.574 L 1377.2 415.356 C 1372 398.628 1374.06 381.028 1379.29 364.611 C 1389.7 344.199 1403.65 326.659 1426.42 319.429 C 1434.58 316.757 1443.04 315.093 1451.61 314.475 C 1471.73 313.093 1510.77 314.256 1532.89 314.3 C 1559.33 314.353 1611.16 312.401 1635.04 315.779 C 1651.91 318.214 1668.24 323.497 1683.34 331.402 C 1715.39 348.141 1730.79 370.683 1747.35 401.191 C 1747.53 403.146 1751.59 414.023 1752.57 417.284 C 1756.26 429.475 1757.02 438.189 1758.09 450.581 C 1758.85 453.42 1759.05 455.335 1759.65 458.023 C 1760.31 457.466 1759.9 451.201 1759.28 450.432 C 1758.61 449.61 1758.81 439.814 1760.84 441.587 C 1761.76 444.458 1760.05 456.203 1762.91 459.592 C 1764.31 493.268 1763.68 528.392 1763.65 562.163 C 1763.64 581.746 1764.14 604.39 1761.84 623.713 C 1760.57 634.397 1756.55 644.806 1751.29 654.177 C 1738.83 674.912 1718.67 689.878 1695.22 695.807 C 1693.83 696.155 1692.44 696.482 1691.04 696.787 L 1691.19 836.496 C 1691.16 864.465 1691.65 894.398 1690.89 922.24 C 1687.58 928.321 1691.92 988.576 1689.49 996.812 C 1688.61 993.093 1689.55 985.736 1689.21 981.103 C 1687.89 963.158 1689.39 941.759 1687.69 924.185 C 1687.54 928.884 1687.48 937.155 1686.84 941.465 C 1685.74 971.935 1685.91 1004.72 1686.24 1035.24 C 1687.15 1117.92 1684.46 1202.08 1686.93 1284.59 C 1689.01 1278.04 1688.2 1265.66 1688.16 1258.52 L 1688.05 1198.28 C 1688.07 1190.36 1687.02 1179.76 1688.37 1172.4 L 1689.77 1164.68 C 1689.79 1178.02 1689.5 1290.75 1690.94 1292.75 C 1691.74 1320.92 1691.64 1352.55 1691.09 1380.77 C 1708.75 1384.13 1729.73 1395.56 1740.93 1409.85 C 1739.72 1415.33 1744.43 1411.63 1741.72 1417.06 C 1742.09 1418.47 1741.98 1418.43 1743.15 1419.12 C 1749.12 1417.29 1747.81 1426.88 1754.66 1429.94 C 1767.71 1451.5 1763.85 1500.9 1763.87 1526.42 C 1763.9 1564.75 1764.6 1605.13 1763.04 1643.41 C 1761.44 1645.31 1761.8 1644.86 1760.67 1647.09 C 1761.06 1650.6 1761.89 1656.85 1758.3 1659.13 C 1759.41 1654.77 1759.38 1648.71 1759.57 1644.08 L 1758.27 1643.21 C 1756.72 1656.8 1755.28 1667.1 1751.11 1680.15 C 1735.36 1729.48 1695.34 1766.23 1644.77 1777.52 C 1625.45 1781.84 1604.82 1780.94 1584.96 1780.97 L 1518.84 1781.03 C 1463.22 1781.04 1406.95 1791.13 1379.29 1730.99 C 1379.39 1733.52 1379.44 1734.05 1379.22 1736.57 L 1377.73 1735.91 C 1372.8 1726.29 1371.88 1714.8 1368.85 1704.48 L 1368.23 1700.42 C 1364.5 1698.27 1207.91 1698.77 1190.26 1699.04 C 1189.87 1711.18 1188.82 1737.2 1183.53 1747.79 C 1178.34 1753.24 1169.85 1783.53 1160.9 1790.82 C 1157.14 1793.89 1153.34 1804.43 1148.36 1802.85 C 1146.42 1804.33 1140.26 1811.24 1138.26 1813.4 C 1134.35 1817.63 1128.38 1821.46 1124.99 1825.26 C 1127.35 1830.3 1112.6 1834.63 1108.79 1841.57 C 1084.36 1857.27 1049.23 1864.91 1020.39 1863.85 C 976.162 1862.3 934.382 1843.16 904.328 1810.67 C 875.996 1780.14 860.365 1741.69 861.837 1699.94 C 855.286 1698.74 807.237 1698.86 798.887 1699.06 C 762.106 1699.94 720.686 1697.67 684.312 1699.37 C 684.182 1702.18 684.189 1708.33 683.321 1710.63 L 682.982 1711.5 C 680.852 1717.07 679.743 1721.98 677.967 1727.53 C 678.198 1723.8 679.107 1719.04 678.478 1715.6 C 672.455 1737.85 659.78 1757.98 639.159 1769.83 C 608.812 1787.26 567.368 1778.89 533.666 1780.85 C 521.366 1780.63 508.89 1781.19 496.607 1780.89 C 464.958 1780.13 431.416 1783.64 400.589 1775.48 C 359.91 1764.72 331.628 1740.32 310.929 1704.49 C 304.165 1690.36 297.283 1672.98 295.369 1657.11 C 293.188 1639.04 293.714 1620.13 293.801 1601.85 C 294.021 1555.8 293.324 1509.6 294.407 1463.57 C 294.603 1455.25 296.693 1446.55 298.881 1438.6 L 297.528 1438.98 C 295.099 1443.82 296.009 1446.09 294.302 1449.73 L 293.973 1449.62 C 290.493 1435.36 310.689 1411.95 321.095 1403.04 C 324.856 1399.82 332.534 1394.84 334.149 1391.33 C 341.962 1385.93 350.819 1383.95 359.893 1381.33 C 360.632 1348.6 360.112 1313.83 360.133 1280.95 L 360.237 1113.98 L 360.318 769.387 L 360.085 751.505 C 360.029 733.213 360.633 714.847 359.942 696.583 C 359.923 696.097 355.219 694.614 354.692 694.398 C 348.79 693.575 341.434 690.204 336.246 687.359 C 333.725 682.422 300.207 661.163 300.59 648.81 L 303.486 649.729 C 300.108 642.904 294.792 630.311 294.236 622.773 C 292.293 596.422 292.849 568.003 292.937 541.36 C 293.048 507.652 291.858 472.804 294.212 439.379 C 294.916 429.379 300.187 414.015 303.403 404.245 C 300.841 405.385 298.271 413.275 296.797 416.699 L 296.719 415.564 L 297.257 415.504 C 296.09 407.71 306.578 392.922 309.02 386.282 C 311.965 378.276 328.793 360.746 329.702 355.241 C 333.826 349.209 351.79 336.052 358.543 331.802 C 374.799 321.616 392.903 314.733 411.819 311.547 C 443.592 306.021 498.146 309.503 532.094 308.818 C 555.144 308.353 595.625 307.122 617.487 310.937 C 637.463 314.423 661.411 333.211 671.482 351.204 C 686.134 377.384 685.056 396.599 677.92 424.575 C 740.64 425.834 803.377 426.046 866.104 425.211 C 882.668 425.119 904.032 425.726 920.676 424.247 C 921.957 424.133 922.119 422.938 922.971 421.346 C 922.972 419.906 922.813 416.405 921.763 415.355 C 894.264 387.835 866.908 360.041 839.206 332.683 C 833.199 326.75 824.872 320.721 829.187 311.715 C 837.089 304.52 855.025 305.082 865.648 304.459 C 896.811 302.63 928.028 298.44 959.167 296.845 C 963.187 288.742 968.804 277.951 973.414 270.333 C 980.445 265.196 979.985 253.904 984.484 259.178 C 986.993 253.926 991.796 246.258 993.564 241.113 C 989.215 234.078 1005.78 217.707 1006.33 206.546 z M 993.564 241.113 C 991.796 246.258 986.993 253.926 984.484 259.178 C 979.985 253.904 980.445 265.196 973.414 270.333 C 968.804 277.951 963.187 288.742 959.167 296.845 C 928.028 298.44 896.811 302.63 865.648 304.459 C 855.025 305.082 837.089 304.52 829.187 311.715 C 824.872 320.721 833.199 326.75 839.206 332.683 C 866.908 360.041 894.264 387.835 921.763 415.355 C 922.813 416.405 922.972 419.906 922.971 421.346 C 922.119 422.938 921.957 424.133 920.676 424.247 C 904.032 425.726 882.668 425.119 866.104 425.211 C 803.377 426.046 740.64 425.834 677.92 424.575 C 685.056 396.599 686.134 377.384 671.482 351.204 C 661.411 333.211 637.463 314.423 617.487 310.937 C 595.625 307.122 555.144 308.353 532.094 308.818 C 498.146 309.503 443.592 306.021 411.819 311.547 C 392.903 314.733 374.799 321.616 358.543 331.802 C 351.79 336.052 333.826 349.209 329.702 355.241 C 328.793 360.746 311.965 378.276 309.02 386.282 C 306.578 392.922 296.09 407.71 297.257 415.504 L 296.719 415.564 L 296.797 416.699 C 298.271 413.275 300.841 405.385 303.403 404.245 C 300.187 414.015 294.916 429.379 294.212 439.379 C 291.858 472.804 293.048 507.652 292.937 541.36 C 292.849 568.003 292.293 596.422 294.236 622.773 C 294.792 630.311 300.108 642.904 303.486 649.729 L 300.59 648.81 C 300.207 661.163 333.725 682.422 336.246 687.359 C 341.434 690.204 348.79 693.575 354.692 694.398 C 355.219 694.614 359.923 696.097 359.942 696.583 C 360.633 714.847 360.029 733.213 360.085 751.505 L 360.318 769.387 C 366.541 793.089 361.664 817.164 364.793 836.533 C 365.606 894.689 364.949 954.256 364.939 1012.5 L 364.975 1323.95 C 411.706 1326.47 447.301 1337.88 481.183 1372.66 C 511.285 1403.83 527.616 1445.78 526.511 1489.09 C 525.626 1539.99 504.609 1582.04 468.514 1616.87 C 499.045 1617.44 530.171 1616.6 560.744 1616.99 C 578.318 1617.68 596.749 1615.34 614.091 1618.81 C 655.903 1627.16 677.832 1654.16 684.283 1694.68 L 686.987 1694.72 C 752.205 1695.78 819.479 1694.95 884.872 1695.03 L 946.112 1695.08 C 960.098 1695.09 972.843 1695.01 986.889 1693.98 C 1001.2 1692.92 1019.71 1678.88 1020.93 1664.28 C 1022.84 1641.3 1021.84 1616.29 1021.75 1592.95 C 1021.51 1543.93 1021.59 1494.91 1021.99 1445.9 C 1020.7 1444.98 1019.39 1444.08 1018.08 1443.19 C 973.679 1412.86 917.177 1402.52 864.266 1407.01 C 847.862 1408.41 831.898 1411.52 815.745 1414.54 C 815.246 1416.44 814.709 1418.33 814.136 1420.21 C 784.63 1516.12 650.466 1526.59 604.865 1435.72 C 591.733 1409.13 589.555 1378.45 598.8 1350.27 C 609.235 1319.28 629.832 1297.64 658.776 1283.07 C 663.319 1249.38 669.436 1216.36 673.262 1182.24 C 687.155 1067.2 681.214 950.631 655.697 837.601 C 629.918 821.822 610.78 805.209 600.027 775.827 C 589.78 747.165 591.225 715.621 604.049 688.016 C 615.568 663.819 639.647 642.376 664.797 633.347 C 665.13 634.282 665.734 635.287 664.86 636.102 C 664.711 636.739 664.652 636.378 665.114 637.402 C 635.324 652.259 614.852 669.395 603.924 702.242 C 594.852 729.662 597.07 759.565 610.089 785.346 C 621.491 807.731 638.061 821.197 659.265 833.665 C 667.601 865.226 671.683 891.839 676.198 923.942 C 690.303 1024.23 687.621 1124.75 672.807 1224.79 C 670.098 1243.09 667.191 1267.98 663.354 1285.8 C 633.385 1302.52 612.882 1321.4 603.021 1355.8 C 594.924 1383.78 598.445 1413.84 612.79 1439.18 C 626.771 1463.81 650.037 1481.8 677.386 1489.15 C 733.34 1504.4 795.444 1472.47 809.81 1415.44 C 810.218 1413.84 810.59 1412.23 810.923 1410.62 C 821.403 1407.43 834.252 1405.54 845.184 1403.91 C 898.031 1396.03 954.209 1402 1001.95 1427.29 C 1008.83 1430.91 1015.49 1434.92 1021.91 1439.3 L 1021.48 1279.54 C 952.438 1258.34 883.262 1259.41 813.456 1270.75 C 810.987 1271.15 809.995 1270.96 808.044 1269.64 C 806.848 1263.55 814.731 1212.58 815.762 1202.2 C 824.151 1114.64 824.642 1026.51 817.228 938.864 C 814.69 910.189 808.464 879.998 806.256 853.709 C 823.049 854.926 840.223 858.305 857.537 859.719 C 912.53 864.211 969.013 858.987 1021.48 841.461 C 1021.54 824.393 1022.99 690.878 1020.97 686.126 L 1021.97 685.181 C 1026.49 687.183 1036 690.628 1038.19 694.549 C 1075.33 716.345 1138.15 729.128 1181.32 724.021 C 1179.2 721.512 1178.84 721.386 1176.26 719.514 C 1199.43 717.672 1218.71 713.602 1241.1 708.264 C 1255.47 648.312 1319.93 613.979 1378.84 628.837 C 1407.4 635.959 1431.94 654.179 1447.02 679.459 C 1462.47 705.252 1466.83 736.2 1459.1 765.258 C 1449.81 800.306 1428.26 820.316 1398.14 837.668 C 1393.03 859.057 1386.42 885.196 1383.41 906.674 C 1367.41 1020.86 1369.48 1170.43 1397.5 1282.71 C 1430.57 1302.92 1450.54 1321.99 1460.02 1361.62 C 1466.72 1390.01 1461.71 1419.9 1446.14 1444.57 C 1429.62 1471.18 1405.48 1489.24 1374.82 1496.13 C 1345.36 1502.53 1314.56 1497.09 1289.08 1480.98 C 1262.99 1464.3 1248.39 1443.54 1240.52 1414.03 C 1153.42 1398.75 1106.21 1402.34 1026.91 1445.99 L 1026.99 1589.63 C 1026.97 1613.12 1025.9 1640.18 1028.41 1663.31 C 1029.99 1677.93 1048.94 1693.95 1063.2 1694.53 C 1074.35 1695.59 1085.68 1695.18 1096.84 1695.12 L 1155.15 1694.89 L 1368.4 1694.92 C 1370.51 1671.74 1380.56 1651.84 1398.49 1636.86 C 1408.96 1628.09 1421.42 1622.01 1434.77 1619.17 C 1449.06 1616.04 1468.01 1616.59 1482.92 1616.81 C 1516.43 1617.3 1550.34 1616.27 1583.79 1616.96 C 1513.74 1551.53 1501.91 1445.39 1569.85 1372.82 C 1601.95 1338.54 1640.78 1326.53 1686.61 1322.88 C 1686.62 1315.6 1686.15 1290.47 1686.93 1284.59 C 1684.46 1202.08 1687.15 1117.92 1686.24 1035.24 C 1685.91 1004.72 1685.74 971.935 1686.84 941.465 C 1687.48 937.155 1687.54 928.884 1687.69 924.185 C 1689.39 941.759 1687.89 963.158 1689.21 981.103 C 1689.55 985.736 1688.61 993.093 1689.49 996.812 C 1691.92 988.576 1687.58 928.321 1690.89 922.24 C 1691.65 894.398 1691.16 864.465 1691.19 836.496 L 1691.04 696.787 C 1692.44 696.482 1693.83 696.155 1695.22 695.807 C 1718.67 689.878 1738.83 674.912 1751.29 654.177 C 1756.55 644.806 1760.57 634.397 1761.84 623.713 C 1764.14 604.39 1763.64 581.746 1763.65 562.163 C 1763.68 528.392 1764.31 493.268 1762.91 459.592 C 1760.05 456.203 1761.76 444.458 1760.84 441.587 C 1758.81 439.814 1758.61 449.61 1759.28 450.432 C 1759.9 451.201 1760.31 457.466 1759.65 458.023 C 1759.05 455.335 1758.85 453.42 1758.09 450.581 C 1757.02 438.189 1756.26 429.475 1752.57 417.284 C 1751.59 414.023 1747.53 403.146 1747.35 401.191 C 1730.79 370.683 1715.39 348.141 1683.34 331.402 C 1668.24 323.497 1651.91 318.214 1635.04 315.779 C 1611.16 312.401 1559.33 314.353 1532.89 314.3 C 1510.77 314.256 1471.73 313.093 1451.61 314.475 C 1443.04 315.093 1434.58 316.757 1426.42 319.429 C 1403.65 326.659 1389.7 344.199 1379.29 364.611 C 1374.06 381.028 1372 398.628 1377.2 415.356 L 1374.13 420.574 L 1375.46 425.215 C 1372.44 426.493 1153.15 427.809 1137.4 425.6 C 1135.41 423.384 1135.35 421.604 1134.73 418.674 C 1137.36 413.152 1198.85 354.394 1208.82 344.444 C 1214.74 338.742 1230.64 324.449 1233.55 318.263 C 1234.15 311.602 1227.02 307.414 1221.28 306.63 C 1206.97 304.676 1192.38 304.117 1177.96 303.076 C 1151.93 301.18 1125.91 299.129 1099.9 296.924 C 1093.18 284.027 1042.78 179.325 1037.79 176.684 C 1034.4 174.892 1030.6 174.558 1027.03 176.02 C 1016.74 180.228 1010.67 197.094 1006.33 206.546 C 1005.78 217.707 989.215 234.078 993.564 241.113 z M 678.478 1715.6 C 681.374 1689.98 674.113 1663.04 655.302 1644.8 C 644.578 1634.56 631.265 1627.44 616.797 1624.22 C 601.786 1620.81 572.261 1622 555.67 1622.03 C 522.77 1621.99 489.871 1622.17 456.973 1622.56 C 456.095 1588.82 457.587 1553.51 456.998 1519.71 C 456.596 1496.58 459.243 1463.41 452.689 1442.22 C 446.327 1421.8 432.015 1404.81 412.978 1395.07 C 395.241 1386.01 368.885 1382.89 350.049 1389.45 C 324.552 1398.33 310.637 1415.68 298.881 1438.6 C 296.693 1446.55 294.603 1455.25 294.407 1463.57 C 293.324 1509.6 294.021 1555.8 293.801 1601.85 C 293.714 1620.13 293.188 1639.04 295.369 1657.11 C 297.283 1672.98 304.165 1690.36 310.929 1704.49 C 331.628 1740.32 359.91 1764.72 400.589 1775.48 C 431.416 1783.64 464.958 1780.13 496.607 1780.89 C 508.89 1781.19 521.366 1780.63 533.666 1780.85 C 567.368 1778.89 608.812 1787.26 639.159 1769.83 C 659.78 1757.98 672.455 1737.85 678.478 1715.6 z" fill="rgb(18,14,15)" transform="translate(0,0)"></path>
<path d="M 1006.33 206.546 C 1010.67 197.094 1016.74 180.228 1027.03 176.02 C 1030.6 174.558 1034.4 174.892 1037.79 176.684 C 1042.78 179.325 1093.18 284.027 1099.9 296.924 C 1125.91 299.129 1151.93 301.18 1177.96 303.076 C 1192.38 304.117 1206.97 304.676 1221.28 306.63 C 1227.02 307.414 1234.15 311.602 1233.55 318.263 C 1230.64 324.449 1214.74 338.742 1208.82 344.444 C 1198.85 354.394 1137.36 413.152 1134.73 418.674 C 1135.35 421.604 1135.41 423.384 1137.4 425.6 C 1153.15 427.809 1372.44 426.493 1375.46 425.215 L 1374.13 420.574 L 1377.2 415.356 C 1372 398.628 1374.06 381.028 1379.29 364.611 C 1389.7 344.199 1403.65 326.659 1426.42 319.429 C 1434.58 316.757 1443.04 315.093 1451.61 314.475 C 1471.73 313.093 1510.77 314.256 1532.89 314.3 C 1559.33 314.353 1611.16 312.401 1635.04 315.779 C 1651.91 318.214 1668.24 323.497 1683.34 331.402 C 1715.39 348.141 1730.79 370.683 1747.35 401.191 C 1747.53 403.146 1751.59 414.023 1752.57 417.284 C 1756.26 429.475 1757.02 438.189 1758.09 450.581 C 1758.85 453.42 1759.05 455.335 1759.65 458.023 C 1760.31 457.466 1759.9 451.201 1759.28 450.432 C 1758.61 449.61 1758.81 439.814 1760.84 441.587 C 1761.76 444.458 1760.05 456.203 1762.91 459.592 C 1764.31 493.268 1763.68 528.392 1763.65 562.163 C 1763.64 581.746 1764.14 604.39 1761.84 623.713 C 1760.57 634.397 1756.55 644.806 1751.29 654.177 C 1750.96 651.675 1750.09 650.076 1749.09 647.776 C 1712.71 709.16 1639.05 705.732 1602.5 645.944 C 1602.85 650.692 1605.81 656.263 1608.81 659.938 L 1609.33 659.75 L 1610.25 660.902 L 1610.11 661.203 C 1608.16 660.705 1605.8 656.414 1602.4 654.777 C 1587.17 639.136 1590.03 588.928 1590.1 567.967 C 1590.18 537.588 1590.43 507.209 1590.84 476.832 C 1585.7 476.921 1580.81 477.318 1575.84 476.184 C 1572.15 475.351 1572.2 475.504 1568.65 476.138 C 1547.44 476.873 1522.18 475.898 1500.52 475.943 C 1482.2 475.981 1448.6 477.283 1432.07 473.419 C 1418.51 470.339 1406 463.75 1395.78 454.311 C 1388.36 447.356 1383.02 439.716 1377.68 431.117 C 1297.59 430.361 1217.49 430.363 1137.4 431.123 C 1141.69 459.353 1148.3 487.514 1153.72 515.561 C 1155.51 524.807 1158.87 535.262 1159.01 544.573 C 1159.05 547.231 1158.48 548.907 1156.83 550.981 C 1154.29 554.179 1149.17 555.763 1145.25 555.949 C 1137.13 556.333 1040.42 502.85 1027.26 495.412 C 1026 557.053 1026.79 621.209 1026.74 683.035 C 1038.35 688.748 1049.07 694.826 1061.01 699.96 C 1097.41 715.256 1136.85 721.948 1176.26 719.514 C 1178.84 721.386 1179.2 721.512 1181.32 724.021 C 1138.15 729.128 1075.33 716.345 1038.19 694.549 C 1036 690.628 1026.49 687.183 1021.97 685.181 L 1020.97 686.126 C 1019.24 687.312 1017.48 688.464 1015.7 689.583 C 954.314 728.149 880.388 731.348 811.412 715.441 C 803.327 695.545 801.057 682.917 785.237 665.881 C 759.252 637.897 737.658 631.96 701.661 629.748 C 686.798 631.496 679.294 632.945 665.114 637.402 C 664.652 636.378 664.711 636.739 664.86 636.102 C 665.734 635.287 665.13 634.282 664.797 633.347 C 639.647 642.376 615.568 663.819 604.049 688.016 C 591.225 715.621 589.78 747.165 600.027 775.827 C 610.78 805.209 629.918 821.822 655.697 837.601 C 681.214 950.631 687.155 1067.2 673.262 1182.24 C 669.436 1216.36 663.319 1249.38 658.776 1283.07 C 629.832 1297.64 609.235 1319.28 598.8 1350.27 C 589.555 1378.45 591.733 1409.13 604.865 1435.72 C 650.466 1526.59 784.63 1516.12 814.136 1420.21 C 814.709 1418.33 815.246 1416.44 815.745 1414.54 C 831.898 1411.52 847.862 1408.41 864.266 1407.01 C 917.177 1402.52 973.679 1412.86 1018.08 1443.19 C 1019.39 1444.08 1020.7 1444.98 1021.99 1445.9 C 1021.59 1494.91 1021.51 1543.93 1021.75 1592.95 C 1021.84 1616.29 1022.84 1641.3 1020.93 1664.28 C 1019.71 1678.88 1001.2 1692.92 986.889 1693.98 C 972.843 1695.01 960.098 1695.09 946.112 1695.08 L 884.872 1695.03 C 819.479 1694.95 752.205 1695.78 686.987 1694.72 L 684.283 1694.68 C 677.832 1654.16 655.903 1627.16 614.091 1618.81 C 596.749 1615.34 578.318 1617.68 560.744 1616.99 C 530.171 1616.6 499.045 1617.44 468.514 1616.87 C 504.609 1582.04 525.626 1539.99 526.511 1489.09 C 527.616 1445.78 511.285 1403.83 481.183 1372.66 C 447.301 1337.88 411.706 1326.47 364.975 1323.95 L 364.939 1012.5 C 364.949 954.256 365.606 894.689 364.793 836.533 C 361.664 817.164 366.541 793.089 360.318 769.387 L 360.085 751.505 C 360.029 733.213 360.633 714.847 359.942 696.583 C 359.923 696.097 355.219 694.614 354.692 694.398 C 348.79 693.575 341.434 690.204 336.246 687.359 C 333.725 682.422 300.207 661.163 300.59 648.81 L 303.486 649.729 C 300.108 642.904 294.792 630.311 294.236 622.773 C 292.293 596.422 292.849 568.003 292.937 541.36 C 293.048 507.652 291.858 472.804 294.212 439.379 C 294.916 429.379 300.187 414.015 303.403 404.245 C 300.841 405.385 298.271 413.275 296.797 416.699 L 296.719 415.564 L 297.257 415.504 C 296.09 407.71 306.578 392.922 309.02 386.282 C 311.965 378.276 328.793 360.746 329.702 355.241 C 333.826 349.209 351.79 336.052 358.543 331.802 C 374.799 321.616 392.903 314.733 411.819 311.547 C 443.592 306.021 498.146 309.503 532.094 308.818 C 555.144 308.353 595.625 307.122 617.487 310.937 C 637.463 314.423 661.411 333.211 671.482 351.204 C 686.134 377.384 685.056 396.599 677.92 424.575 C 740.64 425.834 803.377 426.046 866.104 425.211 C 882.668 425.119 904.032 425.726 920.676 424.247 C 921.957 424.133 922.119 422.938 922.971 421.346 C 922.972 419.906 922.813 416.405 921.763 415.355 C 894.264 387.835 866.908 360.041 839.206 332.683 C 833.199 326.75 824.872 320.721 829.187 311.715 C 837.089 304.52 855.025 305.082 865.648 304.459 C 896.811 302.63 928.028 298.44 959.167 296.845 C 963.187 288.742 968.804 277.951 973.414 270.333 C 980.445 265.196 979.985 253.904 984.484 259.178 C 986.993 253.926 991.796 246.258 993.564 241.113 C 989.215 234.078 1005.78 217.707 1006.33 206.546 z M 303.486 649.729 C 332.771 695.633 391.659 707.751 431.908 669.193 C 442.464 659.242 450.032 646.543 453.761 632.525 C 458.209 615.5 456.728 579.797 456.688 560.957 C 456.548 531.211 456.699 501.464 457.139 471.721 C 465.512 470.636 487.857 471.05 497.034 471.042 L 571.648 471.115 C 613.005 471.164 645.971 470.342 668.73 429.279 C 678.357 411.501 680.458 390.606 674.564 371.267 C 668.655 350.81 654.697 333.627 635.884 323.653 C 627.213 319.065 617.768 316.123 608.026 314.976 C 591.177 312.947 546.741 313.894 528.01 314.181 C 497.24 314.651 454.754 312.532 425.311 315.02 C 414.374 315.948 403.577 318.1 393.121 321.436 C 363.507 330.793 335.873 349.623 318.793 375.784 C 312.421 385.544 308.657 394.041 303.403 404.245 C 300.187 414.015 294.916 429.379 294.212 439.379 C 291.858 472.804 293.048 507.652 292.937 541.36 C 292.849 568.003 292.293 596.422 294.236 622.773 C 294.792 630.311 300.108 642.904 303.486 649.729 z M 442.812 981.808 C 443.159 988.187 442.954 997.304 445.626 1003.06 C 450.076 1022.43 456.721 1028.56 468.116 1042.98 C 469.527 1044.26 470.751 1045.28 472.023 1046.69 C 476.713 1051.11 480.297 1053.74 486.154 1056.47 L 484.484 1057.31 C 477.842 1059.83 465.675 1072.9 461.269 1078.8 C 459.324 1081.42 453.865 1089.7 453.239 1092.73 L 450.202 1099.12 C 445.296 1112.53 444.335 1164.38 446.139 1178.48 C 445.929 1207.39 445.881 1236.3 445.996 1265.21 C 446.009 1272.97 443.473 1296.25 449.621 1299.8 C 452.665 1298.71 455.407 1294.3 455.331 1291.14 C 455.048 1279.41 455.062 1267.72 455.079 1255.98 C 455.233 1228.17 455.197 1200.36 454.971 1172.55 C 456.161 1165.18 455.598 1125.48 456.237 1113.76 C 458.362 1098.39 464.269 1087.31 475.046 1076.26 C 475.223 1076.11 475.399 1075.97 475.575 1075.82 C 481.334 1070.9 487.421 1066.37 493.792 1062.27 C 499.59 1058.56 505.309 1058.57 499.254 1053.69 C 495.021 1051.6 492.022 1049.55 487.454 1048.19 C 486.735 1047.49 486.017 1046.78 485.298 1046.08 C 482.925 1044.31 480.507 1042.6 478.216 1040.72 L 476.713 1039.53 C 463.45 1025.87 459.901 1017.8 453.507 1000.78 C 452.928 997.624 452.233 994.489 451.738 991.314 C 451.264 984.492 451.083 977.885 451.148 971.052 C 451.556 928.356 450.407 885.705 449.895 843.023 C 449.71 827.616 452.634 812.562 451.801 796.968 C 452.028 779.35 439.151 784.848 442.863 800.592 C 443.328 802.563 443.071 822.291 442.985 825.282 C 442.713 838.035 440.87 975.66 442.812 981.808 z" fill="rgb(48,54,176)" transform="translate(0,0)"></path>
<path d="M 1006.33 206.546 C 1010.67 197.094 1016.74 180.228 1027.03 176.02 C 1030.6 174.558 1034.4 174.892 1037.79 176.684 C 1042.78 179.325 1093.18 284.027 1099.9 296.924 C 1125.91 299.129 1151.93 301.18 1177.96 303.076 C 1192.38 304.117 1206.97 304.676 1221.28 306.63 C 1227.02 307.414 1234.15 311.602 1233.55 318.263 C 1230.64 324.449 1214.74 338.742 1208.82 344.444 C 1198.85 354.394 1137.36 413.152 1134.73 418.674 C 1135.35 421.604 1135.41 423.384 1137.4 425.6 C 1153.15 427.809 1372.44 426.493 1375.46 425.215 L 1374.13 420.574 L 1377.2 415.356 C 1372 398.628 1374.06 381.028 1379.29 364.611 C 1389.7 344.199 1403.65 326.659 1426.42 319.429 C 1434.58 316.757 1443.04 315.093 1451.61 314.475 C 1471.73 313.093 1510.77 314.256 1532.89 314.3 C 1559.33 314.353 1611.16 312.401 1635.04 315.779 C 1651.91 318.214 1668.24 323.497 1683.34 331.402 C 1715.39 348.141 1730.79 370.683 1747.35 401.191 C 1747.53 403.146 1751.59 414.023 1752.57 417.284 C 1756.26 429.475 1757.02 438.189 1758.09 450.581 C 1758.85 453.42 1759.05 455.335 1759.65 458.023 C 1760.31 457.466 1759.9 451.201 1759.28 450.432 C 1758.61 449.61 1758.81 439.814 1760.84 441.587 C 1761.76 444.458 1760.05 456.203 1762.91 459.592 C 1764.31 493.268 1763.68 528.392 1763.65 562.163 C 1763.64 581.746 1764.14 604.39 1761.84 623.713 C 1760.57 634.397 1756.55 644.806 1751.29 654.177 C 1750.96 651.675 1750.09 650.076 1749.09 647.776 C 1712.71 709.16 1639.05 705.732 1602.5 645.944 C 1602.85 650.692 1605.81 656.263 1608.81 659.938 L 1609.33 659.75 L 1610.25 660.902 L 1610.11 661.203 C 1608.16 660.705 1605.8 656.414 1602.4 654.777 C 1587.17 639.136 1590.03 588.928 1590.1 567.967 C 1590.18 537.588 1590.43 507.209 1590.84 476.832 C 1585.7 476.921 1580.81 477.318 1575.84 476.184 C 1572.15 475.351 1572.2 475.504 1568.65 476.138 C 1547.44 476.873 1522.18 475.898 1500.52 475.943 C 1482.2 475.981 1448.6 477.283 1432.07 473.419 C 1418.51 470.339 1406 463.75 1395.78 454.311 C 1388.36 447.356 1383.02 439.716 1377.68 431.117 C 1297.59 430.361 1217.49 430.363 1137.4 431.123 C 1141.69 459.353 1148.3 487.514 1153.72 515.561 C 1155.51 524.807 1158.87 535.262 1159.01 544.573 C 1159.05 547.231 1158.48 548.907 1156.83 550.981 C 1154.29 554.179 1149.17 555.763 1145.25 555.949 C 1137.13 556.333 1040.42 502.85 1027.26 495.412 C 1026 557.053 1026.79 621.209 1026.74 683.035 C 1038.35 688.748 1049.07 694.826 1061.01 699.96 C 1097.41 715.256 1136.85 721.948 1176.26 719.514 C 1178.84 721.386 1179.2 721.512 1181.32 724.021 C 1138.15 729.128 1075.33 716.345 1038.19 694.549 C 1036 690.628 1026.49 687.183 1021.97 685.181 L 1020.97 686.126 C 1019.24 687.312 1017.48 688.464 1015.7 689.583 C 954.314 728.149 880.388 731.348 811.412 715.441 C 803.327 695.545 801.057 682.917 785.237 665.881 C 759.252 637.897 737.658 631.96 701.661 629.748 C 686.798 631.496 679.294 632.945 665.114 637.402 C 664.652 636.378 664.711 636.739 664.86 636.102 C 665.734 635.287 665.13 634.282 664.797 633.347 C 665.04 633.253 665.283 633.159 665.527 633.066 C 670.713 630.997 676.06 629.357 681.514 628.162 C 687.298 626.896 692.454 626.103 698.354 625.859 C 715.055 622.61 743.757 629.584 758.543 638.019 C 791.231 656.668 804.575 676.939 815.376 711.358 C 816.805 711.716 818.24 712.051 819.681 712.362 C 893.768 728.725 957.722 719.816 1021.94 678.877 C 1021.27 618.955 1022.55 558.58 1021.6 498.703 C 1001.98 507.076 919.85 557.865 906.567 555.624 C 902.858 554.998 898.777 553.08 896.808 549.7 C 895.133 546.824 894.956 544.583 895.363 541.351 C 896.99 528.408 901.692 514.892 904.713 502.141 C 910.19 478.151 915.505 454.125 920.659 430.063 C 861.046 429.351 801.428 429.132 741.811 429.404 C 719.794 429.491 696.186 430.569 674.441 430.12 C 645.009 480.067 608.665 476.687 557.011 476.056 C 532.749 475.759 506.291 475.561 482.021 476.176 L 475.718 476.831 C 470.378 475.774 466.505 476.053 461.13 476.161 C 461.771 506.369 461.896 536.587 461.506 566.799 C 461.447 585.163 462.644 617.211 458.655 633.635 C 455.405 647.211 448.686 659.712 439.155 669.913 C 424.697 685.489 392.066 701.043 370.975 695.963 C 367.61 695.32 362.302 694.879 358.482 694.348 L 355.978 693.988 C 355.269 693.82 355.447 694.04 354.692 694.398 C 348.79 693.575 341.434 690.204 336.246 687.359 C 333.725 682.422 300.207 661.163 300.59 648.81 L 303.486 649.729 C 300.108 642.904 294.792 630.311 294.236 622.773 C 292.293 596.422 292.849 568.003 292.937 541.36 C 293.048 507.652 291.858 472.804 294.212 439.379 C 294.916 429.379 300.187 414.015 303.403 404.245 C 300.841 405.385 298.271 413.275 296.797 416.699 L 296.719 415.564 L 297.257 415.504 C 296.09 407.71 306.578 392.922 309.02 386.282 C 311.965 378.276 328.793 360.746 329.702 355.241 C 333.826 349.209 351.79 336.052 358.543 331.802 C 374.799 321.616 392.903 314.733 411.819 311.547 C 443.592 306.021 498.146 309.503 532.094 308.818 C 555.144 308.353 595.625 307.122 617.487 310.937 C 637.463 314.423 661.411 333.211 671.482 351.204 C 686.134 377.384 685.056 396.599 677.92 424.575 C 740.64 425.834 803.377 426.046 866.104 425.211 C 882.668 425.119 904.032 425.726 920.676 424.247 C 921.957 424.133 922.119 422.938 922.971 421.346 C 922.972 419.906 922.813 416.405 921.763 415.355 C 894.264 387.835 866.908 360.041 839.206 332.683 C 833.199 326.75 824.872 320.721 829.187 311.715 C 837.089 304.52 855.025 305.082 865.648 304.459 C 896.811 302.63 928.028 298.44 959.167 296.845 C 963.187 288.742 968.804 277.951 973.414 270.333 C 980.445 265.196 979.985 253.904 984.484 259.178 C 986.993 253.926 991.796 246.258 993.564 241.113 C 989.215 234.078 1005.78 217.707 1006.33 206.546 z M 303.486 649.729 C 332.771 695.633 391.659 707.751 431.908 669.193 C 442.464 659.242 450.032 646.543 453.761 632.525 C 458.209 615.5 456.728 579.797 456.688 560.957 C 456.548 531.211 456.699 501.464 457.139 471.721 C 465.512 470.636 487.857 471.05 497.034 471.042 L 571.648 471.115 C 613.005 471.164 645.971 470.342 668.73 429.279 C 678.357 411.501 680.458 390.606 674.564 371.267 C 668.655 350.81 654.697 333.627 635.884 323.653 C 627.213 319.065 617.768 316.123 608.026 314.976 C 591.177 312.947 546.741 313.894 528.01 314.181 C 497.24 314.651 454.754 312.532 425.311 315.02 C 414.374 315.948 403.577 318.1 393.121 321.436 C 363.507 330.793 335.873 349.623 318.793 375.784 C 312.421 385.544 308.657 394.041 303.403 404.245 C 300.187 414.015 294.916 429.379 294.212 439.379 C 291.858 472.804 293.048 507.652 292.937 541.36 C 292.849 568.003 292.293 596.422 294.236 622.773 C 294.792 630.311 300.108 642.904 303.486 649.729 z" fill="rgb(23,17,14)" transform="translate(0,0)"></path>
<path d="M 1379.29 364.611 C 1389.7 344.199 1403.65 326.659 1426.42 319.429 C 1434.58 316.757 1443.04 315.093 1451.61 314.475 C 1471.73 313.093 1510.77 314.256 1532.89 314.3 C 1559.33 314.353 1611.16 312.401 1635.04 315.779 C 1651.91 318.214 1668.24 323.497 1683.34 331.402 C 1715.39 348.141 1730.79 370.683 1747.35 401.191 C 1747.53 403.146 1751.59 414.023 1752.57 417.284 C 1756.26 429.475 1757.02 438.189 1758.09 450.581 C 1758.85 453.42 1759.05 455.335 1759.65 458.023 C 1760.31 457.466 1759.9 451.201 1759.28 450.432 C 1758.61 449.61 1758.81 439.814 1760.84 441.587 C 1761.76 444.458 1760.05 456.203 1762.91 459.592 C 1764.31 493.268 1763.68 528.392 1763.65 562.163 C 1763.64 581.746 1764.14 604.39 1761.84 623.713 C 1760.57 634.397 1756.55 644.806 1751.29 654.177 C 1750.96 651.675 1750.09 650.076 1749.09 647.776 C 1712.71 709.16 1639.05 705.732 1602.5 645.944 C 1592.72 618.636 1594.94 594.268 1594.91 565.738 L 1594.88 471.414 C 1584.06 470.647 1569.04 470.955 1557.96 470.911 L 1486.59 470.988 C 1472.95 471.048 1454.72 471.763 1441.65 469.926 C 1433.08 468.786 1424.76 466.242 1417.02 462.398 C 1397.63 452.663 1384.02 435.801 1377.2 415.356 C 1372 398.628 1374.06 381.028 1379.29 364.611 z" fill="rgb(250,190,34)" transform="translate(0,0)"></path>
<path d="M 1758.09 450.581 C 1758.85 453.42 1759.05 455.335 1759.65 458.023 C 1760.31 457.466 1759.9 451.201 1759.28 450.432 C 1758.61 449.61 1758.81 439.814 1760.84 441.587 C 1761.76 444.458 1760.05 456.203 1762.91 459.592 C 1764.31 493.268 1763.68 528.392 1763.65 562.163 C 1763.64 581.746 1764.14 604.39 1761.84 623.713 C 1760.57 634.397 1756.55 644.806 1751.29 654.177 C 1750.96 651.675 1750.09 650.076 1749.09 647.776 C 1761.3 623.416 1758.07 587.978 1758.05 560.953 L 1758.09 450.581 z" fill="rgb(18,14,15)" transform="translate(0,0)"></path>
<path d="M 303.403 404.245 C 308.657 394.041 312.421 385.544 318.793 375.784 C 335.873 349.623 363.507 330.793 393.121 321.436 C 403.577 318.1 414.374 315.948 425.311 315.02 C 454.754 312.532 497.24 314.651 528.01 314.181 C 546.741 313.894 591.177 312.947 608.026 314.976 C 617.768 316.123 627.213 319.065 635.884 323.653 C 654.697 333.627 668.655 350.81 674.564 371.267 C 680.458 390.606 678.357 411.501 668.73 429.279 C 645.971 470.342 613.005 471.164 571.648 471.115 L 497.034 471.042 C 487.857 471.05 465.512 470.636 457.139 471.721 C 456.699 501.464 456.548 531.211 456.688 560.957 C 456.728 579.797 458.209 615.5 453.761 632.525 C 450.032 646.543 442.464 659.242 431.908 669.193 C 391.659 707.751 332.771 695.633 303.486 649.729 C 300.108 642.904 294.792 630.311 294.236 622.773 C 292.293 596.422 292.849 568.003 292.937 541.36 C 293.048 507.652 291.858 472.804 294.212 439.379 C 294.916 429.379 300.187 414.015 303.403 404.245 z M 355.081 597.378 C 354.995 603.785 353.106 610.826 357.764 615.064 C 360.271 608.233 359.18 594 359.03 586.006 C 359.677 580.088 359.239 566.791 358.977 560.599 C 359.287 558.397 359.254 558.347 359.113 556.028 C 361.072 539.616 359.155 510.171 359.853 492.105 C 358.802 483.942 361.106 455.211 356.717 451.335 L 355.251 451.831 C 354.023 498.899 354.084 550.238 355.081 597.378 z M 576.766 367.562 C 579.065 367.404 582.011 367.514 584.007 366.858 C 585.691 366.305 586.016 360.827 584.412 360.388 C 581.788 359.671 577.589 359.943 574.802 359.723 L 575.173 364.556 C 575.295 366.327 575.387 366.598 576.766 367.562 z" fill="rgb(250,190,34)" transform="translate(0,0)"></path>
<path d="M 355.251 451.831 C 356.408 429.494 373.769 403.692 390.479 389.798 C 429.431 357.41 475.216 358.12 522.854 359.486 C 539.577 359.965 557.906 358.211 574.802 359.723 L 575.173 364.556 C 575.295 366.327 575.387 366.598 576.766 367.562 C 511.397 370.966 435.59 353.252 387.255 406.132 C 370.413 424.558 364.627 442.813 363.144 467.135 C 363.384 471.188 363.857 484.988 363.623 488.086 C 362.457 503.523 366.238 609.448 361.992 615.474 C 358.48 616.61 360.189 616.616 356.687 615.46 L 357.764 615.064 C 360.271 608.233 359.18 594 359.03 586.006 C 359.677 580.088 359.239 566.791 358.977 560.599 C 359.287 558.397 359.254 558.347 359.113 556.028 C 361.072 539.616 359.155 510.171 359.853 492.105 C 358.802 483.942 361.106 455.211 356.717 451.335 L 355.251 451.831 z" fill="rgb(254,252,225)" transform="translate(0,0)"></path>
<path d="M 355.251 451.831 L 356.717 451.335 C 361.106 455.211 358.802 483.942 359.853 492.105 C 359.155 510.171 361.072 539.616 359.113 556.028 C 358.266 548.575 359.243 499.69 358.422 498.101 C 357.36 498.44 357.107 514.119 356.801 516.509 C 356.129 521.776 356.609 558.843 358.977 560.599 C 359.239 566.791 359.677 580.088 359.03 586.006 C 355.554 584.75 355.795 594.137 355.081 597.378 C 354.084 550.238 354.023 498.899 355.251 451.831 z" fill="rgb(254,252,225)" fill-opacity="0.47451" transform="translate(0,0)"></path>
<path d="M 358.977 560.599 C 356.609 558.843 356.129 521.776 356.801 516.509 C 357.107 514.119 357.36 498.44 358.422 498.101 C 359.243 499.69 358.266 548.575 359.113 556.028 C 359.254 558.347 359.287 558.397 358.977 560.599 z" fill="rgb(254,252,225)" fill-opacity="0.34902" transform="translate(0,0)"></path>
<path d="M 355.081 597.378 C 355.795 594.137 355.554 584.75 359.03 586.006 C 359.18 594 360.271 608.233 357.764 615.064 C 353.106 610.826 354.995 603.785 355.081 597.378 z" fill="rgb(254,253,252)" fill-opacity="0.117647" transform="translate(0,0)"></path>
<path d="M 574.802 359.723 C 577.589 359.943 581.788 359.671 584.412 360.388 C 586.016 360.827 585.691 366.305 584.007 366.858 C 582.011 367.514 579.065 367.404 576.766 367.562 C 575.387 366.598 575.295 366.327 575.173 364.556 L 574.802 359.723 z" fill="rgb(254,252,225)" fill-opacity="0.301961" transform="translate(0,0)"></path>
<path d="M 1034.6 380.868 C 1081.83 363.717 1173.55 332.751 1226.02 316.411 C 1226.91 316.798 1227.8 317.186 1228.7 317.573 C 1228.56 322.319 1224.83 322.955 1224.89 324.77 L 1225.1 324.538 L 1225.9 324.66 C 1228.22 323.434 1229.04 320.905 1233.55 318.263 C 1230.64 324.449 1214.74 338.742 1208.82 344.444 C 1208.03 341.542 1208.15 341.67 1206.41 339.326 L 1128.59 416.329 C 1131.1 425.23 1133.2 440.755 1135.32 450.677 C 1142.17 482.919 1148.05 515.012 1155.19 547.23 C 1140.15 530.72 1119.33 499.093 1105.32 479.926 L 1061.34 419.109 C 1052.74 407.183 1042.03 393.192 1034.6 380.868 z" fill="rgb(250,190,34)" transform="translate(0,0)"></path>
<path d="M 1228.7 317.573 C 1228.56 322.319 1224.83 322.955 1224.89 324.77 L 1225.1 324.538 L 1225.9 324.66 C 1228.22 323.434 1229.04 320.905 1233.55 318.263 C 1230.64 324.449 1214.74 338.742 1208.82 344.444 C 1208.03 341.542 1208.15 341.67 1206.41 339.326 C 1213.71 332.006 1221.3 324.939 1228.7 317.573 z" fill="rgb(18,14,15)" transform="translate(0,0)"></path>
<path d="M 993.564 241.113 C 1000.61 228.657 1019.61 189.015 1027.39 181.266 L 1029.12 180.896 C 1030.27 184.181 1029.96 195.209 1029.86 199.222 C 1028.47 257.862 1030.79 317.019 1029.74 375.606 C 989.163 364.565 947.237 348.571 907.055 335.354 C 896.563 331.903 857.54 319.299 849.433 315.08 L 851.078 311.728 C 885.416 308.851 929.383 305.896 962.937 301.257 L 984.484 259.178 C 986.993 253.926 991.796 246.258 993.564 241.113 z" fill="rgb(250,190,34)" transform="translate(0,0)"></path>
<path d="M 664.797 633.347 C 665.04 633.253 665.283 633.159 665.527 633.066 C 670.713 630.997 676.06 629.357 681.514 628.162 C 687.298 626.896 692.454 626.103 698.354 625.859 C 693.706 628.301 680.299 629.442 679.181 630.606 L 679.266 630.844 C 688.145 630.363 693.13 627.119 701.661 629.748 C 686.798 631.496 679.294 632.945 665.114 637.402 C 664.652 636.378 664.711 636.739 664.86 636.102 C 665.734 635.287 665.13 634.282 664.797 633.347 z" fill="rgb(15,11,14)" transform="translate(0,0)"></path>
<path d="M 849.433 315.08 C 848.265 314.678 844.264 313.841 843.701 312.943 C 843.672 311.599 850.255 311.773 851.078 311.728 L 849.433 315.08 z" fill="rgb(246,174,44)" transform="translate(0,0)"></path>
<path d="M 1030.33 384.681 C 1042.75 402.797 1147.03 544.693 1147.61 550.146 C 1142.11 551.628 1123.48 540.502 1117.49 537.366 L 1060.15 506.934 C 1049.64 501.293 1037.36 493.897 1026.55 489.527 C 1013.06 497.429 990.772 508.668 976.464 516.312 C 959.016 525.634 922.186 547.498 904.862 552.234 C 913.346 538.063 935.386 511.315 946.108 496.981 C 973.674 460.128 1001.62 420.283 1030.33 384.681 z" fill="rgb(250,190,34)" transform="translate(0,0)"></path>
<path d="M 840.799 318.663 C 866.171 326.837 890.425 335.698 915.594 344.205 L 1025.27 380.816 C 1010.46 403.095 989.687 429.624 973.342 451.261 L 900.303 547.933 C 901.247 534.654 909.457 502.042 912.955 487 C 917.887 465.798 923.108 436.731 928.891 416.407 C 901.678 386.378 866.9 352.515 838.029 323.554 C 838.985 321.943 839.909 320.312 840.799 318.663 z" fill="rgb(250,190,34)" transform="translate(0,0)"></path>
<path d="M 1035.1 181.001 C 1041.51 190.601 1052.86 214.677 1058.44 225.767 C 1071.43 251.008 1084.15 276.384 1096.6 301.891 C 1128.12 305.251 1160.68 306.383 1192.26 309.959 C 1198.51 310.666 1205.11 311.048 1211.41 311.305 L 1209.48 315.946 C 1194.02 321.99 1172.81 327.786 1156.55 333.169 C 1115.82 346.424 1075.28 360.226 1034.92 374.571 L 1035.1 181.001 z" fill="rgb(250,190,34)" transform="translate(0,0)"></path>
<path d="M 838.029 323.554 C 837.148 322.638 832.573 318.579 833.68 316.853 C 834.815 316.295 838.756 318.054 839.966 318.419 L 840.799 318.663 C 839.909 320.312 838.985 321.943 838.029 323.554 z" fill="rgb(246,174,44)" transform="translate(0,0)"></path>
<path d="M 1211.41 311.305 C 1219.9 313.133 1215.13 314.138 1209.48 315.946 L 1211.41 311.305 z" fill="rgb(246,174,44)" transform="translate(0,0)"></path>
<path d="M 461.13 476.161 C 466.505 476.053 470.378 475.774 475.718 476.831 C 508.126 518.511 526.584 558.76 520.562 613.394 C 515.782 656.758 490.797 692.624 457.027 719.072 C 440.56 731.968 383.688 755.173 364.686 747.666 C 363.734 744.698 363.884 743.46 363.848 740.402 C 363.623 739.387 362.721 731.826 362.657 731.757 C 361.856 733.008 363.884 741.338 360.896 749.215 C 360.615 749.974 360.345 750.738 360.085 751.505 C 360.029 733.213 360.633 714.847 359.942 696.583 C 359.923 696.097 355.219 694.614 354.692 694.398 C 355.447 694.04 355.269 693.82 355.978 693.988 L 358.482 694.348 C 362.302 694.879 367.61 695.32 370.975 695.963 C 392.066 701.043 424.697 685.489 439.155 669.913 C 448.686 659.712 455.405 647.211 458.655 633.635 C 462.644 617.211 461.447 585.163 461.506 566.799 C 461.896 536.587 461.771 506.369 461.13 476.161 z" fill="rgb(30,31,135)" transform="translate(0,0)"></path>
<path d="M 354.692 694.398 C 355.447 694.04 355.269 693.82 355.978 693.988 L 358.482 694.348 C 362.302 694.879 367.61 695.32 370.975 695.963 C 370.857 695.967 364.942 696.002 364.884 696.622 C 363.551 710.987 364.372 725.905 363.848 740.402 C 363.623 739.387 362.721 731.826 362.657 731.757 C 361.856 733.008 363.884 741.338 360.896 749.215 C 360.615 749.974 360.345 750.738 360.085 751.505 C 360.029 733.213 360.633 714.847 359.942 696.583 C 359.923 696.097 355.219 694.614 354.692 694.398 z" fill="rgb(18,14,15)" transform="translate(0,0)"></path>
<path d="M 475.718 476.831 L 482.021 476.176 C 489.294 486.133 498.298 497.985 504.364 508.447 C 523.542 541.526 530.516 582.79 524.461 620.487 C 517.413 662.202 494.107 699.419 459.655 723.973 C 432.04 743.893 398.792 754.487 364.743 754.214 C 364.904 779.73 365.821 811.508 364.793 836.533 C 361.664 817.164 366.541 793.089 360.318 769.387 L 360.085 751.505 C 360.345 750.738 360.615 749.974 360.896 749.215 C 363.884 741.338 361.856 733.008 362.657 731.757 C 362.721 731.826 363.623 739.387 363.848 740.402 C 363.884 743.46 363.734 744.698 364.686 747.666 C 383.688 755.173 440.56 731.968 457.027 719.072 C 490.797 692.624 515.782 656.758 520.562 613.394 C 526.584 558.76 508.126 518.511 475.718 476.831 z" fill="rgb(15,11,14)" transform="translate(0,0)"></path>
<path d="M 451.801 796.968 C 452.634 812.562 449.71 827.616 449.895 843.023 C 450.407 885.705 451.556 928.356 451.148 971.052 C 451.083 977.885 451.264 984.492 451.738 991.314 C 448.73 991.728 450.661 995.182 446.878 992.118 C 442.137 988.279 444.848 985.093 443.442 979.95 L 443.392 979.963 C 443.199 980.578 443.005 981.193 442.812 981.808 C 440.87 975.66 442.713 838.035 442.985 825.282 C 443.228 824.66 443.978 822.072 444.577 821.648 L 444.692 821.702 C 444.935 822.567 444.883 824.456 445.478 824.935 C 450.288 823.691 451.432 800.602 451.801 796.968 z" fill="rgb(254,253,252)" fill-opacity="0.403922" transform="translate(0,0)"></path>
<path d="M 446.139 1178.48 C 447.189 1184.59 447.302 1199.51 447.454 1205.96 C 448.153 1199.55 448.779 1191.5 450.351 1185.41 C 451.456 1187.79 451.112 1195.97 451.142 1199.17 C 451.774 1190.73 452.185 1180.57 454.971 1172.55 C 455.197 1200.36 455.233 1228.17 455.079 1255.98 C 455.062 1267.72 455.048 1279.41 455.331 1291.14 C 455.407 1294.3 452.665 1298.71 449.621 1299.8 C 443.473 1296.25 446.009 1272.97 445.996 1265.21 C 445.881 1236.3 445.929 1207.39 446.139 1178.48 z" fill="rgb(254,253,252)" fill-opacity="0.964706" transform="translate(0,0)"></path>
<path d="M 450.202 1099.12 L 450.809 1103.01 C 450.838 1104.64 450.988 1110.34 452.546 1111.06 C 453.261 1110.76 453.974 1110.25 454.76 1110.37 C 455.549 1111.06 455.481 1111.35 455.824 1112.45 L 456.237 1113.76 C 455.598 1125.48 456.161 1165.18 454.971 1172.55 C 452.185 1180.57 451.774 1190.73 451.142 1199.17 C 451.112 1195.97 451.456 1187.79 450.351 1185.41 C 448.779 1191.5 448.153 1199.55 447.454 1205.96 C 447.302 1199.51 447.189 1184.59 446.139 1178.48 C 444.335 1164.38 445.296 1112.53 450.202 1099.12 z" fill="rgb(254,253,252)" fill-opacity="0.694118" transform="translate(0,0)"></path>
<path d="M 461.269 1078.8 L 462.653 1078.16 C 464.077 1077.5 476.699 1068.84 475.046 1076.26 C 464.269 1087.31 458.362 1098.39 456.237 1113.76 L 455.824 1112.45 C 455.481 1111.35 455.549 1111.06 454.76 1110.37 C 453.974 1110.25 453.261 1110.76 452.546 1111.06 C 450.988 1110.34 450.838 1104.64 450.809 1103.01 C 455.441 1104.43 460.018 1096.05 453.239 1092.73 C 453.865 1089.7 459.324 1081.42 461.269 1078.8 z" fill="rgb(252,249,253)" fill-opacity="0.458824" transform="translate(0,0)"></path>
<path d="M 499.254 1053.69 C 505.309 1058.57 499.59 1058.56 493.792 1062.27 C 487.421 1066.37 481.334 1070.9 475.575 1075.82 C 475.399 1075.97 475.223 1076.11 475.046 1076.26 C 476.699 1068.84 464.077 1077.5 462.653 1078.16 L 461.269 1078.8 C 465.675 1072.9 477.842 1059.83 484.484 1057.31 C 493.083 1062.89 495.386 1060.6 499.254 1053.69 z" fill="rgb(252,249,253)" fill-opacity="0.882353" transform="translate(0,0)"></path>
<path d="M 442.812 981.808 C 443.005 981.193 443.199 980.578 443.392 979.963 L 443.442 979.95 C 444.848 985.093 442.137 988.279 446.878 992.118 C 450.661 995.182 448.73 991.728 451.738 991.314 C 452.233 994.489 452.928 997.624 453.507 1000.78 C 452.323 1005.3 452.24 1003.58 452.477 1007.5 C 449.938 1005.83 446.881 1002.57 445.626 1003.06 C 442.954 997.304 443.159 988.187 442.812 981.808 z" fill="rgb(254,253,252)" fill-opacity="0.109804" transform="translate(0,0)"></path>
<path d="M 487.454 1048.19 C 492.022 1049.55 495.021 1051.6 499.254 1053.69 C 495.386 1060.6 493.083 1062.89 484.484 1057.31 L 486.154 1056.47 C 487.544 1052.68 487.761 1052.12 487.454 1048.19 z" fill="rgb(254,253,252)" fill-opacity="0.188235" transform="translate(0,0)"></path>
<path d="M 485.298 1046.08 C 486.017 1046.78 486.735 1047.49 487.454 1048.19 C 487.761 1052.12 487.544 1052.68 486.154 1056.47 C 480.297 1053.74 476.713 1051.11 472.023 1046.69 C 479.744 1047.03 477.287 1047.2 484.375 1046.21 L 485.298 1046.08 z" fill="rgb(254,253,252)" fill-opacity="0.988235" transform="translate(0,0)"></path>
<path d="M 476.713 1039.53 L 478.216 1040.72 C 480.507 1042.6 482.925 1044.31 485.298 1046.08 L 484.375 1046.21 C 477.287 1047.2 479.744 1047.03 472.023 1046.69 C 470.751 1045.28 469.527 1044.26 468.116 1042.98 C 471.536 1039.6 471.818 1039.84 476.713 1039.53 z" fill="rgb(254,253,252)" fill-opacity="0.258824" transform="translate(0,0)"></path>
<path d="M 453.239 1092.73 C 460.018 1096.05 455.441 1104.43 450.809 1103.01 L 450.202 1099.12 L 453.239 1092.73 z" fill="rgb(252,249,253)" fill-opacity="0.364706" transform="translate(0,0)"></path>
<path d="M 1137.4 431.123 C 1217.49 430.363 1297.59 430.361 1377.68 431.117 C 1383.02 439.716 1388.36 447.356 1395.78 454.311 C 1406 463.75 1418.51 470.339 1432.07 473.419 C 1448.6 477.283 1482.2 475.981 1500.52 475.943 C 1522.18 475.898 1547.44 476.873 1568.65 476.138 C 1572.2 475.504 1572.15 475.351 1575.84 476.184 C 1580.81 477.318 1585.7 476.921 1590.84 476.832 C 1590.43 507.209 1590.18 537.588 1590.1 567.967 C 1590.03 588.928 1587.17 639.136 1602.4 654.777 C 1605.8 656.414 1608.16 660.705 1610.11 661.203 L 1610.25 660.902 L 1609.33 659.75 L 1608.81 659.938 C 1605.81 656.263 1602.85 650.692 1602.5 645.944 C 1639.05 705.732 1712.71 709.16 1749.09 647.776 C 1750.09 650.076 1750.96 651.675 1751.29 654.177 C 1738.83 674.912 1718.67 689.878 1695.22 695.807 C 1693.83 696.155 1692.44 696.482 1691.04 696.787 L 1691.19 836.496 C 1691.16 864.465 1691.65 894.398 1690.89 922.24 C 1687.58 928.321 1691.92 988.576 1689.49 996.812 C 1688.61 993.093 1689.55 985.736 1689.21 981.103 C 1687.89 963.158 1689.39 941.759 1687.69 924.185 C 1687.54 928.884 1687.48 937.155 1686.84 941.465 C 1685.74 971.935 1685.91 1004.72 1686.24 1035.24 C 1687.15 1117.92 1684.46 1202.08 1686.93 1284.59 C 1686.15 1290.47 1686.62 1315.6 1686.61 1322.88 C 1640.78 1326.53 1601.95 1338.54 1569.85 1372.82 C 1501.91 1445.39 1513.74 1551.53 1583.79 1616.96 C 1550.34 1616.27 1516.43 1617.3 1482.92 1616.81 C 1468.01 1616.59 1449.06 1616.04 1434.77 1619.17 C 1421.42 1622.01 1408.96 1628.09 1398.49 1636.86 C 1380.56 1651.84 1370.51 1671.74 1368.4 1694.92 L 1155.15 1694.89 L 1096.84 1695.12 C 1085.68 1695.18 1074.35 1695.59 1063.2 1694.53 C 1048.94 1693.95 1029.99 1677.93 1028.41 1663.31 C 1025.9 1640.18 1026.97 1613.12 1026.99 1589.63 L 1026.91 1445.99 C 1106.21 1402.34 1153.42 1398.75 1240.52 1414.03 C 1248.39 1443.54 1262.99 1464.3 1289.08 1480.98 C 1314.56 1497.09 1345.36 1502.53 1374.82 1496.13 C 1405.48 1489.24 1429.62 1471.18 1446.14 1444.57 C 1461.71 1419.9 1466.72 1390.01 1460.02 1361.62 C 1450.54 1321.99 1430.57 1302.92 1397.5 1282.71 C 1369.48 1170.43 1367.41 1020.86 1383.41 906.674 C 1386.42 885.196 1393.03 859.057 1398.14 837.668 C 1428.26 820.316 1449.81 800.306 1459.1 765.258 C 1466.83 736.2 1462.47 705.252 1447.02 679.459 C 1431.94 654.179 1407.4 635.959 1378.84 628.837 C 1319.93 613.979 1255.47 648.312 1241.1 708.264 C 1218.71 713.602 1199.43 717.672 1176.26 719.514 C 1136.85 721.948 1097.41 715.256 1061.01 699.96 C 1049.07 694.826 1038.35 688.748 1026.74 683.035 C 1026.79 621.209 1026 557.053 1027.26 495.412 C 1040.42 502.85 1137.13 556.333 1145.25 555.949 C 1149.17 555.763 1154.29 554.179 1156.83 550.981 C 1158.48 548.907 1159.05 547.231 1159.01 544.573 C 1158.87 535.262 1155.51 524.807 1153.72 515.561 C 1148.3 487.514 1141.69 459.353 1137.4 431.123 z M 1600.23 1083.47 C 1598.38 1058.56 1586.84 1036.07 1565.96 1021.96 C 1562.68 1019.74 1562.26 1018.67 1564.87 1016.08 C 1567.58 1015.05 1571.54 1013.17 1573.2 1010.8 C 1588.03 999.69 1593.24 990.847 1598.6 973.081 C 1600.08 968.153 1600.56 967.038 1600.83 962.013 C 1602.98 941.361 1601.19 907.243 1601.41 885.492 C 1601.55 871.776 1602.24 837.505 1600.95 825.028 C 1601.11 809.659 1602.16 791.802 1600.31 776.753 C 1599.23 775.354 1595.74 774.638 1594.62 776.223 C 1591.63 780.447 1593.04 794.255 1593.17 799.421 L 1593.14 806.38 C 1592.14 818.558 1592.42 834.976 1592.37 847.492 L 1592.39 919.488 C 1592.4 936.529 1592.64 952.049 1590.71 969.025 C 1588.16 976.846 1583.11 989.016 1577.44 994.734 C 1570.2 1002.04 1574.08 999.052 1570.33 1006.13 C 1570.14 1005.4 1569.81 1003.8 1569.44 1003.23 C 1568.01 1003.82 1559.59 1009.64 1556.84 1011.16 C 1555.88 1011.49 1554.64 1012.09 1554.51 1011.96 C 1553.57 1011.44 1542.56 1017.53 1545.13 1019.5 C 1551.4 1024.3 1558.23 1025.69 1564.82 1031.56 C 1581.42 1046.33 1589.9 1066.06 1592.35 1087.88 C 1593.53 1142.7 1592.81 1197.61 1594.97 1252.4 C 1595.11 1255.98 1593.74 1263.68 1592.64 1266.99 L 1593.92 1268.7 C 1593.7 1273.47 1592.51 1284.07 1594.71 1288.27 C 1595.41 1289.61 1599.33 1290.29 1600.56 1288.5 C 1602.96 1285.05 1601.42 1276.66 1601.21 1272.78 C 1601.41 1268.5 1601.2 1264.58 1601.03 1260.32 C 1601.55 1256.07 1601.21 1239.48 1601.2 1234.36 L 1601.05 1180.26 L 1600.86 1120.2 C 1600.85 1109.99 1601.35 1092.86 1600.23 1083.47 z" fill="rgb(48,54,176)" transform="translate(0,0)"></path>
<path d="M 1575.84 476.184 C 1580.81 477.318 1585.7 476.921 1590.84 476.832 C 1590.43 507.209 1590.18 537.588 1590.1 567.967 C 1590.03 588.928 1587.17 639.136 1602.4 654.777 C 1621.22 686.708 1651.27 697.498 1686.64 697.057 L 1686.43 748.226 C 1650.07 748.33 1614.82 735.734 1586.77 712.612 C 1510.24 650.117 1515.99 548.26 1575.84 476.184 z" fill="rgb(30,31,135)" transform="translate(0,0)"></path>
<path d="M 1568.65 476.138 C 1572.2 475.504 1572.15 475.351 1575.84 476.184 C 1515.99 548.26 1510.24 650.117 1586.77 712.612 C 1614.82 735.734 1650.07 748.33 1686.43 748.226 L 1686.64 697.057 C 1651.27 697.498 1621.22 686.708 1602.4 654.777 C 1605.8 656.414 1608.16 660.705 1610.11 661.203 L 1610.25 660.902 L 1609.33 659.75 L 1608.81 659.938 C 1605.81 656.263 1602.85 650.692 1602.5 645.944 C 1639.05 705.732 1712.71 709.16 1749.09 647.776 C 1750.09 650.076 1750.96 651.675 1751.29 654.177 C 1738.83 674.912 1718.67 689.878 1695.22 695.807 C 1693.83 696.155 1692.44 696.482 1691.04 696.787 L 1691.19 836.496 C 1691.16 864.465 1691.65 894.398 1690.89 922.24 C 1687.58 928.321 1691.92 988.576 1689.49 996.812 C 1688.61 993.093 1689.55 985.736 1689.21 981.103 C 1687.89 963.158 1689.39 941.759 1687.69 924.185 C 1687.54 928.884 1687.48 937.155 1686.84 941.465 C 1685.34 925.48 1686.14 889.669 1686.26 872.942 L 1686.93 753.547 C 1662.5 752.742 1646.75 750.823 1623.79 741.145 C 1583.62 724.314 1551.8 692.188 1535.35 651.859 C 1514.54 600.181 1524.53 537.454 1556.78 492.798 C 1558.85 489.942 1568.14 478.446 1568.65 476.138 z" fill="rgb(15,11,14)" transform="translate(0,0)"></path>
<path d="M 1592.35 1087.88 C 1592.93 1088.21 1592.93 1088.28 1593.52 1088.4 C 1594.09 1088.16 1594.54 1088.14 1595.16 1088.22 C 1595.5 1088.18 1595.83 1088.13 1596.17 1088.09 C 1596.22 1088.1 1596.26 1088.12 1596.3 1088.13 C 1597.4 1087.62 1597.27 1085.86 1597.74 1084.67 L 1598.21 1084.51 L 1598.21 1084.41 C 1599.16 1085.98 1597.89 1089.92 1599.33 1091.84 L 1599.37 1091.85 C 1599.74 1091.3 1600.11 1084.79 1600.23 1083.47 C 1601.35 1092.86 1600.85 1109.99 1600.86 1120.2 L 1601.05 1180.26 L 1601.2 1234.36 C 1601.21 1239.48 1601.55 1256.07 1601.03 1260.32 L 1600.35 1262.15 C 1600.02 1263.05 1599.94 1263.61 1599.76 1264.55 L 1599.4 1264.84 L 1599.44 1265.18 C 1597.1 1262.72 1595.97 1263.91 1593.42 1266.28 L 1592.64 1266.99 C 1593.74 1263.68 1595.11 1255.98 1594.97 1252.4 C 1592.81 1197.61 1593.53 1142.7 1592.35 1087.88 z" fill="rgb(254,253,252)" fill-opacity="0.25098" transform="translate(0,0)"></path>
<path d="M 1593.17 799.421 C 1593.87 802.159 1595.09 810.393 1597.42 811.336 C 1601.95 813.165 1600.19 819.345 1600.95 825.028 C 1602.24 837.505 1601.55 871.776 1601.41 885.492 C 1601.19 907.243 1602.98 941.361 1600.83 962.013 C 1596.17 959.984 1595.33 956.686 1595.06 951.71 C 1592.89 912.352 1599.15 873.195 1595.24 833.676 C 1594.38 824.965 1595.62 814.726 1593.14 806.38 L 1593.17 799.421 z" fill="rgb(254,253,252)" fill-opacity="0.243137" transform="translate(0,0)"></path>
<path d="M 1593.14 806.38 C 1595.62 814.726 1594.38 824.965 1595.24 833.676 C 1599.15 873.195 1592.89 912.352 1595.06 951.71 C 1595.33 956.686 1596.17 959.984 1600.83 962.013 C 1600.56 967.038 1600.08 968.153 1598.6 973.081 C 1598.22 972.967 1597.84 972.863 1597.45 972.77 C 1593.5 971.849 1594.3 969.897 1590.71 969.025 C 1592.64 952.049 1592.4 936.529 1592.39 919.488 L 1592.37 847.492 C 1592.42 834.976 1592.14 818.558 1593.14 806.38 z" fill="rgb(252,249,253)" fill-opacity="0.541176" transform="translate(0,0)"></path>
<path d="M 1556.84 1011.16 C 1559.59 1009.64 1568.01 1003.82 1569.44 1003.23 C 1569.81 1003.8 1570.14 1005.4 1570.33 1006.13 C 1571.54 1008.56 1571.64 1008.68 1573.2 1010.8 C 1571.54 1013.17 1567.58 1015.05 1564.87 1016.08 C 1563.84 1011.86 1561.1 1012.59 1556.84 1011.16 z" fill="rgb(254,253,252)" fill-opacity="0.443137" transform="translate(0,0)"></path>
<path d="M 1592.64 1266.99 L 1593.42 1266.28 C 1595.97 1263.91 1597.1 1262.72 1599.44 1265.18 L 1599.4 1264.84 L 1599.76 1264.55 C 1599.94 1263.61 1600.02 1263.05 1600.35 1262.15 L 1601.03 1260.32 C 1601.2 1264.58 1601.41 1268.5 1601.21 1272.78 C 1597.87 1270.17 1599.68 1273.24 1597.52 1273.84 C 1594.84 1273.16 1596.97 1269.56 1595.39 1268.27 C 1594.74 1268.17 1594.73 1268.33 1593.92 1268.7 L 1592.64 1266.99 z" fill="rgb(252,249,253)" fill-opacity="0.0627451" transform="translate(0,0)"></path>
<path d="M 1245 712.111 C 1245.64 709.83 1246.31 707.56 1247.03 705.301 C 1255.52 678.537 1276.34 654.399 1301.39 641.656 C 1326.98 628.779 1356.62 626.535 1383.85 635.415 C 1411.35 644.624 1433.99 664.511 1446.66 690.597 C 1459 715.463 1460.94 744.218 1452.04 770.513 C 1441.33 801.736 1422.13 818.993 1393.48 833.192 C 1357.48 970.704 1361.46 1147.98 1392.57 1286.1 C 1422.21 1303.21 1442.03 1320.17 1452.55 1354.26 C 1461.04 1381.61 1458.12 1411.22 1444.47 1436.39 C 1431.08 1461.7 1408.17 1480.64 1380.8 1489.03 C 1353.55 1497.07 1324.24 1494.06 1299.18 1480.66 C 1269.85 1464.64 1253.2 1442.29 1243.91 1410.65 C 1243.17 1410.44 1242.43 1410.24 1241.69 1410.05 C 1166.49 1390.45 1093.87 1401.26 1026.96 1440.5 C 1026.34 1387.41 1026.34 1334.31 1026.97 1281.22 C 1075.32 1264.24 1142.74 1260.21 1193.5 1264.83 C 1203.35 1265.73 1239.03 1271.41 1245.13 1270.48 C 1247.28 1265.31 1242.06 1238.98 1241.17 1231.93 C 1238.09 1208.04 1235.76 1184.05 1234.18 1160.01 C 1230.1 1096.61 1230.38 1033.02 1235.01 969.661 C 1236.89 945.881 1239.26 922.142 1242.1 898.458 C 1243.29 888.559 1248.23 862.44 1247.2 854.922 C 1246.79 854.39 1246.38 853.857 1245.97 853.324 C 1237.82 853.115 1219 856.669 1211.55 857.632 C 1147.82 865.867 1088.3 859.858 1027.2 840.804 L 1026.93 688.803 C 1030.56 690.823 1034.47 692.688 1038.19 694.549 C 1075.33 716.345 1138.15 729.128 1181.32 724.021 C 1200.18 723.652 1226.6 716.969 1245 712.111 z" fill="rgb(250,190,34)" transform="translate(0,0)"></path>
<path d="M 701.661 629.748 C 737.658 631.96 759.252 637.897 785.237 665.881 C 801.057 682.917 803.327 695.545 811.412 715.441 C 880.388 731.348 954.314 728.149 1015.7 689.583 C 1017.48 688.464 1019.24 687.312 1020.97 686.126 C 1022.99 690.878 1021.54 824.393 1021.48 841.461 C 969.013 858.987 912.53 864.211 857.537 859.719 C 840.223 858.305 823.049 854.926 806.256 853.709 C 808.464 879.998 814.69 910.189 817.228 938.864 C 824.642 1026.51 824.151 1114.64 815.762 1202.2 C 814.731 1212.58 806.848 1263.55 808.044 1269.64 C 809.995 1270.96 810.987 1271.15 813.456 1270.75 C 883.262 1259.41 952.438 1258.34 1021.48 1279.54 L 1021.91 1439.3 C 1015.49 1434.92 1008.83 1430.91 1001.95 1427.29 C 954.209 1402 898.031 1396.03 845.184 1403.91 C 834.252 1405.54 821.403 1407.43 810.923 1410.62 C 810.59 1412.23 810.218 1413.84 809.81 1415.44 C 795.444 1472.47 733.34 1504.4 677.386 1489.15 C 650.037 1481.8 626.771 1463.81 612.79 1439.18 C 598.445 1413.84 594.924 1383.78 603.021 1355.8 C 612.882 1321.4 633.385 1302.52 663.354 1285.8 C 667.191 1267.98 670.098 1243.09 672.807 1224.79 C 687.621 1124.75 690.303 1024.23 676.198 923.942 C 671.683 891.839 667.601 865.226 659.265 833.665 C 638.061 821.197 621.491 807.731 610.089 785.346 C 597.07 759.565 594.852 729.662 603.924 702.242 C 614.852 669.395 635.324 652.259 665.114 637.402 C 679.294 632.945 686.798 631.496 701.661 629.748 z M 665.318 680.39 C 660.953 686.705 658.802 693.022 657.818 700.485 C 657.11 705.854 654.79 712.442 662.498 712.762 C 663.161 712.789 663.802 712.303 664.32 711.974 C 664.912 708.75 667.688 699.744 666.001 696.975 C 662.717 691.585 670.77 685.86 670.576 684.259 L 670.493 684.171 C 669.694 684.649 669.902 684.59 669.136 684.722 C 667.011 682.127 669.811 683.159 665.318 680.39 z M 684.105 792.442 C 683.79 792.731 679.098 796.473 679.843 797.587 C 687.085 808.409 696.591 817.752 701.685 830.114 C 706.914 843.166 708.061 853.358 708.4 866.996 C 708.392 866.667 708.43 868.647 708.55 868.964 C 708.836 868.564 709.121 868.164 709.407 867.765 C 713.49 873.755 703.429 874.617 711.47 882.704 L 712.927 881.671 C 728.707 871.581 704.933 796.769 684.105 792.442 z M 659.85 766.339 C 666.502 758.421 661.976 759.99 665.53 751.911 C 664.718 747.552 665.827 733.293 659.5 734.944 C 653.925 736.398 655.544 749.993 656.222 753.833 C 657.039 757.757 657.908 759.924 659.246 763.735 C 659.441 764.609 659.619 765.473 659.85 766.339 z" fill="rgb(250,190,34)" transform="translate(0,0)"></path>
<path d="M 684.105 792.442 C 704.933 796.769 728.707 871.581 712.927 881.671 L 711.47 882.704 C 703.429 874.617 713.49 873.755 709.407 867.765 C 709.121 868.164 708.836 868.564 708.55 868.964 C 708.43 868.647 708.392 866.667 708.4 866.996 C 708.061 853.358 706.914 843.166 701.685 830.114 C 696.591 817.752 687.085 808.409 679.843 797.587 C 679.098 796.473 683.79 792.731 684.105 792.442 z" fill="rgb(254,252,225)" fill-opacity="0.984314" transform="translate(0,0)"></path>
<path d="M 665.318 680.39 C 669.811 683.159 667.011 682.127 669.136 684.722 C 669.902 684.59 669.694 684.649 670.493 684.171 L 670.576 684.259 C 670.77 685.86 662.717 691.585 666.001 696.975 C 667.688 699.744 664.912 708.75 664.32 711.974 C 663.802 712.303 663.161 712.789 662.498 712.762 C 654.79 712.442 657.11 705.854 657.818 700.485 C 658.802 693.022 660.953 686.705 665.318 680.39 z" fill="rgb(254,253,252)" fill-opacity="0.00784314" transform="translate(0,0)"></path>
<path d="M 656.222 753.833 C 655.544 749.993 653.925 736.398 659.5 734.944 C 665.827 733.293 664.718 747.552 665.53 751.911 C 661.976 759.99 666.502 758.421 659.85 766.339 C 659.619 765.473 659.441 764.609 659.246 763.735 C 660.239 760.55 663.077 751.659 656.222 753.833 z" fill="rgb(254,252,225)" fill-opacity="0.858824" transform="translate(0,0)"></path>
<path d="M 659.85 766.339 C 666.502 758.421 661.976 759.99 665.53 751.911 C 666.76 756.505 670.88 767.383 670.154 772.029 C 670.052 772.68 668.684 773.482 667.964 773.66 C 663.358 774.796 662.374 768.946 659.85 766.339 z" fill="rgb(254,252,225)" transform="translate(0,0)"></path>
<path d="M 656.222 753.833 C 663.077 751.659 660.239 760.55 659.246 763.735 C 657.908 759.924 657.039 757.757 656.222 753.833 z" fill="rgb(254,252,225)" fill-opacity="0.752941" transform="translate(0,0)"></path>
<path d="M 1595 1622.13 C 1595.8 1608.47 1595.1 1589.04 1595.06 1574.85 L 1594.94 1477.53 C 1594.98 1470.12 1595.11 1463.77 1596 1456.36 C 1602.63 1401.35 1664.08 1369.01 1713.28 1394.16 C 1725.34 1400.33 1732.37 1407.38 1741.72 1417.06 C 1742.09 1418.47 1741.98 1418.43 1743.15 1419.12 C 1749.12 1417.29 1747.81 1426.88 1754.66 1429.94 C 1767.71 1451.5 1763.85 1500.9 1763.87 1526.42 C 1763.9 1564.75 1764.6 1605.13 1763.04 1643.41 C 1761.44 1645.31 1761.8 1644.86 1760.67 1647.09 C 1761.06 1650.6 1761.89 1656.85 1758.3 1659.13 C 1759.41 1654.77 1759.38 1648.71 1759.57 1644.08 L 1758.27 1643.21 C 1756.72 1656.8 1755.28 1667.1 1751.11 1680.15 C 1735.36 1729.48 1695.34 1766.23 1644.77 1777.52 C 1625.45 1781.84 1604.82 1780.94 1584.96 1780.97 L 1518.84 1781.03 C 1463.22 1781.04 1406.95 1791.13 1379.29 1730.99 C 1375.87 1721.34 1373.06 1713.07 1373.12 1702.72 C 1373.11 1680.56 1382.23 1659.37 1398.32 1644.13 C 1408.11 1634.73 1420.22 1628.08 1433.42 1624.86 C 1450.99 1620.59 1485.34 1622.05 1504.88 1622.01 C 1534.92 1621.75 1564.96 1621.79 1595 1622.13 z" fill="rgb(250,190,34)" transform="translate(0,0)"></path>
<path d="M 1743.15 1419.12 C 1749.12 1417.29 1747.81 1426.88 1754.66 1429.94 C 1767.71 1451.5 1763.85 1500.9 1763.87 1526.42 C 1763.9 1564.75 1764.6 1605.13 1763.04 1643.41 C 1761.44 1645.31 1761.8 1644.86 1760.67 1647.09 C 1761.06 1650.6 1761.89 1656.85 1758.3 1659.13 C 1759.41 1654.77 1759.38 1648.71 1759.57 1644.08 L 1758.27 1643.21 C 1757.34 1632.83 1758.4 1603.11 1758.49 1591.19 C 1758.63 1560.09 1758.6 1528.99 1758.39 1497.88 C 1758.22 1461.77 1761.57 1451.44 1743.15 1419.12 z" fill="rgb(23,17,14)" transform="translate(0,0)"></path>
<path d="M 298.881 1438.6 C 310.637 1415.68 324.552 1398.33 350.049 1389.45 C 368.885 1382.89 395.241 1386.01 412.978 1395.07 C 432.015 1404.81 446.327 1421.8 452.689 1442.22 C 459.243 1463.41 456.596 1496.58 456.998 1519.71 C 457.587 1553.51 456.095 1588.82 456.973 1622.56 C 489.871 1622.17 522.77 1621.99 555.67 1622.03 C 572.261 1622 601.786 1620.81 616.797 1624.22 C 631.265 1627.44 644.578 1634.56 655.302 1644.8 C 674.113 1663.04 681.374 1689.98 678.478 1715.6 C 672.455 1737.85 659.78 1757.98 639.159 1769.83 C 608.812 1787.26 567.368 1778.89 533.666 1780.85 C 521.366 1780.63 508.89 1781.19 496.607 1780.89 C 464.958 1780.13 431.416 1783.64 400.589 1775.48 C 359.91 1764.72 331.628 1740.32 310.929 1704.49 C 304.165 1690.36 297.283 1672.98 295.369 1657.11 C 293.188 1639.04 293.714 1620.13 293.801 1601.85 C 294.021 1555.8 293.324 1509.6 294.407 1463.57 C 294.603 1455.25 296.693 1446.55 298.881 1438.6 z M 360.534 1653.47 C 360.94 1641.53 360.926 1596.13 360.85 1581.19 C 360.844 1580.12 354.98 1579.8 353.256 1579.62 C 352.014 1599.91 353.943 1621.1 353.2 1641.56 C 352.911 1649.52 351.698 1657.21 360.534 1653.47 z M 352.71 1473.04 C 352.751 1478.28 352.705 1483.52 352.792 1488.76 C 352.912 1498.33 352.187 1515.46 353.025 1524.28 C 353.266 1530.55 352.834 1536.77 352.966 1543 C 353.286 1546.6 352.304 1553.29 354.434 1556.27 C 355.019 1557.09 360.464 1556.8 360.593 1555.65 C 361.574 1546.85 360.387 1537.47 360.858 1528.65 C 361.582 1519.98 361.536 1497.58 361.017 1488.4 C 361.694 1468.38 361.383 1442.62 360.701 1422.63 C 360.711 1420.93 363.295 1412.68 353.388 1417.45 C 352.499 1417.87 353.291 1429.64 353.316 1432.38 C 352.376 1438.58 352.586 1465.62 352.71 1473.04 z" fill="rgb(250,190,34)" transform="translate(0,0)"></path>
<path d="M 353.256 1579.62 C 354.98 1579.8 360.844 1580.12 360.85 1581.19 C 360.926 1596.13 360.94 1641.53 360.534 1653.47 C 351.698 1657.21 352.911 1649.52 353.2 1641.56 C 353.943 1621.1 352.014 1599.91 353.256 1579.62 z" fill="rgb(254,253,252)" fill-opacity="0.0862745" transform="translate(0,0)"></path>
<path d="M 353.316 1432.38 C 354.084 1433.02 353.717 1432.87 354.302 1433.04 C 355.492 1432.77 356.807 1430.54 359.346 1429.69 C 360.012 1428.39 360.436 1424.26 360.701 1422.63 C 361.383 1442.62 361.694 1468.38 361.017 1488.4 C 359.398 1481.31 359.949 1470.05 355.356 1465.8 L 354.957 1466.28 C 355.439 1468.56 356.824 1470.49 357.184 1472.81 L 357.667 1476.07 C 355.406 1472.07 355.81 1469.81 352.71 1473.04 C 352.586 1465.62 352.376 1438.58 353.316 1432.38 z" fill="rgb(254,252,225)" fill-opacity="0.862745" transform="translate(0,0)"></path>
<path d="M 357.667 1476.07 L 357.184 1472.81 C 356.824 1470.49 355.439 1468.56 354.957 1466.28 L 355.356 1465.8 C 359.949 1470.05 359.398 1481.31 361.017 1488.4 C 361.536 1497.58 361.582 1519.98 360.858 1528.65 C 360.393 1527.22 359.224 1524.04 359.403 1522.46 C 359.198 1523.28 359.397 1522.89 358.717 1523.59 C 354.933 1524.16 356.145 1520.32 353.025 1524.28 C 352.187 1515.46 352.912 1498.33 352.792 1488.76 C 353.277 1487.62 353.785 1485.62 354.544 1484.71 L 354.967 1484.68 C 356.301 1485.63 355.614 1487.47 356.609 1488.4 L 356.71 1488.33 C 357.449 1486.77 358.142 1478.22 357.667 1476.07 z" fill="rgb(254,252,225)" fill-opacity="0.635294" transform="translate(0,0)"></path>
<path d="M 353.025 1524.28 C 356.145 1520.32 354.933 1524.16 358.717 1523.59 C 359.397 1522.89 359.198 1523.28 359.403 1522.46 C 359.224 1524.04 360.393 1527.22 360.858 1528.65 C 360.387 1537.47 361.574 1546.85 360.593 1555.65 C 360.464 1556.8 355.019 1557.09 354.434 1556.27 C 352.304 1553.29 353.286 1546.6 352.966 1543 C 352.834 1536.77 353.266 1530.55 353.025 1524.28 z" fill="rgb(254,252,225)" fill-opacity="0.0392157" transform="translate(0,0)"></path>
<path d="M 353.316 1432.38 C 353.291 1429.64 352.499 1417.87 353.388 1417.45 C 363.295 1412.68 360.711 1420.93 360.701 1422.63 C 360.436 1424.26 360.012 1428.39 359.346 1429.69 C 356.807 1430.54 355.492 1432.77 354.302 1433.04 C 353.717 1432.87 354.084 1433.02 353.316 1432.38 z" fill="rgb(254,253,252)" fill-opacity="0.0196078" transform="translate(0,0)"></path>
<path d="M 352.71 1473.04 C 355.81 1469.81 355.406 1472.07 357.667 1476.07 C 358.142 1478.22 357.449 1486.77 356.71 1488.33 L 356.609 1488.4 C 355.614 1487.47 356.301 1485.63 354.967 1484.68 L 354.544 1484.71 C 353.785 1485.62 353.277 1487.62 352.792 1488.76 C 352.705 1483.52 352.751 1478.28 352.71 1473.04 z" fill="rgb(254,252,225)" fill-opacity="0.713725" transform="translate(0,0)"></path>
<path d="M 861.837 1699.94 L 864.574 1700.43 C 866.573 1713.64 866.281 1725.92 870.176 1738.91 C 874.88 1736.95 887.415 1738.24 893.758 1737.96 C 928.22 1736.45 966.179 1741.79 999.797 1734.89 C 1007.12 1733.38 1018.92 1722.82 1024.35 1718.17 C 1053.32 1745.23 1076.49 1739.08 1113.34 1738.63 C 1136.01 1738.25 1158.69 1738.09 1181.36 1738.17 C 1173.41 1766.32 1166.61 1779.45 1148.36 1802.85 C 1146.42 1804.33 1140.26 1811.24 1138.26 1813.4 C 1134.35 1817.63 1128.38 1821.46 1124.99 1825.26 C 1127.35 1830.3 1112.6 1834.63 1108.79 1841.57 C 1084.36 1857.27 1049.23 1864.91 1020.39 1863.85 C 976.162 1862.3 934.382 1843.16 904.328 1810.67 C 875.996 1780.14 860.365 1741.69 861.837 1699.94 z" fill="rgb(48,54,176)" transform="translate(0,0)"></path>
<path d="M 861.837 1699.94 L 864.574 1700.43 C 866.573 1713.64 866.281 1725.92 870.176 1738.91 C 875.28 1755.08 879.912 1767.51 888.757 1782.11 C 932.197 1853.8 1026.67 1881.62 1100.76 1840.96 C 1109.51 1836.16 1116.85 1831.11 1124.99 1825.26 C 1127.35 1830.3 1112.6 1834.63 1108.79 1841.57 C 1084.36 1857.27 1049.23 1864.91 1020.39 1863.85 C 976.162 1862.3 934.382 1843.16 904.328 1810.67 C 875.996 1780.14 860.365 1741.69 861.837 1699.94 z" fill="rgb(18,14,15)" transform="translate(0,0)"></path>
<path d="M 864.574 1700.43 C 868.655 1698.41 883.226 1699.09 888.643 1699.11 C 908.313 1699 927.985 1699.03 947.655 1699.21 C 967.69 1699.4 991.632 1702.12 1009.38 1691.27 C 1015.2 1687.71 1021.11 1677.88 1024.63 1671.99 C 1046.34 1705.58 1070.05 1699.82 1105.3 1699.85 L 1185.96 1699.53 C 1185.5 1708.97 1184.68 1729.66 1181.36 1738.17 C 1158.69 1738.09 1136.01 1738.25 1113.34 1738.63 C 1076.49 1739.08 1053.32 1745.23 1024.35 1718.17 C 1018.92 1722.82 1007.12 1733.38 999.797 1734.89 C 966.179 1741.79 928.22 1736.45 893.758 1737.96 C 887.415 1738.24 874.88 1736.95 870.176 1738.91 C 866.281 1725.92 866.573 1713.64 864.574 1700.43 z" fill="rgb(30,31,135)" transform="translate(0,0)"></path>
<path d="M 1027.42 846.179 C 1109.33 869.348 1158.98 871.321 1243.58 858.464 C 1225.3 959.615 1223.39 1077.16 1230.68 1179.61 C 1232.31 1202.46 1235.71 1238.81 1240.56 1261.21 L 1240.58 1264.47 C 1236.08 1266.94 1226.01 1263.17 1220.05 1262.45 C 1152.9 1254.25 1093.5 1257.22 1027.84 1274.88 C 1029.23 1132.4 1027.17 988.743 1027.42 846.179 z" fill="rgb(30,31,135)" transform="translate(0,0)"></path>
<path d="M 1019.54 846.91 L 1020.73 847.251 C 1022.88 851.111 1021.75 885.678 1021.76 893.048 L 1021.9 985.984 L 1021.9 1273.97 C 964.075 1259.51 913.212 1254.37 853.614 1260.28 C 840.151 1261.61 827.465 1263.93 814.294 1265.35 L 812.732 1263.91 C 816.764 1244.96 820.121 1212.67 821.97 1193.38 C 832.116 1081.96 828.855 969.723 812.257 859.082 C 876.377 870.552 957.777 869.868 1019.54 846.91 z" fill="rgb(30,31,135)" transform="translate(0,0)"></path>
<path d="M 364.839 1327.9 C 395.912 1330.24 421.976 1335.73 448.911 1352.83 C 484.119 1375.21 508.909 1410.75 517.756 1451.53 C 528.278 1499.44 516.696 1543.5 490.592 1584.08 C 481.561 1597.56 473.519 1604.45 461.266 1614.71 C 461.948 1599.97 461.757 1584.83 461.797 1570.05 L 461.919 1505.96 C 461.962 1468.71 465.446 1434.48 436.551 1405.73 C 415.958 1385.24 391.819 1380.83 363.783 1380.88 C 364.426 1363.54 364.249 1345.55 364.839 1327.9 z" fill="rgb(30,31,135)" transform="translate(0,0)"></path>
<path d="M 1681.63 1328.45 C 1684.05 1328.41 1683.3 1328.31 1685.51 1328.92 C 1688.08 1334.59 1686.25 1370.85 1686.42 1380.66 C 1646.04 1377.39 1606.86 1400.17 1594.39 1439.86 C 1588.69 1458 1590.35 1481.1 1590.46 1500.24 L 1590.83 1567.76 C 1590.91 1582.89 1591.38 1600.57 1590.03 1615.44 C 1580.84 1607.15 1573.8 1598.77 1566.08 1589.26 C 1517.79 1524.04 1516.2 1439.24 1572.47 1378.23 C 1600.92 1347.96 1640.12 1330.08 1681.63 1328.45 z" fill="rgb(30,31,135)" transform="translate(0,0)"></path>
<path d="M 1758.27 1643.21 L 1759.57 1644.08 C 1759.38 1648.71 1759.41 1654.77 1758.3 1659.13 C 1761.89 1656.85 1761.06 1650.6 1760.67 1647.09 C 1761.8 1644.86 1761.44 1645.31 1763.04 1643.41 C 1762.56 1651.91 1761.39 1660.36 1759.54 1668.67 C 1759.26 1668.12 1758.14 1665.55 1757.49 1665.33 C 1755.34 1666.44 1757.89 1669.79 1758.78 1670.8 C 1749.16 1725.41 1697.22 1772.82 1643.48 1782.46 C 1625.26 1785.73 1606.01 1785.2 1587.52 1785.33 C 1563.53 1785.52 1539.54 1785.59 1515.55 1785.52 C 1490.77 1785.46 1461.1 1786.71 1437.06 1783.49 C 1400.64 1778.61 1368.72 1740.98 1368.85 1704.48 C 1371.88 1714.8 1372.8 1726.29 1377.73 1735.91 L 1379.22 1736.57 C 1379.44 1734.05 1379.39 1733.52 1379.29 1730.99 C 1406.95 1791.13 1463.22 1781.04 1518.84 1781.03 L 1584.96 1780.97 C 1604.82 1780.94 1625.45 1781.84 1644.77 1777.52 C 1695.34 1766.23 1735.36 1729.48 1751.11 1680.15 C 1755.28 1667.1 1756.72 1656.8 1758.27 1643.21 z" fill="rgb(15,11,14)" fill-opacity="0.980392" transform="translate(0,0)"></path>
<path d="M 1374.3 365.74 C 1382.42 336.78 1414.43 311.977 1444.65 309.723 C 1471.72 307.704 1499.41 309.181 1526.59 308.725 C 1557.3 309.405 1595.76 307.104 1625.41 309.325 C 1635.77 310.153 1646.01 312.058 1655.98 315.007 C 1696.05 326.964 1725.97 351.011 1745.65 387.997 C 1746.22 389.068 1746.06 388.736 1746.43 389.903 L 1746.45 391.887 C 1746.41 397.3 1749.78 395.84 1747.35 401.191 C 1730.79 370.683 1715.39 348.141 1683.34 331.402 C 1668.24 323.497 1651.91 318.214 1635.04 315.779 C 1611.16 312.401 1559.33 314.353 1532.89 314.3 C 1510.77 314.256 1471.73 313.093 1451.61 314.475 C 1443.04 315.093 1434.58 316.757 1426.42 319.429 C 1403.65 326.659 1389.7 344.199 1379.29 364.611 C 1373.26 370.773 1375.67 374.888 1373.37 377.427 L 1373.28 377.401 C 1373.34 377.572 1374.38 367.837 1374.3 365.74 z" fill="url(#Gradient1)" transform="translate(0,0)"></path>
<path d="M 310.929 1704.49 C 331.628 1740.32 359.91 1764.72 400.589 1775.48 C 431.416 1783.64 464.958 1780.13 496.607 1780.89 C 508.89 1781.19 521.366 1780.63 533.666 1780.85 C 567.368 1778.89 608.812 1787.26 639.159 1769.83 C 659.78 1757.98 672.455 1737.85 678.478 1715.6 C 679.107 1719.04 678.198 1723.8 677.967 1727.53 C 679.743 1721.98 680.852 1717.07 682.982 1711.5 L 683.321 1710.63 C 683.045 1715.3 682.695 1717.63 681.5 1722.07 C 675.695 1744.15 661.203 1762.93 641.326 1774.15 C 633.257 1778.76 620.271 1783.63 610.939 1784.27 C 563.625 1787.52 515.683 1784.69 468.228 1785.38 C 455.594 1785.56 441.014 1785.67 428.452 1784.82 C 418.37 1784.19 408.376 1782.55 398.625 1779.91 C 360.952 1769.68 328.877 1744.92 309.436 1711.07 L 310.929 1704.49 z" fill="rgb(15,11,14)" fill-opacity="0.984314" transform="translate(0,0)"></path>
<path d="M 309.436 1711.07 C 308.509 1709.6 307.834 1708.45 307.014 1706.9 C 298.54 1691.07 292.925 1673.87 290.428 1656.09 C 286.884 1630.3 289.858 1594.78 289.119 1568.1 C 288.165 1533.67 289.536 1498.3 289.435 1463.81 C 289.35 1434.57 308.065 1404.7 334.149 1391.33 C 332.534 1394.84 324.856 1399.82 321.095 1403.04 C 310.689 1411.95 290.493 1435.36 293.973 1449.62 L 294.302 1449.73 C 296.009 1446.09 295.099 1443.82 297.528 1438.98 L 298.881 1438.6 C 296.693 1446.55 294.603 1455.25 294.407 1463.57 C 293.324 1509.6 294.021 1555.8 293.801 1601.85 C 293.714 1620.13 293.188 1639.04 295.369 1657.11 C 297.283 1672.98 304.165 1690.36 310.929 1704.49 L 309.436 1711.07 z" fill="rgb(15,11,14)" fill-opacity="0.972549" transform="translate(0,0)"></path>
<path d="M 1686.84 941.465 C 1687.48 937.155 1687.54 928.884 1687.69 924.185 C 1689.39 941.759 1687.89 963.158 1689.21 981.103 C 1689.55 985.736 1688.61 993.093 1689.49 996.812 C 1691.92 988.576 1687.58 928.321 1690.89 922.24 C 1691.66 948.236 1691.05 976.981 1691.02 1003.15 L 1690.96 1152.31 L 1691.12 1246.38 C 1691.14 1257.75 1691.92 1282.45 1690.94 1292.75 C 1689.5 1290.75 1689.79 1178.02 1689.77 1164.68 L 1688.37 1172.4 C 1687.02 1179.76 1688.07 1190.36 1688.05 1198.28 L 1688.16 1258.52 C 1688.2 1265.66 1689.01 1278.04 1686.93 1284.59 C 1684.46 1202.08 1687.15 1117.92 1686.24 1035.24 C 1685.91 1004.72 1685.74 971.935 1686.84 941.465 z" fill="rgb(18,14,15)" fill-opacity="0.984314" transform="translate(0,0)"></path>
<path d="M 329.702 355.241 C 328.793 360.746 311.965 378.276 309.02 386.282 C 306.578 392.922 296.09 407.71 297.257 415.504 L 296.719 415.564 L 296.797 416.699 C 298.271 413.275 300.841 405.385 303.403 404.245 C 300.187 414.015 294.916 429.379 294.212 439.379 C 291.858 472.804 293.048 507.652 292.937 541.36 C 292.849 568.003 292.293 596.422 294.236 622.773 C 294.792 630.311 300.108 642.904 303.486 649.729 L 300.59 648.81 C 300.207 661.163 333.725 682.422 336.246 687.359 C 318.772 679.816 304.277 662.828 296.277 645.922 C 288.744 630.002 288.417 615.79 288.954 598.649 C 291.647 592.064 292.171 531.347 291.536 521.591 C 290.414 504.373 294.518 450.598 290.077 437.477 C 289.904 413.415 312.349 371.547 329.702 355.241 z" fill="rgb(15,11,14)" fill-opacity="0.980392" transform="translate(0,0)"></path>
<path d="M 290.077 437.477 C 294.518 450.598 290.414 504.373 291.536 521.591 C 292.171 531.347 291.647 592.064 288.954 598.649 C 287.667 578.44 288.941 543.487 288.692 521.731 C 288.483 503.504 287.491 452.568 290.077 437.477 z" fill="rgb(15,11,14)" fill-opacity="0.862745" transform="translate(0,0)"></path>
<path d="M 1148.36 1802.85 C 1153.34 1804.43 1157.14 1793.89 1160.9 1790.82 C 1169.85 1783.53 1178.34 1753.24 1183.53 1747.79 C 1175.42 1782.82 1140.9 1825.4 1108.79 1841.57 C 1112.6 1834.63 1127.35 1830.3 1124.99 1825.26 C 1128.38 1821.46 1134.35 1817.63 1138.26 1813.4 C 1140.26 1811.24 1146.42 1804.33 1148.36 1802.85 z" fill="rgb(23,17,14)" fill-opacity="0.984314" transform="translate(0,0)"></path>
<path d="M 1746.43 389.903 C 1756.38 407.863 1764.48 438.978 1762.91 459.592 C 1760.05 456.203 1761.76 444.458 1760.84 441.587 C 1758.81 439.814 1758.61 449.61 1759.28 450.432 C 1759.9 451.201 1760.31 457.466 1759.65 458.023 C 1759.05 455.335 1758.85 453.42 1758.09 450.581 C 1757.02 438.189 1756.26 429.475 1752.57 417.284 C 1751.59 414.023 1747.53 403.146 1747.35 401.191 C 1749.78 395.84 1746.41 397.3 1746.45 391.887 L 1746.43 389.903 z" fill="rgb(15,11,14)" fill-opacity="0.980392" transform="translate(0,0)"></path>
<path d="M 1374.3 365.74 C 1374.38 367.837 1373.34 377.572 1373.28 377.401 L 1373.37 377.427 C 1375.67 374.888 1373.26 370.773 1379.29 364.611 C 1374.06 381.028 1372 398.628 1377.2 415.356 L 1374.13 420.574 C 1367.81 402.708 1367.36 383.545 1374.3 365.74 z" fill="rgb(15,11,14)" fill-opacity="0.984314" transform="translate(0,0)"></path>
<path d="M 1006.33 206.546 C 1005.78 217.707 989.215 234.078 993.564 241.113 C 991.796 246.258 986.993 253.926 984.484 259.178 C 979.985 253.904 980.445 265.196 973.414 270.333 C 976.682 262.828 982.608 252.423 986.645 244.766 C 992.664 233.348 999.635 217.155 1006.33 206.546 z" fill="rgb(15,11,14)" fill-opacity="0.980392" transform="translate(0,0)"></path>
<path d="M 1740.93 1409.85 C 1745.08 1412.5 1752.45 1425.29 1754.66 1429.94 C 1747.81 1426.88 1749.12 1417.29 1743.15 1419.12 C 1741.98 1418.43 1742.09 1418.47 1741.72 1417.06 C 1744.43 1411.63 1739.72 1415.33 1740.93 1409.85 z" fill="rgb(15,11,14)" fill-opacity="0.968627" transform="translate(0,0)"></path>
<path d="M 1758.78 1670.8 C 1757.89 1669.79 1755.34 1666.44 1757.49 1665.33 C 1758.14 1665.55 1759.26 1668.12 1759.54 1668.67 L 1758.78 1670.8 z" fill="rgb(15,11,14)" fill-opacity="0.952941" transform="translate(0,0)"></path>
<metadata><recraft-signature>{"signed_by": "recraft", "signature_b64": "UNqjMW3NF9pQF8xivUfCjiPCUythwsr27YY6wKjD/MKc620dS3iGg64nqXAuBTAArM4cPbIRbr0R3ki4++3NDA==", "signing_algo": "Ed25519", "generation_timestamp": 1780054824, "identifier": "aa7d926e-61d5-4d40-bbe0-d167629645c7"}</recraft-signature></metadata></svg>