<svg xmlns="http://www.w3.org/2000/svg" height="1024" preserveAspectRatio="none" style="display: block;" version="1.1" viewBox="0 0 2048 2048" width="1024">
<defs>
	<linearGradient gradientUnits="userSpaceOnUse" id="Gradient1" x1="712.544" x2="731.555" y1="1778.03" y2="1688.97">
		<stop class="stop0" offset="0" stop-color="rgb(226,226,222)" stop-opacity="0.913725"></stop>
		<stop class="stop1" offset="1" stop-color="rgb(223,222,216)" stop-opacity="1"></stop>
	</linearGradient>
</defs>
<path d="M 1002.18 349.128 C 1017.92 338.712 1029.99 333.378 1046.2 347.221 C 1081.51 376.103 1094.93 379.819 1115.42 423.711 C 1109.36 433.145 1078.73 481.305 1079.89 489.708 L 1081.5 491.279 C 1090.47 491.106 1091.42 480.063 1095.46 473.567 C 1099.97 466.329 1118.34 431.033 1123.72 427.464 C 1126.08 424.106 1128.41 420.41 1130.78 416.959 L 1131.99 415.889 L 1133.18 419.311 C 1139.04 419.069 1147.41 412.273 1152.86 410.059 C 1213.49 385.438 1284.27 370.558 1348.08 391.703 C 1378.98 401.94 1415.44 418.079 1441.75 437.566 C 1446.09 439.907 1460.28 443.746 1465.8 445.526 C 1482.63 450.83 1498.55 458.683 1513 468.811 C 1516.77 457.055 1513.61 442.288 1523.18 425.757 C 1534.07 406.927 1543.97 399.662 1564.57 393.112 L 1578.18 392.962 C 1596.1 396.195 1604.64 400.836 1615.44 416.116 C 1634.25 442.745 1622.79 474.59 1634.05 502.818 C 1640.54 519.085 1652.82 532.548 1663.18 546.403 C 1680.24 569.224 1702.12 604.591 1706.7 632.676 C 1707.17 636.791 1707.65 642.515 1708.48 646.431 C 1749.46 668.138 1768.54 689.332 1789.78 730.577 C 1824.77 798.533 1809.85 871.152 1736.22 905.139 C 1735.53 915.26 1732.63 937.864 1732.93 946.043 C 1734.06 945.01 1735.54 942.881 1737.03 943.483 C 1765.15 954.873 1791.32 975.77 1809.12 1000.12 C 1838.06 1039.7 1834.13 1099.11 1823.55 1144.93 C 1862.23 1212.4 1844.99 1300.5 1792.67 1355.87 C 1788.11 1360.68 1764.14 1379.21 1762.51 1383.28 L 1758.19 1397.77 C 1758.47 1400.63 1758.72 1403.49 1758.92 1406.35 L 1760.21 1407.42 C 1762.5 1408.51 1763.92 1408.54 1764.32 1410.21 C 1765.62 1415.7 1761.95 1425.46 1760.27 1430.88 C 1761.82 1442.49 1758.3 1438.8 1766.17 1447.96 L 1768.38 1449.33 C 1769.4 1456.27 1763.45 1470.27 1761.31 1477.65 C 1760.85 1480.03 1760.43 1482.7 1759.81 1485.01 C 1766.62 1489.69 1763.97 1495.95 1764.02 1503.85 C 1764.41 1557.57 1726.17 1603.07 1672.08 1608.28 C 1658.03 1609.63 1647.02 1607.06 1633.83 1607.14 C 1632.76 1613.14 1626.16 1635.19 1626.43 1637.68 C 1632.14 1645.8 1628.86 1679.25 1627.06 1690.14 C 1613.2 1773.68 1549.61 1815.14 1468.03 1811.73 C 1412.1 1809.39 1394.48 1793.94 1345.08 1779.78 C 1244.5 1750.95 1121.3 1792.73 1057.86 1876.04 C 1054.41 1881.42 1050.37 1887.41 1047.38 1892.97 C 1045.11 1898.78 1038.88 1908.65 1033.32 1911.6 C 1017.34 1920.1 1007.28 1903.98 1000.59 1891.82 C 999.148 1889.26 997.727 1886.57 996.32 1883.99 C 972.288 1847.92 941.128 1823.35 903.065 1803.08 C 840.479 1769.82 767.438 1762.13 699.296 1781.61 C 678.875 1787.43 659.972 1795.66 640.19 1801.95 C 601.743 1813.58 560.448 1816.22 522.112 1804.7 C 458.39 1785.56 422.538 1727.13 423.767 1662.22 C 423.896 1655.44 423.635 1647.13 425.752 1640.56 L 429.06 1639.91 C 429.971 1636.32 425.245 1624.32 424.581 1619.58 C 423.898 1614.7 423.696 1612.54 423.628 1607.39 L 425.372 1605.28 C 426.192 1596.58 419.977 1574.91 417.67 1565.66 C 423.12 1566.64 425.33 1567.02 430.823 1567.04 C 430.435 1564.99 430.264 1564.65 429.583 1562.66 C 424.428 1561.37 414.518 1562.27 408.375 1561.86 C 387.344 1560.47 371.636 1558.03 351.869 1550.68 C 354.903 1550.27 361.503 1550.36 363.705 1549.47 L 363.785 1549.33 L 363.726 1549.48 C 363.369 1548.43 362.407 1547.42 361.926 1546.38 C 360.39 1543.06 365.389 1542.99 365.301 1542.49 C 364.557 1541.66 346.537 1530.22 343.507 1530.26 C 342.016 1530.28 339.177 1529.58 337.49 1529.24 C 328.297 1518.53 330.658 1523.55 320.722 1516.44 C 319.115 1513.84 319.111 1513.43 318.135 1510.34 C 316.187 1507.8 310.639 1503.05 308.009 1500.16 C 307.226 1498.93 307.078 1498.79 306.089 1497.64 C 303.387 1494.52 302.066 1492.49 299.044 1489.28 L 294.732 1485.62 C 298.469 1482.18 282.235 1461.44 285.867 1449.05 C 288.621 1446.6 288.632 1447.38 293.173 1446.86 C 293.265 1456.7 300.257 1474.94 306.236 1482.96 C 331.986 1481.88 313.477 1469.29 312.831 1465.57 C 313.027 1465.06 312.865 1465.39 313.513 1464.72 C 309.71 1459.51 303.781 1450.83 299.643 1446.31 C 298.727 1443.38 298.028 1442.46 295.934 1440.3 C 291.186 1429.68 289.742 1424.44 287.562 1413.03 C 290.918 1413.29 294.095 1413.12 296.841 1414.85 C 297.363 1415.77 297.919 1416.34 298.63 1417.2 C 299.477 1422.08 302.367 1438.57 307.961 1438.97 L 306.644 1440.65 C 311.963 1453.41 329.164 1469.53 340.623 1477.45 C 366.584 1495.41 396.749 1498.86 427.361 1501.05 L 423.306 1490.02 C 422.959 1488.36 422.682 1487.43 422.194 1485.76 C 420.954 1480.24 421.712 1478.89 416.304 1477.38 C 372.853 1474.32 350.162 1462.46 319.528 1433.9 L 318.108 1434.92 C 317.942 1431.72 312.93 1426.32 310.935 1423.22 C 303.267 1411.3 295.311 1397.84 292.556 1383.79 C 291.363 1380.43 282.025 1374.15 278.641 1371.38 C 271.488 1365.57 264.743 1359.28 258.454 1352.55 C 240.174 1332.99 226.589 1309.51 218.729 1283.91 C 205.845 1241.13 206.827 1185.69 228.404 1145.54 C 225.413 1140.29 222.783 1119.87 221.914 1113.21 C 216.822 1074.23 211.418 1033.23 226.131 995.567 C 241.257 956.84 277.986 931.017 314.102 913.47 C 316.141 912.482 318.723 912.24 320.813 913.172 L 321.421 915.546 C 324.469 915.214 326.595 912.827 329.165 910.963 C 330.518 906.571 328.618 906.951 324.333 904.864 C 303.149 894.548 286.944 881.606 272.838 862.501 C 227.536 801.148 264.958 709.173 320.8 668.314 C 315.752 659.123 311.416 634.564 309.478 623.55 C 303.273 561.798 334.502 487.148 401.037 471.786 C 422.517 466.826 463.095 480.17 484.984 486.037 C 488.195 486.334 492.259 486.081 495.57 485.976 C 513.251 479.323 528.255 474.091 546.742 469.767 C 556.835 455.595 596.765 444.693 612.981 438.313 C 632.337 423.363 662.195 409.492 685.348 400.022 C 746.637 374.955 822.462 374.184 882.487 403.215 C 891.225 407.388 899.107 412.776 907.215 417.894 C 915.112 422.878 924.387 432.656 932.64 435.787 C 942.214 439.52 958.227 479.163 964.139 488.457 C 966.089 491.523 965.312 490.931 968.324 491.443 C 971.287 490.126 970.237 491.172 971.548 488.173 C 971.081 481.569 945.583 434.274 940.333 427.516 C 959.562 390.225 969.271 375.366 1002.18 349.128 z M 612.981 438.313 C 596.765 444.693 556.835 455.595 546.742 469.767 C 528.255 474.091 513.251 479.323 495.57 485.976 C 492.259 486.081 488.195 486.334 484.984 486.037 C 463.095 480.17 422.517 466.826 401.037 471.786 C 334.502 487.148 303.273 561.798 309.478 623.55 C 311.416 634.564 315.752 659.123 320.8 668.314 C 264.958 709.173 227.536 801.148 272.838 862.501 C 286.944 881.606 303.149 894.548 324.333 904.864 C 328.618 906.951 330.518 906.571 329.165 910.963 C 326.595 912.827 324.469 915.214 321.421 915.546 L 320.813 913.172 C 318.723 912.24 316.141 912.482 314.102 913.47 C 277.986 931.017 241.257 956.84 226.131 995.567 C 211.418 1033.23 216.822 1074.23 221.914 1113.21 C 222.783 1119.87 225.413 1140.29 228.404 1145.54 C 206.827 1185.69 205.845 1241.13 218.729 1283.91 C 226.589 1309.51 240.174 1332.99 258.454 1352.55 C 264.743 1359.28 271.488 1365.57 278.641 1371.38 C 282.025 1374.15 291.363 1380.43 292.556 1383.79 C 295.311 1397.84 303.267 1411.3 310.935 1423.22 C 312.93 1426.32 317.942 1431.72 318.108 1434.92 L 319.528 1433.9 C 350.162 1462.46 372.853 1474.32 416.304 1477.38 C 421.712 1478.89 420.954 1480.24 422.194 1485.76 C 422.682 1487.43 422.959 1488.36 423.306 1490.02 L 427.361 1501.05 C 396.749 1498.86 366.584 1495.41 340.623 1477.45 C 329.164 1469.53 311.963 1453.41 306.644 1440.65 L 307.961 1438.97 C 302.367 1438.57 299.477 1422.08 298.63 1417.2 C 297.919 1416.34 297.363 1415.77 296.841 1414.85 C 294.095 1413.12 290.918 1413.29 287.562 1413.03 C 289.742 1424.44 291.186 1429.68 295.934 1440.3 C 298.028 1442.46 298.727 1443.38 299.643 1446.31 C 303.781 1450.83 309.71 1459.51 313.513 1464.72 C 312.865 1465.39 313.027 1465.06 312.831 1465.57 C 313.477 1469.29 331.986 1481.88 306.236 1482.96 C 300.257 1474.94 293.265 1456.7 293.173 1446.86 C 288.632 1447.38 288.621 1446.6 285.867 1449.05 C 282.235 1461.44 298.469 1482.18 294.732 1485.62 L 299.044 1489.28 C 302.066 1492.49 303.387 1494.52 306.089 1497.64 C 307.078 1498.79 307.226 1498.93 308.009 1500.16 C 310.639 1503.05 316.187 1507.8 318.135 1510.34 C 319.111 1513.43 319.115 1513.84 320.722 1516.44 C 330.658 1523.55 328.297 1518.53 337.49 1529.24 C 339.177 1529.58 342.016 1530.28 343.507 1530.26 C 346.537 1530.22 364.557 1541.66 365.301 1542.49 C 365.389 1542.99 360.39 1543.06 361.926 1546.38 C 362.407 1547.42 363.369 1548.43 363.726 1549.48 L 363.785 1549.33 L 363.705 1549.47 C 361.503 1550.36 354.903 1550.27 351.869 1550.68 C 371.636 1558.03 387.344 1560.47 408.375 1561.86 C 414.518 1562.27 424.428 1561.37 429.583 1562.66 C 430.264 1564.65 430.435 1564.99 430.823 1567.04 C 425.33 1567.02 423.12 1566.64 417.67 1565.66 C 419.977 1574.91 426.192 1596.58 425.372 1605.28 L 423.628 1607.39 C 423.696 1612.54 423.898 1614.7 424.581 1619.58 C 425.245 1624.32 429.971 1636.32 429.06 1639.91 L 425.752 1640.56 C 423.635 1647.13 423.896 1655.44 423.767 1662.22 C 422.538 1727.13 458.39 1785.56 522.112 1804.7 C 560.448 1816.22 601.743 1813.58 640.19 1801.95 C 659.972 1795.66 678.875 1787.43 699.296 1781.61 C 767.438 1762.13 840.479 1769.82 903.065 1803.08 C 941.128 1823.35 972.288 1847.92 996.32 1883.99 C 997.727 1886.57 999.148 1889.26 1000.59 1891.82 C 1002.55 1887.33 1003.07 1765.75 1002.84 1753.09 C 1001.24 1750.59 1001.47 1750.58 1001.22 1747.55 C 1002.89 1740.96 1001.82 1724.2 1002.02 1716.78 C 1002.68 1692.45 1000.2 1662.64 1002.14 1638.69 C 1002.2 1622.11 1001.1 1605.41 1000.07 1588.86 C 1002.94 1584.23 1001.89 1550.63 1001.89 1542.51 L 1001.9 1461.56 L 1002.06 1217.43 C 986.255 1207.37 953.931 1170.49 939.099 1154.59 C 915.504 1129.12 891.594 1103.95 867.375 1079.07 C 855.37 1063.93 843.973 1057.04 842.655 1034.33 C 840.826 1002.84 877.56 977.624 898.672 955.304 L 903 949.96 C 910.145 944.029 954.291 901.47 957.498 895.856 C 964.518 892.857 991.486 864.285 1000.36 856.652 C 1002.21 855.382 1004.09 854.145 1005.99 852.94 C 1018.6 845 1030.53 843.213 1044.88 846.548 C 1044.97 828.071 1046.74 809.012 1048.19 790.538 C 1046.36 775.721 1046.99 757.591 1047 742.403 L 1046.91 671.639 L 1046.63 447.654 C 1046.53 415.436 1047.43 378.922 1046.2 347.221 C 1029.99 333.378 1017.92 338.712 1002.18 349.128 C 969.271 375.366 959.562 390.225 940.333 427.516 C 945.583 434.274 971.081 481.569 971.548 488.173 C 970.237 491.172 971.287 490.126 968.324 491.443 C 965.312 490.931 966.089 491.523 964.139 488.457 C 958.227 479.163 942.214 439.52 932.64 435.787 C 924.387 432.656 915.112 422.878 907.215 417.894 C 899.107 412.776 891.225 407.388 882.487 403.215 C 822.462 374.184 746.637 374.955 685.348 400.022 C 662.195 409.492 632.337 423.363 612.981 438.313 z M 1626.43 1637.68 C 1626.16 1635.19 1632.76 1613.14 1633.83 1607.14 C 1647.02 1607.06 1658.03 1609.63 1672.08 1608.28 C 1726.17 1603.07 1764.41 1557.57 1764.02 1503.85 C 1763.97 1495.95 1766.62 1489.69 1759.81 1485.01 C 1760.43 1482.7 1760.85 1480.03 1761.31 1477.65 C 1763.45 1470.27 1769.4 1456.27 1768.38 1449.33 L 1766.17 1447.96 C 1758.3 1438.8 1761.82 1442.49 1760.27 1430.88 C 1761.95 1425.46 1765.62 1415.7 1764.32 1410.21 C 1763.92 1408.54 1762.5 1408.51 1760.21 1407.42 L 1758.92 1406.35 C 1758.72 1403.49 1758.47 1400.63 1758.19 1397.77 L 1762.51 1383.28 C 1764.14 1379.21 1788.11 1360.68 1792.67 1355.87 C 1844.99 1300.5 1862.23 1212.4 1823.55 1144.93 C 1817.44 1162.15 1814.16 1177.52 1806.66 1194.65 C 1750.14 1323.7 1608.67 1386.49 1476.3 1403.58 C 1447.63 1407.28 1418.31 1408.3 1389.82 1413.69 C 1223.61 1441.7 1094.11 1565.45 1053.42 1728.36 C 1051.97 1734.19 1049.16 1754.72 1047.03 1758.52 L 1045.98 1757.31 C 1045.8 1764.69 1046.83 1777.47 1046.91 1785.91 C 1047.03 1809.78 1046.96 1833.64 1046.71 1857.5 C 1046.67 1862.85 1045.78 1889.62 1047.38 1892.97 C 1050.37 1887.41 1054.41 1881.42 1057.86 1876.04 C 1121.3 1792.73 1244.5 1750.95 1345.08 1779.78 C 1394.48 1793.94 1412.1 1809.39 1468.03 1811.73 C 1549.61 1815.14 1613.2 1773.68 1627.06 1690.14 C 1628.86 1679.25 1632.14 1645.8 1626.43 1637.68 z M 1704.53 793.485 C 1699.54 795.08 1696.79 800.419 1698.38 805.41 C 1699.98 810.4 1705.32 813.152 1710.31 811.556 C 1715.3 809.96 1718.05 804.621 1716.45 799.632 C 1714.86 794.642 1709.52 791.89 1704.53 793.485 z M 1622.57 915.518 C 1631.37 912.79 1636.34 903.488 1633.72 894.652 C 1631.1 885.816 1621.85 880.734 1612.99 883.252 C 1607.16 884.908 1602.67 889.57 1601.23 895.458 C 1599.8 901.346 1601.64 907.551 1606.06 911.702 C 1610.47 915.854 1616.78 917.311 1622.57 915.518 z" fill="rgb(7,44,37)" transform="translate(0,0)"></path>
<path d="M 1002.18 349.128 C 1017.92 338.712 1029.99 333.378 1046.2 347.221 C 1047.43 378.922 1046.53 415.436 1046.63 447.654 L 1046.91 671.639 L 1047 742.403 C 1046.99 757.591 1046.36 775.721 1048.19 790.538 C 1046.74 809.012 1044.97 828.071 1044.88 846.548 C 1030.53 843.213 1018.6 845 1005.99 852.94 C 1004.09 854.145 1002.21 855.382 1000.36 856.652 C 991.486 864.285 964.518 892.857 957.498 895.856 C 954.291 901.47 910.145 944.029 903 949.96 L 898.672 955.304 C 877.56 977.624 840.826 1002.84 842.655 1034.33 C 843.973 1057.04 855.37 1063.93 867.375 1079.07 C 891.594 1103.95 915.504 1129.12 939.099 1154.59 C 953.931 1170.49 986.255 1207.37 1002.06 1217.43 L 1001.9 1461.56 L 1001.89 1542.51 C 1001.89 1550.63 1002.94 1584.23 1000.07 1588.86 C 1001.1 1605.41 1002.2 1622.11 1002.14 1638.69 C 1000.2 1662.64 1002.68 1692.45 1002.02 1716.78 C 1001.82 1724.2 1002.89 1740.96 1001.22 1747.55 C 1001.47 1750.58 1001.24 1750.59 1002.84 1753.09 C 1003.07 1765.75 1002.55 1887.33 1000.59 1891.82 C 999.148 1889.26 997.727 1886.57 996.32 1883.99 C 972.288 1847.92 941.128 1823.35 903.065 1803.08 C 840.479 1769.82 767.438 1762.13 699.296 1781.61 C 678.875 1787.43 659.972 1795.66 640.19 1801.95 C 601.743 1813.58 560.448 1816.22 522.112 1804.7 C 458.39 1785.56 422.538 1727.13 423.767 1662.22 C 423.896 1655.44 423.635 1647.13 425.752 1640.56 L 429.06 1639.91 C 429.971 1636.32 425.245 1624.32 424.581 1619.58 C 423.898 1614.7 423.696 1612.54 423.628 1607.39 L 425.372 1605.28 C 426.192 1596.58 419.977 1574.91 417.67 1565.66 C 423.12 1566.64 425.33 1567.02 430.823 1567.04 C 430.435 1564.99 430.264 1564.65 429.583 1562.66 C 424.428 1561.37 414.518 1562.27 408.375 1561.86 C 387.344 1560.47 371.636 1558.03 351.869 1550.68 C 354.903 1550.27 361.503 1550.36 363.705 1549.47 L 363.785 1549.33 L 363.726 1549.48 C 363.369 1548.43 362.407 1547.42 361.926 1546.38 C 360.39 1543.06 365.389 1542.99 365.301 1542.49 C 364.557 1541.66 346.537 1530.22 343.507 1530.26 C 342.016 1530.28 339.177 1529.58 337.49 1529.24 C 328.297 1518.53 330.658 1523.55 320.722 1516.44 C 319.115 1513.84 319.111 1513.43 318.135 1510.34 C 316.187 1507.8 310.639 1503.05 308.009 1500.16 C 307.226 1498.93 307.078 1498.79 306.089 1497.64 C 303.387 1494.52 302.066 1492.49 299.044 1489.28 L 294.732 1485.62 C 298.469 1482.18 282.235 1461.44 285.867 1449.05 C 288.621 1446.6 288.632 1447.38 293.173 1446.86 C 293.265 1456.7 300.257 1474.94 306.236 1482.96 C 331.986 1481.88 313.477 1469.29 312.831 1465.57 C 313.027 1465.06 312.865 1465.39 313.513 1464.72 C 309.71 1459.51 303.781 1450.83 299.643 1446.31 C 298.727 1443.38 298.028 1442.46 295.934 1440.3 C 291.186 1429.68 289.742 1424.44 287.562 1413.03 C 290.918 1413.29 294.095 1413.12 296.841 1414.85 C 297.363 1415.77 297.919 1416.34 298.63 1417.2 C 299.477 1422.08 302.367 1438.57 307.961 1438.97 L 306.644 1440.65 C 311.963 1453.41 329.164 1469.53 340.623 1477.45 C 366.584 1495.41 396.749 1498.86 427.361 1501.05 L 423.306 1490.02 C 422.959 1488.36 422.682 1487.43 422.194 1485.76 C 420.954 1480.24 421.712 1478.89 416.304 1477.38 C 372.853 1474.32 350.162 1462.46 319.528 1433.9 L 318.108 1434.92 C 317.942 1431.72 312.93 1426.32 310.935 1423.22 C 303.267 1411.3 295.311 1397.84 292.556 1383.79 C 291.363 1380.43 282.025 1374.15 278.641 1371.38 C 271.488 1365.57 264.743 1359.28 258.454 1352.55 C 240.174 1332.99 226.589 1309.51 218.729 1283.91 C 205.845 1241.13 206.827 1185.69 228.404 1145.54 C 225.413 1140.29 222.783 1119.87 221.914 1113.21 C 216.822 1074.23 211.418 1033.23 226.131 995.567 C 241.257 956.84 277.986 931.017 314.102 913.47 C 316.141 912.482 318.723 912.24 320.813 913.172 L 321.421 915.546 C 324.469 915.214 326.595 912.827 329.165 910.963 C 330.518 906.571 328.618 906.951 324.333 904.864 C 303.149 894.548 286.944 881.606 272.838 862.501 C 227.536 801.148 264.958 709.173 320.8 668.314 C 315.752 659.123 311.416 634.564 309.478 623.55 C 303.273 561.798 334.502 487.148 401.037 471.786 C 422.517 466.826 463.095 480.17 484.984 486.037 C 488.195 486.334 492.259 486.081 495.57 485.976 C 513.251 479.323 528.255 474.091 546.742 469.767 C 556.835 455.595 596.765 444.693 612.981 438.313 C 632.337 423.363 662.195 409.492 685.348 400.022 C 746.637 374.955 822.462 374.184 882.487 403.215 C 891.225 407.388 899.107 412.776 907.215 417.894 C 915.112 422.878 924.387 432.656 932.64 435.787 C 942.214 439.52 958.227 479.163 964.139 488.457 C 966.089 491.523 965.312 490.931 968.324 491.443 C 971.287 490.126 970.237 491.172 971.548 488.173 C 971.081 481.569 945.583 434.274 940.333 427.516 C 959.562 390.225 969.271 375.366 1002.18 349.128 z M 450.863 1694.01 C 454.231 1699.52 459.272 1703.72 463.421 1708.5 L 464.413 1708.75 C 468.781 1713.67 473.558 1716.94 478.989 1720.65 C 511.737 1740.86 532.448 1745.46 570.015 1749.23 C 619.286 1754.18 650.645 1739.81 696.462 1730.77 C 764.649 1717.32 839.318 1726.84 899.428 1763.74 C 924.084 1778.75 946.19 1797.6 964.911 1819.57 C 966.275 1821.52 967.084 1822.55 968.737 1824.33 C 976.75 1835.37 980.349 1841.62 987.486 1852.5 C 987.535 1847.08 976.808 1826.91 973.553 1821.64 C 971.39 1816.54 964.848 1806.68 961.398 1802.34 C 959.718 1799.16 957.438 1796.31 955.255 1793.44 C 930.092 1761.02 897.036 1735.6 859.245 1719.6 C 815.177 1701.38 750.63 1693.39 703.906 1705.6 C 617.807 1728.09 505.365 1745.72 443.329 1662.69 L 437.707 1668.32 C 441.766 1679.3 444.061 1684.52 450.863 1694.01 z M 458.612 1686.41 L 460.74 1687.96 C 467.248 1698.21 459.775 1708.37 453.125 1691.89 C 452.023 1689.91 451.563 1689.04 450.262 1687.27 C 447.517 1680.9 443.41 1676.73 441.26 1670.47 C 441.021 1669.6 441.792 1667.98 442.914 1668.36 C 445.175 1669.14 446.194 1672.03 448.005 1673.98 C 451.717 1677.99 454.88 1682.29 458.612 1686.41 z M 417.756 1469.27 C 417.922 1456.6 413.274 1453.57 420.331 1452.57 C 421.222 1452.45 421.083 1434.97 421.159 1430.99 C 388.565 1425.46 375.628 1425.58 343.843 1411.58 C 339.793 1409.65 332.515 1405.67 328.709 1404.38 C 324.302 1402.03 308.225 1391.36 304.374 1392.99 L 304.754 1393.87 C 309.094 1404.06 309.745 1404.01 314.528 1412.8 C 316.705 1417 320.371 1421.78 323.45 1425.44 C 325.212 1427.86 327.521 1430.05 329.646 1432.17 C 331.032 1433.48 330.908 1433.42 332.413 1434.45 C 353.131 1456.7 388.373 1467.23 417.756 1469.27 z M 1000.07 1588.86 C 1002.94 1584.23 1001.89 1550.63 1001.89 1542.51 L 1001.9 1461.56 L 1002.06 1217.43 C 986.255 1207.37 953.931 1170.49 939.099 1154.59 C 915.504 1129.12 891.594 1103.95 867.375 1079.07 C 855.37 1063.93 843.973 1057.04 842.655 1034.33 C 840.826 1002.84 877.56 977.624 898.672 955.304 C 889.207 932.137 884.37 917.088 870.825 894.982 C 812.304 799.478 720.548 747.379 614.413 721.223 C 600.153 735.857 581.962 748.357 563.626 757.261 C 520.363 778.301 470.524 781.331 425.031 765.687 C 374.134 747.79 343.599 715.773 320.8 668.314 C 264.958 709.173 227.536 801.148 272.838 862.501 C 286.944 881.606 303.149 894.548 324.333 904.864 C 328.618 906.951 330.518 906.571 329.165 910.963 C 321.313 961.556 328.87 1004.41 359.753 1046.17 C 409.417 1113.33 488.254 1149.73 567.32 1169.45 C 601.869 1178.07 637.229 1182.92 671.238 1192.11 C 783.221 1222.37 878.946 1275.77 938.609 1378.09 C 946.168 1393.4 954.601 1409.04 961.163 1424.8 C 975.517 1459.29 984.592 1495.51 992.405 1531.92 C 996.117 1549.22 995.937 1573.37 1000.07 1588.86 z M 438.627 1635.8 C 438.933 1636.68 439.238 1637.55 439.544 1638.43 C 441.908 1643.39 444.765 1650.28 448.266 1654.32 C 451.435 1659.88 456.727 1666.14 461.188 1670.77 C 467.3 1665.87 463.731 1666.98 465.022 1660.98 C 467.15 1651.1 462.106 1651.86 458.44 1641.93 C 457.715 1641.05 446.88 1629.66 445.721 1628.53 C 440.254 1631.36 441.501 1630.32 438.627 1635.8 z" fill="rgb(33,102,87)" transform="translate(0,0)"></path>
<path d="M 437.707 1668.32 L 443.329 1662.69 C 505.365 1745.72 617.807 1728.09 703.906 1705.6 C 750.63 1693.39 815.177 1701.38 859.245 1719.6 C 897.036 1735.6 930.092 1761.02 955.255 1793.44 C 957.438 1796.31 959.718 1799.16 961.398 1802.34 C 959.655 1806.22 962.66 1805.86 963.451 1808.89 C 963.377 1809.11 966.495 1812.62 964.911 1819.57 C 946.19 1797.6 924.084 1778.75 899.428 1763.74 C 839.318 1726.84 764.649 1717.32 696.462 1730.77 C 650.645 1739.81 619.286 1754.18 570.015 1749.23 C 532.448 1745.46 511.737 1740.86 478.989 1720.65 C 480.896 1717.6 479.456 1712.24 476.512 1711.63 L 475.949 1712.08 C 476.086 1713.44 477.753 1715.44 477.692 1715.77 C 476.592 1716.8 471.731 1713.86 471.124 1711.72 C 471.832 1710.4 472.017 1710.32 472.202 1708.95 C 472.333 1708.87 473.754 1708.1 473.787 1708.02 C 474.981 1705.09 481.409 1706.67 481.65 1706.48 C 477.913 1697.86 477.674 1699.14 469.085 1695.75 C 469.068 1695.75 462.409 1689.15 460.74 1687.96 L 458.612 1686.41 C 454.88 1682.29 451.717 1677.99 448.005 1673.98 C 446.194 1672.03 445.175 1669.14 442.914 1668.36 C 441.792 1667.98 441.021 1669.6 441.26 1670.47 C 443.41 1676.73 447.517 1680.9 450.262 1687.27 C 450.931 1690.58 450.91 1690.72 450.863 1694.01 C 444.061 1684.52 441.766 1679.3 437.707 1668.32 z M 963.359 1813.59 C 963.301 1813.07 963.243 1812.54 963.186 1812.02 C 962.732 1811.84 962.578 1812 961.824 1812.27 C 961.774 1812.78 961.633 1813.27 961.786 1813.74 C 962.237 1813.95 962.546 1813.78 963.359 1813.59 z" fill="url(#Gradient1)" transform="translate(0,0)"></path>
<path d="M 961.824 1812.27 C 962.578 1812 962.732 1811.84 963.186 1812.02 C 963.243 1812.54 963.301 1813.07 963.359 1813.59 C 962.546 1813.78 962.237 1813.95 961.786 1813.74 C 961.633 1813.27 961.774 1812.78 961.824 1812.27 z" fill="rgb(237,235,232)" fill-opacity="0.909804" transform="translate(0,0)"></path>
<path d="M 343.843 1411.58 C 375.628 1425.58 388.565 1425.46 421.159 1430.99 C 421.083 1434.97 421.222 1452.45 420.331 1452.57 C 413.274 1453.57 417.922 1456.6 417.756 1469.27 C 388.373 1467.23 353.131 1456.7 332.413 1434.45 C 337.468 1434.53 337.606 1438.07 342.849 1438.23 C 345.037 1434.82 339.429 1429.3 337.667 1426.52 C 339.047 1424.49 336.265 1422.78 334.678 1420.88 C 344.624 1419.87 338.257 1417.89 343.843 1411.58 z" fill="rgb(223,223,216)" fill-opacity="0.988235" transform="translate(0,0)"></path>
<path d="M 328.709 1404.38 C 332.515 1405.67 339.793 1409.65 343.843 1411.58 C 338.257 1417.89 344.624 1419.87 334.678 1420.88 C 329.159 1417.37 328.258 1419.94 323.45 1425.44 C 320.371 1421.78 316.705 1417 314.528 1412.8 C 316.426 1411.6 328.243 1405.51 328.709 1404.38 z" fill="rgb(223,223,216)" fill-opacity="0.470588" transform="translate(0,0)"></path>
<path d="M 450.262 1687.27 C 451.563 1689.04 452.023 1689.91 453.125 1691.89 C 459.775 1708.37 467.248 1698.21 460.74 1687.96 C 462.409 1689.15 469.068 1695.75 469.085 1695.75 C 477.674 1699.14 477.913 1697.86 481.65 1706.48 C 481.409 1706.67 474.981 1705.09 473.787 1708.02 C 473.754 1708.1 472.333 1708.87 472.202 1708.95 C 472.722 1707.57 475.866 1702.02 474.091 1702.01 C 468.863 1701.98 464.407 1701.49 463.682 1706.79 L 463.421 1708.5 C 459.272 1703.72 454.231 1699.52 450.863 1694.01 C 450.91 1690.72 450.931 1690.58 450.262 1687.27 z" fill="rgb(223,223,216)" fill-opacity="0.752941" transform="translate(0,0)"></path>
<path d="M 323.45 1425.44 C 328.258 1419.94 329.159 1417.37 334.678 1420.88 C 336.265 1422.78 339.047 1424.49 337.667 1426.52 C 334.866 1427.78 332.902 1430.37 329.646 1432.17 C 327.521 1430.05 325.212 1427.86 323.45 1425.44 z" fill="rgb(223,223,216)" fill-opacity="0.588235" transform="translate(0,0)"></path>
<path d="M 968.737 1824.33 C 971.041 1822.49 970.893 1822.38 973.553 1821.64 C 976.808 1826.91 987.535 1847.08 987.486 1852.5 C 980.349 1841.62 976.75 1835.37 968.737 1824.33 z" fill="rgb(223,223,216)" fill-opacity="0.976471" transform="translate(0,0)"></path>
<path d="M 964.911 1819.57 C 966.495 1812.62 963.377 1809.11 963.451 1808.89 C 962.66 1805.86 959.655 1806.22 961.398 1802.34 C 964.848 1806.68 971.39 1816.54 973.553 1821.64 C 970.893 1822.38 971.041 1822.49 968.737 1824.33 C 967.084 1822.55 966.275 1821.52 964.911 1819.57 z" fill="rgb(237,235,232)" fill-opacity="0.988235" transform="translate(0,0)"></path>
<path d="M 329.646 1432.17 C 332.902 1430.37 334.866 1427.78 337.667 1426.52 C 339.429 1429.3 345.037 1434.82 342.849 1438.23 C 337.606 1438.07 337.468 1434.53 332.413 1434.45 C 330.908 1433.42 331.032 1433.48 329.646 1432.17 z" fill="rgb(223,223,216)" fill-opacity="0.882353" transform="translate(0,0)"></path>
<path d="M 464.413 1708.75 C 467.086 1702.34 469.589 1708.53 471.124 1711.72 C 471.731 1713.86 476.592 1716.8 477.692 1715.77 C 477.753 1715.44 476.086 1713.44 475.949 1712.08 L 476.512 1711.63 C 479.456 1712.24 480.896 1717.6 478.989 1720.65 C 473.558 1716.94 468.781 1713.67 464.413 1708.75 z" fill="rgb(223,223,216)" fill-opacity="0.654902" transform="translate(0,0)"></path>
<path d="M 463.421 1708.5 L 463.682 1706.79 C 464.407 1701.49 468.863 1701.98 474.091 1702.01 C 475.866 1702.02 472.722 1707.57 472.202 1708.95 C 472.017 1710.32 471.832 1710.4 471.124 1711.72 C 469.589 1708.53 467.086 1702.34 464.413 1708.75 L 463.421 1708.5 z" fill="rgb(223,223,216)" fill-opacity="0.737255" transform="translate(0,0)"></path>
<path d="M 1002.18 349.128 C 1017.92 338.712 1029.99 333.378 1046.2 347.221 C 1047.43 378.922 1046.53 415.436 1046.63 447.654 L 1046.91 671.639 L 1047 742.403 C 1046.99 757.591 1046.36 775.721 1048.19 790.538 C 1046.74 809.012 1044.97 828.071 1044.88 846.548 C 1030.53 843.213 1018.6 845 1005.99 852.94 C 1004.09 854.145 1002.21 855.382 1000.36 856.652 C 991.486 864.285 964.518 892.857 957.498 895.856 C 954.291 901.47 910.145 944.029 903 949.96 L 898.672 955.304 C 889.207 932.137 884.37 917.088 870.825 894.982 C 812.304 799.478 720.548 747.379 614.413 721.223 C 600.153 735.857 581.962 748.357 563.626 757.261 C 520.363 778.301 470.524 781.331 425.031 765.687 C 374.134 747.79 343.599 715.773 320.8 668.314 C 315.752 659.123 311.416 634.564 309.478 623.55 C 303.273 561.798 334.502 487.148 401.037 471.786 C 422.517 466.826 463.095 480.17 484.984 486.037 C 488.195 486.334 492.259 486.081 495.57 485.976 C 513.251 479.323 528.255 474.091 546.742 469.767 C 556.835 455.595 596.765 444.693 612.981 438.313 C 632.337 423.363 662.195 409.492 685.348 400.022 C 746.637 374.955 822.462 374.184 882.487 403.215 C 891.225 407.388 899.107 412.776 907.215 417.894 C 915.112 422.878 924.387 432.656 932.64 435.787 C 942.214 439.52 958.227 479.163 964.139 488.457 C 966.089 491.523 965.312 490.931 968.324 491.443 C 971.287 490.126 970.237 491.172 971.548 488.173 C 971.081 481.569 945.583 434.274 940.333 427.516 C 959.562 390.225 969.271 375.366 1002.18 349.128 z" fill="rgb(223,223,216)" transform="translate(0,0)"></path>
<path d="M 1002.18 349.128 C 1017.92 338.712 1029.99 333.378 1046.2 347.221 C 1047.43 378.922 1046.53 415.436 1046.63 447.654 L 1046.91 671.639 L 1047 742.403 C 1046.99 757.591 1046.36 775.721 1048.19 790.538 C 1046.74 809.012 1044.97 828.071 1044.88 846.548 C 1030.53 843.213 1018.6 845 1005.99 852.94 C 1004.09 854.145 1002.21 855.382 1000.36 856.652 C 1000.42 848.992 1000.15 840.857 1000.03 833.158 C 999.476 829.846 998.04 809.602 998.095 805.706 C 996.281 795.035 994.885 777.446 993.3 765.824 C 978.844 659.83 932.461 564.943 844.492 500.923 C 777.048 451.84 696.755 425.879 612.981 438.313 C 632.337 423.363 662.195 409.492 685.348 400.022 C 746.637 374.955 822.462 374.184 882.487 403.215 C 891.225 407.388 899.107 412.776 907.215 417.894 C 915.112 422.878 924.387 432.656 932.64 435.787 C 942.214 439.52 958.227 479.163 964.139 488.457 C 966.089 491.523 965.312 490.931 968.324 491.443 C 971.287 490.126 970.237 491.172 971.548 488.173 C 971.081 481.569 945.583 434.274 940.333 427.516 C 959.562 390.225 969.271 375.366 1002.18 349.128 z" fill="rgb(33,102,87)" transform="translate(0,0)"></path>
<path d="M 1002.18 349.128 C 1017.92 338.712 1029.99 333.378 1046.2 347.221 C 1047.43 378.922 1046.53 415.436 1046.63 447.654 L 1046.91 671.639 L 1047 742.403 C 1046.99 757.591 1046.36 775.721 1048.19 790.538 C 1046.74 809.012 1044.97 828.071 1044.88 846.548 C 1030.53 843.213 1018.6 845 1005.99 852.94 C 1004.09 854.145 1002.21 855.382 1000.36 856.652 C 1000.42 848.992 1000.15 840.857 1000.03 833.158 C 999.476 829.846 998.04 809.602 998.095 805.706 C 1001.8 805.16 1000.76 766.975 1001.85 760.489 C 1002.53 748.892 1001.94 729.862 1001.94 717.658 L 1002.03 633.803 L 1002.18 349.128 z" fill="rgb(7,44,37)" transform="translate(0,0)"></path>
<path d="M 998.095 805.706 C 1001.8 805.16 1000.76 766.975 1001.85 760.489 C 1002.25 771.061 1003.33 827.797 1000.03 833.158 C 999.476 829.846 998.04 809.602 998.095 805.706 z" fill="rgb(27,76,69)" transform="translate(0,0)"></path>
<path d="M 546.742 469.767 C 573.129 467.112 597.414 476.095 617.836 492.747 C 646.31 516.002 664.171 549.783 667.357 586.408 C 668.589 599.74 667.937 610.811 666.6 624.054 C 639.191 623.154 610.005 623.206 582.571 623.693 C 491.848 625.304 400.095 621.557 309.478 623.55 C 303.273 561.798 334.502 487.148 401.037 471.786 C 422.517 466.826 463.095 480.17 484.984 486.037 C 488.195 486.334 492.259 486.081 495.57 485.976 C 513.251 479.323 528.255 474.091 546.742 469.767 z" fill="rgb(208,163,59)" transform="translate(0,0)"></path>
<path d="M 411.232 559.515 C 414.527 558.18 418.285 558.717 421.074 560.922 C 423.863 563.127 425.253 566.66 424.714 570.174 C 424.175 573.688 421.791 576.642 418.47 577.91 C 413.406 579.844 407.73 577.339 405.745 572.295 C 403.761 567.251 406.209 561.55 411.232 559.515 z" fill="rgb(7,44,37)" transform="translate(0,0)"></path>
<path d="M 564.047 559.605 C 569.143 557.794 574.74 560.466 576.536 565.566 C 578.332 570.667 575.644 576.256 570.539 578.038 C 565.454 579.813 559.892 577.138 558.103 572.058 C 556.314 566.978 558.972 561.408 564.047 559.605 z" fill="rgb(7,44,37)" transform="translate(0,0)"></path>
<path d="M 666.517 624.121 C 688.402 628.946 723.079 641.777 743.47 651.46 C 817.144 686.444 879.097 739.959 919.862 811.078 C 936.363 839.865 946.23 865.118 957.498 895.856 C 954.291 901.47 910.145 944.029 903 949.96 C 901.416 943.954 898.662 937.434 896.322 931.696 C 857.963 837.637 774.749 769.825 681.27 734.629 C 660.879 726.951 641.361 721.39 620.236 715.685 C 646.37 686.159 657.486 661.631 666.517 624.121 z" fill="rgb(7,44,37)" transform="translate(0,0)"></path>
<path d="M 697.12 530.978 C 706.525 530.157 754.437 553.48 765.008 559.841 C 818.643 592.113 868.074 639.101 900.962 692.57 C 907.225 702.754 916.032 716.248 919.134 727.417 C 915.234 725.042 897.404 695.789 892.905 688.999 C 861.836 642.111 814.571 594.621 765.326 566.839 C 753.023 559.899 740.447 553.456 727.627 547.524 C 720.243 544.09 701.491 536.931 697.12 530.978 z" fill="rgb(237,235,232)" transform="translate(0,0)"></path>
<path d="M 696.256 498.548 C 699.442 497.38 703.01 498.014 705.599 500.208 C 708.187 502.403 709.397 505.818 708.767 509.153 C 708.137 512.487 705.764 515.226 702.553 516.324 C 697.663 517.996 692.339 515.421 690.614 510.55 C 688.888 505.679 691.405 500.327 696.256 498.548 z" fill="rgb(33,102,87)" transform="translate(0,0)"></path>
<path d="M 937.258 737.765 C 940.444 736.699 943.958 737.456 946.423 739.739 C 948.887 742.023 949.91 745.469 949.089 748.727 C 948.269 751.985 945.737 754.536 942.485 755.38 C 937.69 756.625 932.771 753.846 931.362 749.097 C 929.953 744.348 932.561 739.337 937.258 737.765 z" fill="rgb(33,102,87)" transform="translate(0,0)"></path>
<path d="M 320.8 668.314 C 343.599 715.773 374.134 747.79 425.031 765.687 C 470.524 781.331 520.363 778.301 563.626 757.261 C 581.962 748.357 600.153 735.857 614.413 721.223 C 720.548 747.379 812.304 799.478 870.825 894.982 C 884.37 917.088 889.207 932.137 898.672 955.304 C 877.56 977.624 840.826 1002.84 842.655 1034.33 C 843.973 1057.04 855.37 1063.93 867.375 1079.07 C 891.594 1103.95 915.504 1129.12 939.099 1154.59 C 953.931 1170.49 986.255 1207.37 1002.06 1217.43 L 1001.9 1461.56 L 1001.89 1542.51 C 1001.89 1550.63 1002.94 1584.23 1000.07 1588.86 C 995.937 1573.37 996.117 1549.22 992.405 1531.92 C 984.592 1495.51 975.517 1459.29 961.163 1424.8 C 954.601 1409.04 946.168 1393.4 938.609 1378.09 C 878.946 1275.77 783.221 1222.37 671.238 1192.11 C 637.229 1182.92 601.869 1178.07 567.32 1169.45 C 488.254 1149.73 409.417 1113.33 359.753 1046.17 C 328.87 1004.41 321.313 961.556 329.165 910.963 C 330.518 906.571 328.618 906.951 324.333 904.864 C 303.149 894.548 286.944 881.606 272.838 862.501 C 227.536 801.148 264.958 709.173 320.8 668.314 z M 429.625 920.447 C 429.933 919.513 430.24 918.579 430.547 917.644 L 436.173 898.983 C 436.679 897.342 438.823 896.903 440.206 896.368 C 440.05 896.147 439.894 895.925 439.739 895.704 C 439.758 894.638 441.026 893.939 441.669 893.213 L 442.546 892.208 C 443.873 892.409 444.002 892.57 445.103 892.04 C 447.2 888.931 441.393 888.035 443.353 885.438 C 432.999 879.043 437.005 885.741 433.388 871.785 C 432.911 869.942 432.211 868.907 432.07 866.935 C 428.866 869.527 429.108 870.322 426.074 868.072 C 425.091 872.578 423.35 877.736 422.16 882.288 C 419.699 883.283 403.983 889.515 403.452 890.455 C 403.973 891.453 406.711 892.326 407.69 892.835 C 412.297 894.934 417.823 897.239 422.827 898.126 L 423.452 900.056 C 423.991 901.822 424.703 903.485 425.393 905.193 C 427.021 910.376 428.181 915.248 429.625 920.447 z M 351.536 811.039 C 356.065 809.265 358.447 804.288 356.988 799.648 C 355.529 795.009 350.728 792.291 345.999 793.428 C 342.637 794.236 340.007 796.851 339.179 800.208 C 338.351 803.565 339.464 807.103 342.064 809.381 C 344.664 811.66 348.317 812.299 351.536 811.039 z" fill="rgb(7,44,37)" transform="translate(0,0)"></path>
<path d="M 782.781 1078.79 C 772.798 1081.67 763.027 1085.01 753.568 1089.33 C 720.015 1104.68 682.115 1131.01 643.142 1120.79 C 634.888 1118.62 627.078 1114.22 622.927 1106.48 C 619.365 1099.84 619.194 1092.02 621.513 1084.95 C 624.677 1075.3 631.885 1067.55 640.287 1062.1 C 678.777 1037.16 731.478 1057.88 745.399 1050.7 C 742.959 1046.85 720.17 1029.21 715.631 1027.61 C 687.629 1017.76 649.367 1017.5 620.679 1024.73 C 589.014 1032.72 557.991 1050.33 523.866 1043.75 C 480.952 1033.95 484.369 991.082 517.205 971.246 C 561.847 944.278 600.998 962.867 645.483 977.672 C 647.687 978.405 649.411 978.294 651.308 976.933 C 647.691 961.771 553.983 911.339 546.932 847.489 C 545.683 836.173 548.13 824.536 555.6 815.704 C 562.117 808.092 571.426 803.427 581.424 802.761 C 593.842 801.859 608.478 807.225 618.833 814.109 C 687.307 859.628 678.812 940.117 715.244 1003.81 C 728.888 1027.66 740.846 1031.57 760.621 1049.29 C 746.094 1014.54 722.82 966.148 725.626 928.154 C 728.364 891.087 770.613 879.62 791.273 912.558 C 818.359 955.739 796.084 1010.74 787.276 1056.35 C 786.626 1059.71 785.233 1067.35 787.407 1070.1 C 800.605 1083.66 815.685 1095.2 828.875 1108.97 C 854.59 1135.82 875.485 1165.56 896.55 1196.02 C 898.308 1186.96 870.288 1097.95 867.375 1079.07 C 891.594 1103.95 915.504 1129.12 939.099 1154.59 C 953.931 1170.49 986.255 1207.37 1002.06 1217.43 L 1001.9 1461.56 L 1001.89 1542.51 C 1001.89 1550.63 1002.94 1584.23 1000.07 1588.86 C 995.937 1573.37 996.117 1549.22 992.405 1531.92 C 984.592 1495.51 975.517 1459.29 961.163 1424.8 C 954.601 1409.04 946.168 1393.4 938.609 1378.09 C 945.624 1364.7 911.281 1260.34 913.67 1241.89 C 910.695 1234.35 900.947 1218.15 896.483 1210.64 C 864.571 1156.92 828.047 1120.52 782.781 1078.79 z" fill="rgb(223,223,216)" transform="translate(0,0)"></path>
<path d="M 867.375 1079.07 C 891.594 1103.95 915.504 1129.12 939.099 1154.59 C 953.931 1170.49 986.255 1207.37 1002.06 1217.43 L 1001.9 1461.56 L 1001.89 1542.51 C 1001.89 1550.63 1002.94 1584.23 1000.07 1588.86 C 995.937 1573.37 996.117 1549.22 992.405 1531.92 C 984.592 1495.51 975.517 1459.29 961.163 1424.8 C 954.601 1409.04 946.168 1393.4 938.609 1378.09 C 945.624 1364.7 911.281 1260.34 913.67 1241.89 C 919.123 1250.57 926.504 1267.83 930.7 1277.38 C 951.83 1325.45 972.946 1388.24 982.224 1439.86 L 984.21 1439.93 C 976.926 1378.38 950.596 1300.32 923.675 1244.62 C 916.613 1230.01 904.72 1210.75 896.55 1196.02 C 898.308 1186.96 870.288 1097.95 867.375 1079.07 z" fill="rgb(33,102,87)" transform="translate(0,0)"></path>
<path d="M 982.224 1439.86 L 984.21 1439.93 C 985.601 1446.37 983.831 1452.22 982.971 1445.55 L 982.224 1439.86 z" fill="rgb(151,175,172)" transform="translate(0,0)"></path>
<path d="M 416.119 889.088 C 418.34 888.692 418.775 887.967 420.609 887.382 C 423.958 886.312 428 887.161 432.007 886.591 L 433.588 886.379 C 436.478 885.927 446.225 888.231 442.546 892.208 L 441.669 893.213 C 441.026 893.939 439.758 894.638 439.739 895.704 C 439.894 895.925 440.05 896.147 440.206 896.368 C 438.823 896.903 436.679 897.342 436.173 898.983 L 430.547 917.644 C 430.24 918.579 429.933 919.513 429.625 920.447 C 428.181 915.248 427.021 910.376 425.393 905.193 C 431.824 909.448 433.589 896.582 422.827 898.126 C 417.823 897.239 412.297 894.934 407.69 892.835 C 408.477 892.351 409.263 891.867 410.049 891.383 C 412.761 892.63 421.256 894.537 416.119 889.088 z" fill="rgb(237,235,232)" fill-opacity="0.792157" transform="translate(0,0)"></path>
<path d="M 432.07 866.935 C 432.211 868.907 432.911 869.942 433.388 871.785 C 437.005 885.741 432.999 879.043 443.353 885.438 C 441.393 888.035 447.2 888.931 445.103 892.04 C 444.002 892.57 443.873 892.409 442.546 892.208 C 446.225 888.231 436.478 885.927 433.588 886.379 L 432.007 886.591 C 428 887.161 423.958 886.312 420.609 887.382 C 418.775 887.967 418.34 888.692 416.119 889.088 C 413.879 889.791 412.229 890.49 410.049 891.383 C 409.263 891.867 408.477 892.351 407.69 892.835 C 406.711 892.326 403.973 891.453 403.452 890.455 C 403.983 889.515 419.699 883.283 422.16 882.288 C 423.35 877.736 425.091 872.578 426.074 868.072 C 429.108 870.322 428.866 869.527 432.07 866.935 z" fill="rgb(237,235,232)" fill-opacity="0.976471" transform="translate(0,0)"></path>
<path d="M 443.353 885.438 C 449.637 887.184 451.088 888.122 456.783 890.641 C 450.727 893.159 446.686 894.741 440.206 896.368 C 440.05 896.147 439.894 895.925 439.739 895.704 C 439.758 894.638 441.026 893.939 441.669 893.213 L 442.546 892.208 C 443.873 892.409 444.002 892.57 445.103 892.04 C 447.2 888.931 441.393 888.035 443.353 885.438 z" fill="rgb(223,223,216)" transform="translate(0,0)"></path>
<path d="M 422.827 898.126 C 433.589 896.582 431.824 909.448 425.393 905.193 C 424.703 903.485 423.991 901.822 423.452 900.056 L 422.827 898.126 z" fill="rgb(223,223,216)" fill-opacity="0.666667" transform="translate(0,0)"></path>
<path d="M 426.074 868.072 C 428.877 859.164 428.563 859.937 432.07 866.935 C 428.866 869.527 429.108 870.322 426.074 868.072 z" fill="rgb(237,235,232)" transform="translate(0,0)"></path>
<path d="M 416.119 889.088 C 421.256 894.537 412.761 892.63 410.049 891.383 C 412.229 890.49 413.879 889.791 416.119 889.088 z" fill="rgb(223,223,216)" fill-opacity="0.666667" transform="translate(0,0)"></path>
<path d="M 228.404 1145.54 C 225.413 1140.29 222.783 1119.87 221.914 1113.21 C 216.822 1074.23 211.418 1033.23 226.131 995.567 C 241.257 956.84 277.986 931.017 314.102 913.47 C 316.141 912.482 318.723 912.24 320.813 913.172 L 321.421 915.546 C 324.469 915.214 326.595 912.827 329.165 910.963 C 321.313 961.556 328.87 1004.41 359.753 1046.17 C 409.417 1113.33 488.254 1149.73 567.32 1169.45 C 601.869 1178.07 637.229 1182.92 671.238 1192.11 C 783.221 1222.37 878.946 1275.77 938.609 1378.09 C 946.168 1393.4 954.601 1409.04 961.163 1424.8 C 975.517 1459.29 984.592 1495.51 992.405 1531.92 C 996.117 1549.22 995.937 1573.37 1000.07 1588.86 C 1001.1 1605.41 1002.2 1622.11 1002.14 1638.69 C 1000.2 1662.64 1002.68 1692.45 1002.02 1716.78 C 1001.82 1724.2 1002.89 1740.96 1001.22 1747.55 C 992.362 1709.52 984.282 1682.41 967.998 1646.18 C 956.958 1621.62 948.627 1609.28 934.135 1587.43 C 872 1493.75 775.39 1434.02 665.374 1414.07 C 637.066 1408.93 607.996 1406.8 579.481 1403.3 C 448.377 1387.21 313.046 1331.57 251.113 1206.94 C 245.99 1196.63 241.793 1186.49 237.995 1175.59 C 234.802 1166.43 232.525 1154.04 228.404 1145.54 z" fill="rgb(223,223,216)" transform="translate(0,0)"></path>
<path d="M 284.013 1076.78 C 285.275 1082.94 288.424 1091.04 291.084 1096.7 C 335.431 1191.07 431.841 1254.42 530.738 1279.76 C 554.094 1285.74 578.032 1288.81 601.647 1293.57 C 633.244 1299.91 664.279 1308.79 694.451 1320.11 C 776.803 1350.63 855.808 1399.76 908.906 1470.94 C 913.171 1476.66 917.819 1482.1 920.807 1488.62 L 919.928 1490.19 C 918.195 1489.66 884.99 1449.47 876.905 1441.53 C 843.346 1408.61 807.971 1381.39 766.43 1359.27 C 722.976 1336.12 675.147 1316.84 627.203 1305.43 C 601.236 1299.25 574.902 1295.7 548.813 1290.26 C 515.374 1283.17 482.845 1272.32 451.845 1257.92 C 378.068 1223.08 312.036 1164.86 282.883 1086.46 C 281.166 1081.84 280.215 1079.78 282.118 1075.76 C 282.707 1076.17 283.343 1076.52 284.013 1076.78 z" fill="rgb(237,235,232)" transform="translate(0,0)"></path>
<path d="M 692.291 1245.65 C 697.164 1244.01 702.462 1246.54 704.24 1251.37 C 706.018 1256.19 703.631 1261.56 698.855 1263.47 C 695.647 1264.75 691.996 1264.19 689.321 1262 C 686.645 1259.82 685.368 1256.35 685.986 1252.95 C 686.603 1249.55 689.018 1246.76 692.291 1245.65 z" fill="rgb(33,102,87)" transform="translate(0,0)"></path>
<path d="M 282.118 1075.76 C 278.162 1072.97 277.065 1067.58 279.618 1063.46 C 282.17 1059.35 287.486 1057.94 291.744 1060.24 C 296.002 1062.55 297.725 1067.77 295.675 1072.16 C 293.625 1076.54 288.512 1078.57 284.013 1076.78 C 283.343 1076.52 282.707 1076.17 282.118 1075.76 z" fill="rgb(33,102,87)" transform="translate(0,0)"></path>
<path d="M 934.241 1503.46 C 937.292 1502.29 940.739 1502.85 943.26 1504.93 C 945.782 1507.01 946.988 1510.29 946.416 1513.51 C 945.845 1516.73 943.585 1519.39 940.502 1520.47 C 935.827 1522.12 930.698 1519.71 928.986 1515.06 C 927.275 1510.41 929.615 1505.24 934.241 1503.46 z" fill="rgb(33,102,87)" transform="translate(0,0)"></path>
<path d="M 278.229 1010.6 C 281.074 1009.29 284.409 1009.66 286.898 1011.56 C 289.387 1013.46 290.624 1016.58 290.112 1019.67 C 289.6 1022.76 287.423 1025.31 284.455 1026.31 C 280.193 1027.74 275.558 1025.58 273.902 1021.4 C 272.246 1017.23 274.146 1012.48 278.229 1010.6 z" fill="rgb(33,102,87)" transform="translate(0,0)"></path>
<path d="M 425.752 1640.56 C 430.884 1641.43 430.8 1641.14 432.659 1646.42 C 434.871 1647.31 442.224 1660.15 443.329 1662.69 L 437.707 1668.32 C 441.766 1679.3 444.061 1684.52 450.863 1694.01 C 454.231 1699.52 459.272 1703.72 463.421 1708.5 L 464.413 1708.75 C 468.781 1713.67 473.558 1716.94 478.989 1720.65 C 511.737 1740.86 532.448 1745.46 570.015 1749.23 C 619.286 1754.18 650.645 1739.81 696.462 1730.77 C 764.649 1717.32 839.318 1726.84 899.428 1763.74 C 924.084 1778.75 946.19 1797.6 964.911 1819.57 C 966.275 1821.52 967.084 1822.55 968.737 1824.33 C 976.75 1835.37 980.349 1841.62 987.486 1852.5 C 992.653 1867.59 996.107 1867.78 996.32 1883.99 C 972.288 1847.92 941.128 1823.35 903.065 1803.08 C 840.479 1769.82 767.438 1762.13 699.296 1781.61 C 678.875 1787.43 659.972 1795.66 640.19 1801.95 C 601.743 1813.58 560.448 1816.22 522.112 1804.7 C 458.39 1785.56 422.538 1727.13 423.767 1662.22 C 423.896 1655.44 423.635 1647.13 425.752 1640.56 z" fill="rgb(7,44,37)" transform="translate(0,0)"></path>
<path d="M 432.659 1646.42 C 434.871 1647.31 442.224 1660.15 443.329 1662.69 L 437.707 1668.32 C 435.664 1661.11 433.98 1653.8 432.659 1646.42 z" fill="rgb(237,235,232)" transform="translate(0,0)"></path>
<path d="M 294.732 1485.62 C 298.469 1482.18 282.235 1461.44 285.867 1449.05 C 288.621 1446.6 288.632 1447.38 293.173 1446.86 C 293.265 1456.7 300.257 1474.94 306.236 1482.96 C 331.986 1481.88 313.477 1469.29 312.831 1465.57 C 313.027 1465.06 312.865 1465.39 313.513 1464.72 C 345.225 1497.94 385.165 1509.63 430.508 1506.75 C 479.033 1593.34 586.729 1586.83 669.043 1566.75 C 692.663 1560.99 726.167 1562.92 750.343 1563.79 C 856.343 1571.28 951.113 1655.56 982.501 1755.63 L 980.68 1756.36 C 977.267 1747.85 970.605 1736.43 965.411 1728.96 C 902.815 1638.92 794.921 1591.25 685.993 1608.43 C 630.993 1617.11 599.159 1635.38 540.194 1623.17 C 494.056 1613.62 454.434 1590.15 436.085 1544.56 C 432.795 1536.38 429.377 1516.29 427.213 1513.09 C 423.717 1511.94 422.193 1512.2 420.341 1515.1 C 419.676 1520.84 422.003 1527.22 423.84 1532.7 C 425.781 1535.26 425.707 1536.76 426.185 1539.94 C 380.011 1540.93 355.435 1537.54 318.135 1510.34 C 316.187 1507.8 310.639 1503.05 308.009 1500.16 C 307.226 1498.93 307.078 1498.79 306.089 1497.64 C 303.387 1494.52 302.066 1492.49 299.044 1489.28 L 294.732 1485.62 z" fill="rgb(223,223,216)" transform="translate(0,0)"></path>
<path d="M 294.732 1485.62 C 298.469 1482.18 282.235 1461.44 285.867 1449.05 C 288.621 1446.6 288.632 1447.38 293.173 1446.86 C 293.265 1456.7 300.257 1474.94 306.236 1482.96 C 324.936 1510.53 347.191 1523.01 379.95 1529.57 C 395.489 1532.68 408.249 1531.88 423.84 1532.7 C 425.781 1535.26 425.707 1536.76 426.185 1539.94 C 380.011 1540.93 355.435 1537.54 318.135 1510.34 C 316.187 1507.8 310.639 1503.05 308.009 1500.16 C 307.226 1498.93 307.078 1498.79 306.089 1497.64 C 303.387 1494.52 302.066 1492.49 299.044 1489.28 L 294.732 1485.62 z" fill="rgb(33,102,87)" transform="translate(0,0)"></path>
<path d="M 318.135 1510.34 C 355.435 1537.54 380.011 1540.93 426.185 1539.94 C 427.822 1551.9 438.317 1569.93 445.897 1579.34 C 484.613 1627.4 550.208 1641.21 608.922 1633.49 C 633.078 1630.31 655.892 1621.35 680.046 1618.07 C 757.61 1606.07 830.933 1620.97 894.693 1668.18 C 940.87 1702.38 973.997 1746.55 988.668 1802.1 L 986.748 1803.4 C 929.934 1677.84 801.942 1630.31 673.176 1657.93 C 633.607 1666.42 601.998 1679.14 560.37 1675.33 C 518.361 1671.49 482.057 1655.93 453.732 1623.9 C 441.46 1610.33 429.357 1585.51 430.823 1567.04 C 430.435 1564.99 430.264 1564.65 429.583 1562.66 C 424.428 1561.37 414.518 1562.27 408.375 1561.86 C 387.344 1560.47 371.636 1558.03 351.869 1550.68 C 354.903 1550.27 361.503 1550.36 363.705 1549.47 L 363.785 1549.33 L 363.726 1549.48 C 363.369 1548.43 362.407 1547.42 361.926 1546.38 C 360.39 1543.06 365.389 1542.99 365.301 1542.49 C 364.557 1541.66 346.537 1530.22 343.507 1530.26 C 342.016 1530.28 339.177 1529.58 337.49 1529.24 C 328.297 1518.53 330.658 1523.55 320.722 1516.44 C 319.115 1513.84 319.111 1513.43 318.135 1510.34 z" fill="rgb(223,223,216)" transform="translate(0,0)"></path>
<path d="M 585.661 1642.26 C 590.982 1641.46 595.937 1645.14 596.723 1650.46 C 597.509 1655.78 593.827 1660.73 588.505 1661.5 C 583.194 1662.28 578.259 1658.61 577.474 1653.3 C 576.69 1647.99 580.353 1643.05 585.661 1642.26 z" fill="rgb(33,102,87)" transform="translate(0,0)"></path>
<path d="M 292.556 1383.79 C 299.667 1386.15 301.083 1386.17 304.374 1392.99 L 304.754 1393.87 C 309.094 1404.06 309.745 1404.01 314.528 1412.8 C 316.705 1417 320.371 1421.78 323.45 1425.44 C 325.212 1427.86 327.521 1430.05 329.646 1432.17 C 331.032 1433.48 330.908 1433.42 332.413 1434.45 C 353.131 1456.7 388.373 1467.23 417.756 1469.27 C 417.622 1473.47 418.379 1474.77 416.304 1477.38 C 372.853 1474.32 350.162 1462.46 319.528 1433.9 L 318.108 1434.92 C 317.942 1431.72 312.93 1426.32 310.935 1423.22 C 303.267 1411.3 295.311 1397.84 292.556 1383.79 z" fill="rgb(7,44,37)" transform="translate(0,0)"></path>
<path d="M 988.668 1802.1 C 989.008 1803.26 989.347 1804.43 989.668 1805.6 L 990.631 1809.39 C 990.68 1809.61 990.729 1809.83 990.777 1810.06 L 989.895 1811.11 L 990.11 1811.56 L 990.795 1810.8 L 990.473 1812.21 C 990.469 1812.23 990.465 1812.25 990.461 1812.27 C 989.278 1812 987.138 1804.5 986.748 1803.4 L 988.668 1802.1 z" fill="rgb(151,175,172)" transform="translate(0,0)"></path>
<path d="M 982.501 1755.63 C 983.444 1757.8 984.171 1759.58 984.557 1761.97 L 984.415 1761.25 L 984.512 1762.96 L 984.368 1763.13 C 982.918 1762.65 981.19 1757.58 980.68 1756.36 L 982.501 1755.63 z" fill="rgb(151,175,172)" transform="translate(0,0)"></path>
<path d="M 458.44 1641.93 C 499.951 1676.09 540.467 1687.88 595.009 1683.96 C 622.313 1682 645.227 1672.34 671.906 1666.92 C 758.719 1649.29 841.691 1659.77 912.271 1717.51 C 943.313 1742.91 971.45 1782.68 984.49 1820.4 L 982.637 1821.15 C 973.792 1801.84 954.882 1777.71 939.496 1762.97 C 876.581 1700.49 786.846 1681.03 701.561 1697.44 C 661.857 1705.07 632.946 1715.33 591.106 1715.24 C 539.354 1715.13 499.692 1708.16 461.188 1670.77 C 467.3 1665.87 463.731 1666.98 465.022 1660.98 C 467.15 1651.1 462.106 1651.86 458.44 1641.93 z" fill="rgb(223,223,216)" transform="translate(0,0)"></path>
<path d="M 771.648 1669.48 C 776.382 1667.31 781.981 1669.4 784.122 1674.15 C 786.263 1678.9 784.128 1684.49 779.364 1686.59 C 774.647 1688.68 769.128 1686.57 767.007 1681.87 C 764.887 1677.17 766.959 1671.63 771.648 1669.48 z" fill="rgb(33,102,87)" transform="translate(0,0)"></path>
<path d="M 558.211 1475.58 C 564.216 1473.38 570.87 1476.46 573.067 1482.47 C 575.265 1488.48 572.173 1495.13 566.163 1497.32 C 560.164 1499.51 553.526 1496.42 551.331 1490.42 C 549.137 1484.43 552.216 1477.78 558.211 1475.58 z" fill="rgb(237,235,232)" transform="translate(0,0)"></path>
<path d="M 445.721 1628.53 C 446.88 1629.66 457.715 1641.05 458.44 1641.93 C 462.106 1651.86 467.15 1651.1 465.022 1660.98 C 463.731 1666.98 467.3 1665.87 461.188 1670.77 C 456.727 1666.14 451.435 1659.88 448.266 1654.32 C 453.569 1655.24 459.003 1661.58 456.103 1644.99 C 455.771 1643.09 448.347 1635.38 446.717 1633.66 C 443.016 1636.58 443.943 1636.01 439.544 1638.43 C 439.238 1637.55 438.933 1636.68 438.627 1635.8 C 441.501 1630.32 440.254 1631.36 445.721 1628.53 z" fill="rgb(223,223,216)" fill-opacity="0.878431" transform="translate(0,0)"></path>
<path d="M 439.544 1638.43 C 443.943 1636.01 443.016 1636.58 446.717 1633.66 C 448.347 1635.38 455.771 1643.09 456.103 1644.99 C 459.003 1661.58 453.569 1655.24 448.266 1654.32 C 444.765 1650.28 441.908 1643.39 439.544 1638.43 z" fill="rgb(223,223,216)" fill-opacity="0.823529" transform="translate(0,0)"></path>
<path d="M 438.627 1635.8 C 434.846 1625.45 433.731 1618.57 431.917 1608.02 C 436.916 1616.58 439.03 1620.66 445.721 1628.53 C 440.254 1631.36 441.501 1630.32 438.627 1635.8 z" fill="rgb(237,235,232)" transform="translate(0,0)"></path>
<path d="M 984.49 1820.4 L 985.007 1821.83 C 985.391 1822.84 985.917 1824.02 985.549 1825.1 L 985.361 1825.26 C 984.112 1825.11 983.054 1822 982.637 1821.15 L 984.49 1820.4 z" fill="rgb(151,175,172)" transform="translate(0,0)"></path>
<path d="M 1823.55 1144.93 C 1862.23 1212.4 1844.99 1300.5 1792.67 1355.87 C 1788.11 1360.68 1764.14 1379.21 1762.51 1383.28 L 1758.19 1397.77 C 1758.47 1400.63 1758.72 1403.49 1758.92 1406.35 L 1760.21 1407.42 C 1762.5 1408.51 1763.92 1408.54 1764.32 1410.21 C 1765.62 1415.7 1761.95 1425.46 1760.27 1430.88 C 1761.82 1442.49 1758.3 1438.8 1766.17 1447.96 L 1768.38 1449.33 C 1769.4 1456.27 1763.45 1470.27 1761.31 1477.65 C 1760.85 1480.03 1760.43 1482.7 1759.81 1485.01 C 1766.62 1489.69 1763.97 1495.95 1764.02 1503.85 C 1764.41 1557.57 1726.17 1603.07 1672.08 1608.28 C 1658.03 1609.63 1647.02 1607.06 1633.83 1607.14 C 1632.76 1613.14 1626.16 1635.19 1626.43 1637.68 C 1632.14 1645.8 1628.86 1679.25 1627.06 1690.14 C 1613.2 1773.68 1549.61 1815.14 1468.03 1811.73 C 1412.1 1809.39 1394.48 1793.94 1345.08 1779.78 C 1244.5 1750.95 1121.3 1792.73 1057.86 1876.04 C 1054.41 1881.42 1050.37 1887.41 1047.38 1892.97 C 1045.78 1889.62 1046.67 1862.85 1046.71 1857.5 C 1046.96 1833.64 1047.03 1809.78 1046.91 1785.91 C 1046.83 1777.47 1045.8 1764.69 1045.98 1757.31 L 1047.03 1758.52 C 1049.16 1754.72 1051.97 1734.19 1053.42 1728.36 C 1094.11 1565.45 1223.61 1441.7 1389.82 1413.69 C 1418.31 1408.3 1447.63 1407.28 1476.3 1403.58 C 1608.67 1386.49 1750.14 1323.7 1806.66 1194.65 C 1814.16 1177.52 1817.44 1162.15 1823.55 1144.93 z M 1730.47 1475.03 C 1732.69 1478.27 1728.9 1480.82 1737.48 1478.81 C 1740.55 1478.09 1744.98 1478.94 1748.86 1478.47 C 1749.87 1473.29 1748.67 1469.53 1751.71 1464.43 C 1759.35 1451.57 1749.5 1458.28 1745.58 1458.73 C 1743.15 1461.2 1741.16 1463.98 1739.06 1466.73 C 1738.49 1467.18 1737.91 1467.64 1737.34 1468.09 C 1735.12 1470.41 1732.52 1472.74 1730.47 1475.03 z M 1736 1402.73 C 1731.93 1408.57 1740.2 1407.48 1740.63 1400.64 L 1740.72 1399.52 C 1743.99 1399.47 1742.51 1405.73 1742.5 1408.84 C 1746.81 1402.56 1749.63 1395.95 1752.47 1388.93 C 1748.47 1389.83 1735.75 1397.99 1731.91 1400.55 C 1733.41 1401.41 1734.46 1401.97 1736 1402.73 z M 1735.42 1520.53 C 1739.26 1518.82 1741.72 1518.39 1743.39 1514.31 C 1744.84 1510.76 1751.84 1504.11 1748.18 1500.65 C 1743.64 1506.56 1731.13 1516.36 1735.42 1520.53 z" fill="rgb(33,102,87)" transform="translate(0,0)"></path>
<path d="M 1745.58 1458.73 C 1749.5 1458.28 1759.35 1451.57 1751.71 1464.43 C 1748.67 1469.53 1749.87 1473.29 1748.86 1478.47 C 1744.98 1478.94 1740.55 1478.09 1737.48 1478.81 C 1728.9 1480.82 1732.69 1478.27 1730.47 1475.03 C 1732.52 1472.74 1735.12 1470.41 1737.34 1468.09 C 1737.57 1474.3 1742.1 1476.15 1747.19 1475.25 C 1747.78 1475.14 1747.47 1462.84 1750.7 1461.58 C 1750.97 1461.48 1752.17 1459.3 1752.07 1458.68 L 1751.68 1458.58 C 1747.8 1460.05 1745.58 1464.12 1739.06 1466.73 C 1741.16 1463.98 1743.15 1461.2 1745.58 1458.73 z" fill="rgb(223,223,216)" fill-opacity="0.933333" transform="translate(0,0)"></path>
<path d="M 1731.91 1400.55 C 1735.75 1397.99 1748.47 1389.83 1752.47 1388.93 C 1749.63 1395.95 1746.81 1402.56 1742.5 1408.84 C 1742.51 1405.73 1743.99 1399.47 1740.72 1399.52 L 1736 1402.73 C 1734.46 1401.97 1733.41 1401.41 1731.91 1400.55 z" fill="rgb(237,235,232)" fill-opacity="0.988235" transform="translate(0,0)"></path>
<path d="M 1739.06 1466.73 C 1745.58 1464.12 1747.8 1460.05 1751.68 1458.58 L 1752.07 1458.68 C 1752.17 1459.3 1750.97 1461.48 1750.7 1461.58 C 1747.47 1462.84 1747.78 1475.14 1747.19 1475.25 C 1742.1 1476.15 1737.57 1474.3 1737.34 1468.09 C 1737.91 1467.64 1738.49 1467.18 1739.06 1466.73 z" fill="rgb(223,223,216)" fill-opacity="0.87451" transform="translate(0,0)"></path>
<path d="M 1740.72 1399.52 L 1740.63 1400.64 C 1740.2 1407.48 1731.93 1408.57 1736 1402.73 L 1740.72 1399.52 z" fill="rgb(237,235,232)" fill-opacity="0.815686" transform="translate(0,0)"></path>
<path d="M 1626.43 1637.68 C 1632.14 1645.8 1628.86 1679.25 1627.06 1690.14 C 1613.2 1773.68 1549.61 1815.14 1468.03 1811.73 C 1412.1 1809.39 1394.48 1793.94 1345.08 1779.78 C 1244.5 1750.95 1121.3 1792.73 1057.86 1876.04 C 1058.58 1858.67 1065.8 1854.56 1070.43 1841.63 C 1070.65 1837.63 1074.02 1831.7 1076.31 1828.62 C 1097.67 1785.88 1133.52 1752.61 1175.15 1730.03 C 1231.55 1699.45 1295.4 1693.6 1357.73 1705.73 C 1374.61 1709.02 1391.17 1714.39 1407.98 1718.07 C 1474.92 1731 1556.91 1731.04 1604.92 1674.77 C 1610 1668.81 1615.04 1659.71 1619 1653.08 L 1620.42 1653.2 C 1622.04 1646.26 1622.63 1643.67 1626.43 1637.68 z" fill="rgb(7,44,37)" transform="translate(0,0)"></path>
<path d="M 1076.31 1828.62 C 1097.67 1785.88 1133.52 1752.61 1175.15 1730.03 C 1231.55 1699.45 1295.4 1693.6 1357.73 1705.73 C 1374.61 1709.02 1391.17 1714.39 1407.98 1718.07 C 1474.92 1731 1556.91 1731.04 1604.92 1674.77 C 1610 1668.81 1615.04 1659.71 1619 1653.08 L 1620.42 1653.2 C 1617.38 1678.46 1601.54 1700.52 1581.6 1716.17 C 1538.7 1749.85 1475.47 1752.73 1423.06 1747.55 C 1403.45 1745.62 1372.15 1733 1349.72 1729.07 C 1269.43 1714.99 1192.17 1731.23 1126.87 1780.79 C 1109.97 1793.61 1090.47 1812.47 1078.38 1829.52 L 1076.31 1828.62 z" fill="rgb(223,223,216)" transform="translate(0,0)"></path>
<path d="M 1070.43 1841.63 C 1070.65 1837.63 1074.02 1831.7 1076.31 1828.62 L 1078.38 1829.52 L 1070.43 1841.63 z" fill="rgb(187,199,190)" transform="translate(0,0)"></path>
<path d="M 1761.31 1477.65 C 1760.85 1480.03 1760.43 1482.7 1759.81 1485.01 C 1766.62 1489.69 1763.97 1495.95 1764.02 1503.85 C 1764.41 1557.57 1726.17 1603.07 1672.08 1608.28 C 1658.03 1609.63 1647.02 1607.06 1633.83 1607.14 C 1633.5 1606.94 1633.13 1606.78 1632.82 1606.54 C 1627.57 1602.53 1638.95 1575.56 1638.8 1568.07 C 1635.59 1564.05 1635.47 1568.48 1629.89 1563.85 C 1623.16 1602.69 1610.43 1631.2 1577.16 1652.2 C 1508.08 1695.79 1446.08 1673.58 1376.75 1654.96 C 1308.76 1636.69 1214.97 1652.8 1159.03 1693.67 C 1117.37 1722.27 1073.9 1775.31 1059.7 1823.92 L 1057.99 1823.98 C 1070.16 1763.72 1094.64 1721.47 1141.05 1680.02 C 1201.87 1625.72 1285.89 1605 1365.74 1617.41 C 1399.48 1622.66 1431.25 1635.71 1465.97 1636.23 C 1502.25 1637.48 1536.94 1634.86 1569.71 1617.23 C 1598.74 1601.6 1624.37 1572.64 1633.88 1541.09 C 1673.91 1542.08 1715.16 1534.42 1743.09 1502.89 C 1749.77 1495.36 1755.72 1486.05 1761.31 1477.65 z M 1735.42 1520.53 C 1739.26 1518.82 1741.72 1518.39 1743.39 1514.31 C 1744.84 1510.76 1751.84 1504.11 1748.18 1500.65 C 1743.64 1506.56 1731.13 1516.36 1735.42 1520.53 z" fill="rgb(237,235,232)" transform="translate(0,0)"></path>
<path d="M 1759.81 1485.01 C 1766.62 1489.69 1763.97 1495.95 1764.02 1503.85 C 1764.41 1557.57 1726.17 1603.07 1672.08 1608.28 C 1658.03 1609.63 1647.02 1607.06 1633.83 1607.14 C 1633.5 1606.94 1633.13 1606.78 1632.82 1606.54 C 1627.57 1602.53 1638.95 1575.56 1638.8 1568.07 C 1635.59 1564.05 1635.47 1568.48 1629.89 1563.85 C 1633.33 1561.61 1664.38 1560.92 1672.19 1559.56 C 1700.95 1554.57 1734.8 1539.49 1748.57 1512.03 C 1752.37 1504.46 1753.72 1492.98 1758.66 1486.46 C 1759.03 1485.97 1759.42 1485.5 1759.81 1485.01 z" fill="rgb(7,44,37)" transform="translate(0,0)"></path>
<path d="M 1748.18 1500.65 C 1751.84 1504.11 1744.84 1510.76 1743.39 1514.31 C 1741.72 1518.39 1739.26 1518.82 1735.42 1520.53 C 1731.13 1516.36 1743.64 1506.56 1748.18 1500.65 z" fill="rgb(237,235,232)" fill-opacity="0.145098" transform="translate(0,0)"></path>
<path d="M 1626.33 1508.89 C 1668.97 1509.94 1696.79 1501.77 1730.47 1475.03 C 1732.69 1478.27 1728.9 1480.82 1737.48 1478.81 C 1740.55 1478.09 1744.98 1478.94 1748.86 1478.47 L 1750.33 1478.48 C 1724.17 1522.2 1684.14 1534.44 1635.09 1532.92 C 1635.76 1528.32 1637.45 1518.85 1637.09 1514.6 C 1633.79 1513.53 1633.57 1513.79 1630.21 1514.25 C 1629.72 1514.62 1629.23 1515 1628.74 1515.38 C 1627.04 1525.7 1625.55 1539.77 1621.55 1549.23 C 1616.67 1560.77 1608.48 1573.36 1600.3 1582.26 C 1561.1 1624.93 1501.39 1633.47 1446.5 1625.94 C 1419.74 1622.27 1395.4 1613.63 1368.75 1609.24 C 1291.54 1595.96 1212.26 1614.99 1149.49 1661.87 C 1120.51 1683.77 1091.4 1717.02 1074.87 1749.17 C 1073.04 1752.72 1068.45 1761.52 1067.37 1765.27 L 1065.55 1764.48 C 1104.41 1638.88 1222.64 1548.6 1356.43 1563.4 C 1375.99 1565.56 1393.55 1569.47 1412.8 1573.35 C 1487.85 1588.48 1585.79 1585.63 1626.33 1508.89 z" fill="rgb(223,223,216)" transform="translate(0,0)"></path>
<path d="M 1752.47 1388.93 C 1756.14 1385.13 1757.55 1384.26 1762.51 1383.28 L 1758.19 1397.77 C 1758.47 1400.63 1758.72 1403.49 1758.92 1406.35 L 1760.21 1407.42 C 1755.38 1415.7 1753.18 1427.34 1748.96 1436.43 C 1726.94 1483.86 1679.01 1500.76 1629.6 1502.04 C 1631.65 1497.07 1637.24 1477.47 1638.75 1475.9 C 1639.09 1473.9 1639.37 1471.99 1639.64 1469.98 L 1641.65 1468.58 C 1656.25 1466.81 1664.95 1465.4 1678.96 1460.98 C 1702.16 1453.67 1731.75 1430.82 1742.5 1408.84 C 1746.81 1402.56 1749.63 1395.95 1752.47 1388.93 z" fill="rgb(223,223,216)" transform="translate(0,0)"></path>
<path d="M 1752.47 1388.93 C 1756.14 1385.13 1757.55 1384.26 1762.51 1383.28 L 1758.19 1397.77 C 1734.75 1443.73 1692.56 1477.87 1638.75 1475.9 C 1639.09 1473.9 1639.37 1471.99 1639.64 1469.98 L 1641.65 1468.58 C 1656.25 1466.81 1664.95 1465.4 1678.96 1460.98 C 1702.16 1453.67 1731.75 1430.82 1742.5 1408.84 C 1746.81 1402.56 1749.63 1395.95 1752.47 1388.93 z" fill="rgb(7,44,37)" transform="translate(0,0)"></path>
<path d="M 1740.72 1399.52 C 1743.99 1399.47 1742.51 1405.73 1742.5 1408.84 C 1731.75 1430.82 1702.16 1453.67 1678.96 1460.98 C 1664.95 1465.4 1656.25 1466.81 1641.65 1468.58 L 1639.69 1467.46 C 1638.72 1463.93 1640.38 1456.87 1640.38 1451.94 C 1638.22 1449.93 1637.06 1450.74 1633.04 1450.74 C 1631 1447.69 1631.02 1434.33 1630.81 1429.92 C 1677.27 1427.34 1692.37 1419.25 1731.91 1400.55 C 1733.41 1401.41 1734.46 1401.97 1736 1402.73 C 1731.93 1408.57 1740.2 1407.48 1740.63 1400.64 L 1740.72 1399.52 z" fill="rgb(223,223,216)" transform="translate(0,0)"></path>
<path d="M 1745.58 1458.73 C 1754.01 1445.64 1753.92 1442.89 1760.27 1430.88 C 1761.82 1442.49 1758.3 1438.8 1766.17 1447.96 C 1764.63 1448.67 1760.34 1449.3 1760.28 1449.93 C 1759.38 1460.75 1754.49 1468.97 1750.33 1478.48 L 1748.86 1478.47 C 1749.87 1473.29 1748.67 1469.53 1751.71 1464.43 C 1759.35 1451.57 1749.5 1458.28 1745.58 1458.73 z" fill="rgb(237,235,232)" transform="translate(0,0)"></path>
<path d="M 1057.99 1823.98 L 1059.7 1823.92 C 1058.14 1829.47 1056.04 1828.77 1057.99 1823.98 z" fill="rgb(187,199,190)" transform="translate(0,0)"></path>
<path d="M 1067.37 1765.27 C 1067.16 1765.6 1065.51 1768.97 1064.58 1768.34 C 1064.22 1767.36 1065.23 1765.32 1065.55 1764.48 L 1067.37 1765.27 z" fill="rgb(151,175,172)" transform="translate(0,0)"></path>
<path d="M 1622.52 1617.76 C 1623.73 1625.54 1613.12 1646.38 1609.12 1653.2 C 1570.64 1719 1486.31 1723.85 1418.93 1711.7 C 1402.95 1708.82 1387.22 1703.62 1371.4 1699.83 C 1343.91 1693.5 1315.73 1690.66 1287.52 1691.37 C 1215.41 1693.11 1147.3 1724.9 1099.64 1779.06 C 1092.49 1787.13 1087.76 1793.37 1082.13 1802.6 C 1079.16 1807.46 1073.85 1816.44 1069.97 1820.24 C 1076 1801.75 1086.53 1782.17 1097.8 1766.38 C 1161.53 1677.07 1262.26 1641.48 1368.48 1662.68 C 1387.47 1666.47 1403.67 1672.52 1421.81 1677.39 C 1453.37 1685.49 1489.89 1687.95 1522.08 1682.63 C 1549.01 1678.18 1574.69 1666.62 1595.5 1649.25 C 1606.72 1639.87 1614.2 1629.6 1622.52 1617.76 z" fill="rgb(223,223,216)" transform="translate(0,0)"></path>
<path d="M 1488.36 1453.8 C 1490.3 1456.44 1490.08 1457.72 1490.89 1461.01 C 1491.99 1466.22 1493.29 1471.39 1494.8 1476.5 C 1502.04 1479.21 1507.93 1481.29 1515.17 1484.22 C 1508.38 1487.15 1501.44 1489.21 1494.41 1491.46 C 1492.99 1498.68 1490.92 1506.19 1488.24 1513.05 C 1485.06 1504.94 1483.72 1498.96 1481.51 1490.87 C 1473.5 1488.96 1468.41 1487.8 1461.15 1483.85 C 1468.01 1481.35 1474.39 1479.31 1481.18 1476.47 L 1481.68 1475.06 C 1484.19 1468.07 1485.87 1460.2 1488.36 1453.8 z" fill="rgb(208,163,59)" transform="translate(0,0)"></path>
<path d="M 1732.93 946.043 C 1734.06 945.01 1735.54 942.881 1737.03 943.483 C 1765.15 954.873 1791.32 975.77 1809.12 1000.12 C 1838.06 1039.7 1834.13 1099.11 1823.55 1144.93 C 1817.44 1162.15 1814.16 1177.52 1806.66 1194.65 C 1750.14 1323.7 1608.67 1386.49 1476.3 1403.58 C 1447.63 1407.28 1418.31 1408.3 1389.82 1413.69 C 1223.61 1441.7 1094.11 1565.45 1053.42 1728.36 C 1051.97 1734.19 1049.16 1754.72 1047.03 1758.52 L 1045.98 1757.31 C 1048.29 1721.95 1047.16 1675.47 1048.12 1638.48 C 1050.77 1621.67 1051.11 1595.21 1053.7 1576.52 C 1063.33 1507 1077.04 1452.35 1108.44 1389.88 C 1169.21 1274.69 1272.21 1218.85 1395.81 1188 C 1417.24 1183.31 1438.98 1179.14 1460.45 1174.73 C 1564.34 1153.37 1675.47 1103.24 1717.41 998.359 C 1724.74 980.026 1727.62 964.518 1732.93 946.043 z" fill="rgb(223,223,216)" transform="translate(0,0)"></path>
<path d="M 1786.55 1034.72 C 1787.23 1035.36 1788.06 1036.41 1787.95 1037.42 C 1772.39 1179 1625.33 1261.53 1499.36 1289.92 C 1477.14 1294.93 1454.77 1298.14 1432.64 1302.8 C 1392.84 1311.1 1354.12 1323.87 1317.2 1340.88 C 1250.53 1371.91 1201.05 1405.17 1152.07 1460.75 C 1143.76 1470.18 1136.09 1481.73 1128.04 1490.35 L 1127.28 1491.14 L 1126.26 1489.02 C 1137.56 1464.26 1179.77 1422.13 1201.58 1405.08 C 1259.54 1358.92 1326.23 1324.95 1397.64 1305.21 C 1429 1296.65 1460.93 1291.7 1492.78 1285.17 C 1553.2 1272.79 1609.15 1250.5 1660.73 1216.45 C 1731.08 1170 1769.79 1116.73 1786.55 1034.72 z" fill="rgb(237,235,232)" transform="translate(0,0)"></path>
<path d="M 1350.49 1245.51 C 1355.34 1244.07 1360.47 1246.69 1362.13 1251.47 C 1363.8 1256.25 1361.42 1261.49 1356.73 1263.38 C 1353.49 1264.68 1349.8 1264.1 1347.12 1261.86 C 1344.44 1259.63 1343.21 1256.1 1343.91 1252.68 C 1344.62 1249.26 1347.14 1246.51 1350.49 1245.51 z" fill="rgb(33,102,87)" transform="translate(0,0)"></path>
<path d="M 1107.91 1503.41 C 1112.65 1501.35 1118.16 1503.51 1120.24 1508.23 C 1122.33 1512.96 1120.2 1518.49 1115.48 1520.59 C 1110.73 1522.71 1105.16 1520.56 1103.07 1515.8 C 1100.97 1511.04 1103.14 1505.49 1107.91 1503.41 z" fill="rgb(33,102,87)" transform="translate(0,0)"></path>
<path d="M 1046.2 347.221 C 1081.51 376.103 1094.93 379.819 1115.42 423.711 C 1109.36 433.145 1078.73 481.305 1079.89 489.708 L 1081.5 491.279 C 1090.47 491.106 1091.42 480.063 1095.46 473.567 C 1099.97 466.329 1118.34 431.033 1123.72 427.464 C 1126.08 424.106 1128.41 420.41 1130.78 416.959 L 1131.99 415.889 L 1133.18 419.311 C 1139.04 419.069 1147.41 412.273 1152.86 410.059 C 1213.49 385.438 1284.27 370.558 1348.08 391.703 C 1378.98 401.94 1415.44 418.079 1441.75 437.566 C 1446.09 439.907 1460.28 443.746 1465.8 445.526 C 1482.63 450.83 1498.55 458.683 1513 468.811 C 1517.31 524.988 1457.49 554.962 1441.25 604.34 C 1440.8 605.696 1437.45 614.185 1436.97 614.886 C 1418.95 615.901 1396.15 621.124 1378.62 626.008 C 1301.26 647.003 1231.49 689.615 1177.48 748.848 C 1138.6 792.262 1116.02 838.249 1097.48 892.783 C 1084.6 876.687 1064.01 853.78 1044.88 846.548 C 1044.97 828.071 1046.74 809.012 1048.19 790.538 C 1046.36 775.721 1046.99 757.591 1047 742.403 L 1046.91 671.639 L 1046.63 447.654 C 1046.53 415.436 1047.43 378.922 1046.2 347.221 z" fill="rgb(223,223,216)" transform="translate(0,0)"></path>
<path d="M 1046.2 347.221 C 1081.51 376.103 1094.93 379.819 1115.42 423.711 C 1109.36 433.145 1078.73 481.305 1079.89 489.708 L 1081.5 491.279 C 1090.47 491.106 1091.42 480.063 1095.46 473.567 C 1099.97 466.329 1118.34 431.033 1123.72 427.464 C 1126.08 424.106 1128.41 420.41 1130.78 416.959 L 1131.99 415.889 L 1133.18 419.311 C 1139.04 419.069 1147.41 412.273 1152.86 410.059 C 1213.49 385.438 1284.27 370.558 1348.08 391.703 C 1378.98 401.94 1415.44 418.079 1441.75 437.566 C 1353.45 425.779 1261.68 458.647 1191.8 511.952 C 1101.31 580.973 1062.64 680.883 1048.19 790.538 C 1046.36 775.721 1046.99 757.591 1047 742.403 L 1046.91 671.639 L 1046.63 447.654 C 1046.53 415.436 1047.43 378.922 1046.2 347.221 z" fill="rgb(33,102,87)" transform="translate(0,0)"></path>
<path d="M 1123.72 427.464 C 1126.08 424.106 1128.41 420.41 1130.78 416.959 C 1131 417.558 1132.84 421.463 1132.67 421.617 C 1130.31 423.817 1126.72 426.214 1123.72 427.464 z" fill="rgb(237,235,232)" transform="translate(0,0)"></path>
<path d="M 1434.13 519.58 C 1447.49 518.484 1461.72 518.871 1475.11 519.538 C 1469.04 522.576 1412.27 526.034 1396.31 529.701 C 1279.15 556.613 1211.85 610.241 1147.84 708.471 C 1143.62 716.263 1137.87 725.81 1132.43 732.722 C 1141.15 707.536 1163.46 675.075 1180.18 654.369 C 1245.01 574.093 1331.38 529.381 1434.13 519.58 z" fill="rgb(237,235,232)" transform="translate(0,0)"></path>
<path d="M 1108.62 737.525 C 1113.19 735.291 1118.71 737.209 1120.91 741.797 C 1123.1 746.385 1121.14 751.886 1116.54 754.048 C 1111.98 756.186 1106.56 754.251 1104.38 749.713 C 1102.21 745.176 1104.1 739.734 1108.62 737.525 z" fill="rgb(33,102,87)" transform="translate(0,0)"></path>
<path d="M 1000.36 856.652 C 1002.21 855.382 1004.09 854.145 1005.99 852.94 C 1018.6 845 1030.53 843.213 1044.88 846.548 C 1064.01 853.78 1084.6 876.687 1097.48 892.783 L 1147.91 948.47 L 1153.23 953.845 C 1161.1 963.004 1169.17 971.986 1177.43 980.786 C 1192.89 997.363 1209.68 1012.14 1207.65 1037.2 C 1205.35 1065.7 1185 1073.12 1171.64 1090.93 C 1129.88 1129.24 1088.8 1176.81 1046.81 1215.22 C 1034.13 1221.47 1022.16 1224.69 1008.01 1219.77 C 1006 1219.06 1004.02 1218.28 1002.06 1217.43 C 986.255 1207.37 953.931 1170.49 939.099 1154.59 C 915.504 1129.12 891.594 1103.95 867.375 1079.07 C 855.37 1063.93 843.973 1057.04 842.655 1034.33 C 840.826 1002.84 877.56 977.624 898.672 955.304 L 903 949.96 C 910.145 944.029 954.291 901.47 957.498 895.856 C 964.518 892.857 991.486 864.285 1000.36 856.652 z" fill="rgb(208,163,59)" transform="translate(0,0)"></path>
<path d="M 1046.81 1215.22 C 1088.8 1176.81 1129.88 1129.24 1171.64 1090.93 C 1170.99 1098.92 1165.59 1110.96 1164.38 1117.54 C 1161.67 1132.3 1134.92 1217.57 1138.34 1224.74 C 1107.61 1280.63 1085.45 1340.81 1072.58 1403.28 C 1071.1 1410.65 1067.3 1429.86 1066.91 1436.88 L 1068.56 1437.79 C 1077.05 1390.35 1097.57 1332.6 1115.72 1287.97 C 1118.71 1294.63 1114.35 1306.4 1113.37 1313.81 C 1111.42 1328.66 1102.24 1377.75 1108.44 1389.88 C 1077.04 1452.35 1063.33 1507 1053.7 1576.52 C 1051.11 1595.21 1050.77 1621.67 1048.12 1638.48 C 1047.16 1675.47 1048.29 1721.95 1045.98 1757.31 C 1045.8 1764.69 1046.83 1777.47 1046.91 1785.91 C 1047.03 1809.78 1046.96 1833.64 1046.71 1857.5 C 1046.67 1862.85 1045.78 1889.62 1047.38 1892.97 C 1045.11 1898.78 1038.88 1908.65 1033.32 1911.6 C 1017.34 1920.1 1007.28 1903.98 1000.59 1891.82 C 1002.55 1887.33 1003.07 1765.75 1002.84 1753.09 C 1001.24 1750.59 1001.47 1750.58 1001.22 1747.55 C 1002.89 1740.96 1001.82 1724.2 1002.02 1716.78 C 1002.68 1692.45 1000.2 1662.64 1002.14 1638.69 C 1002.2 1622.11 1001.1 1605.41 1000.07 1588.86 C 1002.94 1584.23 1001.89 1550.63 1001.89 1542.51 L 1001.9 1461.56 L 1002.06 1217.43 C 1004.02 1218.28 1006 1219.06 1008.01 1219.77 C 1022.16 1224.69 1034.13 1221.47 1046.81 1215.22 z" fill="rgb(7,44,37)" transform="translate(0,0)"></path>
<path d="M 1046.81 1215.22 C 1088.8 1176.81 1129.88 1129.24 1171.64 1090.93 C 1170.99 1098.92 1165.59 1110.96 1164.38 1117.54 C 1161.67 1132.3 1134.92 1217.57 1138.34 1224.74 C 1107.61 1280.63 1085.45 1340.81 1072.58 1403.28 C 1071.1 1410.65 1067.3 1429.86 1066.91 1436.88 L 1068.56 1437.79 C 1077.05 1390.35 1097.57 1332.6 1115.72 1287.97 C 1118.71 1294.63 1114.35 1306.4 1113.37 1313.81 C 1111.42 1328.66 1102.24 1377.75 1108.44 1389.88 C 1077.04 1452.35 1063.33 1507 1053.7 1576.52 C 1051.11 1595.21 1050.77 1621.67 1048.12 1638.48 C 1047.84 1630.79 1046.77 1623.01 1046.7 1615.5 C 1046.33 1578.68 1046.77 1541.79 1046.82 1504.97 L 1046.85 1303.31 C 1046.81 1274.3 1047.4 1244.02 1046.81 1215.22 z" fill="rgb(33,102,87)" transform="translate(0,0)"></path>
<path d="M 1066.91 1436.88 L 1068.56 1437.79 C 1066.53 1450.29 1065.28 1443.83 1066.91 1436.88 z" fill="rgb(187,199,190)" transform="translate(0,0)"></path>
<path d="M 1002.14 1638.69 C 1003.46 1651.69 1003.05 1676.99 1002.91 1691.09 C 1002.7 1710.46 1003.71 1734.11 1002.84 1753.09 C 1001.24 1750.59 1001.47 1750.58 1001.22 1747.55 C 1002.89 1740.96 1001.82 1724.2 1002.02 1716.78 C 1002.68 1692.45 1000.2 1662.64 1002.14 1638.69 z" fill="rgb(187,199,190)" transform="translate(0,0)"></path>
<path d="M 1297.37 1043.35 C 1312.8 1031.14 1325.08 1023.43 1335.28 1006.01 C 1353.37 975.724 1360.11 942.791 1370 909.039 C 1381.41 870.088 1396.76 842.538 1428.66 816.577 C 1461.15 790.143 1511.74 802.179 1505.07 849.995 C 1499.44 890.355 1452.64 930.207 1423.1 955.402 C 1416.76 960.75 1402.17 971.872 1399.2 977.955 L 1400.27 978.909 C 1408.61 978.256 1425.7 970.905 1434.44 967.75 C 1469.51 954.905 1510.86 951.049 1541.55 975.957 C 1557.63 989.009 1567.3 1015.86 1551.34 1031.46 C 1520.72 1061.37 1470 1035.75 1436.69 1026.03 C 1406.54 1017.24 1364.74 1016.55 1335.43 1027.76 C 1327.18 1031.21 1310.79 1047.14 1302.88 1053.12 C 1340.56 1049.97 1385.01 1041.71 1416.99 1066.93 C 1429.94 1077.14 1437.25 1100.22 1424.79 1110.74 C 1388.89 1141.06 1331.37 1105.77 1296.74 1088.78 C 1287.43 1084.22 1277.91 1081.78 1269.34 1079.04 C 1196.19 1141.28 1153.53 1200.5 1115.72 1287.97 C 1097.57 1332.6 1077.05 1390.35 1068.56 1437.79 L 1066.91 1436.88 C 1067.3 1429.86 1071.1 1410.65 1072.58 1403.28 C 1085.45 1340.81 1107.61 1280.63 1138.34 1224.74 C 1163.28 1180.73 1189.91 1142.77 1225.44 1106.31 C 1238.23 1093.19 1255.77 1080.37 1267.07 1066.95 C 1259.62 1018.82 1219.01 930.465 1278.79 896.292 C 1294.83 887.124 1317.04 899.307 1322.39 916.71 C 1333.86 954.031 1309.51 1006.11 1294.65 1040.65 L 1297.37 1043.35 z" fill="rgb(223,223,216)" transform="translate(0,0)"></path>
<path d="M 1297.37 1043.35 C 1296.62 1044.01 1290.58 1049.6 1293.08 1044.05 L 1294.65 1040.65 L 1297.37 1043.35 z" fill="rgb(27,76,69)" transform="translate(0,0)"></path>
<path d="M 1097.48 892.783 C 1116.02 838.249 1138.6 792.262 1177.48 748.848 C 1231.49 689.615 1301.26 647.003 1378.62 626.008 C 1396.15 621.124 1418.95 615.901 1436.97 614.886 C 1435.75 621.524 1435.22 625.631 1434.69 632.361 C 1432.21 662.552 1438.45 686.637 1453.75 712.518 C 1352.89 727.522 1251.95 783.939 1190.93 866.403 C 1172.57 891.454 1158.06 919.117 1147.91 948.47 L 1097.48 892.783 z" fill="rgb(7,44,37)" transform="translate(0,0)"></path>
<path d="M 1564.57 393.112 L 1578.18 392.962 C 1596.1 396.195 1604.64 400.836 1615.44 416.116 C 1634.25 442.745 1622.79 474.59 1634.05 502.818 C 1640.54 519.085 1652.82 532.548 1663.18 546.403 C 1680.24 569.224 1702.12 604.591 1706.7 632.676 C 1680.57 633.882 1645.94 632.666 1618.82 632.664 C 1557.44 632.971 1496.06 632.87 1434.69 632.361 C 1435.22 625.631 1435.75 621.524 1436.97 614.886 C 1437.45 614.185 1440.8 605.696 1441.25 604.34 C 1457.49 554.962 1517.31 524.988 1513 468.811 C 1516.77 457.055 1513.61 442.288 1523.18 425.757 C 1534.07 406.927 1543.97 399.662 1564.57 393.112 z" fill="rgb(208,163,59)" transform="translate(0,0)"></path>
<path d="M 1606.83 571.315 C 1612.3 569.494 1618.32 570.813 1622.52 574.75 C 1626.72 578.687 1628.43 584.61 1626.97 590.179 C 1625.51 595.749 1621.11 600.07 1615.52 601.437 C 1607.34 603.434 1599.05 598.627 1596.72 590.543 C 1594.39 582.458 1598.85 573.975 1606.83 571.315 z" fill="rgb(7,44,37)" transform="translate(0,0)"></path>
<path d="M 1545.3 570.776 C 1553.65 569.336 1561.62 574.841 1563.24 583.164 C 1564.85 591.486 1559.51 599.57 1551.22 601.355 C 1545.71 602.542 1539.98 600.655 1536.25 596.42 C 1532.52 592.186 1531.38 586.266 1533.25 580.945 C 1535.13 575.625 1539.74 571.735 1545.3 570.776 z" fill="rgb(7,44,37)" transform="translate(0,0)"></path>
<path d="M 1706.7 632.676 C 1707.17 636.791 1707.65 642.515 1708.48 646.431 C 1709.79 682.301 1697.06 717.269 1673 743.903 C 1613.08 809.163 1503.95 787.804 1457.48 717.377 C 1430.91 723.654 1409.8 728.112 1383.53 737.174 C 1303.43 764.796 1227.89 816.75 1183.04 889.663 C 1173.04 905.931 1157.84 934.999 1153.23 953.845 L 1147.91 948.47 C 1158.06 919.117 1172.57 891.454 1190.93 866.403 C 1251.95 783.939 1352.89 727.522 1453.75 712.518 C 1438.45 686.637 1432.21 662.552 1434.69 632.361 C 1496.06 632.87 1557.44 632.971 1618.82 632.664 C 1645.94 632.666 1680.57 633.882 1706.7 632.676 z" fill="rgb(223,223,216)" transform="translate(0,0)"></path>
<path d="M 1304.61 239.261 C 1317.89 200.222 1345.25 178.909 1387.31 179.512 C 1380.04 209.804 1363.45 227.432 1334.19 239.056 C 1328.81 241.191 1315.03 243.759 1311.34 246.271 C 1294.48 257.729 1276.98 271.559 1260.83 283.942 C 1269.61 284.853 1278.41 285.631 1287.22 286.276 C 1295.43 280.259 1303.01 277.76 1312.94 275.906 C 1342.64 270.365 1371.29 276.66 1390.34 301.351 C 1352.79 328.035 1322.75 315.922 1288.47 292.362 C 1276.33 291.851 1266.19 293.228 1252.58 292.318 C 1237.57 303.163 1210.65 328.879 1197.93 342.838 C 1211.21 342.715 1216.2 339.84 1228.46 335.058 C 1259.68 322.882 1291.59 329.061 1309.57 358.97 C 1274.9 379.45 1247.85 367.757 1215.46 348.73 C 1206.7 350.118 1196.4 351.006 1187.49 351.991 C 1169.39 371.031 1147.12 394.652 1131.99 415.889 L 1130.78 416.959 C 1128.41 420.41 1126.08 424.106 1123.72 427.464 C 1118.34 431.033 1099.97 466.329 1095.46 473.567 C 1091.42 480.063 1090.47 491.106 1081.5 491.279 L 1079.89 489.708 C 1078.73 481.305 1109.36 433.145 1115.42 423.711 C 1120.58 415.347 1127.59 406.589 1133.82 398.997 L 1130.96 387.082 C 1101.96 369.698 1102.54 335.649 1116.03 308.663 C 1157.7 332 1132.47 381.308 1138.46 392.027 C 1141.41 390.173 1171.62 355.626 1177.27 349.531 C 1178.12 341.014 1178.89 333.968 1180.37 325.562 C 1160.53 295.579 1148.72 260.368 1176.79 230.459 C 1200.4 254.761 1201.02 276.094 1193.07 308.432 C 1190.7 318.04 1187.17 325.142 1188.16 335.137 L 1189.24 335.962 C 1197.15 331.183 1207.57 319.358 1214.82 312.728 C 1222.36 305.824 1229.88 299.009 1237.56 292.197 L 1240.3 274.235 C 1224.16 237.81 1234.5 202.481 1266.22 179.04 C 1279.85 202.278 1274.71 228.719 1262.7 251.807 C 1258.16 260.542 1247.49 268.732 1247.64 279.383 L 1248.92 280.538 C 1254.13 279.715 1297.8 245.107 1304.61 239.261 z" fill="rgb(7,44,37)" transform="translate(0,0)"></path>
<path d="M 665.956 178.573 C 706.221 178.32 734.682 200.894 745.737 239.02 C 764.908 254.183 785.731 269.359 805.328 284.757 C 805.421 280.324 805.02 276.015 804.711 271.592 C 784.042 246.989 771.262 209.447 786.091 178.923 C 809.274 193.501 823.496 218.93 819.993 246.484 C 817.343 267.329 812.511 272.553 817.059 294.781 C 833.673 309.72 850.003 324.97 866.041 340.525 C 867.58 314.48 859.476 312.34 855.406 289.29 C 851.05 264.627 862.368 246.774 876.059 228.011 C 899.644 259.767 898.844 292.154 873.493 322.741 C 873.991 331.715 874.556 340.685 875.188 349.651 C 887.414 362.161 899.726 375.648 911.397 388.745 C 912.863 390.389 913.845 390.13 915.654 389.772 C 922.849 376.593 894.216 334.777 936.732 309.379 C 953.18 337.386 948.581 366.902 923.326 387.221 C 921.834 390.977 920.503 395.307 919.206 399.179 C 926.474 408.454 933.519 417.903 940.333 427.516 C 945.583 434.274 971.081 481.569 971.548 488.173 C 970.237 491.172 971.287 490.126 968.324 491.443 C 965.312 490.931 966.089 491.523 964.139 488.457 C 958.227 479.163 942.214 439.52 932.64 435.787 C 922.525 408.823 883.362 374.145 865.828 352.121 C 856.476 350.681 845.416 349.717 835.899 348.652 C 812.377 365.273 771.77 379.076 745.397 361.129 C 741.992 354.992 747.522 350.823 751.644 346.865 C 769.173 330.035 795.033 324.395 817.928 332.76 C 833.346 338.393 837.683 342.161 855.107 343.017 C 843.485 329.898 815.071 303.351 800.243 293.13 C 787.927 292.401 775.592 292.033 763.255 292.028 C 751.657 303.518 736.901 311.295 720.866 314.368 C 698.761 318.399 679.854 312.598 661.841 299.948 C 674.601 285.15 685.842 278.542 705.366 274.815 C 722.344 271.574 749.955 275.039 764.088 285.229 L 790.189 284.723 C 784.644 279.219 745.235 247.436 740.033 246.085 C 703.713 236.646 674.579 220.393 665.956 178.573 z" fill="rgb(7,44,37)" transform="translate(0,0)"></path>
<path d="M 1576.19 339.592 C 1581.39 329.144 1585.75 317.837 1592.06 308.13 C 1622.46 261.331 1676.7 235.388 1732.12 238.186 C 1738.1 238.488 1746.55 238.311 1752.01 240.923 C 1753.5 245.994 1742.06 271.045 1738.83 276.695 C 1718.89 311.512 1690.77 337.704 1651.57 348.357 C 1622.39 356.287 1606.82 353.908 1577.53 349.935 C 1578.99 362.13 1580.56 380.811 1578.18 392.962 L 1564.57 393.112 C 1570.64 364.249 1566.17 334.133 1550 309.235 C 1547.71 305.698 1545.2 302.305 1542.5 299.076 C 1552.51 298.868 1554.04 299.04 1562.61 293.73 C 1567.35 309.823 1571.79 323.11 1576.19 339.592 z" fill="rgb(7,44,37)" transform="translate(0,0)"></path>
<path d="M 336.915 319.029 C 360.802 319.226 380.753 321.128 402.66 331.459 C 451.271 354.384 476.923 393.234 476.881 446.474 C 428.197 446.985 385.429 425.635 359.343 384.196 C 346.722 364.146 337.294 343.1 336.915 319.029 z" fill="rgb(7,44,37)" transform="translate(0,0)"></path>
<path d="M 500.713 420.148 C 513.315 365.864 541.667 337.437 596.9 327.836 C 597.898 394.338 559.901 427.207 500.445 446.857 C 499.557 461.565 498.653 471.492 495.57 485.976 C 492.259 486.081 488.195 486.334 484.984 486.037 C 496.957 454.86 493.189 405.908 478.972 376.092 C 475.957 369.771 467.479 355.44 467.849 349.801 C 469.298 346.99 468.182 347.804 470.93 346.875 C 487.926 350.559 498.673 405.037 500.713 420.148 z" fill="rgb(7,44,37)" transform="translate(0,0)"></path>
<path d="M 423.628 1607.39 C 392.753 1608.35 372.019 1613.69 342.43 1595.8 C 319.468 1581.62 302.974 1559 296.483 1532.8 C 294.353 1524.06 290.124 1493.19 294.732 1485.62 L 299.044 1489.28 C 302.066 1492.49 303.387 1494.52 306.089 1497.64 C 305.868 1501.72 306.192 1505.05 305.584 1509.11 C 313.032 1526.31 334.805 1543.71 351.869 1550.68 C 371.636 1558.03 387.344 1560.47 408.375 1561.86 C 414.518 1562.27 424.428 1561.37 429.583 1562.66 C 430.264 1564.65 430.435 1564.99 430.823 1567.04 C 425.33 1567.02 423.12 1566.64 417.67 1565.66 C 419.977 1574.91 426.192 1596.58 425.372 1605.28 L 423.628 1607.39 z" fill="rgb(7,44,37)" transform="translate(0,0)"></path>
<path d="M 299.044 1489.28 C 302.066 1492.49 303.387 1494.52 306.089 1497.64 C 305.868 1501.72 306.192 1505.05 305.584 1509.11 C 301.552 1500.53 301.05 1498.29 299.044 1489.28 z" fill="rgb(223,223,216)" transform="translate(0,0)"></path>
<path d="M 511.055 185.556 C 517.378 197.121 519.877 213.1 522.343 223.747 C 523.895 230.451 551.385 237.466 560.11 240.807 C 549.31 244.927 535.295 248.841 523.984 252.624 L 512.123 293.091 L 511.847 293.068 C 510.177 291.25 501.299 259.552 498.959 253.234 C 488.861 248.75 473.917 244.329 462.984 240.667 C 474.661 236.961 486.166 232.735 497.466 228.002 C 501.999 216.499 507.219 197.829 511.055 185.556 z" fill="rgb(208,163,59)" fill-opacity="0.988235" transform="translate(0,0)"></path>
<path d="M 1768.25 529.634 C 1770.89 533.451 1779.34 563.343 1781.61 570.539 C 1792.62 575.136 1808.03 579.149 1819.72 582.503 C 1807.3 587.37 1794.07 589.086 1781.93 595.04 C 1775.54 607.672 1772.21 621.903 1768.93 635.589 L 1768.61 636.188 C 1767.29 635.761 1757.14 599.911 1753.92 593.724 C 1742.46 589.536 1730.28 586.328 1718.52 582.994 C 1731.68 576.72 1745.41 574.855 1756.86 568.737 C 1760.51 558.678 1764.22 541.763 1768.25 529.634 z" fill="rgb(208,163,59)" transform="translate(0,0)"></path>
<path d="M 1718.48 1657.63 C 1720.52 1659.97 1730.16 1693.11 1732.83 1699.37 C 1744.57 1703.49 1755.63 1707.36 1767.54 1710.95 C 1756.4 1714.66 1742.8 1718.05 1732.49 1722.78 C 1727.84 1732.55 1721.92 1755.58 1718.86 1766.5 C 1717.45 1763.74 1708.03 1729.57 1705.86 1722.63 L 1668.74 1711.61 C 1681.82 1707.96 1692.48 1705.1 1705.04 1699.87 C 1710.39 1687.71 1714.17 1670.88 1718.48 1657.63 z" fill="rgb(208,163,59)" fill-opacity="0.980392" transform="translate(0,0)"></path>
<path d="M 318.108 1434.92 L 319.528 1433.9 C 350.162 1462.46 372.853 1474.32 416.304 1477.38 C 421.712 1478.89 420.954 1480.24 422.194 1485.76 L 420.602 1485.72 C 411.328 1485.4 412.589 1492.51 418.571 1494.02 C 419.787 1494.33 421.536 1491.31 423.306 1490.02 L 427.361 1501.05 C 396.749 1498.86 366.584 1495.41 340.623 1477.45 C 329.164 1469.53 311.963 1453.41 306.644 1440.65 L 307.961 1438.97 C 313.598 1443.93 313.37 1446.56 321.457 1447.61 C 323.649 1442.31 320.636 1439.58 318.108 1434.92 z" fill="rgb(223,223,216)" fill-opacity="0.94902" transform="translate(0,0)"></path>
<path d="M 1825.29 901.581 C 1835.14 899.057 1845.2 904.848 1847.97 914.631 C 1850.73 924.414 1845.19 934.619 1835.48 937.627 C 1828.98 939.64 1821.9 937.971 1816.98 933.267 C 1812.07 928.563 1810.09 921.564 1811.81 914.982 C 1813.54 908.399 1818.7 903.27 1825.29 901.581 z M 1835.48 924.218 C 1836.45 919.064 1833.23 920.705 1828.74 921.067 C 1828.02 925.748 1831.21 924.29 1835.48 924.218 z" fill="rgb(208,163,59)" transform="translate(0,0)"></path>
<path d="M 1828.74 921.067 C 1833.23 920.705 1836.45 919.064 1835.48 924.218 C 1831.21 924.29 1828.02 925.748 1828.74 921.067 z" fill="rgb(208,163,59)" fill-opacity="0.843137" transform="translate(0,0)"></path>
<path d="M 1119.17 154.257 C 1128.85 152.11 1138.47 158.143 1140.75 167.8 C 1143.03 177.456 1137.13 187.153 1127.5 189.565 C 1121.16 191.155 1114.45 189.207 1109.94 184.467 C 1105.44 179.726 1103.83 172.926 1105.74 166.671 C 1107.65 160.415 1112.78 155.672 1119.17 154.257 z" fill="rgb(7,44,37)" transform="translate(0,0)"></path>
<path d="M 1025.32 224.678 C 1028.61 229.126 1030.65 240.062 1034.34 246.596 L 1035.15 248.073 C 1041.01 250.621 1048.91 253.209 1055.12 255.205 C 1047.96 258.274 1040.67 260.562 1033.44 263.342 L 1033.1 264.429 C 1030.3 273.196 1029.08 279.591 1025.86 288.723 C 1022.69 279.333 1021.04 272.208 1018.49 262.738 C 1010.5 260.222 1002.44 257.922 994.491 255.317 C 1001.83 252.917 1009.99 250.24 1016.94 246.968 L 1018.76 246.126 C 1021.18 238.87 1022.99 231.842 1025.32 224.678 z" fill="rgb(208,163,59)" transform="translate(0,0)"></path>
<path d="M 1830.59 1375.82 C 1832.43 1378.01 1838.52 1394.66 1840.9 1399.28 C 1847.63 1401.78 1854.45 1404.59 1861.23 1406.83 C 1853.24 1410.2 1847.58 1411.85 1839.51 1414.65 C 1837.51 1421.36 1834.82 1429.98 1832.4 1436.44 C 1831.88 1436.6 1831.78 1436.73 1831.39 1436.58 C 1830.83 1435.95 1825.56 1416.73 1824.72 1414.21 C 1816.91 1411.8 1811.33 1409.88 1803.71 1407.23 L 1802.87 1406.94 C 1811.4 1402.85 1815.35 1401.84 1824.4 1399.12 L 1830.59 1375.82 z" fill="rgb(208,163,59)" transform="translate(0,0)"></path>
<path d="M 244.08 594.502 C 253.474 594.313 261.295 601.67 261.681 611.058 C 262.066 620.446 254.876 628.419 245.498 629.003 C 239.254 629.391 233.289 626.372 229.904 621.111 C 226.519 615.849 226.244 609.169 229.186 603.647 C 232.127 598.126 237.825 594.627 244.08 594.502 z" fill="rgb(33,102,87)" transform="translate(0,0)"></path>
<path d="M 1333.25 1826.64 C 1333.79 1828.26 1334.27 1829.9 1334.68 1831.56 C 1336.85 1840.07 1337.96 1843.49 1341.37 1851.88 L 1350.02 1853.82 C 1354.54 1854.85 1357.68 1855.84 1362.06 1857.22 C 1355.71 1859.79 1346.84 1862.65 1340.11 1864.86 C 1336.61 1873.6 1335.52 1879.93 1332.63 1887.79 C 1323.81 1860.56 1331.05 1867.48 1302.28 1857.18 C 1310.67 1854.44 1317.89 1852.9 1325.58 1848.39 C 1328.16 1840.24 1329.56 1834.54 1333.25 1826.64 z" fill="rgb(33,102,87)" transform="translate(0,0)"></path>
<path d="M 278.15 459.829 C 279.316 455.447 291.296 450.399 295.946 452.73 C 307.739 458.643 312.835 467.027 303.624 478.702 C 298.475 485.229 279.385 486.123 277.275 476.278 C 279.029 470.189 279.614 466.009 278.15 459.829 z" fill="rgb(223,223,216)" fill-opacity="0.0117647" transform="translate(0,0)"></path>
<path d="M 1839.29 1551.44 C 1847.43 1549.86 1855.37 1554.96 1857.3 1563.03 C 1859.23 1571.09 1854.46 1579.24 1846.48 1581.5 C 1841.02 1583.05 1835.14 1581.48 1831.18 1577.42 C 1827.21 1573.35 1825.8 1567.43 1827.49 1562.01 C 1829.19 1556.59 1833.72 1552.53 1839.29 1551.44 z" fill="rgb(7,44,37)" transform="translate(0,0)"></path>
<path d="M 306.089 1497.64 C 307.078 1498.79 307.226 1498.93 308.009 1500.16 C 305.48 1507.47 311.976 1515.81 317.481 1520.45 C 318.998 1521.73 320.558 1518.4 320.722 1516.44 C 330.658 1523.55 328.297 1518.53 337.49 1529.24 C 339.177 1529.58 342.016 1530.28 343.507 1530.26 C 346.537 1530.22 364.557 1541.66 365.301 1542.49 C 365.389 1542.99 360.39 1543.06 361.926 1546.38 C 362.407 1547.42 363.369 1548.43 363.726 1549.48 L 363.785 1549.33 L 363.705 1549.47 C 361.503 1550.36 354.903 1550.27 351.869 1550.68 C 334.805 1543.71 313.032 1526.31 305.584 1509.11 C 306.192 1505.05 305.868 1501.72 306.089 1497.64 z" fill="rgb(223,223,216)" fill-opacity="0.839216" transform="translate(0,0)"></path>
<path d="M 1498.51 197.385 C 1503.76 195.617 1509.55 196.897 1513.57 200.71 C 1517.59 204.523 1519.16 210.245 1517.67 215.578 C 1516.18 220.912 1511.86 224.983 1506.45 226.157 C 1498.7 227.839 1490.98 223.172 1488.87 215.526 C 1486.76 207.879 1490.99 199.916 1498.51 197.385 z" fill="rgb(208,163,59)" transform="translate(0,0)"></path>
<path d="M 1877.31 1107.36 C 1883.67 1105.03 1890.71 1108.31 1893.02 1114.68 C 1895.33 1121.04 1892.02 1128.08 1885.64 1130.36 C 1879.3 1132.63 1872.32 1129.35 1870.02 1123.01 C 1867.72 1116.68 1870.98 1109.68 1877.31 1107.36 z" fill="rgb(33,102,87)" transform="translate(0,0)"></path>
<path d="M 202.406 1479.62 C 208.541 1482.54 207.309 1488.21 213.468 1486.05 C 215.034 1486.88 216.288 1487.32 217.883 1488.23 C 218.137 1489.74 219.056 1500.18 219.263 1500.45 C 214.261 1502.81 213.99 1502.2 212.587 1507.82 L 211.393 1507.02 C 205.919 1502.43 207.899 1507.09 201.535 1509.29 C 199.189 1501.8 199.984 1503.36 193.175 1500.63 C 195.061 1495.32 197.346 1494.3 198.398 1490.04 L 198.892 1488.19 C 200.281 1487.28 200.723 1484.05 201.418 1482.21 L 202.406 1479.62 z" fill="rgb(208,163,59)" fill-opacity="0.819608" transform="translate(0,0)"></path>
<path d="M 295.934 1440.3 C 298.028 1442.46 298.727 1443.38 299.643 1446.31 C 296.228 1446.84 297.369 1460.81 301.562 1465.53 C 302.541 1464.81 305.252 1463.22 305.879 1462.46 C 306.167 1459.04 300.714 1455.71 301.401 1451.76 C 301.548 1450.91 299.943 1447.19 299.643 1446.31 C 303.781 1450.83 309.71 1459.51 313.513 1464.72 C 312.865 1465.39 313.027 1465.06 312.831 1465.57 C 313.477 1469.29 331.986 1481.88 306.236 1482.96 C 300.257 1474.94 293.265 1456.7 293.173 1446.86 C 295.161 1444.28 293.457 1443.52 295.934 1440.3 z" fill="rgb(223,223,216)" fill-opacity="0.760784" transform="translate(0,0)"></path>
<path d="M 186.576 852.452 C 190.579 850.81 195.159 851.478 198.526 854.195 C 201.893 856.911 203.514 861.246 202.756 865.506 C 201.997 869.765 198.98 873.274 194.882 874.662 C 188.814 876.716 182.211 873.582 179.967 867.581 C 177.723 861.581 180.649 854.883 186.576 852.452 z" fill="rgb(33,102,87)" transform="translate(0,0)"></path>
<path d="M 1475.57 339.567 C 1481.93 337.901 1488.43 341.733 1490.05 348.106 C 1491.68 354.479 1487.8 360.955 1481.42 362.538 C 1475.09 364.105 1468.69 360.274 1467.08 353.96 C 1465.47 347.646 1469.26 341.217 1475.57 339.567 z" fill="rgb(33,102,87)" transform="translate(0,0)"></path>
<path d="M 1163.32 1846.79 C 1168.82 1846.36 1173.71 1850.25 1174.53 1855.71 C 1175.35 1861.17 1171.81 1866.33 1166.42 1867.53 C 1162.59 1868.38 1158.59 1867.02 1156.07 1864.01 C 1153.55 1860.99 1152.93 1856.82 1154.45 1853.19 C 1155.98 1849.57 1159.4 1847.1 1163.32 1846.79 z" fill="rgb(27,76,69)" transform="translate(0,0)"></path>
<path d="M 1690.27 423.669 C 1695.79 422.983 1700.87 426.8 1701.74 432.3 C 1702.62 437.799 1698.98 443.002 1693.51 444.064 C 1689.8 444.783 1686 443.424 1683.59 440.518 C 1681.18 437.613 1680.55 433.624 1681.94 430.115 C 1683.33 426.605 1686.52 424.134 1690.27 423.669 z" fill="rgb(27,76,69)" transform="translate(0,0)"></path>
<path d="M 882.889 1846.7 C 888.328 1845.69 893.595 1849.15 894.828 1854.54 C 896.06 1859.93 892.819 1865.34 887.481 1866.79 C 883.829 1867.78 879.927 1866.69 877.314 1863.96 C 874.701 1861.22 873.798 1857.27 874.962 1853.67 C 876.126 1850.06 879.168 1847.39 882.889 1846.7 z" fill="rgb(27,76,69)" transform="translate(0,0)"></path>
<path d="M 211.236 1377.76 C 216.296 1376.88 221.159 1380.12 222.281 1385.14 C 223.403 1390.15 220.388 1395.16 215.433 1396.52 C 212.014 1397.45 208.356 1396.43 205.915 1393.86 C 203.474 1391.29 202.645 1387.59 203.758 1384.22 C 204.87 1380.85 207.744 1378.37 211.236 1377.76 z" fill="rgb(27,76,69)" transform="translate(0,0)"></path>
<path d="M 252.536 1620.44 C 257.723 1619.96 262.334 1623.74 262.872 1628.92 C 263.411 1634.1 259.676 1638.75 254.5 1639.34 C 251.105 1639.73 247.763 1638.26 245.749 1635.5 C 243.734 1632.74 243.357 1629.11 244.761 1626 C 246.165 1622.88 249.134 1620.76 252.536 1620.44 z" fill="rgb(27,76,69)" transform="translate(0,0)"></path>
<path d="M 450.262 1687.27 C 447.517 1680.9 443.41 1676.73 441.26 1670.47 C 441.021 1669.6 441.792 1667.98 442.914 1668.36 C 445.175 1669.14 446.194 1672.03 448.005 1673.98 C 451.717 1677.99 454.88 1682.29 458.612 1686.41 L 453.125 1691.89 C 452.023 1689.91 451.563 1689.04 450.262 1687.27 z" fill="rgb(223,223,216)" fill-opacity="0.45098" transform="translate(0,0)"></path>
<path d="M 320.722 1516.44 C 320.558 1518.4 318.998 1521.73 317.481 1520.45 C 311.976 1515.81 305.48 1507.47 308.009 1500.16 C 310.639 1503.05 316.187 1507.8 318.135 1510.34 C 319.111 1513.43 319.115 1513.84 320.722 1516.44 z" fill="rgb(223,223,216)" fill-opacity="0.447059" transform="translate(0,0)"></path>
<path d="M 201.535 1509.29 C 207.899 1507.09 205.919 1502.43 211.393 1507.02 L 212.587 1507.82 C 210.767 1513.36 208.529 1520.9 207 1526.53 C 205.472 1521.12 203.445 1514.54 201.535 1509.29 z" fill="rgb(208,163,59)" transform="translate(0,0)"></path>
<path d="M 177.555 1494.99 C 184.768 1492.8 191.699 1490.1 198.892 1488.19 L 198.398 1490.04 C 197.346 1494.3 195.061 1495.32 193.175 1500.63 C 187.538 1498.75 183.097 1497.16 177.555 1494.99 z" fill="rgb(208,163,59)" fill-opacity="0.980392" transform="translate(0,0)"></path>
<path d="M 217.883 1488.23 C 223.537 1490.76 227.722 1492.62 233.325 1495.36 C 228.379 1497.53 224.457 1498.87 219.263 1500.45 C 219.056 1500.18 218.137 1489.74 217.883 1488.23 z" fill="rgb(208,163,59)" fill-opacity="0.968627" transform="translate(0,0)"></path>
<path d="M 458.612 1686.41 L 460.74 1687.96 C 467.248 1698.21 459.775 1708.37 453.125 1691.89 L 458.612 1686.41 z" fill="rgb(223,223,216)" fill-opacity="0.603922" transform="translate(0,0)"></path>
<path d="M 301.562 1465.53 C 297.369 1460.81 296.228 1446.84 299.643 1446.31 C 299.943 1447.19 301.548 1450.91 301.401 1451.76 C 300.714 1455.71 306.167 1459.04 305.879 1462.46 C 305.252 1463.22 302.541 1464.81 301.562 1465.53 z" fill="rgb(223,223,216)" fill-opacity="0.352941" transform="translate(0,0)"></path>
<path d="M 203.245 1476.18 C 204.236 1471.65 205.429 1468.13 206.699 1463.71 C 208.32 1469 210.674 1476.73 212.705 1481.67 C 210.486 1480.36 204.445 1478.47 203.776 1477.15 L 203.245 1476.18 z" fill="rgb(208,163,59)" fill-opacity="0.988235" transform="translate(0,0)"></path>
<path d="M 423.306 1490.02 C 421.536 1491.31 419.787 1494.33 418.571 1494.02 C 412.589 1492.51 411.328 1485.4 420.602 1485.72 L 422.194 1485.76 C 422.682 1487.43 422.959 1488.36 423.306 1490.02 z" fill="rgb(223,223,216)" fill-opacity="0.85098" transform="translate(0,0)"></path>
<path d="M 203.245 1476.18 L 203.776 1477.15 C 204.445 1478.47 210.486 1480.36 212.705 1481.67 C 212.972 1483.13 213.227 1484.59 213.468 1486.05 C 207.309 1488.21 208.541 1482.54 202.406 1479.62 C 202.701 1478.46 202.984 1477.35 203.245 1476.18 z" fill="rgb(208,163,59)" fill-opacity="0.886275" transform="translate(0,0)"></path>
<path d="M 278.15 459.829 C 279.614 466.009 279.029 470.189 277.275 476.278 C 275.26 469.718 274.866 465.815 278.15 459.829 z" fill="rgb(223,223,216)" fill-opacity="0.796078" transform="translate(0,0)"></path>
<path d="M 296.841 1414.85 C 308.24 1409.44 305.235 1426.35 300.416 1417.57 C 299.789 1416.43 299.312 1416.93 298.63 1417.2 C 297.919 1416.34 297.363 1415.77 296.841 1414.85 z" fill="rgb(237,235,232)" fill-opacity="0.0509804" transform="translate(0,0)"></path>
<metadata><recraft-signature>{"signed_by": "recraft", "signature_b64": "fEZwatpKbyhIU5McLfEPoya/55vaJJbcArXYEAUmfnj8s/CHN0nPTJncr2c3mMz6VVcrFvECLHmopiw/93xYCA==", "signing_algo": "Ed25519", "generation_timestamp": 1780054841, "identifier": "fd121adf-5f51-4ca2-aeb6-3ed773c6fd3b"}</recraft-signature></metadata></svg>