<svg xmlns="http://www.w3.org/2000/svg" height="1024" preserveAspectRatio="none" style="display: block;" version="1.1" viewBox="0 0 2048 2048" width="1024">

<path d="M 954.076 147.427 C 1032.43 143.539 1129.04 194.502 1196.37 230.377 C 1223.71 244.941 1252.15 256.819 1281.67 266.189 C 1312.47 275.994 1343.78 284.114 1375.45 290.516 C 1431.48 301.723 1477.74 305.051 1530.52 331.768 C 1612.05 373.04 1654.31 463.443 1608.99 547.989 C 1567.56 625.271 1474.67 669.779 1397.98 703.633 C 1368.49 716.649 1338.01 729.11 1306.86 738.64 C 1306.14 744.54 1305.99 752.647 1305.72 758.736 C 1312.79 755.796 1335.81 743.405 1341.12 745.21 C 1342.12 748.534 1341.13 748.496 1340.34 751.731 C 1333.93 778.271 1338.03 805.06 1334.6 832.669 C 1335.84 833.473 1337.05 834.309 1338.24 835.175 C 1349.43 843.403 1356.87 855.765 1358.89 869.507 C 1361.65 888.192 1355.91 902.694 1345.23 917.279 C 1346.79 918.552 1348.3 919.874 1349.77 921.243 C 1364.48 934.895 1373.04 953.909 1373.52 973.968 C 1374.09 1000.18 1362.68 1020.39 1344.97 1038.61 C 1363.33 1078.3 1386.03 1119.04 1406 1158.07 C 1423.85 1192.96 1442.14 1228.41 1460.95 1262.81 C 1472.21 1283.41 1491.55 1300.23 1501.47 1324.43 C 1508.92 1342.61 1514.41 1354.46 1514.5 1375.4 C 1514.58 1394.62 1501.37 1417.37 1488.84 1431.38 C 1484.45 1436.29 1475.28 1439.82 1468.36 1439.21 C 1448.65 1437.47 1452.37 1406.83 1447.3 1401.14 C 1433.1 1406.86 1423.24 1402 1414.76 1389.87 C 1390.6 1356.86 1423.75 1316.8 1414.5 1281.57 C 1410.44 1266.08 1393.49 1239.45 1385.18 1224.27 L 1351.66 1162.1 C 1336 1132.9 1320.5 1100.54 1303.89 1072.33 C 1262.53 1102.6 1224.61 1114.89 1173.79 1118.49 C 1179.91 1185.47 1190.46 1252.43 1198.69 1319.2 C 1203.21 1355.9 1210.9 1400.16 1209.97 1436.67 C 1209.4 1458.72 1204.54 1489.64 1201.77 1511.87 C 1194.63 1569.01 1183.62 1626.07 1175.25 1683.01 C 1171.84 1706.17 1166.33 1734.36 1164.83 1757.36 C 1178.14 1753.03 1198.12 1749.15 1210.17 1758.62 C 1218.04 1764.8 1218.61 1772.73 1219.41 1781.94 C 1229.7 1783.29 1235.8 1784.04 1243.86 1791.06 C 1306.15 1782.81 1350.47 1814.51 1358.71 1878.32 C 1361.58 1900.55 1363.47 1912.26 1358.53 1934.94 C 1288.18 1969.34 1196.74 1955.45 1139.49 1902.14 C 1136.91 1908.22 1135.56 1911.06 1132.22 1916.78 C 1112.26 1910.82 1093.75 1908.93 1071.94 1901.52 C 1069.82 1890.12 1065.55 1868.11 1067.38 1857.24 C 1067.98 1856.94 1070.68 1855.86 1070.64 1855.07 C 1069.79 1835.84 1070.09 1816.25 1073.54 1797.38 C 1060.37 1777.95 1073.13 1757.27 1094.45 1752.97 C 1098.73 1732.17 1102.51 1699.45 1105.59 1677.49 C 1113.64 1617.38 1120.89 1557.16 1127.31 1496.86 L 1133.71 1433.71 C 1134.97 1420.91 1137.28 1400.7 1136.65 1388.23 C 1135.47 1364.8 1132.69 1340.01 1130.29 1316.62 C 1126.48 1278.77 1122.32 1240.96 1117.81 1203.19 C 1115.24 1181.86 1111 1154.06 1109.88 1132.97 C 1076.46 1145.53 1053.78 1149.09 1018.46 1149.12 C 1011.98 1226.86 999.699 1305.05 995.024 1382.85 C 992.638 1445.6 997.767 1509.34 1003.73 1571.81 C 1009.43 1631.64 1014.78 1692.99 1022.36 1752.53 C 1043.12 1760.04 1057.31 1774.18 1044.26 1796.39 C 1047.93 1814.54 1046.87 1826.95 1048.45 1844.28 C 1050.64 1868.21 1051.43 1877.05 1046.48 1901.76 C 1034.55 1906.42 1008.51 1912.48 995.765 1914.9 C 990.643 1916.21 990.241 1916.88 985.771 1915.52 C 982.646 1912.75 981.26 1906.99 979.808 1902.8 C 925.361 1956.69 825.844 1971.44 758.365 1935.76 C 756.794 1925.63 754.596 1910.87 755.76 1900.52 C 755.918 1899.28 758.284 1895.1 758.254 1894.11 C 756.62 1840.11 791.962 1791.11 848.584 1789.53 C 856.748 1789.3 863.777 1790.13 872.104 1791.14 C 882.758 1785.33 885.59 1784.39 897.585 1782.5 C 898.102 1778.6 898.743 1772.47 900.151 1768.9 C 908.888 1746.8 935.258 1752.05 952.378 1758.95 C 939.986 1668.62 932.888 1576.14 924.909 1485.31 C 921.563 1447.22 917.769 1409.62 925.424 1371.78 C 927.906 1359.51 929.645 1345.8 931.562 1333.31 C 937.62 1293.86 943.476 1254.39 949.132 1214.88 C 952.375 1191.96 956.609 1164.26 958.367 1141.32 C 949.698 1138.66 914.673 1127.16 909.715 1121.88 C 913.896 1119.69 916.602 1119.28 918.21 1115.72 L 918.153 1115.83 C 913.371 1113.3 889.995 1107.07 882.608 1104.85 C 873.168 1163.8 848.026 1236.15 824.049 1290.84 C 818.565 1303.35 807.644 1320.59 803.398 1330.57 C 791.106 1359.47 795.772 1360.47 774.814 1385.08 C 782.415 1395.16 782.175 1402.05 771.746 1409.65 C 782.737 1436.74 786.707 1458.59 782.902 1487.99 C 781.653 1497.63 779.628 1510.93 780.093 1520.12 L 780.182 1521.7 C 782.741 1524.18 785.262 1526.7 787.743 1529.25 C 803.282 1545.33 816.348 1562.3 827.172 1581.85 C 838.961 1603.13 848.718 1624.02 848.312 1648.75 C 847.309 1709.81 785.923 1748.69 729.342 1746.21 C 675.177 1743.84 619.232 1703.91 621.309 1645.46 C 622.066 1624.52 631.292 1603.39 640.886 1585.15 C 653.555 1561.05 669.802 1539.67 690.072 1521.47 C 688.754 1511.18 685.408 1501.16 683.671 1490.99 C 678.629 1460.93 683.359 1430.05 697.165 1402.88 C 650.479 1375.38 652.576 1319.02 692.877 1287.56 C 692.584 1286.66 692.302 1285.76 692.032 1284.86 C 687.252 1268.75 695.231 1259.49 711.038 1256.69 C 733.127 1252.78 753.837 1258.47 772.685 1269.81 C 777.673 1257.4 787.938 1242.42 794.114 1227.99 C 813.944 1181.67 826.519 1133.89 835.284 1084.36 C 821.212 1076.25 803.808 1062.75 791.021 1052.86 C 804.63 1127.22 749.137 1191.98 688.974 1225.86 C 676.823 1232.7 665.287 1241 652.378 1246.56 C 657.172 1219.33 656.335 1209.89 656.061 1182.45 C 652.967 1183.93 649.846 1185.36 646.701 1186.73 C 614.309 1200.66 574.501 1196.74 542.021 1183.83 C 539.342 1182.77 538.14 1182.06 537.227 1179.78 C 541.407 1176.76 553.828 1168.12 557.022 1165.01 C 581.916 1140.75 596.571 1109.15 626.706 1090.14 C 606.929 1086.69 584.871 1082.96 566.535 1074.83 C 579.574 1062.8 587.987 1061.04 601.749 1045.06 C 584.132 1037.08 568.237 1027.96 551.066 1019.3 C 542.522 1014.98 532.01 1010.8 523.119 1006.84 C 547.451 1000.22 565.439 986.06 585.973 971.702 C 650.278 926.737 706.076 933.535 778.414 941.721 L 785.02 935.196 C 773.588 922.896 769.388 913.353 764.219 897.775 C 732.919 907.643 672.753 917.56 639.678 919.844 C 570.072 924.65 485.519 912.383 431.729 865.075 C 399.891 837.328 381.086 800.888 378.476 758.656 C 374.669 697.06 409.931 643.826 452.74 602.815 C 469.552 586.71 487.937 572.225 505.093 556.462 C 539.55 525.126 570.917 490.553 598.762 453.218 C 617.881 427.308 634.8 398.823 651.749 371.416 C 721.912 257.956 810.7 155.394 954.076 147.427 z" fill="rgb(4,3,3)" transform="translate(0,0)"></path>
<path d="M 420.696 847.378 C 419.231 845.814 417.824 844.197 416.477 842.53 C 391.232 811.284 379.172 773.42 383.79 733.447 C 393.041 653.377 454.45 609.099 508.305 559.587 C 538.49 532.242 566.298 502.383 591.43 470.331 C 616.513 438.733 637.546 404.028 658.463 369.469 C 728.235 254.19 836.996 138.788 984.624 153.746 C 1088.87 164.309 1175.11 234.978 1272.18 267.975 C 1308.22 279.9 1345.03 289.4 1382.34 296.412 C 1423.65 304.304 1467.6 309.986 1506.68 325.84 C 1574.45 353.328 1630.16 412.817 1621.72 490.283 C 1609.47 496.882 1567.55 520.033 1555.46 520.753 C 1554.47 520.17 1553.95 520.04 1553.3 519.224 C 1560.87 498.541 1559.05 484.712 1550.71 465.427 C 1526.8 410.171 1475.47 394.05 1419.56 404.11 C 1370.5 412.936 1359.59 423.432 1329.62 375.939 C 1289.34 312.114 1244.05 407.315 1195.81 384.133 C 1160.33 368.581 1152.49 341.434 1109.21 339.844 C 1053.51 337.797 1056.78 390.499 1015.03 401.664 C 1005.51 404.259 995.43 403.964 986.074 400.818 C 961.563 392.812 948.383 385.231 921.284 396.954 C 894.877 408.378 884.77 447.207 861.868 456.484 C 833.695 467.896 808.527 439.325 776.257 463.255 C 758.678 476.29 757.992 489.818 750.114 508.96 C 737.715 539.084 713.973 554.363 682.546 559.189 C 675.253 560.316 667.877 560.822 660.497 560.702 C 639.195 560.207 608.266 551.34 601.586 579.66 C 593.67 613.213 603.174 648.923 564.605 667.147 C 525.901 685.009 478.164 693.372 464.356 740.717 C 453.825 776.827 468.086 813.098 494.758 837.919 C 493.938 838.67 493.119 839.42 492.299 840.171 C 471.665 843.462 440.497 846.214 420.696 847.378 z" fill="rgb(222,79,77)" transform="translate(0,0)"></path>
<path d="M 894.283 203.13 C 900.035 202.786 906.036 204.538 909.465 209.444 C 912.428 213.655 913.415 218.947 912.169 223.943 C 911.288 227.522 909.288 230.726 906.46 233.09 C 903.877 235.272 893.876 239.314 890.554 240.496 C 836.861 259.609 794.486 299.999 766.752 349.194 C 761.664 358.218 756.609 369.28 747.261 375.042 C 739.881 375.332 730.097 373.011 727.717 365.066 C 724.565 354.545 733.408 338.963 738.454 330.04 C 772.709 269.472 826.751 222.194 894.283 203.13 z" fill="rgb(255,255,255)" transform="translate(0,0)"></path>
<path d="M 949.517 189.131 C 976.548 188.028 979.051 210.492 955.84 220.773 C 941.081 221.884 929.556 217.902 935.67 198.386 C 937.201 193.498 944.698 190.526 949.517 189.131 z" fill="rgb(255,255,255)" transform="translate(0,0)"></path>
<path d="M 503.867 611.807 C 508.841 610.802 513.97 612.564 517.276 616.415 C 520.581 620.265 521.547 625.602 519.8 630.366 C 518.053 635.131 513.867 638.578 508.856 639.38 C 501.324 640.584 494.212 635.543 492.854 628.037 C 491.496 620.531 496.391 613.318 503.867 611.807 z" fill="rgb(228,127,122)" transform="translate(0,0)"></path>
<path d="M 633.304 486.856 C 644.223 488.955 650.303 496.979 646.708 508.397 C 645.172 513.275 640.954 514.643 636.735 516.652 L 635.132 516.391 C 617.927 513.773 615.106 494.7 633.304 486.856 z" fill="rgb(228,127,122)" transform="translate(0,0)"></path>
<path d="M 424.228 755.528 C 428.562 753.537 433.636 754.061 437.47 756.897 C 441.305 759.732 443.292 764.43 442.657 769.157 C 442.022 773.883 438.865 777.89 434.418 779.613 C 427.827 782.167 420.398 779.023 417.643 772.512 C 414.889 766.002 417.805 758.48 424.228 755.528 z" fill="rgb(228,127,122)" transform="translate(0,0)"></path>
<path d="M 1407.62 348.553 C 1411.99 347.932 1416.37 349.726 1419.04 353.244 C 1421.72 356.761 1422.29 361.453 1420.53 365.508 C 1418.77 369.563 1414.95 372.348 1410.55 372.789 C 1403.94 373.451 1398.01 368.704 1397.21 362.107 C 1396.41 355.51 1401.04 349.486 1407.62 348.553 z" fill="rgb(228,127,122)" transform="translate(0,0)"></path>
<path d="M 1461.03 349.36 C 1465.8 347.461 1471.2 349.801 1473.07 354.578 C 1474.95 359.355 1472.58 364.745 1467.79 366.596 C 1463.04 368.432 1457.7 366.085 1455.84 361.343 C 1453.98 356.601 1456.3 351.246 1461.03 349.36 z" fill="rgb(228,127,122)" transform="translate(0,0)"></path>
<path d="M 439.289 691.659 C 444.149 691.397 448.317 695.092 448.64 699.948 C 448.963 704.805 445.321 709.018 440.469 709.402 C 437.275 709.654 434.193 708.17 432.4 705.516 C 430.607 702.861 430.38 699.448 431.806 696.579 C 433.232 693.711 436.091 691.832 439.289 691.659 z" fill="rgb(228,127,122)" transform="translate(0,0)"></path>
<path d="M 696.874 474.488 C 699.069 474.011 701.347 474.791 702.789 476.514 C 704.231 478.236 704.598 480.616 703.743 482.693 C 702.887 484.77 700.95 486.201 698.714 486.408 C 695.533 486.703 692.672 484.471 692.185 481.314 C 691.698 478.157 693.752 475.166 696.874 474.488 z" fill="rgb(228,127,122)" transform="translate(0,0)"></path>
<path d="M 1081.68 529.439 C 1145.82 524.98 1221.2 549.831 1259.09 603.615 C 1289.55 646.857 1308.11 707.423 1300.77 760.165 C 1274.06 770.75 1257.6 779.165 1237.4 798.686 C 1235.61 800.418 1204.05 814.704 1198.79 817.582 C 1145.78 846.628 1075.48 891.437 1012.77 880.899 C 956.933 872.881 895.643 863.326 842.521 844.221 C 834.843 841.459 809.266 817.647 798.216 813.282 C 790.505 806.181 788.077 774.817 787.863 766.93 C 786.822 716.899 792.331 680.246 827.214 642.508 C 894.448 569.772 984.316 534.885 1081.68 529.439 z" fill="rgb(235,228,217)" transform="translate(0,0)"></path>
<path d="M 1219.56 626.18 L 1222.6 627.486 C 1225.63 637.459 1211.67 652.884 1204.07 658.177 L 1214.34 665.575 C 1216.45 664.737 1221.79 661.791 1223.08 661.426 C 1233.58 658.453 1237.21 640.294 1240.31 637.223 L 1242.31 638.242 C 1248.4 649.849 1226.5 665.94 1217.23 670.326 L 1225.03 679.282 C 1234.89 675.422 1242.46 672.175 1248.1 662.593 C 1249.81 659.686 1250.09 659.218 1253.09 657.72 L 1254.18 658.639 C 1254.39 671.874 1236.84 679.336 1226.65 684.81 C 1225.94 687.235 1225.49 688.529 1224.54 690.869 C 1221.15 692.411 1222.94 692.112 1218.95 691.341 C 1215.62 687.432 1213.65 684.172 1210.89 679.891 C 1190.45 656.362 1153.91 657.416 1136.66 684.504 C 1132.3 691.348 1131.51 708.094 1120.84 705.464 C 1116.82 700.596 1119.07 694.509 1121.07 689.245 C 1134.56 653.811 1165.94 642.533 1199.5 655.465 C 1212.05 646.84 1214.73 639.762 1219.56 626.18 z" fill="rgb(4,3,3)" transform="translate(0,0)"></path>
<path d="M 914.147 718.248 C 933.05 716.643 955.438 721.313 967.729 738.63 C 969.072 740.523 968.267 743.564 967.489 745.599 C 958.808 751.204 945.837 731.515 928.357 730.46 C 921.783 730.063 915.342 731.235 909.05 733.028 C 872.59 743.415 881.983 776.432 873.409 783.917 C 868.816 784.603 869.559 783.998 864.479 781.1 C 853.314 783.729 834.745 784.052 828.947 771.791 L 829.671 770.369 C 833.498 770.442 832.743 770.785 836.552 773.232 C 843.693 776.49 855.089 780.457 862.037 775.662 C 866.362 772.678 866.328 767.647 867.039 762.913 C 865.747 763.21 864.438 763.428 863.12 763.567 C 853.512 764.664 830.914 760.397 830.639 747.962 L 831.81 746.891 L 834.291 747.382 C 840.072 755.222 852.686 760.96 862.52 758.271 C 869.846 756.268 871.7 750.584 874.882 744.346 C 865.238 743.763 843.415 740.353 842.609 728.35 L 844.138 726.759 C 848.288 727.314 851.572 732.682 855.578 734.701 C 862.596 738.238 869.537 739.05 877.084 739.756 C 889.927 726.337 896.144 722.286 914.147 718.248 z" fill="rgb(4,3,3)" transform="translate(0,0)"></path>
<path d="M 1050.45 718.183 C 1082.8 716.329 1087.89 749.832 1057.06 760.101 C 1025.51 762.297 1017.01 728.812 1050.45 718.183 z" fill="rgb(228,127,122)" transform="translate(0,0)"></path>
<path d="M 1097.05 774.472 C 1108.87 779.578 1095.35 820.35 1072.04 821.406 C 1046.64 822.555 1041.73 817.428 1030.04 796.355 C 1028.34 788.383 1033.5 789.032 1034.89 792.958 C 1037.51 800.39 1038.48 803.488 1044.69 809.309 C 1051.4 815.605 1056.57 817.255 1065.5 817.201 C 1084.04 817.09 1097.03 800.972 1095.78 782.998 C 1095.45 778.18 1094.65 778.38 1097.05 774.472 z" fill="rgb(4,3,3)" transform="translate(0,0)"></path>
<path d="M 690.732 1526.76 C 714.046 1543.41 755.033 1541.97 778.591 1526.51 C 814.811 1558.86 858.499 1626.54 838.55 1676.6 C 827.285 1704.87 807.965 1720.21 781.256 1732.58 C 767.261 1738.81 748.699 1741.68 733.492 1741.67 C 702.147 1741.58 672.115 1729.07 649.986 1706.87 C 595.656 1651.5 645.931 1569.81 690.732 1526.76 z" fill="rgb(235,228,217)" transform="translate(0,0)"></path>
<path d="M 816.67 1671.82 C 821.274 1671.74 823.759 1671.91 827.312 1675.03 C 828.758 1677.69 829.23 1680.82 827.996 1683.67 C 806.747 1732.65 743.213 1742.06 697.755 1728.37 C 695.265 1727.38 690.884 1725.7 688.671 1724.38 C 685.035 1722.24 682.408 1718.73 681.378 1714.64 C 682.308 1710.66 687.618 1706.14 691.16 1707.26 C 740.912 1722.91 782.767 1709.11 816.67 1671.82 z" fill="rgb(128,148,122)" transform="translate(0,0)"></path>
<path d="M 673.968 1619.72 C 687.963 1618.2 700.54 1628.31 702.062 1642.31 C 703.584 1656.3 693.474 1668.88 679.48 1670.41 C 665.481 1671.93 652.897 1661.82 651.374 1647.82 C 649.852 1633.82 659.968 1621.24 673.968 1619.72 z" fill="rgb(255,255,255)" transform="translate(0,0)"></path>
<path d="M 784.55 1585.76 C 805.286 1586.99 812.043 1630.19 812.001 1646.5 C 811.991 1650.38 810.052 1654.17 808.011 1657.37 C 793.714 1656.27 795.77 1646.88 794.155 1634.5 C 792.777 1623.93 789.579 1615.52 784.892 1606.01 C 780.654 1597.41 777.716 1595.66 783.443 1587.39 L 784.55 1585.76 z" fill="rgb(255,255,255)" transform="translate(0,0)"></path>
<path d="M 673.149 1679.86 C 678.181 1677.12 684.481 1678.92 687.293 1683.92 C 690.106 1688.91 688.389 1695.23 683.439 1698.12 C 680.172 1700.02 676.134 1700.02 672.87 1698.11 C 669.607 1696.2 667.624 1692.68 667.682 1688.9 C 667.74 1685.12 669.829 1681.66 673.149 1679.86 z" fill="rgb(255,255,255)" transform="translate(0,0)"></path>
<path d="M 1332.78 837.882 C 1341.82 842.315 1348.2 850.871 1351.66 860.16 C 1356.7 873.616 1356 888.554 1349.73 901.48 C 1339.02 923.71 1320.04 934.625 1297.83 942.176 L 1297.17 943.85 L 1298.17 945.623 C 1308.75 949.059 1335.12 927.431 1342.47 920.843 C 1345.33 922.975 1347.43 924.857 1349.9 927.469 C 1362.87 941.005 1369.79 959.219 1369.08 977.949 C 1367.5 1020.28 1338.02 1039.16 1308.74 1062.46 C 1257.76 1103.03 1208.65 1116.6 1144.23 1112.86 C 1178.41 1087.42 1189.73 1055.07 1192.32 1014.02 C 1212.26 1001.54 1227.86 989.583 1246.45 975.158 C 1252.26 970.012 1264.21 963.136 1268.63 956.94 L 1267.86 955.61 C 1265.83 954.775 1264.45 953.897 1262.08 954.772 C 1207.77 974.865 1155.29 984.538 1097.67 987.134 C 1117.21 974.305 1131.6 959.981 1140.45 938.008 C 1149.57 941.317 1178.45 952.695 1186.49 950.034 C 1183.75 946.593 1149.21 936.319 1141.78 933.693 L 1142.62 933.119 C 1152.2 926.456 1167.11 919.484 1177.9 913.688 C 1186.64 914.623 1212.34 918.885 1218.22 914.541 L 1218.1 912.825 C 1214.43 910.892 1190.76 910.349 1184.89 909.642 C 1194.56 903.995 1204.02 898.005 1213.26 891.684 C 1220.49 904.757 1229.56 914.082 1245.71 912.994 C 1271.71 911.241 1297.63 891.777 1314.49 873.257 C 1317.82 876.735 1331.02 891.525 1336.01 890.15 C 1334.38 884.067 1321.98 874.479 1316.76 869.978 C 1325.73 858.984 1328.67 851.222 1332.78 837.882 z" fill="rgb(128,148,122)" transform="translate(0,0)"></path>
<path d="M 1338.64 954.792 L 1339.9 956.542 C 1339.88 959.299 1337.48 961.609 1335.66 963.99 C 1336.37 969.438 1340.49 993.146 1338.17 997.175 C 1333.92 993.749 1332.23 973.684 1331.63 968.086 C 1323.17 975.294 1315.27 982.978 1307.22 990.64 C 1307.01 997.54 1307.5 1030.27 1306.24 1033.9 L 1304.43 1034.16 C 1300.87 1030.07 1302.7 1001.77 1303.14 994.324 C 1279.67 1015.44 1255.15 1035.5 1231.92 1056.92 C 1227.1 1061.36 1222.11 1065.8 1216.98 1069.86 C 1224.37 1072.23 1244.7 1075.79 1247.93 1080.02 L 1247.3 1081.23 C 1241.15 1081.8 1219.95 1075.88 1213.04 1074.1 C 1208.85 1076.55 1204.49 1079.92 1200.52 1082.79 C 1197.7 1084.9 1198.27 1085.18 1195.27 1085.38 L 1195.12 1083.21 C 1197.83 1077.97 1200.44 1076.84 1205.33 1073.74 C 1206.63 1065.79 1208.2 1032.69 1211.07 1029.26 L 1212.64 1029.37 C 1214.1 1032.58 1210.61 1063.33 1210.06 1069.24 C 1217.97 1063.11 1227.28 1054.41 1234.92 1047.67 C 1235 1038.73 1234.63 1027 1238.03 1018.86 L 1239.07 1019.57 C 1240.49 1028.6 1239.6 1035.1 1239.11 1044.21 L 1323.89 968.078 C 1317.51 968.812 1301.35 970.444 1294.85 969.797 C 1293.64 969.677 1293.67 968.762 1293.16 967.374 L 1294.34 965.822 C 1301.64 964.302 1320.44 963.715 1329.9 962.492 C 1332.79 959.902 1335.71 957.336 1338.64 954.792 z" fill="rgb(4,3,3)" transform="translate(0,0)"></path>
<path d="M 779.147 951.939 C 789.387 953.028 825.528 964.073 828.813 963.707 L 829.176 962.12 C 825.194 957.422 815.2 952.856 809.736 949.596 C 799.063 943.177 789.537 934.986 782.158 925.084 C 761.038 896.74 764.662 862.463 794.929 842.456 C 799.794 839.241 807.163 834.956 813.326 836.175 C 822.054 837.902 829.709 844.979 837.962 848.255 C 846.847 851.791 856.493 854.256 865.652 856.887 C 911.499 870.057 957.632 876.09 1004.27 884.695 L 1004.24 885.494 C 962.49 896.161 936.097 909.507 901.825 935.732 C 883.131 921.839 859.094 908.138 839.178 894.562 C 847.02 893.673 869.301 892.788 873.254 888.484 L 872.484 887.411 C 863.24 886.349 844.002 889.65 834.267 891.58 C 827.711 885.856 813.796 877.755 805.928 872.891 C 812.065 871.736 832.048 868.837 835.386 864.791 C 832.455 859.742 805.38 868.885 798.907 870.215 L 798.876 871.555 C 798.553 881.774 795.164 897.977 797.058 906.646 L 798.473 907.094 C 802.085 902.772 803.044 883.093 803.332 876.367 C 823.578 890.117 844.016 903.583 864.641 916.759 C 875.249 923.612 888.205 931.258 897.938 938.831 C 884.317 950.302 867.706 963.354 854.78 975.066 C 898.851 993.57 956.186 1014.87 994.187 1042.85 C 988.018 1048.35 983.193 1052.8 977.476 1058.74 L 953.081 1049.95 C 953.442 1044.42 954.263 1040.73 952.052 1035.73 L 950.496 1034.25 C 946.698 1036.65 948.311 1043.83 948.636 1048 C 938.86 1044.28 929.874 1040.08 920.388 1035.74 C 918.584 1029.41 915.3 1015.08 910.587 1011.53 C 909.021 1016.81 913.393 1027.89 915.214 1033.2 C 890.569 1022.69 867.077 1010.89 843.338 998.531 C 839.532 996.549 834.12 993.659 830.143 992.17 C 826.525 990.268 824.314 989.22 829.837 989.15 C 834.677 989.026 846.045 989.419 848.038 984.693 L 846.842 983.377 C 839.645 982.585 825.551 984.442 817.844 985.201 C 809.77 981.136 803.106 977.708 795.32 973.088 C 792.261 985.633 787.379 1002.65 787.376 1015.19 C 792.357 1006.05 795.758 991.767 798.668 981.356 C 802.192 982.875 805.672 984.494 809.103 986.212 C 810.901 987.105 819.011 990.721 819.845 992.744 C 822.669 999.603 821.996 1029.51 828.077 1032.46 C 830.842 1028.9 827.319 1017.04 826.941 1012.01 C 826.533 1006.57 825.892 1000.92 825.456 995.45 C 865.197 1014.04 897.429 1031.45 939.177 1049.25 C 929.888 1050.01 919.658 1051.49 910.395 1052.95 C 908 1053.33 907.111 1055.23 906.212 1056.95 L 907.006 1057.98 C 915.225 1057.64 936.256 1053.35 946.826 1052.07 C 956.464 1056.53 963.584 1058.92 973.588 1062.32 C 962.338 1073.97 936.683 1103.54 924.064 1111.06 C 876.31 1103.51 829.359 1080.05 792.969 1048.34 C 765.54 1024.43 756.955 982.119 779.147 951.939 z" fill="rgb(128,148,122)" transform="translate(0,0)"></path>
<path d="M 830.143 992.17 C 826.525 990.268 824.314 989.22 829.837 989.15 L 830.143 992.17 z" fill="rgb(100,123,96)" transform="translate(0,0)"></path>
<path d="M 1430.67 407.383 C 1433.34 406.881 1444.18 406.59 1447.14 406.539 C 1474.55 406.068 1502.49 412.274 1522.37 432.374 C 1540.66 450.87 1544.78 467.711 1544.96 492.773 C 1503.23 534.596 1407.84 555.94 1350.96 566.175 C 1339.77 568.189 1331.47 569.013 1320.25 567.014 C 1298.52 565.52 1296.01 570.073 1276.08 574.11 C 1268.96 575.55 1247.54 575.021 1239.39 574.948 C 1227.03 563.527 1221.73 560.42 1207.45 552.041 C 1279.96 530.559 1350.86 479.268 1390.65 414.705 C 1404.61 410.949 1416.52 409.125 1430.67 407.383 z" fill="rgb(235,228,217)" transform="translate(0,0)"></path>
<path d="M 796.847 675.058 C 796.987 677.015 789.852 699.167 788.861 703.412 C 786.698 712.501 785.293 721.754 784.661 731.075 C 775.996 727.278 767.651 723.957 758.086 723.586 C 719.345 722.086 689.74 749.515 687.813 787.868 C 632.779 811.562 559.941 825.434 500.017 824.768 C 492.531 817.782 487.441 810.774 481.477 802.515 C 476.663 794.332 472.69 787.581 469.696 778.656 C 458.717 745.928 476.889 715.51 504.452 698.346 C 515.365 691.549 524.397 687.74 536.895 683.663 C 555.343 691.19 578.61 695.341 598.445 697.694 C 668.964 706.059 730.709 700.734 796.847 675.058 z" fill="rgb(235,228,217)" transform="translate(0,0)"></path>
<path d="M 1153.53 1168.26 C 1161.39 1168.41 1167.61 1170.59 1172.45 1177.3 C 1174.37 1179.95 1175.5 1184.02 1176 1187.24 C 1180.5 1216.27 1183.95 1245.5 1187.96 1274.6 C 1193.59 1317.52 1199.66 1360.56 1204 1403.59 C 1205 1413.55 1205.7 1432.77 1204.91 1443.17 C 1203.28 1464.73 1200.03 1487.84 1197.11 1509.31 C 1191.35 1550.57 1185.16 1591.77 1178.56 1632.91 C 1167.63 1635.2 1160.01 1635.09 1148.89 1634.96 C 1136.73 1633.3 1127.91 1631.13 1116.86 1626 C 1120.92 1604.88 1124.48 1565.48 1127.27 1542.41 C 1131.07 1511.15 1134.41 1479.84 1137.3 1448.48 C 1138.99 1431.11 1142.51 1400.98 1141.34 1384.35 C 1138.3 1341.3 1132.98 1297.5 1128.62 1254.54 C 1126.96 1238.25 1122.97 1212.74 1122.75 1197.4 L 1122.74 1195.98 C 1123.93 1193.66 1125.25 1191.4 1126.72 1189.24 C 1133.97 1178.4 1140.35 1170.92 1153.53 1168.26 z" fill="rgb(235,228,217)" transform="translate(0,0)"></path>
<path d="M 1159.6 1434.22 C 1166.16 1436.6 1162.31 1437.83 1164.82 1443.52 C 1172.89 1461.82 1189.55 1453.18 1193.18 1436.99 C 1194.04 1433.14 1196.71 1435.34 1197.61 1439.34 C 1197.3 1440.23 1197 1441.11 1196.72 1442 C 1188.15 1468.9 1155.69 1460.02 1159.6 1434.22 z" fill="rgb(4,3,3)" transform="translate(0,0)"></path>
<path d="M 976.552 1182.23 C 991.962 1181.18 998.511 1180.84 1008.4 1193.63 C 1008.04 1212.19 1004.71 1234.5 1002.79 1253.24 C 998.715 1292.91 993.261 1333.23 990.71 1373.02 C 987.338 1425.6 991.044 1479.44 995.401 1531.88 C 997.926 1563.47 1000.83 1595.02 1004.13 1626.54 C 991.924 1630.84 985.077 1632.31 972.238 1633.93 C 962.191 1634.51 953.152 1633.46 943.241 1632.12 C 941.405 1621.43 940.317 1605.99 939.27 1594.88 C 937.218 1573.25 935.277 1551.61 933.448 1529.96 C 930.161 1490.66 925.777 1448.08 925.903 1408.8 C 925.955 1392.67 930.713 1367.9 933.427 1351.28 L 944.317 1282.11 C 948.053 1257.8 952.368 1215.16 957.492 1193.65 C 964.467 1186.6 967.154 1184.65 976.552 1182.23 z" fill="rgb(235,228,217)" transform="translate(0,0)"></path>
<path d="M 937.595 1434.24 L 938.081 1434.37 C 944.619 1435.99 940.894 1438.48 943.939 1444.99 C 947.367 1452.32 954.966 1456.03 962.425 1452.43 C 969.95 1448.8 969.005 1440.91 973.554 1436.11 C 974.796 1434.82 976.156 1438.08 976.593 1439.33 C 964.617 1471.69 934.55 1457.04 937.595 1434.24 z" fill="rgb(4,3,3)" transform="translate(0,0)"></path>
<path d="M 958.227 1786.18 C 960.976 1788.4 963.475 1792.19 965.604 1795.05 C 983.961 1819.71 1018.91 1816.65 1040.82 1800.31 C 1044.71 1817.71 1044 1841.15 1043.7 1859.17 C 1018.87 1873.57 1000.97 1874.86 973.871 1881.08 C 967.736 1882.49 950.928 1891.36 944.267 1894.34 C 925.371 1902.87 905.611 1909.34 885.328 1913.63 C 844.016 1922.18 799.272 1921.13 763.187 1897.23 C 762.914 1887.16 763.754 1878.28 765.176 1868.36 C 768.668 1849.47 778.373 1829.44 793.503 1817.17 C 810.479 1816.14 826.176 1817.45 840.647 1827.23 C 850.216 1833.7 853.732 1842.07 859.253 1851.78 L 860.435 1851.72 C 864.117 1844.9 853.128 1832.19 848.256 1827.66 C 833.37 1813.82 816.414 1812.28 797.017 1812.73 C 802.113 1808.75 807.63 1805.35 813.468 1802.57 C 855.896 1782.72 898.941 1794.86 918.084 1838.95 C 944.665 1834.18 954.894 1821.18 935.367 1799.2 C 941.619 1796.34 951.98 1789.84 958.227 1786.18 z" fill="rgb(191,154,127)" transform="translate(0,0)"></path>
<path d="M 694.995 561.32 C 722.668 585.233 770.46 605.569 805.563 612.726 C 819.266 615.519 832.755 616.223 846.663 616.82 C 828.175 633.834 815.873 646.891 802.337 667.947 C 760.854 684.155 740.261 689.646 696.247 694.803 C 642.103 697.972 595.944 696.564 542.991 681.535 C 589.149 665.981 601.883 646.596 603.318 599.344 C 603.543 591.926 605.501 579.791 609.175 573.141 C 617.808 557.518 648.325 566.42 664.914 565.287 C 678.805 564.338 680.262 564.78 694.995 561.32 z" fill="rgb(235,228,217)" transform="translate(0,0)"></path>
<path d="M 647.019 607.975 C 655.102 607.757 664.025 609.931 671.507 612.953 C 680.741 616.684 707.395 618.412 694.969 633.314 C 679.2 632.168 661.723 627.212 647.255 620.641 C 640.28 617.472 643.424 612.62 647.019 607.975 z" fill="rgb(255,255,255)" transform="translate(0,0)"></path>
<path d="M 1287.77 359.167 C 1289.66 359.037 1291.55 358.947 1293.45 358.897 C 1324.05 358.202 1329.26 397.273 1351.94 410.139 C 1364.04 417.006 1371.03 416.602 1384.01 415.875 C 1377.55 427.426 1366.78 440.384 1357.75 450.35 C 1318.85 493.299 1278.6 520.836 1224.74 541.337 C 1215.86 544.622 1209.57 546.182 1200.34 547.922 C 1171.62 534.978 1162.06 533.371 1131.46 527.344 C 1170 493.85 1198.6 441.29 1210.03 391.721 C 1246.7 392.364 1255.32 369.338 1287.77 359.167 z" fill="rgb(235,228,217)" transform="translate(0,0)"></path>
<path d="M 1299.88 436.752 L 1301.1 436.918 C 1305.48 437.554 1307.88 441.673 1306.76 445.477 C 1303.82 455.563 1286.89 468.139 1278.47 473.221 C 1256.12 466.404 1292.93 441.179 1299.88 436.752 z" fill="rgb(255,255,255)" transform="translate(0,0)"></path>
<path d="M 1158.82 1784.52 C 1166.98 1790.12 1173.25 1794.29 1182.39 1798.11 C 1162.8 1820.38 1174 1835.39 1200.93 1837.89 C 1208.62 1815.54 1224.82 1799.22 1248.93 1795.41 C 1273.36 1791.33 1298.42 1797.07 1318.65 1811.38 C 1296.98 1810.96 1277.09 1814.52 1263.16 1833.35 C 1260.03 1837.57 1255.22 1844.29 1256.04 1849.46 L 1258.03 1850.13 C 1262.38 1847.83 1261.68 1844.45 1264.27 1840.38 C 1279.2 1816.88 1300.66 1815.18 1325.62 1816.88 C 1339.95 1831.94 1345.4 1842.79 1351.37 1862.75 C 1353.65 1873.67 1354.17 1883.1 1354.81 1894.13 C 1309.88 1930.78 1235.54 1918.99 1185.58 1898.86 C 1162.25 1889.47 1145.3 1877.75 1119.22 1875.55 C 1106.42 1874.46 1086.62 1865.23 1075.59 1858.78 C 1073.61 1838.97 1074.67 1821.2 1077.38 1801.68 L 1078.16 1802.22 C 1095.58 1813.8 1117.24 1817.48 1136.38 1807.69 C 1147.4 1802.05 1152.34 1794.49 1158.82 1784.52 z" fill="rgb(191,154,127)" transform="translate(0,0)"></path>
<path d="M 1097.33 345.161 C 1157.69 341.035 1153.69 379.109 1205.86 391.557 C 1193.62 435.685 1165.92 493.684 1129.44 522.076 C 1127.94 523.07 1123.26 526.39 1121.71 526.229 C 1089.99 522.94 1060.81 525.692 1029.34 530.08 C 1042.06 493.001 1044.82 434.148 1039.16 394.799 C 1062.02 372.052 1062.01 353.21 1097.33 345.161 z" fill="rgb(235,228,217)" transform="translate(0,0)"></path>
<path d="M 1136.27 410.46 C 1150.52 411.009 1144.43 423.138 1140.57 431.638 C 1136.47 440.651 1132.62 449.275 1127.08 457.52 C 1113.97 455.168 1117.2 446.919 1121.57 437.613 C 1125.22 429.839 1128.95 418.011 1134.95 411.876 L 1136.27 410.46 z" fill="rgb(255,255,255)" transform="translate(0,0)"></path>
<path d="M 797.698 459.151 C 829.083 455.909 833.339 471.18 865.935 460.263 C 884.998 501.922 900.783 527.349 934.316 559.663 C 904.786 574.231 877.79 589.501 852.646 610.639 C 851.196 611.857 847.034 611.698 845.038 611.666 C 792.668 610.194 742.135 592.043 700.798 559.855 C 774.421 533.974 741.816 475.762 797.698 459.151 z" fill="rgb(235,228,217)" transform="translate(0,0)"></path>
<path d="M 788.494 527.598 C 797.327 528.887 825.018 546.44 831.737 553.495 C 832.803 554.615 829.748 560.501 829.058 561.581 L 827.183 564.48 C 819.632 565.247 799.815 550.721 793.206 546.412 C 785.163 541.168 780.575 536.882 787.227 529.123 L 788.494 527.598 z" fill="rgb(235,228,217)" transform="translate(0,0)"></path>
<path d="M 940.313 396.23 C 982.439 394.164 989.495 422.49 1035.08 397.954 C 1037.53 437.891 1039.65 493.261 1023.63 530.541 C 1003.15 535.64 987.117 539.725 967.192 546.481 C 958.362 549.23 948.559 553.493 939.891 557.016 C 906.021 530.41 888.884 494.735 869.951 458.243 C 896.915 438.319 900.224 402.616 940.313 396.23 z" fill="rgb(235,228,217)" transform="translate(0,0)"></path>
<path d="M 978.122 439.879 C 987.49 440.147 990.271 440.905 991.894 451.502 C 993.258 460.405 993.957 469.528 994.849 478.503 C 995.417 484.212 996.255 488.356 993.094 493.064 C 985.869 494.091 981.44 494.84 981.206 486.506 C 980.893 475.368 974.35 449.537 978.122 439.879 z" fill="rgb(255,255,255)" transform="translate(0,0)"></path>
<path d="M 927.095 460.457 C 927.934 460.596 931.824 460.921 932.488 461.989 C 939.398 473.106 943.504 488.472 947.61 500.971 C 948.196 502.753 945.146 506.162 944.125 507.155 L 942.794 508.497 C 932.064 507.019 924.286 477.576 922.003 467.982 C 921.307 465.055 925.185 462.28 927.095 460.457 z" fill="rgb(255,255,255)" transform="translate(0,0)"></path>
<path d="M 1489.41 1417.92 C 1492.4 1398.09 1489.89 1386.81 1484.88 1367.58 L 1483.43 1366.32 C 1480.41 1367.58 1481.49 1366.53 1479.71 1369 C 1484.93 1388.83 1488.99 1409.78 1481.31 1429.66 C 1478.9 1435.88 1469.27 1436.19 1464.44 1432.92 C 1457.43 1428.17 1455.65 1418.28 1454.23 1410.49 C 1450.42 1389.92 1457.26 1367.03 1438.73 1351.8 C 1437.24 1350.56 1436.05 1350 1434.22 1349.86 L 1433.52 1351.49 C 1441.92 1361.79 1448.43 1373.34 1447.41 1387.16 C 1447.12 1391.05 1446.33 1395.25 1443.33 1397.98 C 1441.84 1399.33 1439.53 1399.88 1437.53 1399.73 C 1430.36 1399.21 1424.11 1394.12 1419.96 1388.62 C 1410.85 1376.59 1409.3 1363.52 1411.54 1349.01 C 1415.11 1325.99 1424.25 1304.94 1419.2 1281.18 C 1415.85 1265.38 1405 1249.86 1397.21 1235.8 C 1386.85 1217.12 1332.69 1121.84 1331.28 1107.87 C 1330.25 1097.65 1334.88 1088.3 1343.3 1082.51 C 1347.13 1079.88 1351.59 1077.6 1356.31 1078.73 C 1359.19 1079.42 1360.83 1082.56 1362.28 1085.02 C 1372.29 1102.03 1380.83 1120.23 1389.96 1137.75 C 1411.79 1180.61 1434.12 1223.21 1456.95 1265.54 C 1462.73 1276.04 1472.01 1287.06 1479.35 1296.9 C 1488.26 1308.85 1495.58 1321.9 1501.14 1335.73 C 1510.4 1358.46 1513.96 1379.86 1503.13 1402.89 C 1503.92 1391.74 1503.26 1362.24 1494.83 1354.58 C 1489.41 1360.07 1508.8 1396.61 1491.46 1421.87 C 1490.98 1422.46 1489.3 1424.95 1488.31 1424.31 C 1487.74 1423.24 1488.49 1421.47 1488.76 1420.48 L 1489.41 1417.92 z" fill="rgb(235,228,217)" transform="translate(0,0)"></path>
<path d="M 1491.46 1421.87 C 1490.98 1422.46 1489.3 1424.95 1488.31 1424.31 C 1487.74 1423.24 1488.49 1421.47 1488.76 1420.48 L 1489.41 1417.92 C 1490.12 1419.97 1490.22 1419.95 1491.46 1421.87 z" fill="rgb(235,228,217)" transform="translate(0,0)"></path>
<path d="M 1155.54 1010.77 C 1164.35 1005.6 1176.31 998.477 1185.52 994.556 C 1207.93 1128.61 1038.56 1171.01 941.712 1131.15 C 935.537 1128.27 930.213 1127.38 923.937 1123.68 L 922.653 1122.94 C 923.79 1122.52 925.354 1121.91 926.474 1121.56 C 961.062 1110.75 991.733 1095.67 1024.6 1081.25 C 1020.84 1091.87 1017.46 1102.14 1013.83 1112.7 C 1012.71 1116.67 1012.08 1116.37 1013.14 1119.56 L 1014.98 1119.44 C 1018.88 1115.24 1017.96 1115.19 1019.37 1109.25 C 1022.78 1098.97 1025.25 1091.02 1029.14 1080.66 L 1029.75 1079 C 1046.24 1068.8 1066.71 1059.99 1084.91 1049.23 C 1079.44 1062.34 1074.81 1081.38 1069.97 1091.83 C 1067.73 1097.91 1064.89 1103.85 1065.86 1110.26 C 1070.05 1107.34 1074.41 1092.78 1076.36 1087.16 C 1080.92 1075.43 1086.8 1058.31 1090.75 1046.28 C 1100.74 1040.41 1112.94 1033.32 1123.14 1028.22 C 1132.34 1023.74 1139.5 1020.13 1148.4 1014.91 C 1144.33 1026.65 1126.49 1074.34 1126.95 1083.13 L 1127.91 1083.39 C 1134.39 1074.16 1149.36 1025.9 1155.54 1010.77 z" fill="rgb(100,123,96)" transform="translate(0,0)"></path>
<path d="M 922.653 1122.94 C 923.79 1122.52 925.354 1121.91 926.474 1121.56 C 961.062 1110.75 991.733 1095.67 1024.6 1081.25 C 1020.84 1091.87 1017.46 1102.14 1013.83 1112.7 C 1008.44 1113.16 998.061 1116.77 992.013 1118.34 C 987.364 1119.58 982.688 1120.72 977.987 1121.74 C 972.34 1122.93 966.681 1124.06 961.009 1125.13 C 952.986 1126.93 949.198 1128.3 941.712 1131.15 C 935.537 1128.27 930.213 1127.38 923.937 1123.68 L 922.653 1122.94 z" fill="rgb(235,228,217)" transform="translate(0,0)"></path>
<path d="M 1029.75 1079 C 1046.24 1068.8 1066.71 1059.99 1084.91 1049.23 C 1079.44 1062.34 1074.81 1081.38 1069.97 1091.83 C 1055.72 1097.36 1034.83 1107.69 1019.37 1109.25 C 1022.78 1098.97 1025.25 1091.02 1029.14 1080.66 L 1029.75 1079 z" fill="rgb(235,228,217)" transform="translate(0,0)"></path>
<path d="M 1123.14 1028.22 C 1122.18 1041.46 1114.39 1058.97 1105.4 1068.69 C 1100.88 1073.57 1082.8 1089.12 1076.36 1087.16 C 1080.92 1075.43 1086.8 1058.31 1090.75 1046.28 C 1100.74 1040.41 1112.94 1033.32 1123.14 1028.22 z" fill="rgb(235,228,217)" transform="translate(0,0)"></path>
<path d="M 1091.87 913.066 C 1107.58 908.545 1124.22 903.464 1140.06 899.816 C 1140.17 983.944 1064.52 1005.94 992.419 1007.02 C 966.145 1007.42 909.869 998.262 888.049 984.829 C 880.209 981.834 875.152 979.431 867.679 975.716 L 866.82 975.296 C 898.789 967.266 932.776 959.482 964.173 949.602 C 957.561 958.024 950.14 969.21 944.159 976.661 C 943.138 979.432 943.073 980.411 942.594 983.292 L 943.335 984.154 C 946.933 981.53 947.012 980.792 949.105 976.657 C 958.787 977.613 969.549 975.494 979.311 974.74 C 976.182 978.066 972.927 980.758 971.632 984.985 L 972.915 985.72 C 980.966 981.283 981.698 979.224 987.249 971.913 C 997.061 958.502 1007.31 945.418 1017.99 932.682 C 1024.46 930.729 1030.97 928.888 1037.52 927.16 L 1044.25 925.349 C 1057.53 922.065 1071.92 918.843 1084.93 914.956 C 1074.06 934.268 1062 950.651 1049.06 968.491 C 1047.35 970.844 1047.73 971.542 1048.26 973.914 L 1050.03 974.769 C 1050.68 974.525 1051.33 974.281 1051.98 974.038 C 1059.71 960.828 1069.08 948.816 1077.72 936.212 C 1082.82 928.762 1087.45 920.933 1091.87 913.066 z" fill="rgb(100,123,96)" transform="translate(0,0)"></path>
<path d="M 866.82 975.296 C 898.789 967.266 932.776 959.482 964.173 949.602 C 957.561 958.024 950.14 969.21 944.159 976.661 L 943.278 976.822 C 923.727 980.552 908.393 984.191 888.049 984.829 C 880.209 981.834 875.152 979.431 867.679 975.716 L 866.82 975.296 z" fill="rgb(235,228,217)" transform="translate(0,0)"></path>
<path d="M 1044.25 925.349 C 1049.25 937.021 1021.86 964.779 1009.83 966.472 C 1004.37 967.241 993.08 973.914 987.249 971.913 C 997.061 958.502 1007.31 945.418 1017.99 932.682 C 1024.46 930.729 1030.97 928.888 1037.52 927.16 L 1044.25 925.349 z" fill="rgb(235,228,217)" transform="translate(0,0)"></path>
<path d="M 1542.95 500.92 C 1543.36 515.959 1531.93 543.133 1524.36 556.332 C 1495.53 606.586 1428.42 652.619 1372.28 667.591 C 1378.06 655.555 1378.99 650.744 1380.91 637.528 C 1381.02 631.613 1380.4 625.707 1379.08 619.942 C 1373.67 595.901 1361 585.27 1341.19 572.877 C 1405.61 560.493 1491.37 544.103 1542.95 500.92 z" fill="rgb(235,228,217)" transform="translate(0,0)"></path>
<path d="M 494.758 837.919 C 531.499 866.448 590.267 873.472 635.8 875.926 C 650.59 876.723 671.203 875.034 684.931 877.742 C 711.046 882.894 730.224 891.109 757.387 894.613 C 655.771 924.363 497.755 933.871 420.696 847.378 C 440.497 846.214 471.665 843.462 492.299 840.171 C 493.119 839.42 493.938 838.67 494.758 837.919 z" fill="rgb(192,67,64)" transform="translate(0,0)"></path>
<path d="M 1553.3 519.224 C 1553.95 520.04 1554.47 520.17 1555.46 520.753 C 1567.55 520.033 1609.47 496.882 1621.72 490.283 C 1608.4 593.825 1505.14 648.99 1419.42 688.841 C 1405.62 695.257 1390.79 701.975 1376.44 707.035 C 1392.36 686.657 1409.65 669.167 1428.98 652.004 C 1438.65 643.43 1451.34 636.175 1462.09 628.618 C 1476.49 618.448 1489.79 606.803 1501.78 593.873 C 1517.95 576.53 1523.98 565.262 1536.01 545.563 C 1542.37 535.137 1546.86 531.958 1553.3 519.224 z" fill="rgb(192,67,64)" transform="translate(0,0)"></path>
<path d="M 1243.45 868.867 C 1239.5 875.486 1229.9 894.341 1223.84 897.378 C 1211.02 891.958 1210.2 851.46 1215.71 838.536 C 1238.3 785.529 1287.75 771.514 1335.65 749.989 C 1328.66 775.481 1334.78 794.219 1331.3 811.963 C 1333.73 829.348 1323.5 853.331 1313.32 867.162 C 1297.65 888.441 1257.14 916.58 1229.56 904.854 L 1228.13 902.976 C 1228.57 900.602 1228.6 900.78 1230.31 899.038 C 1235.97 890.446 1240.22 882.161 1246.39 873.323 C 1253.78 872.372 1284.32 867.008 1287.28 861.496 C 1282.61 860.539 1258.06 866.782 1250.43 867.928 C 1257.07 858.069 1262.37 848.497 1269.51 838.437 C 1278.77 836.216 1294.93 836.162 1302.63 831.747 L 1301.94 830.669 C 1299.57 830.049 1276.96 832.88 1272.28 833.364 C 1279.59 822.932 1286.73 812.385 1293.71 801.726 C 1301.3 801.598 1305.86 801.82 1313.1 799.063 L 1313.04 797.928 C 1308.06 796.323 1302.86 796.879 1297.54 796.99 C 1302.77 790.382 1318.73 770.281 1320.21 763.483 L 1318.86 762.411 C 1313.52 765.026 1298.67 787.561 1294.02 794.063 C 1292.05 789.773 1291.07 786.207 1286.87 784.141 L 1285.86 785.196 C 1285.74 789.975 1288.27 793.683 1290.52 798.095 L 1271.18 827.374 C 1270.23 820.532 1268.5 804.688 1264.8 799.536 C 1263.07 804.575 1266.66 826.646 1267.14 834.372 C 1259.29 844.868 1254.11 852.691 1247.41 863.712 C 1246.18 856.732 1245.67 849.885 1244.57 842.95 C 1243.45 835.918 1244.65 829.221 1238.81 824.679 L 1237.59 825.46 C 1237.76 834.29 1242.04 858.346 1243.45 868.867 z" fill="rgb(235,228,217)" transform="translate(0,0)"></path>
<path d="M 1331.3 811.963 C 1333.73 829.348 1323.5 853.331 1313.32 867.162 C 1297.65 888.441 1257.14 916.58 1229.56 904.854 L 1228.13 902.976 C 1228.57 900.602 1228.6 900.78 1230.31 899.038 C 1239.17 898.48 1247.9 896.742 1256.29 893.869 C 1300.21 878.8 1311.76 851.463 1331.3 811.963 z" fill="rgb(100,123,96)" transform="translate(0,0)"></path>
<path d="M 686.334 793.984 C 686.814 794.327 687.293 794.67 687.773 795.013 C 689.237 803.531 690.389 814.381 694.248 821.845 C 705.49 843.587 718.963 851.179 740.752 858.811 C 694.026 874.908 617.966 874.617 569.928 863.407 C 546.166 858.419 525.736 844.142 506.447 829.586 C 574.236 826.518 621.811 818.852 686.334 793.984 z" fill="rgb(235,228,217)" transform="translate(0,0)"></path>
<path d="M 726.759 1273.13 C 737.752 1272.15 752.322 1274.66 749.534 1288.74 C 747.478 1299.12 723.034 1304.14 715.049 1306.74 C 713.682 1309.05 714.199 1313.21 714.862 1315.6 C 721.005 1337.1 748.936 1323.55 763.128 1331.63 C 770.102 1335.59 770.859 1344.56 765.482 1350.43 C 755.896 1360.9 744.836 1356.92 732.575 1357.09 L 731.82 1358.91 L 732.959 1360.67 C 740.174 1364.03 753.337 1362.46 761.025 1360.38 C 766.465 1362.37 774.691 1365.39 774.994 1372.22 C 775.174 1375.56 773.819 1378.79 771.317 1381 C 761.225 1389.77 740.748 1383.86 730.291 1383.45 L 729.065 1384.65 L 730.205 1387.28 L 733.266 1388.31 C 746.547 1391.53 761.359 1389.61 771.559 1388.37 C 774.439 1388.03 779.775 1403.95 766.66 1407.37 C 731.971 1416.41 684.783 1403.18 670.96 1366.95 C 656.243 1325.17 688.276 1286.54 726.759 1273.13 z" fill="rgb(235,228,217)" transform="translate(0,0)"></path>
<path d="M 943.644 1636.52 C 967.917 1641.26 981.281 1638.51 1004.66 1631.09 C 1005.46 1640.53 1006.62 1649.84 1007.39 1659.31 C 1007.84 1660.65 1009.11 1675.72 1009.28 1678.12 C 1010.57 1685.72 1011.27 1694.55 1012.21 1702.41 C 1012.57 1707.38 1013.06 1712.35 1013.68 1717.29 C 1014.32 1724.62 1015.21 1732.25 1016.11 1739.58 C 1016.52 1744.48 1017.18 1749.33 1017.92 1754.19 C 1021.67 1777.31 1010.83 1781.72 988.513 1787.17 C 981.375 1788.91 969.803 1789.01 963.565 1784.85 C 961.495 1783.35 962.275 1782.9 963.738 1780.39 C 967.314 1774.24 962.274 1767.33 958.921 1762.18 C 956.398 1760.48 956.254 1750.69 956.027 1747.67 C 955.753 1745.62 955.375 1743.51 955.128 1741.5 L 952.862 1723.14 C 952.238 1718.11 951.793 1713.52 951.268 1708.5 C 950.579 1699.91 949.426 1690.36 948.508 1681.74 C 947.581 1678.72 947.025 1670.01 946.842 1666.68 C 945.553 1656.65 944.487 1646.59 943.644 1636.52 z" fill="rgb(235,228,217)" transform="translate(0,0)"></path>
<path d="M 943.644 1636.52 C 967.917 1641.26 981.281 1638.51 1004.66 1631.09 C 1005.46 1640.53 1006.62 1649.84 1007.39 1659.31 C 1007.84 1660.65 1009.11 1675.72 1009.28 1678.12 C 985.986 1684.3 972.269 1685.03 948.508 1681.74 C 947.581 1678.72 947.025 1670.01 946.842 1666.68 C 945.553 1656.65 944.487 1646.59 943.644 1636.52 z" fill="rgb(235,228,217)" transform="translate(0,0)"></path>
<path d="M 1007.39 1659.31 C 1007.84 1660.65 1009.11 1675.72 1009.28 1678.12 C 985.986 1684.3 972.269 1685.03 948.508 1681.74 C 947.581 1678.72 947.025 1670.01 946.842 1666.68 C 953.694 1667.4 963.295 1669.13 970 1668.42 C 977.135 1667.67 1004.48 1666.12 1007.39 1659.31 z" fill="rgb(191,154,127)" transform="translate(0,0)"></path>
<path d="M 1009.28 1678.12 C 1010.57 1685.72 1011.27 1694.55 1012.21 1702.41 C 1012.57 1707.38 1013.06 1712.35 1013.68 1717.29 C 1008.44 1716.77 996.965 1722.14 989.511 1723.28 C 978.722 1724.94 963.53 1724.92 952.862 1723.14 C 952.238 1718.11 951.793 1713.52 951.268 1708.5 C 950.579 1699.91 949.426 1690.36 948.508 1681.74 C 972.269 1685.03 985.986 1684.3 1009.28 1678.12 z" fill="rgb(235,228,217)" transform="translate(0,0)"></path>
<path d="M 1012.21 1702.41 C 1012.57 1707.38 1013.06 1712.35 1013.68 1717.29 C 1008.44 1716.77 996.965 1722.14 989.511 1723.28 C 978.722 1724.94 963.53 1724.92 952.862 1723.14 C 952.238 1718.11 951.793 1713.52 951.268 1708.5 C 973.416 1713.74 991.601 1708.55 1012.21 1702.41 z" fill="rgb(191,154,127)" transform="translate(0,0)"></path>
<path d="M 958.921 1762.18 C 969.942 1761.52 976.271 1765.05 991.514 1762.26 C 1001.83 1760.37 1008.65 1756.11 1015.92 1754.59 L 1017.92 1754.19 C 1021.67 1777.31 1010.83 1781.72 988.513 1787.17 C 981.375 1788.91 969.803 1789.01 963.565 1784.85 C 961.495 1783.35 962.275 1782.9 963.738 1780.39 C 967.314 1774.24 962.274 1767.33 958.921 1762.18 z" fill="rgb(235,228,217)" transform="translate(0,0)"></path>
<path d="M 956.027 1747.67 C 980.253 1751.01 993.873 1751.11 1016.11 1739.58 C 1016.52 1744.48 1017.18 1749.33 1017.92 1754.19 L 1015.92 1754.59 C 1008.65 1756.11 1001.83 1760.37 991.514 1762.26 C 976.271 1765.05 969.942 1761.52 958.921 1762.18 C 956.398 1760.48 956.254 1750.69 956.027 1747.67 z" fill="rgb(191,154,127)" transform="translate(0,0)"></path>
<path d="M 1116.37 1630.73 C 1127.08 1634.97 1132.13 1636.63 1143.5 1638.68 C 1154.88 1640.71 1166.57 1640.05 1177.64 1636.73 C 1176.58 1644.8 1175.3 1652.99 1173.83 1660.99 L 1172.72 1666.75 C 1172.22 1671.34 1171.39 1677.46 1170.55 1682.05 C 1169.13 1690.97 1167.91 1699.83 1166.65 1708.78 C 1165.79 1713.52 1165.3 1718.41 1164.49 1722.97 C 1162.48 1731.83 1161.73 1740.29 1160.25 1749.03 C 1159.99 1752.18 1160.11 1758.51 1159.57 1761.17 C 1155.6 1767 1150.52 1772.16 1153.51 1779.58 C 1153.96 1780.71 1155.27 1783.32 1153.68 1784.38 C 1147.42 1788.53 1138.13 1787.08 1131 1786.93 C 1120.12 1786 1107.04 1779.53 1100.35 1770.69 C 1096.82 1766.02 1098.91 1759.36 1099.72 1753.96 C 1099.93 1751.03 1100.64 1741.58 1101.51 1739.26 C 1102.38 1731.51 1103.43 1722.74 1104.66 1715.08 L 1106.73 1700.96 C 1107.75 1692.64 1109.07 1684.22 1110.21 1675.9 C 1110.31 1674.9 1110.43 1673.91 1110.57 1672.91 L 1111.86 1662.49 C 1112.08 1660.57 1111.95 1660.21 1112.46 1658.32 C 1113.69 1649.13 1115.28 1639.97 1116.37 1630.73 z" fill="rgb(235,228,217)" transform="translate(0,0)"></path>
<path d="M 1116.37 1630.73 C 1127.08 1634.97 1132.13 1636.63 1143.5 1638.68 C 1154.88 1640.71 1166.57 1640.05 1177.64 1636.73 C 1176.58 1644.8 1175.3 1652.99 1173.83 1660.99 L 1172.72 1666.75 C 1172.22 1671.34 1171.39 1677.46 1170.55 1682.05 C 1159.01 1683.83 1146.99 1684.25 1135.49 1682.2 C 1126.87 1680.65 1118.75 1677.18 1110.21 1675.9 C 1110.31 1674.9 1110.43 1673.91 1110.57 1672.91 L 1111.86 1662.49 C 1112.08 1660.57 1111.95 1660.21 1112.46 1658.32 C 1113.69 1649.13 1115.28 1639.97 1116.37 1630.73 z" fill="rgb(235,228,217)" transform="translate(0,0)"></path>
<path d="M 1112.46 1658.32 C 1117.44 1665.77 1155.16 1669.22 1164.5 1667.21 C 1166.76 1666.72 1170.33 1666.85 1172.72 1666.75 C 1172.22 1671.34 1171.39 1677.46 1170.55 1682.05 C 1159.01 1683.83 1146.99 1684.25 1135.49 1682.2 C 1126.87 1680.65 1118.75 1677.18 1110.21 1675.9 C 1110.31 1674.9 1110.43 1673.91 1110.57 1672.91 L 1111.86 1662.49 C 1112.08 1660.57 1111.95 1660.21 1112.46 1658.32 z" fill="rgb(191,154,127)" transform="translate(0,0)"></path>
<path d="M 1099.72 1753.96 C 1099.93 1751.03 1100.64 1741.58 1101.51 1739.26 C 1103.25 1743.14 1109.59 1743.35 1114.02 1744.77 C 1120.04 1746.75 1126.22 1748.22 1132.49 1749.17 C 1142.29 1750.65 1150.39 1750.37 1160.25 1749.03 C 1159.99 1752.18 1160.11 1758.51 1159.57 1761.17 C 1155.6 1767 1150.52 1772.16 1153.51 1779.58 C 1153.96 1780.71 1155.27 1783.32 1153.68 1784.38 C 1147.42 1788.53 1138.13 1787.08 1131 1786.93 C 1120.12 1786 1107.04 1779.53 1100.35 1770.69 C 1096.82 1766.02 1098.91 1759.36 1099.72 1753.96 z" fill="rgb(235,228,217)" transform="translate(0,0)"></path>
<path d="M 1099.72 1753.96 C 1099.93 1751.03 1100.64 1741.58 1101.51 1739.26 C 1103.25 1743.14 1109.59 1743.35 1114.02 1744.77 C 1120.04 1746.75 1126.22 1748.22 1132.49 1749.17 C 1142.29 1750.65 1150.39 1750.37 1160.25 1749.03 C 1159.99 1752.18 1160.11 1758.51 1159.57 1761.17 C 1132.31 1764.68 1125.95 1764.45 1099.72 1753.96 z" fill="rgb(191,154,127)" transform="translate(0,0)"></path>
<path d="M 1104.66 1715.08 C 1123.26 1723.87 1144.24 1725.76 1164.49 1722.97 C 1162.48 1731.83 1161.73 1740.29 1160.25 1749.03 C 1150.39 1750.37 1142.29 1750.65 1132.49 1749.17 C 1126.22 1748.22 1120.04 1746.75 1114.02 1744.77 C 1109.59 1743.35 1103.25 1743.14 1101.51 1739.26 C 1102.38 1731.51 1103.43 1722.74 1104.66 1715.08 z" fill="rgb(235,228,217)" transform="translate(0,0)"></path>
<path d="M 1106.73 1700.96 C 1123.6 1711.36 1147.63 1712.18 1166.65 1708.78 C 1165.79 1713.52 1165.3 1718.41 1164.49 1722.97 C 1144.24 1725.76 1123.26 1723.87 1104.66 1715.08 L 1106.73 1700.96 z" fill="rgb(191,154,127)" transform="translate(0,0)"></path>
<path d="M 836.361 1102.91 C 875.048 1112.42 871.793 1137.03 862.881 1167.99 C 847.44 1221.61 829.259 1272.97 802.51 1322.1 C 801.512 1323.94 801.147 1324.37 799.913 1326.07 C 798.385 1323.9 799.104 1322.75 798.963 1319.56 C 798.052 1298.84 789.84 1285.72 775.422 1271.99 C 807.087 1228.9 825.694 1154.53 836.361 1102.91 z" fill="rgb(235,228,217)" transform="translate(0,0)"></path>
<path d="M 1045.99 1862.24 L 1046.49 1862.77 C 1046.34 1872.87 1044.39 1887.83 1043.32 1898.28 C 1025.65 1903.66 1006.76 1907.93 988.67 1911.66 C 987.085 1907.35 984.287 1898.43 981.329 1895.43 C 977.583 1896.33 971.607 1904.63 967.223 1908.29 C 955.414 1918.15 944.563 1924.98 930.671 1931.46 C 880.969 1954.59 824.061 1956.79 772.719 1937.58 L 761.708 1933.01 C 760.754 1921.46 759.945 1912.09 760.01 1900.48 C 811.31 1934.55 881.394 1925.18 935.622 1903.26 C 947.213 1898.58 965.151 1888.69 976.271 1885.67 C 1001.57 1878.79 1023.71 1878.69 1045.99 1862.24 z" fill="rgb(104,75,62)" transform="translate(0,0)"></path>
<path d="M 1071.68 1860.56 C 1096.41 1880.2 1117.99 1878.64 1146.34 1886.29 C 1150.97 1887.54 1173.28 1898.38 1179.63 1901.12 C 1208.63 1913.76 1239.74 1920.83 1271.35 1921.96 C 1301.2 1923.15 1334.42 1918.72 1357.23 1897.79 C 1357.13 1907.11 1357.49 1918.54 1355.63 1927.6 C 1354.88 1931.26 1353.84 1931.36 1351.24 1932.91 C 1287.01 1965.35 1186.49 1947.48 1138.1 1894.11 C 1135.43 1899.09 1132.65 1905.88 1130.32 1911.17 C 1110.21 1907.45 1095.69 1904.05 1076.04 1898.38 C 1073.4 1884.42 1071.95 1874.72 1071.68 1860.56 z" fill="rgb(104,75,62)" transform="translate(0,0)"></path>
<path d="M 750.161 728.358 C 765.058 727.326 770.983 730.07 784.232 735.829 C 783.61 745.138 783.185 754.459 782.958 763.786 C 765.552 758.523 747.393 754.839 732.237 768.431 C 725.221 774.836 721.206 783.885 721.163 793.385 C 721.045 802.202 724.524 810.687 730.797 816.884 C 737.353 823.529 746.4 827.113 755.728 826.761 C 768.693 826.348 781.214 819.119 790.076 809.921 C 792.238 817.16 794.458 824.381 796.735 831.585 L 797.34 832.983 C 790.102 841.503 772.315 853.858 760.529 854.677 C 677.7 860.43 665.206 736.893 750.161 728.358 z" fill="rgb(235,228,217)" transform="translate(0,0)"></path>
<path d="M 743.861 736.036 C 759.796 735.984 760.527 750.932 751.067 753.255 C 746.769 752.971 738.857 753.732 736.924 748.55 C 734.627 742.389 738.706 738.517 743.861 736.036 z" fill="rgb(255,255,255)" transform="translate(0,0)"></path>
<path d="M 724.333 745.414 C 731.323 747.685 731.19 750.565 734.1 757.183 C 731.434 761.11 731.115 761.804 727.695 765.302 C 717.476 765.529 714.203 754.135 722.857 746.735 L 724.333 745.414 z" fill="rgb(255,255,255)" transform="translate(0,0)"></path>
<path d="M 1118.2 995.745 L 1119.13 999.49 C 1121.06 1007.35 1121.9 1014.91 1122.98 1022.89 C 1113.13 1027.63 1102.63 1034.05 1093.09 1039.59 C 1077.12 1035.15 1033.56 1040.33 1015.26 1043.3 L 1015.18 1044.6 C 1020.96 1046.69 1025.71 1046.83 1031.78 1046.01 C 1049.27 1043.65 1067.19 1041.44 1084.84 1042.79 C 1072.25 1054.69 985.243 1094.77 964.745 1102.96 C 957.476 1105.87 943.789 1109.94 936.423 1113.28 L 932.186 1111.58 C 946.704 1098.48 963.045 1079.08 977.236 1064.77 C 1005.84 1036.48 1041.02 1015.73 1079.61 1004.36 C 1091.2 1001.06 1105.96 998.647 1118.2 995.745 z" fill="rgb(235,228,217)" transform="translate(0,0)"></path>
<path d="M 1304.16 571.292 C 1304.79 571.237 1305.42 571.183 1306.05 571.129 C 1324.26 569.86 1342.21 576.081 1355.73 588.353 C 1368.05 599.495 1375.31 615.174 1375.82 631.779 C 1376.5 649.323 1370.06 666.395 1357.97 679.126 C 1342.4 695.355 1325.59 699.032 1304.11 699.532 C 1303.06 693.836 1297.06 674.971 1298.16 671.375 L 1300.75 671.055 C 1314.3 671.314 1326.8 669.934 1337.49 660.427 C 1344.67 654.161 1348.86 645.155 1349.03 635.632 C 1349.09 626.813 1345.5 618.362 1339.1 612.291 C 1332.22 605.664 1322.87 602.225 1313.34 602.81 C 1297.55 603.732 1287.31 612.294 1277.42 623.321 C 1272.8 614.377 1267.79 607.143 1262.09 598.96 C 1274.16 583.167 1284 574.619 1304.16 571.292 z" fill="rgb(235,228,217)" transform="translate(0,0)"></path>
<path d="M 1306.2 579.118 C 1318.28 578.907 1328.16 584.221 1316.44 595.041 C 1311.32 595.105 1305.82 595.709 1302.06 591.455 C 1298 586.854 1300.06 583.494 1304.59 580.3 L 1306.2 579.118 z" fill="rgb(255,255,255)" transform="translate(0,0)"></path>
<path d="M 1226.45 808.928 C 1227.18 809.063 1226.74 808.9 1227.53 809.861 C 1207.52 835.851 1202.62 855.396 1212.19 886.742 C 1196.57 895.552 1179.78 906.223 1163.6 915.461 C 1169.46 901.387 1187.16 871.436 1190.16 860.536 L 1189.21 860.033 C 1179.13 867.515 1162.55 906.112 1156.94 919.067 C 1152.16 921.373 1147.69 924.244 1143.15 927.007 C 1145.35 914.258 1145.25 907.639 1144.54 894.64 C 1124.49 886.269 1097.1 883.222 1075.39 880.344 C 1125.5 869.771 1180.99 829.424 1226.45 808.928 z" fill="rgb(100,123,96)" transform="translate(0,0)"></path>
<path d="M 544.385 1004.33 C 589.637 976.2 621.879 946.668 677.735 941.278 C 691.961 939.906 705.102 938.494 719.462 941.088 C 735.409 945.739 741.907 951.119 750.896 964.787 L 749.273 965.763 C 742.719 969.861 736.45 971.094 728.988 972.712 C 727.005 973.126 725.004 973.453 722.992 973.69 L 710.563 975.136 C 700.619 968.177 673.202 953.813 661.971 952.853 L 660.818 954.302 C 662.133 956.538 697.204 971.752 704.34 976.255 C 660.562 987.942 669.736 976.027 631.413 970.24 C 631.814 974.298 660.022 982.071 665.831 985.033 C 656.491 987.606 636.708 993.607 627.683 992.952 C 621.708 992.517 605.403 984.445 597.36 984.858 L 596.307 986.328 C 597.891 989.334 613.34 993.136 619.249 995.797 L 620.534 996.388 C 591.181 998.981 577.133 1004.03 544.385 1004.33 z" fill="rgb(235,228,217)" transform="translate(0,0)"></path>
<path d="M 719.462 941.088 C 735.409 945.739 741.907 951.119 750.896 964.787 L 749.273 965.763 C 742.719 969.861 736.45 971.094 728.988 972.712 C 727.005 973.126 725.004 973.453 722.992 973.69 C 721.937 962.702 720.876 952.042 719.462 941.088 z" fill="rgb(100,123,96)" transform="translate(0,0)"></path>
<path d="M 867.095 970.958 C 881.785 959.126 896.666 944.8 911.478 933.502 C 952.287 902.634 1001.89 885.606 1053.05 884.899 C 1052.54 893.49 1050.45 910.611 1048.92 919.036 C 1040.69 921.656 1034.36 923.51 1025.97 925.466 C 1019.87 923.473 971.894 911.488 968.719 912.751 L 968.527 914.644 C 969.04 915.291 969.554 915.939 970.068 916.587 C 984.879 920.13 1003.59 923.936 1017.86 927.851 C 999.713 932.375 981.173 939.42 963.242 944.94 C 931.504 954.722 899.436 963.4 867.095 970.958 z" fill="rgb(235,228,217)" transform="translate(0,0)"></path>
<path d="M 625.924 1095.64 C 639.789 1100.15 646.452 1106.93 665.204 1111.22 L 662.416 1122.25 C 655.338 1121.07 632.65 1118.84 626.58 1121.28 C 629.286 1124.41 652.236 1125.86 658.009 1126.43 C 648.558 1133.73 641.516 1140.41 630.559 1145.57 C 618.784 1151.12 596.589 1143.53 590.645 1147.63 L 590.681 1149.34 C 595.414 1152.52 613.514 1151.48 620.053 1151.44 C 602.978 1160.22 587.3 1166.47 569.109 1172.54 C 567.52 1173.06 567.117 1173.6 566.154 1174.84 L 566.698 1176.32 C 572.595 1178.44 589.663 1169.02 596.732 1168.33 C 595.882 1171.68 594.709 1174.51 595.587 1177.73 L 597.516 1178.15 C 601.356 1175.9 601.187 1168.26 602.499 1167.28 C 608.173 1163.05 617.039 1159.38 623.579 1156.03 L 633.648 1150.3 C 633.011 1156.38 631.492 1163.96 634.019 1169.39 L 635.435 1169.06 C 639.409 1160.86 638.818 1156.14 639.243 1146.95 C 645.857 1141.58 653.858 1135.98 660.795 1130.88 C 658.776 1145.65 657.275 1160.49 656.295 1175.37 C 617.702 1198.18 586.185 1193.97 545.239 1179.53 C 579.298 1157.33 592.206 1120.03 625.924 1095.64 z" fill="rgb(100,123,96)" transform="translate(0,0)"></path>
<path d="M 701.395 1405.08 C 723.286 1413.82 742.744 1417.96 766.039 1411.9 L 766.428 1411.8 C 778.956 1435.66 781.147 1460.91 778.578 1487.3 C 776.721 1486.38 759.69 1480 759.669 1479.79 C 758.945 1472.26 755.505 1468.26 748.392 1465.34 C 740.441 1462 727.53 1462.9 719.617 1467.15 C 709.762 1472.04 717.012 1478.75 709.023 1480.33 L 705.007 1481.1 C 695.462 1482.91 692.648 1484.11 690.774 1492.9 C 689.971 1493 689.167 1493.1 688.362 1493.19 C 685.155 1475.58 685.423 1457.52 689.151 1440.01 C 691.928 1426.67 695.249 1417.02 701.395 1405.08 z" fill="rgb(255,255,255)" transform="translate(0,0)"></path>
<path d="M 745.121 971.948 C 742.522 977.277 732.618 994.654 734.041 999.388 L 735.589 999.234 C 738.879 993.715 748.794 976.071 752.381 972.927 C 753.245 980.33 745.874 993.051 741.027 998.811 C 716.669 1027.76 687.531 1041.03 650.997 1045.57 C 604.54 1051.33 580.383 1026.68 540.635 1008.19 C 555.08 1008.13 569.515 1007.47 583.903 1006.19 C 595.82 1004.99 610.67 1002.78 622.414 1000.42 C 617.685 1004.49 611.748 1010.13 606.303 1012.91 C 604.925 1014.24 603.657 1015.67 602.356 1017.07 C 602.292 1020 601.769 1018.8 603.4 1020.92 C 606.804 1020.4 611.312 1015.47 614.149 1012.91 C 619.221 1015.47 636.647 1016.03 642.986 1016.27 C 640.047 1019.52 637.749 1021.41 636.614 1025.61 L 637.437 1027 C 642.7 1026.36 645.995 1020.99 649.454 1016.8 C 659.315 1017.51 667.5 1018.45 677.503 1017.24 C 678.956 1017.07 680.779 1017.26 682.236 1017.41 C 682.981 1020.75 682.147 1019.45 684.633 1021.55 C 688.147 1021.68 686.599 1022.17 689.417 1019.98 C 689.6 1017.62 689.765 1018.64 689.22 1016.89 C 689.907 1010.62 708.408 990.798 711.417 983.642 C 713.801 977.97 716.888 978.96 722.446 977.811 C 731.281 976.169 736.48 974.646 745.121 971.948 z" fill="rgb(100,123,96)" transform="translate(0,0)"></path>
<path d="M 689.22 1016.89 C 689.907 1010.62 708.408 990.798 711.417 983.642 C 713.801 977.97 716.888 978.96 722.446 977.811 C 720.785 992.683 717.387 1002.49 708.563 1014.5 C 703.343 1015.23 693.772 1015.91 689.22 1016.89 z" fill="rgb(235,228,217)" transform="translate(0,0)"></path>
<path d="M 583.903 1006.19 C 595.82 1004.99 610.67 1002.78 622.414 1000.42 C 617.685 1004.49 611.748 1010.13 606.303 1012.91 C 602.942 1012.1 582.796 1009.82 582.038 1007.6 L 582.545 1007.04 C 583.133 1006.82 583.136 1006.82 583.903 1006.19 z" fill="rgb(235,228,217)" transform="translate(0,0)"></path>
<path d="M 731.7 1086.05 L 733.689 1091.53 C 738.261 1104.38 746.899 1119.78 757.498 1128.83 C 761.501 1132.25 767.783 1135.11 771.751 1138.85 C 749.661 1181.85 704.253 1213.94 662.119 1235.99 C 669.864 1220.79 676.906 1207.36 683.973 1191.57 C 690.408 1177.2 696.783 1161.45 703.769 1147.53 C 705.184 1158.91 705.757 1170.48 708.575 1181.44 L 710.475 1182.24 L 710.478 1182.75 L 709.047 1182.95 C 709.313 1183.7 709.043 1183.17 710.361 1184.82 C 712.541 1176.53 709.272 1147.58 707.317 1138.84 L 722.118 1104.76 C 724.643 1114 731.666 1150.7 737.16 1155.32 C 738.757 1148.08 727.146 1107.71 724.831 1099.05 L 731.7 1086.05 z" fill="rgb(235,228,217)" transform="translate(0,0)"></path>
<path d="M 719.948 1037.2 L 720.584 1038.19 C 725.221 1045.01 724.619 1057.76 728.564 1063.68 C 725.525 1066.69 719.372 1070.34 715.797 1073.11 C 703.911 1082.33 683.741 1094.7 674.852 1106.33 C 691.826 1100.07 712.968 1076.13 734.275 1067.77 C 729.626 1077.99 724.95 1090.4 718.07 1098.94 C 712.017 1106.45 675.242 1137.86 673.899 1143.38 L 674.928 1144.56 C 682.21 1142.53 706.278 1115.43 715.572 1108.71 C 697.895 1147.53 680.93 1192.08 661.019 1229.16 C 660.694 1153.56 656.164 1090.95 719.948 1037.2 z" fill="rgb(235,228,217)" transform="translate(0,0)"></path>
<path d="M 715.949 1260.29 C 756.28 1257.29 793.021 1279.46 795.021 1322.22 C 795.791 1338.69 791.963 1356.93 780.772 1369.52 C 775.371 1363.26 772.625 1361.88 765.673 1357.63 C 772.913 1347.93 776.057 1342.56 770.335 1330.86 C 753.871 1316.34 725.211 1335.44 719.142 1312.15 C 718.313 1308.96 735.448 1306.87 738.996 1304.62 C 769.498 1285.16 745.387 1256.83 716.607 1272.37 C 711.215 1275.29 699.471 1285.33 695.275 1279.87 C 693.498 1265.69 704.516 1262.76 715.949 1260.29 z" fill="rgb(235,228,217)" transform="translate(0,0)"></path>
<path d="M 750.813 1048.34 C 755.641 1038 760.523 1028.83 765.899 1018.8 C 770.489 1026.79 779.841 1038.95 783.124 1045.9 C 795.329 1071.76 784.968 1116.05 771.751 1138.85 C 767.783 1135.11 761.501 1132.25 757.498 1128.83 C 746.899 1119.78 738.261 1104.38 733.689 1091.53 L 731.7 1086.05 C 734.45 1077.67 742.54 1063.46 746.769 1054.46 C 748.255 1062.77 755.313 1097.05 761.081 1101.17 L 762.284 1100.07 C 761.537 1090.17 752.991 1061.56 750.813 1048.34 z" fill="rgb(100,123,96)" transform="translate(0,0)"></path>
<path d="M 684.579 1043.09 C 688.875 1042.63 699.162 1044.93 704.156 1045.8 C 684.696 1069.55 677.514 1081.88 644.367 1083.99 C 618.888 1085.6 599.919 1080.84 575.814 1074.03 C 585.849 1066.67 598.706 1056.43 606.529 1046.81 C 613.264 1050.02 615.808 1051.02 623.247 1051.23 C 628.308 1051.73 633.366 1052.28 638.418 1052.86 L 634.761 1054.1 C 627.899 1056.45 603.272 1059.7 602.008 1065.05 L 603.637 1066.57 C 609.364 1067.54 615.241 1063.56 623.504 1062.99 L 624.143 1064.32 C 622.858 1069.18 620.86 1071.84 624.956 1074.94 C 626.653 1073.58 630.889 1062.82 632.534 1059.41 C 639.172 1056.01 644.426 1054.64 651.542 1052.92 C 649.867 1057.35 645.937 1064.84 648.428 1069.01 C 653.656 1067.09 655.914 1056.66 657.526 1051.66 L 672.537 1047.59 C 670.4 1052.87 668.639 1056.3 668.091 1061.93 L 669.082 1061.63 C 671.901 1058.01 674.237 1055.11 676.276 1050.99 C 679.37 1044.74 678.978 1045.39 684.579 1043.09 z" fill="rgb(100,123,96)" transform="translate(0,0)"></path>
<path d="M 753.771 763.257 C 762.794 762.99 768.538 764.329 777.025 766.679 C 784.837 768.843 782.605 767.574 783.831 776.016 C 783.927 776.677 783.861 777.593 783.396 778.099 C 782.555 778.256 772.291 775.471 770.001 775.255 C 744.772 772.881 742.638 810.182 767.589 809.443 C 774.683 809.234 772.351 804.983 766.494 805.137 C 754.283 805.457 750.667 790.984 758.569 783.184 C 762.541 779.18 766.755 779.831 772.205 779.86 C 777.67 781.389 779.042 781.815 784.434 783.871 L 784.841 785.427 C 786.645 792.05 787.568 796.447 788.74 803.182 C 782.238 812.066 776.455 816.605 765.472 819.793 C 721.01 832.701 708.538 772.572 753.771 763.257 z" fill="rgb(235,228,217)" transform="translate(0,0)"></path>
<path d="M 1313.4 607.173 C 1350.02 606.121 1355.15 654.336 1321.17 664.402 C 1315.18 666.177 1301.55 666.185 1295.01 666.269 L 1286.39 641.813 C 1293.54 631.83 1297.11 628.153 1309.77 629.31 C 1314.91 632.708 1318.08 635.17 1316.01 642.017 C 1314.66 646.489 1312.08 651.357 1307.87 653.688 C 1307.44 653.928 1305.24 654.867 1305.4 655.58 C 1312.42 661.951 1329.39 638.807 1316.73 628.306 C 1300.87 615.147 1284.23 636.517 1284.45 636.503 C 1283.15 635.777 1280.59 629.883 1279.84 628.446 C 1290.01 615.326 1296.42 610.426 1313.4 607.173 z" fill="rgb(235,228,217)" transform="translate(0,0)"></path>
<path d="M 695.04 1496.08 C 701.22 1498.73 706.225 1500.91 713.007 1501.92 C 737.761 1505.59 752.699 1505.96 775.883 1496.71 C 775.51 1501.45 775.361 1520.47 774.456 1523.19 C 750.365 1537.38 719.294 1537.58 694.855 1523.98 C 695.284 1513.93 694.607 1505.77 695.04 1496.08 z" fill="rgb(193,123,85)" transform="translate(0,0)"></path>
<path d="M 1092.97 1758.05 C 1095.41 1761.07 1092.63 1767.96 1097.47 1774.15 C 1111.06 1791.54 1131.76 1791.85 1151.11 1790.79 C 1143.3 1798.62 1139.37 1802.68 1128.56 1806.54 L 1128.09 1806.66 C 1106.41 1812.82 1083.51 1806.94 1072.26 1786.46 C 1073.48 1770.31 1077.36 1764.46 1092.97 1758.05 z" fill="rgb(104,75,62)" transform="translate(0,0)"></path>
<path d="M 1022.82 1757.42 C 1035.94 1762.46 1051.94 1774.1 1042.66 1790.72 C 1033.65 1806.84 1012.46 1809.24 995.352 1807.83 C 981.659 1804.88 977.774 1802.04 968.874 1792.06 C 986.135 1792.22 1003.09 1791.04 1017.04 1778.52 C 1023.81 1772.44 1022.78 1766.02 1022.82 1757.42 z" fill="rgb(104,75,62)" transform="translate(0,0)"></path>
<path d="M 1053.05 884.899 C 1071.36 882.764 1117.89 890.772 1136.24 895.853 L 1093.56 907.306 C 1079.07 911.102 1063.58 916.098 1048.92 919.036 C 1050.45 910.611 1052.54 893.49 1053.05 884.899 z" fill="rgb(100,123,96)" transform="translate(0,0)"></path>
<path d="M 1183.67 1757.3 C 1194.13 1755.66 1200.62 1757.3 1209.31 1762.31 C 1214.35 1771.34 1213.68 1770.56 1215.93 1781.31 C 1203.27 1785.73 1199.36 1785.61 1187.63 1794.13 C 1182.56 1796.43 1163.4 1782.85 1159.65 1779.34 C 1146.37 1766.92 1175.43 1758.58 1183.67 1757.3 z" fill="rgb(139,108,89)" transform="translate(0,0)"></path>
<path d="M 918.688 1758.23 C 931.994 1757.34 948.448 1757.7 957.418 1769.34 C 965.421 1779.72 949.759 1786.14 942.175 1790.78 C 938.253 1792.91 936.28 1793.85 932.284 1795.74 C 924.812 1790.71 919.048 1786.16 909.997 1784.05 L 902.87 1782.4 C 903.694 1769.01 903.938 1761.84 918.688 1758.23 z" fill="rgb(139,108,89)" transform="translate(0,0)"></path>
<path d="M 1210.73 1787.13 C 1224.31 1786.29 1229.21 1786.87 1241.96 1791.77 C 1222.87 1798.1 1209.69 1808.85 1200.45 1826.96 C 1200.1 1827.82 1198.47 1832.6 1197.44 1832.77 C 1194.79 1833.21 1188.82 1831.8 1186.58 1830.43 C 1159.72 1814.01 1196.07 1791.56 1210.73 1787.13 z" fill="rgb(104,75,62)" transform="translate(0,0)"></path>
<path d="M 897.697 1787.37 C 902.536 1787.15 907.375 1787.79 911.989 1789.26 C 921.439 1792.22 935.385 1804.63 939.949 1813.52 C 946.089 1825.48 929.843 1830.71 922.329 1833.57 C 918.256 1834.12 915.91 1823.71 911.255 1817.84 C 899.832 1803.43 894.224 1799.49 877.805 1792.12 C 886.829 1788.76 888.134 1788.48 897.697 1787.37 z" fill="rgb(104,75,62)" transform="translate(0,0)"></path>
<path d="M 968.301 948.635 C 973.853 946.361 996.534 938.462 1002.51 937.069 L 1008.93 935.623 C 1002.85 944.757 986.659 966.089 979.311 974.74 C 969.549 975.494 958.787 977.613 949.105 976.657 C 954.375 968.172 962.387 957.534 968.301 948.635 z" fill="rgb(235,228,217)" transform="translate(0,0)"></path>
<path d="M 674.408 987.898 C 679.613 986.907 684.806 985.857 689.988 984.749 C 696.432 983.38 702.615 981.777 708.964 980.082 C 703.867 987.341 698.551 994.192 693.381 1001.33 C 689.499 1006.69 686.708 1012.14 682.236 1017.41 C 680.779 1017.26 678.956 1017.07 677.503 1017.24 C 667.5 1018.45 659.315 1017.51 649.454 1016.8 C 659.027 1004.13 667.864 1000.62 674.408 987.898 z" fill="rgb(235,228,217)" transform="translate(0,0)"></path>
<path d="M 719.948 1037.2 C 731.002 1028.84 746.979 1017.31 759.968 1011.98 C 768.851 1008.33 735.052 1066.47 734.376 1066.85 C 732.206 1066.77 731.737 1063.2 728.564 1063.68 C 724.619 1057.76 725.221 1045.01 720.584 1038.19 L 719.948 1037.2 z" fill="rgb(100,123,96)" transform="translate(0,0)"></path>
<path d="M 1118.2 995.745 C 1132.81 991.34 1168.3 988.799 1183.26 990.048 C 1164.84 1000.33 1141.22 1013.69 1122.98 1022.89 C 1121.9 1014.91 1121.06 1007.35 1119.13 999.49 L 1118.2 995.745 z" fill="rgb(100,123,96)" transform="translate(0,0)"></path>
<path d="M 718.637 1490.28 C 733.264 1494.13 747.784 1495.75 758.748 1483.83 C 766.505 1487.07 782.691 1490.22 768.371 1496.2 C 751.653 1499.78 737.04 1501 720.005 1498.61 C 706.466 1496.7 681.965 1490.82 710.915 1484.14 C 713.907 1484.51 715.777 1487.69 718.637 1490.28 z" fill="rgb(193,123,85)" transform="translate(0,0)"></path>
<path d="M 632.585 997.234 C 644.8 995.782 655.703 992.245 667.549 989.175 C 661.254 997.249 650.641 1009.67 642.986 1016.27 C 636.647 1016.03 619.221 1015.47 614.149 1012.91 C 620.279 1007.66 626.74 1002.64 632.585 997.234 z" fill="rgb(235,228,217)" transform="translate(0,0)"></path>
<path d="M 731.49 1468.28 C 756.794 1467.72 764.276 1483.83 742.315 1487.91 C 737.467 1487.93 725.148 1488.39 721.615 1485.78 C 710.101 1477.25 721.106 1470.11 729.49 1468.67 L 731.49 1468.28 z" fill="rgb(193,123,85)" transform="translate(0,0)"></path>
<path d="M 1244.56 579.451 C 1254.12 579.663 1263.6 579.195 1273.16 579.082 L 1266.2 586.682 C 1263.64 589.605 1261.13 592.569 1258.67 595.571 L 1244.56 579.451 z" fill="rgb(235,228,217)" transform="translate(0,0)"></path>
<path d="M 932.186 1111.58 L 936.423 1113.28 C 932.023 1114.84 920.841 1118.81 932.186 1111.58 z" fill="rgb(235,228,217)" transform="translate(0,0)"></path>
<path d="M 688.362 1493.19 C 689.167 1493.1 689.971 1493 690.774 1492.9 C 690.836 1494.28 691.225 1498.96 690.439 1500.01 C 689.154 1498.53 688.99 1496.45 688.656 1494.59 L 688.362 1493.19 z" fill="rgb(191,154,127)" transform="translate(0,0)"></path>
<path d="M 1004.27 884.695 C 1005.02 884.714 1006.17 884.218 1006.67 884.995 C 1006.4 885.806 1004.64 885.5 1004.24 885.494 L 1004.27 884.695 z" fill="rgb(83,82,77)" transform="translate(0,0)"></path>
<metadata><recraft-signature>{"signed_by": "recraft", "signature_b64": "89QVRf9DNnvfrm0F66Rq8aqe0L6n7E1f2hW2T33zL80gEMUKc9ROsv+AsnXSRCzDY3NQxz0+vyTbv1dlink/Dg==", "signing_algo": "Ed25519", "generation_timestamp": 1778553112, "identifier": "903c250d-6588-4e1e-8224-d2f0fc3d3c74"}</recraft-signature></metadata></svg>