<svg xmlns="http://www.w3.org/2000/svg" height="1024" preserveAspectRatio="none" style="display: block;" version="1.1" viewBox="0 0 2048 2048" width="1024">
<defs>
	<linearGradient gradientUnits="userSpaceOnUse" id="Gradient1" x1="1104.3" x2="1099.35" y1="1235.43" y2="1136.48">
		<stop class="stop0" offset="0" stop-color="rgb(75,70,72)" stop-opacity="1"></stop>
		<stop class="stop1" offset="1" stop-color="rgb(5,41,87)" stop-opacity="1"></stop>
	</linearGradient>
	<linearGradient gradientUnits="userSpaceOnUse" id="Gradient2" x1="964.95" x2="931.07" y1="1237.84" y2="1128.67">
		<stop class="stop0" offset="0" stop-color="rgb(77,69,66)" stop-opacity="1"></stop>
		<stop class="stop1" offset="1" stop-color="rgb(5,41,87)" stop-opacity="1"></stop>
	</linearGradient>
	<linearGradient gradientUnits="userSpaceOnUse" id="Gradient3" x1="1008.84" x2="1008.24" y1="1378.09" y2="1236.33">
		<stop class="stop0" offset="0" stop-color="rgb(255,191,36)" stop-opacity="1"></stop>
		<stop class="stop1" offset="1" stop-color="rgb(96,78,60)" stop-opacity="1"></stop>
	</linearGradient>
	<linearGradient gradientUnits="userSpaceOnUse" id="Gradient4" x1="1024.74" x2="1022.47" y1="1133.93" y2="1138.75">
		<stop class="stop0" offset="0" stop-color="rgb(21,18,32)" stop-opacity="1"></stop>
		<stop class="stop1" offset="1" stop-color="rgb(49,45,76)" stop-opacity="1"></stop>
	</linearGradient>
</defs>

<path d="M 1339.97 132.582 C 1344.63 132.917 1348.27 133.722 1349.98 138.642 C 1353.62 149.132 1356.13 160.149 1358.89 170.914 L 1374.32 230.5 C 1402.56 234.872 1431.36 244.055 1459.73 248.646 C 1464.03 249.342 1469.13 250.627 1472.4 253.615 C 1475.3 260.042 1473.23 263.096 1467.61 266.541 C 1440.74 283.021 1411.55 296.633 1385.58 314.512 C 1388.06 332.135 1389.63 349.765 1391.23 367.968 C 1391.3 381.11 1397.26 398.612 1392.19 410.96 C 1390.32 415.531 1382.72 413.347 1379.83 411.075 C 1356.47 392.732 1332.36 370.65 1309.4 352.177 C 1297.61 357.716 1284.61 362.392 1272.46 367.813 C 1242.17 420.834 1229.41 471.595 1230.62 532.899 C 1230.76 540.267 1230.91 557.475 1233.08 563.889 C 1236.73 574.644 1245.33 586.756 1250.11 597.672 C 1266.1 634.207 1272.46 671.837 1273.2 711.428 C 1278.93 717 1284.47 722.763 1289.82 728.707 C 1309.9 751.247 1319.91 771.548 1325.14 800.228 C 1326.9 805.097 1330.93 810.549 1333.01 815.064 C 1356.58 866.418 1316.91 923.653 1260.76 919.117 C 1246.46 949.875 1229.75 970.407 1201.97 990.2 C 1208.7 990.58 1216.23 990.962 1222.58 993.342 C 1230.3 996.232 1226.66 1002.59 1234.22 1007.01 C 1244.21 1012.85 1254.79 1016.73 1264.98 1022.11 C 1288.96 1034.77 1311.63 1049.75 1332.68 1066.84 C 1420.9 1138.95 1516.16 1272.13 1464.8 1392.07 C 1462.6 1397.19 1450.34 1417.85 1449.83 1421.07 C 1442.28 1468.43 1406.96 1493.39 1360.52 1497.32 C 1360.54 1497.3 1356.91 1500.06 1357.04 1499.93 C 1352.4 1504.99 1334.64 1511.09 1331.53 1515.07 C 1336.86 1521.24 1330.52 1559.59 1327.85 1569.01 C 1323.52 1584.25 1304.78 1588.38 1292.53 1594.05 C 1279.81 1599.93 1282.56 1594.89 1272.22 1594.11 C 1268.43 1597.05 1257 1695.77 1249.53 1708.77 C 1245.03 1716.62 1245.77 1716.83 1238.69 1723.57 C 1237.9 1743.51 1243.47 1759.08 1227.91 1774.72 C 1273.12 1787.57 1300.42 1821.66 1294.83 1869.85 C 1252.85 1932.22 1121.8 1890.89 1076.68 1852.49 C 1066.73 1844.02 1053.45 1838.22 1053.3 1823.11 C 1053.13 1805.59 1053.52 1788.54 1055.2 1771.28 C 1044.22 1758.8 1047.74 1739.55 1048.76 1723.91 C 1034.86 1712.34 1035.76 1702.01 1034.65 1684.97 L 1021.31 1684.81 C 1019.86 1701.27 1020.67 1710.32 1008.7 1722.02 C 1003.64 1725.44 1013.14 1753.93 1001.59 1771.5 C 1002.09 1791.38 1001.97 1811.28 1001.23 1831.15 C 980.566 1858.62 922.292 1887.13 888.673 1895.09 C 852.258 1903.82 812.726 1906.41 778.637 1888.09 C 749.057 1872.2 760.991 1833.52 774.484 1810.37 C 786.072 1790.48 806.065 1779.89 828.556 1774.97 C 813.115 1760.96 816.685 1743.78 816.947 1724.49 C 813.455 1721.18 808.819 1716.76 807.265 1712.26 C 796.635 1681.51 788.273 1627.53 786.791 1595.69 C 777.971 1592.29 779.894 1593.3 771.363 1595.26 C 764.078 1596.3 755.425 1591.8 748.952 1589.87 C 732.514 1584.96 721.256 1576.89 719.169 1558.61 C 717.722 1545.92 716.044 1532.06 716.131 1519.26 C 716.137 1518.46 718.897 1514.76 719.487 1513.97 L 720.194 1513.03 C 718.463 1511.45 712.982 1509.47 710.833 1509.09 C 704.155 1507.89 697.605 1500.43 692.348 1499.05 C 680.32 1495.88 669.512 1493.91 657.507 1490 C 635.6 1482.86 616.488 1466.42 607.917 1444.85 C 605.331 1438.34 603.512 1425.83 600.898 1420.42 C 596.435 1411.17 590.778 1402.26 586.185 1392.66 C 564.12 1346.55 569.349 1290.36 586.425 1243.34 C 616.535 1160.42 685.037 1086.69 758.637 1039.55 C 780.306 1025.67 799.118 1016.78 822.085 1005.98 C 827.895 991.987 838.595 991.193 851.937 990.451 C 824.436 968.322 809.555 952.865 794.457 920.529 C 779.971 920.036 768.244 918.241 755.473 911.079 C 738.056 901.379 725.262 885.094 719.962 865.876 C 713.61 842.875 718.017 824.673 729.351 804.508 C 724.338 759.361 759.003 725.106 790.74 698.386 C 801.82 654.728 814.703 619.889 836.809 580.26 C 922.537 426.577 1063.16 319.912 1230.95 271.061 C 1218.63 257.757 1190.77 229.646 1181.12 213.146 C 1179.51 210.408 1183.88 204.45 1189.47 204.859 C 1221.55 207.211 1253.6 212.362 1285.78 214.135 C 1300.07 192.653 1313.6 170.642 1327.96 149.204 C 1331.81 143.463 1335.25 137.665 1339.97 132.582 z" fill="rgb(3,2,3)" transform="translate(0,0)"></path>
<path d="M 809.324 793.963 C 812.77 788.224 817.024 782.84 821.526 777.911 C 904.127 687.483 1050.85 673.143 1158.45 723.669 C 1186.28 736.737 1216.32 755.219 1237.13 778.157 C 1241.34 783.14 1246.72 789.161 1250.3 794.444 C 1247.65 795.984 1244.13 797.446 1242.96 799.99 L 1244.03 800.918 C 1253.01 797.734 1258.75 792.472 1268.44 789.967 C 1299.64 781.899 1328.04 797.028 1334.87 829.975 C 1338.9 849.497 1334.84 869.816 1323.64 886.303 C 1309.16 907.707 1287.53 917.748 1261.94 916.36 C 1264.81 908.241 1265.32 905.114 1266.8 896.639 C 1262.59 901.644 1259.29 913.021 1256.43 919.536 C 1252.26 929.058 1247.2 938.168 1241.33 946.749 C 1194.39 1015.17 1076.03 1053.97 995.681 1040.94 C 982.522 1041 960.741 1036.05 947.879 1032.5 C 883.722 1014.8 807.009 970.933 792.978 900.523 L 791.636 900.423 L 790.421 902.021 C 789.894 906.893 791.415 911.83 792.494 916.716 C 759.794 916.697 733.913 898.954 723.834 867.141 C 714.256 836.908 725.069 797.682 759.496 789.557 C 783.664 783.854 798.788 792.842 819.028 804.502 C 815.364 799.511 813.729 798.043 809.324 793.963 z" fill="rgb(254,254,253)" transform="translate(0,0)"></path>
<path d="M 1237.13 778.157 C 1241.34 783.14 1246.72 789.161 1250.3 794.444 C 1247.65 795.984 1244.13 797.446 1242.96 799.99 L 1244.03 800.918 C 1253.01 797.734 1258.75 792.472 1268.44 789.967 C 1299.64 781.899 1328.04 797.028 1334.87 829.975 C 1338.9 849.497 1334.84 869.816 1323.64 886.303 C 1309.16 907.707 1287.53 917.748 1261.94 916.36 C 1264.81 908.241 1265.32 905.114 1266.8 896.639 C 1262.59 901.644 1259.29 913.021 1256.43 919.536 C 1252.26 929.058 1247.2 938.168 1241.33 946.749 C 1194.39 1015.17 1076.03 1053.97 995.681 1040.94 C 999.456 1035.42 1008.7 1033.86 1014.96 1032.37 C 1063.79 1020.76 1112.2 998.378 1150.31 965.426 C 1155.66 960.802 1178.18 939.084 1179.39 932.738 L 1177.32 931.66 C 1180.03 930.638 1182.97 931.39 1185.73 930.572 C 1185.7 930.499 1185.06 928.879 1185.12 928.796 C 1192.11 919.74 1205.99 890.988 1211.52 883.286 L 1210.92 882.446 C 1231.49 839.564 1232.71 824.15 1237.13 778.157 z" fill="rgb(244,218,209)" transform="translate(0,0)"></path>
<path d="M 1211.52 883.286 C 1238.94 907.576 1211.33 926.234 1185.73 930.572 C 1185.7 930.499 1185.06 928.879 1185.12 928.796 C 1192.11 919.74 1205.99 890.988 1211.52 883.286 z" fill="rgb(200,143,147)" transform="translate(0,0)"></path>
<path d="M 1296.66 833.918 C 1296.86 833.921 1301.18 833.945 1299.92 835.512 C 1296.76 839.421 1291.31 839.413 1286.62 843.369 C 1276.37 852.004 1273.72 858.116 1271.78 871.464 C 1265.66 872.112 1270.79 859.758 1271.78 857.295 C 1276.57 845.381 1285.04 838.637 1296.66 833.918 z" fill="rgb(3,2,3)" transform="translate(0,0)"></path>
<path d="M 1177.32 931.66 C 1156.25 932.982 1117.6 930.238 1111.08 904.494 C 1106.83 884.425 1138.13 872.09 1153 870.044 C 1176.71 866.782 1190 872.978 1210.05 882.059 L 1210.92 882.446 L 1211.52 883.286 C 1205.99 890.988 1192.11 919.74 1185.12 928.796 C 1185.06 928.879 1185.7 930.499 1185.73 930.572 C 1182.97 931.39 1180.03 930.638 1177.32 931.66 z" fill="rgb(239,187,179)" transform="translate(0,0)"></path>
<path d="M 881.809 870.368 C 899.204 868.37 915.511 870.321 931.142 878.743 C 945.96 886.728 953.01 903.613 939.44 916.511 C 929.689 925.78 915.957 929.418 903.06 931.81 C 834.649 938.036 804.137 882.332 881.809 870.368 z" fill="rgb(239,187,179)" transform="translate(0,0)"></path>
<path d="M 924.255 807.735 C 937.713 807.002 949.239 817.272 950.058 830.725 C 950.877 844.179 940.682 855.771 927.234 856.677 C 913.663 857.591 901.942 847.282 901.115 833.705 C 900.288 820.128 910.673 808.473 924.255 807.735 z" fill="rgb(3,2,3)" transform="translate(0,0)"></path>
<path d="M 1120.49 808.707 C 1133.61 805.416 1146.92 813.38 1150.23 826.501 C 1153.53 839.622 1145.58 852.939 1132.46 856.257 C 1119.33 859.579 1105.98 851.615 1102.68 838.474 C 1099.37 825.334 1107.34 812.002 1120.49 808.707 z" fill="rgb(3,2,3)" transform="translate(0,0)"></path>
<path d="M 1076.02 909.778 C 1078.81 912.053 1077.1 914.13 1074.76 916.405 C 1045.54 944.81 1007.66 942.129 979.489 915.842 C 979.212 915.287 976.952 911.032 979.328 910.743 C 981.888 911.294 984.044 915.048 986.112 916.876 C 1015.62 942.96 1050.78 936.279 1076.02 909.778 z" fill="rgb(3,2,3)" transform="translate(0,0)"></path>
<path d="M 917.819 747.213 C 923.464 747.474 928.864 748.32 933.637 751.464 C 935.808 752.893 944.638 758.281 942.182 761.657 C 938.179 763.536 932.155 743.669 908.382 753.508 C 900.429 759.632 897.208 763.574 896.479 773.776 C 896.327 776.811 893.204 776.586 893.172 774.051 C 892.972 758.176 904.465 749.817 917.819 747.213 z" fill="rgb(3,2,3)" transform="translate(0,0)"></path>
<path d="M 1127.56 747.175 C 1155.25 744.738 1163.4 772.827 1157.98 775.823 C 1156.45 775.833 1153.98 763.062 1150.6 758.602 L 1149.57 757.211 C 1126.45 737.539 1113.77 761.946 1110.59 761.188 C 1105.77 756.783 1125.07 748.104 1127.56 747.175 z" fill="rgb(3,2,3)" transform="translate(0,0)"></path>
<path d="M 754.829 835.204 C 773.655 834.229 787.312 853.805 788.878 871.12 C 786.333 870.681 785.577 870.289 785.04 867.536 C 782.637 855.225 775.682 845.061 763.936 840.118 C 759.406 838.211 757.923 839.058 754.829 835.204 z" fill="rgb(3,2,3)" transform="translate(0,0)"></path>
<path d="M 1022.51 859.033 C 1027.88 858.949 1037.75 860.062 1040.55 864.49 C 1045.37 872.087 1032.65 863.232 1032.74 863.276 C 1022.74 861.42 1025.82 862.125 1016.67 865.349 C 1004.83 869.52 1015.29 861.911 1022.51 859.033 z" fill="rgb(3,2,3)" transform="translate(0,0)"></path>
<path d="M 1232.96 273.287 C 1237.76 278.377 1242.85 284.44 1247.51 289.748 C 1241.06 307.041 1234.34 324.229 1227.35 341.307 C 1223.08 351.9 1217.14 365.387 1214.18 376.546 C 1213.09 380.657 1215.93 383.775 1218.4 386.975 C 1224.13 386.559 1259.86 372.236 1267.86 369.409 C 1239.76 417.457 1227.49 471.263 1227.65 526.659 C 1227.68 536.885 1227.81 549.617 1229.28 559.598 C 1212.76 538.43 1205.34 530.733 1184.66 513.218 C 1166.96 499.816 1147.48 487.516 1125.92 481.495 C 1131.41 486.248 1140.06 490.215 1146.65 493.652 C 1154.04 496.897 1161.12 500.951 1167.88 505.342 C 1238.43 551.144 1268.08 626.985 1270.13 708.359 C 1256.03 695.439 1242.68 686.22 1226.57 676.28 C 1222.8 673.959 1209.56 666.472 1207.24 664.699 C 1165.62 643.539 1126.37 629.703 1079.9 623.232 C 981.175 609.48 875.39 633.847 795.347 693.939 C 803.07 658.417 819.74 618.555 837.107 586.405 C 900.716 468.643 999.991 376.951 1119.23 317.185 C 1158.85 297.326 1191.37 286.038 1232.96 273.287 z" fill="rgb(95,96,162)" transform="translate(0,0)"></path>
<path d="M 1146.65 493.652 C 1154.04 496.897 1161.12 500.951 1167.88 505.342 C 1238.43 551.144 1268.08 626.985 1270.13 708.359 C 1256.03 695.439 1242.68 686.22 1226.57 676.28 C 1222.8 673.959 1209.56 666.472 1207.24 664.699 C 1208.39 663.745 1208.12 663.68 1208.78 662.041 C 1205.22 607.218 1186.98 552.321 1156 507.35 C 1153.27 503.398 1150.23 499.37 1147.71 495.351 L 1146.65 493.652 z" fill="rgb(72,77,153)" transform="translate(0,0)"></path>
<path d="M 1218.4 386.975 C 1224.13 386.559 1259.86 372.236 1267.86 369.409 C 1239.76 417.457 1227.49 471.263 1227.65 526.659 C 1227.68 536.885 1227.81 549.617 1229.28 559.598 C 1212.76 538.43 1205.34 530.733 1184.66 513.218 C 1187.19 508.086 1187.73 488.72 1188.36 481.498 C 1191.41 446.429 1205.23 418.841 1218.4 386.975 z" fill="rgb(72,77,153)" transform="translate(0,0)"></path>
<path d="M 924.514 482.704 C 945.367 484.812 924.834 501.192 920.512 507.103 C 913.288 517.089 906.519 527.396 900.226 537.993 C 894.197 548.296 886.828 566.167 879.298 573.012 C 864.659 573.18 870.668 560.668 875.142 552.574 C 884.264 536.073 909.969 491.377 924.514 482.704 z" fill="rgb(172,175,213)" transform="translate(0,0)"></path>
<path d="M 858.283 588.536 C 864.088 590.092 869.437 595.231 865.869 601.439 C 862.731 606.898 861.485 615.275 856.043 618.788 L 854.749 619.677 C 833.894 616.446 849.495 597.08 858.283 588.536 z" fill="rgb(172,175,213)" transform="translate(0,0)"></path>
<path d="M 762.126 1319.67 C 831.513 1347.81 904.348 1372.42 974.721 1399.05 C 973.691 1411.41 971.318 1436.48 979.454 1446.17 C 979.898 1446.69 980.352 1447.21 980.817 1447.71 L 980.871 1615.73 C 969.84 1626.44 973.912 1644.85 975.251 1659.2 C 931.573 1644.44 888.051 1629.21 844.694 1613.54 C 825.863 1606.81 791.227 1595.4 773.624 1587.51 C 770.358 1571.86 768.517 1552.42 766.689 1536.24 C 755.486 1529.73 732.104 1524.12 724.093 1516.38 C 726.344 1514.2 727.153 1514.22 730.598 1514.57 C 749.316 1516.43 766.876 1513.02 784.975 1507.34 L 787.859 1506.44 C 797.675 1502.1 800.872 1500.16 809.113 1493.58 L 812.129 1490 C 818.088 1480.51 815.235 1478.67 812.307 1469.39 C 808.849 1458.44 824.233 1454.7 813.568 1439.37 C 807.627 1430.84 820.252 1428.65 813.26 1415.08 L 807.016 1411.33 C 799.382 1408.73 795.836 1408.2 787.762 1406.96 L 784.197 1407.19 C 771.765 1406.07 736.556 1404.51 728.251 1393.76 C 724.987 1389.53 724.109 1368.73 723.312 1361.99 C 776.061 1380.59 762.051 1367.57 762.126 1319.67 z" fill="rgb(123,89,116)" transform="translate(0,0)"></path>
<path d="M 813.26 1415.08 C 833.814 1397.8 851.825 1415.66 863.361 1432.71 C 894.84 1416.53 902.025 1434.21 920.191 1457.8 C 917.69 1478.39 917.747 1493.21 932.783 1509.74 C 916.583 1526.63 918.945 1537.54 920.404 1559.17 C 895.127 1584.9 884.251 1565.39 868.275 1544.25 C 863.227 1546.13 856.096 1549.01 851.098 1550.25 C 819.472 1543.02 814.021 1517.75 812.129 1490 C 818.088 1480.51 815.235 1478.67 812.307 1469.39 C 808.849 1458.44 824.233 1454.7 813.568 1439.37 C 807.627 1430.84 820.252 1428.65 813.26 1415.08 z" fill="rgb(123,89,116)" transform="translate(0,0)"></path>
<path d="M 812.919 1373.49 C 833.581 1380.83 854.026 1389.02 874.541 1396.8 C 890.084 1402.7 906.995 1407.9 922.009 1414.7 C 921.326 1434.08 926.374 1441.75 945.114 1448.02 C 945.527 1491.54 944.923 1535.62 944.99 1579.23 C 928.434 1584.87 922.636 1586.11 921.319 1604.73 C 897.613 1595.69 873.821 1586.88 849.946 1578.31 C 837.305 1573.67 819.423 1567.62 807.891 1561.65 C 810.505 1543.1 807.261 1534.56 789.482 1526.92 C 789.381 1522.2 789.676 1510 787.859 1506.44 C 797.675 1502.1 800.872 1500.16 809.113 1493.58 L 812.129 1490 C 814.021 1517.75 819.472 1543.02 851.098 1550.25 C 856.096 1549.01 863.227 1546.13 868.275 1544.25 C 884.251 1565.39 895.127 1584.9 920.404 1559.17 C 918.945 1537.54 916.583 1526.63 932.783 1509.74 C 917.747 1493.21 917.69 1478.39 920.191 1457.8 C 902.025 1434.21 894.84 1416.53 863.361 1432.71 C 851.825 1415.66 833.814 1397.8 813.26 1415.08 L 807.016 1411.33 C 799.382 1408.73 795.836 1408.2 787.762 1406.96 C 787.436 1402.57 787.187 1399.32 787.284 1394.89 C 804.002 1391.83 808.508 1390.9 812.919 1373.49 z" fill="rgb(123,89,116)" transform="translate(0,0)"></path>
<path d="M 807.016 1411.33 C 833.157 1402.32 846.589 1401.33 863.446 1427.04 C 900.23 1413.36 902.992 1431.21 924.697 1455.34 C 920.043 1477.25 922.241 1492.68 938.041 1509.53 C 928.699 1519.74 923.027 1527.3 923.37 1541.9 C 923.465 1545.92 927.116 1561.27 923.997 1563.34 C 915.473 1568.99 908.184 1577.39 896.968 1575.26 C 882.727 1572.56 871.786 1560.87 866.23 1548.24 C 857.581 1552.8 851.543 1555.37 841.198 1552.48 C 829.549 1549.23 819.459 1536.95 813.925 1526.48 C 807.812 1514.91 808.541 1506.01 809.113 1493.58 L 812.129 1490 C 814.021 1517.75 819.472 1543.02 851.098 1550.25 C 856.096 1549.01 863.227 1546.13 868.275 1544.25 C 884.251 1565.39 895.127 1584.9 920.404 1559.17 C 918.945 1537.54 916.583 1526.63 932.783 1509.74 C 917.747 1493.21 917.69 1478.39 920.191 1457.8 C 902.025 1434.21 894.84 1416.53 863.361 1432.71 C 851.825 1415.66 833.814 1397.8 813.26 1415.08 L 807.016 1411.33 z" fill="rgb(252,177,45)" transform="translate(0,0)"></path>
<path d="M 784.059 1391.17 C 802.937 1389.61 807.393 1387.11 808.319 1368.17 C 830.248 1375.32 852.956 1384.51 874.768 1392.37 C 891.109 1398.25 911.946 1405.1 927.468 1412.42 C 922.77 1432.9 929.752 1438.69 948.364 1445.85 C 949.275 1491.92 949.251 1538.01 948.291 1584.09 L 946.99 1584.14 C 917.388 1585.52 928.622 1607.1 924.266 1609.72 C 907.308 1604.89 881.462 1594.31 864.101 1587.99 C 848.735 1582.4 818.644 1571.84 804.906 1564.7 C 805.288 1541.82 805.579 1538.8 784.866 1528.89 C 785.007 1521.92 785.324 1514.24 784.975 1507.34 L 787.859 1506.44 C 789.676 1510 789.381 1522.2 789.482 1526.92 C 807.261 1534.56 810.505 1543.1 807.891 1561.65 C 819.423 1567.62 837.305 1573.67 849.946 1578.31 C 873.821 1586.88 897.613 1595.69 921.319 1604.73 C 922.636 1586.11 928.434 1584.87 944.99 1579.23 C 944.923 1535.62 945.527 1491.54 945.114 1448.02 C 926.374 1441.75 921.326 1434.08 922.009 1414.7 C 906.995 1407.9 890.084 1402.7 874.541 1396.8 C 854.026 1389.02 833.581 1380.83 812.919 1373.49 C 808.508 1390.9 804.002 1391.83 787.284 1394.89 C 787.187 1399.32 787.436 1402.57 787.762 1406.96 L 784.197 1407.19 C 783.979 1401.47 783.893 1396.93 784.059 1391.17 z" fill="rgb(252,177,45)" transform="translate(0,0)"></path>
<path d="M 1083.26 1658.03 C 1084.31 1648.16 1084.1 1633.73 1084.03 1623.58 C 1084 1619.66 1080.3 1619.51 1080.25 1610.68 C 1079.97 1564.03 1080.02 1517.37 1080.33 1470.72 C 1080.35 1467.2 1080.27 1452.84 1080.9 1449.56 C 1083.64 1435.47 1087.64 1417.49 1084.2 1403.19 C 1083.73 1401.27 1082.88 1401.83 1083.5 1398.66 C 1088.6 1395.59 1100.75 1391.29 1106.69 1389.02 C 1124.58 1382.12 1142.6 1375.55 1160.74 1369.31 C 1187.21 1360.02 1212.75 1349.78 1239.43 1340.84 C 1253.63 1336.08 1280.53 1327.43 1292.28 1320.14 L 1293.51 1319.36 C 1294.08 1359.58 1279.7 1382.78 1331.69 1361.7 C 1331.83 1374.19 1331.69 1381 1329.11 1393.13 C 1313.71 1403.5 1287.92 1405.22 1269.75 1406.01 L 1264.59 1406.17 C 1258.23 1405.92 1251.42 1407.24 1245.71 1410.1 L 1240.2 1414.21 C 1233.35 1429.07 1245.44 1425.48 1237.67 1442.64 L 1237 1444.11 C 1233.79 1451.2 1238.68 1458.62 1241.95 1465.24 C 1238.24 1477.21 1236.4 1481.78 1243.66 1492.91 L 1248.1 1497.35 C 1252.02 1499.58 1262.89 1505.76 1267.21 1506.83 L 1270.68 1508.43 C 1293.29 1515.36 1304.83 1517.9 1327.9 1514.07 L 1328.49 1515.05 C 1323.59 1523.97 1289.75 1530.76 1284.12 1536.23 C 1278.94 1541.25 1276.41 1580.65 1275.63 1589.7 C 1212.45 1608.69 1147.19 1639.03 1083.26 1658.03 z" fill="rgb(123,89,116)" transform="translate(0,0)"></path>
<path d="M 1193.38 1433.36 C 1203.19 1416.19 1220.58 1398.2 1240.2 1414.21 C 1233.35 1429.07 1245.44 1425.48 1237.67 1442.64 L 1237 1444.11 C 1233.79 1451.2 1238.68 1458.62 1241.95 1465.24 C 1238.24 1477.21 1236.4 1481.78 1243.66 1492.91 C 1239.23 1512.08 1239.71 1536.6 1216.87 1547.3 C 1206.97 1551.93 1196.04 1547.87 1186.45 1544.1 C 1182.47 1551.21 1179.15 1556.64 1173.61 1562.68 C 1159.29 1578.27 1149.01 1569.23 1135.65 1558.74 C 1138.2 1539.5 1140.75 1524.79 1124.35 1511.16 C 1138.72 1493.75 1138.69 1478.88 1134.52 1458.22 C 1155.21 1438.48 1158.87 1412.6 1193.38 1433.36 z" fill="rgb(123,89,116)" transform="translate(0,0)"></path>
<path d="M 1132.91 1414.02 C 1167.94 1399.22 1207.83 1386.87 1243.72 1373.35 C 1247.22 1396.14 1252.22 1387.94 1263.89 1396.64 C 1265.77 1399.65 1264.95 1402.47 1264.59 1406.17 C 1258.23 1405.92 1251.42 1407.24 1245.71 1410.1 L 1240.2 1414.21 C 1220.58 1398.2 1203.19 1416.19 1193.38 1433.36 C 1158.87 1412.6 1155.21 1438.48 1134.52 1458.22 C 1138.69 1478.88 1138.72 1493.75 1124.35 1511.16 C 1140.75 1524.79 1138.2 1539.5 1135.65 1558.74 C 1149.01 1569.23 1159.29 1578.27 1173.61 1562.68 C 1179.15 1556.64 1182.47 1551.21 1186.45 1544.1 C 1196.04 1547.87 1206.97 1551.93 1216.87 1547.3 C 1239.71 1536.6 1239.23 1512.08 1243.66 1492.91 L 1248.1 1497.35 C 1252.02 1499.58 1262.89 1505.76 1267.21 1506.83 C 1266.08 1513.24 1266.45 1520.48 1266.51 1527.09 C 1246.36 1537.52 1248.48 1542.04 1247.09 1563.09 L 1134.39 1604.16 C 1131.79 1588.22 1129.46 1581 1111.82 1579.7 C 1111.22 1536.91 1111.7 1492.92 1111.69 1450.06 C 1130.47 1440.41 1133.08 1434.71 1132.91 1414.02 z" fill="rgb(123,89,116)" transform="translate(0,0)"></path>
<path d="M 1191.95 1428.16 C 1206.46 1404.22 1219.87 1397.86 1245.71 1410.1 L 1240.2 1414.21 C 1220.58 1398.2 1203.19 1416.19 1193.38 1433.36 C 1158.87 1412.6 1155.21 1438.48 1134.52 1458.22 C 1138.69 1478.88 1138.72 1493.75 1124.35 1511.16 C 1140.75 1524.79 1138.2 1539.5 1135.65 1558.74 C 1149.01 1569.23 1159.29 1578.27 1173.61 1562.68 C 1179.15 1556.64 1182.47 1551.21 1186.45 1544.1 C 1196.04 1547.87 1206.97 1551.93 1216.87 1547.3 C 1239.71 1536.6 1239.23 1512.08 1243.66 1492.91 L 1248.1 1497.35 C 1244.36 1530.63 1227.83 1563.1 1188.3 1549.44 C 1174.14 1576.33 1157.21 1582.66 1133.37 1563.65 C 1131.44 1562.1 1133.76 1538.18 1133.52 1533.39 C 1133 1522.59 1124.25 1520.37 1121.68 1511.04 C 1121.16 1507.84 1129.37 1496.85 1130.87 1490.87 C 1134.14 1477.72 1132.63 1468.59 1130.96 1455.38 C 1150.02 1437.34 1160.27 1408.27 1191.95 1428.16 z" fill="rgb(252,177,45)" transform="translate(0,0)"></path>
<path d="M 1128.81 1411.25 C 1163.35 1396.6 1212.23 1380.76 1247.86 1368.02 C 1247.83 1386.98 1251.64 1386.83 1269.08 1391.39 C 1269.12 1396.83 1269.27 1400.55 1269.75 1406.01 L 1264.59 1406.17 C 1264.95 1402.47 1265.77 1399.65 1263.89 1396.64 C 1252.22 1387.94 1247.22 1396.14 1243.72 1373.35 C 1207.83 1386.87 1167.94 1399.22 1132.91 1414.02 C 1133.08 1434.71 1130.47 1440.41 1111.69 1450.06 C 1111.7 1492.92 1111.22 1536.91 1111.82 1579.7 C 1129.46 1581 1131.79 1588.22 1134.39 1604.16 L 1247.09 1563.09 C 1248.48 1542.04 1246.36 1537.52 1266.51 1527.09 C 1266.45 1520.48 1266.08 1513.24 1267.21 1506.83 L 1270.68 1508.43 C 1270.86 1515.55 1270.77 1522.99 1270.79 1530.14 C 1268.39 1530.86 1265.96 1531.57 1263.62 1532.49 C 1245.03 1539.76 1256.81 1556.33 1250.94 1564.6 C 1247.72 1569.13 1142.97 1605.56 1129.19 1610.99 C 1129.08 1591.13 1128.55 1586.09 1108.01 1583.88 L 1107.81 1448.02 C 1127.48 1437.33 1129.21 1433.19 1128.81 1411.25 z" fill="rgb(252,177,45)" transform="translate(0,0)"></path>
<path d="M 820.171 1009.85 L 822.023 1010.47 C 822.183 1018.88 817.328 1056.57 816.048 1067.79 C 813.402 1091.01 811.973 1121.32 807.57 1143.38 C 801.347 1174.57 793.493 1205.7 788.999 1237.46 C 787.337 1249.21 784.269 1261.33 784.053 1273.23 C 781.228 1272.11 772.87 1268.71 770.17 1268.59 C 758.28 1268.06 742.586 1274.26 731.161 1278 C 721.859 1281.04 716.444 1283.29 712.386 1291.69 C 656.362 1294.02 608.466 1345.89 602.397 1400.11 C 601.823 1405.24 601.775 1410.78 601.678 1415.95 L 593.624 1401.91 C 593.047 1400.88 592.493 1399.84 591.96 1398.79 C 529.551 1274.24 643.73 1121.19 743.49 1052.98 C 768.349 1035.98 793.325 1023.13 820.171 1009.85 z" fill="rgb(219,62,87)" transform="translate(0,0)"></path>
<path d="M 653.823 1221.13 C 672.32 1222.24 722.46 1234.1 732.614 1250.19 C 732.084 1250.61 731.554 1251.04 731.024 1251.46 C 726.535 1249.64 718.499 1246.72 714.08 1245.86 C 685.131 1240.21 661.918 1240.93 633.618 1246.8 C 628.795 1248.21 622.549 1250.51 617.741 1250.31 L 617.377 1249.04 C 620.872 1246.68 627.529 1245.12 631.763 1243.98 C 663.841 1235.4 688.221 1238.47 719.845 1243.53 C 705.69 1236.52 692.96 1231.37 677.542 1227.65 C 671.649 1226.23 657.171 1225.3 654.605 1224.11 L 653.823 1221.13 z" fill="rgb(3,2,3)" transform="translate(0,0)"></path>
<path d="M 745.895 1216.96 C 761.724 1218.13 766.024 1230.3 752.901 1239.87 C 740.79 1237.6 732.774 1225.52 744.218 1218.09 L 745.895 1216.96 z" fill="rgb(252,177,45)" transform="translate(0,0)"></path>
<path d="M 740.855 1114.74 C 743.058 1113.61 745.706 1113.78 747.747 1115.18 C 749.789 1116.59 750.895 1119 750.626 1121.46 C 750.357 1123.92 748.757 1126.04 746.461 1126.97 C 743.125 1128.32 739.316 1126.81 737.815 1123.53 C 736.315 1120.26 737.654 1116.39 740.855 1114.74 z" fill="rgb(252,177,45)" transform="translate(0,0)"></path>
<path d="M 733.421 1190.49 C 736.898 1189.32 740.663 1191.21 741.802 1194.7 C 742.941 1198.18 741.017 1201.93 737.519 1203.04 C 734.067 1204.13 730.379 1202.24 729.255 1198.79 C 728.13 1195.35 729.99 1191.65 733.421 1190.49 z" fill="rgb(247,162,33)" transform="translate(0,0)"></path>
<path d="M 1232.52 1009.56 C 1334.7 1056.64 1420.53 1137.48 1461.58 1243.93 C 1481.15 1294.67 1484.13 1367.43 1449.84 1413.03 C 1447.52 1376.06 1435.88 1346.2 1407.67 1320.96 C 1391.12 1306.16 1367.36 1293.62 1344.83 1292.55 C 1334.35 1279.95 1310.33 1272.71 1294.4 1269.96 C 1286.58 1268.61 1278.08 1271.47 1270.61 1273.85 C 1271.12 1264.66 1265.02 1222.14 1262.45 1213.7 L 1261.92 1213.31 L 1262.09 1209.07 C 1258.9 1185.19 1249.19 1155.36 1245.37 1131.48 C 1242.85 1115.71 1241.59 1093.85 1239.99 1077.5 C 1237.81 1055.3 1234.22 1031.52 1232.52 1009.56 z" fill="rgb(219,62,87)" transform="translate(0,0)"></path>
<path d="M 1285.09 1173.85 C 1291.66 1200.91 1292.09 1205.58 1320.51 1210.45 C 1293.63 1218.7 1288.49 1219.11 1286.75 1249.1 C 1280.89 1231.77 1281.14 1219.14 1262.45 1213.7 L 1261.92 1213.31 L 1262.09 1209.07 L 1263.82 1208.39 C 1276.35 1203.7 1282.5 1192.79 1284.15 1180.01 C 1284.44 1177.95 1284.75 1175.9 1285.09 1173.85 z" fill="rgb(252,177,45)" transform="translate(0,0)"></path>
<path d="M 1315.74 1254.12 C 1329.02 1241.34 1341.62 1233.81 1359.34 1227.92 C 1366.17 1225.66 1392.25 1219.74 1397.85 1222.65 C 1395.82 1225.48 1382.79 1226.29 1378.56 1226.99 C 1366.11 1229.05 1355.55 1232.02 1344.19 1237.57 C 1347.23 1239.19 1348.67 1238.69 1352.48 1239.22 C 1373.13 1237.58 1415.06 1237.23 1432.51 1249.84 C 1427.92 1250.1 1413.77 1245.7 1407.65 1244.57 C 1384.39 1240.28 1354.85 1240.16 1331.93 1246.06 C 1330.64 1246.39 1319.14 1252.65 1315.74 1254.12 z" fill="rgb(3,2,3)" transform="translate(0,0)"></path>
<path d="M 1344.19 1237.57 C 1347.23 1239.19 1348.67 1238.69 1352.48 1239.22 C 1350.87 1239.51 1340.3 1241.57 1339.49 1240.34 C 1340 1238.84 1342.85 1238.03 1344.19 1237.57 z" fill="rgb(188,51,80)" transform="translate(0,0)"></path>
<path d="M 1306.08 1088.77 C 1309.54 1087.3 1313.54 1088.91 1315.03 1092.36 C 1316.52 1095.82 1314.93 1099.83 1311.48 1101.33 C 1308.01 1102.84 1303.97 1101.24 1302.47 1097.76 C 1300.98 1094.29 1302.59 1090.26 1306.08 1088.77 z" fill="rgb(247,162,33)" transform="translate(0,0)"></path>
<path d="M 1322.61 1190.4 C 1324.94 1189.66 1327.48 1190.24 1329.27 1191.92 C 1331.05 1193.59 1331.78 1196.1 1331.19 1198.47 C 1330.59 1200.84 1328.76 1202.71 1326.4 1203.34 C 1322.86 1204.3 1319.21 1202.25 1318.18 1198.73 C 1317.14 1195.21 1319.11 1191.51 1322.61 1190.4 z" fill="rgb(252,177,45)" transform="translate(0,0)"></path>
<path d="M 1004.3 623.426 C 1008.02 622.895 1018.36 622.699 1022.71 622.637 C 1109.87 621.402 1204.22 653.502 1269.3 712.043 C 1288.47 729.283 1320.18 769.584 1320.63 795.07 L 1319.37 795.789 C 1294.28 779.839 1279.65 781.344 1253.07 791.833 C 1249.83 787.82 1246.53 783.852 1243.18 779.928 C 1196.38 726.125 1116.05 697.722 1046.24 692.422 C 965.909 684.605 866.65 717.074 814.831 780.677 C 811.489 784.78 808.931 788.9 806.37 793.507 C 776.524 779.477 758.852 781.823 732.286 801.089 C 729.026 750.991 778.957 708.632 816.585 683.191 C 872.995 645.052 936.946 627.774 1004.3 623.426 z" fill="rgb(9,43,87)" transform="translate(0,0)"></path>
<path d="M 1287.62 217.143 C 1295.7 204.315 1335.13 140.757 1342.36 135.49 C 1348.96 139.407 1354.24 165.409 1356.33 173.322 L 1371.99 232.786 L 1383.18 235.25 C 1395.13 237.456 1464.09 251.694 1470.13 256.118 C 1470.31 257.599 1470.8 258.438 1469.88 259.744 C 1465.36 266.178 1396.8 303.215 1382.73 312.538 C 1384.54 329.213 1392.37 398.625 1389.74 410.177 L 1388.53 411.14 C 1380.12 409.693 1336.65 371.984 1329.49 364.893 C 1323.17 359.451 1316.81 354.052 1310.41 348.694 C 1297.09 354.489 1227.89 382.595 1218.65 382.633 L 1217.84 381.087 C 1218.4 369.363 1245.67 303.214 1251.22 288.99 C 1242.65 280.537 1188.77 221.902 1184.68 213.575 C 1184.8 210.048 1184.28 211.693 1186.79 208.66 C 1194.36 206.877 1269.78 216.872 1286.05 217.126 L 1287.62 217.143 z" fill="rgb(247,162,33)" transform="translate(0,0)"></path>
<path d="M 1383.18 235.25 C 1395.13 237.456 1464.09 251.694 1470.13 256.118 C 1470.31 257.599 1470.8 258.438 1469.88 259.744 C 1465.36 266.178 1396.8 303.215 1382.73 312.538 C 1384.54 329.213 1392.37 398.625 1389.74 410.177 L 1388.53 411.14 C 1380.12 409.693 1336.65 371.984 1329.49 364.893 C 1337.05 363.153 1342.76 351.378 1346.63 345.036 C 1360.67 321.999 1370.19 296.981 1376.06 270.676 C 1378.69 258.892 1379.77 246.878 1383.18 235.25 z" fill="rgb(241,148,33)" transform="translate(0,0)"></path>
<path d="M 1264.18 1596.04 C 1264.82 1596.41 1265.23 1597.22 1265.72 1597.93 C 1267.41 1615.47 1253.25 1689.51 1245.9 1709.44 C 1242.41 1718.93 1229.71 1725.08 1220.17 1728.35 C 1173.24 1744.43 1101.44 1745.54 1056.43 1723.83 C 1050.36 1720.76 1048.62 1719.28 1043.75 1714.93 C 1039.29 1704.4 1039.21 1695.69 1038.33 1684.42 C 1043.1 1684.19 1047.82 1683.44 1052.42 1682.16 C 1065.23 1678.56 1076.31 1672.87 1082.97 1660.91 C 1106.83 1653.91 1129.31 1645.48 1152.71 1637.08 C 1189.96 1623.66 1227.12 1609.97 1264.18 1596.04 z" fill="rgb(9,43,87)" transform="translate(0,0)"></path>
<path d="M 790.603 1597.21 C 795.062 1598.18 810.144 1604.03 814.92 1605.77 L 862.724 1623.07 L 935.104 1648.76 C 940.771 1650.76 970.078 1660.21 973.05 1662.37 C 992.012 1676.19 992.747 1680.5 1018.07 1684.49 C 1018 1702.03 1016.62 1714.83 1000.06 1723.5 C 954.485 1742.36 907.983 1744 859.907 1735.24 C 846.834 1732.86 818.249 1725.66 812.077 1714.9 C 803.325 1699.63 787.957 1610.24 790.603 1597.21 z" fill="rgb(9,43,87)" transform="translate(0,0)"></path>
<path d="M 909.792 1022.78 C 987.086 1053.21 1065.32 1054.05 1143.05 1023.99 L 1144.86 1050.97 C 1145.34 1075.12 1148.69 1108.44 1150.47 1133.02 C 1123.78 1132.96 1095.27 1132.48 1068.84 1133.95 C 1071.04 1115.33 1065.76 1101.7 1048.66 1092.18 C 1029.17 1081.33 984.493 1071.37 971.856 1096.34 C 966.207 1107.5 971.142 1122.28 974.968 1133.3 C 951.797 1134.03 924.182 1133.77 900.977 1133.2 C 904.277 1107.47 906.364 1075.64 908.176 1049.53 C 909.129 1040.13 909.464 1032.18 909.792 1022.78 z" fill="rgb(219,62,87)" transform="translate(0,0)"></path>
<path d="M 909.792 1022.78 C 987.086 1053.21 1065.32 1054.05 1143.05 1023.99 L 1144.86 1050.97 C 1143.89 1050.38 1142.81 1050.02 1141.63 1050.38 C 1125.51 1055.38 1107.83 1061.86 1091.31 1064.68 C 1044.36 1072.69 998.271 1073.52 952.078 1060.81 C 939.277 1057.28 922.393 1052.19 909.49 1049.77 L 908.176 1049.53 C 909.129 1040.13 909.464 1032.18 909.792 1022.78 z" fill="rgb(188,51,80)" transform="translate(0,0)"></path>
<path d="M 1197.26 993.895 C 1206.76 993.808 1211.61 994.092 1220.89 995.67 C 1223.28 997.479 1225.35 999.507 1227.56 1001.54 C 1233.83 1041.6 1237 1081.98 1241.23 1122.24 C 1242.37 1133.13 1256.41 1205.72 1260.99 1209.53 L 1262.09 1209.07 L 1261.92 1213.31 L 1256.08 1212.57 C 1261.93 1220.87 1264.18 1249.71 1266.69 1262.65 C 1250.7 1268.73 1231.14 1274.85 1214.76 1280.35 C 1221.31 1257.11 1214.31 1235.59 1186.54 1237.77 C 1173.72 1238.77 1164.65 1244.34 1155.3 1233.61 C 1148.82 1208.68 1156.04 1192.08 1177.08 1178.35 C 1178.59 1179.39 1180.11 1180.41 1181.65 1181.4 C 1205.66 1196.81 1247.15 1200.55 1236.06 1158.02 C 1250.19 1113.68 1196.06 1092.41 1171.85 1126.4 C 1168.91 1130.53 1167.51 1136.83 1166.19 1141.79 L 1155.12 1146.26 C 1151.03 1107.82 1148.61 1061.04 1145.89 1022.22 C 1166.23 1012.93 1178.83 1006.38 1197.26 993.895 z" fill="rgb(9,43,87)" transform="translate(0,0)"></path>
<path d="M 1262.09 1209.07 L 1261.92 1213.31 L 1256.08 1212.57 C 1247.24 1209.51 1257.18 1210.01 1260.99 1209.53 L 1262.09 1209.07 z" fill="rgb(241,148,33)" transform="translate(0,0)"></path>
<path d="M 997.999 1084.35 C 1024.73 1083.36 1068.34 1092.71 1066.1 1127.82 C 1064.95 1145.7 1054.16 1144.61 1047.19 1157.66 C 1043.74 1167.47 1063.54 1172.21 1068.04 1178.03 C 1093.35 1210.82 1090.25 1244.93 1051.05 1265.02 C 1045.22 1267.56 1039.15 1269.49 1032.93 1270.79 C 1010.82 1275.4 965.447 1273.59 963.93 1241.39 C 963.501 1232.29 971.437 1220.72 975.409 1212.27 C 985.881 1190.01 986.128 1165.27 980.691 1141.57 C 977.504 1127.69 966.533 1106.52 976.15 1093.63 C 981.256 1086.78 990.062 1085.34 997.999 1084.35 z" fill="rgb(247,162,33)" transform="translate(0,0)"></path>
<path d="M 1020.53 1176.94 C 1045.88 1176.41 1053.3 1201.99 1038.1 1217.55 C 1011.04 1229.7 1011.18 1186.72 1020.53 1176.94 z" fill="rgb(3,2,3)" transform="translate(0,0)"></path>
<path d="M 1021.33 1180.9 C 1026.89 1180.91 1031.95 1180.41 1036.25 1184.16 C 1045.22 1191.99 1044.31 1205.65 1037.79 1214.27 C 1015.98 1226.75 1016.32 1192.33 1021.33 1180.9 z" fill="rgb(9,43,87)" transform="translate(0,0)"></path>
<path d="M 1025.09 1111.19 C 1048.62 1115.33 1047.76 1131.61 1029.8 1144.13 C 1023.58 1146.4 1017 1146.92 1015.22 1139.46 C 1012.12 1126.54 1011.26 1114.98 1025.09 1111.19 z" fill="rgb(3,2,3)" transform="translate(0,0)"></path>
<path d="M 1016.84 1133.12 C 1017.28 1125.82 1016.29 1113.91 1027.52 1114.63 C 1032.66 1114.96 1041.12 1120.93 1039.77 1126.97 C 1038.13 1133.25 1035.26 1135.06 1029.5 1135.19 L 1028.3 1135.22 C 1029.39 1137.65 1030.98 1136.27 1031.24 1137.94 C 1031 1138.56 1030.73 1138.91 1030.15 1139.25 C 1021.89 1144.13 1020.38 1139.76 1016.84 1133.12 z" fill="rgb(188,51,80)" transform="translate(0,0)"></path>
<path d="M 1016.84 1133.12 C 1022.27 1132.97 1024.45 1131.94 1028.3 1135.22 C 1029.39 1137.65 1030.98 1136.27 1031.24 1137.94 C 1031 1138.56 1030.73 1138.91 1030.15 1139.25 C 1021.89 1144.13 1020.38 1139.76 1016.84 1133.12 z" fill="url(#Gradient4)" transform="translate(0,0)"></path>
<path d="M 996.869 1091.16 C 1000.95 1091.49 1000.12 1094.39 999.613 1094.67 C 984.306 1103.21 987.403 1095.52 979.561 1111.41 C 978.45 1111.53 976.846 1111.52 976.69 1110.05 C 975.412 1097.98 988.046 1093.26 996.869 1091.16 z" fill="rgb(254,254,253)" transform="translate(0,0)"></path>
<path d="M 976.731 1223.69 C 977.566 1227.18 968.702 1252.27 984.956 1252.41 C 987.44 1252.43 983.992 1258.2 983.858 1258.51 C 971.147 1251.52 965.385 1233.69 976.731 1223.69 z" fill="rgb(254,254,253)" transform="translate(0,0)"></path>
<path d="M 1063.24 1242.7 C 1069.97 1243.4 1065.63 1249.74 1060.98 1252 L 1059.46 1252.82 C 1053.23 1247.78 1057.12 1246.9 1063.24 1242.7 z" fill="rgb(254,254,253)" transform="translate(0,0)"></path>
<path d="M 1075.26 1217.71 C 1079.72 1222.64 1075.15 1231.92 1071.85 1236.41 C 1068.58 1233.2 1073.46 1221.59 1075.26 1217.71 z" fill="rgb(254,254,253)" transform="translate(0,0)"></path>
<path d="M 1002.83 1092.1 L 1004.02 1091.97 C 1009.25 1091.34 1010.49 1090.7 1011.71 1095.98 C 1007.65 1097.12 1005.2 1098.3 1003.46 1093.65 L 1002.83 1092.1 z" fill="rgb(254,254,253)" transform="translate(0,0)"></path>
<path d="M 1076.63 1447.89 C 1077.53 1453.29 1076.72 1498.31 1076.66 1506.01 L 1076.61 1616.87 C 1053.1 1641.5 1013.05 1641.83 987.059 1620.99 C 982.629 1615.74 984.481 1569.71 984.475 1560.04 L 984.009 1450 C 993.651 1455.5 1001.36 1458.8 1012.3 1460.97 C 1034.63 1465.37 1057.79 1460.66 1076.63 1447.89 z" fill="rgb(123,89,116)" transform="translate(0,0)"></path>
<path d="M 1027.23 1500.25 C 1031.18 1517.82 1031.66 1530.65 1052.98 1534.3 L 1059.16 1535.42 C 1040.13 1542.05 1032.39 1543.37 1028.21 1564.2 L 1024.8 1564.77 C 1019.67 1543.19 1011.52 1541.43 991.601 1535.57 C 1019.79 1529.84 1019 1527.25 1027.23 1500.25 z" fill="rgb(252,177,45)" transform="translate(0,0)"></path>
<path d="M 1024.8 1564.77 L 1028.21 1564.2 C 1027.75 1571.45 1026.61 1573.58 1024.8 1564.77 z" fill="rgb(247,162,33)" transform="translate(0,0)"></path>
<path d="M 1057.65 1774.23 C 1106.17 1801.05 1173.58 1799.61 1223.5 1776.99 C 1239.56 1781.07 1253.21 1785.39 1265.53 1797.2 C 1275.81 1807.06 1288.83 1823.53 1289.45 1838.44 C 1289.66 1843.64 1286.98 1845.73 1283.56 1849.23 C 1244.5 1887.22 1169.11 1871.85 1125.24 1851.61 C 1098.18 1839.13 1077.46 1822.48 1057 1801.46 C 1056.94 1792.01 1056.78 1783.68 1057.65 1774.23 z" fill="rgb(244,218,209)" transform="translate(0,0)"></path>
<path d="M 996.423 1774.96 C 997.295 1775.01 996.716 1774.89 997.864 1775.99 C 998.294 1783.94 998.41 1791.62 998.527 1799.58 C 995.253 1803.67 991.731 1807.57 987.981 1811.24 C 948.166 1849.55 892.469 1872.91 836.914 1872.28 C 816.327 1872.04 788.711 1866.8 773.822 1851.31 C 770.318 1847.75 768 1844.25 765.088 1840.22 C 775.945 1802.72 794.709 1784.98 832.842 1777.35 C 879.055 1800.01 951.27 1800.41 996.423 1774.96 z" fill="rgb(244,218,209)" transform="translate(0,0)"></path>
<path d="M 705.021 1348.73 C 705.286 1348.89 705.551 1349.05 705.816 1349.21 C 709.964 1355.58 713.733 1357.88 720.445 1361.1 C 721.225 1368.34 721.391 1389.66 724.333 1394.26 C 736.198 1412.81 782.847 1407.3 802.189 1412.58 C 805.064 1413.21 811.027 1417.62 811.698 1420.49 C 816.418 1440.73 777.213 1443.55 764.087 1442.59 C 759.165 1442.23 751.353 1440.73 748.224 1441.74 C 755.139 1448.92 778.214 1446.26 787.697 1444.26 C 795.997 1442.5 802.371 1437.17 810.144 1439.18 C 816.575 1444.65 814.008 1452.6 810.204 1459.22 C 802.376 1472.84 780.19 1476.1 765.88 1477.24 C 759.377 1477.76 752.809 1476.63 746.639 1478.22 L 745.184 1480.9 C 760.476 1481.22 776.211 1482.08 790.853 1476.46 C 796.567 1474.26 801.47 1470.65 807.986 1468.17 C 810.53 1469.94 812.059 1475.55 811.78 1478.25 C 808.98 1503.51 759.758 1511.7 739.706 1511.89 C 692.799 1512.36 666.365 1466.8 669.128 1424.21 C 671.175 1392.66 681.927 1369.46 705.021 1348.73 z" fill="rgb(254,254,253)" transform="translate(0,0)"></path>
<path d="M 1347.37 1348.68 C 1375.33 1376.58 1389.51 1412.29 1380.71 1450.96 C 1367.49 1509.08 1317 1526.07 1265.74 1502 C 1246.93 1493.17 1238.71 1489.08 1244.24 1467.46 C 1266.06 1481.42 1282.47 1482.42 1307.43 1480.63 L 1307.66 1478.93 C 1306.5 1476.73 1307.03 1476.92 1303.81 1477.28 C 1281.54 1479.81 1229.95 1473.58 1240.9 1440.1 C 1241.23 1439.07 1243.83 1435.94 1244.98 1436.42 C 1262.86 1443.99 1283.84 1449.7 1303.09 1444.96 C 1304.85 1444.52 1305.55 1442.6 1305.82 1441.06 C 1300.07 1440.14 1294.72 1442.97 1288.59 1443.03 C 1275.95 1443.05 1254.44 1440.71 1244.87 1431.63 C 1235.02 1422.28 1245.42 1411.78 1256.57 1410.43 C 1279.87 1407.62 1310.13 1410.35 1329.85 1396.49 C 1336.61 1391.74 1335.09 1370.61 1335.04 1362.66 C 1341.54 1358 1344.9 1356.4 1347.37 1348.68 z" fill="rgb(254,254,253)" transform="translate(0,0)"></path>
<path d="M 1085.61 1235.48 C 1089.21 1235.73 1090.37 1235.48 1093.19 1237.75 C 1094.83 1241.11 1094.99 1242.09 1095.83 1245.63 C 1099.89 1273.66 1107.73 1286.39 1132.77 1300.39 C 1136.65 1301.47 1140.49 1302.7 1144.34 1303.91 C 1140.72 1304.61 1137.11 1305.39 1133.52 1306.24 C 1131.56 1306.69 1130.07 1307.09 1128.05 1307.46 C 1112.95 1312.33 1101.11 1316.58 1086.65 1323.54 C 1061.66 1339.02 1042.99 1354.1 1028.83 1380.12 C 1013.36 1352.64 996.998 1340.03 970.285 1324.36 C 945.475 1311.98 907.441 1300.98 880.011 1293.24 C 882.689 1289.53 883.757 1287.6 885.88 1283.53 C 887.796 1283.51 895.187 1282.22 895.47 1283.06 C 895.193 1284.36 892.301 1285.3 892.638 1286.3 C 894.96 1287.63 907.36 1280.74 907.367 1278.07 C 907.372 1276.07 902.219 1276.11 904.249 1272.68 C 909.913 1277.79 914.644 1280.75 922.376 1281.77 C 931.095 1282.85 939.89 1280.44 946.829 1275.05 C 955.705 1268.16 957.724 1261.21 959.012 1250.93 L 961.249 1249.11 C 977.905 1291.55 1065.91 1281.41 1085.61 1235.48 z" fill="url(#Gradient3)" transform="translate(0,0)"></path>
<path d="M 1132.77 1300.39 C 1136.65 1301.47 1140.49 1302.7 1144.34 1303.91 C 1140.72 1304.61 1137.11 1305.39 1133.52 1306.24 C 1131.56 1306.69 1130.07 1307.09 1128.05 1307.46 C 1128.85 1303.79 1132.54 1304.9 1135.56 1304 L 1135.8 1303.5 L 1135.99 1303.57 C 1135.68 1302.49 1134.67 1302.28 1133.96 1301.58 L 1132.77 1300.39 z" fill="rgb(173,118,45)" transform="translate(0,0)"></path>
<path d="M 839.742 1147.17 C 861.472 1129.08 882.06 1146.36 896.189 1164.13 L 947.758 1229.93 C 951.722 1235.28 954.042 1238.59 955.08 1245.11 C 957.903 1252.95 954.812 1264.84 947.946 1269.97 C 941.824 1277.08 928.933 1280.37 919.867 1278.25 C 893.391 1272.09 903.613 1243.96 896.017 1226.51 C 893.236 1220.11 880.302 1221.43 875.945 1225.45 C 857.935 1241.63 889.636 1255.67 883.672 1278.91 C 877.995 1301.04 844.424 1309.26 832.203 1289.3 C 824.521 1273.51 826.565 1250.03 826.786 1232.86 C 827.074 1210.48 823.721 1183.95 829.413 1162.78 C 832.393 1156.05 834.193 1152.25 839.742 1147.17 z" fill="rgb(247,162,33)" transform="translate(0,0)"></path>
<path d="M 944.413 1262.76 C 926.827 1269.91 942.22 1261.42 944.317 1250 C 946.437 1238.46 929.454 1227.34 929.777 1225.56 C 933.529 1222 943.322 1232.65 945.27 1234.73 L 947.758 1229.93 C 951.722 1235.28 954.042 1238.59 955.08 1245.11 C 957.903 1252.95 954.812 1264.84 947.946 1269.97 C 947.147 1269.22 947.168 1269.44 946.82 1268.57 C 948.031 1266.9 951.181 1264.83 950.824 1263.61 C 949.688 1262.68 947.157 1264.38 944.413 1262.76 z" fill="rgb(254,254,253)" transform="translate(0,0)"></path>
<path d="M 947.758 1229.93 C 951.722 1235.28 954.042 1238.59 955.08 1245.11 C 957.903 1252.95 954.812 1264.84 947.946 1269.97 C 947.147 1269.22 947.168 1269.44 946.82 1268.57 C 948.031 1266.9 951.181 1264.83 950.824 1263.61 C 949.688 1262.68 947.157 1264.38 944.413 1262.76 C 951.155 1254.59 949.408 1252.8 950.132 1243.02 C 948.381 1240.27 947.102 1237.63 945.27 1234.73 L 947.758 1229.93 z" fill="rgb(247,162,33)" transform="translate(0,0)"></path>
<path d="M 947.758 1229.93 C 951.722 1235.28 954.042 1238.59 955.08 1245.11 C 951.733 1243.02 950.791 1236.31 949.39 1237.04 C 948.903 1238.88 951.397 1240.26 950.132 1243.02 C 948.381 1240.27 947.102 1237.63 945.27 1234.73 L 947.758 1229.93 z" fill="rgb(241,148,33)" transform="translate(0,0)"></path>
<path d="M 840.719 1154.36 C 842.043 1153.41 859.319 1141.48 858.619 1147.94 C 858.375 1150.19 844.825 1155.06 842.922 1157.8 C 840.777 1159.94 843.273 1167.15 836.983 1167.13 C 834.834 1167.13 834.387 1164.06 834.227 1162.47 L 835.585 1161.34 C 838.835 1158.69 839.073 1158.11 840.719 1154.36 z" fill="rgb(254,254,253)" transform="translate(0,0)"></path>
<path d="M 839.742 1147.17 C 837.696 1153.76 835.849 1151.96 840.719 1154.36 C 839.073 1158.11 838.835 1158.69 835.585 1161.34 L 834.227 1162.47 C 832.406 1162.53 831.246 1162.59 829.413 1162.78 C 832.393 1156.05 834.193 1152.25 839.742 1147.17 z" fill="rgb(241,148,33)" transform="translate(0,0)"></path>
<path d="M 864.17 1167.94 C 876.852 1169.59 880.606 1180.27 878.519 1192.34 C 877.944 1195.66 870.346 1197.9 867.665 1198.74 C 848.287 1197.75 848.233 1177.07 862.653 1168.85 L 864.17 1167.94 z" fill="rgb(3,2,3)" transform="translate(0,0)"></path>
<path d="M 863.93 1171.65 L 865.252 1171.83 C 869.07 1172.3 872.552 1173.81 874.05 1177.42 C 878.983 1189.27 879.463 1191 869.649 1195.64 C 860.742 1194.79 856.703 1194.15 856.533 1182.61 C 856.464 1177.9 860.593 1174.59 863.93 1171.65 z" fill="rgb(9,43,87)" transform="translate(0,0)"></path>
<path d="M 837.045 1254.43 C 841.117 1257.47 838.348 1258.6 838.203 1264 C 837.887 1274.66 840.517 1284 849.629 1290.39 C 852.327 1292.28 856.885 1293.99 856.291 1297.15 C 836.372 1293.47 827.887 1270.97 837.045 1254.43 z" fill="rgb(254,254,253)" transform="translate(0,0)"></path>
<path d="M 841.955 994.129 C 846.633 993.925 852.057 994.052 856.8 994.042 C 874.576 1005.9 887.213 1012.44 906.184 1021.6 C 906.271 1059.97 899.525 1112.98 895.913 1151.75 L 895.153 1152.28 C 892.269 1146.09 895.095 1137.71 892.212 1130.75 C 880.798 1103.22 835.203 1102.95 824.215 1131.8 C 819.157 1145.08 821.188 1150.6 825.742 1162.62 C 822.337 1176.22 822.936 1183.05 823.074 1197.04 C 823.313 1214.43 824.098 1231.73 823.512 1249.12 C 823.243 1257.11 822.821 1265.19 823.925 1273.12 C 812.839 1269.72 798.361 1265.68 787.966 1261.34 C 791.994 1244.72 794.167 1222.72 797.699 1205.23 C 802.621 1180.86 811.176 1151.36 813.813 1127.15 C 816.934 1098.49 818.756 1068.86 822.337 1040.16 C 823.73 1029 824.847 1011.57 827.591 1001.42 C 833.057 996.79 834.981 995.743 841.955 994.129 z" fill="rgb(9,43,87)" transform="translate(0,0)"></path>
<path d="M 1196.71 1290.56 C 1194.18 1291.13 1195.31 1290.57 1193.32 1292.25 L 1195.11 1292.67 C 1193.42 1293.74 1191.69 1294.75 1189.94 1295.71 C 1175.63 1303.34 1156.24 1304.1 1140.57 1299.65 C 1101.34 1288.01 1092.62 1245.4 1103.16 1210.02 C 1116.31 1165.86 1165.85 1130.89 1212.09 1144.23 C 1225.09 1147.98 1240.81 1163.46 1233.5 1178.37 C 1231.1 1183.16 1226.84 1186.74 1221.71 1188.28 C 1218.24 1189.34 1210.03 1189.08 1208.07 1186.55 C 1189.58 1162.62 1167.82 1173.08 1154.65 1197.33 C 1148.88 1207.95 1145.38 1244.55 1167.54 1243.13 C 1188.3 1241.8 1201.72 1233.07 1212.88 1256.83 C 1214.57 1272.7 1213.9 1284.38 1196.71 1290.56 z" fill="rgb(247,162,33)" transform="translate(0,0)"></path>
<path d="M 1212.88 1256.83 C 1214.57 1272.7 1213.9 1284.38 1196.71 1290.56 C 1197.09 1287.68 1197.7 1286.32 1196.91 1283.59 C 1205.6 1279.57 1204.53 1277.07 1208.59 1268.86 C 1209.7 1264.3 1210.18 1263.2 1212.09 1258.72 L 1212.88 1256.83 z" fill="rgb(241,148,33)" transform="translate(0,0)"></path>
<path d="M 1196.91 1283.59 C 1195.32 1278.36 1202.7 1275.29 1204.14 1269.02 C 1205.97 1261.12 1200.74 1258.3 1197.93 1252.51 C 1195.06 1246.55 1204.08 1248.94 1204.54 1253.84 C 1207.3 1260.81 1207.68 1261.42 1208.59 1268.86 C 1204.53 1277.07 1205.6 1279.57 1196.91 1283.59 z" fill="rgb(254,254,253)" transform="translate(0,0)"></path>
<path d="M 768.679 1272.02 C 787.943 1277.67 807.791 1282.38 827.298 1287.22 C 839.336 1306.2 858.148 1308.06 876.447 1296.05 C 923.423 1307.53 982.738 1323.97 1013.58 1363.24 C 1018.65 1369.7 1034.39 1384.79 1021.95 1390.97 C 1018.02 1392.75 1004.25 1398.72 1000.58 1397.51 C 993.808 1383.52 971.583 1377.35 957.702 1372.23 L 914.032 1356.21 L 759.115 1299.86 L 761.752 1297.29 C 796.588 1306.27 830.507 1316.9 865.261 1326.03 C 897.402 1334.47 929.782 1345.22 959.754 1359.63 C 967.682 1363.45 975.566 1369.74 983.767 1372.63 C 975.778 1352.74 858.254 1320.7 834.344 1314.74 C 808.908 1308.4 775.817 1295.76 749.847 1292.32 L 761.652 1285 C 788.953 1291.87 814.622 1300.01 841.555 1307.51 C 878.82 1317.9 916.958 1326.44 952.843 1341.47 C 966.695 1347.25 979.805 1354.66 991.893 1363.56 C 995.343 1366.11 1008.43 1378.25 1009.1 1378.43 L 1009.68 1376.98 C 1006.75 1370.88 995.769 1362.46 989.989 1358.57 C 948.249 1330.48 895.821 1319.01 847.912 1306.19 C 819.711 1298.64 792.611 1289.65 764.662 1282.66 C 765.95 1279.37 767.68 1275.33 768.679 1272.02 z" fill="rgb(254,254,253)" transform="translate(0,0)"></path>
<path d="M 1029.12 1389.48 C 1044.53 1340.15 1110.86 1309.41 1158.39 1305.59 C 1164.15 1304.61 1173.98 1304.9 1179.38 1302.84 C 1213.5 1289.83 1249.86 1282.14 1285.24 1273.09 C 1287.17 1276.18 1289.66 1279.28 1291.89 1282.21 C 1266.56 1288.76 1237.47 1297.81 1212.32 1304.38 C 1175.1 1314.09 1064.51 1341.44 1047.76 1377.02 L 1048.45 1377.88 C 1053.7 1374.78 1057.83 1368.85 1062.57 1365.16 C 1101.39 1335.02 1160.17 1321.78 1206.52 1309.25 C 1235.96 1301.3 1265.3 1293.02 1294.55 1284.4 L 1303.76 1291.67 C 1281.27 1297.51 1255.38 1304.31 1233.35 1310.75 C 1186.35 1324.47 1099.16 1343.9 1064.24 1377.46 C 1064.49 1377.37 1064.74 1377.28 1064.99 1377.19 C 1084.49 1367.57 1099.56 1355.78 1120.56 1348.33 C 1180.11 1327.21 1241.92 1311.23 1303.03 1295.14 L 1304.84 1296.72 C 1293.72 1300.41 1282.97 1305.09 1271.89 1308.78 C 1207.11 1330.4 1143.49 1355.59 1079.57 1379.59 C 1066.25 1384.59 1062.2 1388.71 1057.16 1401.53 C 1045.82 1394.28 1042.26 1392.89 1029.12 1389.48 z" fill="rgb(254,254,253)" transform="translate(0,0)"></path>
<path d="M 900.31 1136.08 C 925.833 1135.82 950.253 1137.6 976.558 1136.63 C 982.555 1162.17 983.436 1187.43 972.428 1212.33 C 967.354 1223.81 962.615 1226.95 960.672 1240.68 L 958.817 1243.29 C 955.583 1232.56 945.457 1221.88 937.627 1213.98 C 920.823 1197.03 909.528 1178.64 897.678 1158.13 L 900.31 1136.08 z" fill="url(#Gradient2)" transform="translate(0,0)"></path>
<path d="M 997.948 1805.05 C 998.843 1812.16 998.293 1822.56 998.139 1829.98 C 988.67 1841.23 973.953 1851.87 961.523 1859.86 C 917.709 1888.02 858.383 1906.02 806.332 1895.23 C 790.006 1891.85 773.683 1884.17 764.497 1869.73 C 762.236 1860.42 762.989 1854.58 763.897 1845.25 C 788.164 1872.2 816.48 1877.32 852.006 1875.19 C 906.463 1871.92 961.486 1845.77 997.948 1805.05 z" fill="rgb(239,187,179)" transform="translate(0,0)"></path>
<path d="M 1056.98 1805.94 C 1060.67 1810.13 1064.58 1814.12 1068.7 1817.89 C 1110 1855.32 1168.59 1878.34 1224.63 1875.48 C 1251.82 1874.09 1272.57 1866.59 1290.71 1846.16 C 1291.8 1855.02 1292.27 1859.14 1291.96 1867.96 C 1272.61 1900.41 1219.32 1900.96 1186.86 1895.87 C 1147.69 1889.72 1108.28 1872.49 1076.66 1848.59 C 1070.26 1843.76 1061.82 1836.98 1057.07 1830.58 C 1056.54 1822.88 1056.88 1813.76 1056.98 1805.94 z" fill="rgb(239,187,179)" transform="translate(0,0)"></path>
<path d="M 1068.23 1136.86 C 1096.02 1136.55 1123.1 1135.44 1151 1136.52 L 1151.9 1147.4 C 1125.88 1161.62 1106.71 1185.76 1098.74 1214.32 C 1095.77 1224.88 1095.33 1234.72 1095.83 1245.63 C 1094.99 1242.09 1094.83 1241.11 1093.19 1237.75 C 1090.37 1235.48 1089.21 1235.73 1085.61 1235.48 C 1090.25 1213.86 1084.45 1190.14 1068.71 1174.84 C 1064.89 1171.12 1049.56 1162.67 1050.45 1157.82 C 1058.48 1150.29 1063.82 1146.87 1068.23 1136.86 z" fill="url(#Gradient1)" transform="translate(0,0)"></path>
<path d="M 780.458 1311.23 L 916.127 1360.13 C 931.152 1365.55 976.381 1380.88 986.572 1387.72 C 983.757 1391.43 982.251 1394.58 979.855 1398.36 C 973.032 1393.62 927.369 1377.74 916.514 1373.72 C 865.69 1354.88 814.362 1337.44 764.033 1317.15 L 780.458 1311.23 z" fill="rgb(200,143,147)" transform="translate(0,0)"></path>
<path d="M 1276.14 1311.1 C 1280.59 1314.28 1283 1316.07 1287.99 1318.54 C 1262.52 1328.8 1236.92 1337.21 1211.38 1346.98 C 1172.3 1361.92 1132.83 1375.47 1093.84 1390.63 C 1088.72 1392.62 1081.91 1395.14 1077.44 1398.11 C 1076.16 1394.57 1074.97 1391.8 1071.53 1390.34 C 1073.28 1388.96 1074.7 1388.86 1073.55 1386.36 C 1080.67 1381.67 1115.41 1369.36 1125.8 1365.44 C 1161.14 1352.1 1197.02 1338.99 1232.5 1325.96 C 1246.84 1320.69 1262.01 1316.3 1276.14 1311.1 z" fill="rgb(200,143,147)" transform="translate(0,0)"></path>
<path d="M 605.949 1394.24 C 625.798 1403.79 644.184 1415.87 666.114 1421.66 C 665.75 1441.27 667.286 1446.75 671.737 1465.12 C 654.805 1460.53 626.348 1450.14 610.657 1441.79 L 609.251 1441.06 L 609.049 1440.3 C 604.936 1425.31 603.882 1409.64 605.949 1394.24 z" fill="rgb(219,62,87)" transform="translate(0,0)"></path>
<path d="M 624.688 1348.59 C 642.287 1361.17 656.309 1372.42 675.724 1382.16 C 670.815 1392.6 667.65 1402.92 666.938 1414.54 C 666.642 1419.35 664.311 1418.09 660.775 1416.93 C 639.934 1409.94 625.201 1400.68 606.276 1390.63 C 611.631 1372.38 614.922 1364.93 624.688 1348.59 z" fill="rgb(219,62,87)" transform="translate(0,0)"></path>
<path d="M 1388.68 1310.63 C 1404.74 1321.64 1414.01 1330.92 1425.97 1345.94 C 1416.07 1353.8 1395.54 1368.76 1384.99 1374.86 C 1381.81 1376.86 1378.65 1378.17 1375.31 1379.83 C 1367.7 1366.59 1362.86 1360.32 1352.2 1349.44 C 1364.66 1336.88 1375.38 1323.74 1388.68 1310.63 z" fill="rgb(219,62,87)" transform="translate(0,0)"></path>
<path d="M 1426.62 1349.78 C 1432.99 1351.74 1442.11 1380.09 1443.84 1387.02 L 1444.91 1391.34 C 1431.18 1399.23 1409.4 1410.66 1394.75 1416.52 C 1382.7 1421.77 1386.68 1421.16 1384.23 1408.99 C 1382.63 1401.07 1381.18 1393 1377.8 1385.58 L 1376.49 1382.79 C 1395.7 1373.78 1409.31 1361.8 1426.62 1349.78 z" fill="rgb(219,62,87)" transform="translate(0,0)"></path>
<path d="M 1443.01 1395.85 C 1448.21 1396.42 1446.32 1420.89 1445.6 1425 L 1445.23 1427.01 C 1444.12 1433.33 1442.96 1436.97 1440.28 1442.73 C 1424.06 1451.88 1402.32 1459.16 1384.16 1463.35 C 1382.99 1463.26 1381.56 1463.5 1380.87 1462.37 C 1380.79 1460.85 1382.27 1457 1382.71 1455.42 C 1385.58 1445.04 1386 1434.77 1385.95 1423.95 C 1403.82 1416.18 1426.03 1405.54 1443.01 1395.85 z" fill="rgb(219,62,87)" transform="translate(0,0)"></path>
<path d="M 662.862 1310.78 C 668.93 1315.26 692.625 1342.29 699.021 1349.62 C 689.358 1360.53 684.233 1366.81 677.265 1379.85 C 673.984 1378.01 670.675 1376.21 667.339 1374.47 C 655.174 1367.39 638.06 1354.41 626.581 1345.56 C 639.34 1329.44 645.607 1322.46 662.862 1310.78 z" fill="rgb(219,62,87)" transform="translate(0,0)"></path>
<path d="M 977.43 1638.52 C 1004.77 1664.75 1052.84 1665.68 1080.78 1639.87 C 1080.96 1648.22 1081.5 1654.52 1078.53 1662.48 C 1058.01 1689.4 1005.08 1686.28 980.382 1664.71 C 977.726 1655.15 977.719 1648.37 977.43 1638.52 z" fill="rgb(247,162,33)" transform="translate(0,0)"></path>
<path d="M 1097.77 1740.18 C 1112.83 1742.73 1127.74 1743.35 1142.97 1743.69 C 1142.92 1759.09 1142.59 1774.61 1142.71 1790.02 C 1142.72 1790.67 1141.31 1791.03 1141.04 1791.13 C 1129.85 1790.92 1121.07 1790.15 1109.99 1788.23 C 1104.67 1787.32 1099.37 1786.24 1094.12 1784.98 C 1095.67 1770.16 1095.33 1754.99 1097.77 1740.18 z" fill="rgb(239,187,179)" transform="translate(0,0)"></path>
<path d="M 864.758 1739.73 C 883.008 1742.04 891.632 1742.85 909.882 1743.18 C 909.649 1751.44 910.364 1785.45 908.899 1791.1 C 893.216 1790.73 878.128 1788.6 862.882 1784.96 C 861.744 1768.85 861.493 1755.8 864.758 1739.73 z" fill="rgb(239,187,179)" transform="translate(0,0)"></path>
<path d="M 955.381 1740.46 C 959.521 1740.36 960.82 1780.11 961.033 1785.07 C 947.18 1788.18 933.855 1790.36 919.656 1791.17 C 919.109 1791.14 913.653 1791.19 913.575 1790.54 C 911.979 1777.17 912.765 1756.23 912.775 1743.19 C 930.188 1742.87 938.108 1742.36 955.381 1740.46 z" fill="rgb(239,187,179)" transform="translate(0,0)"></path>
<path d="M 1187.39 1740.41 C 1189.71 1739.88 1190.72 1739.9 1191.14 1742.44 C 1193.46 1756.57 1193.43 1770.98 1192.96 1785.25 L 1185.99 1786.78 C 1174.98 1789.12 1164.14 1790.18 1152.96 1791.12 C 1152.52 1791.11 1146.48 1791.22 1146.43 1790.49 C 1145.57 1776.42 1146.09 1757.6 1146.09 1743.65 C 1162.25 1742.93 1171.24 1742.35 1187.39 1740.41 z" fill="rgb(239,187,179)" transform="translate(0,0)"></path>
<path d="M 1061.91 1397.94 C 1065.31 1391.24 1066.52 1389.71 1073.55 1386.36 C 1074.7 1388.86 1073.28 1388.96 1071.53 1390.34 C 1074.97 1391.8 1076.16 1394.57 1077.44 1398.11 C 1097.13 1428.69 1031.71 1442.87 1011.05 1435.26 C 997.858 1430.4 967.824 1420.42 979.741 1400.56 L 979.855 1398.36 C 982.251 1394.58 983.757 1391.43 986.572 1387.72 C 997.951 1395.84 996.155 1392.94 995.874 1406.09 C 997.423 1408.04 998.955 1412.87 1000.56 1414.73 C 1011.96 1427.99 1039.72 1426.88 1052.99 1417.24 C 1060.93 1411.47 1060.98 1406.41 1061.91 1397.94 z" fill="rgb(247,162,33)" transform="translate(0,0)"></path>
<path d="M 986.572 1387.72 C 997.951 1395.84 996.155 1392.94 995.874 1406.09 C 994.93 1404.91 992.726 1400.73 992.731 1400.73 C 989.261 1399.17 983.716 1403.67 979.741 1400.56 L 979.855 1398.36 C 982.251 1394.58 983.757 1391.43 986.572 1387.72 z" fill="rgb(252,177,45)" transform="translate(0,0)"></path>
<path d="M 1061.91 1397.94 C 1065.31 1391.24 1066.52 1389.71 1073.55 1386.36 C 1074.7 1388.86 1073.28 1388.96 1071.53 1390.34 C 1074.97 1391.8 1076.16 1394.57 1077.44 1398.11 C 1072.84 1399.33 1066.27 1400.21 1061.91 1397.94 z" fill="rgb(236,179,136)" transform="translate(0,0)"></path>
<path d="M 977.726 1418.79 C 979.647 1420.99 981.716 1423.07 983.918 1424.99 C 1010.73 1448.51 1058.4 1444.89 1081.96 1418.26 L 1080.28 1436.78 C 1074.42 1452.86 1045 1458.97 1029.43 1459.23 C 1014.18 1459.49 993.914 1454.42 982.484 1443.87 C 976.308 1438.16 977.531 1426.54 977.726 1418.79 z" fill="rgb(247,162,33)" transform="translate(0,0)"></path>
<path d="M 1002.12 1726.05 C 1005.38 1729.18 1004.53 1759.55 1001.5 1764.17 C 993.498 1776.36 976.722 1780.39 963.921 1784.51 C 963.137 1768.92 961.682 1754.85 960.683 1739.55 C 974.922 1736.49 988.807 1731.97 1002.12 1726.05 z" fill="rgb(239,187,179)" transform="translate(0,0)"></path>
<path d="M 1051.94 1725.4 C 1067.9 1732.61 1077.16 1736.43 1095.04 1739.58 C 1092.69 1751.62 1091.55 1769.42 1090.83 1781.97 C 1088.76 1787.83 1057.11 1771.95 1053.94 1765.51 C 1049.08 1755.61 1050.91 1735.47 1051.94 1725.4 z" fill="rgb(239,187,179)" transform="translate(0,0)"></path>
<path d="M 1234.2 1725.95 C 1235.81 1726.86 1235.52 1726.84 1235.65 1728.95 C 1237.99 1769.56 1232.06 1771.69 1196.19 1784.27 C 1197.48 1769.14 1196.3 1754.48 1193.6 1739.56 C 1206.26 1736.51 1222.69 1731.78 1234.2 1725.95 z" fill="rgb(239,187,179)" transform="translate(0,0)"></path>
<path d="M 1078.09 1619.7 L 1079.63 1620.65 C 1080.55 1622.19 1080.92 1622.89 1081.07 1624.72 C 1082.98 1647.54 1050.14 1654.19 1033.48 1654.93 C 1014.15 1655.78 996.116 1651.08 981.896 1638.14 C 978.087 1633.44 975.318 1627.43 978.436 1621.59 C 985.275 1619.95 990.591 1629.54 997.227 1632.27 C 1027.15 1644.62 1054.13 1641.71 1078.09 1619.7 z" fill="rgb(247,162,33)" transform="translate(0,0)"></path>
<path d="M 820.014 1726.41 C 834.346 1732.59 847.006 1735.67 861.958 1739.67 C 858.461 1756.06 858.362 1764.58 858.937 1781.12 C 858.586 1783.29 857.801 1783.79 855.552 1783.15 C 817.766 1772.27 819.68 1760.98 820.014 1726.41 z" fill="rgb(239,187,179)" transform="translate(0,0)"></path>
<path d="M 853.855 1113.16 C 854.737 1113.12 855.619 1113.09 856.501 1113.07 C 866.2 1112.88 875.244 1115.51 882.149 1122.45 C 892.07 1132.43 891.293 1139.8 891.35 1152.52 C 878.402 1142.01 874.897 1138.29 857.195 1136.85 C 840.304 1139.85 837.201 1143.76 828.423 1158.13 C 820.231 1135.37 830.241 1118.42 853.855 1113.16 z" fill="rgb(254,254,253)" transform="translate(0,0)"></path>
<path d="M 1195.34 1113.16 C 1220.7 1110.44 1240.25 1126.21 1234.49 1152.48 C 1233.67 1156.23 1221.71 1145.63 1218.16 1143.59 C 1200.31 1136.14 1188.48 1137.24 1169.97 1140.66 C 1173.92 1124.74 1179.23 1118.78 1195.34 1113.16 z" fill="rgb(254,254,253)" transform="translate(0,0)"></path>
<path d="M 713.771 1297.62 C 729.609 1308.16 729.862 1307.16 746.742 1315.05 C 746.136 1321.05 747.279 1347.88 744.78 1350.34 C 732.284 1346.06 719.606 1343.39 709.885 1334.8 C 709.97 1319.32 710.293 1312.53 713.771 1297.62 z" fill="rgb(247,162,33)" transform="translate(0,0)"></path>
<path d="M 1341.27 1299.14 C 1345.04 1301.98 1344.4 1330.1 1344.38 1335.76 C 1331.35 1342.89 1325.3 1345.93 1310.85 1351.01 C 1310.79 1351 1309.36 1350.86 1309.36 1350.66 C 1309.23 1337.3 1310.81 1326.44 1308.58 1313.76 C 1323.42 1308.11 1327.26 1307.22 1341.27 1299.14 z" fill="rgb(241,148,33)" transform="translate(0,0)"></path>
<path d="M 610.663 1445.49 C 616.014 1446.99 622.162 1450.24 627.379 1452.53 C 642.82 1459.28 656.987 1464.99 673.503 1468.51 C 679.259 1481.08 680.747 1484.18 689.88 1494.42 C 656.911 1490.97 626.157 1476.06 610.663 1445.49 z" fill="rgb(219,62,87)" transform="translate(0,0)"></path>
<path d="M 702.647 1295.21 C 711.733 1294.47 711.721 1294.33 709.823 1302 C 706.91 1314.53 707.134 1327.3 707.108 1340.01 C 707.102 1342.81 703.833 1345.98 701.978 1346.15 C 699.722 1346.37 691.808 1336.37 690.325 1334.78 C 682.737 1326.62 675.32 1318.31 668.082 1309.84 L 666.841 1308.39 C 679.068 1301.95 688.849 1297.69 702.647 1295.21 z" fill="rgb(219,62,87)" transform="translate(0,0)"></path>
<path d="M 719.838 1533.39 C 728.944 1536.97 740.465 1541.22 749.179 1545.16 L 750.594 1545.76 C 752.805 1558.51 754.67 1575.41 755.288 1588.29 C 717.351 1575.71 724.101 1570.19 719.838 1533.39 z" fill="rgb(247,162,33)" transform="translate(0,0)"></path>
<path d="M 1436.98 1448.33 C 1438.03 1450.34 1436.16 1452.74 1435 1454.51 C 1419.15 1478.68 1391.72 1490.09 1364.07 1493.49 C 1363.46 1492.96 1363.13 1492.57 1363.74 1491.9 C 1370.34 1484.59 1375.22 1476.08 1378.9 1466.97 C 1401.94 1463.67 1415.64 1457.63 1436.98 1448.33 z" fill="rgb(219,62,87)" transform="translate(0,0)"></path>
<path d="M 1327.17 1535.87 C 1327.64 1536.03 1328.69 1536.32 1328.65 1537 C 1327.72 1552.44 1329.52 1570.79 1314.83 1580.45 C 1307.42 1585.33 1303.18 1585.74 1295.68 1588.33 C 1293.15 1588.19 1294.6 1585.28 1294.9 1583 C 1296.43 1571.08 1297.58 1559.14 1299.85 1547.32 C 1309.94 1543.2 1316.95 1541.1 1327.17 1535.87 z" fill="rgb(247,162,33)" transform="translate(0,0)"></path>
<path d="M 1023.97 1394.1 C 1047.51 1392.96 1078.01 1412.19 1032.23 1420.72 C 1020.75 1421.92 1000.02 1419.62 1000.29 1403.55 C 1000.31 1402.16 1021.64 1394.88 1023.97 1394.1 z" fill="rgb(123,89,116)" transform="translate(0,0)"></path>
<path d="M 764.773 1305.96 C 768.279 1307.37 772 1308.68 775.556 1310.04 C 769.643 1312.98 765.455 1314.99 759.301 1317.28 C 758.402 1332.56 759.848 1350.75 757.855 1365.44 C 756.82 1373.07 719.475 1357.4 715.251 1355.17 C 709.593 1351.07 708.723 1348.96 709.723 1341.47 C 709.815 1340.78 710.072 1340.27 710.632 1339.87 C 711.457 1340.17 712.213 1340.45 712.974 1340.9 C 725.941 1348.54 736.595 1348.93 749.59 1357.07 C 750.383 1343.22 749.729 1328.86 749.975 1314.91 C 755.87 1309.67 757.223 1308.66 764.773 1305.96 z" fill="rgb(247,162,33)" transform="translate(0,0)"></path>
<path d="M 1344.84 1295.46 C 1362.2 1297.65 1370.16 1300.95 1385.89 1308.65 C 1378.49 1315.92 1373.05 1321.87 1366.11 1329.39 C 1361.17 1334.68 1356.14 1341.34 1350.57 1345.85 C 1349.54 1346.68 1346.94 1344.19 1346.96 1342.57 C 1347.01 1338.84 1347.84 1335.55 1347.98 1331.73 C 1348.46 1319.1 1347.69 1307.79 1344.84 1295.46 z" fill="rgb(219,62,87)" transform="translate(0,0)"></path>
<path d="M 1328.97 1520.05 C 1331.23 1522.56 1329.24 1528.98 1328.72 1532.22 C 1318.54 1537.23 1307.85 1540.76 1297.28 1544.88 C 1293.89 1560.27 1292.89 1575.63 1290.67 1591.17 C 1286.9 1592.67 1284.32 1593.83 1280.38 1594.93 C 1276.35 1590.26 1283.98 1545.94 1285.68 1538.39 C 1302.01 1530.95 1311.16 1530 1328.97 1520.05 z" fill="rgb(241,148,33)" transform="translate(0,0)"></path>
<path d="M 1292.07 1305.03 C 1295.11 1304.93 1302.16 1311.41 1303.11 1312.89 C 1309.07 1322.22 1305.37 1344.94 1305.39 1356.06 C 1312.32 1353.92 1339.56 1341.46 1342.29 1341.05 C 1344.1 1342.08 1343.14 1348.41 1342.94 1350.04 C 1342.65 1352.48 1338.38 1354.88 1336.62 1356.05 L 1335.91 1356.4 C 1280.79 1384.6 1301.44 1356.09 1297.34 1323 L 1296.77 1318.79 C 1290.57 1315.55 1285.53 1313.57 1279.02 1309.96 C 1283.31 1308.16 1287.67 1306.52 1292.07 1305.03 z" fill="rgb(241,148,33)" transform="translate(0,0)"></path>
<path d="M 885.88 1283.53 C 889.573 1263.77 884.147 1257.25 874.088 1240.01 C 868.246 1224.15 899.886 1217.3 896.025 1238.91 C 893.933 1250.61 899.971 1261.99 904.249 1272.68 C 902.219 1276.11 907.372 1276.07 907.367 1278.07 C 907.36 1280.74 894.96 1287.63 892.638 1286.3 C 892.301 1285.3 895.193 1284.36 895.47 1283.06 C 895.187 1282.22 887.796 1283.51 885.88 1283.53 z" fill="rgb(84,73,63)" transform="translate(0,0)"></path>
<path d="M 718.853 1519.11 C 735.821 1526.07 745.372 1530.88 763.624 1537.13 C 765.696 1552.37 767.424 1578.83 772.64 1592.21 C 759.341 1592.93 758.103 1590.77 757.817 1578.5 C 757.719 1574.29 756.613 1567.84 756.109 1563.5 L 754.88 1552 C 753.54 1539.5 748.319 1542.5 738.061 1537.67 C 721.197 1529.72 719.179 1536.47 718.853 1519.11 z" fill="rgb(247,162,33)" transform="translate(0,0)"></path>
<path d="M 759.34 1273.07 C 775.062 1271.93 755.757 1286.88 749.523 1289.05 C 740.827 1292.08 740.525 1290.5 731.448 1290.68 L 734.904 1292.79 C 743.214 1297.98 752.393 1301.05 761.649 1304.16 C 755.183 1306.8 753.939 1307.64 748.352 1311.95 C 693.467 1289.82 716.163 1286.11 759.34 1273.07 z" fill="rgb(247,162,33)" transform="translate(0,0)"></path>
<path d="M 1288.91 1272.06 C 1301.75 1273.27 1331.01 1282.71 1340.03 1292.59 C 1344.16 1297.11 1320.8 1305.94 1317.74 1307.22 C 1313.89 1308.62 1310.18 1309.85 1306.35 1311.35 C 1303.12 1308.65 1299.86 1306.05 1296.64 1303.33 C 1299.78 1302.17 1321.28 1296.18 1319.24 1293.37 C 1316.28 1289.29 1308.96 1291.49 1305.27 1288.73 C 1299.19 1284.19 1291.22 1279.77 1288.91 1272.06 z" fill="rgb(247,162,33)" transform="translate(0,0)"></path>
<path d="M 1265.12 1267.08 C 1268.75 1267.49 1270.92 1273.31 1262.55 1275.26 C 1244.56 1279.46 1226.61 1285.56 1208.57 1289.89 C 1207.92 1289.95 1207.25 1290.13 1206.72 1289.75 C 1205.97 1287.39 1216.27 1282.6 1218.49 1281.92 C 1234.08 1277.13 1249.46 1271.66 1265.12 1267.08 z" fill="rgb(254,254,253)" transform="translate(0,0)"></path>
<path d="M 787.055 1265.1 C 799.258 1268.98 811.395 1272.83 823.479 1277.06 C 825.177 1277.66 826.129 1281.9 826.771 1283.51 C 818.621 1282.5 805.719 1278.58 797.403 1276.36 L 795.504 1275.87 L 793.802 1275.41 C 786.227 1273.42 788.155 1273.09 787.055 1265.1 z" fill="rgb(254,254,253)" transform="translate(0,0)"></path>
<path d="M 1185.2 1180.1 C 1179.03 1175.4 1184.64 1176.34 1189.15 1175.87 C 1197.77 1179.23 1198.83 1180.82 1205.69 1187.05 C 1195.38 1185.37 1194.32 1185.49 1185.2 1180.1 z" fill="rgb(254,254,253)" transform="translate(0,0)"></path>
<path d="M 759.115 1299.86 C 752.316 1297.82 750.582 1297.25 744.373 1293.88 C 749.224 1294.84 755.043 1296.42 759.819 1297.02 L 761.752 1297.29 L 759.115 1299.86 z" fill="rgb(244,218,209)" transform="translate(0,0)"></path>
<path d="M 960.672 1240.68 C 960.829 1243.49 961.022 1246.3 961.249 1249.11 L 959.012 1250.93 C 958.959 1248.36 958.941 1245.86 958.817 1243.29 L 960.672 1240.68 z" fill="rgb(84,73,63)" transform="translate(0,0)"></path>
<path d="M 1308.12 1292.94 C 1309.26 1293.57 1310.92 1294.23 1312.16 1294.76 C 1309.72 1295.4 1307.28 1296.05 1304.84 1296.72 L 1303.03 1295.14 L 1308.12 1292.94 z" fill="rgb(244,218,209)" transform="translate(0,0)"></path>
<path d="M 1308.12 1292.94 C 1309.49 1292.94 1311.97 1292.75 1313.19 1293.23 L 1313.37 1293.5 C 1313.25 1294.11 1312.61 1294.39 1312.16 1294.76 C 1310.92 1294.23 1309.26 1293.57 1308.12 1292.94 z" fill="rgb(112,108,99)" transform="translate(0,0)"></path>
<path d="M 1379.14 899.619 C 1389.32 909.089 1374.18 949.232 1424.98 983.745 L 1423.95 984.051 C 1400.88 991.209 1384.7 1009.72 1375.2 1031.31 C 1372.23 1038.07 1369.92 1045.84 1366.4 1052.14 C 1363.73 1049.96 1360.27 1026.91 1357.69 1019.5 C 1354.93 1011.6 1351.14 1004.1 1346.41 997.2 C 1338.49 985.749 1331.48 980.676 1320.61 972.464 C 1345.01 957.905 1361.27 949.855 1371.2 921.109 C 1373.35 914.891 1376.44 905.374 1379.14 899.619 z" fill="rgb(3,2,3)" transform="translate(0,0)"></path>
<path d="M 1379.24 907.53 C 1384.14 942.634 1388.81 960.817 1418.18 982.776 C 1394.2 993.281 1378.9 1011.91 1369.93 1036.33 C 1367.3 1042.58 1366.8 1046.48 1364.97 1036.7 C 1359.33 1006.81 1349.24 990.5 1325.61 972.618 C 1333.19 969.486 1337.99 966.357 1344.68 961.786 C 1361.21 948.894 1366.52 941.002 1374.74 922.142 L 1379.24 907.53 z" fill="rgb(247,162,33)" transform="translate(0,0)"></path>
<path d="M 1374.74 922.142 C 1379.06 925.522 1377.98 929.463 1376.55 934.312 C 1374.11 932.47 1369.9 941.781 1369.39 943.394 C 1366.01 954.077 1348.87 961.834 1345.13 968.289 C 1345.1 965.815 1344.95 964.245 1344.68 961.786 C 1361.21 948.894 1366.52 941.002 1374.74 922.142 z" fill="rgb(252,177,45)" transform="translate(0,0)"></path>
<path d="M 1345.13 968.289 C 1348.87 961.834 1366.01 954.077 1369.39 943.394 C 1369.9 941.781 1374.11 932.47 1376.55 934.312 C 1373.32 946.746 1358.84 967.237 1345.13 968.289 z" fill="rgb(254,254,253)" transform="translate(0,0)"></path>
<path d="M 1364.97 1036.7 L 1369.93 1036.33 C 1367.3 1042.58 1366.8 1046.48 1364.97 1036.7 z" fill="rgb(241,148,33)" transform="translate(0,0)"></path>
<path d="M 674.447 900.335 C 682.626 905.148 681.234 949.321 734.691 972.658 C 701.272 996.726 698.023 1011.06 690.256 1049.8 C 690.059 1049.91 688.101 1051.1 687.53 1050.36 C 684.189 1046.01 677.905 1026.45 676.016 1022.89 C 664.923 1001.95 651.878 993.93 631.821 983.364 C 665.939 955.686 668.298 944.111 674.447 900.335 z" fill="rgb(3,2,3)" transform="translate(0,0)"></path>
<path d="M 676.371 911.264 L 677.07 913.347 C 687.361 943.643 700.77 959.352 728.938 973.227 L 727.682 974.076 C 700.537 992.562 694.16 1014.23 688.435 1044.35 C 686.99 1044.64 680.084 1024.77 677.976 1020.97 C 666.518 1000.33 657.431 993.438 637.202 982.918 C 665.842 960.38 669.378 946.956 676.371 911.264 z" fill="rgb(247,162,33)" transform="translate(0,0)"></path>
<path d="M 676.689 935.421 C 676.762 935.491 678.341 936.879 678.425 937.385 C 681.199 954.099 669.989 974.826 654.563 980.878 C 653.455 979.052 652.508 978.431 654.742 977.355 C 664.006 972.895 670.239 964.176 673.196 954.522 C 675.184 948.03 675.435 941.962 676.689 935.421 z" fill="rgb(254,254,253)" transform="translate(0,0)"></path>
<path d="M 661.688 678.238 C 671.375 685.446 655.694 694.758 687.911 703.969 C 665.147 710.9 670.264 709.498 663.52 729.451 C 661.111 728.031 660.333 726.41 660.054 723.507 C 659.355 716.257 656.879 713.401 652.048 708.017 C 647.452 706.405 642.217 704.94 637.496 703.526 C 638.533 703.333 639.57 703.146 640.609 702.965 C 657.52 700.183 658.833 694.35 661.688 678.238 z" fill="rgb(3,2,3)" transform="translate(0,0)"></path>
<path d="M 662.652 689.781 C 666.204 694.005 666.555 699.563 673.265 701.6 C 675.327 702.225 679.076 703.946 674.875 705.317 C 668.426 707.422 666.28 711.846 663.206 717.35 C 660.593 718.493 661.279 713.624 659.686 711.582 C 656.894 708.003 653.689 706.081 650.13 703.35 C 657.938 697.781 658.046 700.113 662.652 689.781 z" fill="rgb(252,177,45)" transform="translate(0,0)"></path>
<path d="M 1401.84 678.459 C 1410.77 685.957 1394.77 696.362 1428.65 703.549 C 1418.24 706.851 1407.92 708.093 1405.1 720.498 C 1404.46 723.223 1403.87 725.959 1403.34 728.705 C 1399.14 728.127 1399.16 718.689 1398.72 715.027 C 1388.78 704.974 1389.26 707.477 1375.88 704.285 C 1399.85 696.551 1394.32 701.847 1401.84 678.459 z" fill="rgb(3,2,3)" transform="translate(0,0)"></path>
<path d="M 1402.49 689.34 C 1408.73 700.387 1403.76 695.638 1415.84 703.62 L 1415.88 703.981 C 1415.6 704.629 1415 705.03 1414.37 705.325 C 1408.11 708.263 1405.94 712.421 1402.61 718.267 C 1400.06 715.719 1398.86 708.109 1392.75 705.904 C 1392.48 705.808 1389.35 704.106 1389.84 703.328 L 1390.18 703.464 L 1390.71 702.813 C 1395.83 700.89 1398.88 697.488 1401.1 692.508 L 1402.49 689.34 z" fill="rgb(252,177,45)" transform="translate(0,0)"></path>
<path d="M 1453.21 1098.47 C 1460.29 1096.78 1467.41 1101.13 1469.15 1108.2 C 1470.89 1115.27 1466.6 1122.42 1459.54 1124.21 C 1452.41 1126.02 1445.17 1121.67 1443.41 1114.53 C 1441.65 1107.38 1446.05 1100.17 1453.21 1098.47 z" fill="rgb(3,2,3)" transform="translate(0,0)"></path>
<path d="M 1452.84 1101.56 C 1456.37 1100.3 1460.3 1101.03 1463.14 1103.48 C 1465.97 1105.93 1467.27 1109.71 1466.53 1113.38 C 1465.79 1117.05 1463.13 1120.04 1459.57 1121.21 C 1454.18 1122.97 1448.36 1120.07 1446.53 1114.7 C 1444.69 1109.33 1447.5 1103.48 1452.84 1101.56 z" fill="rgb(247,162,33)" transform="translate(0,0)"></path>
<path d="M 599.331 1098.48 C 606.356 1096.54 613.627 1100.64 615.599 1107.66 C 617.571 1114.68 613.502 1121.97 606.496 1123.97 C 599.442 1125.99 592.092 1121.89 590.107 1114.83 C 588.121 1107.76 592.259 1100.43 599.331 1098.48 z" fill="rgb(3,2,3)" transform="translate(0,0)"></path>
<path d="M 599.51 1101.5 C 604.85 1099.57 610.74 1102.34 612.661 1107.69 C 614.581 1113.03 611.802 1118.92 606.457 1120.83 C 601.122 1122.74 595.249 1119.96 593.333 1114.63 C 591.417 1109.3 594.181 1103.42 599.51 1101.5 z" fill="rgb(247,162,33)" transform="translate(0,0)"></path>
<path d="M 1435.16 979.785 C 1447.06 981.46 1447.46 989.061 1439.16 996.241 C 1427.25 992.772 1423.51 987.187 1435.16 979.785 z" fill="rgb(252,177,45)" transform="translate(0,0)"></path>
<path d="M 610.614 863.711 C 614.028 861.637 618.475 862.686 620.602 866.067 C 622.729 869.448 621.749 873.911 618.402 876.09 C 616.189 877.531 613.372 877.667 611.031 876.447 C 608.69 875.227 607.188 872.84 607.101 870.201 C 607.015 867.562 608.358 865.082 610.614 863.711 z" fill="rgb(247,162,33)" transform="translate(0,0)"></path>
<path d="M 618.228 980.397 C 622.147 980.148 625.546 983.076 625.881 986.989 C 626.215 990.902 623.362 994.364 619.457 994.784 C 616.855 995.064 614.305 993.913 612.792 991.777 C 611.279 989.641 611.041 986.853 612.169 984.491 C 613.297 982.129 615.616 980.563 618.228 980.397 z" fill="rgb(247,162,33)" transform="translate(0,0)"></path>
<path d="M 1445.49 863.576 C 1448.98 862.094 1453.02 863.564 1454.73 866.938 C 1456.45 870.313 1455.26 874.441 1452.01 876.386 C 1449.7 877.768 1446.82 877.748 1444.53 876.333 C 1442.24 874.917 1440.93 872.344 1441.13 869.659 C 1441.33 866.975 1443.02 864.629 1445.49 863.576 z" fill="rgb(247,162,33)" transform="translate(0,0)"></path>
<metadata><recraft-signature>{"signed_by": "recraft", "signature_b64": "iwm1XIlRYTvoIDS+igp5aY8VivTolvPfYmsDpaLD/Ett4MPqzfcZfNcWmrgitFDeoOIZdbdFp4oahCxNkaI5Cg==", "signing_algo": "Ed25519", "generation_timestamp": 1777471495, "identifier": "c4b8f07b-071a-445f-9dd9-d56d6bf22447"}</recraft-signature></metadata></svg>