<svg xmlns="http://www.w3.org/2000/svg" height="1024" preserveAspectRatio="none" style="display: block;" version="1.1" viewBox="0 0 2048 2048" width="1024">
<path d="M 0 0 L 2048 0 L 2048 2048 L 0 2048 L 0 0 z" fill="rgb(253,253,253)" transform="translate(0,0)"></path>
<path d="M 1041.77 503.363 C 1036.43 527.939 1003.37 577.38 994.064 603.618 C 990.621 613.326 976.678 629.801 981.879 640.337 C 982.59 641.7 985.585 643.743 987.363 643.495 C 1012.02 636.283 1055.87 607.354 1078.21 598.535 C 1086.88 593.694 1099.11 586.368 1108.09 582.544 L 1109.57 581.881 L 1137.7 567.479 C 1142.99 572.483 1145.17 574.565 1149.59 580.319 C 1138.2 603.266 1120.68 634.969 1118.22 660.628 C 1116.95 673.892 1127.2 697.34 1133.15 709.161 C 1138.93 719.057 1146.64 726.846 1151.16 738.389 C 1142.28 765.859 1132.08 794.493 1146.15 822.451 C 1155.18 840.414 1171.18 855.629 1182.94 871.454 C 1195.45 881.679 1208.33 891.503 1218.5 904.108 C 1227.86 919.41 1230.66 932.484 1225.25 950.015 C 1207.63 1007.14 1205.79 1042.01 1250.37 1085.7 C 1261.9 1093.99 1295.35 1128.6 1302.31 1140.81 C 1327.21 1182.34 1320.29 1211.24 1296.21 1250.23 C 1287.35 1264.58 1285.28 1280.09 1294.93 1293.98 C 1306.8 1313.71 1321.61 1328.23 1336.79 1344.82 C 1354.98 1359.99 1390.18 1386.39 1395.64 1408.97 C 1402.9 1441.08 1387.47 1462.34 1375.19 1490.05 C 1395.33 1522.46 1422.93 1545.79 1453.47 1567.67 C 1457.15 1570.3 1461.55 1573.36 1464.96 1576.18 C 1468.19 1578.43 1471.78 1580.8 1474.86 1583.2 C 1477.5 1584.9 1483.65 1589.15 1486.11 1590.45 C 1493.16 1590.71 1515.64 1595.08 1524.14 1596.56 C 1576.87 1606.38 1636.58 1616.07 1684.04 1642.13 C 1733.28 1670.95 1687.8 1696.57 1656.98 1707.32 C 1566.36 1738.91 1467.95 1750.82 1373 1760.43 C 1221.05 1774.76 1068.36 1779.76 915.796 1775.41 C 860.3 1774.59 804.832 1772.46 749.438 1769.02 C 712.898 1766.27 676.403 1762.94 639.967 1759.04 C 578.551 1752.86 516.955 1745.54 456.572 1732.47 C 418.695 1724.27 365.193 1714.36 333.015 1692.38 C 325.655 1687.35 316.66 1680.02 315.228 1670.71 C 314.418 1665.45 316.221 1660.46 319.435 1656.32 C 346.69 1621.23 483.837 1596.89 529.236 1590.71 C 554.784 1571.82 579.173 1551.4 602.271 1529.58 C 602.559 1529.32 602.848 1529.05 603.136 1528.79 C 620.52 1501.27 629.052 1478.66 614.288 1447.26 C 598.899 1407.5 608.684 1379.42 638.948 1349.71 C 641.203 1345.23 654.596 1331.12 658.599 1326.36 C 680.965 1299.72 706.552 1275.16 729.604 1249.59 C 730.527 1247.73 731.403 1245.85 732.232 1243.94 C 744.956 1215.34 741.522 1196.28 730.9 1168.47 C 710.47 1126.71 715.973 1098.16 740.665 1059.6 C 741.951 1056.04 753.381 1036.9 755.988 1033.84 C 756.941 1032.53 757.909 1031.23 758.893 1029.95 C 773.365 1010.3 789.77 991.828 804.408 972.259 C 807.266 968.438 810.222 964.194 813.401 960.67 C 833.623 921.444 817.998 908.126 813.127 870.951 L 813.032 870.172 C 810.319 854.463 814.42 840.066 820.285 825.586 C 823.768 815.379 829.049 807.804 836.137 799.896 C 837.22 798.574 838.141 797.439 839.303 796.177 C 852.006 779.486 864.766 763.017 877.25 746.135 C 881.984 739.733 891.882 722.483 896.334 717.994 C 907.876 698.863 916.47 681.997 925.007 661.189 C 929.605 649.981 935.389 629.668 940.453 619.77 C 963.356 575.006 1003.02 534.094 1041.77 503.363 z" fill="rgb(232,55,77)" transform="translate(0,0)"></path>
<path d="M 1041.77 503.363 C 1036.43 527.939 1003.37 577.38 994.064 603.618 C 990.621 613.326 976.678 629.801 981.879 640.337 C 982.59 641.7 985.585 643.743 987.363 643.495 C 1012.02 636.283 1055.87 607.354 1078.21 598.535 C 1086.88 593.694 1099.11 586.368 1108.09 582.544 L 1109.57 581.881 L 1137.7 567.479 C 1142.99 572.483 1145.17 574.565 1149.59 580.319 C 1138.2 603.266 1120.68 634.969 1118.22 660.628 C 1116.95 673.892 1127.2 697.34 1133.15 709.161 C 1138.93 719.057 1146.64 726.846 1151.16 738.389 C 1142.28 765.859 1132.08 794.493 1146.15 822.451 C 1155.18 840.414 1171.18 855.629 1182.94 871.454 C 1195.45 881.679 1208.33 891.503 1218.5 904.108 C 1227.86 919.41 1230.66 932.484 1225.25 950.015 C 1207.63 1007.14 1205.79 1042.01 1250.37 1085.7 C 1261.9 1093.99 1295.35 1128.6 1302.31 1140.81 C 1278.33 1174.05 1212.53 1199.59 1175.27 1216.36 C 1168.38 1219.46 1143.74 1230 1136.83 1232.11 C 1116.26 1242.03 1079.84 1254.1 1057.53 1262.38 C 1015.8 1277.93 974.297 1294.06 933.019 1310.76 C 825.372 1354.44 721.501 1403.39 614.288 1447.26 C 598.899 1407.5 608.684 1379.42 638.948 1349.71 C 641.203 1345.23 654.596 1331.12 658.599 1326.36 C 680.965 1299.72 706.552 1275.16 729.604 1249.59 C 730.527 1247.73 731.403 1245.85 732.232 1243.94 C 744.956 1215.34 741.522 1196.28 730.9 1168.47 C 710.47 1126.71 715.973 1098.16 740.665 1059.6 C 741.951 1056.04 753.381 1036.9 755.988 1033.84 C 756.941 1032.53 757.909 1031.23 758.893 1029.95 C 773.365 1010.3 789.77 991.828 804.408 972.259 C 807.266 968.438 810.222 964.194 813.401 960.67 C 833.623 921.444 817.998 908.126 813.127 870.951 L 813.032 870.172 C 810.319 854.463 814.42 840.066 820.285 825.586 C 823.768 815.379 829.049 807.804 836.137 799.896 C 837.22 798.574 838.141 797.439 839.303 796.177 C 852.006 779.486 864.766 763.017 877.25 746.135 C 881.984 739.733 891.882 722.483 896.334 717.994 C 907.876 698.863 916.47 681.997 925.007 661.189 C 929.605 649.981 935.389 629.668 940.453 619.77 C 963.356 575.006 1003.02 534.094 1041.77 503.363 z" fill="rgb(232,55,77)" transform="translate(0,0)"></path>
<path d="M 1137.7 567.479 C 1142.99 572.483 1145.17 574.565 1149.59 580.319 C 1138.2 603.266 1120.68 634.969 1118.22 660.628 C 1116.95 673.892 1127.2 697.34 1133.15 709.161 C 1138.93 719.057 1146.64 726.846 1151.16 738.389 C 1142.28 765.859 1132.08 794.493 1146.15 822.451 C 1155.18 840.414 1171.18 855.629 1182.94 871.454 C 1174.91 869.479 1159.16 860.377 1150.39 856.817 C 1097.84 835.472 1018.4 815.875 964.604 837.873 L 959.084 839.676 L 957.92 836.982 C 984.315 819.067 1014.15 802.543 1038.99 784.721 C 1043.93 773.955 1050.79 770.264 1051.4 756.04 C 1053.06 717.509 1011.82 710.461 982.634 708.494 L 982.599 707.688 L 986.232 705.697 C 997.666 698.36 1011.23 688.021 1022.01 679.723 C 1024.59 673.752 1032.33 667.24 1036.64 661.643 C 1051.4 642.47 1068 620.615 1078.21 598.535 C 1086.88 593.694 1099.11 586.368 1108.09 582.544 L 1109.57 581.881 L 1137.7 567.479 z" fill="rgb(8,26,70)" transform="translate(0,0)"></path>
<path d="M 986.232 705.697 C 990.559 707.122 1006.7 703.193 1012.48 703.017 C 1051.33 701.835 1114.45 694.536 1138.78 731.366 C 1122.02 745.052 1086.83 759.707 1066.94 770.366 C 1061.5 773.285 1043.97 782.629 1038.99 784.721 C 1043.93 773.955 1050.79 770.264 1051.4 756.04 C 1053.06 717.509 1011.82 710.461 982.634 708.494 L 982.599 707.688 L 986.232 705.697 z" fill="rgb(164,29,50)" transform="translate(0,0)"></path>
<path d="M 1078.21 598.535 C 1086.88 593.694 1099.11 586.368 1108.09 582.544 L 1109.57 581.881 C 1109.05 584.476 1108.39 586.898 1107.77 589.474 L 1106.8 593.483 C 1098.05 628.883 1053.99 659.949 1024.49 678.478 C 1023.92 678.835 1022.66 679.405 1022.01 679.723 C 1024.59 673.752 1032.33 667.24 1036.64 661.643 C 1051.4 642.47 1068 620.615 1078.21 598.535 z" fill="rgb(164,29,50)" transform="translate(0,0)"></path>
<path d="M 912.197 1085.22 C 922.021 1080.49 946.99 1072.8 957.792 1069.44 C 1027.43 1047.82 1116.61 1032.46 1187.63 1053.84 C 1200.67 1057.82 1212.51 1064.2 1224.35 1070.59 C 1229.82 1073.54 1245.31 1084.72 1250.37 1085.7 C 1261.9 1093.99 1295.35 1128.6 1302.31 1140.81 C 1278.33 1174.05 1212.53 1199.59 1175.27 1216.36 C 1168.38 1219.46 1143.74 1230 1136.83 1232.11 C 1138.88 1229.31 1147.47 1222.04 1150.19 1220.01 C 1224.74 1164.46 1192.25 1102.32 1111.92 1081.39 C 1062.15 1068.42 1015.16 1072.28 964.212 1077.46 C 952.386 1078.67 920.742 1088.44 912.197 1085.22 z" fill="rgb(164,29,50)" transform="translate(0,0)"></path>
<path d="M 747.096 1232.77 L 748.995 1232.23 C 761.028 1228.73 772.583 1223.12 784.585 1219.29 C 819.635 1208.1 929.679 1176.1 963.324 1193.57 C 965.628 1194.77 967.442 1196.58 967.938 1199.24 C 968.637 1202.98 966.607 1206.65 964.237 1209.36 C 933.939 1244.01 693.474 1330.57 638.948 1349.71 C 641.203 1345.23 654.596 1331.12 658.599 1326.36 C 680.965 1299.72 706.552 1275.16 729.604 1249.59 C 732.481 1248.41 743.756 1236.06 747.096 1232.77 z" fill="rgb(240,201,207)" transform="translate(0,0)"></path>
<path d="M 1218.5 904.108 C 1227.86 919.41 1230.66 932.484 1225.25 950.015 C 1207.63 1007.14 1205.79 1042.01 1250.37 1085.7 C 1245.31 1084.72 1229.82 1073.54 1224.35 1070.59 C 1212.51 1064.2 1200.67 1057.82 1187.63 1053.84 C 1116.61 1032.46 1027.43 1047.82 957.792 1069.44 C 946.99 1072.8 922.021 1080.49 912.197 1085.22 L 896.388 1091.25 L 895.555 1089.41 C 947.455 1060.94 998.641 1035.73 1051.7 1009.55 C 1073.22 998.929 1098.84 988.514 1119.14 976.864 C 1138.25 970.423 1181.5 943.86 1196 929.996 C 1203.02 923.284 1212.02 911.929 1218.5 904.108 z" fill="rgb(8,26,70)" transform="translate(0,0)"></path>
<path d="M 861.126 901.485 C 874.34 900.754 909.918 898.499 922.467 900.883 C 948.433 901.44 1036.36 916.046 971.059 949.36 C 957.713 956.168 939.599 962.482 925.518 968.18 C 907.748 975.266 890.117 982.694 872.634 990.461 C 842.02 1004.28 812.05 1019.48 782.817 1036.03 C 772.735 1041.61 749.001 1055.98 740.665 1059.6 C 741.951 1056.04 753.381 1036.9 755.988 1033.84 C 756.941 1032.53 757.909 1031.23 758.893 1029.95 C 773.365 1010.3 789.77 991.828 804.408 972.259 C 807.266 968.438 810.222 964.194 813.401 960.67 C 818.358 956.379 821.266 951.558 825.405 946.629 C 837.625 932.079 849.067 916.055 861.126 901.485 z" fill="rgb(240,201,207)" transform="translate(0,0)"></path>
<path d="M 861.126 901.485 C 874.34 900.754 909.918 898.499 922.467 900.883 C 913.445 901.43 906.362 900.596 897.598 900.546 C 855.429 933.701 816.713 976.422 777.787 1013.42 C 771.978 1018.94 766.526 1024.6 761.416 1030.78 L 758.893 1029.95 C 773.365 1010.3 789.77 991.828 804.408 972.259 C 807.266 968.438 810.222 964.194 813.401 960.67 C 818.358 956.379 821.266 951.558 825.405 946.629 C 837.625 932.079 849.067 916.055 861.126 901.485 z" fill="rgb(229,159,172)" transform="translate(0,0)"></path>
<path d="M 758.893 1029.95 L 761.416 1030.78 L 760.678 1031.88 C 759.393 1033.95 758.26 1033.65 755.988 1033.84 C 756.941 1032.53 757.909 1031.23 758.893 1029.95 z" fill="rgb(235,181,183)" transform="translate(0,0)"></path>
<path d="M 964.604 837.873 C 1018.4 815.875 1097.84 835.472 1150.39 856.817 C 1159.16 860.377 1174.91 869.479 1182.94 871.454 C 1195.45 881.679 1208.33 891.503 1218.5 904.108 C 1212.02 911.929 1203.02 923.284 1196 929.996 C 1181.5 943.86 1138.25 970.423 1119.14 976.864 C 1123.47 966.468 1131.63 959.714 1133.59 946.469 C 1145.99 862.503 1021.12 848.447 964.604 837.873 z" fill="rgb(164,29,50)" transform="translate(0,0)"></path>
<path d="M 896.334 717.994 C 902.535 717.828 909.946 715.674 916.003 715.208 C 922.25 714.727 930.508 714.565 936.749 714.713 C 963.751 715.799 995.54 724.506 959.071 752.146 C 932.224 772.494 892.772 781.196 863.394 797.645 C 844.368 807.152 835.263 816.657 820.285 825.586 C 823.768 815.379 829.049 807.804 836.137 799.896 C 837.22 798.574 838.141 797.439 839.303 796.177 C 852.006 779.486 864.766 763.017 877.25 746.135 C 881.984 739.733 891.882 722.483 896.334 717.994 z" fill="rgb(240,201,207)" transform="translate(0,0)"></path>
<path d="M 896.334 717.994 C 902.535 717.828 909.946 715.674 916.003 715.208 C 922.25 714.727 930.508 714.565 936.749 714.713 C 927.92 723.063 920.153 732.212 910.977 740.487 C 895.69 754.275 878.959 767.545 862.922 780.463 C 858.563 783.974 848.229 793.453 844.301 795.293 L 839.303 796.177 C 852.006 779.486 864.766 763.017 877.25 746.135 C 881.984 739.733 891.882 722.483 896.334 717.994 z" fill="rgb(229,159,172)" transform="translate(0,0)"></path>
<path d="M 839.303 796.177 L 844.301 795.293 C 842.509 798.36 839.699 803.366 836.137 799.896 C 837.22 798.574 838.141 797.439 839.303 796.177 z" fill="rgb(235,181,183)" transform="translate(0,0)"></path>
<path d="M 880.036 1110.2 L 881.032 1111.97 C 859.545 1125.13 763.098 1213.46 747.096 1232.77 C 743.756 1236.06 732.481 1248.41 729.604 1249.59 C 730.527 1247.73 731.403 1245.85 732.232 1243.94 C 744.956 1215.34 741.522 1196.28 730.9 1168.47 C 738.244 1166.07 745.815 1164.27 753.121 1161.83 C 795.797 1147.55 840.037 1130.79 880.036 1110.2 z" fill="rgb(8,26,70)" transform="translate(0,0)"></path>
<path d="M 813.032 870.172 C 815.374 870.67 820.162 875.479 823 877.206 C 843.041 889.408 867.336 885.991 884.616 870.655 L 885.518 872.384 C 878.179 880.978 867.637 892.678 861.126 901.485 C 849.067 916.055 837.625 932.079 825.405 946.629 C 821.266 951.558 818.358 956.379 813.401 960.67 C 833.623 921.444 817.998 908.126 813.127 870.951 L 813.032 870.172 z" fill="rgb(8,26,70)" transform="translate(0,0)"></path>
<path d="M 957.92 836.982 L 959.084 839.676 C 954.811 842.082 947.777 845.054 943.173 847.051 C 947.897 843.384 952.874 840.189 957.92 836.982 z" fill="rgb(94,21,38)" transform="translate(0,0)"></path>
<path d="M 895.555 1089.41 L 896.388 1091.25 C 892.376 1093.51 887.902 1095.34 883.671 1097.21 C 888.295 1093.76 890.232 1092.19 895.555 1089.41 z" fill="rgb(94,21,38)" transform="translate(0,0)"></path>
<path d="M 884.616 870.655 C 885.494 869.553 887.566 866.62 889.181 866.577 C 890.109 867.458 886.095 871.708 885.518 872.384 L 884.616 870.655 z" fill="rgb(94,21,38)" transform="translate(0,0)"></path>
<path d="M 880.036 1110.2 C 886.447 1105.67 886.563 1107.87 881.032 1111.97 L 880.036 1110.2 z" fill="rgb(94,21,38)" transform="translate(0,0)"></path>
<path d="M 1474.86 1583.2 C 1477.5 1584.9 1483.65 1589.15 1486.11 1590.45 C 1493.16 1590.71 1515.64 1595.08 1524.14 1596.56 C 1576.87 1606.38 1636.58 1616.07 1684.04 1642.13 C 1733.28 1670.95 1687.8 1696.57 1656.98 1707.32 C 1566.36 1738.91 1467.95 1750.82 1373 1760.43 C 1221.05 1774.76 1068.36 1779.76 915.796 1775.41 C 860.3 1774.59 804.832 1772.46 749.438 1769.02 C 712.898 1766.27 676.403 1762.94 639.967 1759.04 C 578.551 1752.86 516.955 1745.54 456.572 1732.47 C 418.695 1724.27 365.193 1714.36 333.015 1692.38 C 325.655 1687.35 316.66 1680.02 315.228 1670.71 C 314.418 1665.45 316.221 1660.46 319.435 1656.32 C 346.69 1621.23 483.837 1596.89 529.236 1590.71 C 522.705 1598.38 513.632 1603.81 508.313 1610.83 C 504.027 1613.85 499.192 1616.59 496.483 1620.89 C 496.891 1622.08 496.525 1621.38 498.102 1622.64 L 496.599 1623.64 C 487.448 1629.63 428.169 1659.73 438.83 1675.39 C 441.615 1679.49 469.813 1683.23 478.361 1684.72 C 556.252 1698.06 634.685 1708.02 713.438 1714.57 C 736.605 1716.55 779.046 1720.76 801.656 1720.83 C 807.504 1720.89 813.817 1720.96 819.621 1721.39 C 824.728 1720.88 826.187 1722.2 829.269 1718.3 C 915.356 1712.99 1001.98 1701.39 1086.67 1685.41 C 1118.19 1679.46 1156.9 1674.34 1187.05 1665.31 C 1195.36 1664.92 1230.38 1656.21 1240.73 1653.78 C 1293.1 1641.81 1344.91 1627.53 1396.02 1610.96 C 1411.78 1605.87 1427.44 1600.48 1442.99 1594.78 C 1452.69 1591.2 1465.41 1585.88 1474.86 1583.2 z" fill="rgb(233,213,185)" transform="translate(0,0)"></path>
<path d="M 1474.86 1583.2 C 1477.5 1584.9 1483.65 1589.15 1486.11 1590.45 C 1518.42 1614.5 1553.06 1635.75 1586.71 1657.81 C 1591.4 1660.88 1591.8 1665.07 1590.33 1670.08 C 1588.94 1671.73 1587.12 1673.4 1584.95 1673.79 C 1561.06 1678.04 1536.58 1682.87 1512.68 1686.75 C 1441.41 1698.45 1369.75 1707.59 1297.82 1714.15 C 1180.92 1724.26 1063.54 1727.85 946.239 1724.89 C 908.84 1724.26 856.094 1724.58 819.621 1721.39 C 824.728 1720.88 826.187 1722.2 829.269 1718.3 C 915.356 1712.99 1001.98 1701.39 1086.67 1685.41 C 1118.19 1679.46 1156.9 1674.34 1187.05 1665.31 C 1195.36 1664.92 1230.38 1656.21 1240.73 1653.78 C 1293.1 1641.81 1344.91 1627.53 1396.02 1610.96 C 1411.78 1605.87 1427.44 1600.48 1442.99 1594.78 C 1452.69 1591.2 1465.41 1585.88 1474.86 1583.2 z" fill="rgb(8,26,70)" transform="translate(0,0)"></path>
<path d="M 1136.83 1232.11 C 1143.74 1230 1168.38 1219.46 1175.27 1216.36 C 1212.53 1199.59 1278.33 1174.05 1302.31 1140.81 C 1327.21 1182.34 1320.29 1211.24 1296.21 1250.23 C 1287.35 1264.58 1285.28 1280.09 1294.93 1293.98 C 1306.8 1313.71 1321.61 1328.23 1336.79 1344.82 C 1354.98 1359.99 1390.18 1386.39 1395.64 1408.97 C 1382.32 1396.05 1369.5 1394.16 1351.37 1394.71 C 1289.12 1396.61 1227.46 1418.38 1168.46 1436.5 C 1156.58 1440.15 1120.14 1452.94 1109.91 1454.63 C 1121.31 1442.64 1145.67 1434.99 1151.07 1410.4 C 1153.25 1400.46 1150.81 1389.44 1145.07 1381.36 C 1099.91 1317.81 965.617 1344.88 899.999 1357.22 C 888.732 1359.34 870.71 1366.33 859.607 1365.9 C 859.018 1365.7 858.428 1365.5 857.838 1365.3 C 802.83 1386.73 757.847 1403.28 709.571 1439.56 C 700.309 1446.53 687.097 1455.43 678.961 1463.36 C 662.102 1476.5 645.584 1491.98 629.304 1505.95 C 623.969 1510.52 608.309 1525.97 603.136 1528.79 C 620.52 1501.27 629.052 1478.66 614.288 1447.26 C 721.501 1403.39 825.372 1354.44 933.019 1310.76 C 974.297 1294.06 1015.8 1277.93 1057.53 1262.38 C 1079.84 1254.1 1116.26 1242.03 1136.83 1232.11 z" fill="rgb(8,26,70)" transform="translate(0,0)"></path>
<path d="M 857.838 1365.3 C 970.619 1322.42 1124.03 1290.28 1244.35 1316.1 C 1265.1 1320.6 1285.53 1326.5 1305.49 1333.76 C 1312.07 1336.2 1331.49 1345.12 1336.79 1344.82 C 1354.98 1359.99 1390.18 1386.39 1395.64 1408.97 C 1382.32 1396.05 1369.5 1394.16 1351.37 1394.71 C 1289.12 1396.61 1227.46 1418.38 1168.46 1436.5 C 1156.58 1440.15 1120.14 1452.94 1109.91 1454.63 C 1121.31 1442.64 1145.67 1434.99 1151.07 1410.4 C 1153.25 1400.46 1150.81 1389.44 1145.07 1381.36 C 1099.91 1317.81 965.617 1344.88 899.999 1357.22 C 888.732 1359.34 870.71 1366.33 859.607 1365.9 C 859.018 1365.7 858.428 1365.5 857.838 1365.3 z" fill="rgb(164,29,50)" transform="translate(0,0)"></path>
<path d="M 1109.91 1454.63 C 1120.14 1452.94 1156.58 1440.15 1168.46 1436.5 C 1227.46 1418.38 1289.12 1396.61 1351.37 1394.71 C 1369.5 1394.16 1382.32 1396.05 1395.64 1408.97 C 1402.9 1441.08 1387.47 1462.34 1375.19 1490.05 C 1395.33 1522.46 1422.93 1545.79 1453.47 1567.67 C 1457.15 1570.3 1461.55 1573.36 1464.96 1576.18 C 1468.19 1578.43 1471.78 1580.8 1474.86 1583.2 C 1465.41 1585.88 1452.69 1591.2 1442.99 1594.78 C 1427.44 1600.48 1411.78 1605.87 1396.02 1610.96 C 1344.91 1627.53 1293.1 1641.81 1240.73 1653.78 C 1230.38 1656.21 1195.36 1664.92 1187.05 1665.31 C 1202.18 1653.23 1223.11 1648.4 1238.19 1634.48 C 1245.49 1627.72 1251.65 1617.64 1251.64 1607.42 C 1251.63 1598.4 1246.71 1590.94 1240.51 1584.79 C 1195.36 1539.96 1063.63 1534.57 1001.93 1534.86 C 984.673 1534.94 967.454 1536.69 950.206 1536.81 C 946.763 1536.05 942.548 1535.93 940.334 1535.42 L 940.314 1535.74 C 940.634 1534.95 940.873 1534.31 941.066 1533.44 C 935.076 1534.54 925.731 1536.42 919.869 1537.88 C 879.64 1547.02 839.255 1555.55 799.48 1566.48 L 796.996 1564.02 C 847.389 1546.36 895.451 1527.4 946.574 1510.53 L 1039.46 1479.47 C 1061.77 1472.09 1088.69 1464.02 1109.91 1454.63 z" fill="rgb(8,26,70)" transform="translate(0,0)"></path>
<path d="M 941.066 1533.44 C 1084.04 1507.52 1206.7 1501.73 1348.96 1537.62 C 1374.82 1544.14 1398.83 1551.99 1424.09 1560.63 C 1432.89 1563.64 1458.17 1575.45 1464.96 1576.18 C 1468.19 1578.43 1471.78 1580.8 1474.86 1583.2 C 1465.41 1585.88 1452.69 1591.2 1442.99 1594.78 C 1427.44 1600.48 1411.78 1605.87 1396.02 1610.96 C 1344.91 1627.53 1293.1 1641.81 1240.73 1653.78 C 1230.38 1656.21 1195.36 1664.92 1187.05 1665.31 C 1202.18 1653.23 1223.11 1648.4 1238.19 1634.48 C 1245.49 1627.72 1251.65 1617.64 1251.64 1607.42 C 1251.63 1598.4 1246.71 1590.94 1240.51 1584.79 C 1195.36 1539.96 1063.63 1534.57 1001.93 1534.86 C 984.673 1534.94 967.454 1536.69 950.206 1536.81 C 946.763 1536.05 942.548 1535.93 940.334 1535.42 L 940.314 1535.74 C 940.634 1534.95 940.873 1534.31 941.066 1533.44 z" fill="rgb(164,29,50)" transform="translate(0,0)"></path>
<path d="M 818.088 1435.83 C 838.84 1432.74 902.118 1426.48 917.706 1437.84 C 919.24 1438.96 920.704 1440.89 920.867 1442.81 C 921.163 1446.29 919.253 1449.12 916.935 1451.51 C 896.002 1473.12 769.946 1510.95 732.163 1524.43 C 697.307 1536.94 662.639 1549.97 628.17 1563.51 C 583.275 1581.65 541.559 1602.98 498.102 1622.64 C 496.525 1621.38 496.891 1622.08 496.483 1620.89 C 499.192 1616.59 504.027 1613.85 508.313 1610.83 C 513.632 1603.81 522.705 1598.38 529.236 1590.71 C 554.784 1571.82 579.173 1551.4 602.271 1529.58 C 602.559 1529.32 602.848 1529.05 603.136 1528.79 C 608.309 1525.97 623.969 1510.52 629.304 1505.95 C 645.584 1491.98 662.102 1476.5 678.961 1463.36 C 689.135 1462.11 712.412 1455.08 723.727 1452.72 C 752.858 1446.66 788.682 1438.3 818.088 1435.83 z" fill="rgb(240,201,207)" transform="translate(0,0)"></path>
<path d="M 678.961 1463.36 C 689.135 1462.11 712.412 1455.08 723.727 1452.72 C 752.858 1446.66 788.682 1438.3 818.088 1435.83 C 811.82 1440.98 790.719 1448.31 781.919 1451.82 C 699.249 1484.8 627.876 1526.35 554.933 1577.3 C 544.437 1584.65 534.009 1592.09 523.649 1599.63 C 520.319 1602.08 511.541 1609.07 508.313 1610.83 C 513.632 1603.81 522.705 1598.38 529.236 1590.71 C 554.784 1571.82 579.173 1551.4 602.271 1529.58 C 602.559 1529.32 602.848 1529.05 603.136 1528.79 C 608.309 1525.97 623.969 1510.52 629.304 1505.95 C 645.584 1491.98 662.102 1476.5 678.961 1463.36 z" fill="rgb(229,159,172)" transform="translate(0,0)"></path>
<path d="M 919.869 1537.88 C 925.731 1536.42 935.076 1534.54 941.066 1533.44 C 940.873 1534.31 940.634 1534.95 940.314 1535.74 L 940.334 1535.42 C 942.548 1535.93 946.763 1536.05 950.206 1536.81 C 938.745 1538.29 931.299 1539.49 919.869 1537.88 z" fill="rgb(179,28,52)" transform="translate(0,0)"></path>
<path d="M 801.656 1720.83 C 801.241 1720.4 800.592 1719.99 800.375 1719.43 C 809.77 1718.7 819.417 1719.02 829.269 1718.3 C 826.187 1722.2 824.728 1720.88 819.621 1721.39 C 813.817 1720.96 807.504 1720.89 801.656 1720.83 z" fill="rgb(29,6,26)" transform="translate(0,0)"></path>
<path d="M 796.996 1564.02 L 799.48 1566.48 C 796.005 1567.28 792.548 1568.24 789.192 1569.44 L 787.38 1567.42 L 796.996 1564.02 z" fill="rgb(29,6,26)" transform="translate(0,0)"></path>
<path d="M 787.38 1567.42 L 789.192 1569.44 C 785.162 1570.39 779.973 1571.89 776.184 1573.56 L 776.169 1571.41 C 779.978 1570.12 783.61 1568.72 787.38 1567.42 z" fill="rgb(94,21,38)" transform="translate(0,0)"></path>
<path d="M 776.184 1573.56 C 774.717 1573.95 767.927 1576.61 766.91 1575.36 C 767.186 1574.61 767.081 1574.86 767.946 1574.24 L 767.924 1575.15 L 768.233 1574.07 C 770.508 1573.14 773.809 1572.02 776.169 1571.41 L 776.184 1573.56 z" fill="rgb(164,29,50)" transform="translate(0,0)"></path>
<path d="M 1092.6 387.006 C 1112.26 343.197 1140.7 298.367 1162.4 255.066 C 1164.97 249.937 1168.77 247.661 1174.51 248.11 C 1179.14 250.888 1183.33 266.62 1184.87 272.378 C 1195.67 312.709 1209.47 353.245 1219.37 393.767 C 1219.88 395.929 1220.35 398.1 1220.78 400.279 C 1257.83 409.949 1296.78 414.188 1334.36 422.018 C 1345.49 424.337 1357.94 425.999 1368.52 430.121 C 1371.51 431.285 1374.27 432.418 1375.61 435.563 C 1376.57 437.802 1376.48 440.846 1375.42 443.027 C 1372.57 448.899 1253.79 509.025 1239.4 516.387 C 1246.63 554.001 1252.93 591.789 1258.3 629.715 C 1260.41 643.721 1263.17 658.324 1264.33 672.43 C 1264.7 676.965 1262.73 680.358 1258.37 682.038 C 1254.22 681.966 1250.11 680.103 1247.11 677.3 C 1235.49 666.42 1222.62 654.752 1211.94 643.013 C 1194.11 623.419 1164.93 601.017 1149.59 580.319 C 1145.17 574.565 1142.99 572.483 1137.7 567.479 L 1109.57 581.881 L 1108.09 582.544 C 1099.11 586.368 1086.88 593.694 1078.21 598.535 C 1055.87 607.354 1012.02 636.283 987.363 643.495 C 985.585 643.743 982.59 641.7 981.879 640.337 C 976.678 629.801 990.621 613.326 994.064 603.618 C 1003.37 577.38 1036.43 527.939 1041.77 503.363 C 1045.44 498.15 1047.15 495.111 1050.15 489.552 C 1023.34 467.583 996.793 445.293 970.514 422.686 C 958.814 412.78 945.772 402.563 934.444 392.225 C 925.14 383.734 932.527 376.1 944.266 376.801 C 983.978 379.175 1023.92 381.458 1063.62 384.427 C 1072.7 385.1 1083.69 385.562 1092.6 387.006 z" fill="rgb(254,171,18)" transform="translate(0,0)"></path>
<metadata><recraft-signature>{"signed_by": "recraft", "signature_b64": "oggHjdH6cD+V4rTbpFH4hPUWTfe7NrBwQKlNewryHg9HlEuc+44kKwFK9UWfw82iZYPvM+B8oWef5ZqEkdvPDQ==", "signing_algo": "Ed25519", "generation_timestamp": 1777471541, "identifier": "e27967c5-611a-4128-8a14-55fc9ce3db23"}</recraft-signature></metadata></svg>