<svg xmlns="http://www.w3.org/2000/svg" height="1024" preserveAspectRatio="none" style="display: block;" version="1.1" viewBox="0 0 2048 2048" width="1024">
<defs>
	<linearGradient gradientUnits="userSpaceOnUse" id="Gradient1" x1="1217.72" x2="1197.28" y1="1545.41" y2="1531.43">
		<stop class="stop0" offset="0" stop-color="rgb(119,94,55)" stop-opacity="1"></stop>
		<stop class="stop1" offset="1" stop-color="rgb(144,118,74)" stop-opacity="1"></stop>
	</linearGradient>
	<linearGradient gradientUnits="userSpaceOnUse" id="Gradient2" x1="1598.9" x2="1607.69" y1="1253.82" y2="1235.85">
		<stop class="stop0" offset="0" stop-color="rgb(138,108,64)" stop-opacity="1"></stop>
		<stop class="stop1" offset="1" stop-color="rgb(182,143,85)" stop-opacity="1"></stop>
	</linearGradient>
</defs>
<path d="M 0 0 L 2048 0 L 2048 2048 L 0 2048 L 0 0 z" fill="rgb(254,250,253)" transform="translate(0,0)"></path>
<path d="M 743.168 577.951 C 694.751 579.734 641.917 569.188 605.528 536.086 C 565.463 498.861 564.54 444.793 603.04 406.128 C 636.821 372.202 674.865 361.083 716.664 342.056 C 776.557 314.794 821.06 279.778 860.336 226.675 C 900.531 172.329 946.378 91.3481 1021.86 88.5692 C 1057.58 87.2637 1092.01 107.427 1116.17 131.921 C 1167.46 183.933 1197.78 253.395 1258.01 297.381 C 1283.02 316.829 1310.44 331.207 1339.16 344.464 C 1375.66 361.318 1411.97 372.919 1441.89 401.035 C 1481.97 438.698 1487.71 492.961 1447.6 533.097 C 1412.23 568.495 1359.37 578.501 1311.13 578.79 C 1310.05 578.791 1308.97 578.778 1307.89 578.751 L 1293.69 578.612 C 1307.15 598.422 1315.91 613.621 1326.22 635.511 C 1338.68 621.328 1358.87 607.7 1375.46 598.817 C 1403.64 584.097 1434.08 574.22 1465.53 569.598 C 1506.93 563.386 1545.08 569.015 1581.39 544.072 C 1598.24 532.494 1608.09 520.016 1621.89 504.854 C 1637.01 488.342 1650.22 464.952 1675.08 462.976 C 1680.39 462.554 1688.79 464.387 1692.4 468.334 C 1708.75 486.259 1697.31 523.45 1687.69 541.777 C 1678.24 559.78 1663.06 575.502 1650.8 590.85 C 1638.29 606.536 1626.98 623.145 1616.97 640.535 C 1607.04 657.832 1594.75 683.523 1588.43 702.444 C 1574.04 745.504 1564.76 783.612 1531.1 816.965 C 1474.02 873.519 1393.24 872.52 1325.82 836.534 C 1303.56 873.305 1282.7 894.225 1246.97 918.151 C 1253.55 917.197 1272.81 913.86 1278.49 914.188 C 1336.89 917.554 1400.72 953.11 1446.63 987.71 C 1503.42 1030.49 1529.84 1070.81 1594.23 1104.3 C 1607.11 1047.72 1619.01 1056.48 1658.81 1025.11 L 1660.28 1000.41 C 1639.78 994.407 1610.63 986.425 1599.73 966.082 C 1581.2 931.526 1618.28 893.043 1646.73 878.082 C 1667.01 867.416 1684.11 864.26 1706.57 863.506 C 1710.42 839.851 1722.01 818.574 1741.46 804.171 C 1749.53 811.543 1757.82 819.345 1766.07 826.47 C 1749.24 840.95 1742.74 847.24 1734.07 867.581 C 1758.04 876.729 1778.87 888.416 1795.03 908.764 C 1810.45 928.172 1822.2 956.141 1813.77 980.847 C 1804.27 1008.68 1761.77 1010.42 1737.6 1012.06 C 1736.82 1020.47 1736.15 1030.62 1734.76 1038.81 C 1749.19 1041.25 1755.59 1043.42 1765.3 1054.84 C 1772.59 1063.4 1768.59 1076.3 1771.65 1079.12 C 1784.9 1091.35 1780.38 1112.79 1771.16 1125.67 C 1778.41 1145.92 1777 1154.22 1763.77 1171.48 C 1775.6 1207.36 1741.43 1221.17 1711.61 1219.74 C 1711.69 1232.96 1711.93 1244.14 1701.4 1254.35 C 1695.12 1260.51 1686.59 1263.83 1677.8 1263.52 C 1669.67 1263.25 1661.99 1259.73 1656.47 1253.77 C 1644.62 1240.91 1649.08 1224.62 1649.2 1208.42 C 1636.55 1216.23 1623.99 1224.18 1611.51 1232.27 C 1617.3 1241.78 1626.28 1254.02 1629.49 1263.98 C 1621.29 1265.43 1594.27 1268.51 1589.44 1272.14 C 1589.15 1289.14 1628.04 1287.85 1639.24 1288.82 C 1660.39 1322.94 1679.79 1378.05 1689.46 1417.32 C 1697.31 1449.19 1702.33 1485.57 1717.72 1514.62 C 1723.77 1526.04 1733.36 1532.17 1741.44 1541.07 C 1715.98 1529.95 1691.48 1521.06 1664.76 1513.4 C 1659.13 1511.78 1653.02 1509.87 1647.55 1507.84 C 1645.27 1497.09 1643.42 1486.95 1639.13 1476.75 C 1638.15 1484.19 1637.89 1498.89 1633.48 1503.46 C 1619.07 1506.23 1616.53 1473.93 1607.6 1470.67 C 1600.7 1473.34 1595.94 1489.82 1593.07 1497.17 L 1581.58 1491.27 C 1584.05 1512.62 1584.46 1537.72 1584.53 1559.28 C 1577.27 1555.07 1567.58 1549.28 1559.86 1546.36 C 1566.15 1566.02 1571.31 1565.71 1583.63 1580.21 C 1582.74 1586.88 1579.52 1604.8 1577.34 1611.13 C 1576.92 1614.59 1576.82 1614.22 1575.61 1617.6 C 1570.64 1646.8 1573.02 1655.4 1582.97 1682.92 C 1576.12 1675.87 1571.54 1668.92 1563.92 1662.04 C 1549.49 1649.01 1531.42 1639.9 1514.69 1629.89 C 1511.86 1617.86 1510.42 1602.65 1508.85 1590.06 C 1502.76 1602.9 1501.87 1606.8 1499.35 1620.99 C 1491.32 1614.62 1465.31 1592.21 1460.54 1585.28 C 1459.11 1576.79 1458.92 1574.43 1459.33 1566.04 L 1456.42 1564.01 L 1450.72 1576.96 C 1443.67 1570.47 1440.86 1566.22 1436.35 1557.81 C 1431.57 1574.05 1425.88 1589.11 1417.71 1604.01 C 1410.38 1598.99 1405.41 1595.81 1397.18 1592.2 C 1401.85 1602.99 1404.83 1607.82 1411.38 1617.61 C 1408.12 1625.25 1403.84 1633.48 1401.28 1641.1 C 1394.15 1662.34 1389.47 1686.11 1386.05 1708.25 C 1381.27 1696.35 1375.23 1681.03 1368.94 1670.12 C 1351.37 1639.67 1322.76 1602.62 1298.64 1577.08 C 1297.87 1584.68 1297.19 1593.44 1295.86 1600.86 C 1289.67 1595.56 1287.8 1594.03 1280.24 1590.35 C 1283.68 1597.78 1286.04 1603.23 1291.4 1609.6 C 1288.3 1616.91 1283.68 1623.84 1279.46 1630.61 C 1275.6 1626.26 1270.66 1620.39 1266.59 1616.49 C 1268.94 1624.56 1270.28 1629.86 1274.85 1637.07 C 1270.67 1644.68 1262.63 1659.07 1257.35 1665.98 C 1242.36 1639.22 1229.5 1637.81 1213.56 1619.6 C 1213.97 1610.6 1214.53 1601.61 1215.24 1592.63 L 1211.42 1593.79 C 1209.35 1598.58 1207.79 1602.34 1205.24 1606.94 L 1198.09 1598 C 1197.58 1616.69 1197.44 1637.83 1195.8 1656.27 C 1195.76 1676.2 1192.03 1700.63 1193.56 1720.01 C 1198.61 1783.94 1282.48 1799.81 1331.01 1818.1 C 1347.02 1824.13 1361.64 1831.45 1377.83 1836.77 C 1405.97 1844.42 1445.73 1840.27 1447.07 1881.51 C 1447.43 1892.89 1442.49 1898.44 1432.16 1902.83 L 1430.47 1903.57 C 1430.12 1903.71 1429.78 1903.85 1429.44 1903.99 C 1424.73 1911.55 1421.87 1914 1412.88 1916.1 C 1410.06 1916.75 1407.21 1917.31 1404.35 1917.79 C 1395.49 1941.27 1382.05 1940.92 1360.94 1933.06 C 1355.29 1949.43 1347.37 1955.9 1329.87 1958.76 C 1298.09 1963.95 1272.85 1947.28 1249.53 1927.76 C 1208.8 1893.65 1177.44 1884.38 1125.98 1885.14 C 1123.15 1885.45 1121.85 1885.25 1119.03 1885.1 C 1113 1885.13 1104.9 1885.34 1099.21 1883.62 C 1051.59 1875.56 1051.48 1833.61 1067.3 1797.57 C 1071.69 1787.58 1076.86 1772.92 1079.13 1762.33 C 1081.31 1749.21 1082.7 1737.4 1083.17 1724.07 C 1082.74 1694.27 1080.12 1661.98 1080.21 1633.74 C 1079.67 1624.41 1079.23 1615.08 1078.89 1605.74 L 1070.44 1613.57 C 1064.26 1605.58 1060.81 1602.59 1052.89 1596.71 C 1056.44 1604.54 1060.27 1611.59 1063.76 1619.71 C 1053.57 1630.72 1043.02 1642.13 1035.34 1655.11 C 1031.19 1662.11 1028.59 1669.64 1023.88 1676.45 C 1020.87 1675.78 1018.29 1668.29 1017.01 1665.25 C 1009.59 1647.56 996.605 1633.36 983.948 1619.22 C 987.867 1611.55 991.58 1604.56 994.673 1596.47 C 987.786 1602.09 982.698 1607.52 977.173 1614.4 C 974.213 1611.47 971.137 1608.71 968.057 1605.9 C 967.153 1652.56 962.727 1688.86 964.938 1736.88 C 965.513 1749.95 967.875 1762.89 971.957 1775.33 C 981.28 1804.01 1002.86 1838.25 978.789 1869.17 C 971.273 1878.83 957.366 1882.28 945.808 1884.55 C 927.85 1885.87 909.269 1884.4 891.667 1885.32 C 847.734 1887.59 814.795 1914.24 782.125 1940.54 C 767.686 1952.16 745.352 1960.2 726.866 1959.87 C 705.999 1959.68 694.617 1951.35 686.046 1932.77 C 683.134 1933.95 679.518 1934.67 677.151 1935.94 C 674.412 1936.82 671.953 1937.23 669.257 1937.3 C 644.681 1937.93 647.567 1922.85 641.115 1916.91 L 639.122 1916.55 C 625.352 1913.96 622.519 1908.9 611.204 1901.57 C 603.906 1896.84 598.989 1889.88 599.878 1880.93 C 603.528 1844.18 636.055 1842.87 664.43 1838.18 C 682.189 1834.16 705.352 1822.21 722.401 1816.17 C 761.013 1802.49 803.177 1793.44 832.847 1763.61 C 853.879 1742.53 855.897 1724.96 854.041 1696.4 C 853.047 1681.1 852.083 1664.98 851.29 1649.59 C 850.39 1632.66 850.044 1615.7 850.253 1598.75 L 843.744 1606.6 C 840.129 1599.37 837.396 1593.82 833.053 1587.05 C 833.076 1598.22 833.84 1610.38 833.947 1621.92 C 816.253 1636.76 800.339 1645.12 791.393 1666.98 C 785.799 1658.28 777.761 1646.23 773.58 1637.12 C 778.311 1628.02 780.28 1623.38 782.811 1613.59 C 776.64 1620.12 773.955 1624.15 769.564 1631.8 C 765.002 1624.68 761.304 1618.59 757.764 1610.94 C 759.816 1605.67 764.839 1596.81 767.659 1591.5 C 762.342 1593.71 757.92 1596.51 752.999 1599.44 C 751.003 1590.64 750.459 1585.15 749.859 1576.2 C 713.016 1622.14 682.749 1650.27 661.946 1708.13 C 655.148 1671.35 652.662 1653.17 635.403 1617.87 C 641.158 1608.42 645.193 1601.36 649.784 1591.34 C 642.919 1595.43 635.044 1599.8 629.642 1605.6 C 622.319 1590.26 616.6 1573.78 610.849 1557.8 C 607.521 1562.63 603.247 1572 598.412 1573.42 C 594.539 1571.13 591.313 1563.44 589.056 1559.09 C 589.118 1569.72 589.433 1576.9 586.809 1587.21 C 577.253 1596.87 559.752 1612.13 548.949 1620.09 C 546.592 1605.67 545.41 1601.62 539.748 1588.03 C 538.356 1599.71 536.364 1620.02 533.377 1630.72 C 498.302 1650.93 492.103 1652 465.406 1683.1 C 473.845 1659.23 478.375 1645.89 472.854 1620.96 C 472.408 1618.95 476.671 1615.86 478.279 1614.39 C 480.061 1612.17 482.049 1610.18 484.057 1608.16 C 485.717 1605.98 485.848 1606.13 486.294 1603.48 L 484.658 1602.93 C 477.875 1605.64 476.049 1607.56 471.503 1613.28 C 469.272 1605.29 466.991 1589.23 465.419 1580.47 C 476.441 1566.34 482.614 1563.43 488.577 1545.57 C 481.449 1549 471.095 1555.37 463.978 1559.45 C 464.009 1549.22 468.976 1495.13 466.948 1491.6 C 463.64 1492.19 460.309 1495.42 457.335 1497.68 C 448.027 1485.73 449.659 1477.6 441.916 1467.35 C 427.443 1485.8 438.281 1493.54 413.788 1505.59 C 411.536 1495.67 410.991 1490.35 410.115 1480.1 C 404.934 1490.5 402.305 1497.01 400.204 1508.39 C 377.697 1514.23 352.686 1522.11 330.992 1530.48 C 325.063 1532.77 315.447 1539.47 310.445 1538.51 C 311.829 1535.1 319.707 1529.53 322.741 1525.7 C 345.759 1496.61 348.627 1455.95 357.744 1421.04 C 369.354 1376.58 385.841 1328.3 410.107 1289.13 C 430.174 1286.84 449.087 1291.84 460.969 1271.82 C 445.981 1268.24 432.042 1266.85 416.797 1264.92 C 429.134 1239.86 459.572 1205.24 480.691 1186.17 C 488.216 1187.69 520.466 1195.51 525.651 1189.21 C 523.75 1184.41 500.75 1174.04 493.097 1167.27 C 506.453 1155.1 531.098 1140.18 546.839 1129.72 C 496.088 1134.48 459.172 1126.75 411.246 1112.99 C 425.374 1111.59 437.478 1110.34 450.931 1105.24 C 492.658 1089.43 525.111 1054.87 557.324 1025.33 C 572.914 1010.99 589.179 997.407 606.062 984.62 C 654.478 948.544 729.49 907.315 791.018 916.298 L 792.303 916.208 C 795.308 916.024 795.321 916.097 797.87 914.676 C 763.311 889.044 748.052 873.24 725.433 836.758 C 697.692 849.128 680.571 857.66 648.822 860.8 C 607.093 864.927 563.843 854.977 531.19 827.885 C 515.946 815.423 503.141 800.246 493.426 783.12 C 476.051 752.775 472.326 732.022 461.421 700.469 C 456.41 685.968 439.638 651.508 431.482 637.689 C 421.892 621.651 411.234 606.276 399.58 591.669 C 375.966 562.127 352.346 540.304 349.216 499.93 C 347.997 484.215 350.615 463.537 370.702 463.02 C 394.973 462.007 414.71 489.582 428.779 507.003 C 470.328 558.455 499.598 562.702 562.557 566.876 C 619.568 570.654 681.354 595.571 724.739 634.874 C 733.531 613.948 743.97 597.314 756.1 578.337 L 743.168 577.951 z" fill="rgb(5,4,4)" transform="translate(0,0)"></path>
<path d="M 743.168 577.951 C 694.751 579.734 641.917 569.188 605.528 536.086 C 565.463 498.861 564.54 444.793 603.04 406.128 C 636.821 372.202 674.865 361.083 716.664 342.056 C 776.557 314.794 821.06 279.778 860.336 226.675 C 900.531 172.329 946.378 91.3481 1021.86 88.5692 C 1057.58 87.2637 1092.01 107.427 1116.17 131.921 C 1167.46 183.933 1197.78 253.395 1258.01 297.381 C 1283.02 316.829 1310.44 331.207 1339.16 344.464 C 1375.66 361.318 1411.97 372.919 1441.89 401.035 C 1481.97 438.698 1487.71 492.961 1447.6 533.097 C 1412.23 568.495 1359.37 578.501 1311.13 578.79 C 1310.05 578.791 1308.97 578.778 1307.89 578.751 L 1307.56 575.415 C 1310.24 574.473 1312.49 574.011 1315.23 573.35 C 1347.21 563.299 1402.09 532.307 1389.93 490.966 C 1387.92 484.279 1383.25 478.712 1377.02 475.569 C 1371.35 472.655 1363.3 471.638 1357.05 472.252 C 1294.22 478.429 1275.83 575.168 1203.16 535.493 C 1221.37 512.384 1248.59 457.575 1200.2 450.645 C 1142 442.308 1130.53 507.92 1090.61 534.234 C 1048.68 561.866 1020.13 564.692 975.924 543.964 C 923.827 519.538 922.07 463.862 867.038 450.963 C 849.479 446.987 823.942 455.439 822.765 475.744 C 821.467 498.127 835.27 517.462 849.134 534.123 C 782.564 572.125 762.739 502.407 712.454 477.436 C 679.182 460.913 643.76 482.372 662.542 521.014 C 676.909 550.572 705.896 562.64 734.961 573.402 L 741.161 575.478 L 743.168 577.951 z" fill="rgb(218,52,51)" transform="translate(0,0)"></path>
<path d="M 743.168 577.951 C 694.751 579.734 641.917 569.188 605.528 536.086 C 565.463 498.861 564.54 444.793 603.04 406.128 C 636.821 372.202 674.865 361.083 716.664 342.056 C 776.557 314.794 821.06 279.778 860.336 226.675 C 900.531 172.329 946.378 91.3481 1021.86 88.5692 C 1057.58 87.2637 1092.01 107.427 1116.17 131.921 C 1167.46 183.933 1197.78 253.395 1258.01 297.381 C 1283.02 316.829 1310.44 331.207 1339.16 344.464 C 1375.66 361.318 1411.97 372.919 1441.89 401.035 C 1481.97 438.698 1487.71 492.961 1447.6 533.097 C 1412.23 568.495 1359.37 578.501 1311.13 578.79 C 1310.05 578.791 1308.97 578.778 1307.89 578.751 L 1307.56 575.415 C 1315.86 576.424 1324.25 576.37 1332.54 575.254 C 1345.84 575.141 1365.24 570.853 1378.54 567.693 C 1411.51 559.856 1443.6 541.392 1461.33 511.726 C 1472.07 493.771 1475.01 468.348 1469.22 448.228 C 1459.59 414.818 1431.47 392.076 1402.45 375.786 C 1398.88 379.6 1393.05 384.226 1388.66 387.081 C 1368.17 400.464 1343.16 405.072 1319.24 399.874 C 1270.44 389.52 1241.83 345.13 1252.41 296.408 C 1212.36 264.988 1182.83 221.386 1153.59 180.156 C 1153.03 179.548 1153.04 179.576 1152.69 178.832 C 1123.17 140.28 1089.48 99.1108 1038.1 92.0649 C 969.739 82.6895 922.339 143.827 887.177 193.743 C 908.884 210.042 921.317 232.643 925.212 259.506 C 929.607 288.479 922.219 318.006 904.696 341.495 C 886.585 365.763 859.499 381.757 829.502 385.895 C 797.932 390.216 765.947 381.71 740.693 362.28 C 732.055 355.755 727.616 351.162 720.636 343.008 C 674.539 364.95 598.95 387.712 581.745 443.439 C 554.872 530.482 655.16 576.39 727.867 575.976 C 733.269 576.148 735.786 576.05 741.161 575.478 L 743.168 577.951 z" fill="rgb(5,4,4)" transform="translate(0,0)"></path>
<path d="M 885.31 196.541 C 896.924 200.355 908.986 219.947 913.966 230.528 C 925.887 256.504 927.056 286.139 917.218 312.974 C 906.743 340.621 885.683 362.955 858.697 375.034 C 829.973 387.986 798.948 386.854 769.853 376 C 750.95 368.084 736.491 357.584 723.613 341.774 C 808.201 296.299 828.464 277.236 885.31 196.541 z" fill="rgb(222,207,186)" transform="translate(0,0)"></path>
<path d="M 1253.86 298.199 C 1269.42 306.654 1286.23 320.857 1304.95 330.569 C 1336.77 347.067 1367.69 359.432 1399.77 374.73 C 1394.21 379.936 1392.26 381.698 1385.91 385.868 C 1321.52 424.83 1240.81 375.768 1253.86 298.199 z" fill="rgb(222,207,186)" transform="translate(0,0)"></path>
<path d="M 1093.17 287.017 C 1134.12 281.47 1171.83 310.147 1177.42 351.096 C 1183.01 392.045 1154.38 429.785 1113.44 435.425 C 1072.43 441.074 1034.62 412.384 1029.01 371.369 C 1023.41 330.354 1052.14 292.573 1093.17 287.017 z" fill="rgb(5,4,4)" transform="translate(0,0)"></path>
<path d="M 1091.21 289.91 C 1130.76 283.209 1168.21 309.988 1174.66 349.585 C 1181.11 389.182 1154.09 426.459 1114.45 432.653 C 1075.17 438.792 1038.3 412.07 1031.91 372.83 C 1025.52 333.59 1052.01 296.552 1091.21 289.91 z" fill="rgb(222,207,186)" transform="translate(0,0)"></path>
<path d="M 1049.93 112.102 C 1074.66 110.777 1092.63 131.3 1107.85 148.59 C 1118.16 160.289 1126.2 174.303 1111.18 185.77 C 1090.1 188.234 1091.17 177.672 1079.92 162.553 C 1076.02 157.329 1071.42 152.543 1066.32 148.436 C 1056.86 140.821 1038.07 138.174 1041 121.99 C 1041.74 117.92 1044.78 115.084 1048.22 113.119 L 1049.93 112.102 z" fill="rgb(5,4,4)" transform="translate(0,0)"></path>
<path d="M 1052.96 114.131 C 1071.95 115.104 1085.66 128.484 1098.32 141.686 C 1108.19 151.979 1130.31 175.458 1106.77 183.964 C 1091.31 182.995 1089.93 171.149 1081.18 159.894 C 1076.23 153.605 1070.37 148.093 1063.79 143.542 C 1057.75 139.449 1047.09 136.638 1044.25 129.444 C 1041.06 121.337 1045.68 116.581 1052.96 114.131 z" fill="rgb(254,250,253)" transform="translate(0,0)"></path>
<path d="M 643.557 399.933 C 648.356 400.127 653.93 400.998 656.764 405.143 C 664.133 415.919 654.391 422.593 647.363 428.37 C 636.284 437.792 629.143 452.541 628.12 467.007 C 627.385 477.41 625.741 482.061 616.026 485.855 C 592.139 483.83 600.233 457.345 605.921 441.998 C 611.999 425.6 627.202 406.757 643.557 399.933 z" fill="rgb(5,4,4)" transform="translate(0,0)"></path>
<path d="M 642.232 402.97 C 654.229 402.326 661.267 411.805 653.27 419.852 C 641.367 431.83 632.332 437.935 627.708 455.992 C 624.738 467.592 628.405 476.176 617.673 482.386 C 615.693 482.385 612.273 482.587 610.464 482.219 C 598.449 479.775 603.848 457.139 605.813 450.332 C 611.367 431.095 624.712 412.605 642.232 402.97 z" fill="rgb(254,250,253)" transform="translate(0,0)"></path>
<path d="M 1438.73 423.963 C 1453.93 424.225 1454.19 431.918 1457.61 445.569 C 1459.17 451.792 1458.3 459 1454.26 464.06 L 1453.2 465.462 C 1438.56 467.904 1440.93 456.249 1440.98 446.276 C 1435.25 436.845 1432.25 433.427 1438.73 423.963 z" fill="rgb(5,4,4)" transform="translate(0,0)"></path>
<path d="M 1439.74 426.207 C 1441.53 426.393 1444.65 426.576 1446.24 427.492 C 1454.44 432.194 1457.73 454.51 1453.45 461.692 L 1452.48 463.463 L 1451.48 463.321 C 1438.61 461.592 1445.19 455.975 1443.27 446.474 C 1441.41 437.281 1435.89 438.159 1439.25 427.739 L 1439.74 426.207 z" fill="rgb(254,250,253)" transform="translate(0,0)"></path>
<path d="M 1072.32 518.808 C 1072.77 519.002 1073.22 519.195 1073.67 519.389 C 1074.9 520.232 1075.72 521.555 1075.93 523.034 C 1077.94 536.855 1031.25 540.028 1020.26 537.013 L 1018.63 536.606 C 1015.65 534.62 1013.56 531.302 1015.5 527.818 C 1017.24 524.683 1027.32 528.559 1031.02 528.738 C 1046.33 529.476 1058.54 524.785 1072.32 518.808 z" fill="rgb(5,4,4)" transform="translate(0,0)"></path>
<path d="M 1071.31 521.95 C 1074.65 523.016 1072.93 525.962 1070.95 527.09 C 1055 536.222 1037.03 536.81 1019.29 534.474 C 1017.61 531.877 1015.65 528.633 1020.91 529.78 C 1038.55 533.63 1055.22 529.353 1071.31 521.95 z" fill="rgb(254,250,253)" transform="translate(0,0)"></path>
<path d="M 1131.06 192.707 C 1134.47 191.142 1138.46 191.537 1141.5 193.74 C 1144.53 195.944 1146.15 199.614 1145.71 203.342 C 1145.28 207.069 1142.88 210.274 1139.42 211.726 C 1134.19 213.921 1128.17 211.517 1125.89 206.326 C 1123.6 201.134 1125.91 195.073 1131.06 192.707 z" fill="rgb(5,4,4)" transform="translate(0,0)"></path>
<path d="M 1132.62 194.574 C 1135.3 193.556 1138.32 194.063 1140.51 195.902 C 1142.71 197.741 1143.75 200.623 1143.22 203.439 C 1142.69 206.255 1140.68 208.565 1137.96 209.479 C 1133.87 210.855 1129.44 208.706 1127.98 204.646 C 1126.53 200.585 1128.59 196.107 1132.62 194.574 z" fill="rgb(254,250,253)" transform="translate(0,0)"></path>
<path d="M 1448.69 476.504 C 1451.11 476.125 1453.54 477.085 1455.05 479.014 C 1456.56 480.943 1456.91 483.538 1455.96 485.796 C 1455.01 488.053 1452.91 489.621 1450.48 489.892 C 1446.83 490.298 1443.52 487.714 1443.04 484.075 C 1442.55 480.435 1445.06 477.072 1448.69 476.504 z" fill="rgb(5,4,4)" transform="translate(0,0)"></path>
<path d="M 1447.82 479.375 C 1449.21 478.767 1450.83 478.994 1452 479.962 C 1453.18 480.931 1453.71 482.476 1453.38 483.962 C 1453.05 485.448 1451.92 486.623 1450.44 487.003 C 1448.4 487.53 1446.29 486.397 1445.6 484.402 C 1444.92 482.406 1445.88 480.218 1447.82 479.375 z" fill="rgb(254,250,253)" transform="translate(0,0)"></path>
<path d="M 965.71 1587.34 C 965.441 1592.95 964.686 1600.22 966.347 1605.39 L 968.057 1605.9 C 967.153 1652.56 962.727 1688.86 964.938 1736.88 C 965.513 1749.95 967.875 1762.89 971.957 1775.33 C 981.28 1804.01 1002.86 1838.25 978.789 1869.17 C 971.273 1878.83 957.366 1882.28 945.808 1884.55 C 927.85 1885.87 909.269 1884.4 891.667 1885.32 C 847.734 1887.59 814.795 1914.24 782.125 1940.54 C 767.686 1952.16 745.352 1960.2 726.866 1959.87 C 705.999 1959.68 694.617 1951.35 686.046 1932.77 C 683.134 1933.95 679.518 1934.67 677.151 1935.94 C 672.74 1935.01 669.804 1935.06 665.457 1934.26 C 632.18 1933.02 645.079 1884 669.134 1877.8 C 676.331 1875.95 682.253 1876.83 689.038 1875.13 C 683.545 1872.55 671.199 1873.66 665.52 1876.1 C 644.759 1885.03 646.872 1899.9 641.297 1913.04 C 636.572 1915.43 624.411 1910.75 623.188 1907.22 C 616.201 1887.04 631.519 1862.62 652.914 1859.98 C 656.981 1859.47 660.625 1859.6 664.47 1858.02 L 664.846 1856.73 C 644.904 1850.35 616 1875.88 619.219 1896.6 C 619.536 1898.63 617.759 1900.35 616.338 1901.5 L 613.841 1900.97 C 609.843 1897.82 603.518 1889.66 603.331 1884.74 C 601.802 1844.36 641.896 1846.33 668.663 1839.48 C 689.442 1833.92 704.471 1824.19 725.234 1817.71 C 766.892 1804.7 845.766 1781.21 855.361 1730.49 C 858.977 1711.38 854.761 1653.24 852.222 1632.23 C 893.422 1631.32 934.143 1613.25 965.71 1587.34 z" fill="rgb(47,86,74)" transform="translate(0,0)"></path>
<path d="M 941.31 1882.63 C 974.253 1872.64 965.705 1791.83 966.472 1764.17 C 966.7 1755.96 963.153 1745.32 963.367 1734.67 L 964.938 1736.88 C 965.513 1749.95 967.875 1762.89 971.957 1775.33 C 981.28 1804.01 1002.86 1838.25 978.789 1869.17 C 971.273 1878.83 957.366 1882.28 945.808 1884.55 C 927.85 1885.87 909.269 1884.4 891.667 1885.32 C 847.734 1887.59 814.795 1914.24 782.125 1940.54 C 767.686 1952.16 745.352 1960.2 726.866 1959.87 C 705.999 1959.68 694.617 1951.35 686.046 1932.77 L 685.702 1930.67 C 687.621 1897.07 712.325 1871.57 748.271 1883.66 C 750.244 1884.32 750.439 1885.02 750.99 1886.7 C 748.364 1887.36 737.925 1883.51 732.7 1883.55 C 682.976 1883.89 670.797 1954.88 726.1 1957.7 C 764.049 1959.63 791.182 1928.17 820.347 1908.56 C 833.019 1900.12 846.735 1893.38 861.15 1888.49 C 887.543 1879.61 914.563 1884.09 941.31 1882.63 z" fill="rgb(5,4,4)" transform="translate(0,0)"></path>
<path d="M 665.457 1934.26 C 675.262 1933.88 676.367 1934.17 685.702 1930.67 L 686.046 1932.77 C 683.134 1933.95 679.518 1934.67 677.151 1935.94 C 672.74 1935.01 669.804 1935.06 665.457 1934.26 z" fill="rgb(34,68,64)" transform="translate(0,0)"></path>
<path d="M 1080.63 1590.7 L 1081.66 1589.28 C 1086.22 1590.74 1101.42 1601.75 1106.56 1604.98 C 1134.09 1622.3 1161.8 1630.64 1194.05 1634.11 L 1193.98 1645.97 C 1192.79 1658.33 1193.49 1671.76 1192.73 1683.98 C 1190.98 1712.23 1187.04 1736.49 1207.5 1759.91 C 1237.73 1794.52 1287.95 1805.08 1329.41 1820.43 C 1346.43 1826.59 1363.26 1835.23 1380.64 1840.16 C 1395.52 1844.38 1411.71 1842.39 1425.5 1850.49 C 1441.81 1860.06 1453.95 1884.46 1435.98 1898.43 C 1433.81 1900.11 1434.01 1900.31 1431.35 1900.62 C 1429.25 1897.49 1429.2 1891.61 1428.45 1887.62 C 1425.07 1869.71 1411.75 1860.28 1394.52 1857.22 C 1390.29 1856.47 1388.9 1855.83 1385.43 1857.77 L 1385.57 1859.06 C 1388.48 1859.98 1389.19 1859.91 1392.31 1860.02 C 1410.09 1860.62 1428.21 1878.93 1427.53 1896.94 C 1427.35 1901.6 1424.39 1906.9 1420.58 1909.81 C 1418.34 1911.52 1407.95 1916.82 1405.61 1912.98 C 1404.41 1910.29 1404.87 1906.2 1404.32 1903.3 C 1401.89 1890.47 1391.83 1880.19 1379.87 1875.57 C 1374.66 1873.56 1363.92 1869.58 1360.03 1875.78 C 1362.87 1878.21 1374.39 1877.03 1378.52 1878.31 C 1391.01 1882.18 1400.95 1893.76 1401.56 1907.2 C 1402.76 1933.86 1383.3 1939.52 1362.09 1931.29 C 1361.74 1914.52 1359.21 1907.43 1347.85 1894.25 C 1339.25 1884.27 1305.61 1871.65 1298.14 1886.48 L 1299.29 1887.25 C 1303.78 1885.72 1308.22 1883.9 1312.69 1883.35 C 1329.8 1881.2 1352.18 1896.49 1356.5 1913.09 C 1369.57 1963.32 1308.58 1964.62 1278.83 1946.08 C 1261.87 1935.52 1246.81 1922.72 1231.45 1910.05 C 1229.7 1908.61 1224.77 1907.32 1222.69 1906.05 C 1197.98 1889.15 1155.78 1876.44 1125.98 1885.14 C 1123.15 1885.45 1121.85 1885.25 1119.03 1885.1 C 1113 1885.13 1104.9 1885.34 1099.21 1883.62 C 1051.59 1875.56 1051.48 1833.61 1067.3 1797.57 C 1071.69 1787.58 1076.86 1772.92 1079.13 1762.33 C 1081.31 1749.21 1082.7 1737.4 1083.17 1724.07 C 1082.74 1694.27 1080.12 1661.98 1080.21 1633.74 C 1083.46 1628 1081.14 1598.81 1080.63 1590.7 z" fill="rgb(47,86,74)" transform="translate(0,0)"></path>
<path d="M 1079.13 1762.33 L 1081.47 1767.5 C 1080.56 1795.47 1074.92 1864.05 1100.62 1880.9 C 1100.16 1881.81 1099.69 1882.72 1099.21 1883.62 C 1051.59 1875.56 1051.48 1833.61 1067.3 1797.57 C 1071.69 1787.58 1076.86 1772.92 1079.13 1762.33 z" fill="rgb(5,4,4)" transform="translate(0,0)"></path>
<path d="M 1083.17 1724.07 C 1085.33 1728.16 1083.7 1746.05 1083.3 1751 C 1082.8 1756.51 1082.19 1762.01 1081.47 1767.5 L 1079.13 1762.33 C 1081.31 1749.21 1082.7 1737.4 1083.17 1724.07 z" fill="rgb(14,23,22)" transform="translate(0,0)"></path>
<path d="M 1100.62 1880.9 L 1102.29 1881.31 C 1108.04 1882.8 1113.19 1884.1 1119.03 1885.1 C 1113 1885.13 1104.9 1885.34 1099.21 1883.62 C 1099.69 1882.72 1100.16 1881.81 1100.62 1880.9 z" fill="rgb(14,23,22)" transform="translate(0,0)"></path>
<path d="M 565.967 1453.02 C 573.559 1469.96 576.376 1475.16 593.967 1482.14 C 598.085 1508.27 601.481 1528.89 609.467 1554.26 C 606.459 1559.31 603.486 1565.71 599.019 1568.99 C 594.247 1568.34 588.349 1553.58 585.862 1548.68 C 586.24 1560.61 587.044 1573.05 585.535 1584.85 C 577.405 1593.29 559.504 1608.42 549.981 1616.14 C 549.248 1608.4 547.116 1594.07 541.254 1588.68 L 539.46 1588.8 C 535.19 1594.18 533.65 1618.88 531.376 1628.77 L 530.379 1629.44 C 510.239 1642.77 488.901 1649.91 473.023 1670.41 C 474.654 1664.06 476.417 1657.83 477.315 1651.33 C 476.96 1645.4 476.9 1639.45 477.135 1633.52 C 476.78 1627.44 474.536 1622.23 477.947 1617.15 L 478.279 1614.39 C 480.061 1612.17 482.049 1610.18 484.057 1608.16 L 487.562 1608.11 C 489.201 1604.42 489.969 1604.03 489.434 1600.58 C 486.051 1599.35 486.747 1599.88 482.515 1600.96 C 480.694 1602.38 480.268 1602.9 478.148 1603.47 L 473.944 1606.19 C 472.153 1605.31 472.769 1605.82 471.887 1604.95 C 471.805 1603.97 471.857 1603.16 471.399 1602.34 C 470.419 1595.19 469.542 1588.02 468.769 1580.84 C 474.519 1573.09 490.211 1556.74 489.867 1547.04 L 488.247 1545.74 C 480.81 1545.57 472.609 1551.8 466.089 1555.85 C 467.177 1540.28 467.952 1508.63 471.561 1494.98 C 478.213 1498.34 480.596 1499.64 487.834 1501.51 C 503.543 1524.09 513.723 1515.54 532.645 1529.6 L 536.233 1531.52 C 542.058 1533.58 547.308 1535.1 553.575 1534.65 C 554.314 1534.51 555.053 1534.36 555.792 1534.21 C 580.174 1526.73 572.586 1500.76 566.08 1484.17 C 563.593 1477.82 564.97 1460.32 565.967 1453.02 z" fill="rgb(133,107,64)" transform="translate(0,0)"></path>
<path d="M 532.645 1529.6 L 536.233 1531.52 C 523.545 1553.81 513.661 1582.01 503.141 1605.63 C 500.723 1611.06 496.506 1628.34 491.917 1631.03 C 491.252 1622.68 507.351 1583.18 511.449 1572.45 C 502.571 1578.18 492.666 1585.01 482.926 1588.75 C 493.697 1578.52 499.107 1575.84 512.61 1569.61 C 517.735 1561.05 530.574 1538.62 532.645 1529.6 z" fill="rgb(111,84,46)" transform="translate(0,0)"></path>
<path d="M 553.575 1534.65 C 554.314 1534.51 555.053 1534.36 555.792 1534.21 C 557.174 1539.33 558.657 1546.19 559.08 1551.49 C 559.538 1557.25 566.214 1601.48 561.619 1602.37 L 561.378 1601.95 L 561.906 1601.67 L 561.053 1600.97 C 560.158 1595.79 560.425 1589.6 559.715 1584.51 C 557.437 1568.17 556.244 1550.88 553.575 1534.65 z" fill="rgb(111,84,46)" transform="translate(0,0)"></path>
<path d="M 484.057 1608.16 L 487.562 1608.11 C 484.66 1612.6 482.059 1614.06 477.947 1617.15 L 478.279 1614.39 C 480.061 1612.17 482.049 1610.18 484.057 1608.16 z" fill="rgb(80,63,39)" transform="translate(0,0)"></path>
<path d="M 477.135 1633.52 C 478.46 1639.94 478.543 1644.93 477.315 1651.33 C 476.96 1645.4 476.9 1639.45 477.135 1633.52 z" fill="rgb(80,63,39)" transform="translate(0,0)"></path>
<path d="M 478.148 1603.47 C 479.113 1601.63 480.558 1601.53 482.515 1600.96 C 480.694 1602.38 480.268 1602.9 478.148 1603.47 z" fill="rgb(80,63,39)" transform="translate(0,0)"></path>
<path d="M 1561.35 1601.27 C 1566.08 1603.84 1572.58 1606.84 1576.11 1610.71 L 1577.34 1611.13 C 1576.92 1614.59 1576.82 1614.22 1575.61 1617.6 L 1573.81 1617.48 C 1566.72 1613.32 1565.07 1608.25 1561.35 1601.27 z" fill="rgb(254,250,253)" transform="translate(0,0)"></path>
<path d="M 1576.11 1610.71 L 1577.34 1611.13 C 1576.92 1614.59 1576.82 1614.22 1575.61 1617.6 L 1573.81 1617.48 C 1574.56 1615.2 1575.19 1612.92 1576.11 1610.71 z" fill="rgb(229,228,229)" transform="translate(0,0)"></path>
<path d="M 797.87 914.676 C 799.243 915.216 800.325 915.678 801.45 916.657 C 801.529 916.881 801.608 917.105 801.687 917.329 C 801.196 918.432 794.956 916.967 793.989 916.815 C 792.996 916.658 792.005 916.485 791.018 916.298 L 792.303 916.208 C 795.308 916.024 795.321 916.097 797.87 914.676 z" fill="rgb(229,228,229)" transform="translate(0,0)"></path>
<path d="M 1211.42 1593.79 L 1212.17 1592.37 C 1212.87 1590.98 1213.76 1589 1215.41 1588.52 C 1215.74 1588.61 1215.72 1588.7 1216.02 1589.04 C 1215.99 1590.73 1215.93 1591.06 1215.24 1592.63 L 1211.42 1593.79 z" fill="rgb(254,250,253)" transform="translate(0,0)"></path>
<path d="M 1456.42 1564.01 C 1456.85 1563.06 1457.52 1561.2 1458.52 1560.66 C 1459.5 1560.95 1459.3 1565.4 1459.33 1566.04 L 1456.42 1564.01 z" fill="rgb(229,228,229)" transform="translate(0,0)"></path>
<path d="M 788.042 540.948 C 804.878 549.003 813.888 550.604 833.126 545.142 C 860.592 537.344 883.519 494.81 914.066 507.263 C 925.152 511.782 939.627 532.706 947.792 542.21 C 973.209 571.801 1015.84 585.79 1053.61 574.263 C 1070.03 569.136 1085.02 560.241 1097.4 548.289 C 1117.19 529.125 1131.59 492.344 1165.44 509.859 C 1171.39 512.934 1179.51 519.734 1184.5 524.337 C 1207.37 545.423 1229.7 555.385 1260.34 542.035 C 1265.6 547.881 1271.45 554.119 1276.4 560.16 C 1311.6 602.297 1335.32 652.813 1345.27 706.811 C 1354.23 758.093 1342.33 810.831 1312.21 853.292 C 1210.43 996.748 931.031 1004.47 793.853 908.535 C 748.944 877.127 713.484 825.1 705.159 770.473 C 696.869 716.077 713.467 659.431 738.926 611.566 C 748.769 593.126 761.254 576.281 773.571 559.403 L 788.042 540.948 z" fill="rgb(222,207,186)" transform="translate(0,0)"></path>
<path d="M 788.042 540.948 C 804.878 549.003 813.888 550.604 833.126 545.142 C 860.592 537.344 883.519 494.81 914.066 507.263 C 925.152 511.782 939.627 532.706 947.792 542.21 C 973.209 571.801 1015.84 585.79 1053.61 574.263 C 1070.03 569.136 1085.02 560.241 1097.4 548.289 C 1117.19 529.125 1131.59 492.344 1165.44 509.859 C 1171.39 512.934 1179.51 519.734 1184.5 524.337 C 1207.37 545.423 1229.7 555.385 1260.34 542.035 C 1265.6 547.881 1271.45 554.119 1276.4 560.16 C 1244.52 572.683 1220.68 571.618 1190.03 554.995 C 1180.34 549.589 1171.58 543.35 1161.26 539.171 C 1135.16 528.6 1126.4 554.049 1110.7 568.895 C 1097.95 580.944 1085.92 590.447 1069.96 597.829 C 1022.97 619.555 972.9 604.253 938.102 568.084 C 929.794 560.115 916.318 539.272 904.946 536.03 C 891.897 532.311 863.3 555.608 851.034 560.947 C 822.714 573.274 800.952 569.262 773.571 559.403 L 788.042 540.948 z" fill="rgb(170,162,132)" transform="translate(0,0)"></path>
<path d="M 854.052 645.533 C 903.788 641.225 947.591 678.07 951.865 727.809 C 956.139 777.548 919.263 821.326 869.521 825.565 C 819.828 829.8 776.103 792.968 771.833 743.278 C 767.564 693.588 804.365 649.837 854.052 645.533 z" fill="rgb(5,4,4)" transform="translate(0,0)"></path>
<path d="M 827.756 676.587 C 844.586 673.346 860.854 684.372 864.079 701.205 C 867.304 718.038 856.262 734.296 839.426 737.504 C 822.612 740.709 806.382 729.685 803.161 712.875 C 799.941 696.064 810.949 679.823 827.756 676.587 z" fill="rgb(254,250,253)" transform="translate(0,0)"></path>
<path d="M 814.148 750.041 C 832.321 751.45 831.264 766.609 817.643 773.542 C 799.749 771.29 799.314 754.655 814.148 750.041 z" fill="rgb(254,250,253)" transform="translate(0,0)"></path>
<path d="M 1179.2 645.776 C 1228.66 640.865 1272.75 676.906 1277.78 726.347 C 1282.81 775.787 1246.88 819.971 1197.45 825.121 C 1147.85 830.289 1103.49 794.205 1098.44 744.595 C 1093.39 694.985 1129.58 650.704 1179.2 645.776 z" fill="rgb(5,4,4)" transform="translate(0,0)"></path>
<path d="M 1158.11 675.91 C 1175.04 674.193 1190.23 686.359 1192.24 703.259 C 1194.26 720.158 1182.37 735.558 1165.5 737.875 C 1154.33 739.41 1143.19 734.794 1136.38 725.802 C 1129.57 716.81 1128.14 704.842 1132.64 694.499 C 1137.15 684.156 1146.88 677.049 1158.11 675.91 z" fill="rgb(254,250,253)" transform="translate(0,0)"></path>
<path d="M 1140.34 750.469 C 1146.44 749.377 1152.32 753.263 1153.7 759.297 C 1155.08 765.332 1151.48 771.389 1145.52 773.061 C 1141.4 774.217 1136.98 773.012 1134.02 769.925 C 1131.06 766.839 1130.03 762.372 1131.36 758.303 C 1132.68 754.234 1136.13 751.223 1140.34 750.469 z" fill="rgb(254,250,253)" transform="translate(0,0)"></path>
<path d="M 1156.85 582.41 C 1190.84 580.396 1221.27 595.254 1245.47 618.473 C 1248.76 621.632 1257.99 631.332 1259.34 635.41 L 1257.78 637.003 C 1255.59 636.041 1240.8 625.426 1236.82 622.881 C 1203.63 604.081 1177.44 598.475 1140.41 612.079 C 1126.04 617.357 1113.03 586.636 1156.85 582.41 z" fill="rgb(5,4,4)" transform="translate(0,0)"></path>
<path d="M 882.487 582.458 C 897.293 582.213 929.327 583.534 922.758 606.5 C 919.334 618.471 899.71 608.216 891.132 606.539 C 866.592 601.742 845.201 606.894 823.078 617.15 C 812.123 623.291 804.755 628.834 794.479 635.92 L 792.474 635.493 C 792.86 631.418 795.981 628.412 798.872 625.285 C 821.685 600.611 848.618 584.238 882.487 582.458 z" fill="rgb(5,4,4)" transform="translate(0,0)"></path>
<path d="M 1088.63 829.721 L 1090.07 830.219 L 1090.42 831.676 C 1054.26 862.867 999.181 863.403 961.891 833.95 C 961.105 832.861 961.093 832.544 960.572 831.287 C 963.544 831.629 975.152 840.282 981.113 843.159 C 990.623 847.674 1000.84 850.525 1011.31 851.589 C 1041.78 854.956 1065.06 848.83 1088.63 829.721 z" fill="rgb(5,4,4)" transform="translate(0,0)"></path>
<path d="M 1081.03 819.377 C 1093.34 818.176 1102.79 825.159 1103.8 837.785 L 1103.97 839.669 C 1099.24 838.142 1101.25 835.958 1098.55 830.575 C 1093.91 821.325 1085.24 824.68 1081.03 819.377 z" fill="rgb(5,4,4)" transform="translate(0,0)"></path>
<path d="M 962.766 818.993 C 964.215 818.942 967.431 818.155 968.179 819.553 C 967.225 822.45 955.587 820.719 950.033 837.448 C 948.6 843.549 940.824 830.012 960.963 819.921 L 962.766 818.993 z" fill="rgb(5,4,4)" transform="translate(0,0)"></path>
<path d="M 763.223 917.686 C 765.746 916.29 771.625 916.934 774.473 917.301 C 783.878 923.911 794.207 931.617 804.16 937.143 C 865.292 971.09 935.928 983.287 1005.09 985.687 C 1010.49 985.874 1009.06 988.598 1009.04 994.051 C 1008.25 1062.05 999.063 1129.69 981.694 1195.44 C 973.721 1188.84 949.55 1168.19 939.152 1161.16 C 938.263 1161.18 937.373 1161.21 936.483 1161.23 C 935.71 1162.54 934.966 1163 935.924 1165.03 C 945.136 1184.57 956.326 1212.31 967.883 1229.86 C 950.711 1284.06 929.425 1333.49 898.934 1381.59 C 895.869 1386.43 892.721 1391.64 889.99 1396.67 C 884.362 1386.98 869.939 1358.87 862.856 1353.24 L 861.202 1353.26 C 857.642 1359.85 868.5 1390.48 870.828 1399.07 C 858.877 1429.33 832.048 1464.03 812.269 1490.37 C 803.421 1478.31 773.595 1434.35 762.15 1431.85 C 756.561 1437.08 789.438 1499.93 794.851 1507.65 C 757.294 1576.85 694.037 1622.51 662.574 1698.65 C 658.207 1672.2 651.397 1641.5 638.211 1618.05 C 641.431 1612.5 650.93 1598.19 650.022 1592.58 C 644.523 1589.84 634.928 1597.87 630.225 1601.12 C 625.486 1589.35 618.663 1573.16 614.956 1561.2 L 614.735 1559.9 C 603.985 1538.92 596.883 1479.14 594.354 1455.18 L 593.664 1449.98 C 591.464 1408.08 592.854 1376.86 596.203 1335.38 L 585.247 1338.56 C 586.193 1332.74 586.938 1326.96 588.617 1321.32 L 588.863 1316.9 C 591.942 1306.7 594.452 1293.69 597.47 1282.77 C 605.222 1253.8 615.198 1225.47 627.307 1198.03 L 630.463 1191.03 C 637.294 1176.22 643.742 1160.76 650.874 1146.23 C 660.086 1127.47 670.372 1108.69 680.149 1090.15 C 687.866 1085.78 726.557 1063.28 726.235 1055.96 C 723.867 1056.28 713.788 1065.38 710.855 1067.62 C 634.521 1125.82 516.458 1145.17 425.362 1114.08 C 499.673 1103.26 546.023 1028.93 601.904 991.175 L 604.606 989.506 C 625.25 970.517 675.264 942.542 701.979 933.461 L 705.974 931.746 C 708.231 930.765 710.915 929.848 713.253 928.978 C 730.171 922.763 745.314 918.969 763.223 917.686 z" fill="rgb(239,179,95)" transform="translate(0,0)"></path>
<path d="M 971.405 993.028 C 983.92 993.23 996.56 993.29 1009.04 994.051 C 1008.25 1062.05 999.063 1129.69 981.694 1195.44 C 973.721 1188.84 949.55 1168.19 939.152 1161.16 C 938.263 1161.18 937.373 1161.21 936.483 1161.23 C 935.71 1162.54 934.966 1163 935.924 1165.03 C 945.136 1184.57 956.326 1212.31 967.883 1229.86 C 950.711 1284.06 929.425 1333.49 898.934 1381.59 C 895.869 1386.43 892.721 1391.64 889.99 1396.67 C 884.362 1386.98 869.939 1358.87 862.856 1353.24 L 861.202 1353.26 C 857.642 1359.85 868.5 1390.48 870.828 1399.07 C 858.877 1429.33 832.048 1464.03 812.269 1490.37 C 803.421 1478.31 773.595 1434.35 762.15 1431.85 C 756.561 1437.08 789.438 1499.93 794.851 1507.65 C 757.294 1576.85 694.037 1622.51 662.574 1698.65 C 658.207 1672.2 651.397 1641.5 638.211 1618.05 C 641.431 1612.5 650.93 1598.19 650.022 1592.58 C 644.523 1589.84 634.928 1597.87 630.225 1601.12 C 625.486 1589.35 618.663 1573.16 614.956 1561.2 C 623.843 1558.08 663.106 1517.86 672.466 1508.78 C 671.607 1527.95 655.819 1636.41 663.738 1648.27 C 665.625 1644.53 672.09 1578.68 674.313 1567.22 C 678.103 1574.36 687.011 1591.78 692.78 1596.27 C 693.058 1591.12 678.892 1565.72 675.499 1559.25 C 678.371 1538.15 682.154 1517.19 686.837 1496.42 C 698.287 1514.95 730.19 1571.7 742.772 1582.9 C 739.507 1573.8 733.545 1565.43 729.003 1556.97 C 716.838 1534.29 699.669 1510.87 688.549 1488.11 C 695.367 1457.69 703.771 1428.5 712.038 1398.49 C 717.401 1408 744.933 1454.91 751.512 1457.06 C 750.938 1451.48 719.995 1398.72 714.871 1389.48 C 728.522 1347.31 739.441 1315.84 758.738 1275.35 C 771.399 1302.53 785.48 1327.72 799.933 1353.94 C 797.549 1368.3 793.581 1385.35 795.101 1399.55 C 799.42 1388.94 802.493 1373.18 803.397 1361.77 C 808.758 1371.19 835.364 1426.88 838.939 1428.72 C 840.8 1420.18 797.771 1338.1 790.161 1323.28 C 801.12 1327.79 811.898 1331.96 822.232 1337.76 C 824.242 1338.89 826.288 1338.13 828.112 1337.19 C 825.896 1331.63 793.1 1318.61 786.359 1315.7 C 777.874 1302.14 770.278 1283.01 761.109 1267.89 C 773.099 1240.03 807.36 1173.38 826.671 1150.33 C 831.162 1165.66 838.299 1181.46 844.502 1196.22 L 869.442 1255.37 C 866.7 1261.43 850.03 1293.97 852.464 1298.82 C 856.627 1296.55 868.989 1268.15 871.269 1262.49 C 880.741 1282.7 888.142 1308.22 896.429 1329.33 C 901.611 1342.53 903.789 1352.06 911.647 1364.65 C 907.477 1343.01 891.204 1298.73 883.797 1275.67 C 890.079 1280.2 907.95 1296.59 913.491 1296.9 C 915.068 1290.87 883.621 1270.57 881.477 1266.32 C 872.149 1247.85 860.44 1217.09 853.245 1198.33 C 863.38 1205.61 874.122 1212.08 884.576 1218.91 C 890.216 1222.59 897.727 1231.07 904.719 1229.26 L 905.132 1227.8 C 901.783 1222.83 856.864 1195.6 849.855 1191.27 C 842.994 1175.87 838.045 1158.94 831.198 1143.17 C 852.594 1107.19 885.725 1071.5 915.374 1042.19 C 923.711 1059.8 929.902 1080.76 938.102 1096.96 C 935.409 1103.46 932.859 1110.79 933.108 1117.88 L 934.061 1119.77 C 938.026 1116.95 939.362 1105.63 940.051 1100.86 C 943.506 1112.8 957.358 1144.06 963.834 1154.12 C 961.313 1138.91 941.924 1093.1 935.533 1075.45 C 948.183 1079.71 967.993 1085.4 980.788 1086.34 C 969.379 1080.38 946.355 1074.03 932.813 1069.26 C 928.79 1058.79 924.607 1048.38 920.265 1038.03 C 932.828 1025.64 957.398 1003.73 971.405 993.028 z" fill="rgb(165,136,83)" transform="translate(0,0)"></path>
<path d="M 815.915 991.421 C 839.336 989.824 862.835 989.708 886.271 991.074 C 904.269 991.978 924.832 994.055 942.553 994.062 C 919.661 1014.44 895.666 1033.09 874.196 1055.04 C 857.793 1071.81 842.949 1090.55 828.741 1109.21 C 800.869 1120.61 772.849 1131.66 744.688 1142.34 C 733.387 1138.93 700.459 1127.95 690.644 1128.33 L 690.48 1129.27 C 699.394 1135.09 726.42 1142.32 737.916 1145.61 C 716.495 1154.45 695.196 1163.58 674.024 1173 C 664.559 1177.19 639.818 1188.56 630.463 1191.03 C 637.294 1176.22 643.742 1160.76 650.874 1146.23 C 660.086 1127.47 670.372 1108.69 680.149 1090.15 C 687.866 1085.78 726.557 1063.28 726.235 1055.96 C 723.867 1056.28 713.788 1065.38 710.855 1067.62 C 634.521 1125.82 516.458 1145.17 425.362 1114.08 C 499.673 1103.26 546.023 1028.93 601.904 991.175 C 607.243 996.094 667.696 1002.26 678.545 1003.29 C 639.538 1020.43 601.809 1045.09 562.753 1062.85 C 554.031 1066.81 497.736 1091.27 495.904 1095.5 C 502.548 1097.46 519.857 1087.75 526.818 1084.78 C 541.105 1078.68 555.208 1072.04 569.764 1066.54 C 566.018 1075.46 559.278 1084.03 556.476 1092.38 L 557.162 1094.07 L 559.092 1094.14 C 563.701 1089.24 575.424 1069.38 578.672 1062.8 C 590.609 1055.7 628.277 1037.68 642.129 1031.17 C 631.646 1048.89 605.212 1080.9 600.579 1098.13 C 617.729 1082.5 637.633 1039.48 655.898 1023.51 C 662.271 1017.94 683.127 1012.29 692.408 1006.61 C 689.774 1015.3 675.469 1054.79 677.657 1059.57 C 681.821 1053.35 695.385 1014.53 697.997 1005.41 C 728.721 997.425 777.197 994.676 808.603 992.396 C 800.473 1001.85 786.905 1016.79 780.138 1026.48 L 780.605 1028.22 C 783.51 1029.5 782.123 1029.51 784.894 1028.45 C 793.648 1018.14 808.181 1002.03 815.915 991.421 z" fill="rgb(165,136,83)" transform="translate(0,0)"></path>
<path d="M 702.012 1168.85 C 741.007 1151.73 780.461 1135.67 820.329 1120.69 C 796.24 1152.18 765.749 1209.96 749.918 1246.15 C 736.435 1251.33 723.128 1256.95 710.021 1263.02 C 703.617 1265.93 687.248 1274.18 681.155 1275.22 C 670.264 1277.08 644.305 1269.48 634.41 1272.81 L 634.428 1274.07 C 641.119 1277.03 663.886 1278.63 672.356 1279.82 C 650.17 1291.07 626.105 1299.67 603.71 1310.67 C 598.957 1313.01 593.873 1315.2 588.863 1316.9 C 591.942 1306.7 594.452 1293.69 597.47 1282.77 C 605.222 1253.8 615.198 1225.47 627.307 1198.03 C 633.661 1199 684.65 1174.79 695.008 1170.66 C 689.875 1180.89 681.037 1195.74 678.339 1206.08 L 679.835 1207.06 L 678.09 1207.19 L 678.375 1208.84 C 684.151 1204.1 697.178 1177.16 702.012 1168.85 z" fill="rgb(165,136,83)" transform="translate(0,0)"></path>
<path d="M 666.876 1288.92 C 692.279 1277.69 721.124 1266.33 745.738 1254.9 C 731.527 1284.84 712.533 1340.39 702.198 1371.81 C 689.925 1382.56 670.793 1393.94 656.883 1405.05 C 644.609 1404.92 623.127 1404.14 611.545 1406.08 C 627.875 1409.81 635.324 1408.09 649.996 1410.03 C 632.932 1422.84 611.719 1439.35 593.664 1449.98 C 591.464 1408.08 592.854 1376.86 596.203 1335.38 L 585.247 1338.56 C 586.193 1332.74 586.938 1326.96 588.617 1321.32 C 595.448 1320.71 651.401 1295.45 660.398 1291.11 C 656.763 1297.36 648.556 1321.89 651.182 1327.97 C 654.795 1324.43 663.152 1297.16 666.876 1288.92 z" fill="rgb(165,136,83)" transform="translate(0,0)"></path>
<path d="M 630.014 1432.21 C 651.258 1415.86 680.517 1397.08 699.945 1381.09 C 690.109 1419.82 680.426 1460.82 673.89 1500.26 C 665.536 1508.1 616.763 1552.41 614.735 1559.9 C 603.985 1538.92 596.883 1479.14 594.354 1455.18 C 602.509 1451.24 615.961 1441.72 623.928 1436.42 C 622.278 1443.1 618.05 1457.52 619.916 1463.56 C 623.563 1460.25 628.141 1438.48 630.014 1432.21 z" fill="rgb(165,136,83)" transform="translate(0,0)"></path>
<path d="M 604.606 989.506 C 625.25 970.517 675.264 942.542 701.979 933.461 C 708.794 940.736 778.98 975.652 794.128 984.288 C 756.455 987.116 723.022 989.386 686.655 998.506 C 679.839 1000.21 617.947 990.645 604.606 989.506 z" fill="rgb(165,136,83)" transform="translate(0,0)"></path>
<path d="M 763.223 917.686 C 765.746 916.29 771.625 916.934 774.473 917.301 C 783.878 923.911 794.207 931.617 804.16 937.143 C 865.292 971.09 935.928 983.287 1005.09 985.687 C 1010.49 985.874 1009.06 988.598 1009.04 994.051 C 996.56 993.29 983.92 993.23 971.405 993.028 C 931.161 990.52 900.549 987.829 860.511 981.834 C 847.701 977.862 832.156 974.616 818.84 971.002 C 780.366 960.56 747.855 948.963 713.253 928.978 C 730.171 922.763 745.314 918.969 763.223 917.686 z" fill="rgb(133,107,64)" transform="translate(0,0)"></path>
<path d="M 763.223 917.686 C 765.746 916.29 771.625 916.934 774.473 917.301 C 770.401 917.814 767.297 918.254 763.223 917.686 z" fill="rgb(80,63,39)" transform="translate(0,0)"></path>
<path d="M 705.974 931.746 C 708.231 930.765 710.915 929.848 713.253 928.978 C 747.855 948.963 780.366 960.56 818.84 971.002 C 832.156 974.616 847.701 977.862 860.511 981.834 C 844.386 982.016 824.717 982.838 808.756 983.932 C 780.613 966.64 736.368 948.372 705.974 931.746 z" fill="rgb(165,136,83)" transform="translate(0,0)"></path>
<path d="M 1276.18 916.647 C 1292.96 917.15 1326.36 923.842 1341.86 931.256 C 1370.1 941.624 1420.69 968.567 1443.12 988.449 L 1445.78 990.286 C 1458.88 998.928 1487.17 1023.97 1499.06 1035.59 C 1499.98 1036.15 1500.01 1036.09 1500.54 1036.99 C 1514.06 1049.47 1528.64 1063.32 1543.08 1074.53 C 1543.87 1074.93 1543.85 1074.99 1544.54 1075.63 L 1546.91 1077.41 C 1547.72 1077.79 1547.59 1077.73 1548.23 1078.4 C 1560.81 1087.65 1577.01 1097.5 1591.13 1105.11 C 1595.5 1107.47 1594.05 1114.08 1592.39 1115.43 C 1579.17 1126.23 1538.47 1128.5 1522.79 1128.4 C 1520.72 1129.45 1504.16 1129.88 1502.27 1128.3 C 1449.67 1125.79 1403.53 1109.27 1359.23 1081.6 C 1351.18 1076.57 1327.74 1060.18 1322.55 1057.79 C 1332.42 1071.21 1351.76 1077.42 1364.1 1088.09 C 1380.77 1102.5 1408.7 1171.02 1418.7 1194.01 L 1420.72 1199.06 C 1439.83 1232.76 1451.41 1281.02 1460.16 1318.62 L 1460.32 1321.88 C 1461.93 1326.85 1462.25 1332.47 1462.81 1337.73 L 1453.77 1336.12 C 1456.83 1364.25 1457.89 1423.19 1454.42 1450.5 L 1454.17 1456.35 C 1448.03 1507.31 1439.96 1553.53 1417.07 1600.31 C 1412.15 1597.21 1402.28 1589.53 1396.84 1592.5 C 1395.73 1598.43 1405.67 1612.91 1409.1 1618.56 C 1395.24 1641.94 1389.75 1673.19 1385.11 1699.83 C 1354.9 1622.12 1291.63 1577.97 1252.23 1505.04 C 1260.77 1498.58 1288.97 1439.47 1284.26 1430.62 C 1275.64 1432.62 1244.71 1479.51 1236.61 1490.35 C 1217.55 1465.48 1190.25 1429.46 1178.52 1400.3 C 1180.21 1391.25 1188.86 1360.12 1186.95 1354.53 C 1180.67 1350.74 1176.49 1360.96 1174.14 1365.95 C 1169.43 1375.91 1165 1386.13 1160.51 1396.2 C 1123.31 1346.59 1096.04 1290.27 1080.21 1230.32 C 1086.05 1218.85 1115.44 1168.94 1112.26 1160.15 L 1110.47 1159.38 C 1104.24 1162.4 1073.8 1189.61 1065.83 1195.99 C 1049.39 1123.12 1041.28 1070.71 1040.9 996.298 C 1040.85 993.726 1040.84 991.153 1040.85 988.58 C 1043.44 986.117 1051.67 985.938 1055.39 985.694 C 1136.05 980.415 1209.67 964.242 1276.18 916.647 z" fill="rgb(239,179,95)" transform="translate(0,0)"></path>
<path d="M 1040.9 996.298 C 1052.32 996.258 1064.49 995.172 1075.94 994.373 C 1096.66 1009.24 1109.26 1022.33 1127.2 1039.41 C 1119.69 1049.53 1118.2 1057.93 1113.35 1068.87 C 1106.82 1071.35 1075.79 1081.59 1072.88 1084.87 L 1074.02 1085.99 C 1079.37 1085.55 1104.94 1076.8 1111.45 1074.65 C 1104.09 1092.9 1086.32 1135.87 1084.75 1153.85 C 1091.86 1139.18 1099.88 1118.6 1106.15 1103.22 C 1107.53 1109.41 1108.33 1114.96 1111.33 1120.5 L 1112.15 1120.21 C 1112.35 1111.07 1110.7 1105.81 1108.47 1097.08 C 1113.89 1078.77 1124.02 1060.89 1129.78 1041.63 C 1164.14 1074.99 1189.4 1103.27 1215.52 1143.53 C 1209.5 1158.27 1202.45 1176.89 1195.63 1190.93 C 1184.2 1198.96 1172.66 1206.83 1161 1214.53 C 1156.56 1217.5 1144.88 1224.92 1141.47 1228.11 L 1141.67 1229.32 C 1150.87 1229.56 1156.32 1222.88 1163.54 1218.21 C 1173.34 1211.87 1183.29 1205.83 1192.7 1198.92 C 1188.69 1209.48 1170.45 1261.62 1164.21 1267.97 C 1157.07 1275.24 1139.28 1287.64 1128.78 1300.28 C 1140.67 1294.34 1153.87 1282.41 1164.35 1273.75 C 1160.62 1284.49 1135.3 1354.13 1136.88 1359.26 C 1142.06 1356.4 1161.12 1294.74 1166.23 1285.54 C 1167.9 1282.51 1172.29 1268.28 1174.15 1263.92 C 1177.68 1270.55 1189.21 1295.4 1194.44 1297.96 C 1195.61 1293.52 1180.71 1264.2 1177.56 1256.5 C 1185.78 1232.06 1196.72 1208.05 1206.01 1183.96 C 1210.28 1172.91 1216.24 1160.26 1219.05 1148.86 C 1242.71 1180.29 1269.52 1230.78 1286.01 1267.27 C 1279.64 1279.23 1266.6 1305.45 1259.89 1315.59 C 1253.82 1318.44 1221.46 1332.4 1219.74 1336.66 C 1229.02 1336.71 1247.32 1326.68 1256.7 1322.5 C 1248.32 1338.5 1207.74 1416.04 1206.7 1428.1 L 1207.76 1428.93 C 1213.97 1422.79 1236.66 1372.67 1242.35 1360.78 C 1243.22 1366.42 1247.74 1390.48 1251.07 1393.39 L 1252.41 1392.44 C 1252.8 1384.99 1248.23 1363.57 1247.29 1353.37 C 1260.2 1327.25 1276.51 1302.12 1288.68 1275.36 C 1305.09 1312.96 1319.43 1351.43 1331.64 1390.6 C 1327.23 1395.82 1300.42 1446.18 1296.1 1454.86 L 1296.47 1457.28 C 1302.08 1457 1330.12 1406.01 1333.98 1398.35 C 1343.97 1426.48 1350.88 1458.76 1358.68 1487.93 C 1352.96 1498.74 1309.39 1571.53 1309.94 1576.34 L 1311.45 1576.55 C 1318.32 1570.68 1324.5 1555.69 1329.27 1547.61 L 1360.11 1496.13 C 1364.46 1517.1 1367.99 1538.22 1370.7 1559.46 C 1366.17 1566.23 1354.02 1587.73 1353.57 1595.65 L 1354.76 1595.59 C 1362.4 1586.78 1366.85 1575.18 1372.51 1565.08 C 1374.71 1585.12 1380.15 1635.13 1384.32 1653.71 C 1387.03 1630 1380.32 1585.09 1378.39 1559.78 C 1377.57 1548.99 1374.63 1520.25 1372.66 1509.69 C 1388.07 1520.68 1416.76 1553.52 1428.86 1558.36 L 1430.3 1557.89 C 1425.24 1547.88 1381.78 1509.66 1371.45 1501 C 1366.19 1457.53 1355.2 1422.68 1345.6 1381.29 C 1368.15 1398.47 1397.53 1415.3 1418.88 1432.95 C 1421.05 1444.05 1423.47 1460.26 1428.36 1470.1 C 1428.01 1457.72 1426.21 1448.3 1423.63 1436.17 C 1434.85 1441.77 1443.74 1451.17 1454.17 1456.35 C 1448.03 1507.31 1439.96 1553.53 1417.07 1600.31 C 1412.15 1597.21 1402.28 1589.53 1396.84 1592.5 C 1395.73 1598.43 1405.67 1612.91 1409.1 1618.56 C 1395.24 1641.94 1389.75 1673.19 1385.11 1699.83 C 1354.9 1622.12 1291.63 1577.97 1252.23 1505.04 C 1260.77 1498.58 1288.97 1439.47 1284.26 1430.62 C 1275.64 1432.62 1244.71 1479.51 1236.61 1490.35 C 1217.55 1465.48 1190.25 1429.46 1178.52 1400.3 C 1180.21 1391.25 1188.86 1360.12 1186.95 1354.53 C 1180.67 1350.74 1176.49 1360.96 1174.14 1365.95 C 1169.43 1375.91 1165 1386.13 1160.51 1396.2 C 1123.31 1346.59 1096.04 1290.27 1080.21 1230.32 C 1086.05 1218.85 1115.44 1168.94 1112.26 1160.15 L 1110.47 1159.38 C 1104.24 1162.4 1073.8 1189.61 1065.83 1195.99 C 1049.39 1123.12 1041.28 1070.71 1040.9 996.298 z" fill="rgb(165,136,83)" transform="translate(0,0)"></path>
<path d="M 1445.78 990.286 C 1458.88 998.928 1487.17 1023.97 1499.06 1035.59 C 1499.98 1036.15 1500.01 1036.09 1500.54 1036.99 C 1514.06 1049.47 1528.64 1063.32 1543.08 1074.53 C 1543.87 1074.93 1543.85 1074.99 1544.54 1075.63 L 1546.91 1077.41 C 1547.72 1077.79 1547.59 1077.73 1548.23 1078.4 C 1560.81 1087.65 1577.01 1097.5 1591.13 1105.11 C 1595.5 1107.47 1594.05 1114.08 1592.39 1115.43 C 1579.17 1126.23 1538.47 1128.5 1522.79 1128.4 C 1520.72 1129.45 1504.16 1129.88 1502.27 1128.3 C 1449.67 1125.79 1403.53 1109.27 1359.23 1081.6 C 1351.18 1076.57 1327.74 1060.18 1322.55 1057.79 C 1332.42 1071.21 1351.76 1077.42 1364.1 1088.09 C 1380.77 1102.5 1408.7 1171.02 1418.7 1194.01 C 1382.9 1177.17 1346.73 1161.12 1310.23 1145.86 C 1323.38 1142.24 1338.26 1136.68 1351.79 1133.28 C 1354.02 1132.72 1357.74 1129.82 1359.28 1127.75 C 1355.82 1126.16 1309.28 1140.38 1302.16 1142.43 C 1279.25 1132.73 1239.93 1118.4 1218.04 1108.21 C 1210.99 1104.92 1184.59 1067.81 1175.89 1059.21 C 1160.48 1044 1143.17 1025.17 1125.18 1011.5 C 1120.64 1007.75 1107.07 997.547 1104.45 995.043 C 1115.87 988.933 1208.64 990.395 1229.29 991.017 C 1237.11 998.364 1258.6 1024.03 1264.81 1026.94 L 1265.11 1025.53 C 1258.92 1012.64 1247.14 1001.54 1236.9 991.528 C 1274.79 995.487 1309.48 996.075 1347.55 1005.67 C 1354.36 1022.13 1364.29 1051.86 1373.36 1064.91 C 1369.42 1048.58 1359.99 1023.72 1354.11 1007.53 C 1366.06 1012.06 1385 1019.06 1394.84 1026.57 C 1404.25 1033.74 1437.78 1090.47 1443.3 1093.56 L 1443.85 1091.91 C 1441.34 1079.09 1414.99 1044.94 1406.72 1030.69 C 1426.78 1043.41 1446.5 1052.95 1468.45 1062.04 C 1472.66 1068.7 1484.45 1092.36 1489.62 1094.72 C 1489.39 1087.06 1481.22 1075.06 1477.82 1066.55 L 1477.33 1065.28 C 1493.42 1073.73 1541.51 1094.93 1558.16 1098.94 C 1546.49 1089.47 1525.3 1081.45 1510.89 1074.84 C 1491.66 1066.01 1472.55 1056.92 1453.57 1047.57 C 1426.18 1034 1399.95 1018.34 1372.74 1004.13 C 1383.57 1002.36 1440.6 994.299 1445.78 990.286 z" fill="rgb(165,136,83)" transform="translate(0,0)"></path>
<path d="M 1502.27 1128.3 C 1505.12 1127.94 1519.96 1128.06 1522.79 1128.4 C 1520.72 1129.45 1504.16 1129.88 1502.27 1128.3 z" fill="rgb(111,84,46)" transform="translate(0,0)"></path>
<path d="M 1224.64 1118.91 C 1262.65 1135.47 1307.42 1150.46 1344.09 1168.01 C 1347.97 1176.24 1361.59 1202.49 1367.43 1208.25 L 1368.35 1207.55 C 1366.95 1197.08 1357.36 1181.71 1352.11 1171.35 C 1361.93 1175.25 1414.98 1198.62 1420.72 1199.06 C 1439.83 1232.76 1451.41 1281.02 1460.16 1318.62 C 1456.15 1317.58 1433.41 1307.01 1428.15 1304.36 C 1411.71 1296.08 1387.36 1287.13 1372.11 1278.14 C 1379.72 1278.07 1406.39 1276.24 1412.94 1274.41 L 1413.76 1272.81 C 1409.5 1270.23 1372.85 1274.36 1365.24 1275.37 C 1344.48 1265.56 1317.49 1255.08 1296 1246.1 C 1282.48 1209.86 1246.49 1151.65 1224.64 1118.91 z" fill="rgb(165,136,83)" transform="translate(0,0)"></path>
<path d="M 1300.48 1254.27 C 1309.25 1258.82 1323.01 1264.12 1332.37 1268.08 C 1348.7 1274.98 1364.95 1282.06 1381.12 1289.31 C 1383.12 1295.42 1391.21 1325.65 1396 1327.3 C 1397.53 1322.43 1389.61 1298.44 1387.78 1292.14 C 1405.38 1300.01 1423 1307.76 1440.34 1316.21 C 1445.66 1318.81 1453.68 1323.12 1459.41 1324.2 L 1460.32 1321.88 C 1461.93 1326.85 1462.25 1332.47 1462.81 1337.73 L 1453.77 1336.12 C 1456.83 1364.25 1457.89 1423.19 1454.42 1450.5 C 1443.77 1443.34 1432.84 1435.97 1422.42 1428.52 C 1413.54 1422.19 1406.63 1415.64 1397.06 1410.06 C 1403.73 1410.02 1424.48 1410.16 1429.86 1407.66 L 1430.4 1405.4 C 1424.93 1403.57 1399.76 1405.48 1391.97 1405.83 C 1375.96 1393.75 1360.34 1385.23 1343.33 1371.84 C 1331.07 1331.94 1316.77 1292.7 1300.48 1254.27 z" fill="rgb(165,136,83)" transform="translate(0,0)"></path>
<path d="M 1276.18 916.647 C 1292.96 917.15 1326.36 923.842 1341.86 931.256 C 1340.8 932.328 1340.4 932.387 1340.04 933.59 C 1333.66 939.72 1293.31 958.783 1283 962.5 C 1274.09 961.828 1245.7 973.88 1234.48 974.843 C 1230.25 975.206 1219.94 978.616 1214.96 979.586 C 1212.07 980.221 1211.16 980.672 1208.36 981.796 L 1207.1 982.292 C 1165.4 986.406 1116.57 989.047 1075.94 994.373 C 1064.49 995.172 1052.32 996.258 1040.9 996.298 C 1040.85 993.726 1040.84 991.153 1040.85 988.58 C 1043.44 986.117 1051.67 985.938 1055.39 985.694 C 1136.05 980.415 1209.67 964.242 1276.18 916.647 z" fill="rgb(133,107,64)" transform="translate(0,0)"></path>
<path d="M 1340.04 933.59 C 1340.4 932.387 1340.8 932.328 1341.86 931.256 C 1370.1 941.624 1420.69 968.567 1443.12 988.449 C 1417.96 989.721 1387.62 997.142 1364.12 998.013 L 1362.09 998.076 C 1355.76 998.309 1335.98 993.601 1327.62 992.063 C 1308.19 988.488 1281.4 987.957 1262.89 984.359 C 1262.99 983.967 1263.09 983.576 1263.19 983.184 C 1261.35 981.842 1261.24 983.573 1259.31 981.073 C 1273.68 973.655 1335.14 946.5 1342.9 936.5 L 1342.64 934.765 L 1340.04 933.59 z" fill="rgb(165,136,83)" transform="translate(0,0)"></path>
<path d="M 1214.96 979.586 C 1219.94 978.616 1230.25 975.206 1234.48 974.843 C 1245.7 973.88 1274.09 961.828 1283 962.5 C 1271.69 969.339 1253.84 976.542 1241.51 982.789 C 1240.13 983.492 1229.92 983.081 1227.61 982.858 C 1224.52 981.99 1220.65 981.023 1217.49 980.228 L 1214.96 979.586 z" fill="rgb(165,136,83)" transform="translate(0,0)"></path>
<path d="M 1207.1 982.292 L 1208.36 981.796 C 1211.16 980.672 1212.07 980.221 1214.96 979.586 L 1217.49 980.228 C 1220.65 981.023 1224.52 981.99 1227.61 982.858 C 1220.41 983.05 1214.21 983.42 1207.1 982.292 z" fill="rgb(165,136,83)" transform="translate(0,0)"></path>
<path d="M 1259.31 981.073 C 1261.24 983.573 1261.35 981.842 1263.19 983.184 C 1263.09 983.576 1262.99 983.967 1262.89 984.359 C 1259.01 984.146 1250.6 984.501 1259.31 981.073 z" fill="rgb(189,153,80)" transform="translate(0,0)"></path>
<path d="M 1016.94 992.966 L 1038.17 993.139 C 1038.94 1050.05 1042.46 1101.49 1054.92 1157.25 C 1058.07 1171.37 1060.27 1186.07 1064.82 1199.85 C 1073 1194.21 1078.17 1190.2 1085.46 1183.57 C 1087.52 1190 1089.25 1196.41 1091.04 1202.91 C 1087.97 1210.36 1081.3 1221.38 1077.44 1229.9 C 1083.71 1258.87 1095.25 1282.88 1105.6 1309.99 C 1125.8 1362.96 1152.26 1409.76 1177.42 1460.16 C 1180.91 1454.56 1184.11 1448.74 1188.79 1444.13 C 1203.3 1470.04 1213.5 1487.11 1231.92 1511.03 C 1173.93 1531.75 1113.06 1543.26 1051.51 1545.16 C 1034.1 1546.45 1018.5 1545.79 1001.09 1545.1 C 941.247 1543.27 881.984 1532.78 825.145 1513.97 C 837.211 1493.93 851.759 1467.13 861.498 1445.96 C 864.745 1452.14 867.997 1457.11 871.768 1462.97 C 920.385 1404.88 959.58 1291.17 978.871 1219.23 C 976.824 1214.38 972.465 1206.57 977.064 1202.6 C 981.983 1202.73 987.011 1207.87 990.904 1211.14 C 995.392 1190.68 1000.87 1170.15 1005.31 1149.41 C 1017.58 1092.2 1018.46 1050.12 1016.94 992.966 z" fill="rgb(47,86,74)" transform="translate(0,0)"></path>
<path d="M 717.904 837.617 C 669.861 861.068 614.558 867.915 564.662 845.534 C 540.041 834.294 518.877 816.668 503.368 794.487 C 480.047 760.998 476.483 733.81 462.925 697.484 C 449.27 660.901 425.447 620.856 401.412 590.074 C 384.676 568.641 368.369 554.545 358.591 528.225 C 347.716 498.952 343.949 447.446 391.923 471.595 C 392.728 471.886 392.585 471.835 393.235 472.445 C 404.508 480.601 408.979 487.129 417.613 497.932 C 418.167 498.287 418.201 498.487 418.592 499.102 L 423.583 505.016 C 424.178 505.331 424.152 505.488 424.573 506.134 L 431.609 513.992 C 432.79 514.671 432.595 514.626 433.414 515.967 C 443.585 527.238 451.376 535.599 463.943 544.6 C 464.84 544.958 464.83 545.107 465.49 545.865 C 466.804 546.449 466.682 546.375 467.808 547.27 C 486.978 558.835 508.328 566.228 530.854 567.1 L 532.845 567.011 L 534.84 566.887 C 536.599 566.786 537.303 566.82 538.77 567.707 C 591.038 570.639 639.028 580.668 684.914 607.601 C 685.692 607.854 685.62 607.849 686.225 608.459 C 693.57 613.195 700.06 617.335 707.017 622.685 C 708.263 623.372 708.51 623.493 709.602 624.268 C 711.404 625.638 713.858 627.395 715.169 629.189 L 719.123 632.67 C 721.075 633.85 721.004 634.036 722.635 635.82 L 723.132 636.109 C 723.881 638.758 719.762 647.52 718.422 651.164 C 708.463 678.244 701.161 695.399 696.788 724.014 C 668.433 679.624 620.699 651.623 570.97 638.292 C 529.456 627.163 499.613 621.981 462.48 597.066 C 433.482 577.609 416.46 555.178 395.032 528.969 C 408.138 562.329 421.558 576.841 445.423 601.976 C 450.466 604.905 458.492 611.13 462.953 615.06 C 509.179 655.793 575.955 655.324 616.143 704.148 C 596.845 706.393 584.051 713.945 570.63 727.924 L 570.689 729.116 C 577.533 727.818 583.674 725.061 590.31 723.718 C 635.898 714.489 635.537 763.762 657.273 788.346 C 661.515 793.145 665.82 796.048 670.785 799.658 C 681.99 795.428 688.255 790.153 696.746 782.134 C 702.452 804.24 708.402 817.305 717.904 837.617 z" fill="rgb(170,162,132)" transform="translate(0,0)"></path>
<path d="M 445.423 601.976 C 450.466 604.905 458.492 611.13 462.953 615.06 C 509.179 655.793 575.955 655.324 616.143 704.148 C 596.845 706.393 584.051 713.945 570.63 727.924 L 570.689 729.116 C 577.533 727.818 583.674 725.061 590.31 723.718 C 635.898 714.489 635.537 763.762 657.273 788.346 C 661.515 793.145 665.82 796.048 670.785 799.658 C 644.191 809.977 621.572 813.855 593.53 806.71 C 528.414 790.403 508.449 717.42 482.603 663.975 C 471.3 640.604 458.053 623.635 445.423 601.976 z" fill="rgb(47,86,74)" transform="translate(0,0)"></path>
<path d="M 530.854 567.1 L 532.845 567.011 L 534.84 566.887 C 536.599 566.786 537.303 566.82 538.77 567.707 C 535.163 568.081 534.423 567.819 530.854 567.1 z" fill="rgb(81,78,62)" transform="translate(0,0)"></path>
<path d="M 709.602 624.268 C 711.404 625.638 713.858 627.395 715.169 629.189 C 712.527 628.314 711.497 626.487 709.602 624.268 z" fill="rgb(81,78,62)" transform="translate(0,0)"></path>
<path d="M 1514.7 567.269 C 1570.36 566.581 1603.6 532.862 1635.8 492.533 C 1647.54 477.828 1666.31 458.536 1686.99 467.478 C 1687.77 467.777 1687.66 467.752 1688.32 468.312 C 1707.02 484.096 1694.72 521.322 1685.82 539.985 C 1677.36 557.72 1661 574.34 1648.54 589.739 C 1636.11 605.185 1624.9 621.568 1615.01 638.741 C 1604.21 657.74 1594.91 677.552 1587.2 697.996 C 1580.74 715.489 1576.01 733.596 1569.41 751.136 C 1541.11 826.384 1482.03 863.789 1402.77 858.709 C 1401.56 858.975 1401.17 859.07 1400.18 858.358 C 1376.79 855.943 1353.53 848.223 1332.78 837.293 C 1343.57 817.847 1347.85 803.433 1353.7 782.404 C 1364.28 790.98 1368.13 794.076 1380.41 799.472 C 1413.12 781.694 1407.74 738.311 1437.93 724.425 C 1452.54 717.707 1470.86 726.436 1484.42 732.646 C 1470.53 716.081 1457.81 706.707 1436.41 703.577 C 1462.43 665.195 1517.62 657.168 1556.98 635.214 C 1574.14 625.643 1589.33 611.326 1602.44 603.969 C 1621.25 583.962 1646.42 556.789 1654.37 529.871 C 1609.08 587.548 1571.97 616.852 1499 632.834 C 1436.72 646.475 1392.68 670.648 1354.53 722.741 C 1351.61 700.436 1335.88 660.846 1327.74 637.984 C 1351.81 608.462 1400.16 587.815 1436.02 578.246 C 1460.46 571.726 1486.11 569.522 1511.24 567.678 C 1512.81 566.7 1512.71 566.93 1514.7 567.269 z" fill="rgb(170,162,132)" transform="translate(0,0)"></path>
<path d="M 1436.41 703.577 C 1462.43 665.195 1517.62 657.168 1556.98 635.214 C 1574.14 625.643 1589.33 611.326 1602.44 603.969 C 1589.07 624.469 1576.39 644.127 1566.02 666.327 C 1540.91 720.081 1520.52 792.841 1454.1 807.17 C 1430.8 812.196 1402.22 809.399 1380.41 799.472 C 1413.12 781.694 1407.74 738.311 1437.93 724.425 C 1452.54 717.707 1470.86 726.436 1484.42 732.646 C 1470.53 716.081 1457.81 706.707 1436.41 703.577 z" fill="rgb(47,86,74)" transform="translate(0,0)"></path>
<path d="M 1511.24 567.678 C 1512.81 566.7 1512.71 566.93 1514.7 567.269 C 1513.16 568.098 1513.09 567.872 1511.24 567.678 z" fill="rgb(81,78,62)" transform="translate(0,0)"></path>
<path d="M 1400.18 858.358 C 1401.63 858.286 1401.61 858.151 1402.77 858.709 C 1401.56 858.975 1401.17 859.07 1400.18 858.358 z" fill="rgb(81,78,62)" transform="translate(0,0)"></path>
<path d="M 1609.55 1233.46 C 1612.42 1237.94 1617.51 1245.82 1619.85 1250.33 C 1622.27 1254.47 1624.49 1258.08 1626.5 1262.46 C 1615.89 1264.19 1595.17 1265.75 1586.81 1270.21 C 1583.67 1278.65 1599.3 1287.07 1605.99 1288.24 C 1611.12 1289.14 1616.15 1290.07 1621.36 1290.31 C 1623.67 1289.89 1623.99 1289.55 1625.76 1290.72 L 1637.97 1291.14 C 1645.75 1304.97 1665.29 1345.43 1669.71 1360.96 L 1671.57 1366.53 C 1676.92 1377.09 1682.07 1398.64 1685.44 1410.43 L 1686.49 1415.38 C 1687.78 1420.57 1689.03 1425.77 1690.22 1430.98 C 1691.92 1438.08 1694.46 1448.51 1695.64 1455.46 L 1696.47 1459.26 C 1706.41 1491.12 1705.27 1505.12 1728.47 1532.33 C 1719.72 1529.37 1711.09 1525.46 1702.46 1522.66 C 1685 1516.99 1667.21 1511.56 1649.63 1506.17 C 1647.8 1496.97 1644.44 1488.26 1642.67 1479.96 L 1639.44 1474.2 C 1634.17 1477.62 1637.08 1493.9 1633.2 1500.28 L 1630.83 1500.71 C 1616.82 1496.66 1618.38 1465.18 1606.03 1467.02 C 1598.21 1473.01 1594.9 1484.95 1591.92 1494.15 C 1572.75 1483.91 1549.55 1471.55 1531.86 1459.26 C 1532.45 1451.29 1534.97 1428.72 1531.78 1422.35 L 1529.97 1421.91 C 1526.7 1425.18 1527.7 1424.41 1526.55 1429.77 C 1525.78 1433.49 1523.74 1444.23 1522.6 1447.19 C 1522.52 1448.95 1522.42 1448.52 1521.51 1450.26 C 1516.82 1450.2 1507.24 1440.3 1503.2 1436.63 C 1487.92 1423.39 1473.42 1409.29 1459.75 1394.4 C 1459.49 1386.55 1456.32 1343.2 1458.69 1340.2 C 1462.12 1340.11 1462.26 1340.52 1465.12 1339.03 C 1466.74 1325.85 1455.95 1286.29 1452.12 1272.5 C 1467.64 1275.22 1475.69 1275.31 1491.26 1275.1 L 1500.69 1274.6 C 1536.04 1270.48 1549.96 1260.87 1580.82 1249.15 C 1590.34 1243.74 1599.91 1238.93 1609.55 1233.46 z" fill="rgb(239,179,95)" transform="translate(0,0)"></path>
<path d="M 1522.95 1314.09 C 1537.52 1324.06 1572.14 1357.88 1584.35 1371.45 C 1583.71 1384.34 1586.31 1460.01 1589.84 1469.89 C 1592.73 1463.44 1588.16 1389.5 1588.62 1376.33 C 1603.52 1390.13 1633.61 1425.81 1645.71 1443.37 C 1644.9 1448.99 1641.96 1471.12 1639.44 1474.2 C 1634.17 1477.62 1637.08 1493.9 1633.2 1500.28 L 1630.83 1500.71 C 1616.82 1496.66 1618.38 1465.18 1606.03 1467.02 C 1598.21 1473.01 1594.9 1484.95 1591.92 1494.15 C 1572.75 1483.91 1549.55 1471.55 1531.86 1459.26 C 1532.45 1451.29 1534.97 1428.72 1531.78 1422.35 L 1529.97 1421.91 C 1526.7 1425.18 1527.7 1424.41 1526.55 1429.77 C 1521.04 1419.11 1525.68 1352.44 1523.32 1336.49 C 1522.76 1332.73 1522.92 1318.92 1522.95 1314.09 z" fill="rgb(165,136,83)" transform="translate(0,0)"></path>
<path d="M 1609.55 1233.46 C 1612.42 1237.94 1617.51 1245.82 1619.85 1250.33 C 1622.27 1254.47 1624.49 1258.08 1626.5 1262.46 C 1615.89 1264.19 1595.17 1265.75 1586.81 1270.21 C 1583.67 1278.65 1599.3 1287.07 1605.99 1288.24 C 1611.12 1289.14 1616.15 1290.07 1621.36 1290.31 C 1623.67 1289.89 1623.99 1289.55 1625.76 1290.72 L 1637.97 1291.14 C 1645.75 1304.97 1665.29 1345.43 1669.71 1360.96 C 1650.88 1357.64 1632.08 1354.14 1613.32 1350.46 C 1602.34 1348.29 1587.29 1344.79 1576.69 1343.63 C 1563.68 1331.93 1549.57 1317.79 1536.9 1305.51 C 1548.52 1306.8 1602.77 1316.05 1608.67 1315.41 C 1607.53 1308.31 1537.11 1303.54 1526.25 1295.16 C 1517.75 1288.61 1508.78 1281.75 1500.69 1274.6 C 1536.04 1270.48 1549.96 1260.87 1580.82 1249.15 C 1590.34 1243.74 1599.91 1238.93 1609.55 1233.46 z" fill="rgb(165,136,83)" transform="translate(0,0)"></path>
<path d="M 1609.55 1233.46 C 1612.42 1237.94 1617.51 1245.82 1619.85 1250.33 C 1618.44 1250.45 1617.13 1250.53 1615.72 1250.61 C 1608.64 1251.1 1606.49 1251.5 1599.69 1249.97 C 1595.58 1250.43 1585.11 1249.7 1580.82 1249.15 C 1590.34 1243.74 1599.91 1238.93 1609.55 1233.46 z" fill="url(#Gradient2)" transform="translate(0,0)"></path>
<path d="M 1599.69 1249.97 C 1604.57 1248.68 1611.18 1248.29 1615.72 1250.61 C 1608.64 1251.1 1606.49 1251.5 1599.69 1249.97 z" fill="rgb(133,107,64)" transform="translate(0,0)"></path>
<path d="M 1621.36 1290.31 C 1623.67 1289.89 1623.99 1289.55 1625.76 1290.72 C 1623.53 1290.97 1623.16 1291.25 1621.36 1290.31 z" fill="rgb(80,63,39)" transform="translate(0,0)"></path>
<path d="M 1452.12 1272.5 C 1467.64 1275.22 1475.69 1275.31 1491.26 1275.1 C 1487.57 1275.72 1485.5 1276.01 1481.78 1276.22 L 1480.32 1277.47 L 1481.37 1280.13 C 1482.65 1292.4 1488.52 1306.68 1490.73 1319.25 C 1496.91 1354.32 1503.31 1401.03 1503.2 1436.63 C 1487.92 1423.39 1473.42 1409.29 1459.75 1394.4 C 1459.49 1386.55 1456.32 1343.2 1458.69 1340.2 C 1462.12 1340.11 1462.26 1340.52 1465.12 1339.03 C 1466.74 1325.85 1455.95 1286.29 1452.12 1272.5 z" fill="rgb(133,107,64)" transform="translate(0,0)"></path>
<path d="M 1582.84 1349.92 C 1607.12 1356.24 1632.4 1359.25 1656.99 1364.16 C 1662.06 1365.17 1666.45 1365.91 1671.57 1366.53 C 1676.92 1377.09 1682.07 1398.64 1685.44 1410.43 C 1667.53 1411.1 1649.02 1408.28 1631.17 1406.89 C 1614.7 1388.66 1599.43 1368.43 1582.84 1349.92 z" fill="rgb(165,136,83)" transform="translate(0,0)"></path>
<path d="M 1650.5 1447.69 C 1665.16 1464.1 1678.76 1481.79 1693.44 1498.19 C 1694.65 1499.54 1705.56 1514.28 1705.76 1510.68 C 1705.91 1508.06 1700.76 1500.65 1698.99 1498.45 C 1692.61 1490.55 1686.55 1482.48 1680.8 1474.11 L 1668.76 1456.66 L 1696.47 1459.26 C 1706.41 1491.12 1705.27 1505.12 1728.47 1532.33 C 1719.72 1529.37 1711.09 1525.46 1702.46 1522.66 C 1685 1516.99 1667.21 1511.56 1649.63 1506.17 C 1647.8 1496.97 1644.44 1488.26 1642.67 1479.96 C 1645.97 1476.57 1648.71 1454.37 1650.5 1447.69 z" fill="rgb(165,136,83)" transform="translate(0,0)"></path>
<path d="M 1481.37 1280.13 C 1491.69 1289.77 1504.82 1298.95 1515.94 1308.17 C 1516.19 1343.44 1518.84 1381.04 1519.54 1416.48 C 1519.66 1422.36 1519.73 1441.15 1520.95 1445.7 L 1522.6 1447.19 C 1522.52 1448.95 1522.42 1448.52 1521.51 1450.26 C 1516.82 1450.2 1507.24 1440.3 1503.2 1436.63 C 1503.31 1401.03 1496.91 1354.32 1490.73 1319.25 C 1488.52 1306.68 1482.65 1292.4 1481.37 1280.13 z" fill="rgb(165,136,83)" transform="translate(0,0)"></path>
<path d="M 1635.33 1411.57 C 1637.62 1411.76 1639.89 1412 1642.17 1412.29 C 1655.4 1414.02 1673.37 1414.16 1686.49 1415.38 C 1687.78 1420.57 1689.03 1425.77 1690.22 1430.98 C 1691.92 1438.08 1694.46 1448.51 1695.64 1455.46 C 1685.6 1453.92 1675.59 1452.83 1665.54 1451.41 C 1660.27 1444.48 1654.83 1437.8 1649.58 1430.81 L 1642.9 1421.6 L 1641.79 1420.12 C 1639.62 1417.17 1637.5 1414.59 1635.33 1411.57 z" fill="rgb(165,136,83)" transform="translate(0,0)"></path>
<path d="M 501.071 1170.29 C 500.241 1169.78 498.083 1168.7 498.029 1167.47 C 497.97 1166.11 516.539 1152.7 518.943 1151.08 C 522.419 1148.75 525.814 1146.88 529.794 1145.58 L 532.418 1144.71 C 551.68 1148.51 562.506 1148.84 581.738 1147.83 C 576.702 1155.56 570.385 1167.3 564.841 1174.25 C 553.419 1196.51 547.096 1212.56 537.653 1235.71 C 536.854 1237.95 535.629 1241.73 534.737 1243.8 C 527.109 1265.15 523.431 1278.21 517.663 1299.77 C 512.885 1322.11 512.928 1323.66 497.688 1341.05 C 494.255 1347.67 485.997 1358.79 481.52 1366.1 C 475.808 1375.44 472.585 1383.45 467.582 1392.19 L 463.529 1402.75 L 462.53 1405.88 C 453.783 1433.24 451.276 1461.09 466.067 1486.9 L 458.357 1494.4 C 453.893 1485.46 449.44 1472.42 442.948 1466.07 L 440.509 1465.27 C 433.093 1469.26 434.005 1491.08 417.917 1500.53 L 416.64 1501.29 C 416.381 1501.44 416.122 1501.58 415.862 1501.73 L 415.422 1500.18 C 413.168 1492.1 413.974 1479.67 410.446 1476.63 C 406.274 1479.07 398.86 1500.82 397.311 1506.19 C 366.219 1515.41 348.531 1520.11 318.585 1533.56 C 334.907 1514.86 341.02 1502.69 347.45 1478.23 C 348.685 1473.53 350.87 1465.15 351.157 1460.38 L 352.38 1457.48 C 352.783 1455.12 353.325 1452.82 353.889 1450.49 L 355.809 1441.49 C 357.43 1433.67 359.247 1425.31 361.318 1417.61 L 362.743 1411.27 C 366.826 1396.93 371.448 1379.71 377.228 1366.08 L 378.793 1361.42 C 388.618 1334.7 397.52 1316.1 411.4 1291.37 C 432.657 1290.4 454.699 1292.82 463.895 1269.79 C 454.236 1267.04 441.883 1265.66 431.866 1264.72 C 430.541 1265.03 430.316 1265.26 429.286 1264.38 C 424.886 1264.05 424.626 1264.75 421.597 1262.59 C 422.476 1249.1 469.457 1200.24 480.834 1189.16 C 488.364 1190.87 528.038 1199.27 530.536 1189.11 C 528.052 1182.87 509.85 1176.24 501.071 1170.29 z" fill="rgb(165,136,83)" transform="translate(0,0)"></path>
<path d="M 433.165 1316.67 C 435.094 1315.75 437.076 1314.94 439.102 1314.25 C 447.185 1311.49 513.737 1297.9 517.663 1299.77 C 512.885 1322.11 512.928 1323.66 497.688 1341.05 C 494.255 1347.67 485.997 1358.79 481.52 1366.1 C 475.808 1375.44 472.585 1383.45 467.582 1392.19 L 463.529 1402.75 L 462.53 1405.88 C 453.783 1433.24 451.276 1461.09 466.067 1486.9 L 458.357 1494.4 C 453.893 1485.46 449.44 1472.42 442.948 1466.07 L 440.509 1465.27 C 433.093 1469.26 434.005 1491.08 417.917 1500.53 L 416.64 1501.29 C 416.381 1501.44 416.122 1501.58 415.862 1501.73 L 415.422 1500.18 C 413.168 1492.1 413.974 1479.67 410.446 1476.63 C 406.274 1479.07 398.86 1500.82 397.311 1506.19 C 366.219 1515.41 348.531 1520.11 318.585 1533.56 C 334.907 1514.86 341.02 1502.69 347.45 1478.23 C 348.685 1473.53 350.87 1465.15 351.157 1460.38 L 352.38 1457.48 C 352.783 1455.12 353.325 1452.82 353.889 1450.49 L 355.809 1441.49 C 357.43 1433.67 359.247 1425.31 361.318 1417.61 L 362.743 1411.27 C 366.826 1396.93 371.448 1379.71 377.228 1366.08 L 378.793 1361.42 C 401.631 1358.17 453.543 1343.13 472.595 1343.94 C 485.884 1330.23 500.446 1317.81 514.106 1304.32 C 495.433 1307.17 448.98 1317 433.165 1316.67 z" fill="rgb(239,179,95)" transform="translate(0,0)"></path>
<path d="M 462.04 1374.25 L 461.799 1390.68 C 462.242 1395.28 461.745 1398.89 463.529 1402.75 L 462.53 1405.88 C 453.783 1433.24 451.276 1461.09 466.067 1486.9 L 458.357 1494.4 C 453.893 1485.46 449.44 1472.42 442.948 1466.07 L 440.509 1465.27 C 433.093 1469.26 434.005 1491.08 417.917 1500.53 L 416.64 1501.29 C 416.381 1501.44 416.122 1501.58 415.862 1501.73 L 415.422 1500.18 C 413.168 1492.1 413.974 1479.67 410.446 1476.63 C 406.274 1479.07 398.86 1500.82 397.311 1506.19 C 366.219 1515.41 348.531 1520.11 318.585 1533.56 C 334.907 1514.86 341.02 1502.69 347.45 1478.23 C 348.685 1473.53 350.87 1465.15 351.157 1460.38 C 360.592 1460.55 373.39 1457.39 382.769 1455.22 C 377.037 1462.48 348.828 1501.17 346.632 1508.22 L 347.949 1507.74 C 353.358 1500.22 358.955 1494.76 364.557 1487.81 C 375.245 1474.57 386.064 1461.89 397.143 1448.98 C 399.607 1458.24 402.707 1474.62 407.718 1482.16 C 408.269 1469.01 404.66 1456.91 402.2 1443.73 C 422.547 1417.89 441.323 1398.72 462.04 1374.25 z" fill="rgb(165,136,83)" transform="translate(0,0)"></path>
<path d="M 462.53 1405.88 C 460.18 1401.87 461.41 1395.33 461.799 1390.68 C 462.242 1395.28 461.745 1398.89 463.529 1402.75 L 462.53 1405.88 z" fill="rgb(189,153,80)" transform="translate(0,0)"></path>
<path d="M 377.228 1366.08 C 381.971 1368.01 455.701 1351.91 467.532 1350.25 C 454.842 1363.33 429.269 1391.37 418.749 1405.83 C 402.003 1407.46 378.986 1410.58 362.743 1411.27 C 366.826 1396.93 371.448 1379.71 377.228 1366.08 z" fill="rgb(165,136,83)" transform="translate(0,0)"></path>
<path d="M 361.318 1417.61 C 378.159 1413.92 397.178 1412.4 414.368 1411.63 L 412.057 1414.99 C 405.305 1424.74 397.368 1433.97 390.424 1443.79 C 388.819 1446.06 387.176 1448.3 385.496 1450.51 C 376.664 1451.89 360.964 1455.04 352.38 1457.48 C 352.783 1455.12 353.325 1452.82 353.889 1450.49 L 355.809 1441.49 C 357.43 1433.67 359.247 1425.31 361.318 1417.61 z" fill="rgb(165,136,83)" transform="translate(0,0)"></path>
<path d="M 467.264 1368.3 C 476.408 1360.96 490.219 1344.19 497.688 1341.05 C 494.255 1347.67 485.997 1358.79 481.52 1366.1 C 475.808 1375.44 472.585 1383.45 467.582 1392.19 C 466.82 1388.16 466.928 1372.6 467.264 1368.3 z" fill="rgb(165,136,83)" transform="translate(0,0)"></path>
<path d="M 501.071 1170.29 C 500.241 1169.78 498.083 1168.7 498.029 1167.47 C 497.97 1166.11 516.539 1152.7 518.943 1151.08 C 522.419 1148.75 525.814 1146.88 529.794 1145.58 L 532.418 1144.71 C 551.68 1148.51 562.506 1148.84 581.738 1147.83 C 576.702 1155.56 570.385 1167.3 564.841 1174.25 C 551.822 1170.06 521.085 1172.67 505.986 1168.92 C 504.514 1168.55 502.348 1169.57 501.071 1170.29 z" fill="rgb(133,107,64)" transform="translate(0,0)"></path>
<path d="M 534.737 1243.8 C 526.948 1240.46 448.156 1258.7 431.085 1256.45 L 431.745 1255.51 C 465.518 1250.98 505.409 1239.23 537.653 1235.71 C 536.854 1237.95 535.629 1241.73 534.737 1243.8 z" fill="rgb(133,107,64)" transform="translate(0,0)"></path>
<path d="M 429.286 1264.38 C 430.663 1264.23 430.672 1264.12 431.866 1264.72 C 430.541 1265.03 430.316 1265.26 429.286 1264.38 z" fill="rgb(111,84,46)" transform="translate(0,0)"></path>
<path d="M 640.783 1159.21 C 641.105 1163.12 626.69 1194.58 623.169 1200.66 C 613.332 1217.66 578.997 1327.19 583.654 1339.84 C 587.735 1341.9 586.728 1339.25 592.183 1340.18 C 592.406 1340.79 592.63 1341.41 592.854 1342.02 C 591.268 1377.45 587.621 1413.42 591.099 1448.83 C 591.753 1455.47 594.197 1473.29 592.062 1477.35 C 573.239 1478.14 564.789 1440.51 569.378 1426.08 C 570.326 1423.1 572.813 1412.56 571.99 1410.32 L 570.66 1410.65 C 564.994 1421.89 561.302 1470.01 562.695 1483.44 C 564.056 1496.56 578.91 1514.06 561.174 1528.33 C 556.761 1531.89 555.146 1531.86 549.563 1531.54 C 516.071 1529.56 506.139 1486.74 507.625 1459.52 C 508.138 1451.84 511.501 1442.11 512.276 1433.57 L 511.517 1432.8 C 505.371 1441.44 505.494 1450.33 504.538 1460.75 C 501.759 1482.05 508.873 1502.97 520.787 1520.38 C 487.815 1508.58 480.81 1487.79 482.124 1454.45 C 482.451 1446.15 485.466 1438.25 485.561 1429.56 C 484.433 1430.71 484.469 1430.47 483.852 1432.06 C 474.866 1455.27 478.653 1476.57 486.586 1498.54 L 485.638 1498.04 C 473.048 1491.24 465.205 1480.86 461.265 1466.92 C 450.224 1427.86 472.638 1384.85 493.524 1353.1 C 498.844 1345.01 512.509 1330.86 515.072 1322.5 C 518.592 1311.01 520.551 1297.01 524.364 1285.14 C 536.097 1248.59 549.97 1207.68 568.572 1174.12 C 596.218 1172.05 614.407 1168.36 640.783 1159.21 z" fill="rgb(47,86,74)" transform="translate(0,0)"></path>
<path d="M 1673.19 1019.18 C 1713.42 1014.53 1701.76 1069.35 1656.98 1083.35 L 1653.85 1131.3 C 1641.96 1141.41 1639.06 1140.67 1627.41 1148.11 L 1628.07 1148.98 C 1637.5 1148.97 1647.25 1140.02 1654.19 1134.31 C 1652.94 1155.11 1651.69 1185.39 1648.68 1205.25 C 1638.02 1210.86 1622.6 1222.31 1611.09 1228.87 C 1561.86 1256.93 1523.89 1276.14 1465.9 1272.41 L 1460.54 1260.24 C 1442.71 1217.63 1428.23 1187.47 1407.34 1146.33 C 1432.64 1163.49 1462.81 1172 1493.35 1170.59 C 1525.67 1168.92 1573.98 1142.28 1595.32 1118.69 C 1599.82 1076.54 1611.49 1055.94 1648.21 1035.68 C 1656.29 1031.22 1664.12 1023.93 1673.19 1019.18 z" fill="rgb(47,86,74)" transform="translate(0,0)"></path>
<path d="M 1740.92 807.673 C 1745.88 812.034 1757.34 821.569 1761.38 825.981 C 1744.02 845.623 1742.37 843.206 1729.97 868.878 C 1751.54 876.149 1773.77 887.144 1788.61 904.973 C 1789.18 905.312 1789.13 905.419 1789.6 906.105 C 1822.27 944.616 1829.71 998.593 1766.53 1006.93 C 1722.92 1012.69 1694.14 1007.74 1652.58 995.678 C 1606.11 982.19 1576.59 955.503 1613.39 908.633 C 1631.71 885.634 1662.25 869.536 1692.04 866.625 C 1693.09 865.955 1693.47 865.998 1694.69 866.273 L 1708.86 865.646 C 1713.19 839.407 1721.59 825.88 1740.92 807.673 z" fill="rgb(149,79,67)" transform="translate(0,0)"></path>
<path d="M 1692.04 866.625 C 1693.09 865.955 1693.47 865.998 1694.69 866.273 C 1693.57 866.934 1693.55 866.755 1692.04 866.625 z" fill="rgb(83,35,28)" transform="translate(0,0)"></path>
<path d="M 1766.97 902.676 C 1784.31 903.602 1794.18 922.973 1791.71 938.656 C 1781.81 939.9 1785.22 937.228 1781.33 928.4 C 1778.75 922.548 1776.69 918.814 1772.68 913.84 C 1769.54 909.961 1766.76 909.313 1766.95 904.569 L 1766.97 902.676 z" fill="rgb(5,4,4)" transform="translate(0,0)"></path>
<path d="M 1769.36 905.697 C 1774.21 906.128 1775.22 906.767 1779.01 910.482 C 1786.07 917.303 1790.05 926.705 1790.02 936.523 C 1782.41 934.601 1784.86 926.099 1779.54 918.881 C 1776.13 914.24 1772.7 910.156 1769.36 905.697 z" fill="rgb(254,250,253)" transform="translate(0,0)"></path>
<path d="M 1459.98 1398.74 C 1473.88 1414.31 1505.36 1444.33 1522.47 1456.22 C 1522.59 1455.95 1522.71 1455.69 1522.83 1455.43 L 1523.4 1454.09 C 1526.08 1447.95 1526.52 1445.82 1528.01 1439.42 C 1528.97 1444.02 1528.88 1445.77 1529.21 1450.42 L 1528.96 1460.48 C 1544.15 1470.88 1562.56 1480.98 1578.74 1490.06 C 1579.35 1495.44 1579.9 1500.82 1580.4 1506.21 C 1580.98 1507.39 1580.83 1507.37 1580.75 1508.85 L 1581.34 1523.23 C 1582.45 1525.02 1582.13 1525.35 1581.77 1527.68 C 1581.97 1536.92 1582.11 1546.17 1582.18 1555.41 C 1577.34 1552.56 1564.78 1544.01 1560.26 1545.02 C 1550.62 1555.15 1577.16 1573.92 1580.59 1582.04 C 1581.67 1584.61 1576.72 1603.73 1576.14 1607.63 C 1572.33 1604.89 1566.07 1599.3 1561.33 1600.52 C 1558.97 1606.69 1568.43 1616.27 1572.34 1620.82 C 1571.94 1624.15 1571.06 1629.76 1570.89 1632.91 C 1571.04 1638.11 1570.99 1643.32 1570.76 1648.52 C 1571.14 1653.11 1573.33 1662.96 1574.3 1667.88 C 1551.81 1645.77 1542.17 1644.09 1517.31 1628.19 C 1514.9 1619.69 1513.54 1591.67 1508.18 1588.77 C 1502.64 1592.18 1498.98 1609.73 1497.63 1616.06 C 1486.73 1605.26 1474.52 1596.35 1463.41 1585.81 C 1461.19 1573.24 1462.01 1562.99 1462.54 1550.33 C 1455.79 1558.83 1453.88 1563.76 1449.46 1573.58 C 1444.87 1567.09 1441.31 1562.19 1437.55 1555.23 C 1448.36 1520.68 1453.98 1489.12 1457.36 1453.01 L 1458.12 1449.43 C 1457.48 1442.54 1459.61 1407.56 1459.98 1398.74 z" fill="rgb(133,107,64)" transform="translate(0,0)"></path>
<path d="M 1458.12 1449.43 C 1464.03 1457.19 1476.6 1475.94 1482.64 1481.04 C 1503.77 1498.89 1549.73 1498.59 1571.93 1513.27 C 1540.59 1509.3 1520.4 1499.64 1491.16 1492.75 C 1508.26 1517.89 1522.75 1541.41 1536.13 1568.67 C 1537.34 1571.15 1538.85 1571.24 1541.23 1572.27 C 1539.84 1573.55 1538.48 1573.8 1538.68 1575.39 C 1541.38 1581.3 1560.96 1631.71 1559.75 1634.1 C 1554.77 1628.81 1531.49 1569.87 1524.71 1557.41 C 1516.6 1542.51 1510.22 1530.58 1499.74 1515.32 C 1497.44 1531.24 1489.88 1585.43 1485.35 1596.93 C 1484.34 1594.12 1494.76 1520.01 1496.08 1509.47 C 1489.62 1498.19 1479.4 1485.7 1471.68 1474.82 C 1466.45 1467.46 1462.22 1459.79 1457.36 1453.01 L 1458.12 1449.43 z" fill="rgb(111,84,46)" transform="translate(0,0)"></path>
<path d="M 1541.23 1572.27 C 1544.18 1573.1 1570.48 1587.97 1571.15 1589.62 C 1568.72 1592.31 1544.93 1576.36 1538.68 1575.39 C 1538.48 1573.8 1539.84 1573.55 1541.23 1572.27 z" fill="rgb(111,84,46)" transform="translate(0,0)"></path>
<path d="M 1570.89 1632.91 C 1571.04 1638.11 1570.99 1643.32 1570.76 1648.52 C 1569.65 1642.21 1569.55 1639.13 1570.89 1632.91 z" fill="rgb(80,63,39)" transform="translate(0,0)"></path>
<path d="M 1581.34 1523.23 C 1582.45 1525.02 1582.13 1525.35 1581.77 1527.68 C 1580.77 1525.84 1581.04 1525.4 1581.34 1523.23 z" fill="rgb(80,63,39)" transform="translate(0,0)"></path>
<path d="M 752.079 1574.7 C 753.48 1571.01 767.284 1553.96 770.413 1549.66 C 779.786 1536.78 791.151 1521.62 798.013 1507.3 C 805.643 1509.96 815.754 1513.8 823.417 1515.58 L 824.456 1516.23 C 832.929 1519.19 840.346 1521.59 849.007 1523.8 C 848.755 1537.93 849.178 1552.01 848.883 1565.93 L 849.088 1572.57 L 849.407 1594.01 L 844.23 1602.51 C 841.84 1597.52 838.385 1588.27 833.33 1586.42 C 828.803 1589.82 831.33 1614.36 831.265 1620.92 C 814.858 1634.02 801.466 1642.65 791.106 1660.96 C 785.899 1653.42 781.098 1645.61 776.724 1637.56 C 781.001 1628.02 784.734 1619.19 786.695 1608.85 C 778.139 1615.4 775.664 1618.09 769.225 1626.78 C 766.38 1621.75 762.975 1616.04 760.469 1610.93 C 764.377 1604.35 768.036 1597.63 771.439 1590.79 L 770.83 1589.44 C 761.123 1589.44 758.087 1596.19 753.909 1592.97 C 753.322 1591.71 753.418 1591.85 753.264 1590.36 L 752.707 1583.72 C 750.783 1581.46 751.835 1578.02 752.079 1574.7 z" fill="rgb(133,107,64)" transform="translate(0,0)"></path>
<path d="M 823.417 1515.58 L 824.456 1516.23 C 832.929 1519.19 840.346 1521.59 849.007 1523.8 C 848.755 1537.93 849.178 1552.01 848.883 1565.93 L 849.088 1572.57 C 840.614 1565.62 827.945 1538.06 822.297 1527.11 C 813.387 1559.93 805.377 1590.23 802.468 1624.1 C 802.363 1625.32 801.125 1625.34 800.167 1625.7 C 792.605 1615.65 810.85 1553.15 814.913 1540.51 C 806.309 1549.48 787.396 1570 776.193 1573.59 L 775.731 1572.92 C 779.859 1561.29 811.71 1547.17 823.417 1515.58 z" fill="rgb(111,84,46)" transform="translate(0,0)"></path>
<path d="M 824.456 1516.23 C 832.929 1519.19 840.346 1521.59 849.007 1523.8 C 848.755 1537.93 849.178 1552.01 848.883 1565.93 C 844.411 1564.67 829.907 1532.99 825.702 1528.24 C 822.077 1524.15 822.782 1520.97 824.456 1516.23 z" fill="rgb(133,107,64)" transform="translate(0,0)"></path>
<path d="M 752.079 1574.7 C 752.623 1578.14 753.224 1580.32 752.707 1583.72 C 750.783 1581.46 751.835 1578.02 752.079 1574.7 z" fill="rgb(80,63,39)" transform="translate(0,0)"></path>
<path d="M 1229.33 1514.57 C 1235.4 1511.87 1243.46 1508.02 1249.57 1506.04 C 1261.61 1530.78 1278.7 1552.74 1296.1 1573.97 C 1295.81 1581.49 1295.34 1588.99 1294.68 1596.48 C 1290.46 1593.36 1286.24 1589.31 1281.03 1589.78 C 1276.67 1594.81 1285.65 1606.52 1288.57 1611.31 L 1279.51 1626.23 C 1273.28 1619.62 1269.31 1614.82 1261.81 1609.75 C 1264.58 1618.92 1267.44 1629.05 1271.67 1637.59 C 1266.82 1645.36 1262.1 1653.21 1257.49 1661.12 C 1242.2 1637.44 1232.48 1635.89 1215.77 1618.43 C 1216.13 1611.1 1219.25 1590.32 1216.71 1585.61 C 1211.25 1585.4 1206.98 1597.03 1204.75 1601.58 L 1198.65 1595.01 C 1198.98 1587.82 1199.16 1579.54 1199.89 1572.47 C 1199.49 1555.87 1200.02 1540.98 1199.3 1523.87 C 1206.29 1522.09 1219.05 1518.4 1225.39 1515.39 L 1229.33 1514.57 z" fill="rgb(133,107,64)" transform="translate(0,0)"></path>
<path d="M 1225.39 1515.39 C 1224.2 1526.09 1223.34 1521.21 1227.46 1530.02 C 1217.78 1542.21 1210.68 1559.64 1199.89 1572.47 C 1199.49 1555.87 1200.02 1540.98 1199.3 1523.87 C 1206.29 1522.09 1219.05 1518.4 1225.39 1515.39 z" fill="url(#Gradient1)" transform="translate(0,0)"></path>
<path d="M 1229.33 1514.57 C 1227.24 1541.02 1258.85 1553.49 1273.26 1575.79 L 1272.9 1576.78 L 1273.42 1576.03 L 1273.82 1577.47 C 1267.44 1573.09 1259.04 1563.52 1253.08 1557.96 C 1246.82 1552.13 1240.63 1546.61 1234.22 1540.93 C 1237.29 1553 1249.58 1614.26 1249.55 1625.56 L 1248.43 1626.02 C 1243.72 1619.3 1233.89 1547.22 1227.46 1530.02 C 1223.34 1521.21 1224.2 1526.09 1225.39 1515.39 L 1229.33 1514.57 z" fill="rgb(111,84,46)" transform="translate(0,0)"></path>
<path d="M 1033.72 1548.33 C 1047.57 1547.81 1062.44 1547.38 1076.24 1546.02 C 1076.48 1553.2 1076.75 1577.16 1077.78 1582.73 L 1078.32 1601.66 L 1070.89 1609.71 C 1066.45 1604.65 1061.67 1598.91 1055.66 1595.85 L 1053.72 1596.04 C 1051.18 1601.4 1058.28 1614.11 1060.79 1619.55 C 1037.77 1643.75 1037.89 1646.15 1023.38 1673.52 C 1010.74 1643.91 1006.54 1642.34 987.492 1618.9 C 990.567 1612.86 996.475 1603.28 995.338 1596.98 L 993.654 1596.07 C 986.528 1598.38 982.094 1604.23 976.841 1609.73 C 973.792 1606.17 970.568 1602.51 967.621 1598.89 L 968.157 1585.78 C 969.159 1582.89 969.263 1553.41 970.036 1546.23 C 983.744 1547.27 998.644 1547.54 1012.43 1548.02 C 1019.5 1548 1026.61 1548.3 1033.72 1548.33 z" fill="rgb(133,107,64)" transform="translate(0,0)"></path>
<path d="M 1012.43 1548.02 C 1019.5 1548 1026.61 1548.3 1033.72 1548.33 C 1031.33 1550.53 1020.85 1549.3 1017.22 1549.19 C 1005.52 1563.46 994.522 1578.09 982.143 1591.78 C 981.043 1593 975.805 1597.82 974.791 1593.98 C 975.354 1592.35 980.695 1588.33 982.5 1585.49 C 990.727 1572.53 1002.33 1560.85 1011.77 1548.86 L 1012.43 1548.02 z" fill="rgb(111,84,46)" transform="translate(0,0)"></path>
<path d="M 1679.16 1076.03 L 1679.85 1076.73 C 1680.87 1088.26 1680.76 1089.39 1685.45 1100.2 C 1664.68 1120.64 1675.16 1126.44 1681.76 1143.02 C 1683.81 1148.18 1659.3 1161.62 1688.49 1183.92 C 1678.53 1204.36 1691.15 1213.97 1709.49 1219.54 C 1709.39 1235.38 1709.98 1242.69 1698.44 1254.41 C 1681.62 1266.79 1653.27 1260.53 1651.32 1238.24 C 1649.7 1219.88 1652.49 1197.26 1653.76 1178.55 C 1655.92 1147.66 1657.76 1116.76 1659.3 1085.83 C 1668.06 1083.07 1671.71 1080.92 1679.16 1076.03 z" fill="rgb(222,207,186)" transform="translate(0,0)"></path>
<path d="M 1736.64 1042.16 C 1757.41 1045.98 1776.4 1061.58 1763.24 1084.62 C 1753.48 1101.7 1732.75 1106.23 1714.12 1106.98 C 1696.66 1105.75 1687.44 1104.53 1683.37 1086.68 C 1681.67 1079.21 1682.55 1074.43 1688.47 1068.86 C 1690.83 1066.64 1692.82 1062.64 1695.64 1060.63 C 1705.85 1053.52 1729.38 1051.8 1736.64 1042.16 z" fill="rgb(47,86,74)" transform="translate(0,0)"></path>
<path d="M 1768.75 1080.67 C 1771.55 1082.84 1773.56 1084.6 1774.67 1088.01 C 1789.99 1135.05 1719.48 1159.52 1687.82 1141.67 L 1686.36 1140.89 C 1673.89 1129.68 1674.04 1115.65 1685.99 1104.02 L 1687.31 1102.67 C 1717.05 1118.14 1751.47 1110.12 1768.75 1080.67 z" fill="rgb(47,86,74)" transform="translate(0,0)"></path>
<path d="M 1768.89 1127.98 C 1776.18 1138.78 1772.22 1156.81 1763.99 1165.99 C 1747.15 1184.8 1707.42 1191.83 1686.06 1177.93 C 1676.81 1168.09 1673.97 1156.95 1685.2 1145.55 C 1686.94 1143.78 1693.94 1147.37 1696.54 1147.93 C 1723.55 1153.83 1749.29 1147.87 1768.89 1127.98 z" fill="rgb(47,86,74)" transform="translate(0,0)"></path>
<path d="M 1761.04 1173.18 C 1766.74 1179.23 1762.81 1193.74 1758.3 1199.57 C 1742.94 1219.44 1715.97 1222.63 1695.04 1210.57 C 1690.49 1205.62 1686.8 1198.8 1688.25 1192.03 C 1689.64 1185.58 1691.05 1184.57 1696.53 1185.85 C 1719.68 1191.26 1741.6 1186.64 1761.04 1173.18 z" fill="rgb(47,86,74)" transform="translate(0,0)"></path>
<path d="M 1663.24 1001.46 C 1688.35 1007.89 1709.46 1011.86 1735.67 1012.14 C 1734.59 1022.95 1733.32 1033.62 1731.27 1044.32 C 1726.16 1046.39 1723.35 1047.17 1718.36 1048.9 L 1717.41 1049.24 C 1710.3 1051.41 1703.26 1053.8 1696.3 1056.4 C 1697.8 1052.38 1700.21 1046.71 1700.16 1042.5 C 1699.83 1015.24 1681.15 1011.03 1661.74 1022.76 C 1661.98 1014.32 1662.29 1009.85 1663.24 1001.46 z" fill="rgb(222,207,186)" transform="translate(0,0)"></path>
<path d="M 1484.46 1129.53 C 1516.71 1131.78 1548.51 1132.36 1580.12 1124.19 L 1583.45 1127.13 C 1569.23 1138.52 1548.8 1151.23 1531.77 1158 C 1522.97 1153.26 1491.65 1135.13 1484.46 1129.53 z" fill="rgb(254,250,253)" transform="translate(0,0)"></path>
<path d="M 1512.48 1150.28 C 1515.61 1151.34 1525.62 1157.42 1528.77 1159.31 C 1523.48 1161.53 1518.03 1163.35 1512.47 1164.74 L 1505.8 1166.44 C 1502.14 1167.01 1499.29 1167.34 1495.57 1168.02 C 1493.85 1164.59 1492.1 1161.18 1490.3 1157.79 C 1497.17 1155.77 1506.23 1153.36 1512.48 1150.28 z" fill="rgb(133,107,64)" transform="translate(0,0)"></path>
<path d="M 1528.01 1439.42 C 1528.03 1437.22 1529.24 1429.58 1530.55 1427.8 C 1531.33 1428.61 1529.43 1448.75 1529.21 1450.42 C 1528.88 1445.77 1528.97 1444.02 1528.01 1439.42 z" fill="rgb(81,78,62)" transform="translate(0,0)"></path>
<path d="M 1580.12 1124.19 C 1586.71 1122.66 1590.78 1120.12 1583.45 1127.13 L 1580.12 1124.19 z" fill="rgb(229,228,229)" transform="translate(0,0)"></path>
<metadata><recraft-signature>{"signed_by": "recraft", "signature_b64": "aMJehBjH/B1ULwNqeoI+/SHv95qd97vIIgtR4Hvw3ls4YtVvzRFaocJv8PnL/uB/kgv4Ih6M2ZlzSmvtfXfHDw==", "signing_algo": "Ed25519", "generation_timestamp": 1777421938, "identifier": "c67a31c8-881f-44b8-9813-bdf2681a8573"}</recraft-signature></metadata></svg>