<svg xmlns="http://www.w3.org/2000/svg" height="1024" preserveAspectRatio="none" style="display: block;" version="1.1" viewBox="0 0 2048 2048" width="1024">
<defs>
	<linearGradient gradientUnits="userSpaceOnUse" id="Gradient1" x1="1126.28" x2="1128.82" y1="367.593" y2="354.97">
		<stop class="stop0" offset="0" stop-color="rgb(227,225,242)" stop-opacity="1"></stop>
		<stop class="stop1" offset="1" stop-color="rgb(255,255,255)" stop-opacity="1"></stop>
	</linearGradient>
</defs>
<path d="M 0 0 L 2048 0 L 2048 2048 L 0 2048 L 0 0 z" fill="rgb(255,255,255)" transform="translate(0,0)"></path>
<path d="M 965.593 420.886 C 972.705 413.064 980.65 403.924 987.999 396.291 C 989.481 394.752 994.027 395.077 995.381 393.511 C 1004 383.546 1012.54 373.466 1021.67 363.999 C 1045.13 339.382 1070.42 316.58 1097.33 295.787 C 1119.08 279.124 1144.04 265.862 1165.29 249.407 C 1181.11 237.162 1182.64 204.553 1205.03 196.318 C 1235.23 181.124 1275.07 190.851 1303.75 175.424 C 1335.26 158.469 1347.74 132.277 1388.11 131.447 C 1407.15 131.056 1431.74 132.602 1446.45 146.525 C 1458.36 158.11 1466.07 172.537 1475.66 186.205 C 1497.83 217.827 1532.3 246.097 1572.69 246.702 C 1594.21 247.025 1612.67 229.669 1612.85 207.81 C 1612.92 198.274 1605.79 182.223 1594.04 183.986 C 1590.01 184.494 1587.33 188.568 1583.5 188.176 L 1582.83 186.989 C 1587.28 175.926 1597.26 173.246 1607.57 178.145 C 1632.38 189.933 1636.15 226.082 1624.37 248.308 C 1611.74 272.165 1571.37 287.149 1546.55 275.253 C 1533.63 269.059 1525.62 272.042 1512.43 274.571 C 1507.51 275.539 1502.89 275.618 1497.81 275.443 C 1488.23 270.533 1477.48 259.79 1470.49 252.275 C 1446.68 226.673 1429.28 226.297 1397.68 237.362 C 1390.19 239.593 1376.11 240.885 1368 243.448 C 1361.56 245.487 1358.12 246.81 1354.94 252.944 C 1350.93 260.678 1349.92 269.893 1344.62 276.822 C 1332.59 292.539 1308.62 289.979 1297.02 306.307 C 1287.58 319.606 1293.87 339.361 1288.69 351.621 C 1279.91 372.407 1262.89 380.979 1260.46 406.417 C 1258.51 426.708 1272.12 440.251 1268.33 458.358 C 1266.85 465.415 1259.65 473.393 1254.5 478.515 C 1235.52 497.405 1231.55 516.539 1229.38 542.566 C 1233.56 547.699 1243.65 559.022 1242.43 565.496 C 1241.09 572.636 1238.3 570.596 1238.29 580.998 C 1238.28 593.896 1239.61 606.203 1240.02 618.91 C 1293.16 653.419 1346.5 684.688 1406.53 706.051 C 1423.07 712.007 1439.91 717.086 1456.99 721.269 C 1484.31 727.757 1596.15 740.547 1559.31 786.753 C 1525.87 828.696 1440.61 855.517 1389.31 864.219 C 1318.39 875.838 1245.78 871.721 1176.63 852.158 C 1187.15 862.697 1189.5 865.056 1204.05 867.383 C 1192.84 888.094 1174.17 890.605 1152.72 892.18 C 1167.67 950.93 1182.82 1010.03 1213.63 1063.12 C 1218.07 1060.8 1226.73 1054.94 1231.62 1051.93 C 1247.91 1041.92 1261.48 1036.04 1279.66 1030.62 C 1332.78 1014.75 1395.55 1032.43 1442.75 1001.85 C 1499.31 965.219 1482.56 890.161 1544.21 859.244 C 1555.79 853.435 1578.46 845.88 1591 849.958 C 1597.21 857.471 1582.07 871.324 1577 876.686 C 1606.49 869.07 1626.03 833.269 1632.4 805.573 C 1652.02 721.423 1630.53 632.954 1574.5 567.178 C 1567.11 558.506 1561.18 552.708 1552.13 545.818 C 1546.77 541.74 1538.62 539.985 1535.78 535.471 C 1536.21 533.825 1536.87 531.358 1538.87 531.275 C 1607.58 528.421 1676.02 634.864 1694.55 682.96 C 1697.67 680.662 1696.64 677.584 1697.15 673.515 L 1697.19 672.184 C 1697.95 628.157 1681.13 570.259 1660.07 532.434 C 1657.74 528.258 1648.49 514.495 1648.13 510.903 L 1649.46 510.206 C 1671.66 521.431 1726.47 601.4 1738.85 624.024 C 1751.32 647.114 1761.83 671.204 1770.29 696.043 C 1794.53 769.512 1790.05 833.578 1771.51 907.216 C 1792.15 892.915 1803.49 873.621 1813.18 851.428 C 1814.21 849.077 1815.68 848.081 1817.93 847.159 C 1824.04 852.363 1827.8 888.616 1828.56 897.456 C 1836.04 984.248 1798.58 1054.44 1755.37 1126.15 C 1751.87 1131.95 1740.6 1151.48 1745.76 1157.38 C 1750.72 1158.13 1755.6 1154.45 1759.58 1151.55 C 1766.24 1146.58 1772.52 1141.11 1778.35 1135.18 C 1783.7 1129.73 1801.4 1106.91 1806.59 1106.11 C 1808.63 1107.67 1809.19 1108.83 1809.22 1111.54 C 1810.55 1232.34 1719.65 1342.7 1614.43 1393.43 C 1607.85 1396.6 1583.29 1409 1581.57 1414.96 C 1583.63 1427.33 1605.06 1427.61 1614.22 1425.22 C 1626.99 1421.9 1638.82 1417.54 1650.72 1411.79 C 1661.02 1408.14 1687.91 1388.55 1693.98 1389.12 C 1696.13 1394.83 1675.51 1433.56 1671.43 1439.36 C 1582.8 1565.54 1502.36 1621.34 1347.12 1570.73 C 1364.72 1595.55 1392.36 1610.49 1421.08 1616.38 C 1423.52 1616.88 1425.51 1617.87 1426.87 1619.93 C 1424.91 1623.43 1421.25 1623.82 1417.5 1625.03 C 1397.27 1631.53 1374.95 1628.07 1354.81 1632.51 C 1347.41 1634.14 1336.62 1650.31 1330.12 1654.8 C 1299.64 1676.91 1247.57 1674.55 1215.63 1656.78 C 1206.03 1651.44 1198.13 1644.12 1190.5 1636.87 C 1183.97 1641.35 1180.02 1644 1173.04 1647.61 C 1172.91 1701.47 1143.34 1766.94 1109.5 1808.42 C 1064.6 1863.33 999.652 1898.07 929.055 1904.94 C 859.252 1911.94 789.593 1890.34 735.987 1845.09 C 708.307 1822.04 686.339 1792.9 671.8 1759.94 C 669.132 1753.95 664.614 1743 664.049 1736.58 L 665.381 1735.18 C 671.833 1736.5 683.424 1750.17 689.57 1755.6 C 727.557 1789.72 777.663 1807.13 828.618 1803.92 C 870.336 1801.14 913.705 1782.21 944.114 1753.65 C 953.772 1744.58 964.638 1731.65 973.629 1721.41 L 961.694 1729.07 C 955.391 1722.5 952.476 1718.16 947.102 1710.6 C 937.791 1722.54 926.442 1737.3 914.988 1746.84 C 898.402 1760.59 864.872 1777.14 842.983 1773.25 C 796.774 1765.04 819.398 1737.11 844.306 1722.83 C 866.53 1710.1 881.679 1672.73 885.784 1648.97 C 846.38 1649.61 816.352 1650.25 787.859 1618.11 C 759.726 1633.55 723.444 1646.18 691.033 1646.21 C 674.118 1646.09 657.318 1643.42 641.204 1638.27 C 597.498 1624.6 558.185 1597.25 513.67 1584.93 C 507.306 1583.17 498.189 1583.03 498.222 1575.58 C 502.467 1571.8 542.96 1569.38 553.988 1565.9 C 572.481 1560.07 580.437 1559.77 598.25 1548.62 C 584.848 1546.65 570.784 1547.1 556.685 1546.25 C 491.843 1542.32 401.348 1532.78 373.847 1463.21 C 369.914 1453.27 368.061 1440.04 360.178 1432.34 C 340.816 1413.43 312.232 1401.8 300.963 1375.77 C 293.624 1358.99 292.539 1338.75 298.45 1321.26 C 299.37 1318.54 300.563 1317.86 302.94 1316.9 C 310.099 1321.59 315.374 1329.86 321.659 1335.29 C 336.563 1348.17 364.763 1365.93 385.55 1361.16 C 392.011 1355.95 383.758 1347.28 379.291 1343.11 C 338.389 1304.97 295.582 1273.2 263.474 1226.47 C 228.95 1176.23 212.859 1122.23 223.978 1061.35 C 224.956 1056.01 226.311 1047.9 230.9 1044.7 C 233.716 1045 235.858 1046.63 236.684 1049.33 C 244.95 1076.33 249.65 1098.28 273.518 1116.78 C 267.282 1078.02 276.982 1052.89 274.931 1016.15 C 274.114 1001.52 258.244 970.128 250.764 955.618 C 226.526 909.15 221.005 847.349 232.305 795.765 C 254.449 694.683 307.979 594.485 396.032 536.161 C 399.323 533.982 405.676 529.502 409.447 530.269 C 409.262 533.524 394.898 546.267 391.54 549.711 C 373.835 567.799 358.7 588.233 346.557 610.441 C 304.9 685.282 296.014 784.038 319.206 866.092 C 325.33 854.462 330.554 835.392 334.23 822.356 C 344.379 786.367 359.541 752.806 383.91 724.149 C 389.825 717.155 399.165 706.798 407.696 703.386 L 410.006 703.524 L 411.023 704.682 C 407.658 721.633 399.226 742.816 394.491 759.97 C 376.694 824.454 374.761 883.244 413.695 940.661 C 433.974 970.566 462.575 996.858 498.975 1004.22 C 501.98 1004.79 505 1005.29 508.031 1005.72 C 503.748 997.871 495.357 987.117 495.321 979.527 C 502.446 965.546 544.191 986.449 553.471 992.185 C 576.946 1006.69 591.598 1026.52 606.704 1048.96 C 637.453 1089.59 674.029 1089.37 718.78 1083.69 C 699.401 1045.69 706.096 981.576 711.669 940.096 C 703.979 933.166 698.917 925.87 692.835 917.539 C 685.851 917.725 679.409 918.165 674.332 912.747 C 665.868 903.715 669.385 895.511 675.847 887.996 C 667.949 888.26 666.006 888.707 658.117 887.657 C 658.183 887.975 658.245 888.293 658.314 888.61 C 660.594 899.031 679.796 943.201 676.5 948.37 C 675.246 950.337 672.16 952.966 669.735 953.181 C 667.138 953.41 665.016 952.499 662.985 950.912 C 657.807 946.864 632.629 876.694 629.293 866.778 C 608.512 872.14 600.051 866.867 590.959 848.498 C 589.424 845.988 586.06 843.521 585.087 840.806 C 583.596 836.649 585.23 829.068 584.065 825.24 C 580.705 814.195 575.982 813.143 582.937 801.417 C 580.483 797.985 576.984 793.783 576.036 789.571 C 571.402 768.993 589.986 775.118 594.893 771.821 C 592.081 759.088 569.064 697.133 562.958 685.619 C 557.027 692.047 545.063 707.517 538.257 710.128 C 537.093 709.822 536.336 709.996 536.004 708.767 C 532.187 694.632 532 679.431 528.266 665.118 C 520.613 662.021 494.541 653.19 490.177 646.144 C 489.434 644.944 490.233 644.026 490.86 642.378 C 496.079 637.336 520.701 625.869 528.546 621.956 C 529.285 611.156 528.354 585.064 531.901 577.422 L 533.85 576.375 C 540.264 578.585 558.896 601.958 565.046 608.597 C 578.884 605.782 592.752 603.113 606.646 600.59 C 573.83 559.485 532.854 508.225 539.121 452.041 C 541.078 434.503 549.048 420.255 562.828 409.254 C 590.705 386.997 631.48 382.45 665.801 386.479 C 689.379 389.247 713.121 395.782 735.85 402.509 C 759.577 409.532 923.676 467.825 933.558 460.053 C 935.215 458.749 935.629 457.68 936.424 455.801 C 934.71 449.092 925.287 452.115 919.916 447.367 C 919.34 439.704 936.436 432.991 942.873 429.569 C 946.06 422.67 947.55 407.483 952.327 403.978 C 959.091 404.908 962.612 415.092 965.593 420.886 z" fill="rgb(6,38,68)" transform="translate(0,0)"></path>
<path d="M 1697.15 673.515 L 1697.19 672.184 C 1697.95 628.157 1681.13 570.259 1660.07 532.434 C 1657.74 528.258 1648.49 514.495 1648.13 510.903 L 1649.46 510.206 C 1671.66 521.431 1726.47 601.4 1738.85 624.024 C 1751.32 647.114 1761.83 671.204 1770.29 696.043 C 1794.53 769.512 1790.05 833.578 1771.51 907.216 C 1792.15 892.915 1803.49 873.621 1813.18 851.428 C 1814.21 849.077 1815.68 848.081 1817.93 847.159 C 1824.04 852.363 1827.8 888.616 1828.56 897.456 C 1836.04 984.248 1798.58 1054.44 1755.37 1126.15 C 1751.87 1131.95 1740.6 1151.48 1745.76 1157.38 C 1750.72 1158.13 1755.6 1154.45 1759.58 1151.55 C 1766.24 1146.58 1772.52 1141.11 1778.35 1135.18 C 1783.7 1129.73 1801.4 1106.91 1806.59 1106.11 C 1808.63 1107.67 1809.19 1108.83 1809.22 1111.54 C 1810.55 1232.34 1719.65 1342.7 1614.43 1393.43 C 1607.85 1396.6 1583.29 1409 1581.57 1414.96 C 1583.63 1427.33 1605.06 1427.61 1614.22 1425.22 C 1626.99 1421.9 1638.82 1417.54 1650.72 1411.79 C 1661.02 1408.14 1687.91 1388.55 1693.98 1389.12 C 1696.13 1394.83 1675.51 1433.56 1671.43 1439.36 C 1582.8 1565.54 1502.36 1621.34 1347.12 1570.73 C 1364.72 1595.55 1392.36 1610.49 1421.08 1616.38 C 1423.52 1616.88 1425.51 1617.87 1426.87 1619.93 C 1424.91 1623.43 1421.25 1623.82 1417.5 1625.03 C 1397.27 1631.53 1374.95 1628.07 1354.81 1632.51 C 1347.41 1634.14 1336.62 1650.31 1330.12 1654.8 C 1299.64 1676.91 1247.57 1674.55 1215.63 1656.78 C 1206.03 1651.44 1198.13 1644.12 1190.5 1636.87 C 1203.03 1626.59 1206.64 1618.33 1212.88 1603.76 C 1219.13 1607.13 1225.56 1610.79 1232.07 1613.53 C 1260.98 1625.7 1298.04 1620.7 1309.69 1587.31 C 1316.61 1567.5 1314.93 1553.09 1306.62 1534.38 C 1321.06 1536.93 1331.36 1537.7 1345.94 1534.98 C 1394.79 1525.87 1443.93 1483.96 1433.88 1430.38 C 1485.36 1426.96 1542.97 1384.53 1579.53 1348.35 C 1614.95 1311.7 1652.92 1245.7 1653.13 1193.1 C 1653.38 1133.56 1588.96 1123.76 1543.63 1125.12 C 1615.83 1085.89 1680.61 984.243 1705.55 907.716 C 1707.4 902.022 1712.91 886.392 1713 881.236 C 1710.55 880.922 1708.63 887.864 1707.79 890.162 C 1675.16 979.402 1611.67 1060.09 1532.21 1112.28 C 1520.25 1120.13 1507.55 1126.03 1495.24 1132.95 C 1524.95 1127.55 1582.02 1128.76 1610.03 1138.53 C 1607.25 1140.16 1606.02 1140.16 1602.95 1140.97 C 1518.39 1144.12 1469.94 1232.72 1403.46 1268.72 C 1363.37 1290.44 1322.5 1297 1278.03 1288.71 C 1163.97 1269.82 1116.47 1166.24 1048.95 1087.74 C 1036.35 1073.09 1018.87 1056.02 999.372 1050.59 C 1008.29 1048.37 1017.23 1045.53 1026.29 1043.08 C 1067.42 1031.94 1116.74 1060.89 1151.3 1081.22 C 1159.71 1086.17 1168.31 1093.59 1177.2 1098.95 L 1178.25 1099.58 C 1177.32 1098.48 1176.38 1097.38 1175.42 1096.3 C 1140.63 1056.69 1107.92 1039.74 1056.31 1036.5 C 1076.38 1009.18 1128.7 1021.97 1156.06 1029.08 C 1154.34 1028.03 1152.59 1027.02 1150.82 1026.05 C 1120.05 1009.43 1095.42 1009.42 1063.51 1019.1 C 1073.08 998.807 1084.4 986.634 1100.21 971.124 C 1105.01 966.412 1121.94 954.966 1123.08 952.496 L 1121.96 951.51 C 1106.43 953.19 1079.14 979.89 1070.18 992.95 C 1073.49 956.388 1086.39 924.197 1105.11 893.082 C 1092.51 901.27 1089.1 910.952 1082.5 923.999 C 1081.11 914.813 1080.89 898.65 1078.46 890.947 C 1075.07 896.747 1076.95 923.262 1079.14 930.587 C 1064.78 961.786 1056.94 999.813 1020.96 1013.28 C 995.043 1022.97 968.621 1016.52 944.295 1006.04 C 904.935 989.533 878.996 948.825 906.793 909.162 C 913.213 900.002 929.847 877.434 925.334 865.471 L 923.55 865.034 C 920.162 870.176 919.525 880.767 916.273 886.898 C 910.887 897.049 901.37 904.794 896.694 915.266 C 892.662 924.296 891.07 934.575 888.604 944.003 C 879.184 980.011 875.491 992.882 845.096 1013.67 C 845.108 992.665 839.497 967.189 831.396 947.507 C 829.833 943.708 820.53 929.157 817.823 924.712 L 818.61 922.621 C 831.815 917.65 850.756 946.586 856.399 955.751 L 859.141 955.053 C 853.625 936.86 847.404 927.181 830.254 917.982 L 828.475 917.037 C 855.021 900.357 874.692 884.22 898.269 863.344 C 915.058 848.478 933.672 828.558 952.843 818.027 C 950.267 831.518 947.853 843.799 948.101 857.356 C 949.59 938.939 1045.23 886.178 1078.32 860.033 C 1090.48 850.419 1101.51 841.496 1113.03 832.01 C 1125.9 837.573 1131.22 840.833 1136.38 855.138 C 1147.85 886.918 1152.11 918.229 1161.89 950.604 C 1179.64 1009.36 1216.73 1109.29 1273.57 1139.12 C 1315.58 1161.16 1383.44 1141.19 1424.87 1125.75 C 1433.01 1122.71 1462.45 1111.23 1467.2 1105.41 C 1465.18 1104.81 1446.65 1112.4 1443.09 1113.52 C 1385.68 1131.56 1321.21 1140.51 1265.16 1112.87 C 1247.04 1103.94 1229.56 1092.98 1220.05 1074.36 C 1216.93 1070.61 1215.72 1067.49 1213.63 1063.12 C 1218.07 1060.8 1226.73 1054.94 1231.62 1051.93 C 1247.91 1041.92 1261.48 1036.04 1279.66 1030.62 C 1332.78 1014.75 1395.55 1032.43 1442.75 1001.85 C 1499.31 965.219 1482.56 890.161 1544.21 859.244 C 1555.79 853.435 1578.46 845.88 1591 849.958 C 1597.21 857.471 1582.07 871.324 1577 876.686 C 1606.49 869.07 1626.03 833.269 1632.4 805.573 C 1652.02 721.423 1630.53 632.954 1574.5 567.178 C 1567.11 558.506 1561.18 552.708 1552.13 545.818 C 1546.77 541.74 1538.62 539.985 1535.78 535.471 C 1536.21 533.825 1536.87 531.358 1538.87 531.275 C 1607.58 528.421 1676.02 634.864 1694.55 682.96 C 1697.67 680.662 1696.64 677.584 1697.15 673.515 z" fill="rgb(94,72,186)" transform="translate(0,0)"></path>
<path d="M 1577 876.686 C 1606.49 869.07 1626.03 833.269 1632.4 805.573 C 1652.02 721.423 1630.53 632.954 1574.5 567.178 C 1567.11 558.506 1561.18 552.708 1552.13 545.818 C 1546.77 541.74 1538.62 539.985 1535.78 535.471 C 1536.21 533.825 1536.87 531.358 1538.87 531.275 C 1607.58 528.421 1676.02 634.864 1694.55 682.96 C 1695.39 686.874 1695.75 688.791 1697.86 691.961 C 1705.43 876.334 1513.41 1085.32 1328.14 1093.67 C 1287.58 1095.5 1257.53 1086 1220.05 1074.36 C 1216.93 1070.61 1215.72 1067.49 1213.63 1063.12 C 1218.07 1060.8 1226.73 1054.94 1231.62 1051.93 C 1247.91 1041.92 1261.48 1036.04 1279.66 1030.62 C 1332.78 1014.75 1395.55 1032.43 1442.75 1001.85 C 1499.31 965.219 1482.56 890.161 1544.21 859.244 C 1555.79 853.435 1578.46 845.88 1591 849.958 C 1597.21 857.471 1582.07 871.324 1577 876.686 z" fill="rgb(163,142,205)" transform="translate(0,0)"></path>
<path d="M 1564.47 883.737 C 1564.82 884.085 1565.48 884.7 1565.7 885.122 C 1570.7 894.819 1576.72 899.781 1585.51 905.766 C 1570.88 918.726 1573.97 919.039 1567.46 935.381 C 1562.4 931.929 1561.78 924.95 1558 919.537 C 1554.03 913.858 1552.1 913.051 1546.84 908.751 C 1558.92 899.51 1558.95 898.034 1564.47 883.737 z" fill="rgb(255,255,255)" transform="translate(0,0)"></path>
<path d="M 1507.43 964.644 C 1509.41 968.823 1509.88 971.953 1512.33 976.498 C 1507.56 980.42 1504.97 982.78 1500.47 987.027 C 1498.15 983.728 1497.34 979.244 1496.09 975.382 L 1495.78 974.435 L 1507.43 964.644 z" fill="rgb(255,255,255)" transform="translate(0,0)"></path>
<path d="M 1543.05 940.867 C 1544.47 941.887 1548.17 948.883 1549.85 951.189 C 1543.57 955.741 1543.68 955.547 1538.31 961.244 C 1535.73 962.409 1534.24 952.781 1533.55 950.578 L 1533.08 949.101 C 1537.58 945.965 1539.24 944.872 1543.05 940.867 z" fill="rgb(255,255,255)" transform="translate(0,0)"></path>
<path d="M 1662.18 675.958 C 1663.98 677.477 1674.28 685.905 1671.62 687.499 C 1668.4 689.435 1667.63 693.983 1666.35 697.387 C 1663.69 695.248 1658.96 691.266 1656.4 688.947 C 1658.56 684.291 1660.35 680.882 1662.18 675.958 z" fill="rgb(255,255,255)" transform="translate(0,0)"></path>
<path d="M 1628.34 602.7 C 1631.98 607.036 1632.12 608.285 1636.98 612.124 L 1638.42 613.31 L 1637.71 614.296 C 1634.71 618.353 1633.98 619.713 1631.82 624.445 C 1627.54 619.605 1627.4 618.65 1621.77 614.771 C 1624 610.771 1626.19 606.747 1628.34 602.7 z" fill="rgb(255,255,255)" transform="translate(0,0)"></path>
<path d="M 1697.15 673.515 C 1697.84 679.686 1697.73 685.752 1697.86 691.961 C 1695.75 688.791 1695.39 686.874 1694.55 682.96 C 1697.67 680.662 1696.64 677.584 1697.15 673.515 z" fill="rgb(250,248,251)" transform="translate(0,0)"></path>
<path d="M 856.399 955.751 L 859.141 955.053 C 859.545 955.962 860.737 958.602 860.335 959.501 C 860.276 959.636 860.153 959.731 860.008 959.754 C 858.764 959.946 856.857 956.414 856.399 955.751 z" fill="rgb(19,37,61)" transform="translate(0,0)"></path>
<path d="M 1219.47 1146.74 C 1221.55 1147.39 1251.29 1172.66 1257.6 1176.79 C 1309.68 1210.77 1374.37 1218.86 1432.79 1196.98 C 1438.2 1194.96 1443.58 1191.27 1449.09 1190.06 C 1448.21 1192.68 1445.05 1194.24 1442.56 1195.95 C 1434.11 1201.77 1425.08 1206.73 1415.62 1210.74 C 1346.72 1240.2 1277.25 1217.78 1230.39 1161.5 C 1226.64 1156.99 1221.7 1152.1 1219.47 1146.74 z" fill="rgb(6,38,68)" transform="translate(0,0)"></path>
<path d="M 1543.86 1138.31 C 1549.54 1137.54 1553.69 1137.93 1559.37 1138.19 C 1551.64 1140.78 1543.79 1142.33 1535.98 1145.21 C 1521.06 1150.71 1506.77 1158.41 1493.81 1167.62 C 1485.61 1173.44 1479.11 1182.17 1470.37 1187.48 C 1479.36 1171.38 1483.77 1168.39 1498.57 1157.22 C 1460.24 1166.2 1444.13 1174.66 1402.25 1177.55 C 1390.6 1178.49 1353.02 1176.34 1344.44 1170.3 C 1347.19 1169.23 1366.91 1172.61 1372.13 1172.98 C 1385.49 1173.94 1398.91 1173.51 1412.17 1171.67 C 1440.12 1168 1465.04 1160.94 1491.89 1152.64 C 1508.56 1147.49 1526.88 1141.44 1543.86 1138.31 z" fill="rgb(255,255,255)" transform="translate(0,0)"></path>
<path d="M 1081.64 1075.67 C 1108.8 1084.89 1164.34 1191.92 1192.61 1212.05 C 1195.26 1213.93 1201.36 1218.4 1203.47 1220.46 L 1203.44 1223.87 C 1201.25 1224.81 1202.06 1224.53 1199.57 1224.64 C 1174.29 1213.97 1133.42 1141.01 1115.39 1116.64 C 1105.35 1103.06 1090.51 1087.67 1081.64 1075.67 z" fill="rgb(255,255,255)" transform="translate(0,0)"></path>
<path d="M 1217.81 1239.7 C 1221.72 1241.63 1226.59 1245.46 1230.74 1248.32 C 1239.39 1254.26 1249.89 1257.19 1258.57 1262.56 C 1259.65 1263.23 1258.49 1267.89 1258.43 1268.21 C 1243.18 1264.13 1227.63 1257.06 1216.87 1244.97 C 1215.83 1243.81 1217.37 1240.78 1217.81 1239.7 z" fill="rgb(255,255,255)" transform="translate(0,0)"></path>
<path d="M 273.518 1116.78 C 267.282 1078.02 276.982 1052.89 274.931 1016.15 C 274.114 1001.52 258.244 970.128 250.764 955.618 C 226.526 909.15 221.005 847.349 232.305 795.765 C 254.449 694.683 307.979 594.485 396.032 536.161 C 399.323 533.982 405.676 529.502 409.447 530.269 C 409.262 533.524 394.898 546.267 391.54 549.711 C 373.835 567.799 358.7 588.233 346.557 610.441 C 304.9 685.282 296.014 784.038 319.206 866.092 C 325.33 854.462 330.554 835.392 334.23 822.356 C 344.379 786.367 359.541 752.806 383.91 724.149 C 389.825 717.155 399.165 706.798 407.696 703.386 L 410.006 703.524 L 411.023 704.682 C 407.658 721.633 399.226 742.816 394.491 759.97 C 376.694 824.454 374.761 883.244 413.695 940.661 C 433.974 970.566 462.575 996.858 498.975 1004.22 C 501.98 1004.79 505 1005.29 508.031 1005.72 C 503.748 997.871 495.357 987.117 495.321 979.527 C 502.446 965.546 544.191 986.449 553.471 992.185 C 576.946 1006.69 591.598 1026.52 606.704 1048.96 C 637.453 1089.59 674.029 1089.37 718.78 1083.69 C 730.043 1099.73 740.7 1106.81 760.933 1103.69 C 768.336 1101.11 806.17 1082.71 806.888 1082.71 L 809.013 1085.88 C 729.566 1131.84 685.079 1193.7 584.025 1181.59 C 599.834 1197.53 625.499 1208.35 647.913 1208.26 C 679.581 1208.13 705.166 1191 728.475 1171.73 C 706.698 1205.92 680.683 1227.55 645.337 1246.49 C 596.465 1272.68 567.91 1265.29 536.247 1219.71 C 515.778 1190.24 482.596 1162.87 444.168 1164.16 C 443.556 1163.43 442.334 1162.42 441.589 1161.75 C 455.243 1158.24 468.168 1155.25 482.103 1152.91 C 489.166 1151.72 498.819 1152.74 504.131 1150.92 L 504.71 1149.46 C 498.19 1145.02 468.585 1150.47 460.014 1151.96 C 414.928 1159.75 394.791 1184.94 404.046 1231.53 C 409.955 1262.77 428.308 1290.27 454.892 1307.71 C 482.723 1326.01 513.942 1327.78 546.03 1328.07 C 523.686 1345.06 507.221 1363.15 503.066 1392.1 C 494.485 1451.89 550.067 1498.73 604.815 1506.46 C 617.148 1508.21 628.03 1507.22 640.152 1506.86 C 636.183 1523.68 635.332 1539.39 645.44 1554.08 C 673.026 1594.18 735.001 1599.46 776.655 1588.44 C 779.852 1602.27 780.946 1605.9 787.859 1618.11 C 759.726 1633.55 723.444 1646.18 691.033 1646.21 C 674.118 1646.09 657.318 1643.42 641.204 1638.27 C 597.498 1624.6 558.185 1597.25 513.67 1584.93 C 507.306 1583.17 498.189 1583.03 498.222 1575.58 C 502.467 1571.8 542.96 1569.38 553.988 1565.9 C 572.481 1560.07 580.437 1559.77 598.25 1548.62 C 584.848 1546.65 570.784 1547.1 556.685 1546.25 C 491.843 1542.32 401.348 1532.78 373.847 1463.21 C 369.914 1453.27 368.061 1440.04 360.178 1432.34 C 340.816 1413.43 312.232 1401.8 300.963 1375.77 C 293.624 1358.99 292.539 1338.75 298.45 1321.26 C 299.37 1318.54 300.563 1317.86 302.94 1316.9 C 310.099 1321.59 315.374 1329.86 321.659 1335.29 C 336.563 1348.17 364.763 1365.93 385.55 1361.16 C 392.011 1355.95 383.758 1347.28 379.291 1343.11 C 338.389 1304.97 295.582 1273.2 263.474 1226.47 C 228.95 1176.23 212.859 1122.23 223.978 1061.35 C 224.956 1056.01 226.311 1047.9 230.9 1044.7 C 233.716 1045 235.858 1046.63 236.684 1049.33 C 244.95 1076.33 249.65 1098.28 273.518 1116.78 z" fill="rgb(94,72,186)" transform="translate(0,0)"></path>
<path d="M 319.206 866.092 C 325.33 854.462 330.554 835.392 334.23 822.356 C 344.379 786.367 359.541 752.806 383.91 724.149 C 389.825 717.155 399.165 706.798 407.696 703.386 L 410.006 703.524 L 411.023 704.682 C 407.658 721.633 399.226 742.816 394.491 759.97 C 376.694 824.454 374.761 883.244 413.695 940.661 C 433.974 970.566 462.575 996.858 498.975 1004.22 C 501.98 1004.79 505 1005.29 508.031 1005.72 C 503.748 997.871 495.357 987.117 495.321 979.527 C 502.446 965.546 544.191 986.449 553.471 992.185 C 576.946 1006.69 591.598 1026.52 606.704 1048.96 C 637.453 1089.59 674.029 1089.37 718.78 1083.69 C 730.043 1099.73 740.7 1106.81 760.933 1103.69 L 761.266 1104.29 C 757.398 1109.48 714.711 1125.16 706.106 1127.99 C 644.173 1148.38 580.066 1139.59 522.774 1109.39 C 424.945 1058.99 351.56 971.279 319.206 866.092 z" fill="rgb(163,142,205)" transform="translate(0,0)"></path>
<path d="M 517.628 1036.56 C 519.438 1037.75 527.245 1048.96 529.866 1051.97 C 525.657 1062.5 526.742 1062.06 525.058 1071.96 C 518.704 1064.78 517.446 1061.6 510.127 1054.58 L 511.148 1053.05 C 515.953 1045.96 516.414 1044.81 517.628 1036.56 z" fill="rgb(255,255,255)" transform="translate(0,0)"></path>
<path d="M 337.509 858.708 C 341.453 862.612 342.472 866.36 348.309 871.592 C 345.165 877.246 341.365 886.627 338.825 890.356 C 334.325 885.344 337.006 884.167 327.133 874.43 C 333.245 868.115 334.228 867.058 337.509 858.708 z" fill="rgb(255,255,255)" transform="translate(0,0)"></path>
<path d="M 555.828 1043.69 C 563.692 1050.26 559.85 1049.03 570.076 1054.98 C 565.155 1062.31 565.297 1062.36 562.07 1070.31 C 560.203 1071.11 550.645 1059.82 548.649 1057.86 C 552.08 1051.98 553.06 1049.76 555.828 1043.69 z" fill="rgb(255,255,255)" transform="translate(0,0)"></path>
<path d="M 358.531 803.682 C 360.116 805.22 363.919 813.39 365.69 816.298 C 363.661 819.873 361.002 825.759 358.23 828.404 C 355.442 823.751 353.427 820.043 350.345 815.492 C 350.079 816.096 357.464 805.643 358.531 803.682 z" fill="rgb(255,255,255)" transform="translate(0,0)"></path>
<path d="M 372.838 891.926 C 374.567 893.888 374.348 896.878 376.302 897.654 C 380.204 899.203 375.739 902.356 375.015 905.958 L 374.582 908.222 C 371.868 905.23 369.386 902.641 366.542 899.772 C 369.335 896.693 370.429 895.485 372.838 891.926 z" fill="rgb(255,255,255)" transform="translate(0,0)"></path>
<path d="M 487.253 1165.9 C 482.539 1163.42 486.174 1163.08 489.243 1162.44 C 531.582 1168.82 559.984 1187.3 585.031 1222.53 C 586.538 1224.65 585.712 1227.03 582.407 1226.47 C 553.4 1199.22 529.394 1173.4 487.253 1165.9 z" fill="rgb(255,255,255)" transform="translate(0,0)"></path>
<path d="M 487.253 1165.9 C 482.539 1163.42 486.174 1163.08 489.243 1162.44 C 488.653 1163.72 487.992 1164.7 487.253 1165.9 z" fill="rgb(250,248,251)" transform="translate(0,0)"></path>
<path d="M 652.308 847.393 C 648.861 840.242 645.182 822.624 643.291 820.261 C 633.952 808.593 615.654 810.865 614.813 789.482 L 616.019 788.136 C 624.52 788.009 638.399 793.013 647.061 794.8 C 681.079 801.819 688.691 821.052 694.819 850.99 C 706.467 861.98 722.196 874.488 707.151 891.297 C 701.934 897.125 696.926 900.407 689.73 903.58 C 683.808 896.503 681.979 893.145 678.699 884.144 C 677.078 885.859 677.116 885.835 675.847 887.996 C 667.949 888.26 666.006 888.707 658.117 887.657 C 658.178 886.676 658.32 885.06 658.277 884.051 C 650.436 880.006 648.035 859.087 648.927 850.873 C 650.324 849.554 651.025 848.868 652.308 847.393 z" fill="rgb(255,255,255)" transform="translate(0,0)"></path>
<path d="M 658.277 884.051 C 664.608 883.974 672.215 884.114 678.699 884.144 C 677.078 885.859 677.116 885.835 675.847 887.996 C 667.949 888.26 666.006 888.707 658.117 887.657 C 658.178 886.676 658.32 885.06 658.277 884.051 z" fill="rgb(19,37,61)" transform="translate(0,0)"></path>
<path d="M 652.308 847.393 C 656.183 851.803 665.743 857.934 665.879 859.408 C 663.639 863.987 650.509 852.259 648.927 850.873 C 650.324 849.554 651.025 848.868 652.308 847.393 z" fill="rgb(19,37,61)" transform="translate(0,0)"></path>
<path d="M 806.888 1082.71 C 818.009 1074.92 829.101 1063.54 839.284 1056.85 C 867.508 1038.29 891.795 1021.9 910.881 992.395 C 920.302 1008.8 924.464 1019.83 928.435 1038.3 C 916.366 1040.72 903.727 1042.98 892.078 1047.04 C 867.697 1055.55 845.059 1068.93 821.634 1079.72 C 817.475 1081.64 813.015 1083.75 809.013 1085.88 L 806.888 1082.71 z" fill="rgb(255,255,255)" transform="translate(0,0)"></path>
<path d="M 1610.03 1138.53 C 1619.61 1141.49 1603.57 1140.97 1602.95 1140.97 C 1606.02 1140.16 1607.25 1140.16 1610.03 1138.53 z" fill="rgb(64,67,160)" transform="translate(0,0)"></path>
<path d="M 444.168 1164.16 C 443.344 1164.11 440.383 1164.28 440.126 1163.07 C 440.473 1162.24 440.701 1162.26 441.589 1161.75 C 442.334 1162.42 443.556 1163.43 444.168 1164.16 z" fill="rgb(64,67,160)" transform="translate(0,0)"></path>
<path d="M 644.167 1512.14 C 655.314 1487.84 664.294 1482.46 681.119 1462.21 C 691.311 1449.93 701.506 1426 706.401 1410.88 C 716.116 1380.88 724.257 1346.61 728.92 1315.33 C 736.623 1262.09 736.253 1200.66 770.376 1156.07 C 781.966 1140.92 821.803 1111.71 840.018 1109.76 C 843.483 1119.95 847.774 1123.56 859.506 1123.89 C 870.184 1124.2 881.506 1115.47 892.296 1114.16 C 909.611 1112.06 926.126 1120.71 942.973 1123.23 C 950.257 1123.82 959.375 1121.18 966.352 1123.08 C 979.827 1126.75 985.27 1122.07 990.799 1110.64 C 1030.87 1126.12 1045.33 1151.63 1071.43 1184.01 C 1083.27 1198.71 1095.31 1213.06 1107.35 1227.59 C 1086.83 1213.35 1072.28 1198.08 1053.95 1184.16 C 1065.65 1207.91 1107.31 1251.69 1128.18 1269.13 C 1140.19 1279.17 1154.87 1289.3 1168.7 1296.64 L 1164.75 1298.38 C 1153.66 1294.38 1141.55 1291.22 1130.53 1286.59 C 1093.26 1270.92 1053.06 1248.65 1025.31 1218.85 C 1017.88 1210.88 1010.27 1198.91 1004.26 1189.83 C 1015.41 1232.76 1052.82 1265.85 1085.35 1293.17 C 1044.97 1276.49 997.847 1245.92 964.606 1217.44 C 953.153 1207.63 941.212 1193.03 929.585 1185.01 C 941.263 1206.83 972.776 1239.48 990.477 1256.13 C 1077.65 1338.13 1197.92 1352.01 1310.66 1370.76 C 1343.32 1376.19 1385.85 1381.06 1412.26 1402.12 C 1429.27 1415.69 1430.3 1426.22 1432.5 1446.78 C 1423.79 1431.08 1416.76 1422.58 1398.69 1416.7 C 1383.4 1411.72 1364.82 1411.57 1349.18 1413.87 C 1277.1 1424.49 1249.09 1491.24 1204.49 1538.41 C 1191.52 1552.12 1175.47 1562.29 1158.56 1570.87 C 1094.4 1542.27 1038.33 1498.22 995.368 1442.65 C 985.22 1429.75 977.743 1414.96 968.14 1402.91 C 986.032 1453.06 1029.33 1522.13 1069.31 1557.45 C 1082.46 1569.07 1097.67 1578.68 1113.11 1586.85 C 1092.9 1595.66 1070.35 1599.32 1049.31 1607.03 C 963.872 1541.18 896.943 1423.56 857.719 1324.97 C 844.014 1290.52 831.907 1254.57 825.227 1217.95 C 824.75 1215.33 825.423 1216.61 823.707 1214.65 L 823.049 1215.78 C 822.511 1223.58 823.935 1239.7 824.577 1248.38 C 832.37 1353.74 878.68 1458.31 931.622 1548.39 C 945.089 1571.31 967.537 1598.8 983.75 1619.53 C 913.226 1624.72 867.556 1612.56 812.674 1567.24 C 816.827 1503.31 811.949 1446.14 795.476 1383.92 C 792.539 1372.83 789.05 1356.62 784.823 1346.5 L 783.866 1346.46 C 783.335 1351.28 788.022 1378.33 788.794 1386.53 C 792.396 1424.79 792.546 1462.54 787.033 1500.67 C 785.529 1511.07 783.157 1527.98 779.229 1537.32 C 738.314 1497.26 696.015 1480.99 644.167 1512.14 z" fill="rgb(94,72,186)" transform="translate(0,0)"></path>
<path d="M 749.124 1329.64 C 752.304 1333.63 750.7 1341.64 750.55 1346.84 C 749.58 1380.6 729.754 1461.96 704.264 1484.02 C 695.343 1485.8 687.236 1486.05 678.179 1486.4 C 677.222 1485.11 677.559 1485.92 677.685 1483.8 C 684.733 1476.91 699.018 1483.73 710.718 1461.4 C 725.823 1432.56 734.78 1404.83 741.472 1373.09 C 744.245 1359.93 745.309 1341.7 749.124 1329.64 z" fill="rgb(255,255,255)" transform="translate(0,0)"></path>
<path d="M 1325.37 1389.37 C 1329.29 1388.74 1333.98 1388.4 1336.19 1392.06 C 1334.35 1396.19 1319.74 1397.5 1314.24 1398.75 C 1281.58 1406.16 1255.39 1422.2 1230.81 1444.4 C 1227.86 1446.85 1224.37 1449.42 1221.3 1451.8 C 1242.15 1416.33 1285.63 1394.54 1325.37 1389.37 z" fill="rgb(255,255,255)" transform="translate(0,0)"></path>
<path d="M 1169.97 1363.41 C 1187.13 1361.6 1211.5 1363.19 1227.86 1367.73 C 1216.77 1368.7 1198.95 1368.34 1187.02 1368.79 C 1155.84 1369.97 1132.14 1373.81 1102.15 1381.45 C 1087.19 1385.62 1070.93 1391.5 1056 1396.44 C 1085.5 1377.21 1134.93 1367.12 1169.97 1363.41 z" fill="rgb(255,255,255)" transform="translate(0,0)"></path>
<path d="M 860.778 1545.09 C 863.472 1546.05 873.235 1551.74 875.962 1553.8 C 883.574 1559.55 892.183 1556.94 891.539 1566.14 C 884.746 1568.72 870.47 1557.97 865.064 1553.88 C 861.383 1551.09 860.975 1549.35 860.778 1545.09 z" fill="rgb(255,255,255)" transform="translate(0,0)"></path>
<path d="M 753.121 1278.8 C 758.935 1282.99 755.444 1298.23 753.495 1304 C 747.367 1298.5 748.973 1284.39 753.121 1278.8 z" fill="rgb(255,255,255)" transform="translate(0,0)"></path>
<path d="M 1354.76 146.418 C 1370.15 139.037 1384.52 136.467 1401.39 137.592 C 1422.45 139.685 1434.57 139.816 1448.99 157.954 C 1458.2 169.54 1465.21 181.761 1473.86 194.025 C 1494.28 222.978 1527.76 247.694 1563.39 252.689 C 1575.83 254.433 1592.82 250.922 1602.58 242.662 C 1611.76 234.961 1617.43 223.885 1618.32 211.943 C 1618.94 203.028 1617.34 197.198 1615.23 188.717 C 1638.77 236.458 1614.78 272.045 1563.59 274.528 C 1553.17 269.944 1545.3 262.15 1533.71 256.749 L 1532.54 256.189 C 1520.87 258.864 1506.08 263.712 1495.87 256.462 C 1482.8 247.18 1474.71 231.398 1462.22 220.739 C 1450.85 211.029 1434.98 209.17 1426.18 196.489 C 1422.9 191.759 1420.29 175.193 1415.82 174.651 C 1412.78 179.907 1413.56 183.227 1411.91 188.749 C 1406.95 205.338 1403.66 213.479 1387.65 219.029 C 1368.31 225.732 1337.45 198.577 1329.9 205.132 C 1330.69 208.457 1335.21 213.355 1337.24 216.412 C 1346.01 229.637 1343.42 246.804 1335.17 259.587 C 1330.25 267.207 1319.48 283.019 1308.9 276.97 C 1297.76 270.605 1298.51 253.023 1297.92 241.827 C 1279.78 255.483 1285.16 270.039 1275.76 288.286 C 1266.05 307.154 1253.75 311.421 1234.32 305.899 C 1247.63 319.27 1284.46 341.045 1259.96 364.119 C 1256.96 366.945 1252.58 370.833 1249.04 372.829 L 1247.22 375.846 C 1233.8 395.908 1241.25 409.068 1230.83 425.545 C 1214.98 450.6 1161.9 417.228 1136.89 421.972 L 1136.12 423.31 C 1142.85 427.565 1153.8 430.074 1161.16 433.666 C 1183.43 444.537 1203 455.884 1220.15 473.779 C 1185.28 456.011 1174.16 450.539 1135.63 458.719 C 1122.81 453.275 1103.23 441.415 1089.87 434.438 C 1057.04 417.292 1032.57 409.06 997.474 399.109 C 1006.8 389.893 1015.47 378.621 1025.04 369.079 C 1047.76 346.423 1071.87 324.382 1096.84 304.232 C 1119.52 285.931 1147.69 271.78 1169.77 253.334 C 1181.67 243.388 1190.55 210.083 1206.38 202.041 C 1233.62 188.201 1266.69 194.628 1295.52 184.914 C 1319.52 176.828 1335.57 156.627 1354.76 146.418 z" fill="rgb(64,67,160)" transform="translate(0,0)"></path>
<path d="M 1219.92 332.764 C 1236.76 343.56 1244.33 353.253 1249.04 372.829 L 1247.22 375.846 C 1242.3 366.791 1239.26 355.875 1232.47 347.029 C 1228.2 341.475 1224.41 338.373 1219.92 332.764 z" fill="rgb(250,248,251)" transform="translate(0,0)"></path>
<path d="M 1366.09 147.115 C 1371.69 145.671 1375.33 144.784 1381.08 143.903 L 1382.73 145.555 C 1343.25 158.403 1335.06 180.541 1300.11 195.94 C 1275.64 206.725 1240.12 194.937 1215.09 211.053 C 1196.75 222.862 1193.68 241.88 1181.79 255.725 C 1206.68 179.26 1237.72 206.33 1296.53 191.289 C 1313.62 186.92 1345.2 157.782 1366.09 147.115 z" fill="rgb(250,248,251)" transform="translate(0,0)"></path>
<path d="M 1034.75 373.706 C 1067.13 363.207 1118.27 362.888 1147.63 381.633 C 1115.49 374.496 1068.49 366.127 1036.23 375.596 L 1034.75 373.706 z" fill="rgb(255,255,255)" transform="translate(0,0)"></path>
<path d="M 1079.19 351.39 C 1119.82 345.521 1149.6 356.334 1180.97 380.74 C 1172.33 377.766 1166.63 372.907 1158 369.05 C 1135.04 358.788 1114.42 354.85 1089.73 353.624 C 1087.27 353.752 1073.85 354.657 1072.62 353.293 L 1072.7 353.202 L 1072.85 353.175 L 1072.96 352.662 L 1072.68 352.836 L 1073.67 353.141 L 1074.18 352.175 C 1074.69 352.027 1075 351.945 1075.54 351.865 L 1076.42 351.743 C 1077.35 351.625 1078.27 351.508 1079.19 351.39 z" fill="url(#Gradient1)" transform="translate(0,0)"></path>
<path d="M 1089.73 353.624 C 1087.27 353.752 1073.85 354.657 1072.62 353.293 L 1072.7 353.202 L 1072.85 353.175 L 1072.96 352.662 L 1072.68 352.836 L 1073.67 353.141 L 1074.18 352.175 C 1074.69 352.027 1075 351.945 1075.54 351.865 L 1076.42 351.743 C 1077.35 351.625 1078.27 351.508 1079.19 351.39 C 1084.53 354.442 1086.47 350.886 1089.73 353.624 z" fill="rgb(250,248,251)" transform="translate(0,0)"></path>
<path d="M 1201.55 345.875 C 1214.77 347.876 1231.99 367.21 1235.13 379.981 L 1235.95 383.348 C 1232.94 381.277 1227.13 370.836 1223.67 366.284 C 1215.47 355.493 1210.31 353.873 1201.55 345.875 z" fill="rgb(250,248,251)" transform="translate(0,0)"></path>
<path d="M 1310.68 214.801 C 1319.69 222.816 1326.46 239.544 1326.67 251.587 C 1321.81 247.878 1316.46 224.809 1311.1 218.43 C 1310.54 217.758 1310.65 215.632 1310.68 214.801 z" fill="rgb(250,248,251)" transform="translate(0,0)"></path>
<path d="M 1296.47 223.51 C 1305.84 228.363 1312.76 243.688 1311.92 254.191 C 1310.42 252.931 1297.93 227.149 1296.47 223.51 z" fill="rgb(255,255,255)" transform="translate(0,0)"></path>
<path d="M 1388.98 142.679 C 1387.99 144.929 1384.89 145.146 1382.73 145.555 L 1381.08 143.903 C 1384 143.166 1385.88 142.739 1388.98 142.679 z" fill="rgb(191,195,214)" transform="translate(0,0)"></path>
<path d="M 1036.23 375.596 C 1031.58 376.318 1028.22 375.515 1034.75 373.706 L 1036.23 375.596 z" fill="rgb(162,175,201)" transform="translate(0,0)"></path>
<path d="M 1044.83 1612.35 C 1045.58 1619.61 1039.77 1630.48 1044.4 1639.69 C 1049.03 1648.92 1054.91 1653.31 1064.36 1656.85 C 1098.37 1669.61 1132.49 1665.99 1165.42 1651.78 C 1163.36 1691.15 1148.4 1732.73 1128.91 1766.75 C 1056.77 1892.71 898.431 1935.71 773.048 1861.86 C 735.011 1841.28 694.842 1796.46 678.298 1756.24 C 716.305 1789.53 757.044 1808.63 807.805 1811.37 C 861.549 1813.78 913.889 1793.81 952.372 1756.22 C 966.567 1742.29 973.186 1730.75 985.445 1716.15 C 988.026 1713.07 1004.92 1700.3 1009.78 1695.94 C 1003.59 1680.22 998.317 1668.68 994.923 1651.76 C 993.389 1644.11 988.465 1631.91 985.813 1624.2 C 1009.45 1622.11 1022.09 1617.71 1044.83 1612.35 z" fill="rgb(94,72,186)" transform="translate(0,0)"></path>
<path d="M 613.271 606.566 C 657.982 653.097 702.66 684.421 761.355 712.194 C 775.205 718.748 789.765 725.895 804.266 730.826 C 786.091 781.661 833.933 804.447 877.052 794.702 C 876.479 821.829 899.022 829.929 921.296 834.137 C 917.133 837.569 912.858 841.65 908.941 845.42 C 889.741 863.898 870.574 880.552 848.998 896.188 C 836.376 905.325 825.572 911.927 812.266 920.041 C 786.41 902.462 756.8 894.195 729.018 877.992 C 727.089 861.255 726.516 858.613 710.748 855.639 C 695.033 852.675 697.662 827.809 688.294 814.641 C 672.248 792.084 645.167 788.574 619.927 782.726 C 608.6 755.272 591.466 709.322 583.212 680.468 C 588.59 681.881 604.501 686.251 608.573 683.232 C 610.352 674.407 594.712 650.221 589.821 641.57 C 598.098 630.216 605.92 618.539 613.271 606.566 z" fill="rgb(255,255,255)" transform="translate(0,0)"></path>
<path d="M 926.224 577.158 C 954.494 574.898 989.349 555.023 1007.72 534.555 C 1012.92 562.187 1018.59 574.92 1042 592.813 C 1040.03 587.563 1038.55 583.693 1037.16 578.198 C 1040.1 581.924 1052.5 596.95 1053.69 600.441 L 1052.46 600.676 C 1022.19 606.725 1065.58 627.73 1072.31 628.703 C 1074.74 627.22 1074.9 626.982 1076.96 624.969 C 1082.67 626.333 1111.09 657.726 1119.27 662.182 C 1127.51 666.662 1128.07 670.683 1123.31 678.495 L 1123.98 679.591 C 1128.09 679.918 1133.01 675.304 1138.11 673.265 C 1145.73 670.222 1152.99 669 1160.54 666.58 C 1171.82 671.726 1183.05 677.003 1194.21 682.412 C 1189.35 700.589 1183.3 711.276 1166.13 721.601 C 1161.85 724.175 1141.25 733.179 1137.22 733.434 C 1134.74 733.1 1133.25 732.928 1130.75 732.799 C 1123.37 730.193 1122.03 729.447 1117.14 723.431 C 1109.28 731.146 1098.74 742.797 1090.19 748.937 C 1041.75 783.742 964.801 776.389 923.965 734.348 C 907.139 716.72 897.896 693.198 898.221 668.832 C 898.682 638.882 911.92 603.159 926.224 577.158 z" fill="rgb(255,255,255)" transform="translate(0,0)"></path>
<path d="M 1131.06 730 L 1130.54 728.501 C 1125.01 714.912 1145.12 719.004 1136.16 731.045 C 1134.17 730.546 1133.12 730.267 1131.06 730 z" fill="rgb(19,37,61)" transform="translate(0,0)"></path>
<path d="M 1131.06 730 C 1133.12 730.267 1134.17 730.546 1136.16 731.045 L 1137.22 733.434 C 1134.74 733.1 1133.25 732.928 1130.75 732.799 L 1131.06 730 z" fill="rgb(250,248,251)" transform="translate(0,0)"></path>
<path d="M 1054.14 679.453 C 1067.26 675.2 1081.34 682.393 1085.58 695.512 C 1089.82 708.631 1082.61 722.703 1069.49 726.932 C 1060.46 729.84 1050.57 727.381 1043.96 720.585 C 1037.34 713.79 1035.15 703.833 1038.31 694.89 C 1040.89 687.558 1046.75 681.85 1054.14 679.453 z" fill="rgb(120,116,181)" transform="translate(0,0)"></path>
<path d="M 923.328 652.189 C 935.498 649.807 947.314 657.682 949.8 669.832 C 952.286 681.982 944.513 693.865 932.384 696.454 C 920.108 699.075 908.05 691.187 905.533 678.889 C 903.017 666.591 911.009 654.6 923.328 652.189 z" fill="rgb(120,116,181)" transform="translate(0,0)"></path>
<path d="M 1039.75 640.069 C 1054.7 639.389 1050.28 641.083 1060 649.988 C 1063.17 652.898 1072.87 643.999 1071.61 649.32 C 1070.81 652.721 1062.7 655.019 1062.24 656.884 C 1063.86 660.672 1081.38 656.744 1071.86 662.875 L 1070.23 664.042 C 1068.96 664.038 1056.34 663.15 1057.38 662.265 C 1053.41 665.644 1049.98 671.434 1039.49 669.033 C 1036.34 668.3 1033.65 666.272 1032.08 663.449 C 1026.68 653.785 1030.5 645.025 1039.75 640.069 z" fill="rgb(6,38,68)" transform="translate(0,0)"></path>
<path d="M 941.052 623.861 C 948.252 618.621 956.079 614.905 962.383 623.661 C 973.447 639.031 948.874 661.016 938.493 641.566 C 937.484 639.674 937.379 634.882 935.834 633.377 C 932.374 633.1 918.263 625.021 922.896 621.018 C 924.522 619.613 931.265 628.365 935.359 626.721 C 936.086 626.557 936.813 626.392 937.54 626.227 C 939.235 624.818 939.181 624.708 941.052 623.861 z" fill="rgb(6,38,68)" transform="translate(0,0)"></path>
<path d="M 953.581 579.15 C 957.813 578.946 983.095 578.526 975.966 592.989 C 974.426 596.115 963.264 596.342 959.34 596.586 C 956.698 596.776 941.945 598.121 940.87 597.304 C 930.615 589.511 948.855 580.512 953.581 579.15 z" fill="rgb(6,38,68)" transform="translate(0,0)"></path>
<path d="M 1162.76 681.223 C 1167.83 681.753 1178.92 686.246 1169.02 686.449 C 1157.45 686.686 1157.65 685.763 1147.72 692.84 C 1150.65 695.822 1159.94 704.782 1158.28 709.513 C 1156.33 710.71 1151.96 704.19 1150.71 702.706 C 1148.63 700.394 1147.09 699.451 1144.58 697.587 C 1142.06 700.299 1135.01 709.37 1133.91 710.327 L 1131.6 712.326 C 1137.75 694.709 1143.32 685.363 1162.76 681.223 z" fill="rgb(19,37,61)" transform="translate(0,0)"></path>
<path d="M 969.268 697.57 C 974.47 699.376 977.42 704.013 983.61 706.47 C 994.165 710.66 1001.47 695.949 1004.24 706.253 C 994.354 713.18 982.497 714.758 973.052 705.496 C 970.055 702.557 969.359 701.69 969.268 697.57 z" fill="rgb(19,37,61)" transform="translate(0,0)"></path>
<path d="M 984.186 651.761 C 991.31 653.898 978.069 661.443 976.441 662.877 C 970.223 668.353 981.026 670.819 980.31 677.015 C 975.605 675.239 968.576 670.547 969.447 664.605 C 970.131 659.936 980.341 654.214 984.186 651.761 z" fill="rgb(19,37,61)" transform="translate(0,0)"></path>
<path d="M 937.54 626.227 C 936.272 622.867 931.717 617.553 932.159 616.542 C 934.563 611.048 940.367 622.327 941.052 623.861 C 939.181 624.708 939.235 624.818 937.54 626.227 z" fill="rgb(19,37,61)" transform="translate(0,0)"></path>
<path d="M 1028.74 508.794 C 1036.59 511.777 1050.57 519.193 1058.56 523.168 C 1081.79 534.722 1104.57 545.894 1125.98 560.658 C 1133 565.741 1143.28 570.144 1149.74 575.734 C 1176.94 599.281 1203.53 620.587 1234.61 639.12 C 1261.53 655.18 1292.06 658.416 1319.32 673.602 C 1349.49 690.408 1382.13 704.099 1414.53 715.979 C 1449.17 728.179 1486.74 731.72 1522.07 741.437 C 1523.64 741.665 1525.52 741.714 1526.79 742.66 C 1527.08 743.371 1526.19 743.833 1525.58 743.859 C 1519.91 744.1 1514.19 744.09 1508.51 743.846 C 1433.01 745.147 1357.78 734.301 1285.72 711.724 C 1200.22 685.45 1103.83 638.665 1052.92 561.877 C 1042.72 546.489 1035.53 526.119 1028.74 508.794 z" fill="rgb(64,67,160)" transform="translate(0,0)"></path>
<path d="M 1522.07 741.437 C 1523.64 741.665 1525.52 741.714 1526.79 742.66 C 1527.08 743.371 1526.19 743.833 1525.58 743.859 C 1519.91 744.1 1514.19 744.09 1508.51 743.846 C 1514.56 742.836 1517.83 744.049 1522.07 741.437 z" fill="rgb(57,59,127)" transform="translate(0,0)"></path>
<path d="M 1156.72 623.223 L 1158.3 621.426 C 1183.91 642.128 1208.73 657.915 1239.68 670.383 C 1249.47 674.327 1265.7 677.538 1275.8 681.527 C 1275.88 682.206 1275.97 682.885 1276.05 683.565 C 1272.19 686.014 1265.65 684.108 1261.07 683.087 C 1225.26 675.111 1183.16 647.965 1156.72 623.223 z" fill="rgb(255,255,255)" transform="translate(0,0)"></path>
<path d="M 1241 648.244 C 1242.53 647.562 1244.31 647.759 1245.66 648.76 C 1247 649.761 1247.7 651.41 1247.49 653.074 C 1247.28 654.738 1246.18 656.157 1244.63 656.786 C 1242.28 657.736 1239.61 656.63 1238.61 654.299 C 1237.62 651.969 1238.68 649.274 1241 648.244 z" fill="rgb(255,255,255)" transform="translate(0,0)"></path>
<path d="M 1295.65 678.332 C 1296.97 677.405 1298.69 677.264 1300.14 677.965 C 1301.59 678.666 1302.55 680.097 1302.64 681.706 C 1302.73 683.314 1301.95 684.847 1300.59 685.71 C 1298.55 687.002 1295.86 686.434 1294.52 684.43 C 1293.18 682.426 1293.68 679.719 1295.65 678.332 z" fill="rgb(255,255,255)" transform="translate(0,0)"></path>
<path d="M 1156.72 623.223 C 1153.1 619.098 1153.91 617.93 1158.3 621.426 L 1156.72 623.223 z" fill="rgb(191,195,214)" transform="translate(0,0)"></path>
<path d="M 709.973 401.245 C 757.362 414.169 804.345 431.375 850.87 447.02 C 871.228 453.866 893.884 457.735 914.559 463.774 C 923.45 466.371 931.862 474.559 940.387 477.414 C 950.991 480.965 961.935 484.212 972.597 487.695 C 991.004 493.79 1009.19 500.525 1027.13 507.89 C 976.373 530.508 922.731 521.969 872.394 502.646 C 842.999 491.111 815.178 475.908 789.594 457.398 C 770.631 443.868 729.418 412.11 707.958 403.512 L 709.973 401.245 z" fill="rgb(64,67,160)" transform="translate(0,0)"></path>
<path d="M 832.301 454.463 C 837.34 455.649 846.748 462.441 851.996 465.793 C 864.696 473.906 877.787 478.293 891.523 483.776 C 892.29 484.082 891.633 486.862 891.536 487.388 C 871.621 483.533 855.03 475.622 838.383 464.09 C 834.73 461.559 830.068 460.34 831.727 456.039 L 832.301 454.463 z" fill="rgb(255,255,255)" transform="translate(0,0)"></path>
<path d="M 785.813 430.336 C 790.078 431.775 798.642 435.495 801.781 438.517 C 802.385 439.099 800.106 443.565 799.851 444.114 C 796.06 442.503 780.566 436.389 784.295 432.663 C 784.541 432.417 785.521 430.783 785.813 430.336 z" fill="rgb(255,255,255)" transform="translate(0,0)"></path>
<path d="M 809.153 443.369 C 819.116 446.301 822.208 445.856 819.584 454.872 C 811.813 453.572 808.267 450.577 809.153 443.369 z" fill="rgb(255,255,255)" transform="translate(0,0)"></path>
<path d="M 760.101 899.533 C 774.042 905.506 799.36 917.976 811.879 926.037 C 827.091 952.974 828.919 1001.33 823.726 1031 C 819.616 1054.5 809.12 1072.18 789.641 1085.83 C 775.448 1095.16 762.905 1098.37 746.446 1100.95 C 784.699 1068.92 771.117 946.544 760.101 899.533 z" fill="rgb(94,72,186)" transform="translate(0,0)"></path>
<path d="M 534.986 583.56 C 536.966 585.874 542.939 592.243 544.047 594.226 C 551.638 602.429 556.739 607.602 565.265 614.868 C 577.642 611.591 592.661 608.686 605.354 607.572 C 602.945 611.539 601.08 614.441 598.424 618.298 C 596.592 621.355 591.536 629.975 589.52 632.349 L 588.645 634.15 C 587.049 637.352 586.125 639.601 584.791 642.924 C 588.888 650.704 593.971 658.048 596.881 666.328 C 598.446 669.728 601.565 674.873 600.06 678.409 C 593.42 676.711 566.721 671.37 561.433 673.839 C 558.075 680.566 554.722 684.506 549.507 690.007 C 547.569 692.707 546.324 694.179 544.11 696.675 C 537.98 707.481 535.853 663.824 535.717 661.789 C 528.182 657.957 519.766 655.379 512.4 651.649 C 508.136 649.489 492.032 646.46 501.006 642.415 C 504.593 641.101 507.481 639.752 510.898 638.451 C 516.912 634.224 528.005 629.569 534.926 626.534 C 534.543 610.99 534.353 599.123 534.986 583.56 z" fill="rgb(255,255,255)" transform="translate(0,0)"></path>
<path d="M 567.739 644.098 C 570.814 639.005 584.351 632.77 589.52 632.349 L 588.645 634.15 C 587.049 637.352 586.125 639.601 584.791 642.924 C 588.888 650.704 593.971 658.048 596.881 666.328 C 598.446 669.728 601.565 674.873 600.06 678.409 C 593.42 676.711 566.721 671.37 561.433 673.839 C 558.439 671.812 556.142 669.705 552.876 667.524 C 553.377 661.007 554.216 643.44 556.697 638.228 C 557.396 638.837 557.745 639.364 558.328 640.106 C 561.54 641.439 564.577 642.64 567.739 644.098 z" fill="rgb(162,175,201)" transform="translate(0,0)"></path>
<path d="M 567.739 644.098 C 570.814 639.005 584.351 632.77 589.52 632.349 L 588.645 634.15 C 587.049 637.352 586.125 639.601 584.791 642.924 C 588.888 650.704 593.971 658.048 596.881 666.328 C 589.951 663.122 588.975 659.09 582.448 654.073 C 577.352 650.156 573.556 648.003 568.436 644.574 L 567.739 644.098 z" fill="rgb(162,175,201)" transform="translate(0,0)"></path>
<path d="M 600.06 678.409 C 590.673 664.604 578.531 660.431 565.911 650.193 C 562.837 647.699 556.333 644.42 558.328 640.106 C 561.54 641.439 564.577 642.64 567.739 644.098 L 568.436 644.574 C 573.556 648.003 577.352 650.156 582.448 654.073 C 588.975 659.09 589.951 663.122 596.881 666.328 C 598.446 669.728 601.565 674.873 600.06 678.409 z" fill="rgb(250,248,251)" transform="translate(0,0)"></path>
<path d="M 510.898 638.451 C 518.267 640.651 521.246 638.513 529.007 637.075 C 536.379 635.708 541.069 635.748 548.557 635.993 C 548.67 637.035 548.83 637.969 548.996 639.003 C 549.459 649.868 541.267 689.562 544.11 696.675 C 537.98 707.481 535.853 663.824 535.717 661.789 C 528.182 657.957 519.766 655.379 512.4 651.649 C 508.136 649.489 492.032 646.46 501.006 642.415 C 504.593 641.101 507.481 639.752 510.898 638.451 z" fill="rgb(162,175,201)" transform="translate(0,0)"></path>
<path d="M 510.898 638.451 C 518.267 640.651 521.246 638.513 529.007 637.075 C 536.379 635.708 541.069 635.748 548.557 635.993 C 548.67 637.035 548.83 637.969 548.996 639.003 C 531.849 638.75 518.862 642.894 501.006 642.415 C 504.593 641.101 507.481 639.752 510.898 638.451 z" fill="rgb(250,248,251)" transform="translate(0,0)"></path>
<path d="M 534.986 583.56 C 536.966 585.874 542.939 592.243 544.047 594.226 C 542.865 606.559 549.959 627.905 548.557 635.993 C 541.069 635.748 536.379 635.708 529.007 637.075 C 521.246 638.513 518.267 640.651 510.898 638.451 C 516.912 634.224 528.005 629.569 534.926 626.534 C 534.543 610.99 534.353 599.123 534.986 583.56 z" fill="rgb(162,175,201)" transform="translate(0,0)"></path>
<path d="M 556.697 638.228 C 571.218 635.615 589.966 617.431 598.424 618.298 C 596.592 621.355 591.536 629.975 589.52 632.349 C 584.351 632.77 570.814 639.005 567.739 644.098 C 564.577 642.64 561.54 641.439 558.328 640.106 C 557.745 639.364 557.396 638.837 556.697 638.228 z" fill="rgb(158,168,197)" transform="translate(0,0)"></path>
<path d="M 552.876 667.524 C 556.142 669.705 558.439 671.812 561.433 673.839 C 558.075 680.566 554.722 684.506 549.507 690.007 C 550.478 683.015 551.635 674.316 552.876 667.524 z" fill="rgb(191,195,214)" transform="translate(0,0)"></path>
<path d="M 848.208 1109.59 C 857.667 1094.88 879.131 1073.56 896.346 1069.32 C 915.51 1064.6 944.712 1066.14 964.479 1067.33 C 985.371 1084.94 983.61 1119.68 948.498 1116.67 C 921.172 1114.33 899.838 1099.91 873.686 1114.48 C 868.144 1117.24 858.79 1121.28 853.126 1116.44 C 854.498 1107.13 884.486 1092.73 885.903 1086.2 C 879.275 1083.5 854.258 1105.06 850.144 1110.64 L 848.208 1109.59 z" fill="rgb(255,255,255)" transform="translate(0,0)"></path>
<path d="M 1052.56 772.764 C 1055.72 775.686 1054.13 801.104 1056.98 807.007 C 1058.82 810.826 1068.58 813.009 1072.96 814.688 C 1055.67 831.888 1029.25 850.321 1004.47 853.37 C 986.008 851.528 982.714 841.012 984.94 824.25 C 987.194 807.267 984.428 809.402 1000.36 806.272 C 1002.44 802.182 1002.64 797.646 1006.93 797.048 C 1024.84 794.55 1039.03 783.888 1052.56 772.764 z" fill="rgb(255,255,255)" transform="translate(0,0)"></path>
<path d="M 727.772 883.71 C 737.007 889.612 744.086 893.115 753.908 897.692 C 755.317 904.568 757.63 911.272 758.862 918.009 C 762.427 937.503 765.177 958.189 766.37 977.912 C 759.638 973.931 753.859 970.329 747.431 965.852 C 728.888 951.668 711.487 937.367 699.41 916.754 L 698.406 915.087 C 699.148 914.816 699.894 914.558 700.645 914.313 C 717.133 908.708 721.094 898.496 727.772 883.71 z" fill="rgb(255,255,255)" transform="translate(0,0)"></path>
<path d="M 1153.54 511.014 C 1150.09 500.105 1156.29 504.579 1159.12 509.285 C 1168.5 514.234 1171.85 518.394 1180.16 524.934 C 1183.16 523.031 1186.15 521.333 1189.19 519.521 C 1195.06 514.625 1196.46 513.298 1203.01 509.266 C 1200.57 521.797 1198.66 527.367 1194.25 539.595 C 1200.78 544.626 1209.7 553.108 1215.15 559.326 L 1187.6 560.077 L 1187.08 561.737 C 1184.23 570.558 1182.42 579.208 1179.74 587.851 L 1179.32 589.239 C 1177.55 584.775 1176 580.761 1174.42 576.222 C 1171.4 570.763 1168.95 565.48 1166.41 559.801 L 1165.6 558.041 C 1157.97 557.906 1149.32 558.163 1141.9 557.061 C 1130.11 556.561 1134.11 554.51 1141.08 550.766 C 1145.45 548.095 1149.85 544.67 1154.48 542.967 C 1156.58 532.984 1154.44 520.981 1153.54 511.014 z" fill="rgb(255,255,255)" transform="translate(0,0)"></path>
<path d="M 1144.87 552.582 C 1150.72 549.98 1160.31 549.688 1165.02 545.49 C 1178.37 533.598 1175.48 571.363 1174.42 576.222 C 1171.4 570.763 1168.95 565.48 1166.41 559.801 L 1165.6 558.041 C 1157.97 557.906 1149.32 558.163 1141.9 557.061 C 1130.11 556.561 1134.11 554.51 1141.08 550.766 L 1141.9 551.523 C 1142.81 552.406 1143.64 552.528 1144.87 552.582 z" fill="rgb(158,168,197)" transform="translate(0,0)"></path>
<path d="M 1141.08 550.766 L 1141.9 551.523 C 1142.81 552.406 1143.64 552.528 1144.87 552.582 C 1143.47 555.77 1140.89 553.435 1141.9 557.061 C 1130.11 556.561 1134.11 554.51 1141.08 550.766 z" fill="rgb(191,195,214)" transform="translate(0,0)"></path>
<path d="M 1159.12 509.285 C 1168.5 514.234 1171.85 518.394 1180.16 524.934 C 1183.16 523.031 1186.15 521.333 1189.19 519.521 L 1188.98 520.09 C 1186.97 525.686 1180.23 533.888 1176.69 539.291 C 1172.49 530.944 1161.74 515.845 1159.12 509.285 z" fill="rgb(162,175,201)" transform="translate(0,0)"></path>
<path d="M 1153.54 511.014 L 1154.91 512.428 C 1159.5 517.068 1166.19 532.176 1168.83 538.442 C 1165.29 539.71 1157.9 542.429 1154.48 542.967 C 1156.58 532.984 1154.44 520.981 1153.54 511.014 z" fill="rgb(158,168,197)" transform="translate(0,0)"></path>
<path d="M 1000.97 1056.13 C 1006.93 1055.41 1032.91 1078.88 1038.14 1084.07 C 1043.7 1089.61 1050.3 1097.96 1055.38 1104.16 C 1047.54 1104.06 1039.71 1104.07 1031.87 1104.2 C 1019.59 1105.22 1003.1 1106.42 990.945 1106.92 C 994.703 1088.07 991.351 1077.39 981.448 1061.04 C 988.87 1059.5 992.842 1058.28 1000.02 1056.38 L 1000.97 1056.13 z" fill="rgb(255,255,255)" transform="translate(0,0)"></path>
<path d="M 989.954 404.68 C 991.088 404.789 992.353 404.888 993.483 405.182 C 1056.76 421.663 1117.67 450.58 1169.14 491.035 C 1173.21 494.231 1185.46 504.038 1187.86 507.695 C 1187.44 511.14 1187.05 510.401 1183.59 513.49 C 1174.66 508.006 1161.32 495.085 1151.62 488.22 C 1128.16 471.625 1101.36 455.772 1075.5 443.413 C 1058.71 435.445 1041.51 428.405 1023.95 422.325 C 1019.71 420.886 986.439 411.232 984.964 410.32 C 985.667 407.261 986.89 407.224 989.954 404.68 z" fill="rgb(120,116,181)" transform="translate(0,0)"></path>
<path d="M 891.159 1625.62 C 895.545 1627.61 902.332 1629.67 907.016 1630.78 C 908.837 1631.21 910.667 1631.61 912.502 1631.98 C 923.62 1634.11 940.134 1635.85 951.248 1634.23 L 953.112 1634 C 946.079 1642.55 942.064 1646.93 933.933 1654.63 C 918.655 1667.93 906.124 1669.22 887.167 1668.83 C 890.828 1653.91 890.897 1640.88 891.159 1625.62 z" fill="rgb(255,255,255)" transform="translate(0,0)"></path>
<path d="M 962.235 469.11 C 1021.53 484.258 1082.81 518.647 1135.8 548.921 L 1127.55 554.105 C 1123.31 553.029 1107.66 541.87 1102.51 539.08 C 1057.08 514.463 1002.99 487.182 952.927 474.764 C 955.69 472.879 959.307 470.859 962.235 469.11 z" fill="rgb(120,116,181)" transform="translate(0,0)"></path>
<path d="M 962.437 813.61 C 963.808 816.811 961.112 823.798 960.347 827.485 C 958.693 835.511 957.914 843.692 958.026 851.886 C 958.33 871.944 962.785 889.867 987.154 887.839 C 1027.69 884.466 1072.07 853.515 1099.67 824.849 C 1103.26 826.335 1104.57 826.101 1106.27 828.753 L 1104.26 831.242 C 1073.13 859.756 1029.9 891.74 986.585 895.421 C 963.846 897.354 952.724 880.63 953.284 859.489 C 953.612 847.117 953.602 822.908 962.437 813.61 z" fill="rgb(94,72,186)" transform="translate(0,0)"></path>
<path d="M 953.327 416.124 C 953.502 415.327 953.677 414.53 953.852 413.733 C 954.449 408.998 962.184 423.558 962.641 424.302 C 965.542 429.023 966.36 428.865 971.379 429.36 C 979.273 427.658 983.09 427.158 990.862 426.438 C 982.245 435.488 980.542 435.266 975.446 446.874 C 977.618 454.793 980.034 459.922 982.967 467.498 C 976.456 464.953 971.379 463.142 965.592 458.719 C 955.275 459.977 954.79 465.205 945.472 474.295 C 946.525 465.25 947.018 461.143 947.274 451.924 C 939.425 448.048 935.944 447.262 928.106 444.055 C 934.678 440.811 941.559 438.077 947.77 434.718 L 949.456 433.821 C 949.561 433.379 949.666 432.937 949.77 432.495 L 950.704 428.45 L 951.661 424.429 C 952.432 421.169 952.933 419.426 953.327 416.124 z" fill="rgb(162,175,201)" transform="translate(0,0)"></path>
<path d="M 971.379 429.36 C 979.273 427.658 983.09 427.158 990.862 426.438 C 982.245 435.488 980.542 435.266 975.446 446.874 C 977.618 454.793 980.034 459.922 982.967 467.498 C 976.456 464.953 971.379 463.142 965.592 458.719 C 964.33 456.246 962.969 453.828 961.634 451.395 C 961.773 450.648 961.899 449.898 962.011 449.147 C 962.627 443.519 965.729 444.664 968.973 440.937 C 972.443 436.95 969.274 434.504 971.379 429.36 z" fill="rgb(255,255,255)" transform="translate(0,0)"></path>
<path d="M 953.327 416.124 C 953.502 415.327 953.677 414.53 953.852 413.733 C 954.449 408.998 962.184 423.558 962.641 424.302 C 965.542 429.023 966.36 428.865 971.379 429.36 C 969.274 434.504 972.443 436.95 968.973 440.937 C 965.729 444.664 962.627 443.519 962.011 449.147 C 961.899 449.898 961.773 450.648 961.634 451.395 C 959.862 441.719 959.729 447.819 955.722 448.264 C 951.599 446.548 958.388 425.818 954.071 417.568 L 953.327 416.124 z" fill="rgb(250,248,251)" transform="translate(0,0)"></path>
<path d="M 1153.63 730.437 C 1164 732.856 1168.12 742.399 1170.5 752.229 C 1173.96 767.728 1162.33 787.823 1146.5 791.009 C 1117.35 796.877 1100.64 768.608 1109.72 743.097 C 1111.26 740.511 1114.49 734.463 1117.63 733.505 C 1118.95 733.103 1123.88 734.693 1124.21 736.555 C 1123.66 737.745 1121.95 739.173 1121 740.524 C 1116.37 747.332 1114.89 756.488 1116.27 764.483 C 1118.6 777.91 1131.49 785.102 1144.46 781.752 C 1150.63 780.124 1155.88 776.073 1159.02 770.517 C 1167.25 756.097 1161.4 745.665 1150.87 734.991 C 1150.34 734.458 1153.53 730.582 1153.63 730.437 z" fill="rgb(255,255,255)" transform="translate(0,0)"></path>
<path d="M 978.006 810.303 L 979.913 811.072 C 981.532 813.796 978.164 831.127 979.316 836.772 C 991.633 897.13 1070.97 818.968 1082.65 817.587 L 1083.44 818.513 C 1082.61 822.478 1083.15 821.08 1079.49 824.231 C 1056.36 841.917 1030.68 864.203 1000.41 866.504 C 984.716 867.452 971.716 859.987 971.888 842.948 C 971.973 834.5 972.055 816.652 978.006 810.303 z" fill="rgb(94,72,186)" transform="translate(0,0)"></path>
<path d="M 880.351 667.082 C 881.571 666.977 894.717 664.604 890.563 673.839 C 888.538 675.439 883.623 675.623 881.537 677.059 C 856.35 694.4 862.006 719.788 889.419 727.661 C 897.89 725.418 898.272 725.207 905.8 720.891 C 908.344 723.836 909.62 725.297 911.855 728.474 C 872.127 759.069 828.766 692.662 880.351 667.082 z" fill="rgb(255,255,255)" transform="translate(0,0)"></path>
<path d="M 1193.48 699.851 C 1195.52 700.323 1196.47 700.492 1198.28 701.652 C 1223.66 717.924 1242.59 757.144 1228.24 786 C 1225.68 791.143 1221.62 795.084 1217.52 799.033 C 1212.47 802.773 1210.33 803.071 1214.02 796.358 C 1229.38 768.432 1225.89 736.17 1204.17 712.608 C 1200.73 708.879 1195.7 704.491 1193.48 699.851 z" fill="rgb(94,72,186)" transform="translate(0,0)"></path>
<path d="M 826.491 721.035 C 816.957 684.903 838.948 660.892 873.016 651.267 C 875.679 650.514 891.253 646.322 892.473 649.103 C 892.924 650.119 892.936 651.277 892.507 652.303 C 890.403 656.809 887.599 655.875 882.465 656.666 C 852.848 661.231 831.654 679.538 828.531 710.239 C 828.68 711.601 829.612 725.565 829.149 726.341 C 827.738 726.905 826.705 721.846 826.491 721.035 z" fill="rgb(94,72,186)" transform="translate(0,0)"></path>
<path d="M 826.491 721.035 C 829.771 715.583 826.113 714.158 828.531 710.239 C 828.68 711.601 829.612 725.565 829.149 726.341 C 827.738 726.905 826.705 721.846 826.491 721.035 z" fill="rgb(64,67,160)" transform="translate(0,0)"></path>
<path d="M 586.256 805.198 C 597.161 807.899 606.213 812.871 618.01 813.847 C 623.879 814.333 642.673 817.932 630.569 825.838 C 616.75 830.561 592.805 830.867 584.944 814.988 C 583.507 812.086 584.275 809.63 585.595 806.82 L 586.256 805.198 z" fill="rgb(255,255,255)" transform="translate(0,0)"></path>
<path d="M 989.701 446.29 C 1013.23 448.644 1131.92 500.57 1140.38 522.439 C 1129.61 519.45 1115.2 505.747 1104.9 499.701 C 1080.79 485.537 1056.57 474.259 1030.7 463.827 C 1021.2 460.001 996.502 453.212 989.549 448.575 L 989.701 446.29 z" fill="rgb(255,255,255)" transform="translate(0,0)"></path>
<path d="M 589.743 828.071 C 602.818 833.051 610.084 834.61 624.418 832.665 C 628.949 832.051 637.354 826.142 637.496 831.494 C 637.646 837.116 636.621 837.868 633.177 841.857 C 622.126 850.664 604.482 852.984 592.95 843.043 C 588.672 839.354 589.749 833.333 589.743 828.071 z" fill="rgb(255,255,255)" transform="translate(0,0)"></path>
<path d="M 830.72 584.779 C 832.045 583.016 831.903 583.898 833.237 585.231 C 840.276 604.479 848.971 614.155 869.761 616.519 C 853.568 626.744 837.83 637.518 834.135 657.011 C 834.126 657.062 833.837 658.53 833.612 658.678 C 831.155 660.291 831.47 652.502 831.348 651.5 C 831.704 637.696 837.906 630.16 847.719 621.414 C 836.557 609.828 831.231 600.774 830.72 584.779 z" fill="rgb(94,72,186)" transform="translate(0,0)"></path>
<path d="M 586.743 777.06 C 589.74 777.058 594.371 776.634 596.814 778.579 C 601.428 782.507 606.878 782.854 612.273 784.573 C 614.354 785.236 610.334 788.634 610.314 790.495 C 610.178 795.271 611.168 800.115 613.797 804.162 C 615.253 806.404 616.774 807.457 613.76 807.89 C 600.539 805.594 566.739 793.325 586.743 777.06 z" fill="rgb(255,255,255)" transform="translate(0,0)"></path>
<path d="M 1188.61 573.317 C 1199.69 577.746 1222.35 593.772 1231.94 602.563 C 1234.44 604.857 1234.64 611.338 1234.31 614.769 C 1218.7 603.397 1203.02 591.974 1187.16 581.045 C 1185.95 580.21 1188.41 573.941 1188.61 573.317 z" fill="rgb(120,116,181)" transform="translate(0,0)"></path>
<path d="M 715.113 861.312 C 742.963 875.62 691.956 938.341 674.579 902.64 C 674.671 883.091 682.554 910.344 687.127 909.047 C 707.984 903.132 712.811 895.986 719.294 875.34 C 717.742 868.591 717.788 867.786 715.113 861.312 z" fill="rgb(255,255,255)" transform="translate(0,0)"></path>
<path d="M 1206.5 527.557 C 1215.51 534.361 1230.22 552.016 1235.84 562.499 C 1236.83 564.343 1235.54 567.154 1234.82 568.899 C 1229.94 567.945 1212.54 542.679 1207.45 538.034 C 1204.95 535.749 1206.02 530.81 1206.5 527.557 z" fill="rgb(120,116,181)" transform="translate(0,0)"></path>
<path d="M 961 1059.26 C 965.097 1058.87 968.766 1058.28 972.477 1060.99 C 987.332 1071.83 996.391 1110.05 975.621 1119.44 L 974.187 1120.12 C 972.763 1119.45 970.524 1118.91 969.716 1117.37 C 969.899 1113.45 978.937 1118.12 981.589 1108.37 C 985.894 1092.53 981.917 1071.28 966.587 1062.78 C 965.037 1061.92 963.864 1061.69 962.477 1060.52 L 961 1059.26 z" fill="rgb(255,255,255)" transform="translate(0,0)"></path>
<path d="M 632.289 851.4 C 642.222 858.363 621.286 867.853 605.96 860.843 L 604.584 860.258 C 604.508 860.188 595.045 852.181 602.015 853.68 C 612.779 855.994 622.366 854.912 632.289 851.4 z" fill="rgb(255,255,255)" transform="translate(0,0)"></path>
<path d="M 880.932 560.305 C 869.197 578.548 854.984 587.231 833.237 585.231 C 831.903 583.898 832.045 583.016 830.72 584.779 C 830.232 583.429 830.049 581.115 831.931 581.277 C 854.039 583.183 864.37 573.551 880.932 560.305 z" fill="rgb(64,67,160)" transform="translate(0,0)"></path>
<path d="M 997.517 428.08 C 1007.81 430.731 1046.78 443.438 1052.18 451.169 C 1048.44 450.323 1034.06 445.631 1030.8 443.521 C 1025.06 439.792 996.91 434.738 997.423 429.287 L 997.517 428.08 z" fill="rgb(255,255,255)" transform="translate(0,0)"></path>
<path d="M 1270.89 740.651 C 1272.96 740.002 1275.23 740.533 1276.79 742.036 C 1278.36 743.54 1278.99 745.778 1278.43 747.877 C 1277.87 749.976 1276.21 751.603 1274.1 752.123 C 1270.97 752.893 1267.8 751.041 1266.93 747.941 C 1266.07 744.84 1267.82 741.612 1270.89 740.651 z" fill="rgb(255,255,255)" transform="translate(0,0)"></path>
<path d="M 1198.88 770.608 C 1201.26 768.997 1204.5 769.601 1206.15 771.964 C 1207.79 774.326 1207.24 777.572 1204.9 779.253 C 1203.35 780.363 1201.33 780.555 1199.61 779.756 C 1197.88 778.957 1196.72 777.291 1196.57 775.396 C 1196.42 773.501 1197.3 771.671 1198.88 770.608 z" fill="rgb(255,255,255)" transform="translate(0,0)"></path>
<path d="M 907.113 774.473 C 909.723 773.65 912.516 775.046 913.424 777.627 C 914.331 780.209 913.027 783.046 910.477 784.037 C 908.751 784.708 906.797 784.385 905.379 783.195 C 903.96 782.005 903.303 780.137 903.664 778.321 C 904.025 776.505 905.347 775.03 907.113 774.473 z" fill="rgb(255,255,255)" transform="translate(0,0)"></path>
<path d="M 1168.7 1296.64 C 1171.09 1297.49 1176.48 1300.55 1179.01 1301.92 C 1175.13 1301.03 1171.26 1300.04 1167.42 1298.98 C 1166.57 1298.74 1165.62 1298.56 1164.75 1298.38 L 1168.7 1296.64 z" fill="rgb(57,59,127)" transform="translate(0,0)"></path>
<path d="M 934.475 463.946 C 938.424 465.396 938.728 465.773 940.307 469.632 C 936.661 467.852 934.887 467.952 934.475 463.946 z" fill="rgb(120,116,181)" transform="translate(0,0)"></path>
<path d="M 707.958 403.512 C 702.149 399.479 706.441 400.307 709.973 401.245 L 707.958 403.512 z" fill="rgb(57,59,127)" transform="translate(0,0)"></path>
<path d="M 850.144 1110.64 C 847.742 1114.03 846.389 1112.79 848.208 1109.59 L 850.144 1110.64 z" fill="rgb(191,195,214)" transform="translate(0,0)"></path>
<metadata><recraft-signature>{"signed_by": "recraft", "signature_b64": "oexM15NwwgToRgqScvaykLqIkpFilYMr+PU4fXU3fS/yHKkwzq9ZC6UWRnCVslsW2fNK6nptqG/jg0GzPF/aDA==", "signing_algo": "Ed25519", "generation_timestamp": 1777421815, "identifier": "66673601-6575-44c0-9e1d-e68323bcf335"}</recraft-signature></metadata></svg>