<svg xmlns="http://www.w3.org/2000/svg" height="1024" preserveAspectRatio="none" style="display: block;" version="1.1" viewBox="0 0 2048 2048" width="1024">
<defs>
	<linearGradient gradientUnits="userSpaceOnUse" id="Gradient1" x1="1124.67" x2="1110.48" y1="1166.74" y2="1168.48">
		<stop class="stop0" offset="0" stop-color="rgb(47,50,67)" stop-opacity="1"></stop>
		<stop class="stop1" offset="1" stop-color="rgb(26,53,102)" stop-opacity="1"></stop>
	</linearGradient>
</defs>

<path d="M 724.683 760.414 C 732.144 760.263 742.094 760.527 748.99 758.358 C 771.355 796.191 819.89 797.549 852.296 772.2 C 885.463 822.022 947.941 816.323 978.868 767.27 C 1002.78 798.073 1040.08 802.819 1073.1 783.523 C 1070.13 803.248 1070.61 817.568 1082.27 834.802 L 1082.77 834.847 L 1084.65 837.063 C 1074.74 859.762 1072.69 875.52 1085.58 897.113 C 1086.9 898.686 1087.61 899.745 1088.77 901.452 C 1084.12 907.911 1082.97 914.219 1081.09 921.851 C 1080.64 939.349 1081.75 951.708 1090.88 967.162 C 1087.6 975.533 1087.25 977.052 1086.1 986.261 C 1087.18 999.233 1089.55 1004.21 1097.16 1015.05 C 1087.63 1030.39 1089.46 1050.49 1096.37 1066.52 C 1096.93 1067.45 1097.48 1068.39 1098.02 1069.33 C 1100.62 1071.21 1101.25 1071.99 1103.51 1068.97 C 1110.08 1060.21 1117.51 1052.03 1128.19 1048.38 C 1142.23 1043.57 1156.8 1049.11 1168.38 1057.26 C 1174.1 1061.32 1174.84 1063.18 1181.2 1066.33 C 1185.69 1077.46 1182.28 1091.74 1177.8 1102.44 C 1174.62 1106.6 1171.61 1110.9 1167.8 1114.48 C 1184.34 1128.54 1191.42 1139.68 1201.13 1159.1 C 1236.15 1150.84 1252.34 1135.47 1263.82 1101.83 C 1306.42 1134.68 1372.34 1124.97 1404.98 1082.87 C 1422.2 1089.7 1431.24 1095.24 1445.58 1107.56 C 1469.99 1129.69 1484.91 1162.69 1486.48 1195.56 C 1488.04 1223.76 1479.59 1251.6 1462.6 1274.16 C 1598.81 1359.3 1504.36 1547.16 1361.8 1500.73 C 1351.34 1530.02 1336.6 1550.74 1307.81 1564.38 C 1299.11 1568.5 1289.89 1571.41 1280.4 1573.03 C 1275.15 1573.95 1261.05 1574.64 1258.34 1576.89 C 1264 1608.05 1264.25 1628.78 1263.93 1660.14 C 1252.25 1655.8 1243.28 1651.6 1230.37 1651.23 C 1211.23 1650.69 1188.59 1655.49 1174.3 1668.97 C 1155.26 1658.28 1140.86 1658.15 1119.87 1663.05 C 1110.16 1665.31 1097.9 1673.21 1095.06 1673.8 C 1094.87 1665.32 1094.79 1656.84 1094.84 1648.36 C 1093.81 1638.29 1094.37 1622.71 1094.47 1612.26 C 1046.39 1613.14 1012.65 1592.67 987.354 1552.53 C 986.59 1554.06 985.795 1555.58 984.97 1557.08 C 967.996 1588.17 940.049 1601.27 908.053 1610.41 C 906.06 1612.98 906.792 1613.69 906.696 1617.76 C 905.75 1616.37 905.596 1613.29 905.319 1611.38 C 900.504 1610.23 893.01 1611.64 887.796 1611.51 C 838.853 1610.33 812.081 1584.15 788.013 1545.6 C 776.512 1557.13 760.386 1564.54 745.132 1569.64 C 692.241 1586.23 631.678 1558.1 613.688 1504.45 C 589.593 1513.09 571.441 1515.46 545.815 1510.42 C 513.77 1503.98 485.645 1484.96 467.733 1457.62 C 447.731 1427.67 442.132 1394.83 449.237 1359.87 C 456.012 1332.64 471.904 1308.55 494.269 1291.61 C 499.74 1287.97 505.268 1284.41 510.85 1280.94 C 509.848 1279.16 508.889 1277.35 507.974 1275.51 C 475.905 1211.69 495.393 1133.79 561.058 1101.33 L 568.77 1099.14 C 569.771 1098.9 584.318 1092.66 586.284 1091.86 C 578.636 1081.14 576.184 1070.93 580.736 1058.25 C 585.37 1055.93 585.512 1054.67 589.278 1051.28 C 611.49 1031.31 646.328 1025.11 661.913 1055.42 C 663.082 1052.93 663.852 1051.03 665.594 1048.93 L 666.178 1047.57 C 677.876 1037.08 678.781 1022.36 678.11 1007.88 L 678.685 1007.58 C 690.466 993.218 699.328 968.396 688.887 951.162 C 689.639 948.109 689.935 946.739 691.108 943.837 L 691.785 943.621 C 699.957 929.937 710.422 895.451 696.545 883.642 L 699.291 879.43 L 699.433 878.49 C 711.624 863.155 715.747 846.793 710.543 827.685 C 710.817 825.884 710.972 824.911 711.431 823.122 C 714.978 817.216 717.689 812.601 720.723 806.427 L 721.125 805.149 C 724.481 794.14 728.112 772.322 722.424 761.861 L 724.683 760.414 z" fill="rgb(99,150,199)" transform="translate(0,0)"></path>
<path d="M 1428.7 1304.62 C 1442.54 1296.42 1451.96 1286.1 1462.6 1274.16 C 1598.81 1359.3 1504.36 1547.16 1361.8 1500.73 C 1351.34 1530.02 1336.6 1550.74 1307.81 1564.38 C 1299.11 1568.5 1289.89 1571.41 1280.4 1573.03 C 1275.15 1573.95 1261.05 1574.64 1258.34 1576.89 C 1264 1608.05 1264.25 1628.78 1263.93 1660.14 C 1252.25 1655.8 1243.28 1651.6 1230.37 1651.23 C 1211.23 1650.69 1188.59 1655.49 1174.3 1668.97 C 1155.26 1658.28 1140.86 1658.15 1119.87 1663.05 C 1110.16 1665.31 1097.9 1673.21 1095.06 1673.8 C 1094.87 1665.32 1094.79 1656.84 1094.84 1648.36 C 1093.81 1638.29 1094.37 1622.71 1094.47 1612.26 C 1046.39 1613.14 1012.65 1592.67 987.354 1552.53 C 986.59 1554.06 985.795 1555.58 984.97 1557.08 C 967.996 1588.17 940.049 1601.27 908.053 1610.41 C 906.06 1612.98 906.792 1613.69 906.696 1617.76 C 905.75 1616.37 905.596 1613.29 905.319 1611.38 C 900.504 1610.23 893.01 1611.64 887.796 1611.51 C 838.853 1610.33 812.081 1584.15 788.013 1545.6 C 776.512 1557.13 760.386 1564.54 745.132 1569.64 C 692.241 1586.23 631.678 1558.1 613.688 1504.45 C 589.593 1513.09 571.441 1515.46 545.815 1510.42 C 513.77 1503.98 485.645 1484.96 467.733 1457.62 C 447.731 1427.67 442.132 1394.83 449.237 1359.87 C 456.012 1332.64 471.904 1308.55 494.269 1291.61 C 499.74 1287.97 505.268 1284.41 510.85 1280.94 C 554.916 1347.94 630.87 1358.71 698.096 1319.02 C 709.14 1348.12 726.437 1369.38 755.372 1382.48 C 785.628 1396.05 820.051 1396.98 850.995 1385.06 C 874.03 1376.1 889.357 1362.93 906.051 1345.35 C 919.551 1372.87 938.012 1390.52 967.395 1400.37 C 996.473 1409.79 1028.1 1407.3 1055.35 1393.44 C 1078.35 1381.73 1094.89 1365.42 1107.82 1343.32 C 1166.73 1417.14 1273.94 1397.41 1303.2 1305.72 C 1346.38 1322.89 1372.38 1328.82 1417.66 1310.31 L 1428.7 1304.62 z" fill="rgb(59,116,172)" transform="translate(0,0)"></path>
<path d="M 510.85 1280.94 C 554.916 1347.94 630.87 1358.71 698.096 1319.02 C 709.14 1348.12 726.437 1369.38 755.372 1382.48 C 785.628 1396.05 820.051 1396.98 850.995 1385.06 C 874.03 1376.1 889.357 1362.93 906.051 1345.35 C 919.551 1372.87 938.012 1390.52 967.395 1400.37 C 996.473 1409.79 1028.1 1407.3 1055.35 1393.44 C 1078.35 1381.73 1094.89 1365.42 1107.82 1343.32 C 1166.73 1417.14 1273.94 1397.41 1303.2 1305.72 C 1346.38 1322.89 1372.38 1328.82 1417.66 1310.31 C 1426.15 1321.16 1432.36 1333.43 1430.48 1347.66 C 1427.92 1367.06 1410.08 1374.27 1392.95 1367.29 C 1394.81 1374.76 1396.23 1379.23 1395.99 1386.95 C 1395.16 1413.43 1371.08 1424.76 1349.37 1410.5 C 1345.18 1407.74 1341.52 1404.79 1337.6 1401.62 C 1311.27 1465.69 1238.78 1471.37 1188.82 1429.94 C 1176.56 1453.4 1161.33 1457.42 1136.63 1448.81 C 1130.51 1498.36 1083.21 1518.76 1060.19 1469.32 C 1050.39 1473.41 1042.28 1475.94 1031.85 1471.87 C 1017.53 1466.3 1012.24 1452.7 1015.02 1438.55 C 1000.71 1438.19 994.485 1438 983.669 1427.44 C 980.861 1434.39 979.117 1438.34 975.553 1444.91 C 973.816 1446.85 972.756 1447.91 971.425 1450.15 C 951.216 1466.93 927.114 1472.6 903.391 1458.48 C 868.716 1493.24 814.56 1481.98 806.215 1429.36 C 798.232 1426.34 795.998 1425.11 788.795 1420.67 C 781.015 1433.46 771.43 1442.67 758.454 1450.18 C 737.732 1462.22 713.093 1465.58 689.904 1459.54 C 675.977 1455.8 654.162 1444.23 646.811 1431.55 C 644.284 1428.61 642.206 1427.13 639.116 1423.33 C 630.3 1428.33 618.277 1436.63 608.536 1438.23 C 568.704 1444.77 535.164 1431.53 526.595 1389.18 C 501.214 1388.02 482.785 1364.74 495.618 1340.74 C 499.086 1334.26 502.139 1331.24 507.24 1326.23 C 499.241 1311.93 498.541 1307.36 494.269 1291.61 C 499.74 1287.97 505.268 1284.41 510.85 1280.94 z" fill="rgb(99,150,199)" transform="translate(0,0)"></path>
<path d="M 639.116 1423.33 C 638.435 1421.93 635.957 1416.02 635.382 1416.21 C 625.051 1419.58 616.296 1422.43 607.813 1412.6 C 603.217 1407.28 600.07 1398.25 601.087 1390 C 601.911 1383.33 605.125 1375.39 610.468 1370.45 C 610.903 1370.04 611.848 1369.73 612.48 1369.87 C 613.352 1370.06 613.944 1370.83 614.361 1371.57 C 614.711 1372.2 614.429 1373.33 614.138 1373.94 C 613.753 1374.75 613.114 1375.61 612.629 1376.39 C 608.06 1383.67 606.588 1393.24 608.817 1401.53 C 609.896 1405.55 612.086 1408.62 615.608 1410.77 C 618.968 1412.82 623.772 1413.17 627.4 1411.69 C 631.72 1409.94 636.041 1407.49 640.533 1405.54 L 641.507 1408.93 C 651.152 1443.58 666.087 1417.79 671.053 1420.09 C 674.134 1424.46 667.555 1428.75 664.371 1430.6 C 658.966 1433.75 653.914 1433.16 648.062 1431.82 L 646.811 1431.55 C 644.284 1428.61 642.206 1427.13 639.116 1423.33 z" fill="rgb(5,62,120)" transform="translate(0,0)"></path>
<path d="M 1309.42 1385.27 C 1313.49 1385.56 1315.52 1385.09 1316.65 1390.12 C 1322.07 1414.31 1306.59 1442.06 1278.9 1436.5 C 1272.77 1435.27 1268.22 1432.16 1262.92 1428.72 C 1261.38 1427.01 1255.87 1421.23 1261.44 1419.26 C 1264.13 1418.31 1266.7 1423.68 1269.39 1425.62 C 1281.87 1434.6 1296.69 1432.28 1305.76 1419.83 C 1313.73 1409.13 1311.53 1398.12 1309.42 1385.27 z" fill="rgb(5,62,120)" transform="translate(0,0)"></path>
<path d="M 449.237 1359.87 C 456.012 1332.64 471.904 1308.55 494.269 1291.61 C 498.541 1307.36 499.241 1311.93 507.24 1326.23 C 502.139 1331.24 499.086 1334.26 495.618 1340.74 C 482.785 1364.74 501.214 1388.02 526.595 1389.18 C 535.164 1431.53 568.704 1444.77 608.536 1438.23 C 618.277 1436.63 630.3 1428.33 639.116 1423.33 C 642.206 1427.13 644.284 1428.61 646.811 1431.55 C 654.162 1444.23 675.977 1455.8 689.904 1459.54 C 713.093 1465.58 737.732 1462.22 758.454 1450.18 C 771.43 1442.67 781.015 1433.46 788.795 1420.67 C 795.998 1425.11 798.232 1426.34 806.215 1429.36 C 814.56 1481.98 868.716 1493.24 903.391 1458.48 C 927.114 1472.6 951.216 1466.93 971.425 1450.15 C 971.507 1452.59 970.853 1455.43 970.648 1458.27 C 970.335 1459.6 968.367 1463.9 967.58 1465.34 C 952.809 1492.41 930.073 1513.66 900.742 1523.09 C 877.035 1530.79 851.232 1528.65 829.113 1517.16 C 803.399 1503.7 791.214 1485.8 782.741 1458.87 C 776.446 1464.8 770.775 1469.89 763.767 1474.84 C 729.872 1498.77 682.797 1503.97 648.098 1478.66 C 634.21 1468.54 626.048 1457.45 616.646 1443.34 C 604.972 1453.04 590.691 1459.07 575.599 1460.67 C 529.593 1465.45 500.72 1432.85 496.759 1389.28 C 473.73 1387.27 461.506 1379.28 449.237 1359.87 z" fill="rgb(144,180,218)" transform="translate(0,0)"></path>
<path d="M 1428.7 1304.62 C 1442.06 1330.33 1449.09 1350.25 1439.59 1379.79 C 1432.63 1402.06 1416.96 1420.56 1396.13 1431.07 C 1378.51 1439.85 1360.16 1440.9 1341.62 1434.46 C 1339.24 1433.62 1336.88 1432.71 1334.56 1431.73 C 1326.46 1445.69 1320.4 1453.58 1308.83 1464.46 C 1278.9 1492.59 1235.14 1500.59 1198.84 1479.86 C 1190.03 1474.82 1183.84 1468.85 1176.39 1461.77 C 1163.12 1491.91 1144.16 1514.19 1112.72 1526.42 C 1088.53 1535.85 1061.56 1535.19 1037.86 1524.59 C 1009.36 1511.82 982.996 1479.66 976.511 1449.15 C 976.502 1447.37 976.109 1446.65 975.553 1444.91 C 979.117 1438.34 980.861 1434.39 983.669 1427.44 C 994.485 1438 1000.71 1438.19 1015.02 1438.55 C 1012.24 1452.7 1017.53 1466.3 1031.85 1471.87 C 1042.28 1475.94 1050.39 1473.41 1060.19 1469.32 C 1083.21 1518.76 1130.51 1498.36 1136.63 1448.81 C 1161.33 1457.42 1176.56 1453.4 1188.82 1429.94 C 1238.78 1471.37 1311.27 1465.69 1337.6 1401.62 C 1341.52 1404.79 1345.18 1407.74 1349.37 1410.5 C 1371.08 1424.76 1395.16 1413.43 1395.99 1386.95 C 1396.23 1379.23 1394.81 1374.76 1392.95 1367.29 C 1410.08 1374.27 1427.92 1367.06 1430.48 1347.66 C 1432.36 1333.43 1426.15 1321.16 1417.66 1310.31 L 1428.7 1304.62 z" fill="rgb(144,180,218)" transform="translate(0,0)"></path>
<path d="M 1188.5 1547.18 C 1201.69 1560.29 1217.26 1567.33 1234.98 1572.4 C 1241.31 1574.21 1255.58 1574.37 1258.34 1576.89 C 1264 1608.05 1264.25 1628.78 1263.93 1660.14 C 1252.25 1655.8 1243.28 1651.6 1230.37 1651.23 C 1211.23 1650.69 1188.59 1655.49 1174.3 1668.97 C 1155.26 1658.28 1140.86 1658.15 1119.87 1663.05 C 1110.16 1665.31 1097.9 1673.21 1095.06 1673.8 C 1094.87 1665.32 1094.79 1656.84 1094.84 1648.36 C 1095.72 1639.28 1095.27 1621.76 1095.25 1612.02 C 1141.07 1605.29 1166.78 1588.06 1188.5 1547.18 z" fill="rgb(5,62,120)" transform="translate(0,0)"></path>
<path d="M 1161.51 1597.55 C 1167.53 1601.81 1166.07 1616.47 1177.98 1613.74 C 1180.88 1614.14 1188.43 1601.15 1191.2 1605.3 C 1195.86 1612.31 1173.56 1628.61 1165.92 1616.51 C 1165.09 1615.19 1163.64 1613.26 1162.09 1614.71 C 1152.69 1624.18 1138.1 1628.66 1128.46 1613.95 C 1127.38 1612.3 1130.11 1607.42 1134.23 1611.34 C 1149.77 1626.1 1155.95 1610.5 1161.51 1597.55 z" fill="rgb(50,75,105)" transform="translate(0,0)"></path>
<path d="M 971.425 1450.15 C 972.756 1447.91 973.816 1446.85 975.553 1444.91 C 976.109 1446.65 976.502 1447.37 976.511 1449.15 C 973.511 1449.85 972.417 1455.13 970.648 1458.27 C 970.853 1455.43 971.507 1452.59 971.425 1450.15 z" fill="rgb(144,180,218)" transform="translate(0,0)"></path>
<path d="M 1404.98 1082.87 C 1422.2 1089.7 1431.24 1095.24 1445.58 1107.56 C 1469.99 1129.69 1484.91 1162.69 1486.48 1195.56 C 1488.04 1223.76 1479.59 1251.6 1462.6 1274.16 C 1451.96 1286.1 1442.54 1296.42 1428.7 1304.62 L 1417.66 1310.31 C 1372.38 1328.82 1346.38 1322.89 1303.2 1305.72 C 1273.94 1397.41 1166.73 1417.14 1107.82 1343.32 C 1094.89 1365.42 1078.35 1381.73 1055.35 1393.44 C 1028.1 1407.3 996.473 1409.79 967.395 1400.37 C 938.012 1390.52 919.551 1372.87 906.051 1345.35 C 889.357 1362.93 874.03 1376.1 850.995 1385.06 C 820.051 1396.98 785.628 1396.05 755.372 1382.48 C 726.437 1369.38 709.14 1348.12 698.096 1319.02 C 630.87 1358.71 554.916 1347.94 510.85 1280.94 C 509.848 1279.16 508.889 1277.35 507.974 1275.51 C 475.905 1211.69 495.393 1133.79 561.058 1101.33 L 568.77 1099.14 C 559.489 1107.12 549.534 1115.31 543.014 1125.84 C 536.392 1136.53 511.259 1183.49 539.445 1182.47 C 540.207 1182.44 540.968 1182.39 541.729 1182.34 C 554.876 1232.98 608.407 1258.29 657.088 1244.82 C 675.139 1239.83 691.585 1230.76 706.06 1218.98 C 738.896 1312.71 851.32 1316.69 906.887 1239.12 C 924.509 1269.97 941.347 1289.63 977.916 1299.4 C 1006.23 1307.11 1036.47 1303.05 1061.75 1288.15 C 1082.23 1276.25 1092.69 1262.43 1103.29 1241.77 C 1123.34 1263.34 1147.83 1278.51 1177.77 1278.81 C 1224.89 1279.28 1263.3 1257.98 1272.58 1210.49 C 1298.11 1229.18 1320.1 1237.82 1352.27 1233.32 C 1401.93 1226.38 1436.99 1182.39 1430.97 1132.43 C 1429.68 1121.86 1424.75 1114.23 1417.59 1106.71 C 1412.98 1120.75 1409.15 1136.46 1399.04 1147.44 C 1365.48 1183.86 1314.78 1184.09 1277.91 1154.08 C 1262.58 1177.92 1238.65 1199.05 1211.33 1207.68 C 1210.96 1188.21 1208.32 1177.15 1201.13 1159.1 C 1236.15 1150.84 1252.34 1135.47 1263.82 1101.83 C 1306.42 1134.68 1372.34 1124.97 1404.98 1082.87 z" fill="rgb(5,62,120)" transform="translate(0,0)"></path>
<path d="M 724.683 760.414 C 732.144 760.263 742.094 760.527 748.99 758.358 C 771.355 796.191 819.89 797.549 852.296 772.2 C 885.463 822.022 947.941 816.323 978.868 767.27 C 1002.78 798.073 1040.08 802.819 1073.1 783.523 C 1070.13 803.248 1070.61 817.568 1082.27 834.802 L 1082.77 834.847 L 1084.65 837.063 C 1074.74 859.762 1072.69 875.52 1085.58 897.113 C 1086.9 898.686 1087.61 899.745 1088.77 901.452 C 1084.12 907.911 1082.97 914.219 1081.09 921.851 C 1080.64 939.349 1081.75 951.708 1090.88 967.162 C 1087.6 975.533 1087.25 977.052 1086.1 986.261 C 1044.16 992.932 1015.07 986.723 982.996 957.772 C 974.309 967.394 967.766 974.903 956.489 981.762 C 935.929 994.147 911.295 997.867 887.995 992.105 C 859.891 985.115 842.464 967.546 828.158 943.496 C 784.192 968.32 734.399 975.869 691.785 943.621 C 699.957 929.937 710.422 895.451 696.545 883.642 L 699.291 879.43 L 699.433 878.49 C 711.624 863.155 715.747 846.793 710.543 827.685 C 710.817 825.884 710.972 824.911 711.431 823.122 C 714.978 817.216 717.689 812.601 720.723 806.427 L 721.125 805.149 C 724.481 794.14 728.112 772.322 722.424 761.861 L 724.683 760.414 z" fill="rgb(99,150,199)" transform="translate(0,0)"></path>
<path d="M 699.291 879.43 C 719.184 898.029 736.026 907.187 764.32 906.293 C 788.622 905.562 812.063 897.131 831.263 882.216 C 848.95 926.889 891.997 948.528 938.194 930.841 C 955.948 924.043 971.684 911.17 981.216 894.596 C 1006.04 924.861 1044.16 938.079 1081.09 921.851 C 1080.64 939.349 1081.75 951.708 1090.88 967.162 C 1087.6 975.533 1087.25 977.052 1086.1 986.261 C 1044.16 992.932 1015.07 986.723 982.996 957.772 C 974.309 967.394 967.766 974.903 956.489 981.762 C 935.929 994.147 911.295 997.867 887.995 992.105 C 859.891 985.115 842.464 967.546 828.158 943.496 C 784.192 968.32 734.399 975.869 691.785 943.621 C 699.957 929.937 710.422 895.451 696.545 883.642 L 699.291 879.43 z" fill="rgb(5,62,120)" transform="translate(0,0)"></path>
<path d="M 724.683 760.414 C 732.144 760.263 742.094 760.527 748.99 758.358 C 771.355 796.191 819.89 797.549 852.296 772.2 C 885.463 822.022 947.941 816.323 978.868 767.27 C 1002.78 798.073 1040.08 802.819 1073.1 783.523 C 1070.13 803.248 1070.61 817.568 1082.27 834.802 C 1071.31 843.476 1055.31 848.514 1041.46 849.193 C 1016.32 850.423 999.602 841.576 981.496 825.409 C 955.696 858.837 911.916 862.83 875.741 842.395 C 866 836.892 858.894 828.688 852.024 819.981 C 818.116 840.426 759.357 839.306 736.507 803.047 C 730.397 804.74 726.967 805.434 720.723 806.427 L 721.125 805.149 C 724.481 794.14 728.112 772.322 722.424 761.861 L 724.683 760.414 z" fill="rgb(5,62,120)" transform="translate(0,0)"></path>
<path d="M 691.108 943.837 L 691.785 943.621 C 734.399 975.869 784.192 968.32 828.158 943.496 C 842.464 967.546 859.891 985.115 887.995 992.105 C 911.295 997.867 935.929 994.147 956.489 981.762 C 967.766 974.903 974.309 967.394 982.996 957.772 C 1015.07 986.723 1044.16 992.932 1086.1 986.261 C 1087.18 999.233 1089.55 1004.21 1097.16 1015.05 C 1087.63 1030.39 1089.46 1050.49 1096.37 1066.52 C 1096.93 1067.45 1097.48 1068.39 1098.02 1069.33 L 1097.9 1069.91 C 1096.54 1079.15 1096.06 1083.43 1096.07 1092.69 C 1084.38 1083.78 1079.23 1077.4 1071.36 1065.19 C 1030.82 1126.94 964.598 1120.43 919.517 1067.21 C 916.37 1071.42 914.168 1074.25 910.433 1078.03 C 873.228 1115.62 800.212 1118.08 768.595 1071.95 C 760.85 1060.66 758.005 1051.55 754.542 1038.28 C 730.499 1064.45 698.282 1081.5 662.577 1068.78 C 662.981 1063.93 662.405 1060.23 661.913 1055.42 C 663.082 1052.93 663.852 1051.03 665.594 1048.93 L 666.178 1047.57 C 677.876 1037.08 678.781 1022.36 678.11 1007.88 L 678.685 1007.58 C 690.466 993.218 699.328 968.396 688.887 951.162 C 689.639 948.109 689.935 946.739 691.108 943.837 z" fill="rgb(99,150,199)" transform="translate(0,0)"></path>
<path d="M 759.656 1007.93 C 760.437 1009.13 761.204 1010.33 761.956 1011.54 C 764.699 1036.43 768.996 1062.59 801.556 1058.65 C 803.28 1058.44 805 1058.2 806.714 1057.93 C 814.086 1079.84 827.093 1092.59 852.406 1084.51 C 867.66 1079.64 876.009 1065.45 881.617 1051.21 C 899.913 1061.84 914.547 1058.45 927.963 1041.72 C 934.752 1056.42 942.364 1070.36 958.678 1076.6 C 967.81 1080.08 977.976 1079.61 986.749 1075.31 C 995.479 1071.1 999.369 1066.4 1004.57 1058.85 C 1009.43 1066.39 1014.37 1070.46 1023.48 1072.63 C 1032.56 1074.84 1042.16 1073.21 1050 1068.1 C 1059.22 1062.01 1063.65 1054.16 1067.62 1044.33 C 1074.6 1055.18 1083.89 1068.46 1097.9 1069.91 C 1096.54 1079.15 1096.06 1083.43 1096.07 1092.69 C 1084.38 1083.78 1079.23 1077.4 1071.36 1065.19 C 1030.82 1126.94 964.598 1120.43 919.517 1067.21 C 916.37 1071.42 914.168 1074.25 910.433 1078.03 C 873.228 1115.62 800.212 1118.08 768.595 1071.95 C 760.85 1060.66 758.005 1051.55 754.542 1038.28 C 730.499 1064.45 698.282 1081.5 662.577 1068.78 C 662.981 1063.93 662.405 1060.23 661.913 1055.42 C 663.082 1052.93 663.852 1051.03 665.594 1048.93 C 688.085 1057.09 698.249 1057.27 713.596 1038.01 C 736.697 1034.43 749.026 1031.18 759.656 1007.93 z" fill="rgb(144,180,218)" transform="translate(0,0)"></path>
<path d="M 759.656 1007.93 C 759.798 1006.29 759.898 1004.66 760.241 1003.04 L 761.23 1002.65 C 761.084 1002.38 760.938 1002.12 760.792 1001.86 L 761.09 1001.9 L 761.228 1001.7 C 762.561 1002.44 762.003 1010.05 761.956 1011.54 C 761.204 1010.33 760.437 1009.13 759.656 1007.93 z" fill="rgb(144,180,218)" transform="translate(0,0)"></path>
<path d="M 754.542 1038.28 C 758.005 1051.55 760.85 1060.66 768.595 1071.95 C 800.212 1118.08 873.228 1115.62 910.433 1078.03 C 914.168 1074.25 916.37 1071.42 919.517 1067.21 C 964.598 1120.43 1030.82 1126.94 1071.36 1065.19 C 1079.23 1077.4 1084.38 1083.78 1096.07 1092.69 C 1101.99 1100.31 1105.44 1103.82 1113.51 1109.28 C 1104.59 1117.64 1101.09 1121.96 1094.71 1132.69 C 1094.33 1133.33 1089.01 1142.06 1088.79 1142.31 C 1070.83 1154.8 1068.2 1161.22 1045.74 1168 C 987.921 1185.45 938.956 1171.95 919.255 1111.69 C 911.535 1125.08 895.717 1137.82 882.789 1145.91 C 833.426 1176.79 768.229 1167.37 737.291 1116.07 C 711.208 1129.57 684.358 1131.89 656.517 1122.4 C 653.79 1110.51 652.051 1105.84 646.358 1095.07 C 656.138 1086.28 658.555 1080.69 662.577 1068.78 C 698.282 1081.5 730.499 1064.45 754.542 1038.28 z" fill="rgb(59,116,172)" transform="translate(0,0)"></path>
<path d="M 919.255 1111.69 C 938.956 1171.95 987.921 1185.45 1045.74 1168 C 1068.2 1161.22 1070.83 1154.8 1088.79 1142.31 C 1079.29 1163.3 1067.04 1193.39 1071.94 1216.82 C 1018.44 1246.82 944.66 1243.43 911.76 1185.86 C 879.054 1217.15 828.083 1230.42 785.009 1214.69 C 762.21 1206.37 748.442 1188.57 734.074 1169.97 C 707.443 1188.26 692.457 1190.98 661.647 1192.09 C 663.001 1168.73 661.276 1145.3 656.517 1122.4 C 684.358 1131.89 711.208 1129.57 737.291 1116.07 C 768.229 1167.37 833.426 1176.79 882.789 1145.91 C 895.717 1137.82 911.535 1125.08 919.255 1111.69 z" fill="rgb(5,62,120)" transform="translate(0,0)"></path>
<path d="M 1098.02 1069.33 C 1100.62 1071.21 1101.25 1071.99 1103.51 1068.97 C 1110.08 1060.21 1117.51 1052.03 1128.19 1048.38 C 1142.23 1043.57 1156.8 1049.11 1168.38 1057.26 C 1174.1 1061.32 1174.84 1063.18 1181.2 1066.33 C 1185.69 1077.46 1182.28 1091.74 1177.8 1102.44 C 1174.62 1106.6 1171.61 1110.9 1167.8 1114.48 C 1184.34 1128.54 1191.42 1139.68 1201.13 1159.1 C 1208.32 1177.15 1210.96 1188.21 1211.33 1207.68 C 1210.4 1211.33 1210.26 1214.11 1207.4 1216.29 C 1201.51 1217.39 1198.09 1213.61 1193.58 1210.08 C 1182.71 1212.42 1169.17 1210.11 1162.4 1211.84 C 1150.55 1238.92 1130.78 1233.43 1122.08 1208.24 C 1120.61 1203.97 1119.66 1199.88 1118.64 1195.49 C 1115.44 1193.46 1113.66 1192.36 1110.56 1189.98 C 1105.01 1202.68 1091.81 1223.13 1075.58 1220.61 C 1073.25 1219.05 1073.29 1219.24 1071.94 1216.82 C 1067.04 1193.39 1079.29 1163.3 1088.79 1142.31 C 1089.01 1142.06 1094.33 1133.33 1094.71 1132.69 C 1101.09 1121.96 1104.59 1117.64 1113.51 1109.28 C 1105.44 1103.82 1101.99 1100.31 1096.07 1092.69 C 1096.06 1083.43 1096.54 1079.15 1097.9 1069.91 L 1098.02 1069.33 z" fill="rgb(236,83,35)" transform="translate(0,0)"></path>
<path d="M 1162.4 1211.84 C 1169.8 1183.71 1165.06 1169.63 1162.74 1142.52 C 1172.98 1171.43 1171.08 1186.15 1193.58 1210.08 C 1182.71 1212.42 1169.17 1210.11 1162.4 1211.84 z" fill="rgb(5,62,120)" transform="translate(0,0)"></path>
<path d="M 1110.56 1189.98 C 1114.77 1175.6 1115.61 1160.34 1120.02 1145.98 C 1120.41 1144.69 1121.57 1141.81 1123.28 1142.64 C 1124.13 1144.5 1120.73 1159.55 1119.89 1163.52 C 1117.39 1175.32 1118.33 1183.71 1118.64 1195.49 C 1115.44 1193.46 1113.66 1192.36 1110.56 1189.98 z" fill="url(#Gradient1)" transform="translate(0,0)"></path>
<path d="M 580.736 1058.25 C 585.37 1055.93 585.512 1054.67 589.278 1051.28 C 611.49 1031.31 646.328 1025.11 661.913 1055.42 C 662.405 1060.23 662.981 1063.93 662.577 1068.78 C 658.555 1080.69 656.138 1086.28 646.358 1095.07 C 652.051 1105.84 653.79 1110.51 656.517 1122.4 C 661.276 1145.3 663.001 1168.73 661.647 1192.09 C 660.887 1198.33 661.263 1203.08 654.884 1206 C 644.731 1206.65 639.407 1194.73 636.115 1186.84 C 630.333 1185.19 624.462 1182.48 619.037 1179.89 C 617.048 1187.2 608.718 1199.21 600.988 1198.42 C 587.216 1197.02 591.992 1159.41 592.607 1150.96 L 586.385 1152.33 C 573.892 1167.3 560.248 1176.06 541.729 1182.34 C 540.968 1182.39 540.207 1182.44 539.445 1182.47 C 511.259 1183.49 536.392 1136.53 543.014 1125.84 C 549.534 1115.31 559.489 1107.12 568.77 1099.14 C 569.771 1098.9 584.318 1092.66 586.284 1091.86 C 578.636 1081.14 576.184 1070.93 580.736 1058.25 z" fill="rgb(236,83,35)" transform="translate(0,0)"></path>
<path d="M 624.506 1142.5 C 625.534 1146.97 626.401 1151.47 627.106 1155.99 C 628.64 1165.27 632.581 1178.22 636.115 1186.84 C 630.333 1185.19 624.462 1182.48 619.037 1179.89 L 619.379 1178.31 L 619.806 1176.48 C 622.393 1165.14 623.026 1153.97 624.506 1142.5 z" fill="rgb(5,62,120)" transform="translate(0,0)"></path>
<path d="M 586.385 1152.33 C 587.834 1149.76 590.536 1143.82 592.488 1141.81 C 592.578 1141.72 592.8 1141.82 592.843 1141.9 C 593.64 1143.38 592.758 1149.62 592.607 1150.96 L 586.385 1152.33 z" fill="rgb(5,62,120)" transform="translate(0,0)"></path>
<path d="M 1004.59 221.313 C 1000.26 236.029 1003.57 248.408 1019.79 252.603 C 1034.19 256.329 1047.82 251.764 1061.49 247.548 C 1060.35 254.23 1058.61 260.935 1062.42 266.9 C 1071.98 281.835 1093.59 275.562 1104.71 265.786 C 1109.24 261.796 1116.23 247.917 1117.2 247.577 C 1122.23 252.961 1127.89 257.184 1134.14 261.076 L 1139.11 265.265 C 1177.77 293.974 1207.94 332.604 1226.43 377.063 C 1231.14 383.733 1238.58 410.212 1240.82 419.078 C 1242.76 429.434 1247.29 440.42 1248.18 451.491 C 1248.51 455.563 1249.9 460.915 1250.49 465.21 C 1252.09 478.285 1252.56 488.361 1252.9 501.382 C 1256.07 503.612 1258.4 505.01 1261.77 506.959 C 1273.2 507.571 1310.02 513.028 1320.17 517.56 C 1382.15 537.06 1425.89 571.254 1456.19 629.09 C 1481.35 676.527 1486.16 732.147 1469.53 783.202 C 1455.56 826.844 1418.87 878.066 1377.42 899.237 C 1375.61 900.156 1373.79 901.05 1371.97 901.92 C 1355.11 892.284 1349.63 892.163 1333.3 885.165 C 1326.9 897.035 1321.59 906.213 1312.49 916.112 C 1289.59 938.904 1258.61 951.719 1226.3 951.764 C 1210.09 951.917 1193.99 949.03 1178.84 943.251 C 1183.89 930.7 1185.2 902.293 1173.95 893.264 C 1173.48 893.271 1173.02 893.285 1172.55 893.284 C 1166.44 893.272 1136.88 854.762 1106.39 881.748 C 1100.11 887.314 1095.69 897.415 1088.77 901.452 C 1087.61 899.745 1086.9 898.686 1085.58 897.113 C 1072.69 875.52 1074.74 859.762 1084.65 837.063 L 1082.77 834.847 L 1082.27 834.802 C 1070.61 817.568 1070.13 803.248 1073.1 783.523 C 1040.08 802.819 1002.78 798.073 978.868 767.27 C 947.941 816.323 885.463 822.022 852.296 772.2 C 819.89 797.549 771.355 796.191 748.99 758.358 C 742.094 760.527 732.144 760.263 724.683 760.414 L 722.424 761.861 C 718.59 760.943 716.229 757.234 713.397 755.181 C 699.697 745.248 680.688 743.548 665.498 751.013 C 653.403 755.764 645.593 768.163 637.009 769.777 C 636.78 769.82 634.749 768.443 634.534 768.303 L 634.222 768.103 L 633.816 767.296 C 628.643 749.578 634.136 728.029 641.919 711.818 L 642.718 710.132 C 642.273 708.002 642.059 705.898 641.26 703.869 C 637.4 676.935 651.454 649.624 668.33 629.396 C 668.99 626.179 669.086 625.787 667.188 623.079 C 665.306 613.842 665.086 599.724 668.504 590.859 L 668.02 590.158 C 660.261 584.808 654.835 570.962 653.334 561.782 C 646.217 518.241 664.326 467.462 701.975 442.727 C 710.046 437.425 719.026 432.999 727.468 428.186 L 730.041 425.909 L 731.275 425.03 C 735.898 412.301 741.528 401.221 748.327 389.573 C 754.228 378.456 763.733 362.05 771.491 352.684 C 776.31 342.116 792.647 324.782 801.128 315.699 C 807.755 308.19 817.602 299.683 825.252 292.998 C 873.153 251.139 927.45 235.454 988.128 223.544 L 1004.59 221.313 z" fill="rgb(236,83,35)" transform="translate(0,0)"></path>
<path d="M 1261.77 506.959 C 1273.2 507.571 1310.02 513.028 1320.17 517.56 C 1382.15 537.06 1425.89 571.254 1456.19 629.09 C 1481.35 676.527 1486.16 732.147 1469.53 783.202 C 1455.56 826.844 1418.87 878.066 1377.42 899.237 C 1375.61 900.156 1373.79 901.05 1371.97 901.92 C 1355.11 892.284 1349.63 892.163 1333.3 885.165 C 1326.9 897.035 1321.59 906.213 1312.49 916.112 C 1289.59 938.904 1258.61 951.719 1226.3 951.764 C 1210.09 951.917 1193.99 949.03 1178.84 943.251 C 1183.89 930.7 1185.2 902.293 1173.95 893.264 C 1173.48 893.271 1173.02 893.285 1172.55 893.284 C 1166.44 893.272 1136.88 854.762 1106.39 881.748 C 1100.11 887.314 1095.69 897.415 1088.77 901.452 C 1087.61 899.745 1086.9 898.686 1085.58 897.113 C 1072.69 875.52 1074.74 859.762 1084.65 837.063 L 1082.77 834.847 L 1082.27 834.802 C 1070.61 817.568 1070.13 803.248 1073.1 783.523 L 1075.56 771.516 C 1062.75 756.355 1062.29 735.745 1067.98 717.539 L 1067.26 715.445 C 1063.94 709.375 1062.22 703.276 1060.07 696.704 C 1056.7 682.765 1060.3 668.358 1065.05 655.189 C 1069.42 647.471 1075.36 641.182 1081.23 634.584 L 1082.79 632.535 C 1109.55 620.951 1125.01 618.991 1150.94 638.511 C 1153.7 640.588 1158.29 644.915 1161.03 646.53 L 1162.65 645.816 C 1166.06 641.443 1169.38 637.001 1172.61 632.493 C 1181.86 637.462 1196.85 644.252 1206.82 648.139 C 1209.91 649.368 1212.55 650.249 1215.36 652.056 C 1221.02 657.271 1235.81 659.939 1243.49 660.605 C 1250.12 657.423 1256.62 654.644 1262.13 649.633 C 1277 636.097 1282.45 610.876 1283.76 591.741 C 1285.82 561.821 1281.93 530.394 1261.77 506.959 z" fill="rgb(236,83,35)" transform="translate(0,0)"></path>
<path d="M 1261.77 506.959 C 1273.2 507.571 1310.02 513.028 1320.17 517.56 C 1382.15 537.06 1425.89 571.254 1456.19 629.09 C 1481.35 676.527 1486.16 732.147 1469.53 783.202 C 1455.56 826.844 1418.87 878.066 1377.42 899.237 C 1375.61 900.156 1373.79 901.05 1371.97 901.92 C 1355.11 892.284 1349.63 892.163 1333.3 885.165 C 1340.06 870.561 1340.68 850.184 1337.64 834.609 C 1335.84 826.768 1333.03 819.191 1329.3 812.063 C 1314.19 783.736 1288.21 771.214 1259.03 762.154 L 1258.07 761.02 C 1283.33 725.247 1273.55 689.273 1243.49 660.605 C 1250.12 657.423 1256.62 654.644 1262.13 649.633 C 1277 636.097 1282.45 610.876 1283.76 591.741 C 1285.82 561.821 1281.93 530.394 1261.77 506.959 z" fill="rgb(223,223,215)" transform="translate(0,0)"></path>
<path d="M 1320.17 517.56 C 1382.15 537.06 1425.89 571.254 1456.19 629.09 C 1481.35 676.527 1486.16 732.147 1469.53 783.202 C 1455.56 826.844 1418.87 878.066 1377.42 899.237 C 1375.61 900.156 1373.79 901.05 1371.97 901.92 C 1355.11 892.284 1349.63 892.163 1333.3 885.165 C 1340.06 870.561 1340.68 850.184 1337.64 834.609 C 1341.25 833.006 1346.02 831.274 1349.37 829.568 C 1381.94 812.833 1409.54 778.136 1421.26 744.599 C 1452.82 654.263 1405.56 560.01 1321.29 519.959 C 1320.92 519.16 1320.55 518.36 1320.17 517.56 z" fill="rgb(183,192,188)" transform="translate(0,0)"></path>
<path d="M 1166.88 777.84 L 1170.84 779.244 C 1197.07 788.385 1219.21 789.006 1243.79 774.189 C 1248.8 771.173 1254.34 763.389 1259.03 762.154 C 1288.21 771.214 1314.19 783.736 1329.3 812.063 C 1333.03 819.191 1335.84 826.768 1337.64 834.609 C 1340.68 850.184 1340.06 870.561 1333.3 885.165 C 1326.9 897.035 1321.59 906.213 1312.49 916.112 C 1289.59 938.904 1258.61 951.719 1226.3 951.764 C 1210.09 951.917 1193.99 949.03 1178.84 943.251 C 1183.89 930.7 1185.2 902.293 1173.95 893.264 C 1174.7 891.761 1175.32 890.475 1176.18 889.031 C 1176.41 885.532 1176.81 882.204 1177.05 878.723 C 1177.62 856.521 1179.87 856.637 1173.31 835.1 C 1173.64 833.716 1173.99 832.337 1174.36 830.963 L 1174.01 830.228 C 1177.5 814.631 1175.62 793.645 1165.82 780.643 L 1166.88 777.84 z" fill="rgb(5,62,120)" transform="translate(0,0)"></path>
<path d="M 1254.15 793.52 C 1287.25 830.082 1244.2 915.674 1177.05 878.723 C 1177.62 856.521 1179.87 856.637 1173.31 835.1 C 1173.64 833.716 1173.99 832.337 1174.36 830.963 C 1212.59 839.402 1235.43 826.815 1254.15 793.52 z" fill="rgb(99,150,199)" transform="translate(0,0)"></path>
<path d="M 1172.61 632.493 C 1181.86 637.462 1196.85 644.252 1206.82 648.139 C 1209.91 649.368 1212.55 650.249 1215.36 652.056 C 1221.02 657.271 1235.81 659.939 1243.49 660.605 C 1273.55 689.273 1283.33 725.247 1258.07 761.02 L 1259.03 762.154 C 1254.34 763.389 1248.8 771.173 1243.79 774.189 C 1219.21 789.006 1197.07 788.385 1170.84 779.244 L 1166.88 777.84 L 1167 777.382 C 1173.25 768.807 1173.06 753.311 1172.87 743.238 C 1171.96 738.425 1171.85 732.91 1168.73 728.904 C 1169.41 726.785 1169.97 724.951 1170.54 722.812 C 1181.45 695.54 1179.49 672.16 1161.34 648.486 L 1161.03 646.53 L 1162.65 645.816 C 1166.06 641.443 1169.38 637.001 1172.61 632.493 z" fill="rgb(59,116,172)" transform="translate(0,0)"></path>
<path d="M 1162.65 645.816 C 1176.72 650.904 1194.11 661.4 1200.61 675.321 C 1208.06 691.261 1208.43 711.741 1197.58 726.249 C 1190.6 735.587 1182.62 738.299 1172.87 743.238 C 1171.96 738.425 1171.85 732.91 1168.73 728.904 C 1169.41 726.785 1169.97 724.951 1170.54 722.812 C 1181.45 695.54 1179.49 672.16 1161.34 648.486 L 1161.03 646.53 L 1162.65 645.816 z" fill="rgb(144,180,218)" transform="translate(0,0)"></path>
<path d="M 1082.79 632.535 C 1109.55 620.951 1125.01 618.991 1150.94 638.511 C 1153.7 640.588 1158.29 644.915 1161.03 646.53 L 1161.34 648.486 C 1179.49 672.16 1181.45 695.54 1170.54 722.812 C 1169.97 724.951 1169.41 726.785 1168.73 728.904 C 1163.03 724.411 1151.6 708.809 1142.91 702.45 C 1095.67 667.902 1080.52 716.088 1067.98 717.539 L 1067.26 715.445 C 1063.94 709.375 1062.22 703.276 1060.07 696.704 C 1056.7 682.765 1060.3 668.358 1065.05 655.189 C 1069.42 647.471 1075.36 641.182 1081.23 634.584 L 1082.79 632.535 z" fill="rgb(236,83,35)" transform="translate(0,0)"></path>
<path d="M 1067.26 715.445 C 1079.07 688.825 1104.44 674.793 1132.86 687.809 C 1149.79 695.565 1159.71 708.201 1170.54 722.812 C 1169.97 724.951 1169.41 726.785 1168.73 728.904 C 1163.03 724.411 1151.6 708.809 1142.91 702.45 C 1095.67 667.902 1080.52 716.088 1067.98 717.539 L 1067.26 715.445 z" fill="rgb(246,220,194)" transform="translate(0,0)"></path>
<path d="M 1082.79 632.535 C 1109.55 620.951 1125.01 618.991 1150.94 638.511 C 1153.7 640.588 1158.29 644.915 1161.03 646.53 L 1161.34 648.486 L 1160.3 650.148 C 1160.29 650.161 1158.14 653.839 1157.38 653.212 C 1143.25 641.503 1128.52 628.346 1108.5 631.009 C 1099.83 632.161 1091.72 635.846 1083.88 639.611 C 1082.11 640.461 1081.32 634.962 1081.23 634.584 L 1082.79 632.535 z" fill="rgb(246,220,194)" transform="translate(0,0)"></path>
<path d="M 1084.65 837.063 C 1084.69 837.077 1086.48 837.727 1086.55 837.78 C 1086.87 838.034 1088.7 838.642 1089.04 838.385 C 1091.51 836.52 1094.33 830.022 1096.84 826.954 C 1104.53 817.558 1113.49 812.226 1125.36 811.522 C 1145.08 810.352 1155.62 821.708 1168.2 834.38 C 1169.41 835.601 1171.72 835.258 1173.31 835.1 C 1179.87 856.637 1177.62 856.521 1177.05 878.723 C 1176.81 882.204 1176.41 885.532 1176.18 889.031 C 1175.32 890.475 1174.7 891.761 1173.95 893.264 C 1173.48 893.271 1173.02 893.285 1172.55 893.284 C 1166.44 893.272 1136.88 854.762 1106.39 881.748 C 1100.11 887.314 1095.69 897.415 1088.77 901.452 C 1087.61 899.745 1086.9 898.686 1085.58 897.113 C 1072.69 875.52 1074.74 859.762 1084.65 837.063 z" fill="rgb(236,83,35)" transform="translate(0,0)"></path>
<path d="M 1085.58 897.113 C 1094.09 879.254 1107.33 866.337 1128 865.696 C 1150.41 865.001 1161.03 875.336 1176.18 889.031 C 1175.32 890.475 1174.7 891.761 1173.95 893.264 C 1173.48 893.271 1173.02 893.285 1172.55 893.284 C 1166.44 893.272 1136.88 854.762 1106.39 881.748 C 1100.11 887.314 1095.69 897.415 1088.77 901.452 C 1087.61 899.745 1086.9 898.686 1085.58 897.113 z" fill="rgb(246,220,194)" transform="translate(0,0)"></path>
<path d="M 1082.77 834.847 C 1095.14 815.688 1104.2 804.415 1128.99 804.399 C 1153.14 804.384 1159.03 816.695 1174.01 830.228 L 1174.36 830.963 C 1173.99 832.337 1173.64 833.716 1173.31 835.1 C 1171.72 835.258 1169.41 835.601 1168.2 834.38 C 1155.62 821.708 1145.08 810.352 1125.36 811.522 C 1113.49 812.226 1104.53 817.558 1096.84 826.954 C 1094.33 830.022 1091.51 836.52 1089.04 838.385 C 1088.7 838.642 1086.87 838.034 1086.55 837.78 C 1086.48 837.727 1084.69 837.077 1084.65 837.063 L 1082.77 834.847 z" fill="rgb(246,220,194)" transform="translate(0,0)"></path>
<path d="M 1165.82 780.643 C 1159.92 781.775 1158.64 778.634 1154.39 774.3 C 1133.57 753.037 1103.51 747.442 1079.82 767.699 C 1077.99 769.271 1074.19 764.827 1076.27 762.591 C 1084.28 752.246 1101.51 747.464 1114 747.57 C 1140.08 747.791 1150.63 761.532 1167 777.382 L 1166.88 777.84 L 1165.82 780.643 z" fill="rgb(246,220,194)" transform="translate(0,0)"></path>
<path d="M 861.937 535.087 C 876.817 535.428 892.625 534.89 907.404 536.031 C 938.48 538.431 970.638 543.909 1000.73 551.858 C 1020.44 558.701 1035.87 564.317 1054.9 572.756 C 1056.63 591.983 1061.25 604.786 1073.93 619.341 C 1077.31 623.215 1081.31 627.75 1082.79 632.535 L 1081.23 634.584 C 1075.36 641.182 1069.42 647.471 1065.05 655.189 C 1060.3 668.358 1056.7 682.765 1060.07 696.704 C 1062.22 703.276 1063.94 709.375 1067.26 715.445 L 1067.98 717.539 C 1062.29 735.745 1062.75 756.355 1075.56 771.516 L 1073.1 783.523 C 1040.08 802.819 1002.78 798.073 978.868 767.27 C 947.941 816.323 885.463 822.022 852.296 772.2 C 819.89 797.549 771.355 796.191 748.99 758.358 C 742.094 760.527 732.144 760.263 724.683 760.414 L 722.424 761.861 C 718.59 760.943 716.229 757.234 713.397 755.181 C 699.697 745.248 680.688 743.548 665.498 751.013 C 653.403 755.764 645.593 768.163 637.009 769.777 C 636.78 769.82 634.749 768.443 634.534 768.303 L 634.222 768.103 L 633.816 767.296 C 628.643 749.578 634.136 728.029 641.919 711.818 L 642.718 710.132 C 642.273 708.002 642.059 705.898 641.26 703.869 C 637.4 676.935 651.454 649.624 668.33 629.396 C 672.473 630.561 671.139 630.293 674.349 627.327 C 681.016 621.169 690.425 617.216 699.502 617.105 C 711.675 616.955 717.414 626.498 726.095 631.387 C 727.22 629.799 728.18 628.537 729.384 627.028 C 747.122 609.178 760.437 585.202 763.501 560.064 C 774.145 552.832 837.923 538.926 854.526 536.274 C 856.903 535.67 859.484 535.423 861.937 535.087 z" fill="rgb(99,150,199)" transform="translate(0,0)"></path>
<path d="M 668.33 629.396 C 672.473 630.561 671.139 630.293 674.349 627.327 C 681.016 621.169 690.425 617.216 699.502 617.105 C 711.675 616.955 717.414 626.498 726.095 631.387 C 730.8 634.616 734.474 644.789 736.591 650.223 C 738.261 660.768 740.743 668.976 738.238 679.923 C 737.122 684.803 735.226 690.333 734.524 695.068 C 733.642 696.796 732.948 698.416 732.178 700.187 C 731.66 703.491 731.146 704.251 729.697 707.308 C 736.161 731.208 733.71 735.358 726.026 757.376 L 724.683 760.414 L 722.424 761.861 C 718.59 760.943 716.229 757.234 713.397 755.181 C 699.697 745.248 680.688 743.548 665.498 751.013 C 653.403 755.764 645.593 768.163 637.009 769.777 C 636.78 769.82 634.749 768.443 634.534 768.303 L 634.222 768.103 L 633.816 767.296 C 628.643 749.578 634.136 728.029 641.919 711.818 L 642.718 710.132 C 642.273 708.002 642.059 705.898 641.26 703.869 C 637.4 676.935 651.454 649.624 668.33 629.396 z" fill="rgb(236,83,35)" transform="translate(0,0)"></path>
<path d="M 642.718 710.132 C 649.492 707.094 652.084 703.666 657.305 699.588 C 666.267 692.59 685.114 684.581 696.505 685.027 C 712.305 685.644 720.387 697.426 729.697 707.308 C 736.161 731.208 733.71 735.358 726.026 757.376 L 724.683 760.414 L 722.424 761.861 C 718.59 760.943 716.229 757.234 713.397 755.181 C 699.697 745.248 680.688 743.548 665.498 751.013 C 653.403 755.764 645.593 768.163 637.009 769.777 C 636.78 769.82 634.749 768.443 634.534 768.303 L 634.222 768.103 L 633.816 767.296 C 628.643 749.578 634.136 728.029 641.919 711.818 L 642.718 710.132 z" fill="rgb(236,83,35)" transform="translate(0,0)"></path>
<path d="M 633.816 767.296 C 635.578 765.565 637.171 763.69 638.896 761.896 C 662.993 736.845 700.205 729.724 726.026 757.376 L 724.683 760.414 L 722.424 761.861 C 718.59 760.943 716.229 757.234 713.397 755.181 C 699.697 745.248 680.688 743.548 665.498 751.013 C 653.403 755.764 645.593 768.163 637.009 769.777 C 636.78 769.82 634.749 768.443 634.534 768.303 L 634.222 768.103 L 633.816 767.296 z" fill="rgb(246,220,194)" transform="translate(0,0)"></path>
<path d="M 641.26 703.869 C 643.581 703.251 648.462 696.346 651.346 694.324 C 681.528 673.172 709.268 668.778 732.178 700.187 C 731.66 703.491 731.146 704.251 729.697 707.308 C 720.387 697.426 712.305 685.644 696.505 685.027 C 685.114 684.581 666.267 692.59 657.305 699.588 C 652.084 703.666 649.492 707.094 642.718 710.132 C 642.273 708.002 642.059 705.898 641.26 703.869 z" fill="rgb(246,220,194)" transform="translate(0,0)"></path>
<path d="M 1060.07 696.704 C 1047.66 702.817 1033.6 704.757 1019.99 702.234 C 979.636 694.498 976.363 654.223 1018.4 646.584 C 1041.06 642.466 1045.89 645.186 1065.05 655.189 C 1060.3 668.358 1056.7 682.765 1060.07 696.704 z" fill="rgb(238,196,184)" transform="translate(0,0)"></path>
<path d="M 736.591 650.223 C 744.517 647.317 748.896 646.434 757.499 644.895 C 789.457 639.177 830.327 669.446 792.994 696.085 C 779.331 705.835 749.847 704.311 734.524 695.068 C 735.226 690.333 737.122 684.803 738.238 679.923 C 740.743 668.976 738.261 660.768 736.591 650.223 z" fill="rgb(238,196,184)" transform="translate(0,0)"></path>
<path d="M 789.244 621.53 C 785.302 609.803 783.112 605.725 790.571 594.057 C 798.72 581.311 812.861 582.364 824.891 588.622 C 825.964 589.208 826.328 589.768 827.192 590.674 C 827.274 591.311 827.356 591.947 827.438 592.583 C 828.379 593.502 828.405 593.43 829.383 594.209 C 846.06 607.483 833.916 633.103 814.477 634.552 C 808.764 634.978 804.806 631.881 799.961 630.517 C 795.54 629.097 791.732 627.73 789.851 622.96 L 789.244 621.53 z" fill="rgb(0,0,0)" transform="translate(0,0)"></path>
<path d="M 789.244 621.53 C 785.302 609.803 783.112 605.725 790.571 594.057 C 798.72 581.311 812.861 582.364 824.891 588.622 C 825.964 589.208 826.328 589.768 827.192 590.674 C 827.274 591.311 827.356 591.947 827.438 592.583 C 803.009 579.255 781.838 596.639 791.139 620.682 L 789.244 621.53 z" fill="rgb(255,255,255)" transform="translate(0,0)"></path>
<path d="M 791.139 620.682 C 794.283 624.866 796.292 626.863 799.961 630.517 C 795.54 629.097 791.732 627.73 789.851 622.96 L 789.244 621.53 L 791.139 620.682 z" fill="rgb(144,180,218)" transform="translate(0,0)"></path>
<path d="M 800.923 593.69 C 813.588 594.364 811.897 602.831 804.137 609.814 C 792.105 607.401 792.238 600.878 800.923 593.69 z" fill="rgb(255,255,255)" transform="translate(0,0)"></path>
<path d="M 960.1 590.188 C 959.432 589.157 959.704 588.958 960.898 588.271 C 980.073 577.229 1006.87 592.733 997.784 615.985 C 996.308 619.763 994.78 624.089 990.751 625.64 C 979.828 634.408 966.165 639.198 954.878 627.556 C 950.23 622.73 947.805 616.185 948.185 609.495 C 948.883 598.07 953.749 596.931 960.1 590.188 z" fill="rgb(0,0,0)" transform="translate(0,0)"></path>
<path d="M 960.1 590.188 C 959.432 589.157 959.704 588.958 960.898 588.271 C 980.073 577.229 1006.87 592.733 997.784 615.985 C 996.308 619.763 994.78 624.089 990.751 625.64 C 995.482 614.15 997.858 605.299 989.402 594.533 L 988.239 595.782 C 986.187 594.537 985.853 594.395 983.557 593.447 C 984.146 592.483 984.462 591.792 985.204 591.039 C 974.227 586.775 971.821 586.204 960.1 590.188 z" fill="rgb(255,255,255)" transform="translate(0,0)"></path>
<path d="M 985.204 591.039 C 986.577 592.236 987.976 593.401 989.402 594.533 L 988.239 595.782 C 986.187 594.537 985.853 594.395 983.557 593.447 C 984.146 592.483 984.462 591.792 985.204 591.039 z" fill="rgb(26,27,25)" transform="translate(0,0)"></path>
<path d="M 983.557 593.447 C 985.853 594.395 986.187 594.537 988.239 595.782 C 993.731 616.296 971.279 611.077 977.083 596.959 C 977.842 595.111 981.078 594.97 983.557 593.447 z" fill="rgb(255,255,255)" transform="translate(0,0)"></path>
<path d="M 935.146 656.339 L 937.202 657.642 C 941.126 666.518 950.845 678.88 951.982 684.262 L 950.832 685.114 C 946.124 683.665 944.522 681.697 940.865 678.45 C 914.974 700.227 881.159 700.924 855.439 678.395 C 852.715 683.158 851.875 683.891 847.873 687.717 C 846.449 685.528 846.273 685.641 846.133 683.091 C 849.435 676.631 854.499 663.583 859.629 659.339 L 860.684 660.35 C 861.146 665.622 859.394 669.159 857.661 674.227 C 885.036 693.423 911.909 694.078 938.407 672.214 L 935.62 667.629 C 931.972 661.762 931.52 661.928 935.146 656.339 z" fill="rgb(0,0,0)" transform="translate(0,0)"></path>
<path d="M 972.949 556.314 C 1007.4 557.519 1015.39 582.736 996.791 581.082 C 992.391 579.866 969.89 575.31 967.625 573.634 C 956.625 565.494 962.908 558.388 972.949 556.314 z" fill="rgb(0,0,0)" transform="translate(0,0)"></path>
<path d="M 809.879 555.163 C 815.994 554.702 823.546 553.166 826.129 560.477 C 831.023 574.332 808.34 576.269 799.221 578.973 C 775.094 585.387 778.251 563.892 809.879 555.163 z" fill="rgb(0,0,0)" transform="translate(0,0)"></path>
<path d="M 895.991 624.633 C 908.613 626.402 891.48 635.107 889.765 637.919 C 884.106 647.194 893.685 653.214 902.453 649.731 C 908.305 647.405 909.513 648.09 910.828 653.386 C 898.885 657.553 880.681 659.021 882.325 639.007 C 882.833 632.82 891.122 627.759 895.991 624.633 z" fill="rgb(5,62,120)" transform="translate(0,0)"></path>
<path d="M 1004.59 221.313 C 1000.26 236.029 1003.57 248.408 1019.79 252.603 C 1034.19 256.329 1047.82 251.764 1061.49 247.548 C 1060.35 254.23 1058.61 260.935 1062.42 266.9 C 1071.98 281.835 1093.59 275.562 1104.71 265.786 C 1109.24 261.796 1116.23 247.917 1117.2 247.577 C 1122.23 252.961 1127.89 257.184 1134.14 261.076 L 1139.11 265.265 C 1177.77 293.974 1207.94 332.604 1226.43 377.063 C 1211.03 372.026 1185.22 353.499 1166.08 348.386 C 1167.89 358.333 1169.21 371.485 1170.46 381.782 L 1170.95 382.438 C 1171.2 390.281 1172.49 412.657 1171.17 419.179 C 1159.13 413.336 1146.93 407.836 1134.58 402.684 C 1039.52 363.289 945.81 348.101 844.175 364.764 C 811.325 370.15 779.3 376.722 748.327 389.573 C 754.228 378.456 763.733 362.05 771.491 352.684 C 776.31 342.116 792.647 324.782 801.128 315.699 C 807.755 308.19 817.602 299.683 825.252 292.998 C 873.153 251.139 927.45 235.454 988.128 223.544 L 1004.59 221.313 z" fill="rgb(236,83,35)" transform="translate(0,0)"></path>
<path d="M 1004.59 221.313 C 1000.26 236.029 1003.57 248.408 1019.79 252.603 C 1034.19 256.329 1047.82 251.764 1061.49 247.548 C 1060.35 254.23 1058.61 260.935 1062.42 266.9 C 1071.98 281.835 1093.59 275.562 1104.71 265.786 C 1109.24 261.796 1116.23 247.917 1117.2 247.577 C 1122.23 252.961 1127.89 257.184 1134.14 261.076 L 1139.11 265.265 C 1177.77 293.974 1207.94 332.604 1226.43 377.063 C 1211.03 372.026 1185.22 353.499 1166.08 348.386 L 1165.2 347.461 C 1054.92 304.752 948.584 290.688 831.839 310.478 C 822.929 311.989 811.893 314.817 803.148 315.546 L 801.128 315.699 C 807.755 308.19 817.602 299.683 825.252 292.998 C 873.153 251.139 927.45 235.454 988.128 223.544 L 1004.59 221.313 z" fill="rgb(236,83,35)" transform="translate(0,0)"></path>
<path d="M 1139.11 265.265 C 1177.77 293.974 1207.94 332.604 1226.43 377.063 C 1211.03 372.026 1185.22 353.499 1166.08 348.386 L 1165.2 347.461 C 1163.92 328.722 1138.58 271.913 1139.11 265.265 z" fill="rgb(177,61,24)" transform="translate(0,0)"></path>
<path d="M 801.128 315.699 L 803.148 315.546 C 811.893 314.817 822.929 311.989 831.839 310.478 C 948.584 290.688 1054.92 304.752 1165.2 347.461 L 1166.08 348.386 C 1167.89 358.333 1169.21 371.485 1170.46 381.782 C 1055.14 327.493 921.168 317.513 798.145 346.166 C 789.186 348.253 780.295 349.96 771.491 352.684 C 776.31 342.116 792.647 324.782 801.128 315.699 z" fill="rgb(223,223,215)" transform="translate(0,0)"></path>
<path d="M 1166.08 348.386 C 1185.22 353.499 1211.03 372.026 1226.43 377.063 C 1231.14 383.733 1238.58 410.212 1240.82 419.078 C 1242.76 429.434 1247.29 440.42 1248.18 451.491 C 1248.51 455.563 1249.9 460.915 1250.49 465.21 C 1252.09 478.285 1252.56 488.361 1252.9 501.382 C 1256.07 503.612 1258.4 505.01 1261.77 506.959 C 1281.93 530.394 1285.82 561.821 1283.76 591.741 C 1282.45 610.876 1277 636.097 1262.13 649.633 C 1256.62 654.644 1250.12 657.423 1243.49 660.605 C 1235.81 659.939 1221.02 657.271 1215.36 652.056 C 1212.55 650.249 1209.91 649.368 1206.82 648.139 C 1196.85 644.252 1181.86 637.462 1172.61 632.493 C 1169.38 637.001 1166.06 641.443 1162.65 645.816 L 1161.03 646.53 C 1158.29 644.915 1153.7 640.588 1150.94 638.511 C 1125.01 618.991 1109.55 620.951 1082.79 632.535 C 1081.31 627.75 1077.31 623.215 1073.93 619.341 C 1061.25 604.786 1056.63 591.983 1054.9 572.756 C 1035.87 564.317 1020.44 558.701 1000.73 551.858 C 1003.35 551.962 1008.95 552.356 1011.32 552.233 L 1019.1 552.154 C 1028.43 553.982 1068.66 563.64 1076.99 567.191 L 1083.94 570.294 C 1101.54 578.841 1118.72 584.275 1137.68 575.642 C 1163.53 551.264 1163.96 488.13 1167.5 452.909 L 1167.77 450.968 L 1167.35 450.423 C 1170.36 447.442 1170.73 425.336 1171.13 419.731 L 1171.17 419.179 C 1172.49 412.657 1171.2 390.281 1170.95 382.438 L 1170.46 381.782 C 1169.21 371.485 1167.89 358.333 1166.08 348.386 z" fill="rgb(177,61,24)" transform="translate(0,0)"></path>
<path d="M 1231.52 487.02 C 1238.82 491.547 1245.95 496.338 1252.9 501.382 C 1256.07 503.612 1258.4 505.01 1261.77 506.959 C 1281.93 530.394 1285.82 561.821 1283.76 591.741 C 1282.45 610.876 1277 636.097 1262.13 649.633 C 1256.62 654.644 1250.12 657.423 1243.49 660.605 C 1235.81 659.939 1221.02 657.271 1215.36 652.056 C 1239.17 611.007 1240.33 533.42 1231.52 487.02 z" fill="rgb(177,61,24)" transform="translate(0,0)"></path>
<path d="M 1166.08 348.386 C 1185.22 353.499 1211.03 372.026 1226.43 377.063 C 1231.14 383.733 1238.58 410.212 1240.82 419.078 C 1242.76 429.434 1247.29 440.42 1248.18 451.491 C 1248.51 455.563 1249.9 460.915 1250.49 465.21 C 1247.68 464.521 1247.92 464.615 1245.56 462.934 C 1227.43 450.033 1191.22 427.874 1171.13 419.731 L 1171.17 419.179 C 1172.49 412.657 1171.2 390.281 1170.95 382.438 L 1170.46 381.782 C 1169.21 371.485 1167.89 358.333 1166.08 348.386 z" fill="rgb(177,61,24)" transform="translate(0,0)"></path>
<path d="M 1166.08 348.386 C 1185.22 353.499 1211.03 372.026 1226.43 377.063 C 1231.14 383.733 1238.58 410.212 1240.82 419.078 C 1235.12 416.842 1231.56 414.915 1226.38 411.678 C 1209.18 400.915 1190.97 392.268 1172.78 383.346 L 1170.95 382.438 L 1170.46 381.782 C 1169.21 371.485 1167.89 358.333 1166.08 348.386 z" fill="rgb(183,192,188)" transform="translate(0,0)"></path>
<path d="M 1171.13 419.731 C 1191.22 427.874 1227.43 450.033 1245.56 462.934 C 1247.92 464.615 1247.68 464.521 1250.49 465.21 C 1252.09 478.285 1252.56 488.361 1252.9 501.382 C 1245.95 496.338 1238.82 491.547 1231.52 487.02 C 1240.33 533.42 1239.17 611.007 1215.36 652.056 C 1212.55 650.249 1209.91 649.368 1206.82 648.139 C 1225.52 622.671 1230.22 557.391 1228.09 525.374 C 1227.42 515.261 1226.8 502.255 1224.75 491.977 C 1224.72 491.846 1227.1 486.566 1227.41 485.868 C 1224.89 480.125 1188.27 462.027 1179.93 457.615 C 1175.9 455.601 1171.73 453.171 1167.77 450.968 L 1167.35 450.423 C 1170.36 447.442 1170.73 425.336 1171.13 419.731 z" fill="rgb(183,192,188)" transform="translate(0,0)"></path>
<path d="M 1054.9 572.756 C 1078.33 580.827 1101.46 594.157 1123.41 605.612 C 1130.86 609.503 1139.35 615.045 1146.71 618.561 C 1154.82 623.83 1164.34 627.533 1172.61 632.493 C 1169.38 637.001 1166.06 641.443 1162.65 645.816 L 1161.03 646.53 C 1158.29 644.915 1153.7 640.588 1150.94 638.511 C 1125.01 618.991 1109.55 620.951 1082.79 632.535 C 1081.31 627.75 1077.31 623.215 1073.93 619.341 C 1061.25 604.786 1056.63 591.983 1054.9 572.756 z" fill="rgb(236,83,35)" transform="translate(0,0)"></path>
<path d="M 1170.42 460.01 L 1177.64 460.099 C 1183.2 475.845 1180.7 515.896 1177.99 532.12 C 1175.75 545.5 1163.34 591.801 1153.27 600.491 L 1149.9 599.999 C 1145.54 595.733 1152.86 585.564 1155.33 580.044 C 1158.52 572.767 1161.26 565.304 1163.55 557.697 C 1174.07 522.441 1173.24 495.607 1170.42 460.01 z" fill="rgb(183,192,188)" transform="translate(0,0)"></path>
<path d="M 748.327 389.573 C 779.3 376.722 811.325 370.15 844.175 364.764 C 945.81 348.101 1039.52 363.289 1134.58 402.684 C 1146.93 407.836 1159.13 413.336 1171.17 419.179 L 1171.13 419.731 C 1170.73 425.336 1170.36 447.442 1167.35 450.423 C 1150.97 443.023 1136.05 435.372 1119.09 428.146 C 995.525 374.875 855.683 373.751 731.275 425.03 C 735.898 412.301 741.528 401.221 748.327 389.573 z" fill="rgb(223,223,215)" transform="translate(0,0)"></path>
<path d="M 668.504 590.859 C 673.341 592.423 678.491 592.76 683.491 591.839 C 701.866 588.503 753.696 560.217 763.501 560.064 C 760.437 585.202 747.122 609.178 729.384 627.028 C 728.18 628.537 727.22 629.799 726.095 631.387 C 717.414 626.498 711.675 616.955 699.502 617.105 C 690.425 617.216 681.016 621.169 674.349 627.327 C 671.139 630.293 672.473 630.561 668.33 629.396 C 668.99 626.179 669.086 625.787 667.188 623.079 C 665.306 613.842 665.086 599.724 668.504 590.859 z" fill="rgb(236,83,35)" transform="translate(0,0)"></path>
<path d="M 667.188 623.079 C 670.697 621.942 673.233 618.875 676.493 616.988 C 699.035 603.941 713.563 610.017 729.384 627.028 C 728.18 628.537 727.22 629.799 726.095 631.387 C 717.414 626.498 711.675 616.955 699.502 617.105 C 690.425 617.216 681.016 621.169 674.349 627.327 C 671.139 630.293 672.473 630.561 668.33 629.396 C 668.99 626.179 669.086 625.787 667.188 623.079 z" fill="rgb(246,220,194)" transform="translate(0,0)"></path>
<path d="M 668.02 590.158 C 668.407 588.732 668.836 585.95 669.839 585.374 C 679.241 579.973 693.729 576.405 703.915 572.372 C 714.977 567.992 727.856 561.275 737.875 557.44 C 764.442 547.271 825.419 528.645 853.531 532.499 L 854.526 536.274 C 837.923 538.926 774.145 552.832 763.501 560.064 C 753.696 560.217 701.866 588.503 683.491 591.839 C 678.491 592.76 673.341 592.423 668.504 590.859 L 668.02 590.158 z" fill="rgb(177,61,24)" transform="translate(0,0)"></path>
<path d="M 1011.32 552.233 C 1008.83 511.743 1011.46 474.138 1026.97 436.16 C 1028.88 431.502 1034.82 414.218 1040.09 414.193 C 1041.18 415.802 1042.29 417.115 1041.67 419.348 C 1038.68 430.161 1031.83 442.72 1028.64 453.301 C 1018.9 485.668 1017.01 518.865 1019.1 552.154 L 1011.32 552.233 z" fill="rgb(246,220,194)" transform="translate(0,0)"></path>
<path d="M 1076.99 567.191 L 1077.67 566.138 C 1097.03 535.372 1095.71 480.658 1094.37 444.919 C 1094.19 440.091 1092.27 431.473 1097.03 430.043 C 1108.51 433.275 1101.45 511.323 1099.39 524.154 C 1097.85 533.87 1095.39 543.42 1092.06 552.677 C 1090.23 557.741 1086.85 565.757 1083.94 570.294 L 1076.99 567.191 z" fill="rgb(246,220,194)" transform="translate(0,0)"></path>
<path d="M 853.531 532.499 C 842.652 487.971 851.718 451.496 875.214 412.598 C 878.342 407.419 881.767 401.517 887.069 398.571 L 889.263 398.854 L 890.949 401.522 C 890.392 403.467 877.23 423.72 875.091 427.546 C 855.593 462.416 851.937 496.724 861.937 535.087 C 859.484 535.423 856.903 535.67 854.526 536.274 L 853.531 532.499 z" fill="rgb(246,220,194)" transform="translate(0,0)"></path>
<path d="M 727.468 428.186 L 730.041 425.909 C 731.229 427.647 733.87 431.301 732.888 433.359 C 711.673 477.844 703.789 512.111 715.513 560.97 C 712.927 562.1 713.02 561.898 710.176 561.448 C 694.255 549.592 705.221 475.09 714.098 458.09 C 718.383 449.886 724.234 436.761 727.468 428.186 z" fill="rgb(246,220,194)" transform="translate(0,0)"></path>
<path d="M 804.876 409.588 C 807.663 409.7 806.713 409.586 809.409 410.602 C 810.039 412.275 810.549 413.288 809.256 414.967 C 786.424 444.62 777.789 483.222 788.204 519.465 C 789.341 523.418 792.796 532.742 791.737 535.852 L 787.472 537.315 L 785.676 536.361 C 778.307 525.985 776.12 501.164 776.159 488.38 C 776.24 462.301 785.963 428.404 804.876 409.588 z" fill="rgb(246,220,194)" transform="translate(0,0)"></path>
<path d="M 959.38 402.457 C 962.281 404.219 962.292 404.126 964.541 406.618 C 963.937 410.115 958.493 421.371 956.84 425.166 C 949.366 442.329 944.012 453.746 941.201 472.451 C 939.879 481.388 939.312 490.421 939.506 499.454 C 939.725 507.212 942.961 527.981 941.25 533.089 L 936.995 531.93 C 933.223 527.866 933.721 523.541 932.932 518.412 C 926.434 476.195 940.361 439.373 959.38 402.457 z" fill="rgb(246,220,194)" transform="translate(0,0)"></path>
<path d="M 1174.3 1668.97 C 1188.59 1655.49 1211.23 1650.69 1230.37 1651.23 C 1243.28 1651.6 1252.25 1655.8 1263.93 1660.14 C 1263.41 1676.46 1261.21 1685.82 1258.29 1701.73 C 1287.39 1693.58 1315.21 1705.72 1323.18 1735.46 C 1328.64 1755.86 1317.74 1771.91 1301.21 1781.82 C 1297.34 1784.14 1295.88 1783.87 1294.4 1787.8 L 1296.42 1808.34 L 1297.32 1814.35 L 1298.62 1815.31 C 1306.13 1812.78 1313.04 1809.84 1320.51 1807.41 C 1351.53 1797.31 1380.81 1799.45 1410.07 1813.97 C 1412.13 1814.99 1418.92 1818.56 1420.18 1820.15 C 1468.88 1852.59 1487.36 1915.54 1455 1966.06 C 1443.85 1983.47 1419.72 2000.3 1399.52 2004.31 C 1397.09 2004.79 1394.61 2005.05 1392.14 2005.09 C 1385.3 2006.53 1340.95 2005.8 1331.47 2005.82 L 1254.47 2006.04 C 1206.39 2006.1 1190.19 2008.6 1162.34 1963.99 C 1158.84 1967.76 1161.37 1969.1 1159.45 1974.01 L 1159.23 1974.77 C 1159.63 2001.68 1132.73 2006.17 1111.5 2003.24 C 1089.5 2000.2 1071.09 1984.5 1064.92 1963.01 C 1062.27 1953.76 1062.9 1946.09 1063.06 1936.82 C 1062.93 1924.37 1064.45 1905.72 1065.14 1892.83 L 1068.99 1818.08 C 1069.02 1808.61 1071.3 1794.38 1070.35 1786.05 C 1062.37 1786.49 1053.19 1780.41 1048.46 1774.29 C 1041.17 1764.77 1038.07 1752.68 1039.86 1740.82 C 1041.77 1729.1 1048.24 1718.61 1057.86 1711.65 C 1070.47 1702.47 1084.23 1701.85 1098.9 1704.11 C 1097.04 1697.01 1095.84 1681.6 1095.06 1673.8 C 1097.9 1673.21 1110.16 1665.31 1119.87 1663.05 C 1140.86 1658.15 1155.26 1658.28 1174.3 1668.97 z" fill="rgb(64,176,146)" transform="translate(0,0)"></path>
<path d="M 1174.3 1668.97 C 1188.59 1655.49 1211.23 1650.69 1230.37 1651.23 C 1243.28 1651.6 1252.25 1655.8 1263.93 1660.14 C 1263.41 1676.46 1261.21 1685.82 1258.29 1701.73 C 1287.39 1693.58 1315.21 1705.72 1323.18 1735.46 C 1328.64 1755.86 1317.74 1771.91 1301.21 1781.82 C 1297.34 1784.14 1295.88 1783.87 1294.4 1787.8 L 1296.42 1808.34 C 1292.18 1811 1093.92 1816.65 1068.99 1818.08 C 1069.02 1808.61 1071.3 1794.38 1070.35 1786.05 C 1062.37 1786.49 1053.19 1780.41 1048.46 1774.29 C 1041.17 1764.77 1038.07 1752.68 1039.86 1740.82 C 1041.77 1729.1 1048.24 1718.61 1057.86 1711.65 C 1070.47 1702.47 1084.23 1701.85 1098.9 1704.11 C 1097.04 1697.01 1095.84 1681.6 1095.06 1673.8 C 1097.9 1673.21 1110.16 1665.31 1119.87 1663.05 C 1140.86 1658.15 1155.26 1658.28 1174.3 1668.97 z" fill="rgb(64,176,146)" transform="translate(0,0)"></path>
<path d="M 1174.3 1668.97 C 1188.59 1655.49 1211.23 1650.69 1230.37 1651.23 C 1243.28 1651.6 1252.25 1655.8 1263.93 1660.14 C 1263.41 1676.46 1261.21 1685.82 1258.29 1701.73 L 1256.69 1702.56 C 1243.02 1709.55 1239.7 1709.5 1227.67 1720.39 C 1214.56 1705.39 1201.99 1688.58 1180.2 1687.8 C 1158.07 1687 1141.43 1702.18 1131.05 1719.67 C 1118.83 1711.65 1113.04 1707.41 1098.9 1704.11 C 1097.04 1697.01 1095.84 1681.6 1095.06 1673.8 C 1097.9 1673.21 1110.16 1665.31 1119.87 1663.05 C 1140.86 1658.15 1155.26 1658.28 1174.3 1668.97 z" fill="rgb(99,150,199)" transform="translate(0,0)"></path>
<path d="M 1070.35 1786.05 L 1069.94 1784.99 C 1076.41 1783.11 1290.4 1783.57 1293.44 1784.7 L 1294.4 1787.8 L 1296.42 1808.34 C 1292.18 1811 1093.92 1816.65 1068.99 1818.08 C 1069.02 1808.61 1071.3 1794.38 1070.35 1786.05 z" fill="rgb(15,117,96)" transform="translate(0,0)"></path>
<path d="M 1420.18 1820.15 C 1468.88 1852.59 1487.36 1915.54 1455 1966.06 C 1443.85 1983.47 1419.72 2000.3 1399.52 2004.31 C 1397.09 2004.79 1394.61 2005.05 1392.14 2005.09 C 1371.28 2003.21 1340.53 2005.97 1317.28 2004.22 C 1359.45 1993.55 1397.57 1977.62 1422.45 1939.46 C 1438.4 1914.28 1440.17 1881.19 1431.89 1853.1 C 1428.77 1842.53 1422.13 1830.39 1420.18 1820.15 z" fill="rgb(15,117,96)" transform="translate(0,0)"></path>
<path d="M 1063.06 1936.82 C 1064.92 1938.61 1065.95 1940.06 1067.56 1941.82 C 1084.96 1960.86 1111.67 1969.15 1136.5 1972.67 C 1143.13 1973.61 1153.09 1973.2 1159.23 1974.77 C 1159.63 2001.68 1132.73 2006.17 1111.5 2003.24 C 1089.5 2000.2 1071.09 1984.5 1064.92 1963.01 C 1062.27 1953.76 1062.9 1946.09 1063.06 1936.82 z" fill="rgb(15,117,96)" transform="translate(0,0)"></path>
<path d="M 1159.45 1974.01 C 1159.48 1970.14 1159.52 1966.27 1159.3 1962.4 C 1159.28 1962 1159.46 1960.15 1160.28 1960.54 C 1161.36 1961.05 1161.96 1963.01 1162.34 1963.99 C 1158.84 1967.76 1161.37 1969.1 1159.45 1974.01 z" fill="rgb(223,223,215)" transform="translate(0,0)"></path>
<path d="M 1276.16 1820.98 C 1284.53 1820.32 1284.54 1824.26 1278.65 1826.6 C 1249.14 1838.3 1230.65 1852.45 1213.87 1880.12 C 1209.96 1884.01 1207.95 1879.74 1209.07 1877.56 C 1223.81 1848.88 1247.19 1832.83 1276.16 1820.98 z" fill="rgb(15,117,96)" transform="translate(0,0)"></path>
<path d="M 316.464 882.77 C 311.165 883.035 299.47 873.665 295.185 870.27 C 256.893 838.974 224.759 799.21 199.928 756.219 C 145.989 662.829 218.159 539.79 330.343 573.846 C 368.917 585.556 397.576 613.097 416.181 648.703 C 427.675 633.21 459.609 601.528 478.881 608.929 C 515.82 623.115 503.543 700.319 501.41 730.534 C 500.237 747.158 497.935 766.458 494.142 780.337 C 513.112 785.372 528.746 790.458 537.58 809.739 C 555.473 848.793 545.54 861.091 511.219 878.438 C 503.486 885.285 480.733 901.151 471.188 905.194 L 466.875 907.968 C 461.648 913.569 427.676 932.293 420.196 935.836 L 414.911 938.477 C 411.033 940.568 401.744 944.627 399.394 947.704 C 388.477 953.911 383.21 957.304 371.249 960.532 C 339.659 952.439 315 918.73 318.382 885.902 L 316.464 882.77 z" fill="rgb(223,223,215)" transform="translate(0,0)"></path>
<path d="M 340.847 872.982 C 352.683 866.137 363.846 859.772 376.001 853.504 C 386.998 878.485 402.65 914.445 414.911 938.477 C 411.033 940.568 401.744 944.627 399.394 947.704 C 388.477 953.911 383.21 957.304 371.249 960.532 C 339.659 952.439 315 918.73 318.382 885.902 C 324.858 883.181 329.366 878.824 335.859 875.847 C 341.282 886.449 367.977 946.236 373.548 949.815 L 375.305 949.415 C 377.036 944.499 344.824 881.5 340.847 872.982 z" fill="rgb(223,223,215)" transform="translate(0,0)"></path>
<path d="M 380.81 850.254 C 391.554 843.743 404.739 835.216 415.789 829.847 C 432.403 853.763 450.276 883.06 466.875 907.968 C 461.648 913.569 427.676 932.293 420.196 935.836 C 409.427 911.336 389.058 873.532 380.81 850.254 z" fill="rgb(223,223,215)" transform="translate(0,0)"></path>
<path d="M 316.464 882.77 C 324.364 873.793 470.117 791.356 490.738 780.603 C 496.347 789.193 536.381 845.742 535.54 850.935 C 532.519 851.839 534.098 851.811 530.683 850.246 C 527.393 845.908 522.376 837.13 518.578 831.625 C 508.819 817.478 497.558 802.634 488.508 788.191 C 477.9 794.494 467.177 800.601 456.345 806.509 C 474.523 825.488 489.862 847.6 508.036 866.639 C 509.619 868.298 509.492 869.57 509.527 871.546 L 507.533 873.045 C 502.175 870.815 459.782 817.62 452.272 809.736 C 441.835 815.113 431.531 820.747 421.37 826.631 C 431.267 843.712 440.211 858.02 451.248 874.36 C 456.017 881.42 467.857 898.404 471.188 905.194 L 466.875 907.968 C 450.276 883.06 432.403 853.763 415.789 829.847 C 404.739 835.216 391.554 843.743 380.81 850.254 C 389.058 873.532 409.427 911.336 420.196 935.836 L 414.911 938.477 C 402.65 914.445 386.998 878.485 376.001 853.504 C 363.846 859.772 352.683 866.137 340.847 872.982 C 344.824 881.5 377.036 944.499 375.305 949.415 L 373.548 949.815 C 367.977 946.236 341.282 886.449 335.859 875.847 C 329.366 878.824 324.858 883.181 318.382 885.902 L 316.464 882.77 z" fill="rgb(50,75,105)" transform="translate(0,0)"></path>
<path d="M 422.058 659.436 C 431.201 663.524 419.98 669.477 415.665 676.721 C 407.835 689.865 402.267 702.421 399.123 717.51 C 397.319 726.048 396.626 734.784 397.06 743.501 C 397.362 750.396 398.93 749.709 397.542 756.809 C 388.044 754.255 391.029 736.416 391.829 728.499 C 394.294 704.102 404.752 677.177 422.058 659.436 z" fill="rgb(50,75,105)" transform="translate(0,0)"></path>
<path d="M 1614.18 672.203 C 1624.63 663.974 1634.19 654.796 1644.7 646.83 C 1670.97 626.901 1709.42 615.547 1742.36 619.566 C 1769.52 622.801 1794.3 636.629 1811.32 658.043 C 1832.14 684.703 1838.19 716.551 1834.13 749.66 C 1825.43 820.592 1757.55 873.203 1704.12 913.362 C 1688.31 925.248 1672.55 932.118 1654.58 939.563 C 1651.93 961.523 1642.01 975.784 1624.86 989.245 C 1608.69 1001.93 1592.63 1008.63 1573.98 996.566 C 1572.82 991.568 1577.42 996.093 1574.62 991.442 C 1577.55 986.842 1578.05 986.173 1582.2 982.656 L 1582.53 982.156 C 1581.9 979.935 1582.2 980.715 1580.76 978.783 C 1573.71 969.856 1555.96 956.581 1547.98 945.974 C 1545.83 943.589 1547.11 944.559 1543.69 943.418 C 1540.13 940.623 1512.46 916.51 1510.06 913.795 C 1508.52 912.353 1507.57 911.909 1505.74 910.744 C 1498.55 904.953 1492.74 900.571 1485.14 895.327 L 1472.59 900.317 L 1470.38 900.899 C 1426.74 868.279 1479.21 799.417 1520.55 793.695 C 1521.69 793.54 1522.83 793.413 1523.98 793.315 C 1517.14 754.455 1513.58 718.729 1519.82 679.045 C 1526.14 638.89 1549.01 622.402 1585.25 647.768 C 1595.57 654.99 1603.69 665.243 1614.18 672.203 z" fill="rgb(223,223,215)" transform="translate(0,0)"></path>
<path d="M 1614.35 873.008 C 1625.16 885.371 1632.66 894.106 1641.68 908.077 C 1622.54 930.127 1600.03 957.721 1580.76 978.783 C 1573.71 969.856 1555.96 956.581 1547.98 945.974 C 1569.64 923.952 1593.72 892.072 1614.35 873.008 z" fill="rgb(223,223,215)" transform="translate(0,0)"></path>
<path d="M 1577.89 842 C 1588.2 850.202 1600.31 859.682 1609.98 868.629 C 1598.16 883.337 1582.27 899.772 1569.54 914.15 C 1563.09 921.44 1549.89 937.536 1543.69 943.418 C 1540.13 940.623 1512.46 916.51 1510.06 913.795 C 1532.31 891.514 1555.46 862.932 1577.89 842 z" fill="rgb(223,223,215)" transform="translate(0,0)"></path>
<path d="M 1533.31 813.039 C 1519.82 827.668 1506.53 842.486 1493.45 857.49 C 1489.06 862.546 1477.69 878.843 1471.48 879.05 C 1470.14 876.575 1470.24 877.844 1470.66 875.256 C 1477.16 867.806 1525.49 814.877 1526.37 811.037 C 1525.5 807.874 1524.46 806.999 1522.39 804.491 L 1523 802.867 C 1525.75 801.833 1525.35 801.456 1528.36 803.158 C 1565.35 824.079 1601.13 848.303 1628.81 880.994 C 1638.04 891.891 1653.21 911.062 1655.34 925.539 L 1654.48 927.035 C 1649.65 925.935 1646.57 916.774 1644.65 912.495 C 1639.15 919.335 1586.48 981.923 1584.12 983.057 L 1582.2 982.656 L 1582.53 982.156 C 1581.9 979.935 1582.2 980.715 1580.76 978.783 C 1600.03 957.721 1622.54 930.127 1641.68 908.077 C 1632.66 894.106 1625.16 885.371 1614.35 873.008 C 1593.72 892.072 1569.64 923.952 1547.98 945.974 C 1545.83 943.589 1547.11 944.559 1543.69 943.418 C 1549.89 937.536 1563.09 921.44 1569.54 914.15 C 1582.27 899.772 1598.16 883.337 1609.98 868.629 C 1600.31 859.682 1588.2 850.202 1577.89 842 C 1555.46 862.932 1532.31 891.514 1510.06 913.795 C 1508.52 912.353 1507.57 911.909 1505.74 910.744 C 1528.86 887.19 1550.09 861.457 1573.66 838.572 C 1562.5 830.528 1545.68 819.094 1533.31 813.039 z" fill="rgb(50,75,105)" transform="translate(0,0)"></path>
<path d="M 1599.77 686.708 C 1609.49 690.047 1617.54 710.06 1620.5 719.461 C 1627.14 740.545 1630.79 775.514 1620.35 795.666 C 1618.35 794.525 1616.13 793.914 1616.45 791.953 C 1617.63 784.849 1619.15 777.801 1620.03 770.646 C 1622.87 747.738 1618.11 723.212 1607.19 702.9 C 1604.83 698.506 1600.42 695.384 1598.65 690.79 C 1598.05 689.232 1599.04 688.26 1599.77 686.708 z" fill="rgb(50,75,105)" transform="translate(0,0)"></path>
<path d="M 830.859 1971.86 C 831.036 1967.81 831.239 1965.95 830.636 1961.99 C 826.739 1967.64 823.18 1973.92 819.111 1979.61 C 797.406 2009.96 777.359 2006.21 743.975 2006.15 L 681.951 2006.01 C 657.043 2005.99 611.83 2007.54 588.403 2005.73 C 581.768 2005.28 575.239 2003.83 569.036 2001.43 C 517.887 1981.76 498.956 1920.58 518.689 1871.7 C 529.92 1844.34 551.54 1822.54 578.812 1811.08 C 620.065 1793.58 653.71 1803.12 692.557 1818.78 L 694.476 1809.23 C 704.342 1810.45 723.148 1810.48 733.355 1810.74 L 796.706 1812.6 C 837.961 1813.8 880.908 1817.06 921.828 1817.29 C 921.792 1813.07 921.963 1809.07 922.127 1804.86 C 923.538 1816.5 923.098 1837.01 923.457 1849.84 L 926.155 1933.19 C 926.379 1945.81 927.549 1956.69 922.898 1968.99 C 916.051 1987.09 897.843 2003.32 877.69 2003.03 C 863.75 2002.83 847.61 2005.34 836.568 1994.81 C 830.298 1988.75 830.836 1979.69 830.859 1971.86 z" fill="rgb(64,176,146)" transform="translate(0,0)"></path>
<path d="M 926.155 1933.19 C 926.379 1945.81 927.549 1956.69 922.898 1968.99 C 916.051 1987.09 897.843 2003.32 877.69 2003.03 C 863.75 2002.83 847.61 2005.34 836.568 1994.81 C 830.298 1988.75 830.836 1979.69 830.859 1971.86 C 840.937 1971.9 848.415 1971.98 858.509 1970.18 C 878.385 1966.63 898.911 1956.66 914.393 1943.82 C 918.497 1940.42 921.852 1936.58 926.155 1933.19 z" fill="rgb(15,117,96)" transform="translate(0,0)"></path>
<path d="M 711.766 1822.49 C 718.324 1823.96 730.674 1830.23 738.067 1834.6 C 753.529 1843.74 771.008 1860.96 778.673 1877.59 C 779.207 1878.75 777.617 1880.65 777.029 1881.45 C 773.206 1878.95 772.993 1878.54 770.469 1874.54 C 758.721 1855.89 741.961 1841.37 721.459 1833.13 C 717.69 1831.62 713.478 1829.93 709.918 1827.95 C 708.189 1826.98 711.159 1823.48 711.766 1822.49 z" fill="rgb(15,117,96)" transform="translate(0,0)"></path>
<path d="M 1333.3 885.165 C 1349.63 892.163 1355.11 892.284 1371.97 901.92 C 1386.16 910.496 1396.38 918.528 1406.73 931.62 C 1429.41 922.022 1448.51 912.157 1470.38 900.899 L 1472.59 900.317 L 1485.14 895.327 C 1492.74 900.571 1498.55 904.953 1505.74 910.744 C 1507.57 911.909 1508.52 912.353 1510.06 913.795 C 1512.46 916.51 1540.13 940.623 1543.69 943.418 C 1547.11 944.559 1545.83 943.589 1547.98 945.974 C 1555.96 956.581 1573.71 969.856 1580.76 978.783 C 1582.2 980.715 1581.9 979.935 1582.53 982.156 L 1582.2 982.656 C 1578.05 986.173 1577.55 986.842 1574.62 991.442 C 1572.33 993.864 1569.34 997.227 1566.98 999.43 C 1539.67 1032.2 1483.28 1087.87 1445.58 1107.56 C 1431.24 1095.24 1422.2 1089.7 1404.98 1082.87 C 1372.34 1124.97 1306.42 1134.68 1263.82 1101.83 C 1252.34 1135.47 1236.15 1150.84 1201.13 1159.1 C 1191.42 1139.68 1184.34 1128.54 1167.8 1114.48 C 1171.61 1110.9 1174.62 1106.6 1177.8 1102.44 C 1182.28 1091.74 1185.69 1077.46 1181.2 1066.33 C 1181.17 1063.15 1181.19 1061.21 1180.83 1058.02 C 1188.09 1039.7 1190.19 1029.52 1184.68 1010.02 C 1185.05 1008.68 1185.2 1008.48 1185.15 1007.12 C 1193.17 986.428 1190.22 968.469 1176.39 951.391 C 1177.04 948.903 1177.92 945.668 1178.84 943.251 C 1193.99 949.03 1210.09 951.917 1226.3 951.764 C 1258.61 951.719 1289.59 938.904 1312.49 916.112 C 1321.59 906.213 1326.9 897.035 1333.3 885.165 z" fill="rgb(59,116,172)" transform="translate(0,0)"></path>
<path d="M 1312.49 916.112 L 1313.56 916.569 C 1321.15 919.749 1328.85 921.826 1336.22 924.899 C 1351.98 931.474 1366.62 947.313 1373.2 963.004 C 1380.34 980.353 1380.34 999.823 1373.18 1017.17 C 1366.29 1033.88 1352.87 1047.04 1336.03 1053.61 C 1303.02 1066.36 1278.03 1054.22 1250.75 1035.97 C 1233.79 1077.3 1222.3 1091.02 1177.8 1102.44 C 1182.28 1091.74 1185.69 1077.46 1181.2 1066.33 C 1181.17 1063.15 1181.19 1061.21 1180.83 1058.02 C 1188.09 1039.7 1190.19 1029.52 1184.68 1010.02 C 1185.05 1008.68 1185.2 1008.48 1185.15 1007.12 C 1193.17 986.428 1190.22 968.469 1176.39 951.391 C 1177.04 948.903 1177.92 945.668 1178.84 943.251 C 1193.99 949.03 1210.09 951.917 1226.3 951.764 C 1258.61 951.719 1289.59 938.904 1312.49 916.112 z" fill="rgb(99,150,199)" transform="translate(0,0)"></path>
<path d="M 1485.14 895.327 C 1492.74 900.571 1498.55 904.953 1505.74 910.744 C 1507.57 911.909 1508.52 912.353 1510.06 913.795 C 1512.46 916.51 1540.13 940.623 1543.69 943.418 C 1547.11 944.559 1545.83 943.589 1547.98 945.974 C 1555.96 956.581 1573.71 969.856 1580.76 978.783 C 1582.2 980.715 1581.9 979.935 1582.53 982.156 L 1582.2 982.656 C 1578.05 986.173 1577.55 986.842 1574.62 991.442 C 1572.33 993.864 1569.34 997.227 1566.98 999.43 C 1539.67 1032.2 1483.28 1087.87 1445.58 1107.56 C 1431.24 1095.24 1422.2 1089.7 1404.98 1082.87 C 1409.06 1078.67 1412.76 1074.12 1416.04 1069.26 C 1423.46 1058.09 1435.94 1030.04 1433.34 1017.22 C 1428.38 1014.72 1427.17 1008.57 1435.28 1009.6 C 1433.73 1006.91 1433.85 1004.34 1434.16 1001.24 C 1435.04 992.376 1432.96 984.835 1432.08 976.303 C 1427.66 975.402 1425.27 972.264 1428.93 968.608 C 1429.25 961.272 1412.27 937.345 1406.73 931.62 C 1429.41 922.022 1448.51 912.157 1470.38 900.899 L 1472.59 900.317 L 1485.14 895.327 z" fill="rgb(99,150,199)" transform="translate(0,0)"></path>
<path d="M 1485.14 895.327 C 1492.74 900.571 1498.55 904.953 1505.74 910.744 C 1507.57 911.909 1508.52 912.353 1510.06 913.795 C 1512.46 916.51 1540.13 940.623 1543.69 943.418 C 1547.11 944.559 1545.83 943.589 1547.98 945.974 C 1555.96 956.581 1573.71 969.856 1580.76 978.783 C 1582.2 980.715 1581.9 979.935 1582.53 982.156 L 1582.2 982.656 C 1578.05 986.173 1577.55 986.842 1574.62 991.442 C 1572.33 993.864 1569.34 997.227 1566.98 999.43 C 1556.08 993.506 1541.79 974.979 1532.34 965.47 C 1530.23 963.175 1528.4 960.662 1526.22 958.431 C 1523.34 954.603 1508.6 940.72 1503.67 935.437 C 1493.22 924.231 1482.89 910.862 1472.59 900.317 L 1485.14 895.327 z" fill="rgb(5,62,120)" transform="translate(0,0)"></path>
<path d="M 1428.93 968.608 C 1443.12 974.45 1455.36 986.717 1449.96 1004.5 C 1447.85 1011.46 1438.93 1013.86 1433.34 1017.22 C 1428.38 1014.72 1427.17 1008.57 1435.28 1009.6 C 1433.73 1006.91 1433.85 1004.34 1434.16 1001.24 C 1435.04 992.376 1432.96 984.835 1432.08 976.303 C 1427.66 975.402 1425.27 972.264 1428.93 968.608 z" fill="rgb(5,62,120)" transform="translate(0,0)"></path>
<path d="M 1432.08 976.303 L 1433.46 977.24 C 1445.63 985.326 1451.49 1002.17 1435.28 1009.6 C 1433.73 1006.91 1433.85 1004.34 1434.16 1001.24 C 1435.04 992.376 1432.96 984.835 1432.08 976.303 z" fill="rgb(99,150,199)" transform="translate(0,0)"></path>
<path d="M 1532.34 965.47 C 1529.98 971.886 1530.03 977.984 1522.03 979.2 C 1510.24 980.99 1509.8 973.399 1503.62 968.399 C 1498.32 969.778 1497.31 971.755 1491 971.36 C 1480.33 970.693 1473.4 961.994 1474.3 951.506 C 1474.62 947.844 1477.14 934.065 1483.43 939.468 C 1484.6 941.764 1481.6 946.675 1481.1 948.528 C 1476.47 965.828 1491.14 968.162 1503.58 960.284 C 1508.96 956.877 1508.9 969.939 1514.68 972.547 C 1524.13 976.808 1523.02 966.923 1526.22 958.431 C 1528.4 960.662 1530.23 963.175 1532.34 965.47 z" fill="rgb(5,62,120)" transform="translate(0,0)"></path>
<path d="M 1033.58 68.623 C 1038.98 53.5134 1043.57 44.8764 1057.28 35.4483 C 1073.49 24.307 1096.45 23.9159 1108.01 41.724 C 1121.15 34.6354 1135.3 26.5966 1150.65 30.6139 C 1158.68 32.7159 1168.7 42.7443 1164.68 51.0642 C 1163.7 53.0866 1163.37 54.6924 1163.23 56.9516 C 1165.75 58.3918 1164.88 58.0023 1167.71 58.6882 C 1201.78 61.7635 1221.41 74.3236 1206.34 110.958 C 1222.55 118.719 1243.27 131.064 1232.44 152.419 C 1230.42 156.406 1224.68 158.505 1220.69 160.289 C 1222.65 164.159 1227.84 172.24 1228.73 175.999 C 1235.05 202.511 1224.9 221.938 1196.31 215.019 C 1196.1 229.473 1193 251.493 1173.44 239.898 C 1164.75 248.898 1173.65 254.102 1152.11 263.454 C 1146.46 262.972 1138.34 261.315 1134.14 261.076 C 1127.89 257.184 1122.23 252.961 1117.2 247.577 C 1116.23 247.917 1109.24 261.796 1104.71 265.786 C 1093.59 275.562 1071.98 281.835 1062.42 266.9 C 1058.61 260.935 1060.35 254.23 1061.49 247.548 C 1047.82 251.764 1034.19 256.329 1019.79 252.603 C 1003.57 248.408 1000.26 236.029 1004.59 221.313 L 988.128 223.544 C 977.54 213.615 972.65 203.575 981.042 190.081 C 959.956 173.078 953.201 152.368 979.844 136.708 C 974.919 126.644 969.115 107.181 982.922 99.5065 C 987.437 96.9966 995.178 97.1986 1000.01 99.3278 C 997.78 75.1642 1005.73 50.461 1033.58 68.623 z" fill="rgb(223,223,215)" transform="translate(0,0)"></path>
<path d="M 1167.71 58.6882 C 1201.78 61.7635 1221.41 74.3236 1206.34 110.958 C 1222.55 118.719 1243.27 131.064 1232.44 152.419 C 1230.42 156.406 1224.68 158.505 1220.69 160.289 C 1222.65 164.159 1227.84 172.24 1228.73 175.999 C 1235.05 202.511 1224.9 221.938 1196.31 215.019 C 1196.1 229.473 1193 251.493 1173.44 239.898 C 1164.75 248.898 1173.65 254.102 1152.11 263.454 C 1146.46 262.972 1138.34 261.315 1134.14 261.076 C 1127.89 257.184 1122.23 252.961 1117.2 247.577 C 1138.98 250.105 1155.72 246.206 1159.91 221.283 L 1160.15 219.79 C 1161.46 218.645 1161.52 218.23 1163.2 218.129 C 1178.09 217.238 1178.93 202.099 1177.86 190.491 C 1177.32 184.619 1175.48 180.557 1173.12 175.012 L 1174.22 174.506 C 1183.91 170.019 1191.35 161.773 1194.82 151.675 C 1198.87 139.589 1197.41 126.336 1190.83 115.42 C 1188.37 111.278 1185.4 108.093 1183.25 103.788 L 1188.88 95.7053 C 1189.86 74.9638 1183.94 70.2307 1167.71 58.6882 z" fill="rgb(183,192,188)" transform="translate(0,0)"></path>
<path d="M 745.132 1569.64 C 760.386 1564.54 776.512 1557.13 788.013 1545.6 C 812.081 1584.15 838.853 1610.33 887.796 1611.51 C 893.01 1611.64 900.504 1610.23 905.319 1611.38 C 905.596 1613.29 905.75 1616.37 906.696 1617.76 C 907.518 1641.16 907.683 1661.43 905.185 1684.8 C 904.524 1691.97 899.844 1701.99 903.501 1706.97 C 906.7 1708 908.945 1707.56 912.295 1707.33 L 912.802 1707.16 C 925.039 1706.68 936.936 1711.25 945.703 1719.8 C 953.869 1727.8 958.376 1738.82 958.164 1750.25 C 957.733 1772.67 943.321 1787.25 921.851 1790.69 L 922.127 1804.86 C 921.963 1809.07 921.792 1813.07 921.828 1817.29 C 880.908 1817.06 837.961 1813.8 796.706 1812.6 L 733.355 1810.74 C 723.148 1810.48 704.342 1810.45 694.476 1809.23 C 696.165 1801.09 697.779 1792.94 699.319 1784.77 C 698.123 1784.89 695.601 1785.02 694.513 1784.69 C 674.16 1778.49 666.568 1754.24 671.689 1735.18 C 674.833 1723.68 682.475 1713.93 692.89 1708.13 C 709.974 1698.43 726.013 1701.06 743.661 1705.94 C 738.451 1685.3 734.572 1644.27 737.877 1623.62 C 738.616 1602.79 740.151 1589.66 745.132 1569.64 z" fill="rgb(64,176,146)" transform="translate(0,0)"></path>
<path d="M 745.132 1569.64 C 760.386 1564.54 776.512 1557.13 788.013 1545.6 C 812.081 1584.15 838.853 1610.33 887.796 1611.51 C 893.01 1611.64 900.504 1610.23 905.319 1611.38 C 905.596 1613.29 905.75 1616.37 906.696 1617.76 C 907.518 1641.16 907.683 1661.43 905.185 1684.8 C 882.082 1665.27 855.376 1656.72 827.365 1672.17 C 806.509 1649.2 766.824 1645.11 737.64 1644.31 C 737.923 1637.05 738.047 1630.88 737.877 1623.62 C 738.616 1602.79 740.151 1589.66 745.132 1569.64 z" fill="rgb(5,62,120)" transform="translate(0,0)"></path>
<path d="M 819.735 1605.17 C 826.622 1607.42 823.873 1609.04 826.104 1614.96 C 827.783 1620.4 838.094 1622.88 842.413 1619.68 C 847.161 1616.16 848.588 1621.44 847.185 1624.09 C 845.935 1626.45 838.553 1628.17 835.478 1628.19 C 830.181 1628.22 827.775 1625.48 823.83 1621.63 C 819.146 1626.17 818.641 1626.69 813.304 1630.6 C 806.761 1631.66 802.172 1632.45 796.425 1627.31 C 792.944 1625.16 790.076 1614.1 793.002 1611.21 C 796.235 1608.02 799.889 1626.18 805.013 1626.07 C 818.686 1625.8 817.579 1614.51 819.735 1605.17 z" fill="rgb(50,75,105)" transform="translate(0,0)"></path>
<path d="M 912.802 1707.16 C 925.039 1706.68 936.936 1711.25 945.703 1719.8 C 953.869 1727.8 958.376 1738.82 958.164 1750.25 C 957.733 1772.67 943.321 1787.25 921.851 1790.69 L 922.127 1804.86 C 921.963 1809.07 921.792 1813.07 921.828 1817.29 C 880.908 1817.06 837.961 1813.8 796.706 1812.6 L 733.355 1810.74 C 723.148 1810.48 704.342 1810.45 694.476 1809.23 C 696.165 1801.09 697.779 1792.94 699.319 1784.77 C 703.609 1783.41 729.528 1783.95 735.491 1783.95 L 835.911 1783.96 C 853.93 1784.01 873.087 1784.56 890.659 1783.45 C 918.238 1781.7 931.558 1745.67 922.623 1722.61 C 920.463 1717.03 916.757 1713.25 913.615 1708.42 L 912.802 1707.16 z" fill="rgb(15,117,96)" transform="translate(0,0)"></path>
<path d="M 743.661 1705.94 C 738.451 1685.3 734.572 1644.27 737.877 1623.62 C 738.047 1630.88 737.923 1637.05 737.64 1644.31 C 766.824 1645.11 806.509 1649.2 827.365 1672.17 C 855.376 1656.72 882.082 1665.27 905.185 1684.8 C 904.524 1691.97 899.844 1701.99 903.501 1706.97 C 906.7 1708 908.945 1707.56 912.295 1707.33 C 909.579 1708.15 904.274 1708.08 901.226 1708.02 C 886.116 1707.75 880.706 1713.31 868.44 1721.69 C 851.825 1697.57 836.022 1680.89 802.421 1689.05 C 784.582 1693.37 773.246 1705.34 764.361 1721.15 C 757.425 1716.13 750.525 1711.06 743.661 1705.94 z" fill="rgb(99,150,199)" transform="translate(0,0)"></path>
<path d="M 634.222 768.103 L 634.534 768.303 C 634.749 768.443 636.78 769.82 637.009 769.777 C 645.593 768.163 653.403 755.764 665.498 751.013 C 680.688 743.548 699.697 745.248 713.397 755.181 C 716.229 757.234 718.59 760.943 722.424 761.861 C 728.112 772.322 724.481 794.14 721.125 805.149 L 720.723 806.427 C 717.689 812.601 714.978 817.216 711.431 823.122 C 710.972 824.911 710.817 825.884 710.543 827.685 C 715.747 846.793 711.624 863.155 699.433 878.49 L 699.291 879.43 L 696.545 883.642 C 710.422 895.451 699.957 929.937 691.785 943.621 L 691.108 943.837 C 689.935 946.739 689.639 948.109 688.887 951.162 C 699.328 968.396 690.466 993.218 678.685 1007.58 L 678.11 1007.88 C 678.781 1022.36 677.876 1037.08 666.178 1047.57 L 665.594 1048.93 C 663.852 1051.03 663.082 1052.93 661.913 1055.42 C 646.328 1025.11 611.49 1031.31 589.278 1051.28 C 585.512 1054.67 585.37 1055.93 580.736 1058.25 L 580.774 1056.89 C 580.837 1053.89 580.63 1053.34 581.722 1050.64 C 573.536 1028.79 576.656 1017.64 589.987 999.409 C 577.291 981.989 589.482 963.576 599.812 948.973 C 595.586 938.231 595.472 934.265 594.824 922.799 C 596.582 914.211 599.373 910.219 604.021 902.868 C 608.532 895.735 603.686 895.536 602.183 888.142 C 598.66 870.805 607.67 854.564 615.452 840.411 C 606.528 818.562 612.583 799.479 626.096 781.538 C 629.172 777.454 633.748 772.769 634.222 768.103 z" fill="rgb(236,83,35)" transform="translate(0,0)"></path>
<path d="M 696.545 883.642 C 693.327 883.323 687.7 875.975 682.005 873.123 C 656.411 860.306 631.781 876.511 612.643 892.751 C 612.301 892.882 611.653 892.436 611.506 892.244 C 608.19 887.942 610.542 885.506 613.966 882.486 C 629.853 868.475 653.891 857.034 675.422 862.34 C 685.431 864.806 692.533 870.896 699.433 878.49 L 699.291 879.43 L 696.545 883.642 z" fill="rgb(246,220,194)" transform="translate(0,0)"></path>
<path d="M 688.887 951.162 C 684.179 951.5 680.993 945.39 677.547 941.855 C 658.383 921.733 630.544 928.339 610.619 943.251 C 605.009 947.45 602.386 942.615 603.837 940.993 C 620.288 922.602 652.974 915.297 674.378 929.338 C 681.917 934.282 685.841 938.114 691.108 943.837 C 689.935 946.739 689.639 948.109 688.887 951.162 z" fill="rgb(246,220,194)" transform="translate(0,0)"></path>
<path d="M 581.722 1050.64 C 587.402 1044.27 590.272 1040.29 598.01 1035.84 C 621.083 1022.57 651.375 1022.27 666.178 1047.57 L 665.594 1048.93 C 663.852 1051.03 663.082 1052.93 661.913 1055.42 C 646.328 1025.11 611.49 1031.31 589.278 1051.28 C 585.512 1054.67 585.37 1055.93 580.736 1058.25 L 580.774 1056.89 C 580.837 1053.89 580.63 1053.34 581.722 1050.64 z" fill="rgb(246,220,194)" transform="translate(0,0)"></path>
<path d="M 710.543 827.685 C 709.505 827.981 708.447 828.461 707.365 828.541 C 706.643 828.082 706.029 827.545 705.542 826.817 C 698.73 816.638 688.576 809.601 676.496 807.001 C 662.555 803.968 649.886 811.037 638.911 818.804 C 636.115 820.783 630.355 827.705 627.378 823.592 C 624.52 819.643 632.608 814.47 635.005 812.493 C 658.563 793.067 690.378 793.996 708.885 819.588 L 711.431 823.122 C 710.972 824.911 710.817 825.884 710.543 827.685 z" fill="rgb(246,220,194)" transform="translate(0,0)"></path>
<path d="M 678.11 1007.88 C 677.457 1008.14 673.116 1010.28 673.321 1010.56 C 668.227 1003.52 664.823 997.457 657.824 992.25 C 639.048 978.28 620.139 983.286 602.605 996.167 C 600.269 997.883 596.9 1001.09 594.037 1001.8 C 593.033 1001.97 590.388 999.365 591.017 998.044 C 593.349 993.143 601.214 988.055 605.619 985.355 C 617.579 978.373 630.282 974.273 643.999 977.998 C 664.467 983.557 668.452 992.038 678.685 1007.58 L 678.11 1007.88 z" fill="rgb(246,220,194)" transform="translate(0,0)"></path>
<path d="M 511.219 878.438 C 513.693 880.237 516.703 882.56 519.227 884.189 C 539.576 897.769 571.538 916.629 594.824 922.799 C 595.472 934.265 595.586 938.231 599.812 948.973 C 589.482 963.576 577.291 981.989 589.987 999.409 C 576.656 1017.64 573.536 1028.79 581.722 1050.64 C 580.63 1053.34 580.837 1053.89 580.774 1056.89 L 580.736 1058.25 C 576.184 1070.93 578.636 1081.14 586.284 1091.86 C 584.318 1092.66 569.771 1098.9 568.77 1099.14 L 561.058 1101.33 C 516.782 1085.09 456.889 1022.32 428.175 984.898 C 419.293 974.396 408.163 956.392 399.394 947.704 C 401.744 944.627 411.033 940.568 414.911 938.477 L 420.196 935.836 C 427.676 932.293 461.648 913.569 466.875 907.968 L 471.188 905.194 C 480.733 901.151 503.486 885.285 511.219 878.438 z" fill="rgb(99,150,199)" transform="translate(0,0)"></path>
<path d="M 511.219 878.438 C 513.693 880.237 516.703 882.56 519.227 884.189 C 505.012 920.019 486.147 935.308 457.287 960.087 C 447.802 968.231 438.108 977.411 428.175 984.898 C 419.293 974.396 408.163 956.392 399.394 947.704 C 401.744 944.627 411.033 940.568 414.911 938.477 L 420.196 935.836 C 427.676 932.293 461.648 913.569 466.875 907.968 L 471.188 905.194 C 480.733 901.151 503.486 885.285 511.219 878.438 z" fill="rgb(5,62,120)" transform="translate(0,0)"></path>
<path d="M 495.964 953.261 C 502.992 952.665 506.995 952.187 513.894 954.359 C 530.059 959.446 532.176 980.472 514.519 985.219 C 507.763 987.036 510.536 984.977 507.03 984.047 L 506.879 984.465 C 508.936 991.31 509.045 994.634 503.117 1000.54 C 492.039 1011.58 481.339 1006.59 472.803 997.163 C 471.721 994.617 469.525 990.725 472.806 988.694 C 476.553 988.817 488.216 1009.97 499.573 995.288 C 503.727 991.986 500.532 978.162 500.512 978.197 C 505.12 969.891 509.301 987.262 517.95 976.881 C 526.983 966.038 511.964 956.234 501.489 958.839 C 496.742 960.019 493.531 958.508 495.964 953.261 z" fill="rgb(5,62,120)" transform="translate(0,0)"></path>
<path d="M 1088.77 901.452 C 1095.69 897.415 1100.11 887.314 1106.39 881.748 C 1136.88 854.762 1166.44 893.272 1172.55 893.284 C 1173.02 893.285 1173.48 893.271 1173.95 893.264 C 1185.2 902.293 1183.89 930.7 1178.84 943.251 C 1177.92 945.668 1177.04 948.903 1176.39 951.391 C 1190.22 968.469 1193.17 986.428 1185.15 1007.12 C 1185.2 1008.48 1185.05 1008.68 1184.68 1010.02 C 1190.19 1029.52 1188.09 1039.7 1180.83 1058.02 C 1181.19 1061.21 1181.17 1063.15 1181.2 1066.33 C 1174.84 1063.18 1174.1 1061.32 1168.38 1057.26 C 1156.8 1049.11 1142.23 1043.57 1128.19 1048.38 C 1117.51 1052.03 1110.08 1060.21 1103.51 1068.97 C 1101.25 1071.99 1100.62 1071.21 1098.02 1069.33 C 1097.48 1068.39 1096.93 1067.45 1096.37 1066.52 C 1089.46 1050.49 1087.63 1030.39 1097.16 1015.05 C 1089.55 1004.21 1087.18 999.233 1086.1 986.261 C 1087.25 977.052 1087.6 975.533 1090.88 967.162 C 1081.75 951.708 1080.64 939.349 1081.09 921.851 C 1082.97 914.219 1084.12 907.911 1088.77 901.452 z" fill="rgb(236,83,35)" transform="translate(0,0)"></path>
<path d="M 1176.39 951.391 C 1167.7 944.805 1161.88 938.97 1153.61 935.423 C 1128.15 924.179 1106.1 946.44 1095.02 966.944 C 1093.62 967.653 1089.75 963.666 1089.98 963.036 C 1096.86 944.104 1116 927.362 1136.05 925.505 C 1153.94 923.848 1166.32 933.793 1178.84 943.251 C 1177.92 945.668 1177.04 948.903 1176.39 951.391 z" fill="rgb(246,220,194)" transform="translate(0,0)"></path>
<path d="M 1184.68 1010.02 C 1179.77 1007.62 1183.7 1017.3 1173.16 1003.88 C 1153.23 978.508 1117.86 996.289 1102.95 1017.72 C 1102.35 1018.58 1098.21 1015.98 1098.08 1014.95 C 1113.71 984.25 1164.75 969.958 1184.11 1005.62 C 1184.46 1006.12 1184.8 1006.62 1185.15 1007.12 C 1185.2 1008.48 1185.05 1008.68 1184.68 1010.02 z" fill="rgb(246,220,194)" transform="translate(0,0)"></path>
<path d="M 1096.37 1066.52 C 1101 1058.99 1107.1 1052.46 1114.3 1047.34 C 1135.23 1032.61 1159.66 1039.61 1177.71 1055.29 L 1180.83 1058.02 C 1181.19 1061.21 1181.17 1063.15 1181.2 1066.33 C 1174.84 1063.18 1174.1 1061.32 1168.38 1057.26 C 1156.8 1049.11 1142.23 1043.57 1128.19 1048.38 C 1117.51 1052.03 1110.08 1060.21 1103.51 1068.97 C 1101.25 1071.99 1100.62 1071.21 1098.02 1069.33 C 1097.48 1068.39 1096.93 1067.45 1096.37 1066.52 z" fill="rgb(246,220,194)" transform="translate(0,0)"></path>
<metadata><recraft-signature>{"signed_by": "recraft", "signature_b64": "kQmIeNTqVQXvNvQZ3lCjIBMhdTNQJZiWlYLSR7NmeNYz3yCG+Yuj0M6Oi6JJIg1RvA6JVDW/kNF9oIvTIBAEDQ==", "signing_algo": "Ed25519", "generation_timestamp": 1778557840, "identifier": "1f33d9f9-c14d-4cb4-aaed-273e4539565a"}</recraft-signature></metadata></svg>