<svg xmlns="http://www.w3.org/2000/svg" height="1024" preserveAspectRatio="none" style="display: block;" version="1.1" viewBox="0 0 2048 2048" width="1024">

<path d="M 1101.18 29.1446 C 1108.81 21.1887 1130.46 1.10455 1141.84 8.30961 C 1151.74 21.0843 1130.09 46.3763 1122.16 55.7076 C 1128.73 53.7444 1138.6 49.445 1141.12 58.1911 C 1139.01 68.9519 1128.05 79.0335 1120.42 86.8769 C 1130.9 82.744 1142.02 75.784 1152.28 71.7812 C 1181.83 60.2594 1217.1 56.9231 1248.34 60.9591 C 1240.68 87.3819 1227.56 103.312 1210.86 124.082 C 1273.7 123.017 1307.45 136.696 1358.6 172.286 C 1348.94 182.557 1334.81 190.706 1322.64 197.538 C 1325.22 201.118 1327.75 203.948 1330.63 207.26 C 1359.44 199.918 1385.97 185.548 1407.87 165.437 C 1438.7 137.647 1457.02 103.281 1459.31 61.7189 C 1459.05 55.6453 1459.18 48.2693 1459.06 42.0187 C 1458.83 35.7133 1457.58 31.9734 1456.46 25.8205 C 1464.54 34.1756 1472.61 43.6765 1478.21 53.8899 C 1502.64 96.584 1507.12 149.986 1494.26 197.119 C 1485.96 227.572 1471.39 250.104 1450.6 273.278 C 1472.16 281.842 1502.47 297.987 1519.49 313.821 C 1497.98 331.092 1481.34 341.296 1455.03 351.331 C 1477.55 364.7 1498.44 379.37 1515.12 400.034 C 1517.19 401.918 1519.03 404.256 1520.74 406.491 C 1525.02 412.024 1530.02 418.19 1533.76 423.997 C 1512.31 435.766 1483.61 437.903 1459.6 438.931 C 1458.77 441.73 1458.99 440.653 1459.32 443.73 C 1457.59 445.641 1456.41 445.58 1453.84 446.214 C 1456.45 455.579 1460.35 463.997 1463.38 473.078 C 1468.02 487.015 1471.97 504.557 1473.36 519.367 C 1450.13 514.829 1433.33 510.392 1411.61 500.002 C 1418.66 526.441 1420.88 553.933 1418.16 581.159 C 1395.14 570.772 1375.43 556.789 1356.19 540.714 C 1322.25 622.252 1266.16 662.052 1179.57 673.608 C 1178.75 685.797 1176.99 693.358 1171.04 704.327 C 1219.32 707 1237.51 713.298 1276.46 741.655 C 1290.43 731.362 1306.38 725.216 1324.07 727.795 C 1338.59 730.018 1351.59 738.002 1360.14 749.94 C 1373.61 768.445 1374.93 791.778 1371.22 813.666 C 1365.07 849.844 1342.69 879.554 1320.22 907.395 C 1375.5 946.021 1409.87 1020.48 1421.39 1085.52 C 1422.11 1089.61 1422.8 1093.71 1423.46 1097.81 C 1403.08 1094.5 1382.78 1087.06 1363.49 1079.83 C 1400.56 1124.22 1424.15 1178.3 1431.45 1235.67 C 1396.7 1227.2 1387.55 1223.85 1354.71 1209.8 C 1378.34 1259.29 1388.32 1306.28 1385.09 1361.42 C 1335.13 1341.02 1304.37 1320.78 1267.48 1281.7 C 1270.91 1311.11 1271.49 1336.92 1265.73 1365.96 C 1264.24 1373.46 1257.34 1390.57 1257.58 1396.99 C 1263.18 1548.69 1232.21 1701.92 1182.95 1844.36 C 1267.68 1834.24 1306.61 1774.06 1395.54 1789.09 C 1417.35 1792.78 1439.49 1801.35 1457.05 1815.01 C 1482.39 1834.7 1498.75 1863.74 1502.45 1895.62 C 1517.57 2019.95 1352.37 2034.51 1262.34 2036.01 C 1203.36 2036.99 1116.04 2021.83 1066.22 1990.62 C 1052.87 1981.42 1044.68 1964.44 1040 1949.9 C 1030.02 1978.26 1021.13 1991.21 992.767 2004.79 C 970.119 2015.09 944.931 2021.88 920.463 2026.41 C 829.994 2043.16 737.829 2042.6 650.002 2013.34 C 585.972 1993.45 555.161 1933.79 579.006 1870.49 C 591.389 1837.62 612.889 1816.23 644.347 1801.89 C 701.765 1775.72 758.939 1790.76 811.505 1819.98 C 838.262 1834.86 872.174 1844.05 902.82 1847.82 C 896.696 1825.86 889.166 1804.27 883.386 1782.43 C 852.832 1666.96 832.499 1545.12 847.808 1425.69 C 849.432 1413.03 850.856 1399.92 852.214 1387.19 C 852.89 1377.7 848.098 1363.59 847.926 1351.87 C 846.287 1344.4 846.672 1330.12 847.072 1322.37 C 847.129 1308.89 849.107 1295.55 851.834 1282.36 C 822.691 1308.53 778.878 1340.54 740.145 1348.3 C 737.796 1349.5 732.977 1350.87 730.305 1351.73 C 730.13 1346.38 730.266 1344.26 730.933 1338.94 C 729.953 1289.65 749.9 1238.49 775.183 1196.97 C 748.935 1205.75 721.752 1211.43 694.185 1213.91 C 695.921 1204.11 701.177 1189.13 704.925 1179.78 C 724.778 1130.26 753.067 1093.54 792.663 1058.87 C 769.511 1066.15 760.326 1068.89 736.722 1072.21 C 738.855 1059.5 740.996 1050.43 744.857 1038.19 C 696.076 1037.1 672.088 995.555 648.151 959.093 C 628.056 928.483 613.971 895.631 599.424 862.203 C 597.802 858.475 587.587 851.339 585.107 847.404 C 576.217 835.738 570.704 822.919 564.694 809.649 C 536.852 818.53 508.355 825.212 479.976 832.141 C 473.563 833.707 467.203 835.349 461.077 837.836 C 459.617 837.229 458.405 836.726 456.992 836.027 C 448.647 831.878 442.373 824.483 439.639 815.574 C 436.365 805.227 436.545 784.231 447.45 778.842 C 456.282 774.478 472.485 771.544 482.272 769.111 L 528.434 757.182 C 523.245 727.042 533.335 712.095 561.319 701.671 C 570.53 683.107 580.906 678.416 600.928 677.917 C 601.687 676.541 602.481 675.184 603.308 673.848 C 618.491 649.635 642.043 654.994 662.04 668.674 C 665.77 648.197 680.587 634.076 701.612 647.388 C 717.537 657.471 725.892 686.631 728.843 704.756 C 753.402 698.75 777.897 692.485 802.324 685.963 C 782.66 659.361 813.444 639.085 836.826 632.854 C 841.045 619.053 841.867 616.754 853.635 607.656 C 841.581 594.739 836.354 585.105 827.575 570.022 C 812.326 586.715 800.432 598.055 781.141 609.526 C 778.193 611.91 771.197 615.731 767.693 617.881 C 763.156 598.82 762.721 580.814 764.251 561.371 C 764.314 559.534 764.187 559.425 764.758 557.889 C 764.901 547.354 768.599 534.788 771.351 524.457 C 746.108 538.137 733.652 542.248 706.748 550.509 C 707.249 520.369 713.823 491.733 727.9 465.088 C 721.755 465.173 716.763 466.782 715.881 459.377 C 708.55 458.232 697.893 458.212 690.173 457.821 C 673.7 456.985 664.074 454.275 648.75 449.015 C 665.686 417.82 694.679 387.577 725.991 370.691 C 701.793 364.614 676.235 351.644 655.979 337.198 C 676.404 317.439 689.982 309.926 714.634 297.417 C 672.627 253.793 651.852 220.118 650.098 156.389 C 649.107 120.402 662.026 82.4533 687.9 56.5531 C 683.5 86.714 684.954 113.282 700.992 140.126 C 722.813 176.652 762.031 199.944 802.427 210.201 C 821.14 193.527 838.479 183.798 860.319 172.674 C 838.305 162.474 828.992 157.465 809.737 142.398 C 850.078 115.978 881.691 103.55 930.137 107.71 C 921.43 90.9754 916.881 80.2431 912.571 62.0164 C 961.172 62.5705 998.214 75.4408 1035.67 107.133 C 1035.67 101.108 1034.95 89.7532 1037.51 84.6868 L 1039.04 84.6087 C 1040.43 86.5402 1041.85 88.4432 1043.32 90.3166 C 1045.82 83.6067 1051.63 46.6801 1061.48 47.954 C 1064.15 50.9132 1064.3 55.3241 1064.98 59.4161 C 1068.71 49.8568 1088.33 10.1318 1101.13 17.4814 C 1102.89 21.1132 1101.76 25.0112 1101.18 29.1446 z" fill="rgb(9,10,7)" transform="translate(0,0)"></path>
<path d="M 1456.46 25.8205 C 1464.54 34.1756 1472.61 43.6765 1478.21 53.8899 L 1475.94 54.2375 C 1479.67 61.1643 1482.7 66.4366 1485.34 73.8281 C 1482.17 84.5698 1487.11 102.272 1484.48 116.602 C 1484.24 118.334 1483.95 118.867 1484.27 120.463 L 1484.38 122.198 C 1485.47 135.914 1481.86 148.713 1478.39 161.729 L 1477.77 163.751 C 1475.23 171.209 1473.91 178.68 1470.66 186.037 C 1469.4 188.875 1467.22 193.458 1466.5 196.207 L 1465.87 198.488 C 1460.73 206.663 1457.69 216.744 1450.56 224.231 C 1449.21 225.646 1447.04 228.612 1446.08 230.41 L 1444.57 232.052 C 1441.22 233.935 1429.56 248.336 1420.24 254.763 L 1418.66 256.155 C 1416.36 257.788 1414.89 258.892 1412.73 260.713 C 1406.87 265.65 1398.29 268.723 1392.29 272.782 L 1391.14 273.28 C 1383.19 276.596 1370.55 283.132 1362.03 284.188 C 1349.4 287.945 1337.41 291.294 1324.19 292.195 C 1313.39 273.989 1310.03 255.3 1310.65 234.307 C 1311.46 207.206 1338.34 208.651 1359.48 199.751 C 1375.78 192.804 1390.87 183.301 1404.17 171.599 C 1434.02 145.858 1458.15 109.414 1461.15 69.283 C 1461.98 64.94 1462.91 46.612 1461.18 43.3273 C 1461.04 43.7809 1460.88 44.9258 1460.45 45.269 C 1459.89 44.4584 1459.42 42.9845 1459.06 42.0187 C 1458.83 35.7133 1457.58 31.9734 1456.46 25.8205 z" fill="rgb(209,148,75)" transform="translate(0,0)"></path>
<path d="M 1456.46 25.8205 C 1464.54 34.1756 1472.61 43.6765 1478.21 53.8899 L 1475.94 54.2375 C 1472.35 48.2354 1468.76 43.3192 1464.3 37.9101 C 1463.54 36.9323 1463.68 37.1034 1462.87 36.2747 C 1462.72 36.203 1461.98 35.6637 1461.59 35.7911 C 1461.35 35.8653 1461.21 36.1908 1461.15 36.3853 C 1460.79 37.4011 1461.05 38.9297 1461.09 39.8852 C 1461.14 41.032 1461.17 42.1795 1461.18 43.3273 C 1461.04 43.7809 1460.88 44.9258 1460.45 45.269 C 1459.89 44.4584 1459.42 42.9845 1459.06 42.0187 C 1458.83 35.7133 1457.58 31.9734 1456.46 25.8205 z" fill="rgb(9,10,7)" transform="translate(0,0)"></path>
<path d="M 779.22 1196.64 C 801.924 1185.33 825.64 1176.33 847.444 1162.36 C 852.287 1159.26 872.045 1144.11 875.022 1143.76 C 875.008 1147.98 871.171 1157.73 869.865 1162.29 C 863.576 1184.22 860.755 1206.61 858.635 1229.32 C 858.793 1230.73 858.865 1230.7 858.395 1232 C 858.413 1258.08 860.047 1279.53 834.246 1293.81 C 831.354 1295.41 824.918 1302.98 821.357 1305.6 C 803.36 1318.84 784.588 1329.7 763.908 1338.19 C 760.391 1339.63 741.431 1346.24 739.865 1347.84 L 740.145 1348.3 C 737.796 1349.5 732.977 1350.87 730.305 1351.73 C 730.13 1346.38 730.266 1344.26 730.933 1338.94 C 733.239 1336.52 736.377 1301.22 737.65 1294.54 C 744.688 1257.6 758.724 1227.53 779.22 1196.64 z" fill="rgb(8,73,55)" transform="translate(0,0)"></path>
<path d="M 847.072 1322.37 C 852.354 1314.45 850.81 1281.17 859.958 1266.51 C 863.292 1269.02 862.263 1268.99 865.857 1269.37 C 885.757 1261.06 917.65 1239.61 935.142 1226.33 C 942.67 1220.61 949.687 1211.69 955.98 1206.88 C 946.376 1247.64 945.287 1274.71 949.411 1316.34 C 927.612 1356.26 899.308 1384.08 862.164 1409.46 C 858.846 1399.08 855.435 1388.59 853.467 1377.85 C 852.062 1370.19 851.743 1358.19 849.181 1351 L 847.926 1351.87 C 846.287 1344.4 846.672 1330.12 847.072 1322.37 z" fill="rgb(8,73,55)" transform="translate(0,0)"></path>
<path d="M 1404.57 363.421 C 1418.02 360.261 1438.29 357.134 1452.58 352.971 C 1453.37 353.286 1454.16 353.602 1454.95 353.918 C 1457.37 355.741 1459.07 356.839 1461.68 358.423 L 1466.12 361.185 C 1467.53 362.072 1468.67 362.45 1470.19 363.106 L 1478.11 368.623 C 1478.83 368.916 1478.71 368.878 1479.29 369.441 C 1486.51 375.023 1507.13 392.526 1512.02 400.446 C 1513.77 401.495 1513.76 401.67 1515.12 400.034 C 1517.19 401.918 1519.03 404.256 1520.74 406.491 L 1519.45 409.006 C 1521.35 411.229 1523.35 413.429 1524.99 415.842 C 1525.53 416.223 1525.48 416.296 1525.82 416.952 L 1528.86 420.703 C 1529.39 422.784 1528.92 422.57 1528.17 424.641 C 1518.8 427.869 1511.33 430.281 1501.6 432.377 C 1500.69 432.409 1500.85 432.385 1499.98 432.72 L 1490.82 434.316 C 1489.48 434.269 1489.44 434.136 1488.37 434.645 C 1476.98 436.358 1468.24 436.349 1456.8 435.809 C 1444.08 406.202 1429.5 383.808 1404.57 363.421 z" fill="rgb(31,128,90)" transform="translate(0,0)"></path>
<path d="M 1512.02 400.446 C 1513.77 401.495 1513.76 401.67 1515.12 400.034 C 1517.19 401.918 1519.03 404.256 1520.74 406.491 L 1519.45 409.006 C 1519.09 408.814 1512.4 401.261 1512.02 400.446 z" fill="rgb(25,90,68)" transform="translate(0,0)"></path>
<path d="M 774.928 522.789 C 783.241 516.795 795.178 508.599 802.393 501.807 C 808.014 526.106 813.659 544.725 825.769 567.083 C 818.018 579.263 800.618 593.559 788.433 601.507 C 786.077 603.044 776.817 609.12 775.558 610.579 C 778.666 610.439 778.721 607.293 781.141 609.526 C 778.193 611.91 771.197 615.731 767.693 617.881 C 763.156 598.82 762.721 580.814 764.251 561.371 C 764.314 559.534 764.187 559.425 764.758 557.889 C 765.4 558.254 765.301 558.333 765.799 558.238 C 766.769 557.422 766.785 555.638 766.99 554.497 L 767.363 552.994 L 768.299 546.06 C 768.616 545.207 768.585 545.339 768.635 544.426 C 770.62 535.649 771.639 531.052 774.928 522.789 z" fill="rgb(31,128,90)" transform="translate(0,0)"></path>
<path d="M 764.251 561.371 C 766.027 561.665 765.797 562.043 766.324 563.658 C 765.772 576.196 765.547 590.268 767.429 602.633 C 769.2 614.264 767.027 615.401 775.558 610.579 C 778.666 610.439 778.721 607.293 781.141 609.526 C 778.193 611.91 771.197 615.731 767.693 617.881 C 763.156 598.82 762.721 580.814 764.251 561.371 z" fill="rgb(8,27,20)" transform="translate(0,0)"></path>
<path d="M 767.363 552.994 C 767.175 556.281 767.073 560.548 766.324 563.658 C 765.797 562.043 766.027 561.665 764.251 561.371 C 764.314 559.534 764.187 559.425 764.758 557.889 C 765.4 558.254 765.301 558.333 765.799 558.238 C 766.769 557.422 766.785 555.638 766.99 554.497 L 767.363 552.994 z" fill="rgb(8,73,55)" transform="translate(0,0)"></path>
<path d="M 1465.87 198.488 C 1474.21 203.964 1478.91 204.457 1488.3 206.817 C 1482.48 223.173 1478.52 233.541 1468.22 248.007 C 1452.58 240.746 1456.32 241.402 1446.08 230.41 C 1447.04 228.612 1449.21 225.646 1450.56 224.231 C 1457.69 216.744 1460.73 206.663 1465.87 198.488 z" fill="rgb(179,113,53)" transform="translate(0,0)"></path>
<path d="M 1392.29 272.782 C 1398.29 268.723 1406.87 265.65 1412.73 260.713 C 1414.89 258.892 1416.36 257.788 1418.66 256.155 C 1428.32 266.173 1430.79 270.007 1443.75 276.252 C 1434.4 284.239 1425.64 291.459 1415.08 297.932 C 1401.61 288.526 1401.4 283.425 1392.29 272.782 z" fill="rgb(179,113,53)" transform="translate(0,0)"></path>
<path d="M 1324.19 292.195 C 1337.41 291.294 1349.4 287.945 1362.03 284.188 L 1362.14 286.038 C 1362.45 294.677 1374.07 308.384 1379.81 314.306 C 1367.54 317.727 1362.43 318.805 1349.82 319.198 C 1338.49 312.169 1331.81 302.819 1324.19 292.195 z" fill="rgb(179,113,53)" transform="translate(0,0)"></path>
<path d="M 1362.03 284.188 C 1370.55 283.132 1383.19 276.596 1391.14 273.28 C 1394.76 284.394 1404.24 291.688 1412.42 299.43 C 1401.57 305.545 1394.77 309.107 1383.09 313.493 C 1374.56 305.784 1369.5 298.616 1364.96 287.998 C 1364.16 286.146 1363.46 285.613 1362.03 284.188 z" fill="rgb(179,113,53)" transform="translate(0,0)"></path>
<path d="M 1420.24 254.763 C 1429.56 248.336 1441.22 233.935 1444.57 232.052 C 1450.29 242.391 1455.93 245.043 1466.16 250.202 C 1459.96 258.748 1453.09 266.787 1445.62 274.244 C 1429.23 266.76 1431.22 262.395 1420.24 254.763 z" fill="rgb(179,113,53)" transform="translate(0,0)"></path>
<path d="M 1477.77 163.751 C 1484.71 169.152 1488.72 169.508 1497.09 170.707 C 1494.9 182.516 1492.96 192.559 1489.94 204.284 C 1483.29 203.457 1478.61 202.347 1472.35 199.614 C 1469.64 198.429 1469.08 196.753 1466.5 196.207 C 1467.22 193.458 1469.4 188.875 1470.66 186.037 C 1473.91 178.68 1475.23 171.209 1477.77 163.751 z" fill="rgb(179,113,53)" transform="translate(0,0)"></path>
<path d="M 1484.27 120.463 C 1489.09 122.928 1493.99 124.697 1498.45 127.017 C 1497.91 132.725 1498.17 135.508 1498.81 141.322 C 1498.57 151.602 1498.59 158.224 1497.14 168.777 C 1495.13 168.387 1493.13 167.959 1491.13 167.493 C 1484.51 165.987 1484.08 165.442 1478.39 161.729 C 1481.86 148.713 1485.47 135.914 1484.38 122.198 L 1484.27 120.463 z" fill="rgb(179,113,53)" transform="translate(0,0)"></path>
<path d="M 1485.34 73.8281 C 1488.32 80.1276 1490.66 86.7179 1492.29 93.4949 C 1495.18 105.503 1496.37 111.739 1497.76 124.129 C 1488.69 120.091 1492.09 121.93 1484.48 116.602 C 1487.11 102.272 1482.17 84.5698 1485.34 73.8281 z" fill="rgb(179,113,53)" transform="translate(0,0)"></path>
<path d="M 1461.18 43.3273 C 1462.91 46.612 1461.98 64.94 1461.15 69.283 C 1460.44 62.6335 1461.63 53.6648 1460.52 49.3331 C 1459.81 52.907 1461.53 59.2227 1459.31 61.7189 C 1459.05 55.6453 1459.18 48.2693 1459.06 42.0187 C 1459.42 42.9845 1459.89 44.4584 1460.45 45.269 C 1460.88 44.9258 1461.04 43.7809 1461.18 43.3273 z" fill="rgb(87,58,44)" transform="translate(0,0)"></path>
<path d="M 1454.95 353.918 C 1460.42 356.283 1465.5 359.439 1470.19 363.106 C 1468.67 362.45 1467.53 362.072 1466.12 361.185 L 1461.68 358.423 C 1459.07 356.839 1457.37 355.741 1454.95 353.918 z" fill="rgb(25,90,68)" transform="translate(0,0)"></path>
<path d="M 1498.45 127.017 C 1499.54 132.157 1499.14 136.009 1498.81 141.322 C 1498.17 135.508 1497.91 132.725 1498.45 127.017 z" fill="rgb(87,58,44)" transform="translate(0,0)"></path>
<path d="M 1528.86 420.703 C 1530.42 422.665 1530.44 423.437 1528.17 424.641 C 1528.92 422.57 1529.39 422.784 1528.86 420.703 z" fill="rgb(25,90,68)" transform="translate(0,0)"></path>
<path d="M 1216.77 219.945 C 1254.64 223.48 1286.95 214.49 1320.85 198.456 C 1322.81 201.421 1325.05 204.326 1327.18 207.187 C 1309.52 214.494 1306.67 226.98 1307.84 245.045 C 1309.94 277.53 1322.12 299.587 1346.17 321.091 C 1355.02 347.042 1358.19 362.6 1363.77 389.006 L 1365.77 388.128 C 1365.99 389.818 1366.25 391.318 1366.54 392.99 L 1363.88 393.145 C 1385.4 527.305 1332.15 647.985 1187.33 670.49 C 1184.64 670.913 1181.95 671.317 1179.25 671.699 C 1178.02 666.909 1177.44 663.075 1174.79 658.93 C 1170.39 650.251 1166.45 647.113 1159.46 640.47 C 1169.31 639.338 1187.27 633.715 1197.45 631.457 C 1203.84 629.739 1211.51 624.409 1213.9 617.925 C 1220.96 598.734 1211.05 582.736 1193.91 575.139 C 1179.79 576.63 1154.39 584.962 1139.73 588.473 C 1097.42 598.607 1050.87 613.99 1008.74 622.817 C 999.268 593.07 973.537 564.376 941.592 587.239 C 916.809 569.922 893.45 574.858 881.614 603.437 C 870.993 601.193 866.15 603.098 856.266 606.827 C 837.497 588.465 821.091 555.451 812.919 530.979 C 800.947 495.13 797.378 454.499 801.203 416.976 C 801.842 410.71 802.657 398.397 805.318 393.004 L 806.383 391.448 C 803.87 386.407 815.55 348.724 817.664 340.365 C 819.154 339.588 820.62 338.766 822.062 337.901 C 842.655 325.638 854.856 298.174 860.379 275.879 C 886.003 271.533 909.173 260.266 929.793 244.712 C 925.288 258.647 922.637 269.129 920.197 283.555 C 964.819 280.968 1003.68 259.376 1035.84 229.535 C 1039.67 268.641 1048.88 294.15 1073.77 324.584 C 1099.59 295.089 1111.98 259.6 1116.5 221.343 C 1151.27 251.179 1186 267.216 1232.52 267.97 C 1228.59 248.793 1225.11 237.58 1216.77 219.945 z" fill="rgb(175,120,106)" transform="translate(0,0)"></path>
<path d="M 806.383 391.448 C 822.748 385.009 839.232 373.809 854.201 364.731 C 915.239 327.714 995.935 341.742 1027.22 409.816 C 1030.61 417.199 1034.02 427.077 1037.52 434.222 L 1036.15 435.948 C 1037.08 438.819 1038.46 442.237 1039.67 445.051 C 1041.67 452.686 1043.63 460.332 1045.54 467.99 C 1038.47 471.143 1010.15 481.826 1006.84 483.679 C 993.814 487.398 984.34 489.49 970.998 491.448 C 967.469 491.863 966.583 491.897 963.07 491.718 C 963.15 493.463 963.073 493.556 961.878 494.829 C 917.058 496.179 873.59 482.858 845.622 445.636 C 838.947 436.752 834.727 424.667 828.091 416.459 C 821.739 408.605 812.474 400.975 805.318 393.004 L 806.383 391.448 z" fill="rgb(9,10,7)" transform="translate(0,0)"></path>
<path d="M 829.966 410.435 C 864.931 359.395 944.1 341.688 994.289 379.455 C 1015.44 395.374 1025.85 412.134 1036.15 435.948 C 1037.08 438.819 1038.46 442.237 1039.67 445.051 C 1041.67 452.686 1043.63 460.332 1045.54 467.99 C 1038.47 471.143 1010.15 481.826 1006.84 483.679 C 993.814 487.398 984.34 489.49 970.998 491.448 L 970.325 488.184 C 1007.98 464.43 1016.89 417.652 985.207 383.942 C 959.314 358.637 915.462 360.83 891.216 386.779 C 862.666 417.333 868.737 454.273 897.362 481.986 C 861.704 464.86 844.587 447.221 829.966 410.435 z" fill="rgb(255,255,254)" transform="translate(0,0)"></path>
<path d="M 970.325 488.184 L 970.998 491.448 C 967.469 491.863 966.583 491.897 963.07 491.718 C 965.572 490.557 967.87 489.356 970.325 488.184 z" fill="rgb(240,241,242)" transform="translate(0,0)"></path>
<path d="M 1134.46 427.172 C 1144.95 398.164 1159.13 374.829 1186.02 358.702 C 1228.28 333.009 1277.96 339.496 1318.58 364.978 C 1331.01 372.778 1349.87 385.886 1363.77 389.006 L 1365.77 388.128 C 1365.99 389.818 1366.25 391.318 1366.54 392.99 L 1363.88 393.145 L 1362.37 392.752 C 1344.58 411.327 1338.84 416.275 1326.5 439.725 C 1314.16 463.204 1284.39 479.605 1259.13 486.721 C 1251.57 488.823 1246.04 490.086 1238.19 491.091 C 1237.18 491.219 1226.51 492.569 1226.2 492.669 C 1218.6 492.99 1213.52 492.595 1205.89 492.011 C 1202.59 490.387 1203.43 489.391 1201.24 488.477 L 1195.77 485.607 L 1190.66 487.46 C 1187.76 486.949 1184.88 486.363 1182.01 485.702 C 1176.51 484.48 1171.07 482.881 1165.61 481.697 C 1151.66 475.17 1141.99 474.033 1124.15 464.66 C 1126.31 455.034 1129.32 446.61 1132.47 437.309 C 1133.56 434.513 1134.89 431.681 1135.82 428.922 L 1134.46 427.172 z" fill="rgb(9,10,7)" transform="translate(0,0)"></path>
<path d="M 1135.82 428.922 C 1150.8 397.308 1169.29 375.825 1202.79 363.551 C 1251.12 345.843 1309.24 368.274 1339.15 408.652 C 1324.81 449.998 1301.13 468.485 1261.73 483.594 C 1271.98 474.989 1280.06 466.805 1285.69 454.409 C 1295.77 432.183 1291.3 404.529 1275.27 386.265 C 1263.67 372.998 1247.13 365.068 1229.52 364.327 C 1211.75 363.458 1193.51 369.698 1180.46 381.891 C 1167.98 393.513 1160.73 409.692 1160.38 426.742 C 1159.72 443.548 1165.92 459.898 1177.56 472.039 C 1183.34 478.043 1188.62 481.536 1195.77 485.607 L 1190.66 487.46 C 1187.76 486.949 1184.88 486.363 1182.01 485.702 C 1176.51 484.48 1171.07 482.881 1165.61 481.697 C 1151.66 475.17 1141.99 474.033 1124.15 464.66 C 1126.31 455.034 1129.32 446.61 1132.47 437.309 C 1133.56 434.513 1134.89 431.681 1135.82 428.922 z" fill="rgb(255,255,254)" transform="translate(0,0)"></path>
<path d="M 1259.13 486.721 C 1266.83 494.231 1335.14 488.152 1336.66 527.71 C 1336.88 534.06 1333.7 542.136 1328.48 546.512 C 1308.6 563.197 1286.59 564.657 1260.47 565.731 C 1231.75 566.912 1166.78 546.469 1204.03 508.013 C 1208.57 503.322 1222.3 498.429 1226.2 492.669 C 1226.51 492.569 1237.18 491.219 1238.19 491.091 C 1246.04 490.086 1251.57 488.823 1259.13 486.721 z" fill="rgb(152,97,82)" transform="translate(0,0)"></path>
<path d="M 1006.84 483.679 C 1006.97 483.867 1007.3 484.206 1007.35 484.498 C 1005.61 488.416 967.512 494.121 961.878 494.829 C 963.073 493.556 963.15 493.463 963.07 491.718 C 966.583 491.897 967.469 491.863 970.998 491.448 C 984.34 489.49 993.814 487.398 1006.84 483.679 z" fill="rgb(42,32,27)" transform="translate(0,0)"></path>
<path d="M 1165.61 481.697 C 1171.07 482.881 1176.51 484.48 1182.01 485.702 C 1184.88 486.363 1187.76 486.949 1190.66 487.46 L 1195.77 485.607 L 1201.24 488.477 C 1203.43 489.391 1202.59 490.387 1205.89 492.011 C 1199.09 491.538 1168.94 486.279 1165.61 481.697 z" fill="rgb(42,32,27)" transform="translate(0,0)"></path>
<path d="M 1195.77 485.607 L 1201.24 488.477 C 1196.79 488.67 1195.09 488.234 1190.66 487.46 L 1195.77 485.607 z" fill="rgb(240,241,242)" transform="translate(0,0)"></path>
<path d="M 1037.52 434.222 C 1039.77 439.319 1040.06 439.955 1039.67 445.051 C 1038.46 442.237 1037.08 438.819 1036.15 435.948 L 1037.52 434.222 z" fill="rgb(87,58,44)" transform="translate(0,0)"></path>
<path d="M 1132.47 437.309 C 1132.39 432.454 1132.77 432.076 1134.46 427.172 L 1135.82 428.922 C 1134.89 431.681 1133.56 434.513 1132.47 437.309 z" fill="rgb(42,32,27)" transform="translate(0,0)"></path>
<path d="M 1121.16 559.773 C 1132.51 560.758 1120.67 567.893 1116.8 569.66 C 1089.39 582.197 1073.16 580.95 1045.53 567.603 C 1037.73 561.172 1045.91 559.186 1054.69 564.381 C 1067.25 571.816 1086.03 579.886 1099.42 570.811 C 1105.32 566.805 1114.03 562.783 1121.16 559.773 z" fill="rgb(9,10,7)" transform="translate(0,0)"></path>
<path d="M 883.805 603.921 C 888.426 594.237 894.27 584.553 905 581.552 C 938.742 572.112 957.998 607.88 965.502 634.684 C 966.567 638.485 969.294 648.689 970.969 651.104 C 969.363 628.159 958.684 605.555 943.331 588.557 C 970.578 570.717 993.132 589.932 1003.56 615.529 C 1011.12 634.082 1016.38 655.005 1021.46 674.4 C 1026.95 696.043 1033.86 722.307 1038.04 743.966 C 1041.57 768.524 1042.75 779.682 1035.09 803.562 C 1077.05 829.534 1116.94 854.388 1161.79 875.374 C 1176.48 882.247 1192.58 890.658 1204.96 900.995 C 1211.52 906.679 1217.95 920.507 1221.85 923.478 C 1217.48 907.663 1204.26 895.295 1190.35 887.406 C 1188.6 886.405 1186.83 885.459 1185.02 884.568 C 1198.75 865.623 1211.72 846.136 1223.89 826.155 C 1237.59 803.339 1258.69 762.48 1277.01 745.099 C 1285.12 737.326 1295.4 732.22 1306.49 730.469 C 1320.98 728.084 1335.64 731.194 1347.45 740.039 C 1350.88 742.599 1353.96 745.593 1356.62 748.945 C 1357.2 749.312 1357.17 749.49 1357.56 750.171 C 1365.76 761.571 1369.64 770.664 1370.4 785.059 C 1371.16 786.219 1371.07 786.405 1370.77 787.772 C 1371.21 795.426 1370.79 803.106 1369.52 810.667 C 1360.43 866.779 1292.89 943.991 1246.53 977.661 C 1220.96 996.23 1192.09 1012.31 1159.52 1005.76 C 1098.32 993.453 1049.23 935.149 1011.27 888.76 C 999.376 874.231 985.847 857.246 975.522 842.245 C 921.305 841.336 887.692 793.348 868.127 747.548 C 860.781 730.354 856.855 696.305 840.624 684.625 C 831.307 677.92 816.066 682.636 805.841 685.28 C 801.988 680.757 800.65 679.454 798.218 673.823 C 797.84 672.419 797.841 672.541 798.441 671.2 C 800.43 659.683 805.686 650.514 815.347 643.694 C 825.926 636.249 839.109 633.499 851.782 636.094 C 866.496 639.101 879.191 648.401 887.623 660.797 C 890.112 664.457 894.3 673.275 897.289 675.373 C 890.169 647.816 865.564 634.515 839.163 631.624 C 858.718 581.26 912.777 610.24 926.64 647.079 C 928.322 651.548 929.759 655.896 931.079 660.496 L 932.133 661.271 C 933.369 659.335 933.159 659.089 932.465 656.621 C 925.228 630.892 909.757 611.71 883.805 603.921 z" fill="rgb(175,120,106)" transform="translate(0,0)"></path>
<path d="M 798.218 673.823 C 797.84 672.419 797.841 672.541 798.441 671.2 C 798.742 672.477 798.627 672.356 798.218 673.823 z" fill="rgb(87,58,44)" transform="translate(0,0)"></path>
<path d="M 1370.4 785.059 C 1371.16 786.219 1371.07 786.405 1370.77 787.772 C 1370.16 786.587 1370.32 786.579 1370.4 785.059 z" fill="rgb(119,80,68)" transform="translate(0,0)"></path>
<path d="M 721.401 1791.27 C 722.851 1791.03 722.753 1790.94 723.961 1791.67 C 770.496 1796.02 796.751 1817.82 838.242 1834.33 C 861.179 1843.46 879.333 1847.07 903.329 1850.41 C 906.271 1865.52 908.99 1876 918.969 1888.23 C 941.038 1915.28 981.376 1927.04 1015.32 1923.71 C 1016.02 1923.16 1016.03 1923.31 1017.15 1923.39 C 1026.45 1922.33 1031.2 1920.64 1039.79 1916.82 C 1039.54 1941.73 1037.76 1967.68 1017.49 1985.61 C 969.42 2028.13 847.85 2036.02 787.64 2035.12 C 784.028 2035.08 780.418 2034.96 776.811 2034.77 C 775.348 2034.89 775.38 2035.03 774.217 2034.45 C 726.073 2032.71 633.289 2016.85 600.176 1980.83 C 581.487 1960.5 572.806 1938.18 573.442 1910.67 C 573.91 1879 587.163 1848.86 610.188 1827.11 C 642.372 1796.95 679.021 1789.82 721.401 1791.27 z" fill="rgb(152,97,82)" transform="translate(0,0)"></path>
<path d="M 721.401 1791.27 C 722.851 1791.03 722.753 1790.94 723.961 1791.67 C 722.472 1791.79 722.439 1791.98 721.401 1791.27 z" fill="rgb(87,58,44)" transform="translate(0,0)"></path>
<path d="M 774.217 2034.45 C 775.607 2034.32 775.624 2034.21 776.811 2034.77 C 775.348 2034.89 775.38 2035.03 774.217 2034.45 z" fill="rgb(119,80,68)" transform="translate(0,0)"></path>
<path d="M 1015.32 1923.71 C 1016.02 1923.16 1016.03 1923.31 1017.15 1923.39 C 1016.19 1923.77 1016.33 1923.76 1015.32 1923.71 z" fill="rgb(87,58,44)" transform="translate(0,0)"></path>
<path d="M 695.617 1850.42 C 724.956 1849.13 758.798 1860.17 781.572 1878.29 C 814.79 1904.73 814.153 1938.16 766.856 1943.08 C 735.294 1943.79 700.031 1933.64 675.462 1913.76 C 639.839 1884.93 651.862 1853.69 695.617 1850.42 z" fill="rgb(9,10,7)" transform="translate(0,0)"></path>
<path d="M 1182.6 1846.51 C 1245.84 1840.12 1268.83 1811.15 1325.65 1795.09 C 1365.46 1783.84 1408.94 1788.38 1445.02 1809.52 C 1445.8 1809.8 1445.66 1809.76 1446.27 1810.38 C 1452.17 1813.95 1456.03 1816.8 1461.15 1821.51 C 1461.85 1821.89 1461.75 1821.85 1462.3 1822.47 C 1464.85 1824.84 1467.56 1827.21 1469.74 1829.9 C 1470.95 1830.66 1470.74 1830.55 1471.5 1831.95 L 1475.71 1836.84 C 1476.12 1837.27 1476.53 1837.69 1476.94 1838.12 L 1478.54 1840.72 C 1479.14 1841.19 1479.15 1841.33 1479.59 1842.02 C 1481.12 1844.26 1483.5 1847.54 1484.77 1849.8 C 1485.31 1850.36 1485.27 1850.44 1485.63 1851.14 C 1514.24 1902.23 1504.12 1969.2 1449.62 1996.98 C 1415.03 2014.61 1363.48 2026.53 1324.7 2030.38 C 1323.64 2031.13 1323.67 2030.98 1322.19 2030.74 C 1316.2 2031.28 1309.66 2031.99 1303.71 2032.28 C 1301.78 2033.69 1300.7 2033.25 1298.37 2032.81 L 1286.57 2033.15 C 1280.35 2034.73 1279.46 2034.42 1272.95 2033.91 L 1260.04 2033.88 C 1253.42 2034.37 1252.75 2034.65 1246.57 2033.11 C 1229.25 2032.38 1214.25 2030.76 1197.05 2028.73 C 1196.16 2028.76 1196.06 2028.89 1195.41 2028.4 C 1158.66 2024.35 1084.62 2009.06 1059.85 1981.5 C 1039.03 1958.33 1041.8 1942.31 1042.17 1913.99 C 1075.9 1925.82 1103.68 1920.22 1134.74 1903.46 C 1135.29 1902.88 1135.22 1902.88 1135.94 1902.65 L 1137.47 1901.74 C 1160.92 1887.52 1176.04 1873.28 1182.6 1846.51 z" fill="rgb(152,97,82)" transform="translate(0,0)"></path>
<path d="M 1272.95 2033.91 C 1278.93 2032.77 1280.52 2032.85 1286.57 2033.15 C 1280.35 2034.73 1279.46 2034.42 1272.95 2033.91 z" fill="rgb(87,58,44)" transform="translate(0,0)"></path>
<path d="M 1246.57 2033.11 C 1252.37 2032.86 1254.3 2032.8 1260.04 2033.88 C 1253.42 2034.37 1252.75 2034.65 1246.57 2033.11 z" fill="rgb(87,58,44)" transform="translate(0,0)"></path>
<path d="M 1298.37 2032.81 C 1300.43 2031.81 1301.45 2032.01 1303.71 2032.28 C 1301.78 2033.69 1300.7 2033.25 1298.37 2032.81 z" fill="rgb(87,58,44)" transform="translate(0,0)"></path>
<path d="M 1322.19 2030.74 C 1323.34 2030.16 1323.34 2030.27 1324.7 2030.38 C 1323.64 2031.13 1323.67 2030.98 1322.19 2030.74 z" fill="rgb(119,80,68)" transform="translate(0,0)"></path>
<path d="M 1469.74 1829.9 C 1470.95 1830.66 1470.74 1830.55 1471.5 1831.95 C 1470.22 1831.38 1470.43 1831.4 1469.74 1829.9 z" fill="rgb(119,80,68)" transform="translate(0,0)"></path>
<path d="M 1367.92 1849.37 C 1399.8 1846.22 1444.44 1857.53 1416.69 1900.02 C 1401.52 1923.25 1358.05 1937.03 1331.25 1940.59 C 1298.08 1945.06 1255.84 1931.27 1284.65 1889.76 C 1300.52 1866.9 1340.79 1853.02 1367.92 1849.37 z" fill="rgb(9,10,7)" transform="translate(0,0)"></path>
<path d="M 1014.93 1376.49 C 1045.42 1338.89 1048.13 1321.23 1063.27 1279.42 C 1066.32 1307.51 1073.55 1330.75 1085.19 1356.2 C 1086.96 1360.15 1088.31 1363.85 1091.49 1366.47 C 1091.62 1373.66 1085.1 1405.26 1083.82 1414.99 C 1079.66 1448.85 1076.56 1482.84 1074.53 1516.89 C 1070.86 1571.53 1069.91 1622.82 1068.7 1677.49 C 1067.1 1736.32 1066.2 1795.17 1065.98 1854.02 C 1054.71 1869.68 1044.86 1887.13 1042.18 1906.64 L 1040.18 1905.94 C 1036.26 1887.65 1026.87 1870.71 1016.59 1855.34 C 1017.47 1767.2 1022.06 1677.16 1021.67 1589.17 C 1021.33 1540.18 1020.34 1491.19 1018.7 1442.23 C 1017.82 1420.39 1015.3 1398.19 1014.93 1376.49 z" fill="rgb(255,255,254)" transform="translate(0,0)"></path>
<path d="M 877.244 772.006 C 883.943 784.985 887.917 791.128 897.252 802.341 C 874.159 837.494 869.549 847.954 858.52 887.612 C 804.707 916.767 764.622 979.203 745.498 1036.16 C 699.446 1035.57 672.858 993.622 650.565 958.934 C 631.455 929.197 616.715 898.301 603.751 865.442 C 628.05 879.165 649.482 881.729 672 862.116 C 678.79 861.868 688.456 861.276 694.854 859.372 L 716.913 882.26 C 719.271 884.104 734.87 899.3 736.107 901.323 L 746.155 910.502 C 746.827 910.831 746.805 910.852 747.34 911.374 L 750.27 913.77 C 753.556 916.291 755.298 918.076 757.881 921.27 C 762.526 926.486 767.325 940.288 770.134 947.3 L 770.494 947.017 C 768.735 935.665 767.213 932.949 762.483 922.375 C 777.536 906.388 792.165 886.413 805.867 869.105 C 821.865 848.897 837.58 828.084 851.956 806.694 C 859.826 794.982 867.727 782.399 877.244 772.006 z" fill="rgb(175,120,106)" transform="translate(0,0)"></path>
<path d="M 716.913 882.26 C 719.271 884.104 734.87 899.3 736.107 901.323 C 733.467 900.177 718.946 885.148 716.913 882.26 z" fill="rgb(119,80,68)" transform="translate(0,0)"></path>
<path d="M 750.27 913.77 C 753.556 916.291 755.298 918.076 757.881 921.27 C 754.706 918.931 752.632 916.974 750.27 913.77 z" fill="rgb(119,80,68)" transform="translate(0,0)"></path>
<path d="M 679.422 69.3551 C 680.74 69.8808 681.87 70.3822 683.158 70.9612 L 683.987 71.077 C 684.425 76.6855 684.475 86.7089 683.916 92.2555 C 687.685 158.068 749.583 201.226 808.955 214.176 C 822.816 217.198 837.318 218.561 850.964 221.598 C 868.907 247.496 857.952 278.415 847.408 304.429 C 837.981 305.326 824.114 306.286 815.011 305.42 L 814.098 306.089 C 812.531 306.996 811.818 307.255 811.043 309.003 C 806.531 319.172 799.867 327.704 791.906 335.49 C 778.175 331.529 770.762 328.551 757.879 322.65 C 768.44 313.208 771.069 308.992 778.145 296.381 L 776.947 295.742 C 772.644 297.6 766.866 313.565 754.804 321.221 C 743.96 314.994 739.172 312.04 728.985 304.86 L 726.324 303.02 C 731.231 298.235 742.599 287.86 745.818 282.59 L 743.25 282.63 C 737.103 289.622 731.265 295.436 724.079 301.321 C 719.864 297.77 701.382 281.463 699.902 277.332 C 700.296 275.305 702.079 275.761 703.522 272.609 C 701.867 272.481 700.673 273.704 698.896 274.796 C 698.315 274.689 697.347 274.575 696.934 274.133 C 647.283 220.952 635.766 129.156 679.422 69.3551 z" fill="rgb(209,148,75)" transform="translate(0,0)"></path>
<path d="M 778.145 296.381 C 793.307 301.743 799.144 302.927 815.011 305.42 L 814.098 306.089 C 812.531 306.996 811.818 307.255 811.043 309.003 C 806.531 319.172 799.867 327.704 791.906 335.49 C 778.175 331.529 770.762 328.551 757.879 322.65 C 768.44 313.208 771.069 308.992 778.145 296.381 z" fill="rgb(179,113,53)" transform="translate(0,0)"></path>
<path d="M 745.818 282.59 C 753.718 288.841 767.322 293.205 776.947 295.742 C 772.644 297.6 766.866 313.565 754.804 321.221 C 743.96 314.994 739.172 312.04 728.985 304.86 L 726.324 303.02 C 731.231 298.235 742.599 287.86 745.818 282.59 z" fill="rgb(179,113,53)" transform="translate(0,0)"></path>
<path d="M 703.522 272.609 C 719.774 284.75 722.072 283.934 743.25 282.63 C 737.103 289.622 731.265 295.436 724.079 301.321 C 719.864 297.77 701.382 281.463 699.902 277.332 C 700.296 275.305 702.079 275.761 703.522 272.609 z" fill="rgb(179,113,53)" transform="translate(0,0)"></path>
<path d="M 683.987 71.077 C 684.425 76.6855 684.475 86.7089 683.916 92.2555 C 682.514 85.3444 682.865 78.0196 683.158 70.9612 L 683.987 71.077 z" fill="rgb(87,58,44)" transform="translate(0,0)"></path>
<path d="M 674.441 153.467 C 683.266 159.334 690.485 191.282 696.476 203.178 C 701.077 212.313 710.566 230.159 697.038 234.973 C 670.749 224.822 663.469 195.986 667.385 170.005 C 668.415 163.168 670.336 158.966 674.441 153.467 z" fill="rgb(244,203,154)" transform="translate(0,0)"></path>
<path d="M 721.788 254.671 C 725.611 252.814 730.215 254.406 732.076 258.226 C 733.937 262.047 732.351 266.654 728.532 268.519 C 724.707 270.386 720.092 268.797 718.229 264.971 C 716.365 261.144 717.959 256.531 721.788 254.671 z" fill="rgb(244,203,154)" transform="translate(0,0)"></path>
<path d="M 1010.03 625.977 C 1052.34 616.883 1098.64 601.76 1141.27 591.865 C 1156.93 588.51 1174.26 581.956 1189.9 579.781 C 1208.55 578.332 1217.69 605.764 1208.82 619.016 C 1201.39 630.131 1170.3 634.904 1157.14 638.156 L 1159.46 640.47 C 1166.45 647.113 1170.39 650.251 1174.79 658.93 L 1173.23 660.09 C 1187.46 695.102 1152.42 731.221 1122.56 743.826 C 1098.28 754.078 1064.52 753.487 1040.38 743.063 L 1038.04 743.966 C 1033.86 722.307 1026.95 696.043 1021.46 674.4 L 1023.26 673.182 C 1020.47 658.865 1014.37 639.908 1010.03 625.977 z" fill="rgb(175,120,106)" transform="translate(0,0)"></path>
<path d="M 1010.03 625.977 C 1052.34 616.883 1098.64 601.76 1141.27 591.865 C 1156.93 588.51 1174.26 581.956 1189.9 579.781 C 1208.55 578.332 1217.69 605.764 1208.82 619.016 C 1201.39 630.131 1170.3 634.904 1157.14 638.156 L 1067.11 661.75 C 1059.92 663.694 1028.77 672.766 1023.26 673.182 C 1020.47 658.865 1014.37 639.908 1010.03 625.977 z" fill="rgb(209,148,75)" transform="translate(0,0)"></path>
<path d="M 1023.26 673.182 C 1028.77 672.766 1059.92 663.694 1067.11 661.75 L 1157.14 638.156 L 1159.46 640.47 C 1166.45 647.113 1170.39 650.251 1174.79 658.93 L 1173.23 660.09 C 1120.28 657.621 1074.49 675.076 1031.9 705.199 C 1034.01 715.902 1039.14 733.866 1040.38 743.063 L 1038.04 743.966 C 1033.86 722.307 1026.95 696.043 1021.46 674.4 L 1023.26 673.182 z" fill="rgb(9,10,7)" transform="translate(0,0)"></path>
<path d="M 824.7 684.35 C 847.453 680.045 854.191 711.773 859.047 727.901 C 832.852 735.805 801.022 743.647 774.613 749.841 C 757.002 716.736 731.498 752.322 718.358 766.657 C 690.771 775.916 647.025 786.224 617.81 793.77 L 495.19 826.254 L 469.081 832.376 C 477.772 811.398 475.407 790.962 455.173 777.952 C 482.841 771.898 510.345 765.121 537.659 757.629 C 552.072 753.754 566.95 749.414 581.472 746.193 C 600.093 742.064 611.629 752.523 625.652 735.458 C 649.329 733.068 646.703 728.015 665.668 723.221 C 696.548 715.413 727.716 707.472 758.651 699.764 C 778.582 694.798 805.049 687.201 824.7 684.35 z" fill="rgb(209,148,75)" transform="translate(0,0)"></path>
<path d="M 767.927 706.772 C 772.094 705.527 776.607 706.623 779.74 709.639 C 782.872 712.655 784.137 717.124 783.05 721.334 C 781.963 725.545 778.692 728.843 774.491 729.966 C 768.126 731.667 761.574 727.943 759.78 721.604 C 757.986 715.264 761.615 708.659 767.927 706.772 z" fill="rgb(9,10,7)" transform="translate(0,0)"></path>
<path d="M 767.422 709.664 C 770.552 708.267 774.194 708.688 776.923 710.761 C 779.652 712.835 781.034 716.231 780.528 719.62 C 780.022 723.01 777.709 725.854 774.494 727.04 C 769.744 728.792 764.461 726.462 762.553 721.773 C 760.645 717.084 762.799 711.726 767.422 709.664 z" fill="rgb(172,104,65)" transform="translate(0,0)"></path>
<path d="M 603.057 747.888 C 618.58 749.763 622.526 765.926 609.606 772.445 L 607.846 773.358 C 592.405 772.548 589.029 755.727 603.057 747.888 z" fill="rgb(9,10,7)" transform="translate(0,0)"></path>
<path d="M 602.043 752.031 C 605.169 750.663 608.791 751.087 611.517 753.14 C 614.243 755.194 615.651 758.557 615.199 761.94 C 614.748 765.323 612.508 768.2 609.338 769.467 C 604.546 771.382 599.104 769.099 597.112 764.338 C 595.119 759.578 597.314 754.099 602.043 752.031 z" fill="rgb(179,113,53)" transform="translate(0,0)"></path>
<path d="M 498.852 776.618 C 502.967 775.568 507.329 776.81 510.274 779.871 C 513.218 782.932 514.291 787.339 513.082 791.411 C 511.873 795.482 508.57 798.59 504.432 799.549 C 498.133 801.007 491.833 797.125 490.304 790.843 C 488.775 784.56 492.586 778.217 498.852 776.618 z" fill="rgb(9,10,7)" transform="translate(0,0)"></path>
<path d="M 498.21 779.486 C 502.837 777.632 508.098 779.811 510.058 784.395 C 512.018 788.978 509.96 794.287 505.423 796.352 C 502.394 797.73 498.856 797.36 496.178 795.385 C 493.499 793.41 492.101 790.139 492.523 786.838 C 492.945 783.538 495.121 780.724 498.21 779.486 z" fill="rgb(172,104,65)" transform="translate(0,0)"></path>
<path d="M 706.751 723.544 C 712.735 721.722 719.09 724.948 721.151 730.853 C 723.212 736.759 720.244 743.238 714.425 745.534 C 710.448 747.104 705.932 746.37 702.656 743.622 C 699.381 740.874 697.873 736.553 698.728 732.364 C 699.582 728.175 702.661 724.79 706.751 723.544 z" fill="rgb(9,10,7)" transform="translate(0,0)"></path>
<path d="M 705.853 726.622 C 708.863 725.107 712.46 725.361 715.226 727.284 C 717.992 729.207 719.484 732.49 719.113 735.839 C 718.742 739.187 716.568 742.064 713.448 743.335 C 708.881 745.195 703.66 743.117 701.619 738.628 C 699.579 734.138 701.448 728.838 705.853 726.622 z" fill="rgb(172,104,65)" transform="translate(0,0)"></path>
<path d="M 654.794 736.938 C 660.992 735.473 667.214 739.273 668.741 745.456 C 670.269 751.639 666.532 757.899 660.364 759.489 C 656.319 760.532 652.025 759.322 649.12 756.32 C 646.214 753.318 645.144 748.988 646.318 744.978 C 647.492 740.969 650.728 737.899 654.794 736.938 z" fill="rgb(9,10,7)" transform="translate(0,0)"></path>
<path d="M 655.149 739.215 C 657.015 738.916 657.131 738.973 659.091 739.125 C 663.696 740.026 666.882 744.252 666.483 748.927 C 666.084 753.603 662.227 757.226 657.535 757.334 C 652.844 757.441 648.826 753.997 648.213 749.345 C 647.6 744.693 650.59 740.326 655.149 739.215 z" fill="rgb(172,104,65)" transform="translate(0,0)"></path>
<path d="M 549.016 764.718 C 552.91 763.247 557.294 763.98 560.498 766.639 C 563.701 769.297 565.23 773.471 564.502 777.569 C 563.774 781.668 560.901 785.06 556.978 786.452 C 550.997 788.574 544.422 785.485 542.24 779.526 C 540.057 773.567 543.08 766.961 549.016 764.718 z" fill="rgb(9,10,7)" transform="translate(0,0)"></path>
<path d="M 550.336 766.796 C 553.445 765.835 556.831 766.622 559.197 768.856 C 561.563 771.09 562.544 774.425 561.764 777.584 C 560.984 780.743 558.564 783.238 555.43 784.114 C 550.675 785.442 545.734 782.704 544.341 777.967 C 542.948 773.23 545.619 768.253 550.336 766.796 z" fill="rgb(179,113,53)" transform="translate(0,0)"></path>
<path d="M 1064.3 1273.97 C 1100.1 1227.76 1113.51 1199.27 1123.23 1141.46 C 1134.44 1167.24 1148.59 1189.75 1165.77 1211.89 C 1166.35 1212.26 1166.3 1212.36 1166.68 1213.06 L 1174.81 1222.84 C 1175.61 1241.1 1177.11 1251.87 1177.02 1271.24 C 1176.82 1316.21 1154.73 1379.16 1124.27 1412.7 C 1115.92 1402.47 1098.59 1380.34 1094.17 1368.47 C 1093.24 1367.38 1092.99 1366.52 1091.49 1366.47 C 1088.31 1363.85 1086.96 1360.15 1085.19 1356.2 L 1086.64 1353.96 C 1079.05 1339.29 1074.78 1324.76 1070.66 1308.96 C 1070.3 1307.99 1070.33 1308.08 1070.21 1307.04 C 1069.73 1305.31 1069.38 1304.35 1069.21 1302.57 L 1068.84 1300.51 C 1068.46 1299.42 1068.41 1299.37 1068.33 1298.26 L 1067.74 1294.21 C 1067.19 1292.85 1067.18 1292.97 1067.22 1291.58 L 1066.84 1289.51 C 1066.11 1287.89 1066.1 1288.04 1066.38 1286.38 L 1064.3 1273.97 z" fill="rgb(31,128,90)" transform="translate(0,0)"></path>
<path d="M 1086.64 1353.96 C 1088.16 1354.9 1093.42 1366.4 1094.17 1368.47 C 1093.24 1367.38 1092.99 1366.52 1091.49 1366.47 C 1088.31 1363.85 1086.96 1360.15 1085.19 1356.2 L 1086.64 1353.96 z" fill="rgb(8,73,55)" transform="translate(0,0)"></path>
<path d="M 1066.38 1286.38 C 1067.03 1287.56 1066.84 1287.92 1066.84 1289.51 C 1066.11 1287.89 1066.1 1288.04 1066.38 1286.38 z" fill="rgb(8,73,55)" transform="translate(0,0)"></path>
<path d="M 1004.54 897.677 C 1005.89 894.975 1006.68 892.172 1009.67 890.933 C 1023.27 907.316 1037.33 923.3 1051.86 938.864 C 1058.28 945.677 1070.9 957.306 1076.01 963.512 C 1080.99 1014.29 1059.03 1073.47 1028.07 1114.28 C 1022.61 1121.48 1014.13 1129.36 1009.35 1136.91 L 1010.89 1139.13 C 1009.46 1140.32 1008.67 1141.04 1007.34 1142.32 L 1005.22 1141.25 C 993.831 1133.68 980.766 1086.6 977.455 1073.04 C 966.228 1027.06 970.987 949.976 996.625 909.967 C 997.048 908.963 997.027 908.845 997.691 908.036 C 998.182 907.325 998.728 906.354 999.442 905.866 C 1001.04 902.655 1000.97 901.863 1003.63 899.487 L 1004.54 897.677 z" fill="rgb(31,128,90)" transform="translate(0,0)"></path>
<path d="M 1005.22 1141.25 C 1006.58 1139.78 1007.96 1138.34 1009.35 1136.91 L 1010.89 1139.13 C 1009.46 1140.32 1008.67 1141.04 1007.34 1142.32 L 1005.22 1141.25 z" fill="rgb(9,10,7)" transform="translate(0,0)"></path>
<path d="M 1004.54 897.677 C 1005.89 894.975 1006.68 892.172 1009.67 890.933 C 1007.49 893.494 1006.73 895.181 1004.54 897.677 z" fill="rgb(8,73,55)" transform="translate(0,0)"></path>
<path d="M 999.442 905.866 C 1001.04 902.655 1000.97 901.863 1003.63 899.487 L 1002.68 901.222 C 1001.68 903.09 1000.83 904.269 999.442 905.866 z" fill="rgb(25,90,68)" transform="translate(0,0)"></path>
<path d="M 1010.89 1139.13 C 1011.86 1141.4 1013.19 1161.12 1013.72 1166.13 C 1017.27 1199.54 1035.51 1256.95 1059.42 1281.14 C 1046.05 1333.37 1022 1369.86 984.534 1407.95 C 957.04 1358.1 947.556 1318.45 950.336 1261 C 951.041 1246.4 953.337 1227.72 957.044 1213.56 C 960.826 1199.12 977.998 1184.67 987.08 1171.75 C 993.897 1162.05 1000.56 1151.93 1007.34 1142.32 C 1008.67 1141.04 1009.46 1140.32 1010.89 1139.13 z" fill="rgb(31,128,90)" transform="translate(0,0)"></path>
<path d="M 867.051 1019 C 869.022 1020.86 863.672 1031.95 862.511 1035.57 C 852.549 1067.19 848.645 1100.41 851.006 1133.48 C 863.087 1128.81 874.622 1123.28 886.369 1117.82 C 877.136 1139.57 879.173 1136.88 858.843 1151.16 C 821.845 1177.16 785.72 1192.47 742.095 1204.3 C 726.019 1207.68 713.566 1210.2 696.936 1211.4 C 712.422 1153.31 749.773 1093.97 799.058 1057.56 C 803.901 1053.98 821.591 1046.95 828.204 1043.33 C 842.115 1035.73 853.834 1027.74 867.051 1019 z" fill="rgb(230,215,189)" transform="translate(0,0)"></path>
<path d="M 969.83 1049.85 C 971.108 1051.49 976.456 1078.61 977.521 1083.51 C 982.441 1106.13 991.566 1123.44 1002.27 1143.63 C 996.063 1152.73 992.033 1160.98 984.825 1170.4 C 956.017 1208.03 926.049 1232.64 885.604 1256.28 C 877.289 1260.88 871.903 1263.5 863.149 1267.19 C 856.327 1233.45 865.932 1179.84 877.205 1146.6 C 880.555 1136.72 885.383 1125.88 889.398 1116.13 C 922.878 1097.73 945.093 1078.17 969.83 1049.85 z" fill="rgb(230,215,189)" transform="translate(0,0)"></path>
<path d="M 1244.71 1113.98 C 1249.65 1119.29 1253.83 1125.04 1257.72 1131.14 L 1260.67 1130.8 C 1262.6 1133 1269.87 1141.18 1271.18 1143.15 C 1271.27 1144.54 1271.32 1145.9 1271.37 1147.29 C 1286.76 1160.85 1298.55 1174.22 1315.86 1186.66 C 1321.76 1190.9 1346.7 1205.55 1349.06 1207.96 C 1364.72 1223.96 1375.65 1272.43 1379.47 1294.21 C 1379.8 1295.01 1379.72 1295.12 1379.78 1296.08 L 1380.33 1297.55 C 1381.13 1299.58 1381.22 1300.5 1380.76 1302.64 L 1382.33 1317.34 C 1383.5 1318.97 1383.13 1319.61 1382.76 1321.64 C 1383.3 1333.9 1383.47 1346.17 1383.27 1358.44 C 1369.14 1351.76 1356.09 1345.57 1342.28 1338.14 C 1334.42 1333.92 1326.74 1328.28 1320.15 1324.64 C 1319.42 1324.23 1319.37 1324.28 1318.85 1323.7 C 1314.93 1321.3 1312.59 1319.41 1309 1316.58 C 1308.27 1316.16 1308.15 1316.18 1307.66 1315.58 L 1305.23 1314 C 1304.44 1313.38 1304.23 1313.28 1303.57 1312.52 L 1301.51 1311.03 C 1299.92 1310.04 1299.82 1310.15 1298.82 1308.9 L 1293.97 1304.73 C 1293.35 1304.34 1293.24 1304.35 1292.87 1303.8 C 1285.41 1297.46 1274.36 1285.7 1267.14 1278.38 C 1265.71 1272.25 1257.81 1244.73 1258.09 1240.9 C 1261.51 1193.95 1257.07 1159.6 1244.71 1113.98 z" fill="rgb(31,128,90)" transform="translate(0,0)"></path>
<path d="M 1260.67 1130.8 C 1262.6 1133 1269.87 1141.18 1271.18 1143.15 C 1271.27 1144.54 1271.32 1145.9 1271.37 1147.29 C 1268.32 1144.4 1260.21 1134.49 1257.72 1131.14 L 1260.67 1130.8 z" fill="rgb(8,73,55)" transform="translate(0,0)"></path>
<path d="M 1382.33 1317.34 C 1383.5 1318.97 1383.13 1319.61 1382.76 1321.64 C 1382.03 1319.77 1382.16 1319.39 1382.33 1317.34 z" fill="rgb(25,90,68)" transform="translate(0,0)"></path>
<path d="M 1379.78 1296.08 L 1380.33 1297.55 C 1381.13 1299.58 1381.22 1300.5 1380.76 1302.64 C 1379.92 1300.33 1379.97 1298.57 1379.78 1296.08 z" fill="rgb(8,73,55)" transform="translate(0,0)"></path>
<path d="M 1183.35 1048.56 C 1190.95 1055.21 1202.89 1071.21 1212.69 1079.02 C 1217.39 1084.68 1234.2 1095.84 1236.99 1101.86 C 1260.96 1153.68 1259.46 1227.54 1248.43 1278.29 C 1229.91 1268.33 1219.56 1260.55 1203.93 1247.33 C 1166.78 1214.94 1142.61 1179.38 1122.54 1134.69 C 1123.22 1129.43 1123.88 1124.16 1124.51 1118.89 C 1134.26 1128.68 1142.94 1137.48 1153.39 1146.51 C 1173.13 1110.56 1178.21 1088.69 1183.35 1048.56 z" fill="rgb(230,215,189)" transform="translate(0,0)"></path>
<path d="M 857.525 731.108 L 858.547 730.948 C 861.059 732.423 863.17 740.612 864.405 743.903 C 867.776 752.894 871.849 760.935 876.216 769.465 C 862.78 784.53 849.393 807.606 836.916 824.344 C 812.374 857.263 787.957 890.061 760.695 920.833 C 754.027 914.237 746.004 907.361 738.953 901.046 C 726.862 889.095 708.237 871.115 697.767 858.121 C 727.156 843.277 719.946 833.044 735.775 812.483 C 753.161 789.899 769.467 783.414 775.244 751.98 C 802.813 745.597 830.247 738.638 857.525 731.108 z" fill="rgb(255,255,254)" transform="translate(0,0)"></path>
<path d="M 1073.62 1023.79 C 1076.52 1031.6 1078.21 1040.18 1081.3 1047.99 C 1091.48 1073.66 1104.99 1095.56 1122.7 1116.61 C 1116.45 1184.09 1103.98 1220.75 1060.56 1274.39 L 1059.65 1275.37 L 1057.85 1275.31 C 1035.46 1248.3 1021.95 1205.03 1017.11 1170.63 C 1015.63 1160.08 1015.7 1145.3 1013.13 1135.76 C 1046.46 1096.74 1059.63 1073.59 1073.62 1023.79 z" fill="rgb(230,215,189)" transform="translate(0,0)"></path>
<path d="M 1318.83 909.576 C 1327.87 912.725 1341.61 928.875 1348.32 935.854 C 1392.51 981.849 1409.19 1035.94 1422.07 1096.66 C 1405.55 1092.12 1395.32 1088.34 1379.76 1083.24 C 1362.56 1077.95 1305.01 1048.15 1297.84 1033.38 C 1287.31 1011.72 1283.54 991.246 1264.36 967.314 C 1277.85 956.314 1309.46 924.514 1318.83 909.576 z" fill="rgb(8,73,55)" transform="translate(0,0)"></path>
<path d="M 1297.81 1037.77 C 1307.89 1045.9 1317.2 1053.72 1328.17 1060.68 C 1333.78 1064.24 1353.05 1073.44 1356.67 1076.76 C 1391.36 1108.5 1423.06 1181.45 1427.81 1226.45 C 1428.04 1228.58 1428.21 1230.7 1428.33 1232.84 C 1362.35 1216.13 1318.37 1193.9 1271.18 1143.15 C 1269.87 1141.18 1262.6 1133 1260.67 1130.8 C 1253.87 1121.85 1248.02 1114.26 1242.01 1104.73 C 1250.28 1109.08 1258.45 1114.83 1266.55 1119.69 C 1279.3 1127.24 1292.45 1134.1 1305.93 1140.26 C 1308.59 1098.25 1307.06 1079.13 1297.81 1037.77 z" fill="rgb(230,215,189)" transform="translate(0,0)"></path>
<path d="M 740.523 1063.37 C 749.944 1006.88 791.65 940.941 836.107 906.07 C 843.045 900.627 850.75 895.334 858.038 890.316 C 856.1 901.805 854.799 911.278 853.907 922.887 C 866.756 921.226 884.628 914.011 897.127 909.472 C 890.947 932.483 890.723 954.157 887.296 977.01 C 886.123 984.831 873.704 1010.3 867.726 1015.16 C 857.634 1023.36 841.893 1032.62 830.124 1039.64 C 829.046 1041.09 814.457 1048.53 812.267 1048.46 C 799.642 1053.76 752.98 1071.11 740.85 1068.49 C 740.572 1067.62 740.211 1066.71 740.099 1065.84 C 740.158 1064.89 740.082 1064.16 740.523 1063.37 z" fill="rgb(31,128,90)" transform="translate(0,0)"></path>
<path d="M 830.124 1039.64 C 829.046 1041.09 814.457 1048.53 812.267 1048.46 C 813.995 1046.96 827.746 1040.17 830.124 1039.64 z" fill="rgb(8,73,55)" transform="translate(0,0)"></path>
<path d="M 1170.41 1329.53 C 1173.35 1332.23 1185.01 1352.84 1188.74 1357.94 C 1205.88 1381.37 1223.7 1399.09 1245.9 1417.57 C 1249.03 1411.9 1252.33 1404.77 1255.25 1398.87 C 1256.31 1411.62 1256.22 1426.92 1255.9 1439.69 C 1230.11 1473.23 1190.35 1483.36 1149.73 1476.78 C 1124.04 1471.29 1099 1461.49 1083.9 1438.88 C 1084.99 1419.79 1089.2 1391.44 1093.71 1373.04 C 1102.54 1388.45 1112.31 1403.47 1124.49 1416.44 C 1146.06 1392.48 1160.14 1359.73 1170.41 1329.53 z" fill="rgb(175,120,106)" transform="translate(0,0)"></path>
<path d="M 949.595 1320.73 C 951.248 1322.46 956.484 1347.46 957.558 1351.63 C 963.163 1373.35 973.448 1392.64 984.084 1412.15 C 993.259 1401.31 1002.38 1393.2 1011.93 1381.13 C 1014.31 1397.26 1015.27 1422.01 1016.31 1438.86 C 986.885 1462.38 967.71 1468.67 929.597 1469.31 C 895.297 1468.51 874.224 1461.19 848.649 1439.24 C 850.301 1424.06 852.038 1408.19 854.803 1393.22 L 860.806 1412.54 C 895.114 1394.65 930.715 1354.33 949.595 1320.73 z" fill="rgb(175,120,106)" transform="translate(0,0)"></path>
<path d="M 752.335 740.186 C 765.443 739.586 775.119 743.232 771.391 758.43 C 764.211 787.703 736.263 799.936 725.104 826.984 C 714.941 851.619 695.893 859.855 670.336 859.705 C 640.22 889.909 601.015 867.618 581.249 838.141 C 575.202 828.533 571.589 819.589 567.362 809.196 L 640.886 790.085 C 638.086 794.408 630.872 804.637 631.229 809.516 C 636.954 803.437 639.478 796.243 645.477 789.825 C 663.085 783.462 697.608 775.189 716.653 770.084 C 715.581 773.1 713.815 776.727 714.214 779.587 C 717.989 775.315 719.699 771.144 722.649 766.282 C 730.061 754.066 738.625 745.203 752.335 740.186 z" fill="rgb(175,120,106)" transform="translate(0,0)"></path>
<path d="M 983.718 926.805 C 984.105 930.843 978.856 946.525 977.461 951.462 C 968.585 982.869 967.752 1013.82 970.076 1046.16 C 959.498 1055.74 950.301 1067.55 938.609 1077.72 C 916.046 1097.34 897.566 1112.07 869.036 1122.91 C 864.98 1124.45 859.284 1128.53 855.247 1128.29 C 852.822 1125.73 853.591 1125.69 853.076 1121.25 C 852.522 1068.37 864.02 1028.48 889.366 982.64 C 889.826 987.798 890.211 992.962 890.523 998.131 C 899.072 995.059 905.686 990.341 913.419 985.723 C 942.094 968.599 962.109 952.145 983.718 926.805 z" fill="rgb(8,73,55)" transform="translate(0,0)"></path>
<path d="M 1262.05 969.786 C 1264.34 970.652 1265.63 972.831 1267.14 974.935 C 1294.69 1013.34 1311.28 1090.43 1303.29 1136.86 C 1284.98 1127.52 1271.03 1118.87 1253.53 1109.11 C 1234.24 1096.26 1196.73 1063.2 1183.91 1044.03 C 1184.26 1032.83 1184.16 1020.85 1184.25 1009.58 C 1210.56 1006.3 1241 985.161 1262.05 969.786 z" fill="rgb(31,128,90)" transform="translate(0,0)"></path>
<path d="M 1016.08 1441.9 C 1018.03 1462.35 1018.1 1488.74 1018.63 1509.56 C 1018.59 1512.17 1018.53 1512.24 1017.85 1514.79 C 1011.8 1521.11 995.631 1525.81 987.072 1528.18 C 940.767 1541.06 887.055 1536.95 844.839 1513.7 C 844.747 1494.53 845.838 1461.8 848.351 1442.64 C 898.353 1482.64 966.375 1482.23 1016.08 1441.9 z" fill="rgb(230,215,189)" transform="translate(0,0)"></path>
<path d="M 1218.24 125.52 C 1252.03 124.418 1289.49 134.435 1319.37 149.848 C 1324.76 152.628 1352.14 168.55 1353.62 173.073 C 1348.22 183.808 1302.86 203.709 1290.56 208.625 C 1264.75 215.513 1242.25 220.74 1215.14 216.638 C 1202.27 193.907 1187.3 173.41 1164.74 159.609 C 1172.58 154.673 1179.86 149.367 1187.55 144.37 C 1198.18 137.458 1205.53 125.962 1218.24 125.52 z" fill="rgb(8,73,55)" transform="translate(0,0)"></path>
<path d="M 1178 1226.62 C 1180.67 1228 1194.41 1241.11 1197.52 1244 C 1211.85 1257.27 1230.41 1272.48 1248.24 1280.69 C 1253.28 1278.78 1251.89 1260.81 1256.76 1252.24 C 1257.84 1252.95 1259.21 1254.33 1259.61 1255.56 C 1271.49 1292.36 1271.15 1343.83 1259.8 1379.64 C 1255.21 1397.09 1253.53 1398.67 1244.87 1414.14 C 1238.17 1406.4 1223.24 1393.65 1214.96 1384.88 C 1196.21 1364.99 1186.46 1350.01 1172.44 1326.93 C 1173.5 1317.23 1176.67 1304.64 1178.07 1294.14 C 1181.37 1269.44 1180.27 1251.15 1178 1226.62 z" fill="rgb(8,73,55)" transform="translate(0,0)"></path>
<path d="M 1079.95 966.508 C 1082.71 967.993 1098.43 980.519 1102.73 983.4 C 1130.27 1001.85 1149.22 1008.44 1181.67 1009.89 C 1181.77 1052.8 1178.38 1086.77 1160.5 1126.74 C 1158.06 1132.37 1156.05 1137.52 1152.68 1142.67 C 1144.13 1134.22 1134.73 1125.17 1125.87 1115.97 C 1102.59 1091.8 1079.77 1049.96 1076.01 1016.14 C 1075.79 1014.14 1077.95 998.957 1078.32 995.614 C 1079.43 985.404 1079.77 976.717 1079.95 966.508 z" fill="rgb(8,73,55)" transform="translate(0,0)"></path>
<path d="M 1083.42 1443.25 C 1109.99 1478.48 1170.64 1489.23 1210.65 1474.9 C 1231.32 1467.5 1241.58 1459.76 1256.06 1443.97 L 1255.89 1459.29 C 1256.45 1461.54 1256.86 1461.89 1255.42 1463.73 C 1255.07 1478.4 1254.63 1497.94 1252.87 1512.23 C 1242.65 1519.49 1228.02 1526.46 1216 1529.93 C 1165 1544.65 1122.68 1537.51 1076.93 1513.47 C 1078.63 1489.49 1080.43 1467.09 1083.42 1443.25 z" fill="rgb(230,215,189)" transform="translate(0,0)"></path>
<path d="M 1255.89 1459.29 C 1256.45 1461.54 1256.86 1461.89 1255.42 1463.73 C 1255.08 1461.48 1254.78 1461.1 1255.89 1459.29 z" fill="rgb(135,127,123)" transform="translate(0,0)"></path>
<path d="M 934.407 834.61 C 936.236 835.153 943.588 838.408 946.102 839.376 C 956.465 843.369 963.684 844.102 974.708 845.3 C 984.378 859.278 996.941 875.089 1007.62 888.322 C 988.566 919.765 968.059 943.129 938.809 965.778 C 923.739 977.096 909.571 986.327 892.461 994.26 C 891.678 976.69 891.51 961.16 893.33 943.573 C 896.571 912.251 913.848 857.91 934.407 834.61 z" fill="rgb(230,215,189)" transform="translate(0,0)"></path>
<path d="M 1075.02 136.845 C 1109.67 135.777 1138.42 144.135 1167.17 164.256 C 1198.67 186.309 1223.34 227.911 1229.28 265.819 C 1166.65 262.229 1108.41 227.865 1082.62 168.669 C 1078.36 158.895 1075.9 147.461 1075.02 136.845 z" fill="rgb(209,148,75)" transform="translate(0,0)"></path>
<path d="M 896.15 1818.21 C 935.781 1829.4 974.371 1828.64 1014.55 1821.68 C 1014.21 1833.31 1014.32 1845.59 1014.25 1857.27 C 1015.57 1858.71 1016.84 1860.21 1018.05 1861.76 C 1025.96 1871.97 1040.32 1901.29 1038.58 1914.42 C 1002.98 1933.97 929.964 1913.9 913.194 1874.85 C 906.969 1860.35 901.079 1834.27 896.15 1818.21 z" fill="rgb(230,215,189)" transform="translate(0,0)"></path>
<path d="M 1188.82 1818.3 C 1189.59 1823.51 1182.51 1835.52 1181.58 1841.19 C 1172.95 1894.27 1094.95 1933.76 1042.96 1911.52 C 1046.24 1890.78 1055.1 1871.33 1068.58 1855.24 C 1069.02 1843.76 1068.67 1830.65 1068.59 1819.02 C 1111.33 1830.39 1146.37 1828.76 1188.82 1818.3 z" fill="rgb(230,215,189)" transform="translate(0,0)"></path>
<path d="M 920.688 163.486 C 944.24 162.901 956.791 166.227 978.945 172.074 C 955.694 189.536 946.097 212.41 932.69 236 C 922.319 254.25 883.37 268.213 863.095 272.584 C 861.189 271.046 865.358 231.547 856.155 224.261 C 844.596 215.11 820.82 213.924 805.841 211.131 C 835.726 180.973 878.556 164.83 920.688 163.486 z" fill="rgb(8,73,55)" transform="translate(0,0)"></path>
<path d="M 1064.75 137.353 C 1067.06 137.001 1066.92 136.959 1069.18 137.533 C 1067.45 140.417 1058.86 149.125 1055.21 154.519 C 1039.17 178.255 1037.53 198.366 1035.58 225.777 C 1009.21 254.09 966.843 276.387 928.245 280.39 C 925.759 280.685 926.604 280.75 924.281 280.131 C 919.643 267.28 944.596 218.015 952.569 206.056 C 980.779 163.738 1016.15 146.808 1064.75 137.353 z" fill="rgb(31,128,90)" transform="translate(0,0)"></path>
<path d="M 1157.92 721.883 C 1197 745.993 1212.95 773.713 1225.42 817.855 C 1220.06 829.653 1203.99 852.23 1196.14 865.126 C 1190.3 861.831 1183.44 857.133 1177.7 853.414 C 1165.2 844.263 1156.19 835.914 1145.53 824.805 C 1145 821.779 1144.37 818.773 1143.63 815.792 C 1136.6 787.79 1121.7 767.795 1097.23 753.223 C 1124.54 748.963 1138.26 740.765 1157.92 721.883 z" fill="rgb(230,215,189)" transform="translate(0,0)"></path>
<path d="M 1208.74 61.4326 C 1215.29 60.905 1240.53 59.6283 1244.49 63.9464 C 1243.89 68.8423 1239.57 76.5947 1237.48 81.3302 C 1221.43 117.674 1194.61 137.274 1162.64 158.18 C 1150.71 150.612 1143.76 147.339 1130.33 142.253 C 1108.64 135.554 1098.93 134.306 1076.86 133.69 C 1082.63 127.3 1087.51 120.746 1093.66 114.551 C 1129.78 78.1952 1159.36 67.1123 1208.74 61.4326 z" fill="rgb(8,73,55)" transform="translate(0,0)"></path>
<path d="M 1071.19 139.951 C 1073.5 142.424 1077.17 163.263 1079.44 168.451 C 1088.09 188.207 1100.28 203.532 1114 219.705 C 1109.73 258.904 1100.68 282.783 1077.82 315.058 C 1076.44 317.178 1076.58 317.057 1074.4 318.329 C 1073.02 317.817 1071.78 317.267 1070.78 316.123 C 1051.42 293.891 1039.88 259.704 1039.18 230.923 C 1038.23 191.883 1045.21 167.915 1071.19 139.951 z" fill="rgb(8,73,55)" transform="translate(0,0)"></path>
<path d="M 846.255 1558.41 C 899.419 1581.94 967.139 1581.3 1019.02 1554.54 C 1019.38 1569.43 1019.53 1584.33 1019.49 1599.22 C 968.21 1625.55 902.762 1624.45 850.264 1602.1 C 849.137 1590.87 847.172 1575.61 846.725 1564.62 C 844.868 1562.46 845.649 1561.15 846.255 1558.41 z" fill="rgb(230,215,189)" transform="translate(0,0)"></path>
<path d="M 846.725 1564.62 C 844.868 1562.46 845.649 1561.15 846.255 1558.41 L 846.567 1560.17 C 846.862 1561.69 846.906 1563.08 846.725 1564.62 z" fill="rgb(98,90,82)" transform="translate(0,0)"></path>
<path d="M 1447.87 275.67 C 1467.93 279.067 1499.14 301.36 1516.05 313.377 C 1490.64 337.407 1451.45 351.899 1417.74 358.214 L 1401.38 361.557 C 1385.23 348.8 1374.67 345.485 1355.37 340.46 C 1353.55 334.338 1351.69 328.226 1349.79 322.125 C 1389.59 318.815 1418.26 302.105 1447.87 275.67 z" fill="rgb(8,73,55)" transform="translate(0,0)"></path>
<path d="M 1074.7 1554.77 C 1127.84 1583.06 1193.03 1581.85 1248.34 1560.8 C 1246.49 1571.53 1243.03 1591.26 1242.64 1601.71 C 1211.51 1621.92 1150.76 1621.92 1115.46 1614.54 C 1100.8 1611.46 1086.48 1606.91 1072.73 1600.96 L 1073.1 1581.19 C 1072.39 1574.54 1072.02 1573.85 1073.9 1567.6 L 1074.7 1554.77 z" fill="rgb(230,215,189)" transform="translate(0,0)"></path>
<path d="M 1073.1 1581.19 C 1072.39 1574.54 1072.02 1573.85 1073.9 1567.6 C 1074.02 1573.4 1074.09 1575.63 1073.1 1581.19 z" fill="rgb(98,90,82)" transform="translate(0,0)"></path>
<path d="M 915.32 63.9023 C 955.91 63.01 1006.93 81.8459 1035.48 111.009 C 1036.47 120.796 1038.2 130.495 1040.66 140.023 C 1035.1 141.462 1026.91 144.639 1021.29 146.64 C 1008.07 152.123 998.974 157.158 986.871 164.356 C 951.038 141.268 925.428 105.313 915.32 63.9023 z" fill="rgb(31,128,90)" transform="translate(0,0)"></path>
<path d="M 1095.38 42.2412 C 1102.45 32.3875 1124.86 4.89377 1139.07 9.97243 C 1149.62 22.4283 1121.9 52.2729 1113.9 61.3732 C 1119.53 59.0631 1133.29 53.4601 1138.79 56.2132 C 1140.73 64.8919 1120.2 83.4046 1113.97 89.7732 C 1098.98 105.1 1086.55 116.915 1073.65 134.366 C 1063.25 135.13 1052.95 136.811 1042.85 139.388 C 1038.79 122.444 1037.79 113.526 1038.16 96.0263 C 1038.26 95.3873 1038.59 90.5689 1039.57 90.5885 C 1040.61 91.2795 1041.08 92.7098 1041.68 93.8476 L 1042.65 95.6475 L 1044.67 96.4327 C 1046.84 93.4846 1049.76 65.1771 1060.26 49.8509 C 1061.82 57.1771 1062.88 62.1787 1063.61 69.6001 C 1077.04 45.2114 1072.69 33.5002 1100.66 16.9669 C 1099.09 25.4298 1097.33 33.8567 1095.38 42.2412 z" fill="rgb(230,215,189)" transform="translate(0,0)"></path>
<path d="M 1038.16 96.0263 C 1038.26 95.3873 1038.59 90.5689 1039.57 90.5885 C 1040.61 91.2795 1041.08 92.7098 1041.68 93.8476 L 1042.65 95.6475 L 1038.16 96.0263 z" fill="rgb(244,203,154)" transform="translate(0,0)"></path>
<path d="M 1071.75 1643.43 C 1120 1664.5 1184.52 1665.99 1233.81 1648.05 C 1231.94 1660.72 1229.5 1673.3 1226.5 1685.75 C 1224.95 1692.42 1210.85 1694.39 1204.84 1695.85 C 1162 1706.27 1111.81 1703.1 1070.89 1686.53 C 1070.82 1672.52 1071.42 1657.51 1071.75 1643.43 z" fill="rgb(230,215,189)" transform="translate(0,0)"></path>
<path d="M 1017.13 1642.95 L 1018.13 1643.31 C 1019.31 1646.82 1018.2 1680.16 1018.09 1685.85 C 971.455 1703.14 920.522 1705.13 872.675 1691.54 C 868.639 1690.42 865.408 1689.95 863.574 1686.73 C 861.088 1673.46 858.693 1660.17 856.388 1646.86 C 906.036 1664.03 968.574 1663.77 1017.13 1642.95 z" fill="rgb(230,215,189)" transform="translate(0,0)"></path>
<path d="M 715.016 299.819 C 720.98 300.053 739.653 316.387 747.352 320.325 C 771.314 332.583 787.622 338.381 814.142 341.144 C 812.786 347.408 811.671 353.442 809.142 359.326 C 797.84 364.48 791.915 367.725 781.918 375.046 C 774.797 374.799 767.137 374.174 759.993 373.701 C 719.295 370.357 693.693 358.851 659.941 337.759 C 680.381 318.678 689.817 311.743 715.016 299.819 z" fill="rgb(8,73,55)" transform="translate(0,0)"></path>
<path d="M 1071.06 1689.12 C 1117.96 1707.42 1177.38 1709.89 1224.86 1692.26 C 1221.15 1706.99 1217.49 1722.55 1213.19 1737.05 C 1193.85 1742.4 1181.39 1745.49 1160.77 1746.3 C 1158.74 1747.54 1139.21 1747.67 1137.25 1746.26 C 1114.08 1744.85 1090.84 1741.17 1069.52 1731.55 C 1070.12 1717.41 1070.64 1703.27 1071.06 1689.12 z" fill="rgb(152,97,82)" transform="translate(0,0)"></path>
<path d="M 1137.25 1746.26 C 1140.18 1745.94 1158.17 1745.92 1160.77 1746.3 C 1158.74 1747.54 1139.21 1747.67 1137.25 1746.26 z" fill="rgb(87,58,44)" transform="translate(0,0)"></path>
<path d="M 864.23 1691.07 C 916.1 1708.14 966.86 1706.3 1018.28 1688.75 C 1016.96 1702.24 1016.94 1719.63 1016.93 1733.38 C 998.189 1738.87 985.465 1742.39 965.581 1744.31 C 964.583 1745.08 964.593 1744.89 963.103 1744.71 C 948.851 1745.49 937.276 1745.24 923.12 1744.72 C 922.186 1744.7 922.006 1744.81 921.229 1744.38 C 905.07 1742.81 888.771 1739.79 873.431 1734.38 C 870.4 1720.02 866.748 1705.47 864.23 1691.07 z" fill="rgb(152,97,82)" transform="translate(0,0)"></path>
<path d="M 1179.37 1539.15 C 1205.31 1537.65 1230.43 1529.57 1252.38 1515.66 C 1251.32 1527.8 1249.06 1546.28 1248.69 1558.07 C 1217.8 1570.5 1189.49 1575.57 1156.16 1573.7 C 1155.18 1573.7 1155.01 1573.83 1154.24 1573.34 C 1127.35 1571.87 1098.5 1565.1 1074.79 1552.09 C 1075.24 1540.13 1076.33 1528.07 1077.27 1516.13 C 1098.62 1528.92 1127.13 1537.68 1151.87 1539.16 C 1158.59 1538.67 1172.37 1538.68 1179.37 1539.15 z" fill="rgb(152,97,82)" transform="translate(0,0)"></path>
<path d="M 1151.87 1539.16 C 1158.59 1538.67 1172.37 1538.68 1179.37 1539.15 C 1172.25 1540.56 1158.92 1540.41 1151.87 1539.16 z" fill="rgb(87,58,44)" transform="translate(0,0)"></path>
<path d="M 898.238 109.677 C 899.796 108.837 899.747 109.009 901.611 109.283 C 911.741 109.035 921.415 109.123 931.483 110.538 C 941.893 127.061 951.66 140.391 966.992 152.857 C 969.552 154.939 983.156 165.111 984.145 166.793 C 979.662 170.615 959.057 164.668 952.462 163.224 C 921.993 156.554 892.654 162.574 863.2 170.597 C 861.961 170.934 858.026 169.273 856.678 168.697 C 855.478 168.503 855.451 168.25 854.359 167.311 L 852.624 166.734 C 851.092 166.201 851.063 166.215 849.761 165.308 L 847.736 164.243 C 843.53 162.7 840.523 161.318 836.969 158.556 C 835.299 157.982 834.855 157.99 833.904 156.637 C 830.276 154.532 816.853 146.146 815.884 142.624 C 818.598 137.6 826.098 134.888 830.987 132.124 C 852.628 119.891 873.466 112.485 898.238 109.677 z" fill="rgb(31,128,90)" transform="translate(0,0)"></path>
<path d="M 836.969 158.556 C 841.119 160.245 844.237 161.482 847.736 164.243 C 843.53 162.7 840.523 161.318 836.969 158.556 z" fill="rgb(8,73,55)" transform="translate(0,0)"></path>
<path d="M 898.238 109.677 C 899.796 108.837 899.747 109.009 901.611 109.283 C 900.157 110.197 900.086 109.926 898.238 109.677 z" fill="rgb(25,90,68)" transform="translate(0,0)"></path>
<path d="M 833.904 156.637 L 835.054 156.994 C 836.076 157.286 836.544 157.574 836.969 158.556 C 835.299 157.982 834.855 157.99 833.904 156.637 z" fill="rgb(25,90,68)" transform="translate(0,0)"></path>
<path d="M 845.059 1516.72 C 854.633 1521.78 864.666 1525.9 875.023 1529.05 C 920.637 1543.17 975.833 1540.53 1018.41 1518.05 C 1019.43 1524.08 1019.03 1535.18 1018.81 1541.47 L 1018.95 1551.58 C 995.884 1564.34 970.117 1571.44 943.772 1572.27 C 941.411 1573.68 937.72 1572.96 934.717 1572.83 L 922.8 1572.72 C 920.228 1573.07 919.263 1573.52 917.242 1572.27 C 892.878 1571.12 868.288 1565.92 846.123 1555.64 C 845.473 1542.22 845.035 1530.15 845.059 1516.72 z" fill="rgb(152,97,82)" transform="translate(0,0)"></path>
<path d="M 1018.41 1518.05 C 1019.43 1524.08 1019.03 1535.18 1018.81 1541.47 C 1017.89 1534.92 1017.73 1524.64 1018.41 1518.05 z" fill="rgb(119,80,68)" transform="translate(0,0)"></path>
<path d="M 934.717 1572.83 C 938.533 1572.25 939.964 1571.95 943.772 1572.27 C 941.411 1573.68 937.72 1572.96 934.717 1572.83 z" fill="rgb(87,58,44)" transform="translate(0,0)"></path>
<path d="M 917.242 1572.27 C 919.593 1572.08 920.621 1571.89 922.8 1572.72 C 920.228 1573.07 919.263 1573.52 917.242 1572.27 z" fill="rgb(87,58,44)" transform="translate(0,0)"></path>
<path d="M 1072.9 1603.03 C 1076.67 1604.82 1080.52 1606.46 1084.42 1607.94 C 1133.28 1626.32 1193.38 1627.42 1241.39 1605.59 C 1239.8 1615.61 1238.3 1626.38 1236.16 1636.24 C 1234.47 1646.58 1232.85 1646.98 1222.24 1649.84 C 1179.5 1661.37 1111.7 1662.33 1072.25 1640.58 C 1072.03 1627.69 1072.43 1615.91 1072.9 1603.03 z" fill="rgb(152,97,82)" transform="translate(0,0)"></path>
<path d="M 851.191 1607.92 L 852.539 1606.31 C 866.209 1609.97 875.536 1613.78 890.366 1616.95 C 933.805 1626.35 979.132 1621.12 1019.29 1602.08 C 1018.92 1614.53 1018.77 1626.99 1018.84 1639.45 C 992.822 1650.75 973.046 1654.47 944.769 1656.27 C 942.6 1657.61 921.372 1657.56 919.226 1656.28 C 897.71 1655.47 876.45 1651.33 856.205 1643.99 C 854.374 1633.09 853.075 1621.63 851.661 1610.63 C 851.281 1609.31 851.298 1609.31 851.191 1607.92 z" fill="rgb(152,97,82)" transform="translate(0,0)"></path>
<path d="M 919.226 1656.28 C 920.092 1656.19 944.177 1656.21 944.769 1656.27 C 942.6 1657.61 921.372 1657.56 919.226 1656.28 z" fill="rgb(87,58,44)" transform="translate(0,0)"></path>
<path d="M 1356.19 343.449 L 1363.49 345.197 C 1408.65 357.287 1440.71 400.953 1456.61 442.81 C 1419.11 443.399 1405.57 441.257 1370.32 430.014 C 1369.71 419.28 1368.47 403.483 1366.54 392.99 C 1366.25 391.318 1365.99 389.818 1365.77 388.128 C 1363.89 380.004 1362.53 371.274 1360.73 363.012 C 1359.28 356.475 1357.77 349.954 1356.19 343.449 z" fill="rgb(209,148,75)" transform="translate(0,0)"></path>
<path d="M 731.117 466.18 C 739.441 465.986 747.748 465.352 756.004 464.281 C 762.925 463.372 769.821 462.089 776.604 460.432 C 783.507 458.823 790.345 456.952 797.104 454.823 C 798.735 469.737 799.453 483.719 801.909 498.644 C 790.801 508.655 773.443 521.221 759.876 527.706 C 756.133 530.566 752.585 532.144 748.145 533.649 C 733.016 539.129 725.734 542.06 709.46 547.141 C 709.691 520.58 716.738 488.709 731.117 466.18 z" fill="rgb(31,128,90)" transform="translate(0,0)"></path>
<path d="M 748.145 533.649 C 752.341 530.911 755.159 529.527 759.876 527.706 C 756.133 530.566 752.585 532.144 748.145 533.649 z" fill="rgb(25,90,68)" transform="translate(0,0)"></path>
<path d="M 1069.75 1734.46 C 1118.3 1752.37 1162.66 1753.34 1212.2 1739.78 C 1209.71 1751.03 1206.86 1761.68 1203.89 1772.8 C 1203.39 1774.25 1202.92 1774.79 1202.11 1776.12 C 1193.02 1781.2 1183.1 1782.48 1172.92 1783.91 C 1135.86 1789.12 1104.61 1786.78 1068.76 1777.38 L 1069.75 1734.46 z" fill="rgb(230,215,189)" transform="translate(0,0)"></path>
<path d="M 1015.69 1736.18 L 1016.12 1736.59 C 1017.64 1740.05 1016.08 1774.46 1015.91 1780.24 C 971.25 1787.99 933.035 1788.76 888.525 1775.81 C 884.375 1774.6 884.41 1774.78 882.844 1772.02 C 879.732 1760.97 876.921 1748.72 874.142 1737.48 C 922.866 1751.71 967.374 1751.2 1015.69 1736.18 z" fill="rgb(230,215,189)" transform="translate(0,0)"></path>
<path d="M 729.032 372.398 C 746.33 374.875 760.58 376.723 778.083 377.688 C 750.063 399.191 732.36 423.281 718.116 455.756 C 708.97 455.953 700.88 456.075 691.695 455.702 C 689.548 456.042 689.122 456.329 687.393 455.256 C 673.66 454.161 665.322 451.829 652.11 447.748 C 668.411 419.801 699.533 386.122 729.032 372.398 z" fill="rgb(31,128,90)" transform="translate(0,0)"></path>
<path d="M 687.393 455.256 C 689.567 455.041 689.847 454.846 691.695 455.702 C 689.548 456.042 689.122 456.329 687.393 455.256 z" fill="rgb(8,73,55)" transform="translate(0,0)"></path>
<path d="M 1370.67 432.661 C 1400.66 444.017 1418.82 444.774 1449.97 445.74 C 1456.46 458.597 1460.04 470.004 1464.39 483.417 C 1464.88 484.08 1464.79 484.259 1464.91 485.114 C 1465.69 487.313 1465.93 489.028 1466.37 491.34 C 1466.92 492.102 1466.78 492.341 1466.84 493.502 L 1467.16 495.538 C 1467.67 496.626 1467.66 496.884 1467.92 498.099 C 1468.8 500.397 1468.87 500.253 1468.66 502.655 C 1470.11 506.328 1470.15 506.257 1470.52 510.226 C 1470.46 517.273 1471.04 516.514 1463.98 515.193 C 1427.86 508.44 1399.96 493.208 1370.81 471.309 C 1371.36 458.431 1371.31 445.535 1370.67 432.661 z" fill="rgb(31,128,90)" transform="translate(0,0)"></path>
<path d="M 1468.66 502.655 C 1470.11 506.328 1470.15 506.257 1470.52 510.226 C 1469.55 508.261 1469.19 507.688 1468.94 505.442 L 1468.66 502.655 z" fill="rgb(8,73,55)" transform="translate(0,0)"></path>
<path d="M 1169.9 707.229 C 1175.58 707.172 1181.26 707.311 1186.93 707.646 C 1215.14 709.436 1255.29 722.732 1274.1 744.076 C 1265.22 753.244 1255.53 767.186 1248.91 778.046 L 1238.7 794.801 L 1220.03 793.474 C 1208.22 770.045 1201.97 754.16 1181.9 734.389 C 1176.7 729.269 1166.08 725.329 1161.46 719.425 C 1162.86 715.622 1167.26 710.609 1169.9 707.229 z" fill="rgb(8,73,55)" transform="translate(0,0)"></path>
<path d="M 807.754 363.038 C 808.539 367.108 806.054 374.835 805.1 379.022 C 799.462 403.759 797.087 426.735 797.075 452.142 C 790.552 454.217 785.359 456.156 778.486 457.729 L 773.988 458.744 C 753.532 463.152 740.929 463.702 720.308 462.774 C 719.806 462.38 719.015 461.884 719.326 461.035 C 734.4 419.834 767.096 380.901 807.754 363.038 z" fill="rgb(209,148,75)" transform="translate(0,0)"></path>
<path d="M 884.013 1776.68 C 933.262 1790.29 965.178 1791.81 1016.05 1782.29 C 1015.46 1794.61 1014.96 1806.94 1014.56 1819.27 C 997.91 1821.97 985.815 1823.78 968.788 1824.55 C 966.643 1825.56 957.271 1825.4 955.045 1824.62 L 941.811 1823.7 C 940.316 1823.86 940.369 1824.02 939.232 1823.34 C 924.958 1822.18 908.793 1819.61 895.268 1814.8 C 891.306 1802.16 887.554 1789.45 884.013 1776.68 z" fill="rgb(152,97,82)" transform="translate(0,0)"></path>
<path d="M 955.045 1824.62 C 958.485 1823.79 965.325 1823.72 968.788 1824.55 C 966.643 1825.56 957.271 1825.4 955.045 1824.62 z" fill="rgb(87,58,44)" transform="translate(0,0)"></path>
<path d="M 939.232 1823.34 C 940.615 1823.24 940.633 1823.13 941.811 1823.7 C 940.316 1823.86 940.369 1824.02 939.232 1823.34 z" fill="rgb(87,58,44)" transform="translate(0,0)"></path>
<path d="M 1068.68 1780 C 1108.99 1790.88 1162.25 1793.72 1201.89 1779.12 C 1199.44 1788.19 1194.04 1806.21 1190.47 1814.93 C 1171.22 1821.09 1151.3 1823.26 1131.22 1824.5 C 1128.36 1825.04 1121.72 1825.83 1119.23 1824.38 C 1099.94 1823.42 1086.87 1821.74 1068.19 1816.26 C 1068.97 1805.27 1068.65 1791.26 1068.68 1780 z" fill="rgb(152,97,82)" transform="translate(0,0)"></path>
<path d="M 1119.23 1824.38 C 1123.42 1823.73 1127.05 1823.96 1131.22 1824.5 C 1128.36 1825.04 1121.72 1825.83 1119.23 1824.38 z" fill="rgb(87,58,44)" transform="translate(0,0)"></path>
<path d="M 899.138 804.854 C 912.171 818.207 916.755 822.693 932.209 833.284 C 913.111 858.441 907.592 877.227 897.804 906.638 L 882.789 912.084 C 874.447 915.178 865.355 917.664 856.778 920.182 C 859.001 874.03 874.425 842.07 899.138 804.854 z" fill="rgb(8,73,55)" transform="translate(0,0)"></path>
<path d="M 1082.37 753.351 C 1089.28 753.172 1092.43 752.836 1098.24 756.498 C 1098.86 756.502 1099.06 756.796 1099.46 757.249 C 1135.69 777.826 1148.27 824.647 1144.45 863.709 C 1126.01 852.963 1107.14 844.686 1087.66 832.832 C 1096.47 803.798 1095.15 780.688 1082.37 753.351 z" fill="rgb(31,128,90)" transform="translate(0,0)"></path>
<path d="M 1370.34 474.17 C 1383.47 484.143 1394.9 490.972 1408.98 499.581 C 1412.14 510.091 1413.82 519.586 1415.32 530.404 C 1416.27 531.804 1416.01 531.807 1415.7 533.612 L 1415.97 537.935 C 1417.44 543.579 1417.64 572.383 1416.2 577.71 C 1409.8 575.615 1388.24 561.523 1381.97 557.62 C 1381.27 557.167 1381.16 557.134 1380.57 556.572 L 1380.21 556.343 C 1379.36 555.825 1378.32 555.288 1377.65 554.561 L 1375.25 553.002 C 1374.62 552.493 1374.38 552.364 1373.87 551.724 C 1368.69 548.41 1361.75 542.204 1357.2 538.037 C 1365.34 516.637 1367.98 496.568 1370.34 474.17 z" fill="rgb(31,128,90)" transform="translate(0,0)"></path>
<path d="M 1415.97 537.935 C 1417.44 543.579 1417.64 572.383 1416.2 577.71 C 1415.47 569.73 1416.34 564.279 1416.49 556.5 C 1416.61 550.078 1415.77 544.616 1415.97 537.935 z" fill="rgb(25,90,68)" transform="translate(0,0)"></path>
<path d="M 1415.32 530.404 C 1416.27 531.804 1416.01 531.807 1415.7 533.612 C 1414.86 532.198 1415.06 532.183 1415.32 530.404 z" fill="rgb(8,73,55)" transform="translate(0,0)"></path>
<path d="M 571.738 702.347 C 589.905 698.953 620.045 706.397 623.771 726.508 C 627.04 744.154 602.239 743.237 591.999 742.277 C 587.898 741.893 578.767 744.254 574.764 744.888 C 560.299 748.612 545.878 752.5 531.501 756.549 L 531.103 754.807 C 523.896 724.546 542.973 706.1 571.738 702.347 z" fill="rgb(175,120,106)" transform="translate(0,0)"></path>
<path d="M 1040.9 745.89 C 1055 751.1 1064.88 751.951 1079.24 753.884 C 1083.92 761.789 1087.17 770.464 1088.82 779.505 C 1091.84 795.263 1090.89 816.129 1085.69 831.435 C 1070.72 822.81 1052.28 811.973 1038.34 801.991 C 1045.29 779.396 1043.45 768.522 1040.9 745.89 z" fill="rgb(8,73,55)" transform="translate(0,0)"></path>
<path d="M 681.289 645.113 C 708.137 643.205 721.041 673.728 724.844 696.006 C 725.359 699.064 725.808 702.132 726.193 705.208 C 724.422 705.654 722.723 706.162 720.988 706.605 L 719.015 707.088 C 714.116 708.348 709.205 709.561 704.283 710.728 C 699.077 711.651 693.673 713.441 688.44 714.667 C 682.089 693.342 677.954 687.523 664.248 670.326 C 666.953 656.446 667.631 651.673 681.289 645.113 z" fill="rgb(175,120,106)" transform="translate(0,0)"></path>
<path d="M 631.519 659.36 C 661.828 659.774 677.852 690.151 686.295 715.205 L 684.698 715.665 C 676.344 718.15 665.679 720.811 657.128 722.658 C 655.962 721.362 654.228 713.487 652.777 710.597 C 645.137 695.025 632.726 686.202 616.509 681.059 C 611.283 679.403 601.138 679.974 605.573 674.302 C 613.366 664.334 619.618 661.575 631.519 659.36 z" fill="rgb(175,120,106)" transform="translate(0,0)"></path>
<path d="M 595.126 680.473 C 597.795 679.655 600.039 680.011 602.713 680.61 C 618.774 682.945 654.914 698.004 652.706 724.386 C 652.342 728.732 631.492 731.963 626.653 732.538 C 625.788 721.308 624.399 716.643 614.519 708.933 C 603.061 699.991 584.52 697.38 570.499 700.049 C 562.913 701.493 565.054 699.095 568.277 694.197 C 575.236 684.727 583.945 681.779 595.126 680.473 z" fill="rgb(175,120,106)" transform="translate(0,0)"></path>
<path d="M 595.126 680.473 C 597.795 679.655 600.039 680.011 602.713 680.61 C 599.147 681.053 598.545 681.239 595.126 680.473 z" fill="rgb(87,58,44)" transform="translate(0,0)"></path>
<path d="M 450.312 779.705 L 452.243 780.072 C 471.276 783.86 478.063 826.009 463.804 833.363 L 462.293 834.192 C 439.726 828.917 432.678 793.546 448.891 780.867 L 450.312 779.705 z" fill="rgb(179,113,53)" transform="translate(0,0)"></path>
<path d="M 1146.84 830.434 C 1151.82 833.988 1157.61 839.831 1162.27 844.067 C 1172.41 853.3 1183.31 859.687 1194.57 867.207 C 1191.92 870.796 1189.36 874.459 1186.91 878.192 C 1185.99 879.449 1184.36 882.089 1182.72 882.647 C 1181.66 883.009 1152.09 867.194 1148.34 865.473 C 1147.83 865.241 1147.31 865.027 1146.8 864.803 C 1148.96 847.624 1147.6 847.002 1146.84 830.434 z" fill="rgb(31,128,90)" transform="translate(0,0)"></path>
<path d="M 815.011 305.42 C 824.114 306.286 837.981 305.326 847.408 304.429 C 841.848 315.867 829.272 332.178 817.004 337.292 C 812.473 339.181 800.128 336.881 794.893 335.992 C 801.255 328.062 812.354 316.147 814.098 306.089 L 815.011 305.42 z" fill="rgb(179,113,53)" transform="translate(0,0)"></path>
<path d="M 1220.06 795.974 C 1226.22 796.646 1231.01 797.038 1237.24 797.321 C 1235.51 800.376 1233.53 803.725 1231.97 806.829 C 1230.88 808.465 1228.88 812.448 1227.44 813.03 C 1225.9 812.248 1221.65 799.282 1220.06 795.974 z" fill="rgb(31,128,90)" transform="translate(0,0)"></path>
<path d="M 679.422 69.3551 C 683.984 63.7424 683.915 64.0021 683.987 71.077 L 683.158 70.9612 C 681.87 70.3822 680.74 69.8808 679.422 69.3551 z" fill="rgb(179,113,53)" transform="translate(0,0)"></path>
<path d="M 1040.18 1905.94 L 1042.18 1906.64 C 1042.05 1911.75 1040.14 1910.91 1040.18 1905.94 z" fill="rgb(178,181,187)" transform="translate(0,0)"></path>
<metadata><recraft-signature>{"signed_by": "recraft", "signature_b64": "lFacfOtpkteYCkVfuVDrUyk1Zk4jDw1uiOWPI/vic+poiBZ7OUq2odtp/vR02FozIh0cdqezMAb1hn20V+xHBw==", "signing_algo": "Ed25519", "generation_timestamp": 1778553262, "identifier": "553db2d3-0318-4f06-9a40-e3fc62e64a65"}</recraft-signature></metadata></svg>