<svg xmlns="http://www.w3.org/2000/svg" height="1024" preserveAspectRatio="none" style="display: block;" version="1.1" viewBox="0 0 2048 2048" width="1024">
<defs>
	<linearGradient gradientUnits="userSpaceOnUse" id="Gradient1" x1="1083.66" x2="1113.24" y1="634.066" y2="656.68">
		<stop class="stop0" offset="0" stop-color="rgb(253,237,246)" stop-opacity="1"></stop>
		<stop class="stop1" offset="1" stop-color="rgb(255,255,255)" stop-opacity="1"></stop>
	</linearGradient>
</defs>

<path d="M 1003.89 81.9032 C 1001.8 79.3484 997.226 73.3547 994.786 71.6267 C 986.791 65.9647 962.177 46.8589 981.184 37.5014 C 1014.45 21.1226 1062.59 42.4281 1080.43 73.5917 C 1082.46 77.1855 1084.31 80.8761 1085.98 84.6503 C 1117.49 71.4279 1151.37 63.8687 1184.73 76.8618 C 1204.06 84.39 1208.81 97.8226 1189.61 109.808 C 1222.05 115.476 1249.02 126.147 1271.61 150.39 C 1287.11 131.467 1301.65 117.186 1324.77 107.725 C 1362.06 92.4684 1403.9 99.8929 1435.51 124.15 C 1440.73 128.154 1445.73 134.599 1446.34 141.319 C 1447.07 147.843 1443.1 150.807 1438.19 154.467 C 1474.41 174.71 1496.32 210.587 1492.25 252.666 C 1490.77 268.01 1487.93 293.089 1466.28 281.426 L 1465.25 282.131 C 1464.42 289.621 1465.82 296.594 1465.77 303.952 C 1465.48 342.13 1419.99 364.914 1385.96 360.695 C 1385.17 360.594 1384.38 360.477 1383.59 360.343 L 1382.6 358.885 L 1383.44 356.615 C 1388.28 354.763 1398.59 355.08 1404.47 354.092 C 1429.03 349.957 1444.89 342.783 1456.32 320.731 C 1467.67 298.855 1452.02 270.043 1454.73 264.352 C 1462.79 263.287 1466.39 279.762 1477.42 278.638 C 1481.18 276.535 1482.7 273.61 1483.75 269.562 C 1495.18 225.529 1477.26 185.868 1439.61 161.463 C 1434.76 158.318 1425.38 156.296 1423.76 150.808 C 1428.1 146.971 1434.78 149.884 1440.62 145.558 C 1446.52 131.416 1411.19 115.236 1400.92 111.61 C 1374.87 102.132 1346.09 103.646 1321.18 115.805 C 1300.2 125.86 1287.57 139.21 1273.79 157.322 L 1273.75 158.81 C 1273.5 165.861 1273.45 168.619 1269.8 174.844 C 1272.11 176.974 1283.67 183.431 1287.12 185.646 C 1294.97 190.683 1299.12 194.219 1306.14 200.489 C 1384.11 115.762 1462.26 242.716 1404.03 307.973 C 1394.74 318.375 1383.91 320.439 1370.87 322.574 C 1371.3 340.586 1367.05 342.434 1349.99 336.165 C 1371.75 364.728 1399.3 404.536 1393.59 442.376 C 1391.26 457.837 1387.45 462.281 1372.54 465.602 L 1371.54 466.901 C 1374.88 476.539 1426.04 483.323 1410.42 546.076 C 1428.04 574.572 1447.54 580.863 1441.69 619.017 C 1461.74 626.033 1554.35 661.313 1517.02 689.832 C 1538.89 702.671 1569.46 724.396 1578.6 749.817 C 1582.16 759.714 1573.43 770.905 1563.83 772.506 C 1559.51 773.393 1552 772.208 1547.43 771.567 C 1582.8 798.23 1625.6 840.986 1634.81 885.688 C 1637.99 901.11 1620.97 900.303 1611.33 898.484 C 1639.65 922.839 1677.86 961.84 1684.26 1000.28 C 1685.2 1005.93 1683.15 1015.25 1679.18 1019.67 C 1673.61 1025.87 1665.68 1023.48 1658.71 1021.64 C 1677.31 1056.8 1683.46 1092.01 1671.87 1131.1 C 1667.48 1145.93 1652.4 1181.93 1630.96 1179.05 C 1627.1 1178.53 1625.13 1174.72 1623.3 1171.56 C 1621.27 1174.33 1616.57 1193.96 1614.94 1199.01 C 1603.07 1235.75 1570.87 1266.54 1532.51 1273.43 C 1512.92 1276.94 1511.26 1267.13 1519.65 1252.45 C 1503.04 1266.77 1492.63 1273.85 1471.76 1280.85 C 1465.69 1291.86 1461.46 1299.18 1450.75 1306.43 C 1463.74 1326.17 1500.84 1385.91 1459.85 1396.62 C 1479.58 1430.27 1495.78 1471.55 1486.62 1511.05 C 1483.18 1525.88 1475.76 1535.26 1462.07 1541.58 C 1470.1 1570.08 1478.73 1595.59 1473.79 1625.83 C 1467.62 1663.56 1449.9 1687.4 1414.67 1701.97 C 1413.13 1737.52 1414.56 1778 1414.16 1814.25 C 1459.68 1818.48 1492.66 1833.71 1522.75 1868.63 C 1551.36 1901.83 1565.69 1955.52 1528.07 1987.79 C 1506.25 2006.5 1469.68 2001.94 1442.36 2001.95 L 1332.6 2001.93 L 1209.88 2001.87 C 1171.52 2001.87 1125.42 2009.53 1099.78 1974.66 C 1093.13 1965.63 1086.78 1952.48 1085.96 1941.31 C 1084.2 1917.31 1085.21 1892.19 1085.27 1868.12 L 1085.14 1732.02 C 1069.78 1727.86 1056.21 1713.83 1048.39 1700.22 C 1032.03 1671.79 1031.08 1631.26 1034.78 1599.5 C 1036.12 1588.01 1039.64 1575.47 1041.72 1564.12 C 1029.41 1564.59 1019.7 1564.86 1007.4 1564.35 C 1020.71 1619.92 1025.83 1705.35 962.947 1732.93 L 962.789 1873.51 C 962.792 1895.4 963.608 1918.66 962.104 1940.17 C 960.148 1968.13 935.917 1995.15 908.439 2000.22 C 894.522 2002.79 875.121 2001.94 860.554 2001.93 L 792.995 2001.85 C 717.436 2001.73 641.87 2001.73 566.32 2001.68 C 551.273 2001.67 538.17 1999.14 525.745 1990.67 C 476.128 1956.88 502.07 1888.42 537.819 1855.37 C 564.826 1830.41 598.611 1816.28 634.53 1814.66 C 633.485 1776.88 634.067 1738.49 634.038 1700.62 C 615.169 1696.97 602.328 1685.69 591.504 1669.87 C 573.937 1644.2 570.1 1610.62 575.438 1580.47 C 577.548 1568.55 585.358 1552.25 586.728 1541.73 C 574.776 1536.19 570.457 1532.61 565.642 1519.05 C 553.858 1485.88 563.13 1448.48 577.416 1417.63 C 580.421 1411.14 586.53 1402.85 588.314 1396.8 C 581.384 1393.31 573.897 1390.21 571.766 1382.08 C 564.994 1356.26 585.234 1325.13 599.471 1305.86 C 588.948 1297.53 585.947 1292.93 578.926 1281.38 C 557.552 1273.3 548.162 1269.25 530.211 1254.23 C 551.552 1292.43 464.109 1275.17 435.815 1204.86 C 431.266 1193.42 428.255 1181.43 426.862 1169.2 C 422.298 1177.6 414.918 1183.69 405.283 1177.22 C 388.279 1165.81 379.399 1142.16 374.949 1123.04 C 367.074 1085.85 371.778 1054.11 390.486 1021.41 C 351.335 1033.98 366.691 981.923 378.844 964.242 C 395.218 940.419 415.377 915.845 437.997 897.648 C 432.331 899.121 421.872 902.142 416.907 898.033 C 408.914 891.418 415.374 873.554 418.948 865.682 C 435.42 829.393 465.345 800.805 495.715 775.941 L 493.36 772.54 C 467.855 773.595 464.81 750.768 479.015 733.581 C 494.899 714.363 512.01 702.228 533.021 689.472 C 497.492 659.206 588.233 626.858 608.662 619.47 C 602.465 583.008 620.306 573.495 639.228 545.901 C 636.476 535 635.352 523.472 637.72 512.397 C 640.91 498.124 649.772 485.764 662.267 478.162 C 666.874 475.315 677.361 471.834 678.248 466.881 C 674.434 463.565 668.272 465.28 665.927 462.537 C 635.307 426.713 681.675 359.933 700.776 336.399 C 695.096 338.999 691.369 341.753 685.22 338.849 C 680.325 333.784 680.896 330.688 680.838 323.696 C 676.922 323.191 671.366 322.434 667.641 321.235 C 629.614 308.992 620.215 265.793 627.97 231.186 C 637.251 189.769 674.683 158.882 717.153 179.264 C 727.749 184.349 734.954 191.983 742.953 200.294 C 748.863 194.692 755.214 189.575 761.945 184.992 C 766.25 182.087 778.266 176.573 779.538 174.589 C 777.29 163.434 773.991 164.864 777.598 153.079 L 777.972 151.894 C 775.991 152.934 776.698 152.723 774.784 153.205 C 771.657 153.994 766.219 146.028 764.114 143.556 C 748.708 125.112 727.551 112.381 704.04 107.405 C 676.812 101.88 647.714 108.439 624.418 123.44 C 619.176 126.816 608.905 134.301 608.209 140.575 C 606.978 151.681 622.929 145.715 627.414 151.596 C 626.436 152.94 608.338 162.82 604.595 165.434 C 596.615 170.904 589.427 177.448 583.235 184.88 C 565.699 206.05 560.725 229.371 563.579 256.293 C 564.162 261.79 565.78 274.63 570.366 277.299 C 577.732 281.585 587.45 265.01 594.092 263.286 C 596.567 265.074 595.817 263.897 596.338 266.979 C 574.732 312.4 601.112 351.524 649.118 354.803 C 652.926 355.063 663.029 355.059 665.623 356.683 L 665.701 359.404 C 661.516 362.791 656.438 361.937 651.434 361.42 C 617.846 357.952 582.339 338.805 583.485 300.498 C 583.694 293.531 584.656 286.807 585.533 279.894 C 578.801 282.955 567.092 287.752 563.434 278.07 C 543.479 225.251 568.513 180.064 611.968 153.885 C 596.388 144.196 604.155 130.783 616.171 122.21 C 672.599 81.9491 737.701 97.1094 778.237 151.349 C 796.553 127.94 831.279 113.876 859.849 110.369 L 860.858 110.253 C 850.63 104.107 838.892 93.1887 848.637 82.1875 C 885.283 40.8184 965.007 69.1437 1003.89 81.9032 z" fill="rgb(14,10,61)" transform="translate(0,0)"></path>
<path d="M 493.36 772.54 C 494.474 772.346 498.499 771.29 499.351 772.518 C 499.139 773.665 496.495 775.318 495.715 775.941 L 493.36 772.54 z" fill="rgb(221,224,236)" transform="translate(0,0)"></path>
<path d="M 992.779 1199.35 C 1003.93 1202.3 1017.98 1204.25 1029.48 1205.99 C 1081.37 1213.85 1123.4 1213.62 1173.1 1195.52 C 1172.09 1205.93 1171.48 1214.57 1175.02 1224.6 C 1185.46 1254.2 1221.44 1264.65 1249.83 1260.16 C 1257.19 1259 1262.42 1257.12 1269.36 1254.47 C 1271.31 1281.5 1287.3 1299.66 1313.42 1306.2 C 1332.73 1311.04 1354.61 1307.46 1365.98 1289.34 L 1367.37 1291.37 L 1367.18 1292.26 C 1361.45 1317.86 1386.13 1321.83 1405.45 1320.95 C 1420.88 1320.24 1433.52 1316.43 1447.28 1309.76 C 1456.2 1325.97 1482.1 1365.61 1469.15 1385.97 C 1461.66 1397.74 1450.83 1377.4 1443.69 1377.93 C 1443.13 1383.92 1451.87 1393.1 1455.32 1398.94 C 1476.23 1434.4 1496 1486.83 1473.51 1525.98 C 1471.26 1529.92 1467.85 1533.83 1463.3 1534.84 C 1452.3 1531.25 1451.69 1502.38 1443.94 1497.3 C 1440.34 1498.4 1441.61 1497.36 1439.69 1500.11 C 1440.79 1505.8 1443.17 1508.67 1445.13 1513.87 C 1460.71 1555.26 1479.78 1601.67 1462.58 1645.57 C 1454.74 1665.59 1442.89 1682.95 1423.25 1692.42 C 1419.46 1694.24 1415.18 1695.47 1411.37 1693.87 C 1405.73 1684.68 1413.42 1660.91 1406.59 1654.95 C 1401.81 1655.94 1402.7 1659.37 1401.96 1664.38 C 1394.93 1711.84 1350.9 1746.44 1304.88 1747.55 C 1305.65 1740.06 1312.51 1715.68 1308.15 1711.04 C 1303.4 1711.6 1297.59 1722.44 1294.3 1727.6 C 1279.77 1750.39 1214.02 1773.34 1192.39 1754.56 C 1191.74 1750.52 1216.23 1722.5 1208.78 1715.01 C 1203.59 1715.09 1199.36 1723.9 1195.75 1728.29 C 1171.37 1758 1131.51 1758.35 1105.91 1729.96 C 1099.53 1722.88 1092.35 1701.53 1087.89 1699.4 C 1084.34 1703.5 1085.42 1720.78 1085.42 1727.07 C 1077.14 1723.04 1069.65 1717.57 1063.3 1710.9 C 1037.75 1683.75 1038.4 1645.65 1039.18 1611.01 C 1081.71 1599.84 1122.37 1583.68 1148.39 1546.28 C 1152.27 1540.72 1166.94 1516.8 1159.56 1512.9 C 1155.99 1513.76 1146.55 1523.23 1142.17 1526.52 C 1131.14 1534.76 1118.91 1541.29 1105.92 1545.87 C 1045.75 1567.42 955.002 1563.98 902.368 1524.08 C 897.853 1520.66 893.921 1515.12 888.962 1512.79 L 886.751 1513.78 L 885.878 1516.21 C 886.468 1522.67 889.744 1528.8 892.85 1534.47 C 917.78 1579.97 962.028 1597.76 1008.84 1611.56 C 1011.9 1656.48 1006.62 1703.81 963.007 1727.1 C 963.138 1720.03 964.149 1706.1 960.745 1700.56 C 958.914 1700.69 958.249 1700.76 957.342 1702.84 C 945.54 1729.81 933.638 1750.26 900.019 1751.3 C 873.699 1752.11 859.339 1736.28 844.72 1716.95 C 843.123 1714.84 841.987 1714.97 839.825 1715.03 L 838.181 1716.8 C 838.065 1733.34 859.225 1747.17 854.573 1756.83 C 834.885 1770.51 772.059 1751.66 758.507 1731.5 C 753.634 1724.25 747.716 1716.67 742.139 1710.6 C 741.45 1709.85 740.086 1710.75 739.223 1711.1 C 735.928 1718.5 742.033 1739.25 744.115 1747.85 C 730.355 1747.8 716.773 1744.73 704.328 1738.86 C 680.041 1727.37 658.627 1705.01 649.407 1679.33 C 647.265 1673.36 647.621 1664.27 644.69 1656.12 C 641.974 1655.01 643.346 1655.07 640.435 1656.17 C 634.91 1665.7 644.728 1689.41 635.613 1694.87 C 616.556 1694.73 597.81 1671.45 589.974 1655.83 C 564.97 1606 587.769 1553.41 606.713 1505.98 C 607.818 1503.22 608.194 1499.94 606.717 1497.27 C 598.858 1499.42 593.276 1531.34 587.155 1534.18 C 576.253 1533.19 570.302 1518.29 568.361 1509 C 558.56 1462.08 581.168 1418.92 605.394 1380.45 C 605.091 1377.91 605.596 1378.97 603.576 1377.34 C 595.348 1378.94 589.953 1399.65 577.812 1382.73 L 577.077 1381.69 C 575.124 1350.3 586.972 1334.24 604.121 1308.88 C 629.096 1319.33 675.938 1333.99 690.041 1300.78 C 704.847 1314.04 723.491 1319.99 742.98 1321.25 C 738.969 1337.22 729.824 1352.58 724.497 1368.77 C 727.591 1382.08 731.238 1395.16 744.525 1401.54 C 755.746 1406.93 771.449 1404.71 781.867 1409.72 C 796.153 1416.59 806.024 1428.7 823.531 1428.72 C 843.147 1430.18 851.353 1417.09 868.801 1417.36 C 871.989 1417.41 885.459 1421.53 889.278 1422.52 C 910.231 1427.99 920.455 1410.96 935.03 1407.88 C 947.855 1405.18 968.63 1415.32 982.894 1404.69 C 996.726 1394.37 998.201 1384.85 989.64 1370.51 C 986.761 1365.69 981.254 1354.51 980.013 1349.48 C 968.306 1302.04 983.962 1245.92 992.779 1199.35 z" fill="rgb(221,224,236)" transform="translate(0,0)"></path>
<path d="M 997.035 38.1984 C 1035.54 35.588 1070.72 54.8801 1082.52 92.7891 C 1108.86 79.9973 1134.52 72.7571 1164.08 76.9102 C 1173.87 78.2865 1195.05 83.694 1196.94 94.6589 C 1194.12 106.063 1172.87 105.824 1168.19 111.876 C 1171.52 116.154 1184.75 115.375 1190.72 115.833 C 1207.44 117.114 1277.41 141.453 1267.36 166.523 C 1258.32 175.044 1244.5 163.799 1231.28 164.08 L 1231.95 166.851 C 1238.64 171.349 1257.79 175.882 1268.16 181.17 C 1283.65 189.065 1299.64 197.613 1307.22 214.962 C 1308.53 217.961 1307.46 220.343 1306.25 222.727 C 1299.75 227.6 1295.17 224.674 1287.65 226.025 L 1286.76 227.369 C 1289.58 233.158 1303.94 240.656 1309.85 245.528 C 1331.93 263.718 1353.04 286.229 1362.69 313.717 C 1364.36 318.46 1366.54 329.634 1364.26 334.018 C 1357.04 335.601 1343.19 322.193 1333.94 321.972 C 1331.04 325.949 1337.97 331.213 1340.51 334.295 C 1361.47 360.492 1386.14 393.737 1388.3 428.195 C 1388.84 436.805 1387.9 459.582 1376.38 459.484 C 1367.65 453.445 1360.42 428.405 1351.96 427.052 L 1350.46 428.294 C 1354.75 443.923 1376.04 459.881 1363.32 478.047 C 1323.6 534.771 1248.39 563.345 1183.74 580.242 C 1131.75 593.831 1076.8 599.838 1023.36 601.551 C 1017.42 601.741 1004.07 602.878 999.577 600.273 C 964.746 580.462 914.797 566.136 874.451 567.139 C 860.295 567.49 849.224 572.259 837.42 579.798 C 789.738 560.789 704.79 521.65 684.706 467.373 C 681.546 458.833 701.816 433.631 700.55 426.733 C 692.32 423.903 681.607 458.275 673.994 460.79 C 665.781 457.488 663.898 450.302 662.879 442.255 C 657.335 398.454 690.105 359.154 715.784 327.299 C 717.152 325.603 717.288 324.227 716.933 322.154 C 708.923 320.577 695.332 336.971 687.985 333.003 C 681.347 308.175 717.741 264.529 735.595 250.445 C 740.414 246.643 759.33 231.588 760.92 228.453 C 755.692 225.029 748.194 228.659 740.847 222.311 C 740.213 220.822 739.243 219.455 739.767 217.937 C 747.418 196.35 773.005 183.919 793.136 176.468 C 799.102 174.26 818.955 170.522 818.403 164.132 C 813.103 160.33 798.441 171.695 786.113 170.427 C 779.809 166.529 781.063 158.175 784.808 152.898 C 799.491 132.203 829.483 123.309 852.82 117.142 C 860.83 115.025 870.822 115.279 879.306 113.365 L 879.766 111.153 C 875.588 109.644 871.428 108.087 867.287 106.482 C 841.066 96.1797 847.827 82.4223 869.64 73.4686 C 906.603 58.2966 947.482 69.5228 983.797 81.1478 C 990.537 83.3054 1006.62 92.2761 1011.89 90.9532 L 1012.94 88.6729 C 1009.27 79.4144 1002.63 72.7131 995.66 65.8995 C 990.008 60.3755 978.893 53.7834 982.167 45.0261 C 986.337 40.2147 990.882 39.6901 997.035 38.1984 z" fill="rgb(221,224,236)" transform="translate(0,0)"></path>
<path d="M 1040.29 231.391 C 1048.55 223.435 1060.28 215.205 1072.4 215.044 C 1080.28 214.939 1084.03 219.519 1089.62 223.914 C 1089.61 223.903 1094.6 220.597 1095.9 219.818 C 1109.37 211.786 1124.84 204.37 1140.96 205.807 C 1144.95 206.164 1149.92 207.014 1152.54 210.333 C 1155.32 213.862 1154.69 219.752 1153.15 223.578 C 1160.03 224.319 1166.72 222.793 1173.1 223.469 C 1187.91 225.037 1206.17 232.484 1216.43 243.505 C 1224.53 252.198 1223.38 259.441 1218.76 269.082 C 1233.56 276.037 1253.91 289.432 1258.31 305.551 C 1266.54 335.76 1241.24 339.548 1219.86 331.944 C 1225.25 353.31 1228.02 367.743 1228.04 390.405 L 1221.47 379.727 C 1219.35 394.912 1217.09 406.124 1209.38 419.552 C 1176.06 477.595 1092.4 481.188 1052.84 427.865 C 1038.63 408.699 1034.87 386.745 1035.88 363.394 C 1033.33 367.049 1030.23 372.74 1026.35 374.324 C 1022.92 373.076 1024.52 374.072 1022.1 370.166 L 1019.13 369.837 C 1017.75 394.544 1013.59 412.25 997.154 431.984 C 981.486 450.8 957.285 463.516 932.81 465.525 C 907.676 467.718 882.73 459.605 863.694 443.047 C 844.126 426.144 834.549 405.667 832.703 380.201 C 830.52 382.922 828.209 386.729 826.274 389.714 C 825.093 366.563 826.689 353.823 833.102 331.602 C 812.045 339.005 785.181 339.351 792.235 306.785 C 795.86 290.049 817.792 275.496 832.428 267.693 L 826.841 257.401 C 834.48 229.305 870.436 221.106 895.877 224.216 C 895.297 220.982 895.096 217.293 894.828 213.974 C 908.293 193.674 942.369 212.281 956.998 222.398 C 957.988 223.074 958.961 223.776 959.916 224.5 C 974.11 205.477 996.625 218.985 1010.08 231.732 C 1023.87 223.004 1026.25 222.468 1040.29 231.391 z" fill="rgb(14,10,61)" transform="translate(0,0)"></path>
<path d="M 1019.13 369.837 L 1019.13 368.398 C 1019.11 367.701 1019.06 366.904 1019.58 366.363 C 1020.75 366.056 1021.84 369.55 1022.1 370.166 L 1019.13 369.837 z" fill="rgb(221,224,236)" transform="translate(0,0)"></path>
<path d="M 898.574 217.342 C 912.04 199.942 943.41 218.919 956.168 229.317 C 958.125 230.917 960.067 232.536 961.993 234.173 C 964.225 229.189 965.846 223.635 971.451 221.859 C 987.062 216.91 1002.9 231.037 1010.52 242.92 C 1021.48 225.114 1029.2 226.77 1039.98 243.183 C 1047.17 230.368 1063.99 215.089 1080.46 222.967 C 1084.19 224.75 1086 230.588 1087.45 234.35 C 1097.13 225.449 1105.96 219.138 1118.56 214.778 C 1128.81 211.228 1150.21 204.137 1150.09 222.099 C 1146.08 223.885 1142.83 227.143 1143.06 231.656 L 1145.32 232.124 C 1161.58 226.457 1177.37 228.508 1193.13 235.022 C 1201.3 238.395 1213.35 244.54 1216.76 253.45 C 1218.72 258.583 1213.71 266.026 1211.05 270.684 C 1213.34 273.331 1219.27 275.671 1222.9 277.52 C 1237.55 284.53 1262.19 304.25 1253.05 322.797 C 1245.04 339.031 1216.66 324.035 1206.26 319.206 C 1173.09 303.801 1142.08 283.535 1103.81 291.338 C 1096.92 292.741 1089.25 294.692 1082.63 297.269 C 1069.71 303.501 1071.7 306.521 1058.8 298.284 C 1040.26 318.565 1033.7 338.148 1026.27 363.992 C 1020.99 347.426 1007.63 308.77 987.97 301.631 C 985.7 300.806 981.691 303.788 979.652 305.175 C 946.299 284.837 915.096 283.776 879.851 300.754 C 864.29 308.25 824.21 334.088 809.144 330.276 C 804.628 329.155 800.765 326.238 798.451 322.2 C 785.685 299.57 826.081 277.648 841.483 270.425 L 838.644 267.327 C 829.709 257.697 832.459 250.891 842.391 242.995 C 863.306 226.366 881.198 228.851 906.188 231.51 L 906.816 229.705 C 904.858 223.62 902.87 224.385 899.604 219.06 L 898.574 217.342 z" fill="rgb(221,224,236)" transform="translate(0,0)"></path>
<path d="M 914.201 292.995 C 960.635 286.892 1003.24 319.547 1009.41 365.972 C 1015.59 412.397 982.997 455.052 936.581 461.296 C 890.066 467.554 847.299 434.878 841.112 388.353 C 834.925 341.827 867.666 299.111 914.201 292.995 z" fill="rgb(221,224,236)" transform="translate(0,0)"></path>
<path d="M 928.993 356.452 C 946.131 354.3 961.807 366.344 964.144 383.458 C 966.48 400.571 954.607 416.376 937.52 418.898 C 926.301 420.554 915.058 416.055 908.079 407.116 C 901.099 398.178 899.461 386.178 903.788 375.696 C 908.115 365.214 917.741 357.864 928.993 356.452 z" fill="rgb(14,10,61)" transform="translate(0,0)"></path>
<path d="M 1119.07 295.418 C 1142 295.969 1163.45 302.578 1182.1 316.174 C 1199.25 328.532 1210.64 347.334 1213.65 368.26 C 1220.86 416.916 1183.26 453.185 1137.23 459.92 C 1088.36 463.478 1045.59 430.694 1041.27 380.905 C 1039.36 359.482 1046.15 338.191 1060.11 321.832 C 1076.06 303.22 1095.47 297.112 1119.07 295.418 z" fill="rgb(221,224,236)" transform="translate(0,0)"></path>
<path d="M 1119.7 356.529 C 1130.82 354.392 1142.24 358.407 1149.58 367.038 C 1156.92 375.669 1159.05 387.582 1155.15 398.222 C 1151.26 408.862 1141.94 416.584 1130.76 418.435 C 1113.78 421.248 1097.7 409.888 1094.67 392.946 C 1091.64 376.004 1102.79 359.774 1119.7 356.529 z" fill="rgb(14,10,61)" transform="translate(0,0)"></path>
<path d="M 979.267 481.168 C 1003.15 478.651 1005.22 495.101 1029.15 501.444 C 1043.88 497.386 1049.85 486.532 1064.88 482.878 C 1076.05 480.159 1095.15 492.993 1085.03 503.282 C 1077.18 503.613 1078.28 496.376 1069.07 492.353 C 1053.36 494.091 1050.61 506.672 1036.12 510.404 C 1018.35 514.982 1009.22 502.851 995.84 494.489 C 978.133 483.427 977.832 503.253 968.027 505.589 C 953.969 498.328 972.202 484.866 979.267 481.168 z" fill="rgb(14,10,61)" transform="translate(0,0)"></path>
<path d="M 773.535 447.206 C 778.336 448.759 778.199 448.592 778.819 454.501 C 781.462 479.724 796.34 492.354 817.513 502.615 C 816.708 499.365 811.348 478.825 812.043 477.482 C 816.491 468.892 818.798 480.449 819.173 481.465 C 823.913 494.306 833.744 500.592 845.265 506.349 C 847.16 507.078 860.473 509.714 854.894 513.821 C 848.214 518.74 825.966 499.399 823.73 499.201 C 822.233 499.922 828.117 510.345 820.972 508.853 C 794.833 503.397 769.022 474.917 773.535 447.206 z" fill="rgb(14,10,61)" transform="translate(0,0)"></path>
<path d="M 1270.83 448.24 C 1278.72 449.626 1276.89 451.636 1275.28 460.519 C 1273.25 471.506 1267.93 481.616 1260.02 489.509 C 1252.92 496.699 1238.79 506.534 1228.59 508.066 C 1223.11 508.889 1228.14 499.958 1227.15 499.417 C 1225.7 499.504 1203.17 517.088 1196.92 514.339 C 1190.68 511.59 1196.92 508.942 1199.58 508.01 L 1202.48 506.996 C 1211.89 504.514 1225.69 493.335 1230.04 484.528 C 1231.12 483.179 1232.74 475.078 1234.07 474.525 C 1243.63 470.557 1234.01 498.005 1233.34 500.997 C 1260.58 486.756 1267.02 478.081 1270.83 448.24 z" fill="rgb(14,10,61)" transform="translate(0,0)"></path>
<path d="M 1439.93 624.924 C 1460.12 631.389 1480.42 640.929 1498.47 652.06 C 1508.09 657.992 1523.16 667.216 1519.8 680.693 C 1511.3 689.85 1498.16 675.192 1490.9 677.732 L 1489.54 679.402 C 1492.86 685.641 1553.5 711.647 1570.2 745.457 C 1572.21 749.535 1574.48 755.152 1573 759.76 C 1572.15 762.413 1570.32 763.892 1567.87 765.001 C 1557.4 769.747 1536.56 759.064 1530.6 763.304 C 1531.12 766.709 1535.8 770.416 1538.69 772.079 C 1563.71 786.501 1638.82 862.484 1627.85 892.18 C 1617.16 900.707 1597.7 879.719 1586.84 881.071 C 1587.09 888.356 1605.43 900.445 1611.74 906.103 C 1631.99 924.259 1695.43 988.297 1674.61 1017.11 C 1661.4 1024.41 1649.04 999.51 1640.94 1001.78 C 1640.22 1007.63 1653.74 1023.94 1657.46 1031.58 C 1674.14 1065.84 1676.57 1103.85 1662.87 1139.57 C 1658.54 1150.85 1646.6 1174.55 1632.39 1173.45 C 1622.98 1168.91 1626.95 1151.66 1622.89 1142.9 L 1621.47 1142.32 L 1620.1 1143.26 C 1618.68 1152.86 1617.44 1162.49 1616.16 1172.12 C 1610.82 1212.07 1584.31 1249.2 1546.5 1264.31 C 1540.06 1266.87 1528.08 1269.97 1521.68 1266.99 C 1520.3 1256.96 1543 1230.18 1539.19 1219.58 C 1536.88 1219.91 1535.19 1220.34 1533.99 1222.81 C 1519.69 1252.1 1489.99 1270.59 1459.01 1278.37 C 1449.08 1280.87 1407.29 1287.45 1403.15 1272.6 C 1400.29 1262.34 1426.56 1234.55 1419.84 1222.96 C 1417.55 1222.23 1415.46 1222.42 1413.26 1223.52 C 1381.87 1239.28 1345.59 1252.19 1310.06 1244.63 C 1263.37 1234.69 1323.46 1203.75 1324.57 1194.55 C 1320.56 1193.05 1311.89 1196.77 1307.88 1198.2 C 1277.31 1209.14 1232.69 1203.61 1209.68 1179.12 C 1199.97 1168.8 1191.46 1161.94 1181.28 1152.57 C 1180.62 1154.59 1180.18 1155.96 1177.56 1156.18 C 1152.74 1132.25 1152.63 1099.3 1175.63 1074.14 C 1162.84 1060.68 1156.37 1045.49 1159.56 1026.61 C 1161.83 1013.2 1168.71 999.211 1181.41 993.024 C 1182.56 995.246 1183.01 995.316 1183.11 997.499 C 1185.85 1000.47 1190.07 1005.21 1193.51 1007.04 C 1201.07 1011.09 1218.35 1019.81 1226.01 1014.53 L 1226.84 1012.43 C 1222.15 1007.9 1208.88 1008.82 1202.61 1006.44 C 1190.71 1001.92 1182.23 987.601 1182.58 975.266 C 1183.27 950.764 1199.9 929.408 1225.72 930.198 C 1243.88 930.753 1262.4 947.301 1278.47 934.309 C 1281.01 932.158 1283.51 928.245 1283.36 924.82 L 1282.08 923.662 C 1270.49 925.092 1280.37 934.107 1257.88 933.01 C 1258.46 919.865 1259.16 906 1259.26 892.872 C 1273.58 886.854 1285.97 881.987 1301.74 883.653 C 1340.28 887.724 1369.15 910.153 1386.83 943.378 C 1416.62 930.17 1440.08 925.233 1472.31 936.887 C 1492.18 944.074 1511.36 961.019 1522.44 978.778 C 1524.82 982.592 1527.78 989.715 1531.94 989.504 C 1532.98 987.342 1533.22 985.907 1531.96 983.572 C 1513.36 949.026 1478.26 924.178 1438.2 924.625 C 1419.25 924.836 1406.88 929.288 1389.18 935.072 C 1362.46 890.397 1309.81 863.473 1259.7 886.404 C 1259.84 874.499 1261.4 842.244 1259.02 832.469 C 1251.97 803.566 1179.84 792.869 1156.8 790.228 C 1236.01 767.519 1390.3 718.692 1431.27 643.532 C 1434.53 637.544 1437.2 631.169 1439.93 624.924 z" fill="rgb(221,224,236)" transform="translate(0,0)"></path>
<path d="M 1175.63 1074.14 C 1162.84 1060.68 1156.37 1045.49 1159.56 1026.61 C 1161.83 1013.2 1168.71 999.211 1181.41 993.024 C 1182.56 995.246 1183.01 995.316 1183.11 997.499 C 1149.07 1028.92 1164.51 1075.18 1207.58 1084.29 C 1212.56 1085.35 1220.59 1085.18 1220.8 1090.44 C 1213.51 1096.82 1186.94 1083.52 1179.65 1078.2 C 1157.39 1101.22 1160.3 1130.01 1181.28 1152.57 C 1180.62 1154.59 1180.18 1155.96 1177.56 1156.18 C 1152.74 1132.25 1152.63 1099.3 1175.63 1074.14 z" fill="rgb(14,10,61)" transform="translate(0,0)"></path>
<path d="M 608.01 626.06 C 612.463 626.577 613.597 632.986 615.929 637.55 C 620.087 645.576 624.928 653.23 630.398 660.427 C 658.153 697.43 717.372 737.899 757.501 760.585 C 750.096 800.315 741.827 839.444 734.759 879.369 C 733.075 879.748 731.396 880.149 729.722 880.571 C 696.904 888.891 675.684 907.547 658.733 935.903 L 657.284 935.313 C 627.358 923.27 601.679 919.975 570.016 932.718 C 548.111 941.534 525.238 962.908 514.349 984.442 C 513.121 986.87 513.722 987.263 514.536 988.94 C 516.416 988.773 517.341 988.835 518.629 987.03 C 526.901 975.445 532.826 966.175 543.765 956.378 C 554.919 946.22 568.225 938.716 582.688 934.426 C 609.901 926.513 636.303 930.069 661.026 943.455 C 680.519 906.5 719.221 878.716 762.798 884.969 C 771.966 886.285 780.747 890.38 789.101 894.191 C 777.43 910.241 775.496 914.382 769.983 933.511 C 767.726 928.926 767.635 927.387 763.276 925.851 L 761.717 926.87 C 759.066 942.948 794.049 949.849 806.341 945.955 C 818.383 942.141 821.028 942.279 831.676 934.198 C 835.761 935.281 839.9 936.222 843.746 938.124 C 871.999 952.093 880.083 996.741 844.293 1006.81 C 837.646 1008.68 830.764 1008.41 824.13 1010.4 C 822.57 1012.6 822.839 1011.4 823.245 1013.99 C 836.167 1019.12 858.528 1008.35 867.629 998.62 C 882.103 1010.78 888.998 1024.71 885.645 1044.26 C 882.543 1062.34 866.003 1076.16 849.602 1082.37 C 843.888 1084.53 835.221 1084.55 829.665 1087.38 C 828.649 1087.93 829.074 1088.94 829.122 1090.53 L 830.689 1091.89 C 842.036 1093.57 860.863 1083.77 870.387 1077.96 C 873.435 1080.53 876.007 1082.98 878.371 1086.25 C 885.399 1096.09 888.185 1108.34 886.104 1120.25 C 882.222 1142.45 864.81 1153.18 849.956 1167.03 C 843.118 1173.41 840.053 1180.75 830.626 1187.09 C 805.563 1203.95 776.224 1206.04 747.48 1201.02 C 740.977 1199.47 726.945 1193.34 725.99 1193.27 L 724.414 1194.71 C 724.248 1195.64 724.082 1196.57 723.916 1197.5 C 733.972 1207.44 748.358 1212.88 755.54 1226.45 C 756.737 1228.4 758.053 1233.24 756.568 1235.28 C 744.775 1251.54 708.376 1247.12 692.92 1244.32 C 668.91 1239.98 654.747 1233.85 633.932 1223.22 C 631.429 1221.94 630.43 1222.54 628.456 1223.51 C 618.275 1241.42 687.337 1296.1 595.462 1279.33 C 561.646 1273.16 531.975 1255.69 515.496 1224.87 C 514.275 1222.59 512.774 1220.28 510.237 1219.73 L 507.868 1221.68 C 504.758 1231.57 527.082 1253.39 527.351 1265.28 C 523.536 1272.52 509.179 1267.19 503.021 1264.81 C 464.18 1249.82 439.574 1214.53 433.291 1174.06 C 431.762 1164.2 431.723 1153.4 429.294 1143.8 C 429 1142.72 428.105 1142.96 426.863 1142.72 C 420.97 1148.4 425.282 1165.26 418.963 1171.56 C 411.344 1178.84 399.373 1164.35 395.725 1158.7 C 369.911 1118.68 370.183 1060.16 397.947 1021.03 C 401.382 1016.19 407.647 1007.77 408.002 1002.1 L 407.106 1001.25 C 398.498 1004.29 370.663 1037.87 371.226 1001.51 C 371.392 990.793 378.98 975.313 384.592 966.173 C 398.527 943.479 418.322 923.635 437.775 905.535 C 443.837 899.854 461.598 888.961 462.06 881.81 C 455.717 879.303 420.416 902.05 419.429 891.681 C 417.313 869.434 441.108 837.47 454.921 821.932 C 466.793 808.762 479.633 796.497 493.333 785.241 C 498.682 780.846 516.431 769.068 517.929 763.607 C 513.551 760.154 492.274 769.186 482.92 765.143 C 465.158 757.466 484.771 734.754 492.619 727.081 C 511.265 708.852 532.755 694.541 555.928 682.898 C 558.044 681.839 559.642 679.92 560.508 677.782 C 550.939 677.216 538.059 687.742 530.54 679.395 C 525.748 656.627 590.185 631.715 608.01 626.06 z" fill="rgb(221,224,236)" transform="translate(0,0)"></path>
<path d="M 890.148 834.344 C 910.354 795.432 1040.46 790.113 1081.12 791.2 C 1128.28 792.46 1210.76 794.699 1248.55 825.356 C 1259.94 834.589 1252.95 912.376 1251.87 931.646 C 1234.62 923.898 1221.02 920.991 1202.95 930.122 C 1180.84 941.3 1169.57 970.599 1181.41 993.024 C 1168.71 999.211 1161.83 1013.2 1159.56 1026.61 C 1156.37 1045.49 1162.84 1060.68 1175.63 1074.14 C 1152.63 1099.3 1152.74 1132.25 1177.56 1156.18 C 1163.18 1164.45 1120.23 1171.3 1103.98 1172.28 C 1061.63 1174.82 1003.17 1172.58 970.021 1142.46 C 920.941 1097.87 915.59 996.876 904.685 934.4 C 899.469 904.512 892.261 863.011 890.148 834.344 z" fill="rgb(247,248,249)" transform="translate(0,0)"></path>
<path d="M 1064.83 803.454 C 1098.81 802.751 1210.01 809.771 1232.24 829.796 C 1281.68 874.323 1096.13 883.14 1081.32 883.631 C 1038.72 883.398 948.045 879.889 913.685 856.16 C 909.496 853.267 905.258 849.082 904.632 843.763 C 904.185 839.962 905.802 836.543 908.333 833.815 C 929.474 811.039 1033.42 804.559 1064.83 803.454 z" fill="rgb(14,10,61)" transform="translate(0,0)"></path>
<path d="M 1057.32 809.439 C 1107.38 807.457 1184.26 812.265 1230.67 834.43 C 1235.03 836.512 1238.88 844.34 1234.24 847.333 C 1197.73 870.865 1132.81 876.212 1090.75 877.398 C 1043.96 879.846 960.367 874.013 916.822 852.031 C 914.043 850.481 909.979 846.597 909.856 843.28 C 909.459 832.571 929.94 828.403 938.009 826.073 C 977.204 814.754 1016.75 811.194 1057.32 809.439 z" fill="rgb(169,67,66)" transform="translate(0,0)"></path>
<path d="M 1129.26 857.432 C 1114.12 859.804 1059.4 867.607 1048.75 857.002 L 1048.8 855.401 C 1052.96 853.576 1072.1 855.737 1078.22 855.726 C 1091.59 855.704 1136.52 854.714 1144.22 841.979 C 1142.36 821.903 1013.62 819.557 1004.92 840.074 C 1007.16 847.425 1016.83 845.987 1020.8 851.243 C 1019.55 854.047 1020.51 852.858 1017.37 854.497 C 1012.22 854.737 1007.64 852.835 1004.05 849.296 C 986.096 832.518 1018.79 823.913 1032.13 822.664 C 1046.34 821.333 1057.66 819.762 1074.11 820.606 C 1088.74 821.357 1152.72 819.452 1150.63 843.952 C 1150.06 850.739 1136.3 854.326 1129.98 857.099 C 1129.73 857.188 1129.49 857.299 1129.26 857.432 z" fill="rgb(14,10,61)" transform="translate(0,0)"></path>
<path d="M 1177.46 835.407 C 1185.4 837.873 1186.39 840.563 1180.95 846.156 C 1170.25 846.242 1171.51 842.838 1177.46 835.407 z" fill="rgb(236,68,96)" transform="translate(0,0)"></path>
<path d="M 1020.88 857.795 C 1028.85 858.083 1032.06 857.13 1029.03 866.323 C 1021.66 865.695 1018.69 865.717 1020.88 857.795 z" fill="rgb(247,171,138)" transform="translate(0,0)"></path>
<path d="M 983.62 842.714 C 985.607 841.167 988.467 841.5 990.046 843.462 C 991.624 845.424 991.337 848.289 989.4 849.898 C 988.12 850.963 986.365 851.254 984.81 850.661 C 983.254 850.067 982.139 848.681 981.892 847.035 C 981.646 845.388 982.306 843.737 983.62 842.714 z" fill="rgb(247,171,138)" transform="translate(0,0)"></path>
<path d="M 967.76 839.224 C 970.096 838.871 972.301 840.407 972.778 842.721 C 973.255 845.035 971.838 847.318 969.552 847.918 C 967.962 848.335 966.27 847.84 965.156 846.631 C 964.041 845.422 963.685 843.696 964.231 842.144 C 964.776 840.593 966.134 839.469 967.76 839.224 z" fill="rgb(246,154,143)" transform="translate(0,0)"></path>
<path d="M 1167.07 853.056 C 1169.18 851.934 1171.8 852.731 1172.94 854.839 C 1174.07 856.947 1173.29 859.574 1171.19 860.718 C 1169.07 861.87 1166.42 861.081 1165.28 858.957 C 1164.13 856.833 1164.94 854.186 1167.07 853.056 z" fill="rgb(246,154,143)" transform="translate(0,0)"></path>
<path d="M 1129.98 857.099 C 1132.11 856.343 1134.45 857.394 1135.31 859.485 C 1136.16 861.576 1135.22 863.97 1133.17 864.921 C 1131.13 865.873 1128.69 865.047 1127.64 863.045 C 1126.6 861.043 1127.31 858.571 1129.26 857.432 C 1129.49 857.299 1129.73 857.188 1129.98 857.099 z" fill="rgb(247,171,138)" transform="translate(0,0)"></path>
<path d="M 977.14 828.504 C 978.483 827.875 980.06 828.022 981.264 828.887 C 982.468 829.752 983.11 831.201 982.942 832.674 C 982.774 834.147 981.822 835.414 980.455 835.986 C 978.4 836.846 976.035 835.905 975.133 833.868 C 974.231 831.832 975.123 829.448 977.14 828.504 z" fill="rgb(246,154,143)" transform="translate(0,0)"></path>
<path d="M 1370.96 475.175 C 1402.24 489.267 1414.72 512.654 1404.02 546.033 C 1401.99 552.364 1398.07 558.531 1396.69 564.966 L 1398.2 566.891 L 1400.25 567.012 C 1403.21 564.06 1405.46 556.979 1407.12 552.785 C 1420.44 568.31 1437.86 584.835 1437.23 605.934 C 1436.53 629.948 1419.64 655.431 1402.56 671.31 C 1355.65 714.908 1283.66 741.793 1224.05 763.326 C 1200.37 771.88 1163.52 783.136 1139.5 787.364 C 1135.18 788.124 1088.61 785.785 1079.49 785.698 C 1052.86 785.797 1026.24 786.924 999.694 789.075 C 980.627 738.174 983.933 654.3 1011.88 607.03 C 1086.96 607.085 1161.54 594.918 1232.71 571.007 C 1279.39 554.847 1348.96 520.542 1370.96 475.175 z" fill="rgb(236,68,96)" transform="translate(0,0)"></path>
<path d="M 1024.08 628.455 C 1043.32 637.627 1062.25 653.501 1062.15 676.661 C 1062.12 684.561 1060 690.607 1057.69 698.039 C 1056.88 699.665 1056.1 701.155 1055.25 702.755 C 1031.83 731.238 1024.05 746.237 1052.55 776.661 C 1039.44 769.084 1026.55 757.158 1022.46 742.123 C 1019.4 730.406 1021.03 717.955 1027.02 707.427 C 1027.74 706.203 1028.5 705.002 1029.3 703.826 C 1031.35 701.891 1032.36 700.578 1034.16 698.381 C 1059.87 674.489 1043.32 648.394 1024.08 628.455 z" fill="rgb(247,248,249)" transform="translate(0,0)"></path>
<path d="M 1114.92 656.698 C 1123.51 669.084 1122.38 682.773 1118.09 696.435 L 1115.26 701.802 L 1114.65 702.781 C 1105.12 717.743 1088.56 730.381 1093.48 750.682 C 1096.31 762.343 1104 770.221 1112.58 777.793 C 1080.45 760.502 1069.32 735.599 1089.81 702.82 C 1091.15 700.995 1092.47 698.916 1093.79 697.027 C 1104.5 684.369 1108.48 672.875 1102.79 656.819 C 1107.25 658.2 1110.7 659.011 1114.92 656.698 z" fill="rgb(247,248,249)" transform="translate(0,0)"></path>
<path d="M 1118.09 696.435 C 1180.55 689.387 1225.66 676.273 1281.57 646.012 C 1297.67 637.226 1313.2 627.431 1328.07 616.686 C 1333.4 612.799 1343.82 602.216 1349.66 602.694 L 1350.92 604.923 C 1349.14 608.288 1339.97 614.54 1336.54 617.125 C 1279.61 659.958 1209.52 689.983 1138.87 699.841 C 1134.16 700.497 1118.98 703.057 1115.26 701.802 L 1118.09 696.435 z" fill="rgb(14,10,61)" transform="translate(0,0)"></path>
<path d="M 1081.15 625.809 C 1092.48 633.743 1108.1 644.985 1114.92 656.698 C 1110.7 659.011 1107.25 658.2 1102.79 656.819 C 1098.58 646.375 1088.15 635.476 1081.15 625.809 z" fill="url(#Gradient1)" transform="translate(0,0)"></path>
<path d="M 1057.69 698.039 C 1062.9 697.994 1091.84 696.285 1093.79 697.027 C 1092.47 698.916 1091.15 700.995 1089.81 702.82 C 1079.95 703.062 1065.13 703.199 1055.25 702.755 C 1056.1 701.155 1056.88 699.665 1057.69 698.039 z" fill="rgb(14,10,61)" transform="translate(0,0)"></path>
<path d="M 1029.3 703.826 C 1025.16 703.804 1005.16 703.937 1003.01 699.047 C 1001.15 694.797 1007.47 696.443 1009.5 696.809 C 1017.68 698.284 1025.81 698.434 1034.16 698.381 C 1032.36 700.578 1031.35 701.891 1029.3 703.826 z" fill="rgb(14,10,61)" transform="translate(0,0)"></path>
<path d="M 877.585 572.421 C 909.916 570.508 967.456 588.776 995.806 604.494 C 958.933 666.508 948.52 726.968 944.917 798.023 C 925.596 802.775 883.333 813.536 885.237 840.28 C 885.782 847.936 887.081 856.825 888.032 864.548 C 867.646 861.891 859.143 860.772 838.78 863.84 C 818.151 869.311 807.925 875.408 792.787 890.016 C 774.368 879.609 761.054 877.07 740.46 878.114 C 755.939 796.389 776.878 655.678 832.304 592.807 C 845.008 578.398 858.971 573.665 877.585 572.421 z" fill="rgb(236,68,96)" transform="translate(0,0)"></path>
<path d="M 831.242 709.28 C 832.008 709.599 834.738 710.689 834.714 711.267 C 834.481 716.832 826.754 737.634 825.28 743.018 L 824.755 744.986 C 820.957 758.921 817.45 772.935 814.236 787.017 C 812.624 794.301 811.012 806.402 808.247 812.645 C 800.546 810.389 803.864 806.724 805.727 798.476 L 807.815 789.483 L 808.251 787.513 C 809.375 782.659 810.575 777.823 811.758 772.984 C 813.497 765.972 815.324 758.983 817.239 752.018 C 821.501 737.113 825.128 723.631 831.242 709.28 z" fill="rgb(14,10,61)" transform="translate(0,0)"></path>
<path d="M 891.681 1115.24 C 901.982 1120.52 909.738 1129.74 917.461 1138.25 C 940.148 1163.25 957.774 1174.49 989.504 1184.25 C 982.002 1241.06 958.882 1298.14 976.308 1355.65 C 978.792 1365.52 992.512 1380.4 987.763 1390.73 C 976.779 1414.62 947.715 1397.53 932.35 1402.15 C 915.045 1407.36 905.816 1425.01 882.795 1414.89 C 865.367 1407.23 853.055 1415.13 837.439 1421.38 C 833.695 1422.31 829.853 1422.79 825.996 1422.8 C 804.453 1422.71 796.63 1408.18 779.589 1402.58 C 765.136 1399.03 751.525 1403.18 740.104 1390.93 C 721.59 1371.09 735.991 1356.36 744.017 1336.52 C 752.466 1315.62 755.554 1293.43 756.068 1270.86 C 794.419 1272.82 821.485 1264.68 832.676 1223.83 C 850.611 1226.85 868.391 1224.64 883.683 1214.28 C 895.528 1206.4 903.657 1194.04 906.199 1180.04 C 909.942 1158.86 902.505 1144.34 890.976 1127.86 C 891.061 1123.83 891.438 1119.31 891.681 1115.24 z" fill="rgb(236,68,96)" transform="translate(0,0)"></path>
<path d="M 919.883 1310.16 C 923.294 1311.1 924.713 1310.66 924.36 1314.98 C 922.834 1333.67 921.215 1352.54 925.735 1371 C 926.606 1374.56 929.098 1379.58 928.812 1382.9 C 928.692 1383.21 928.571 1383.52 928.45 1383.83 L 927.935 1385.19 C 913.385 1376.79 916.269 1324.99 919.883 1310.16 z" fill="rgb(14,10,61)" transform="translate(0,0)"></path>
<path d="M 795.754 1315.23 C 803.38 1317.29 800.813 1319.57 801.026 1327.85 C 801.544 1347.95 797.466 1366.7 791.876 1385.85 C 782.535 1382.79 789.803 1379.58 790.756 1369.98 C 791.018 1367.35 792.616 1359.25 793.274 1356.5 C 796.459 1343.18 793.666 1327.98 795.754 1315.23 z" fill="rgb(14,10,61)" transform="translate(0,0)"></path>
<path d="M 860.808 1320.21 C 865.561 1323.04 864.976 1323.78 864.048 1329.5 C 860.995 1348.27 860.189 1366.56 862.006 1385.52 C 862.132 1386.84 861.157 1388.72 860.632 1389.81 C 858.325 1388.33 857.366 1388.31 856.967 1385.55 C 854.202 1366.49 855.597 1347.39 858.818 1328.49 C 859.385 1325.17 859.829 1323.42 860.808 1320.21 z" fill="rgb(14,10,61)" transform="translate(0,0)"></path>
<path d="M 679.005 474.857 C 681.644 476.565 692.071 491.778 695.208 495.623 C 729.745 537.953 783.265 564.477 833.025 583.699 C 791.834 629.186 772.527 696.999 759.24 755.222 C 756.021 753.506 751.776 750.771 748.547 748.835 C 727.305 735.776 706.685 721.73 686.755 706.743 C 657.414 684.375 618.764 649.755 613.252 611.366 C 609.783 587.206 627.313 571.576 641.363 553.356 C 642.308 555.238 643.275 557.11 644.261 558.971 C 645.993 562.218 647.897 566.07 651.65 567.201 C 656.363 554.138 613.193 509.044 679.005 474.857 z" fill="rgb(236,68,96)" transform="translate(0,0)"></path>
<path d="M 697.786 619.045 C 699.067 619.642 700.296 620.198 701.425 621.095 C 719.741 635.659 738.889 648.879 758.287 661.774 C 759.405 662.517 758.637 666.061 758.487 667.011 C 741.409 661.221 711.443 635.508 697.269 623.419 C 696.525 622.784 697.08 621.066 697.354 620.309 L 697.786 619.045 z" fill="rgb(14,10,61)" transform="translate(0,0)"></path>
<path d="M 854.487 867.394 C 865.558 866.271 877.855 868.364 888.661 870.449 C 890.146 885.453 894.102 905.248 896.55 920.661 C 895.936 920.33 895.318 920.004 894.696 919.685 C 878.689 911.5 862.961 907.967 845.183 913.217 C 827.839 918.339 830.517 925.25 821.923 934.092 C 812.625 939.82 782.673 946.734 776.347 934.833 C 776.997 923.52 785.31 906.586 792.75 897.959 C 809.844 878.141 829.213 869.9 854.487 867.394 z" fill="rgb(247,248,249)" transform="translate(0,0)"></path>
<path d="M 888.78 1054.02 C 900.997 1061.58 907.476 1061.14 921.336 1060.92 C 924.842 1073.75 930.825 1090.41 935.981 1102.77 C 931.091 1103.22 926.524 1103.72 921.599 1104 C 911.683 1103.64 903.497 1103.02 894.091 1099.65 L 892.227 1098.96 L 890.308 1098.29 C 885.083 1086.28 883.683 1083.12 874.256 1073.88 C 881.966 1065.67 883.141 1063.54 888.78 1054.02 z" fill="rgb(247,248,249)" transform="translate(0,0)"></path>
<path d="M 638.855 1811.26 C 665.329 1808.99 711.964 1820.71 732.944 1837.51 C 741.703 1844.52 767.388 1862.26 769.497 1873.65 C 768.924 1873.7 765.87 1873.76 765.483 1873.36 C 736.792 1844.09 704.244 1820.75 662.12 1818.07 C 657.984 1817.81 642.973 1816.84 640.086 1815.38 L 638.855 1811.26 z" fill="rgb(221,224,236)" transform="translate(0,0)"></path>
<path d="M 1394.67 1811.41 C 1398.06 1810.87 1403.94 1810.56 1407.14 1811.89 L 1407.55 1813.85 C 1407.23 1814.39 1406.91 1814.93 1406.59 1815.47 C 1395.3 1817.67 1379.37 1818.36 1368.39 1820.78 C 1337.97 1827.72 1310.59 1844.26 1290.3 1867.96 C 1287.65 1871.24 1286.17 1873.7 1281.98 1874.45 L 1281.31 1873.3 C 1284.14 1856.28 1320.15 1834.46 1334.35 1826.85 C 1352.49 1817.13 1374.45 1813.68 1394.67 1811.41 z" fill="rgb(221,224,236)" transform="translate(0,0)"></path>
<path d="M 873.232 974.252 C 876.468 974.931 881.404 974.59 881.058 978.444 C 880.65 983.001 885.064 1002.28 882.681 1005.06 C 878.218 999.588 877.306 999.167 872.194 994.743 L 870.993 993.693 C 873.044 983.257 872.945 984.79 873.232 974.252 z" fill="rgb(221,224,236)" transform="translate(0,0)"></path>
<path d="M 847.985 917.78 C 853.04 917.658 850.02 927.105 849.806 932.326 C 846.467 931.587 842.87 930.87 839.591 929.993 C 837.934 929.42 834.813 928.644 833.45 927.578 C 833.386 927.528 833.379 927.372 833.414 927.316 C 835.968 923.233 844.237 919.382 847.985 917.78 z" fill="rgb(236,68,96)" transform="translate(0,0)"></path>
<path d="M 1365.98 1289.34 C 1366.23 1288.68 1368.49 1282.51 1368.72 1282.17 C 1373.88 1274.73 1367.69 1290.52 1367.37 1291.37 L 1365.98 1289.34 z" fill="rgb(184,182,211)" transform="translate(0,0)"></path>
<metadata><recraft-signature>{"signed_by": "recraft", "signature_b64": "EV0rdaaRIRIR2kghJ9j+YBJ4w1SXMw+e5dpjSSwXjciBJsTVuDBb8tV2g0QLVUd6uuhrFfcnMSNRj/CPYrwUCg==", "signing_algo": "Ed25519", "generation_timestamp": 1778557764, "identifier": "2bb7018c-9d3c-470d-bd0e-9b348db4c6c8"}</recraft-signature></metadata></svg>