<svg xmlns="http://www.w3.org/2000/svg" height="1024" preserveAspectRatio="none" style="display: block;" version="1.1" viewBox="0 0 2048 2048" width="1024">

<path d="M 1020.08 125.41 C 1005.11 118.263 994.331 105.33 1001.32 88.118 C 1004.31 80.7806 1010.12 74.9473 1017.44 71.9234 C 1052.22 57.7026 1073.37 112.564 1031.94 125.776 C 1044.24 147.789 1061.44 180.956 1071.34 203.929 L 1121.51 161.679 C 1089.84 135.8 1121.73 98.0997 1147.66 116.621 C 1153.92 121.142 1158 128.078 1158.92 135.747 C 1160.97 153.449 1147.58 162.03 1131.62 163.217 C 1124.98 196.544 1122.24 235.314 1116.4 269.244 C 1116.34 269.54 1121.03 275.218 1120.97 277.83 C 1120.76 286.626 1123.37 302.479 1117.94 309.364 L 1115.58 312.359 L 1114.54 313.662 C 1164.7 349.875 1186.35 374.341 1210.62 433.391 C 1231.87 416.465 1290.3 376.347 1316.73 380.531 C 1352.29 386.161 1346.35 432.183 1318.41 451.871 C 1341.36 453.655 1365.46 469.857 1348.4 495.358 C 1339.8 508.199 1319.86 511.009 1305.29 513.143 C 1308.29 515.223 1311.14 517.51 1313.82 519.987 C 1336.45 540.661 1323.18 568.56 1294.11 567.647 C 1267.93 566.825 1250.9 557.766 1233.01 539.685 C 1235.35 556.696 1235.56 575.465 1236.14 592.782 C 1250.66 598.763 1262.63 609.619 1270.01 623.481 C 1279.96 642.514 1278.39 659.621 1272.28 679.359 C 1302.85 692.936 1312.67 709.211 1307.69 742.627 C 1342.39 738.656 1385.55 728.307 1419.51 718.46 C 1583.1 671.013 1748.19 603.821 1872.52 483.717 C 1885.08 471.578 1906.26 452.928 1925.22 452.219 C 1979.88 454.247 1953.07 526.24 1937.57 553.677 C 1915.37 596.836 1890.41 626.507 1855.39 659.529 L 1857.44 661.483 C 1883.64 648.126 1929.7 619.166 1959.48 626.328 C 1984.39 632.318 1979.66 671.553 1971.38 690.111 C 1948.67 741.068 1901.12 778.604 1853.16 804.677 L 1853.62 808.367 C 1878.86 805.593 1930.03 796.422 1952.12 811.336 C 1970.4 823.678 1957.03 854.481 1944.72 866.715 C 1910.89 905.079 1865.95 922.026 1817.61 934.197 C 1845.38 943.385 1884.46 944.743 1893.44 977.542 C 1883.47 1021.26 1815.26 1038.3 1777.22 1042.08 C 1765.92 1043.21 1753.61 1043.49 1742.2 1043.94 C 1760.64 1053.92 1792.11 1061.72 1807.15 1074.38 C 1844.09 1105.49 1786.9 1135.43 1760.85 1141.07 C 1718.78 1150.2 1695.85 1147.75 1656.39 1137.22 C 1690.45 1162.75 1739.01 1208.99 1659.01 1220.91 C 1630.34 1225.18 1586.35 1213.13 1560.4 1200.33 L 1560.41 1205.09 C 1573.74 1218.59 1609.88 1252.9 1590.72 1274.19 C 1584.07 1281.58 1568.38 1282.42 1558.96 1282.09 C 1520.95 1280.31 1497.16 1267.39 1465.81 1249.3 C 1474.04 1266.54 1493.74 1299.81 1467.84 1311.94 C 1456.9 1317.07 1441.93 1313.02 1431.27 1308.5 C 1370.93 1281.32 1341.59 1229.03 1316.3 1172.56 C 1302.58 1248.01 1279.31 1305.52 1228.82 1364.41 C 1309.33 1383.7 1464.51 1437.73 1516.97 1509 C 1521.95 1515.77 1525.36 1528.06 1523.4 1536.94 C 1521.93 1543.82 1517.67 1549.78 1511.63 1553.38 C 1483.95 1569.94 1430.55 1547 1405.44 1533.79 C 1433.9 1564.1 1469.38 1600.86 1470.88 1645.04 C 1471.5 1663.47 1458.57 1683.38 1438.06 1680.79 C 1395.9 1675.46 1358.94 1645.37 1328.26 1618.01 L 1325.3 1619.37 C 1338.94 1645.88 1363.91 1713.52 1330.94 1734.64 L 1329.96 1734.76 C 1290.65 1739.89 1248.65 1683.56 1232.49 1653.48 C 1234.64 1670.83 1238.17 1690.34 1230.9 1706.94 C 1222.81 1724.83 1204 1724.69 1188.86 1715.99 C 1169.46 1704.84 1159.01 1686.34 1149.27 1666.86 C 1140.56 1649.43 1135.81 1630.96 1130.65 1612.19 C 1128.35 1626.21 1127.49 1647.06 1126.61 1661.41 C 1125.05 1686.2 1123.64 1711 1122.39 1735.81 L 1118.08 1822.72 C 1117.04 1841.39 1115.42 1861.13 1115.02 1879.73 C 1132.22 1891.13 1162.95 1914.83 1169.77 1936.11 C 1170.69 1939.34 1170.33 1944.43 1168.09 1947.06 C 1153.06 1964.76 1139.85 1935.3 1131.64 1925.59 C 1127.55 1920.76 1124.29 1917.74 1119.85 1913.76 C 1122.72 1928.04 1133.39 1971.55 1110.71 1974.44 C 1089.27 1977.17 1091.44 1930.3 1090.75 1915.59 C 1078.52 1926.84 1075.66 1938.13 1066.96 1951.46 C 1063.69 1958.25 1051.05 1957.92 1047.29 1952.58 C 1033.68 1933.29 1080.7 1889.51 1091.27 1880.72 C 1088.83 1849.28 1084.41 1814.69 1081.08 1783.1 L 1060.45 1588.8 C 1056.07 1548.5 1050.97 1507.33 1047.47 1467.09 C 1034.71 1469.21 1020.51 1469.48 1007.52 1469.84 C 1004.53 1517.33 995.154 1579.99 989.481 1628.83 L 972.257 1771.47 C 967.966 1807.85 964.278 1844.27 959.083 1880.56 C 975.559 1895.74 1000.26 1919.56 1005.16 1942.35 C 1008 1955.53 989.599 1964.54 981.634 1950.96 C 973.66 1937.37 968.817 1926.18 958.059 1914.33 C 957.425 1930.09 961.319 1978.16 936.734 1974.12 C 933.387 1973.6 930.41 1971.71 928.518 1968.9 C 919.589 1955.86 926.639 1929.09 929.433 1914.23 C 925.579 1917.71 922.254 1920.74 918.273 1925.44 C 909.548 1935.94 895.31 1966.47 879.663 1946.36 C 873.578 1938.54 890.227 1918.03 895.26 1912.36 C 906.64 1899.55 918.796 1889.68 933.33 1880.89 C 934.076 1865.06 932.82 1844.26 932.064 1828.4 L 928.515 1753.85 L 919.724 1556.67 C 918.143 1521.65 915.868 1486.92 915.082 1451.82 C 905.101 1447.81 896.083 1443.09 886.684 1437.95 C 862.409 1515.88 829.374 1583.67 766.359 1638.28 C 732.518 1667.61 693.493 1697.87 662.646 1730.78 C 655.651 1738.25 640.566 1764.42 631.307 1762.81 C 622.239 1752.61 640.141 1720.13 650.606 1714.48 C 652.101 1713.67 656.53 1708.72 657.134 1707.37 L 655.25 1706.65 C 637.002 1709.43 625.916 1732.23 611.129 1734.93 C 602.947 1736.42 607.279 1720.94 610.516 1715.25 C 616.738 1704.31 627.093 1692.46 633.472 1681.35 C 634.895 1678.69 634.096 1677.47 632.857 1674.94 C 619.544 1667.94 595.751 1704.72 585.891 1696.83 C 582.084 1686.89 588.282 1675.26 593.511 1666.92 C 597.821 1660.04 615.758 1651.56 617.18 1645.45 C 602.059 1639.65 563.836 1678.1 545.327 1676.4 C 543.228 1675.18 542.05 1675 541.454 1672.07 C 538.106 1655.65 570.844 1643.45 573.994 1638.62 L 573.22 1637.21 C 559.491 1632.62 517.823 1662.54 511.843 1650.64 C 512.758 1637.47 552.901 1619.54 564.867 1612.96 C 573.703 1608.19 582.284 1602.95 590.576 1597.29 C 604.718 1587.49 616.609 1575.93 629.09 1564.19 C 589.617 1583.81 540.855 1589.31 501.012 1607.52 C 490.562 1612.29 482.918 1622.23 472.862 1628.2 L 470.83 1627.47 C 464.17 1615.32 485.098 1599.58 494.339 1594.67 C 491.513 1594.37 488.685 1594.09 485.855 1593.82 C 479.752 1595.62 468.718 1597.88 464.265 1592.43 C 465.559 1576.6 506.698 1577.15 506.06 1566.25 C 497.534 1557.17 452.845 1566.73 445.391 1556.38 L 445.985 1553.79 C 454.449 1546.6 483.32 1543.87 486.135 1534.98 C 479.501 1525.83 438.056 1536.55 432.157 1524.7 C 435.081 1508.37 475.907 1505.05 479.696 1500.99 C 478.749 1499.41 478.272 1498.1 476.024 1498.01 C 457.128 1497.26 414.631 1509.67 398.535 1499.85 C 396.711 1496.99 397.054 1498.51 397.469 1495.14 C 415.117 1476.33 523.406 1465.14 556.557 1455.65 C 581.837 1448.63 605.705 1437.27 627.101 1422.08 C 709.202 1364.08 733.598 1266.87 749.325 1173.9 L 734.75 1168.52 C 731.287 1177.76 727.467 1186.87 723.298 1195.83 C 701.961 1241.4 662.826 1291.62 614.52 1309.78 C 598.645 1315.75 575.13 1318.43 568.898 1297.86 C 563.925 1281.43 576.351 1262.27 584.006 1248.19 C 555.313 1266.7 526.523 1280.07 491.931 1281.83 C 478.187 1283.09 451.068 1278.41 451.938 1260.11 C 453.067 1236.35 482.184 1211.02 497.921 1195.64 C 464.049 1212.9 432.755 1222.57 394.053 1221.1 C 381.419 1220.51 360.767 1216.9 352.52 1206.46 C 333.413 1182.27 373.128 1153.45 388.858 1141.38 C 387.943 1140.65 387.122 1139.98 386.171 1139.28 C 350.971 1147.88 315.831 1149.72 280.727 1138.79 C 262.617 1133.74 221.433 1112.28 230.894 1088.38 C 240.306 1064.6 289.047 1052.72 310.428 1043.23 C 270.785 1043.83 234.3 1039.89 197.731 1022.17 C 180.99 1015.01 146.778 989.456 158.577 968.101 C 170.317 946.853 210.646 940.78 232.121 934.053 C 186.607 924.048 140.769 905.43 108.289 870.711 C 95.5542 859.098 77.8981 824.932 96.7851 812.124 C 121.591 795.301 179.832 806.958 207.756 809.37 C 158.413 788.775 104.919 743.235 80.1475 695.006 C 70.0963 678.164 63.5083 634.475 87.9712 627.089 C 120.257 617.34 172.078 652.329 201.122 665.228 C 183.086 649.668 166.457 632.548 151.429 614.067 C 125.534 581.849 88.8662 523.904 91.8652 481.326 C 94.4215 445.033 134.867 447.082 156.513 466.73 C 166.84 476.104 179.896 485.156 190.695 495.61 C 255.556 558.399 332.24 602.387 413.841 639.717 C 517.919 688.142 627.843 722.853 740.857 742.979 C 734.511 710.739 747.237 690.819 777.661 679.987 C 762.804 639.86 777.388 609.208 814.952 590.622 C 815.08 573.759 815.832 556.908 817.207 540.101 C 801.16 555.782 785.147 564.281 762.556 566.692 C 749.75 568.059 736.662 566.319 728.673 555.029 C 725.236 550.251 724.029 544.221 725.362 538.488 C 728.098 526.328 737.261 519.27 747.076 513.101 C 733.077 512.443 718.14 509.641 706.7 500.703 C 694.724 491.411 691.943 473.404 703.316 462.441 C 712.329 453.754 721.472 452.598 733.204 452.715 C 721.015 444.297 713.038 436.871 709.641 421.714 C 705.257 405.988 712.244 382.753 731.306 381.178 C 764.393 378.445 814.128 414.43 839.997 432.772 C 852.259 399.161 873.535 366.429 899.488 341.882 C 905.136 336.54 936.445 312.964 936.484 312.837 C 934.177 312.087 928.828 310.94 927.547 309.232 C 922.766 302.855 925.595 289.686 924.714 281.896 C 924.126 276.704 925.728 274.05 929.037 270.915 L 930.373 269.664 C 929.993 259.951 926.933 241.09 925.621 230.814 L 917.573 163.68 C 909.762 162.185 902.202 160.565 896.208 154.825 C 887.059 146.063 887.792 126.561 897.541 118.496 C 909.355 108.724 927.414 110.422 936.6 123.063 C 946.886 137.217 939.803 151.463 926.832 160.56 C 943.779 175.189 961.672 190.202 978.041 205.369 C 980.274 201.339 982.58 196.447 984.599 192.259 C 995.537 169.575 1009.06 148.002 1020.08 125.41 z" fill="rgb(0,0,0)" transform="translate(0,0)"></path>
<path d="M 1550.64 1195.13 C 1553.87 1196.77 1557.31 1198.47 1560.4 1200.33 L 1560.41 1205.09 C 1557.14 1201.79 1553.88 1198.47 1550.64 1195.13 z" fill="rgb(240,239,240)" transform="translate(0,0)"></path>
<path d="M 1853.62 808.367 C 1851.18 808.79 1849.07 809.261 1846.65 808.822 C 1846.56 808.711 1846.48 808.6 1846.39 808.489 C 1846.9 807.387 1851.84 805.318 1853.16 804.677 L 1853.62 808.367 z" fill="rgb(240,239,240)" transform="translate(0,0)"></path>
<path d="M 386.171 1139.28 C 387.43 1138.82 391.037 1137.28 392.418 1137.69 C 393.404 1138.76 389.381 1141.02 388.858 1141.38 C 387.943 1140.65 387.122 1139.98 386.171 1139.28 z" fill="rgb(240,239,240)" transform="translate(0,0)"></path>
<path d="M 485.855 1593.82 C 487.493 1593.48 495.788 1591.83 496.471 1593.56 C 495.882 1594.31 495.284 1594.38 494.339 1594.67 C 491.513 1594.37 488.685 1594.09 485.855 1593.82 z" fill="rgb(240,239,240)" transform="translate(0,0)"></path>
<path d="M 1855.39 659.529 L 1857.44 661.483 C 1852.13 664.056 1848.68 664.956 1855.39 659.529 z" fill="rgb(240,239,240)" transform="translate(0,0)"></path>
<path d="M 1325.3 1619.37 L 1324.83 1617.99 C 1324.5 1617.06 1323.71 1615.43 1324.59 1614.68 C 1325.81 1614.89 1327.49 1617.07 1328.26 1618.01 L 1325.3 1619.37 z" fill="rgb(240,239,240)" transform="translate(0,0)"></path>
<path d="M 946.994 312.479 C 997.823 311.297 1053.27 311.908 1104.28 312.259 C 1109.05 316.41 1114.93 320.535 1120.23 323.992 C 1164.64 352.924 1190.77 393.597 1209.18 442.241 C 1230.17 421.278 1281.45 388.084 1312.39 384.447 C 1328.54 382.549 1338.24 399.565 1336.82 415.037 C 1335.83 426.621 1330.04 437.262 1320.83 444.369 C 1316.31 447.927 1293.3 459.329 1292.42 460.544 L 1293.17 462.858 C 1296.7 463.744 1305.01 460.225 1308.51 458.797 C 1325.62 451.822 1354.32 463.837 1348.26 485.233 C 1341.17 510.272 1307.01 507.063 1288.47 509.214 L 1288.24 510.528 C 1300.55 516.312 1317.64 523.414 1320.15 536.737 C 1326.99 573.02 1273.2 564.513 1255.29 552.251 C 1243.96 544.499 1239.69 539.556 1232.29 530.479 C 1231.23 523.064 1229.88 500.937 1226.11 497.242 L 1224.19 497.318 C 1222.99 499.785 1223.22 498.365 1223.68 500.939 C 1226.68 517.697 1228.24 535.347 1230.05 552.331 L 1230.43 559.239 C 1231.87 568.742 1231.39 598.629 1231.41 609.043 L 1231.08 618.038 L 1230.73 627.844 C 1173.93 662.89 1112.84 684.28 1045.51 685.094 L 1039.71 674.91 C 1037.34 678.244 1034.93 681.984 1032.63 685.407 C 953.508 684.989 886.797 670.591 819.026 628.773 C 819.655 606.179 818.486 583.14 820.549 560.64 L 820.96 551.273 C 821.396 541.735 822.293 532.224 823.649 522.773 C 824.435 517.211 827.29 500.81 826.926 496.061 L 825.799 495.988 C 820.303 503.252 819.536 521.247 818.23 531.277 C 803.125 549.375 784.631 560.47 761.347 562.443 C 723.709 565.632 718.37 530.594 750.841 516.514 C 754.532 514.914 759.589 512.847 762.561 510.312 L 762.122 509.02 C 757.144 507.872 752.68 508.82 747.661 508.504 C 729.935 507.386 696.622 501.131 701.745 476.408 C 702.993 470.345 706.666 465.055 711.911 461.768 C 720.475 456.291 730.395 456.063 740.146 457.893 C 746.143 459.019 752.06 463.497 756.557 463.186 L 757.566 461.56 C 755.706 459.277 749.532 455.885 746.975 454.627 C 728.864 445.712 709.068 431.076 713.367 407.568 C 722.814 355.905 786.751 406.011 810.519 418.456 C 821.206 424.052 833.677 433.931 841.709 441.085 C 860.818 395.27 880.274 360.442 921.166 329.498 C 930.173 322.682 938.056 318.468 946.994 312.479 z" fill="rgb(234,104,91)" transform="translate(0,0)"></path>
<path d="M 1124.18 539.336 C 1127.54 534.153 1135.23 520.616 1143.02 522.626 C 1156.66 526.148 1156.57 552.412 1169.72 555.364 C 1178.47 557.327 1184.32 538.359 1190.91 534.905 C 1201.82 528.163 1209.06 543.612 1217.43 548.396 C 1221.36 550.725 1224.55 551.346 1228.9 552.131 L 1230.05 552.331 L 1230.43 559.239 L 1229.3 560.988 C 1215.08 564.502 1206.18 553.637 1197.28 544.291 C 1190.3 552.826 1180.14 570.313 1166.88 567.122 C 1155.45 564.367 1146.85 543.572 1140.9 534.011 C 1136.2 541.244 1126.36 555.178 1115.97 549.541 C 1114.28 546.388 1114.6 548.049 1115.19 544.346 C 1118.42 540.621 1119.22 541.172 1124.18 539.336 z" fill="rgb(229,209,195)" transform="translate(0,0)"></path>
<path d="M 1137.86 600.806 C 1132.02 606.51 1119.57 618.959 1110.57 615.578 L 1109.97 613.61 C 1112.83 605.518 1130.91 589.94 1140.2 590.235 C 1146.93 590.448 1153.27 603.905 1157.78 607.924 C 1171.53 620.182 1180.82 590.569 1194.16 591.313 C 1198.64 591.581 1202.05 596.605 1205.18 599.54 C 1215.87 609.577 1218.12 609.129 1231.41 609.043 L 1231.08 618.038 C 1210.27 623.366 1207.82 617.268 1193.36 603.428 C 1187.32 609.881 1173.78 624.947 1164.14 624.208 C 1152.24 623.295 1145.39 608.27 1137.86 600.806 z" fill="rgb(229,209,195)" transform="translate(0,0)"></path>
<path d="M 820.96 551.273 C 836.893 550.481 836.809 540.45 848.896 534.687 C 863.258 527.841 867.38 552.596 878.798 555.257 C 882.605 554.737 886.011 552.442 887.494 549.846 C 898.795 530.06 904.783 507.008 925.296 538.321 C 926.733 540.515 933.019 540.955 935.158 544.998 C 935.472 548.468 935.777 546.84 934.033 550.016 C 923.638 556.878 914.852 541.657 908.705 534.367 L 907.939 535.439 C 897.461 550.332 889.433 579.044 868.225 562.139 C 860.968 556.355 859.167 551.51 853.338 545.589 C 842.821 554.902 835.788 564.083 820.549 560.64 L 820.96 551.273 z" fill="rgb(229,209,195)" transform="translate(0,0)"></path>
<path d="M 1175.15 437.53 C 1187.85 442.904 1170.76 452.838 1165.6 456.895 C 1171.81 465.164 1171.45 466.071 1181.09 458.514 C 1195.3 447.363 1184.87 469.193 1175.57 470.292 C 1169.08 471.059 1174.15 482.337 1162.67 478.393 C 1158.68 477.023 1157.48 470.937 1156.4 467.672 L 1155.55 465.131 C 1147.33 458.922 1141.28 455.194 1130.9 455.055 C 1113.87 459.573 1106.97 474.925 1105 474.928 C 1077.13 474.972 1118.56 430.515 1144.01 441.494 C 1158.3 447.655 1163.79 454.103 1175.15 437.53 z" fill="rgb(0,0,0)" transform="translate(0,0)"></path>
<path d="M 907.856 590.033 C 922.648 589.574 927.126 600.501 938.462 608.647 C 940.223 609.913 939.609 612.152 939.42 613.975 C 930.647 622.313 919.773 607.383 913.181 600.856 C 888.902 635.139 881.66 626.268 857.173 605.43 C 856.195 604.597 854.687 605.985 853.547 606.651 C 844.015 616.924 840.252 618.277 827.416 622.195 C 824.131 617.256 822.558 612.908 820.337 607.477 C 824.508 607.905 829.766 608.957 833.986 609.675 C 841.4 604.808 845.921 598.414 852.247 593.811 C 865.445 584.854 874.582 611.748 885.84 612.09 C 894.951 612.367 900.396 596.377 907.856 590.033 z" fill="rgb(229,209,195)" transform="translate(0,0)"></path>
<path d="M 874.555 437.435 C 880.303 440.318 880.948 443.913 886.427 448.121 L 889.346 450.342 C 893.78 447.916 897.877 444.771 902.401 442.719 C 923.387 433.218 945.011 446.674 954.384 465.797 C 956.002 468.992 954.846 474.026 950.943 474.743 C 940.175 476.72 941.133 463.46 927.934 457.653 L 926.493 456.991 C 914.154 453.662 906.013 456.082 896.521 465.082 C 893.022 468.4 890.632 478.808 887.528 479.214 C 882.578 479.861 879.561 476.893 879.954 471.941 C 879.353 470.845 870.101 467.098 869.541 466.973 C 862.347 465.357 859.757 451.723 867.326 456.334 C 869.094 457.411 877.031 465.586 881.429 462.802 C 886.205 459.779 885.909 455.332 881.469 453.086 C 873.882 446.526 870.651 446.037 874.555 437.435 z" fill="rgb(0,0,0)" transform="translate(0,0)"></path>
<path d="M 1116.97 358.903 C 1136.08 360.323 1151.4 381.796 1132.18 393.503 C 1112.13 393.437 1098.28 368.56 1116.97 358.903 z" fill="rgb(235,144,126)" transform="translate(0,0)"></path>
<path d="M 932.811 359.02 C 952.004 360.286 946.468 388.621 926.431 392.166 L 922.881 392.771 C 901.775 389.919 912.726 365.178 932.811 359.02 z" fill="rgb(235,144,126)" transform="translate(0,0)"></path>
<path d="M 961.947 517.769 C 966.971 520.381 968.303 527.04 971.524 531.615 C 996.108 566.525 1052.14 566.783 1077.7 532.885 C 1080.99 528.526 1083.25 520.548 1087.19 518.054 C 1089.35 519.642 1088.4 518.652 1089.15 522.274 C 1084.61 534.592 1077.01 543.656 1066.12 550.794 C 1049.44 561.762 1028.99 565.443 1009.53 560.984 C 992.986 557.347 957.137 537.762 961.947 517.769 z" fill="rgb(0,0,0)" transform="translate(0,0)"></path>
<path d="M 1005.4 473.565 C 1011.88 473.361 1017.33 478.399 1017.63 484.879 C 1017.93 491.36 1012.98 496.883 1006.5 497.283 C 1002.23 497.548 998.14 495.487 995.809 491.892 C 993.478 488.297 993.264 483.725 995.251 479.928 C 997.237 476.132 1001.11 473.7 1005.4 473.565 z" fill="rgb(229,209,195)" transform="translate(0,0)"></path>
<path d="M 1040.08 474.636 C 1046.21 472.313 1053.06 475.405 1055.38 481.539 C 1057.69 487.673 1054.59 494.52 1048.45 496.823 C 1042.33 499.122 1035.5 496.027 1033.19 489.907 C 1030.88 483.787 1033.96 476.953 1040.08 474.636 z" fill="rgb(229,209,195)" transform="translate(0,0)"></path>
<path d="M 460.349 773.839 C 459.6 772.161 459.261 770.724 457.225 770.08 C 421.099 758.651 363.003 720.657 381.691 674.609 C 385.538 664.972 393.28 657.41 403.005 653.792 C 423.579 646.055 449.931 661.009 468.992 668.924 C 484.216 675.18 499.586 681.071 515.091 686.592 C 584.088 711.423 668.138 736.01 741.366 747.415 C 748.559 763.074 751.592 769.197 762.954 782.342 C 751.319 809.071 754.927 854.26 757.297 882.962 C 733.275 889.486 718.794 908.782 726.212 933.257 C 730.403 947.085 744.5 959.723 751.458 974.197 C 746.027 971.767 735.649 965.393 731.589 966.639 C 734.203 973.251 752.963 980.125 759.566 982.986 C 844.981 1020.01 933.886 1049.96 1028.26 1047.66 C 1030.68 1047.6 1033.32 1048.29 1035.27 1049.84 C 1036.08 1056.27 1026.73 1070.62 1022.52 1075.73 C 998.936 1104.34 961.55 1122.93 926.678 1134.18 C 916.686 1137.41 896.335 1140.09 885.84 1143.43 C 885.762 1143.97 885.684 1144.51 885.606 1145.05 C 892.01 1150.67 922.696 1143.8 925.124 1152.62 C 922.883 1158.31 911.892 1165.12 906.038 1167.43 C 867.982 1182.41 840.751 1172.28 805.463 1165.6 C 811.13 1171.51 820.991 1180.38 823.429 1187.63 L 822.915 1189.84 C 819.455 1191.98 813.059 1190.46 809.383 1189.4 C 767.806 1177.4 683.832 1147.53 652.572 1118.15 L 644.246 1111.27 C 629.099 1098.17 617.735 1081.25 611.333 1062.27 C 610.391 1058.98 609.931 1057.12 609.303 1053.76 C 599.446 1007.32 621.484 933.238 637.451 889.174 C 640.927 879.584 651.125 857.055 651.689 849.555 L 650.542 849.648 C 635.272 868.895 617.662 933.757 610.827 960.145 C 608.959 967.355 605.952 987.164 604.49 995.675 C 602.788 1007.74 602.875 1017.96 602.869 1030.04 L 601.141 1029.49 C 568.581 1018.96 568.208 992.008 577.693 964.417 C 573.34 966.521 569.032 968.711 564.467 970.349 C 536.175 980.495 513.44 957.339 516.099 929.138 C 517.011 919.463 519.391 913.423 523.043 904.361 C 506.308 910.574 487.596 910.656 474.425 896.814 C 467.787 889.806 464.288 880.398 464.733 870.756 C 465.303 858.782 470.909 851.005 479.226 843.281 C 463.138 840.989 446.065 835.739 433.887 825.697 C 414.336 809.575 416.46 784.095 441.614 776.348 C 449.624 773.881 452.315 773.932 460.349 773.839 z" fill="rgb(234,104,91)" transform="translate(0,0)"></path>
<path d="M 460.349 773.839 C 462.954 783.54 461.583 795.684 465.773 805.618 C 469.964 815.555 479.316 823.793 488.414 829.236 C 490.228 830.32 492.088 831.327 493.989 832.253 C 493.454 864.89 502.308 876.581 532.363 887.811 C 529.71 925.583 547.916 938.888 581.401 947.768 C 581.749 961.419 582.627 974.411 593.484 984.16 C 594.902 985.433 604.105 994.885 604.49 995.675 C 602.788 1007.74 602.875 1017.96 602.869 1030.04 L 601.141 1029.49 C 568.581 1018.96 568.208 992.008 577.693 964.417 C 573.34 966.521 569.032 968.711 564.467 970.349 C 536.175 980.495 513.44 957.339 516.099 929.138 C 517.011 919.463 519.391 913.423 523.043 904.361 C 506.308 910.574 487.596 910.656 474.425 896.814 C 467.787 889.806 464.288 880.398 464.733 870.756 C 465.303 858.782 470.909 851.005 479.226 843.281 C 463.138 840.989 446.065 835.739 433.887 825.697 C 414.336 809.575 416.46 784.095 441.614 776.348 C 449.624 773.881 452.315 773.932 460.349 773.839 z" fill="rgb(229,209,195)" transform="translate(0,0)"></path>
<path d="M 644.246 1111.27 C 656.251 1102.68 667.159 1092.26 678.839 1083.87 C 685.139 1079.34 694.221 1085.08 695.662 1091.75 C 698.791 1099.19 699.184 1108.79 705.894 1113.23 C 727.224 1118.33 750.799 1053.19 770.6 1109.72 C 771.984 1113.68 776.388 1119.46 776.464 1123.64 C 773.944 1127.39 775.529 1125.95 771.473 1128.07 C 760.224 1127 762.209 1104.74 752.33 1098.37 C 741.197 1097.64 725.789 1127.59 707.923 1125.94 C 689.628 1124.25 691.894 1103.95 684.791 1095.8 C 678.644 1095.43 663.16 1112.91 652.572 1118.15 L 644.246 1111.27 z" fill="rgb(229,209,195)" transform="translate(0,0)"></path>
<path d="M 609.303 1053.76 C 609.571 1050.48 611.412 1050.15 614.992 1050.58 C 635.516 1053.06 643.337 1037.38 659.478 1034.26 C 666.012 1033 681.833 1052.1 668.517 1054.17 C 666.795 1054.44 661.272 1046.67 659.136 1044.33 C 639.25 1056.75 636.163 1060.77 611.333 1062.27 C 610.391 1058.98 609.931 1057.12 609.303 1053.76 z" fill="rgb(229,209,195)" transform="translate(0,0)"></path>
<path d="M 1306.97 748.43 C 1382.19 734.761 1456.12 714.741 1527.96 688.583 C 1545.93 682.078 1563.8 675.272 1581.54 668.168 C 1594.14 663.032 1607.75 656.407 1620.59 652.91 C 1657.69 642.722 1681.96 679.453 1666.91 711.792 C 1652.85 741.989 1625.03 758.73 1594.98 769.372 C 1591.95 770.444 1590.99 770.822 1589.93 773.632 C 1602.12 774.565 1614.21 776.582 1622.87 786.328 C 1634.31 799.205 1625.42 818.076 1613.41 827.001 C 1600.58 836.586 1584.5 841.191 1568.79 841.568 C 1578.23 849.823 1584.6 858.193 1585.39 871.471 C 1585.97 880.296 1582.93 888.977 1576.96 895.504 C 1563.11 910.905 1543.53 911.498 1525.74 903.277 C 1529.52 911.689 1531.68 916.39 1533.2 925.64 C 1538.29 956.654 1512.8 983.67 1481.56 969.153 C 1478.53 967.709 1475.57 966.128 1472.69 964.414 C 1477.12 980.689 1480.62 997.732 1471.54 1013 C 1455.4 1040.14 1432.49 1030.71 1414.96 1012.58 C 1415.3 1018.77 1415.77 1024.85 1415.07 1031.04 C 1410.6 1070.47 1375.27 1089.91 1350.36 1050.32 C 1349.52 1058.2 1349.15 1062.27 1346.11 1069.84 C 1335.24 1096.85 1303.95 1095.48 1288.36 1073.42 C 1282.3 1064.83 1280.61 1059 1278.06 1048.64 L 1282.59 1041.32 C 1297.89 1017.03 1344.09 950.185 1345.98 925.331 C 1346.91 914.521 1343.41 903.798 1336.29 895.613 C 1329.44 887.744 1319.7 882.981 1309.29 882.409 C 1283.56 880.806 1267.59 899.36 1266.76 923.974 C 1202.94 926.489 1170.95 907.78 1136.8 854.575 C 1194.33 840.347 1285.59 808.665 1306.97 748.43 z" fill="rgb(234,104,91)" transform="translate(0,0)"></path>
<path d="M 1589.93 773.632 C 1602.12 774.565 1614.21 776.582 1622.87 786.328 C 1634.31 799.205 1625.42 818.076 1613.41 827.001 C 1600.58 836.586 1584.5 841.191 1568.79 841.568 C 1578.23 849.823 1584.6 858.193 1585.39 871.471 C 1585.97 880.296 1582.93 888.977 1576.96 895.504 C 1563.11 910.905 1543.53 911.498 1525.74 903.277 C 1529.52 911.689 1531.68 916.39 1533.2 925.64 C 1538.29 956.654 1512.8 983.67 1481.56 969.153 C 1478.53 967.709 1475.57 966.128 1472.69 964.414 C 1477.12 980.689 1480.62 997.732 1471.54 1013 C 1455.4 1040.14 1432.49 1030.71 1414.96 1012.58 C 1415.3 1018.77 1415.77 1024.85 1415.07 1031.04 C 1410.6 1070.47 1375.27 1089.91 1350.36 1050.32 C 1349.52 1058.2 1349.15 1062.27 1346.11 1069.84 C 1335.24 1096.85 1303.95 1095.48 1288.36 1073.42 C 1282.3 1064.83 1280.61 1059 1278.06 1048.64 L 1282.59 1041.32 C 1294.72 1049.82 1309.64 1056.65 1323.99 1047.36 C 1334.59 1040.5 1336.36 1027.52 1338.56 1016.02 C 1346.19 1027.95 1357.32 1038.92 1372.5 1038.28 C 1388.91 1037.58 1401.8 1023.15 1405.21 1007.83 C 1406.77 1000.84 1406.2 994.805 1405.94 987.711 C 1414.3 991.165 1420.51 994.233 1429.71 994.832 C 1439.28 995.535 1448.72 992.23 1455.76 985.706 C 1466.49 975.618 1468.53 961.47 1469.17 947.634 C 1505.46 939.794 1516.59 923.292 1517.4 887.114 C 1549.3 878.857 1556.4 862.526 1558.54 832.039 C 1559.39 831.581 1560.24 831.115 1561.07 830.64 C 1576.43 821.897 1586.28 809.087 1588.61 791.181 C 1589.35 785.471 1588.18 779.015 1589.93 773.632 z" fill="rgb(229,209,195)" transform="translate(0,0)"></path>
<path d="M 821.932 1175.69 C 831.106 1177.13 839.459 1178.45 848.735 1179.32 C 863.547 1207 886.366 1241.03 903.021 1268.52 C 903.207 1287.58 903.766 1308.51 902.103 1327.38 C 893.309 1427.07 860.118 1533.33 790.787 1607.84 C 757.394 1643.73 713.803 1675.4 677.347 1708.88 C 660.243 1724.59 649.776 1741.34 634.819 1757.01 L 633.944 1755.13 C 634.613 1721.58 665.456 1716.92 663.262 1704.17 C 649.289 1694.72 626.42 1720.59 615.686 1727.22 C 613.32 1728.69 613.678 1728.66 611.295 1727.86 C 609.653 1713.84 662.045 1667.96 625.479 1670.08 C 610.245 1675.4 603.942 1683.65 591.531 1693.05 C 590.901 1693.07 590.27 1693.1 589.64 1693.12 C 587.162 1688.27 593.612 1673.48 596.87 1669.18 C 602.094 1662.29 626.201 1651.9 621.862 1641.81 C 606.436 1629.6 562.333 1673.04 547.207 1670.35 C 542.573 1658.41 575.826 1647.82 579.805 1638.7 C 578.601 1627.12 558.792 1634.25 552.256 1636.43 C 539.893 1640.55 528.178 1647.59 515.114 1648.83 C 532.708 1632.97 567.417 1618.13 589.518 1603.41 C 601.404 1595.58 612.499 1586.62 622.645 1576.64 C 626.304 1573.06 630.488 1569.05 633.917 1565.28 C 643.449 1554.81 654.771 1547.68 666.005 1539.1 C 676.549 1530.97 686.554 1522.16 695.956 1512.72 C 772.418 1437.24 802.085 1337.87 803.122 1232.52 C 803.254 1219.14 803.332 1205.76 803.402 1192.38 C 820.597 1198.12 835.914 1197.5 821.932 1175.69 z" fill="rgb(20,142,167)" transform="translate(0,0)"></path>
<path d="M 795.127 1501.37 C 796.434 1501.91 801.49 1503.58 800.904 1505.48 C 798.123 1514.47 786.742 1528.79 780.521 1535.45 C 768.139 1528.16 781.24 1524.7 785.848 1514.49 C 787.376 1511.1 792.678 1504.23 795.127 1501.37 z" fill="rgb(219,137,44)" transform="translate(0,0)"></path>
<path d="M 836.523 1298.38 C 849.62 1300.61 840.959 1309.53 841.741 1321.48 C 841.932 1324.41 839.607 1331.85 838.265 1334.65 C 832.96 1333.42 831.386 1332.85 832.451 1326.6 C 833.982 1317.6 833.528 1306.95 836.523 1298.38 z" fill="rgb(219,137,44)" transform="translate(0,0)"></path>
<path d="M 719.144 1592.78 C 730.226 1598.5 712.971 1610.9 707.974 1614.45 C 699.804 1609.15 702.581 1608.22 708.829 1601.32 C 711.889 1597.93 715.452 1595.4 719.144 1592.78 z" fill="rgb(219,137,44)" transform="translate(0,0)"></path>
<path d="M 799.309 1430.39 C 801.303 1430.68 804.916 1431.38 805.22 1433.5 C 805.792 1437.48 798.787 1449.41 796.938 1452.49 C 782.364 1456.74 797.86 1432.6 799.309 1430.39 z" fill="rgb(219,137,44)" transform="translate(0,0)"></path>
<path d="M 1274.51 1054.75 C 1287.68 1078.7 1290.48 1093.78 1297.89 1119.44 C 1301.94 1133.43 1308.23 1150.96 1312.99 1165.09 C 1310.48 1173.1 1307.46 1194.82 1305.01 1205.43 C 1297.37 1238.32 1285.16 1269.98 1268.73 1299.48 C 1230.23 1370.05 1161.55 1432.13 1083.7 1454.69 C 1018.19 1474.29 947.534 1466.56 887.803 1433.27 C 893.924 1408.04 898.959 1387.57 902.847 1361.89 C 907.793 1335.55 908.046 1302.99 907.74 1276.37 C 936.603 1325.91 969.184 1374.46 998.778 1423.65 C 1006.54 1436.45 1017.43 1439.07 1031.59 1436.74 C 1048.56 1433.95 1061.17 1406.07 1069.65 1392.17 L 1110.95 1323.98 L 1222.1 1140.97 C 1239.25 1112.89 1256.61 1082.04 1274.51 1054.75 z" fill="rgb(234,104,91)" transform="translate(0,0)"></path>
<path d="M 753.38 1175.45 C 766.291 1180.21 785.429 1187.7 798.74 1190.88 C 798.275 1216.32 797.945 1241.03 796.839 1266.42 C 791.437 1390.39 722.744 1519.08 605.17 1569.13 C 559.709 1588.48 513.423 1586.18 474.496 1620.9 L 474.969 1619.69 C 482.351 1601.27 500.373 1600.42 503.081 1589.98 C 496.736 1585.78 473.518 1593.86 471.814 1589.3 C 485.252 1579.27 502.691 1582.93 511.15 1568.71 C 512.41 1552.35 460.927 1557.6 448.713 1556.42 L 450.388 1555.74 C 459.355 1552.17 498.434 1546.07 488.922 1531.53 C 484.413 1524.63 456.451 1526.29 447.912 1526.03 C 435.408 1524.89 437.947 1523.14 447.91 1516.77 C 457.936 1511.07 482.118 1509.23 485.547 1500.56 C 479.97 1480.41 413.323 1509 404.542 1496.51 C 425.473 1478.19 542.656 1468.73 580.034 1452.89 C 698.515 1402.67 736.384 1291.67 753.38 1175.45 z" fill="rgb(20,142,167)" transform="translate(0,0)"></path>
<path d="M 447.912 1526.03 C 435.408 1524.89 437.947 1523.14 447.91 1516.77 C 447.947 1519.86 447.948 1522.95 447.912 1526.03 z" fill="rgb(14,131,175)" transform="translate(0,0)"></path>
<path d="M 574.19 1532.61 C 591.548 1538.81 555.639 1552.45 551.107 1553.95 C 546.511 1551.85 543.605 1546.19 550.216 1544.41 C 558.199 1542.25 566.886 1536.79 574.19 1532.61 z" fill="rgb(219,137,44)" transform="translate(0,0)"></path>
<path d="M 629.992 1466.68 C 642.904 1471.17 613.76 1488.85 609.699 1491.33 C 599.201 1484.37 609.57 1482.11 616.272 1476.43 C 620.213 1473.09 625.671 1469.59 629.992 1466.68 z" fill="rgb(219,137,44)" transform="translate(0,0)"></path>
<path d="M 749.136 1316.29 L 749.545 1316.38 C 758.706 1318.42 754.204 1322.83 752.401 1330.75 C 751.068 1336.6 748.129 1343.3 745.734 1348.8 C 736.539 1346.35 740.398 1341.18 742.338 1333.38 C 743.76 1327.66 746.283 1321.39 749.136 1316.29 z" fill="rgb(219,137,44)" transform="translate(0,0)"></path>
<path d="M 812.74 596.857 C 814.082 597.083 813.378 596.804 814.687 598.028 C 815.437 606.308 814.989 617.536 814.889 626.057 C 811.661 624.248 810.411 623.096 806.747 623.41 L 806.561 624.542 C 811.93 630.217 829.19 640.638 836.36 644.577 C 897.709 678.281 961.528 688.071 1030.07 690.067 C 1020.74 705.759 999.072 736.211 992.605 749.931 C 999.003 753.86 1003.64 757.443 1009.63 762.018 C 987.966 774.679 967.96 823.786 951.62 844.274 C 945.412 852.057 947.544 851.26 937.742 850.852 C 878.684 842.836 778.281 813.832 750.082 755.449 C 734.379 722.938 746.428 697.504 779.312 683.116 C 783.32 689.375 795.485 707.109 802.493 709.218 L 803.548 708.33 C 800.527 701.225 788.732 690.655 784.198 681.604 C 766.79 646.858 779.434 614.687 812.74 596.857 z" fill="rgb(20,142,167)" transform="translate(0,0)"></path>
<path d="M 773.396 708.7 C 775.603 708.899 778.456 708.669 779.229 710.907 C 787.171 733.895 810.038 751.057 831.015 761.565 C 835.022 763.573 835.218 762.314 837.629 766.526 C 831.521 767.478 828.601 765.798 823 762.759 C 803.881 752.383 778.089 730.69 773.396 708.7 z" fill="rgb(0,0,0)" transform="translate(0,0)"></path>
<path d="M 896.993 766.95 L 906.507 768.914 C 912.077 770.056 917.514 771.596 923.022 772.791 L 927.521 773.77 C 937.304 775.689 940.24 774.37 938.305 783.454 C 931.282 783.212 891.263 780.296 896.396 768.412 L 896.993 766.95 z" fill="rgb(219,137,44)" transform="translate(0,0)"></path>
<path d="M 864.436 698.395 C 873.731 700.273 884.535 706.218 894.191 708.991 C 905.398 712.21 906.097 711.072 903.429 720.477 L 901.477 720.039 C 891.933 717.81 870.784 711.592 863.287 704.489 C 862.489 703.733 863.51 700.955 863.834 700.091 L 864.436 698.395 z" fill="rgb(219,137,44)" transform="translate(0,0)"></path>
<path d="M 1236.56 598.249 C 1243.8 601.4 1250.36 605.935 1255.86 611.6 C 1267.24 623.521 1273.36 639.514 1272.84 655.988 C 1271.33 692.923 1230.79 722.767 1199.85 736.186 C 1196.52 737.628 1189.45 740.51 1187 742.719 L 1187.18 744.517 C 1192.48 746.902 1203.38 739.738 1208.7 737.241 C 1235.59 724.641 1254.44 707.135 1271.04 682.655 C 1282.42 687.843 1296.36 697.995 1300.95 709.575 C 1322.52 763.925 1254.49 805.161 1217.24 822.945 C 1191.66 835.039 1161.3 843.646 1134 850.559 C 1115.37 822.922 1096.12 781.386 1070.33 763.29 C 1075.97 758.448 1081.31 754.503 1087.29 750.069 C 1076.46 731.448 1061 708.638 1049.17 690.047 C 1107.22 685.643 1166.68 672.385 1216.95 642.008 C 1222.71 638.526 1242.22 629.09 1242.18 622.278 C 1240.37 622.556 1238.56 622.82 1236.75 623.07 C 1235.15 620.409 1236.42 602.843 1236.56 598.249 z" fill="rgb(20,142,167)" transform="translate(0,0)"></path>
<path d="M 1159.53 706.051 C 1177.67 706.037 1150.29 719.828 1145.27 719.057 C 1146.31 719.216 1131.85 721.529 1131.26 721.605 C 1125.5 721.417 1125.91 715.752 1126.46 715.543 C 1129.5 714.404 1156.29 706.908 1159.53 706.051 z" fill="rgb(219,137,44)" transform="translate(0,0)"></path>
<path d="M 1267.07 732.621 C 1281.63 737.66 1249.22 756.013 1244.64 759.183 C 1234.97 752.325 1244.45 750.348 1251.13 744.532 C 1255.7 740.561 1262.08 736.088 1267.07 732.621 z" fill="rgb(219,137,44)" transform="translate(0,0)"></path>
<path d="M 1232.05 666.686 C 1245.65 668.525 1222.53 683.487 1219.66 685.377 C 1208.27 676.979 1223.28 672.429 1232.05 666.686 z" fill="rgb(219,137,44)" transform="translate(0,0)"></path>
<path d="M 1330.05 954.443 C 1328.76 958.588 1316.27 978.41 1313.31 983.221 L 1268.22 1055.72 L 1116.65 1305.77 L 1070.59 1381.53 C 1063.61 1393 1048.98 1419.7 1039.56 1429.21 C 1032.63 1436.21 1010.94 1434.12 1004.7 1424.62 C 1000.02 1417.51 994.414 1409.02 989.371 1400.77 L 963.985 1359.3 L 872.851 1210.41 C 867.155 1200.31 860.36 1189.8 854.217 1179.89 C 867.761 1180.13 877.196 1179.69 890.567 1177.61 C 914.024 1208.93 938.34 1250.03 959.633 1283.33 C 980.03 1315.24 1002.69 1349.86 1021.87 1382.37 C 1032 1370.92 1045.54 1347.39 1053.99 1334.09 L 1122.63 1223.94 L 1210.42 1085.45 C 1237.99 1043.33 1265.02 1000.87 1291.52 958.079 C 1308.27 961.74 1314.47 962.368 1330.05 954.443 z" fill="rgb(219,137,44)" transform="translate(0,0)"></path>
<path d="M 1225.24 1368.37 C 1266.3 1377.51 1319.94 1395.93 1359.45 1412.15 C 1359.37 1418.81 1360.42 1430.08 1355.33 1434.32 C 1344.14 1443.64 1313.67 1431.21 1307.3 1458.47 C 1299.76 1453.17 1271.19 1430.34 1265.35 1430.6 C 1265.45 1436.87 1315.25 1470.2 1323.27 1476.03 C 1319.89 1483.62 1320.02 1496.42 1311.61 1501.19 C 1297.54 1509.19 1279.63 1490.09 1265.26 1497.33 C 1258.27 1500.85 1254.79 1508.99 1253.79 1516.37 L 1253.58 1517.78 C 1242.12 1502.83 1233.22 1487.54 1222.81 1471.92 C 1221.56 1470.06 1220.2 1469.23 1218.14 1468.56 L 1217.39 1469.65 C 1220.17 1480.33 1248.77 1519.97 1256.23 1530.23 C 1252.35 1538.45 1252.33 1567.04 1240.5 1566.06 C 1216.81 1564.1 1221.19 1532.69 1190.51 1546.4 C 1187.65 1536.03 1184.72 1525.68 1181.7 1515.36 C 1179.75 1508.68 1179.88 1500.23 1174.08 1495.67 L 1173.32 1496.67 C 1175.89 1512.71 1182.76 1535.48 1187.71 1551.06 C 1183.94 1558.53 1181.51 1568.48 1173 1572.1 C 1158.67 1578.18 1147.75 1554.68 1134.96 1550.71 L 1132.87 1550.08 C 1135.79 1512.12 1138.19 1474.13 1140.06 1436.1 C 1173.43 1418.17 1199.15 1395.25 1225.24 1368.37 z" fill="rgb(234,104,91)" transform="translate(0,0)"></path>
<path d="M 919.502 1453.42 C 950.439 1464.54 971.425 1467.84 1003.44 1469.92 C 1002.31 1486.61 999.318 1507.32 997.346 1524.33 L 984.396 1633.52 C 974.786 1716.61 964.679 1799.65 954.075 1882.62 C 963.205 1890.06 1021.36 1946.04 993.988 1953.27 C 979.33 1949.81 971.214 1911.17 956.748 1909.82 L 954.744 1911.58 C 952.493 1916.54 952.912 1921.06 952.794 1926.59 C 951.837 1938.15 953.957 1968.39 939.212 1970.5 C 919.725 1963.83 933.503 1926.8 933.662 1912.47 C 933.687 1910.22 933.382 1910.74 931.785 1909.28 C 916.239 1908.35 903.501 1949.76 888.806 1947.66 C 878.772 1940.37 888.216 1927.69 893.874 1920.64 C 906.076 1905.45 920.752 1892.31 938.317 1883.69 C 938.248 1836.79 934.396 1784.38 932.274 1737.2 L 919.502 1453.42 z" fill="rgb(234,104,91)" transform="translate(0,0)"></path>
<path d="M 1134.33 1439.07 C 1137.31 1443.25 1127.52 1557.44 1126.85 1573.63 C 1123.99 1643.04 1118.37 1713.24 1115.59 1782.8 C 1114.26 1816.08 1111.22 1849.55 1110.6 1882.86 C 1120.77 1888.7 1185.56 1936.45 1160.44 1948.04 C 1149.08 1948.83 1142 1929.36 1133.48 1920.91 C 1125.45 1912.96 1125.71 1912.2 1115.38 1906.27 C 1116.37 1918.96 1128.6 1964.86 1110.94 1969.11 C 1096.3 1972.63 1097.28 1945.02 1096.84 1935.38 C 1095.83 1927.71 1096.35 1916.51 1095.25 1910.86 C 1081.55 1903.63 1069.66 1949.61 1055.61 1952.19 C 1031.2 1944.05 1084.45 1890.67 1095.69 1884.12 C 1092.11 1837.73 1086.32 1789.81 1081.51 1743.42 C 1072.01 1651.12 1061.9 1558.89 1051.18 1466.72 C 1083.98 1461.02 1104.84 1453.86 1134.33 1439.07 z" fill="rgb(234,104,91)" transform="translate(0,0)"></path>
<path d="M 1034.7 759.286 C 1126.07 753.634 1105.92 938.573 1266.83 928.226 C 1270.91 943.39 1275.45 948.2 1287.6 956.744 C 1285.98 959.139 1284.27 961.396 1282.55 963.72 C 1227.43 964.884 1175.95 957.977 1132.18 920.886 C 1096.69 890.808 1091.89 836.395 1039.94 829.436 C 993.868 830.828 982.736 864.841 958.368 896.323 C 940.607 917.542 922.963 934.154 897.247 946.625 C 867.708 960.95 823.827 967.588 790.991 962.15 C 788.323 961.708 786.819 956.767 785.89 954.276 C 796.852 946.583 799.114 941.833 802.788 929.664 C 915.247 939.27 945.94 860.247 997.182 780.264 C 1005.76 766.869 1019.7 761.559 1034.7 759.286 z" fill="rgb(219,137,44)" transform="translate(0,0)"></path>
<path d="M 574.545 1017.25 C 584.859 1027.31 588.687 1030.24 602.814 1034.47 C 604.182 1052.01 605.461 1062.95 613.365 1078.85 C 605.667 1085.6 599.265 1095.75 592.623 1103.69 C 581.801 1116.63 564.264 1138.5 551.835 1149.31 C 522.748 1176.04 503.65 1189 467.164 1204.8 C 465.042 1205.02 465.87 1204.8 463.959 1205.48 C 442.357 1212.99 417.792 1218 394.88 1216.57 C 379.571 1215.54 348.562 1211.66 352.69 1189.56 C 356.261 1170.45 381.102 1153.03 395.767 1142.31 C 421.496 1125.69 445.879 1115.16 472.003 1099.23 C 506.148 1075.01 547.73 1050.12 574.545 1017.25 z" fill="rgb(229,209,195)" transform="translate(0,0)"></path>
<path d="M 574.545 1017.25 C 584.859 1027.31 588.687 1030.24 602.814 1034.47 C 604.182 1052.01 605.461 1062.95 613.365 1078.85 C 605.667 1085.6 599.265 1095.75 592.623 1103.69 C 581.801 1116.63 564.264 1138.5 551.835 1149.31 C 547.866 1147.74 540.301 1148.07 535.786 1147.37 C 519.558 1144.86 503.363 1139.56 490.418 1129.15 C 480.01 1120.78 475.952 1111.48 472.003 1099.23 C 506.148 1075.01 547.73 1050.12 574.545 1017.25 z" fill="rgb(234,104,91)" transform="translate(0,0)"></path>
<path d="M 467.164 1204.8 C 465.042 1205.02 465.87 1204.8 463.959 1205.48 C 442.357 1212.99 417.792 1218 394.88 1216.57 C 379.571 1215.54 348.562 1211.66 352.69 1189.56 C 356.261 1170.45 381.102 1153.03 395.767 1142.31 C 401.288 1165.5 412.295 1175.07 432.084 1187.93 C 440 1193.07 458.064 1201.93 467.164 1204.8 z" fill="rgb(9,87,115)" transform="translate(0,0)"></path>
<path d="M 1323.27 1476.03 C 1326.67 1478.39 1329.06 1480.3 1332.2 1483.06 C 1345.85 1493.61 1361.25 1503.96 1374.3 1514.23 C 1377.06 1516.33 1379.36 1517.72 1382.3 1519.52 C 1384.81 1520.83 1403.02 1538.24 1406.22 1541.61 C 1420.36 1556.49 1447.03 1584.37 1453.68 1602.65 C 1455.83 1606.52 1457.33 1609.34 1458.86 1613.51 C 1466.5 1630.26 1472.51 1662.6 1451.48 1673.96 C 1437.63 1681.44 1404.16 1667.73 1391.17 1659.3 C 1388.22 1657.8 1385.32 1656.04 1382.47 1654.36 C 1352.36 1634.59 1325.1 1611.91 1303.2 1583.02 C 1300.42 1579.71 1295.79 1573.8 1293.27 1570.29 C 1284.53 1559.03 1266.63 1537.32 1259.64 1526.15 C 1257.43 1523.26 1255.59 1520.86 1253.58 1517.78 L 1253.79 1516.37 C 1254.79 1508.99 1258.27 1500.85 1265.26 1497.33 C 1279.63 1490.09 1297.54 1509.19 1311.61 1501.19 C 1320.02 1496.42 1319.89 1483.62 1323.27 1476.03 z" fill="rgb(234,104,91)" transform="translate(0,0)"></path>
<path d="M 1323.27 1476.03 C 1326.67 1478.39 1329.06 1480.3 1332.2 1483.06 C 1345.85 1493.61 1361.25 1503.96 1374.3 1514.23 L 1371.57 1514.79 C 1345.51 1520.4 1371.62 1584.21 1328.42 1557.76 C 1311.83 1547.61 1296.95 1549.2 1293.27 1570.29 C 1284.53 1559.03 1266.63 1537.32 1259.64 1526.15 C 1257.43 1523.26 1255.59 1520.86 1253.58 1517.78 L 1253.79 1516.37 C 1254.79 1508.99 1258.27 1500.85 1265.26 1497.33 C 1279.63 1490.09 1297.54 1509.19 1311.61 1501.19 C 1320.02 1496.42 1319.89 1483.62 1323.27 1476.03 z" fill="rgb(234,104,91)" transform="translate(0,0)"></path>
<path d="M 1323.27 1476.03 C 1326.67 1478.39 1329.06 1480.3 1332.2 1483.06 C 1330.98 1509.29 1311.85 1521.63 1287.48 1511.16 C 1284.05 1509.69 1278.73 1508.36 1275.01 1507.72 L 1273 1507.35 C 1272.19 1507.24 1271.38 1507.12 1270.56 1507 L 1269.11 1506.78 C 1266.14 1512.75 1263.66 1521.58 1259.64 1526.15 C 1257.43 1523.26 1255.59 1520.86 1253.58 1517.78 L 1253.79 1516.37 C 1254.79 1508.99 1258.27 1500.85 1265.26 1497.33 C 1279.63 1490.09 1297.54 1509.19 1311.61 1501.19 C 1320.02 1496.42 1319.89 1483.62 1323.27 1476.03 z" fill="rgb(229,209,195)" transform="translate(0,0)"></path>
<path d="M 1391.17 1659.3 C 1394.22 1652.4 1395.17 1652.38 1402.53 1653.86 C 1414.83 1656.3 1426.44 1657.58 1437.7 1650.64 C 1451.98 1641.85 1454.75 1628.07 1458.86 1613.51 C 1466.5 1630.26 1472.51 1662.6 1451.48 1673.96 C 1437.63 1681.44 1404.16 1667.73 1391.17 1659.3 z" fill="rgb(234,104,91)" transform="translate(0,0)"></path>
<path d="M 1374.3 1514.23 C 1377.06 1516.33 1379.36 1517.72 1382.3 1519.52 C 1356.49 1533.6 1377.62 1553.78 1356.43 1570.92 C 1345.6 1579.68 1330.31 1572.88 1320.99 1565.85 C 1302.47 1554.12 1304.76 1573.03 1303.2 1583.02 C 1300.42 1579.71 1295.79 1573.8 1293.27 1570.29 C 1296.95 1549.2 1311.83 1547.61 1328.42 1557.76 C 1371.62 1584.21 1345.51 1520.4 1371.57 1514.79 L 1374.3 1514.23 z" fill="rgb(229,209,195)" transform="translate(0,0)"></path>
<path d="M 1453.68 1602.65 C 1455.83 1606.52 1457.33 1609.34 1458.86 1613.51 C 1454.75 1628.07 1451.98 1641.85 1437.7 1650.64 C 1426.44 1657.58 1414.83 1656.3 1402.53 1653.86 C 1395.17 1652.38 1394.22 1652.4 1391.17 1659.3 C 1388.22 1657.8 1385.32 1656.04 1382.47 1654.36 C 1393.36 1634.02 1406.12 1647.61 1422.49 1644.73 C 1442.87 1641.15 1444.97 1615.19 1453.68 1602.65 z" fill="rgb(229,209,195)" transform="translate(0,0)"></path>
<path d="M 1858.6 502.654 C 1877.5 485.145 1920.48 437.032 1946.25 465.923 C 1953.33 473.856 1954.52 485.429 1953.32 495.463 C 1951.7 522.761 1917.69 584.707 1899.12 604.99 C 1876.62 637.563 1826.37 682.004 1790.95 698.685 C 1789.84 693.101 1796.98 672.092 1798.77 664.935 C 1803.88 644.523 1806.64 614.976 1798.55 595.112 C 1792.15 579.413 1781.92 578.03 1769.02 572.727 C 1800.06 553.393 1830.79 526.354 1858.6 502.654 z" fill="rgb(229,209,195)" transform="translate(0,0)"></path>
<path d="M 1858.6 502.654 C 1877.5 485.145 1920.48 437.032 1946.25 465.923 C 1953.33 473.856 1954.52 485.429 1953.32 495.463 C 1951.7 522.761 1917.69 584.707 1899.12 604.99 C 1900.75 580.783 1901.7 549.681 1890.63 527.28 C 1883.19 512.227 1873.28 507.503 1858.6 502.654 z" fill="rgb(9,87,115)" transform="translate(0,0)"></path>
<path d="M 150.533 604.907 C 130.156 584.092 93.8945 514.058 96.0126 487.522 C 101.471 419.139 172.886 481.333 192.451 503.428 C 222.862 530.79 246.038 549.956 280.267 572.507 C 268.062 576.574 257.639 580.889 251.682 593.73 C 241.012 616.732 246.329 647.857 252.28 671.43 C 254.191 679.001 258.742 693.077 259.687 699.808 C 224.982 680.798 193.846 655.897 167.673 626.219 C 163.183 621.224 153.734 610.39 150.533 604.907 z" fill="rgb(229,209,195)" transform="translate(0,0)"></path>
<path d="M 150.533 604.907 C 130.156 584.092 93.8945 514.058 96.0126 487.522 C 101.471 419.139 172.886 481.333 192.451 503.428 C 144.766 512.839 150.026 567.743 150.533 604.907 z" fill="rgb(9,87,115)" transform="translate(0,0)"></path>
<path d="M 155.448 773.146 C 154.528 772.718 153.027 772.048 152.198 771.39 C 119.084 744.595 83.5145 709.713 76.2579 666.091 C 68.6356 620.271 110.103 625.643 137.883 639.153 C 145.449 642.832 154.741 646.169 161.117 651.216 C 187.918 663.379 214.795 677.925 239.83 693.386 C 244.515 696.279 249.171 699.141 253.997 701.789 C 242.801 713.868 237.947 723.133 238.735 740.726 C 239.775 763.939 250.26 786.635 261.312 806.713 C 263.894 811.402 271.155 820.052 271.689 824.488 C 231.155 817.129 187.856 798.817 155.448 773.146 z" fill="rgb(229,209,195)" transform="translate(0,0)"></path>
<path d="M 155.448 773.146 C 154.528 772.718 153.027 772.048 152.198 771.39 C 119.084 744.595 83.5145 709.713 76.2579 666.091 C 68.6356 620.271 110.103 625.643 137.883 639.153 C 145.449 642.832 154.741 646.169 161.117 651.216 C 149.567 660.583 143.99 671.439 142.609 686.165 C 140.529 708.33 147.635 752.615 155.448 773.146 z" fill="rgb(9,87,115)" transform="translate(0,0)"></path>
<path d="M 1889.57 650.28 C 1909.05 637.747 1934.49 628.342 1957.98 630.182 C 2009.19 660.97 1926.37 754.412 1895.2 771.809 C 1860.58 800.023 1820.49 816.199 1777.06 824.692 C 1796.96 787.909 1831.7 740.606 1796.13 701.522 C 1801.98 698.207 1807.74 694.623 1813.42 691.023 C 1837.69 675.655 1863.82 663.066 1889.57 650.28 z" fill="rgb(229,209,195)" transform="translate(0,0)"></path>
<path d="M 1889.57 650.28 C 1909.05 637.747 1934.49 628.342 1957.98 630.182 C 2009.19 660.97 1926.37 754.412 1895.2 771.809 C 1902.86 746.176 1907.33 726.349 1907.79 699.091 C 1908.14 678.387 1904.46 665.639 1889.57 650.28 z" fill="rgb(9,87,115)" transform="translate(0,0)"></path>
<path d="M 197.166 919.603 C 168.373 912.854 124.743 885.181 106.362 861.111 C 61.5927 802.485 131.846 803.943 171.869 810.761 C 183.058 812.105 194.331 813.328 205.535 814.609 C 230.47 817.459 254.568 825.893 279.392 830.94 C 264.796 867.452 285.595 898.761 314.13 921.478 C 318.49 924.949 323.823 927.662 328.058 931.068 C 295.247 937.99 227.273 933.464 197.166 919.603 z" fill="rgb(229,209,195)" transform="translate(0,0)"></path>
<path d="M 197.166 919.603 C 168.373 912.854 124.743 885.181 106.362 861.111 C 61.5927 802.485 131.846 803.943 171.869 810.761 C 153.054 847.649 169.074 871.216 187.713 904.691 C 190.358 909.443 194.838 914.967 197.166 919.603 z" fill="rgb(9,87,115)" transform="translate(0,0)"></path>
<path d="M 1877.18 810.508 C 1895.6 809.044 1935.92 803.319 1950.27 815.656 C 1954.37 819.117 1956.79 824.161 1956.94 829.521 C 1958.23 867.136 1883.26 913.307 1852.21 919.19 C 1802.31 934.462 1774.73 938.097 1721.71 930.851 C 1727.93 925.723 1735.15 921.435 1741.53 916.095 C 1759.4 901.137 1773.48 879.685 1775.81 856.104 C 1776.87 845.346 1773.95 839.343 1768.16 830.954 C 1793.62 826.294 1816.49 817.666 1841.96 814.793 C 1853.69 813.47 1865.45 811.926 1877.18 810.508 z" fill="rgb(229,209,195)" transform="translate(0,0)"></path>
<path d="M 1877.18 810.508 C 1895.6 809.044 1935.92 803.319 1950.27 815.656 C 1954.37 819.117 1956.79 824.161 1956.94 829.521 C 1958.23 867.136 1883.26 913.307 1852.21 919.19 C 1854.98 913.124 1859.51 907.031 1863.17 901.255 C 1875.45 881.844 1888.53 858.279 1885.56 834.448 C 1884.77 828.086 1880.89 815.703 1877.18 810.508 z" fill="rgb(9,87,115)" transform="translate(0,0)"></path>
<path d="M 615.171 1081.82 C 629.754 1105.27 642.69 1119.12 666.198 1134.35 C 662.955 1140.39 643.716 1175.71 640.023 1179.35 C 624.006 1203.56 595.812 1237.93 569.596 1251.34 C 547.855 1267.61 483.353 1289.35 458.782 1269.16 C 442.625 1255.88 486.288 1212.08 496.798 1203.92 C 516.83 1183.96 536.298 1169.97 556.753 1150.61 C 578.23 1129.46 597.78 1106.44 615.171 1081.82 z" fill="rgb(229,209,195)" transform="translate(0,0)"></path>
<path d="M 615.171 1081.82 C 629.754 1105.27 642.69 1119.12 666.198 1134.35 C 662.955 1140.39 643.716 1175.71 640.023 1179.35 C 602.582 1180.77 580.225 1188.3 556.753 1150.61 C 578.23 1129.46 597.78 1106.44 615.171 1081.82 z" fill="rgb(234,104,91)" transform="translate(0,0)"></path>
<path d="M 496.798 1203.92 C 507.494 1240.36 536.551 1245.92 569.596 1251.34 C 547.855 1267.61 483.353 1289.35 458.782 1269.16 C 442.625 1255.88 486.288 1212.08 496.798 1203.92 z" fill="rgb(9,87,115)" transform="translate(0,0)"></path>
<path d="M 1769.02 572.727 C 1781.92 578.03 1792.15 579.413 1798.55 595.112 C 1806.64 614.976 1803.88 644.523 1798.77 664.935 C 1796.98 672.092 1789.84 693.101 1790.95 698.685 C 1761.63 718.86 1655.82 758.545 1620.39 764.004 C 1642.25 751.331 1666.33 732.316 1673.12 706.907 C 1681.17 676.778 1669.73 655.22 1639.22 647.598 C 1638.5 647.497 1633.88 647.287 1633.58 646.387 C 1634.11 645.237 1636.02 644.702 1637.08 644.23 C 1666.84 631.41 1699.54 613.682 1727.8 597.814 C 1741.31 590.233 1755.26 580.734 1769.02 572.727 z" fill="rgb(234,104,91)" transform="translate(0,0)"></path>
<path d="M 1639.22 647.598 C 1638.5 647.497 1633.88 647.287 1633.58 646.387 C 1634.11 645.237 1636.02 644.702 1637.08 644.23 L 1639.22 647.598 z" fill="rgb(226,115,87)" transform="translate(0,0)"></path>
<path d="M 280.267 572.507 C 311.232 592.617 343.329 610.93 376.397 627.353 C 388.573 633.516 404.4 641.809 416.956 646.687 C 403.551 648.402 390.282 651.899 382.395 663.656 C 357.632 700.566 389.504 737.423 417.29 756.901 C 420.757 759.304 424.253 761.663 427.778 763.979 C 381.908 753.515 298.895 724.603 259.687 699.808 C 258.742 693.077 254.191 679.001 252.28 671.43 C 246.329 647.857 241.012 616.732 251.682 593.73 C 257.639 580.889 268.062 576.574 280.267 572.507 z" fill="rgb(234,104,91)" transform="translate(0,0)"></path>
<path d="M 1024.66 125.581 C 1032.56 130.862 1063.87 198.869 1070.47 211.473 C 1089.09 193.853 1106.44 179.534 1126.57 163.535 C 1122.13 199.004 1117.1 234.397 1111.48 269.699 C 1083.16 268.996 1053.68 269.489 1025.25 269.635 C 995.687 269.711 964.73 270.208 935.291 269.407 C 931.622 236.463 926.715 195.808 922.022 163.102 C 934.623 171.941 967.928 201.716 979.792 212.908 C 993.979 182.501 1010.67 155.153 1024.66 125.581 z" fill="rgb(219,137,44)" transform="translate(0,0)"></path>
<path d="M 1796.13 701.522 C 1831.7 740.606 1796.96 787.909 1777.06 824.692 C 1718.25 835.719 1674.38 839.118 1613.77 833.503 C 1638.29 814.206 1640.79 783.621 1608.43 771.805 C 1680.66 754.579 1729.63 737.192 1796.13 701.522 z" fill="rgb(234,104,91)" transform="translate(0,0)"></path>
<path d="M 1655.94 1021.96 C 1673.35 1028.7 1688.74 1033.17 1706.85 1037.79 C 1723.12 1041.95 1741.39 1049.22 1757.11 1055.5 C 1772.98 1061.39 1804.89 1072.59 1812.3 1087.73 C 1814.62 1092.48 1814.83 1097.99 1812.88 1102.91 C 1808.04 1115.39 1789.11 1126.27 1777.04 1130.93 C 1748.76 1141.86 1717.87 1144.5 1688.01 1140.36 C 1647.67 1133.06 1610.17 1114.74 1576.04 1092.53 C 1581.85 1089.9 1591.12 1089.02 1597.56 1087.34 C 1627.98 1079.37 1659.31 1056.72 1655.94 1021.96 z" fill="rgb(229,209,195)" transform="translate(0,0)"></path>
<path d="M 1757.11 1055.5 C 1772.98 1061.39 1804.89 1072.59 1812.3 1087.73 C 1814.62 1092.48 1814.83 1097.99 1812.88 1102.91 C 1808.04 1115.39 1789.11 1126.27 1777.04 1130.93 C 1748.76 1141.86 1717.87 1144.5 1688.01 1140.36 C 1717.4 1123.6 1755.85 1092.32 1757.11 1055.5 z" fill="rgb(9,87,115)" transform="translate(0,0)"></path>
<path d="M 392.069 1022.64 C 391.985 1028.2 391.732 1033.68 393.266 1038.98 C 401.28 1066.69 430.994 1082.44 457.653 1086.97 C 462.143 1087.74 472.291 1088.97 476.089 1090.72 C 439.675 1116.05 405.547 1130.25 362.468 1139.73 C 333.943 1143.09 302.495 1142.19 275.355 1131.79 C 260.299 1126.02 226.05 1109.04 236.461 1088.12 C 244.819 1071.32 274.764 1062.03 291.447 1055.66 C 304.996 1050.23 318.769 1045.37 332.729 1041.1 C 353.831 1034.82 371.232 1031.11 392.069 1022.64 z" fill="rgb(229,209,195)" transform="translate(0,0)"></path>
<path d="M 362.468 1139.73 C 333.943 1143.09 302.495 1142.19 275.355 1131.79 C 260.299 1126.02 226.05 1109.04 236.461 1088.12 C 244.819 1071.32 274.764 1062.03 291.447 1055.66 C 293.844 1083.68 313.938 1104.72 334.503 1122.01 C 341.039 1127.5 354.157 1138.96 362.468 1139.73 z" fill="rgb(9,87,115)" transform="translate(0,0)"></path>
<path d="M 253.997 701.789 C 291.111 723.444 337.197 741.932 378.236 754.905 C 396.207 760.586 422.461 765.715 439.003 772.59 C 434.825 774.976 428.519 778.141 425.382 781.589 C 408.457 800.186 418.294 819.907 435.212 832.856 C 399.8 840.329 307.268 834.61 271.689 824.488 C 271.155 820.052 263.894 811.402 261.312 806.713 C 250.26 786.635 239.775 763.939 238.735 740.726 C 237.947 723.133 242.801 713.868 253.997 701.789 z" fill="rgb(234,104,91)" transform="translate(0,0)"></path>
<path d="M 1724.07 935.949 C 1738.76 937.602 1754.79 938.997 1769.55 938.744 C 1789.86 938.396 1799.04 935.308 1819.24 939.451 C 1838.45 944.096 1874.36 950.773 1885.73 968.17 C 1898.43 987.609 1868.35 1007.66 1854.15 1015.53 C 1831.68 1027.99 1806.59 1033.8 1781.16 1036.62 C 1738.97 1044.02 1696.79 1032.98 1657.65 1017.71 C 1661.29 1015.37 1666.88 1013.64 1670.95 1011.5 C 1701.97 995.177 1727.27 973.82 1724.07 935.949 z" fill="rgb(229,209,195)" transform="translate(0,0)"></path>
<path d="M 1819.24 939.451 C 1838.45 944.096 1874.36 950.773 1885.73 968.17 C 1898.43 987.609 1868.35 1007.66 1854.15 1015.53 C 1831.68 1027.99 1806.59 1033.8 1781.16 1036.62 C 1810.6 1005.91 1827.74 982.843 1819.24 939.451 z" fill="rgb(9,87,115)" transform="translate(0,0)"></path>
<path d="M 231.218 939.567 C 251.624 935.619 260.617 938.468 281.036 938.85 C 296.205 939.133 311.044 937.87 326.122 936.449 C 323.931 953.931 326.294 964.08 336.823 978.614 C 346.747 992.315 360.377 1003.66 376.103 1010.04 C 380.777 1011.98 388.467 1014.3 392.135 1017.33 C 349.9 1034.13 315.333 1042.26 269.497 1037.03 C 248.968 1037.21 208.964 1024.6 191.761 1013.68 C 120.884 968.685 187.641 947.751 231.218 939.567 z" fill="rgb(229,209,195)" transform="translate(0,0)"></path>
<path d="M 269.497 1037.03 C 248.968 1037.21 208.964 1024.6 191.761 1013.68 C 120.884 968.685 187.641 947.751 231.218 939.567 C 219.909 979.105 241.113 1010.78 269.497 1037.03 z" fill="rgb(9,87,115)" transform="translate(0,0)"></path>
<path d="M 1256.23 1530.23 C 1258.46 1533.47 1260.77 1536.65 1263.18 1539.76 C 1277.07 1555.88 1291.81 1576.62 1305.3 1593.74 C 1308.25 1597.07 1311.33 1600.39 1313.45 1604.28 C 1314.42 1607.65 1322.63 1626.6 1325.45 1631.16 C 1341.36 1656.86 1364.16 1762.25 1298.74 1722.04 C 1274.69 1707.26 1246.39 1672.28 1233.54 1645.01 C 1231.6 1641.39 1229.92 1638.27 1228.26 1634.48 C 1216.37 1611.49 1205.81 1586.22 1196.38 1562.15 C 1194.51 1557.23 1192.49 1551.08 1190.51 1546.4 C 1221.19 1532.69 1216.81 1564.1 1240.5 1566.06 C 1252.33 1567.04 1252.35 1538.45 1256.23 1530.23 z" fill="rgb(234,104,91)" transform="translate(0,0)"></path>
<path d="M 1256.23 1530.23 C 1258.46 1533.47 1260.77 1536.65 1263.18 1539.76 C 1277.07 1555.88 1291.81 1576.62 1305.3 1593.74 C 1308.25 1597.07 1311.33 1600.39 1313.45 1604.28 C 1312.53 1615.23 1312.13 1627.75 1302.47 1634.96 C 1282.68 1649.77 1264.77 1607.61 1246.5 1619.48 C 1239.2 1624.22 1237.71 1637.58 1233.54 1645.01 C 1231.6 1641.39 1229.92 1638.27 1228.26 1634.48 C 1216.37 1611.49 1205.81 1586.22 1196.38 1562.15 C 1194.51 1557.23 1192.49 1551.08 1190.51 1546.4 C 1221.19 1532.69 1216.81 1564.1 1240.5 1566.06 C 1252.33 1567.04 1252.35 1538.45 1256.23 1530.23 z" fill="rgb(234,104,91)" transform="translate(0,0)"></path>
<path d="M 1228.26 1634.48 C 1233.37 1607.04 1245.48 1598.06 1272.42 1613.72 C 1277.91 1616.91 1289.39 1630.15 1296.38 1626.59 C 1307.09 1621.13 1301.33 1601.92 1305.3 1593.74 C 1308.25 1597.07 1311.33 1600.39 1313.45 1604.28 C 1312.53 1615.23 1312.13 1627.75 1302.47 1634.96 C 1282.68 1649.77 1264.77 1607.61 1246.5 1619.48 C 1239.2 1624.22 1237.71 1637.58 1233.54 1645.01 C 1231.6 1641.39 1229.92 1638.27 1228.26 1634.48 z" fill="rgb(229,209,195)" transform="translate(0,0)"></path>
<path d="M 1256.23 1530.23 C 1258.46 1533.47 1260.77 1536.65 1263.18 1539.76 C 1263.43 1568.44 1241.53 1590.06 1217.4 1565.35 C 1211.48 1559.28 1209.79 1557.45 1202.8 1552.38 C 1201.01 1554.9 1199.87 1556.58 1198.25 1559.18 L 1196.38 1562.15 C 1194.51 1557.23 1192.49 1551.08 1190.51 1546.4 C 1221.19 1532.69 1216.81 1564.1 1240.5 1566.06 C 1252.33 1567.04 1252.35 1538.45 1256.23 1530.23 z" fill="rgb(229,209,195)" transform="translate(0,0)"></path>
<path d="M 1359.45 1412.15 C 1362.68 1413.54 1365.94 1414.82 1369.15 1416.23 C 1382.23 1421.16 1412.93 1436.14 1425.37 1443.28 L 1427.16 1444.23 C 1430.14 1445.77 1432.9 1447.23 1435.85 1448.85 C 1459.43 1461.65 1531.85 1504.85 1516.79 1541.41 C 1512.44 1551.99 1492.41 1555.3 1482.34 1554.12 C 1451.34 1552.16 1421.16 1538.46 1395.24 1522.06 C 1387.37 1517.08 1379.66 1511.87 1372.1 1506.45 C 1369.65 1504.41 1367.19 1502.57 1364.64 1500.67 C 1348.3 1489.65 1330.55 1475.45 1314.56 1463.46 C 1311.94 1461.77 1309.84 1460.32 1307.3 1458.47 C 1313.67 1431.21 1344.14 1443.64 1355.33 1434.32 C 1360.42 1430.08 1359.37 1418.81 1359.45 1412.15 z" fill="rgb(234,104,91)" transform="translate(0,0)"></path>
<path d="M 1359.45 1412.15 C 1362.68 1413.54 1365.94 1414.82 1369.15 1416.23 C 1382.23 1421.16 1412.93 1436.14 1425.37 1443.28 C 1425.67 1446.32 1426.43 1457.15 1427.1 1459 C 1430.86 1469.42 1422.25 1481.94 1411 1481.1 C 1393.05 1479.77 1368.33 1472.97 1364.64 1500.67 C 1348.3 1489.65 1330.55 1475.45 1314.56 1463.46 C 1311.94 1461.77 1309.84 1460.32 1307.3 1458.47 C 1313.67 1431.21 1344.14 1443.64 1355.33 1434.32 C 1360.42 1430.08 1359.37 1418.81 1359.45 1412.15 z" fill="rgb(234,104,91)" transform="translate(0,0)"></path>
<path d="M 1359.45 1412.15 C 1362.68 1413.54 1365.94 1414.82 1369.15 1416.23 C 1371.52 1432.11 1363.9 1449.04 1345.99 1449.78 C 1326.12 1450.61 1326.93 1448.45 1314.56 1463.46 C 1311.94 1461.77 1309.84 1460.32 1307.3 1458.47 C 1313.67 1431.21 1344.14 1443.64 1355.33 1434.32 C 1360.42 1430.08 1359.37 1418.81 1359.45 1412.15 z" fill="rgb(229,209,195)" transform="translate(0,0)"></path>
<path d="M 1425.37 1443.28 L 1427.16 1444.23 C 1430.14 1445.77 1432.9 1447.23 1435.85 1448.85 C 1442.24 1477.65 1431.14 1495.62 1400.01 1491.9 C 1382.23 1489.77 1379.58 1488.04 1372.1 1506.45 C 1369.65 1504.41 1367.19 1502.57 1364.64 1500.67 C 1368.33 1472.97 1393.05 1479.77 1411 1481.1 C 1422.25 1481.94 1430.86 1469.42 1427.1 1459 C 1426.43 1457.15 1425.67 1446.32 1425.37 1443.28 z" fill="rgb(229,209,195)" transform="translate(0,0)"></path>
<path d="M 279.392 830.94 C 320.483 838.286 357.267 841.87 399.138 841.017 C 414.216 840.709 428.174 837.677 441.919 837.766 C 446.361 837.794 461.119 844.303 469.781 845.822 C 457.337 865.329 456.881 877.021 468.457 896.998 C 429.769 912.678 369.964 928.222 328.058 931.068 C 323.823 927.662 318.49 924.949 314.13 921.478 C 285.595 898.761 264.796 867.452 279.392 830.94 z" fill="rgb(234,104,91)" transform="translate(0,0)"></path>
<path d="M 1607.81 836.855 C 1615.36 838.714 1627.39 839.367 1635.46 839.946 C 1681.66 843.259 1722.88 838.91 1768.16 830.954 C 1773.95 839.343 1776.87 845.346 1775.81 856.104 C 1773.48 879.685 1759.4 901.137 1741.53 916.095 C 1735.15 921.435 1727.93 925.723 1721.71 930.851 C 1716.6 930.779 1701.33 928.291 1695.77 927.487 C 1654.82 921.561 1620.44 911.816 1581.99 897.111 C 1594.84 880.491 1591.42 862.321 1580.71 845.841 C 1591.23 843.107 1597.77 840.686 1607.81 836.855 z" fill="rgb(234,104,91)" transform="translate(0,0)"></path>
<path d="M 1578.89 900.898 C 1632.94 921.439 1665.98 928.793 1724.07 935.949 C 1727.27 973.82 1701.97 995.177 1670.95 1011.5 C 1666.88 1013.64 1661.29 1015.37 1657.65 1017.71 C 1609.8 1000.12 1575.76 983.433 1532.14 958.375 C 1540.4 939.15 1539.64 931.629 1535.2 911.704 C 1536.18 911.887 1537.16 912.058 1538.15 912.219 C 1555.66 915.037 1565.3 910.819 1578.89 900.898 z" fill="rgb(234,104,91)" transform="translate(0,0)"></path>
<path d="M 326.122 936.449 C 374.688 929.221 426.418 920.484 472.062 901.018 C 486.13 912.649 497.2 913.943 514.986 912.34 C 509.767 930.414 509.206 939.616 517.537 957.342 C 478.299 981.519 436.025 1002.92 392.135 1017.33 C 388.467 1014.3 380.777 1011.98 376.103 1010.04 C 360.377 1003.66 346.747 992.315 336.823 978.614 C 326.294 964.08 323.931 953.931 326.122 936.449 z" fill="rgb(234,104,91)" transform="translate(0,0)"></path>
<path d="M 1529.81 961.792 C 1562.48 982.874 1619.38 1009.14 1655.94 1021.96 C 1659.31 1056.72 1627.98 1079.37 1597.56 1087.34 C 1591.12 1089.02 1581.85 1089.9 1576.04 1092.53 C 1553.47 1080 1525.49 1056.68 1505.61 1039.82 C 1496.14 1031.79 1486.25 1021.35 1476.42 1014.05 L 1476.82 1013.08 L 1477.46 1011.46 C 1483.39 996.654 1482.21 989.431 1480.71 973.906 C 1501.74 980.678 1514.73 978.061 1529.81 961.792 z" fill="rgb(234,104,91)" transform="translate(0,0)"></path>
<path d="M 392.069 1022.64 C 443.941 1002.55 472.146 991.186 519.811 961.358 C 536.306 978.826 546.941 980.412 569.592 973.769 C 567.292 989.206 566.537 998.184 572.492 1013.31 C 549.932 1035.94 504.563 1076.55 476.089 1090.72 C 472.291 1088.97 462.143 1087.74 457.653 1086.97 C 430.994 1082.44 401.28 1066.69 393.266 1038.98 C 391.732 1033.68 391.985 1028.2 392.069 1022.64 z" fill="rgb(234,104,91)" transform="translate(0,0)"></path>
<path d="M 642.151 1184.77 C 652.317 1167.88 660.96 1154.59 670.466 1136.79 C 693.514 1150.77 706.795 1156.16 730.632 1166.75 C 726.927 1175.6 722.225 1188.3 717.84 1196.57 C 708.909 1213.66 687.235 1250.97 673.14 1262.45 C 661.984 1278.45 619.453 1306.62 600.441 1308.72 C 548.696 1314.44 581.148 1259.01 594.438 1240.84 C 600.678 1233.56 609.676 1225.37 616.373 1217.97 C 626.278 1207.03 633.92 1197.01 642.151 1184.77 z" fill="rgb(229,209,195)" transform="translate(0,0)"></path>
<path d="M 642.151 1184.77 C 652.317 1167.88 660.96 1154.59 670.466 1136.79 C 693.514 1150.77 706.795 1156.16 730.632 1166.75 C 726.927 1175.6 722.225 1188.3 717.84 1196.57 C 691.494 1199.08 661.978 1210.99 642.151 1184.77 z" fill="rgb(234,104,91)" transform="translate(0,0)"></path>
<path d="M 673.14 1262.45 C 661.984 1278.45 619.453 1306.62 600.441 1308.72 C 548.696 1314.44 581.148 1259.01 594.438 1240.84 C 610.6 1270.81 644.549 1270.26 673.14 1262.45 z" fill="rgb(9,87,115)" transform="translate(0,0)"></path>
<path d="M 1575.45 1097.93 C 1602.5 1114.74 1628.97 1125.1 1653.87 1141.83 C 1681.07 1156.67 1726.7 1203.83 1669.94 1214.9 C 1648.73 1219.04 1601.88 1215.54 1584.05 1204.29 C 1553.72 1197.05 1519.46 1169.47 1496.93 1148.69 C 1531.78 1146.67 1568.65 1138.18 1575.45 1097.93 z" fill="rgb(229,209,195)" transform="translate(0,0)"></path>
<path d="M 1653.87 1141.83 C 1681.07 1156.67 1726.7 1203.83 1669.94 1214.9 C 1648.73 1219.04 1601.88 1215.54 1584.05 1204.29 C 1614.62 1192.83 1646.49 1175.95 1653.87 1141.83 z" fill="rgb(9,87,115)" transform="translate(0,0)"></path>
<path d="M 1409.24 1179.2 C 1412.28 1178.74 1418.27 1179.87 1421.67 1180.12 C 1455.59 1182.6 1474.31 1182.89 1492.1 1150.26 C 1513.61 1170.61 1531.84 1183.53 1553.11 1205.83 C 1571.09 1217.08 1620.41 1273.69 1570.21 1276.9 C 1539.8 1278.85 1504.37 1267.93 1479.2 1251.26 C 1455.87 1241.2 1422.91 1201.1 1409.24 1179.2 z" fill="rgb(229,209,195)" transform="translate(0,0)"></path>
<path d="M 1553.11 1205.83 C 1571.09 1217.08 1620.41 1273.69 1570.21 1276.9 C 1539.8 1278.85 1504.37 1267.93 1479.2 1251.26 C 1508.76 1248.49 1544.06 1237.75 1553.11 1205.83 z" fill="rgb(9,87,115)" transform="translate(0,0)"></path>
<path d="M 1474.41 1017.69 C 1485.16 1027.15 1495.13 1037.02 1506.23 1046.55 C 1528.07 1065.27 1551.2 1082.44 1575.45 1097.93 C 1568.65 1138.18 1531.78 1146.67 1496.93 1148.69 C 1467.21 1120.44 1438.06 1083.35 1416.26 1048.82 C 1418.88 1039.88 1419.6 1034.11 1420.31 1024.92 C 1441.93 1039.85 1457.97 1037.33 1474.41 1017.69 z" fill="rgb(234,104,91)" transform="translate(0,0)"></path>
<path d="M 766.126 786.382 C 773.156 790.637 786.501 802.396 796.051 808.359 C 827.14 827.773 851.256 834.784 885.432 844.686 C 883.646 864.652 878.248 894.13 875.654 915.673 C 855.265 923.458 846.895 924.459 825.658 926.27 L 825.304 901.289 C 825.2 894.01 827.284 850.545 821.702 848.356 C 819.452 853.642 820.953 914.342 821.01 926.17 C 815.317 926.044 809.295 925.421 803.593 924.952 C 801.565 897.901 789.345 883.376 761.621 882.554 C 759.482 846.728 756.622 821.664 766.126 786.382 z" fill="rgb(20,142,167)" transform="translate(0,0)"></path>
<path d="M 1132.87 1550.08 L 1134.96 1550.71 C 1147.75 1554.68 1158.67 1578.18 1173 1572.1 C 1181.51 1568.48 1183.94 1558.53 1187.71 1551.06 C 1189.2 1555.17 1191.78 1562.15 1192.88 1566.21 C 1202.12 1590.25 1211.14 1612.03 1223.11 1634.82 L 1223.7 1636.4 C 1224.75 1639.12 1225.22 1641.86 1225.74 1644.72 C 1228.2 1662.48 1240.33 1712.93 1212.01 1716.92 C 1186.25 1720.54 1164 1687.74 1154.89 1666.99 C 1153.87 1664.6 1152.69 1662.28 1151.34 1660.06 C 1133.83 1628.17 1129.17 1587.81 1132.73 1551.96 L 1132.87 1550.08 z" fill="rgb(234,104,91)" transform="translate(0,0)"></path>
<path d="M 1178.82 1635.71 C 1189.58 1644.07 1216.4 1671.54 1225.74 1644.72 C 1228.2 1662.48 1240.33 1712.93 1212.01 1716.92 C 1186.25 1720.54 1164 1687.74 1154.89 1666.99 C 1175.99 1662.3 1172.14 1653.16 1178.82 1635.71 z" fill="rgb(234,104,91)" transform="translate(0,0)"></path>
<path d="M 1161.61 1654.96 C 1163.97 1648.48 1167.54 1631.4 1170.73 1628.74 C 1183.93 1617.71 1199.87 1643.83 1211 1645.57 C 1214.14 1646.06 1221.03 1637.36 1223.11 1634.82 L 1223.7 1636.4 C 1224.75 1639.12 1225.22 1641.86 1225.74 1644.72 C 1216.4 1671.54 1189.58 1644.07 1178.82 1635.71 C 1172.14 1653.16 1175.99 1662.3 1154.89 1666.99 C 1153.87 1664.6 1152.69 1662.28 1151.34 1660.06 C 1154.29 1658.42 1157.21 1657.34 1160.1 1655.75 L 1161.61 1654.96 z" fill="rgb(229,209,195)" transform="translate(0,0)"></path>
<path d="M 1132.87 1550.08 L 1134.96 1550.71 C 1147.75 1554.68 1158.67 1578.18 1173 1572.1 C 1181.51 1568.48 1183.94 1558.53 1187.71 1551.06 C 1189.2 1555.17 1191.78 1562.15 1192.88 1566.21 C 1190.53 1570.39 1189.74 1572.92 1186.41 1576.75 C 1182.44 1581.32 1175.12 1584.9 1169 1584.77 C 1154.96 1584.18 1145.86 1572.23 1136.95 1563.01 C 1131.86 1557.75 1133.01 1559.14 1132.73 1551.96 L 1132.87 1550.08 z" fill="rgb(229,209,195)" transform="translate(0,0)"></path>
<path d="M 1051.39 844.477 C 1056.45 845.395 1065.59 845.742 1069.57 849.003 C 1073.31 852.075 1071.59 1257.07 1071.76 1297.59 C 1068.36 1303.52 1064.4 1309.63 1060.75 1315.46 L 1051.45 1330.17 C 1051.05 1272.61 1050.97 1215.06 1051.21 1157.5 L 1051.39 844.477 z" fill="rgb(216,119,58)" transform="translate(0,0)"></path>
<path d="M 1413.63 1053.26 C 1435.65 1088.86 1462.57 1120.68 1492.1 1150.26 C 1474.31 1182.89 1455.59 1182.6 1421.67 1180.12 C 1418.27 1179.87 1412.28 1178.74 1409.24 1179.2 C 1407.57 1177.51 1399.91 1165.14 1398.36 1162.53 C 1380.62 1132.56 1362.61 1096.22 1352.87 1062.7 C 1376.54 1085.47 1397.56 1079.66 1413.63 1053.26 z" fill="rgb(234,104,91)" transform="translate(0,0)"></path>
<path d="M 1407.72 1185.56 C 1418.71 1200.86 1429.45 1215.21 1442.99 1228.43 C 1445.51 1230.89 1453.84 1238.86 1455.11 1241.48 C 1462.78 1255.93 1491.72 1295.2 1467.04 1307.5 C 1443.29 1319.34 1389.56 1280.38 1376.85 1262.35 C 1361.28 1250.18 1341.46 1214.37 1332.23 1196.55 C 1360.42 1200.13 1384.37 1210.54 1407.72 1185.56 z" fill="rgb(229,209,195)" transform="translate(0,0)"></path>
<path d="M 1455.11 1241.48 C 1462.78 1255.93 1491.72 1295.2 1467.04 1307.5 C 1443.29 1319.34 1389.56 1280.38 1376.85 1262.35 C 1409.21 1270.98 1434.22 1270.35 1455.11 1241.48 z" fill="rgb(9,87,115)" transform="translate(0,0)"></path>
<path d="M 1083.07 862.675 C 1088.03 867.327 1098.91 885.68 1102.93 892.241 C 1105.02 1009.28 1102.67 1130.01 1103.05 1247.51 C 1098.93 1254.47 1094.85 1260.81 1090.42 1267.58 L 1082.99 1279.52 C 1081.77 1265.36 1082.28 1246.76 1082.33 1232.22 L 1082.55 1154.66 L 1083.07 862.675 z" fill="rgb(226,115,87)" transform="translate(0,0)"></path>
<path d="M 1292.91 1085.42 C 1317.99 1101.38 1336.2 1096.47 1350.87 1071.29 C 1362.58 1109.42 1385.89 1152.45 1407.72 1185.56 C 1384.37 1210.54 1360.42 1200.13 1332.23 1196.55 C 1320.16 1178.43 1298.95 1106.96 1292.91 1085.42 z" fill="rgb(234,104,91)" transform="translate(0,0)"></path>
<path d="M 1114.15 908.609 C 1120.3 913.416 1125.61 921.839 1137.01 930.212 L 1136.37 1193.86 L 1123.71 1214.49 C 1121.4 1218.62 1117.37 1224.48 1114.69 1228.6 C 1112.98 1195.05 1114.04 1150.91 1114.02 1116.68 L 1114.15 908.609 z" fill="rgb(226,115,87)" transform="translate(0,0)"></path>
<path d="M 993.31 274.499 C 1007.77 274.401 1108.58 272.551 1114.61 275.333 C 1118.08 280.119 1118.07 301.899 1114.63 306.209 C 1106.76 309.27 1064.73 307.349 1053.53 307.252 L 979.782 307.434 C 972.536 307.491 935.064 309.148 931.327 305.675 C 927.872 298.384 929.054 283.405 929.201 274.813 L 993.31 274.499 z" fill="rgb(216,119,58)" transform="translate(0,0)"></path>
<path d="M 948.994 279.919 C 949.864 280.268 952.294 281.286 952.804 282.198 C 956.62 289.021 967.657 279.955 963.326 289.675 C 954.993 292.566 946.635 290.094 948.994 279.919 z" fill="rgb(0,0,0)" transform="translate(0,0)"></path>
<path d="M 988.471 281.535 C 995.573 282.82 991.66 283.362 998.016 286.921 C 1002.58 289.476 1006.36 287.164 1009.42 291.033 C 998.751 293.745 992.052 292.525 988.471 281.535 z" fill="rgb(0,0,0)" transform="translate(0,0)"></path>
<path d="M 1100.12 281.739 C 1105.93 291.053 1114.43 292.757 1106.57 299.274 C 1105.7 297.35 1104.04 291.959 1103.54 291.344 C 1102.53 290.107 1101.08 289.305 1099.5 289.104 C 1092.68 288.192 1096.96 285.183 1100.12 281.739 z" fill="rgb(0,0,0)" transform="translate(0,0)"></path>
<path d="M 1040.31 282.461 C 1045.72 282.878 1047.46 283.348 1048.26 289.071 C 1041 289.262 1039.12 290.045 1040.31 282.461 z" fill="rgb(0,0,0)" transform="translate(0,0)"></path>
<path d="M 1078.37 296.806 C 1082.82 296.975 1087.87 296.983 1089.87 301.691 C 1084.7 302.967 1081.73 303.719 1079.2 298.479 L 1078.37 296.806 z" fill="rgb(0,0,0)" transform="translate(0,0)"></path>
<path d="M 1066.73 285.611 C 1067.55 284.565 1068.89 284.074 1070.2 284.342 C 1071.5 284.61 1072.54 285.59 1072.89 286.875 C 1073.23 288.161 1072.82 289.53 1071.83 290.414 C 1070.47 291.625 1068.41 291.595 1067.08 290.346 C 1065.75 289.097 1065.6 287.042 1066.73 285.611 z" fill="rgb(0,0,0)" transform="translate(0,0)"></path>
<path d="M 1023.91 294.246 C 1025.38 293.54 1027.14 294.013 1028.06 295.359 C 1028.98 296.704 1028.77 298.518 1027.58 299.626 C 1026.63 300.507 1025.26 300.75 1024.06 300.247 C 1022.87 299.744 1022.08 298.589 1022.05 297.295 C 1022.02 296 1022.75 294.807 1023.91 294.246 z" fill="rgb(0,0,0)" transform="translate(0,0)"></path>
<path d="M 942.249 291.446 C 949.516 292.65 948.055 293.539 944.619 299.657 C 940.483 297.755 941.15 295.528 942.249 291.446 z" fill="rgb(0,0,0)" transform="translate(0,0)"></path>
<path d="M 972.795 297.547 C 973.459 296.693 974.557 296.299 975.613 296.537 C 976.669 296.774 977.492 297.6 977.726 298.657 C 977.96 299.714 977.563 300.81 976.706 301.471 C 975.593 302.33 974.014 302.228 973.022 301.232 C 972.029 300.236 971.932 298.657 972.795 297.547 z" fill="rgb(0,0,0)" transform="translate(0,0)"></path>
<path d="M 1037.72 1060.14 C 1038.43 1060.63 1039.64 1061.24 1040.38 1061.63 C 1039.49 1071.01 1040.05 1088.05 1040.1 1097.85 L 1040.27 1159.18 L 1040.12 1348.39 C 1036.03 1355.01 1027.53 1367.72 1022.62 1373.59 L 1020.98 1372.59 C 1019.48 1370.15 1019.07 1368.42 1019.1 1365.59 C 1020.02 1273.12 1017.49 1179.49 1019.8 1087.08 C 1026.69 1077.92 1032.45 1070.35 1037.72 1060.14 z" fill="rgb(216,119,58)" transform="translate(0,0)"></path>
<path d="M 1006.4 1097.83 L 1007.66 1099.11 C 1009.19 1120.6 1008.02 1155.74 1008.01 1178.57 C 1008.16 1235.91 1007.76 1293.25 1006.81 1350.58 C 1003.8 1345.79 1000.83 1340.69 997.894 1335.83 C 993.876 1328.75 989.425 1321.6 985.211 1314.62 C 985.807 1296.05 985.434 1275.54 985.574 1256.82 C 985.942 1208.64 986.047 1160.46 985.889 1112.27 C 991.872 1108.61 1000.48 1102.06 1006.4 1097.83 z" fill="rgb(226,115,87)" transform="translate(0,0)"></path>
<path d="M 1148.23 938.633 C 1153.05 941.846 1162.21 946.357 1167.63 949.214 C 1167.97 1014.8 1167.9 1080.38 1167.4 1145.96 C 1164.08 1151.61 1160.03 1157.74 1156.5 1163.35 C 1153.66 1167.83 1150.85 1172.32 1148.07 1176.84 C 1146.5 1099.91 1148.06 1015.76 1148.23 938.633 z" fill="rgb(226,115,87)" transform="translate(0,0)"></path>
<path d="M 1006.82 847.956 C 1009.17 850.929 1007.74 1023.3 1007.61 1043.13 C 1000.2 1043.04 994.656 1042.62 987.256 1041.9 C 985.606 1039.18 985.656 882.932 985.415 864.969 C 993.373 856.541 996.808 853.762 1006.82 847.956 z" fill="rgb(226,115,87)" transform="translate(0,0)"></path>
<path d="M 1029.53 845.382 C 1031.47 845.049 1037.67 844.955 1039.95 844.862 L 1039.96 996.653 C 1039.94 1004.98 1040.95 1038.06 1039.57 1043.5 C 1036.66 1045.5 1037.28 1044.76 1032.52 1044.02 C 1028.2 1043.6 1023.54 1043.5 1019.16 1043.3 C 1018.94 996.124 1019.01 948.946 1019.38 901.769 C 1019.44 893.633 1019.2 853.136 1020.25 847.243 C 1023.18 845.513 1025.96 845.714 1029.53 845.382 z" fill="rgb(226,115,87)" transform="translate(0,0)"></path>
<path d="M 1298.22 887.455 C 1316.95 882.955 1335.81 894.39 1340.49 913.082 C 1345.16 931.775 1333.9 950.742 1315.26 955.591 C 1296.36 960.504 1277.08 949.063 1272.35 930.123 C 1267.61 911.182 1279.23 892.015 1298.22 887.455 z" fill="rgb(219,137,44)" transform="translate(0,0)"></path>
<path d="M 758.663 887.258 C 777.587 884.367 795.29 897.311 798.276 916.22 C 801.261 935.129 788.407 952.897 769.513 955.977 C 750.484 959.079 732.562 946.113 729.555 927.069 C 726.549 908.025 739.605 890.169 758.663 887.258 z" fill="rgb(219,137,44)" transform="translate(0,0)"></path>
<path d="M 1179.07 954.471 C 1187.11 957.234 1193.07 958.868 1201.35 960.926 C 1201.88 992.33 1201.95 1023.74 1201.54 1055.15 C 1201.32 1085.28 1205.53 1086.22 1188.78 1111.43 L 1179.68 1125.97 C 1178.4 1107.37 1179.03 1082.69 1179.01 1063.56 L 1179.07 954.471 z" fill="rgb(226,115,87)" transform="translate(0,0)"></path>
<path d="M 1038.84 684.463 C 1041 685.504 1076.99 741.889 1080.51 748.199 C 1075.49 753.118 1071.59 756.45 1065.87 760.672 C 1058.36 758.055 1051.4 755.751 1043.42 754.749 C 1029.23 754.741 1026.96 755.319 1013.44 759.527 C 1008.56 755.588 1003.48 751.839 998.507 747.937 C 1012.76 726.494 1025.12 705.554 1038.84 684.463 z" fill="rgb(219,137,44)" transform="translate(0,0)"></path>
<path d="M 973.028 1120.17 C 975.482 1122.63 974.072 1280.48 973.93 1297.92 L 967.124 1286.39 L 954.476 1266.22 C 953.115 1223.02 953.994 1173.01 954.175 1129.48 C 960.77 1126.66 966.681 1123.49 973.028 1120.17 z" fill="rgb(226,115,87)" transform="translate(0,0)"></path>
<path d="M 973.72 882.796 C 974.983 888.252 974.58 925.475 974.56 933.074 L 974.263 1041.29 C 968.998 1040.42 964.334 1040.11 959.038 1039.69 C 956.55 1038.96 957.387 1039.36 955.341 1037.8 C 954.329 1026.24 954.98 1004.32 954.942 991.859 C 954.732 963.639 954.742 935.417 954.97 907.197 C 962.076 898.732 967.288 891.702 973.72 882.796 z" fill="rgb(226,115,87)" transform="translate(0,0)"></path>
<path d="M 941.862 920.875 C 944.066 924.396 943.056 1024.26 943.037 1036.84 L 926.155 1033.85 C 923.88 1033.38 924.016 1033.48 922.315 1031.91 C 920.579 1007.04 922.074 963.288 922.168 937.49 C 929.876 931.607 934.78 927.491 941.862 920.875 z" fill="rgb(226,115,87)" transform="translate(0,0)"></path>
<path d="M 890.252 845.89 C 891.37 846.234 892.357 846.559 893.508 846.809 L 897.534 847.722 L 901.557 848.68 C 902.989 849.027 904.581 849.434 906.016 849.759 C 910.831 850.855 915.664 851.87 920.514 852.803 C 928.296 854.27 935.613 855.572 943.498 856.366 C 934.051 870.232 926.009 879.983 913.884 891.411 C 900.66 901.664 895.728 905.075 880.705 913.472 C 883.124 890.144 886.107 868.971 890.252 845.89 z" fill="rgb(234,104,91)" transform="translate(0,0)"></path>
<path d="M 1074.27 852.758 C 1075.73 854.044 1077.61 855.623 1078.39 857.445 C 1080.55 862.519 1080.85 1245.97 1078.99 1280.97 C 1078.79 1284.59 1078.1 1287.43 1076.57 1290.71 L 1075.09 1291.72 C 1073.23 1288.11 1076.22 896.599 1074.27 852.758 z" fill="rgb(14,131,175)" transform="translate(0,0)"></path>
<path d="M 1213.62 963.574 L 1233.99 966.904 C 1234.11 988.802 1235.43 1019.42 1232.84 1041.27 C 1232.54 1043.74 1224.57 1055.54 1222.67 1058.44 L 1213.7 1072.31 C 1212.34 1037.82 1213.36 998.181 1213.62 963.574 z" fill="rgb(226,115,87)" transform="translate(0,0)"></path>
<path d="M 941.935 1134.41 C 944.42 1139.2 942.163 1234.79 941.858 1247.1 L 928.891 1226.53 L 921.518 1214.31 C 921.716 1197.76 921.726 1181.22 921.546 1164.67 C 933.756 1153.29 935.405 1144.51 916.328 1142.4 C 925.385 1139.9 933.04 1137.46 941.935 1134.41 z" fill="rgb(226,115,87)" transform="translate(0,0)"></path>
<path d="M 1043.81 834.429 C 1048.84 836.323 1047.76 837.157 1047.69 841.953 C 1047.02 919.556 1046.79 997.162 1047.01 1074.77 L 1047.3 1331.5 C 1047.34 1336.81 1047.01 1337.06 1044.1 1342.01 C 1042.34 1335.19 1043.86 1258.44 1043.91 1246.36 L 1043.97 997.333 L 1043.27 888.133 C 1043.23 874.881 1042.48 846.499 1043.81 834.429 z" fill="rgb(219,137,44)" transform="translate(0,0)"></path>
<path d="M 1025.59 74.6325 C 1038.19 73.7426 1049.16 83.1393 1050.22 95.7221 C 1051.28 108.305 1042.03 119.403 1029.46 120.63 C 1021.18 121.438 1013.11 117.727 1008.33 110.917 C 1003.55 104.107 1002.8 95.252 1006.38 87.7392 C 1009.95 80.2264 1017.29 75.2189 1025.59 74.6325 z" fill="rgb(219,137,44)" transform="translate(0,0)"></path>
<path d="M 909.997 945.095 C 911.993 947.179 910.845 1022.58 910.815 1030.66 C 905.652 1029.34 900.382 1028.06 895.247 1026.69 C 894.408 1026.48 891.505 1025.84 891.465 1025.24 C 890.429 1009.69 890.905 968.018 890.979 954.563 C 898.858 951.248 902.559 949.212 909.997 945.095 z" fill="rgb(234,104,91)" transform="translate(0,0)"></path>
<path d="M 912.047 116.463 C 923.516 114.714 934.239 122.569 936.03 134.032 C 937.82 145.494 930.003 156.245 918.548 158.077 C 907.034 159.918 896.216 152.052 894.416 140.532 C 892.616 129.011 900.52 118.222 912.047 116.463 z" fill="rgb(219,137,44)" transform="translate(0,0)"></path>
<path d="M 1131.57 116.803 C 1143.1 115.64 1153.36 124.083 1154.45 135.615 C 1155.53 147.146 1147.02 157.354 1135.48 158.357 C 1130.95 158.751 1126.42 157.656 1122.57 155.239 C 1115.02 150.498 1111.32 141.485 1113.35 132.807 C 1115.38 124.128 1122.71 117.699 1131.57 116.803 z" fill="rgb(219,137,44)" transform="translate(0,0)"></path>
<path d="M 1106.33 897.653 C 1110.19 900.748 1110.31 903.935 1110.33 908.576 C 1110.8 1011.88 1109.78 1115.18 1110.38 1218.49 C 1110.41 1225.02 1110.75 1232.57 1108.99 1238.82 L 1107.55 1239.6 C 1106.05 1236.98 1106.48 929.267 1106.33 897.653 z" fill="rgb(240,239,240)" transform="translate(0,0)"></path>
<path d="M 1014.2 1090.5 C 1017.37 1093.09 1016.14 1109.44 1016.14 1114.65 L 1016.08 1173.91 L 1015.88 1298.61 C 1015.87 1305.49 1016.58 1361.25 1014.53 1364.18 C 1009.63 1355.08 1011.03 1336.7 1011.05 1325.83 L 1011.19 1269.18 L 1011.58 1154.9 C 1011.63 1144.97 1010.4 1096.28 1014.2 1090.5 z" fill="rgb(14,131,175)" transform="translate(0,0)"></path>
<path d="M 877.878 959.21 C 880.385 961.137 879.17 1014.65 879.146 1022.18 C 873.911 1020.42 868.538 1018.97 863.261 1017.35 C 861.559 1016.86 858.152 1016.4 858.134 1014.04 C 858.007 997.559 857.971 980.751 858.366 964.298 L 859.709 963.986 C 866.032 962.472 871.602 960.969 877.878 959.21 z" fill="rgb(226,115,87)" transform="translate(0,0)"></path>
<path d="M 1140.78 932.718 C 1145.86 936.606 1144.72 940.462 1144.73 946.306 C 1144.79 975.247 1144.69 1004.27 1144.64 1033.2 L 1144.77 1126.04 C 1144.8 1143.5 1144.9 1161.1 1144.49 1178.56 C 1144.4 1182.37 1143.44 1184.08 1141.45 1187.3 L 1140.83 1187.45 C 1139.28 1184.93 1140.11 1151.41 1140.15 1145.02 L 1140.88 1004.91 C 1140.85 988.969 1139.4 946.127 1140.78 932.718 z" fill="rgb(14,131,175)" transform="translate(0,0)"></path>
<path d="M 780.628 957.151 C 782.144 957.073 782.315 957.02 782.986 958.454 C 789.208 971.761 797.941 983.711 805.184 996.453 C 796.196 992.742 787.114 989.262 777.948 986.015 C 756.385 978.042 758.085 978.079 747.118 957.743 C 762.238 961.031 765.596 962.085 780.628 957.151 z" fill="rgb(216,119,58)" transform="translate(0,0)"></path>
<path d="M 1015.04 838.492 C 1017.41 843.751 1016.11 962.96 1016.09 976.163 L 1016.05 1019.18 C 1016.05 1024.79 1016.36 1037.71 1015.56 1042.62 L 1012.36 1044.72 C 1012.06 1043.82 1011.22 1041.36 1011.22 1040 C 1011.22 974.085 1010.57 907.917 1012.08 842.044 C 1013.28 840.608 1014.26 839.424 1015.04 838.492 z" fill="rgb(14,131,175)" transform="translate(0,0)"></path>
<path d="M 1245.9 968.28 C 1254.06 968.722 1261.12 968.9 1269.28 968.924 C 1269.77 974.46 1269.88 978.223 1270.04 983.786 C 1265.48 991.185 1260.75 998.6 1256.27 1006.01 C 1253.03 1011.25 1249.68 1016.41 1246.22 1021.5 C 1245.73 1005.08 1245.49 984.705 1245.9 968.28 z" fill="rgb(226,115,87)" transform="translate(0,0)"></path>
<path d="M 838.464 967.365 C 839.95 967.071 844.584 966.308 845.862 967.099 C 846.218 967.872 846.276 968.617 846.319 969.469 C 846.521 973.445 846.898 1009.97 845.815 1010.8 C 844.63 1011.71 838.421 1008.89 837.276 1008.48 C 835.292 1007.72 832.538 1006.83 830.475 1006.17 L 828.761 1005.63 L 826.907 1005.03 C 826.853 992.948 826.877 980.866 826.978 968.786 C 830.615 968.142 834.71 967.868 838.464 967.365 z" fill="rgb(226,115,87)" transform="translate(0,0)"></path>
<path d="M 1171.62 950.421 C 1173.85 951.888 1174.03 951.714 1175.11 954.077 L 1175.13 1074.49 C 1175.13 1086.38 1176.71 1129.41 1172.6 1137.5 L 1171.87 1137.73 C 1170.76 1135.55 1170.74 961.844 1171.62 950.421 z" fill="rgb(240,239,240)" transform="translate(0,0)"></path>
<path d="M 979.597 1115.47 L 981.442 1117.11 C 982.449 1126.12 981.986 1145.23 981.983 1155 L 981.878 1226.94 L 981.759 1280.27 C 981.744 1286.59 982.119 1303.03 980.941 1308.41 C 976.26 1301.32 977.921 1279.42 977.955 1270.3 L 978.091 1202.5 L 977.897 1147.26 C 977.873 1140.51 976.735 1119.91 979.597 1115.47 z" fill="rgb(240,239,240)" transform="translate(0,0)"></path>
<path d="M 950.539 1130.67 C 951.242 1133.05 951.644 1254.28 950.204 1259.88 L 948.368 1259.75 C 942.356 1243.83 948.058 1193.85 946.004 1174.13 C 944.817 1162.74 945.991 1146.89 945.514 1135.08 C 945.432 1133.07 948.987 1131.58 950.539 1130.67 z" fill="rgb(14,131,175)" transform="translate(0,0)"></path>
<path d="M 980.272 872.512 C 982.583 876.652 982.654 1038.32 980.538 1042.77 C 979.896 1042.02 978.441 1040.45 978.424 1039.46 C 977.566 986.392 978.043 933.079 978.125 879.978 C 978.13 876.473 978.813 875.032 980.272 872.512 z" fill="rgb(240,239,240)" transform="translate(0,0)"></path>
<path d="M 950.539 911.717 C 953.533 914.643 951.337 1023.06 951.462 1034.33 C 951.487 1036.53 950.936 1037.55 949.63 1039.18 C 947.956 1037.35 947.023 1037.1 947.007 1034.44 C 946.778 995.518 946.286 956.432 947.353 917.526 C 947.413 915.331 949.224 913.308 950.539 911.717 z" fill="rgb(14,131,175)" transform="translate(0,0)"></path>
<path d="M 1204.85 961.132 C 1205.82 961.577 1209.45 962.838 1209.4 963.764 C 1208.16 984.685 1214.17 1069.57 1206.97 1083.61 L 1205.26 1084.69 C 1203.92 1080.91 1204.84 974.076 1204.85 961.132 z" fill="rgb(14,131,175)" transform="translate(0,0)"></path>
<path d="M 793.258 968.065 C 800.176 968.304 806.943 968.782 813.847 969.139 C 813.964 978.521 813.953 989.626 813.558 998.958 C 808.632 997.221 796.587 974.125 793.258 968.065 z" fill="rgb(20,142,167)" transform="translate(0,0)"></path>
<path d="M 883.84 956.175 L 884.292 956.317 C 884.51 956.384 887.495 957.198 887.491 957.615 C 887.337 973.158 888.546 1011.32 887.512 1024.76 C 886.585 1024.38 883.347 1023.12 883.331 1022.59 C 883.015 1011.52 882.176 964.08 883.84 956.175 z" fill="rgb(14,131,175)" transform="translate(0,0)"></path>
<path d="M 916.017 940.643 C 916.221 940.845 917.294 941.755 917.547 942.313 C 918.612 944.669 918.506 1019.79 918.071 1027.51 C 917.972 1029.27 917.468 1030.63 916.864 1032.29 C 916.652 1032.08 915.179 1030.73 915.186 1030.39 C 915.437 1017.43 913.7 947.803 916.017 940.643 z" fill="rgb(219,137,44)" transform="translate(0,0)"></path>
<path d="M 1238.98 967.389 C 1238.73 967.236 1241.59 968.799 1241.62 969.367 C 1242.34 984.625 1241.65 1000.19 1241.94 1015.5 C 1242.08 1022.81 1242.15 1024.93 1239.88 1031.6 C 1237.18 1032.23 1238 1029.78 1238.17 1027.5 C 1239.54 1009.47 1236.31 984.814 1238.98 967.389 z" fill="rgb(216,119,58)" transform="translate(0,0)"></path>
<path d="M 895.739 1176.44 C 899.728 1174.81 905.189 1172.59 909.113 1171.24 C 910.277 1177.66 910.047 1188.77 909.472 1195.39 C 909.462 1195.5 909.194 1195.6 909.075 1195.58 C 907.895 1195.37 906.961 1192.92 906.607 1192.09 C 902.771 1186.92 899.414 1181.69 895.739 1176.44 z" fill="rgb(234,104,91)" transform="translate(0,0)"></path>
<path d="M 909.113 1171.24 C 910.277 1177.66 910.047 1188.77 909.472 1195.39 C 909.462 1195.5 909.194 1195.6 909.075 1195.58 C 907.895 1195.37 906.961 1192.92 906.607 1192.09 C 910.348 1188.99 908.135 1179.07 909.113 1171.24 z" fill="rgb(226,115,87)" transform="translate(0,0)"></path>
<path d="M 851.773 964.516 C 851.382 964.209 853.673 965.881 853.679 966.194 C 853.833 975.112 854.477 1007.56 852.955 1014.36 C 849.545 1011.02 850.43 969.834 851.773 964.516 z" fill="rgb(201,185,156)" transform="translate(0,0)"></path>
<path d="M 916.293 1166.73 C 919.203 1170.13 917.635 1202.59 916.777 1208 C 914.059 1202.18 912.25 1172.07 915.475 1167.86 L 916.293 1166.73 z" fill="rgb(226,115,87)" transform="translate(0,0)"></path>
<path d="M 819.123 968.239 C 823.056 969.783 822.658 969.512 822.498 973.971 C 822.214 983.483 822.098 992.999 822.151 1002.51 C 821.361 1002.54 819.695 1002.57 819.524 1001.92 C 818.212 996.915 818.894 972.378 819.123 968.239 z" fill="rgb(20,142,167)" transform="translate(0,0)"></path>
<path d="M 1026.5 835.133 C 1028.69 835.023 1037.99 834.156 1038.87 835.012 C 1042.68 838.726 1037.98 840.073 1035.03 839.929 C 1032.83 840.181 1021.73 841.73 1021.03 841.175 C 1015.47 836.809 1026.25 835.194 1026.5 835.133 z" fill="rgb(216,119,58)" transform="translate(0,0)"></path>
<path d="M 1272.47 968.351 C 1279.88 969.153 1279.66 968.105 1275.9 974.522 C 1271.88 980.826 1272.76 971.833 1272.47 968.351 z" fill="rgb(235,144,126)" transform="translate(0,0)"></path>
<path d="M 1052.52 837.148 C 1055.97 838.432 1058.02 838.232 1058.65 841.73 L 1056.76 841.606 C 1052.43 841.343 1051.84 841.413 1052.52 837.148 z" fill="rgb(216,119,58)" transform="translate(0,0)"></path>
<path d="M 1037.72 1060.14 C 1039.61 1054.64 1039.94 1058.59 1040.38 1061.63 C 1039.64 1061.24 1038.43 1060.63 1037.72 1060.14 z" fill="rgb(226,115,87)" transform="translate(0,0)"></path>
<metadata><recraft-signature>{"signed_by": "recraft", "signature_b64": "BQw3c6JKxAxCHWrzdnop0VndxhvgyWJ+nK8YccDvcLUTEL++bDRXTBFK2zJixou65juDPRUs7GeBLV8R0bECAQ==", "signing_algo": "Ed25519", "generation_timestamp": 1778553499, "identifier": "36fa3c83-f265-40ba-87e2-dd3e132deea4"}</recraft-signature></metadata></svg>