<svg xmlns="http://www.w3.org/2000/svg" height="1024" preserveAspectRatio="none" style="display: block;" version="1.1" viewBox="0 0 2048 2048" width="1024">

<path d="M 909.155 419.157 C 945.172 418.569 982.575 415.297 1018.55 415.762 C 1058.96 416.286 1223.69 424.578 1226.02 476.692 C 1231.78 494.173 1241.2 515.908 1248.21 533.837 C 1254.65 550.297 1263.84 575.765 1272.25 591.233 C 1295.59 634.138 1358.81 673.791 1334.91 729.586 C 1329.53 742.132 1317.12 748.545 1305.12 753.202 C 1349.15 834.369 1391.08 917.229 1435.39 998.356 L 1499.12 1115.78 C 1550.6 1212.3 1591.47 1299.83 1591.11 1411.5 C 1590.97 1456.89 1587.15 1488.94 1574.03 1533.05 C 1565.17 1563.66 1552.19 1592.92 1535.44 1620.04 C 1528.74 1630.68 1520.61 1640.84 1514.2 1651.04 C 1563.12 1704.45 1623.8 1734.39 1694.87 1746.36 C 1710.14 1748.93 1726.71 1750.31 1741.67 1753.56 C 1785.77 1763.13 1806.83 1809.35 1767.43 1841.71 C 1759.35 1847.82 1753.24 1849.71 1744 1853.34 C 1735.17 1855.94 1727.96 1857.84 1718.98 1859.81 C 1711.53 1860.83 1704.37 1861.6 1696.93 1862.46 C 1688.9 1863.15 1680.04 1863.71 1671.99 1863.74 C 1665.31 1863.9 1656.64 1864.12 1650.07 1863.42 C 1639.71 1862.92 1629.5 1861.92 1619.17 1860.98 C 1616.7 1860.96 1614.5 1860.91 1612.03 1860.78 C 1608.91 1860.37 1604.58 1860.56 1601.94 1859.27 C 1597.86 1858.93 1597.12 1858.97 1593.32 1857.97 C 1586.61 1856.37 1564.89 1853.41 1557.89 1852.84 C 1555.29 1852.77 1535.99 1849.42 1533.65 1848.33 C 1530.04 1846.84 1505.46 1842.99 1499.8 1842.05 C 1491.84 1840.19 1482.55 1838.63 1474.46 1837.32 C 1464.88 1835.01 1450.83 1832.85 1440.84 1831.02 C 1432.3 1829.93 1422.94 1828.36 1414.46 1827.59 C 1412.62 1827.73 1412.76 1827.71 1411.05 1826.97 C 1403.03 1824.55 1390.57 1824.3 1382.02 1823.35 C 1375.65 1822.98 1357.92 1822.33 1352.12 1821.3 C 1333.99 1820.17 1315.84 1819.5 1297.68 1819.28 C 1276.65 1836.04 1258.95 1850.37 1235.82 1864.39 C 1154.92 1913.47 1064.96 1930.43 971.365 1920.21 C 969.935 1920.06 968.507 1919.88 967.081 1919.7 C 898.883 1912.37 835.643 1883.63 780.558 1843.57 C 771.062 1836.66 762.471 1827.29 753.45 1820.33 L 751.84 1819.1 C 734.001 1819.67 710.782 1819.2 693.674 1820.4 C 689.846 1821.15 670.292 1821.82 664.149 1822.46 C 653.035 1823.96 642.828 1824.22 631.526 1826.4 C 628.213 1827.09 624.369 1827.66 621.009 1828.18 L 615.006 1829.2 L 606.416 1830.56 C 590.687 1833.4 573.052 1836.4 557.511 1840.03 C 555.003 1841.14 536.536 1844.88 533.778 1845.06 C 522.404 1846.48 510.095 1849.25 498.853 1851.8 C 493.388 1853.58 477.993 1855.82 472.426 1855.87 L 437.959 1860.07 C 430.667 1860.76 422.542 1861.74 415.269 1862.04 C 407.092 1862.4 398.125 1862.98 390.004 1862.97 C 383.087 1862.99 373.848 1863.24 367.176 1862.44 L 343.945 1860.32 C 337.956 1859.71 328.209 1858.14 322.383 1856.77 C 313.991 1855.07 306.717 1852.41 298.659 1849.67 L 297.311 1849.11 C 294.154 1847.84 284.269 1843.47 282.734 1840.87 C 279.662 1839.11 277.945 1837.92 275.242 1835.51 C 261.982 1822.89 255.993 1807.19 264.286 1789.4 C 284.044 1747.01 327.951 1750.59 367.512 1743.18 C 408.12 1735.57 448.929 1724.49 484.55 1702.52 C 497.469 1694.73 534.514 1670.09 540.419 1656.73 C 473.841 1586.3 444.283 1488.71 443.819 1393.29 C 444.476 1250.96 525.969 1116.57 590.377 992.971 C 590.767 984.653 599.946 969.834 604.275 961.043 C 605.677 954.799 629.145 909.949 633.625 901.326 C 649.703 870.091 666.07 839.006 682.725 808.076 C 689.108 796.474 697.784 780.019 704.894 769.163 L 709.807 759.882 C 685.605 758.522 670.574 748.348 665.778 723.427 C 664.548 720.151 664.792 713.025 664.895 709.472 C 665.946 673.135 701.944 652.117 720.659 625.858 C 728.252 615.206 737.68 585.669 742.475 571.754 C 743.673 561.661 756.562 533.836 760.64 522.283 C 769.055 501.852 774.29 472.992 790.593 457.041 C 810.609 438.605 840.472 433.169 865.934 426.074 C 873.773 423.89 884.667 423.695 891.752 420.785 C 899.5 423.154 902.712 424.95 909.155 419.157 z" fill="rgb(235,82,29)" transform="translate(0,0)"></path>
<path d="M 1133.77 1207.72 C 1138.34 1196.37 1165.74 1120.06 1169.68 1116.94 C 1177.74 1118.08 1197.59 1133.09 1204.2 1138.7 C 1196.95 1160.81 1185.49 1187.43 1176.63 1209.61 C 1172.81 1218.63 1153.53 1265.22 1154.03 1272.32 C 1157.97 1268.06 1170.77 1234.05 1173.45 1226.64 C 1188.32 1239.44 1200.96 1250.36 1213.67 1265.73 C 1259.61 1321.32 1288.39 1388.93 1294.02 1460.99 C 1295.92 1485.44 1292.71 1499.57 1292.87 1521.21 C 1279.71 1526.93 1268.65 1534.11 1263.03 1548.28 C 1261.61 1551.94 1260.4 1555.68 1259.39 1559.48 C 1230.16 1568.52 1216.29 1592.19 1210.14 1620.78 C 1198.38 1622.18 1184.28 1624.79 1177.49 1635.12 C 1158.07 1664.68 1174.22 1690.05 1204.43 1697.24 C 1225.91 1724.79 1242.28 1726.67 1275.6 1721.28 C 1223.99 1813.51 1142.34 1876.01 1040.98 1904.69 C 1024.93 1909.08 1008.61 1912.43 992.125 1914.7 C 987.424 1915.33 968.907 1915.96 966.556 1918.44 L 967.081 1919.7 C 898.883 1912.37 835.643 1883.63 780.558 1843.57 C 771.062 1836.66 762.471 1827.29 753.45 1820.33 L 751.84 1819.1 C 734.001 1819.67 710.782 1819.2 693.674 1820.4 C 689.846 1821.15 670.292 1821.82 664.149 1822.46 C 653.035 1823.96 642.828 1824.22 631.526 1826.4 C 628.213 1827.09 624.369 1827.66 621.009 1828.18 L 615.006 1829.2 L 606.416 1830.56 C 590.687 1833.4 573.052 1836.4 557.511 1840.03 C 555.003 1841.14 536.536 1844.88 533.778 1845.06 C 522.404 1846.48 510.095 1849.25 498.853 1851.8 C 493.388 1853.58 477.993 1855.82 472.426 1855.87 L 437.959 1860.07 C 430.667 1860.76 422.542 1861.74 415.269 1862.04 C 407.092 1862.4 398.125 1862.98 390.004 1862.97 C 383.087 1862.99 373.848 1863.24 367.176 1862.44 L 343.945 1860.32 C 337.956 1859.71 328.209 1858.14 322.383 1856.77 C 313.991 1855.07 306.717 1852.41 298.659 1849.67 L 297.311 1849.11 C 294.154 1847.84 284.269 1843.47 282.734 1840.87 C 279.662 1839.11 277.945 1837.92 275.242 1835.51 C 261.982 1822.89 255.993 1807.19 264.286 1789.4 C 284.044 1747.01 327.951 1750.59 367.512 1743.18 C 408.12 1735.57 448.929 1724.49 484.55 1702.52 C 497.469 1694.73 534.514 1670.09 540.419 1656.73 C 473.841 1586.3 444.283 1488.71 443.819 1393.29 C 482.764 1384.17 512.402 1383.51 548.484 1404.97 C 595.12 1432.71 584.435 1482.68 636.51 1509.08 C 639.275 1504.22 647.238 1492.05 648.87 1488.5 C 649.938 1440.3 681.022 1374.91 708.186 1336.07 C 745.452 1282.78 810.286 1223.13 873.596 1204.48 C 874.647 1207.75 876.009 1211.44 876.395 1214.79 C 877.083 1217.22 877.795 1219.41 878.596 1221.81 C 885.795 1232.42 894.378 1269.76 900.349 1273.71 L 901.213 1272.97 C 899.787 1265.6 891.032 1247.1 888.317 1237.77 C 888.465 1233.92 884.511 1225.86 885.468 1224.99 C 886.714 1226.19 886.884 1229.03 890.178 1232.29 C 887.152 1221.9 881.726 1208.22 877.837 1197.81 L 875.058 1199.81 C 865.904 1178.1 854.505 1152.68 846.951 1130.69 C 859.502 1128.84 874.653 1126.48 886.826 1123.03 C 897.422 1151.84 908.354 1180.52 919.62 1209.07 C 927.267 1225.78 935.227 1257.95 945.357 1271.17 C 944.906 1264.5 925.286 1215.46 921.424 1205.2 C 943.545 1194.79 996.986 1177.09 1020.43 1172.99 C 1036.45 1171.75 1071.04 1174.02 1086.49 1178.59 C 1086.34 1178.46 1130.04 1194.21 1134.85 1196.19 C 1131.64 1205.4 1107.35 1264.8 1108.16 1268.24 C 1110.65 1267.16 1109.5 1267.92 1111.14 1265.04 C 1118.11 1249.51 1127.84 1224.08 1133.77 1207.72 z" fill="rgb(66,69,105)" transform="translate(0,0)"></path>
<path d="M 443.819 1393.29 C 482.764 1384.17 512.402 1383.51 548.484 1404.97 C 595.12 1432.71 584.435 1482.68 636.51 1509.08 C 639.275 1504.22 647.238 1492.05 648.87 1488.5 C 657.503 1481.35 664.042 1476.42 675.496 1474.18 C 713.193 1466.82 734.93 1484.73 740.076 1521.41 C 767.318 1529.49 780.931 1547.19 781.413 1575.41 C 811.139 1576.12 828.695 1588.64 831.601 1619.57 C 844.551 1620.33 854.002 1622.01 863.41 1632.4 C 870.525 1640.24 874.08 1650.68 873.233 1661.24 C 872.317 1671.7 867.09 1681.3 858.807 1687.74 C 852.727 1692.51 846.514 1694.5 839.129 1696.47 L 838.091 1697.67 C 830.534 1706.5 828.257 1712.95 816.204 1718.6 C 793.887 1729.06 771.925 1725.13 751.907 1712.09 C 745.56 1717.87 741.632 1719.93 733.768 1723.7 C 726.389 1724.54 715.289 1724.67 710.275 1725.38 C 704.854 1728.02 701.01 1726.39 693.629 1727.07 C 688.174 1726.95 685.27 1724.48 690.168 1720.17 C 686.01 1715.91 670.886 1704.15 664.603 1698.4 C 676.349 1728.06 703.723 1760.31 722.339 1786.85 C 727.129 1793.68 750.86 1813.77 751.84 1819.1 C 734.001 1819.67 710.782 1819.2 693.674 1820.4 C 689.846 1821.15 670.292 1821.82 664.149 1822.46 C 653.035 1823.96 642.828 1824.22 631.526 1826.4 C 628.213 1827.09 624.369 1827.66 621.009 1828.18 L 615.006 1829.2 L 606.416 1830.56 C 590.687 1833.4 573.052 1836.4 557.511 1840.03 C 555.003 1841.14 536.536 1844.88 533.778 1845.06 C 522.404 1846.48 510.095 1849.25 498.853 1851.8 C 493.388 1853.58 477.993 1855.82 472.426 1855.87 L 437.959 1860.07 C 430.667 1860.76 422.542 1861.74 415.269 1862.04 C 407.092 1862.4 398.125 1862.98 390.004 1862.97 C 383.087 1862.99 373.848 1863.24 367.176 1862.44 L 343.945 1860.32 C 337.956 1859.71 328.209 1858.14 322.383 1856.77 C 313.991 1855.07 306.717 1852.41 298.659 1849.67 L 297.311 1849.11 C 294.154 1847.84 284.269 1843.47 282.734 1840.87 C 279.662 1839.11 277.945 1837.92 275.242 1835.51 C 261.982 1822.89 255.993 1807.19 264.286 1789.4 C 284.044 1747.01 327.951 1750.59 367.512 1743.18 C 408.12 1735.57 448.929 1724.49 484.55 1702.52 C 497.469 1694.73 534.514 1670.09 540.419 1656.73 C 473.841 1586.3 444.283 1488.71 443.819 1393.29 z" fill="rgb(12,12,13)" transform="translate(0,0)"></path>
<path d="M 540.419 1656.73 C 551.172 1653.01 608.407 1561.91 632.874 1564.95 C 639.44 1570.67 631.815 1585.98 629.93 1594.13 C 628.162 1601.98 627.526 1610.04 628.042 1618.06 C 628.972 1634.1 635.078 1649.67 644.168 1662.77 C 647.902 1668.15 652.77 1674.46 655.092 1680.46 C 658.71 1689.81 659.42 1701.53 662.297 1711.02 C 666.506 1724.89 673.695 1738.89 679.614 1752.16 C 684.231 1755.11 689.776 1756.53 691.646 1762.58 C 695.528 1775.15 690.021 1810.25 693.674 1820.4 C 689.846 1821.15 670.292 1821.82 664.149 1822.46 C 653.035 1823.96 642.828 1824.22 631.526 1826.4 C 628.213 1827.09 624.369 1827.66 621.009 1828.18 L 615.006 1829.2 L 606.416 1830.56 C 590.687 1833.4 573.052 1836.4 557.511 1840.03 C 555.003 1841.14 536.536 1844.88 533.778 1845.06 C 522.404 1846.48 510.095 1849.25 498.853 1851.8 C 493.388 1853.58 477.993 1855.82 472.426 1855.87 L 437.959 1860.07 C 430.667 1860.76 422.542 1861.74 415.269 1862.04 C 407.092 1862.4 398.125 1862.98 390.004 1862.97 C 383.087 1862.99 373.848 1863.24 367.176 1862.44 L 343.945 1860.32 C 337.956 1859.71 328.209 1858.14 322.383 1856.77 C 313.991 1855.07 306.717 1852.41 298.659 1849.67 L 297.311 1849.11 C 294.154 1847.84 284.269 1843.47 282.734 1840.87 C 279.662 1839.11 277.945 1837.92 275.242 1835.51 C 261.982 1822.89 255.993 1807.19 264.286 1789.4 C 284.044 1747.01 327.951 1750.59 367.512 1743.18 C 408.12 1735.57 448.929 1724.49 484.55 1702.52 C 497.469 1694.73 534.514 1670.09 540.419 1656.73 z" fill="rgb(66,69,105)" transform="translate(0,0)"></path>
<path d="M 679.614 1752.16 C 684.231 1755.11 689.776 1756.53 691.646 1762.58 C 695.528 1775.15 690.021 1810.25 693.674 1820.4 C 689.846 1821.15 670.292 1821.82 664.149 1822.46 C 653.035 1823.96 642.828 1824.22 631.526 1826.4 C 631.366 1825.1 631.229 1823.8 631.117 1822.5 C 630.816 1818.81 630.357 1815.16 629.727 1811.51 L 628.144 1802.1 C 628.057 1801.48 627.97 1800.86 627.883 1800.24 C 641.498 1792.06 653.675 1781.69 663.926 1769.56 C 665.117 1758.1 669.479 1756.17 679.614 1752.16 z" fill="rgb(235,82,29)" transform="translate(0,0)"></path>
<path d="M 663.926 1769.56 C 664.604 1785.81 664.468 1806.1 664.149 1822.46 C 653.035 1823.96 642.828 1824.22 631.526 1826.4 C 631.366 1825.1 631.229 1823.8 631.117 1822.5 C 630.816 1818.81 630.357 1815.16 629.727 1811.51 L 628.144 1802.1 C 628.057 1801.48 627.97 1800.86 627.883 1800.24 C 641.498 1792.06 653.675 1781.69 663.926 1769.56 z" fill="rgb(12,12,13)" transform="translate(0,0)"></path>
<path d="M 606.416 1830.56 C 604.581 1819.11 594.773 1783.28 601.491 1773.48 C 609.145 1762.3 627.581 1769.66 626.231 1784.49 C 626.185 1785 627.661 1798.3 627.883 1800.24 C 627.97 1800.86 628.057 1801.48 628.144 1802.1 L 629.727 1811.51 C 630.357 1815.16 630.816 1818.81 631.117 1822.5 C 631.229 1823.8 631.366 1825.1 631.526 1826.4 C 628.213 1827.09 624.369 1827.66 621.009 1828.18 L 615.006 1829.2 L 606.416 1830.56 z" fill="rgb(235,82,29)" transform="translate(0,0)"></path>
<path d="M 533.778 1845.06 C 531.792 1840.01 530.411 1834.78 529.227 1829.48 L 527.728 1822.53 L 526.74 1818.02 C 524.891 1809.65 519.619 1798.6 526.822 1792.83 C 539.47 1782.68 547.129 1792.13 549.753 1804.01 L 550.788 1808.52 C 552.694 1816.76 556.917 1832.19 557.511 1840.03 C 555.003 1841.14 536.536 1844.88 533.778 1845.06 z" fill="rgb(233,218,200)" transform="translate(0,0)"></path>
<path d="M 472.426 1855.87 C 472.183 1843.4 471.456 1821.4 472.835 1808.52 C 473.6 1805.97 477.149 1803.29 479.392 1802.65 C 507.997 1794.46 493.116 1839.6 498.853 1851.8 C 493.388 1853.58 477.993 1855.82 472.426 1855.87 z" fill="rgb(233,218,200)" transform="translate(0,0)"></path>
<path d="M 367.176 1862.44 C 367.542 1848.47 360.563 1794.24 388.229 1815.42 C 391.434 1817.87 390.1 1856.73 390.004 1862.97 C 383.087 1862.99 373.848 1863.24 367.176 1862.44 z" fill="rgb(235,82,29)" transform="translate(0,0)"></path>
<path d="M 415.269 1862.04 L 415.73 1823.99 C 415.801 1813.45 422.307 1807.28 432.375 1811.4 C 442.737 1815.64 438.168 1849.12 437.959 1860.07 C 430.667 1860.76 422.542 1861.74 415.269 1862.04 z" fill="rgb(235,82,29)" transform="translate(0,0)"></path>
<path d="M 322.383 1856.77 C 321.921 1847.84 320.493 1822.25 324.459 1813.95 C 326.362 1809.96 339.749 1809.45 342.213 1814.44 C 346.34 1824.38 344.008 1849.29 343.945 1860.32 C 337.956 1859.71 328.209 1858.14 322.383 1856.77 z" fill="rgb(235,82,29)" transform="translate(0,0)"></path>
<path d="M 276.184 1833.81 C 274.871 1817.98 273.218 1792.27 297.256 1807.77 C 300.482 1809.85 299.254 1844.32 298.659 1849.67 L 297.311 1849.11 C 294.154 1847.84 284.269 1843.47 282.734 1840.87 C 279.662 1839.11 277.945 1837.92 275.242 1835.51 L 276.184 1833.81 z" fill="rgb(233,218,200)" transform="translate(0,0)"></path>
<path d="M 276.184 1833.81 C 279.299 1836.83 280.127 1837.46 282.734 1840.87 C 279.662 1839.11 277.945 1837.92 275.242 1835.51 L 276.184 1833.81 z" fill="rgb(170,160,153)" transform="translate(0,0)"></path>
<path d="M 537.085 1682.67 C 538.125 1683.13 542.037 1685.68 540.902 1687.01 C 526.04 1704.42 502.837 1720.51 483.5 1732.32 C 472.026 1730.95 485.844 1722.19 489.307 1720.11 C 507.038 1709.44 521.652 1696.22 537.085 1682.67 z" fill="rgb(233,218,200)" transform="translate(0,0)"></path>
<path d="M 598.329 1607.54 C 602.084 1610.36 604.021 1610.52 600.954 1614.45 L 559.34 1668.44 C 551.974 1663.11 555.275 1662.33 560.146 1656.03 C 572.667 1639.84 584.349 1622.52 598.329 1607.54 z" fill="rgb(233,218,200)" transform="translate(0,0)"></path>
<path d="M 386.699 1760.38 C 391.946 1758.94 391.463 1764.31 390.649 1764.8 C 380.669 1770.87 340.952 1772.18 332.054 1773.02 C 330.263 1772.83 324.387 1772.8 327.18 1766.91 C 328.054 1765.07 338.484 1765.1 341.357 1765.06 C 356.615 1764.86 371.557 1762.47 386.699 1760.38 z" fill="rgb(233,218,200)" transform="translate(0,0)"></path>
<path d="M 457.526 1736.81 C 459.353 1737.14 460.043 1737.17 460.924 1739.03 C 463.062 1743.54 450.379 1747.03 447.398 1748.2 C 440.081 1751.08 431.153 1754.75 423.477 1756.78 C 420.656 1757.55 417.821 1758.28 414.975 1758.96 C 414.966 1758.95 409.556 1755.23 411.326 1754.4 C 426.261 1747.42 442.439 1744.52 457.526 1736.81 z" fill="rgb(233,218,200)" transform="translate(0,0)"></path>
<path d="M 690.168 1720.17 C 696.913 1722.89 703.144 1724.11 710.275 1725.38 C 704.854 1728.02 701.01 1726.39 693.629 1727.07 C 688.174 1726.95 685.27 1724.48 690.168 1720.17 z" fill="rgb(233,218,200)" transform="translate(0,0)"></path>
<path d="M 681.334 1477.28 L 682.708 1477.16 C 714.542 1474.61 735.003 1491.57 735.975 1523.76 C 766.035 1532.72 777.586 1549.45 778.279 1580.24 C 780.977 1579.84 783.687 1579.53 786.405 1579.32 C 814.445 1577.23 826.348 1599.66 827.499 1624.2 C 848.661 1620.82 865.832 1630.92 869.181 1652.93 C 870.661 1662.51 868.013 1672.26 861.893 1679.77 C 855.709 1687.38 846.751 1692.22 836.997 1693.21 C 825.891 1694.31 813.983 1690.1 805.366 1683.14 L 798.663 1689.8 C 773.835 1707.8 756.196 1703.13 733.904 1685.11 C 721.445 1702.01 702.948 1707.03 683.654 1698.32 C 664.154 1689.53 645.822 1662.67 637.885 1643.34 C 627.164 1617.24 629.976 1596.57 640.988 1571.45 C 630.032 1543.62 628.859 1523.37 646.908 1497.83 C 656.172 1484.72 665.962 1479.92 681.334 1477.28 z" fill="rgb(66,69,105)" transform="translate(0,0)"></path>
<path d="M 645.794 1600.43 C 648.399 1601.68 649.937 1602.05 650.071 1604.99 C 650.829 1621.74 654.266 1636.49 662.874 1650.98 C 663.242 1651.6 660.103 1655.37 659.906 1655.63 C 650.283 1651.67 636.564 1608.82 645.794 1600.43 z" fill="rgb(233,218,200)" transform="translate(0,0)"></path>
<path d="M 645.7 1537.62 C 646.047 1537.66 651.716 1537.82 651.737 1538.94 C 651.945 1549.58 650.317 1560.76 650.263 1571.5 C 650.236 1576.94 650.829 1582.63 648.722 1587.46 C 647.612 1587.33 642.967 1587.18 642.757 1585.53 C 641.02 1571.92 643.241 1551.01 645.7 1537.62 z" fill="rgb(233,218,200)" transform="translate(0,0)"></path>
<path d="M 658.398 1499.27 C 660.594 1499.8 665.002 1500.71 663.643 1503.34 C 660.486 1509.45 658.09 1515.21 656.056 1521.85 C 654.813 1521.32 650.389 1519.63 650.442 1518.36 C 650.628 1513.93 656.604 1502.68 658.398 1499.27 z" fill="rgb(233,218,200)" transform="translate(0,0)"></path>
<path d="M 672.134 1666.71 C 673.611 1665.82 675.46 1665.82 676.94 1666.7 C 678.421 1667.59 679.292 1669.22 679.205 1670.94 C 679.119 1672.67 678.089 1674.2 676.527 1674.93 C 674.279 1675.99 671.599 1675.1 670.429 1672.91 C 669.259 1670.72 670.008 1667.99 672.134 1666.71 z" fill="rgb(233,218,200)" transform="translate(0,0)"></path>
<path d="M 549.553 1541.41 C 552.277 1540.24 555.423 1540.64 557.768 1542.45 C 560.114 1544.27 561.288 1547.21 560.835 1550.14 C 560.383 1553.07 558.374 1555.53 555.59 1556.55 C 551.445 1558.07 546.841 1556.02 545.205 1551.92 C 543.57 1547.82 545.497 1543.16 549.553 1541.41 z" fill="rgb(206,148,80)" transform="translate(0,0)"></path>
<path d="M 500.543 1527.71 C 504.35 1526.53 508.41 1528.58 509.718 1532.34 C 511.027 1536.11 509.113 1540.23 505.393 1541.67 C 502.874 1542.64 500.027 1542.16 497.966 1540.41 C 495.905 1538.67 494.957 1535.95 495.493 1533.3 C 496.03 1530.66 497.966 1528.51 500.543 1527.71 z" fill="rgb(206,148,80)" transform="translate(0,0)"></path>
<path d="M 549.861 1485.67 C 553.467 1484.69 557.186 1486.82 558.174 1490.42 C 559.161 1494.02 557.044 1497.75 553.442 1498.74 C 549.83 1499.74 546.093 1497.62 545.103 1494 C 544.112 1490.39 546.244 1486.65 549.861 1485.67 z" fill="rgb(206,148,80)" transform="translate(0,0)"></path>
<path d="M 525.041 1435.66 C 527.062 1434.27 529.677 1434.08 531.876 1435.17 C 534.076 1436.25 535.516 1438.44 535.641 1440.89 C 535.766 1443.34 534.557 1445.67 532.48 1446.97 C 529.359 1448.93 525.242 1448.04 523.218 1444.96 C 521.193 1441.88 522.003 1437.74 525.041 1435.66 z" fill="rgb(206,148,80)" transform="translate(0,0)"></path>
<path d="M 471.2 1459.52 C 473.38 1458.75 475.807 1459.26 477.5 1460.83 C 479.193 1462.41 479.87 1464.79 479.258 1467.02 C 478.646 1469.25 476.846 1470.95 474.587 1471.44 C 471.385 1472.14 468.196 1470.22 467.3 1467.07 C 466.405 1463.92 468.112 1460.62 471.2 1459.52 z" fill="rgb(206,148,80)" transform="translate(0,0)"></path>
<path d="M 498.332 1493.45 C 499.682 1493.05 501.146 1493.4 502.161 1494.38 C 503.177 1495.36 503.588 1496.81 503.236 1498.17 C 502.883 1499.54 501.823 1500.61 500.461 1500.97 C 498.399 1501.52 496.276 1500.32 495.694 1498.26 C 495.112 1496.21 496.287 1494.07 498.332 1493.45 z" fill="rgb(206,148,80)" transform="translate(0,0)"></path>
<path d="M 877.837 1197.81 C 874.612 1188.94 865.239 1166.04 865.841 1158.34 L 867.062 1157.41 C 875.479 1162.61 895.026 1230.43 902.207 1243.37 C 904.496 1247.5 910.17 1261.81 909.759 1266.6 L 908.063 1267.83 C 899.793 1264.05 895.617 1240.7 890.178 1232.29 C 887.152 1221.9 881.726 1208.22 877.837 1197.81 z" fill="rgb(233,218,200)" transform="translate(0,0)"></path>
<path d="M 1133.77 1207.72 C 1135.76 1208.27 1136.88 1208.48 1138.88 1208.83 C 1140.11 1209.38 1143.38 1210.45 1143.89 1212.05 C 1144.15 1212.85 1122.7 1265.32 1120.25 1268.76 C 1119.94 1269.19 1119.81 1269.58 1119.28 1269.57 C 1117.33 1269.54 1115.03 1268.28 1113.16 1267.67 C 1112.35 1266.69 1111.86 1266.1 1111.14 1265.04 C 1118.11 1249.51 1127.84 1224.08 1133.77 1207.72 z" fill="rgb(233,218,200)" transform="translate(0,0)"></path>
<path d="M 1133.77 1207.72 C 1135.76 1208.27 1136.88 1208.48 1138.88 1208.83 C 1130.1 1223.4 1121.91 1252.2 1113.16 1267.67 C 1112.35 1266.69 1111.86 1266.1 1111.14 1265.04 C 1118.11 1249.51 1127.84 1224.08 1133.77 1207.72 z" fill="rgb(75,81,104)" transform="translate(0,0)"></path>
<path d="M 878.596 1221.81 C 862.892 1233.7 837.154 1244.51 819.961 1255.17 C 818.23 1256.25 816.013 1251.87 816.464 1251.49 C 832.902 1237.78 856.239 1229.61 873.781 1216.75 L 876.395 1214.79 C 877.083 1217.22 877.795 1219.41 878.596 1221.81 z" fill="rgb(233,218,200)" transform="translate(0,0)"></path>
<path d="M 710.275 1725.38 C 715.289 1724.67 726.389 1724.54 733.768 1723.7 C 727.362 1730.31 702.252 1728.7 693.629 1727.07 C 701.01 1726.39 704.854 1728.02 710.275 1725.38 z" fill="rgb(214,207,200)" transform="translate(0,0)"></path>
<path d="M 904.314 1454.75 C 886.559 1449.22 884.279 1420.79 897.459 1408.34 C 924.465 1382.82 969.987 1374.54 1005.93 1373.09 C 1051.04 1371.27 1106.41 1375.34 1142.31 1405.52 C 1158.99 1419.63 1157.5 1436.6 1143.3 1451.39 C 1142 1453 1141.73 1453.26 1139.8 1453.85 C 1097.48 1502.6 947.503 1501.89 904.314 1454.75 z" fill="rgb(233,218,200)" transform="translate(0,0)"></path>
<path d="M 904.314 1454.75 C 886.559 1449.22 884.279 1420.79 897.459 1408.34 C 924.465 1382.82 969.987 1374.54 1005.93 1373.09 C 1051.04 1371.27 1106.41 1375.34 1142.31 1405.52 C 1158.99 1419.63 1157.5 1436.6 1143.3 1451.39 C 1142.48 1449.02 1142.07 1446.78 1141.6 1444.3 C 1130.73 1407.85 1067.02 1403.67 1035.41 1401.22 C 1007.42 1399.04 888.536 1405.83 904.314 1454.75 z" fill="rgb(12,12,13)" transform="translate(0,0)"></path>
<path d="M 1141.6 1444.3 C 1142.07 1446.78 1142.48 1449.02 1143.3 1451.39 C 1142 1453 1141.73 1453.26 1139.8 1453.85 C 1141.05 1449.66 1141.01 1448.63 1141.6 1444.3 z" fill="rgb(22,22,28)" transform="translate(0,0)"></path>
<path d="M 749.81 1798.22 C 758.281 1797.15 768.949 1797.55 777.634 1797.68 C 802.346 1798.14 827.333 1797.05 851.943 1798.22 C 852.876 1798.27 853.625 1801.78 853.751 1802.29 L 854.245 1804.01 C 835.266 1804.73 815.74 1803.77 796.645 1804.02 C 782.166 1804.22 766.431 1804.18 752.03 1802.98 C 751.077 1802.9 749.976 1798.74 749.81 1798.22 z" fill="rgb(233,218,200)" transform="translate(0,0)"></path>
<path d="M 718.009 1761.35 C 728.49 1761.15 829.48 1760.59 832.769 1762.99 L 833.306 1766.91 C 795.441 1766.86 757.496 1767.2 719.642 1766.84 C 719.132 1766.39 718.621 1765.94 718.111 1765.49 L 718.009 1761.35 z" fill="rgb(233,218,200)" transform="translate(0,0)"></path>
<path d="M 790.039 1834.38 C 811.761 1833.98 843.149 1833.67 865.581 1834.59 C 866.388 1834.62 866.454 1838.13 866.462 1838.77 L 866.515 1840.68 C 842.509 1840.25 818.49 1841.02 794.484 1840.82 C 793.414 1840.65 791.363 1841.11 790.611 1839.94 C 789.665 1838.46 790.069 1835.95 790.039 1834.38 z" fill="rgb(233,218,200)" transform="translate(0,0)"></path>
<path d="M 1169.21 1133.42 C 1170.54 1133.71 1175.42 1134.53 1174.97 1136.09 C 1169.96 1153.72 1156.56 1183.58 1150.52 1199.63 C 1149.55 1199.11 1144.75 1196.22 1145.25 1194.93 C 1153.08 1174.75 1161.59 1153.61 1169.21 1133.42 z" fill="rgb(233,218,200)" transform="translate(0,0)"></path>
<path d="M 715.488 1347.5 C 737.212 1346.64 762.324 1346.56 784.134 1347.66 C 785.393 1347.72 787.813 1352.6 782.25 1353.15 C 758.883 1353.25 735.295 1353.35 711.993 1352.96 C 711.127 1352.95 708.108 1348.62 715.488 1347.5 z" fill="rgb(233,218,200)" transform="translate(0,0)"></path>
<path d="M 848.416 1867.11 C 867.403 1866.69 886.521 1867.19 905.521 1867.08 C 914.373 1867.03 914.58 1865.55 915.402 1873.3 C 897.141 1873.58 878.688 1872.94 860.401 1873.09 C 855.086 1873.14 849.666 1874.65 848.716 1868.76 L 848.416 1867.11 z" fill="rgb(233,218,200)" transform="translate(0,0)"></path>
<path d="M 741.373 1313.38 C 761.81 1313 784.773 1312.58 804.987 1313.96 C 806.968 1314.1 803.867 1318.4 802.939 1319.17 C 782.584 1319.24 761.915 1319.72 741.653 1319.06 C 739.323 1318.99 740.897 1314.36 741.373 1313.38 z" fill="rgb(233,218,200)" transform="translate(0,0)"></path>
<path d="M 694.856 1382.11 C 707.419 1381.96 736.203 1381.2 749.8 1383.11 C 750.97 1383.28 750.58 1387.14 750.561 1388.07 C 735.232 1388.94 719.88 1388.73 704.53 1388.89 C 695.229 1388.98 695.069 1390.54 694.856 1382.11 z" fill="rgb(233,218,200)" transform="translate(0,0)"></path>
<path d="M 678.559 1417.27 C 694.117 1417.45 712.305 1416.93 727.76 1418.24 C 728.661 1418.31 729.287 1422.85 729.387 1423.4 C 715.75 1425.42 694.01 1423.35 679.845 1423.29 C 678.682 1423.28 678.587 1417.63 678.559 1417.27 z" fill="rgb(233,218,200)" transform="translate(0,0)"></path>
<path d="M 666.306 1452.11 C 677.257 1452 690.914 1451.6 701.941 1452.51 C 703.269 1452.62 703.292 1458.06 703.337 1458.69 C 691.466 1458.69 678.814 1459.18 667.132 1458.44 C 666.137 1458.38 666.324 1452.58 666.306 1452.11 z" fill="rgb(233,218,200)" transform="translate(0,0)"></path>
<path d="M 773.951 1279.98 C 779.376 1279.89 805.534 1279.26 811.811 1280.56 C 812.792 1280.76 812.118 1284.21 811.876 1285.57 C 799.889 1285.67 787.282 1286.09 775.434 1285.39 C 774.537 1285.34 774.016 1280.45 773.951 1279.98 z" fill="rgb(233,218,200)" transform="translate(0,0)"></path>
<path d="M 1135.85 522.556 L 1135.12 519.526 C 1135.7 518.964 1136.29 518.401 1136.87 517.839 C 1165.83 510.353 1210.04 508.129 1226.02 476.692 C 1231.78 494.173 1241.2 515.908 1248.21 533.837 C 1254.65 550.297 1263.84 575.765 1272.25 591.233 C 1295.59 634.138 1358.81 673.791 1334.91 729.586 C 1329.53 742.132 1317.12 748.545 1305.12 753.202 C 1349.15 834.369 1391.08 917.229 1435.39 998.356 L 1499.12 1115.78 C 1550.6 1212.3 1591.47 1299.83 1591.11 1411.5 C 1590.97 1456.89 1587.15 1488.94 1574.03 1533.05 C 1565.17 1563.66 1552.19 1592.92 1535.44 1620.04 C 1528.74 1630.68 1520.61 1640.84 1514.2 1651.04 C 1563.12 1704.45 1623.8 1734.39 1694.87 1746.36 C 1710.14 1748.93 1726.71 1750.31 1741.67 1753.56 C 1785.77 1763.13 1806.83 1809.35 1767.43 1841.71 C 1759.35 1847.82 1753.24 1849.71 1744 1853.34 C 1735.17 1855.94 1727.96 1857.84 1718.98 1859.81 C 1711.53 1860.83 1704.37 1861.6 1696.93 1862.46 C 1688.9 1863.15 1680.04 1863.71 1671.99 1863.74 C 1665.31 1863.9 1656.64 1864.12 1650.07 1863.42 C 1639.71 1862.92 1629.5 1861.92 1619.17 1860.98 C 1616.7 1860.96 1614.5 1860.91 1612.03 1860.78 C 1608.91 1860.37 1604.58 1860.56 1601.94 1859.27 C 1597.86 1858.93 1597.12 1858.97 1593.32 1857.97 C 1586.61 1856.37 1564.89 1853.41 1557.89 1852.84 C 1555.29 1852.77 1535.99 1849.42 1533.65 1848.33 C 1530.04 1846.84 1505.46 1842.99 1499.8 1842.05 C 1491.84 1840.19 1482.55 1838.63 1474.46 1837.32 C 1464.88 1835.01 1450.83 1832.85 1440.84 1831.02 C 1432.3 1829.93 1422.94 1828.36 1414.46 1827.59 C 1412.62 1827.73 1412.76 1827.71 1411.05 1826.97 C 1403.03 1824.55 1390.57 1824.3 1382.02 1823.35 C 1375.65 1822.98 1357.92 1822.33 1352.12 1821.3 C 1333.99 1820.17 1315.84 1819.5 1297.68 1819.28 C 1276.65 1836.04 1258.95 1850.37 1235.82 1864.39 C 1154.92 1913.47 1064.96 1930.43 971.365 1920.21 C 969.935 1920.06 968.507 1919.88 967.081 1919.7 L 966.556 1918.44 C 968.907 1915.96 987.424 1915.33 992.125 1914.7 C 1008.61 1912.43 1024.93 1909.08 1040.98 1904.69 C 1142.34 1876.01 1223.99 1813.51 1275.6 1721.28 C 1242.28 1726.67 1225.91 1724.79 1204.43 1697.24 C 1174.22 1690.05 1158.07 1664.68 1177.49 1635.12 C 1184.28 1624.79 1198.38 1622.18 1210.14 1620.78 C 1216.29 1592.19 1230.16 1568.52 1259.39 1559.48 C 1260.4 1555.68 1261.61 1551.94 1263.03 1548.28 C 1268.65 1534.11 1279.71 1526.93 1292.87 1521.21 C 1292.71 1499.57 1295.92 1485.44 1294.02 1460.99 C 1288.39 1388.93 1259.61 1321.32 1213.67 1265.73 C 1200.96 1250.36 1188.32 1239.44 1173.45 1226.64 C 1170.77 1234.05 1157.97 1268.06 1154.03 1272.32 C 1153.53 1265.22 1172.81 1218.63 1176.63 1209.61 C 1185.49 1187.43 1196.95 1160.81 1204.2 1138.7 C 1197.59 1133.09 1177.74 1118.08 1169.68 1116.94 C 1165.74 1120.06 1138.34 1196.37 1133.77 1207.72 C 1127.84 1224.08 1118.11 1249.51 1111.14 1265.04 C 1109.5 1267.92 1110.65 1267.16 1108.16 1268.24 C 1107.35 1264.8 1131.64 1205.4 1134.85 1196.19 C 1130.04 1194.21 1086.34 1178.46 1086.49 1178.59 C 1102.01 1181.12 1122.07 1187.12 1136.82 1192.67 C 1147.18 1164.38 1158.79 1136.55 1168.92 1108.16 C 1170.51 1103.69 1172.05 1099.18 1173.93 1094.81 C 1151.19 1080.45 1135.78 1055.46 1129.84 1029.52 C 1123.59 1001.65 1128.71 972.443 1144.05 948.353 C 1159.31 923.775 1183.91 906.457 1212.2 900.371 C 1240.94 893.905 1268.96 898.984 1293.79 914.767 C 1317.34 929.759 1333.87 953.587 1339.67 980.893 C 1346.23 1010.22 1340.57 1040.96 1324 1066.04 C 1308.93 1088.94 1283.74 1106.57 1256.82 1112.05 C 1244.04 1114.52 1230.93 1114.77 1218.07 1112.78 C 1205.2 1144.29 1192.11 1179.86 1178.71 1210.53 C 1179.86 1213.05 1194.05 1220.72 1197.54 1222.84 C 1218.24 1235.52 1237.87 1249.88 1256.22 1265.76 C 1306.51 1310.35 1344.39 1367.21 1366.17 1430.79 C 1371.14 1444.9 1378.46 1470.88 1379.45 1485.56 C 1386.42 1491.76 1389.32 1494.91 1395.25 1502.07 C 1433.15 1480.82 1459.82 1441.34 1456.13 1396.73 C 1449.55 1317.22 1360.28 1292.91 1337.69 1220.06 C 1320.9 1165.91 1341.12 1131.94 1366.87 1085.66 C 1386.12 1048.73 1394.91 1010.06 1377.26 970.93 C 1363.22 939.807 1347.09 928.645 1320.65 908.639 C 1291.74 886.766 1273.29 861.07 1262.02 826.591 C 1251.38 780.521 1251.76 759.153 1264 713.698 C 1256.23 687.979 1246.88 655.618 1234.91 632.165 C 1222.19 607.257 1193.37 604.732 1188.33 573.643 C 1162.03 619.78 1219.35 652.447 1202.81 696.764 C 1200.73 702.322 1192.05 709.785 1185.97 710.915 C 1155.96 715.16 1141.61 691.33 1139.95 666.086 C 1141.51 669.051 1143.07 672.766 1144.48 675.868 C 1151.66 679.612 1162.23 683.721 1170.18 679.156 C 1174.66 676.589 1176.43 670.965 1177.87 666.352 C 1183.88 647.162 1172.61 629.362 1170.98 610.49 C 1169.32 587.666 1177.07 559.701 1165.18 538.273 C 1159 527.138 1147.2 525.177 1135.85 522.556 z" fill="rgb(12,12,13)" transform="translate(0,0)"></path>
<path d="M 1419.42 1597.21 C 1460.49 1609.97 1466.3 1627.35 1491.66 1659.62 C 1538.7 1719.14 1604.06 1770.37 1684.05 1765.39 C 1688.72 1765.1 1694.12 1765.32 1698.86 1765.34 C 1730.76 1765.43 1749.91 1769.31 1759.3 1802.85 C 1770.58 1811.8 1766.75 1827.5 1767.43 1841.71 C 1759.35 1847.82 1753.24 1849.71 1744 1853.34 C 1735.17 1855.94 1727.96 1857.84 1718.98 1859.81 C 1711.53 1860.83 1704.37 1861.6 1696.93 1862.46 C 1688.9 1863.15 1680.04 1863.71 1671.99 1863.74 C 1665.31 1863.9 1656.64 1864.12 1650.07 1863.42 C 1639.71 1862.92 1629.5 1861.92 1619.17 1860.98 C 1616.7 1860.96 1614.5 1860.91 1612.03 1860.78 C 1608.91 1860.37 1604.58 1860.56 1601.94 1859.27 C 1597.86 1858.93 1597.12 1858.97 1593.32 1857.97 C 1586.61 1856.37 1564.89 1853.41 1557.89 1852.84 C 1555.29 1852.77 1535.99 1849.42 1533.65 1848.33 C 1530.04 1846.84 1505.46 1842.99 1499.8 1842.05 C 1491.84 1840.19 1482.55 1838.63 1474.46 1837.32 C 1464.88 1835.01 1450.83 1832.85 1440.84 1831.02 C 1432.3 1829.93 1422.94 1828.36 1414.46 1827.59 C 1412.62 1827.73 1412.76 1827.71 1411.05 1826.97 C 1403.03 1824.55 1390.57 1824.3 1382.02 1823.35 C 1375.65 1822.98 1357.92 1822.33 1352.12 1821.3 C 1353.03 1803.72 1352.77 1786.06 1353.7 1768.49 C 1353.59 1764.09 1355.81 1759.93 1359.36 1757.36 C 1359.97 1756.84 1360.58 1756.32 1361.2 1755.8 L 1357.66 1755.02 L 1357.14 1753.32 C 1361.03 1747.52 1365.18 1741.8 1369 1736.07 C 1380.61 1718.66 1385.94 1700.22 1392.22 1680.59 C 1393.54 1676.49 1401.62 1670.22 1403.5 1665.84 C 1418.39 1640.23 1419.79 1625.72 1419.42 1597.21 z" fill="rgb(66,69,105)" transform="translate(0,0)"></path>
<path d="M 1361.2 1755.8 C 1372.41 1753.11 1378.71 1753.59 1383.96 1765.46 C 1395.61 1776.02 1412.56 1789.05 1414.45 1805.52 C 1413.21 1812.69 1412.25 1819.82 1411.05 1826.97 C 1403.03 1824.55 1390.57 1824.3 1382.02 1823.35 C 1375.65 1822.98 1357.92 1822.33 1352.12 1821.3 C 1353.03 1803.72 1352.77 1786.06 1353.7 1768.49 C 1353.59 1764.09 1355.81 1759.93 1359.36 1757.36 C 1359.97 1756.84 1360.58 1756.32 1361.2 1755.8 z" fill="rgb(235,82,29)" transform="translate(0,0)"></path>
<path d="M 1383.96 1765.46 C 1395.61 1776.02 1412.56 1789.05 1414.45 1805.52 C 1413.21 1812.69 1412.25 1819.82 1411.05 1826.97 C 1403.03 1824.55 1390.57 1824.3 1382.02 1823.35 C 1382.37 1805.09 1382.97 1783.55 1383.96 1765.46 z" fill="rgb(12,12,13)" transform="translate(0,0)"></path>
<path d="M 1414.45 1805.52 C 1415.41 1799.41 1414.73 1750.88 1441.73 1773.61 C 1445.22 1776.54 1439.05 1821.85 1437.66 1829.3 L 1440.84 1831.02 C 1432.3 1829.93 1422.94 1828.36 1414.46 1827.59 C 1412.62 1827.73 1412.76 1827.71 1411.05 1826.97 C 1412.25 1819.82 1413.21 1812.69 1414.45 1805.52 z" fill="rgb(233,218,200)" transform="translate(0,0)"></path>
<path d="M 1414.46 1827.59 C 1423.29 1826.23 1429.12 1828.18 1437.66 1829.3 L 1440.84 1831.02 C 1432.3 1829.93 1422.94 1828.36 1414.46 1827.59 z" fill="rgb(170,160,153)" transform="translate(0,0)"></path>
<path d="M 1533.65 1848.33 C 1534.64 1839.83 1540.19 1797.75 1546.63 1794.42 C 1556.93 1789.08 1571.6 1793.36 1566.61 1810.95 C 1564.83 1817.22 1558.31 1846.93 1557.89 1852.84 C 1555.29 1852.77 1535.99 1849.42 1533.65 1848.33 z" fill="rgb(233,218,200)" transform="translate(0,0)"></path>
<path d="M 1594.62 1856.57 C 1595.03 1840.98 1594.24 1824.44 1595.21 1809.04 C 1595.76 1800.36 1610.19 1796.37 1617.3 1803.71 C 1618.68 1805.16 1619.6 1807 1619.93 1808.98 C 1621.23 1817.18 1619.43 1850.11 1619.16 1859.78 L 1619.17 1860.98 C 1616.7 1860.96 1614.5 1860.91 1612.03 1860.78 C 1608.91 1860.37 1604.58 1860.56 1601.94 1859.27 C 1597.86 1858.93 1597.12 1858.97 1593.32 1857.97 L 1594.62 1856.57 z" fill="rgb(233,218,200)" transform="translate(0,0)"></path>
<path d="M 1594.62 1856.57 C 1598.24 1857.06 1600.67 1855.94 1601.94 1859.27 C 1597.86 1858.93 1597.12 1858.97 1593.32 1857.97 L 1594.62 1856.57 z" fill="rgb(214,207,200)" transform="translate(0,0)"></path>
<path d="M 1612.03 1860.78 C 1612.92 1857.52 1616.04 1859.48 1619.16 1859.78 L 1619.17 1860.98 C 1616.7 1860.96 1614.5 1860.91 1612.03 1860.78 z" fill="rgb(214,207,200)" transform="translate(0,0)"></path>
<path d="M 1474.46 1837.32 C 1477.88 1823.01 1481.58 1808.79 1485.18 1794.51 C 1487.39 1785.74 1494.78 1780.97 1503.48 1784.13 C 1512.66 1787.46 1513.01 1794.86 1510.13 1803 C 1508.67 1807.16 1507.32 1812.67 1506.24 1817.02 L 1505.25 1821.02 L 1503.74 1827.46 L 1502.76 1831.47 C 1501.95 1834.86 1500.82 1838.71 1499.8 1842.05 C 1491.84 1840.19 1482.55 1838.63 1474.46 1837.32 z" fill="rgb(235,82,29)" transform="translate(0,0)"></path>
<path d="M 1650.07 1863.42 C 1649.95 1854.6 1650.76 1831.67 1649.82 1823.96 C 1647.64 1806.17 1666.19 1809.56 1669.99 1814.02 C 1673.96 1818.67 1671.36 1854.21 1671.99 1863.74 C 1665.31 1863.9 1656.64 1864.12 1650.07 1863.42 z" fill="rgb(235,82,29)" transform="translate(0,0)"></path>
<path d="M 1696.93 1862.46 C 1696.79 1855.74 1689.06 1794.81 1715.4 1813.24 C 1721.08 1817.21 1718.92 1850.95 1718.98 1859.81 C 1711.53 1860.83 1704.37 1861.6 1696.93 1862.46 z" fill="rgb(235,82,29)" transform="translate(0,0)"></path>
<path d="M 1744 1853.34 C 1742.72 1840.11 1742.96 1824.24 1743.83 1810.97 C 1744.44 1801.83 1752.75 1801.74 1759.3 1802.85 C 1770.58 1811.8 1766.75 1827.5 1767.43 1841.71 C 1759.35 1847.82 1753.24 1849.71 1744 1853.34 z" fill="rgb(233,218,200)" transform="translate(0,0)"></path>
<path d="M 1188.33 573.643 C 1203.05 557.807 1233.26 569.617 1246.92 582.587 C 1275.4 609.618 1269.82 650.001 1280.64 684.732 C 1288.67 712.915 1293.06 724.891 1304.64 751.737 C 1285.4 745.796 1277.75 740.346 1268.11 721.926 C 1266.69 719.208 1265.32 716.465 1264 713.698 C 1256.23 687.979 1246.88 655.618 1234.91 632.165 C 1222.19 607.257 1193.37 604.732 1188.33 573.643 z" fill="rgb(235,82,29)" transform="translate(0,0)"></path>
<path d="M 1223.69 901.541 C 1281.41 895.197 1333.33 936.874 1339.63 994.6 C 1345.92 1052.33 1304.2 1104.21 1246.47 1110.45 C 1188.81 1116.69 1137 1075.03 1130.71 1017.38 C 1124.43 959.722 1166.04 907.878 1223.69 901.541 z" fill="rgb(66,69,105)" transform="translate(0,0)"></path>
<path d="M 1213.52 964.553 C 1234.2 962.31 1252.78 977.286 1254.98 997.976 C 1257.18 1018.67 1242.16 1037.21 1221.46 1039.36 C 1200.83 1041.51 1182.36 1026.55 1180.17 1005.92 C 1177.98 985.296 1192.9 966.788 1213.52 964.553 z" fill="rgb(233,218,200)" transform="translate(0,0)"></path>
<path d="M 1165.74 953.483 C 1167.45 954.341 1169.83 955.508 1170.78 957.264 C 1171.14 957.943 1159.84 977.87 1158.13 986.011 C 1158.02 986.499 1157.95 986.993 1157.85 987.482 C 1157.32 990.098 1157.05 992.34 1156.82 995.002 C 1155.27 1013.01 1158.39 1030.44 1168.6 1045.65 C 1168.91 1046.12 1169.24 1046.58 1169.56 1047.05 C 1170.98 1049.18 1170.93 1050.14 1170.44 1052.56 C 1169.81 1052.64 1165.82 1053.49 1165.25 1052.75 C 1142.52 1023.58 1144.89 981.272 1165.74 953.483 z" fill="rgb(233,218,200)" transform="translate(0,0)"></path>
<path d="M 1203.9 920.933 C 1205.12 922.252 1205.98 923.411 1206.8 925.015 C 1207.92 927.209 1206.59 928.351 1204.53 929.039 C 1196.86 931.602 1190.92 937.238 1184.76 942.257 C 1183.7 941.171 1180.06 936.817 1181.12 935.417 C 1185.44 929.742 1196.92 924.817 1202.97 921.46 L 1203.9 920.933 z" fill="rgb(233,218,200)" transform="translate(0,0)"></path>
<path d="M 1335.74 1475.21 C 1348.18 1474.55 1359.44 1476.72 1370.09 1483.4 C 1347.17 1528.03 1397.54 1519.59 1367.48 1562.73 C 1385.9 1582.39 1380.03 1606.18 1367.08 1626.48 C 1373.69 1642.66 1370.03 1660.78 1359.28 1673.82 C 1338.8 1698.66 1330.69 1710.43 1303.39 1689.05 C 1285.27 1702.29 1267.46 1704.59 1246.88 1694.97 C 1241.17 1690.62 1239.06 1688.44 1234.08 1683.23 C 1228.13 1688.33 1220.36 1692.05 1212.57 1693.11 C 1203.07 1694.42 1193.43 1691.85 1185.84 1685.98 C 1178.69 1680.6 1174.08 1672.5 1173.11 1663.6 C 1170.07 1637.09 1189.41 1625.9 1212.88 1624.55 C 1220.04 1597.16 1231.95 1569.15 1262.69 1563.4 C 1266.03 1559.72 1265.43 1550.31 1269.63 1543.7 C 1276.52 1532.84 1284.81 1527.87 1296.74 1524.68 C 1299.41 1499.93 1309.6 1481.48 1335.74 1475.21 z" fill="rgb(66,69,105)" transform="translate(0,0)"></path>
<path d="M 1326.46 1483.85 C 1339.75 1485.81 1323.32 1495.69 1320.17 1497.56 C 1309.04 1504.14 1312.05 1519.58 1306.93 1526.38 C 1300.3 1523.5 1302.19 1517.73 1303.38 1511.05 C 1305.29 1500.37 1313.91 1491.48 1323.01 1485.93 L 1326.46 1483.85 z" fill="rgb(233,218,200)" transform="translate(0,0)"></path>
<path d="M 1206.12 1632.85 C 1207.56 1632.96 1211.21 1633.19 1211.29 1635.35 C 1211.3 1640.26 1202.79 1641.11 1198.6 1644.18 C 1191.93 1649.07 1190.47 1651.41 1186.05 1658.34 C 1184.04 1659 1182.42 1657.73 1182.18 1656 C 1180.53 1644.18 1199.64 1635.21 1206.12 1632.85 z" fill="rgb(233,218,200)" transform="translate(0,0)"></path>
<path d="M 1262.24 1569.91 C 1267.26 1570.91 1269.58 1575.23 1263.98 1576.7 C 1255.1 1579.03 1250.49 1582.77 1243.52 1588.71 C 1241.04 1588.76 1237.64 1586.11 1239.05 1584.02 C 1243.75 1577.06 1254.85 1572.17 1262.24 1569.91 z" fill="rgb(233,218,200)" transform="translate(0,0)"></path>
<path d="M 1230.21 1598.45 C 1230.37 1598.53 1235.22 1600.89 1234.83 1601.71 C 1231.69 1608.46 1227.87 1619.2 1224.29 1625.49 C 1216.21 1621.73 1219.61 1619.91 1222.13 1611.79 C 1223.41 1607.68 1226.09 1603.1 1228.95 1599.9 L 1230.21 1598.45 z" fill="rgb(233,218,200)" transform="translate(0,0)"></path>
<path d="M 1286.83 1540.69 C 1295.86 1543.83 1284.23 1552.54 1279.96 1557.51 C 1269.53 1553.3 1282.56 1544.32 1286.83 1540.69 z" fill="rgb(233,218,200)" transform="translate(0,0)"></path>
<path d="M 1477.03 1291.54 C 1480.69 1289.76 1485.02 1290.09 1488.37 1292.41 C 1491.71 1294.73 1493.55 1298.67 1493.16 1302.72 C 1492.78 1306.77 1490.23 1310.3 1486.51 1311.94 C 1480.91 1314.42 1474.35 1311.96 1471.76 1306.4 C 1469.18 1300.84 1471.52 1294.23 1477.03 1291.54 z" fill="rgb(206,148,80)" transform="translate(0,0)"></path>
<path d="M 1438.41 1145.43 C 1443.48 1143.82 1448.89 1146.6 1450.54 1151.66 C 1452.19 1156.71 1449.46 1162.15 1444.42 1163.85 C 1439.32 1165.57 1433.79 1162.79 1432.12 1157.67 C 1430.45 1152.55 1433.27 1147.05 1438.41 1145.43 z" fill="rgb(206,148,80)" transform="translate(0,0)"></path>
<path d="M 1440.31 1246.52 C 1445.07 1246.29 1449.13 1249.9 1449.45 1254.65 C 1449.78 1259.4 1446.23 1263.53 1441.49 1263.94 C 1438.35 1264.21 1435.3 1262.76 1433.53 1260.15 C 1431.75 1257.54 1431.53 1254.17 1432.93 1251.35 C 1434.34 1248.52 1437.16 1246.68 1440.31 1246.52 z" fill="rgb(206,148,80)" transform="translate(0,0)"></path>
<path d="M 1507.04 1541.54 C 1510.93 1539.55 1515.71 1541.05 1517.76 1544.92 C 1519.82 1548.79 1518.38 1553.59 1514.55 1555.7 C 1512.01 1557.09 1508.93 1557.01 1506.47 1555.49 C 1504.01 1553.97 1502.56 1551.24 1502.68 1548.35 C 1502.8 1545.46 1504.46 1542.86 1507.04 1541.54 z" fill="rgb(206,148,80)" transform="translate(0,0)"></path>
<path d="M 1476.45 1499.91 C 1480.37 1498.09 1485.02 1499.75 1486.9 1503.64 C 1488.77 1507.54 1487.17 1512.21 1483.31 1514.14 C 1480.76 1515.41 1477.73 1515.21 1475.37 1513.62 C 1473.01 1512.02 1471.69 1509.28 1471.91 1506.45 C 1472.14 1503.61 1473.87 1501.11 1476.45 1499.91 z" fill="rgb(167,104,47)" transform="translate(0,0)"></path>
<path d="M 1293.06 808.545 C 1295.36 807.444 1298.07 807.687 1300.13 809.179 C 1302.2 810.67 1303.28 813.17 1302.95 815.695 C 1302.63 818.22 1300.95 820.364 1298.57 821.282 C 1295.09 822.628 1291.17 820.986 1289.69 817.563 C 1288.21 814.14 1289.7 810.158 1293.06 808.545 z" fill="rgb(206,148,80)" transform="translate(0,0)"></path>
<path d="M 1394.02 1207.59 C 1396.04 1206.4 1398.53 1206.38 1400.56 1207.55 C 1402.59 1208.71 1403.83 1210.88 1403.82 1213.22 C 1403.8 1215.56 1402.53 1217.7 1400.49 1218.84 C 1397.38 1220.57 1393.47 1219.49 1391.7 1216.41 C 1389.93 1213.33 1390.97 1209.4 1394.02 1207.59 z" fill="rgb(206,148,80)" transform="translate(0,0)"></path>
<path d="M 1490.87 1232.42 C 1492.7 1231.17 1495.08 1231.04 1497.04 1232.07 C 1499 1233.11 1500.23 1235.14 1500.23 1237.36 C 1500.24 1239.58 1499.02 1241.62 1497.07 1242.66 C 1494.26 1244.17 1490.76 1243.21 1489.11 1240.48 C 1487.46 1237.75 1488.23 1234.21 1490.87 1232.42 z" fill="rgb(206,148,80)" transform="translate(0,0)"></path>
<path d="M 1447.25 1195.57 C 1449.63 1194.3 1452.59 1195.1 1454 1197.39 C 1455.41 1199.69 1454.78 1202.69 1452.57 1204.23 C 1451.02 1205.32 1449 1205.45 1447.32 1204.58 C 1445.64 1203.72 1444.57 1201.99 1444.56 1200.09 C 1444.55 1198.2 1445.58 1196.46 1447.25 1195.57 z" fill="rgb(206,148,80)" transform="translate(0,0)"></path>
<path d="M 1321.95 845.419 C 1323.92 844.096 1326.59 844.602 1327.94 846.556 C 1329.29 848.51 1328.82 851.187 1326.89 852.565 C 1325.61 853.473 1323.95 853.624 1322.53 852.96 C 1321.11 852.296 1320.16 850.92 1320.04 849.359 C 1319.92 847.797 1320.65 846.292 1321.95 845.419 z" fill="rgb(206,148,80)" transform="translate(0,0)"></path>
<path d="M 1517.08 1460.42 C 1519.32 1459.62 1521.78 1460.79 1522.56 1463.03 C 1523.35 1465.28 1522.16 1467.73 1519.91 1468.5 C 1517.69 1469.26 1515.26 1468.08 1514.49 1465.86 C 1513.71 1463.64 1514.87 1461.21 1517.08 1460.42 z" fill="rgb(167,104,47)" transform="translate(0,0)"></path>
<path d="M 1532.18 1498.41 C 1533.97 1498 1535.78 1499.01 1536.38 1500.74 C 1536.98 1502.48 1536.17 1504.39 1534.51 1505.16 C 1533.26 1505.75 1531.8 1505.57 1530.73 1504.71 C 1529.66 1503.84 1529.18 1502.44 1529.49 1501.1 C 1529.8 1499.77 1530.84 1498.72 1532.18 1498.41 z" fill="rgb(206,148,80)" transform="translate(0,0)"></path>
<path d="M 909.155 419.157 C 945.172 418.569 982.575 415.297 1018.55 415.762 C 1058.96 416.286 1223.69 424.578 1226.02 476.692 C 1210.04 508.129 1165.83 510.353 1136.87 517.839 C 1136.29 518.401 1135.7 518.964 1135.12 519.526 L 1135.85 522.556 C 1147.2 525.177 1159 527.138 1165.18 538.273 C 1177.07 559.701 1169.32 587.666 1170.98 610.49 C 1172.61 629.362 1183.88 647.162 1177.87 666.352 C 1176.43 670.965 1174.66 676.589 1170.18 679.156 C 1162.23 683.721 1151.66 679.612 1144.48 675.868 C 1143.07 672.766 1141.51 669.051 1139.95 666.086 C 1141.61 691.33 1155.96 715.16 1185.97 710.915 C 1192.05 709.785 1200.73 702.322 1202.81 696.764 C 1219.35 652.447 1162.03 619.78 1188.33 573.643 C 1193.37 604.732 1222.19 607.257 1234.91 632.165 C 1246.88 655.618 1256.23 687.979 1264 713.698 C 1251.76 759.153 1251.38 780.521 1262.02 826.591 C 1255.97 825.698 1250.8 825.128 1245.52 821.727 C 1225.81 809.028 1219.11 781.924 1190.78 783.664 C 1182.46 784.121 1174.46 787.076 1167.84 792.143 C 1118.64 829.665 1154.06 928.52 1104.02 967.366 C 1093.86 975.174 1080.99 978.582 1068.3 976.826 C 1043.43 973.377 1030.39 946.427 1025.16 923.817 C 1018.61 895.5 1020.73 839.59 982.904 831.907 C 958.168 826.882 941.613 851.84 934.814 871.739 C 928.516 888.962 922.312 918.109 900.175 918.85 C 881.85 917.697 883.636 876.006 881.267 862.75 C 872.65 813.728 827.654 797.308 788.276 825.487 C 772.953 836.94 760.349 854.645 751.473 871.355 C 736.234 900.045 730.138 926.839 691.603 928.823 C 652.375 930.843 630.24 938.162 605.544 968.947 C 603.085 964.917 607.231 964.545 604.275 961.043 C 605.677 954.799 629.145 909.949 633.625 901.326 C 649.703 870.091 666.07 839.006 682.725 808.076 C 689.108 796.474 697.784 780.019 704.894 769.163 L 709.807 759.882 C 685.605 758.522 670.574 748.348 665.778 723.427 C 664.548 720.151 664.792 713.025 664.895 709.472 C 665.946 673.135 701.944 652.117 720.659 625.858 C 728.252 615.206 737.68 585.669 742.475 571.754 C 743.673 561.661 756.562 533.836 760.64 522.283 C 769.055 501.852 774.29 472.992 790.593 457.041 C 810.609 438.605 840.472 433.169 865.934 426.074 C 873.773 423.89 884.667 423.695 891.752 420.785 C 899.5 423.154 902.712 424.95 909.155 419.157 z" fill="rgb(233,218,200)" transform="translate(0,0)"></path>
<path d="M 909.155 419.157 C 945.172 418.569 982.575 415.297 1018.55 415.762 C 1058.96 416.286 1223.69 424.578 1226.02 476.692 C 1210.04 508.129 1165.83 510.353 1136.87 517.839 C 1136.29 518.401 1135.7 518.964 1135.12 519.526 L 1135.85 522.556 C 1147.2 525.177 1159 527.138 1165.18 538.273 C 1177.07 559.701 1169.32 587.666 1170.98 610.49 C 1172.61 629.362 1183.88 647.162 1177.87 666.352 C 1176.43 670.965 1174.66 676.589 1170.18 679.156 C 1162.23 683.721 1151.66 679.612 1144.48 675.868 C 1143.07 672.766 1141.51 669.051 1139.95 666.086 C 1138.53 656.234 1138 646.135 1137.52 636.204 C 1136.78 621.037 1138.15 609.363 1127.21 597.416 C 1124.52 588.772 1118.47 581.569 1110.43 577.419 C 1093.72 568.852 1073.4 575.763 1066.03 592.959 C 1043.62 645.284 1092.22 711.267 1059.56 760.493 C 1041.46 788.897 1020.52 772.607 1017.47 774.158 C 1013.65 768.352 1008.84 761.967 1006.05 755.694 C 988.651 716.47 1025.14 666.049 1009.68 630.843 C 1006.37 620.786 999.296 612.402 989.938 607.45 C 968.04 595.993 943.842 608.586 934.023 630.399 C 920.015 661.518 917.036 711.947 883.799 729.343 C 870.858 736.116 857.862 728.045 849.505 718.104 C 834.612 683.445 848.472 651.893 861.636 619.168 C 864.806 611.288 869.503 601.54 871.545 593.433 C 832.189 580.123 807.855 636.647 799.009 665.361 C 785.226 710.101 772.073 789.076 704.894 769.163 L 709.807 759.882 C 685.605 758.522 670.574 748.348 665.778 723.427 C 664.548 720.151 664.792 713.025 664.895 709.472 C 665.946 673.135 701.944 652.117 720.659 625.858 C 728.252 615.206 737.68 585.669 742.475 571.754 C 743.673 561.661 756.562 533.836 760.64 522.283 C 769.055 501.852 774.29 472.992 790.593 457.041 C 810.609 438.605 840.472 433.169 865.934 426.074 C 873.773 423.89 884.667 423.695 891.752 420.785 C 899.5 423.154 902.712 424.95 909.155 419.157 z" fill="rgb(235,82,29)" transform="translate(0,0)"></path>
<path d="M 909.155 419.157 C 945.172 418.569 982.575 415.297 1018.55 415.762 C 1058.96 416.286 1223.69 424.578 1226.02 476.692 C 1210.04 508.129 1165.83 510.353 1136.87 517.839 C 1136.29 518.401 1135.7 518.964 1135.12 519.526 L 1135.85 522.556 C 1144.13 544.996 1141.81 583.726 1109.23 560.94 C 1097.38 552.651 1088.37 534.896 1072.58 536.262 C 1065.23 537.302 1060.73 542.494 1056.54 547.892 C 1044 563.933 1054.09 600.665 1030.66 608.048 C 1017.57 612.172 1010.54 582.196 1006.84 574.697 C 992.559 545.657 967.409 540.638 946.636 566.684 C 936.067 578.838 926.825 600.347 909.304 603.228 C 895.914 605.43 888.399 592.444 889.44 580.531 C 892.558 544.85 891.131 509.849 844.857 509.883 C 831.268 509.893 818.456 521.399 810.469 531.476 C 794.241 550.843 788.043 585.861 759.453 591.26 C 747.466 593.524 744.03 580.069 742.475 571.754 C 743.673 561.661 756.562 533.836 760.64 522.283 C 769.055 501.852 774.29 472.992 790.593 457.041 C 810.609 438.605 840.472 433.169 865.934 426.074 C 873.773 423.89 884.667 423.695 891.752 420.785 C 899.5 423.154 902.712 424.95 909.155 419.157 z" fill="rgb(233,218,200)" transform="translate(0,0)"></path>
<path d="M 971.033 459.483 C 1005.84 459.255 1040.65 459.439 1075.46 460.034 C 1091.95 460.27 1166.62 457.653 1170.76 476.482 C 1170.32 477.735 1169.62 479.674 1168.58 480.524 C 1140.74 503.349 1084.43 503.875 1051.75 504.895 C 1025.13 505.3 858.346 501.367 850.367 472.528 C 853.733 457.092 888.933 460.615 901.483 460.454 L 971.033 459.483 z" fill="rgb(12,12,13)" transform="translate(0,0)"></path>
<path d="M 911.217 530.555 C 914.719 529.709 918.281 531.699 919.397 535.124 C 920.514 538.549 918.808 542.256 915.481 543.636 C 913.085 544.63 910.333 544.196 908.359 542.513 C 906.385 540.83 905.522 538.182 906.125 535.659 C 906.728 533.135 908.695 531.164 911.217 530.555 z" fill="rgb(206,148,80)" transform="translate(0,0)"></path>
<path d="M 918.383 555.633 C 921.754 554.194 925.652 555.773 927.072 559.152 C 928.492 562.532 926.891 566.421 923.503 567.822 C 920.143 569.211 916.291 567.626 914.883 564.273 C 913.474 560.921 915.038 557.06 918.383 555.633 z" fill="rgb(206,148,80)" transform="translate(0,0)"></path>
<path d="M 947.36 528.298 C 949.191 527.678 951.214 528.093 952.653 529.383 C 954.092 530.673 954.724 532.639 954.307 534.526 C 953.89 536.414 952.489 537.93 950.64 538.494 C 947.841 539.347 944.875 537.797 943.979 535.011 C 943.083 532.225 944.588 529.236 947.36 528.298 z" fill="rgb(206,148,80)" transform="translate(0,0)"></path>
<path d="M 665.778 723.427 C 667.766 725.637 669.951 731.423 671.75 734.322 C 678.205 744.721 706.349 742.145 714.988 736.437 C 743.247 717.768 764.855 674.71 779.051 644.606 C 793.385 614.21 798.151 581.999 827.537 560.971 C 840.123 550.727 865.312 547.135 875.978 561.734 C 880.214 567.531 873.272 586.513 871.545 593.433 C 832.189 580.123 807.855 636.647 799.009 665.361 C 785.226 710.101 772.073 789.076 704.894 769.163 L 709.807 759.882 C 685.605 758.522 670.574 748.348 665.778 723.427 z" fill="rgb(12,12,13)" transform="translate(0,0)"></path>
<path d="M 1029.21 668.993 C 1049.03 672.557 1049.5 701.679 1043.05 716.526 C 1040.54 722.292 1035.22 724.462 1029.62 726.073 C 1010.07 724.143 1011.24 704.671 1013.74 689.485 C 1015.48 678.937 1019.28 673.15 1029.21 668.993 z" fill="rgb(233,218,200)" transform="translate(0,0)"></path>
<path d="M 716.58 646.49 C 733.686 651.408 726.541 681.385 707.023 688.204 L 703.706 689.337 C 679.137 686.417 708.086 653.383 716.58 646.49 z" fill="rgb(233,218,200)" transform="translate(0,0)"></path>
<path d="M 882.999 612.691 C 892.075 616.683 888.933 638.337 885.36 645.615 C 880.873 654.752 879.49 655.245 870.952 658.795 L 869.304 658.171 C 863.384 655.952 863.066 651.284 863.976 645.495 C 866.233 631.129 871.633 621.636 882.999 612.691 z" fill="rgb(233,218,200)" transform="translate(0,0)"></path>
<path d="M 869.091 673.826 C 884.321 675.573 882.093 689.37 872.12 697.278 C 855.433 697.081 858.12 681.904 869.091 673.826 z" fill="rgb(247,216,180)" transform="translate(0,0)"></path>
<path d="M 1137.99 572.41 C 1147.13 575.154 1151.98 594.341 1146.52 602.462 L 1145.65 603.805 C 1140.01 602.246 1139.43 599.404 1138.28 593.439 C 1136.2 582.604 1131.7 580.742 1137.99 572.41 z" fill="rgb(233,218,200)" transform="translate(0,0)"></path>
<path d="M 744.747 605.315 C 752.247 607.01 748.468 614.848 747.934 621 C 747.353 627.688 743.111 630.333 738.049 633.691 C 736.648 632.727 733.423 630.91 733.232 628.988 C 732.656 623.201 741.702 609.906 744.747 605.315 z" fill="rgb(233,218,200)" transform="translate(0,0)"></path>
<path d="M 1144.85 612.496 C 1155.74 613.294 1159.45 620.997 1151.81 628.71 L 1150.57 630.011 C 1139.7 629.68 1137.38 620.358 1144.85 612.496 z" fill="rgb(247,216,180)" transform="translate(0,0)"></path>
<path d="M 1151.07 639.427 C 1153.4 638.24 1156.2 638.456 1158.32 639.987 C 1160.44 641.518 1161.53 644.106 1161.13 646.691 C 1160.74 649.277 1158.93 651.425 1156.45 652.255 C 1152.99 653.415 1149.22 651.707 1147.81 648.34 C 1146.4 644.972 1147.82 641.085 1151.07 639.427 z" fill="rgb(247,216,180)" transform="translate(0,0)"></path>
<path d="M 1026.76 629.801 C 1029 629.117 1031.43 629.686 1033.12 631.291 C 1034.82 632.897 1035.52 635.29 1034.96 637.558 C 1034.4 639.826 1032.67 641.618 1030.42 642.249 C 1027 643.21 1023.44 641.24 1022.44 637.831 C 1021.44 634.422 1023.37 630.842 1026.76 629.801 z" fill="rgb(249,201,130)" transform="translate(0,0)"></path>
<path d="M 1017.47 774.158 C 1020.52 772.607 1041.46 788.897 1059.56 760.493 C 1092.22 711.267 1043.62 645.284 1066.03 592.959 C 1073.4 575.763 1093.72 568.852 1110.43 577.419 C 1118.47 581.569 1124.52 588.772 1127.21 597.416 C 1117.04 594.894 1106.69 594.064 1097.72 600.349 C 1057.85 628.817 1092.02 684.119 1103.46 718.655 C 1114.13 750.867 1122.08 792.818 1090.39 815.638 C 1066.76 832.651 1038.86 814.881 1026.66 793.274 C 1022.6 786.074 1020.48 781.706 1017.47 774.158 z" fill="rgb(12,12,13)" transform="translate(0,0)"></path>
<path d="M 849.505 718.104 C 857.862 728.045 870.858 736.116 883.799 729.343 C 917.036 711.947 920.015 661.518 934.023 630.399 C 943.842 608.586 968.04 595.993 989.938 607.45 C 999.296 612.402 1006.37 620.786 1009.68 630.843 C 1002.87 625.114 998.148 622.05 988.694 622.554 C 956.85 623.989 948.853 660.763 945.329 685.477 C 941.768 710.454 944.319 747.069 920.886 763.581 C 879.334 792.863 856.282 752.288 849.505 718.104 z" fill="rgb(12,12,13)" transform="translate(0,0)"></path>
<path d="M 837.311 1112.14 C 825.621 1114.56 813.59 1114.86 801.793 1113.02 C 773.365 1108.46 747.901 1092.82 730.971 1069.53 C 696.827 1022.52 707.286 951.219 754.795 917.529 C 778.75 900.826 808.372 894.353 837.112 899.541 C 864.431 904.424 888.689 919.967 904.541 942.746 C 921.116 966.93 927.485 996.674 922.266 1025.52 C 917.41 1053.36 901.514 1078.04 878.188 1093.98 C 890.789 1124.56 902.385 1157.57 914.561 1188.72 C 944.387 1178.89 989.255 1171.96 1020.43 1172.99 C 996.986 1177.09 943.545 1194.79 921.424 1205.2 C 925.286 1215.46 944.906 1264.5 945.357 1271.17 C 935.227 1257.95 927.267 1225.78 919.62 1209.07 C 908.354 1180.52 897.422 1151.84 886.826 1123.03 C 874.653 1126.48 859.502 1128.84 846.951 1130.69 C 854.505 1152.68 865.904 1178.1 875.058 1199.81 L 877.837 1197.81 C 881.726 1208.22 887.152 1221.9 890.178 1232.29 C 886.884 1229.03 886.714 1226.19 885.468 1224.99 C 884.511 1225.86 888.465 1233.92 888.317 1237.77 C 891.032 1247.1 899.787 1265.6 901.213 1272.97 L 900.349 1273.71 C 894.378 1269.76 885.795 1232.42 878.596 1221.81 C 877.795 1219.41 877.083 1217.22 876.395 1214.79 C 876.009 1211.44 874.647 1207.75 873.596 1204.48 C 861.01 1173.89 848.914 1143.11 837.311 1112.14 z" fill="rgb(12,12,13)" transform="translate(0,0)"></path>
<path d="M 877.837 1197.81 C 881.726 1208.22 887.152 1221.9 890.178 1232.29 C 886.884 1229.03 886.714 1226.19 885.468 1224.99 C 884.511 1225.86 888.465 1233.92 888.317 1237.77 C 882.659 1225.6 880.022 1209.71 875.058 1199.81 L 877.837 1197.81 z" fill="rgb(75,81,104)" transform="translate(0,0)"></path>
<path d="M 805.382 901.994 C 862.948 895.395 914.914 936.835 921.292 994.426 C 927.67 1052.02 886.03 1103.82 828.416 1109.98 C 771.114 1116.1 719.648 1074.74 713.305 1017.46 C 706.961 960.181 748.129 908.557 805.382 901.994 z" fill="rgb(66,69,105)" transform="translate(0,0)"></path>
<path d="M 792.677 964.757 C 813.246 961.401 832.624 975.406 835.891 995.989 C 839.158 1016.57 825.069 1035.89 804.472 1039.07 C 784.001 1042.23 764.827 1028.24 761.58 1007.78 C 758.333 987.326 772.234 968.092 792.677 964.757 z" fill="rgb(233,218,200)" transform="translate(0,0)"></path>
<path d="M 752.921 947.776 C 754.185 948.698 755.816 949.688 756.507 951.165 C 756.939 952.089 741.461 975.696 739.93 979.776 C 736.6 988.655 735.031 999.021 736.119 1008.5 C 736.731 1013.84 739.71 1019.36 737.671 1024.44 C 736.677 1024.36 733.327 1024.37 732.675 1023.67 C 728.745 1019.48 728.633 1003.24 728.722 998.499 C 729.081 979.324 739.265 960.636 752.921 947.776 z" fill="rgb(233,218,200)" transform="translate(0,0)"></path>
<path d="M 788.773 921.986 C 800.165 920.353 794.343 930.674 785.627 931.38 C 784.825 931.445 774.693 937.308 773.404 938.11 C 770.074 939.45 771.18 936.618 769.423 935.17 C 763.836 930.566 785.606 923.144 788.773 921.986 z" fill="rgb(233,218,200)" transform="translate(0,0)"></path>
<path d="M 742.866 1035.64 C 751.23 1039.83 753.026 1042.28 748.345 1049.82 C 741.667 1046.32 737.459 1042.14 742.866 1035.64 z" fill="rgb(233,218,200)" transform="translate(0,0)"></path>
<path d="M 604.275 961.043 C 607.231 964.545 603.085 964.917 605.544 968.947 C 603.489 973.506 593.56 988.299 590.377 992.971 C 590.767 984.653 599.946 969.834 604.275 961.043 z" fill="rgb(247,216,180)" transform="translate(0,0)"></path>
<path d="M 556.885 1245.55 C 561.129 1244.66 565.522 1246.12 568.386 1249.38 C 571.25 1252.63 572.141 1257.18 570.718 1261.27 C 569.296 1265.37 565.779 1268.38 561.514 1269.16 C 555.036 1270.34 548.81 1266.1 547.543 1259.64 C 546.276 1253.18 550.439 1246.9 556.885 1245.55 z" fill="rgb(249,201,130)" transform="translate(0,0)"></path>
<path d="M 548.776 1143.96 C 553.787 1143.19 558.464 1146.65 559.2 1151.66 C 559.936 1156.68 556.45 1161.34 551.431 1162.04 C 546.454 1162.74 541.846 1159.29 541.116 1154.32 C 540.386 1149.35 543.808 1144.72 548.776 1143.96 z" fill="rgb(249,201,130)" transform="translate(0,0)"></path>
<path d="M 638.389 1183.57 C 643.104 1182.29 647.978 1185.02 649.352 1189.71 C 650.725 1194.4 648.092 1199.32 643.43 1200.78 C 640.333 1201.76 636.952 1200.98 634.591 1198.75 C 632.229 1196.53 631.254 1193.2 632.042 1190.05 C 632.83 1186.9 635.257 1184.42 638.389 1183.57 z" fill="rgb(249,201,130)" transform="translate(0,0)"></path>
<path d="M 586.458 1077.6 C 591.021 1077.14 595.166 1080.28 595.957 1084.79 C 596.748 1089.31 593.916 1093.67 589.468 1094.79 C 586.291 1095.58 582.934 1094.54 580.772 1092.08 C 578.609 1089.62 578.003 1086.15 579.2 1083.1 C 580.398 1080.06 583.199 1077.93 586.458 1077.6 z" fill="rgb(249,201,130)" transform="translate(0,0)"></path>
<path d="M 619.565 1032.69 C 623.075 1031.1 627.213 1032.6 628.888 1036.07 C 630.563 1039.54 629.163 1043.71 625.734 1045.47 C 623.441 1046.65 620.689 1046.49 618.547 1045.06 C 616.404 1043.62 615.206 1041.14 615.418 1038.57 C 615.629 1036 617.216 1033.75 619.565 1032.69 z" fill="rgb(249,201,130)" transform="translate(0,0)"></path>
<path d="M 645.537 989.407 C 647.962 988.818 650.515 989.588 652.21 991.419 C 653.904 993.25 654.475 995.855 653.702 998.227 C 652.928 1000.6 650.931 1002.37 648.482 1002.84 C 644.812 1003.56 641.241 1001.22 640.44 997.566 C 639.64 993.913 641.903 990.289 645.537 989.407 z" fill="rgb(249,201,130)" transform="translate(0,0)"></path>
<path d="M 497.346 1311.42 C 500.624 1311.42 503.362 1313.92 503.66 1317.18 C 503.957 1320.45 501.716 1323.4 498.491 1323.99 C 496.13 1324.42 493.726 1323.49 492.284 1321.57 C 490.841 1319.65 490.607 1317.08 491.679 1314.93 C 492.751 1312.78 494.945 1311.42 497.346 1311.42 z" fill="rgb(249,201,130)" transform="translate(0,0)"></path>
<path d="M 520.193 1187.49 C 522.365 1186.74 524.773 1187.26 526.443 1188.84 C 528.113 1190.42 528.77 1192.79 528.149 1195 C 527.527 1197.22 525.729 1198.9 523.481 1199.37 C 520.288 1200.05 517.119 1198.13 516.249 1194.98 C 515.378 1191.83 517.106 1188.55 520.193 1187.49 z" fill="rgb(249,201,130)" transform="translate(0,0)"></path>
<path d="M 580.415 1192.55 C 583.31 1191.4 586.601 1192.68 587.964 1195.48 C 589.327 1198.28 588.302 1201.65 585.612 1203.22 C 583.683 1204.35 581.286 1204.3 579.404 1203.1 C 577.523 1201.89 576.474 1199.74 576.687 1197.51 C 576.9 1195.29 578.34 1193.37 580.415 1192.55 z" fill="rgb(249,201,130)" transform="translate(0,0)"></path>
<path d="M 499.693 1247.49 C 501.337 1246.44 503.423 1246.4 505.111 1247.37 C 506.798 1248.34 507.808 1250.17 507.732 1252.11 C 507.656 1254.06 506.507 1255.8 504.749 1256.64 C 502.249 1257.82 499.256 1256.86 497.917 1254.44 C 496.578 1252.02 497.356 1248.97 499.693 1247.49 z" fill="rgb(249,201,130)" transform="translate(0,0)"></path>
<path d="M 617.508 1318.38 C 619.3 1317.78 621.277 1318.21 622.666 1319.49 C 624.055 1320.77 624.636 1322.71 624.182 1324.54 C 623.728 1326.38 622.312 1327.82 620.485 1328.3 C 617.78 1329.02 614.992 1327.47 614.187 1324.79 C 613.383 1322.1 614.853 1319.27 617.508 1318.38 z" fill="rgb(249,201,130)" transform="translate(0,0)"></path>
<path d="M 621.606 1255.59 C 623.381 1255.05 625.309 1255.54 626.607 1256.87 C 627.905 1258.19 628.359 1260.13 627.784 1261.89 C 627.209 1263.66 625.701 1264.96 623.871 1265.26 C 621.283 1265.69 618.803 1264.04 618.205 1261.49 C 617.606 1258.93 619.094 1256.35 621.606 1255.59 z" fill="rgb(249,201,130)" transform="translate(0,0)"></path>
<path d="M 647.649 959.402 C 649.262 958.567 651.207 958.703 652.688 959.755 C 654.17 960.806 654.94 962.596 654.685 964.395 C 654.431 966.194 653.193 967.699 651.477 968.297 C 649.072 969.136 646.427 967.972 645.42 965.633 C 644.413 963.293 645.386 960.572 647.649 959.402 z" fill="rgb(249,201,130)" transform="translate(0,0)"></path>
<path d="M 605.502 999.691 C 607.6 999.142 609.753 1000.37 610.353 1002.45 C 610.953 1004.54 609.782 1006.72 607.714 1007.37 C 606.329 1007.81 604.817 1007.46 603.764 1006.46 C 602.71 1005.46 602.281 1003.97 602.642 1002.56 C 603.003 1001.16 604.098 1000.06 605.502 999.691 z" fill="rgb(249,201,130)" transform="translate(0,0)"></path>
<path d="M 659.89 1038.38 C 660.787 1037.61 662.044 1037.4 663.145 1037.84 C 664.245 1038.28 665.005 1039.31 665.11 1040.49 C 665.216 1041.67 664.651 1042.81 663.646 1043.45 C 662.248 1044.33 660.407 1043.98 659.423 1042.65 C 658.439 1041.33 658.642 1039.47 659.89 1038.38 z" fill="rgb(249,201,130)" transform="translate(0,0)"></path>
<path d="M 1474.52 185.358 C 1494.68 183.818 1514.79 188.879 1531.83 199.778 C 1553.08 213.386 1567.99 234.957 1573.19 259.652 C 1578.41 282.7 1574.19 306.876 1561.47 326.794 C 1532.48 371.522 1470.36 378.431 1427.33 350.429 C 1426.91 355.004 1426.18 359.544 1425.14 364.018 C 1418.45 393.925 1398.89 417.931 1366.2 419.148 C 1326.89 422.366 1314.59 379.925 1284.85 368.34 C 1276.71 365.168 1267.06 397.995 1228.75 391.594 C 1214.94 386.72 1213.52 381.722 1202.29 375.401 C 1184.62 366.59 1162.03 374.732 1147.13 385.637 C 1141.99 389.397 1124.87 409.7 1117.59 401.996 C 1103.1 386.662 1114.57 361.089 1126.98 347.972 C 1145.62 328.286 1166.69 324.081 1192.8 322.971 C 1201.81 285.908 1225.17 266.904 1265.98 279.2 C 1274.27 281.695 1280.79 287.202 1287.01 293.081 C 1290.23 285.327 1293.85 278.123 1299.09 271.52 C 1324.03 240.082 1340.96 262.873 1366.39 255.451 C 1404.84 244.231 1401.43 194.056 1474.52 185.358 z" fill="rgb(248,174,128)" transform="translate(0,0)"></path>
<path d="M 1468.37 204.283 C 1472.2 203.713 1481 203.121 1484.68 204.353 C 1486.59 206.192 1487.63 210.757 1483.58 211.042 C 1475.6 211.604 1462.83 214.005 1455.79 216.944 C 1453.65 217.663 1441.67 222.676 1440.88 221.296 C 1434.82 210.649 1463.49 205.038 1468.37 204.283 z" fill="rgb(233,218,200)" transform="translate(0,0)"></path>
<path d="M 1422.22 227.52 C 1432.07 233.015 1427.67 234.75 1419.68 242.245 C 1408.92 241.413 1418.96 230.818 1422.22 227.52 z" fill="rgb(233,218,200)" transform="translate(0,0)"></path>
<path d="M 626.545 408.149 C 560.434 460.838 470.919 417.805 473.405 332.662 C 474.147 305.048 485.902 278.877 506.053 259.981 C 553.271 215.812 623.393 235.016 658.173 282.896 C 666.881 294.884 676.683 308.577 686.563 319.308 C 732.464 287.925 782.8 306.119 790.691 363.045 C 805.93 362.133 826.594 361.792 841.439 365.72 C 864.868 371.918 918.294 385.182 909.155 419.157 C 902.712 424.95 899.5 423.154 891.752 420.785 C 876.118 413.058 863.037 403.763 844.685 403.597 C 806.507 403.251 771.923 415.121 743.194 440.458 C 735.67 446.917 729.367 454.824 721.933 461.359 C 700.184 480.48 658.588 484.598 638.877 460.298 C 625.543 443.86 624.711 427.96 626.545 408.149 z" fill="rgb(248,174,128)" transform="translate(0,0)"></path>
<path d="M 503.429 295.377 C 504.218 295.757 507.602 297.257 507.704 298.142 C 507.53 302.682 504.225 307.839 503.267 312.559 C 502.632 315.688 501.666 318.795 501.078 322.01 C 499.21 332.21 499.008 342.49 501.638 352.586 C 502.742 356.821 503.869 357.714 500.506 360.463 L 499.103 361.649 C 494.2 358.954 494.441 356.671 493.184 350.992 C 488.706 330.761 492.335 312.652 503.429 295.377 z" fill="rgb(233,218,200)" transform="translate(0,0)"></path>
<path d="M 549.359 257.133 C 554.931 257.957 554.058 265.864 545.721 267.455 C 538.445 268.843 528.421 277.411 523.724 282.548 C 520.518 280.641 516.882 280.179 519.164 276.587 C 526.4 265.198 536.694 260.316 549.359 257.133 z" fill="rgb(233,218,200)" transform="translate(0,0)"></path>
<path d="M 731.01 121.362 C 785.436 120.358 816.308 147.51 833.039 197.633 C 854.226 186.217 887.89 175.524 908.555 191.837 C 934.573 212.374 935.303 242.508 916.6 267.41 C 956.636 284.025 994.029 342.588 981.905 386.499 C 980.799 390.505 979.539 393.419 975.763 395.36 C 965.503 395.84 961.579 378.646 958.564 370.74 C 952.032 353.398 941.906 334.219 927.099 323.37 C 900.479 303.866 876.311 313.678 849.008 318.414 C 814.21 324.45 808.556 296.924 788.853 280.512 C 782.058 274.852 761.704 274.23 751.696 272.313 C 730.257 267.647 698.432 258.615 681.415 244.109 C 633.256 203.056 675.816 127.37 731.01 121.362 z" fill="rgb(248,174,128)" transform="translate(0,0)"></path>
<path d="M 685.193 171.379 C 694.784 173.456 690.767 176.662 689.095 185.527 C 687.65 193.196 687.844 197.435 688.811 205.005 C 690.203 218.305 696.731 228.098 706.151 236.988 C 706.67 237.477 704.685 241.348 704.589 241.557 C 698.54 240.824 697.731 239.972 693.576 234.777 C 678.616 216.074 676.051 193.127 685.193 171.379 z" fill="rgb(233,218,200)" transform="translate(0,0)"></path>
<path d="M 1311.68 108.408 C 1319.55 108.098 1327.42 108.81 1335.1 110.527 C 1351.37 114.287 1371.11 123.273 1379.87 138.132 C 1391.53 157.91 1382.75 177.05 1370.44 193.345 C 1332.52 243.53 1269.07 202.242 1219.72 222.424 C 1191.55 233.941 1191.55 261.527 1169 277.932 C 1162.09 282.883 1147.04 280.484 1138.01 282.096 C 1127.95 283.988 1118.24 287.38 1109.19 292.157 C 1081.29 306.768 1063.86 329.807 1054.68 359.496 C 1053.63 364.631 1053.09 374.861 1046.13 373.332 C 1041.01 368.371 1040.32 359.39 1039.97 352.54 C 1038.81 330.249 1050.78 300.466 1065.76 284.207 C 1063.66 281.649 1061.3 278.796 1059.51 276.029 C 1052.48 265.329 1050.02 252.261 1052.67 239.735 C 1057.1 219.57 1074.4 203.868 1094 198.727 C 1107.63 195.152 1120.21 197.058 1133.6 200.284 C 1105.2 131.334 1183.31 92.6391 1235.48 151.06 L 1236.66 149.658 C 1256.68 126.371 1280.66 110.787 1311.68 108.408 z" fill="rgb(248,174,128)" transform="translate(0,0)"></path>
<path d="M 1363.45 164.879 C 1370.72 168.655 1369.87 172.205 1364.96 179.47 C 1352.28 198.236 1333.35 203.396 1312.18 205.918 C 1303.11 205.672 1306.68 198.254 1310.43 197.961 C 1337 195.882 1349.89 187.043 1363.45 164.879 z" fill="rgb(233,218,200)" transform="translate(0,0)"></path>
<metadata><recraft-signature>{"signed_by": "recraft", "signature_b64": "guoKAqZvVG/VmnWAu2mJ0lvw4QalQmGz8zEkcrcnsGVMizKn0Jkv3ajUuYjt1OLVFfH7SFZNdueVuZser/rvAg==", "signing_algo": "Ed25519", "generation_timestamp": 1778553468, "identifier": "8368b3b6-d094-469a-9475-dcfa844661a9"}</recraft-signature></metadata></svg>