<svg xmlns="http://www.w3.org/2000/svg" height="1024" preserveAspectRatio="none" style="display: block;" version="1.1" viewBox="0 0 2048 2048" width="1024">
<defs>
	<linearGradient gradientUnits="userSpaceOnUse" id="Gradient1" x1="1051.2" x2="1057.31" y1="734.984" y2="738.56">
		<stop class="stop0" offset="0" stop-color="rgb(2,14,26)" stop-opacity="1"></stop>
		<stop class="stop1" offset="1" stop-color="rgb(3,41,87)" stop-opacity="1"></stop>
	</linearGradient>
</defs>

<path d="M 543.318 241.913 C 529.95 200.627 525.229 161.339 545.506 120.767 C 554.279 103.224 571.471 82.7648 590.385 76.0068 C 611.772 68.3649 612.263 98.5866 616.12 110.966 C 643.834 199.914 708.825 274.821 783.913 328.007 C 797.122 337.363 810.52 347.143 825.015 354.357 C 948.879 262.33 1100.24 262.282 1223.84 354.621 C 1309.52 301.787 1382.34 234.934 1422.3 140.458 C 1426.59 130.325 1433 111.231 1434.76 100.73 C 1444.07 45.1261 1490.58 94.6166 1503.27 120.692 C 1518.89 152.777 1522.11 189.935 1511.1 225.193 C 1509.34 230.702 1507.52 236.19 1505.62 241.656 C 1513.94 233.61 1530.98 214.375 1542.77 213.827 C 1557.83 213.128 1555.21 243.47 1553.84 253.106 C 1548.83 288.366 1526.51 315.957 1501.05 339.428 C 1507.33 336.768 1516.04 333.205 1521.57 330.726 C 1528.22 327.743 1546.54 319.973 1553 322.618 C 1564.94 327.5 1551.76 355.827 1547.18 363.254 C 1529.48 391.871 1501.25 412.275 1469.2 421.796 C 1470.43 422.44 1470.9 422.808 1472.09 423.63 C 1475.51 424.296 1483.72 425.443 1486.16 427.087 C 1509.19 442.613 1449.89 450.926 1442.3 451.483 C 1435.35 453.521 1431.43 450.917 1426.22 453.681 C 1433.89 456.162 1450.29 459.397 1454.63 464.186 C 1455.04 466.18 1455.61 468.21 1453.72 469.73 C 1433.46 486.007 1397.97 494.676 1373.43 495.193 C 1346.58 495.759 1329.55 489.032 1308.87 475.313 C 1314.27 484.371 1319.2 492.813 1324.08 502.788 C 1357.16 570.482 1363.23 660.449 1323.76 726.774 C 1323.6 726.996 1323.45 727.218 1323.3 727.441 C 1324.14 720.977 1325.15 714.743 1325.08 708.224 L 1321.94 707.074 C 1306.01 749.231 1266.33 787.806 1230.18 813.504 C 1232.88 821.619 1235.17 827.49 1238.54 835.37 C 1254.33 828.237 1269.44 815.958 1284.06 806.09 C 1439.92 700.846 1525.76 374.439 1762.97 458.657 C 1849.23 489.281 1917.06 547.739 1978 613.359 C 1988.62 624.792 2012.89 642.679 2018.79 654.798 C 2019.38 667.303 1995.83 677.274 1986.07 681.586 C 1933.35 704.864 1876.67 686.122 1832.12 654.427 L 1831.23 657.333 C 1849.28 675.585 1868.96 696.275 1887.82 713.444 C 1921.66 743.752 1958.53 770.489 1997.86 793.229 C 2016.34 803.972 2044.37 817.601 2016.24 840.568 C 1948.25 896.074 1862.21 859.081 1805.49 806.256 L 1803.66 808.353 C 1862.58 894.132 1924 980.982 2007.76 1044.91 C 2024.57 1057.74 2039.53 1069.13 2013.24 1084.32 C 1922.14 1134.13 1819.1 1048.37 1763.55 980.396 C 1766.64 988.737 1770.74 996.613 1774.59 1004.52 C 1811.43 1080.32 1848.77 1155.05 1902.25 1220.87 C 1907.16 1226.92 1912.63 1233.94 1917.36 1240.26 C 1873.3 1252.71 1832.44 1240.93 1793.52 1219.17 C 1752.08 1195.99 1693.15 1143.32 1665.23 1105.03 C 1701.29 1207.59 1724.41 1283.06 1785.64 1376.01 C 1689.5 1407.52 1586.53 1291.53 1544.48 1216.89 C 1533.34 1197.11 1523.16 1177.65 1513.25 1157.25 C 1511.97 1159.85 1512.33 1159.47 1512.09 1162.54 C 1512.01 1163.46 1511.92 1164.37 1511.82 1165.28 C 1518.72 1223.67 1533.08 1283.76 1550.29 1339.99 C 1554.49 1353.73 1558.54 1366.38 1563.23 1380.16 C 1566.32 1389.25 1579.2 1413.19 1574.45 1420.4 C 1572.4 1423.49 1567.83 1425.57 1563.97 1425.53 C 1531.6 1425.18 1491.99 1396.14 1470.39 1375.39 C 1428.1 1334.74 1391.99 1283.94 1364.18 1232.81 C 1390.05 1365.45 1400.71 1505.11 1297.19 1608.64 C 1297.95 1603.62 1299.88 1592.86 1300.08 1588.25 C 1299.81 1583.42 1300.92 1579.97 1298.59 1575.94 C 1286.46 1607.79 1273.82 1605.05 1261.38 1635.06 C 1258.14 1643.57 1246.93 1669.96 1242.52 1678.05 L 1241.94 1677.23 C 1238.44 1677.74 1217.94 1674.02 1212.8 1673.43 C 1194.78 1671.34 1177.44 1668.78 1159.2 1668.54 C 1157.41 1657.1 1154.86 1627.29 1155.84 1616.12 C 1155.34 1609.03 1148.01 1601.07 1143.45 1594.56 L 1142.87 1608.99 C 1114.06 1583.73 1095.36 1533.24 1086.62 1496.07 C 1085.3 1493.2 1082.82 1486.55 1082.05 1483.49 C 1078.51 1469.36 1069.68 1458.37 1063.87 1445.83 L 1057.08 1437.57 C 1040.5 1431.66 1008.96 1433.22 991.759 1436.46 L 985.668 1443.44 C 982.671 1449.87 977.616 1456.87 974.168 1464.57 C 971.452 1470.63 968.223 1481.08 965.81 1485.81 C 954.624 1523.1 943.658 1562.74 919.609 1594.06 C 916.698 1597.86 911.81 1604.8 907.643 1606.93 C 905.114 1604.74 906.072 1599.56 906.318 1596.24 C 904.829 1595.28 904.829 1595.66 903.349 1596.52 C 900.584 1601.95 897.206 1605.89 893.455 1610.66 L 891.761 1636.77 C 891.602 1646.49 890.772 1658.39 889.788 1668.11 C 873.855 1666.59 826.61 1674.45 810.284 1677.55 C 808.509 1675.08 807.59 1672.84 805.246 1671.82 L 804.602 1672.08 C 800.831 1666.94 787.607 1635.79 784.102 1627.74 C 779.919 1615.7 769.447 1608.53 761.964 1598 C 755.266 1588.57 752.82 1582.53 748.476 1571.78 C 748.648 1585.78 750.195 1593.85 752.742 1607.47 C 738.846 1597.9 728.256 1585.27 718.904 1571.38 C 645.812 1462.8 663.175 1350.78 684.794 1231.82 C 653.432 1289.4 618.723 1339.99 568.883 1383.87 C 546.476 1402.41 514.343 1425.52 484.367 1425.51 C 459.976 1425.5 482.454 1386.77 486.572 1375.22 C 512.671 1302.01 529.366 1226.85 538.744 1149.74 C 531.483 1168.48 521.936 1184.59 512.517 1202.2 C 469.222 1283.15 367.024 1407.43 262.935 1376.08 C 323.497 1282.66 346.886 1211.13 382.328 1107.7 C 322.29 1176.61 230.832 1265.91 130.881 1240.79 C 134.269 1236.1 138.453 1230.94 142.123 1226.44 C 200.656 1154.7 240.772 1073.7 280.936 990.485 L 279.775 987.381 C 221.136 1053.1 127.479 1134 32.6131 1083.11 C 9.03029 1067.34 24.3039 1057.37 38.732 1046.54 C 122.281 983.859 194.711 884.075 250.451 799.967 C 213.674 831.762 173.977 862.937 121.636 867.973 C 94.3815 870.596 30.9226 857.094 23.2617 821.475 C 22.4187 817.556 25.2835 810.244 28.7459 807.497 C 39.1314 799.258 51.4805 792.865 62.9784 786.013 C 75.8599 778.317 88.4695 770.174 100.784 761.599 C 146.803 729.796 179.956 696.077 218.219 656.266 L 216.333 653.899 C 172.406 687.367 116.466 704.585 63.6559 681.79 C 52.1499 676.824 31.755 668.825 29.829 655.012 C 31.3294 650.379 36.824 644.07 40.6684 640.897 C 69.4175 617.165 93.4403 589.129 120.042 563.362 C 154.225 530.151 193.133 502.179 235.502 480.356 C 366.923 413.238 451.671 442.046 545.852 551.014 C 631.128 649.678 691.374 771.361 810.009 834.246 C 813.447 828.297 816.034 821.046 818.567 814.58 C 774.231 780.158 752.04 757.574 725.422 707.153 C 723.632 710.335 724.288 712.488 723.983 716.208 C 724.242 719.686 725.97 726.471 726.782 730.149 C 715.065 714.736 707.197 693.037 703.411 674.251 C 688.64 600.948 701.011 536.973 741.106 474.714 C 716.507 492.514 693.485 497.551 663.162 494.272 C 650.873 492.943 590.353 479.879 593.379 462.965 C 597.31 458.781 617.733 454.971 625.744 452.337 L 623.268 450.658 C 605.055 451.575 567.163 451.477 556.521 432.99 C 556.496 424.77 571.685 424.339 578.113 424.167 C 578.702 423.323 579.297 422.482 579.897 421.646 C 550.395 413.585 524.067 395.196 506.317 370.184 C 500.709 362.281 482.481 329.608 495.395 322.752 C 503.582 318.405 530.003 332.084 539.21 336.108 L 542.771 334.706 C 516.503 309.9 494.484 278.797 494.145 241.523 C 493.647 186.889 526.292 225.522 543.318 241.913 z" fill="rgb(6,13,18)" transform="translate(0,0)"></path>
<path d="M 550.22 251.476 C 534.368 210.214 526.488 170.408 545.088 128.077 C 553.982 107.833 569.44 89.2339 589.491 79.3604 C 609.891 70.0754 610.373 102.882 614.305 114.729 C 643.131 201.576 704.365 274.832 778.314 327.489 C 791.164 336.639 804.91 346.787 818.92 354.09 C 820.234 354.783 821.563 355.447 822.906 356.081 C 815.449 362.845 805.112 371.548 800.143 379.982 L 801.403 379.045 C 812.014 371.068 820.643 361.248 831.079 353.482 C 883.836 313.519 947.657 290.842 1013.8 288.554 C 1014.77 288.229 1014.68 288.232 1015.67 288.317 C 1084.98 282.76 1173.63 316.019 1226.15 360.473 C 1231.88 365.318 1238.13 371.981 1244.37 375.782 L 1245.7 375.436 C 1244.42 370.465 1230.42 360.349 1225.64 356.477 C 1238.98 350.027 1262.89 333.53 1275.18 324.334 C 1340.34 275.573 1392.56 217.184 1424.84 141.831 C 1431.83 125.512 1439.02 87.69 1446.81 79.1966 C 1447.9 78.3336 1447.93 78.2967 1449.17 77.7422 C 1500.71 86.5658 1523.01 162.895 1513 207.26 C 1509.83 221.329 1505.4 236.719 1499.59 249.942 L 1500.72 249.102 C 1512 240.614 1529.69 218.455 1542.46 217.33 C 1555.51 216.179 1552.13 250.549 1550.49 258.1 C 1544.42 286.002 1527.99 310.055 1507.19 329.183 C 1501.08 334.88 1489.67 343.593 1484.78 348.82 C 1499.63 343.538 1540.82 322.936 1552.43 325.544 C 1554.38 327.673 1554.94 328.379 1554.68 331.567 C 1551.12 375.581 1501.33 411.508 1462.35 421.129 C 1454.71 420.574 1455.24 427.604 1462.6 426.704 C 1470.15 426.784 1482.92 425.69 1487.78 432.689 C 1487.22 447.85 1423.02 451.825 1411.65 446.608 C 1408.15 445.002 1391.16 440.161 1389.26 441.598 C 1399.13 448.769 1441.84 459.478 1452.23 465.641 C 1451.34 468.995 1448.27 470.793 1445.3 472.377 C 1403.24 494.815 1344.43 504.563 1306.44 468.948 C 1302.49 465.25 1298.36 460.373 1293.75 457.774 C 1293.62 460.654 1298.62 467.14 1300.56 469.74 C 1330.94 510.611 1344.89 557.544 1348.29 608.207 C 1347.86 611.92 1348.04 618.914 1348.48 622.717 C 1347.43 651.458 1343.19 683.214 1329.2 708.588 C 1329.21 701.154 1328.34 692.342 1327.79 684.81 C 1324.59 693.404 1320.53 704.971 1316.54 713.021 C 1283.8 779.074 1218.2 827.691 1149.93 851.52 C 1055.33 884.818 951.367 879.097 860.992 835.618 C 798.57 805.491 743.172 751.366 720.041 685.248 C 720.283 693.864 719.938 703.128 719.775 711.794 C 690.217 648.944 695.414 565.308 726.554 504.109 C 730.605 496.331 735.062 488.77 739.905 481.459 C 742.861 476.998 755.903 460.126 756.73 457.531 C 756.324 457.251 755.919 456.97 755.514 456.69 C 717.272 504.445 648.939 498.776 600.862 470.728 C 598.708 469.471 596.825 465.971 596.727 463.828 C 602.414 459.043 656.918 449.094 659.293 440.119 C 656.44 437.965 641.908 445.528 637.382 446.725 C 625.451 449.881 561.048 449.365 560.736 431.538 C 567.796 425.337 587.865 428.946 591.062 423.906 C 588.116 421.45 570.243 415.622 565.124 413.471 C 554.532 409.02 544.546 403.245 535.405 396.285 C 514.466 380.393 499.066 360.616 493.764 333.608 C 493.171 330.584 494.179 328.286 496.104 325.99 C 502.428 323.003 513.21 328.081 519.483 330.831 C 534.05 337.214 548.338 342.673 563.42 347.721 C 540.67 327.337 519.21 312.445 506.895 282.702 C 500.333 266.852 487.258 224.585 508.29 215.358 L 509.665 216.285 C 511.129 217.348 512.56 217.877 514.307 218.309 C 526.931 229.276 537.513 240.72 550.22 251.476 z" fill="rgb(3,60,115)" transform="translate(0,0)"></path>
<path d="M 1080.87 587.942 C 1081.44 534.614 1116.69 488.574 1170.05 479.236 C 1198.73 474.103 1228.27 480.654 1252.08 497.428 C 1280.96 518.149 1293.35 546.263 1298.87 580.289 C 1305.24 580.288 1311.55 581.632 1305.68 591.61 C 1305.46 591.988 1300.08 592.664 1299 592.849 C 1296.28 615.813 1291.73 633.284 1277.67 652.272 C 1259.91 676.248 1234.82 692.46 1205.13 696.764 C 1175.94 700.754 1146.38 692.807 1123.13 674.721 C 1094.42 652.819 1085.39 629.735 1080.73 594.982 C 1076.3 592.356 1071.66 590.098 1066.86 588.23 C 1032.64 575.124 1003.38 579.378 970.655 593.725 C 966.284 634.355 945.167 670.095 907.328 687.575 C 842.225 717.648 765.32 678.357 754.316 606.887 C 753.847 603.838 752.217 595.563 751.077 592.953 C 746.966 592.224 744.568 592.582 742.789 588.678 C 743.059 576.371 751.364 582.068 752.405 575.878 C 756.519 551.413 765.855 527.472 784.519 509.357 C 852.869 443.018 971.801 488.271 971.076 587.044 C 973.533 585.983 976.008 584.964 978.5 583.989 C 1015.13 569.766 1045.56 572.578 1080.87 587.942 z" fill="rgb(153,155,165)" transform="translate(0,0)"></path>
<path d="M 1298.87 580.289 C 1305.24 580.288 1311.55 581.632 1305.68 591.61 C 1305.46 591.988 1300.08 592.664 1299 592.849 L 1298.87 580.289 z" fill="rgb(191,183,181)" transform="translate(0,0)"></path>
<path d="M 774.112 643.849 C 746.687 601.197 754.062 544.977 791.561 510.842 C 829.06 476.706 885.723 474.632 925.618 505.933 C 965.513 537.234 976.98 592.764 952.748 637.308 C 935.211 669.545 901.967 690.137 865.294 691.48 C 828.621 692.822 793.96 674.717 774.112 643.849 z" fill="rgb(6,13,18)" transform="translate(0,0)"></path>
<path d="M 774.112 643.849 C 746.687 601.197 754.062 544.977 791.561 510.842 C 829.06 476.706 885.723 474.632 925.618 505.933 C 965.513 537.234 976.98 592.764 952.748 637.308 C 947.54 635.441 935.142 623.883 929.215 620.166 C 922.233 615.787 917.297 613.484 909.735 609.896 C 914.509 592.612 913.379 584.553 911.765 567.109 C 906.031 549.345 907.154 551.346 894.037 540.227 C 872.947 520.974 852.16 519.833 832.557 542.515 C 820.505 556.625 814.554 574.946 816.014 593.445 C 816.502 600.053 818.052 605.647 819.938 611.985 C 806.276 617.219 796.63 624.454 786.315 634.773 C 781.864 639.227 779.914 641.492 774.112 643.849 z" fill="rgb(4,47,92)" transform="translate(0,0)"></path>
<path d="M 912.057 516.333 C 913.572 522.428 915.273 529.113 917.155 535.058 C 923.542 537.484 931.103 539.334 937.781 541.023 C 929.67 544.303 927.063 544.829 918.945 549.1 L 918.226 550.649 C 915.54 556.125 914.268 561.762 911.765 567.109 C 906.031 549.345 907.154 551.346 894.037 540.227 C 909.388 533.149 906.058 533.483 911.484 518.003 L 912.057 516.333 z" fill="rgb(232,221,188)" transform="translate(0,0)"></path>
<path d="M 909.735 609.896 C 917.297 613.484 922.233 615.787 929.215 620.166 C 935.142 623.883 947.54 635.441 952.748 637.308 C 935.211 669.545 901.967 690.137 865.294 691.48 C 828.621 692.822 793.96 674.717 774.112 643.849 C 779.914 641.492 781.864 639.227 786.315 634.773 C 796.63 624.454 806.276 617.219 819.938 611.985 C 828.485 634.855 852.814 655.353 878.166 645.209 C 895.076 638.442 903.082 625.688 909.735 609.896 z" fill="rgb(3,60,115)" transform="translate(0,0)"></path>
<path d="M 858.393 537.164 C 872.551 536.216 881.629 538.354 890.59 550.399 C 900.208 563.529 904.377 579.871 902.224 596.004 C 899.621 615.634 889.166 629.648 870.69 636.816 C 861.393 637.472 854.694 637.617 847.054 631.485 C 815.841 606.436 819.207 552.182 858.393 537.164 z" fill="rgb(232,221,188)" transform="translate(0,0)"></path>
<path d="M 1102.3 643.107 C 1098.12 636.265 1094.81 628.932 1092.44 621.276 C 1083.69 593.89 1085.06 564.101 1098.42 538.42 C 1111.16 514.127 1133.08 495.933 1159.31 487.883 C 1185.37 480.14 1213.44 482.851 1237.54 495.44 C 1291.83 524.267 1306.16 588.621 1277.57 641.436 C 1261.47 666.274 1240.42 683.233 1211 689.671 C 1184.67 695.407 1157.14 690.436 1134.49 675.854 C 1122.88 668.343 1109.05 655.255 1102.3 643.107 z" fill="rgb(6,13,18)" transform="translate(0,0)"></path>
<path d="M 1102.3 643.107 C 1098.12 636.265 1094.81 628.932 1092.44 621.276 C 1083.69 593.89 1085.06 564.101 1098.42 538.42 C 1111.16 514.127 1133.08 495.933 1159.31 487.883 C 1185.37 480.14 1213.44 482.851 1237.54 495.44 C 1291.83 524.267 1306.16 588.621 1277.57 641.436 C 1272.59 639.768 1270.55 636.912 1266.68 633.613 C 1256.31 624.758 1245.01 618.407 1233.17 611.77 C 1240.09 590.358 1235.94 584.752 1238.57 566.181 C 1235.94 559.074 1235 556.272 1231.63 549.36 C 1225.82 545.591 1225.12 545.757 1220.12 540.796 C 1213.52 532.913 1204.06 526.697 1193.61 525.854 C 1163.83 523.455 1142.09 556.193 1140.63 582.921 C 1140.17 591.188 1142.32 601.844 1144.15 609.82 C 1132.4 615.679 1118.57 621.327 1110.5 631.562 C 1107.53 635.322 1105.59 639.013 1102.3 643.107 z" fill="rgb(4,47,92)" transform="translate(0,0)"></path>
<path d="M 1220.12 540.796 C 1236.79 534.568 1233.13 533.956 1238.79 517.032 C 1241.03 523.747 1243.05 529.702 1246.27 535.987 C 1252.38 538.453 1257.47 539.74 1263.59 541.799 C 1255.12 544.266 1252.42 545.07 1244.74 549.001 C 1242.87 554.259 1241.04 561.54 1238.57 566.181 C 1235.94 559.074 1235 556.272 1231.63 549.36 C 1225.82 545.591 1225.12 545.757 1220.12 540.796 z" fill="rgb(232,221,188)" transform="translate(0,0)"></path>
<path d="M 1144.15 609.82 C 1149.98 624.996 1156.4 636.27 1172.04 643.591 C 1196.56 655.07 1221.59 639.155 1231.5 616.036 C 1232.09 614.629 1232.65 613.206 1233.17 611.77 C 1245.01 618.407 1256.31 624.758 1266.68 633.613 C 1270.55 636.912 1272.59 639.768 1277.57 641.436 C 1261.47 666.274 1240.42 683.233 1211 689.671 C 1184.67 695.407 1157.14 690.436 1134.49 675.854 C 1122.88 668.343 1109.05 655.255 1102.3 643.107 C 1105.59 639.013 1107.53 635.322 1110.5 631.562 C 1118.57 621.327 1132.4 615.679 1144.15 609.82 z" fill="rgb(3,60,115)" transform="translate(0,0)"></path>
<path d="M 1188.37 536.303 C 1236.98 539.586 1241.95 627.611 1190.87 637.49 C 1183.5 637.153 1179.3 636.859 1172.85 632.543 C 1148.26 616.071 1144.35 577.577 1160.51 554.019 C 1165.66 546.517 1174.75 538.389 1183.99 536.953 L 1188.37 536.303 z" fill="rgb(232,221,188)" transform="translate(0,0)"></path>
<path d="M 1023.49 623.497 C 1033.45 627.264 1092.84 653.018 1098.74 657.821 L 1098.63 660.744 C 1098.04 671.935 1040.26 776.083 1029.47 790.906 C 1026.69 789.775 1027.18 789.366 1025.21 786.263 C 1005.65 760.346 990.484 724.258 972.421 696.61 C 964.488 684.468 955.736 669.286 949.063 656.569 C 974.1 646.066 998.915 635.04 1023.49 623.497 z" fill="rgb(245,241,218)" transform="translate(0,0)"></path>
<path d="M 1073.31 695.179 C 1074.73 696.027 1073.9 695.749 1075.86 695.785 C 1083.18 687.466 1089.83 669.301 1098.63 660.744 C 1098.04 671.935 1040.26 776.083 1029.47 790.906 C 1026.69 789.775 1027.18 789.366 1025.21 786.263 C 1026.77 782.22 1026.96 783.984 1025.75 780.736 C 1029.52 770.784 1040.53 752.099 1045.95 742.638 C 1054.91 727.01 1064.01 710.499 1073.31 695.179 z" fill="url(#Gradient1)" transform="translate(0,0)"></path>
<path d="M 1023.49 623.497 C 1033.45 627.264 1092.84 653.018 1098.74 657.821 L 1098.63 660.744 C 1089.83 669.301 1083.18 687.466 1075.86 695.785 C 1073.9 695.749 1074.73 696.027 1073.31 695.179 C 1080.29 682.582 1087.44 670.086 1094.78 657.696 C 1071.26 647.534 1047.38 637.487 1024.29 626.437 C 1000.96 637.042 977.512 647.386 953.952 657.466 C 959.356 668.691 1020.82 777.72 1025.75 780.736 C 1026.96 783.984 1026.77 782.22 1025.21 786.263 C 1005.65 760.346 990.484 724.258 972.421 696.61 C 964.488 684.468 955.736 669.286 949.063 656.569 C 974.1 646.066 998.915 635.04 1023.49 623.497 z" fill="rgb(6,13,18)" transform="translate(0,0)"></path>
<path d="M 653.505 250.253 C 666.169 248.544 680.345 250.692 692.22 255.335 C 653.428 263.082 626.582 296.764 642.628 335.736 C 648.01 348.779 658.398 359.119 671.466 364.441 C 689.392 371.768 702.265 369.252 719.181 362.127 C 713.271 367.898 710.301 370.538 703.704 375.469 C 680.308 392.455 647.483 391.274 623.749 375.654 C 608.388 365.617 597.665 349.868 593.955 331.898 C 585.599 290.746 613.615 257.382 653.505 250.253 z" fill="rgb(232,221,188)" transform="translate(0,0)"></path>
<path d="M 1377.26 250.35 C 1385.39 249.257 1396.51 250.156 1404.45 252.271 C 1422.88 257.272 1438.57 269.37 1448.1 285.918 C 1456.77 300.944 1459.01 318.827 1454.32 335.524 C 1448.93 354.197 1436.22 369.901 1419.09 379.076 C 1400.92 388.941 1380.65 389.78 1361.06 384.054 C 1346.76 379.468 1340.35 372.938 1331.06 361.993 C 1366.76 379.106 1403.45 361.146 1409.81 322.508 C 1412.21 307.592 1408.65 292.329 1399.9 280.012 C 1389.45 265.264 1374.16 257.876 1356.78 255.003 C 1364.67 252.74 1369.18 251.372 1377.26 250.35 z" fill="rgb(232,221,188)" transform="translate(0,0)"></path>
<path d="M 1025.39 352.644 C 1026.39 353.601 1037.82 392.991 1039.89 398.843 C 1051.41 406.399 1064.82 409.742 1077.68 415.1 C 1065.77 420.102 1050.62 425.839 1039.59 431.88 C 1033.17 447.656 1030.36 459.109 1026.31 475.503 C 1021.21 462.269 1018.25 446.14 1012.19 430.976 C 1000.49 425.572 985.854 419.865 973.812 414.773 C 987.427 409.91 998.152 405.746 1011.41 400.116 C 1017.89 385.624 1021.57 368.167 1025.39 352.644 z" fill="rgb(232,221,188)" transform="translate(0,0)"></path>
<path d="M 1468.23 172.675 C 1476.49 189.848 1470.39 191.087 1492.74 195.626 L 1493.75 195.838 C 1486.16 198.907 1481.4 200.318 1474.2 204.371 C 1472.23 208.558 1470.77 212.34 1469.13 216.627 C 1467.73 216.35 1467.3 216.234 1466.99 214.582 C 1464.64 202.065 1456.34 200.568 1444.69 196.897 C 1451.45 195.028 1455.33 193.812 1461.61 190.707 C 1465.53 182.755 1465.38 181.826 1467.9 173.713 L 1468.23 172.675 z" fill="rgb(232,221,188)" transform="translate(0,0)"></path>
<path d="M 579.715 173.734 C 582.707 176.725 582.514 181.657 584.33 185.693 C 587.294 192.278 596.581 194.333 603.102 196.815 C 585.913 202.753 585.662 202.666 580.496 219.266 C 577.122 220.117 577.773 208.385 575.919 205.963 C 572.202 201.108 562.949 198.942 557.276 196.789 C 563.208 194.466 568.33 192.796 574.083 190.017 C 574.357 189.415 574.642 188.818 574.936 188.226 C 577.317 183.394 578.461 178.993 579.715 173.734 z" fill="rgb(232,221,188)" transform="translate(0,0)"></path>
<path d="M 917.225 398.741 C 918.765 403.507 919.966 406.772 922.111 411.303 C 927.615 414.104 931.868 415.391 937.77 417.164 C 920.867 422.546 924.88 418.632 916.955 434.386 C 910.728 419.45 911.736 423.193 896.991 417.313 C 914.581 411.832 911.535 415.191 917.225 398.741 z" fill="rgb(232,221,188)" transform="translate(0,0)"></path>
<path d="M 1135.57 398.709 C 1145.01 407.814 1129.99 408.372 1155.2 416.923 C 1142.12 421.443 1141.17 420.93 1136.25 433.286 C 1136.02 433.39 1135.78 433.494 1135.55 433.598 C 1135.12 433.215 1133.43 427.187 1132.88 425.552 C 1131.25 420.801 1122.37 419.083 1117.04 417.046 C 1130.67 413.351 1133.44 413.435 1135.57 398.709 z" fill="rgb(232,221,188)" transform="translate(0,0)"></path>
<path d="M 804.547 855.45 C 817.806 864.278 841.502 873.678 856.846 879.486 C 939.818 910.892 1024.81 920.779 1112.18 903.093 C 1165.1 892.381 1196.29 879.607 1243.94 856.382 C 1288.57 963.106 1324.28 1073.35 1350.7 1185.97 C 1364.33 1244.63 1388.44 1361.55 1375.86 1428.64 C 1375.58 1429.15 1375.29 1429.65 1375 1430.16 C 1375.13 1442.96 1373.87 1449.41 1369.4 1461.61 C 1372.57 1466.91 1370.29 1472.76 1368.62 1479.22 C 1356.66 1524.59 1333.7 1566.31 1301.79 1600.71 C 1303.1 1590.91 1305.06 1568.83 1301.98 1559.8 L 1300.74 1559.44 C 1297.8 1563.31 1297.84 1568.47 1296.43 1572.98 C 1279.32 1627.85 1224.82 1641.55 1174.77 1623.2 C 1156.73 1616.58 1142.46 1583.06 1140.85 1582.6 C 1138.02 1588.26 1142.53 1595.27 1140.51 1600.51 C 1129.83 1599.37 1109.84 1556.57 1105.76 1547 C 1099.05 1531.25 1095.17 1514.97 1089.92 1498.87 C 1089.79 1499.32 1089.67 1499.76 1089.55 1500.21 C 1089.35 1498.23 1089.4 1494.93 1086.62 1496.07 C 1085.3 1493.2 1082.82 1486.55 1082.05 1483.49 C 1078.51 1469.36 1069.68 1458.37 1063.87 1445.83 L 1057.08 1437.57 C 1040.5 1431.66 1008.96 1433.22 991.759 1436.46 L 985.668 1443.44 C 982.671 1449.87 977.616 1456.87 974.168 1464.57 C 971.452 1470.63 968.223 1481.08 965.81 1485.81 C 954.624 1523.1 943.658 1562.74 919.609 1594.06 C 916.698 1597.86 911.81 1604.8 907.643 1606.93 C 905.114 1604.74 906.072 1599.56 906.318 1596.24 C 904.829 1595.28 904.829 1595.66 903.349 1596.52 L 901.338 1595.85 C 900.801 1596.26 897.238 1601.28 896.501 1602.29 C 888.325 1613.42 880.147 1623.78 865.837 1627 C 844.537 1631.79 808.704 1632.98 789.647 1620.93 C 763.802 1604.6 754.208 1582.01 746.787 1554.55 C 745.093 1575.49 745.494 1582.47 750.537 1602.64 C 741.155 1595.13 733.787 1586.57 726.685 1576.9 C 705.435 1547.93 689.627 1515.34 680.031 1480.72 C 678.478 1474.92 675.764 1465.52 676.633 1459.76 C 675.201 1451.37 673.722 1447.84 672.704 1438.31 C 672.17 1428.14 670.202 1418.25 669.58 1408.1 C 665.719 1345.03 677.454 1281.65 690.599 1220.17 C 708.421 1137.17 731.405 1055.36 759.416 975.215 C 771.03 940.977 789.265 888.22 804.547 855.45 z" fill="rgb(3,60,115)" transform="translate(0,0)"></path>
<path d="M 672.704 1438.31 C 672.996 1389.91 715.317 1354.78 761.877 1373.46 C 747.97 1393.57 740.011 1410.57 744.756 1435.86 C 748.03 1454.26 758.583 1470.56 774.028 1481.08 C 776.798 1482.96 779.933 1484.78 782.832 1486.47 C 752.719 1511.28 711.698 1507.19 687.025 1476.71 C 682.673 1471.33 679.838 1465.87 676.633 1459.76 C 675.201 1451.37 673.722 1447.84 672.704 1438.31 z" fill="rgb(232,221,188)" transform="translate(0,0)"></path>
<path d="M 1286.89 1373.34 C 1290.66 1371.91 1294.17 1370.66 1298.14 1369.86 C 1314.85 1366.65 1332.15 1370.17 1346.26 1379.68 C 1364.91 1392.31 1371.05 1409.05 1375 1430.16 C 1375.13 1442.96 1373.87 1449.41 1369.4 1461.61 C 1366.09 1468.87 1363.43 1473.66 1358.16 1479.54 C 1346.12 1493.12 1329.11 1501.26 1310.98 1502.13 C 1293.94 1502.81 1279.24 1497.96 1266.71 1486.25 C 1267.68 1485.63 1268.64 1485 1269.6 1484.37 C 1310.11 1457.51 1312.79 1411.78 1286.89 1373.34 z" fill="rgb(232,221,188)" transform="translate(0,0)"></path>
<path d="M 1063.87 1445.83 C 1063.92 1442.53 1061.33 1437.63 1065.43 1438.39 C 1086.53 1442.31 1118.07 1453.26 1135.92 1465.19 C 1115.7 1471.03 1099.61 1479.59 1089.92 1498.87 C 1089.79 1499.32 1089.67 1499.76 1089.55 1500.21 C 1089.35 1498.23 1089.4 1494.93 1086.62 1496.07 C 1085.3 1493.2 1082.82 1486.55 1082.05 1483.49 C 1078.51 1469.36 1069.68 1458.37 1063.87 1445.83 z" fill="rgb(1,25,54)" transform="translate(0,0)"></path>
<path d="M 917.393 1463 C 930.708 1454.18 967.089 1439.44 984.37 1439.2 C 984.825 1439.19 985.242 1441.37 985.319 1441.77 L 985.668 1443.44 C 982.671 1449.87 977.616 1456.87 974.168 1464.57 C 971.452 1470.63 968.223 1481.08 965.81 1485.81 C 964.356 1486.99 963.027 1488.02 961.666 1489.31 C 945.161 1471.77 941.511 1468.2 917.393 1463 z" fill="rgb(1,25,54)" transform="translate(0,0)"></path>
<path d="M 917.393 1463 C 912.449 1465.42 905.972 1469.13 900.688 1469.41 C 922.341 1447.5 991.585 1431.04 1022.47 1431.01 C 1057.38 1430.99 1120.92 1445.58 1146.85 1469.34 L 1146.35 1469.93 C 1141.61 1468.39 1140.36 1467.64 1135.92 1465.19 C 1118.07 1453.26 1086.53 1442.31 1065.43 1438.39 C 1061.33 1437.63 1063.92 1442.53 1063.87 1445.83 L 1057.08 1437.57 C 1040.5 1431.66 1008.96 1433.22 991.759 1436.46 L 985.668 1443.44 L 985.319 1441.77 C 985.242 1441.37 984.825 1439.19 984.37 1439.2 C 967.089 1439.44 930.708 1454.18 917.393 1463 z" fill="rgb(0,2,5)" transform="translate(0,0)"></path>
<path d="M 961.666 1489.31 C 963.027 1488.02 964.356 1486.99 965.81 1485.81 C 954.624 1523.1 943.658 1562.74 919.609 1594.06 C 916.698 1597.86 911.81 1604.8 907.643 1606.93 C 905.114 1604.74 906.072 1599.56 906.318 1596.24 C 908.759 1594.76 907.808 1585.68 908.167 1582.03 C 909.019 1585.28 909.138 1597.06 909.263 1601.11 C 935.12 1576.85 952.301 1523.64 961.666 1489.31 z" fill="rgb(6,13,18)" transform="translate(0,0)"></path>
<path d="M 901.338 1595.85 C 903.231 1591.82 904.594 1582.94 908.167 1582.03 C 907.808 1585.68 908.759 1594.76 906.318 1596.24 C 904.829 1595.28 904.829 1595.66 903.349 1596.52 L 901.338 1595.85 z" fill="rgb(0,2,5)" transform="translate(0,0)"></path>
<path d="M 1014.21 1199.5 C 1054.39 1193.71 1091.67 1221.54 1097.55 1261.7 C 1103.42 1301.86 1075.68 1339.21 1035.52 1345.17 C 995.252 1351.15 957.774 1323.3 951.881 1283.01 C 945.987 1242.73 973.915 1205.31 1014.21 1199.5 z" fill="rgb(232,221,188)" transform="translate(0,0)"></path>
<path d="M 1197.16 1089.24 C 1214.18 1087.73 1223.66 1088.39 1239.07 1096.07 C 1233.33 1097.42 1226.75 1099 1221.3 1101.18 C 1204.53 1107.69 1191.12 1120.74 1184.17 1137.33 C 1170.79 1170.11 1190.78 1212.43 1225.81 1220.31 C 1232.5 1221.82 1240.02 1220.99 1246.41 1223.49 C 1245.18 1226.27 1243.39 1226.5 1240.14 1228.44 C 1235.8 1230.31 1231.31 1231.8 1226.71 1232.9 C 1162.78 1248.71 1111.13 1176.59 1147.47 1120.76 C 1159.55 1102.2 1175.89 1093.58 1197.16 1089.24 z" fill="rgb(232,221,188)" transform="translate(0,0)"></path>
<path d="M 829.572 1089.17 C 857.185 1087.38 879.691 1094.12 897.884 1116.07 C 909.769 1130.57 915.338 1149.23 913.342 1167.87 C 911.237 1187.77 901.357 1206.04 885.85 1218.7 C 870.234 1231.19 847.775 1236.03 828.146 1233.76 C 815.209 1230.85 809.839 1228.42 798.513 1221.86 C 814.903 1223.12 827.765 1221.61 841.646 1212.16 C 878.016 1187.4 877.721 1130.72 839.738 1107.51 C 828.281 1100.51 820.728 1099.22 807.548 1096.72 C 815.266 1092.65 821.165 1090.89 829.572 1089.17 z" fill="rgb(232,221,188)" transform="translate(0,0)"></path>
<path d="M 1023.13 990.596 C 1025.32 994.125 1034.18 1028.51 1037.81 1037.43 C 1052.67 1042.87 1067.64 1048.01 1082.71 1052.82 C 1069.23 1056.66 1051.92 1063.97 1037.9 1068.79 C 1032.56 1081.37 1027.55 1100.11 1023.77 1113.36 C 1020.22 1105.97 1012.14 1078.51 1009.21 1069.33 C 995.347 1063.42 978.127 1057.37 963.844 1052.33 C 973.713 1049.11 1001.43 1040.61 1009.39 1036.24 C 1014.9 1021.78 1018.83 1005.62 1023.13 990.596 z" fill="rgb(232,221,188)" transform="translate(0,0)"></path>
<path d="M 829.737 906.741 C 866.738 908.334 893.583 934.983 891.188 973.012 C 890.27 988.933 883.044 1003.83 871.109 1014.41 C 858.315 1025.67 840.683 1030.98 823.856 1029.62 C 821.631 1029.44 821.199 1029.67 819.287 1028.51 C 824.647 1026.17 830.025 1025.87 835.399 1023.91 C 866.974 1012.37 882.088 972.546 868.178 942.426 C 860.579 925.972 847.145 916.242 830.582 910.121 L 829.737 906.741 z" fill="rgb(232,221,188)" transform="translate(0,0)"></path>
<path d="M 1208.15 907.187 C 1215.51 906.497 1222.38 906.711 1229.76 906.798 C 1217.88 909.794 1209.05 911.785 1198.82 919.222 C 1171.75 938.899 1166.98 977.922 1187.32 1004.19 C 1198.85 1019.07 1211.99 1024.94 1230.59 1027.55 C 1230.23 1028.35 1229.47 1028.95 1228.56 1029.12 C 1215.07 1031.66 1200.01 1028.79 1188.21 1022.03 C 1173.6 1013.7 1163.02 999.774 1158.92 983.462 C 1149.74 947.459 1172.94 915.277 1208.15 907.187 z" fill="rgb(232,221,188)" transform="translate(0,0)"></path>
<path d="M 1197.37 1304.73 C 1198.29 1305.89 1198.51 1306.06 1198.87 1307.47 C 1200.66 1314.74 1203.09 1321.83 1206.15 1328.66 C 1216.65 1333.77 1221.9 1334.53 1232.89 1337.31 C 1225.18 1339.89 1214.43 1342.26 1207.76 1346.37 L 1206.04 1347.4 C 1202.08 1355.94 1200.64 1360.83 1197.69 1369.7 C 1196.78 1370.38 1197.19 1370.12 1196.51 1370.51 C 1196.26 1369.9 1196.09 1369.22 1196 1368.56 C 1195.01 1361.12 1191.89 1352.9 1188.84 1346.23 C 1180.55 1342.28 1173.03 1340.13 1164.47 1337 C 1173.08 1334.5 1181.6 1331.68 1190 1328.53 C 1192.48 1320.78 1194.59 1312.33 1197.37 1304.73 z" fill="rgb(232,221,188)" transform="translate(0,0)"></path>
<path d="M 853.223 1304.68 C 865.041 1331.9 851.981 1327.23 886.984 1337.19 C 876.777 1341.21 871.888 1342.19 861.599 1347.11 C 857.938 1355.43 856.11 1360.95 853.268 1369.39 C 853.031 1369.51 852.794 1369.62 852.556 1369.73 C 853.249 1370.6 846.484 1350.04 845.765 1348.34 L 845.118 1347.94 C 836.969 1342.86 829.888 1340.23 820.96 1336.94 C 829.461 1334.5 837.846 1331.66 846.088 1328.45 C 849.025 1320.57 850.975 1312.74 853.223 1304.68 z" fill="rgb(232,221,188)" transform="translate(0,0)"></path>
<path d="M 834.917 1530.46 C 843.16 1546.46 835.672 1546.62 857.264 1553.12 C 840.229 1559.66 841.31 1558.25 834.765 1575.32 C 834.165 1574.26 833.253 1572.73 833.088 1571.49 C 831.283 1558.07 824.155 1558.04 812.809 1553.15 C 830.094 1547.69 830.041 1547.34 834.917 1530.46 z" fill="rgb(232,221,188)" transform="translate(0,0)"></path>
<path d="M 1213.68 1531.83 C 1222.01 1546.93 1212.91 1546.55 1234.82 1553.01 L 1233.2 1553.66 C 1219.09 1559.43 1218.89 1559.82 1213.97 1574.31 L 1213.61 1575.37 C 1206.33 1557.6 1212.97 1561.84 1191.78 1553.67 C 1209.79 1546.89 1207.33 1549.43 1213.68 1531.83 z" fill="rgb(232,221,188)" transform="translate(0,0)"></path>
<path d="M 740.31 1245.72 C 748.14 1253.35 737.66 1255.25 758.077 1263.38 C 746.316 1268.35 746.231 1268.4 740.547 1280.35 C 740.305 1280.12 739.362 1279.3 739.238 1278.87 C 736.357 1268.86 732.172 1268.17 722.865 1264.03 C 727.079 1262.23 730.773 1260.97 734.552 1258.34 L 736.098 1257.31 C 737.71 1253.23 738.858 1249.81 740.31 1245.72 z" fill="rgb(232,221,188)" transform="translate(0,0)"></path>
<path d="M 1308.09 1246.54 C 1316.31 1260.42 1307.68 1255.37 1325.14 1263.13 L 1326 1263.52 C 1313.45 1269.37 1314.36 1268.2 1308.01 1281.6 C 1305.96 1275.3 1306.08 1274.57 1302.48 1268.79 C 1297.57 1266.52 1294.11 1265.26 1288.99 1263.61 C 1294.58 1261.68 1297.73 1260.56 1303.02 1257.96 C 1305.15 1253.83 1306.55 1250.98 1308.09 1246.54 z" fill="rgb(232,221,188)" transform="translate(0,0)"></path>
<path d="M 823.338 908.656 C 813.937 908.753 823.617 904.341 829.737 906.741 L 830.582 910.121 C 827.991 909.496 825.951 909.106 823.338 908.656 z" fill="rgb(153,155,165)" transform="translate(0,0)"></path>
<path d="M 829.737 906.741 L 830.582 910.121 C 827.991 909.496 825.951 909.106 823.338 908.656 C 824.312 906.325 827.068 907.229 829.737 906.741 z" fill="rgb(245,241,218)" transform="translate(0,0)"></path>
<path d="M 1227.62 816.511 C 1232.93 829.376 1239.12 843.476 1243.94 856.382 C 1196.29 879.607 1165.1 892.381 1112.18 903.093 C 1024.81 920.779 939.818 910.892 856.846 879.486 C 841.502 873.678 817.806 864.278 804.547 855.45 C 810.059 843.134 817.025 829.556 822.1 817.601 C 919.673 874.756 1011.31 890.884 1123.48 862.735 C 1157.49 854.199 1199.18 837.012 1227.62 816.511 z" fill="rgb(1,25,54)" transform="translate(0,0)"></path>
<path d="M 1155.84 1616.12 C 1158.84 1619.42 1158.3 1616.1 1161.31 1618.52 C 1188.38 1640.21 1234.14 1635.99 1263.18 1622.69 C 1261.88 1627.34 1260.55 1630.36 1261.38 1635.06 C 1258.14 1643.57 1246.93 1669.96 1242.52 1678.05 L 1241.94 1677.23 C 1238.44 1677.74 1217.94 1674.02 1212.8 1673.43 C 1194.78 1671.34 1177.44 1668.78 1159.2 1668.54 C 1157.41 1657.1 1154.86 1627.29 1155.84 1616.12 z" fill="rgb(1,25,54)" transform="translate(0,0)"></path>
<path d="M 784.102 1627.74 L 785.971 1623.98 C 787.759 1623.74 804.738 1630.14 809.399 1631.09 C 829.838 1635.23 852.339 1634.03 872.296 1628.06 C 877.281 1626.57 884.2 1620.35 887.882 1621.01 C 888.205 1622.57 891.084 1635.8 891.761 1636.77 C 891.602 1646.49 890.772 1658.39 889.788 1668.11 C 873.855 1666.59 826.61 1674.45 810.284 1677.55 C 808.509 1675.08 807.59 1672.84 805.246 1671.82 L 804.602 1672.08 C 800.831 1666.94 787.607 1635.79 784.102 1627.74 z" fill="rgb(1,25,54)" transform="translate(0,0)"></path>
<path d="M 1462.6 426.704 C 1455.24 427.604 1454.71 420.574 1462.35 421.129 C 1463.73 423.265 1463.64 423.428 1466.14 423.671 L 1470.59 424.287 L 1468.82 424.689 C 1466.66 425.114 1464.66 425.962 1462.6 426.704 z" fill="rgb(0,2,5)" transform="translate(0,0)"></path>
<path d="M 1423.93 450.759 C 1430.23 451.266 1436.06 450.858 1442.3 451.483 C 1435.35 453.521 1431.43 450.917 1426.22 453.681 C 1424.58 453.402 1423.73 453.222 1422.11 452.803 L 1423.93 450.759 z" fill="rgb(232,230,226)" transform="translate(0,0)"></path>
<path d="M 1298.59 1575.94 C 1301.1 1563.25 1300.86 1584.51 1300.08 1588.25 C 1299.81 1583.42 1300.92 1579.97 1298.59 1575.94 z" fill="rgb(191,183,181)" transform="translate(0,0)"></path>
<path d="M 216.333 653.899 C 219.551 651.19 223.422 648.477 226.83 645.904 C 224.01 649.456 221.356 652.974 218.219 656.266 L 216.333 653.899 z" fill="rgb(245,241,218)" transform="translate(0,0)"></path>
<path d="M 1821.78 646.721 C 1825.03 649.018 1829.36 651.737 1832.12 654.427 L 1831.23 657.333 C 1828.03 653.839 1824.88 650.301 1821.78 646.721 z" fill="rgb(191,183,181)" transform="translate(0,0)"></path>
<path d="M 723.983 716.208 C 723.532 714.303 721.826 704.354 723.433 703.674 C 724.605 704.156 725.077 706.128 725.422 707.153 C 723.632 710.335 724.288 712.488 723.983 716.208 z" fill="rgb(232,230,226)" transform="translate(0,0)"></path>
<path d="M 542.771 334.706 C 551.679 340.199 544.144 338.422 539.21 336.108 L 542.771 334.706 z" fill="rgb(232,230,226)" transform="translate(0,0)"></path>
<path d="M 279.775 987.381 C 280.701 985.748 281.661 984.172 283.376 983.358 L 283.309 983.286 C 285.55 983.489 281.276 989.879 280.936 990.485 L 279.775 987.381 z" fill="rgb(232,230,226)" transform="translate(0,0)"></path>
<path d="M 1511.82 1165.28 C 1511.51 1163.65 1510.22 1154.88 1510.74 1153.77 C 1512.01 1153.49 1512.88 1156.32 1513.25 1157.25 C 1511.97 1159.85 1512.33 1159.47 1512.09 1162.54 C 1512.01 1163.46 1511.92 1164.37 1511.82 1165.28 z" fill="rgb(232,230,226)" transform="translate(0,0)"></path>
<path d="M 1348.29 608.207 C 1349.5 610.833 1349.05 619.757 1348.48 622.717 C 1348.04 618.914 1347.86 611.92 1348.29 608.207 z" fill="rgb(4,47,92)" transform="translate(0,0)"></path>
<path d="M 1422.11 452.803 C 1421.14 452.543 1417.03 451.934 1416.65 450.588 C 1417.56 449.151 1422.68 450.509 1423.93 450.759 L 1422.11 452.803 z" fill="rgb(155,140,135)" transform="translate(0,0)"></path>
<path d="M 623.268 450.658 C 625.078 449.913 628.747 449.483 630.407 450.546 C 629.116 451.78 627.482 451.996 625.744 452.337 L 623.268 450.658 z" fill="rgb(191,183,181)" transform="translate(0,0)"></path>
<path d="M 1321.94 707.074 C 1322.47 705.727 1323.33 702.764 1324.48 701.82 C 1325.38 702.28 1325.07 707.48 1325.08 708.224 L 1321.94 707.074 z" fill="rgb(232,230,226)" transform="translate(0,0)"></path>
<path d="M 1803.66 808.353 C 1802.91 807.251 1800.21 803.972 1800.67 802.788 C 1801.82 802.735 1804.73 805.614 1805.49 806.256 L 1803.66 808.353 z" fill="rgb(191,183,181)" transform="translate(0,0)"></path>
<path d="M 579.897 421.646 L 581.599 421.989 C 582.309 422.104 582.907 422.286 583.452 422.771 C 583.527 423.079 583.538 422.93 583.422 423.217 C 582.205 424.103 579.65 424.03 578.113 424.167 C 578.702 423.323 579.297 422.482 579.897 421.646 z" fill="rgb(232,230,226)" transform="translate(0,0)"></path>
<path d="M 1469.2 421.796 C 1470.43 422.44 1470.9 422.808 1472.09 423.63 L 1470.59 424.287 L 1466.14 423.671 C 1466.72 421.87 1467.19 422.188 1469.2 421.796 z" fill="rgb(232,230,226)" transform="translate(0,0)"></path>
<path d="M 508.29 215.358 C 510.536 216.144 512.652 216.612 514.307 218.309 C 512.56 217.877 511.129 217.348 509.665 216.285 L 508.29 215.358 z" fill="rgb(4,47,92)" transform="translate(0,0)"></path>
<path d="M 295.145 579.611 L 293.428 581.628 C 254.623 626.982 184.591 684.351 123.756 689.25 C 96.6144 691.436 60.6836 681.347 38.8897 665.015 C 30.9353 659.054 32.9233 651.751 39.6931 645.683 C 72.4139 618.921 101.298 585.529 131.595 556.933 C 187.326 504.331 291.93 440.815 370.709 447.083 C 517.569 458.768 602.289 644.304 690.729 740.893 C 692.761 742.204 695.247 745.413 696.777 747.356 L 705.775 756.899 C 706.823 757.536 725.23 775.983 726.109 777.314 C 731.463 782.028 739.461 789.516 744.946 793.63 C 746.274 794.359 746.329 794.238 747.111 795.335 L 751.041 798.58 C 752.507 799.48 752.365 799.345 753.568 800.539 L 755.948 802.487 C 757.57 803.307 757.414 803.16 758.571 804.424 L 761.022 806.474 C 761.825 806.811 761.823 806.868 762.556 807.415 L 765.067 809.412 C 766.6 810.039 766.401 809.876 767.409 811.161 L 769.318 812.386 C 772.348 814.055 773.844 814.865 776.365 817.226 L 777.645 818.23 C 778.596 818.641 778.537 818.685 779.206 819.507 L 780.619 820.116 C 782.054 820.703 783.201 821.095 784.104 822.367 C 792.718 827.922 799.868 831.965 808.893 836.784 C 773.371 921.301 743.066 1007.92 718.15 1096.15 C 711.396 1119.34 705.19 1142.69 699.536 1166.17 C 694.968 1185.71 690.15 1212.95 682.689 1230.83 C 676.894 1241.63 670.327 1253.02 663.799 1263.39 C 626.036 1323.37 578.175 1387.1 511.888 1416.98 C 501.587 1421.62 484.878 1426.93 475.951 1417.99 C 474.811 1409.94 483.393 1389.98 486.618 1381.84 C 500.496 1346.82 509.785 1311.76 518.833 1275.22 C 528.242 1237.97 535.359 1200.18 540.146 1162.06 C 546.337 1114.28 548.723 1071.2 560.716 1023.66 C 573.049 974.766 589.741 929.496 611.231 883.796 C 619.051 866.336 630.966 847.594 636.558 829.62 C 609.762 860.055 601.776 936.925 555.519 946.849 C 532.22 951.848 533.27 911.719 532.294 898.253 C 530.55 905.287 529.179 912.215 526.649 918.915 C 512.585 956.154 470.956 964.737 467.693 916.15 C 466.313 895.61 469.107 876.629 476.358 857.103 C 477.089 855.164 477.247 853.387 476.019 851.783 C 473.054 853.566 465.987 876.269 462.583 881.298 C 417.435 948.02 396.829 871.421 410.531 830.635 C 412.047 826.122 415 818.497 415.257 814.35 C 411.199 814.937 404.976 831.374 402.785 835.809 C 397.219 847.076 382.886 862.382 368.93 854.9 C 363.485 848.657 360.923 835.682 362.867 827.657 C 362.012 822.93 361.363 821.941 359.389 817.769 C 356.446 824.132 357.843 840.076 360.494 846.435 C 372.157 874.414 394.821 853.003 404.715 838.019 C 398.29 889.198 418.732 946.055 466.286 882.637 C 464.048 899.898 462.108 929.835 473.894 943.5 C 496.441 969.64 519.842 939.859 529.844 920.947 C 532.89 930.587 535.82 943.38 545.528 948.156 C 562.589 956.549 578.585 939.34 588.419 928.166 C 568.134 979.597 554.76 1026.53 546.51 1081.24 C 544.573 1094.09 540.184 1138.95 537.009 1146.94 C 500.607 1238.45 384.171 1406.93 266.986 1374.38 C 319.589 1296.78 352.183 1207.26 381.302 1118.78 C 389.501 1093.87 403.954 1075.46 416.974 1052.98 C 412.665 1052.41 414.234 1050.39 411.596 1053.03 L 411.308 1053.33 L 408.964 1051.78 C 405.734 1054.53 402.155 1058.61 398.921 1061.26 C 353.324 1098.53 331.054 1062.37 349.505 1017.85 C 351.782 1012.36 356.198 1005.34 357.806 999.847 C 355.737 999.206 355.662 1000.71 354.198 1002.75 C 340.387 1022.02 308.474 1051.74 298.305 1011.35 C 286.599 964.861 308.41 914.994 332.243 875.875 C 337.293 867.586 350.912 854.939 353.372 849.948 L 352.44 849.017 C 348.517 850.56 344.508 855.221 342.023 858.291 C 316.79 889.475 299.474 926.561 293.015 966.171 C 292.312 970.485 274.874 988.638 270.553 993.513 C 217.466 1053.4 129.202 1122.63 45.083 1085.92 C 40.0848 1084.86 19.2851 1071.7 23.2905 1065.18 C 27.8571 1057.75 52.4654 1039.51 59.803 1033.45 C 136.922 969.672 194.461 887.183 250.642 805.349 C 255.657 798.045 261.323 790.422 265.175 782.472 L 265.816 781.121 C 257.679 787.944 250.519 795.82 242.71 803.013 C 235.254 809.881 227.224 816.259 219.276 822.56 C 218.648 823.169 218.794 823.088 218.094 823.487 C 216.226 824.528 217.096 823.941 215.64 825.037 C 163.34 864.449 89.7906 884.88 35.3907 837.45 C 21.8882 825.101 22.4174 812.423 38.559 803.799 C 109.306 766.001 168.336 715.067 222.295 656.047 C 241.705 634.818 263.051 616.359 284.615 596.57 C 281.832 603.25 279.678 610.174 278.182 617.254 C 270.017 656.204 281.641 701.07 327.904 665.364 C 304.903 705.801 313.665 765.981 371.195 730.018 C 364.001 746.156 352.33 783.964 356.499 800.742 C 359.809 796.877 362.315 764.898 365.187 754.606 C 370.899 734.133 380.087 725.611 388.793 708.459 L 388.34 707.957 C 376.594 721.056 353.702 746.724 331.891 735.859 C 326.128 732.989 320.563 724.838 319.641 718.191 C 316.013 692.021 325.213 674.991 338.951 653.849 C 324.164 661.806 294.389 693.503 282.15 661.757 C 271.785 634.871 284.619 604.57 295.145 579.611 z" fill="rgb(3,60,115)" transform="translate(0,0)"></path>
<path d="M 366.422 778.268 C 368.393 785.86 370.342 793.253 372.653 800.758 C 380.304 803.674 388.876 805.941 396.89 808.895 C 388.375 811.839 381.522 813.354 373.792 818.098 L 372.754 818.724 C 371.657 821.461 367.883 835.41 365.804 835.818 C 364.941 835.216 363.298 829.02 362.867 827.657 C 362.012 822.93 361.363 821.941 359.389 817.769 C 355.9 814.466 342.727 809.744 337.826 807.917 C 346.426 806.133 352.828 804.372 361.006 801.275 C 362.605 796.617 363.197 793.779 364.2 789.015 L 366.422 778.268 z" fill="rgb(245,241,218)" transform="translate(0,0)"></path>
<path d="M 429.359 1018.43 C 428.613 1023.64 426.943 1032.09 424.346 1036.6 C 422.246 1040.25 422.231 1058.73 426.016 1058.38 C 442.068 1056.91 452.798 1035.7 458.016 1022.51 C 458.349 1021.69 460.279 1016.89 461.828 1017.4 C 465.258 1023.87 444.159 1054.96 434.56 1059.17 C 417.048 1066.86 422.883 1045.93 417.192 1052.72 L 416.974 1052.98 C 412.665 1052.41 414.234 1050.39 411.596 1053.03 L 411.308 1053.33 L 408.964 1051.78 C 420.673 1037.31 421.675 1034.71 429.359 1018.43 z" fill="rgb(0,2,5)" transform="translate(0,0)"></path>
<path d="M 705.775 756.899 C 706.823 757.536 725.23 775.983 726.109 777.314 C 723.683 776.13 706.964 759.576 705.775 756.899 z" fill="rgb(4,47,92)" transform="translate(0,0)"></path>
<path d="M 690.729 740.893 C 692.761 742.204 695.247 745.413 696.777 747.356 C 694.281 745.335 692.07 743.761 690.729 740.893 z" fill="rgb(4,47,92)" transform="translate(0,0)"></path>
<path d="M 769.318 812.386 C 772.348 814.055 773.844 814.865 776.365 817.226 C 772.253 814.775 772.709 815.712 769.318 812.386 z" fill="rgb(4,47,92)" transform="translate(0,0)"></path>
<path d="M 779.206 819.507 L 780.619 820.116 C 782.054 820.703 783.201 821.095 784.104 822.367 C 781.591 821.299 781.274 821.339 779.206 819.507 z" fill="rgb(4,47,92)" transform="translate(0,0)"></path>
<path d="M 488.206 638.021 C 492.072 637.941 496.965 638.903 500.78 639.759 C 547.506 650.24 575.628 694.682 563.843 741.5 C 558.415 762.251 544.951 779.988 526.422 790.794 C 504.171 803.684 482.39 802.761 458.516 796.326 C 438.809 788.814 428.277 779.658 415.586 763.254 C 430.423 769.132 442.569 772.034 458.666 769.866 C 477.896 767.464 495.366 757.465 507.177 742.101 C 518.757 726.847 523.677 707.558 520.819 688.621 C 517.516 665.732 506.021 651.463 488.206 638.021 z" fill="rgb(232,221,188)" transform="translate(0,0)"></path>
<path d="M 599.865 1013.37 C 603.294 1013.31 609.865 1013.94 613.23 1014.56 C 631.423 1017.84 647.511 1028.35 657.82 1043.7 C 667.687 1058.3 671.142 1076.31 667.382 1093.53 C 658.608 1134.54 621.334 1153.39 581.835 1144.41 C 573.577 1141.06 570.939 1139.57 563.44 1134.89 C 582.232 1137.13 596.824 1135.59 612.704 1123.98 C 625.392 1114.85 633.78 1100.92 635.908 1085.44 C 638.146 1069.91 633.967 1054.15 624.335 1041.77 C 612.303 1026.1 597.774 1020.43 578.935 1017.8 C 587.133 1015.51 591.471 1014.33 599.865 1013.37 z" fill="rgb(232,221,188)" transform="translate(0,0)"></path>
<path d="M 389.757 549.752 C 392.207 550.45 393.998 551.195 396.248 552.46 C 409.696 559.91 419.448 572.609 423.174 587.524 C 427.296 603.504 424.71 620.475 416.014 634.501 C 398.097 663.174 357.544 669.681 330.26 651.547 C 320.013 643.712 314.381 636.729 307.236 626.215 C 329.399 640.458 353.671 646.171 377.567 631.251 C 389.515 623.773 397.967 611.818 401.035 598.061 C 405.263 578.76 399.988 565.318 389.757 549.752 z" fill="rgb(232,221,188)" transform="translate(0,0)"></path>
<path d="M 491.493 1192.64 C 471.201 1206.09 444.17 1201.73 426.964 1185.12 C 416.392 1174.9 410.559 1160.74 410.869 1146.04 C 411.466 1110.86 438.554 1094.56 471.033 1096.29 L 473.012 1096.81 C 474.079 1097.07 475.189 1097.27 476.006 1098.05 C 476.037 1098.21 476.106 1098.32 476.019 1098.46 C 475.778 1098.85 474.849 1098.94 474.625 1099 C 461.13 1103.62 450.559 1110.21 443.867 1123.52 C 438.25 1134.81 437.449 1147.89 441.648 1159.78 C 448.758 1179.32 463.346 1187.39 482.45 1191.5 C 483.552 1191.36 493.281 1190 493.25 1191.46 C 492.846 1192.01 492.069 1192.29 491.493 1192.64 z" fill="rgb(232,221,188)" transform="translate(0,0)"></path>
<path d="M 482.45 1191.5 C 483.552 1191.36 493.281 1190 493.25 1191.46 C 492.846 1192.01 492.069 1192.29 491.493 1192.64 C 487.955 1192.21 485.955 1192.3 482.45 1191.5 z" fill="rgb(232,221,188)" transform="translate(0,0)"></path>
<path d="M 471.033 1096.29 L 473.012 1096.81 C 474.079 1097.07 475.189 1097.27 476.006 1098.05 C 476.037 1098.21 476.106 1098.32 476.019 1098.46 C 475.778 1098.85 474.849 1098.94 474.625 1099 C 473.591 1098.26 471.9 1097.15 471.033 1096.29 z" fill="rgb(245,241,218)" transform="translate(0,0)"></path>
<path d="M 130.264 757.003 C 130.574 757.074 131.5 757.177 131.787 757.501 C 131.596 757.997 130.199 759.248 129.882 759.492 C 111.896 773.336 112.725 802.709 127.311 818.699 C 133.053 824.993 141.326 828.936 149.556 830.655 C 160.745 832.972 172.395 830.509 181.689 823.861 L 184.928 821.551 C 178.723 832.444 175.859 837.574 164.717 844.886 C 99.9408 879.648 58.4056 778.576 130.264 757.003 z" fill="rgb(232,221,188)" transform="translate(0,0)"></path>
<path d="M 250.12 679.228 C 266.872 682.199 277.743 693.567 283.984 709.002 C 288.36 720.042 288.141 732.373 283.376 743.251 C 271.521 770.236 244 780.076 217.679 767.261 C 206.266 760.293 204.455 757.45 197.556 746.763 C 201.817 749.161 203.934 750.701 208.64 752.445 C 247.773 766.954 282.285 721.623 257.094 688.022 C 254.954 685.167 251.386 682.407 250.12 679.228 z" fill="rgb(232,221,188)" transform="translate(0,0)"></path>
<path d="M 381.135 899.647 C 395.761 904.484 406.267 908.488 413.915 923.542 C 416.633 928.852 418.436 934.584 419.247 940.494 C 420.994 952.613 420.116 964.093 412.475 973.918 C 388.213 1005.11 353.403 1005.39 329.913 974.507 C 336.061 977.806 342.502 981.375 349.497 982.02 C 394.77 986.2 417.429 930.039 379.055 903.05 L 381.135 899.647 z" fill="rgb(232,221,188)" transform="translate(0,0)"></path>
<path d="M 223.434 904.796 C 223.928 904.916 225.016 905.113 225.549 905.415 L 225.571 905.523 C 215.639 913.988 211.788 918.854 209.3 932.017 C 202.672 967.076 241.521 993.092 271.441 974.916 C 273.356 973.753 275.142 972.365 277.13 971.152 C 271.719 978.263 267.668 984.401 260.031 989.488 L 258.73 990.378 C 230.635 1004.37 202.685 995.385 189.952 966.003 C 184.695 953.873 186.958 941.341 191.878 929.462 C 197.5 915.889 210.47 909.755 223.434 904.796 z" fill="rgb(232,221,188)" transform="translate(0,0)"></path>
<path d="M 141.521 570.775 C 142.325 570.872 143.025 570.84 143.655 571.262 C 143.922 571.934 140.342 574.76 139.42 575.732 C 135.211 580.097 131.957 585.291 129.865 590.983 C 125.371 603.298 126.455 614.748 132.344 626.387 C 138.276 638.239 148.818 647.132 161.5 650.982 C 181.616 657.285 189.191 650.772 205.027 642.498 C 197.836 650.883 197.148 651.902 187.884 658.008 C 171.663 666.307 157.875 669.165 139.985 663.219 C 115.675 655.139 100.056 624.718 110.338 600.605 C 117.09 584.77 126.219 577.493 141.521 570.775 z" fill="rgb(232,221,188)" transform="translate(0,0)"></path>
<path d="M 138.105 988.973 C 139.654 989.365 140.5 989.519 138.421 991.298 C 114.286 1011.95 129.836 1057.06 163.504 1053 C 171.422 1052.05 173.374 1050.01 179.892 1046.52 C 172.485 1056.48 169.286 1060.81 157.912 1067.23 C 104.586 1086.55 73.2792 1009.58 138.105 988.973 z" fill="rgb(232,221,188)" transform="translate(0,0)"></path>
<path d="M 671.189 840.54 C 683.591 837.907 695.022 840.402 705.641 847.391 C 717.557 855.079 725.763 867.354 728.313 881.304 C 733.597 909.585 712.216 935.918 684.494 939.868 C 673.388 941.451 669.497 938.787 659.701 935.206 C 660.647 934.5 661.581 933.778 662.501 933.039 C 712.225 931.612 730.018 861.698 671.189 840.54 z" fill="rgb(232,221,188)" transform="translate(0,0)"></path>
<path d="M 250.222 517.661 C 253.306 523.095 255.311 534.302 258.67 541.51 L 259.979 542.304 C 268.783 547.714 276.253 548.813 286.227 550.873 C 285.458 551.168 284.691 551.471 283.927 551.779 C 277.877 554.232 270.111 556.325 264.579 559.156 L 261.071 560.991 C 256.065 569.491 253.969 574.148 250.803 583.517 C 250.673 583.784 250.542 584.051 250.411 584.318 C 250.303 584.249 243.7 563.679 242.519 561.116 L 241.08 560.48 C 234.4 557.477 223.978 554.158 216.719 551.922 C 245.648 542.29 242.387 546.913 250.222 517.661 z" fill="rgb(232,221,188)" transform="translate(0,0)"></path>
<path d="M 599.261 1232.6 C 602.918 1240.37 603.072 1247.6 607.993 1257.05 C 615.515 1259.96 621.932 1262.02 629.606 1265.12 L 630.621 1265.52 C 623.262 1268.26 615.879 1270.59 608.639 1273.62 C 607.083 1276.79 599.869 1296.98 598.298 1297.01 C 596.59 1290.7 595.173 1284.21 592.457 1278.22 L 590.812 1274.67 C 581.859 1269.6 579.099 1269.31 568.994 1267.14 L 564.658 1266.24 C 589.861 1256.06 589.524 1264.9 597.24 1239.03 C 597.791 1237.14 598.373 1235.26 598.988 1233.39 L 599.261 1232.6 z" fill="rgb(245,241,218)" transform="translate(0,0)"></path>
<path d="M 354.379 1259.94 C 345.637 1258.32 358.062 1258.09 360.116 1258.25 C 401.494 1269.45 399.206 1327.54 353.855 1333.59 L 354.315 1329.92 C 363.446 1325.98 370.807 1319.73 374.986 1310.5 C 379.271 1300.79 379.389 1289.75 375.313 1279.95 C 371.164 1269.99 364.13 1263.93 354.379 1259.94 z" fill="rgb(232,221,188)" transform="translate(0,0)"></path>
<path d="M 354.379 1259.94 C 345.637 1258.32 358.062 1258.09 360.116 1258.25 L 354.379 1259.94 z" fill="rgb(245,241,218)" transform="translate(0,0)"></path>
<path d="M 553.781 848.782 C 555.842 850.911 558.591 862.204 560.263 866.435 C 567.426 869.599 573.43 871.168 580.672 873.845 C 572.52 877.057 568.173 877.977 560.629 882.723 C 558.444 887.676 556.589 893.237 554.449 898.429 C 552.869 898.997 552.532 897.474 552.145 896.012 L 551.759 894.531 C 547.638 879.099 544.854 879.322 529.044 873.796 C 535.075 871.456 541.26 869.554 547.298 867.232 C 549.49 861.094 551.865 855.017 553.781 848.782 z" fill="rgb(245,241,218)" transform="translate(0,0)"></path>
<path d="M 531.897 1325.82 C 533.804 1327.85 534.992 1333.06 536.805 1336.6 C 540.129 1343.11 548.52 1345.02 555.374 1347.18 C 539.107 1353.42 539.261 1350.05 532.443 1366.67 C 532.247 1366.92 531.288 1368.11 531.065 1367.47 C 525.549 1351.66 526.511 1354.29 509.774 1347.45 C 515.452 1344.7 520.333 1343.12 525.764 1340.24 C 528.404 1335.08 530.072 1331.39 531.897 1325.82 z" fill="rgb(232,221,188)" transform="translate(0,0)"></path>
<path d="M 449.826 506.276 C 450.796 507.423 453.686 515.769 454.712 518.052 C 460.537 522.015 461.314 522.122 467.779 525.063 L 469.493 525.853 C 464.119 528.649 460.208 530.097 455.134 533.483 C 453.353 537.899 451.858 542.168 450.162 546.585 C 444.947 529.534 445.228 531.753 429.027 526.173 C 434.319 524.139 438.906 522.718 443.553 519.319 L 445.189 518.175 C 447.551 513.344 448.378 511.55 449.826 506.276 z" fill="rgb(245,241,218)" transform="translate(0,0)"></path>
<path d="M 356.637 472.945 C 357.407 472.942 361.293 472.403 361.453 473.603 C 361.141 474.31 360.749 474.707 360.092 475.127 C 347.602 483.107 345.713 505.203 359.588 512.887 C 360.306 513.284 362.505 514.46 362.899 515.363 C 362.023 516.013 359.313 516.354 358.252 516.567 C 330.923 509.424 332.143 485.299 354.868 473.846 L 356.637 472.945 z" fill="rgb(232,221,188)" transform="translate(0,0)"></path>
<path d="M 640.307 729.539 C 649.454 737.469 633.692 739.103 660.465 748.664 C 643.027 757.348 646.809 754.356 640.393 770.801 C 636.28 751.424 637.65 758.174 620.415 749.072 C 636.319 744.103 635.835 744.771 640.307 729.539 z" fill="rgb(232,221,188)" transform="translate(0,0)"></path>
<path d="M 497.699 1013.03 C 498.326 1013.42 498.105 1013.25 498.43 1013.55 C 498.379 1012.88 495.676 1020.95 495.403 1023.49 C 493.266 1043.41 530.196 1031.2 503.972 1044.5 C 481.767 1048.76 476.517 1026.24 497.699 1013.03 z" fill="rgb(232,221,188)" transform="translate(0,0)"></path>
<path d="M 269.89 845.862 C 269.628 849.652 267.62 851.546 267.754 855.501 C 267.974 861.981 273.367 869.745 280.499 869.031 C 280.575 869.023 285.068 868.224 284.681 869.731 C 282.975 873.097 277.14 875.829 274.115 877.147 C 254.174 879.84 250.537 857.746 269.89 845.862 z" fill="rgb(232,221,188)" transform="translate(0,0)"></path>
<path d="M 535.78 583.822 C 537.505 585.592 537.252 587.141 538.064 589.502 C 540.104 595.435 547.67 597.448 552.816 599.938 C 541.323 603.58 540.534 603.647 536.072 615.215 C 533.934 613.038 533.425 609.772 532.126 606.881 L 531.329 605.139 L 529.998 604.511 C 526.374 602.769 523.476 601.73 519.825 600.173 C 530.567 594.675 531.047 595.442 535.78 583.822 z" fill="rgb(232,221,188)" transform="translate(0,0)"></path>
<path d="M 427.811 1230.98 C 428.21 1231.54 428.76 1232.29 428.885 1232.98 C 430.428 1241.56 435.287 1241.86 442.09 1244.67 C 432.7 1250.21 433.99 1248.36 428.405 1258.25 C 420.483 1249.98 427.464 1252.45 414.65 1245.31 L 413.895 1244.89 C 423.735 1240.62 423.966 1241.33 427.811 1230.98 z" fill="rgb(232,221,188)" transform="translate(0,0)"></path>
<path d="M 350.241 1330.94 C 351.979 1330.62 352.631 1330.46 354.315 1329.92 L 353.855 1333.59 C 350.657 1333.47 347.905 1333.38 344.69 1333.18 C 346.549 1332.45 348.399 1331.71 350.241 1330.94 z" fill="rgb(245,241,218)" transform="translate(0,0)"></path>
<path d="M 379.055 903.05 L 377.688 902.172 C 370.931 897.912 377.207 899.198 381.135 899.647 L 379.055 903.05 z" fill="rgb(232,221,188)" transform="translate(0,0)"></path>
<path d="M 344.69 1333.18 C 343.53 1332.84 342.148 1332.62 341.486 1331.61 L 341.547 1331.47 C 342.657 1330.78 348.829 1330.97 350.241 1330.94 C 348.399 1331.71 346.549 1332.45 344.69 1333.18 z" fill="rgb(93,127,150)" transform="translate(0,0)"></path>
<path d="M 659.701 935.206 C 659.376 934.918 657.757 933.711 657.656 933.401 C 658.64 932.746 661.08 933.035 662.501 933.039 C 661.581 933.778 660.647 934.5 659.701 935.206 z" fill="rgb(245,241,218)" transform="translate(0,0)"></path>
<path d="M 1334.81 765.407 C 1367.39 731.999 1388.8 704.024 1416.53 667.09 C 1480.79 582.032 1565.69 447.521 1685.38 446.845 C 1767.31 446.383 1868.54 509.136 1925.56 564.905 C 1953.56 592.291 1980.74 621.804 2010.71 647.56 C 2013.32 649.804 2015.55 653.963 2015.74 657.522 C 2012.63 666.444 2001.66 670.528 1993.89 674.794 C 1907.28 722.355 1805.92 642.493 1753.33 578.065 C 1760.88 597.633 1786.28 659.852 1753.78 673.687 C 1747.73 676.262 1738.57 673.327 1733.39 670.508 C 1723.86 666.533 1719.28 657.518 1713.98 654.807 L 1712.65 655.507 C 1713.14 658.783 1713.75 657.592 1714.84 659.561 C 1723.93 675.939 1730.46 696.56 1728.97 715.464 C 1727.59 733.03 1714.52 740.734 1697.88 737.276 C 1683.92 734.375 1670.49 721.287 1662.73 709.71 C 1661.73 708.182 1661.63 708.13 1659.96 707.346 L 1658.34 708.37 C 1660.72 714.298 1670.68 724.675 1673.85 730.09 C 1681.13 742.545 1692.13 785.955 1689.06 798.139 C 1690.93 800.319 1691.44 800.414 1693.91 802.065 C 1699.41 803.914 1704.87 805.882 1710.29 807.969 C 1706.89 809.719 1698.11 814.158 1694.59 814.814 C 1688.56 819.004 1690.74 818.452 1687.07 824.912 C 1688.33 830.745 1686.86 846.191 1683.91 850.098 C 1664.97 875.173 1641.18 832.196 1636.1 816.043 C 1635.37 813.726 1634.03 813.806 1632.78 813.908 C 1631.97 818.138 1638.37 831.861 1639.28 837.442 C 1643.21 861.586 1645.77 895.677 1619.74 907.961 L 1618.39 907.707 C 1600.09 904.071 1587.32 886.395 1580.71 869.677 C 1578.33 863.658 1578.12 857.177 1572.63 852.95 L 1571.97 852.969 C 1571.33 857.998 1576.33 865.855 1577.77 871.689 C 1583.64 895.616 1588.73 941.877 1557.41 950.16 C 1532.37 945.393 1523.85 926.79 1517.97 904.629 L 1516.46 904.59 C 1515.95 907.147 1516.06 908.246 1516.33 910.83 C 1517.71 924.39 1510.7 947.375 1494.02 947.614 C 1484.39 947.751 1473.84 939.569 1467.31 932.927 C 1453.54 919.055 1447.88 899.533 1439.79 882.191 C 1435.24 872.45 1430.52 862.82 1425.66 853.223 C 1422.83 847.644 1420.26 842.621 1416.85 837.356 L 1415.48 837.344 L 1416.3 836.652 L 1415.13 836.163 C 1417.83 848.948 1428.05 863.786 1433.72 876.043 C 1453.46 918.681 1470.53 960.646 1482.72 1006.09 C 1490.18 1033.59 1495.94 1061.52 1499.98 1089.73 C 1503.15 1112.52 1505.03 1135.45 1508.2 1158.49 C 1520.31 1246.58 1539.73 1329.75 1573.54 1412.2 C 1574.18 1413.36 1574.13 1413.23 1574.56 1414.46 C 1573.64 1416.9 1572.26 1420.24 1569.42 1420.88 C 1541.63 1427.16 1498.91 1397.79 1481.15 1381.43 C 1433.87 1337.89 1394.28 1283.98 1364.88 1227.21 C 1358.92 1215.69 1352.49 1180.3 1348.85 1165.26 C 1342.81 1140.75 1336.28 1116.36 1329.27 1092.11 C 1304.93 1005.56 1275.12 920.645 1240 837.881 C 1270.34 822.231 1305.7 794.239 1329.91 770.283 C 1331.05 768.442 1333.16 766.831 1334.81 765.407 z" fill="rgb(3,60,115)" transform="translate(0,0)"></path>
<path d="M 1653.1 808.05 C 1668.06 805.564 1676.97 804.996 1680.79 788.984 L 1681.84 784.483 L 1683.35 777.593 C 1685.11 784.737 1686.4 791.245 1689.06 798.139 C 1690.93 800.319 1691.44 800.414 1693.91 802.065 C 1699.41 803.914 1704.87 805.882 1710.29 807.969 C 1706.89 809.719 1698.11 814.158 1694.59 814.814 C 1688.56 819.004 1690.74 818.452 1687.07 824.912 C 1685.62 829.291 1683.98 833.648 1682.43 837.992 C 1675.71 811.834 1680.43 817.641 1653.1 808.05 z" fill="rgb(245,241,218)" transform="translate(0,0)"></path>
<path d="M 1334.81 765.407 C 1332.97 768.583 1333.21 768.69 1329.91 770.283 C 1331.05 768.442 1333.16 766.831 1334.81 765.407 z" fill="rgb(4,47,92)" transform="translate(0,0)"></path>
<path d="M 1556.37 638.226 L 1557.19 638.286 C 1557.74 640.203 1556.45 640.262 1554.11 642.635 C 1544.87 652.018 1539.47 657.737 1534.04 669.608 C 1526.28 686.817 1525.77 706.426 1532.64 724.009 C 1548.39 765.239 1592.99 779.504 1632.57 763.809 C 1619.87 781.095 1610.67 788.402 1591.27 796.326 C 1588.62 797.101 1585.95 797.806 1583.26 798.442 C 1538.76 808.618 1494.15 783.605 1484.16 738.349 C 1479.58 716.741 1483.74 694.199 1495.73 675.646 C 1510.41 653.335 1531.07 643.39 1556.37 638.226 z" fill="rgb(232,221,188)" transform="translate(0,0)"></path>
<path d="M 1479.89 1138.66 C 1446.99 1156.91 1406.94 1146.08 1388.45 1113.42 C 1379.56 1097.5 1377.46 1078.68 1382.61 1061.19 C 1387.84 1043.8 1399.9 1029.27 1416.03 1020.91 C 1434.87 1011 1450.82 1012.48 1470.24 1018.53 C 1440.16 1020.43 1414.99 1042.96 1412.87 1073.53 C 1411.91 1089.55 1417.52 1105.26 1428.38 1117.07 C 1442.21 1131.89 1458.67 1135.48 1477.95 1136.07 C 1479.22 1135.81 1483.03 1134.65 1484.12 1135.48 C 1484.18 1136.23 1480.21 1138.45 1479.89 1138.66 z" fill="rgb(232,221,188)" transform="translate(0,0)"></path>
<path d="M 1477.95 1136.07 C 1479.22 1135.81 1483.03 1134.65 1484.12 1135.48 C 1484.18 1136.23 1480.21 1138.45 1479.89 1138.66 L 1477.95 1136.07 z" fill="rgb(245,241,218)" transform="translate(0,0)"></path>
<path d="M 1658.41 549.961 L 1659.45 550.787 C 1654.92 557.031 1649.94 564.726 1648.3 572.422 C 1641.59 603.82 1661.31 633.341 1693.02 638.766 C 1713.06 642.195 1726.14 637.103 1742.55 625.687 C 1735.84 635.75 1731.02 641.328 1721.66 648.773 C 1719.61 650.148 1717.51 651.449 1715.37 652.675 C 1700.41 661.056 1683.61 664.014 1666.93 659.093 C 1651.97 654.782 1639.41 644.57 1632.13 630.807 C 1624.39 616.472 1622.82 599.601 1627.79 584.085 C 1633.18 567.047 1643.28 557.857 1658.41 549.961 z" fill="rgb(232,221,188)" transform="translate(0,0)"></path>
<path d="M 1901.57 569.883 C 1948.23 577.602 1956.38 644.135 1910.45 662.833 C 1897.35 668.141 1882.67 668.063 1869.62 662.615 C 1869.11 662.387 1868.59 662.159 1868.07 661.931 L 1866.5 661.26 C 1855.5 654.515 1852.45 651.917 1843.58 642.949 C 1854.07 648.333 1861.53 653.378 1874 652.784 C 1917.69 650.702 1938.7 597.909 1901.57 569.883 z" fill="rgb(232,221,188)" transform="translate(0,0)"></path>
<path d="M 1388.96 936.022 C 1358.57 945.573 1330.5 933.37 1321.12 901.49 C 1313.72 876.346 1332.22 846.47 1357.51 841.073 C 1362.69 839.966 1366.99 839.952 1372.35 840.033 L 1371.31 843.086 C 1336.48 856.039 1328.13 900.352 1358.72 923.321 C 1366.58 929.221 1378.44 933.296 1388.42 932.425 L 1388.96 936.022 z" fill="rgb(232,221,188)" transform="translate(0,0)"></path>
<path d="M 1449.65 1229.82 C 1451.75 1233.26 1456.22 1250.22 1457.99 1255.23 C 1467.76 1259.14 1475.01 1261.06 1485.21 1263.19 C 1477.88 1266.13 1465.94 1269.69 1459.74 1273.31 L 1458.2 1274.16 C 1455.23 1281.59 1452.53 1289.13 1450.09 1296.75 C 1447.73 1299.09 1447.38 1295.39 1447.13 1292.99 C 1444.86 1271.8 1435.13 1269.88 1416.02 1264.87 C 1424.69 1261.55 1432.96 1258.78 1441.6 1255.17 C 1444.68 1247.1 1447.13 1238.11 1449.65 1229.82 z" fill="rgb(245,241,218)" transform="translate(0,0)"></path>
<path d="M 1798.12 519.584 C 1799.98 524.126 1801.52 528.793 1802.74 533.55 C 1806.59 548.306 1818.77 548.349 1832.82 550.776 C 1823.73 554.359 1815.24 557.147 1806.24 561.147 C 1802.54 569.735 1800.88 577.652 1797.78 585.686 C 1791 557.807 1789.63 560.151 1763.16 551.782 C 1795.65 541.606 1787.69 551.261 1798.12 519.584 z" fill="rgb(232,221,188)" transform="translate(0,0)"></path>
<path d="M 1495.21 848.645 C 1498.47 852.977 1498.35 859.929 1501.08 864.467 C 1504.51 870.178 1514.92 871.641 1521.06 873.612 C 1515.17 876.413 1509.12 878.624 1503.62 881.613 C 1499.32 889.195 1499.04 891.078 1496.03 899.269 C 1493.34 893.324 1492.05 887.745 1490.34 881.467 C 1482.23 877.618 1477.95 877.228 1470.23 874.125 C 1476.85 871.374 1483.09 869.334 1489.67 866.795 C 1491.78 860.601 1493.15 854.752 1495.21 848.645 z" fill="rgb(245,241,218)" transform="translate(0,0)"></path>
<path d="M 1518.11 1324.59 C 1518.86 1325.51 1519.59 1326.31 1519.83 1327.47 C 1522.95 1342.65 1524.99 1342.01 1539.41 1346.55 C 1532.57 1350.25 1524.6 1351.73 1521.93 1359.5 C 1521.4 1361.06 1520.17 1364.3 1518.95 1365.51 L 1517.95 1366.5 C 1515.65 1362.74 1514.22 1359.05 1512.14 1355.08 C 1504.97 1350.44 1503.47 1350.5 1496.24 1347.24 C 1516.39 1341.62 1510.41 1342.45 1518.11 1324.59 z" fill="rgb(245,241,218)" transform="translate(0,0)"></path>
<path d="M 1684.81 472.869 C 1711.56 475.97 1721.65 500.977 1697.86 514.507 C 1696.2 514.893 1686.66 517.651 1685.91 515.364 C 1686.8 513.804 1691.35 511.605 1693.16 509.078 C 1696.83 503.946 1698.71 498.261 1697.87 492.01 C 1696.47 481.617 1692.51 478.778 1684.81 472.869 z" fill="rgb(232,221,188)" transform="translate(0,0)"></path>
<path d="M 1599 505.576 C 1601.51 509.196 1603.33 515.412 1605.05 519.865 C 1610.03 522.052 1613.78 523.159 1618.81 525.012 C 1612.45 528.265 1609.9 529.169 1604.06 533.38 C 1602.8 536.327 1601.15 543.295 1598.78 544.775 C 1594.17 528.907 1592.65 531.933 1578.62 525.125 C 1583.78 523.629 1587.9 522.669 1592.43 519.677 L 1593.98 518.683 C 1595.94 514.089 1597.43 510.332 1599 505.576 z" fill="rgb(245,241,218)" transform="translate(0,0)"></path>
<path d="M 1408.44 729.447 C 1417.7 737.189 1403.82 741.729 1429.15 749.002 C 1413.41 757.1 1414.8 753.17 1409.7 770.337 C 1402.11 753.341 1408.97 756.424 1388.09 750.457 C 1405.27 744.712 1403.67 745.525 1408.44 729.447 z" fill="rgb(232,221,188)" transform="translate(0,0)"></path>
<path d="M 1513.36 583.694 C 1514.81 585.778 1517.09 591.448 1519 594.813 L 1519.79 595.242 C 1529.15 600.446 1529.74 598.423 1521.8 602.697 L 1519.18 604.131 C 1516.77 608.752 1515.39 612.393 1513.45 617.172 L 1512.9 615.81 C 1508.58 604.851 1508.17 604.688 1497.65 600.42 C 1508.1 594.903 1508.8 595.239 1513.36 583.694 z" fill="rgb(232,221,188)" transform="translate(0,0)"></path>
<path d="M 1372.35 840.033 C 1373.26 840.055 1376.24 839.751 1376.61 840.956 C 1376.03 841.932 1372.41 842.724 1371.31 843.086 L 1372.35 840.033 z" fill="rgb(245,241,218)" transform="translate(0,0)"></path>
<path d="M 1388.42 932.425 L 1390.19 932.507 C 1394.19 933.391 1392.65 933.57 1388.96 936.022 L 1388.42 932.425 z" fill="rgb(232,221,188)" transform="translate(0,0)"></path>
<path d="M 1763.84 596.074 C 1839.27 666.317 1905.88 746.895 1997.72 796.31 C 2013.85 804.986 2038.32 817.495 2016.46 836.447 C 1951.78 892.54 1866.92 856.767 1811.04 806.987 C 1802.69 799.548 1791.19 788.222 1782.99 782.635 C 1788.95 792.867 1796.25 802.77 1802.9 812.361 C 1861.54 896.891 1921.62 982.184 2003.97 1045.58 C 2024.11 1061.09 2036.45 1066.7 2009.25 1083.87 C 2008.69 1084.32 2008.52 1084.34 2007.89 1084.65 C 1988.57 1092.88 1976.84 1096.53 1955.01 1096.38 C 1891.12 1095.93 1821.11 1042 1780.16 995.634 C 1773.56 988.16 1761.83 974.699 1757.38 966.108 C 1754.95 961.414 1752.37 944.274 1749.9 937.401 C 1739.35 908.088 1724.28 878.525 1703.66 854.992 C 1701.83 852.899 1698.97 850.664 1696.17 850.674 C 1697.79 854.74 1705.8 861.844 1709.06 866.306 C 1736.74 904.466 1759.46 952.351 1753.54 1000.71 C 1751.98 1013.37 1744.31 1035.06 1727.72 1030.61 C 1715.18 1027.24 1702.12 1015.03 1695.33 1004.09 C 1694.02 1001.98 1693.84 1001.33 1691.99 999.321 L 1691.31 1000.04 C 1696.2 1012.64 1702.71 1025.94 1703.99 1039.28 C 1705.5 1055.08 1705.52 1075.57 1684.59 1075.89 C 1665.04 1076.19 1652.93 1064.28 1640.03 1051.73 C 1635.75 1053.41 1636.55 1049.45 1633.2 1054.48 C 1640.86 1072.18 1658.21 1091.57 1664.11 1109 C 1695.57 1201.98 1726.24 1292.89 1782.18 1374.91 C 1752.87 1380.36 1727.3 1378.91 1699.74 1366.51 C 1624.48 1332.65 1567.12 1257.76 1530.37 1185.79 C 1525.78 1176.79 1510.87 1147.98 1509.23 1139.41 C 1505.5 1119.88 1504 1095.36 1500.76 1074.74 C 1493.01 1025.17 1479.52 976.669 1460.56 930.22 C 1484.21 955.32 1509.85 962.079 1519.27 920.56 C 1528.76 940.789 1554.67 969.352 1575.37 942.216 C 1587.02 926.927 1586.38 901.142 1583.52 882.885 C 1604.98 914.503 1633.03 926.307 1643.58 876.465 C 1646.16 864.284 1644.35 849.359 1642.59 837.088 C 1648.58 846.5 1656.05 857.964 1667.44 860.77 C 1689.27 866.148 1691.64 828.051 1694.59 814.814 C 1698.11 814.158 1706.89 809.719 1710.29 807.969 C 1704.87 805.882 1699.41 803.914 1693.91 802.065 C 1695.32 786.983 1683.66 744.315 1677.86 730.486 C 1687.91 737.078 1698.6 743.357 1710.93 740.525 C 1745.27 732.63 1729.6 686.889 1722.02 666.338 C 1729.9 671.878 1742.79 680.176 1752.71 677.164 C 1784.09 667.626 1771.39 617.272 1763.84 596.074 z" fill="rgb(3,60,115)" transform="translate(0,0)"></path>
<path d="M 1633.2 1054.48 C 1632.58 1053.58 1630.17 1049.52 1629.48 1049.29 C 1628.57 1049.77 1627.23 1064.95 1614.73 1059.41 C 1600.91 1053.29 1593.5 1036.71 1587.56 1023.67 L 1586.83 1022.03 C 1586.59 1021.49 1585.03 1016.04 1586.24 1017.44 C 1593.89 1026.29 1604.96 1060.14 1621.01 1057.22 C 1632.96 1055.05 1620.7 1031.06 1618.62 1025.41 L 1616.21 1018.89 C 1623.23 1027.32 1625.03 1033.26 1630.06 1039.45 L 1640.03 1051.73 C 1635.75 1053.41 1636.55 1049.45 1633.2 1054.48 z" fill="rgb(0,2,5)" transform="translate(0,0)"></path>
<path d="M 1581.57 1095.32 C 1598.1 1094.55 1615.47 1101.79 1626.05 1114.56 C 1635.03 1125.43 1639.19 1139.49 1637.56 1153.49 C 1633.85 1184.86 1606.14 1203.67 1575.53 1200.21 C 1565.27 1197.69 1561.57 1196.05 1552.65 1190.92 C 1555.52 1191.05 1558.4 1191.11 1561.27 1191.11 C 1607.6 1190.85 1626.27 1129.91 1586.64 1104.59 C 1582.68 1102.06 1577.89 1101.15 1574.29 1097.9 C 1576.55 1095.67 1577.83 1096.1 1581.57 1095.32 z" fill="rgb(232,221,188)" transform="translate(0,0)"></path>
<path d="M 1913.94 755.651 C 1942.54 763.255 1959.8 787.769 1952.74 816.985 C 1945.35 847.558 1908.68 860.24 1883.06 845.405 C 1870.93 836.681 1867.55 831.219 1860.47 818.811 C 1869.25 826.473 1876.51 832.803 1889 831.922 C 1931.7 828.909 1944.36 783.369 1913.94 755.651 z" fill="rgb(232,221,188)" transform="translate(0,0)"></path>
<path d="M 1801.03 678.165 C 1803.18 680.336 1798.18 682.909 1795.79 685.433 C 1790.98 690.508 1787.53 696.718 1785.77 703.485 C 1778.33 731.676 1806.7 760.711 1834.75 754.273 C 1842.43 752.511 1844.26 751.248 1850.94 747.385 C 1843.54 757.368 1841.05 762.001 1829.87 768.202 C 1827.86 768.986 1825.69 769.916 1823.65 770.557 C 1812.09 774.164 1799.57 772.985 1788.9 767.285 C 1777.44 761.254 1768.87 750.882 1765.11 738.488 C 1756.78 710.05 1773.36 685.762 1801.03 678.165 z" fill="rgb(232,221,188)" transform="translate(0,0)"></path>
<path d="M 1822.74 904.561 C 1837.69 907.232 1850.1 914.427 1856.92 928.533 C 1862.61 940.247 1863.25 953.785 1858.69 965.985 C 1848.22 994.133 1822.26 1002.92 1795.32 992.156 C 1785.85 986.441 1780.43 982.637 1773.46 973.682 C 1819.58 998.562 1863.74 942.836 1822.74 904.561 z" fill="rgb(232,221,188)" transform="translate(0,0)"></path>
<path d="M 1671.42 899.085 C 1672.19 899.046 1674.53 898.589 1675.06 899.486 C 1674.71 900.001 1673.58 900.904 1673.09 901.207 C 1630.06 927.934 1658.05 989.586 1705.74 981.277 C 1713.01 980.01 1716.12 977.866 1722.47 974.633 C 1714.17 983.553 1713.5 984.465 1703.65 991.276 C 1700.63 992.704 1697.77 994.195 1694.5 994.993 C 1627.8 1011.26 1602.74 914.637 1671.42 899.085 z" fill="rgb(232,221,188)" transform="translate(0,0)"></path>
<path d="M 1908.97 989.011 C 1973.12 1007.38 1941.46 1086.13 1891.52 1067.42 C 1878.8 1059.62 1877.4 1058.37 1868.59 1046.48 C 1883.51 1055.77 1896.3 1056.71 1909.96 1043.92 C 1917.29 1037.08 1921.47 1027.52 1921.53 1017.5 C 1921.65 1004.09 1917.23 998.391 1908.97 989.011 z" fill="rgb(232,221,188)" transform="translate(0,0)"></path>
<path d="M 1688.04 1259.09 C 1689.21 1258.98 1694.54 1257.98 1695.26 1259.37 C 1694.74 1260.3 1692.47 1261.01 1691.46 1261.38 C 1666.73 1275.05 1662.2 1306.76 1685.42 1324.57 C 1689.47 1327.68 1693.18 1328.71 1697.81 1330.51 L 1702.94 1331.18 L 1703.52 1333.17 C 1697.29 1332.98 1693.77 1333.51 1687.63 1332.13 C 1652.24 1324.1 1647.58 1270.03 1686.09 1259.67 L 1688.04 1259.09 z" fill="rgb(232,221,188)" transform="translate(0,0)"></path>
<path d="M 1697.81 1330.51 L 1702.94 1331.18 L 1703.52 1333.17 C 1697.29 1332.98 1693.77 1333.51 1687.63 1332.13 C 1691.64 1331.74 1694.54 1332.17 1697.81 1330.51 z" fill="rgb(245,241,218)" transform="translate(0,0)"></path>
<path d="M 1688.04 1259.09 C 1689.21 1258.98 1694.54 1257.98 1695.26 1259.37 C 1694.74 1260.3 1692.47 1261.01 1691.46 1261.38 L 1688.04 1259.09 z" fill="rgb(232,221,188)" transform="translate(0,0)"></path>
<path d="M 1550.27 1012.45 C 1569.68 1020.37 1570.81 1046.76 1544.65 1045.01 L 1544.27 1044.85 C 1541.67 1043.71 1530.45 1035.84 1538.37 1036.57 C 1541.33 1036.82 1544.3 1036.29 1546.99 1035.05 C 1557.61 1030.29 1554.67 1020.26 1550.27 1012.45 z" fill="rgb(232,221,188)" transform="translate(0,0)"></path>
<path d="M 1778.25 846.482 C 1785.34 850.469 1791.39 856.864 1791.05 865.503 C 1790.94 869.184 1789.3 872.651 1786.52 875.069 C 1782.48 878.519 1778.26 878.126 1773.41 877.858 C 1768.62 875.613 1766.45 874.745 1762.4 871.287 L 1760.93 870.064 C 1776.98 867.558 1785.82 864.81 1778.25 846.482 z" fill="rgb(232,221,188)" transform="translate(0,0)"></path>
<path d="M 1619.28 1229.66 C 1621.45 1232.11 1622.58 1236.08 1624.35 1239.13 L 1625.14 1240.54 C 1628.42 1242.28 1630.92 1243.41 1634.37 1244.81 C 1624.58 1249.83 1624.38 1248.39 1620.01 1258.92 C 1617.71 1257.05 1617.09 1253.69 1615.86 1250.92 L 1615.46 1250.04 C 1611.69 1248.24 1608.04 1246.68 1604.28 1244.93 C 1607.47 1243.53 1610.13 1242.49 1613.27 1240.88 L 1614.89 1240.06 C 1616.35 1237.15 1617.6 1234.69 1618.62 1231.57 L 1619.28 1229.66 z" fill="rgb(232,221,188)" transform="translate(0,0)"></path>
<path d="M 1702.94 1331.18 C 1706.94 1331.27 1708.2 1331.87 1703.52 1333.17 L 1702.94 1331.18 z" fill="rgb(153,155,165)" transform="translate(0,0)"></path>
<path d="M 1757.3 994.422 L 1757.24 992.644 C 1757.13 989.61 1756.39 978.034 1757.99 976.315 L 1759.23 979.146 C 1792.19 1045.01 1822.68 1113.06 1864.34 1174.02 C 1877.02 1192.57 1890.93 1210.28 1904.48 1228.2 C 1907.23 1231.84 1910.49 1235.73 1912.93 1239.53 C 1900.47 1241.39 1888 1243.18 1875.36 1242.78 C 1836.46 1241.53 1792.87 1217.8 1762.3 1195.13 C 1715.91 1160.71 1664.21 1109.04 1638.48 1057.39 L 1636.49 1054.26 L 1637.28 1053.86 L 1640.27 1056.56 C 1685.79 1100.91 1722.52 1076.89 1701.8 1017.24 C 1733.83 1047.66 1752.22 1034.4 1757.3 994.422 z" fill="rgb(3,60,115)" transform="translate(0,0)"></path>
<path d="M 1747.52 1065.1 C 1803.9 1067.63 1804.12 1156.13 1740.05 1151.72 C 1737.15 1151.21 1717.36 1145.01 1725.85 1144.35 C 1729.94 1144.04 1730.49 1146.59 1738.45 1144.69 C 1760.57 1139.84 1778.26 1117.21 1771.59 1094.22 C 1766.61 1077.04 1761.9 1073.31 1747.52 1065.1 z" fill="rgb(232,221,188)" transform="translate(0,0)"></path>
<path d="M 1828.37 1171.65 C 1828.87 1172.12 1829.7 1172.78 1829.84 1173.51 C 1832.37 1186.72 1838.54 1187.62 1850.98 1190.97 C 1832.98 1197.77 1834.96 1194.95 1829.43 1212.19 C 1827.11 1208.17 1824.95 1204.1 1822.81 1199.98 C 1817.39 1196.85 1812.86 1194.72 1807.01 1192.44 C 1809.32 1191.55 1811.61 1190.63 1813.9 1189.67 C 1821.76 1186.32 1823.88 1182.99 1827.06 1175.01 L 1828.37 1171.65 z" fill="rgb(232,221,188)" transform="translate(0,0)"></path>
<path d="M 291.885 972.47 C 290.394 1010.72 296.696 1057.12 344.231 1019.93 C 326.639 1085.44 369.74 1096.6 411.308 1053.33 L 411.596 1053.03 C 401.708 1090.26 331.773 1159.29 301.149 1184.79 C 299.887 1186.45 299.001 1186.88 297.227 1188.1 L 296.317 1188.73 C 294.167 1189.62 287.357 1194.83 285.03 1196.48 C 240.278 1228.34 192.229 1251.66 135.675 1239.19 C 197.403 1165.86 253.281 1060.81 291.885 972.47 z" fill="rgb(3,60,115)" transform="translate(0,0)"></path>
<path d="M 296.317 1188.73 C 298.07 1186.87 298.709 1185.52 301.149 1184.79 C 299.887 1186.45 299.001 1186.88 297.227 1188.1 L 296.317 1188.73 z" fill="rgb(4,47,92)" transform="translate(0,0)"></path>
<path d="M 293.545 1065.35 C 295.385 1065.19 301.841 1064.51 303.445 1065.43 L 303.532 1065.59 C 303.15 1066.61 301.165 1066.82 300.312 1067.02 C 262.881 1083.01 270.149 1137.74 308.993 1145 C 313.771 1145.89 321.056 1145.01 326.054 1144.71 C 320.627 1147.61 315.268 1150.92 308.992 1151.76 C 284.39 1155.04 265.246 1141.27 261.01 1116.5 C 258.055 1099.22 263.658 1084.77 277.28 1073.58 C 282.765 1069.07 287.158 1067.79 293.545 1065.35 z" fill="rgb(232,221,188)" transform="translate(0,0)"></path>
<path d="M 293.545 1065.35 C 295.385 1065.19 301.841 1064.51 303.445 1065.43 L 303.532 1065.59 C 303.15 1066.61 301.165 1066.82 300.312 1067.02 C 298.065 1066.43 295.809 1065.88 293.545 1065.35 z" fill="rgb(245,241,218)" transform="translate(0,0)"></path>
<path d="M 219.53 1170.78 C 220.187 1171.45 220.763 1171.98 220.883 1172.98 C 222.404 1185.58 231.437 1188.36 241.81 1192.21 C 235.743 1194.92 231.679 1195.94 225.436 1199.1 C 223.396 1203.09 221.652 1207.23 220.218 1211.48 C 214.397 1208.31 224.017 1198.99 197.574 1192.21 C 204.577 1189.81 206.753 1189.03 213.345 1185.73 C 216.465 1179.68 217.328 1177.16 219.53 1170.78 z" fill="rgb(232,221,188)" transform="translate(0,0)"></path>
<path d="M 810.284 1677.55 C 826.61 1674.45 873.855 1666.59 889.788 1668.11 C 908.507 1671.09 922.065 1674.71 934.447 1691.24 C 944.012 1704.05 947.978 1720.19 945.441 1735.97 C 943.989 1744.47 941.409 1749.68 937.386 1756.98 C 932.553 1762.22 924.942 1770.95 919.687 1775.21 C 891.559 1807.15 780.224 1901.82 739.804 1907.36 C 733.46 1908.23 727.267 1907.57 722.086 1903.53 C 710.666 1894.61 708.218 1875.89 706.78 1862.5 C 683.059 1876.51 628.272 1900.43 625.355 1852.21 C 624.788 1842.83 626.896 1834.26 628.845 1825.12 C 589.736 1831.27 550.237 1826.95 579.48 1775.43 C 598.579 1741.77 638.367 1725.06 673.574 1713.12 C 702.034 1703.66 730.888 1695.42 760.054 1688.43 C 775.201 1684.86 790.459 1682.24 805.739 1678.56 L 806.39 1677.37 L 804.602 1672.08 L 805.246 1671.82 C 807.59 1672.84 808.509 1675.08 810.284 1677.55 z" fill="rgb(3,60,115)" transform="translate(0,0)"></path>
<path d="M 782.445 1883.69 C 806.442 1825.83 883.005 1776.9 937.486 1749.82 L 937.386 1756.98 C 932.553 1762.22 924.942 1770.95 919.687 1775.21 C 912.355 1776.82 884.711 1805.57 876.743 1812.56 C 855.301 1831.39 779.125 1894.75 755.018 1900.35 C 754.972 1900.41 779.713 1885.65 782.445 1883.69 z" fill="rgb(1,25,54)" transform="translate(0,0)"></path>
<path d="M 810.284 1677.55 C 826.61 1674.45 873.855 1666.59 889.788 1668.11 C 908.507 1671.09 922.065 1674.71 934.447 1691.24 C 944.012 1704.05 947.978 1720.19 945.441 1735.97 C 943.989 1744.47 941.409 1749.68 937.386 1756.98 L 937.486 1749.82 C 944.518 1736.77 945.646 1725.11 941.252 1710.61 C 936.907 1696.17 926.83 1684.13 913.371 1677.32 C 889.654 1665.51 818.915 1677.09 792.013 1684.27 C 723.227 1702.62 616.923 1715.23 578.65 1782.66 C 571.767 1794.81 570.164 1805.93 577.173 1817.58 C 590.131 1825.45 609.449 1827.53 623.905 1822.79 C 626.734 1811.79 633.072 1805.18 641.218 1797.4 C 649.566 1789.02 673.441 1768.89 685.093 1766.89 L 685.333 1767.78 C 658.724 1783.99 637.57 1802.82 629.742 1834.49 C 626.012 1849.57 627.736 1874.35 646.535 1877.88 C 659.513 1880.24 672.929 1874.66 684.857 1870.25 C 687.521 1868.82 692.58 1867.26 693.148 1864.06 C 695.019 1853.52 702.815 1841.32 711.904 1835.55 C 718.685 1822.32 731.295 1804.03 745.725 1798.68 L 746.475 1799.45 C 744.183 1802.59 735.708 1809.06 731.989 1812.02 C 703.804 1834.45 697.253 1925.43 755.018 1900.35 C 779.125 1894.75 855.301 1831.39 876.743 1812.56 C 884.711 1805.57 912.355 1776.82 919.687 1775.21 C 891.559 1807.15 780.224 1901.82 739.804 1907.36 C 733.46 1908.23 727.267 1907.57 722.086 1903.53 C 710.666 1894.61 708.218 1875.89 706.78 1862.5 C 683.059 1876.51 628.272 1900.43 625.355 1852.21 C 624.788 1842.83 626.896 1834.26 628.845 1825.12 C 589.736 1831.27 550.237 1826.95 579.48 1775.43 C 598.579 1741.77 638.367 1725.06 673.574 1713.12 C 702.034 1703.66 730.888 1695.42 760.054 1688.43 C 775.201 1684.86 790.459 1682.24 805.739 1678.56 L 806.39 1677.37 L 804.602 1672.08 L 805.246 1671.82 C 807.59 1672.84 808.509 1675.08 810.284 1677.55 z" fill="rgb(6,13,18)" transform="translate(0,0)"></path>
<path d="M 684.857 1870.25 C 687.521 1868.82 692.58 1867.26 693.148 1864.06 C 695.019 1853.52 702.815 1841.32 711.904 1835.55 L 711.671 1836.42 C 710.796 1839.77 707.427 1859.63 705.424 1860.82 C 699.139 1864.55 692.099 1868.99 684.857 1870.25 z" fill="rgb(1,25,54)" transform="translate(0,0)"></path>
<path d="M 641.218 1797.4 C 639.154 1802.54 638.916 1805.37 635.784 1810.34 C 629.81 1819.83 634.289 1819.82 623.905 1822.79 C 626.734 1811.79 633.072 1805.18 641.218 1797.4 z" fill="rgb(1,25,54)" transform="translate(0,0)"></path>
<path d="M 863.604 1689.55 C 909.793 1694.31 908.924 1757.96 871 1768.02 C 859.953 1770.88 848.223 1769.27 838.357 1763.53 C 828.347 1756.4 826.015 1752.06 820.42 1741.29 C 824.629 1744.29 827.628 1746.64 832.479 1749.05 C 855.163 1760.38 881.234 1741.85 879.41 1717 C 878.447 1703.88 873.159 1697.68 863.604 1689.55 z" fill="rgb(245,241,218)" transform="translate(0,0)"></path>
<path d="M 1159.2 1668.54 C 1177.44 1668.78 1194.78 1671.34 1212.8 1673.43 C 1217.94 1674.02 1238.44 1677.74 1241.94 1677.23 L 1242.52 1678.05 L 1243.4 1678.33 C 1254 1681.65 1272.74 1684.82 1284.42 1687.54 C 1303.91 1692.14 1323.27 1697.26 1342.49 1702.88 C 1388.78 1716.17 1445.61 1733.34 1470.61 1778.27 C 1496.4 1824.6 1457.37 1834.38 1419.64 1824.83 C 1423.99 1843.3 1430.34 1873.71 1404.81 1879.86 C 1383.12 1885.08 1361.74 1870.66 1342.11 1863.9 C 1340.52 1878.62 1338.32 1894.25 1325.59 1904.13 C 1324.41 1905.03 1323.21 1905.89 1321.98 1906.71 C 1297.16 1909.93 1268.32 1890.88 1249.12 1876.13 C 1226.5 1864.85 1124.1 1776.92 1110.3 1755.05 C 1106.41 1748.51 1103.94 1741.22 1103.03 1733.67 C 1101.19 1717.38 1106.08 1701.05 1116.56 1688.45 C 1128.28 1674.24 1141.79 1669.95 1159.2 1668.54 z" fill="rgb(3,60,115)" transform="translate(0,0)"></path>
<path d="M 1112.18 1751.09 C 1159.88 1773.02 1243.56 1825.58 1262.5 1875.68 C 1263.39 1878.11 1264.19 1880.56 1264.89 1883.04 C 1272.03 1888.12 1288.87 1896.51 1292.21 1899.22 C 1278.23 1896.1 1256.89 1875.47 1249.12 1876.13 C 1226.5 1864.85 1124.1 1776.92 1110.3 1755.05 L 1112.18 1751.09 z" fill="rgb(1,25,54)" transform="translate(0,0)"></path>
<path d="M 1159.2 1668.54 C 1177.44 1668.78 1194.78 1671.34 1212.8 1673.43 C 1217.94 1674.02 1238.44 1677.74 1241.94 1677.23 L 1242.52 1678.05 L 1243.4 1678.33 C 1254 1681.65 1272.74 1684.82 1284.42 1687.54 C 1303.91 1692.14 1323.27 1697.26 1342.49 1702.88 C 1388.78 1716.17 1445.61 1733.34 1470.61 1778.27 C 1496.4 1824.6 1457.37 1834.38 1419.64 1824.83 C 1423.99 1843.3 1430.34 1873.71 1404.81 1879.86 C 1383.12 1885.08 1361.74 1870.66 1342.11 1863.9 C 1340.52 1878.62 1338.32 1894.25 1325.59 1904.13 C 1324.41 1905.03 1323.21 1905.89 1321.98 1906.71 C 1297.16 1909.93 1268.32 1890.88 1249.12 1876.13 C 1256.89 1875.47 1278.23 1896.1 1292.21 1899.22 C 1305.05 1904.48 1321.69 1909.14 1330.19 1895.46 C 1348.21 1866.44 1334.76 1822.69 1307.13 1804.22 C 1304.51 1802.47 1301.71 1800.2 1301.34 1797.3 C 1314 1798.89 1332.3 1827.5 1338.52 1838.21 C 1346.49 1845.51 1352.35 1852.8 1355.86 1863.15 C 1355.56 1864.26 1355.83 1864.42 1356.15 1865.76 C 1375.62 1878.38 1418.7 1889.91 1420.89 1854.4 C 1422.66 1825.65 1404.82 1798.7 1383.25 1781.17 C 1378.88 1777.62 1366.67 1770.45 1364.17 1767.47 L 1365.02 1766.25 C 1373.73 1767.96 1399.8 1790.08 1406.23 1797.12 C 1414.25 1802.62 1424.44 1812.77 1424.7 1823 C 1457.62 1827.9 1491.98 1823.72 1469.32 1780.84 C 1448.72 1741.84 1398.98 1723.03 1359.13 1710.76 C 1303.95 1693.77 1246.27 1679.46 1188.63 1673.88 C 1177.3 1672.8 1160.59 1670.99 1149.67 1672.46 C 1144.09 1673.22 1138.71 1675 1133.78 1677.72 C 1108.5 1691.47 1098.11 1725.86 1112.18 1751.09 L 1110.3 1755.05 C 1106.41 1748.51 1103.94 1741.22 1103.03 1733.67 C 1101.19 1717.38 1106.08 1701.05 1116.56 1688.45 C 1128.28 1674.24 1141.79 1669.95 1159.2 1668.54 z" fill="rgb(6,13,18)" transform="translate(0,0)"></path>
<path d="M 1338.52 1838.21 C 1346.49 1845.51 1352.35 1852.8 1355.86 1863.15 C 1354.22 1864.92 1353.3 1865.1 1351.14 1863.81 C 1345.16 1860.4 1342.91 1865.06 1341.74 1857.04 C 1340.86 1851.06 1339.33 1844.37 1338.52 1838.21 z" fill="rgb(1,25,54)" transform="translate(0,0)"></path>
<path d="M 1406.23 1797.12 C 1414.25 1802.62 1424.44 1812.77 1424.7 1823 C 1424.36 1822.91 1420.99 1822.11 1421.04 1822.13 C 1416 1819.63 1407.42 1802.02 1406.23 1797.12 z" fill="rgb(1,25,54)" transform="translate(0,0)"></path>
<path d="M 1180.31 1690.01 C 1181.18 1690.06 1182.57 1689.81 1183.15 1690.63 C 1182.93 1692.33 1167.1 1703.3 1170.24 1722 C 1174.18 1745.46 1192.74 1758.23 1215.65 1749.58 C 1219.59 1748.09 1224.28 1743.47 1227.59 1740.93 C 1222.61 1751.16 1220.85 1755.39 1212.05 1762.9 C 1209.11 1764.5 1205.55 1766.7 1202.41 1767.73 C 1150.98 1784.57 1124.18 1706.47 1180.31 1690.01 z" fill="rgb(245,241,218)" transform="translate(0,0)"></path>
<metadata><recraft-signature>{"signed_by": "recraft", "signature_b64": "9VNn72ye/1Y0tC5ax/Bo06+PWiU4YIvnREODmXlmBHZNIJc5FbLS3TiqIS6ya1Bqb/i2U302biMCQV4lcM73Aw==", "signing_algo": "Ed25519", "generation_timestamp": 1778553545, "identifier": "e386e650-365a-4a1f-b070-5053f4adf635"}</recraft-signature></metadata></svg>