<svg xmlns="http://www.w3.org/2000/svg" height="1024" preserveAspectRatio="none" style="display: block;" version="1.1" viewBox="0 0 2048 2048" width="1024">
<defs>
	<linearGradient gradientUnits="userSpaceOnUse" id="Gradient1" x1="1322.55" x2="1352.11" y1="69.6005" y2="62.9263">
		<stop class="stop0" offset="0" stop-color="rgb(184,182,182)" stop-opacity="1"></stop>
		<stop class="stop1" offset="1" stop-color="rgb(239,238,239)" stop-opacity="1"></stop>
	</linearGradient>
	<linearGradient gradientUnits="userSpaceOnUse" id="Gradient2" x1="342.074" x2="220.735" y1="412.083" y2="560.614">
		<stop class="stop0" offset="0" stop-color="rgb(197,196,196)" stop-opacity="1"></stop>
		<stop class="stop1" offset="1" stop-color="rgb(248,248,248)" stop-opacity="1"></stop>
	</linearGradient>
	<linearGradient gradientUnits="userSpaceOnUse" id="Gradient3" x1="312.358" x2="315.023" y1="851.871" y2="845.17">
		<stop class="stop0" offset="0" stop-color="rgb(13,9,6)" stop-opacity="1"></stop>
		<stop class="stop1" offset="1" stop-color="rgb(30,15,16)" stop-opacity="1"></stop>
	</linearGradient>
</defs>

<path d="M 1171.67 301.751 C 1172.86 294.421 1173.55 290.611 1180.17 286.5 C 1192.71 278.758 1206.47 273.879 1219.37 266.498 C 1266.32 239.607 1313.02 199.594 1323.51 143.795 C 1328.64 116.512 1325.87 85.0139 1314.38 59.6651 C 1310.81 51.7942 1306.9 40.4981 1315.07 34.412 C 1321.28 33.217 1327.67 36.2107 1332.32 39.9268 C 1430.19 118.095 1462.23 252.108 1382.74 355.371 C 1356.34 389.673 1340.86 407.865 1307.87 435.552 C 1333.29 501.672 1337.45 539.013 1324.23 608.757 C 1365.43 635.757 1382.87 664.922 1387.39 714.54 C 1412.27 668.687 1425.59 619.859 1438.17 569.513 C 1443.81 546.93 1451.13 519.513 1455.52 496.657 C 1500.97 477.058 1548.48 454.041 1593.76 433.18 L 1804.51 337.345 C 1844.17 319.418 1894.33 295.27 1934.31 279.686 C 1925.02 256.568 1927.82 231.018 1953.84 220.97 C 1963.87 217.041 1975.1 217.554 1984.74 222.38 C 2024.17 241.951 2008.24 311.068 1950.71 294.826 C 1928.32 347.871 1905.47 400.724 1882.18 453.38 C 1872.63 475.214 1834.06 563.99 1820.89 579.456 C 1843.22 645.313 1871.56 711.763 1895.29 777.382 C 1920.37 740.484 1966.03 778.02 1940.69 807.981 C 1935.76 813.92 1928.62 817.584 1920.92 818.122 C 1904.39 819.199 1896.21 805.554 1892.83 791.377 C 1872.84 798.241 1851.2 807.808 1831.29 815.591 L 1704.26 864.906 C 1678.98 874.751 1653.64 884.459 1628.25 894.03 C 1615.34 898.899 1593.59 906.388 1581.7 912.451 L 1652.94 1035.7 L 1663.97 1031.26 C 1681.37 1034.05 1695.83 1044.21 1691.65 1063.87 C 1690.06 1071.56 1685.43 1078.29 1678.81 1082.53 C 1672.79 1086.4 1665.48 1087.73 1658.48 1086.21 C 1643.79 1082.9 1639.31 1068.16 1637.99 1055.11 C 1599.31 1056.9 1548.31 1062.53 1509.22 1066.57 C 1531.95 1102.58 1549.76 1132.05 1565.91 1172.1 C 1573.06 1189.84 1578.32 1207.84 1585.09 1224.84 C 1597.22 1225.07 1608.54 1225.01 1619.93 1229.44 C 1657.51 1244.06 1665 1290.28 1636.35 1317.26 C 1669.76 1346.65 1686.24 1378.15 1692.83 1422.55 C 1698.43 1460.27 1695.07 1513.93 1652.42 1528.6 C 1637.77 1559.76 1608.94 1585 1573.49 1566.36 C 1549.16 1588.53 1520.91 1598.87 1494.79 1571.03 C 1483.08 1557.89 1499.35 1541.72 1504.71 1529.55 C 1513.2 1510.25 1511.66 1484.67 1498.29 1467.83 C 1481.4 1446.56 1467.93 1462.99 1465.77 1483.25 C 1464.1 1498.93 1463.27 1521.93 1442.68 1523.88 C 1435.83 1524.53 1429.27 1521.17 1424.25 1516.55 C 1382.55 1476.38 1396.62 1398.94 1432.82 1360.43 C 1418.13 1351.02 1407.54 1341.61 1403.82 1323.34 C 1400.99 1309.66 1403.86 1295.42 1411.78 1283.9 C 1415.19 1278.84 1418.39 1275.83 1422.76 1271.77 C 1407.03 1234.8 1372.39 1166.78 1334 1149.6 C 1329.49 1161.97 1326.53 1167.93 1319.46 1179.06 C 1355.73 1216.09 1373.88 1261.81 1373.49 1313.44 C 1373.16 1357.04 1360.32 1399.62 1336.51 1436.15 C 1360.36 1462.35 1364.31 1506.19 1362.86 1539.85 C 1359.55 1605.69 1336.47 1669 1296.63 1721.52 C 1348.42 1753.56 1291.57 1794.7 1307.53 1809.93 C 1352.52 1818.74 1383.88 1830.9 1412.48 1870.65 C 1426.49 1890.13 1435.02 1916.75 1431.19 1940.99 C 1429.07 1954.43 1417.45 1967.48 1405.51 1974.3 C 1345.66 2008.47 1249.85 2007.7 1183.67 1992.59 C 1152.01 1985.36 1102.54 1969.02 1085.67 1940.36 C 1069.95 1910.38 1076.57 1871.59 1079.96 1839.26 C 1080.79 1831.34 1085.15 1808.54 1083.3 1802.13 C 1073.1 1766.85 1044.69 1738.97 1093.5 1713.69 C 1088.41 1696.68 1083.75 1679.53 1079.53 1662.28 C 1042.61 1670.73 1006.58 1669.63 969.531 1663.25 C 966.231 1671.88 958.1 1703.84 956.127 1713.84 C 968.755 1719.99 976.569 1725.6 980.587 1739.97 C 987.338 1764.11 970.836 1781.76 962.438 1802.07 C 967.535 1840.78 986.217 1909.86 960.294 1944.77 C 931.476 1979.46 868.378 1994.34 825.194 1999.49 C 765.435 2006.62 688.108 2004.38 637.569 1969.71 C 599.727 1943.76 620.281 1888.76 644.113 1860.08 C 669.524 1829.51 704.008 1816.35 742.785 1809.56 C 745.194 1792.95 739.551 1789.97 734.032 1774.44 C 726.244 1752.51 730.775 1733.16 751.927 1721.92 C 738.583 1702.31 724.503 1680.19 713.749 1659.03 C 686.868 1606.13 666.98 1482.15 711.398 1435.92 C 679.354 1380.51 666.042 1327.44 681.804 1263.45 C 688.995 1234.26 708.094 1201.49 729.335 1180.22 C 722.284 1168.66 719.046 1161.12 714.109 1148.48 C 671.902 1173.23 641.75 1227.12 624.14 1271.7 C 655.275 1302.23 647.862 1337.05 613.462 1359.96 C 638.519 1389.36 649.993 1419.03 647.005 1458.14 C 645.484 1478.06 637.89 1503.27 622.57 1517.08 C 613.064 1525.65 598.441 1525.08 590.263 1514.82 C 576.674 1498.44 592.316 1467.99 568.509 1459.5 C 564.778 1458.17 558.691 1460.27 555.726 1462.57 C 536.408 1477.56 534.631 1521.1 549.155 1539.81 C 554.397 1546.56 560.293 1552.59 558.934 1562.34 C 555.238 1580.15 530.001 1590.01 513.967 1586.94 C 498.138 1583.92 487.857 1576.69 476.286 1566.92 C 440.312 1583.17 413.385 1560.76 399.409 1529.05 L 398.852 1527.77 C 348.379 1514.8 348.002 1445.14 359.212 1404.93 C 369.635 1367.55 386.068 1343.04 413.427 1316.35 C 390.294 1295.67 389.746 1264.06 410.52 1241.86 C 420.208 1231.37 433.728 1225.26 447.998 1224.92 C 453.821 1224.81 460.287 1225.04 466.106 1225.21 C 489.92 1159.41 507.916 1124.32 546.646 1066.12 C 517.359 1063.86 488.086 1061.42 458.829 1058.8 C 443.29 1057.46 426.497 1056.48 411.189 1054.52 C 410.97 1064.32 410.182 1071.91 402.453 1079.3 C 397.32 1084.14 390.462 1086.72 383.414 1086.46 C 375.573 1086.13 368.236 1082.5 363.207 1076.48 C 358.702 1071.19 356.541 1064.3 357.219 1057.39 C 360.423 1023.65 394.832 1035.38 396.319 1033.04 C 421.439 993.44 443.138 951.019 468.824 911.61 C 464.215 909.342 451.631 905.122 446.386 903.2 C 431.354 897.75 416.374 892.161 401.446 886.433 L 251.978 829.13 C 224.026 818.405 190.942 806.898 163.947 794.48 C 162.037 793.757 160.168 793.034 158.236 792.367 C 154.816 801.987 151.34 810.971 141.384 815.596 C 116.371 827.215 94.6207 801.432 105.829 778.111 C 116.624 755.652 138.559 757.856 153.423 774.035 C 161.877 748.423 174.207 719.59 184.294 694.276 L 229.542 579.692 C 219.696 568.525 197.176 519.479 189.969 503.935 C 165.201 451.038 141.29 397.744 118.245 344.074 C 111.111 327.857 104.863 310.801 97.538 294.877 C 85.2444 298.212 75.6057 299.289 63.7931 292.474 C 54.4536 287.082 47.6141 278.228 44.7561 267.829 C 41.9717 257.293 43.6574 246.074 49.4154 236.822 C 54.9562 227.838 64.008 221.588 74.3717 219.589 C 109.859 212.432 133.349 250.912 114.832 279.757 C 133.818 286.475 161.141 299.499 180.455 308.137 L 308.126 366.252 L 449.451 430.763 C 496.751 452.128 548.857 475.223 595.463 498.125 C 596.573 509.483 603.661 537.212 607.039 549.396 C 619.662 594.923 634.314 656.869 655.216 698.302 C 662.981 659.593 676.898 637.326 710.248 614.836 C 713.112 612.929 716.048 611.131 719.048 609.446 C 706.646 547.821 710.392 493.708 737.936 436.056 C 726.802 428.377 716.488 418.541 706.865 409.032 C 667.237 369.879 635.801 323.299 625.561 267.667 C 614.359 206.809 629.357 145.198 664.775 94.6179 C 677.331 76.6864 704.492 41.6613 727.615 34.6507 C 729.945 33.9444 732.018 34.5984 734.198 35.3386 C 745.029 44.0762 731.302 64.4358 728.472 75.9191 C 714.149 134.035 727.911 184.523 772.058 225.369 C 791.818 243.866 814.153 259.403 838.368 271.495 C 849.914 277.144 862.827 281.86 873.632 288.617 C 876.948 290.691 878.837 294.471 880.785 297.876 C 948.544 268.977 1027.4 260.744 1099.38 277.192 C 1122.02 282.365 1142.29 289.923 1163.73 298.546 L 1171.67 301.751 z" fill="rgb(16,9,8)" transform="translate(0,0)"></path>
<path d="M 214.988 776.52 C 285.83 764.365 357.199 747.006 428.008 733.92 C 450.697 729.728 475.459 725.299 497.768 719.776 C 515.852 735.966 538.938 753.837 554.949 771.694 C 543.688 789.754 474.229 897.618 472.665 906.707 L 470.897 910.92 L 468.824 911.61 C 464.215 909.342 451.631 905.122 446.386 903.2 C 431.354 897.75 416.374 892.161 401.446 886.433 L 251.978 829.13 C 224.026 818.405 190.942 806.898 163.947 794.48 L 163.399 792.543 C 161.94 791.741 160.479 791.066 158.924 790.469 C 158.334 786.975 157.896 788.42 159.354 785.799 C 160.271 787.381 159.72 786.637 161.025 788.018 L 163.595 786.168 L 165.236 787.266 C 165.773 790.39 202.59 804.128 207.195 805.451 C 209.802 795.091 212.573 787.699 214.988 776.52 z" fill="rgb(230,230,230)" transform="translate(0,0)"></path>
<path d="M 163.947 794.48 L 163.399 792.543 C 161.94 791.741 160.479 791.066 158.924 790.469 C 158.334 786.975 157.896 788.42 159.354 785.799 C 160.271 787.381 159.72 786.637 161.025 788.018 L 163.595 786.168 L 165.236 787.266 C 165.773 790.39 202.59 804.128 207.195 805.451 L 392.241 876.435 C 407.989 882.547 423.812 888.466 439.706 894.189 C 448.285 897.269 465.024 902.813 472.665 906.707 L 470.897 910.92 L 468.824 911.61 C 464.215 909.342 451.631 905.122 446.386 903.2 C 431.354 897.75 416.374 892.161 401.446 886.433 L 251.978 829.13 C 224.026 818.405 190.942 806.898 163.947 794.48 z" fill="url(#Gradient3)" transform="translate(0,0)"></path>
<path d="M 512.529 541.096 C 538.029 530.504 564.234 515.471 590.423 504.266 C 593.69 522.745 599.813 545.246 604.663 563.459 C 613.228 596.291 622.882 628.828 633.61 661.018 C 629.244 672.48 606.487 748.98 605.546 750.078 C 601.171 740.627 596.695 731.223 592.117 721.868 C 590.439 718.312 589.113 715.307 587.724 711.615 C 573.441 680.397 559.39 649.074 545.571 617.649 C 534.502 592.743 522.383 566.399 512.529 541.096 z" fill="rgb(230,230,230)" transform="translate(0,0)"></path>
<path d="M 633.61 661.018 C 637.945 672.719 647.265 698.157 653.843 707.766 C 654.063 772.571 679.911 820.607 737.817 852.324 C 753.742 861.046 769.547 865.207 783.149 877.806 C 765.395 885.399 739.35 896.752 722.764 906.948 L 685.483 878.34 C 678.695 873.112 670.811 867.87 664.901 861.657 C 653.567 849.742 612.535 766.628 605.546 750.078 C 606.487 748.98 629.244 672.48 633.61 661.018 z" fill="rgb(199,198,199)" transform="translate(0,0)"></path>
<path d="M 578.045 703.284 C 579.287 706.174 580.666 709.084 581.855 711.929 C 583.824 716.471 584.708 718.512 585.746 723.251 C 574.613 737.424 565.127 756.532 554.949 771.694 C 538.938 753.837 515.852 735.966 497.768 719.776 L 545.511 710.197 L 569.512 705.185 C 572.464 704.58 575.113 703.955 578.045 703.284 z" fill="rgb(199,198,199)" transform="translate(0,0)"></path>
<path d="M 165.236 787.266 C 174.3 786.325 185.004 783.149 194.013 781.232 L 198.515 780.242 L 202.558 779.339 C 206.689 778.345 210.833 777.405 214.988 776.52 C 212.573 787.699 209.802 795.091 207.195 805.451 C 202.59 804.128 165.773 790.39 165.236 787.266 z" fill="rgb(199,198,199)" transform="translate(0,0)"></path>
<path d="M 587.724 711.615 C 589.113 715.307 590.439 718.312 592.117 721.868 C 589.332 722.681 588.622 722.84 585.746 723.251 C 584.708 718.512 583.824 716.471 581.855 711.929 C 585.856 714.352 583.688 713.215 587.724 711.615 z" fill="rgb(39,14,7)" transform="translate(0,0)"></path>
<path d="M 1212.71 910.375 C 1219.98 914.714 1229.47 920.521 1235.6 926.264 C 1284.61 967.595 1327.66 1027.79 1333.62 1093.13 C 1336.33 1122.97 1331.17 1150.24 1314.55 1175.58 C 1311.48 1180.26 1301.51 1191.77 1300.04 1196.2 L 1301.1 1196.92 C 1308.83 1193.37 1310.77 1190.16 1315.9 1183.45 C 1352.42 1223.7 1370.24 1266.15 1367.61 1321.1 C 1366.42 1348.5 1360.07 1375.42 1348.92 1400.47 C 1336.7 1427.99 1318.84 1455.4 1300.55 1479.27 C 1297.56 1483.17 1290.37 1491.66 1290.17 1496.28 L 1292.46 1497.5 C 1299.45 1494.69 1328.2 1449.98 1333.63 1441.34 C 1357.91 1470.31 1358.92 1518.25 1356.23 1553.99 C 1351.09 1622.25 1320.59 1683.62 1278.46 1736.77 C 1229.25 1753.84 1192.19 1759.66 1140.84 1748.4 C 1128.21 1744.58 1119.36 1742.19 1106.87 1737.47 C 1098.93 1712.24 1091.75 1686.77 1085.34 1661.11 C 1137.23 1647.96 1154.78 1635.79 1197.86 1609.26 C 1206.92 1600.82 1220.27 1592.91 1228.96 1583.83 C 1230.33 1582.41 1229.72 1583.06 1229.66 1580.08 L 1230.83 1580.34 C 1224.6 1579.61 1216.65 1587.48 1211.09 1591.71 C 1125.56 1660.81 1018.8 1685.2 915.526 1639.95 C 902.202 1634.21 889.301 1627.55 876.916 1619.99 C 870.271 1615.9 852.021 1602.76 845.655 1602.42 C 846.853 1609.49 871.905 1622.87 878.499 1626.86 C 905.755 1643.34 933.018 1653.26 963.739 1661.48 C 957.444 1686.39 950.914 1711.24 944.149 1736.03 C 936.185 1738.96 928.63 1741.79 920.468 1744.2 C 896.383 1749.79 857.839 1758.24 833.501 1754.24 C 815.568 1751.91 785.829 1744.7 770.503 1734.36 C 764.064 1730.01 754.803 1715.36 750.071 1708.76 C 721.988 1669.57 702.22 1627.65 695.036 1579.43 C 688.232 1533.75 685.929 1479.97 714.326 1440.76 C 720.989 1450.78 752.075 1495.25 760.413 1499.63 L 761.469 1498.74 C 761.425 1495.96 760.776 1493.24 758.99 1491.04 C 737.817 1464.92 717.389 1438.83 702.649 1408.36 C 691.081 1383.95 684.008 1357.65 681.769 1330.73 C 677.199 1272.88 695.911 1226.93 732.944 1183.67 C 738.169 1189.74 739.918 1192.58 747.32 1195.98 L 748.578 1195.42 C 746.351 1189.97 739.527 1183.44 735.832 1178.42 C 696.546 1125.06 716.599 1052.98 748.036 1001.2 C 770.608 964.025 796.89 937.409 831.029 911.523 C 855.731 924.386 885.594 938.409 912.224 946.612 C 990.271 970.133 1073.85 967.628 1150.35 939.477 C 1172.67 931.238 1191.73 921.483 1212.71 910.375 z" fill="rgb(172,171,174)" transform="translate(0,0)"></path>
<path d="M 1212.71 910.375 C 1219.98 914.714 1229.47 920.521 1235.6 926.264 C 1157.6 984.138 1048.45 1006.73 952.941 992.683 C 909.136 985.859 866.796 971.695 827.703 950.786 C 820.74 960.261 813.313 970.292 807.454 980.481 C 817.211 979.304 830.538 976.434 838.62 982.216 C 845.542 994.365 814.35 1009.76 805.965 1013.82 C 799.781 1016.77 793.525 1019.56 787.203 1022.2 C 771.878 1046.81 758.582 1090.36 765.26 1119.67 C 766.953 1127.07 769.505 1134.25 772.862 1141.06 C 779.923 1155.13 795.943 1176.07 786.486 1192.92 C 783.615 1198.04 774.176 1204.43 768.832 1207.31 C 693.39 1248 719.315 1355.83 756.855 1413.86 C 764.576 1425.8 772.309 1437.07 780.356 1448.54 C 779.818 1443.74 778.087 1416.17 789.514 1420.83 C 804.115 1426.78 805.749 1461.26 805.723 1475.23 C 866.749 1536.35 942.222 1576.77 1028.74 1586.43 C 1090.14 1593.28 1149.5 1580.11 1206.93 1559.39 C 1211.8 1557.64 1217.32 1563.61 1217.23 1568.47 C 1217.1 1575.57 1210.86 1585.46 1211.09 1591.71 C 1125.56 1660.81 1018.8 1685.2 915.526 1639.95 C 902.202 1634.21 889.301 1627.55 876.916 1619.99 C 870.271 1615.9 852.021 1602.76 845.655 1602.42 C 846.853 1609.49 871.905 1622.87 878.499 1626.86 C 905.755 1643.34 933.018 1653.26 963.739 1661.48 C 957.444 1686.39 950.914 1711.24 944.149 1736.03 C 936.185 1738.96 928.63 1741.79 920.468 1744.2 C 896.383 1749.79 857.839 1758.24 833.501 1754.24 C 815.568 1751.91 785.829 1744.7 770.503 1734.36 C 764.064 1730.01 754.803 1715.36 750.071 1708.76 C 721.988 1669.57 702.22 1627.65 695.036 1579.43 C 688.232 1533.75 685.929 1479.97 714.326 1440.76 C 720.989 1450.78 752.075 1495.25 760.413 1499.63 L 761.469 1498.74 C 761.425 1495.96 760.776 1493.24 758.99 1491.04 C 737.817 1464.92 717.389 1438.83 702.649 1408.36 C 691.081 1383.95 684.008 1357.65 681.769 1330.73 C 677.199 1272.88 695.911 1226.93 732.944 1183.67 C 738.169 1189.74 739.918 1192.58 747.32 1195.98 L 748.578 1195.42 C 746.351 1189.97 739.527 1183.44 735.832 1178.42 C 696.546 1125.06 716.599 1052.98 748.036 1001.2 C 770.608 964.025 796.89 937.409 831.029 911.523 C 855.731 924.386 885.594 938.409 912.224 946.612 C 990.271 970.133 1073.85 967.628 1150.35 939.477 C 1172.67 931.238 1191.73 921.483 1212.71 910.375 z" fill="rgb(118,117,121)" transform="translate(0,0)"></path>
<path d="M 833.501 1754.24 C 804.967 1724.56 771.3 1673.4 761.973 1633.4 C 754.433 1601.07 772.312 1590.17 798.92 1611.23 C 826.385 1632.97 855.52 1651.01 881.388 1675.32 C 905.96 1698.42 915.128 1710.32 920.468 1744.2 C 896.383 1749.79 857.839 1758.24 833.501 1754.24 z" fill="rgb(172,171,174)" transform="translate(0,0)"></path>
<path d="M 1085.34 1661.11 C 1137.23 1647.96 1154.78 1635.79 1197.86 1609.26 C 1195.46 1616.68 1186.71 1627.57 1182 1634.56 C 1157.39 1671.09 1142.36 1702.83 1140.84 1748.4 C 1128.21 1744.58 1119.36 1742.19 1106.87 1737.47 C 1098.93 1712.24 1091.75 1686.77 1085.34 1661.11 z" fill="rgb(118,117,121)" transform="translate(0,0)"></path>
<path d="M 1231.45 973.124 C 1246.85 972.673 1261 976.252 1272.23 987.217 C 1296.5 1012.59 1316.13 1057.22 1318.25 1091.98 C 1319.88 1118.74 1297.9 1190.9 1265.69 1192.1 C 1256.26 1182.99 1262.85 1178.08 1269.25 1170.1 C 1290.92 1143.08 1300.25 1093.07 1272.46 1066.75 C 1263.02 1068.13 1255.42 1068.58 1246.31 1064.46 C 1221.02 1053.04 1199.22 1016.48 1212.05 989.49 C 1215.89 981.409 1223.04 975.906 1231.45 973.124 z" fill="rgb(199,198,199)" transform="translate(0,0)"></path>
<path d="M 1307.22 1236.95 C 1315.75 1237.09 1321.63 1240.6 1325.77 1248.42 C 1340.5 1276.18 1342.1 1348.63 1312.55 1366.91 C 1277.44 1367.09 1279.79 1274.8 1291.9 1253.81 C 1297.44 1244.21 1297.46 1242.48 1307.22 1236.95 z" fill="rgb(199,198,199)" transform="translate(0,0)"></path>
<path d="M 1318.78 1520.07 C 1332.84 1519.52 1337.03 1529.1 1337.99 1541.93 C 1340.15 1570.58 1330.69 1639.94 1304.69 1656.66 C 1282.71 1660.61 1283.93 1645.58 1290.89 1630.43 C 1301.62 1608 1308.42 1588.02 1308.78 1563.04 C 1309 1547.82 1304.76 1528.8 1318.78 1520.07 z" fill="rgb(199,198,199)" transform="translate(0,0)"></path>
<path d="M 1283.05 1390.06 C 1311.71 1387.54 1304.08 1425.36 1282.21 1438.68 C 1266.06 1443.55 1263.91 1432.14 1265.8 1418.49 C 1267.62 1405.34 1271.8 1397.15 1283.05 1390.06 z" fill="rgb(199,198,199)" transform="translate(0,0)"></path>
<path d="M 986.242 277.121 C 995.068 274.838 1007.64 274.368 1017.02 274.223 C 1148.3 272.185 1283.14 347.635 1317.43 480.793 C 1327.59 520.257 1328.85 566.224 1318.31 605.785 C 1314.93 603.738 1312.13 601.521 1308.24 601.39 L 1307.09 602.521 C 1308.55 608.052 1329.75 618.441 1335.98 623.291 C 1363.92 645.022 1383.76 683.838 1381.18 719.543 C 1383.02 729.764 1379.36 751.546 1376.69 761.965 C 1366.6 801.3 1339.28 828.257 1304.91 847.983 C 1292.72 854.982 1276.43 861.961 1264.99 869.117 C 1246.26 880.829 1229.94 893.809 1210.38 905.212 C 1125.04 955.795 1023 970.111 927.032 944.965 C 888.889 934.935 846.175 915.172 813.277 893.343 C 799.33 884.089 786.542 873.135 773.383 864.063 C 763.719 858.689 753.194 854.853 743.495 849.519 C 697.285 824.105 666.066 785.989 660.449 732.469 C 654.836 678.994 679.932 634.519 728.248 611.251 C 731.106 609.875 731.577 608.824 732.092 606.121 L 731.003 605.145 L 725.164 605.639 C 719.89 597.205 717.83 557.179 717.961 546.467 C 719.074 476.798 747.366 410.321 796.8 361.216 C 839.417 319.653 885.778 296.857 943.312 283.569 C 955.579 280.736 974.012 276.98 986.242 277.121 z" fill="rgb(172,171,174)" transform="translate(0,0)"></path>
<path d="M 1381.18 719.543 C 1383.02 729.764 1379.36 751.546 1376.69 761.965 C 1366.6 801.3 1339.28 828.257 1304.91 847.983 C 1292.72 854.982 1276.43 861.961 1264.99 869.117 C 1246.26 880.829 1229.94 893.809 1210.38 905.212 C 1125.04 955.795 1023 970.111 927.032 944.965 C 888.889 934.935 846.175 915.172 813.277 893.343 C 799.33 884.089 786.542 873.135 773.383 864.063 C 763.719 858.689 753.194 854.853 743.495 849.519 C 697.285 824.105 666.066 785.989 660.449 732.469 C 654.836 678.994 679.932 634.519 728.248 611.251 C 731.106 609.875 731.577 608.824 732.092 606.121 L 731.003 605.145 L 725.164 605.639 C 719.89 597.205 717.83 557.179 717.961 546.467 C 719.074 476.798 747.366 410.321 796.8 361.216 C 839.417 319.653 885.778 296.857 943.312 283.569 C 955.579 280.736 974.012 276.98 986.242 277.121 C 968.721 284.365 950.287 290.826 933.149 298.49 C 882.465 321.157 830.234 355.845 799.928 403.304 C 770.052 450.091 752.857 511.739 766.441 566.669 C 769.106 577.445 772.829 587.72 776.81 597.974 C 741.264 624.545 716.9 646.766 709.678 693.415 C 703.817 731.276 719.327 765.682 741.606 795.466 C 796.451 864.051 887.161 915.67 973.998 927.012 C 1072.2 940.364 1168.41 908.447 1250.38 855.674 C 1261.06 848.8 1271.12 840.631 1281.51 834 C 1316.65 811.589 1356.92 787.654 1372.23 746.561 C 1375.46 737.893 1377.79 728.035 1381.18 719.543 z" fill="rgb(118,117,121)" transform="translate(0,0)"></path>
<path d="M 1088.53 298.109 C 1108.57 298.352 1166.45 322.314 1185.5 332.951 C 1203.25 344.085 1231.94 358.719 1238.63 379.788 C 1242.06 390.595 1236.15 397.586 1225.59 399.812 C 1217.06 398.051 1208.73 390.71 1202.21 384.947 C 1176.96 362.622 1145.48 347.126 1113.78 336.182 C 1104.2 332.371 1091.14 331.466 1082.13 326.916 C 1064.6 318.069 1073.19 302.458 1088.53 298.109 z" fill="rgb(199,198,199)" transform="translate(0,0)"></path>
<path d="M 1211.11 707.866 C 1214.46 710.207 1218.86 725.634 1225.31 731.404 C 1243.84 747.967 1276.74 753.472 1276.02 784.055 C 1275.96 786.617 1275.16 787.11 1273.49 788.424 L 1271.67 787.878 C 1269.33 784.316 1270.61 778.781 1269.14 774.377 C 1265.07 762.2 1254.71 756.495 1244.37 751.12 C 1226.28 775.916 1210.16 792.559 1183.93 809.448 C 1119.2 851.888 1040.15 866.593 964.487 850.272 C 903.553 836.721 837.951 804.622 803.774 750.689 C 799.901 752.848 796.138 755.199 792.498 757.731 C 780.238 766.265 777.853 775.771 775.476 789.407 C 774.344 788.821 772.876 787.824 771.762 787.121 C 770.213 783.962 770.229 783.5 770.906 779.488 C 775.714 750.984 805.89 748.701 823.82 730.351 C 833.036 720.918 832.623 711.798 836.094 709.113 L 838.11 709.413 C 844.918 721.078 817.632 743.09 809.4 748.892 C 853.706 822.657 980.675 862.811 1062.2 848.759 C 1134.08 836.371 1195.61 807.91 1239.63 748.352 C 1237.64 747.127 1235.67 745.868 1233.73 744.576 C 1224.66 738.533 1202.29 719.39 1211.11 707.866 z" fill="rgb(16,9,8)" transform="translate(0,0)"></path>
<path d="M 933.384 650.437 C 944.484 653.074 965.466 662.369 971.242 672.363 C 980.314 684.075 989.86 691.428 990.879 708.488 C 990.938 709.468 990.771 710.793 990.705 711.788 C 964.642 743.893 895.031 702.009 913.27 663.614 C 917.082 655.591 925.517 652.74 933.384 650.437 z" fill="rgb(118,117,121)" transform="translate(0,0)"></path>
<path d="M 990.705 711.788 C 983.058 710.129 976.21 706.296 968.498 705.03 C 959.132 703.795 951.035 703.962 941.774 701.516 C 928.393 697.983 916.033 674.352 933.408 667.709 C 946.921 662.543 957.812 667.231 970.314 672.018 L 971.242 672.363 C 980.314 684.075 989.86 691.428 990.879 708.488 C 990.938 709.468 990.771 710.793 990.705 711.788 z" fill="rgb(16,9,8)" transform="translate(0,0)"></path>
<path d="M 1078.12 670.782 L 1079.14 669.38 C 1087.36 657.326 1115.18 646.384 1127.27 658.446 C 1161.27 692.379 1080.31 748.128 1056.63 712.442 C 1053.23 696.626 1066.34 679.923 1078.12 670.782 z" fill="rgb(16,9,8)" transform="translate(0,0)"></path>
<path d="M 1078.12 670.782 L 1079.14 669.38 C 1087.36 657.326 1115.18 646.384 1127.27 658.446 C 1161.27 692.379 1080.31 748.128 1056.63 712.442 C 1070.19 708.438 1070.34 705.278 1085.5 704.807 C 1095.1 704.225 1110.81 702.391 1116.33 693.312 C 1126.99 675.764 1120.64 665.098 1100 665.935 C 1090.02 666.34 1086.82 668.045 1078.12 670.782 z" fill="rgb(118,117,121)" transform="translate(0,0)"></path>
<path d="M 1169.72 531.399 C 1188.7 529.591 1212.83 540.612 1225.84 554.008 C 1232.89 561.262 1252.02 580.855 1242.09 590.956 C 1238.04 592.579 1240.03 592.394 1235.93 591.84 C 1231.77 588.912 1231.55 585.346 1228.62 581.514 C 1214.94 563.589 1195.36 555.839 1174.42 551.804 C 1172.81 551.787 1171.21 551.798 1169.6 551.835 C 1142.19 552.538 1121.02 569.761 1105.93 589.978 C 1104.61 591.738 1101.71 592.06 1099.61 592.08 C 1091.83 585.839 1104.75 568.334 1109.6 562.357 C 1125.45 542.782 1145 534.171 1169.72 531.399 z" fill="rgb(16,9,8)" transform="translate(0,0)"></path>
<path d="M 1273.9 614.078 C 1307.49 616.911 1348.45 646.312 1343.3 686.065 C 1342.71 690.622 1334.95 693.926 1331.25 695.57 C 1309.97 690.76 1314.13 662.554 1292.77 652.565 C 1283.69 648.314 1266.69 643.621 1262.07 635.439 C 1256.72 625.961 1266.26 617.476 1273.9 614.078 z" fill="rgb(199,198,199)" transform="translate(0,0)"></path>
<path d="M 870.14 531.386 C 890.164 530.306 911.094 539.881 925.559 553.205 C 933.269 560.307 947.616 577.854 948.093 588.537 C 947.018 591.012 946.259 591.15 944.022 592.836 C 938.689 592.963 935.408 586.959 932.012 583.035 C 916.393 564.993 901.648 556.887 878.763 551.543 C 857.759 549.217 831.819 561.194 817.77 576.682 C 812.681 582.293 813.605 592.458 803.21 592.138 C 801.282 590.892 800.205 590.445 799.719 587.498 C 798.549 580.414 808.104 566.645 812.223 561.628 C 828.856 541.368 844.759 534.223 870.14 531.386 z" fill="rgb(16,9,8)" transform="translate(0,0)"></path>
<path d="M 1282.87 473.961 C 1285.7 474.111 1293.32 474.468 1295.05 476.92 C 1307.13 493.988 1307.86 534.807 1307.61 554.718 C 1307.44 568.415 1306.22 577.769 1297.68 585.753 C 1289.67 588.413 1285.49 587.794 1279.95 581.421 C 1275.24 560.412 1279.94 533.925 1276.59 512.119 C 1276.43 508.174 1275.68 504.116 1275.54 500.184 C 1275.11 487.63 1271.19 481.595 1282.87 473.961 z" fill="rgb(199,198,199)" transform="translate(0,0)"></path>
<path d="M 1006.66 594.402 C 1013.05 593.157 1031.42 593.642 1038.33 594.247 C 1073.66 597.656 1113.15 609.481 1137.06 637.209 C 1160.19 664.022 1151.35 700.972 1124.34 720.544 C 1121.69 722.467 1118.89 725.085 1115.57 724.642 C 1116.67 716.621 1144.73 701.315 1144.73 675.92 C 1144.73 623.055 1080.6 603.788 1037.24 599.627 C 1002.94 593.397 946.053 609.591 920.511 633.551 C 910.387 643.047 901.197 656.65 901.19 671.004 C 901.183 684.547 907.781 698.688 917.102 708.375 C 921.718 713.089 927.22 716.785 931.761 721.657 L 930.949 723.501 L 928.524 724.025 C 926.709 723.362 925.207 722.785 923.657 721.556 C 897.23 700.617 883.576 666.964 908.476 638.198 C 932.74 610.166 970.557 597.882 1006.66 594.402 z" fill="rgb(16,9,8)" transform="translate(0,0)"></path>
<path d="M 1010.52 289.358 C 1021.86 288.519 1041.95 288.372 1043.12 303.5 C 1044.25 318.024 1032 317.655 1021.43 318.686 C 1010.73 318.292 978.948 317.749 989.234 298.129 C 992.902 291.132 1003.38 290.286 1010.52 289.358 z" fill="rgb(199,198,199)" transform="translate(0,0)"></path>
<path d="M 1256.9 415.118 C 1258.26 415.046 1263.49 414.612 1264.58 415.453 C 1273.29 422.14 1277.95 439.098 1273.53 449.204 C 1272.01 452.665 1267.72 454.488 1264.63 455.123 L 1262.78 455.554 C 1252.98 452.466 1248.55 449.832 1244.94 439.525 C 1240.02 425.479 1242.95 419.24 1256.9 415.118 z" fill="rgb(199,198,199)" transform="translate(0,0)"></path>
<path d="M 1170.51 424.263 C 1179.28 423.223 1188.18 424.188 1196.52 427.085 C 1211.17 432.23 1226.35 445.36 1233.67 458.651 C 1236.1 463.06 1228.49 465.663 1224.67 455.341 C 1223.34 451.757 1210.17 440.492 1206.49 438.014 C 1183.61 425.141 1159.06 427.627 1138.14 443.56 C 1132.44 447.908 1130.08 444.694 1132.53 441.515 C 1139.44 432.556 1161.27 425.786 1170.51 424.263 z" fill="rgb(16,9,8)" transform="translate(0,0)"></path>
<path d="M 857.861 423.209 C 879.412 421.192 896.863 427.689 913.147 442.025 C 913.475 442.315 913.63 443.246 913.422 443.667 C 910.426 449.744 905.823 442.225 902.641 440.598 C 888.306 430.893 876.821 426.521 859.499 428.867 L 855.319 429.411 C 843.053 433.483 838.856 435.512 828.865 444.867 C 826.343 445.8 816.5 461.762 815.588 461.836 C 809.311 462.344 814.041 454.256 815.111 452.581 C 824.812 437.421 840.23 426.827 857.861 423.209 z" fill="rgb(16,9,8)" transform="translate(0,0)"></path>
<path d="M 1427.15 1928.37 C 1426.79 1931.52 1426.28 1934.97 1425.87 1938.02 C 1424.28 1949.91 1414.08 1962.63 1403.44 1968.78 C 1344.27 2003.03 1252.8 2001.75 1187.73 1987.85 C 1158.14 1981.53 1106.46 1964.57 1090.89 1938.49 C 1077.25 1915.63 1081.86 1868.7 1085.39 1842.94 C 1086.97 1831.43 1090.59 1811.94 1089.23 1800.83 C 1087.04 1782.99 1067.17 1763.67 1072.21 1743.68 C 1075.1 1732.23 1085.44 1724.73 1095.12 1719.19 C 1096.8 1723.72 1098.92 1728.48 1099.39 1733.21 L 1095.11 1734.93 L 1095.52 1736.46 C 1104.27 1746.52 1146.31 1755.16 1159.93 1757.6 C 1195.56 1763.65 1234.21 1757.64 1268.28 1746.41 C 1273.8 1744.59 1288.38 1739.61 1292.4 1735.52 C 1292.01 1732.52 1291.78 1732.48 1290.36 1729.73 L 1290.94 1728.14 C 1302.47 1724.88 1311.89 1744.46 1312.58 1752.8 C 1314.47 1775.54 1298.85 1784.7 1299.18 1809.18 C 1276.1 1808.45 1234.06 1810.89 1215.83 1824.79 L 1214.85 1826.84 L 1216.03 1828.67 C 1219.04 1828.77 1218.94 1828.33 1221.46 1827.22 C 1302.1 1791.76 1418 1830.49 1427.15 1928.37 z" fill="rgb(123,179,211)" transform="translate(0,0)"></path>
<path d="M 1427.15 1928.37 C 1426.79 1931.52 1426.28 1934.97 1425.87 1938.02 C 1424.28 1949.91 1414.08 1962.63 1403.44 1968.78 C 1344.27 2003.03 1252.8 2001.75 1187.73 1987.85 C 1158.14 1981.53 1106.46 1964.57 1090.89 1938.49 C 1077.25 1915.63 1081.86 1868.7 1085.39 1842.94 C 1086.97 1831.43 1090.59 1811.94 1089.23 1800.83 C 1087.04 1782.99 1067.17 1763.67 1072.21 1743.68 C 1075.1 1732.23 1085.44 1724.73 1095.12 1719.19 C 1096.8 1723.72 1098.92 1728.48 1099.39 1733.21 L 1095.11 1734.93 L 1095.52 1736.46 C 1104.27 1746.52 1146.31 1755.16 1159.93 1757.6 C 1154.2 1764.48 1145.49 1771.93 1138.95 1779.04 C 1104.61 1816.34 1094.98 1887.74 1138.08 1922.8 C 1182.72 1959.12 1255.74 1970.1 1312.51 1966.99 C 1357.8 1964.11 1389.87 1951.33 1427.15 1928.37 z" fill="rgb(94,141,169)" transform="translate(0,0)"></path>
<path d="M 1320.86 1833.23 C 1335.8 1832.65 1337.09 1835.8 1349.99 1840.91 C 1361.58 1845.5 1405.45 1878.58 1379.53 1890.07 L 1376.08 1891.57 C 1343.35 1894.6 1285.57 1846.56 1320.86 1833.23 z" fill="rgb(161,205,230)" transform="translate(0,0)"></path>
<path d="M 954.514 1719.36 C 1000.12 1744.77 964.379 1773.48 957.833 1802.04 C 955.861 1810.64 965.905 1849.31 966.082 1863.93 C 966.639 1866.19 966.763 1868.88 966.91 1871.17 C 968.373 1894.04 970.114 1926.25 953.237 1944.53 C 920.97 1979.5 844.606 1993.89 797.947 1996.54 C 749.16 1999.31 675.142 1994.31 636.463 1961.95 C 627.512 1954.46 622.41 1942.25 622.306 1930.49 C 622.063 1903.29 638.574 1873.27 657.111 1854.44 C 680.028 1831.17 721.506 1814.74 754.025 1814.95 L 755.308 1814.74 C 779.86 1810.91 805.139 1818.96 827.559 1827.76 C 829.483 1828.52 830.888 1828.18 832.746 1827.64 L 833.15 1826.46 C 829.839 1822.92 823.335 1820.3 818.788 1818.46 C 795.314 1808.92 774.184 1807.93 749.307 1808.99 C 749.439 1806.76 749.944 1799.03 749.37 1797.37 C 742.11 1776.31 726.173 1753.19 745.698 1733.07 C 748.181 1730.51 754.309 1726.04 757.64 1729.05 C 757.458 1729.98 756.361 1733.42 757.272 1734 C 811.003 1768.17 875.115 1765.47 933.688 1745.5 C 939.312 1743.58 951.336 1740.6 954.874 1736.39 L 954.736 1735.1 L 951.274 1733.33 C 951.028 1729.85 953.434 1723.03 954.514 1719.36 z" fill="rgb(123,179,211)" transform="translate(0,0)"></path>
<path d="M 966.082 1863.93 C 966.639 1866.19 966.763 1868.88 966.91 1871.17 C 968.373 1894.04 970.114 1926.25 953.237 1944.53 C 920.97 1979.5 844.606 1993.89 797.947 1996.54 C 749.16 1999.31 675.142 1994.31 636.463 1961.95 C 627.512 1954.46 622.41 1942.25 622.306 1930.49 C 622.063 1903.29 638.574 1873.27 657.111 1854.44 C 680.028 1831.17 721.506 1814.74 754.025 1814.95 C 745.625 1819.42 734.506 1822.05 726.016 1826.01 C 654.311 1859.47 652.861 1935.35 733.539 1959.26 C 793.622 1977.06 852.666 1963.9 908.161 1938.39 C 936.462 1924.6 966.125 1897.64 966.082 1863.93 z" fill="rgb(94,141,169)" transform="translate(0,0)"></path>
<path d="M 1257.76 880.393 C 1263.37 882.572 1269.02 884.627 1274.72 886.556 C 1406.68 935.459 1491.48 1028.03 1552.12 1154.29 C 1563.67 1178.33 1570.1 1200.17 1578.91 1224.96 C 1532.19 1227.61 1498.88 1232.8 1455.46 1252.11 C 1444.92 1257.9 1438.3 1260.91 1428.09 1267.79 C 1420.02 1252.13 1413.73 1235.02 1404.47 1220.06 C 1386.4 1190.9 1366.77 1159.72 1335.43 1143.86 C 1343.88 1103.77 1339.89 1078.2 1327.14 1039.94 C 1303.82 989.044 1281.76 958.97 1239.6 922.029 C 1235.83 918.691 1231.63 915.878 1227.57 912.913 C 1224.47 910.663 1221.3 908.52 1218.06 906.487 C 1233.03 897.347 1243.43 889.98 1257.76 880.393 z" fill="rgb(172,171,174)" transform="translate(0,0)"></path>
<path d="M 1327.14 1039.94 C 1367.6 1057.9 1403.24 1110.27 1418.53 1150.24 C 1423.34 1162.61 1427.13 1175.36 1429.86 1188.34 C 1435.98 1216.79 1433.31 1230.21 1455.46 1252.11 C 1444.92 1257.9 1438.3 1260.91 1428.09 1267.79 C 1420.02 1252.13 1413.73 1235.02 1404.47 1220.06 C 1386.4 1190.9 1366.77 1159.72 1335.43 1143.86 C 1343.88 1103.77 1339.89 1078.2 1327.14 1039.94 z" fill="rgb(118,117,121)" transform="translate(0,0)"></path>
<path d="M 1257.76 880.393 C 1263.37 882.572 1269.02 884.627 1274.72 886.556 C 1263.73 899.699 1251.98 910.395 1239.6 922.029 C 1235.83 918.691 1231.63 915.878 1227.57 912.913 C 1224.47 910.663 1221.3 908.52 1218.06 906.487 C 1233.03 897.347 1243.43 889.98 1257.76 880.393 z" fill="rgb(118,117,121)" transform="translate(0,0)"></path>
<path d="M 1322.45 928.047 C 1337.3 927.509 1354.51 941.167 1366.5 949.454 C 1415.32 983.175 1457.31 1025.68 1488.01 1076.61 C 1495.58 1089.18 1497.19 1098.61 1481.97 1104.9 C 1479.62 1104.83 1477.4 1104.63 1475.16 1103.88 C 1467.82 1101.42 1445.23 1066.82 1438.59 1058.73 C 1412.86 1027.35 1385.46 1001.18 1352.19 977.836 C 1343.54 971.768 1314.58 955.849 1310.94 947.907 C 1309.37 944.478 1309.03 940.761 1310.64 937.272 C 1313.06 932.049 1317.31 929.935 1322.45 928.047 z" fill="rgb(199,198,199)" transform="translate(0,0)"></path>
<path d="M 1502.87 1134.89 C 1527.1 1135.1 1542.16 1171.87 1524.42 1183.26 C 1501.8 1182.17 1485.73 1151.3 1502.87 1134.89 z" fill="rgb(199,198,199)" transform="translate(0,0)"></path>
<path d="M 471.818 1225.35 C 477.308 1210.8 482.855 1195.79 488.831 1181.45 C 544.857 1045.94 652.29 938.159 787.609 881.692 C 799.095 890.754 814.123 900.459 826.366 908.453 C 756.898 961.539 692.013 1051.14 713.05 1142.89 L 705.458 1147.55 C 663.22 1175.01 638.3 1223.41 619.257 1268.42 C 591.238 1249.24 559.361 1236.43 525.863 1230.88 C 506.568 1227.89 491.321 1226.51 471.818 1225.35 z" fill="rgb(172,171,174)" transform="translate(0,0)"></path>
<path d="M 471.818 1225.35 C 477.308 1210.8 482.855 1195.79 488.831 1181.45 C 544.857 1045.94 652.29 938.159 787.609 881.692 C 799.095 890.754 814.123 900.459 826.366 908.453 C 756.898 961.539 692.013 1051.14 713.05 1142.89 L 705.458 1147.55 C 695.298 1109.02 697.969 1072.53 710.867 1034.69 C 715.399 1021.39 721.733 1009.58 727.775 996.965 C 628.336 1021.82 535.025 1128.34 525.863 1230.88 C 506.568 1227.89 491.321 1226.51 471.818 1225.35 z" fill="rgb(118,117,121)" transform="translate(0,0)"></path>
<path d="M 1550.3 1315.77 C 1572.42 1312.38 1616.42 1309.04 1634.61 1323.22 C 1663.36 1345.63 1681.87 1386.15 1687.08 1421.17 C 1687.92 1426.64 1688.49 1432.15 1688.8 1437.68 C 1690.15 1469.85 1687 1506.17 1654.32 1521.44 C 1654.94 1518.24 1656.63 1507.96 1657.78 1505.33 C 1659.36 1491.06 1659.63 1473.03 1656.9 1458.93 L 1655.2 1457.31 L 1653.28 1457.73 C 1651.12 1461.21 1653.45 1482.79 1653.32 1489.12 C 1653.22 1495.96 1652.49 1502.77 1651.14 1509.47 C 1646.14 1542.39 1614.45 1579.9 1578.93 1563.2 L 1577.39 1562.48 C 1588.38 1549.2 1589.88 1544.57 1596.12 1528.88 C 1598.82 1517.38 1608.49 1469.02 1598.2 1462.44 C 1596.43 1464.12 1596.46 1465.25 1596.58 1468.49 C 1597.59 1496.04 1594.17 1531.19 1576.78 1554.12 C 1565.69 1567.6 1552.59 1578.87 1534 1581.86 C 1520.35 1584.05 1498.85 1574.82 1495.43 1559.96 C 1494.52 1556.04 1502.16 1544.69 1505.02 1541.49 C 1522.97 1514.74 1519.92 1462.55 1484.47 1452.62 C 1476.89 1454.27 1471.53 1455.23 1465.52 1463.9 C 1454.53 1479.75 1466.46 1533.89 1429.52 1513.47 C 1417.05 1506.57 1408.39 1482.34 1405.87 1468.2 C 1398.44 1431.34 1417.03 1378.54 1446.45 1355.1 C 1465 1340.32 1497.3 1326.21 1520.77 1321.44 C 1529.36 1318.62 1541.29 1316.16 1550.3 1315.77 z" fill="rgb(172,171,174)" transform="translate(0,0)"></path>
<path d="M 1405.87 1468.2 C 1398.44 1431.34 1417.03 1378.54 1446.45 1355.1 C 1465 1340.32 1497.3 1326.21 1520.77 1321.44 C 1524.94 1322.04 1528.1 1320.85 1529.13 1321.24 L 1529.2 1321.37 C 1529.17 1321.4 1519.05 1324.81 1514.67 1328.15 C 1467.29 1348.33 1435.04 1373.68 1415.92 1423.01 C 1410.03 1438.19 1405.84 1451.77 1405.87 1468.2 z" fill="rgb(118,117,121)" transform="translate(0,0)"></path>
<path d="M 1576.78 1554.12 C 1565.69 1567.6 1552.59 1578.87 1534 1581.86 C 1520.35 1584.05 1498.85 1574.82 1495.43 1559.96 C 1494.52 1556.04 1502.16 1544.69 1505.02 1541.49 C 1509.79 1550.23 1511.32 1555.71 1521.58 1558.71 C 1532.73 1562.1 1544.68 1561.01 1556.01 1559.25 C 1556.84 1559.13 1557.67 1559.01 1558.49 1558.89 C 1564.8 1558.19 1570.76 1555.34 1576.78 1554.12 z" fill="rgb(118,117,121)" transform="translate(0,0)"></path>
<path d="M 1596.12 1528.88 C 1598.29 1533.68 1599.83 1545.11 1607.02 1543.27 C 1627.21 1538.09 1640.06 1526.68 1651.14 1509.47 C 1646.14 1542.39 1614.45 1579.9 1578.93 1563.2 L 1577.39 1562.48 C 1588.38 1549.2 1589.88 1544.57 1596.12 1528.88 z" fill="rgb(118,117,121)" transform="translate(0,0)"></path>
<path d="M 1657.78 1505.33 C 1671.16 1496.62 1685.4 1461.38 1687.76 1445.5 C 1688.11 1443.11 1688.18 1440.5 1688.8 1437.68 C 1690.15 1469.85 1687 1506.17 1654.32 1521.44 C 1654.94 1518.24 1656.63 1507.96 1657.78 1505.33 z" fill="rgb(118,117,121)" transform="translate(0,0)"></path>
<path d="M 1520.77 1321.44 C 1529.36 1318.62 1541.29 1316.16 1550.3 1315.77 C 1550.48 1315.58 1548.59 1317.41 1548.72 1317.36 C 1540 1320.32 1522.93 1325.81 1514.67 1328.15 C 1519.05 1324.81 1529.17 1321.4 1529.2 1321.37 L 1529.13 1321.24 C 1528.1 1320.85 1524.94 1322.04 1520.77 1321.44 z" fill="rgb(130,127,135)" transform="translate(0,0)"></path>
<path d="M 1614.4 1332.83 C 1625.7 1331.9 1634.18 1340.85 1640.79 1349.15 C 1656.62 1369.02 1668.57 1394.26 1672.11 1419.5 C 1672.76 1424.15 1670.42 1426.14 1667.49 1429.22 C 1665.79 1429.21 1660.72 1429.64 1659.8 1428.2 C 1654.16 1419.35 1650.16 1402.58 1646.15 1392.55 C 1639.73 1376.39 1629.52 1362.01 1616.38 1350.62 C 1607.49 1343.05 1606.23 1341.96 1614.4 1332.83 z" fill="rgb(199,198,199)" transform="translate(0,0)"></path>
<path d="M 397.916 1522.53 C 369.802 1511.61 360.462 1484.72 358.91 1456.73 C 356.397 1411.42 374.889 1366.34 404.615 1332.66 C 420.361 1314.81 432.485 1314.44 455.062 1313.33 C 495.34 1310.5 567.012 1325.08 596.938 1352.58 C 606.08 1360.24 613.011 1367.02 620.357 1377.52 C 645.921 1414.1 651.093 1471.9 622.88 1508.47 C 617.604 1515.31 605.086 1523.46 598.305 1515.07 C 582.79 1498.91 597.64 1458.37 568.375 1453.4 C 561.008 1452.14 547.661 1459.66 544.355 1465.79 C 531.686 1486.01 529.284 1516.96 540.638 1538.11 C 548.945 1546.84 559.927 1560.61 547.726 1571.27 C 533.001 1584.14 516.543 1585.17 499.164 1576.19 C 459.172 1555.52 449.756 1508.19 454.892 1467.02 C 455.213 1464.45 454.381 1463.03 452.665 1461.47 L 450.421 1462.44 C 443.406 1474.23 450.224 1524.22 457.144 1537.32 C 461.824 1546.18 465.772 1554 471.565 1562.3 L 470.92 1563.86 C 467.609 1565.6 465.599 1566.09 461.903 1566.39 C 414.304 1570.21 398.262 1523.31 398.265 1484.36 C 398.266 1476.54 401.046 1467.96 400.313 1460.54 L 397.796 1459.23 L 395.935 1460.2 C 389.257 1474.1 394.946 1507.72 397.916 1522.53 z" fill="rgb(172,171,174)" transform="translate(0,0)"></path>
<path d="M 397.916 1522.53 C 369.802 1511.61 360.462 1484.72 358.91 1456.73 C 356.397 1411.42 374.889 1366.34 404.615 1332.66 C 420.361 1314.81 432.485 1314.44 455.062 1313.33 C 495.34 1310.5 567.012 1325.08 596.938 1352.58 C 591.527 1351.33 585.22 1348.64 580.137 1346.3 C 543.661 1329.38 498.597 1321.93 462.044 1342.69 C 435.315 1357.87 414.891 1393.55 433.693 1422.6 C 442.077 1435.55 453.03 1449.06 459.706 1462.88 C 464.769 1473.36 466.271 1487.22 470.237 1498.27 C 474.598 1512.16 481.915 1524.56 492.957 1534.26 C 508.048 1547.51 524.139 1552.53 540.638 1538.11 C 548.945 1546.84 559.927 1560.61 547.726 1571.27 C 533.001 1584.14 516.543 1585.17 499.164 1576.19 C 459.172 1555.52 449.756 1508.19 454.892 1467.02 C 455.213 1464.45 454.381 1463.03 452.665 1461.47 L 450.421 1462.44 C 443.406 1474.23 450.224 1524.22 457.144 1537.32 C 461.824 1546.18 465.772 1554 471.565 1562.3 L 470.92 1563.86 C 467.609 1565.6 465.599 1566.09 461.903 1566.39 C 414.304 1570.21 398.262 1523.31 398.265 1484.36 C 398.266 1476.54 401.046 1467.96 400.313 1460.54 L 397.796 1459.23 L 395.935 1460.2 C 389.257 1474.1 394.946 1507.72 397.916 1522.53 z" fill="rgb(118,117,121)" transform="translate(0,0)"></path>
<path d="M 108.449 305.222 C 105.745 300.428 102.338 296.017 103.949 290.355 C 106.068 289.345 106.043 289.348 108.118 290.229 C 118.008 294.426 363.333 462.185 365.96 465.411 C 376.109 470.973 393.604 483.96 404.063 490.86 C 433.647 510.378 462.639 531.568 492.283 550.973 C 497.351 548.903 503.185 545.766 508.153 543.276 C 510.951 554.137 518.782 571.208 523.423 582.289 L 322.296 575.1 C 298.839 574.177 251.49 570.429 230.183 571.68 C 199.591 515.507 171.636 450.142 145.647 391.391 C 132.953 362.695 120.147 334.344 108.449 305.222 z" fill="url(#Gradient2)" transform="translate(0,0)"></path>
<path d="M 108.449 305.222 C 105.745 300.428 102.338 296.017 103.949 290.355 C 106.068 289.345 106.043 289.348 108.118 290.229 C 118.008 294.426 363.333 462.185 365.96 465.411 C 362.358 466.393 348.436 455.58 344.781 453.074 L 303.114 424.317 L 181.09 341.66 C 173.058 336.224 143.936 314.935 137.538 313.163 C 132.509 314.405 131.568 314.955 126.63 313.571 C 134.75 322.053 150.467 337.147 160.36 344.313 C 163.967 346.926 159.391 342.371 162.932 346.17 L 162.313 346.442 C 154.212 343.745 123.217 312.009 114.516 305.65 C 112.263 304.003 110.648 304.648 108.449 305.222 z" fill="rgb(199,198,199)" transform="translate(0,0)"></path>
<path d="M 1557.41 549.595 L 1852.65 350.734 C 1872.48 337.432 1892.22 323.998 1911.87 310.434 C 1918.42 305.901 1937.59 290.033 1944.06 291 L 1944.81 293.182 C 1943.76 297.646 1942.9 298.9 1940.74 303.055 C 1930.23 330.089 1917.51 359.152 1905.27 385.591 C 1877.65 445.231 1852.92 512.796 1820.78 569.78 C 1798.04 572.499 1762.83 572.977 1738.74 574.194 C 1688.08 577.082 1637.4 579.458 1586.7 581.324 C 1581.28 583.142 1531.5 584.63 1523.7 585.093 C 1530.24 570.84 1536.93 556.654 1543.76 542.537 L 1557.41 549.595 z" fill="rgb(230,230,230)" transform="translate(0,0)"></path>
<path d="M 1557.41 549.595 L 1852.65 350.734 C 1872.48 337.432 1892.22 323.998 1911.87 310.434 C 1918.42 305.901 1937.59 290.033 1944.06 291 L 1944.81 293.182 C 1943.76 297.646 1942.9 298.9 1940.74 303.055 C 1932.04 301.535 1897.29 333.815 1888.26 340.91 C 1809.21 402.078 1730.9 464.193 1653.34 527.242 C 1641.53 536.666 1592.1 572.533 1586.7 581.324 C 1581.28 583.142 1531.5 584.63 1523.7 585.093 C 1530.24 570.84 1536.93 556.654 1543.76 542.537 L 1557.41 549.595 z" fill="rgb(199,198,199)" transform="translate(0,0)"></path>
<path d="M 1469.47 702.393 C 1477.68 703.665 1485.86 705.126 1494.01 706.776 L 1504.51 708.83 L 1509.51 709.809 L 1514.51 710.82 L 1529.01 713.762 L 1534.01 714.812 L 1540.99 716.194 C 1545.15 717.103 1549.34 717.892 1553.51 718.782 L 1555.8 719.251 C 1642.92 739.87 1732.22 754.557 1819.57 774.512 C 1828.68 776.593 1838.02 778.197 1847.07 780.464 C 1847.83 788.35 1849.55 793.072 1850.06 801.799 L 1673.55 870.279 C 1648.35 879.991 1601.16 896.562 1578.29 907.625 C 1571.51 895.258 1562.23 880.961 1554.72 868.717 C 1536.5 839.045 1517.95 809.581 1499.07 780.329 C 1486.34 763.407 1473.38 738.579 1461.09 720.686 C 1464.03 714.748 1466.7 708.441 1469.47 702.393 z" fill="rgb(230,230,230)" transform="translate(0,0)"></path>
<path d="M 1469.47 702.393 C 1477.68 703.665 1485.86 705.126 1494.01 706.776 L 1504.51 708.83 L 1509.51 709.809 L 1514.51 710.82 L 1529.01 713.762 L 1534.01 714.812 L 1540.99 716.194 C 1545.15 717.103 1549.34 717.892 1553.51 718.782 L 1555.8 719.251 C 1551.39 719.829 1503.6 773.838 1499.07 780.329 C 1486.34 763.407 1473.38 738.579 1461.09 720.686 C 1464.03 714.748 1466.7 708.441 1469.47 702.393 z" fill="rgb(199,198,199)" transform="translate(0,0)"></path>
<path d="M 1630.6 585.216 L 1813.4 576.575 C 1828.76 622.769 1848.83 670.025 1865.61 715.761 C 1871.13 730.814 1883.27 759.062 1886.96 772.852 C 1792.46 723.058 1697.37 674.41 1601.69 626.916 C 1604.93 622.411 1607.95 618.14 1611.42 613.777 L 1614.42 609.811 C 1620.23 601.979 1625.67 593.629 1630.6 585.216 z" fill="rgb(230,230,230)" transform="translate(0,0)"></path>
<path d="M 236.085 577.73 C 292.719 578.227 354.95 582.405 411.873 584.855 C 423.103 597.617 439.515 610.287 451.007 623.819 C 426.601 634.988 397.249 651.252 372.666 663.574 C 301.35 699.42 230.448 736.085 159.975 773.563 C 165.751 754.186 176.167 732.167 183.343 712.836 C 199.786 668.546 220.686 622.007 236.085 577.73 z" fill="rgb(230,230,230)" transform="translate(0,0)"></path>
<path d="M 1458.37 727.265 C 1465.16 738.542 1472.61 749.537 1479.38 760.898 C 1502.87 795.404 1644.23 1020.95 1645.97 1040.37 C 1643.17 1043.42 1644.69 1042.96 1641.6 1043.33 C 1620.55 1029.26 1598.72 1012.25 1578.16 997.221 L 1482.6 928.073 C 1461.24 912.464 1438.13 894.621 1416.54 879.72 C 1407.86 873.861 1399 867.275 1390.46 861.133 C 1415.96 816.527 1436.15 773.435 1458.37 727.265 z" fill="rgb(230,230,230)" transform="translate(0,0)"></path>
<path d="M 1458.37 727.265 C 1465.16 738.542 1472.61 749.537 1479.38 760.898 C 1476.6 764.805 1463.28 791.614 1460.33 797.581 C 1447.15 824.245 1429.12 853.464 1416.54 879.72 C 1407.86 873.861 1399 867.275 1390.46 861.133 C 1415.96 816.527 1436.15 773.435 1458.37 727.265 z" fill="rgb(199,198,199)" transform="translate(0,0)"></path>
<path d="M 527.027 591.488 C 532.199 600.796 538.693 616.602 543.19 626.722 C 553.573 650.56 564.255 674.266 575.232 697.836 C 562.978 700.544 550.354 703.537 538.015 705.66 C 527.291 708.265 513.95 710.437 502.813 712.738 C 473.832 718.897 444.79 724.761 415.691 730.33 C 330.918 746.95 238.524 764.495 154.989 783.873 C 163.937 777.397 177.23 770.362 187.274 765.384 C 287.851 715.541 386.934 660.94 487.771 611.741 L 527.027 591.488 z" fill="rgb(230,230,230)" transform="translate(0,0)"></path>
<path d="M 527.027 591.488 C 532.199 600.796 538.693 616.602 543.19 626.722 C 553.573 650.56 564.255 674.266 575.232 697.836 C 562.978 700.544 550.354 703.537 538.015 705.66 C 536.057 699.586 526.547 683.155 523.274 676.937 C 511.865 655.262 498.891 633.537 487.771 611.741 L 527.027 591.488 z" fill="rgb(199,198,199)" transform="translate(0,0)"></path>
<path d="M 588.655 729 C 607.814 768.034 625.874 807.235 647.676 844.929 C 650.633 850.042 654.217 856.083 656.589 861.448 C 643.66 871.096 630.649 880.995 617.361 890.109 C 564.843 927.99 513.386 967.631 460.458 1005.02 C 442.581 1017.65 424.69 1030.75 407.486 1044.27 L 401.353 1037.67 C 414.066 1013.09 434.425 980.537 448.811 956.208 C 486.127 893.229 524.403 830.824 563.624 769.014 C 570.315 757.068 580.768 740.308 588.655 729 z" fill="rgb(230,230,230)" transform="translate(0,0)"></path>
<path d="M 588.655 729 C 607.814 768.034 625.874 807.235 647.676 844.929 C 650.633 850.042 654.217 856.083 656.589 861.448 C 643.66 871.096 630.649 880.995 617.361 890.109 L 579.729 805.474 C 575.124 795.106 568.601 778.221 563.624 769.014 C 570.315 757.068 580.768 740.308 588.655 729 z" fill="rgb(199,198,199)" transform="translate(0,0)"></path>
<path d="M 1520.75 592.509 C 1531.74 597.657 1543.46 603.829 1554.37 609.314 C 1624.79 646.551 1700.53 684.053 1771.98 720.051 C 1798.57 733.172 1824.93 746.731 1851.07 760.724 C 1863.12 767.132 1879.98 775.612 1890.96 783.025 C 1840.36 773.027 1789.85 762.562 1739.43 751.631 L 1504.06 702.579 L 1472.03 696.388 L 1520.75 592.509 z" fill="rgb(230,230,230)" transform="translate(0,0)"></path>
<path d="M 1520.75 592.509 C 1531.74 597.657 1543.46 603.829 1554.37 609.314 C 1545.21 626.961 1535.63 644.387 1525.63 661.575 C 1521.41 668.982 1506.48 695.057 1504.06 702.579 L 1472.03 696.388 L 1520.75 592.509 z" fill="rgb(199,198,199)" transform="translate(0,0)"></path>
<path d="M 1464.03 499.572 C 1618.82 427.379 1774.28 356.646 1930.4 287.382 L 1929.74 290.851 C 1910.24 305.53 1886 321.239 1865.59 335.102 L 1744.69 416.618 L 1627.42 495.671 C 1603.85 511.52 1581.29 527.599 1556.93 542.254 C 1525.69 528.181 1495.53 513.451 1464.03 499.572 z" fill="rgb(236,170,92)" transform="translate(0,0)"></path>
<path d="M 113.235 285.845 C 118.538 286.577 158.61 304.818 165.792 307.988 C 233.14 338.17 300.336 368.693 367.376 399.555 L 509.307 464.424 C 528.44 473.212 567.547 489.985 584.569 500.376 C 576.113 504.728 565.389 509.491 556.666 513.623 L 493.531 544.099 C 469.015 529.511 435.949 505.533 411.579 488.925 L 264.143 388.504 C 231.256 365.821 198.167 343.43 164.882 321.335 C 150.229 311.463 126.254 296.678 113.235 285.845 z" fill="rgb(236,170,92)" transform="translate(0,0)"></path>
<path d="M 1451.98 1260.21 C 1492.09 1238.25 1542.39 1230.93 1587.68 1230.23 C 1624.24 1229.67 1651.08 1245.61 1647.56 1286.13 C 1645.09 1299.05 1640.44 1304.85 1631.91 1314.1 C 1623.42 1311.07 1616.32 1309.29 1607.28 1308.58 C 1547.32 1303.88 1483.62 1317.72 1436.65 1355.9 C 1414.71 1344.26 1401.95 1322.81 1410.49 1297.74 C 1416.31 1280.66 1436.25 1267.72 1451.98 1260.21 z" fill="rgb(236,170,92)" transform="translate(0,0)"></path>
<path d="M 1436.65 1355.9 C 1414.71 1344.26 1401.95 1322.81 1410.49 1297.74 C 1416.31 1280.66 1436.25 1267.72 1451.98 1260.21 C 1444.38 1274.23 1438.19 1295.85 1456 1305.34 C 1462.78 1308.95 1491.4 1300.33 1500.18 1298.18 C 1550.81 1285.8 1595.85 1285.75 1647.56 1286.13 C 1645.09 1299.05 1640.44 1304.85 1631.91 1314.1 C 1623.42 1311.07 1616.32 1309.29 1607.28 1308.58 C 1547.32 1303.88 1483.62 1317.72 1436.65 1355.9 z" fill="rgb(192,133,60)" transform="translate(0,0)"></path>
<path d="M 1578.55 1246.43 C 1588.84 1246.1 1621.85 1242.09 1617.69 1259.57 C 1610.93 1267.25 1591.17 1263.82 1580.86 1263.92 C 1549.17 1264.23 1520.6 1271.5 1490.71 1280.95 C 1481.56 1283.98 1467.42 1293.87 1460.19 1285.6 C 1457.33 1274.18 1469.02 1271.28 1478.25 1267.79 C 1510.39 1255.56 1544.22 1248.35 1578.55 1246.43 z" fill="rgb(254,225,175)" transform="translate(0,0)"></path>
<path d="M 417.485 1312.59 C 404.675 1301.12 399.474 1288.1 402.287 1270.7 C 404.415 1258.08 411.437 1246.81 421.827 1239.34 C 438.64 1227.24 471.771 1228.54 491.143 1231.93 C 533.647 1234.1 594.396 1250.86 625.413 1281.19 C 644.155 1299.52 641.518 1329.66 621.519 1346.94 C 617.699 1350.21 613.548 1353.06 609.135 1355.47 C 600.885 1349.27 595.058 1343.05 586.234 1337.32 C 529.774 1309.18 479.875 1301.5 417.485 1312.59 z" fill="rgb(236,170,92)" transform="translate(0,0)"></path>
<path d="M 417.485 1312.59 C 404.675 1301.12 399.474 1288.1 402.287 1270.7 C 404.415 1258.08 411.437 1246.81 421.827 1239.34 C 438.64 1227.24 471.771 1228.54 491.143 1231.93 C 479.672 1231.86 484.563 1232.03 476.616 1236.62 C 463.888 1243.97 453.324 1282.28 467.747 1290.52 C 495.375 1306.3 545.044 1301.32 572.833 1325.9 C 578.033 1330.51 582.734 1330.36 586.234 1337.32 C 529.774 1309.18 479.875 1301.5 417.485 1312.59 z" fill="rgb(192,133,60)" transform="translate(0,0)"></path>
<path d="M 563.103 1262.77 C 579.333 1263.57 612.811 1281.97 617.855 1298.52 L 619.556 1304.28 C 616.856 1314.52 616.494 1316.92 608.995 1324.63 C 603.702 1325.99 599.951 1325.23 597.968 1319.5 C 596.566 1315.45 601.807 1309.07 603.856 1305.9 C 592.808 1290.82 579.312 1286.57 563.422 1278.1 C 555.746 1274.01 559.043 1267.86 563.103 1262.77 z" fill="rgb(254,225,175)" transform="translate(0,0)"></path>
<path d="M 410.115 1049.52 C 426.412 1035.18 453.633 1017.47 472.154 1004.04 C 513.443 974.229 554.519 944.128 595.38 913.736 C 605.884 925.601 633.09 953.841 640.296 964.925 C 610.078 989.54 572.619 1029.32 550.61 1061.13 C 534.966 1058.64 514.417 1057.5 498.491 1056.24 L 410.115 1049.52 z" fill="rgb(230,230,230)" transform="translate(0,0)"></path>
<path d="M 1460.69 503.562 C 1484.79 515.002 1514.22 530.088 1538.18 540.166 L 1473.46 679.627 C 1460.79 707.296 1446.68 740.797 1432.6 767.301 C 1430.48 763.233 1431.07 749.135 1430.31 743.938 C 1427.69 725.998 1425.77 668.424 1420 654.496 C 1430.6 621.983 1439.9 589.058 1447.87 555.802 C 1451.99 539.22 1455.98 519.696 1460.69 503.562 z" fill="rgb(230,230,230)" transform="translate(0,0)"></path>
<path d="M 1454.43 914.857 C 1495.75 945.612 1538.3 975.201 1579.68 1005.9 C 1598.34 1019.74 1621.17 1035.08 1638.74 1049.73 C 1605.58 1051.27 1572.51 1054.81 1539.43 1057.48 C 1528.16 1058.4 1516.95 1059.66 1505.78 1061.41 C 1478.53 1023.69 1450.87 990.89 1415.14 960.681 C 1428.59 945.984 1440.94 929.885 1454.43 914.857 z" fill="rgb(230,230,230)" transform="translate(0,0)"></path>
<path d="M 1262.01 877.111 C 1275.91 868.314 1292.36 861.458 1306.73 853.415 C 1341.77 833.798 1369.05 806.903 1381.08 767.871 C 1385.95 754.015 1385.58 739.089 1389.36 725.006 C 1391.02 720.016 1393.54 715.079 1396.01 710.457 C 1405.65 692.384 1412.86 673.693 1420 654.496 C 1425.77 668.424 1427.69 725.998 1430.31 743.938 C 1431.07 749.135 1430.48 763.233 1432.6 767.301 C 1431.26 771.676 1414.78 804.771 1412.18 809.317 C 1406.9 818.513 1391.11 851.146 1385.93 857.937 C 1377.05 869.561 1342.79 894.124 1330.27 903.595 C 1305.88 892.436 1287.96 884.238 1262.01 877.111 z" fill="rgb(199,198,199)" transform="translate(0,0)"></path>
<path d="M 1266.78 241.193 C 1283.17 227.24 1295.7 214.362 1307.73 196.381 L 1308.69 194.914 L 1309.7 193.435 C 1312.29 195.987 1324.94 207.483 1326.22 209.003 C 1336.79 217.802 1348.08 225.704 1359.96 232.627 C 1360.38 232.886 1360.8 233.145 1361.22 233.404 L 1362 233.803 C 1368.57 237.213 1372.5 239.12 1379.15 242.31 C 1394.31 248.119 1404.95 250.997 1421.25 252.286 C 1416.2 277.521 1412.02 292.378 1400.18 315.651 C 1381.66 311.559 1368.92 308.857 1350.61 302.672 C 1343.33 299.221 1334.2 294.75 1327.07 291.528 C 1317.7 286.767 1298.57 272.626 1290.76 265.393 C 1283.53 258.844 1274.02 250.48 1268.07 242.783 L 1266.78 241.193 z" fill="rgb(236,170,92)" transform="translate(0,0)"></path>
<path d="M 1379.15 242.31 C 1394.31 248.119 1404.95 250.997 1421.25 252.286 C 1416.2 277.521 1412.02 292.378 1400.18 315.651 C 1381.66 311.559 1368.92 308.857 1350.61 302.672 C 1363.07 283.03 1369.64 262.931 1379.15 242.31 z" fill="rgb(236,170,92)" transform="translate(0,0)"></path>
<path d="M 1266.78 241.193 C 1283.17 227.24 1295.7 214.362 1307.73 196.381 L 1308.69 194.914 L 1309.7 193.435 C 1312.29 195.987 1324.94 207.483 1326.22 209.003 C 1323.22 212.084 1313.84 229.887 1310.85 235.001 C 1305.5 244.249 1299.69 253.224 1293.45 261.891 C 1292.6 263.062 1291.65 264.248 1290.76 265.393 C 1283.53 258.844 1274.02 250.48 1268.07 242.783 L 1266.78 241.193 z" fill="rgb(192,133,60)" transform="translate(0,0)"></path>
<path d="M 1361.22 233.404 L 1362 233.803 C 1368.57 237.213 1372.5 239.12 1379.15 242.31 C 1369.64 262.931 1363.07 283.03 1350.61 302.672 C 1343.33 299.221 1334.2 294.75 1327.07 291.528 C 1329.22 285.715 1335.86 277.039 1339.54 271.544 C 1347.82 259.166 1354.05 246.316 1361.22 233.404 z" fill="rgb(251,211,160)" transform="translate(0,0)"></path>
<path d="M 737.498 192.044 C 751.304 214.12 759.69 222.919 779.605 239.824 C 763.957 256.394 737.493 279.575 717.201 290.054 C 711.268 293.452 704.944 296.454 698.889 299.635 C 684.895 307.094 662.014 312.064 646.691 315.662 C 636.801 295.238 632.725 275.863 629.21 253.835 C 646.153 249.424 655.576 246.044 671.539 239.789 C 676.35 237.229 682.096 234.256 686.722 231.46 C 698.098 224.09 708.33 217.652 718.629 208.619 C 724.881 203.135 731.081 197.23 737.498 192.044 z" fill="rgb(236,170,92)" transform="translate(0,0)"></path>
<path d="M 629.21 253.835 C 646.153 249.424 655.576 246.044 671.539 239.789 C 674.923 256.56 689.565 284.728 698.889 299.635 C 684.895 307.094 662.014 312.064 646.691 315.662 C 636.801 295.238 632.725 275.863 629.21 253.835 z" fill="rgb(192,133,60)" transform="translate(0,0)"></path>
<path d="M 671.539 239.789 C 676.35 237.229 682.096 234.256 686.722 231.46 C 691.895 243.582 698.037 255.786 704.26 267.388 C 708.648 275.567 713.505 281.357 717.201 290.054 C 711.268 293.452 704.944 296.454 698.889 299.635 C 689.565 284.728 674.923 256.56 671.539 239.789 z" fill="rgb(251,211,160)" transform="translate(0,0)"></path>
<path d="M 1331.24 136.414 C 1334.31 138.439 1340.95 142.204 1343.38 144.061 C 1356.98 150.518 1365.3 151.434 1378.75 155.731 L 1379.96 155.81 C 1392.21 157.615 1396.77 158.501 1409.27 156.959 C 1420.6 187.448 1423.46 215.178 1421.59 247.373 C 1416.37 246.695 1411.18 245.873 1406.01 244.908 C 1398.62 243.566 1386.48 240.007 1379.72 236.833 C 1372.69 233.533 1368.76 231.897 1362.15 227.553 C 1354.82 223.516 1345.63 216.932 1339.08 211.828 C 1335.52 209.103 1332.06 206.262 1328.69 203.308 C 1321.4 196.961 1319.24 194.594 1312.95 187.529 C 1320.74 172.635 1326.23 159.634 1329.84 142.988 L 1331.24 136.414 z" fill="rgb(230,230,230)" transform="translate(0,0)"></path>
<path d="M 1331.24 136.414 C 1334.31 138.439 1340.95 142.204 1343.38 144.061 C 1356.98 150.518 1365.3 151.434 1378.75 155.731 C 1377.85 156.243 1376.03 157.165 1376.05 158.467 C 1376.52 184.338 1368.79 203.248 1362.15 227.553 C 1354.82 223.516 1345.63 216.932 1339.08 211.828 C 1335.52 209.103 1332.06 206.262 1328.69 203.308 C 1321.4 196.961 1319.24 194.594 1312.95 187.529 C 1320.74 172.635 1326.23 159.634 1329.84 142.988 L 1331.24 136.414 z" fill="rgb(230,230,230)" transform="translate(0,0)"></path>
<path d="M 1331.24 136.414 C 1334.31 138.439 1340.95 142.204 1343.38 144.061 L 1342.82 147.998 C 1339.54 170.018 1335.08 182.711 1328.69 203.308 C 1321.4 196.961 1319.24 194.594 1312.95 187.529 C 1320.74 172.635 1326.23 159.634 1329.84 142.988 L 1331.24 136.414 z" fill="rgb(199,198,199)" transform="translate(0,0)"></path>
<path d="M 1378.75 155.731 L 1379.96 155.81 C 1382.21 180.799 1386.65 203.486 1380.81 228.491 C 1380.16 231.281 1379.94 233.982 1379.72 236.833 C 1372.69 233.533 1368.76 231.897 1362.15 227.553 C 1368.79 203.248 1376.52 184.338 1376.05 158.467 C 1376.03 157.165 1377.85 156.243 1378.75 155.731 z" fill="rgb(255,255,255)" transform="translate(0,0)"></path>
<path d="M 670.125 154.784 C 671.752 154.254 673.301 153.976 674.99 153.691 L 679.493 152.927 C 694.032 150.478 705.581 144.53 718.661 138.49 C 721.211 158.104 726.548 168.925 734.362 186.456 C 721.309 199.52 700.308 218.446 683.715 226.791 C 678.938 229.625 675.107 231.491 670.185 233.905 C 660.606 239.471 639.484 245.324 628.57 247.849 C 626.263 216.596 629.524 187.074 639.021 157.169 L 639.545 155.399 C 647.88 155.722 660.404 155.456 668.684 154.604 L 670.125 154.784 z" fill="rgb(199,198,199)" transform="translate(0,0)"></path>
<path d="M 670.125 154.784 C 671.752 154.254 673.301 153.976 674.99 153.691 L 679.493 152.927 C 694.032 150.478 705.581 144.53 718.661 138.49 C 721.211 158.104 726.548 168.925 734.362 186.456 C 721.309 199.52 700.308 218.446 683.715 226.791 C 677.713 214.54 677.619 173.501 674.508 158.246 C 673.977 155.643 673.993 155.325 671.566 155.012 L 670.125 154.784 z" fill="rgb(230,230,230)" transform="translate(0,0)"></path>
<path d="M 668.684 154.604 L 670.125 154.784 L 671.566 155.012 C 673.993 155.325 673.977 155.643 674.508 158.246 C 677.619 173.501 677.713 214.54 683.715 226.791 C 678.938 229.625 675.107 231.491 670.185 233.905 C 664.493 217.88 664.673 171.094 668.684 154.604 z" fill="rgb(255,255,255)" transform="translate(0,0)"></path>
<path d="M 701.395 304.887 C 708.242 301.265 715.775 297.688 722.395 293.662 C 730.412 302.195 736.045 309.133 744.951 317.515 C 750.821 323.04 767.762 336.276 770.774 341.304 C 765.866 345.774 759.514 351.686 754.134 355.522 C 737.748 369.047 716.151 381.889 697.262 391.24 C 680.237 371.732 659.466 344.521 649.149 320.769 C 669.358 315.762 681.987 312.499 701.395 304.887 z" fill="rgb(199,198,199)" transform="translate(0,0)"></path>
<path d="M 701.395 304.887 C 708.242 301.265 715.775 297.688 722.395 293.662 C 730.412 302.195 736.045 309.133 744.951 317.515 C 750.821 323.04 767.762 336.276 770.774 341.304 C 765.866 345.774 759.514 351.686 754.134 355.522 C 739.36 347.046 711.311 319.101 701.395 304.887 z" fill="rgb(255,255,255)" transform="translate(0,0)"></path>
<path d="M 1322.86 295.909 C 1330.02 299.811 1337.76 303.33 1345.21 306.65 C 1363.82 313.609 1377.92 317.714 1397.79 320.615 C 1384.17 345.589 1365.14 370.305 1346.66 391.921 C 1329.1 384.214 1309.2 371.791 1294.41 359.495 C 1287.13 353.65 1281.91 349.244 1275.12 342.772 C 1279.41 336.602 1283.65 332.697 1289.48 327.931 C 1301.36 318.205 1311.49 305.964 1322.86 295.909 z" fill="rgb(230,230,230)" transform="translate(0,0)"></path>
<path d="M 1322.86 295.909 C 1330.02 299.811 1337.76 303.33 1345.21 306.65 C 1338.77 322.604 1310.07 352.514 1294.41 359.495 C 1287.13 353.65 1281.91 349.244 1275.12 342.772 C 1279.41 336.602 1283.65 332.697 1289.48 327.931 C 1301.36 318.205 1311.49 305.964 1322.86 295.909 z" fill="rgb(255,255,255)" transform="translate(0,0)"></path>
<path d="M 595.38 913.736 C 616.012 898.097 639.626 880.702 660.97 866.065 L 717.401 909.728 C 688.083 927.362 666.527 942.953 640.296 964.925 C 633.09 953.841 605.884 925.601 595.38 913.736 z" fill="rgb(199,198,199)" transform="translate(0,0)"></path>
<path d="M 1387.21 865.782 C 1409.92 881.722 1432.33 898.084 1454.43 914.857 C 1440.94 929.885 1428.59 945.984 1415.14 960.681 C 1396.46 943.467 1357.88 918.696 1335.46 906.814 C 1351.07 892.932 1369.85 881.41 1387.21 865.782 z" fill="rgb(199,198,199)" transform="translate(0,0)"></path>
<path d="M 722.395 293.662 C 741.613 281.876 769.237 261.423 783.477 243.393 C 799.593 255.119 809.88 262.436 827.37 272.343 C 818.069 290.801 787.86 328.366 770.774 341.304 C 767.762 336.276 750.821 323.04 744.951 317.515 C 736.045 309.133 730.412 302.195 722.395 293.662 z" fill="rgb(230,230,230)" transform="translate(0,0)"></path>
<path d="M 1262.34 244.938 C 1270.54 253.501 1277.75 260.862 1286.26 269.154 C 1299.49 280.118 1307.82 287.016 1322.86 295.909 C 1311.49 305.964 1301.36 318.205 1289.48 327.931 C 1283.65 332.697 1279.41 336.602 1275.12 342.772 C 1263.66 332.196 1252.99 320.795 1243.19 308.661 C 1234.04 297.385 1226.56 285.753 1219.98 272.863 C 1235.1 263.556 1247.91 255.552 1262.34 244.938 z" fill="rgb(230,230,230)" transform="translate(0,0)"></path>
<path d="M 1262.34 244.938 C 1270.54 253.501 1277.75 260.862 1286.26 269.154 C 1282.4 271.569 1246.51 304.872 1243.19 308.661 C 1234.04 297.385 1226.56 285.753 1219.98 272.863 C 1235.1 263.556 1247.91 255.552 1262.34 244.938 z" fill="rgb(199,198,199)" transform="translate(0,0)"></path>
<path d="M 1966.31 224.197 C 1984.66 223.508 2000.21 237.586 2001.34 255.914 C 2002.47 274.242 1988.77 290.125 1970.48 291.699 C 1958.24 292.751 1946.4 287.091 1939.53 276.91 C 1932.67 266.73 1931.86 253.628 1937.42 242.68 C 1942.98 231.732 1954.04 224.658 1966.31 224.197 z" fill="rgb(236,170,92)" transform="translate(0,0)"></path>
<path d="M 1952.66 234.006 C 1969.69 235.821 1974.76 249.756 1961.61 258.197 C 1942.03 258.258 1939.42 240.73 1952.66 234.006 z" fill="rgb(254,225,175)" transform="translate(0,0)"></path>
<path d="M 77.3343 224.729 C 95.6797 222.079 112.724 234.735 115.494 253.062 C 118.263 271.39 105.719 288.516 87.4103 291.406 C 68.9312 294.322 51.6107 281.636 48.8154 263.138 C 46.0201 244.641 58.8187 227.403 77.3343 224.729 z" fill="rgb(236,170,92)" transform="translate(0,0)"></path>
<path d="M 90.1577 234.447 C 94.365 232.688 99.1929 233.329 102.796 236.124 C 106.398 238.92 108.219 243.437 107.561 247.949 C 106.903 252.461 103.868 256.271 99.6174 257.921 C 93.1606 260.427 85.8885 257.278 83.2997 250.853 C 80.7109 244.429 83.7672 237.117 90.1577 234.447 z" fill="rgb(254,225,175)" transform="translate(0,0)"></path>
<path d="M 689.522 95.0628 C 700.665 95.0075 708.495 94.1462 719.415 92.7115 C 718.179 108.609 716.909 115.59 717.917 132.043 C 701.065 141.756 689.552 145.404 670.345 148.658 C 660.915 149.492 651.439 149.679 641.984 149.216 C 648.197 133.008 661.641 109.171 671.538 94.7486 C 678.891 95.3021 682.095 95.4003 689.522 95.0628 z" fill="rgb(236,170,92)" transform="translate(0,0)"></path>
<path d="M 671.538 94.7486 C 678.891 95.3021 682.095 95.4003 689.522 95.0628 L 688.649 95.619 C 684.657 98.0847 671.559 141.227 670.345 148.658 C 660.915 149.492 651.439 149.679 641.984 149.216 C 648.197 133.008 661.641 109.171 671.538 94.7486 z" fill="rgb(192,133,60)" transform="translate(0,0)"></path>
<path d="M 776.181 344.46 C 785.176 345.787 789.366 347.586 793.433 356.166 C 787.233 362.211 783.061 366.637 777.463 373.162 C 775.365 376.669 766.69 387.605 763.745 391.834 C 754.288 405.416 747.772 416.538 740.107 431.112 C 725.425 418.954 715.229 409.21 701.527 395.985 C 705.797 393.378 710.711 390.57 715.159 388.269 C 730.919 380.117 744.209 369.383 758.608 359.354 C 764.635 354.592 770.496 349.625 776.181 344.46 z" fill="rgb(192,133,60)" transform="translate(0,0)"></path>
<path d="M 776.181 344.46 C 785.176 345.787 789.366 347.586 793.433 356.166 C 787.233 362.211 783.061 366.637 777.463 373.162 C 770.826 368.758 765.886 366.148 759.955 360.597 L 758.608 359.354 C 764.635 354.592 770.496 349.625 776.181 344.46 z" fill="rgb(251,211,160)" transform="translate(0,0)"></path>
<path d="M 1330.79 99.8009 C 1329.72 88.5967 1330.79 94.5205 1341.12 95.3045 L 1342.26 95.8388 C 1349.92 97.7347 1358.19 99.7196 1366 100.707 C 1371.45 101.396 1376.2 100.856 1381.77 101.972 L 1383.24 104.387 C 1397 126.953 1397.08 129.325 1407.47 152.129 C 1394.52 152.193 1388.09 151.553 1375.45 148.58 L 1372.93 147.861 C 1364.36 145.693 1350.88 142.256 1343.32 137.507 C 1338.58 133.978 1336.45 132.739 1331.32 129.97 C 1331.77 119.196 1331.73 110.623 1330.79 99.8009 z" fill="rgb(236,170,92)" transform="translate(0,0)"></path>
<path d="M 1381.77 101.972 L 1383.24 104.387 C 1397 126.953 1397.08 129.325 1407.47 152.129 C 1394.52 152.193 1388.09 151.553 1375.45 148.58 C 1379.49 144.505 1374.97 132.858 1373.81 127.025 L 1372.79 122.532 C 1371.92 118.798 1370.6 115.074 1370.18 111.257 L 1369.96 109.578 C 1369.71 108.035 1368.11 104.024 1369.75 102.829 C 1372.12 102.975 1379.39 102.255 1381.77 101.972 z" fill="rgb(236,170,92)" transform="translate(0,0)"></path>
<path d="M 1330.79 99.8009 C 1329.72 88.5967 1330.79 94.5205 1341.12 95.3045 L 1342.26 95.8388 C 1342.34 107.675 1342.84 125.568 1343.32 137.507 C 1338.58 133.978 1336.45 132.739 1331.32 129.97 C 1331.77 119.196 1331.73 110.623 1330.79 99.8009 z" fill="rgb(192,133,60)" transform="translate(0,0)"></path>
<path d="M 1330.79 99.8009 C 1329.72 88.5967 1330.79 94.5205 1341.12 95.3045 C 1336.58 98.4296 1336.28 98.0087 1330.79 99.8009 z" fill="rgb(192,133,60)" transform="translate(0,0)"></path>
<path d="M 1372.93 147.861 C 1372.7 143.49 1366.73 105.963 1366.64 106.117 L 1366.97 106.103 C 1367.63 106.452 1369.29 108.835 1369.96 109.578 L 1370.18 111.257 C 1370.6 115.074 1371.92 118.798 1372.79 122.532 L 1373.81 127.025 C 1374.97 132.858 1379.49 144.505 1375.45 148.58 L 1372.93 147.861 z" fill="rgb(251,211,160)" transform="translate(0,0)"></path>
<path d="M 832.768 275.037 C 837.142 277.198 841.537 279.283 845.993 281.27 C 892.853 302.163 874.978 297.483 845.594 315.976 C 826.955 327.664 809.487 341.123 793.433 356.166 C 789.366 347.586 785.176 345.787 776.181 344.46 L 777.549 343.121 C 802.15 319.323 815.185 303.885 832.768 275.037 z" fill="rgb(236,170,92)" transform="translate(0,0)"></path>
<path d="M 1288.88 362.74 C 1307.12 374.572 1321.07 386.133 1341.37 396.187 C 1329.64 408.169 1317.62 419.853 1305.3 431.227 C 1295.72 411.799 1282.95 392.806 1269.41 375.936 C 1276.91 371.817 1282.29 368.359 1288.88 362.74 z" fill="rgb(236,170,92)" transform="translate(0,0)"></path>
<path d="M 1630.6 585.216 C 1625.67 593.629 1620.23 601.979 1614.42 609.811 L 1611.42 613.777 C 1607.95 618.14 1604.93 622.411 1601.69 626.916 C 1580.56 617.698 1550.62 600.967 1529.15 590.226 L 1594 587.173 C 1606 586.675 1618.63 586.628 1630.6 585.216 z" fill="rgb(199,198,199)" transform="translate(0,0)"></path>
<path d="M 411.873 584.855 C 447.307 586.434 482.762 587.512 518.226 588.089 C 503.448 598.246 468.192 615.081 451.007 623.819 C 439.515 610.287 423.103 597.617 411.873 584.855 z" fill="rgb(199,198,199)" transform="translate(0,0)"></path>
<path d="M 1212.8 325.416 C 1207.61 322.978 1187.29 308.671 1179.78 305.221 C 1178.93 304.745 1179.1 303.608 1178.94 303.012 C 1176 291.893 1186.36 288.984 1194.51 285.228 C 1201.54 281.989 1208.05 278.894 1214.9 275.963 C 1222.05 288.023 1229.48 298.642 1237.28 310.147 C 1235.07 311.201 1214.43 323.951 1212.8 325.416 z" fill="rgb(192,133,60)" transform="translate(0,0)"></path>
<path d="M 125.494 768.421 C 133.424 766.785 141.619 769.572 146.907 775.705 C 152.195 781.838 153.746 790.354 150.96 797.957 C 148.174 805.561 141.489 811.059 133.49 812.324 C 121.516 814.218 110.219 806.206 108.047 794.279 C 105.874 782.351 113.62 770.871 125.494 768.421 z" fill="rgb(236,170,92)" transform="translate(0,0)"></path>
<path d="M 128.028 775.321 C 131.985 773.723 136.49 775.613 138.124 779.555 C 139.758 783.497 137.911 788.019 133.984 789.69 C 130.006 791.382 125.41 789.505 123.755 785.511 C 122.099 781.517 124.019 776.939 128.028 775.321 z" fill="rgb(254,225,175)" transform="translate(0,0)"></path>
<path d="M 1918.31 768.048 C 1930.37 766.782 1941.21 775.466 1942.6 787.517 C 1944 799.568 1935.43 810.495 1923.39 812.016 C 1915.49 813.015 1907.67 809.693 1902.9 803.317 C 1898.13 796.94 1897.15 788.493 1900.34 781.196 C 1903.53 773.9 1910.39 768.879 1918.31 768.048 z" fill="rgb(236,170,92)" transform="translate(0,0)"></path>
<path d="M 1915.49 774.526 C 1919.8 773.408 1924.21 776.006 1925.32 780.325 C 1926.43 784.644 1923.83 789.045 1919.51 790.149 C 1915.19 791.25 1910.81 788.652 1909.7 784.343 C 1908.59 780.034 1911.18 775.642 1915.49 774.526 z" fill="rgb(254,225,175)" transform="translate(0,0)"></path>
<path d="M 1328.86 86.3198 C 1326.51 76.876 1324.43 67.6821 1320.72 58.5883 C 1319.17 54.8072 1310.48 39.7838 1319.97 39.3787 C 1323.14 39.2431 1340.01 52.3683 1342.21 55.1537 C 1354.39 65.1229 1368.39 82.6267 1377.6 95.6348 C 1371.89 95.1597 1367.23 95.0821 1361.5 94.2296 C 1350.22 91.8553 1339.87 90.0566 1328.86 86.3198 z" fill="url(#Gradient1)" transform="translate(0,0)"></path>
<path d="M 1342.21 55.1537 C 1354.39 65.1229 1368.39 82.6267 1377.6 95.6348 C 1371.89 95.1597 1367.23 95.0821 1361.5 94.2296 C 1357.48 79.6959 1347.83 72.5826 1341.29 59.4562 C 1340.58 58.0444 1341.57 56.3205 1342.21 55.1537 z" fill="rgb(255,255,255)" transform="translate(0,0)"></path>
<path d="M 379.85 1037.78 C 391.465 1035.42 402.829 1042.79 405.429 1054.35 C 408.029 1065.91 400.911 1077.43 389.408 1080.27 C 381.745 1082.17 373.656 1079.77 368.265 1074.01 C 362.873 1068.24 361.022 1060.01 363.426 1052.49 C 365.83 1044.97 372.114 1039.34 379.85 1037.78 z" fill="rgb(236,170,92)" transform="translate(0,0)"></path>
<path d="M 376.978 1042.59 C 380.296 1041.28 384.066 1041.88 386.807 1044.16 C 389.549 1046.45 390.824 1050.05 390.133 1053.55 C 389.442 1057.05 386.894 1059.89 383.49 1060.96 C 378.482 1062.54 373.125 1059.87 371.371 1054.92 C 369.617 1049.97 372.095 1044.52 376.978 1042.59 z" fill="rgb(254,225,175)" transform="translate(0,0)"></path>
<path d="M 1664.38 1037.53 C 1676.14 1036.97 1686.2 1045.9 1687.04 1057.64 C 1687.89 1069.39 1679.2 1079.66 1667.48 1080.78 C 1659.64 1081.53 1652.02 1077.98 1647.55 1071.49 C 1643.09 1065.01 1642.48 1056.62 1645.98 1049.56 C 1649.47 1042.51 1656.52 1037.9 1664.38 1037.53 z" fill="rgb(236,170,92)" transform="translate(0,0)"></path>
<path d="M 1666.45 1041.64 C 1669.85 1040.52 1673.6 1041.32 1676.25 1043.73 C 1678.9 1046.14 1680.05 1049.79 1679.25 1053.29 C 1678.45 1056.78 1675.84 1059.58 1672.4 1060.6 C 1667.2 1062.15 1661.71 1059.23 1660.08 1054.05 C 1658.46 1048.87 1661.29 1043.34 1666.45 1041.64 z" fill="rgb(254,225,175)" transform="translate(0,0)"></path>
<path d="M 674.637 90.8773 C 688.091 73.1018 708.044 49.1398 728.527 39.9054 C 738.537 45.9859 728.38 55.048 725.73 65.7314 C 723.788 73.5608 721.71 80.0158 719.981 88.1011 C 710.047 88.9908 701.685 88.8307 691.867 89.3903 C 689.732 90.0981 677.643 90.6548 674.637 90.8773 z" fill="rgb(255,255,255)" transform="translate(0,0)"></path>
<path d="M 674.637 90.8773 C 688.091 73.1018 708.044 49.1398 728.527 39.9054 C 726.156 44.8811 723.058 47.6491 719.143 52.0115 C 709.591 62.6564 697.905 76.4557 691.867 89.3903 C 689.732 90.0981 677.643 90.6548 674.637 90.8773 z" fill="rgb(199,198,199)" transform="translate(0,0)"></path>
<path d="M 1212.8 325.416 C 1214.43 323.951 1235.07 311.201 1237.28 310.147 C 1247.29 323.154 1256.25 332.05 1267.57 343.77 C 1262.58 345.743 1253.68 351.444 1250.28 355.679 C 1236.38 343.047 1228.18 336.472 1212.8 325.416 z" fill="rgb(236,170,92)" transform="translate(0,0)"></path>
<path d="M 1267.57 343.77 C 1274.42 350.363 1281.53 356.691 1288.88 362.74 C 1282.29 368.359 1276.91 371.817 1269.41 375.936 C 1262.6 368.319 1257.9 362.982 1250.28 355.679 C 1253.68 351.444 1262.58 345.743 1267.57 343.77 z" fill="rgb(251,211,160)" transform="translate(0,0)"></path>
<path d="M 1847.07 780.464 C 1858.45 782.244 1871.85 784.867 1882.92 787.781 C 1873.94 792.095 1859.51 798.72 1850.06 801.799 C 1849.55 793.072 1847.83 788.35 1847.07 780.464 z" fill="rgb(199,198,199)" transform="translate(0,0)"></path>
<path d="M 1930.4 287.382 C 1933.8 285.404 1937.16 284.543 1940.89 283.341 C 1937.16 285.828 1933.47 288.394 1929.74 290.851 L 1930.4 287.382 z" fill="rgb(192,133,60)" transform="translate(0,0)"></path>
<metadata><recraft-signature>{"signed_by": "recraft", "signature_b64": "ae2FbWuLP/ulQjqtpXqSnAt7L5OsHtsn4TZH+cs22MZTNhT4750CpfCnBgY+nKzKHlZnPK6uFxfbg5Xti85FBQ==", "signing_algo": "Ed25519", "generation_timestamp": 1778553447, "identifier": "0b0bb840-1e20-475e-9df0-c36a2d4d0579"}</recraft-signature></metadata></svg>