<svg xmlns="http://www.w3.org/2000/svg" height="1024" preserveAspectRatio="none" style="display: block;" version="1.1" viewBox="0 0 2048 2048" width="1024">
<defs>
	<linearGradient gradientUnits="userSpaceOnUse" id="Gradient1" x1="801.076" x2="785.101" y1="794.684" y2="797.022">
		<stop class="stop0" offset="0" stop-color="rgb(56,57,50)" stop-opacity="1"></stop>
		<stop class="stop1" offset="1" stop-color="rgb(17,66,74)" stop-opacity="1"></stop>
	</linearGradient>
</defs>

<path d="M 746.488 220.904 C 748.096 185.087 744.238 137.415 709.669 116.865 C 702.584 112.654 686.006 110.26 688.983 100.283 C 695.771 92.8279 712.64 90.3106 722.481 89.6408 C 748.598 87.9573 774.299 96.8117 793.837 114.224 C 815.934 133.609 825.714 156.821 827.592 185.633 C 870.218 169.629 927.462 158.577 972.165 151.799 C 1014.67 146.282 1063.47 146.2 1106.2 148.905 C 1115.17 149.472 1135.87 150.727 1144.36 152.453 C 1191.91 159.432 1234.23 167.925 1279.85 184.263 C 1281.8 156.846 1294.6 131.337 1315.42 113.391 C 1338.17 93.9178 1362.92 87.7855 1392.48 90.4727 C 1399 91.0659 1410.04 91.9757 1414.49 97.3126 C 1416.48 99.697 1416.06 99.7516 1416.43 102.618 C 1412.74 110.637 1398.86 114.161 1392.63 119.216 C 1363.79 142.637 1360.47 186.635 1361.25 219.085 C 1372.72 225.593 1416.53 252.548 1424.36 261.249 C 1429.38 265.241 1436.77 270.741 1441.39 274.837 C 1496.75 324.54 1538.18 384.234 1556.58 457.175 C 1560.52 472.782 1560.83 485.881 1563.37 501.086 C 1569.4 543.673 1557.04 596.286 1541.76 635.854 C 1536.89 647.216 1523.5 674.682 1515.3 683.22 C 1508.86 691.692 1502.36 700.492 1495.6 708.68 C 1485.37 721.731 1459.11 748.563 1445.56 757.582 C 1438.34 763.136 1431.07 768.615 1423.74 774.018 C 1415.12 781.013 1403.58 787.736 1393.93 793.311 C 1380.08 800.665 1361.63 811.009 1346.55 813.4 C 1345.53 817.432 1344.17 821.369 1342.48 825.168 C 1338.89 833.261 1334.45 842.412 1328.62 849.107 C 1319.53 865.938 1284.38 890.164 1267.39 899.373 C 1277.74 912.809 1285.11 926.507 1293.95 940.873 C 1296.63 945.23 1299.72 951.735 1302.41 955.377 C 1305.13 959.014 1306.52 963.587 1308.95 965.619 C 1306.84 967.914 1324.88 999.939 1327.24 1003.08 C 1332.67 1013.97 1337.58 1024.9 1342.65 1035.92 C 1349.23 1049.95 1354.54 1062.06 1359.53 1076.87 L 1362.88 1083.51 C 1363.48 1089.03 1365.28 1095.04 1366.69 1100.47 C 1382.47 1164.83 1379.12 1239.72 1302.56 1256.62 C 1294.64 1258.36 1286.57 1259.64 1278.55 1260.84 C 1290.3 1279.33 1294.44 1288.38 1304.33 1307.61 C 1318.65 1338.9 1328.92 1371.04 1342.26 1401.61 C 1348.61 1415.04 1355.54 1433.81 1360.5 1447.89 C 1374.78 1501.61 1392.16 1516.75 1373.56 1571.27 C 1370.19 1584.28 1347.85 1635.46 1338.55 1642.5 C 1333.98 1649.94 1320.54 1671.02 1314.84 1676.21 C 1295.83 1704.36 1277.38 1731.96 1260.35 1761.43 C 1258.05 1765.96 1255.08 1771.44 1253.14 1776.03 C 1251.36 1781.99 1245.26 1794.47 1241.33 1799.08 C 1237.17 1806.03 1235.68 1808.93 1232.6 1816.41 C 1227.62 1813.89 1222.29 1810.71 1217.45 1807.88 C 1182.73 1787.6 1144.01 1776.96 1105.07 1768.69 C 1104.77 1754.44 1104.57 1741 1103.55 1726.77 C 1102.43 1724.54 1101.18 1688.26 1100.97 1683.67 C 1101.18 1678.41 1100.96 1671.66 1100.94 1666.28 C 1100.91 1659.47 1100.69 1652.67 1100.26 1645.87 C 1098.47 1611.12 1096.15 1484.28 1072.81 1463.6 C 1070.85 1461.87 1068.52 1460.66 1065.84 1460.76 C 1061.6 1460.92 1057.81 1464.03 1055.37 1467.26 C 1036.4 1492.36 1032.28 1617.85 1028.78 1655.93 L 1027.7 1666.7 C 1027.17 1673.69 1026.72 1680.68 1026.35 1687.68 C 1026.08 1693.34 1025.03 1724.19 1023.58 1726.77 C 1022.75 1740.44 1021.4 1755.63 1020.98 1769.14 C 981.154 1775.54 943.841 1789.18 909.168 1809.62 C 906.339 1811.29 897.807 1817.02 895.053 1816.88 C 891.832 1811.21 888.746 1804.7 885.812 1798.81 C 882.7 1793.91 876.135 1780.8 873.914 1775.72 C 872.525 1771.84 869.166 1765.78 867.185 1761.91 C 862.612 1752.77 853.356 1733.71 847.784 1725.86 C 845.511 1717.45 825.384 1685.8 820.108 1677.34 C 812.123 1667.96 804.684 1657.98 797.191 1648.19 L 794.16 1644.96 C 776.092 1625.12 757.473 1589.52 749.993 1563.93 C 735.742 1519.79 749.594 1490.24 764.307 1448.02 C 769.077 1434.76 775.649 1414.65 781.321 1402.28 C 785.628 1392.97 791.438 1375.83 795.451 1365.59 C 802.807 1347.16 810.6 1328.91 818.824 1310.86 C 825.968 1292.9 837.727 1277.38 844.781 1261.04 C 754.12 1247.73 743.214 1178.71 764.434 1101.41 C 765.539 1097.09 766.596 1092.76 767.606 1088.41 L 771.38 1080.41 C 776.21 1066.76 781.332 1053.22 786.743 1039.79 C 791.571 1027.47 795.947 1016.33 801.504 1004.32 C 803.834 1001.08 818.288 967.034 821.308 960.395 C 823.158 957.033 825.06 954.053 827.107 950.807 C 838.001 930.014 847.465 915.548 858.955 896.023 C 842.911 887.976 812.851 863.98 803.694 848.748 C 793.676 833.011 792.342 828.079 785.868 811.501 C 765.868 806.107 757.222 803.01 738.959 793.261 C 734.353 792.362 708.834 777.731 704.331 774.267 C 695.769 768.834 689.245 764.36 681.082 758.364 C 664.795 748.555 642.312 727.123 629.367 712.812 C 622.058 704.343 615.874 697.3 609.372 688.168 C 601.949 680.601 584.126 653.087 579.772 642.886 C 560.619 598.045 545.947 541.798 555.089 492.809 C 562.271 412.344 611.292 328.58 672.277 276.794 C 677.885 271.074 685.449 264.935 691.866 260.067 C 696.125 252.936 736.821 227.224 746.488 220.904 z" fill="rgb(250,171,76)" transform="translate(0,0)"></path>
<path d="M 1005.56 1009.89 C 1024.29 992.492 1033.83 979.626 1063.13 980 C 1089.04 980.331 1110.85 996.127 1127.81 1014.67 L 1129.13 1016.13 C 1130.75 1026.81 1137.95 1066.81 1137.97 1074.42 C 1144.41 1102.17 1148.73 1118.07 1158.6 1144.77 C 1164.5 1159.61 1170.77 1174.29 1177.41 1188.81 C 1156.56 1197.56 1144.26 1205.5 1129.88 1223.74 C 1095.17 1267.79 1103.93 1339.06 1151.71 1369.94 C 1156.7 1373.16 1163.38 1375.96 1168.94 1378.49 C 1233.8 1393.6 1276.04 1365.44 1304.33 1307.61 C 1318.65 1338.9 1328.92 1371.04 1342.26 1401.61 C 1348.61 1415.04 1355.54 1433.81 1360.5 1447.89 C 1374.78 1501.61 1392.16 1516.75 1373.56 1571.27 C 1370.19 1584.28 1347.85 1635.46 1338.55 1642.5 C 1333.98 1649.94 1320.54 1671.02 1314.84 1676.21 C 1295.83 1704.36 1277.38 1731.96 1260.35 1761.43 C 1258.05 1765.96 1255.08 1771.44 1253.14 1776.03 C 1251.36 1781.99 1245.26 1794.47 1241.33 1799.08 C 1237.17 1806.03 1235.68 1808.93 1232.6 1816.41 C 1227.62 1813.89 1222.29 1810.71 1217.45 1807.88 C 1182.73 1787.6 1144.01 1776.96 1105.07 1768.69 C 1104.77 1754.44 1104.57 1741 1103.55 1726.77 C 1102.43 1724.54 1101.18 1688.26 1100.97 1683.67 C 1101.18 1678.41 1100.96 1671.66 1100.94 1666.28 C 1100.91 1659.47 1100.69 1652.67 1100.26 1645.87 C 1098.47 1611.12 1096.15 1484.28 1072.81 1463.6 C 1070.85 1461.87 1068.52 1460.66 1065.84 1460.76 C 1061.6 1460.92 1057.81 1464.03 1055.37 1467.26 C 1036.4 1492.36 1032.28 1617.85 1028.78 1655.93 L 1027.7 1666.7 C 1027.17 1673.69 1026.72 1680.68 1026.35 1687.68 C 1026.08 1693.34 1025.03 1724.19 1023.58 1726.77 C 1022.75 1740.44 1021.4 1755.63 1020.98 1769.14 C 981.154 1775.54 943.841 1789.18 909.168 1809.62 C 906.339 1811.29 897.807 1817.02 895.053 1816.88 C 891.832 1811.21 888.746 1804.7 885.812 1798.81 C 882.7 1793.91 876.135 1780.8 873.914 1775.72 C 872.525 1771.84 869.166 1765.78 867.185 1761.91 C 862.612 1752.77 853.356 1733.71 847.784 1725.86 C 845.511 1717.45 825.384 1685.8 820.108 1677.34 C 812.123 1667.96 804.684 1657.98 797.191 1648.19 L 794.16 1644.96 C 776.092 1625.12 757.473 1589.52 749.993 1563.93 C 735.742 1519.79 749.594 1490.24 764.307 1448.02 C 769.077 1434.76 775.649 1414.65 781.321 1402.28 C 785.628 1392.97 791.438 1375.83 795.451 1365.59 C 802.807 1347.16 810.6 1328.91 818.824 1310.86 C 846.399 1366.8 892.763 1397.32 955.254 1377.03 C 1018.08 1349.47 1028.88 1270.33 987.796 1218.67 C 978.495 1206.97 969.315 1200.42 956.629 1192.65 C 963.733 1178.1 968.776 1164.64 974.343 1149.53 C 980.582 1130.08 985.994 1110.37 990.565 1090.47 C 997.347 1061.32 1000.87 1039.53 1005.56 1009.89 z" fill="rgb(250,171,76)" transform="translate(0,0)"></path>
<path d="M 914.75 1443.16 C 936.202 1447.65 962.009 1443.54 981.738 1434.42 C 1020.08 1416.68 1042.33 1382.18 1056.62 1343.99 C 1071.17 1384.62 1102.11 1421.57 1143.58 1435.96 C 1166.46 1443.9 1185.9 1443.69 1209.47 1440.93 C 1187.05 1477.77 1167.54 1516.37 1168.87 1561.02 C 1169.74 1593.45 1183.59 1624.18 1207.3 1646.31 C 1227.64 1665.45 1257.38 1678.51 1285.53 1678.51 C 1295.53 1678.51 1304.16 1676.47 1313.02 1676.25 L 1314.84 1676.21 C 1295.83 1704.36 1277.38 1731.96 1260.35 1761.43 C 1258.05 1765.96 1255.08 1771.44 1253.14 1776.03 C 1251.36 1781.99 1245.26 1794.47 1241.33 1799.08 C 1237.17 1806.03 1235.68 1808.93 1232.6 1816.41 C 1227.62 1813.89 1222.29 1810.71 1217.45 1807.88 C 1182.73 1787.6 1144.01 1776.96 1105.07 1768.69 C 1104.77 1754.44 1104.57 1741 1103.55 1726.77 C 1102.43 1724.54 1101.18 1688.26 1100.97 1683.67 C 1101.18 1678.41 1100.96 1671.66 1100.94 1666.28 C 1100.91 1659.47 1100.69 1652.67 1100.26 1645.87 C 1098.47 1611.12 1096.15 1484.28 1072.81 1463.6 C 1070.85 1461.87 1068.52 1460.66 1065.84 1460.76 C 1061.6 1460.92 1057.81 1464.03 1055.37 1467.26 C 1036.4 1492.36 1032.28 1617.85 1028.78 1655.93 L 1027.7 1666.7 C 1027.17 1673.69 1026.72 1680.68 1026.35 1687.68 C 1026.08 1693.34 1025.03 1724.19 1023.58 1726.77 C 1022.75 1740.44 1021.4 1755.63 1020.98 1769.14 C 981.154 1775.54 943.841 1789.18 909.168 1809.62 C 906.339 1811.29 897.807 1817.02 895.053 1816.88 C 891.832 1811.21 888.746 1804.7 885.812 1798.81 C 882.7 1793.91 876.135 1780.8 873.914 1775.72 C 872.525 1771.84 869.166 1765.78 867.185 1761.91 C 862.612 1752.77 853.356 1733.71 847.784 1725.86 C 845.511 1717.45 825.384 1685.8 820.108 1677.34 C 838.385 1680.45 851.885 1679.66 870.029 1674.28 C 939.339 1653.75 966.986 1583.8 948.521 1517.07 C 940.185 1486.94 932.534 1469.33 914.75 1443.16 z" fill="rgb(160,108,44)" transform="translate(0,0)"></path>
<path d="M 1028.78 1655.93 C 1021.55 1653.43 1007.41 1625.96 1003.31 1618.44 C 971.929 1560.84 985.479 1468.82 1046.97 1436.54 C 1085.09 1416.53 1111.84 1451.86 1124.99 1484.11 C 1141.75 1525.22 1138.52 1567.28 1120.72 1607.95 C 1117.94 1614.37 1105.69 1643.62 1100.26 1645.87 C 1098.47 1611.12 1096.15 1484.28 1072.81 1463.6 C 1070.85 1461.87 1068.52 1460.66 1065.84 1460.76 C 1061.6 1460.92 1057.81 1464.03 1055.37 1467.26 C 1036.4 1492.36 1032.28 1617.85 1028.78 1655.93 z" fill="rgb(10,71,79)" transform="translate(0,0)"></path>
<path d="M 1100.97 1683.67 C 1104.77 1689.87 1124.88 1693.95 1132.6 1697.18 C 1173.28 1714.15 1212.49 1736.34 1244.35 1767.14 C 1246.86 1769.56 1250.61 1774.1 1253.14 1776.03 C 1251.36 1781.99 1245.26 1794.47 1241.33 1799.08 C 1237.17 1806.03 1235.68 1808.93 1232.6 1816.41 C 1227.62 1813.89 1222.29 1810.71 1217.45 1807.88 C 1182.73 1787.6 1144.01 1776.96 1105.07 1768.69 C 1104.77 1754.44 1104.57 1741 1103.55 1726.77 C 1102.43 1724.54 1101.18 1688.26 1100.97 1683.67 z" fill="rgb(237,215,181)" transform="translate(0,0)"></path>
<path d="M 1103.55 1726.77 L 1104.6 1724.69 C 1108.57 1724.16 1118.49 1727.92 1122.49 1729.36 C 1164.31 1744.31 1210.04 1767.29 1241.33 1799.08 C 1237.17 1806.03 1235.68 1808.93 1232.6 1816.41 C 1227.62 1813.89 1222.29 1810.71 1217.45 1807.88 C 1182.73 1787.6 1144.01 1776.96 1105.07 1768.69 C 1104.77 1754.44 1104.57 1741 1103.55 1726.77 z" fill="rgb(10,71,79)" transform="translate(0,0)"></path>
<path d="M 1026.35 1687.68 C 1026.08 1693.34 1025.03 1724.19 1023.58 1726.77 C 1022.75 1740.44 1021.4 1755.63 1020.98 1769.14 C 981.154 1775.54 943.841 1789.18 909.168 1809.62 C 906.339 1811.29 897.807 1817.02 895.053 1816.88 C 891.832 1811.21 888.746 1804.7 885.812 1798.81 C 882.7 1793.91 876.135 1780.8 873.914 1775.72 C 913.635 1738.47 959.011 1708.86 1010.78 1691.39 C 1016.02 1689.62 1020.84 1688.3 1026.35 1687.68 z" fill="rgb(237,215,181)" transform="translate(0,0)"></path>
<path d="M 885.812 1798.81 C 890.225 1794.84 894.704 1790.93 899.246 1787.11 C 930.782 1761.51 966.741 1741.91 1005.34 1729.27 C 1009 1728.07 1019.23 1724.34 1022.51 1724.66 L 1023.58 1726.77 C 1022.75 1740.44 1021.4 1755.63 1020.98 1769.14 C 981.154 1775.54 943.841 1789.18 909.168 1809.62 C 906.339 1811.29 897.807 1817.02 895.053 1816.88 C 891.832 1811.21 888.746 1804.7 885.812 1798.81 z" fill="rgb(10,71,79)" transform="translate(0,0)"></path>
<path d="M 1027.7 1666.7 C 1027.17 1673.69 1026.72 1680.68 1026.35 1687.68 C 1020.84 1688.3 1016.02 1689.62 1010.78 1691.39 C 959.011 1708.86 913.635 1738.47 873.914 1775.72 C 872.525 1771.84 869.166 1765.78 867.185 1761.91 C 870.556 1758.9 873.521 1755.18 876.755 1751.87 C 906.936 1721.06 944.206 1694.85 984.621 1679.58 C 998.735 1674.25 1013.38 1670.66 1027.7 1666.7 z" fill="rgb(250,171,76)" transform="translate(0,0)"></path>
<path d="M 1100.94 1666.28 C 1159.29 1678.27 1219.95 1717.92 1260.35 1761.43 C 1258.05 1765.96 1255.08 1771.44 1253.14 1776.03 C 1250.61 1774.1 1246.86 1769.56 1244.35 1767.14 C 1212.49 1736.34 1173.28 1714.15 1132.6 1697.18 C 1124.88 1693.95 1104.77 1689.87 1100.97 1683.67 C 1101.18 1678.41 1100.96 1671.66 1100.94 1666.28 z" fill="rgb(250,171,76)" transform="translate(0,0)"></path>
<path d="M 1342.26 1401.61 C 1348.61 1415.04 1355.54 1433.81 1360.5 1447.89 C 1374.78 1501.61 1392.16 1516.75 1373.56 1571.27 C 1370.19 1584.28 1347.85 1635.46 1338.55 1642.5 C 1335.45 1642.85 1315.63 1652.1 1307.03 1653.57 C 1282.86 1657.68 1259.11 1651.85 1239.01 1638.23 C 1216 1622.97 1200.21 1598.99 1195.28 1571.82 C 1188.53 1535.95 1198.32 1499.65 1219.26 1470.27 C 1249.65 1427.64 1293.16 1410.72 1342.26 1401.61 z" fill="rgb(237,215,181)" transform="translate(0,0)"></path>
<path d="M 1360.5 1447.89 C 1374.78 1501.61 1392.16 1516.75 1373.56 1571.27 C 1367.6 1565.33 1365.48 1549.31 1354.82 1539.83 C 1331.41 1519.02 1296.12 1513.89 1277.45 1544.03 C 1270.01 1556.03 1272.11 1573.61 1285.92 1579.49 C 1289.17 1580.92 1289.26 1581.26 1292.45 1580.18 C 1294.96 1572.46 1286.18 1559.74 1302.01 1555.28 C 1329.56 1547.52 1346.73 1578.31 1330.87 1600.38 C 1322.76 1611.89 1310.32 1619.62 1296.4 1621.79 C 1283.55 1623.82 1270.43 1620.59 1260 1612.83 C 1242.89 1600.22 1233.4 1577.56 1233.17 1556.75 C 1232.69 1514.06 1263.68 1481.08 1299.89 1462.91 C 1319.86 1452.9 1338.71 1450.8 1360.5 1447.89 z" fill="rgb(250,171,76)" transform="translate(0,0)"></path>
<path d="M 781.321 1402.28 C 781.639 1402.49 781.958 1402.7 782.276 1402.91 C 844.797 1412.96 898.987 1443.77 922.955 1505.27 C 944.403 1560.3 922.695 1627.33 865.248 1649.32 C 841.403 1658.45 821.141 1655.4 797.191 1648.19 L 794.16 1644.96 C 776.092 1625.12 757.473 1589.52 749.993 1563.93 C 735.742 1519.79 749.594 1490.24 764.307 1448.02 C 769.077 1434.76 775.649 1414.65 781.321 1402.28 z" fill="rgb(237,215,181)" transform="translate(0,0)"></path>
<path d="M 764.307 1448.02 C 806.845 1451.69 838.518 1465.83 868.769 1498.26 C 906.777 1537.28 892.847 1626.88 827.611 1621.87 C 811.62 1620.65 803.002 1612.61 792.95 1602.06 C 768.253 1576.14 807.113 1532.99 828.38 1565.96 C 830.664 1569.5 826.814 1575.94 825.135 1579.29 C 847.465 1588.29 862.816 1536.81 817.538 1524.75 C 804.272 1521.25 790.156 1523.32 778.451 1530.48 C 760.65 1541.32 759.796 1550.49 749.993 1563.93 C 735.742 1519.79 749.594 1490.24 764.307 1448.02 z" fill="rgb(250,171,76)" transform="translate(0,0)"></path>
<path d="M 1005.56 1009.89 C 1024.29 992.492 1033.83 979.626 1063.13 980 C 1089.04 980.331 1110.85 996.127 1127.81 1014.67 L 1129.13 1016.13 C 1130.75 1026.81 1137.95 1066.81 1137.97 1074.42 C 1136.55 1077.45 1136.68 1077.84 1136 1080.99 C 1131.58 1101.59 1121.97 1120.07 1104.39 1132.38 C 1088.48 1143.3 1068.9 1147.5 1049.91 1144.08 C 1019.85 1138.65 1002.63 1116.8 990.565 1090.47 C 997.347 1061.32 1000.87 1039.53 1005.56 1009.89 z" fill="rgb(237,215,181)" transform="translate(0,0)"></path>
<path d="M 1053.23 996.304 C 1064.81 994.795 1078.57 998.385 1088.59 1004.27 C 1103.15 1012.95 1113.6 1027.13 1117.57 1043.61 C 1123.37 1067.03 1114.53 1095.96 1098.05 1113.37 C 1090.17 1121.68 1081.81 1124.76 1071.13 1127.41 C 1014.18 1132.4 983.167 1056.83 1017.75 1016.4 C 1027.64 1004.84 1038.1 998.458 1053.23 996.304 z" fill="rgb(250,171,76)" transform="translate(0,0)"></path>
<path d="M 1049.25 1031.21 C 1071.65 1029.16 1076.54 1033.99 1087.01 1052.45 C 1078.23 1048.56 1069.76 1043.27 1060.01 1045.18 C 1055.16 1046.12 1050.92 1049.05 1048.31 1053.25 C 1042.62 1062.47 1047.56 1076.15 1057 1080.89 C 1065.32 1085.07 1073 1083.69 1081.46 1081.02 C 1084.65 1078.9 1087.35 1076.6 1090.47 1074.33 C 1082.76 1088.29 1071.57 1103.49 1053.8 1096.54 C 1024.23 1084.96 1018.3 1045.55 1049.25 1031.21 z" fill="rgb(237,215,181)" transform="translate(0,0)"></path>
<path d="M 1158.6 1144.77 C 1164.5 1159.61 1170.77 1174.29 1177.41 1188.81 C 1156.56 1197.56 1144.26 1205.5 1129.88 1223.74 C 1095.17 1267.79 1103.93 1339.06 1151.71 1369.94 C 1156.7 1373.16 1163.38 1375.96 1168.94 1378.49 C 1170.18 1379.63 1170.58 1380.13 1172.06 1380.93 C 1204.14 1398.25 1234.35 1397.46 1267.67 1389.45 C 1256.96 1396.21 1245.7 1402.06 1234.02 1406.94 C 1202.57 1420.03 1169.54 1425.02 1137.31 1411.38 C 1108.84 1399.33 1084.97 1373.73 1073.54 1345.2 C 1058.13 1306.7 1058.76 1263.63 1075.29 1225.6 C 1091.32 1188.73 1121.26 1159.68 1158.6 1144.77 z" fill="rgb(237,215,181)" transform="translate(0,0)"></path>
<path d="M 974.343 1149.53 C 1037.15 1178.57 1071.46 1255.55 1055 1322.09 C 1045.03 1362.39 1019.14 1398.22 979.112 1412.57 C 931.671 1429.67 893.885 1412.61 854.198 1386.58 C 886.202 1395.29 919.962 1397.97 950.229 1381.15 C 952.647 1379.8 953.565 1379.38 955.254 1377.03 C 1018.08 1349.47 1028.88 1270.33 987.796 1218.67 C 978.495 1206.97 969.315 1200.42 956.629 1192.65 C 963.733 1178.1 968.776 1164.64 974.343 1149.53 z" fill="rgb(237,215,181)" transform="translate(0,0)"></path>
<path d="M 1213.82 773.706 C 1214.33 788.066 1215.48 795.019 1219.94 808.895 C 1188.76 819.084 1162.43 834.616 1146.93 864.595 C 1135.06 887.544 1136.98 913.498 1138.64 938.369 C 1142 988.713 1149 1039.59 1165.21 1087.53 C 1178 1125.58 1201.83 1180.75 1238.59 1200.56 C 1238.05 1198.06 1226.47 1180.63 1224.37 1176.11 C 1217.14 1160.5 1216.85 1145.86 1221.94 1129.86 C 1227.56 1104.2 1239.26 1086.09 1265.57 1078.15 C 1301.89 1067.19 1335.22 1083.72 1366.69 1100.47 C 1382.47 1164.83 1379.12 1239.72 1302.56 1256.62 C 1294.64 1258.36 1286.57 1259.64 1278.55 1260.84 C 1290.3 1279.33 1294.44 1288.38 1304.33 1307.61 C 1276.04 1365.44 1233.8 1393.6 1168.94 1378.49 C 1163.38 1375.96 1156.7 1373.16 1151.71 1369.94 C 1103.93 1339.06 1095.17 1267.79 1129.88 1223.74 C 1144.26 1205.5 1156.56 1197.56 1177.41 1188.81 C 1170.77 1174.29 1164.5 1159.61 1158.6 1144.77 C 1148.73 1118.07 1144.41 1102.17 1137.97 1074.42 C 1137.95 1066.81 1130.75 1026.81 1129.13 1016.13 L 1127.81 1014.67 C 1110.85 996.127 1089.04 980.331 1063.13 980 C 1033.83 979.626 1024.29 992.492 1005.56 1009.89 C 1006.82 1002.28 1013.03 954.447 1014.04 952.821 C 1013.63 949.648 1014.31 932.459 1014.5 928.678 C 1015.65 905.068 1013.78 891.87 1007.1 869.694 C 1040.77 873.177 1092.73 877.673 1126.29 870.349 C 1127.03 869.998 1127.78 869.646 1128.52 869.295 C 1133.88 859.105 1138.35 849.429 1145.76 840.731 C 1162.12 821.524 1177.82 811.439 1200.91 802.658 C 1203.28 790.12 1205.66 783.9 1213.82 773.706 z" fill="rgb(10,71,79)" transform="translate(0,0)"></path>
<path d="M 1007.1 869.694 C 1040.77 873.177 1092.73 877.673 1126.29 870.349 C 1126.9 872.876 1127.13 871.783 1126.19 874.025 C 1114.36 902.005 1122.68 936.178 1123.01 966.005 C 1125 982.575 1126.88 999.636 1129.13 1016.13 L 1127.81 1014.67 C 1110.85 996.127 1089.04 980.331 1063.13 980 C 1033.83 979.626 1024.29 992.492 1005.56 1009.89 C 1006.82 1002.28 1013.03 954.447 1014.04 952.821 C 1013.63 949.648 1014.31 932.459 1014.5 928.678 C 1015.65 905.068 1013.78 891.87 1007.1 869.694 z" fill="rgb(11,41,41)" transform="translate(0,0)"></path>
<path d="M 1014.04 952.821 C 1038.8 942.015 1054.35 927.197 1070.64 905.566 C 1078.44 933.977 1089.33 947.069 1115.68 961.989 C 1118.11 963.358 1120.55 964.697 1123.01 966.005 C 1125 982.575 1126.88 999.636 1129.13 1016.13 L 1127.81 1014.67 C 1110.85 996.127 1089.04 980.331 1063.13 980 C 1033.83 979.626 1024.29 992.492 1005.56 1009.89 C 1006.82 1002.28 1013.03 954.447 1014.04 952.821 z" fill="rgb(250,171,76)" transform="translate(0,0)"></path>
<path d="M 1221.94 1129.86 C 1224.23 1146.05 1226.93 1159.65 1241.34 1170.33 C 1257.23 1182.12 1290.67 1192.98 1305.44 1174.48 C 1310.61 1168.01 1308.93 1162.31 1307.66 1154.86 C 1306.05 1143.11 1300.09 1139.72 1289.32 1144.56 C 1281.52 1147.98 1272.39 1157.27 1263.26 1154.61 C 1252.53 1151.49 1250.82 1133.63 1255.3 1125.59 C 1266.55 1105.42 1298.23 1100.61 1317.44 1111.38 C 1330.87 1118.91 1337.9 1128.19 1342.48 1142.47 C 1352.11 1174.78 1331.55 1205.63 1299.63 1213.12 C 1280.28 1217.67 1260.64 1214.53 1243.63 1204.12 C 1242.38 1203.34 1239.53 1201.59 1238.59 1200.56 C 1238.05 1198.06 1226.47 1180.63 1224.37 1176.11 C 1217.14 1160.5 1216.85 1145.86 1221.94 1129.86 z" fill="rgb(160,108,44)" transform="translate(0,0)"></path>
<path d="M 1198.86 1243.11 C 1239.42 1240.92 1261.09 1312.39 1203.24 1321.71 C 1146.72 1325.34 1154.66 1253.98 1198.86 1243.11 z" fill="rgb(250,171,76)" transform="translate(0,0)"></path>
<path d="M 915.928 811.324 C 918.97 798.318 920.046 791.944 920.284 778.617 C 926.923 787.472 929.612 792.617 930.982 803.5 C 964.535 813.441 990.819 839.375 1007.1 869.694 C 1013.78 891.87 1015.65 905.068 1014.5 928.678 C 1014.31 932.459 1013.63 949.648 1014.04 952.821 C 1013.03 954.447 1006.82 1002.28 1005.56 1009.89 C 1000.87 1039.53 997.347 1061.32 990.565 1090.47 C 985.994 1110.37 980.582 1130.08 974.343 1149.53 C 968.776 1164.64 963.733 1178.1 956.629 1192.65 C 969.315 1200.42 978.495 1206.97 987.796 1218.67 C 1028.88 1270.33 1018.08 1349.47 955.254 1377.03 C 892.763 1397.32 846.399 1366.8 818.824 1310.86 C 825.968 1292.9 837.727 1277.38 844.781 1261.04 C 754.12 1247.73 743.214 1178.71 764.434 1101.41 C 794.916 1084.58 825.249 1067.87 861.38 1077.69 C 886.25 1084.45 906.574 1106.71 908.835 1132.76 C 914.239 1143.22 912.233 1153.82 910.691 1164.83 C 909.287 1174.86 897 1192.46 896.274 1198.57 C 967.849 1150.03 1001.68 977.342 997.533 893.673 C 997.176 886.461 992.416 874.053 989.112 867.48 C 973.733 836.881 947.452 821.862 915.928 811.324 z" fill="rgb(10,71,79)" transform="translate(0,0)"></path>
<path d="M 896.274 1198.57 C 887.653 1204.7 877.679 1211.68 867.451 1214.69 C 838.747 1222.92 805.021 1213.63 790.762 1186.45 C 767.209 1141.55 805.702 1093.52 853.62 1111.01 C 868.58 1116.47 881.813 1131.32 875.08 1147.55 C 867.36 1166.16 850.952 1151.65 839.94 1145.99 C 830.125 1141.23 822.882 1146.61 821.495 1156.72 C 815.263 1189.12 853.556 1188.86 874.005 1180 C 897.111 1169.98 905.384 1156.87 908.835 1132.76 C 914.239 1143.22 912.233 1153.82 910.691 1164.83 C 909.287 1174.86 897 1192.46 896.274 1198.57 z" fill="rgb(160,108,44)" transform="translate(0,0)"></path>
<path d="M 926.578 1247.21 C 968.67 1243.97 967.325 1334 912.202 1322.96 L 910.247 1322.61 C 904.161 1320.82 900.647 1319.92 895.069 1316.47 C 878.936 1306.51 874.486 1286.26 885.099 1270.58 C 894.807 1256.24 910.166 1250.08 926.578 1247.21 z" fill="rgb(250,171,76)" transform="translate(0,0)"></path>
<path d="M 672.277 276.794 C 679.415 274.189 679.097 271.845 683.454 270.459 C 640.446 325.488 575.403 444.956 631.703 508.829 C 631.523 505.661 630.979 504.575 630.393 501.63 C 625.258 475.814 627.789 456.019 641.84 433.952 C 650.888 415.608 660.769 403.505 681.094 397.273 C 729.238 382.51 764.597 405.566 779.595 451.459 C 811.538 549.202 694.723 618.805 613.95 573.113 C 584.732 556.585 562.476 525.215 555.089 492.809 C 562.271 412.344 611.292 328.58 672.277 276.794 z" fill="rgb(10,71,79)" transform="translate(0,0)"></path>
<path d="M 695.774 456.235 C 697.771 462.832 700.491 469.054 697.102 475.636 C 692.643 484.294 681.436 482.57 674.821 478.044 C 650.882 461.666 670.05 433.004 693.46 430.31 C 704.783 429.007 714.158 430.118 723.376 437.064 C 733.666 444.819 742.552 457.227 743.526 470.304 C 746.144 505.454 714.002 529.531 681.753 531.779 C 661.529 533.188 643.011 524.979 631.703 508.829 C 631.523 505.661 630.979 504.575 630.393 501.63 C 625.258 475.814 627.789 456.019 641.84 433.952 C 640.099 453.358 642.272 471.595 654.333 487.548 C 665.595 502.444 687.203 505.252 701.556 493.411 C 712.863 484.083 710.323 471.185 701.231 461.54 C 699.476 459.707 697.656 457.938 695.774 456.235 z" fill="rgb(160,108,44)" transform="translate(0,0)"></path>
<path d="M 1437.25 276.26 C 1433.97 272.885 1425.94 265.096 1424.36 261.249 C 1429.38 265.241 1436.77 270.741 1441.39 274.837 C 1496.75 324.54 1538.18 384.234 1556.58 457.175 C 1560.52 472.782 1560.83 485.881 1563.37 501.086 C 1556.97 532.304 1536.22 557.305 1508.75 573.537 C 1455.15 605.217 1376.86 584.803 1346.68 530.019 C 1324.53 489.818 1338.43 422.65 1380.63 400.168 C 1403.46 388.003 1436.24 391.58 1457.58 405.707 C 1468.01 412.626 1472 420.094 1477.51 430.713 C 1494.6 446.905 1498.86 471.804 1494.29 494.086 C 1493.24 499.174 1491.63 503.811 1490.66 508.966 C 1500.7 496.961 1507.7 475.771 1508.96 460.368 C 1514.5 392.703 1478.14 326.962 1437.25 276.26 z" fill="rgb(10,71,79)" transform="translate(0,0)"></path>
<path d="M 1490.66 508.966 C 1465.79 553.343 1374.02 530.225 1376.2 475.086 C 1376.87 461.428 1383.11 448.643 1393.46 439.712 C 1411.02 424.758 1437.17 425.194 1452.73 443.732 C 1465.73 459.215 1453.86 487.841 1432.53 483.602 C 1419.26 480.962 1421.91 469.052 1424.6 458.899 C 1423.27 460.158 1421.95 461.441 1420.66 462.748 C 1411.5 472.09 1408.29 485.29 1419.7 494.583 C 1434.05 506.274 1457.1 502.445 1467.58 487.139 C 1479.27 470.061 1480.49 450.644 1477.51 430.713 C 1494.6 446.905 1498.86 471.804 1494.29 494.086 C 1493.24 499.174 1491.63 503.811 1490.66 508.966 z" fill="rgb(160,108,44)" transform="translate(0,0)"></path>
<path d="M 579.772 642.886 C 617.798 621.79 659.923 609.845 703.125 622.286 C 727.355 629.356 747.732 645.857 759.686 668.088 C 781.015 706.93 774.966 765.226 738.959 793.261 C 734.353 792.362 708.834 777.731 704.331 774.267 C 695.769 768.834 689.245 764.36 681.082 758.364 C 664.795 748.555 642.312 727.123 629.367 712.812 C 622.058 704.343 615.874 697.3 609.372 688.168 C 601.949 680.601 584.126 653.087 579.772 642.886 z" fill="rgb(237,215,181)" transform="translate(0,0)"></path>
<path d="M 609.372 688.168 C 626.677 670.519 642.626 660.064 668.541 659.951 C 685.758 659.722 702.345 666.42 714.576 678.54 C 726.429 690.175 733.013 706.149 732.801 722.758 C 732.608 739.475 725.641 755.399 713.494 766.887 C 710.384 769.837 707.897 771.805 704.331 774.267 C 695.769 768.834 689.245 764.36 681.082 758.364 C 664.795 748.555 642.312 727.123 629.367 712.812 C 622.058 704.343 615.874 697.3 609.372 688.168 z" fill="rgb(10,71,79)" transform="translate(0,0)"></path>
<path d="M 629.367 712.812 C 668.662 676.652 723.027 719.177 681.082 758.364 C 664.795 748.555 642.312 727.123 629.367 712.812 z" fill="rgb(250,171,76)" transform="translate(0,0)"></path>
<path d="M 1393.93 793.311 C 1382.53 787.187 1372.91 771.056 1367.8 759.444 C 1356.36 733.825 1355.65 704.693 1365.83 678.548 C 1391.32 614.021 1463.16 603.322 1521.08 626.339 C 1528.17 629.154 1534.7 632.977 1541.76 635.854 C 1536.89 647.216 1523.5 674.682 1515.3 683.22 C 1508.86 691.692 1502.36 700.492 1495.6 708.68 C 1485.37 721.731 1459.11 748.563 1445.56 757.582 C 1438.34 763.136 1431.07 768.615 1423.74 774.018 C 1415.12 781.013 1403.58 787.736 1393.93 793.311 z" fill="rgb(237,215,181)" transform="translate(0,0)"></path>
<path d="M 1423.74 774.018 C 1395.93 750.855 1385.12 713.125 1410.16 683.265 C 1421.38 670.07 1437.4 661.888 1454.67 660.525 C 1480.72 658.225 1496.33 667.279 1515.3 683.22 C 1508.86 691.692 1502.36 700.492 1495.6 708.68 C 1485.37 721.731 1459.11 748.563 1445.56 757.582 C 1438.34 763.136 1431.07 768.615 1423.74 774.018 z" fill="rgb(10,71,79)" transform="translate(0,0)"></path>
<path d="M 1445.56 757.582 C 1412.04 712.481 1458.64 683.438 1495.6 708.68 C 1485.37 721.731 1459.11 748.563 1445.56 757.582 z" fill="rgb(250,171,76)" transform="translate(0,0)"></path>
<path d="M 827.592 185.633 C 870.218 169.629 927.462 158.577 972.165 151.799 C 984.932 162.944 998.279 174.168 1009.29 187.155 C 1044.83 229.005 1067.05 301.447 1027.81 348.238 C 1004.22 376.362 964.272 378.658 935.418 356.278 C 903.64 331.629 902.569 263.61 950.888 260.294 C 959.802 259.608 968.609 262.589 975.274 268.547 C 982.322 274.842 986.311 280.075 985.617 289.743 C 983.914 290.495 982.205 291.23 980.488 291.95 C 975.004 283.386 965.694 280.909 957.028 286.565 C 952.025 289.858 948.65 295.114 947.74 301.034 C 946.733 307.532 948.481 314.156 952.563 319.312 C 970.551 341.781 1008.12 328.087 1007.77 297.511 C 1006.75 210.245 892.979 192.962 827.955 186.762 L 827.592 185.633 z" fill="rgb(10,71,79)" transform="translate(0,0)"></path>
<path d="M 1144.36 152.453 C 1191.91 159.432 1234.23 167.925 1279.85 184.263 L 1281.19 186.44 C 1277.29 189.854 1242.59 192.575 1234.09 194.383 C 1181.98 205.566 1113.71 228.7 1107.95 291.032 C 1105.48 317.73 1123.18 341.886 1152.25 327.619 C 1170.37 318.724 1170.15 284.701 1145.49 286.142 C 1139.99 286.464 1135.02 293.183 1132.32 297.229 L 1131.57 298.365 C 1121.32 284.994 1142.67 260.743 1160.24 263.15 C 1209.26 269.87 1208.54 327.557 1177.74 355.634 C 1165.1 367.282 1148.31 373.364 1131.15 372.513 C 1085.59 369.855 1063.14 322.502 1067.35 281.988 C 1071.18 245.082 1086.17 211.305 1110.84 183.326 C 1120.89 171.927 1132.99 162.171 1144.36 152.453 z" fill="rgb(10,71,79)" transform="translate(0,0)"></path>
<path d="M 827.107 950.807 C 847.325 966.35 873.344 975.706 898.801 976.254 C 895.944 982.513 891.062 987.953 886.152 992.739 C 858.925 1019.28 823.212 1032.06 786.743 1039.79 C 791.571 1027.47 795.947 1016.33 801.504 1004.32 C 803.834 1001.08 818.288 967.034 821.308 960.395 C 823.158 957.033 825.06 954.053 827.107 950.807 z" fill="rgb(250,171,76)" transform="translate(0,0)"></path>
<path d="M 858.955 896.023 L 859.714 896.588 C 878.953 910.652 902.606 912.427 905.916 938.008 C 907.202 947.948 907.638 951.255 905.532 961.095 L 905.199 961.917 C 902.561 968.543 901.958 969.918 898.801 976.254 C 873.344 975.706 847.325 966.35 827.107 950.807 C 838.001 930.014 847.465 915.548 858.955 896.023 z" fill="rgb(10,71,79)" transform="translate(0,0)"></path>
<path d="M 1302.41 955.377 C 1305.13 959.014 1306.52 963.587 1308.95 965.619 C 1306.84 967.914 1324.88 999.939 1327.24 1003.08 C 1332.67 1013.97 1337.58 1024.9 1342.65 1035.92 C 1333.27 1033.85 1324.04 1031.15 1315.01 1027.85 C 1293.51 1020.06 1250.96 995.859 1241.22 975.204 C 1259.95 976.684 1286.17 964.375 1302.41 955.377 z" fill="rgb(250,171,76)" transform="translate(0,0)"></path>
<path d="M 1231.59 952.609 C 1229.01 916.657 1237.48 916.148 1267.39 899.373 C 1277.74 912.809 1285.11 926.507 1293.95 940.873 C 1296.63 945.23 1299.72 951.735 1302.41 955.377 C 1286.17 964.375 1259.95 976.684 1241.22 975.204 C 1240.8 973.833 1240.48 972.821 1239.67 971.619 C 1235.44 965.428 1233.86 959.488 1231.59 952.609 z" fill="rgb(10,71,79)" transform="translate(0,0)"></path>
<path d="M 905.532 961.095 C 908.479 968.765 903.506 982.212 900.08 989.486 C 881.933 1028.02 838.098 1056.17 799.862 1070.63 C 790.444 1074.1 780.947 1077.37 771.38 1080.41 C 776.21 1066.76 781.332 1053.22 786.743 1039.79 C 823.212 1032.06 858.925 1019.28 886.152 992.739 C 891.062 987.953 895.944 982.513 898.801 976.254 C 901.958 969.918 902.561 968.543 905.199 961.917 L 905.532 961.095 z" fill="rgb(255,255,255)" transform="translate(0,0)"></path>
<path d="M 1359.53 1076.87 C 1359.19 1076.82 1358.84 1076.77 1358.5 1076.71 C 1315.71 1062.23 1273.14 1038.65 1246.89 1001 C 1236.65 986.307 1228.91 968.685 1231.59 952.609 C 1233.86 959.488 1235.44 965.428 1239.67 971.619 C 1240.48 972.821 1240.8 973.833 1241.22 975.204 C 1250.96 995.859 1293.51 1020.06 1315.01 1027.85 C 1324.04 1031.15 1333.27 1033.85 1342.65 1035.92 C 1349.23 1049.95 1354.54 1062.06 1359.53 1076.87 z" fill="rgb(255,255,255)" transform="translate(0,0)"></path>
<path d="M 785.868 811.501 C 782.331 790.803 788.31 772.063 798.95 754.55 C 791.186 782.074 787.894 795.712 795.274 824.463 C 796.878 830.712 803.429 845.267 803.694 848.748 C 793.676 833.011 792.342 828.079 785.868 811.501 z" fill="url(#Gradient1)" transform="translate(0,0)"></path>
<path d="M 1341.06 763.033 C 1349.4 779.538 1350.19 795.611 1346.55 813.4 C 1345.53 817.432 1344.17 821.369 1342.48 825.168 L 1340.14 821.153 C 1344.07 800.01 1346.07 786.923 1339.63 765.451 L 1341.06 763.033 z" fill="rgb(10,71,79)" transform="translate(0,0)"></path>
<path d="M 1340.14 821.153 L 1342.48 825.168 C 1338.89 833.261 1334.45 842.412 1328.62 849.107 C 1331.17 841.133 1336.83 829.672 1340.14 821.153 z" fill="rgb(11,41,41)" transform="translate(0,0)"></path>
<path d="M 672.277 276.794 C 677.885 271.074 685.449 264.935 691.866 260.067 C 690.227 262.927 686.031 268.661 683.454 270.459 C 679.097 271.845 679.415 274.189 672.277 276.794 z" fill="rgb(82,78,58)" transform="translate(0,0)"></path>
<path d="M 980.488 291.95 C 982.205 291.23 983.914 290.495 985.617 289.743 C 984.891 293.301 983.854 302.135 981.203 294.078 L 980.488 291.95 z" fill="rgb(10,71,79)" transform="translate(0,0)"></path>
<path d="M 1339.63 765.451 C 1337.8 760.269 1335.44 755.656 1333.28 750.623 L 1336.21 754.89 C 1338.52 758.203 1339.38 759.33 1341.06 763.033 L 1339.63 765.451 z" fill="rgb(82,78,58)" transform="translate(0,0)"></path>
<path d="M 810.057 238.773 C 835.836 237.305 860.414 249.807 874.409 271.505 C 888.404 293.204 889.656 320.75 877.687 343.629 C 865.717 366.507 842.374 381.186 816.569 382.062 C 777.301 383.396 744.27 352.887 742.486 313.637 C 740.702 274.387 770.83 241.007 810.057 238.773 z" fill="rgb(237,215,181)" transform="translate(0,0)"></path>
<path d="M 811.246 250.314 C 824.028 249.091 836.83 252.431 847.385 259.742 C 859.622 268.393 867.821 282.345 870.297 297.05 C 873.228 313.912 869.225 331.242 859.196 345.109 C 848.121 360.155 833.278 366.143 815.535 368.703 C 802.668 370.525 785.719 367.502 775.565 359.396 C 734.724 326.794 763.466 256.601 811.246 250.314 z" fill="rgb(250,171,76)" transform="translate(0,0)"></path>
<path d="M 816.891 293.208 C 819.143 293.224 836.111 295.13 834.602 299.727 C 833.551 300.515 830.837 299.917 829.5 300.025 C 806.512 301.884 806.154 332.009 830.502 328.366 C 828.688 331.43 824.73 333.533 821.494 333.94 C 798.359 336.853 785.604 299.923 816.891 293.208 z" fill="rgb(237,215,181)" transform="translate(0,0)"></path>
<path d="M 1289.41 241.808 C 1326.67 234.064 1363.23 257.665 1371.52 294.8 C 1379.8 331.935 1356.74 368.842 1319.73 377.666 C 1295.3 383.489 1269.63 375.707 1252.56 357.3 C 1235.48 338.893 1229.64 312.715 1237.27 288.794 C 1244.91 264.874 1264.83 246.919 1289.41 241.808 z" fill="rgb(237,215,181)" transform="translate(0,0)"></path>
<path d="M 1300.44 249.322 C 1364.78 246.053 1384.17 363.565 1305.94 368.192 C 1292.35 368.036 1280.41 364.613 1269.29 356.595 C 1257.34 348.057 1249.38 335.02 1247.25 320.488 C 1241.76 284.258 1264.41 254.659 1300.44 249.322 z" fill="rgb(250,171,76)" transform="translate(0,0)"></path>
<path d="M 1295.74 289.185 C 1304.15 289.572 1312.71 291.895 1315.48 300.14 C 1321.82 319.005 1309.31 334.052 1290.37 325.485 C 1289.79 323.458 1289.94 322.396 1292.46 322.306 C 1304.18 321.886 1307.92 310.6 1299.63 302.643 C 1292.61 295.908 1286.32 297.704 1277.7 298.058 C 1285.25 292.765 1286.68 291.121 1295.74 289.185 z" fill="rgb(237,215,181)" transform="translate(0,0)"></path>
<path d="M 852.695 623.11 C 876.568 619.983 898.48 636.731 901.728 660.587 C 904.976 684.444 888.338 706.441 864.499 709.809 C 840.489 713.201 818.3 696.418 815.028 672.391 C 811.757 648.364 828.652 626.26 852.695 623.11 z" fill="rgb(204,138,57)" transform="translate(0,0)"></path>
<path d="M 1255.82 623.531 C 1279.6 619.401 1302.21 635.366 1306.28 659.154 C 1310.34 682.942 1294.32 705.511 1270.52 709.514 C 1246.81 713.502 1224.34 697.551 1220.29 673.852 C 1216.24 650.153 1232.13 627.645 1255.82 623.531 z" fill="rgb(204,138,57)" transform="translate(0,0)"></path>
<path d="M 1140.69 577.483 C 1152.08 550.522 1168.44 523.092 1194.58 508.224 C 1243.12 480.618 1287.31 512.995 1311.11 556.011 L 1309.61 558.235 C 1290.34 537.294 1271.33 523.199 1243.49 516.251 C 1248.17 528.539 1251.47 543.65 1247.79 555.556 C 1237.27 589.492 1203.35 575.443 1203.33 544.23 C 1203.32 532.576 1203.93 530.167 1207.13 519.57 C 1177.11 532.722 1160.07 552.137 1140.69 577.483 z" fill="rgb(10,71,79)" transform="translate(0,0)"></path>
<path d="M 804.862 558.145 C 810.141 550.534 814.485 542.37 819.852 534.857 C 832.481 517.182 853.458 502.979 874.9 499.031 C 894.508 495.421 913.578 500.431 929.625 512.109 C 952.466 528.731 965.445 549.216 976.251 574.658 C 957.661 550.815 939.516 529.729 910.088 518.902 C 913.214 533.659 916.152 553.11 906.996 565.259 C 891.011 586.471 869.755 569.382 868.588 547.622 C 867.833 533.534 869.375 528.502 873.283 515.77 C 847.538 525.259 824.998 537.163 807.289 558.97 L 804.862 558.145 z" fill="rgb(10,71,79)" transform="translate(0,0)"></path>
<path d="M 884.179 405.397 C 927.923 400.513 977.427 430.082 995.915 469.046 C 999.511 476.626 1018.59 511.762 1007.76 517.612 C 1001.43 516.563 1002.38 512.687 999.044 507.062 C 996.266 502.373 994.195 497.317 991.231 492.611 C 988.129 487.686 985.071 483.181 981.623 478.507 C 950.645 438.994 910.526 419.59 860.426 431.221 C 850.156 433.606 832.758 445.251 826.131 433.168 C 825.23 413.659 869.383 406.893 884.179 405.397 z" fill="rgb(237,215,181)" transform="translate(0,0)"></path>
<path d="M 1219.97 406.39 C 1242.91 403.665 1270.72 409.306 1290.86 420.791 C 1295.55 423.47 1302.34 433.196 1295.88 437.2 C 1286.14 443.228 1273.29 433.671 1263.45 431.212 C 1254.14 428.97 1244.61 427.82 1235.04 427.788 C 1201.87 427.963 1173.17 444.097 1150.35 467.195 C 1142.73 475.655 1135.97 484.855 1130.18 494.658 C 1127.05 500.024 1119.61 519.818 1113.39 518.163 C 1104.94 504.389 1127.99 465.073 1137.03 453.727 C 1158.73 426.487 1185.32 410.533 1219.97 406.39 z" fill="rgb(237,215,181)" transform="translate(0,0)"></path>
<path d="M 1054.6 649.878 C 1063.51 649.614 1067.53 652.838 1066.71 662.842 C 1062.88 709.595 1119.6 733.992 1145.11 692.607 C 1147.85 688.151 1145.09 683.486 1151.02 677.689 C 1154.7 676.912 1152.89 676.789 1156.59 678.485 C 1158.08 680.348 1159.82 682.391 1159.49 684.927 C 1154.31 725.166 1107.5 737.448 1077.07 715.62 C 1070.4 710.838 1067.56 707.612 1062.4 701.63 L 1061.61 700.215 L 1060.16 699.901 C 1035.3 738.309 977.567 734.347 962.29 690.306 C 959.851 683.273 961.866 679.379 968.809 677.111 C 976.878 680.581 979.678 721.666 1021.4 712.363 C 1066.75 702.251 1045.27 664.588 1054.6 649.878 z" fill="rgb(10,71,79)" transform="translate(0,0)"></path>
<path d="M 1055.72 584.382 C 1073.84 582.93 1089.98 589.136 1102.44 603.234 C 1108.34 609.917 1105.77 620.637 1096.62 617.723 C 1095.38 617.328 1086.66 610.038 1084.02 608.502 C 1078.85 605.429 1073.21 603.241 1067.32 602.028 C 1066.75 601.92 1066.17 601.812 1065.6 601.703 C 1052.89 600.621 1037.94 603.506 1028.63 612.295 C 1017.15 623.131 1006.01 614.73 1015.98 602.494 C 1025.94 590.258 1040.44 586.034 1055.72 584.382 z" fill="rgb(10,71,79)" transform="translate(0,0)"></path>
<path d="M 1316.2 771.796 C 1322.66 772.689 1323.5 774.054 1324.99 780.989 C 1330.48 806.604 1319.56 841.158 1294.66 853.73 L 1292.87 854.659 C 1287.89 854.659 1280.66 851.728 1285.25 845.266 C 1286.81 843.071 1292.8 838.905 1295.29 836.29 C 1298.58 832.806 1301.38 828.893 1303.61 824.657 C 1310.46 811.933 1311.9 798.821 1311.13 784.625 C 1310.64 775.667 1308.87 775.879 1316.2 771.796 z" fill="rgb(10,71,79)" transform="translate(0,0)"></path>
<path d="M 813.975 773.804 C 819.379 774.255 825.083 775.397 823.879 782.472 C 820.346 803.242 827.34 829.552 844.67 842.615 C 851.851 848.029 853.885 849.881 848.007 857.74 C 844.292 857.125 841.793 857.036 838.603 854.803 C 815.966 838.954 806.347 814.162 809.428 786.997 C 810.134 780.774 810.499 778.94 813.975 773.804 z" fill="rgb(10,71,79)" transform="translate(0,0)"></path>
<path d="M 1268.66 760.942 C 1278.83 760.517 1280.03 760.58 1281.35 769.99 C 1285.63 800.682 1275.56 822.056 1251.59 840.256 C 1245.16 842.02 1242.02 840.298 1241.51 832.324 C 1241.41 830.706 1247.92 825.788 1249.19 824.705 C 1263.28 812.643 1269.5 794.23 1268.4 776.002 C 1268.1 771.105 1266.64 767.455 1268.15 762.689 L 1268.66 760.942 z" fill="rgb(10,71,79)" transform="translate(0,0)"></path>
<path d="M 858.068 763.926 C 866.585 765.499 868.275 764.921 867.29 774.684 C 864.96 798.194 872.819 817.385 890.791 832.62 C 895.741 836.816 890.606 842.04 887.216 844.614 C 871.707 837.921 858.506 820.381 855.131 803.99 C 852.972 793.499 850.188 772.184 858.068 763.926 z" fill="rgb(10,71,79)" transform="translate(0,0)"></path>
<path d="M 1044.43 728.559 C 1047.22 730.34 1050.09 731.99 1053.03 733.506 C 1063.42 738.771 1067.03 734.069 1075.98 730.658 C 1079.02 729.502 1087.43 733.533 1081.45 740.844 C 1069.85 749.158 1049.99 751.472 1040.6 737.15 C 1039.42 735.352 1043.54 730.015 1044.43 728.559 z" fill="rgb(204,138,57)" transform="translate(0,0)"></path>
<path d="M 1311.11 556.011 L 1312.75 559.032 C 1316.1 565.297 1311.05 559.938 1309.61 558.235 L 1311.11 556.011 z" fill="rgb(82,78,58)" transform="translate(0,0)"></path>
<path d="M 804.862 558.145 L 807.289 558.97 C 806.973 559.354 804.535 562.87 803.604 562.7 C 802.646 562.525 803.859 560.218 804.085 559.772 L 804.862 558.145 z" fill="rgb(82,78,58)" transform="translate(0,0)"></path>
<path d="M 1308.95 965.619 C 1365.24 950.069 1429.39 914.624 1448.23 855.273 C 1463.33 807.702 1513.15 805.972 1552.13 822.483 C 1556.14 824.747 1562.68 828.43 1565.48 831.682 C 1625.17 901.026 1683.9 970.897 1763.51 1018.66 C 1767.73 1021.2 1771.26 1029.8 1766.73 1033.89 C 1748.11 1058.21 1665.07 1015.13 1657.5 1016.76 C 1659.73 1043.01 1655.69 1063.76 1623.86 1065.37 C 1588.2 1067.17 1561.88 1047.35 1536.33 1024.91 C 1535.6 1052.25 1531.72 1082.49 1495.5 1081.06 C 1465.61 1079.88 1440.4 1056.53 1421.3 1035.53 C 1421.15 1075.8 1403.26 1094.03 1362.88 1083.51 L 1359.53 1076.87 C 1354.54 1062.06 1349.23 1049.95 1342.65 1035.92 C 1337.58 1024.9 1332.67 1013.97 1327.24 1003.08 C 1324.88 999.939 1306.84 967.914 1308.95 965.619 z" fill="rgb(250,171,76)" transform="translate(0,0)"></path>
<path d="M 1556.43 949.072 C 1573.23 964.818 1586.6 974.918 1606.13 987.184 C 1616.65 993.728 1627.44 999.85 1638.46 1005.53 C 1643.76 1008.22 1655.21 1012.1 1657.5 1016.76 C 1659.73 1043.01 1655.69 1063.76 1623.86 1065.37 C 1588.2 1067.17 1561.88 1047.35 1536.33 1024.91 C 1535.6 1052.25 1531.72 1082.49 1495.5 1081.06 C 1465.61 1079.88 1440.4 1056.53 1421.3 1035.53 C 1421.15 1075.8 1403.26 1094.03 1362.88 1083.51 L 1359.53 1076.87 C 1354.54 1062.06 1349.23 1049.95 1342.65 1035.92 C 1337.58 1024.9 1332.67 1013.97 1327.24 1003.08 C 1335.84 1003.56 1344.7 1004.89 1353.24 1005 C 1389.75 1005.49 1448.61 1003.37 1473.39 972.237 C 1487.19 993.943 1515.42 1019.52 1543.92 1002.48 C 1561.55 991.939 1559.33 967.076 1556.43 949.072 z" fill="rgb(10,71,79)" transform="translate(0,0)"></path>
<path d="M 1308.95 965.619 C 1365.24 950.069 1429.39 914.624 1448.23 855.273 C 1463.33 807.702 1513.15 805.972 1552.13 822.483 C 1544.93 827.953 1535.63 831.072 1528.29 836.639 C 1493.24 863.253 1472.68 903.059 1469.43 946.753 C 1468.89 953.971 1466.47 967.368 1473.39 972.237 C 1448.61 1003.37 1389.75 1005.49 1353.24 1005 C 1344.7 1004.89 1335.84 1003.56 1327.24 1003.08 C 1324.88 999.939 1306.84 967.914 1308.95 965.619 z" fill="rgb(204,138,57)" transform="translate(0,0)"></path>
<path d="M 609.435 816.1 C 651.74 805.731 686.776 817.586 700.975 861.35 C 716.88 910.376 773.427 947.472 821.308 960.395 C 818.288 967.034 803.834 1001.08 801.504 1004.32 C 795.947 1016.33 791.571 1027.47 786.743 1039.79 C 781.332 1053.22 776.21 1066.76 771.38 1080.41 L 767.606 1088.41 C 757.71 1090.45 745.84 1085.59 739.107 1078.16 C 726.613 1064.37 726.675 1049.39 727.052 1032.03 C 706.169 1054.97 679.515 1081.94 645.892 1079.59 C 620.446 1077.82 609.251 1048.89 611.72 1026.83 C 588.769 1050.36 556.469 1070.13 522.464 1066.5 C 492.745 1063.33 491.373 1040.51 494.571 1016.79 C 488.53 1015.06 425.923 1047.81 397.535 1039.98 C 392.963 1038.72 387.202 1035.37 385.298 1030.76 C 384.235 1028.19 384.025 1025.76 385.167 1023.16 C 385.804 1021.71 386.673 1020.63 387.951 1019.72 C 395.65 1014.25 404.399 1009.77 412.364 1004.65 C 424.174 997.052 435.306 988.4 446.183 979.536 C 478.041 953.574 517.455 909.866 544.591 877.62 C 557.931 861.769 570.539 842.118 586.179 828.608 C 592.967 822.744 601.153 819.279 609.435 816.1 z" fill="rgb(250,171,76)" transform="translate(0,0)"></path>
<path d="M 494.571 1016.79 C 497.021 1013.87 526.184 998.341 531.571 995.131 C 554.69 981.358 573.3 966.925 593.687 949.531 C 573.972 1018.72 640.116 1030.48 675.25 973.372 C 677.365 973.952 678.626 976.425 680.355 978.583 C 695.79 996.322 729.721 1006.32 752.562 1007.92 C 769.626 1009.11 784.763 1007.21 801.504 1004.32 C 795.947 1016.33 791.571 1027.47 786.743 1039.79 C 781.332 1053.22 776.21 1066.76 771.38 1080.41 L 767.606 1088.41 C 757.71 1090.45 745.84 1085.59 739.107 1078.16 C 726.613 1064.37 726.675 1049.39 727.052 1032.03 C 706.169 1054.97 679.515 1081.94 645.892 1079.59 C 620.446 1077.82 609.251 1048.89 611.72 1026.83 C 588.769 1050.36 556.469 1070.13 522.464 1066.5 C 492.745 1063.33 491.373 1040.51 494.571 1016.79 z" fill="rgb(10,71,79)" transform="translate(0,0)"></path>
<path d="M 609.435 816.1 C 651.74 805.731 686.776 817.586 700.975 861.35 C 716.88 910.376 773.427 947.472 821.308 960.395 C 818.288 967.034 803.834 1001.08 801.504 1004.32 C 784.763 1007.21 769.626 1009.11 752.562 1007.92 C 729.721 1006.32 695.79 996.322 680.355 978.583 C 681.136 977.329 681.891 976.058 682.619 974.773 C 693.256 955.698 689.344 920.77 683.259 900.676 C 669.583 855.52 648.29 837.865 609.435 816.1 z" fill="rgb(204,138,57)" transform="translate(0,0)"></path>
<path d="M 544.131 1437.51 C 561.929 1445.52 576.644 1455.06 597.227 1454.7 C 621.85 1454.26 638.396 1443.77 654.995 1426.85 L 656.397 1427.16 C 649.593 1445.42 640.04 1467.06 632.017 1485.06 C 618.805 1518.75 607.823 1543.15 617.785 1580.64 C 619.85 1588.41 625.631 1598.61 627.458 1604.98 C 636.48 1619.79 645.361 1629.17 660.04 1638.99 C 666.989 1643.02 671.364 1645.49 678.684 1648.66 C 683.667 1650.96 687.074 1651.79 692.155 1653.57 C 696.044 1654.33 700.31 1655.59 704.177 1656.57 C 712.458 1657.67 720.782 1658.4 729.126 1658.77 L 751.562 1656.89 C 764.338 1654.88 782.773 1650.7 794.16 1644.96 L 797.191 1648.19 C 804.684 1657.98 812.123 1667.96 820.108 1677.34 C 825.384 1685.8 845.511 1717.45 847.784 1725.86 C 840.942 1728.83 834.211 1732.01 827.487 1735.23 C 794.508 1751.05 758.039 1759.5 722.554 1767.44 C 706.823 1771.97 687.085 1771.75 671.012 1769.35 C 609.685 1760.2 550.577 1728.79 512.998 1679.2 C 507.005 1672.9 500.64 1660.15 498.092 1651.87 C 492.797 1641.35 490.139 1629.07 487.497 1617.68 C 485.504 1613.4 483.999 1596.05 484.936 1590.98 C 484.646 1569.92 492.796 1527.47 502.289 1508.71 C 512.652 1483.6 528.087 1459.38 544.131 1437.51 z" fill="rgb(250,171,76)" transform="translate(0,0)"></path>
<path d="M 627.458 1604.98 C 636.48 1619.79 645.361 1629.17 660.04 1638.99 C 666.989 1643.02 671.364 1645.49 678.684 1648.66 C 683.667 1650.96 687.074 1651.79 692.155 1653.57 C 696.044 1654.33 700.31 1655.59 704.177 1656.57 C 712.458 1657.67 720.782 1658.4 729.126 1658.77 L 751.562 1656.89 C 764.338 1654.88 782.773 1650.7 794.16 1644.96 L 797.191 1648.19 C 804.684 1657.98 812.123 1667.96 820.108 1677.34 C 825.384 1685.8 845.511 1717.45 847.784 1725.86 C 840.942 1728.83 834.211 1732.01 827.487 1735.23 C 794.508 1751.05 758.039 1759.5 722.554 1767.44 C 719.145 1766.35 710.079 1765.53 706.098 1765.06 C 665.007 1760.24 633.386 1736.79 619.86 1697.27 C 607.445 1660.99 611.698 1638.31 627.458 1604.98 z" fill="rgb(10,71,79)" transform="translate(0,0)"></path>
<path d="M 660.04 1638.99 C 666.989 1643.02 671.364 1645.49 678.684 1648.66 C 683.667 1650.96 687.074 1651.79 692.155 1653.57 C 696.044 1654.33 700.31 1655.59 704.177 1656.57 C 712.458 1657.67 720.782 1658.4 729.126 1658.77 L 751.562 1656.89 C 755.472 1662.59 758.137 1669.05 759.383 1675.85 C 761.825 1689.71 758.713 1703.98 750.72 1715.56 C 711.899 1771.99 609.292 1707.24 660.04 1638.99 z" fill="rgb(160,108,44)" transform="translate(0,0)"></path>
<path d="M 678.684 1648.66 C 683.667 1650.96 687.074 1651.79 692.155 1653.57 C 696.044 1654.33 700.31 1655.59 704.177 1656.57 C 712.458 1657.67 720.782 1658.4 729.126 1658.77 C 731.298 1661.98 733.976 1665.3 735.874 1668.58 C 739.554 1674.93 740.38 1682.53 738.147 1689.52 C 728.631 1720.15 686.185 1708.86 676.542 1683.74 C 670.149 1667.09 674.414 1663.31 678.684 1648.66 z" fill="rgb(10,71,79)" transform="translate(0,0)"></path>
<path d="M 692.155 1653.57 C 696.044 1654.33 700.31 1655.59 704.177 1656.57 C 700.057 1663.53 696.19 1669.32 697.879 1678 C 700.227 1694.96 711.821 1668.98 717.392 1674.16 C 731.994 1687.74 718.726 1706.73 699.031 1696.75 C 692.169 1693.19 687.096 1686.94 685.03 1679.5 C 682.326 1669.68 687.782 1661.7 692.155 1653.57 z" fill="rgb(160,108,44)" transform="translate(0,0)"></path>
<path d="M 484.936 1590.98 L 486.614 1590 C 499.92 1555.86 524.682 1540.17 560.022 1554.34 C 575.359 1560.45 587.592 1572.47 593.957 1587.7 C 608.282 1621.9 591.728 1663.15 557.322 1676.99 C 537.849 1684.82 530.806 1679.52 512.998 1679.2 C 507.005 1672.9 500.64 1660.15 498.092 1651.87 C 492.797 1641.35 490.139 1629.07 487.497 1617.68 C 485.504 1613.4 483.999 1596.05 484.936 1590.98 z" fill="rgb(237,215,181)" transform="translate(0,0)"></path>
<path d="M 487.497 1617.68 C 487.934 1617.11 487.968 1616.86 488.481 1616.65 C 489.04 1616.76 489.794 1617.44 490.049 1617.92 C 496.257 1629.65 510.357 1639.45 523.998 1637.86 C 535.046 1636.39 545.945 1623.91 542.976 1612.51 C 539.884 1601.21 524.186 1597.3 518.462 1608.62 C 514.769 1615.92 524.444 1625.46 531.174 1622.25 C 541.888 1617.15 532.091 1628.56 525.487 1629.09 C 499.176 1631.21 491.276 1594.63 505.777 1577.81 C 512.796 1569.82 523.109 1566.57 533.5 1566.39 C 551.627 1566.07 568.159 1579.19 574.747 1595.59 C 582.877 1615.83 577.702 1643.6 558.089 1655.53 C 541.595 1665.56 517.852 1663.51 501.695 1653.58 C 500.63 1652.93 499.218 1652.37 498.092 1651.87 C 492.797 1641.35 490.139 1629.07 487.497 1617.68 z" fill="rgb(250,171,76)" transform="translate(0,0)"></path>
<path d="M 544.131 1437.51 C 561.929 1445.52 576.644 1455.06 597.227 1454.7 C 621.85 1454.26 638.396 1443.77 654.995 1426.85 L 656.397 1427.16 C 649.593 1445.42 640.04 1467.06 632.017 1485.06 C 595.584 1503.17 566.002 1497.81 527.728 1499.47 C 520.991 1499.76 508.497 1507.71 502.289 1508.71 C 512.652 1483.6 528.087 1459.38 544.131 1437.51 z" fill="rgb(10,71,79)" transform="translate(0,0)"></path>
<path d="M 895.053 1816.88 C 897.807 1817.02 906.339 1811.29 909.168 1809.62 C 943.841 1789.18 981.154 1775.54 1020.98 1769.14 C 1019.87 1802.46 1013.22 1826.86 1022.94 1858.92 C 1028.07 1875.86 1013.96 1906.12 1000.43 1918.87 C 992.479 1926.37 982.957 1932.01 972.557 1935.37 C 966.055 1937.43 959.464 1938.21 952.682 1938.45 C 939.276 1938.92 926.448 1941.94 913.14 1943.64 C 894.251 1945.96 875.205 1946.75 856.19 1945.99 C 846.861 1945.62 837.537 1945.17 828.218 1944.62 C 811.702 1955.79 807.284 1961.8 793.337 1973.28 C 793.064 1967.04 792.54 1959.41 792.686 1953.27 C 793.203 1947.73 793.498 1947.27 794.809 1941.8 C 781.44 1936.73 765.375 1947.89 754.303 1954.49 C 753.748 1946.03 752.771 1936.09 753.55 1927.8 L 754.238 1922.31 C 744.149 1927.21 735.392 1933.2 725.999 1939.29 C 718.536 1869.88 781.363 1823.9 843.591 1817.13 C 862.211 1815.1 876.553 1815.66 895.053 1816.88 z" fill="rgb(250,171,76)" transform="translate(0,0)"></path>
<path d="M 754.238 1922.31 C 754.641 1921.18 754.773 1920.57 755.113 1919.51 C 764.282 1891.07 788.12 1868.26 814.686 1855.61 C 817.678 1854.18 824.662 1850.36 827.676 1854.32 C 830.447 1858.32 830.763 1864.97 825.837 1867.46 C 798.112 1881.47 777.842 1899.19 767.874 1929.36 C 761.266 1933.68 759.3 1936.1 753.821 1941.87 C 753.714 1937.25 753.724 1932.36 753.55 1927.8 L 754.238 1922.31 z" fill="rgb(10,71,79)" transform="translate(0,0)"></path>
<path d="M 794.809 1941.8 C 800.505 1919.97 821.322 1896.03 840.936 1885.32 C 848.065 1881.56 874.151 1865 871.063 1885.03 C 870.717 1887.28 863.217 1890.87 861.191 1891.93 C 847.812 1898.93 835.605 1907.29 825.817 1918.9 C 819.642 1926.22 817.472 1932.02 813.85 1940.61 C 810.289 1940.75 806.898 1940.8 803.332 1941.09 C 797.709 1946.55 797.408 1947.51 792.686 1953.27 C 793.203 1947.73 793.498 1947.27 794.809 1941.8 z" fill="rgb(10,71,79)" transform="translate(0,0)"></path>
<path d="M 1105.07 1768.69 C 1144.01 1776.96 1182.73 1787.6 1217.45 1807.88 C 1222.29 1810.71 1227.62 1813.89 1232.6 1816.41 C 1313.26 1811.86 1400.91 1845.67 1394.84 1939.91 C 1386.18 1933.11 1379.59 1928.07 1369.6 1923.31 C 1370.35 1931.09 1370.54 1935.21 1369.84 1942.95 C 1369.62 1947.44 1369.43 1951.82 1369.02 1956.3 C 1355.39 1942.85 1349.34 1941.97 1330.11 1943.26 C 1331.04 1947.15 1331.53 1951.17 1332.02 1955.15 C 1332.02 1960.97 1330.89 1966.52 1329.96 1972.29 C 1321.8 1964.48 1305.95 1952.35 1300.74 1944.24 C 1295.29 1944.58 1289.82 1944.81 1284.36 1944.92 C 1251.41 1945.85 1221.01 1944.09 1188.39 1939.56 C 1175.4 1937.76 1165.26 1938.7 1151.94 1934.53 C 1140.84 1931.08 1130.69 1925.13 1122.26 1917.13 C 1108.99 1904.38 1095.53 1874.81 1100.46 1858.08 C 1109.55 1827.29 1105.73 1800.88 1105.07 1768.69 z" fill="rgb(250,171,76)" transform="translate(0,0)"></path>
<path d="M 1355.02 1927.64 C 1342.86 1883.58 1296.63 1870.57 1293.06 1861.53 C 1292.57 1860.29 1292.84 1857.88 1293.41 1856.62 C 1294.17 1854.95 1295.64 1853.12 1297.44 1852.49 C 1302.62 1850.7 1315.24 1858.3 1320 1860.99 C 1342.66 1873.75 1362.09 1895.04 1368.8 1920.52 C 1368.94 1921.01 1369.04 1921.52 1369.18 1922.01 C 1369.31 1922.45 1369.46 1922.88 1369.6 1923.31 C 1370.35 1931.09 1370.54 1935.21 1369.84 1942.95 C 1367.52 1942.33 1359.86 1932.04 1355.02 1927.64 z" fill="rgb(10,71,79)" transform="translate(0,0)"></path>
<path d="M 1311.01 1939.6 C 1299.56 1916.26 1288.71 1906.49 1265.97 1893.32 C 1261.47 1890.72 1253.49 1887.04 1250.01 1883.61 C 1249.09 1879.93 1251.56 1875.32 1255.01 1874.02 C 1258.86 1872.57 1265.68 1875.91 1268.98 1877.44 C 1296.54 1890.23 1318.77 1911.49 1328.92 1940.52 C 1329.37 1941.81 1329.43 1941.94 1330.11 1943.26 C 1331.04 1947.15 1331.53 1951.17 1332.02 1955.15 C 1323.65 1944.61 1323.73 1943.12 1311.01 1939.6 z" fill="rgb(10,71,79)" transform="translate(0,0)"></path>
<path d="M 614.022 1192.44 C 625.138 1203.91 635.474 1215.33 643.369 1229.41 C 658.045 1250.26 667.483 1274.13 673.736 1298.76 C 677.854 1318.76 679.154 1334.76 677.076 1355.3 C 673.829 1377.14 665.689 1406.56 656.397 1427.16 L 654.995 1426.85 C 638.396 1443.77 621.85 1454.26 597.227 1454.7 C 576.644 1455.06 561.929 1445.52 544.131 1437.51 C 561.892 1415.11 582.647 1398.02 596.449 1371.89 C 614.684 1337.37 616.496 1307.07 605.591 1270.2 C 597.17 1248.58 588.227 1230.56 573.356 1212.27 C 588.887 1206.7 599.961 1201.54 614.022 1192.44 z" fill="rgb(160,108,44)" transform="translate(0,0)"></path>
<path d="M 588.701 1424.69 C 606.961 1402.29 610.936 1388.61 624.118 1363.31 C 636.286 1339.95 654.887 1317.17 673.736 1298.76 C 677.854 1318.76 679.154 1334.76 677.076 1355.3 C 668.827 1362.52 657.588 1369.19 649.872 1376.93 C 625.887 1400.98 623.212 1416.65 588.701 1424.69 z" fill="rgb(10,71,79)" transform="translate(0,0)"></path>
<path d="M 614.022 1192.44 C 625.138 1203.91 635.474 1215.33 643.369 1229.41 C 629.532 1241.03 618.815 1251.8 608.438 1266.84 C 607.439 1268.28 606.782 1268.97 605.591 1270.2 C 597.17 1248.58 588.227 1230.56 573.356 1212.27 C 588.887 1206.7 599.961 1201.54 614.022 1192.44 z" fill="rgb(10,71,79)" transform="translate(0,0)"></path>
<path d="M 488.244 1152.91 C 539.947 1142.17 576.288 1155.88 614.022 1192.44 C 599.961 1201.54 588.887 1206.7 573.356 1212.27 C 547.937 1181.58 525.9 1165.53 488.244 1152.91 z" fill="rgb(250,171,76)" transform="translate(0,0)"></path>
<metadata><recraft-signature>{"signed_by": "recraft", "signature_b64": "yQmRV0oyTtqZeInEp6vUuqnEMb0w9EdqczRCEul9cpJJt1Hyi3jN/7FC010b3wtnE19WXh03kdWFSPmUTh6xBg==", "signing_algo": "Ed25519", "generation_timestamp": 1778557394, "identifier": "c1cbfc0d-b508-477d-a727-651d19bdb3fa"}</recraft-signature></metadata></svg>