<svg xmlns="http://www.w3.org/2000/svg" height="1024" preserveAspectRatio="none" style="display: block;" version="1.1" viewBox="0 0 2048 2048" width="1024">
<defs>
	<linearGradient gradientUnits="userSpaceOnUse" id="Gradient1" x1="937.761" x2="1113.53" y1="737.746" y2="729.74">
		<stop class="stop0" offset="0" stop-color="rgb(255,255,255)" stop-opacity="0"></stop>
		<stop class="stop1" offset="1" stop-color="rgb(255,255,255)" stop-opacity="0.0509804"></stop>
	</linearGradient>
	<linearGradient gradientUnits="userSpaceOnUse" id="Gradient2" x1="590.851" x2="625.427" y1="1249.06" y2="1256.91">
		<stop class="stop0" offset="0" stop-color="rgb(255,255,255)" stop-opacity="0.921569"></stop>
		<stop class="stop1" offset="1" stop-color="rgb(255,255,255)" stop-opacity="0.980392"></stop>
	</linearGradient>
</defs>
<path d="M 714.708 165.14 C 721.902 145.472 733.11 127.516 747.619 112.415 C 779.575 79.3115 824.264 61.454 870.057 60.9481 C 918.414 60.5839 964.89 79.6593 999.047 113.89 C 1033.08 147.852 1051.15 192.491 1050.95 240.421 C 1050.9 254.001 1048.1 266.704 1048.2 279.567 L 1048.22 280.978 C 1069.7 268.259 1074.82 266.686 1100.1 269.501 C 1098.77 235.253 1119.47 213.437 1156.16 218.01 C 1162.66 218.819 1169.64 223.446 1175.35 226.76 C 1181.77 215.68 1187.2 207.296 1197.04 198.899 C 1230.4 170.434 1276.08 164.185 1316.29 180.893 C 1344.16 192.179 1366.25 214.299 1377.51 242.183 C 1388.32 269.156 1385.53 288.495 1374.62 314.239 C 1399.14 321.185 1418.81 338.667 1408.6 366.089 C 1422.19 370.673 1433.22 376.06 1441.77 388.304 C 1449.6 399.468 1452.49 413.362 1449.76 426.72 C 1446.75 440.741 1438.18 452.939 1426.01 460.514 C 1407.84 472.009 1393.23 470.586 1373.51 466.157 C 1346.8 498.63 1316.73 497.922 1281.19 481.347 L 1273.08 489.738 C 1272.62 496.422 1272.29 503.136 1271.26 509.752 C 1292.08 515.494 1308 522.856 1323.85 538.109 C 1344.86 557.983 1356.85 585.562 1357.05 614.476 C 1357.45 646.936 1346.68 671.445 1323.94 694.559 C 1357.1 696.961 1381.64 704.8 1405.12 730.407 C 1424.29 751.087 1434.23 778.675 1432.66 806.832 C 1431.11 839.064 1418.4 857.325 1395.39 878.149 C 1408 905.24 1413.74 922.416 1407.48 953.086 C 1402.27 978.569 1383.31 1002.23 1361.4 1015.84 C 1338.75 1029.97 1311.34 1034.3 1285.43 1027.86 C 1263.01 1067.1 1229.01 1090.58 1182.64 1091.07 C 1154.95 1091.37 1136.24 1083.06 1113.12 1068.84 C 1119.23 1086.14 1129.1 1104.33 1136.45 1121.72 C 1130.5 1130.44 1131.48 1139.12 1129.62 1150.23 C 1181.73 1159.44 1211.54 1178.24 1236.15 1225.91 C 1291.68 1197.15 1339.02 1208.39 1386.4 1246.01 C 1427.08 1230.26 1468.27 1212.12 1509.03 1196.14 C 1536.48 1185.38 1562.49 1173.52 1590.73 1164.4 C 1586.49 1154.81 1569.63 1135.92 1562.18 1126.05 L 1475.95 1013.45 C 1465.17 999.343 1450.83 982.333 1441.21 968.374 C 1483.79 954.984 1527.02 939.799 1569.38 925.576 L 1797.25 849.233 L 1891.58 817.825 C 1911.13 811.236 1934.06 802.652 1953.9 797.574 C 1955.21 800.85 1951.98 798.849 1949.68 800.66 C 1949.95 802.42 1950.61 803.403 1951.39 804.962 C 1877.77 858.708 1803.25 912.451 1730.32 967.065 C 1713.7 979.428 1696.97 991.655 1680.15 1003.75 C 1674.01 1008.19 1660.35 1017.47 1655.09 1022.17 L 1739.94 1154.21 L 1771.19 1202.05 C 1776.71 1210.5 1784.39 1221.49 1789.02 1230.12 L 1562.39 1320.69 C 1526.08 1335.25 1485.58 1350.3 1449.87 1365.72 C 1481.93 1412.2 1480.69 1472.61 1441.25 1514.28 C 1435.12 1520.76 1427.31 1525.82 1421.08 1532.42 C 1435.21 1533.45 1443.73 1533.31 1457.3 1539.33 C 1494.44 1555.79 1510.64 1598.8 1494.92 1635.87 C 1491.96 1642.86 1486.95 1648.14 1482 1653.86 C 1493.91 1662.63 1502.45 1668.94 1510.4 1681.75 C 1530.66 1714.42 1522.11 1755.22 1492.52 1778.96 C 1487.84 1782.71 1482.72 1785.87 1477.68 1789.1 C 1498.69 1808.77 1510.57 1828.34 1512.06 1857.5 C 1514.07 1897.02 1490.03 1932.28 1456.1 1951.23 C 1440.82 1959.76 1403.59 1968.52 1385.42 1970.89 C 1371.25 1972.73 1352.78 1962.2 1341.89 1952.56 C 1316.69 1965.51 1296.56 1961.35 1275.46 1944 C 1258.07 1944.17 1244.84 1943.52 1231.63 1930.44 C 1215.61 1914.57 1213.33 1895.16 1217.08 1874.29 C 1197.95 1912 1167.84 1941.93 1122.3 1935.84 C 1107.56 1949.11 1094.66 1959.69 1075.16 1965.64 C 1066.71 1968.21 1058.14 1969.06 1050.88 1973.75 C 1036.6 1982.96 1017.27 1985.74 1000.92 1981.13 C 987.704 1977.4 980.829 1971.1 971.2 1961.82 C 937.766 1975.33 915.356 1969.68 891.737 1943.1 C 873.149 1942.68 860.44 1942.09 846.1 1927.43 C 835.96 1917.06 830.13 1902.62 830.979 1888.02 C 831.777 1873.67 838.262 1860.22 849.001 1850.65 C 867.013 1834.74 885.642 1835.99 907.054 1840.71 C 911.078 1823.96 916.962 1814.98 928.885 1802.87 C 916.045 1794.14 905.042 1785.25 898.333 1770.8 C 888.12 1748.8 887.965 1721.81 902.305 1701.57 C 903.048 1700.52 903.807 1699.48 904.581 1698.45 C 892.928 1685.44 890.951 1680.81 885.538 1664.22 C 876.569 1660.87 871.093 1657.71 862.793 1653.12 C 846.754 1662.23 810.409 1673.75 796.996 1656.56 L 795.795 1656.28 C 792.083 1656.29 787.036 1653.92 781.346 1653.6 C 781.376 1653.99 801.105 1673.11 803.764 1676.86 C 814.862 1692.51 819.115 1712 815.546 1730.85 C 810.635 1757.15 795.841 1770.54 775.06 1784.93 C 793.015 1805.75 805.082 1816.14 807.562 1847.19 C 809.485 1872.9 801.127 1898.31 784.325 1917.86 C 771.741 1932.62 750.765 1948.42 730.959 1951.93 C 687.083 1959.71 669.963 1979.67 630.401 1946.18 C 605.973 1956.55 589.603 1951.32 568.851 1936.95 C 565.005 1936.99 558.454 1937.14 554.789 1936.67 C 540.342 1934.78 527.298 1927.06 518.694 1915.3 C 510.593 1904.23 507.322 1890.35 509.628 1876.83 C 511.926 1862.97 519.845 1850.68 531.512 1842.85 C 546.156 1832.96 559.911 1832.7 576.256 1835.89 C 580.007 1813.91 582.157 1810.2 597.964 1794.72 C 560.864 1769.26 551.51 1735.48 573.265 1695.27 C 539.408 1654.3 547.187 1605.32 587.604 1572.24 C 566.014 1565.54 554.046 1560.29 537.283 1545 C 502.671 1513.42 491.229 1466.1 505.233 1421.76 C 512.483 1398.8 523.022 1385.74 540.061 1369.48 C 523.911 1354.09 512.091 1342.04 505.224 1319.96 C 496.829 1292.24 499.716 1262.31 513.26 1236.7 C 533.569 1199.02 563.744 1187.41 601.317 1176.09 C 595.845 1171.59 574.631 1159.86 566.985 1155.18 C 566.66 1143.62 568.686 1125.7 569.309 1113.28 C 550.4 1101.4 537.278 1081.31 527.632 1061.77 C 520.235 1068.05 515.099 1072.48 506.713 1077.28 C 479.69 1092.41 447.812 1096.35 417.918 1088.25 C 383.883 1078.73 361.451 1058.22 344.335 1028.17 C 319.355 1034.59 296.125 1030.03 273.983 1017.01 C 250.189 1002.79 232.988 979.732 226.137 952.874 C 219.415 925.777 224.074 901.894 238.134 878.302 C 232.351 873.462 226.09 868.538 221.39 862.733 C 175.854 806.487 206.849 722.591 273.235 700.343 C 285.69 696.168 294.271 695.186 306.995 693.768 C 290.433 672.094 281.453 662.314 277.48 633.888 C 270.352 582.882 298.267 533.883 346.133 514.732 C 357.028 510.373 366.935 509.148 378.373 507.557 C 367.386 498.078 363.611 493.035 355.681 481.004 C 320.081 501.53 289.864 495.742 261.881 466.21 C 243.38 471.811 227.627 472.286 210.879 460.674 C 198.42 452.176 189.976 438.955 187.506 424.077 C 185.423 411.046 187.832 397.733 195.689 386.971 C 203.55 376.26 215.262 369.019 228.357 366.772 C 227.906 364.692 227.499 362.604 227.134 360.507 C 222.422 332.956 240.271 319.801 264.94 315.758 C 253.822 295.502 249.985 280.623 254.756 257.286 C 260.754 229.141 278.278 206.935 302.153 191.564 C 357.857 155.704 425.631 169.094 461.375 225.234 C 498.662 205.774 539.778 223.363 537.881 268.223 C 554.224 266.382 559.154 268.008 574.865 271.855 C 576.029 262.501 575.448 251.865 577.623 242.684 C 584.678 213.188 603.556 187.892 629.824 172.734 C 658.523 156.002 684.115 157.137 714.708 165.14 z M 660.468 1558.89 C 659.749 1620.83 726.042 1649.01 775.438 1616.13 C 780.1 1613.03 785.708 1601.92 790.622 1599.32 L 791.823 1600 C 789.083 1611.8 768.293 1621.2 780.352 1640.99 C 784.619 1647.99 789.325 1651.46 795.795 1656.28 L 796.996 1656.56 C 819.315 1665.13 844.272 1664.77 862.525 1647.51 C 870.44 1654.43 874.059 1656.52 883.933 1660.15 C 878.507 1625.75 881.177 1600.99 902.803 1572.39 C 924.773 1543.33 949.051 1533.74 982.761 1525.32 C 997.499 1512.96 1006.16 1506.3 1012.68 1487.77 C 1045.26 1502.01 1069.13 1476.75 1090.32 1457 L 1091.31 1455.29 C 1092.95 1456.51 1092.8 1456.56 1094.71 1456.84 C 1088.85 1483.72 1069.73 1512.76 1049.75 1531.75 C 1074.07 1529.35 1096.08 1534.76 1114.96 1550.97 C 1129.96 1563.75 1139.27 1581.97 1140.82 1601.62 C 1142.38 1622.78 1134.75 1640.08 1121.11 1655.71 C 1139.21 1664.84 1144.43 1672.12 1155.15 1689.01 C 1174.11 1685.11 1182.3 1679.43 1194.04 1664.47 C 1213.51 1675.57 1229.93 1679.8 1252.2 1674.33 C 1250.2 1667.8 1248.36 1661.42 1247.04 1654.76 C 1233.65 1587.04 1298.03 1522.46 1365.07 1526.87 C 1379.15 1527.79 1390.07 1530.98 1403.54 1534.88 C 1418.08 1530.4 1428.9 1522.57 1439.43 1511.73 C 1459.54 1490.7 1470.57 1462.59 1470.12 1433.5 C 1469.2 1388.24 1448.5 1367.57 1418.92 1339.51 L 1419.24 1339.01 C 1422.37 1339.51 1423.66 1339.62 1426.84 1339.74 L 1428.08 1338.43 C 1425.62 1314.41 1420.72 1296.93 1407.17 1276.03 C 1387.24 1244.83 1355.65 1222.89 1319.46 1215.1 C 1290.78 1209.08 1262.45 1213.17 1237.79 1229.39 C 1239 1232.67 1241.82 1239.05 1240.57 1242.18 C 1236.33 1236.47 1231.45 1221.47 1226.52 1213.41 C 1207.4 1182.13 1177.8 1163.36 1142.3 1155.68 C 1132.86 1153.64 1122.65 1154.82 1115.14 1152.91 L 1115.03 1151.64 C 1118.68 1149.27 1121.75 1149.82 1126.23 1149.83 L 1129.54 1130.76 C 1055.7 1186.17 980.984 1215.48 888.914 1222.68 C 881.005 1223.3 872.83 1223.93 864.964 1224.91 C 770.368 1227.38 698.166 1216.08 610.71 1180.9 C 607.239 1179.5 587.49 1184.51 583.24 1185.46 C 502.1 1203.53 471.155 1322.18 547.174 1368.74 C 522.947 1387 507.59 1412.09 503.336 1442.33 C 499.288 1473.07 507.597 1504.15 526.442 1528.77 C 560.196 1572.59 611.309 1580.93 660.468 1558.89 z M 716.516 169.765 C 690.532 160.034 665.416 159.313 639.817 170.864 C 614.083 182.598 594.218 204.281 584.776 230.942 C 576.01 255.011 576.239 284.776 587.282 308.148 C 589.085 312.025 591.151 315.774 593.467 319.368 C 600.004 316.076 605.752 312.95 612.729 310.683 C 620.262 308.522 626.584 307.084 634.266 305.453 L 635.061 307.992 C 634.694 308.455 634.328 308.918 633.962 309.38 C 622.709 312.245 610.004 314.657 599.759 320.29 C 572.666 335.185 548.4 368.852 553.185 401.068 C 557.098 403.282 558.699 403.689 560.82 407.405 L 560.655 409.069 C 556.835 408.293 543.282 398.329 537.541 395.438 C 504.158 379.008 464.582 381.418 433.44 401.78 C 395.402 426.741 379.776 466.651 382.35 510.842 C 363.095 512.532 345.641 516.364 329.309 527.159 C 271.496 565.369 262.125 643.558 311.789 692.451 L 320.619 688.288 C 329.199 684.845 338.094 682.244 347.177 680.521 C 402.631 671.743 440.597 692.018 477.712 731.083 C 477.764 729.083 477.87 727.084 478.032 725.09 C 480.007 697.738 493.234 675.354 513.888 657.855 C 534.551 640.191 561.514 631.7 588.569 634.335 C 616.93 636.742 643.153 650.384 661.405 672.225 C 682.841 698.378 684.884 726.679 681.596 758.676 C 682.69 757.522 683.8 756.382 684.927 755.259 C 717.553 722.676 761.906 704.571 808.014 705.015 C 860.479 705.166 901.787 729.282 937.823 765.358 C 929.507 728.244 933.767 697.446 959.965 668.373 C 978.278 647.703 1004.22 635.391 1031.82 634.277 C 1096.49 631.338 1138.71 678.378 1141.04 740.951 C 1145.44 734.324 1149.23 728.92 1154.46 722.877 C 1176.5 697.117 1207.95 681.278 1241.77 678.911 C 1278.36 678.228 1283.17 680.422 1318.27 693.523 C 1336.15 680.023 1347.82 660.836 1352.54 638.964 C 1358.52 611.294 1352.97 582.383 1337.18 558.886 C 1320.65 533.857 1295.8 518.128 1266.56 512.095 C 1267.22 509.791 1267.83 507.47 1268.37 505.133 C 1273.71 482.325 1265.08 453.465 1252.99 433.941 C 1222.41 384.561 1156.82 363.522 1105.77 395.634 C 1092.96 402.314 1089.8 408.036 1079.04 416.957 C 1079.3 402.449 1078.15 392.431 1071.12 379.4 C 1063.46 365.206 1049.43 352.957 1033.92 348.329 C 1028.01 346.566 1022.23 345.974 1016.59 344.312 L 1016.5 342.716 C 1021.11 341.224 1028.9 343.511 1033.85 344.709 C 1043.5 347.505 1047.8 350.447 1056 355.833 C 1066.37 322.27 1064.4 298.97 1033.86 274.721 C 1029.02 270.874 1020.25 267.993 1018.69 262.495 L 1020.03 261.414 C 1028.18 262.124 1040.23 274.473 1045.79 280.248 C 1045.83 272.383 1046.54 262.823 1047.37 254.943 C 1058.16 153.007 972.601 63.2375 871.284 63.9648 C 853.536 64.0923 809.199 69.0968 795.818 82.7976 C 764.74 94.7354 736.16 124.328 722.578 154.385 C 720.304 159.408 718.281 164.541 716.516 169.765 z M 1219.03 1869.95 C 1229.93 1855.33 1236.11 1847.81 1254.51 1842.25 C 1260.72 1841 1265.58 1840.27 1271.85 1839.47 C 1274.3 1822.03 1282.29 1812.83 1293.55 1800.42 C 1280.37 1790.63 1268.99 1781.68 1262.57 1766.05 C 1252.86 1742.41 1254.78 1719.92 1269.34 1698.9 C 1262.91 1691.02 1258.15 1685.05 1253.26 1676.08 C 1243.19 1680.6 1232.81 1680.07 1222.16 1678.61 C 1214.05 1677.5 1198.63 1668.73 1191.94 1668.8 C 1194.7 1674.52 1202.65 1679.98 1207.42 1685.04 C 1222.35 1700.85 1225.33 1725.75 1220.11 1746.2 C 1215.37 1763.79 1207.17 1772.45 1194.07 1784.23 C 1197.69 1789.14 1201.67 1793.07 1205.35 1798.01 C 1224.68 1823.97 1218.68 1841.39 1219.03 1869.95 z M 1334.69 1935.21 C 1351.35 1936.55 1359.82 1943.79 1379.31 1939.65 C 1397.92 1935.7 1412.35 1926.16 1422.58 1909.82 C 1426.2 1904.05 1427.27 1898.61 1431.79 1891.95 C 1435.77 1890.13 1435.54 1890.19 1438.12 1886.57 C 1434.29 1877.19 1428.46 1867.83 1419.79 1862.33 C 1379.41 1836.68 1337.38 1857.69 1327.54 1902.77 L 1325.35 1898.46 C 1329.33 1877.57 1338.06 1868.15 1354.59 1856.18 L 1353.73 1855.66 C 1341.87 1848.3 1331.4 1843.42 1317 1844.18 C 1278.08 1846.25 1251.86 1879.56 1263.86 1917.51 C 1266.44 1919.57 1271.37 1925.52 1273.17 1926.42 C 1291.16 1935.5 1309.75 1942.15 1329.11 1932.88 C 1327.61 1926.79 1326.26 1922.34 1325.4 1915.99 L 1327.72 1915.44 C 1328.98 1922.41 1331.74 1928.78 1334.69 1935.21 z M 482.637 716.706 C 481.292 720.418 481.032 723.911 480.849 727.785 C 480.321 731.427 480.184 733.643 480.02 737.336 C 479.987 738.441 479.987 738.823 479.858 739.874 L 480.449 744.608 C 481.601 756.729 482.27 757.647 485.303 769.094 C 492.184 785.785 497.776 796.63 511.533 809.522 C 518.916 816.185 525.461 821.487 534.683 825.622 C 548.668 833.2 568.719 837.985 584.519 836.244 C 662.764 831.435 706.634 746.603 664.485 681.57 C 649.908 659.536 627.124 644.248 601.209 639.111 C 575.026 633.488 547.683 638.572 525.271 653.229 C 503.144 667.837 487.79 690.698 482.637 716.706 z M 889.344 1929.17 C 891.108 1930.64 896.213 1935.89 897.621 1936.61 C 916.817 1946.49 937.291 1946.05 957.81 1941.09 C 953.871 1929.96 953.152 1917.94 955.737 1906.41 C 960.497 1885.96 972.058 1875.85 988.957 1865.36 C 988.74 1865.15 988.523 1864.94 988.307 1864.74 L 987.204 1863.74 C 955.714 1834.66 900.646 1847.08 886.857 1888.17 C 882.318 1901.64 883.211 1916.35 889.344 1929.17 z M 959.615 1932.95 C 976.685 1941.48 986.091 1952.35 1009.7 1950.93 C 1035.97 1949.36 1047.6 1939.44 1064.36 1920.66 C 1074.59 1920.69 1072.05 1920.21 1075.92 1930.38 C 1076.57 1925.92 1077.01 1924.04 1076.42 1919.6 L 1076.23 1917.32 C 1075.29 1901.38 1071.9 1889.3 1059.35 1877.94 C 1046.91 1866.77 1030.49 1861.11 1013.81 1862.25 C 997.095 1863.38 981.561 1871.28 970.793 1884.11 C 959.688 1897.14 954.058 1916.38 959.615 1932.95 z M 716.945 1891.68 C 718.661 1895.36 720.131 1898.33 722.097 1901.88 L 724.555 1902.36 C 725.435 1904.26 725.54 1921.81 725.971 1925.93 C 729.87 1916.05 730.87 1905.26 728.853 1894.83 C 723.107 1865.11 694.734 1845.38 664.874 1850.33 C 635.013 1855.29 614.533 1883.13 618.693 1913.11 C 619.84 1914.18 621.021 1915.22 622.233 1916.21 C 632.636 1924.66 653.055 1927 666.079 1925.22 C 690.095 1921.93 703.004 1909.75 716.945 1891.68 z M 1170.79 1916.24 C 1172.93 1914.09 1173.89 1910.95 1174.98 1908.2 C 1179.27 1888.09 1170.09 1879.08 1152.03 1872.15 C 1151.75 1873.91 1151.38 1875.76 1151.16 1877.51 C 1150.29 1883.88 1148.73 1890.13 1146.48 1896.15 C 1145.65 1898.48 1144.93 1900.84 1144.1 1903.17 C 1141.42 1908.03 1139.1 1913.4 1136.38 1918.45 C 1134.05 1921.96 1131.6 1925.38 1129.22 1928.86 C 1134.89 1929.65 1134.41 1927.63 1141.64 1926.16 C 1146.14 1926.14 1149 1925.81 1153.49 1925.24 C 1158.85 1921.03 1163.8 1915.29 1170.79 1916.24 z M 1107.18 808.109 C 1108.86 806.447 1110.48 804.726 1112.03 802.948 C 1113.9 800.818 1115.67 798.609 1117.35 796.329 C 1121.59 790.571 1125.2 784.377 1128.12 777.851 C 1128.99 775.903 1129.8 773.928 1130.55 771.928 C 1131.88 768.346 1133.01 764.69 1133.93 760.978 C 1134.5 758.648 1134.99 756.298 1135.4 753.933 C 1136.98 744.74 1137.27 735.37 1136.26 726.097 C 1135.55 719.603 1134.21 713.194 1132.25 706.961 C 1129.46 698.067 1125.43 689.606 1120.3 681.824 C 1118.42 678.969 1116.39 676.212 1114.22 673.565 C 1113.36 672.513 1112.48 671.48 1111.58 670.464 C 1109.84 668.509 1108.03 666.624 1106.14 664.811 C 1104.97 663.678 1103.76 662.575 1102.53 661.502 C 1100.01 659.299 1097.37 657.225 1094.64 655.287 C 1066.4 635.264 1029.83 631.245 997.918 644.659 C 959.858 660.659 935.521 698.378 936.628 739.65 C 937.735 780.921 964.061 817.281 1002.92 831.217 C 1036.14 843.126 1073.17 836.676 1100.4 814.238 C 1102.75 812.299 1105.01 810.254 1107.18 808.109 z M 657.3 1572.32 C 656.228 1560.56 654.874 1566.25 643.587 1569.34 C 653.767 1578.24 658.206 1569.27 651.481 1568.45 C 652.55 1568.14 653.442 1567.67 654.44 1567.17 C 654.701 1570.29 655.054 1569.76 657.3 1572.32 z M 549.853 1895.75 C 550.797 1875.95 557.102 1860.93 573.28 1848.33 C 574.426 1847.44 579.549 1844.2 580.026 1843.18 C 579.977 1842.84 579.858 1842.22 579.547 1842.04 C 558.674 1829.99 527.975 1842.88 518.98 1862.25 C 526.11 1870.69 530.92 1896.47 549.853 1895.75 z M 553.795 1894.81 C 556.325 1896.37 556.492 1896.96 558.663 1898.6 C 576.064 1911.81 594.749 1914.5 614.219 1906.01 C 614.572 1904.77 614.407 1904.79 614.451 1903.54 C 615.244 1880.66 627.02 1863.56 646.547 1853.29 L 648.324 1852.32 C 626.911 1834.55 596.548 1833.76 574.788 1851.74 C 559.426 1864.43 555.74 1875.68 553.795 1894.81 z M 1289.85 1848.12 C 1277.35 1844.13 1273.53 1842.2 1260 1844.14 C 1228.55 1848.64 1209.05 1883.64 1224.29 1911.92 C 1227.82 1914.23 1230.88 1917.68 1233.7 1919.58 C 1237.42 1922.07 1258.32 1927.02 1261.36 1924.81 C 1256.76 1910.07 1255 1899.26 1259.21 1884.01 C 1263.19 1869.37 1273.06 1857.02 1286.47 1849.91 C 1287.6 1849.31 1288.72 1848.72 1289.85 1848.12 z M 840.475 1912.06 L 842.348 1912.87 C 846.923 1914.88 845.178 1916.1 852.375 1918.43 C 865.417 1922.67 868.278 1923.58 882.289 1922.77 C 876.059 1890.44 887.608 1866.29 916.493 1850.51 L 915.64 1849.87 C 892.309 1832 860.266 1839.17 843.544 1862.23 C 833.928 1875.48 830.213 1898.3 840.475 1912.06 z" fill="rgb(0,0,2)" transform="translate(0,0)"></path>
<path d="M 1092.98 1449.82 C 1095.18 1450.57 1094.98 1450.81 1095.55 1453.03 L 1094.71 1456.84 C 1092.8 1456.56 1092.95 1456.51 1091.31 1455.29 L 1092.98 1449.82 z" fill="rgb(0,0,2)" fill-opacity="0.878431" transform="translate(0,0)"></path>
<path d="M 547.174 1368.74 C 471.155 1322.18 502.1 1203.53 583.24 1185.46 C 587.49 1184.51 607.239 1179.5 610.71 1180.9 C 698.166 1216.08 770.368 1227.38 864.964 1224.91 C 868.746 1224.95 872.392 1225.02 876.177 1224.88 C 894.299 1243.1 910.036 1249.38 936.018 1249.09 C 993.32 1248.45 984.968 1228.66 1036.58 1258.25 C 1030.09 1270.05 1019.14 1289.31 1024.52 1302.39 C 1034.82 1327.48 1058.55 1317.72 1067.33 1297.81 L 1067.69 1296.97 C 1073.86 1308.63 1080.92 1321.07 1085.93 1333.18 C 1101.61 1371.1 1102.86 1410.34 1092.98 1449.82 L 1091.31 1455.29 L 1090.32 1457 C 1069.13 1476.75 1045.26 1502.01 1012.68 1487.77 C 1006.16 1506.3 997.499 1512.96 982.761 1525.32 C 949.051 1533.74 924.773 1543.33 902.803 1572.39 C 881.177 1600.99 878.507 1625.75 883.933 1660.15 C 874.059 1656.52 870.44 1654.43 862.525 1647.51 C 844.272 1664.77 819.315 1665.13 796.996 1656.56 L 795.795 1656.28 C 789.325 1651.46 784.619 1647.99 780.352 1640.99 C 768.293 1621.2 789.083 1611.8 791.823 1600 L 790.622 1599.32 C 785.708 1601.92 780.1 1613.03 775.438 1616.13 C 726.042 1649.01 659.749 1620.83 660.468 1558.89 C 611.309 1580.93 560.196 1572.59 526.442 1528.77 C 507.597 1504.15 499.288 1473.07 503.336 1442.33 C 507.59 1412.09 522.947 1387 547.174 1368.74 z M 779.035 1516.56 C 804.198 1527.62 816.106 1501.39 815.972 1481.15 C 815.868 1465.41 814.459 1428.49 809.506 1413.63 C 798.666 1431.28 787.307 1449.37 777.965 1467.89 C 769.695 1484.29 762.841 1502.42 779.035 1516.56 z M 923.144 1458.27 C 958.378 1472.69 962.113 1423.95 959.406 1401.5 C 957.967 1389.57 957.22 1367.48 953.409 1356.65 C 939.831 1378.64 895.055 1436.33 923.144 1458.27 z M 610.583 1206.67 C 610.049 1207.5 610.101 1207.46 609.775 1208.42 L 608.208 1210.39 C 602.06 1222.37 593.224 1233.62 587.939 1246.49 L 587.314 1247.98 C 586.013 1249.8 586.208 1249.69 585.489 1251.92 C 587.944 1257.58 583.269 1259.31 589.797 1263.28 C 593.847 1265.73 595.725 1282.68 591.962 1286.51 C 590.772 1287.72 583.633 1288.46 581.143 1289.11 C 590.402 1300.27 606.009 1303.55 616.178 1291.57 C 627.569 1278.15 625.898 1252.61 624.576 1235.77 C 623.388 1232.12 621.375 1213.55 620.924 1209.01 C 620.734 1206.23 620.506 1204.29 620.094 1201.53 L 618.196 1203.16 C 616.681 1202.64 614.974 1202.08 613.515 1201.48 C 612.205 1203.53 611.695 1204.5 610.583 1206.67 z M 590.736 1402.72 C 577.632 1424.59 533.249 1484.05 560.558 1504.64 C 577.267 1510.22 590.833 1503.64 594.7 1486.72 C 599.556 1465.48 595.762 1423.59 590.736 1402.72 z M 694.41 1397.97 C 749.204 1419.86 727.002 1299.21 724.357 1296.68 C 712.142 1316.17 680.382 1362.76 685.925 1385.8 C 687.198 1391.09 690.502 1394.4 694.41 1397.97 z" fill="rgb(18,86,159)" transform="translate(0,0)"></path>
<path d="M 572.549 1369.4 C 523.188 1348.89 505.126 1288.45 539.332 1246.2 C 558.406 1222.64 578.878 1214.18 608.208 1210.39 C 602.06 1222.37 593.224 1233.62 587.939 1246.49 L 587.314 1247.98 C 586.013 1249.8 586.208 1249.69 585.489 1251.92 C 584.477 1254.33 583.9 1255.88 582.557 1258.11 L 580.14 1258.71 C 574.583 1263.32 572.485 1267.11 569.198 1273.22 C 551.074 1306.9 555.296 1337.29 572.549 1369.4 z" fill="rgb(80,136,201)" transform="translate(0,0)"></path>
<path d="M 724.357 1296.68 C 727.002 1299.21 749.204 1419.86 694.41 1397.97 C 690.502 1394.4 687.198 1391.09 685.925 1385.8 C 680.382 1362.76 712.142 1316.17 724.357 1296.68 z" fill="rgb(254,254,254)" fill-opacity="0.0117647" transform="translate(0,0)"></path>
<path d="M 618.196 1203.16 L 620.094 1201.53 C 620.506 1204.29 620.734 1206.23 620.924 1209.01 C 621.375 1213.55 623.388 1232.12 624.576 1235.77 C 625.898 1252.61 627.569 1278.15 616.178 1291.57 C 606.009 1303.55 590.402 1300.27 581.143 1289.11 C 583.633 1288.46 590.772 1287.72 591.962 1286.51 C 595.725 1282.68 593.847 1265.73 589.797 1263.28 C 583.269 1259.31 587.944 1257.58 585.489 1251.92 C 586.208 1249.69 586.013 1249.8 587.314 1247.98 C 588.298 1247.59 590.036 1247.13 590.887 1246.42 C 592.083 1245.41 593.871 1243.75 594.005 1242.03 C 594.242 1239.01 594.852 1235.85 597.531 1233.98 C 602.803 1230.6 600.308 1227.84 603.715 1222.89 C 605.263 1220.64 609.667 1218.4 610.2 1216.11 C 611.054 1212.44 611.356 1211.44 609.775 1208.42 C 610.101 1207.46 610.049 1207.5 610.583 1206.67 C 616.038 1208.82 616.251 1208.8 618.196 1203.16 z M 590.544 1257.6 C 591.975 1253.22 592.699 1252.09 588.858 1249.41 C 588.012 1252.49 585.9 1257.71 590.544 1257.6 z M 589.038 1290.94 C 589.13 1290.53 589.223 1290.12 589.315 1289.71 C 589.007 1289.88 588.699 1290.04 588.39 1290.21 C 588.174 1291.04 588.208 1290.76 588.194 1291.15 L 588.254 1291.22 C 588.632 1291.17 588.389 1291.23 589.038 1290.94 z" fill="url(#Gradient2)" transform="translate(0,0)"></path>
<path d="M 588.858 1249.41 C 592.699 1252.09 591.975 1253.22 590.544 1257.6 C 585.9 1257.71 588.012 1252.49 588.858 1249.41 z" fill="rgb(254,254,254)" fill-opacity="0.866667" transform="translate(0,0)"></path>
<path d="M 588.39 1290.21 C 588.699 1290.04 589.007 1289.88 589.315 1289.71 C 589.223 1290.12 589.13 1290.53 589.038 1290.94 C 588.389 1291.23 588.632 1291.17 588.254 1291.22 L 588.194 1291.15 C 588.208 1290.76 588.174 1291.04 588.39 1290.21 z" fill="rgb(254,254,254)" fill-opacity="0.901961" transform="translate(0,0)"></path>
<path d="M 620.924 1209.01 C 638.397 1209.58 648.021 1214.67 664.28 1219.05 C 657.79 1220.79 626.855 1230.58 624.576 1235.77 C 623.388 1232.12 621.375 1213.55 620.924 1209.01 z" fill="rgb(80,136,201)" transform="translate(0,0)"></path>
<path d="M 585.489 1251.92 C 587.944 1257.58 583.269 1259.31 589.797 1263.28 C 593.847 1265.73 595.725 1282.68 591.962 1286.51 C 590.772 1287.72 583.633 1288.46 581.143 1289.11 C 575.402 1276.83 578.912 1270.6 582.557 1258.11 C 583.9 1255.88 584.477 1254.33 585.489 1251.92 z" fill="rgb(254,254,254)" transform="translate(0,0)"></path>
<path d="M 609.775 1208.42 C 611.356 1211.44 611.054 1212.44 610.2 1216.11 C 609.667 1218.4 605.263 1220.64 603.715 1222.89 C 600.308 1227.84 602.803 1230.6 597.531 1233.98 C 594.852 1235.85 594.242 1239.01 594.005 1242.03 C 593.871 1243.75 592.083 1245.41 590.887 1246.42 C 590.036 1247.13 588.298 1247.59 587.314 1247.98 L 587.939 1246.49 C 593.224 1233.62 602.06 1222.37 608.208 1210.39 L 609.775 1208.42 z" fill="rgb(254,254,254)" fill-opacity="0.988235" transform="translate(0,0)"></path>
<path d="M 613.515 1201.48 C 617.236 1196.38 619.998 1188.4 620.058 1198.97 L 620.094 1201.53 L 618.196 1203.16 C 616.681 1202.64 614.974 1202.08 613.515 1201.48 z" fill="rgb(254,254,254)" transform="translate(0,0)"></path>
<path d="M 610.583 1206.67 C 611.695 1204.5 612.205 1203.53 613.515 1201.48 C 614.974 1202.08 616.681 1202.64 618.196 1203.16 C 616.251 1208.8 616.038 1208.82 610.583 1206.67 z" fill="rgb(254,254,254)" fill-opacity="0.580392" transform="translate(0,0)"></path>
<path d="M 864.964 1224.91 C 872.83 1223.93 881.005 1223.3 888.914 1222.68 C 980.984 1215.48 1055.7 1186.17 1129.54 1130.76 L 1126.23 1149.83 C 1121.75 1149.82 1118.68 1149.27 1115.03 1151.64 L 1115.14 1152.91 C 1122.65 1154.82 1132.86 1153.64 1142.3 1155.68 C 1177.8 1163.36 1207.4 1182.13 1226.52 1213.41 C 1231.45 1221.47 1236.33 1236.47 1240.57 1242.18 C 1241.82 1239.05 1239 1232.67 1237.79 1229.39 C 1262.45 1213.17 1290.78 1209.08 1319.46 1215.1 C 1355.65 1222.89 1387.24 1244.83 1407.17 1276.03 C 1420.72 1296.93 1425.62 1314.41 1428.08 1338.43 L 1426.84 1339.74 C 1423.66 1339.62 1422.37 1339.51 1419.24 1339.01 L 1418.92 1339.51 C 1448.5 1367.57 1469.2 1388.24 1470.12 1433.5 C 1470.57 1462.59 1459.54 1490.7 1439.43 1511.73 C 1428.9 1522.57 1418.08 1530.4 1403.54 1534.88 C 1390.07 1530.98 1379.15 1527.79 1365.07 1526.87 C 1298.03 1522.46 1233.65 1587.04 1247.04 1654.76 C 1248.36 1661.42 1250.2 1667.8 1252.2 1674.33 C 1229.93 1679.8 1213.51 1675.57 1194.04 1664.47 C 1182.3 1679.43 1174.11 1685.11 1155.15 1689.01 C 1144.43 1672.12 1139.21 1664.84 1121.11 1655.71 C 1134.75 1640.08 1142.38 1622.78 1140.82 1601.62 C 1139.27 1581.97 1129.96 1563.75 1114.96 1550.97 C 1096.08 1534.76 1074.07 1529.35 1049.75 1531.75 C 1069.73 1512.76 1088.85 1483.72 1094.71 1456.84 L 1095.55 1453.03 C 1094.98 1450.81 1095.18 1450.57 1092.98 1449.82 C 1102.86 1410.34 1101.61 1371.1 1085.93 1333.18 C 1080.92 1321.07 1073.86 1308.63 1067.69 1296.97 L 1068.91 1293.71 C 1072.79 1266.22 1069.23 1237.99 1063.72 1210.88 C 1055.79 1226.36 1045.27 1242.59 1036.58 1258.25 C 984.968 1228.66 993.32 1248.45 936.018 1249.09 C 910.036 1249.38 894.299 1243.1 876.177 1224.88 C 872.392 1225.02 868.746 1224.95 864.964 1224.91 z M 1141.02 1445.26 C 1143.19 1446.91 1146.14 1449.28 1148.33 1450.73 C 1174.62 1459.37 1182.78 1433.36 1183.56 1412.65 C 1183.91 1403.28 1181.07 1352.64 1176.83 1346.8 C 1162.64 1371.06 1127.45 1417.98 1141.02 1445.26 z M 1220.14 1569.05 C 1236.12 1575 1247.68 1569.75 1252.91 1553.99 C 1259.54 1534.05 1256.84 1486.24 1250.73 1466.7 C 1237.63 1488.25 1192.72 1549.01 1220.14 1569.05 z M 1342.1 1473.52 C 1368.25 1484.95 1379.58 1456.73 1379.16 1436.26 C 1378.87 1422.56 1377.7 1384.9 1373.33 1373.4 L 1372.48 1372.61 C 1358.3 1395.71 1315.7 1450.32 1342.1 1473.52 z" fill="rgb(3,45,96)" transform="translate(0,0)"></path>
<path d="M 1067.69 1296.97 L 1068.91 1293.71 C 1097.85 1331.01 1113.92 1408.87 1095.55 1453.03 C 1094.98 1450.81 1095.18 1450.57 1092.98 1449.82 C 1102.86 1410.34 1101.61 1371.1 1085.93 1333.18 C 1080.92 1321.07 1073.86 1308.63 1067.69 1296.97 z" fill="rgb(0,0,2)" transform="translate(0,0)"></path>
<path d="M 1012.68 1487.77 C 1045.26 1502.01 1069.13 1476.75 1090.32 1457 C 1087.82 1480.06 1060.51 1521.5 1040.97 1534.1 C 1017.62 1524.48 1007.39 1524.46 982.761 1525.32 C 997.499 1512.96 1006.16 1506.3 1012.68 1487.77 z" fill="rgb(3,45,96)" transform="translate(0,0)"></path>
<path d="M 795.818 82.7976 C 809.199 69.0968 853.536 64.0923 871.284 63.9648 C 972.601 63.2375 1058.16 153.007 1047.37 254.943 C 1046.54 262.823 1045.83 272.383 1045.79 280.248 C 1040.23 274.473 1028.18 262.124 1020.03 261.414 L 1018.69 262.495 C 1020.25 267.993 1029.02 270.874 1033.86 274.721 C 1064.4 298.97 1066.37 322.27 1056 355.833 C 1047.8 350.447 1043.5 347.505 1033.85 344.709 C 1028.9 343.511 1021.11 341.224 1016.5 342.716 L 1016.59 344.312 C 1022.23 345.974 1028.01 346.566 1033.92 348.329 C 1049.43 352.957 1063.46 365.206 1071.12 379.4 C 1078.15 392.431 1079.3 402.449 1079.04 416.957 C 1089.8 408.036 1092.96 402.314 1105.77 395.634 C 1156.82 363.522 1222.41 384.561 1252.99 433.941 C 1265.08 453.465 1273.71 482.325 1268.37 505.133 C 1267.83 507.47 1267.22 509.791 1266.56 512.095 C 1295.8 518.128 1320.65 533.857 1337.18 558.886 C 1352.97 582.383 1358.52 611.294 1352.54 638.964 C 1347.82 660.836 1336.15 680.023 1318.27 693.523 C 1283.17 680.422 1278.36 678.228 1241.77 678.911 C 1207.95 681.278 1176.5 697.117 1154.46 722.877 C 1149.23 728.92 1145.44 734.324 1141.04 740.951 C 1138.71 678.378 1096.49 631.338 1031.82 634.277 C 1004.22 635.391 978.278 647.703 959.965 668.373 C 933.767 697.446 929.507 728.244 937.823 765.358 C 901.787 729.282 860.479 705.166 808.014 705.015 C 761.906 704.571 717.553 722.676 684.927 755.259 C 683.8 756.382 682.69 757.522 681.596 758.676 C 684.884 726.679 682.841 698.378 661.405 672.225 C 643.153 650.384 616.93 636.742 588.569 634.335 C 561.514 631.7 534.551 640.191 513.888 657.855 C 493.234 675.354 480.007 697.738 478.032 725.09 C 477.87 727.084 477.764 729.083 477.712 731.083 C 440.597 692.018 402.631 671.743 347.177 680.521 C 338.094 682.244 329.199 684.845 320.619 688.288 L 311.789 692.451 C 262.125 643.558 271.496 565.369 329.309 527.159 C 345.641 516.364 363.095 512.532 382.35 510.842 C 379.776 466.651 395.402 426.741 433.44 401.78 C 464.582 381.418 504.158 379.008 537.541 395.438 C 543.282 398.329 556.835 408.293 560.655 409.069 L 560.82 407.405 C 558.699 403.689 557.098 403.282 553.185 401.068 C 548.4 368.852 572.666 335.185 599.759 320.29 C 610.004 314.657 622.709 312.245 633.962 309.38 C 634.328 308.918 634.694 308.455 635.061 307.992 L 634.266 305.453 C 626.584 307.084 620.262 308.522 612.729 310.683 C 605.752 312.95 600.004 316.076 593.467 319.368 C 591.151 315.774 589.085 312.025 587.282 308.148 C 576.239 284.776 576.01 255.011 584.776 230.942 C 594.218 204.281 614.083 182.598 639.817 170.864 C 665.416 159.313 690.532 160.034 716.516 169.765 C 718.281 164.541 720.304 159.408 722.578 154.385 C 736.16 124.328 764.74 94.7354 795.818 82.7976 z M 952.844 594.575 C 988.943 564.868 1037.25 560.947 1078.22 583.326 C 1105.85 601.708 1109.4 609.725 1125.77 636.192 C 1127.75 608.139 1122.11 583.023 1103.14 561.319 C 1088.18 544.083 1066.95 533.547 1044.18 532.06 C 1041.17 531.891 1035.73 531.983 1032.78 532.398 C 1007.04 535.486 983.61 548.745 967.711 569.217 C 960.732 578.098 957.659 584.618 952.844 594.575 z M 492.898 635.106 C 509.881 607.916 525.237 588.293 556.535 575.965 C 594.423 562.297 634.104 568.347 665.03 594.592 C 643.746 552.323 614.685 530.19 566.594 533.232 C 514.329 543.22 489.139 583.633 492.898 635.106 z" fill="rgb(18,86,159)" transform="translate(0,0)"></path>
<path d="M 795.818 82.7976 C 809.199 69.0968 853.536 64.0923 871.284 63.9648 C 972.601 63.2375 1058.16 153.007 1047.37 254.943 C 1046.54 262.823 1045.83 272.383 1045.79 280.248 C 1040.23 274.473 1028.18 262.124 1020.03 261.414 L 1018.69 262.495 C 1020.25 267.993 1029.02 270.874 1033.86 274.721 C 1064.4 298.97 1066.37 322.27 1056 355.833 C 1047.8 350.447 1043.5 347.505 1033.85 344.709 C 1041.84 329.929 1039.5 312.812 1033.06 297.971 C 1024.26 278.127 1007.91 262.609 987.636 254.852 C 961.977 244.871 939.646 250.358 915.742 260.901 C 925.145 251.104 931.869 241.785 936.829 228.967 C 945.855 205.378 944.968 179.144 934.371 156.218 C 930.726 148.198 919.781 128.334 911.213 125.084 L 910.381 123.999 C 894.304 103.341 872.2 89.3454 846.061 85.9303 C 828.996 81.0184 813.371 82.8443 795.818 82.7976 z" fill="rgb(3,45,96)" transform="translate(0,0)"></path>
<path d="M 1105.77 395.634 C 1156.82 363.522 1222.41 384.561 1252.99 433.941 C 1265.08 453.465 1273.71 482.325 1268.37 505.133 C 1267.83 507.47 1267.22 509.791 1266.56 512.095 C 1295.8 518.128 1320.65 533.857 1337.18 558.886 C 1352.97 582.383 1358.52 611.294 1352.54 638.964 C 1347.82 660.836 1336.15 680.023 1318.27 693.523 C 1283.17 680.422 1278.36 678.228 1241.77 678.911 C 1248.49 677.353 1255.69 677.841 1262.62 677.936 C 1290.61 623.104 1285.42 575.338 1238.53 532.877 C 1221.56 517.512 1206.42 512.24 1185.22 505.059 C 1190.48 503.706 1204.7 500.407 1207.19 496.863 C 1222.66 474.876 1210.56 437.497 1193.05 420.8 C 1175.07 403.647 1156.02 396.445 1132.26 395.03 C 1123.17 394.49 1115.11 395.769 1106.62 395.652 L 1105.77 395.634 z" fill="rgb(3,45,96)" transform="translate(0,0)"></path>
<path d="M 320.619 688.288 C 310.735 678.253 304.597 671.454 298.552 658.671 C 275.663 610.267 304.397 548.848 352.026 527.912 C 382.678 514.439 409.837 519.017 440.35 530.113 C 366.079 539.668 327.664 610.734 347.177 680.521 C 338.094 682.244 329.199 684.845 320.619 688.288 z" fill="rgb(80,136,201)" transform="translate(0,0)"></path>
<path d="M 612.729 310.683 C 608.299 308.499 604.042 300.979 601.817 296.457 C 572.057 235.974 615.695 177.463 681.001 179.883 C 697.534 180.495 707.866 183.232 723.806 189.104 C 717.124 190.269 710.53 191.893 704.071 193.963 C 675.352 203.444 654.088 219.768 640.366 247.07 C 631.392 264.924 627.9 286.125 634.266 305.453 C 626.584 307.084 620.262 308.522 612.729 310.683 z" fill="rgb(80,136,201)" transform="translate(0,0)"></path>
<path d="M 846.061 85.9303 C 872.2 89.3454 894.304 103.341 910.381 123.999 L 911.213 125.084 C 915.109 133.219 920.752 142.842 925.023 151.504 C 858.638 99.7114 771.969 120.046 723.764 185.716 C 728.541 161.141 737.63 143.207 754.728 124.726 C 781.057 96.2662 808.456 87.4369 846.061 85.9303 z" fill="rgb(80,136,201)" transform="translate(0,0)"></path>
<path d="M 1032.78 532.398 C 1035.73 531.983 1041.17 531.891 1044.18 532.06 C 1066.95 533.547 1088.18 544.083 1103.14 561.319 C 1122.11 583.023 1127.75 608.139 1125.77 636.192 C 1109.4 609.725 1105.85 601.708 1078.22 583.326 C 1037.25 560.947 988.943 564.868 952.844 594.575 C 957.659 584.618 960.732 578.098 967.711 569.217 C 983.61 548.745 1007.04 535.486 1032.78 532.398 z M 1110.67 606.281 C 1111.6 607.388 1112.19 608.238 1113.31 609.148 C 1116.38 613.281 1119.33 617.788 1122.45 621.766 C 1121.98 614.99 1121.88 612.657 1120.68 605.89 C 1120.41 604.304 1120.04 602.748 1119.81 601.154 C 1103.13 547.239 1054.91 520.136 1002.29 545.353 C 996.916 548.205 990.264 552.153 986.002 556.504 C 977.471 564.143 974.398 567.315 966.909 576.32 C 975.296 574.87 975.759 574.111 982.442 572.602 C 1034.77 558.235 1072.81 565.557 1110.67 606.281 z" fill="rgb(0,0,2)" transform="translate(0,0)"></path>
<path d="M 1002.29 545.353 C 1054.91 520.136 1103.13 547.239 1119.81 601.154 L 1117.97 600.438 C 1110.71 597.332 1111.42 600.985 1110.67 606.281 C 1072.81 565.557 1034.77 558.235 982.442 572.602 C 986.411 568.242 990.187 565.054 995.254 561.881 C 998.787 562.465 1006.71 561.347 1007.34 558.409 C 1009.15 549.915 1010.02 546.12 1002.29 545.353 z" fill="rgb(166,188,220)" fill-opacity="0.980392" transform="translate(0,0)"></path>
<path d="M 986.002 556.504 C 990.264 552.153 996.916 548.205 1002.29 545.353 C 1010.02 546.12 1009.15 549.915 1007.34 558.409 C 1006.71 561.347 998.787 562.465 995.254 561.881 C 992.304 555.745 992.621 557.113 986.002 556.504 z" fill="rgb(186,194,213)" fill-opacity="0.815686" transform="translate(0,0)"></path>
<path d="M 1110.67 606.281 C 1111.42 600.985 1110.71 597.332 1117.97 600.438 L 1119.81 601.154 C 1120.04 602.748 1120.41 604.304 1120.68 605.89 L 1119.77 606.929 C 1117.43 609.716 1116.68 609.447 1113.31 609.148 C 1112.19 608.238 1111.6 607.388 1110.67 606.281 z" fill="rgb(186,194,213)" fill-opacity="0.929412" transform="translate(0,0)"></path>
<path d="M 1113.31 609.148 C 1116.68 609.447 1117.43 609.716 1119.77 606.929 L 1120.68 605.89 C 1121.88 612.657 1121.98 614.99 1122.45 621.766 C 1119.33 617.788 1116.38 613.281 1113.31 609.148 z" fill="rgb(186,194,213)" fill-opacity="0.988235" transform="translate(0,0)"></path>
<path d="M 566.594 533.232 C 614.685 530.19 643.746 552.323 665.03 594.592 C 634.104 568.347 594.423 562.297 556.535 575.965 C 525.237 588.293 509.881 607.916 492.898 635.106 C 489.139 583.633 514.329 543.22 566.594 533.232 z M 631.977 571.464 C 638.957 573.903 647.47 577.459 653.622 581.429 C 641.801 563.57 641.857 565.189 626.083 552.303 C 623.064 548.118 610.795 543.447 606.115 541.134 C 600.961 539.451 597.048 538.575 591.859 537.343 C 580.459 536.13 572.712 535.845 561.191 537.53 C 556.675 538.624 548.771 540.853 544.962 543.287 L 541.482 544.839 C 538.832 546.042 537.449 547.103 535.116 548.711 C 532.514 550.144 531.122 551.332 528.768 553.055 C 523.584 557.423 519.26 561.392 515.264 566.879 C 515.029 567.085 514.794 567.292 514.558 567.499 C 511.713 570.969 509.453 574.136 507.277 578.09 L 506.924 578.905 C 499.384 595.992 497.506 601.504 496.702 620.311 C 504.147 609.639 510.859 601.82 520.797 593.117 C 522.518 592.058 523.765 590.925 525.325 589.657 C 526.381 588.979 526.595 588.833 527.523 588.126 L 528.205 587.491 C 530.34 586.005 533.343 584.323 535.067 582.663 C 572.683 563.545 590.59 561.129 631.977 571.464 z" fill="rgb(0,0,2)" transform="translate(0,0)"></path>
<path d="M 606.115 541.134 C 610.795 543.447 623.064 548.118 626.083 552.303 C 622.95 554.505 618.729 563.091 623.651 565.311 C 628.391 567.448 628.646 567.751 631.977 571.464 C 590.59 561.129 572.683 563.545 535.067 582.663 C 540.548 570.472 547.148 574.199 551.188 565.521 C 555.263 556.77 537.738 563.949 542.995 553.175 L 543.679 552.906 C 552.692 549.314 550.961 546.194 561.617 542.929 C 569.633 542.088 580.218 543.056 588.487 543.177 C 599.782 543.439 595.567 543.917 606.115 541.134 z" fill="rgb(186,194,213)" fill-opacity="0.870588" transform="translate(0,0)"></path>
<path d="M 533.286 560.46 C 538.025 557.697 539.422 554.467 542.995 553.175 C 537.738 563.949 555.263 556.77 551.188 565.521 C 547.148 574.199 540.548 570.472 535.067 582.663 C 533.343 584.323 530.34 586.005 528.205 587.491 C 537.994 569.96 519.775 583.566 524.837 571.481 C 526.676 567.092 528.726 562.503 533.286 560.46 z M 533.494 570.355 C 535.083 570.333 536.361 569.04 536.365 567.45 C 536.37 565.86 535.099 564.561 533.509 564.53 C 532.457 564.509 531.475 565.058 530.942 565.965 C 530.408 566.872 530.405 567.996 530.934 568.906 C 531.462 569.816 532.441 570.37 533.494 570.355 z" fill="rgb(186,194,213)" fill-opacity="0.603922" transform="translate(0,0)"></path>
<path d="M 533.509 564.53 C 535.099 564.561 536.37 565.86 536.365 567.45 C 536.361 569.04 535.083 570.333 533.494 570.355 C 532.441 570.37 531.462 569.816 530.934 568.906 C 530.405 567.996 530.408 566.872 530.942 565.965 C 531.475 565.058 532.457 564.509 533.509 564.53 z" fill="rgb(186,194,213)" fill-opacity="0.662745" transform="translate(0,0)"></path>
<path d="M 514.558 567.499 L 517.088 568.495 C 527.208 572.193 506.792 575.146 525.325 589.657 C 523.765 590.925 522.518 592.058 520.797 593.117 C 515.083 585.944 509.931 586.177 507.277 578.09 C 509.453 574.136 511.713 570.969 514.558 567.499 z" fill="rgb(202,208,220)" fill-opacity="0.207843" transform="translate(0,0)"></path>
<path d="M 528.768 553.055 C 528.907 558.815 528.113 558.78 533.286 560.46 C 528.726 562.503 526.676 567.092 524.837 571.481 C 519.775 583.566 537.994 569.96 528.205 587.491 L 527.523 588.126 C 524.815 583.606 522.602 582.65 520.302 579.054 C 517.83 575.189 529.054 563.847 524.774 561.726 C 523.245 562.038 518.855 565.572 515.264 566.879 C 519.26 561.392 523.584 557.423 528.768 553.055 z" fill="rgb(186,194,213)" fill-opacity="0.415686" transform="translate(0,0)"></path>
<path d="M 561.191 537.53 C 572.712 535.845 580.459 536.13 591.859 537.343 C 589.476 538.119 581.573 539.443 587.342 542.549 L 588.487 543.177 C 580.218 543.056 569.633 542.088 561.617 542.929 L 561.191 537.53 z" fill="rgb(186,194,213)" fill-opacity="0.72549" transform="translate(0,0)"></path>
<path d="M 515.264 566.879 C 518.855 565.572 523.245 562.038 524.774 561.726 C 529.054 563.847 517.83 575.189 520.302 579.054 C 522.602 582.65 524.815 583.606 527.523 588.126 C 526.595 588.833 526.381 588.979 525.325 589.657 C 506.792 575.146 527.208 572.193 517.088 568.495 L 514.558 567.499 C 514.794 567.292 515.029 567.085 515.264 566.879 z" fill="rgb(202,208,220)" fill-opacity="0.313725" transform="translate(0,0)"></path>
<path d="M 544.962 543.287 C 548.771 540.853 556.675 538.624 561.191 537.53 L 561.617 542.929 C 550.961 546.194 552.692 549.314 543.679 552.906 L 543.729 552.066 C 546.5 549.355 545.927 547.169 544.962 543.287 z" fill="rgb(186,194,213)" fill-opacity="0.462745" transform="translate(0,0)"></path>
<path d="M 535.116 548.711 C 537.536 550.14 540.993 551.501 543.729 552.066 L 543.679 552.906 L 542.995 553.175 C 539.422 554.467 538.025 557.697 533.286 560.46 C 528.113 558.78 528.907 558.815 528.768 553.055 C 531.122 551.332 532.514 550.144 535.116 548.711 z" fill="rgb(186,194,213)" fill-opacity="0.376471" transform="translate(0,0)"></path>
<path d="M 591.859 537.343 C 597.048 538.575 600.961 539.451 606.115 541.134 C 595.567 543.917 599.782 543.439 588.487 543.177 L 587.342 542.549 C 581.573 539.443 589.476 538.119 591.859 537.343 z" fill="rgb(186,194,213)" fill-opacity="0.584314" transform="translate(0,0)"></path>
<path d="M 544.962 543.287 C 545.927 547.169 546.5 549.355 543.729 552.066 C 540.993 551.501 537.536 550.14 535.116 548.711 C 537.449 547.103 538.832 546.042 541.482 544.839 L 544.962 543.287 z" fill="rgb(186,194,213)" fill-opacity="0.239216" transform="translate(0,0)"></path>
<path d="M 472.663 401.334 C 494.503 398.388 513.803 405.358 532.202 416.583 C 488.585 409.5 442.115 435.15 432.891 480.016 C 432.65 495.642 433.704 500.505 437.847 515.708 C 437.19 515.262 436.539 514.808 435.892 514.346 C 381.2 475.156 411.75 410.091 472.663 401.334 z" fill="rgb(80,136,201)" transform="translate(0,0)"></path>
<path d="M 242.949 877.897 C 213.739 855.592 198.849 826.272 203.748 788.78 C 207.291 761.604 221.555 736.974 243.364 720.376 C 255.167 711.423 282.197 698.046 296.634 697.048 C 314.748 695.796 313.676 695.768 330.628 688.242 C 345.093 681.82 371.271 681.083 387.155 683.389 C 423.044 688.449 455.398 707.709 476.954 736.846 C 477.054 835.837 600.421 876.953 661.461 800.158 C 671.467 787.57 675.251 771.822 685.942 760.048 C 699.999 744.566 719.019 731.868 738.061 723.291 C 807.127 693.217 880.933 711.481 932.307 765.19 C 941.094 773.04 943.908 783.612 950.119 793.002 C 979.339 837.181 1033.98 852.101 1081.42 830.199 C 1105.53 819.072 1124.34 798.978 1133.86 774.191 C 1136.56 766.973 1138.62 754.311 1141.62 748.443 C 1171.8 689.568 1240.74 668.591 1299.72 691.392 C 1304.52 692.644 1313.21 696.433 1315.74 696.903 C 1325.12 698.519 1335.28 697.972 1344.62 699.788 C 1373.18 705.347 1400.6 724.126 1415.47 749.173 C 1440.15 790.757 1434.04 850.102 1390.4 876.73 C 1405.31 901.887 1411.76 924.958 1404.07 954.308 C 1397.14 979.666 1380.53 1001.28 1357.8 1014.5 C 1336.06 1027.12 1311.35 1030.37 1286.87 1025.19 C 1289.25 1018.46 1292.64 1009.71 1291.49 1002.48 C 1287.1 1011.7 1284.26 1021.69 1279.69 1030.72 C 1272.36 1045.17 1259.65 1058 1246.74 1067.57 C 1203.83 1099.37 1130.93 1095.09 1100.52 1047.72 C 1101.91 1042.71 1106.36 1029.42 1104.72 1025.31 C 1101.74 1027.3 1098.84 1040.91 1097.55 1044.77 C 1075.25 1111.38 986.058 1146.48 924.696 1112.63 C 889.128 1171.79 805.284 1186.19 747.594 1151.67 C 735.341 1144.34 718.931 1131.37 711.698 1118.8 C 683.464 1136.08 649.462 1141.28 617.354 1133.22 C 584.636 1125.08 556.394 1104.47 538.655 1075.8 C 531.272 1063.62 531.35 1060.01 526.375 1047.42 L 524.391 1047.11 C 522.901 1050.58 524.755 1054.5 526.081 1058.35 C 506.434 1078.66 478.474 1088.84 450.495 1089.27 C 419.663 1089.76 389.966 1077.65 368.28 1055.73 C 354.847 1042.41 346.086 1026.44 340.747 1008.43 C 340.2 1006.58 340.4 1007.14 338.995 1005.68 L 336.348 1009.09 C 338.489 1013.78 340.971 1021.08 342.844 1026.09 C 340.788 1026.53 338.719 1026.91 336.641 1027.24 C 258.742 1039.17 194.135 943.513 242.949 877.897 z" fill="rgb(80,136,201)" transform="translate(0,0)"></path>
<path d="M 1299.72 691.392 C 1304.52 692.644 1313.21 696.433 1315.74 696.903 C 1325.12 698.519 1335.28 697.972 1344.62 699.788 C 1373.18 705.347 1400.6 724.126 1415.47 749.173 C 1440.15 790.757 1434.04 850.102 1390.4 876.73 C 1405.31 901.887 1411.76 924.958 1404.07 954.308 C 1397.14 979.666 1380.53 1001.28 1357.8 1014.5 C 1336.06 1027.12 1311.35 1030.37 1286.87 1025.19 C 1289.25 1018.46 1292.64 1009.71 1291.49 1002.48 C 1287.1 1011.7 1284.26 1021.69 1279.69 1030.72 C 1272.36 1045.17 1259.65 1058 1246.74 1067.57 C 1203.83 1099.37 1130.93 1095.09 1100.52 1047.72 C 1101.91 1042.71 1106.36 1029.42 1104.72 1025.31 C 1101.74 1027.3 1098.84 1040.91 1097.55 1044.77 C 1075.25 1111.38 986.058 1146.48 924.696 1112.63 C 889.128 1171.79 805.284 1186.19 747.594 1151.67 C 735.341 1144.34 718.931 1131.37 711.698 1118.8 C 683.464 1136.08 649.462 1141.28 617.354 1133.22 C 584.636 1125.08 556.394 1104.47 538.655 1075.8 C 531.272 1063.62 531.35 1060.01 526.375 1047.42 L 524.391 1047.11 C 522.901 1050.58 524.755 1054.5 526.081 1058.35 C 506.434 1078.66 478.474 1088.84 450.495 1089.27 C 419.663 1089.76 389.966 1077.65 368.28 1055.73 C 354.847 1042.41 346.086 1026.44 340.747 1008.43 C 340.2 1006.58 340.4 1007.14 338.995 1005.68 L 336.348 1009.09 C 329.667 1004.65 323.928 973.925 322.637 966.018 L 323.556 958.706 C 360.069 1047.57 472.114 1051.94 518.891 970.587 C 518.902 973.045 518.947 975.502 519.024 977.959 C 519.824 1006.26 531.961 1033.05 552.708 1052.32 C 592.78 1089.44 660.073 1086.65 697.209 1046.24 C 748.043 1138.05 884.947 1127.2 928.985 1031.07 C 944.119 1046.08 961.046 1056.73 982.011 1061.41 C 1007.91 1067.44 1035.15 1062.72 1057.51 1048.33 C 1083.18 1031.91 1098.2 1006.76 1104.56 977.376 C 1117.88 996.093 1130.71 1007.05 1152 1016.12 C 1192.61 1033.41 1243.89 1022.19 1272.63 988.464 C 1282.25 977.182 1287.28 964.002 1292.8 950.609 C 1293.63 958.919 1294.29 967.244 1294.79 975.58 C 1325.48 957.806 1353.29 930.824 1339.41 890.412 C 1334.03 874.746 1320.68 867.567 1306.14 861.694 C 1332.6 844.532 1350.74 811.315 1350.68 779.755 C 1350.49 754.845 1340.72 730.964 1323.41 713.055 C 1315.82 705.303 1307.3 698.907 1299.72 691.392 z" fill="rgb(18,86,159)" transform="translate(0,0)"></path>
<path d="M 322.637 966.018 C 322.42 964.664 321.246 956.752 321.651 955.531 L 322.466 955.902 C 323.31 957.185 323.491 957.307 323.556 958.706 L 322.637 966.018 z" fill="rgb(54,109,179)" transform="translate(0,0)"></path>
<path d="M 792.653 813.4 C 878.824 806.691 894.382 897.525 804.118 908.257 C 805.075 927.927 808.673 939.383 824.514 952.407 C 853.392 976.15 903.14 982.222 927.634 948.955 C 930.867 944.563 932.321 939.362 935.978 934.669 L 936.727 935.641 C 934.152 973.301 873.813 983.315 846.243 969.074 C 825.524 958.372 812.999 952.8 803.342 930.263 L 802.656 928.858 C 801.021 929.202 796.235 940.853 793.608 943.985 C 769.503 972.72 714.676 988.161 683.576 962.085 C 676.111 955.825 666.575 946.318 665.489 936.516 L 666.473 935.436 C 669.225 936.815 677.211 951.509 681.962 956.133 C 709.859 983.688 759.849 971.201 785.556 946.778 C 796.846 936.052 799.804 923.324 799.66 908.464 C 774.957 904.097 738.11 887.788 734.403 859.616 C 733.218 850.771 735.731 841.83 741.349 834.897 C 753.528 819.648 774.454 815.339 792.653 813.4 z" fill="rgb(0,0,2)" transform="translate(0,0)"></path>
<path d="M 792.795 817.431 C 810.84 816.051 827.573 817.894 842.97 827.797 C 860.291 839.042 868.023 860.169 855.263 877.987 C 844.327 893.259 826.054 901.207 808.07 904.35 C 791.37 904.724 766.902 897.004 754.955 885.725 C 713.315 846.409 753.704 819.747 792.795 817.431 z" fill="rgb(3,45,96)" transform="translate(0,0)"></path>
<path d="M 784.896 822.173 C 813.281 819.438 814.962 832.682 788.983 840.735 C 786.775 841.413 784.558 842.062 782.333 842.681 C 746.375 846.565 763.079 827.075 784.896 822.173 z" fill="rgb(202,208,220)" transform="translate(0,0)"></path>
<path d="M 339.985 712.395 C 357.038 709.187 382.857 715.076 398.976 721.091 C 386.569 722.948 374.463 726.443 362.976 731.485 C 305.208 756.788 283.354 819.182 309.032 876.074 L 311.136 880.166 L 310.501 881.245 C 303.802 879.851 287.902 869.335 281.914 864.826 C 244.631 836.75 240.62 783.649 269.995 748.168 C 288.57 725.731 311.247 715.519 339.985 712.395 z" fill="rgb(166,188,220)" transform="translate(0,0)"></path>
<path d="M 1691.25 888.227 C 1722.62 877.044 1754.79 867.135 1786.4 856.634 L 1925.15 810.331 C 1926.7 811.594 1926.65 811.928 1926.86 813.974 C 1927.95 815.187 1927.87 815.246 1929.3 815.785 C 1886.02 850.056 1839.3 881.981 1794.9 915.235 C 1763.07 939.004 1731.09 962.568 1698.96 985.928 C 1685.39 995.803 1664.36 1012.03 1650.77 1020.55 C 1667.19 1049.02 1690.84 1084.49 1708.99 1112.17 L 1783.94 1228.23 L 1557.86 1318.99 C 1533.96 1328.3 1510.11 1337.78 1486.33 1347.42 C 1475.66 1351.76 1457.96 1358.52 1448.23 1363.93 C 1442.56 1357 1437.98 1352.05 1431.73 1345.59 C 1432.55 1332.73 1429.84 1322.22 1426.69 1309.75 C 1418.2 1285.58 1407.74 1266.82 1389.2 1248.55 C 1408.26 1242.56 1432.61 1231.58 1451.41 1223.66 L 1484.28 1210.29 C 1504.76 1202.23 1525.31 1193.59 1545.78 1185.38 C 1561.62 1179.03 1580.87 1172.06 1596.08 1164.83 L 1446.8 969.903 C 1457.13 967.438 1475.31 960.768 1486 957.221 C 1512.4 948.546 1538.73 939.664 1564.98 930.575 C 1574.31 926.866 1586.47 923.523 1596.22 920.187 C 1619.31 912.766 1642.33 904.635 1665.46 897.081 C 1672.94 894.992 1683.89 891.082 1691.25 888.227 z" fill="rgb(182,122,12)" transform="translate(0,0)"></path>
<path d="M 1596.22 920.187 C 1604.36 924.107 1651.07 949.512 1656 954.165 C 1647.05 958.82 1638.41 963.7 1629.36 968.25 C 1610.18 978.349 1585.12 992.384 1565.72 1000.97 C 1591.64 1035.9 1616.66 1073.81 1641.87 1109.5 C 1662.12 1138.17 1684.31 1168.62 1703.32 1197.86 C 1652.14 1216.52 1593.17 1241.07 1542.56 1262.2 C 1530.64 1267.26 1518.82 1271.34 1507.19 1276.18 C 1498.45 1269.27 1455.91 1231.45 1451.41 1223.66 L 1484.28 1210.29 C 1504.76 1202.23 1525.31 1193.59 1545.78 1185.38 C 1561.62 1179.03 1580.87 1172.06 1596.08 1164.83 L 1446.8 969.903 C 1457.13 967.438 1475.31 960.768 1486 957.221 C 1512.4 948.546 1538.73 939.664 1564.98 930.575 C 1574.31 926.866 1586.47 923.523 1596.22 920.187 z" fill="rgb(245,177,42)" transform="translate(0,0)"></path>
<path d="M 1451.41 1223.66 L 1484.28 1210.29 C 1502.5 1221.91 1525.1 1247.2 1542.56 1262.2 C 1530.64 1267.26 1518.82 1271.34 1507.19 1276.18 C 1498.45 1269.27 1455.91 1231.45 1451.41 1223.66 z" fill="rgb(255,221,121)" transform="translate(0,0)"></path>
<path d="M 1596.22 920.187 C 1604.36 924.107 1651.07 949.512 1656 954.165 C 1647.05 958.82 1638.41 963.7 1629.36 968.25 C 1617.38 959.501 1572.73 938.434 1564.98 930.575 C 1574.31 926.866 1586.47 923.523 1596.22 920.187 z" fill="rgb(255,221,121)" transform="translate(0,0)"></path>
<path d="M 1389.2 1248.55 C 1408.26 1242.56 1432.61 1231.58 1451.41 1223.66 C 1455.91 1231.45 1498.45 1269.27 1507.19 1276.18 C 1491.45 1282.64 1475.67 1288.99 1459.84 1295.22 C 1449.62 1299.3 1436.02 1304.32 1426.69 1309.75 C 1418.2 1285.58 1407.74 1266.82 1389.2 1248.55 z" fill="rgb(245,177,42)" transform="translate(0,0)"></path>
<path d="M 1691.25 888.227 C 1722.62 877.044 1754.79 867.135 1786.4 856.634 L 1925.15 810.331 C 1926.7 811.594 1926.65 811.928 1926.86 813.974 C 1920.57 816.243 1914.68 819.928 1908.63 822.809 C 1853.65 848.995 1800.77 879.31 1746.39 906.727 C 1741.9 908.989 1737.46 911.708 1732.92 913.799 C 1719.52 904.837 1703.22 896.264 1691.25 888.227 z" fill="rgb(245,177,42)" transform="translate(0,0)"></path>
<path d="M 1691.25 888.227 C 1703.22 896.264 1719.52 904.837 1732.92 913.799 C 1724.68 917.951 1716.71 922.35 1708.58 926.477 C 1691.15 935.89 1673.62 945.119 1656 954.165 C 1651.07 949.512 1604.36 924.107 1596.22 920.187 C 1619.31 912.766 1642.33 904.635 1665.46 897.081 C 1672.94 894.992 1683.89 891.082 1691.25 888.227 z" fill="rgb(245,177,42)" transform="translate(0,0)"></path>
<path d="M 1691.25 888.227 C 1703.22 896.264 1719.52 904.837 1732.92 913.799 C 1724.68 917.951 1716.71 922.35 1708.58 926.477 C 1698 918.235 1672.41 906.886 1665.46 897.081 C 1672.94 894.992 1683.89 891.082 1691.25 888.227 z" fill="rgb(255,221,121)" transform="translate(0,0)"></path>
<path d="M 906.387 1700.99 C 910.812 1705.16 921.047 1713.23 926.986 1714.15 L 927.51 1713.23 C 926.112 1710.86 920.661 1706.97 918.12 1705.32 C 881.612 1681.66 876.961 1626.33 896.226 1589.61 C 910.809 1562.31 935.781 1542.04 965.496 1533.39 C 989.999 1526.04 1017.52 1526.29 1040.35 1538.71 C 1074.33 1523.67 1117.67 1547.51 1131.72 1580.18 C 1138.86 1596.49 1139.12 1614.99 1132.43 1631.49 C 1128 1642.17 1122.66 1648.77 1114.6 1656.75 C 1152.34 1674.18 1168.81 1714.12 1151.31 1752.39 C 1143.22 1770.2 1128.33 1784.03 1109.98 1790.79 C 1105.26 1792.5 1090.94 1795.42 1089.38 1796.57 L 1089.69 1798.24 C 1094.83 1800.15 1106.11 1796.02 1111.67 1794.22 C 1152.19 1819.52 1157.95 1879.15 1132.63 1917.38 C 1113.74 1945.91 1093.3 1957.53 1061.33 1966.39 C 1078.74 1944.4 1087.45 1921 1075.48 1893.6 C 1055.64 1862.32 1027.77 1851.95 992.638 1863.98 C 973.226 1844.82 946.557 1840.83 921.098 1848.42 C 917.186 1846.35 913.626 1844.02 909.882 1841.67 C 916.519 1822.33 919.887 1815.83 935.098 1802.33 C 931.842 1800.7 928.651 1798.94 925.531 1797.06 C 904.852 1784.41 893.943 1759.93 894.431 1736.21 C 894.724 1721.95 899.144 1712.9 906.387 1700.99 z" fill="rgb(18,86,159)" transform="translate(0,0)"></path>
<path d="M 1040.35 1538.71 C 1074.33 1523.67 1117.67 1547.51 1131.72 1580.18 C 1138.86 1596.49 1139.12 1614.99 1132.43 1631.49 C 1128 1642.17 1122.66 1648.77 1114.6 1656.75 C 1152.34 1674.18 1168.81 1714.12 1151.31 1752.39 C 1143.22 1770.2 1128.33 1784.03 1109.98 1790.79 C 1105.26 1792.5 1090.94 1795.42 1089.38 1796.57 L 1089.69 1798.24 C 1094.83 1800.15 1106.11 1796.02 1111.67 1794.22 C 1152.19 1819.52 1157.95 1879.15 1132.63 1917.38 C 1113.74 1945.91 1093.3 1957.53 1061.33 1966.39 C 1078.74 1944.4 1087.45 1921 1075.48 1893.6 C 1087.46 1886.86 1096.84 1873.79 1099.37 1860.32 C 1101.71 1847.75 1098.92 1834.77 1091.63 1824.28 C 1079.71 1806.87 1062.43 1801.03 1042.84 1797.32 C 1100.41 1769.59 1112.96 1693.69 1058.5 1655.4 C 1059.24 1654.62 1059.98 1653.83 1060.72 1653.04 C 1073.69 1639.04 1079.71 1623.32 1078.94 1604.18 C 1078.25 1586.83 1071.05 1567.15 1058.68 1554.75 C 1053.09 1549.15 1046.31 1544.2 1040.35 1538.71 z" fill="rgb(3,45,96)" transform="translate(0,0)"></path>
<path d="M 960.26 1564.32 C 975.243 1561.93 996.291 1566.09 1010.06 1572.36 C 974.413 1576.02 942.077 1593.14 930.073 1628.77 C 923.675 1647.31 924.856 1667.62 933.359 1685.3 C 935.475 1690.18 938.188 1695.63 940.472 1700.5 C 916.302 1688.58 900.243 1672.34 896.139 1644.92 C 889.836 1602.8 920.882 1570.51 960.26 1564.32 z" fill="rgb(80,136,201)" transform="translate(0,0)"></path>
<path d="M 1271.65 1700.67 C 1277.01 1705.93 1284.18 1712.24 1291.53 1714.02 C 1289.82 1711.08 1285.65 1708.1 1282.92 1705.93 C 1268.27 1694.21 1262.61 1688.08 1255.74 1670.38 C 1246.66 1647.2 1247.25 1621.36 1257.36 1598.62 C 1282.39 1543.14 1345.2 1513.9 1402.02 1539.82 C 1440.85 1526.53 1481.88 1546.78 1495.17 1585.48 C 1500.77 1602.05 1499.57 1620.16 1491.83 1635.85 C 1491.44 1636.62 1489.52 1640.21 1489.34 1640.67 C 1487.24 1646.25 1478.53 1651.55 1476.58 1655.7 C 1534.1 1680.45 1531.64 1761.96 1475.35 1786.29 C 1469.68 1788.74 1451.86 1791.12 1450.15 1794.4 C 1456.14 1795.32 1466.86 1792.5 1472.82 1791.03 C 1488.86 1800.1 1501.75 1821.21 1506.77 1838.5 C 1517.79 1876.47 1497.9 1920.1 1465.6 1941.31 C 1451.67 1950.47 1437.86 1954.77 1422.13 1959.67 C 1445.45 1935.44 1453.84 1918.64 1442.29 1885.34 C 1425.65 1850.1 1393.37 1841.87 1358.64 1853.85 C 1357.74 1853.3 1356.82 1852.77 1355.89 1852.26 C 1334.13 1840.14 1318.14 1838.62 1294.25 1845.45 C 1287.77 1843.17 1281.13 1841.25 1274.56 1839.27 C 1278.79 1820.79 1285.94 1811.16 1301.05 1800.21 C 1280.48 1788.27 1267.13 1776.84 1261.6 1752.25 C 1257.2 1732.69 1261.18 1717.44 1271.65 1700.67 z" fill="rgb(18,86,159)" transform="translate(0,0)"></path>
<path d="M 1402.02 1539.82 C 1440.85 1526.53 1481.88 1546.78 1495.17 1585.48 C 1500.77 1602.05 1499.57 1620.16 1491.83 1635.85 C 1491.44 1636.62 1489.52 1640.21 1489.34 1640.67 C 1487.24 1646.25 1478.53 1651.55 1476.58 1655.7 C 1534.1 1680.45 1531.64 1761.96 1475.35 1786.29 C 1469.68 1788.74 1451.86 1791.12 1450.15 1794.4 C 1456.14 1795.32 1466.86 1792.5 1472.82 1791.03 C 1488.86 1800.1 1501.75 1821.21 1506.77 1838.5 C 1517.79 1876.47 1497.9 1920.1 1465.6 1941.31 C 1451.67 1950.47 1437.86 1954.77 1422.13 1959.67 C 1445.45 1935.44 1453.84 1918.64 1442.29 1885.34 C 1445.81 1881.51 1449.71 1877.09 1452.71 1872.92 C 1471 1847.46 1457.68 1814.22 1431.06 1801.31 C 1420.77 1796.32 1414.85 1795.32 1403.58 1793.59 C 1461.74 1763.58 1473.84 1696.82 1420.8 1654.82 C 1453.15 1614.43 1443.24 1569.21 1402.02 1539.82 z" fill="rgb(3,45,96)" transform="translate(0,0)"></path>
<path d="M 1326.58 1565.32 C 1342.51 1563.22 1356.27 1566.14 1371.34 1570.88 C 1333.99 1580.49 1302.82 1593.52 1292.99 1634.8 C 1288.14 1655.16 1291.73 1674.36 1302.73 1692.1 L 1309.71 1699.35 C 1301.64 1697.34 1294.05 1693.74 1287.38 1688.77 C 1273.23 1678.34 1263.81 1662.71 1261.2 1645.33 C 1258.43 1627.35 1263.01 1609 1273.92 1594.44 C 1287.72 1576.04 1304.54 1568.59 1326.58 1565.32 z" fill="rgb(80,136,201)" transform="translate(0,0)"></path>
<path d="M 282.326 322.961 C 276.124 319.196 273.786 319.378 268.697 313.611 C 257.796 301.332 255.019 284.569 256.387 268.587 C 261.243 211.271 321.15 170.095 376.217 175.179 C 406.302 177.957 439.897 195.52 455.3 222.117 C 457.475 225.872 461.852 235.921 464.652 238.194 C 465.596 234.853 464.18 231.456 463.215 227.991 C 491.425 211.332 529.884 223.506 535.103 257.338 C 537.179 270.794 524.606 273.886 517.105 282.201 C 525.697 279.614 531.487 275.371 540.03 272.01 C 553.046 271.081 557.825 269.832 571.484 274.261 C 571.106 274.139 575.257 275.063 574.793 274.964 C 575.977 288.471 581.014 308.452 590.043 318.893 L 590.594 320.9 C 586.582 325.387 578.695 331.266 573.817 336.413 C 555.554 355.679 550.234 371.812 548.035 397.277 C 521.301 381.429 493.532 376.647 463.342 384.593 C 431.615 392.945 410.35 410.191 394.266 438.503 C 380.951 461.941 379.37 476.727 377.936 502.588 C 368.763 495.073 362.844 486.883 356.727 476.65 C 340.852 486.96 323.42 492.921 304.391 488.931 C 272.725 482.291 267.115 459.092 257.672 455.371 C 261.323 464.511 260.064 463.97 249.995 465.917 C 202.263 475.148 168.042 413.632 206.237 380.456 C 215.358 374.019 219.603 373.037 230.233 370.052 C 233.734 372.635 238.282 376.376 242.492 376.892 L 243.623 375.615 C 240.942 371.167 234.342 368.435 232.015 364.496 C 223.443 349.983 233.971 332.254 246.486 324.435 C 260.266 315.825 268.378 319.559 282.326 322.961 z" fill="rgb(80,136,201)" transform="translate(0,0)"></path>
<path d="M 590.043 318.893 L 590.594 320.9 C 586.582 325.387 578.695 331.266 573.817 336.413 C 555.554 355.679 550.234 371.812 548.035 397.277 C 521.301 381.429 493.532 376.647 463.342 384.593 C 431.615 392.945 410.35 410.191 394.266 438.503 C 380.951 461.941 379.37 476.727 377.936 502.588 C 368.763 495.073 362.844 486.883 356.727 476.65 C 340.852 486.96 323.42 492.921 304.391 488.931 C 272.725 482.291 267.115 459.092 257.672 455.371 C 249.351 443.308 247.286 421.001 249.373 406.979 C 278.415 448.511 337.959 454.718 360.617 402.913 C 381.171 416.03 397.685 414.038 416.574 398.353 C 439.195 379.568 449.919 356.564 452.579 327.519 C 469.1 347.114 504.707 365.679 526.193 343.487 C 557.324 349.425 565.985 330.594 590.043 318.893 z" fill="rgb(3,45,96)" transform="translate(0,0)"></path>
<path d="M 206.237 380.456 C 209.362 388.968 213.676 395.887 222.273 399.458 C 239.265 406.518 246.364 397.367 256.796 386.53 C 253.982 393.402 251.068 399.76 249.373 406.979 C 247.286 421.001 249.351 443.308 257.672 455.371 C 261.323 464.511 260.064 463.97 249.995 465.917 C 202.263 475.148 168.042 413.632 206.237 380.456 z" fill="rgb(18,86,159)" transform="translate(0,0)"></path>
<path d="M 540.03 272.01 C 553.046 271.081 557.825 269.832 571.484 274.261 C 571.106 274.139 575.257 275.063 574.793 274.964 C 575.977 288.471 581.014 308.452 590.043 318.893 C 565.985 330.594 557.324 349.425 526.193 343.487 C 538.171 341.041 544.865 323.71 547.905 312.991 C 550.369 304.305 547.195 277.133 540.03 272.01 z" fill="rgb(18,86,159)" transform="translate(0,0)"></path>
<path d="M 345.121 208.357 C 364.12 206.421 376.161 209.296 393.841 215.664 C 340.735 219.134 296.414 255.075 309.544 311.872 C 312.299 319.595 314.787 325.249 318.217 332.733 C 316.24 331.494 314.305 330.189 312.415 328.82 C 263.557 293.581 281.52 217.208 345.121 208.357 z" fill="rgb(166,188,220)" transform="translate(0,0)"></path>
<path d="M 1174.07 228.794 C 1173.26 231.936 1171.11 238.913 1172.62 241.673 C 1175.3 238.194 1177.8 231.475 1179.58 227.247 C 1195.79 188.757 1246.68 170.267 1285 176.536 C 1339 180.624 1392.16 235.173 1379.59 291.504 C 1376.67 304.571 1374.32 309.898 1364.18 318.51 C 1365.78 319.228 1365.15 319.268 1366.85 318.898 C 1386.84 314.556 1405.35 330.785 1408.29 349.998 C 1409.27 356.382 1406.59 362.463 1402.45 367.031 C 1399.45 370.567 1396.47 372.499 1395.07 376.814 L 1395.43 378.516 L 1396.87 378.964 C 1401.12 375.927 1404.86 370.247 1408.48 370.119 C 1423.25 374.039 1433.28 380.115 1441.27 393.973 C 1447.65 404.92 1449.31 417.993 1445.85 430.186 C 1437.31 459.719 1400.18 476.233 1373.12 461.175 C 1370.79 464.06 1366.42 470.614 1363.84 472.838 C 1336.41 496.447 1309.65 493.177 1280.45 476.824 C 1278.18 479.815 1275.92 482.872 1273.54 485.767 C 1269.98 463.216 1266.97 449.138 1253.63 429.395 C 1249.74 423.645 1243.26 416.252 1239.91 411.054 C 1225.56 398.436 1220.18 395.028 1204.03 385.655 C 1157.31 370.819 1120.9 373.494 1083.69 407.824 C 1080.37 385.644 1074.68 373.85 1058.87 358.225 C 1061.74 350.05 1063.03 340.811 1064.59 332.222 C 1066.16 312.042 1062.06 300.355 1049.82 284.423 C 1065.98 273.018 1073.99 270.64 1093.41 272.136 C 1101.09 273.894 1111.92 280.623 1116.31 280.727 C 1115.34 276.665 1103.61 273.275 1103.16 265.887 C 1100.69 224.759 1143.14 209.903 1174.07 228.794 z" fill="rgb(80,136,201)" transform="translate(0,0)"></path>
<path d="M 1285 176.536 C 1339 180.624 1392.16 235.173 1379.59 291.504 C 1376.67 304.571 1374.32 309.898 1364.18 318.51 C 1365.78 319.228 1365.15 319.268 1366.85 318.898 C 1386.84 314.556 1405.35 330.785 1408.29 349.998 C 1409.27 356.382 1406.59 362.463 1402.45 367.031 C 1399.45 370.567 1396.47 372.499 1395.07 376.814 L 1395.43 378.516 L 1396.87 378.964 C 1401.12 375.927 1404.86 370.247 1408.48 370.119 C 1428.63 399.172 1414.63 431.206 1382.52 442.842 C 1384.95 432.772 1388.17 416.771 1383.79 407.034 C 1374.34 391.382 1377.75 392.708 1362.69 377.319 C 1371.5 366.096 1369.3 351.223 1362.71 339.277 C 1355.16 325.589 1341.13 323.885 1327.27 320.741 L 1329.41 317.97 C 1345.56 272.671 1332.88 248.269 1303.79 212.285 L 1305.63 211.651 C 1299.49 197.052 1296.1 187.75 1285 176.536 z" fill="rgb(18,86,159)" transform="translate(0,0)"></path>
<path d="M 1305.63 211.651 C 1341.12 228.402 1356.62 267.898 1339.14 303.449 C 1336.36 309.101 1334.06 313.531 1329.41 317.97 C 1345.56 272.671 1332.88 248.269 1303.79 212.285 L 1305.63 211.651 z" fill="rgb(80,136,201)" transform="translate(0,0)"></path>
<path d="M 1408.48 370.119 C 1423.25 374.039 1433.28 380.115 1441.27 393.973 C 1447.65 404.92 1449.31 417.993 1445.85 430.186 C 1437.31 459.719 1400.18 476.233 1373.12 461.175 C 1370.79 464.06 1366.42 470.614 1363.84 472.838 C 1336.41 496.447 1309.65 493.177 1280.45 476.824 C 1278.18 479.815 1275.92 482.872 1273.54 485.767 C 1269.98 463.216 1266.97 449.138 1253.63 429.395 C 1249.74 423.645 1243.26 416.252 1239.91 411.054 C 1242.42 411.442 1244.94 411.751 1247.47 411.981 C 1259.51 413.041 1265.78 408.951 1274.39 401.79 C 1276.23 406.032 1277.88 410.631 1280.27 414.581 C 1300.27 447.627 1352.6 446.689 1376.04 418.25 C 1378.93 414.739 1381.34 410.824 1383.79 407.034 C 1388.17 416.771 1384.95 432.772 1382.52 442.842 C 1414.63 431.206 1428.63 399.172 1408.48 370.119 z" fill="rgb(3,45,96)" transform="translate(0,0)"></path>
<path d="M 1102.13 342.483 L 1105.52 341.03 C 1113.67 347.765 1108.98 350.44 1123.45 352.511 C 1146.03 355.741 1167.86 346.725 1181.7 328.804 C 1186.19 357.618 1188.4 361.471 1204.03 385.655 C 1157.31 370.819 1120.9 373.494 1083.69 407.824 C 1080.37 385.644 1074.68 373.85 1058.87 358.225 C 1061.74 350.05 1063.03 340.811 1064.59 332.222 C 1067.96 340.609 1092.67 346.138 1102.13 342.483 z" fill="rgb(3,45,96)" transform="translate(0,0)"></path>
<path d="M 1239.96 215.372 C 1242.36 214.357 1244.78 213.39 1247.22 212.47 C 1266.22 205.287 1284.96 203.724 1303.79 212.285 C 1332.88 248.269 1345.56 272.671 1329.41 317.97 L 1327.27 320.741 C 1322.04 326.554 1319.91 328.648 1313.84 333.557 C 1318.13 323.154 1323.01 311.728 1323.47 300.372 C 1325.75 244.658 1290.14 219.904 1239.96 215.372 z" fill="rgb(166,188,220)" transform="translate(0,0)"></path>
<path d="M 1049.82 284.423 C 1065.98 273.018 1073.99 270.64 1093.41 272.136 L 1091.74 272.509 C 1079.56 275.066 1079.11 302.868 1081.03 311.995 C 1084.67 329.312 1087.99 333.624 1102.13 342.483 C 1092.67 346.138 1067.96 340.609 1064.59 332.222 C 1066.16 312.042 1062.06 300.355 1049.82 284.423 z" fill="rgb(18,86,159)" transform="translate(0,0)"></path>
<path d="M 643.587 1569.34 C 653.767 1578.24 658.206 1569.27 651.481 1568.45 C 652.55 1568.14 653.442 1567.67 654.44 1567.17 C 654.701 1570.29 655.054 1569.76 657.3 1572.32 L 658.655 1579.02 C 664.213 1599.05 671.847 1611.46 690.396 1622.45 C 700.424 1628.4 716.983 1633.9 728.654 1634.28 C 746.627 1633.51 756.888 1632.27 772.987 1623.58 C 774.077 1634.76 774.654 1638.38 779.532 1648.7 C 775.401 1651 774.999 1650.36 773.03 1653.82 C 776.252 1659.32 786.354 1660.74 790.104 1664.54 C 808.379 1683.07 819.466 1709.04 812.035 1735 C 803.28 1765.59 780.151 1783.74 749.052 1788.1 L 747.769 1789.36 L 748.575 1790.88 C 754.488 1792.57 765.516 1788.12 771.601 1786.19 C 788.657 1799.77 802.973 1824.63 805.021 1846.64 C 809.184 1891.36 777.65 1934.36 735.456 1947.68 C 727.865 1950.08 720.471 1951.2 712.624 1952.45 C 730.934 1931.71 737.792 1913.07 729.598 1885.27 C 719.864 1851.85 682.583 1840.92 651.601 1850.38 C 617.283 1823.24 590.711 1843.75 581.879 1837.72 C 576.037 1820.06 592.658 1803.41 604.92 1793.72 C 592.478 1787 582.788 1781.51 575.395 1768.88 C 560.903 1744.1 563.103 1721.65 576.191 1697.45 C 580.672 1702.19 590.533 1709.93 596.963 1711.26 L 598.232 1710.19 C 590.739 1705.22 581.856 1699.22 575.716 1692.72 C 562.107 1678.33 554.799 1659.11 555.409 1639.31 C 556.564 1610.78 570.855 1591.45 590.99 1572.83 L 602.4 1574.79 C 617.714 1574.44 628.966 1573.81 643.587 1569.34 z" fill="rgb(18,86,159)" transform="translate(0,0)"></path>
<path d="M 728.654 1634.28 C 746.627 1633.51 756.888 1632.27 772.987 1623.58 C 774.077 1634.76 774.654 1638.38 779.532 1648.7 C 775.401 1651 774.999 1650.36 773.03 1653.82 C 776.252 1659.32 786.354 1660.74 790.104 1664.54 C 808.379 1683.07 819.466 1709.04 812.035 1735 C 803.28 1765.59 780.151 1783.74 749.052 1788.1 L 747.769 1789.36 L 748.575 1790.88 C 754.488 1792.57 765.516 1788.12 771.601 1786.19 C 788.657 1799.77 802.973 1824.63 805.021 1846.64 C 809.184 1891.36 777.65 1934.36 735.456 1947.68 C 727.865 1950.08 720.471 1951.2 712.624 1952.45 C 730.934 1931.71 737.792 1913.07 729.598 1885.27 C 733.507 1883.47 738.952 1880.26 742.335 1877.53 C 751.622 1870 757.464 1859.02 758.528 1847.11 C 759.711 1834.25 755.746 1821.45 747.503 1811.52 C 737.226 1799.19 720.588 1791.69 704.752 1790.31 C 705.844 1789.08 707.179 1787.64 708.14 1786.36 C 717.279 1783.29 731.792 1767.42 737.245 1759.63 C 761.257 1725.33 752.681 1678.35 717.613 1654.7 C 722.244 1648.04 726.67 1642.32 728.654 1634.28 z" fill="rgb(3,45,96)" transform="translate(0,0)"></path>
<path d="M 643.587 1569.34 C 653.767 1578.24 658.206 1569.27 651.481 1568.45 C 652.55 1568.14 653.442 1567.67 654.44 1567.17 C 654.701 1570.29 655.054 1569.76 657.3 1572.32 L 658.655 1579.02 C 642.54 1585.19 627.594 1590.7 614.422 1602.27 C 587.127 1626.23 587.445 1673.82 611.054 1699.99 C 596.751 1692.3 584.579 1684.16 575.625 1670.34 C 552.424 1634.55 568.814 1595.81 602.4 1574.79 C 617.714 1574.44 628.966 1573.81 643.587 1569.34 z" fill="rgb(80,136,201)" transform="translate(0,0)"></path>
<path d="M 704.752 1790.31 C 704.037 1790.08 702.673 1790.02 702.692 1789.09 C 703.331 1788.06 706.138 1787.22 707.204 1786.79 L 708.14 1786.36 C 707.179 1787.64 705.844 1789.08 704.752 1790.31 z" fill="rgb(4,50,112)" transform="translate(0,0)"></path>
<path d="M 598.129 676.819 C 628.821 671.815 657.771 692.603 662.839 723.285 C 667.907 753.967 647.18 782.96 616.509 788.093 C 585.747 793.241 556.648 772.438 551.565 741.665 C 546.482 710.892 567.345 681.837 598.129 676.819 z" fill="rgb(0,0,2)" transform="translate(0,0)"></path>
<path d="M 997.918 644.659 C 1003.59 645.518 1013.75 641.144 1019.53 639.867 C 1052.58 632.569 1073.54 644.579 1093.74 670.065 C 1101.09 678.595 1107.27 689.489 1110.42 700.379 C 1111.35 703.591 1111.11 710.482 1112.92 711.623 L 1113.44 710.283 C 1117.2 724.248 1116.83 741.255 1112.75 755.126 C 1110.76 762.032 1106.8 771.034 1103.24 777.345 C 1102.39 778.642 1101.61 779.933 1100.52 781.037 C 1099.87 780.886 1099.21 780.736 1098.55 780.585 C 1079.43 808.992 1050.29 826.263 1016.16 829.647 C 1012.39 830.021 1006.99 828.345 1002.92 831.217 C 964.061 817.281 937.735 780.921 936.628 739.65 C 935.521 698.378 959.858 660.659 997.918 644.659 z M 957.819 723.972 C 956.263 729.774 956.428 737.145 958.196 742.929 C 956.998 736.677 956.87 730.267 957.819 723.972 z" fill="url(#Gradient1)" transform="translate(0,0)"></path>
<path d="M 957.819 723.972 C 962.171 695.094 987.909 674.358 1017.05 676.25 C 1046.19 678.143 1069.03 702.034 1069.61 731.232 C 1070.2 760.431 1048.32 785.211 1019.28 788.26 C 990.234 791.309 963.691 771.611 958.196 742.929 C 956.998 736.677 956.87 730.267 957.819 723.972 z" fill="rgb(0,0,2)" transform="translate(0,0)"></path>
<path d="M 958.196 742.929 C 956.428 737.145 956.263 729.774 957.819 723.972 C 956.87 730.267 956.998 736.677 958.196 742.929 z" fill="rgb(0,0,2)" fill-opacity="0.976471" transform="translate(0,0)"></path>
<path d="M 926.312 1118.24 C 994.94 1146.68 1065.95 1118.63 1098.69 1052.51 C 1108.6 1065.56 1125.93 1106.26 1133.55 1122.8 C 1057.26 1178.22 1000.68 1205.84 905.032 1217.27 C 885.768 1219.57 851.143 1222.9 832.463 1221.81 C 836.092 1221.18 840.788 1220.98 844.549 1220.7 C 840.878 1216.38 839.805 1215.05 835.322 1211.68 C 828.639 1205.2 820.032 1198.02 812.941 1191.78 C 806.281 1186.23 796.18 1177.99 790.742 1171.63 C 846.52 1178.82 891.579 1163.39 926.312 1118.24 z" fill="rgb(182,122,12)" transform="translate(0,0)"></path>
<path d="M 573.022 1116.22 C 619.744 1145.29 660.548 1149.21 710.796 1124.14 C 729.167 1149.8 760.828 1164.55 790.742 1171.63 C 796.18 1177.99 806.281 1186.23 812.941 1191.78 C 820.032 1198.02 828.639 1205.2 835.322 1211.68 C 839.805 1215.05 840.878 1216.38 844.549 1220.7 C 840.788 1220.98 836.092 1221.18 832.463 1221.81 C 752.291 1224.08 637.321 1197.65 570.272 1152.84 C 570.196 1142.51 571.892 1126.57 573.022 1116.22 z" fill="rgb(245,177,42)" transform="translate(0,0)"></path>
<path d="M 570.373 1139.77 C 591.305 1148.07 617.533 1159.11 638.539 1165.97 C 690.311 1182.86 758.356 1194.43 812.941 1191.78 C 820.032 1198.02 828.639 1205.2 835.322 1211.68 C 759.355 1214.32 627.807 1191.93 570.373 1139.77 z" fill="rgb(255,221,121)" transform="translate(0,0)"></path>
<path d="M 1190.01 1674.65 C 1196.68 1675.72 1206.45 1686.87 1209.93 1692.7 C 1230.54 1727.34 1219.59 1762.83 1187.36 1783.6 C 1189.16 1784.89 1190.92 1786.24 1192.65 1787.64 C 1206.5 1799.06 1215.98 1820.14 1217.31 1838.01 C 1219.09 1860.75 1211.68 1883.26 1196.73 1900.51 C 1192.95 1904.83 1181.93 1916.59 1176.29 1916.96 C 1175.65 1914.5 1176.32 1914.44 1177.62 1911.47 C 1183.96 1887.54 1174.1 1876.41 1152.07 1868.42 C 1151.76 1863.71 1151.33 1859.01 1150.81 1854.32 C 1147.79 1827.67 1136.98 1808.9 1116.18 1792.45 C 1132.85 1784.82 1146.32 1771.58 1154.24 1755.05 C 1164.31 1734.18 1163.5 1713.38 1155.94 1691.99 C 1170.99 1689.02 1178.88 1685.26 1190.01 1674.65 z" fill="rgb(3,45,96)" transform="translate(0,0)"></path>
<path d="M 618.693 1913.11 C 619.84 1914.18 621.021 1915.22 622.233 1916.21 C 632.636 1924.66 653.055 1927 666.079 1925.22 C 690.095 1921.93 703.004 1909.75 716.945 1891.68 C 718.661 1895.36 720.131 1898.33 722.097 1901.88 L 724.555 1902.36 C 725.435 1904.26 725.54 1921.81 725.971 1925.93 C 716.654 1949.55 692.589 1963.91 667.386 1960.89 C 642.183 1957.88 622.181 1938.25 618.693 1913.11 z" fill="rgb(166,188,220)" transform="translate(0,0)"></path>
<path d="M 1438.12 1886.57 C 1444.39 1899.52 1445.16 1914.45 1440.26 1927.97 C 1435.07 1942.83 1424.19 1955.02 1410.01 1961.84 C 1396.02 1968.36 1379.98 1968.89 1365.6 1963.31 C 1352.12 1958.17 1341.08 1948.14 1334.69 1935.21 C 1351.35 1936.55 1359.82 1943.79 1379.31 1939.65 C 1397.92 1935.7 1412.35 1926.16 1422.58 1909.82 C 1426.2 1904.05 1427.27 1898.61 1431.79 1891.95 C 1435.77 1890.13 1435.54 1890.19 1438.12 1886.57 z" fill="rgb(186,194,213)" transform="translate(0,0)"></path>
<path d="M 1064.36 1920.66 C 1074.59 1920.69 1072.05 1920.21 1075.92 1930.38 C 1062.85 1985.81 997.371 1998.06 966.198 1949.96 C 963.212 1945.35 960.349 1938.33 959.615 1932.95 C 976.685 1941.48 986.091 1952.35 1009.7 1950.93 C 1035.97 1949.36 1047.6 1939.44 1064.36 1920.66 z" fill="rgb(186,194,213)" transform="translate(0,0)"></path>
<path d="M 553.795 1894.81 C 556.325 1896.37 556.492 1896.96 558.663 1898.6 C 576.064 1911.81 594.749 1914.5 614.219 1906.01 C 615.365 1922.22 619.16 1930.73 627.86 1943.99 C 589.347 1955.72 557.674 1934.99 553.795 1894.81 z" fill="rgb(186,194,213)" transform="translate(0,0)"></path>
<path d="M 518.98 1862.25 C 526.11 1870.69 530.92 1896.47 549.853 1895.75 C 550.202 1897.67 550.513 1899.59 550.785 1901.52 C 552.573 1914.94 557.485 1921.84 564.69 1932.89 C 552.126 1933.15 546.683 1932.75 535.367 1925.6 C 523.972 1918.31 516.025 1906.71 513.347 1893.45 C 511.406 1883.97 513.326 1870.44 518.98 1862.25 z" fill="rgb(186,194,213)" transform="translate(0,0)"></path>
<path d="M 1088.93 662.251 C 1093.76 660.098 1096.08 661.761 1100.89 664.007 C 1102.09 665.241 1102.97 666.242 1104.09 667.544 C 1106.61 671.957 1106.98 671.303 1111.58 670.464 C 1112.48 671.48 1113.36 672.513 1114.22 673.565 L 1113.97 675.516 C 1113.46 679.208 1114.17 683.408 1114.45 687.186 C 1116.6 690.834 1119.03 688.423 1119.83 693.545 C 1120.52 698.087 1121.02 700.598 1122.63 704.81 C 1127.73 714.635 1124.81 712.237 1126.53 723.54 C 1127.23 727.242 1127.11 730.297 1127.07 734.046 C 1126.37 739.498 1127.96 743.933 1125.05 749.023 C 1124.38 750.194 1124.18 758.235 1124.78 759.389 C 1126.42 762.51 1130.26 756.659 1130.49 764.029 C 1130.59 767.158 1127.9 769.557 1124.98 768.515 C 1117.33 766.597 1114.86 778.107 1108.53 778.615 C 1108.37 778.628 1104.76 778.364 1105.35 777.437 C 1107.08 774.748 1107.86 771.858 1109.51 769.127 C 1109.99 768.379 1110.9 764.335 1111.94 764.409 L 1112.13 764.376 C 1112.99 764.671 1113.76 764.636 1114.16 763.731 C 1113.01 759.173 1113.08 760.282 1112.75 755.126 C 1116.83 741.255 1117.2 724.248 1113.44 710.283 C 1111.63 691.308 1100.94 676.181 1088.93 662.251 z" fill="rgb(166,188,220)" fill-opacity="0.866667" transform="translate(0,0)"></path>
<path d="M 496.938 703.84 C 497.049 711.901 493.919 715.059 502.246 714.366 C 501.791 720.573 501.031 728.142 501.254 734.235 C 505.388 770.437 520.149 795.149 551.142 814.568 C 545.843 815.933 541.886 816.092 536.528 816.131 C 535.668 812.665 535.477 810.213 532.392 808.372 C 522.27 802.335 514.124 795.238 504.98 788.115 C 503.668 783.995 502.497 777.737 498.932 775.083 C 494.308 771.64 496.154 769.225 494.228 764.94 C 493.92 758.509 493.589 747.194 496.711 741.364 C 496.679 740.575 496.512 733.266 496.411 732.855 C 492.556 730.879 493.241 744.572 481.625 742.105 C 480.993 742.663 480.678 744.004 480.449 744.608 L 479.858 739.874 C 491.749 739.186 487.373 729.589 487.581 724.565 C 487.722 721.158 495.881 723.113 496.141 714.995 C 495.77 709.81 495.872 708.94 496.938 703.84 z" fill="rgb(166,188,220)" fill-opacity="0.952941" transform="translate(0,0)"></path>
<path d="M 889.344 1929.17 C 891.108 1930.64 896.213 1935.89 897.621 1936.61 C 916.817 1946.49 937.291 1946.05 957.81 1941.09 C 961.416 1948.88 963.411 1951.89 967.864 1959.03 C 964.854 1960.37 962.123 1961.59 958.98 1962.67 C 932.426 1971.77 898.193 1956.31 889.344 1929.17 z" fill="rgb(186,194,213)" transform="translate(0,0)"></path>
<path d="M 1263.86 1917.51 C 1266.44 1919.57 1271.37 1925.52 1273.17 1926.42 C 1291.16 1935.5 1309.75 1942.15 1329.11 1932.88 C 1332.51 1939.78 1334.78 1943.3 1339.01 1949.57 C 1335.23 1951.4 1331.68 1953.41 1327.6 1954.54 C 1299.52 1962.33 1271.77 1944.57 1263.86 1917.51 z" fill="rgb(186,194,213)" transform="translate(0,0)"></path>
<path d="M 485.303 769.094 C 491.963 765.739 489.275 765.864 492.471 763.9 L 492.596 763.956 C 493.037 765.221 493.09 765.62 494.228 764.94 C 496.154 769.225 494.308 771.64 498.932 775.083 C 502.497 777.737 503.668 783.995 504.98 788.115 C 514.124 795.238 522.27 802.335 532.392 808.372 C 535.477 810.213 535.668 812.665 536.528 816.131 C 533.808 813.108 531.998 808.049 526.48 808.786 C 522.393 809.332 512.326 798.227 510.293 798.278 C 507.34 799.938 517.879 808.05 518.796 810.425 C 514.894 814.586 515.141 805.356 512.083 807.125 C 511.508 808.089 511.618 808.262 511.533 809.522 C 497.776 796.63 492.184 785.785 485.303 769.094 z" fill="rgb(166,188,220)" fill-opacity="0.882353" transform="translate(0,0)"></path>
<path d="M 840.475 1912.06 L 842.348 1912.87 C 846.923 1914.88 845.178 1916.1 852.375 1918.43 C 865.417 1922.67 868.278 1923.58 882.289 1922.77 C 886.79 1937.94 895.111 1942.34 870.177 1937.61 C 857.069 1935.12 846.953 1924.12 840.926 1912.89 L 840.475 1912.06 z" fill="rgb(186,194,213)" transform="translate(0,0)"></path>
<path d="M 1224.29 1911.92 C 1227.82 1914.23 1230.88 1917.68 1233.7 1919.58 C 1237.42 1922.07 1258.32 1927.02 1261.36 1924.81 C 1261.7 1925.14 1269.59 1937.63 1270.88 1939.5 L 1271.89 1940.99 C 1260.87 1941.16 1254.83 1941.23 1244.55 1935.9 C 1234.9 1930.88 1227.62 1922.27 1224.29 1911.92 z" fill="rgb(186,194,213)" transform="translate(0,0)"></path>
<path d="M 1136.26 726.097 C 1137.27 735.37 1136.98 744.74 1135.4 753.933 L 1134.51 753.287 C 1134.42 753.224 1125.04 753.166 1132.44 760.744 C 1134.9 761.79 1130.27 760.527 1133.93 760.978 C 1133.01 764.69 1131.88 768.346 1130.55 771.928 C 1131.72 771.645 1127.79 772.533 1127.92 772.558 C 1116.96 770.43 1116.58 780.848 1107.51 781.803 C 1104.88 782.079 1104.53 779.268 1103.24 777.345 C 1106.8 771.034 1110.76 762.032 1112.75 755.126 C 1113.08 760.282 1113.01 759.173 1114.16 763.731 C 1113.76 764.636 1112.99 764.671 1112.13 764.376 L 1111.94 764.409 C 1110.9 764.335 1109.99 768.379 1109.51 769.127 C 1107.86 771.858 1107.08 774.748 1105.35 777.437 C 1104.76 778.364 1108.37 778.628 1108.53 778.615 C 1114.86 778.107 1117.33 766.597 1124.98 768.515 C 1127.9 769.557 1130.59 767.158 1130.49 764.029 C 1130.26 756.659 1126.42 762.51 1124.78 759.389 C 1124.18 758.235 1124.38 750.194 1125.05 749.023 C 1127.96 743.933 1126.37 739.498 1127.07 734.046 C 1133.01 736.999 1134.39 729.89 1136.26 726.097 z" fill="rgb(166,188,220)" fill-opacity="0.752941" transform="translate(0,0)"></path>
<path d="M 997.918 644.659 C 1029.83 631.245 1066.4 635.264 1094.64 655.287 C 1091.09 656.662 1078.6 655.398 1088.93 662.251 C 1100.94 676.181 1111.63 691.308 1113.44 710.283 L 1112.92 711.623 C 1111.11 710.482 1111.35 703.591 1110.42 700.379 C 1107.27 689.489 1101.09 678.595 1093.74 670.065 C 1073.54 644.579 1052.58 632.569 1019.53 639.867 C 1013.75 641.144 1003.59 645.518 997.918 644.659 z" fill="rgb(186,194,213)" fill-opacity="0.00784314" transform="translate(0,0)"></path>
<path d="M 1096.54 787.614 C 1097.23 788.561 1097.9 789.814 1098.65 790.654 C 1107.57 792.929 1108.38 785.983 1115.56 784.064 C 1121.39 782.506 1122.64 778.784 1128.12 777.851 C 1125.2 784.377 1121.59 790.571 1117.35 796.329 C 1109.01 795.218 1111.28 797.703 1112.03 802.948 C 1110.48 804.726 1108.86 806.447 1107.18 808.109 C 1102.27 795.941 1095.19 805.34 1088.91 796.746 C 1091.65 793.682 1093.89 790.614 1096.54 787.614 z" fill="rgb(166,188,220)" fill-opacity="0.454902" transform="translate(0,0)"></path>
<path d="M 534.683 825.622 C 538.796 809.152 552.121 830.56 565.247 821.45 C 568.009 822.23 577.28 828.985 576.509 830.998 C 574.787 835.493 574.992 835.349 580.953 835.866 C 582.143 835.98 583.331 836.106 584.519 836.244 C 568.719 837.985 548.668 833.2 534.683 825.622 z" fill="rgb(166,188,220)" fill-opacity="0.294118" transform="translate(0,0)"></path>
<path d="M 511.533 809.522 C 511.618 808.262 511.508 808.089 512.083 807.125 C 515.141 805.356 514.894 814.586 518.796 810.425 C 517.879 808.05 507.34 799.938 510.293 798.278 C 512.326 798.227 522.393 809.332 526.48 808.786 C 531.998 808.049 533.808 813.108 536.528 816.131 C 541.886 816.092 545.843 815.933 551.142 814.568 C 555.013 815.84 560.947 819.617 565.247 821.45 C 552.121 830.56 538.796 809.152 534.683 825.622 C 525.461 821.487 518.916 816.185 511.533 809.522 z" fill="rgb(166,188,220)" fill-opacity="0.843137" transform="translate(0,0)"></path>
<path d="M 480.449 744.608 C 480.678 744.004 480.993 742.663 481.625 742.105 C 493.241 744.572 492.556 730.879 496.411 732.855 C 496.512 733.266 496.679 740.575 496.711 741.364 C 493.589 747.194 493.92 758.509 494.228 764.94 C 493.09 765.62 493.037 765.221 492.596 763.956 L 492.471 763.9 C 489.275 765.864 491.963 765.739 485.303 769.094 C 482.27 757.647 481.601 756.729 480.449 744.608 z" fill="rgb(186,194,213)" fill-opacity="0.792157" transform="translate(0,0)"></path>
<path d="M 1164.82 1903.41 L 1166.04 1904.68 C 1151.96 1906.81 1166.05 1916.14 1167.26 1906.66 C 1169.95 1909.9 1170.95 1908.3 1174.98 1908.2 C 1173.89 1910.95 1172.93 1914.09 1170.79 1916.24 C 1163.8 1915.29 1158.85 1921.03 1153.49 1925.24 C 1149 1925.81 1146.14 1926.14 1141.64 1926.16 L 1143.31 1925.39 C 1155.86 1924.06 1140.57 1916.21 1145.64 1914.21 C 1150.92 1912.13 1154.17 1915.86 1158.02 1906.01 C 1158.67 1904.37 1161.52 1903.91 1162.96 1903.72 L 1164.82 1903.41 z" fill="rgb(202,208,220)" fill-opacity="0.662745" transform="translate(0,0)"></path>
<path d="M 1100.4 814.238 C 1093.51 804.961 1087.19 813.98 1080.69 810.99 C 1080.64 810.378 1081.24 810.216 1081.4 809.659 C 1079.05 807.84 1076.16 808.93 1080.59 804.522 C 1082.95 802.172 1086.03 798.284 1088.91 796.746 C 1095.19 805.34 1102.27 795.941 1107.18 808.109 C 1105.01 810.254 1102.75 812.299 1100.4 814.238 z" fill="rgb(166,188,220)" fill-opacity="0.109804" transform="translate(0,0)"></path>
<path d="M 1103.24 777.345 C 1104.53 779.268 1104.88 782.079 1107.51 781.803 C 1116.58 780.848 1116.96 770.43 1127.92 772.558 C 1127.79 772.533 1131.72 771.645 1130.55 771.928 C 1129.8 773.928 1128.99 775.903 1128.12 777.851 C 1122.64 778.784 1121.39 782.506 1115.56 784.064 C 1108.38 785.983 1107.57 792.929 1098.65 790.654 C 1097.9 789.814 1097.23 788.561 1096.54 787.614 C 1097.99 785.345 1099.19 783.373 1100.52 781.037 C 1101.61 779.933 1102.39 778.642 1103.24 777.345 z" fill="rgb(166,188,220)" fill-opacity="0.568627" transform="translate(0,0)"></path>
<path d="M 1153.49 1925.24 C 1158.85 1921.03 1163.8 1915.29 1170.79 1916.24 C 1155.9 1936.14 1118.19 1936.47 1129.22 1928.86 C 1134.89 1929.65 1134.41 1927.63 1141.64 1926.16 C 1146.14 1926.14 1149 1925.81 1153.49 1925.24 z" fill="rgb(186,194,213)" transform="translate(0,0)"></path>
<path d="M 1120.3 681.824 C 1125.43 689.606 1129.46 698.067 1132.25 706.961 C 1127.13 718.442 1127.32 708.555 1126.53 723.54 C 1124.81 712.237 1127.73 714.635 1122.63 704.81 C 1124.77 700.812 1126.68 689.423 1119.83 693.545 C 1119.03 688.423 1116.6 690.834 1114.45 687.186 C 1117.32 686.16 1118.21 684.07 1120.3 681.824 z" fill="rgb(166,188,220)" fill-opacity="0.729412" transform="translate(0,0)"></path>
<path d="M 1132.25 706.961 C 1134.21 713.194 1135.55 719.603 1136.26 726.097 C 1134.39 729.89 1133.01 736.999 1127.07 734.046 C 1127.11 730.297 1127.23 727.242 1126.53 723.54 C 1127.32 708.555 1127.13 718.442 1132.25 706.961 z" fill="rgb(166,188,220)" fill-opacity="0.164706" transform="translate(0,0)"></path>
<path d="M 1158.35 1900.03 C 1160.51 1901.16 1162.66 1902.31 1164.82 1903.41 L 1162.96 1903.72 C 1161.52 1903.91 1158.67 1904.37 1158.02 1906.01 C 1154.17 1915.86 1150.92 1912.13 1145.64 1914.21 C 1140.57 1916.21 1155.86 1924.06 1143.31 1925.39 L 1143.28 1924.27 C 1143.15 1917 1142.68 1919.01 1136.38 1918.45 C 1139.1 1913.4 1141.42 1908.03 1144.1 1903.17 C 1151.14 1915.52 1146.84 1915.45 1158.35 1900.03 z" fill="rgb(186,194,213)" fill-opacity="0.580392" transform="translate(0,0)"></path>
<path d="M 482.637 716.706 C 487.539 716.215 490.156 715.058 496.141 714.995 C 495.881 723.113 487.722 721.158 487.581 724.565 C 487.373 729.589 491.749 739.186 479.858 739.874 C 479.987 738.823 479.987 738.441 480.02 737.336 C 487.241 736.713 487.115 728.824 482.386 728.057 L 480.849 727.785 C 481.032 723.911 481.292 720.418 482.637 716.706 z" fill="rgb(186,194,213)" fill-opacity="0.623529" transform="translate(0,0)"></path>
<path d="M 1146.48 1896.15 C 1152.5 1895.08 1148.94 1894.83 1151.44 1893.3 C 1153.47 1893.53 1152.61 1897.02 1154.83 1897.91 C 1156.02 1898.4 1157.36 1899.22 1158.35 1900.03 C 1146.84 1915.45 1151.14 1915.52 1144.1 1903.17 C 1144.93 1900.84 1145.65 1898.48 1146.48 1896.15 z" fill="rgb(202,208,220)" fill-opacity="0.121569" transform="translate(0,0)"></path>
<path d="M 506.245 681.853 C 508.017 682.691 509.773 683.564 511.51 684.472 C 507.496 692.991 505.056 698.665 503.625 707.943 C 503.509 704.767 501.335 697.997 498.64 696.048 C 502.57 688.941 502.93 690.494 506.245 681.853 z" fill="rgb(186,194,213)" fill-opacity="0.819608" transform="translate(0,0)"></path>
<path d="M 728.853 1894.83 C 730.87 1905.26 729.87 1916.05 725.971 1925.93 C 725.54 1921.81 725.435 1904.26 724.555 1902.36 C 725.783 1898.14 726.061 1898.04 728.853 1894.83 z" fill="rgb(202,208,220)" fill-opacity="0.988235" transform="translate(0,0)"></path>
<path d="M 1925.15 810.331 C 1932.41 807.082 1941.87 804.503 1949.52 802.273 C 1942.72 807.038 1936.02 811.043 1929.3 815.785 C 1927.87 815.246 1927.95 815.187 1926.86 813.974 C 1926.65 811.928 1926.7 811.594 1925.15 810.331 z" fill="rgb(182,122,12)" transform="translate(0,0)"></path>
<path d="M 1136.38 1918.45 C 1142.68 1919.01 1143.15 1917 1143.28 1924.27 L 1143.31 1925.39 L 1141.64 1926.16 C 1134.41 1927.63 1134.89 1929.65 1129.22 1928.86 C 1131.6 1925.38 1134.05 1921.96 1136.38 1918.45 z" fill="rgb(186,194,213)" fill-opacity="0.203922" transform="translate(0,0)"></path>
<path d="M 498.64 696.048 C 501.335 697.997 503.509 704.767 503.625 707.943 L 502.246 714.366 C 493.919 715.059 497.049 711.901 496.938 703.84 C 497.125 700.098 497.428 699.618 498.64 696.048 z" fill="rgb(186,194,213)" fill-opacity="0.960784" transform="translate(0,0)"></path>
<path d="M 1094.64 655.287 C 1097.37 657.225 1100.01 659.299 1102.53 661.502 L 1100.89 664.007 C 1096.08 661.761 1093.76 660.098 1088.93 662.251 C 1078.6 655.398 1091.09 656.662 1094.64 655.287 z" fill="rgb(166,188,220)" fill-opacity="0.137255" transform="translate(0,0)"></path>
<path d="M 643.587 1569.34 C 654.874 1566.25 656.228 1560.56 657.3 1572.32 C 655.054 1569.76 654.701 1570.29 654.44 1567.17 C 653.442 1567.67 652.55 1568.14 651.481 1568.45 C 658.206 1569.27 653.767 1578.24 643.587 1569.34 z" fill="rgb(80,136,201)" fill-opacity="0.929412" transform="translate(0,0)"></path>
<path d="M 1114.22 673.565 C 1116.39 676.212 1118.42 678.969 1120.3 681.824 C 1118.21 684.07 1117.32 686.16 1114.45 687.186 C 1114.17 683.408 1113.46 679.208 1113.97 675.516 L 1114.22 673.565 z" fill="rgb(166,188,220)" fill-opacity="0.427451" transform="translate(0,0)"></path>
<path d="M 1066.57 1917.27 C 1068.93 1913.62 1073.31 1907.47 1075.71 1915.67 L 1076.23 1917.32 L 1076.42 1919.6 C 1074.99 1922.83 1072.42 1918.68 1066.57 1917.27 z" fill="rgb(202,208,220)" fill-opacity="0.105882" transform="translate(0,0)"></path>
<path d="M 1066.57 1917.27 C 1072.42 1918.68 1074.99 1922.83 1076.42 1919.6 C 1077.01 1924.04 1076.57 1925.92 1075.92 1930.38 C 1072.05 1920.21 1074.59 1920.69 1064.36 1920.66 L 1066.57 1917.27 z" fill="rgb(202,208,220)" fill-opacity="0.74902" transform="translate(0,0)"></path>
<path d="M 480.849 727.785 L 482.386 728.057 C 487.115 728.824 487.241 736.713 480.02 737.336 C 480.184 733.643 480.321 731.427 480.849 727.785 z" fill="rgb(186,194,213)" fill-opacity="0.486275" transform="translate(0,0)"></path>
<path d="M 1325.35 1898.46 L 1327.54 1902.77 C 1326.86 1908.08 1327.03 1910.15 1327.72 1915.44 L 1325.4 1915.99 C 1324.66 1911.49 1325.04 1902.94 1325.35 1898.46 z" fill="rgb(0,0,2)" fill-opacity="0.807843" transform="translate(0,0)"></path>
<path d="M 1133.93 760.978 C 1130.27 760.527 1134.9 761.79 1132.44 760.744 C 1125.04 753.166 1134.42 753.224 1134.51 753.287 L 1135.4 753.933 C 1134.99 756.298 1134.5 758.648 1133.93 760.978 z" fill="rgb(166,188,220)" fill-opacity="0.639216" transform="translate(0,0)"></path>
<path d="M 1119.83 693.545 C 1126.68 689.423 1124.77 700.812 1122.63 704.81 C 1121.02 700.598 1120.52 698.087 1119.83 693.545 z" fill="rgb(166,188,220)" fill-opacity="0.607843" transform="translate(0,0)"></path>
<path d="M 506.245 681.853 C 507.883 680.975 511.598 680.035 512.292 679.221 C 513.068 678.31 514.588 674.465 516.765 674.208 L 517.012 674.321 L 516.806 674.33 C 516.901 676.775 513.078 682.387 511.51 684.472 C 509.773 683.564 508.017 682.691 506.245 681.853 z" fill="rgb(186,194,213)" fill-opacity="0.227451" transform="translate(0,0)"></path>
<path d="M 1166.04 1904.68 L 1167.26 1906.66 C 1166.05 1916.14 1151.96 1906.81 1166.04 1904.68 z" fill="rgb(202,208,220)" fill-opacity="0.803922" transform="translate(0,0)"></path>
<path d="M 1106.14 664.811 C 1108.03 666.624 1109.84 668.509 1111.58 670.464 C 1106.98 671.303 1106.61 671.957 1104.09 667.544 C 1105.45 666.35 1105.17 666.437 1106.14 664.811 z" fill="rgb(166,188,220)" fill-opacity="0.133333" transform="translate(0,0)"></path>
<path d="M 1112.03 802.948 C 1111.28 797.703 1109.01 795.218 1117.35 796.329 C 1115.67 798.609 1113.9 800.818 1112.03 802.948 z" fill="rgb(166,188,220)" fill-opacity="0.490196" transform="translate(0,0)"></path>
<path d="M 1102.53 661.502 C 1103.76 662.575 1104.97 663.678 1106.14 664.811 C 1105.17 666.437 1105.45 666.35 1104.09 667.544 C 1102.97 666.242 1102.09 665.241 1100.89 664.007 L 1102.53 661.502 z" fill="rgb(166,188,220)" fill-opacity="0.427451" transform="translate(0,0)"></path>
<path d="M 1953.9 797.574 C 1958.83 795.395 1966.07 793.038 1971.44 790.974 C 1964.24 795.907 1958.42 799.702 1951.39 804.962 C 1950.61 803.403 1949.95 802.42 1949.68 800.66 C 1951.98 798.849 1955.21 800.85 1953.9 797.574 z" fill="rgb(0,0,2)" fill-opacity="0.980392" transform="translate(0,0)"></path>
<metadata><recraft-signature>{"signed_by": "recraft", "signature_b64": "rw8jtfjKD5QOrfskiVvelaPXT2kNNRMTzeLYmsEwLGSaf6JCdau5fhT2k1SWybm6sfvPTY2timy+8265XkwMAA==", "signing_algo": "Ed25519", "generation_timestamp": 1778553467, "identifier": "08884523-e29c-423a-847d-52c16af263d8"}</recraft-signature></metadata></svg>