<svg xmlns="http://www.w3.org/2000/svg" height="1024" preserveAspectRatio="none" style="display: block;" version="1.1" viewBox="0 0 2048 2048" width="1024">
<defs>
	<linearGradient gradientUnits="userSpaceOnUse" id="Gradient1" x1="1129.45" x2="1094.05" y1="849.013" y2="808.419">
		<stop class="stop0" offset="0" stop-color="rgb(59,130,161)" stop-opacity="1"></stop>
		<stop class="stop1" offset="1" stop-color="rgb(80,166,178)" stop-opacity="1"></stop>
	</linearGradient>
	<linearGradient gradientUnits="userSpaceOnUse" id="Gradient2" x1="1024.54" x2="1024.4" y1="725.477" y2="699.841">
		<stop class="stop0" offset="0" stop-color="rgb(82,167,159)" stop-opacity="1"></stop>
		<stop class="stop1" offset="1" stop-color="rgb(97,155,171)" stop-opacity="1"></stop>
	</linearGradient>
</defs>

<path d="M 987.234 107.404 C 971.316 83.1402 973.766 53.521 999.503 37.3398 C 1010.31 30.5292 1023.43 28.426 1035.82 31.5173 C 1048.41 34.8499 1059.19 42.9973 1065.83 54.203 C 1076.79 72.9634 1072.14 90.1837 1061.1 107.299 C 1084.53 112.52 1128.56 119.679 1142.21 140.681 C 1146.38 147.102 1146.88 151.371 1147.55 158.757 C 1162.54 151.183 1173.89 146.493 1190.07 142.083 C 1222.64 133.203 1234.62 139.919 1247.41 170.72 C 1257.48 194.968 1261.06 212.813 1263.85 238.756 C 1285.16 236.712 1341.49 231.855 1340.78 265.003 C 1340.3 287.153 1331.26 318.06 1322.16 338.412 C 1340.42 340.804 1417.87 358.128 1412.13 388.737 C 1407.81 411.809 1372.39 444.762 1354.08 459.439 C 1376.02 471.407 1394 483.808 1406.07 506.241 L 1406.87 505.736 C 1423.43 495.108 1437.41 481.134 1455.49 469.607 C 1532.74 420.342 1677.35 358.137 1744.29 452.747 C 1762.3 478.213 1764.3 518.286 1756.96 547.303 C 1737.59 630.232 1669.83 709.005 1599.68 754.583 C 1543.94 790.798 1471.98 810.058 1406.46 816.504 C 1419.32 819.563 1430.31 820.781 1443.97 824.557 C 1517.44 844.859 1593.79 880.707 1636.1 947.11 C 1647.98 965.742 1655.76 989.499 1650.51 1011.44 C 1645.84 1030.94 1631.63 1047.11 1614.37 1057.02 C 1568.1 1083.61 1518.67 1076.37 1469.55 1063.62 C 1461.93 1061.64 1422.92 1048.99 1420.4 1049.01 C 1414.14 1098.38 1389.56 1137.62 1357.87 1174.54 C 1371.12 1206.33 1382.39 1239.26 1394.62 1271.41 C 1400.49 1286.86 1406.54 1303.13 1399.15 1319.15 C 1385.49 1348.78 1349.59 1352.21 1323.09 1340.52 C 1320.2 1339.23 1317.33 1337.87 1314.49 1336.45 L 1393.71 1556.95 L 1417.29 1621.74 C 1420.67 1631.32 1427.56 1648.34 1428.45 1657.26 C 1432.87 1701.58 1378.64 1724.1 1344.07 1703.14 C 1336.45 1698.51 1331.51 1695.02 1324.9 1690.13 C 1319.24 1702.92 1314.98 1711.53 1304.94 1721.61 C 1317.88 1733.9 1321.49 1739.29 1329.16 1755.39 C 1343.98 1749.36 1361.84 1742.87 1377.05 1750.09 C 1399.5 1760.73 1390.02 1782.5 1369 1786.98 C 1350.97 1790.83 1336.79 1789.14 1319.14 1786.43 C 1317.59 1787.86 1315.87 1789.06 1314.32 1790.49 C 1336.43 1802.41 1353.62 1811.13 1378.63 1814.21 C 1386.14 1815.14 1401.99 1817.64 1399.58 1828.25 C 1394.11 1833.53 1387.51 1831 1380.05 1833.32 C 1382.43 1851.04 1434.65 1863.62 1435.29 1913.63 C 1444.85 1921.27 1450.46 1929.93 1449.54 1942.66 C 1448.86 1952.05 1444.26 1960.72 1436.87 1966.55 C 1409.9 1988.15 1351.37 1989.21 1318.05 1985.25 C 1292.9 1982.27 1257.91 1978.3 1237.62 1961.84 C 1228.91 1954.85 1220.75 1944.77 1210.01 1940.72 C 1178.38 1928.8 1103.2 1940.02 1111.03 1886.34 C 1112.59 1875.69 1119.85 1870.48 1127.86 1864.57 C 1127.39 1838.97 1136.75 1830.25 1142.32 1806.29 C 1144.44 1796.02 1143.4 1782.72 1146.73 1772.9 C 1149.96 1763.4 1160.99 1766.49 1158.75 1752.6 C 1156.26 1751.88 1146.81 1754.87 1142.42 1755.4 C 1122.37 1757.94 1105.26 1755.56 1088.94 1743.18 C 1065.82 1725.63 1066.28 1703.14 1063.52 1676.84 C 1061.53 1657.22 1059.43 1637.61 1057.23 1618.01 L 1029.54 1385.73 L 1019.33 1385.06 C 1012.15 1459.72 1001.64 1536.14 992.696 1610.66 L 985.277 1676.16 C 981.951 1705.58 981.917 1731.86 952.248 1748.35 C 931.637 1759.8 913.485 1758.12 891.431 1751.92 C 891.357 1754.55 891.312 1757.18 891.295 1759.81 C 893.18 1764.56 896.688 1764.3 899.276 1767.44 C 905.302 1775.22 905.221 1788.65 906.09 1798.41 C 908.31 1823.35 923.621 1839.82 921.413 1865.41 C 934.249 1872.57 940.581 1880.11 939.097 1895.69 C 934.734 1939.86 868.477 1928.96 838.528 1941.03 C 824.501 1946.69 813.436 1964.58 799.073 1970.1 C 762.754 1984.05 721.28 1987.91 682.514 1986.42 C 658.919 1985.51 625.8 1980.86 608.915 1962.35 C 594.506 1945.77 596.997 1927.98 613.605 1914.68 C 617.595 1868.37 642.733 1865.78 671.384 1831.29 C 661.01 1832.93 651.315 1837.23 650.098 1823.59 C 651.178 1820.72 652.079 1819.5 655.212 1818.55 C 680.269 1810.93 712.193 1808.2 732.851 1790.45 C 729.383 1788.09 727.857 1789 723.942 1787.02 C 706.919 1790.44 670.237 1793.96 661.57 1774.44 C 659.602 1770.06 659.515 1765.06 661.332 1760.61 C 670.975 1737.32 703.399 1747.48 720.202 1755.28 C 726.731 1739.27 731.687 1733.77 744.104 1721.74 C 733.205 1710.83 729.788 1704 723.885 1689.77 C 701.954 1706.77 684.31 1716.84 655.472 1707.95 C 635.037 1701.65 617.182 1680.51 619.932 1658.48 C 621.312 1647.43 628.484 1629.17 632.333 1618.33 L 654.493 1556.89 L 733.073 1337.24 C 705.515 1350.89 665.433 1353.15 650.033 1320.53 C 646.651 1313.4 645.322 1305.47 646.193 1297.63 C 647.523 1286.55 656.49 1264.09 660.656 1252.82 L 690.428 1173.98 C 658.057 1138.37 634.146 1096.7 628.515 1048.3 C 606.615 1057.29 584.001 1062.75 558.441 1068.94 C 502.922 1082.39 416.448 1076.78 397.654 1010.46 C 391.796 989.792 405.55 955.093 418.645 937.616 C 469.798 869.343 557.817 831.671 639.976 817.542 C 640.325 817.095 640.542 817.023 640.518 816.596 C 639.643 815.849 638.481 815.732 637.394 815.485 L 635.811 814.903 C 616.311 814.681 593.597 809.308 574.499 805.059 C 513.354 791.456 459.324 767.388 410.806 726.598 C 351.729 675.524 298.308 604.104 288.412 525.071 C 280.305 460.324 327.479 409.318 390.729 404.756 C 478.79 398.404 577.686 450.877 643.32 506.077 C 654.149 483.082 672.761 469.927 695.433 459.261 C 678.246 445.449 620.661 397.92 642.408 372.489 C 659.82 352.127 700.303 342.932 726.088 337.65 C 718.188 315.384 703.093 276.097 710.972 253.584 C 717.714 234.318 769.585 235.934 785.991 238.894 C 788.42 211.711 796.927 163.639 818.929 144.091 C 836.324 128.636 883.409 149.567 902.291 158.989 C 901.355 134.851 921.104 125.535 941.08 118.932 C 955.846 114.051 971.91 110.059 987.234 107.404 z" fill="rgb(1,1,1)" transform="translate(0,0)"></path>
<path d="M 635.811 814.903 C 616.311 814.681 593.597 809.308 574.499 805.059 C 513.354 791.456 459.324 767.388 410.806 726.598 C 351.729 675.524 298.308 604.104 288.412 525.071 C 280.305 460.324 327.479 409.318 390.729 404.756 C 478.79 398.404 577.686 450.877 643.32 506.077 C 639.705 521.582 647.97 529.449 659.498 538.651 C 679.722 554.795 702.399 566.336 726.477 575.574 C 713.721 598.321 697.454 624.64 729.487 638.561 C 749.135 647.1 767.885 653.782 788.947 658.05 C 792.656 658.889 810.862 661.719 812.713 662.521 C 812.501 663.452 830.772 717.394 833.088 726.651 C 812.202 740.438 802.612 747.43 783.541 763.94 L 781.472 765.476 C 735.754 808.177 708.217 840.001 674.908 894.316 L 671.421 900.486 C 649.411 941.156 621.181 1001.14 628.515 1048.3 C 606.615 1057.29 584.001 1062.75 558.441 1068.94 C 502.922 1082.39 416.448 1076.78 397.654 1010.46 C 391.796 989.792 405.55 955.093 418.645 937.616 C 469.798 869.343 557.817 831.671 639.976 817.542 C 640.325 817.095 640.542 817.023 640.518 816.596 C 639.643 815.849 638.481 815.732 637.394 815.485 L 635.811 814.903 z" fill="rgb(175,201,199)" transform="translate(0,0)"></path>
<path d="M 566.24 619.771 C 553.644 585.493 536.081 550.677 518.198 518.834 C 514.289 511.875 492.827 478.096 491.452 474.301 L 492.504 473.279 L 494.742 473.572 C 504.685 481.02 530.967 529.842 537.605 542.854 C 549.981 567.114 565.324 598.917 573.811 624.899 C 600.154 643.817 637.034 666.582 664.754 684.587 C 660.712 671.064 655.109 656.179 650.59 642.626 C 642.835 618.572 634.869 594.586 626.692 570.672 C 622.19 557.503 617.612 543.91 612.672 530.846 C 611.725 528.342 611.95 526.608 612.92 524.385 L 614.965 524.186 C 619.93 528.039 648.217 619.213 653.284 633.244 C 658.004 646.312 668.119 674.885 670.499 688.189 C 684.601 697.142 776.63 755.035 783.541 763.94 L 781.472 765.476 C 774.573 762.766 751.303 747.099 744.205 742.526 C 718.215 725.783 692.553 708.128 666.335 691.716 C 665.357 692.125 664.373 692.518 663.382 692.895 C 651.733 697.41 639.817 700.042 626.116 703.673 C 570.657 718.368 511.23 720.932 454.763 711.557 C 452.996 711.263 453.146 710.656 452.547 709.082 C 455.841 706.041 486.955 710.143 494.244 710.597 C 550.424 714.112 606.745 706.52 659.989 688.254 C 627.894 665.921 587.583 641.044 554.18 619.172 C 491.136 620.98 433.445 620.217 370.531 611.918 C 366.746 611.419 365.691 611.647 363.943 609.304 L 364.789 608.141 C 371.837 606.047 457.035 614.174 473.644 614.761 C 497.872 615.463 522.119 615.204 546.326 613.984 C 523.393 600.194 500.324 584.423 477.695 569.958 C 447.603 550.723 417.397 531.581 387.808 511.575 C 373.845 502.134 357.924 493.758 344.608 483.478 C 342.725 482.025 341.991 480.086 341.793 477.758 L 343.393 477.259 C 350.329 480.204 358.527 486.23 365.145 490.481 L 405.877 516.739 C 456.226 549.467 515.144 589.839 566.24 619.771 z" fill="rgb(254,253,252)" transform="translate(0,0)"></path>
<path d="M 613.026 918.789 C 632.966 910.712 652.719 901.949 672.59 893.794 C 673.362 893.968 674.135 894.142 674.908 894.316 L 671.421 900.486 C 664.103 902.648 615.938 922.833 610.597 927.536 C 585.022 950.855 563.499 980.392 542.746 1008.02 C 536.459 1016.38 524.835 1039.49 516.024 1042.92 C 520.217 1022.72 580.47 950.466 596.808 932.516 C 549.122 949.876 502.59 971.816 455.065 989.724 C 448.957 992.026 435.584 1000.35 430.083 997.653 C 431.179 995.092 433.647 993.697 436.127 992.576 C 491.196 967.665 549.118 947.718 604.153 922.982 C 591.406 920.402 522.371 905.392 515.216 898.842 L 515.574 897.669 C 522.068 895.152 542.169 902.818 550.328 904.961 C 570.999 910.552 591.921 915.167 613.026 918.789 z" fill="rgb(254,253,252)" transform="translate(0,0)"></path>
<path d="M 635.811 814.903 C 636.328 814.913 644.548 814.476 644.374 816.552 C 642.942 817.484 641.668 817.497 639.976 817.542 C 640.325 817.095 640.542 817.023 640.518 816.596 C 639.643 815.849 638.481 815.732 637.394 815.485 L 635.811 814.903 z" fill="rgb(221,221,222)" transform="translate(0,0)"></path>
<path d="M 1406.07 506.241 L 1406.87 505.736 C 1423.43 495.108 1437.41 481.134 1455.49 469.607 C 1532.74 420.342 1677.35 358.137 1744.29 452.747 C 1762.3 478.213 1764.3 518.286 1756.96 547.303 C 1737.59 630.232 1669.83 709.005 1599.68 754.583 C 1543.94 790.798 1471.98 810.058 1406.46 816.504 C 1419.32 819.563 1430.31 820.781 1443.97 824.557 C 1517.44 844.859 1593.79 880.707 1636.1 947.11 C 1647.98 965.742 1655.76 989.499 1650.51 1011.44 C 1645.84 1030.94 1631.63 1047.11 1614.37 1057.02 C 1568.1 1083.61 1518.67 1076.37 1469.55 1063.62 C 1461.93 1061.64 1422.92 1048.99 1420.4 1049.01 C 1424.33 995.664 1401.77 945.97 1377.17 900.252 L 1374.1 895.27 C 1340.4 840.597 1315.45 810.123 1268.77 766.89 L 1264.44 763.683 C 1255.3 754.437 1229.06 735.599 1217.79 727.779 C 1218.31 726.62 1223.08 708.868 1223.18 707.195 C 1223.88 694.365 1238.33 673.365 1239.91 663.67 L 1238.27 662.559 C 1242.24 660.594 1255.45 660.02 1261.9 658.156 C 1282.16 652.305 1329.96 642.386 1338.6 622.21 C 1343.3 611.244 1329.84 585.946 1323.88 575.745 C 1347.39 565.848 1369.54 554.506 1389.54 538.501 C 1400.71 529.562 1409.18 521.474 1406.07 506.241 z" fill="rgb(175,201,199)" transform="translate(0,0)"></path>
<path d="M 1475.61 625.251 C 1489.79 581.371 1512.27 538.009 1536.28 498.702 C 1540.89 491.147 1548.41 478.594 1554.46 472.482 C 1557.02 473.172 1555.91 472.5 1557.51 475.108 C 1556.97 478.4 1535.04 510.69 1531.28 517.228 C 1511.98 550.837 1496.2 585.293 1482.78 621.602 C 1555.21 575.782 1626.7 527.675 1698.66 481.07 C 1701.08 479.506 1703.74 477.934 1706.65 477.859 L 1707.59 479.303 C 1705.66 486.157 1527.51 597.691 1504.7 613.896 C 1562.4 616.33 1619.22 613.666 1676.48 606.738 C 1679.56 606.366 1681.66 605.988 1683.68 608.162 L 1683.15 610.514 C 1679.27 611.967 1658.6 614.031 1653.71 614.536 C 1622.14 617.911 1590.44 619.771 1558.69 620.11 C 1538.47 620.188 1516.11 618.692 1496.41 619.167 C 1461.99 639.83 1422.43 666.449 1388.84 688.848 C 1445.61 704.471 1498.71 715.186 1557.67 710.507 C 1564.49 709.966 1592.65 706.164 1595.46 709.219 C 1593.82 714.413 1572.69 714.91 1567.11 715.374 C 1504.89 720.162 1442.35 712.285 1383.26 692.219 C 1348.82 713.925 1301.33 743.573 1268.77 766.89 L 1264.44 763.683 C 1300.87 736.931 1342.83 714.182 1378.55 688.859 C 1382.53 672.017 1427.28 533.123 1433.54 525.095 L 1435.22 524.262 C 1437.58 530.438 1426.74 556.594 1424.28 564.6 C 1411.98 604.562 1395.76 643.89 1385.24 684.361 C 1410.34 669.513 1452.01 642.157 1475.61 625.251 z" fill="rgb(254,253,252)" transform="translate(0,0)"></path>
<path d="M 1374.1 895.27 C 1375.09 895.066 1376.08 894.862 1377.07 894.658 C 1391.27 899.605 1423.86 913.332 1436.05 919.684 C 1466.55 913.583 1495.41 905.968 1525.16 897.025 C 1528.59 895.995 1529.23 895.904 1532.34 896.993 L 1532.99 898.559 C 1528.38 904.916 1457.33 921.118 1445.95 922.972 C 1470.52 933.437 1495.17 943.723 1519.89 953.828 C 1537.06 960.756 1611.84 989.666 1621.13 997.367 L 1619.99 998.655 C 1610.12 997.804 1592.93 989.171 1583.02 985.48 C 1541.41 969.977 1495.34 947.239 1453.48 933.631 C 1469.19 953.541 1528.42 1019.56 1532.14 1041.82 C 1529.55 1041.48 1526.01 1036.82 1524.35 1034.51 C 1498.26 998.256 1471.64 955.45 1436.62 927.211 C 1431.19 922.834 1384.41 901.745 1377.17 900.252 L 1374.1 895.27 z" fill="rgb(254,253,252)" transform="translate(0,0)"></path>
<path d="M 1141.12 651.001 C 1172.32 668.698 1203.98 665.895 1238.27 662.559 L 1239.91 663.67 C 1238.33 673.365 1223.88 694.365 1223.18 707.195 C 1223.08 708.868 1218.31 726.62 1217.79 727.779 C 1170.47 700.001 1139.89 686.721 1085.76 676.505 L 1085.63 675.697 C 1088.47 674.37 1098.87 671.431 1102.26 670.456 C 1118.91 665.671 1127.39 660.995 1141.12 651.001 z" fill="rgb(254,253,252)" transform="translate(0,0)"></path>
<path d="M 908.687 652.274 C 925.211 665.441 945.599 671.718 966.214 675.066 C 955.368 677.521 941.754 679.782 931.395 682.718 C 896.919 692.49 863.133 707.252 833.088 726.651 C 830.772 717.394 812.501 663.452 812.713 662.521 C 847.294 666.443 876.229 667.983 908.687 652.274 z" fill="rgb(254,253,252)" transform="translate(0,0)"></path>
<path d="M 723.942 1787.02 C 729.933 1785.34 737.258 1783.63 743.325 1782.22 C 739.985 1785.48 737.226 1788.54 732.851 1790.45 C 729.383 1788.09 727.857 1789 723.942 1787.02 z" fill="rgb(221,221,222)" transform="translate(0,0)"></path>
<path d="M 1314.32 1790.49 C 1301.34 1785.99 1311 1784.8 1319.14 1786.43 C 1317.59 1787.86 1315.87 1789.06 1314.32 1790.49 z" fill="rgb(221,221,222)" transform="translate(0,0)"></path>
<path d="M 1085.76 676.505 C 1085.51 676.508 1083.18 676.896 1083.31 675.857 C 1084.03 675.349 1084.71 675.609 1085.63 675.697 L 1085.76 676.505 z" fill="rgb(188,176,186)" transform="translate(0,0)"></path>
<path d="M 1010.96 371.405 C 1091.9 366.185 1179.83 416.612 1190.44 502.11 C 1205.27 496.397 1220.96 499.032 1227.18 515.218 C 1229.91 522.315 1229.64 530.215 1226.43 537.108 C 1219.14 553.035 1203.44 556.703 1188.38 549.227 C 1179.52 570.869 1175.75 583.505 1160.55 602.669 C 1128.66 642.86 1089.2 662.486 1039.24 668.667 C 982.978 672.733 935.87 653.219 896.644 612.58 C 877.997 593.262 869.427 574.576 860.793 549.748 C 854.785 551.884 849.371 553.488 842.956 552.533 C 836.05 551.558 829.84 547.811 825.759 542.155 C 821.239 535.92 819.499 528.093 820.951 520.529 C 824.843 500.307 841.734 498.01 858.609 502.214 C 860.188 493.492 861.603 484.725 864.673 476.395 C 887.977 413.162 946.568 377.279 1010.96 371.405 z" fill="rgb(254,253,252)" transform="translate(0,0)"></path>
<path d="M 1107.33 439.88 C 1139.33 437.29 1167.42 461.009 1170.23 492.989 C 1173.04 524.969 1149.52 553.223 1117.56 556.253 C 1085.29 559.312 1056.7 535.506 1053.86 503.214 C 1051.02 470.921 1075.02 442.494 1107.33 439.88 z" fill="rgb(1,1,1)" transform="translate(0,0)"></path>
<path d="M 1104.51 443.768 C 1134.58 439.561 1162.37 460.552 1166.54 490.632 C 1170.7 520.712 1149.68 548.468 1119.59 552.599 C 1089.56 556.722 1061.87 535.741 1057.7 505.716 C 1053.54 475.69 1074.49 447.968 1104.51 443.768 z" fill="rgb(254,253,252)" transform="translate(0,0)"></path>
<path d="M 1098.77 455.719 C 1120.68 452.448 1141.07 467.579 1144.29 489.487 C 1147.51 511.395 1132.33 531.756 1110.42 534.927 C 1088.57 538.088 1068.29 522.97 1065.08 501.132 C 1061.87 479.294 1076.94 458.979 1098.77 455.719 z" fill="rgb(1,1,1)" transform="translate(0,0)"></path>
<path d="M 1084.42 467.376 C 1093.29 470.634 1095.17 477.995 1087.01 483.671 L 1085.85 484.504 C 1083.5 483.901 1081.14 483.397 1079.42 481.559 C 1078.14 480.195 1077.49 478.364 1077.61 476.5 C 1077.8 473.053 1080.33 470.726 1082.87 468.687 L 1084.42 467.376 z" fill="rgb(254,253,252)" transform="translate(0,0)"></path>
<path d="M 932.83 439.9 C 964.909 436.95 993.309 460.553 996.279 492.629 C 999.248 524.705 975.664 553.12 943.59 556.111 C 911.486 559.103 883.04 535.493 880.068 503.388 C 877.095 471.283 900.723 442.852 932.83 439.9 z" fill="rgb(1,1,1)" transform="translate(0,0)"></path>
<path d="M 927.823 443.86 C 957.639 438.117 986.467 457.626 992.222 487.44 C 997.976 517.254 978.478 546.09 948.667 551.856 C 918.838 557.625 889.983 538.114 884.226 508.284 C 878.468 478.453 897.99 449.606 927.823 443.86 z" fill="rgb(254,253,252)" transform="translate(0,0)"></path>
<path d="M 923.946 456.096 C 945.849 452.969 966.097 468.308 969.017 490.239 C 971.938 512.171 956.409 532.273 934.451 534.987 C 912.783 537.665 893.004 522.386 890.123 500.745 C 887.241 479.104 902.333 459.181 923.946 456.096 z" fill="rgb(1,1,1)" transform="translate(0,0)"></path>
<path d="M 907.193 468.889 C 909.84 467.762 912.892 468.183 915.136 469.984 C 917.379 471.785 918.45 474.674 917.923 477.502 C 917.395 480.33 915.355 482.638 912.613 483.509 C 908.642 484.771 904.38 482.69 902.931 478.783 C 901.483 474.876 903.359 470.52 907.193 468.889 z" fill="rgb(254,253,252)" transform="translate(0,0)"></path>
<path d="M 1070.02 564.4 C 1073.18 565.586 1074.37 565.992 1076.08 568.994 C 1078.07 574.47 1084.81 575.025 1087.36 577.375 C 1090.72 580.476 1078.88 579.571 1078.99 576.907 C 1079 576.753 1077.18 575.833 1076.43 575.386 C 1053.23 594.478 1030.06 600.432 1001.51 587.606 C 997.374 585.262 993.947 583.274 990.52 579.861 C 988.883 578.207 987.235 576.566 985.573 574.938 C 992.757 577.835 995.932 580.889 1003.06 584.453 C 1025.1 595.26 1056.4 592.1 1073.16 573.335 C 1073.38 573.086 1070.43 565.832 1070.02 564.4 z" fill="rgb(1,1,1)" transform="translate(0,0)"></path>
<path d="M 1379.63 1242.17 C 1383.14 1247.48 1394.7 1281.75 1396.81 1288.66 C 1406.41 1320.09 1381.32 1345.15 1349.94 1343.22 C 1323.21 1341.57 1308.42 1329.82 1290.7 1311.38 C 1285.54 1330.02 1279.83 1344.58 1263.93 1356.97 C 1250.23 1367.65 1232.83 1372.44 1215.59 1370.29 C 1188.35 1366.77 1173.34 1351.27 1157.75 1330.75 C 1151.69 1347.08 1146.7 1358.64 1131.87 1369.25 C 1116.53 1380.16 1097.44 1384.46 1078.9 1381.15 C 1051.07 1376.4 1038.48 1358.58 1023.69 1337.59 C 1012.88 1354.53 998.519 1372.49 978.958 1378.86 C 935.534 1393 904.086 1368.02 890.165 1329.56 C 866.693 1375.2 808.612 1385.99 773.419 1346.36 C 764.602 1335.51 760.037 1324.43 758.142 1310.71 C 727.182 1341.39 683.691 1364.33 652.434 1317.53 C 641.777 1301.58 661.887 1259.71 668.123 1242.85 C 677.443 1246.32 686.833 1249.59 696.286 1252.68 C 862.976 1307.8 1100.51 1307.91 1271.55 1273.6 C 1298.55 1268.19 1355.23 1254.47 1379.63 1242.17 z" fill="rgb(95,167,165)" transform="translate(0,0)"></path>
<path d="M 693.002 1176.67 C 732.391 1218.91 760.545 1238.87 814.479 1260.95 C 843.854 1242.73 856.717 1215.73 871.822 1186.26 C 958.021 1206.41 1089.91 1208.28 1175.98 1186.29 C 1188.93 1213.4 1208.58 1245.44 1235.19 1260.98 C 1276.23 1245.85 1319.76 1214.81 1349.98 1183.35 C 1352.31 1180.59 1352.92 1179.11 1355.7 1178.81 C 1361.52 1190.16 1374.34 1226.29 1378.95 1239.42 C 1355.33 1247.96 1328.62 1257.17 1304.19 1263 C 1117.91 1307.43 849.704 1307.46 669.369 1239.89 C 677.137 1218.78 685.015 1197.7 693.002 1176.67 z" fill="rgb(225,156,174)" transform="translate(0,0)"></path>
<path d="M 676.513 1505.18 C 773.227 1549.72 892.625 1574.03 997.322 1545.93 L 985.464 1644.53 C 980.522 1645.88 974.549 1646.78 969.443 1647.71 C 895.371 1661.37 781.071 1648.43 710.181 1624 C 688.683 1616.59 665.222 1605.9 644.071 1596.89 L 676.513 1505.18 z" fill="rgb(225,156,174)" transform="translate(0,0)"></path>
<path d="M 1370.36 1504.93 C 1373.34 1507.03 1400.73 1586.11 1404.17 1595.65 C 1303.04 1646.48 1195.95 1661.16 1083.72 1648.39 C 1076.7 1647.46 1070.13 1646.07 1063.19 1644.67 C 1062.42 1618.76 1054.94 1575.76 1052.28 1547.85 C 1160.13 1569.2 1272.02 1554.1 1370.36 1504.93 z" fill="rgb(225,156,174)" transform="translate(0,0)"></path>
<path d="M 711.646 1408.86 C 797.755 1446.14 918.585 1463.76 1010.16 1439.63 C 1005.04 1469.53 1002.19 1510.57 997.838 1542.06 L 981.758 1546.52 C 889.154 1567.7 762.406 1544.15 678.171 1501.98 C 688.752 1470.73 699.913 1439.69 711.646 1408.86 z" fill="rgb(224,165,30)" transform="translate(0,0)"></path>
<path d="M 1335.92 1408.97 C 1339.33 1411.79 1366.8 1491.56 1369.98 1501.37 C 1277.29 1547.7 1172.44 1563.93 1070.09 1547.79 L 1051.71 1544.45 L 1039.72 1440.95 C 1112.43 1456.92 1183.28 1452.02 1255.51 1435.68 C 1283.86 1429.27 1309.01 1419.73 1335.92 1408.97 z" fill="rgb(224,165,30)" transform="translate(0,0)"></path>
<path d="M 642.734 1600.01 C 664.032 1607.88 685.234 1619.39 708.071 1626.98 C 789.047 1653.87 901.306 1665.94 985.1 1648.18 C 977.534 1693.18 986.158 1749.59 921.438 1753.08 C 890.664 1752.54 863.47 1736.5 853.914 1706.12 C 815.864 1756.62 744.385 1745.29 726.037 1683.57 C 719.051 1689.16 710.197 1696.42 702.387 1700.71 C 688.925 1707.97 673.124 1709.57 658.483 1705.14 C 602.624 1688.26 629.616 1635.98 642.734 1600.01 z" fill="rgb(95,167,165)" transform="translate(0,0)"></path>
<path d="M 1403.96 1599.89 C 1408.65 1602.61 1424.81 1653.16 1425.07 1661.33 C 1425.41 1672.75 1421.08 1683.81 1413.09 1691.97 C 1385.86 1719.56 1348.11 1706.9 1323.65 1683.32 C 1317.06 1700.57 1311.15 1713.03 1295.64 1724.3 C 1280.15 1735.33 1260.9 1739.74 1242.15 1736.54 C 1222.71 1733.38 1206.65 1721.97 1195.37 1706.12 C 1179.77 1737.27 1167.61 1748.69 1131.98 1752.89 C 1117.12 1753.1 1101.81 1749.74 1090.22 1740.05 C 1070.73 1723.76 1070.21 1706.96 1067.8 1684.16 L 1064.08 1648.34 C 1080.94 1652.56 1109.91 1654.74 1127.49 1655.61 C 1222.91 1661.2 1318.15 1642.01 1403.96 1599.89 z" fill="rgb(95,167,165)" transform="translate(0,0)"></path>
<path d="M 1152.9 1086.26 C 1154.86 1087.61 1155.33 1100.77 1155.8 1104.23 C 1159.73 1132.94 1165.13 1156.2 1174.95 1183.51 C 1155.16 1188.52 1129.29 1192.01 1109.05 1194.16 C 1037.69 1202.08 965.567 1199.98 894.783 1187.94 C 886.972 1186.52 880.689 1185.15 872.988 1183.21 C 887.25 1152.84 891.345 1119.18 895.951 1086.33 C 984.311 1105.92 1064.38 1107.91 1152.9 1086.26 z" fill="rgb(224,165,30)" transform="translate(0,0)"></path>
<path d="M 1230.39 961.799 C 1248.56 959.809 1292.53 997.672 1304.32 1011.3 C 1345.9 1059.39 1357.07 1112.2 1352.59 1174.24 C 1338.02 1194.78 1303.29 1220.42 1281.54 1234.23 C 1268.1 1242.07 1256.88 1248.16 1242.43 1254.28 C 1257.63 1218.89 1264.12 1202.02 1265.55 1161.46 C 1267.42 1108.34 1253.44 1054.79 1222.97 1010.84 C 1217.12 1002.4 1204.23 989.458 1196.84 981.554 C 1208.07 973.264 1218.1 968.161 1230.39 961.799 z" fill="rgb(225,156,174)" transform="translate(0,0)"></path>
<path d="M 815.914 960.036 C 828.507 966.663 840.804 973.835 852.772 981.532 C 780.448 1048.87 762.344 1167 806.656 1254.32 C 794.72 1250.1 784.333 1244.27 773.445 1238.02 C 746.189 1221.79 715.573 1199.18 696.136 1174.31 C 691.981 1146.61 696.759 1106.48 705.869 1079.95 C 719.833 1039.29 743.698 1004.38 779.493 979.945 C 791.151 971.986 803.358 966.232 815.914 960.036 z" fill="rgb(225,156,174)" transform="translate(0,0)"></path>
<path d="M 1011.39 778.065 C 1021.67 778.134 1031.95 778.078 1042.24 777.896 C 1046.13 793.114 1051.81 813.921 1053.38 829.032 C 1055.47 849.165 1055.83 873.423 1055.93 893.796 C 1055.81 926.45 1055.94 959.105 1056.32 991.757 C 1050.29 994.762 1044.26 990.807 1040.26 1001.61 C 1038.27 1006.99 1041.89 1010.06 1043.44 1015.01 C 1039.6 1022.27 1036.56 1020.89 1038.03 1029.9 C 1040 1033.17 1041.34 1033.82 1044.4 1036.04 C 1047.83 1044.32 1032.08 1049.06 1061.76 1061.44 C 1094.29 1075.01 1123.49 1077.01 1157.53 1081.1 C 1090.82 1100.21 1013.16 1102.92 944.661 1092.47 C 931.821 1090.52 912.281 1087.21 900.073 1083.34 C 887.044 1079.33 904.87 1079.24 907.389 1079.16 C 929.369 1077.5 999.45 1068.3 1007.12 1044.98 C 1006.75 1041.11 1006.33 1040.67 1004.54 1037.35 C 1007.42 1029.29 1019.83 1031.2 1006.12 1015.77 C 1006.16 1007.7 1011.27 1000.53 1006.31 996.828 C 1002.1 993.69 997.601 992.198 992.512 991.711 C 992.081 945.302 991.416 815.687 1011.39 778.065 z" fill="rgb(95,167,165)" transform="translate(0,0)"></path>
<path d="M 900.073 1083.34 C 887.044 1079.33 904.87 1079.24 907.389 1079.16 L 905.573 1080.08 C 902.291 1081.72 900.812 1080.08 900.073 1083.34 z" fill="rgb(73,149,171)" transform="translate(0,0)"></path>
<path d="M 1291.78 1317.52 C 1294.4 1319.24 1304.22 1328.98 1309.56 1333.01 C 1317.62 1352.4 1329.24 1385.59 1335.97 1405.81 C 1264.98 1432.11 1209.39 1446.56 1132.09 1447.2 C 1115.4 1447.34 1096.17 1447.2 1079.97 1443.47 L 1069.56 1433.05 C 1060.62 1423.34 1044.39 1397.96 1038.46 1385.77 C 1048.09 1385.1 1059.64 1384.16 1069.12 1384.12 C 1080.91 1384.08 1091.58 1386.68 1103.54 1384.5 C 1127.48 1380.14 1139.26 1370.4 1153.07 1351.82 C 1159.15 1349.64 1161.39 1349.26 1167.69 1348.17 C 1178 1359.36 1190.86 1367.84 1205.61 1371.84 C 1223.41 1376.73 1242.44 1374.22 1258.36 1364.89 C 1277.99 1353.46 1286.14 1338.67 1291.78 1317.52 z" fill="rgb(224,165,30)" transform="translate(0,0)"></path>
<path d="M 754.686 1318.81 C 755.523 1319.63 755.674 1319.58 755.964 1320.61 C 767.492 1361.56 807.406 1383.38 847.976 1370.65 C 861.571 1366.38 870.763 1358.36 881.831 1348.58 C 886.033 1349.11 890.647 1350.02 894.859 1350.76 C 897.923 1355.38 900.906 1359.62 904.684 1363.7 C 918.252 1378.48 937.621 1386.56 957.666 1385.8 C 964.584 1385.52 975.18 1383.48 981.217 1383.51 C 989.921 1383.55 1001.19 1384.73 1010.46 1385.07 C 1001.61 1403.36 993.053 1415.88 980.284 1431.46 L 970.853 1443.44 C 952.939 1446.83 934.746 1447.22 916.573 1447.14 C 846.563 1446.85 777.309 1432.65 712.834 1405.37 C 720.402 1383.73 729.742 1353.48 739.659 1332.76 C 740.588 1330.82 752.093 1321.08 754.686 1318.81 z" fill="rgb(224,165,30)" transform="translate(0,0)"></path>
<path d="M 814.068 509.963 C 816.903 510.091 815.898 509.881 818.48 511.042 C 820.108 514.925 816.365 523.862 817.544 530.053 C 821.882 552.843 838.036 558.549 858.732 554.492 C 870.354 588.087 885.947 608.818 911.901 631.728 C 916.617 635.891 914.387 644.567 908.979 647.689 C 883.478 662.413 848.395 663.933 819.891 659.756 C 794.251 656.441 730.964 645.173 714.811 621.27 C 711.026 615.669 718.581 597.274 721.862 590.537 C 740.745 551.77 773.664 524.451 814.068 509.963 z" fill="rgb(224,165,30)" transform="translate(0,0)"></path>
<path d="M 1230.05 509.838 C 1269.73 512.909 1326.99 570.602 1335.14 608.987 C 1339.88 631.273 1313.81 637.969 1298.2 644.012 C 1278.59 651.604 1258.13 655.616 1237.95 658.707 C 1210.21 662.012 1184.52 663.958 1157.43 655.225 C 1123.1 644.158 1146.16 624.873 1160.33 608.501 C 1174.29 592.376 1182.49 574.21 1189.64 554.461 C 1196.42 557.04 1201.87 557.476 1209.03 555.858 C 1216.93 554.09 1223.76 549.167 1227.94 542.234 C 1234.93 530.802 1233.16 521.604 1230.05 509.838 z" fill="rgb(224,165,30)" transform="translate(0,0)"></path>
<path d="M 1246.49 537.7 C 1264.47 541.445 1288.87 560.722 1299.4 575.637 C 1301.03 577.946 1297.64 579.674 1296.09 580.344 C 1280.79 567.178 1267.19 551.019 1246.96 545.189 C 1245.76 544.841 1241.13 544.164 1240.43 542.624 C 1240.92 541.238 1245.1 538.717 1246.49 537.7 z" fill="rgb(234,197,118)" transform="translate(0,0)"></path>
<path d="M 1306.83 585.399 C 1308.18 585.406 1309.42 586.152 1310.06 587.343 C 1310.71 588.535 1310.65 589.983 1309.91 591.117 C 1309.17 592.251 1307.87 592.891 1306.52 592.785 C 1304.53 592.629 1303.03 590.932 1303.11 588.943 C 1303.19 586.955 1304.84 585.388 1306.83 585.399 z" fill="rgb(234,197,118)" transform="translate(0,0)"></path>
<path d="M 747.722 939.273 C 767.146 936.777 794.883 950.282 812.456 958.408 C 724.55 998.552 689.024 1071.87 691.956 1166.25 C 691.998 1167.94 691.898 1167.7 691.442 1169.38 C 690.804 1169.15 689.919 1168.89 689.461 1168.35 C 657.112 1130.88 631.29 1084 630.826 1033.41 C 630.741 1024.25 633.668 1016.14 638.944 1008.74 C 666.137 970.572 701.72 947.711 747.722 939.273 z" fill="rgb(224,165,30)" transform="translate(0,0)"></path>
<path d="M 1291.51 939.201 C 1336.34 938.859 1411.3 984.736 1417.42 1030.85 C 1423.4 1075.94 1386.27 1134.6 1359.5 1167.73 C 1358.73 1168.71 1357.54 1169.99 1356.7 1170.95 C 1355.45 1169.13 1357.13 1160.86 1357.36 1157.76 C 1358.01 1148.26 1357.89 1138.73 1357.02 1129.24 C 1350.31 1054.84 1307.35 986.474 1236.1 959.237 C 1260.06 949.532 1263.48 944.885 1291.51 939.201 z" fill="rgb(224,165,30)" transform="translate(0,0)"></path>
<path d="M 894.76 956.92 C 919.633 960.069 892.735 983.741 885.715 989.891 C 905.678 989.532 925.337 986.531 945.085 984.084 C 953.551 983.035 981.673 976.843 986.928 981.468 C 988.848 985.441 988.281 989.02 988.198 993.54 C 978.527 997.859 949.951 1008.19 945.061 1014.45 C 951.126 1017.09 995.767 986.434 1003.99 1000.1 C 1015.75 1019.67 960.877 1021.79 957.375 1030.58 C 969.037 1034.03 997.056 1011.32 1008.26 1021.94 C 1010.2 1032.46 994.942 1036.72 987.466 1039.43 C 985.563 1040.04 969.237 1044.82 968.962 1044.98 L 969.252 1047 C 973.8 1050.12 994.55 1037.84 1000.63 1039.61 C 1003.75 1042.51 1003 1040.84 1003.72 1044.4 C 1001.98 1049.76 995.71 1052.96 990.945 1055.51 C 944.274 1080.53 851.153 1082.12 801.112 1066.36 C 815.589 1028.04 834.448 998.268 868.195 974.144 C 877.822 967.263 883.293 961.63 894.76 956.92 z" fill="rgb(254,253,252)" transform="translate(0,0)"></path>
<path d="M 1150.81 956.784 C 1164.85 957.142 1169.3 966.204 1179.71 973.579 C 1214.82 998.473 1232.78 1027.02 1247.76 1066.93 C 1189.26 1082.54 1111.93 1080.5 1056.85 1054.99 C 1050.79 1052.19 1044.8 1048.1 1046.71 1040.67 L 1048.8 1039.49 C 1057.48 1039.07 1069.91 1045.87 1079.09 1048.88 L 1080.55 1047.29 L 1079.45 1048.92 L 1080.29 1046.94 C 1076.06 1043.17 1070.08 1041.86 1064.5 1039.99 C 1056.67 1037.33 1045.48 1034.47 1041.35 1027.29 C 1040.64 1006.01 1082.74 1033.48 1091.54 1032.19 L 1092.4 1030.28 C 1088.05 1024.17 1045.01 1018.7 1043.37 1004.67 C 1042.94 1001.04 1048.7 995.632 1052.07 995.958 C 1069.55 997.647 1088.39 1013.85 1105.54 1014.45 L 1105.91 1013.58 C 1099.49 1009.47 1069.57 997.507 1060.46 993.682 C 1060.11 985.071 1059.2 977.736 1071.48 979.474 C 1102.38 983.846 1132.95 989.034 1164.22 990.697 C 1153.8 982.312 1136.73 970.115 1150.81 956.784 z" fill="rgb(254,253,252)" transform="translate(0,0)"></path>
<path d="M 766.671 357.4 C 799.955 356.614 823.51 365.551 852.59 380.004 C 864.454 401.97 873.126 410.115 888.591 428.968 C 875.982 442.965 866.403 459.418 860.457 477.294 C 858.646 482.593 856.853 495.209 855.038 497.445 L 851.774 496.946 C 841.314 495.172 836.674 497.382 827.316 501.494 C 819.443 499.493 807.105 496.834 800.805 492.098 C 778.197 474.409 757.708 450.351 746.375 423.672 C 730.345 385.937 714.656 362.471 766.671 357.4 z" fill="rgb(224,165,30)" transform="translate(0,0)"></path>
<path d="M 1270.39 357.411 C 1282.83 356.644 1315.6 357.352 1317.79 372.74 C 1320.44 391.327 1302.48 424.758 1292.74 441.425 C 1281.49 460.682 1260.93 485.444 1240.53 495.485 C 1235.06 497.868 1228.42 499.618 1222.53 501.087 L 1214.47 497.556 C 1205.33 495.508 1202.5 495.51 1193.7 497.378 C 1187.39 471.31 1178.99 450.615 1161.98 429.581 C 1172.22 415.603 1182.64 401.233 1192.9 387.33 C 1208.33 366.408 1246.26 359.318 1270.39 357.411 z" fill="rgb(224,165,30)" transform="translate(0,0)"></path>
<path d="M 1303.46 379.3 L 1304.84 379.866 C 1305.54 380.148 1307.28 380.964 1306.85 381.994 C 1300.12 398.159 1288.05 420.849 1276.26 433.591 C 1275.72 433.325 1272.65 431.947 1273.12 430.946 C 1278.45 419.497 1287.11 409.204 1292.58 397.614 C 1295.86 390.667 1298.36 384.743 1303.46 379.3 z" fill="rgb(234,197,118)" transform="translate(0,0)"></path>
<path d="M 1266.46 436.446 C 1270.38 438.292 1270.78 440.614 1268.66 444.278 L 1267.95 445.534 C 1262.13 443.185 1263.98 442.041 1266.46 436.446 z" fill="rgb(234,197,118)" transform="translate(0,0)"></path>
<path d="M 1187.41 258.167 C 1194.62 257.531 1198.97 258.535 1201.9 265.488 C 1221.93 313.049 1201.88 400.62 1152.2 418.966 C 1141.81 408.911 1134.62 403.723 1122.52 395.781 C 1107.45 385.953 1090.56 379.917 1073.81 373.706 C 1066.01 314.217 1138.08 270.133 1187.41 258.167 z" fill="rgb(224,165,30)" transform="translate(0,0)"></path>
<path d="M 1190.55 279.393 C 1191.09 279.568 1195.32 280.763 1195.35 281.407 C 1196.13 300.324 1193.17 331.259 1186.87 349.113 C 1186.84 349.105 1184.73 348.544 1184.66 348.544 C 1184.2 348.543 1181.51 347.931 1181.27 347.319 C 1180.6 344.48 1182.34 339.883 1182.96 336.984 C 1184.54 329.557 1185.81 321.966 1186.95 314.498 C 1188.73 302.931 1188.66 290.85 1190.55 279.393 z" fill="rgb(234,197,118)" transform="translate(0,0)"></path>
<path d="M 1178.94 354.312 C 1184.1 356.387 1184.77 357.213 1182.57 362.4 L 1181.82 364.275 C 1178.52 363.608 1176.49 363.514 1177.57 359.438 L 1178.94 354.312 z" fill="rgb(234,197,118)" transform="translate(0,0)"></path>
<path d="M 854.759 257.973 C 855.927 257.963 857.096 258.009 858.26 258.111 C 892.616 260.872 939.717 291.803 961.886 317.559 C 962.306 344.074 967.617 350.319 970.999 375.243 C 956.052 379.597 943.03 386.001 929.59 393.679 C 914.949 402.735 910.114 408.378 897.109 418.941 C 885.138 413.663 873.021 407.129 865.568 395.836 C 844.468 363.866 835.5 318.325 842.52 280.716 C 844.179 271.83 847.161 263.022 854.759 257.973 z" fill="rgb(224,165,30)" transform="translate(0,0)"></path>
<path d="M 881.594 279.067 C 901.983 277.841 922.267 298.627 935.66 312.306 C 936.41 313.071 935.555 316.094 935.376 316.922 C 935.127 316.993 934.879 317.064 934.631 317.135 C 934.76 317.112 932.567 317.797 932.414 317.731 C 928.219 315.919 921.904 307.159 917.204 304.434 C 916.877 304.244 909.953 298.734 910.867 299.55 C 903.807 293.249 887.083 285.306 881.594 279.067 z" fill="rgb(234,197,118)" transform="translate(0,0)"></path>
<path d="M 940.477 321.48 C 941.696 320.848 943.162 320.931 944.302 321.696 C 945.443 322.461 946.075 323.787 945.952 325.154 C 945.829 326.522 944.971 327.714 943.713 328.263 C 941.854 329.075 939.687 328.267 938.814 326.437 C 937.941 324.607 938.677 322.414 940.477 321.48 z" fill="rgb(234,197,118)" transform="translate(0,0)"></path>
<path d="M 1020.88 212.177 C 1024.31 211.942 1028.62 211.82 1031.62 213.944 C 1054.17 229.926 1069.64 259.949 1079.8 284.947 C 1083.64 294.389 1086.12 305.166 1088.59 314.557 C 1077.12 329.751 1067.37 352.58 1056.51 369.912 C 1047.63 368.603 1038.7 368.105 1029.75 367.744 C 1015.08 367.028 998.997 368.783 984.573 371.207 C 962.3 346.657 962.165 321.742 969.973 290.847 C 977.219 262.171 994.606 227.735 1020.88 212.177 z" fill="rgb(224,165,30)" transform="translate(0,0)"></path>
<path d="M 1038.92 243.741 C 1039.3 243.767 1039.69 243.793 1040.08 243.819 C 1051.87 241.661 1067.7 285.434 1065.53 292.802 C 1064.81 292.977 1064.09 293.153 1063.37 293.328 C 1060.56 294.293 1059.69 294.049 1058.83 291.07 C 1055.06 278 1050.89 263.971 1043.58 252.374 C 1041.12 248.483 1040.35 247.985 1038.92 243.741 z" fill="rgb(234,197,118)" transform="translate(0,0)"></path>
<path d="M 1067.47 301.78 C 1070.21 305.09 1070.18 308.837 1066.62 311.489 L 1065.39 312.436 C 1062.48 308.089 1061.85 306.604 1066.05 303.039 L 1067.47 301.78 z" fill="rgb(234,197,118)" transform="translate(0,0)"></path>
<path d="M 747.065 241.38 C 780.749 237.683 817.551 247.425 849.64 256.852 C 826.509 287.222 838.544 342.298 850.645 374.945 C 845.971 373.318 837.472 369.152 832.671 366.964 C 804.39 354.622 769.792 349.463 740.066 359.612 C 726.98 331.835 716.846 305.574 712.59 274.946 C 708.567 246.001 722.891 244.22 747.065 241.38 z" fill="rgb(95,167,165)" transform="translate(0,0)"></path>
<path d="M 1273.57 241.401 C 1286.95 239.709 1314.72 241.015 1327.6 247.419 C 1339.28 253.224 1337.51 268.755 1335.55 280.322 C 1330.99 307.231 1321.52 333.879 1308.7 358.181 C 1286.42 351.716 1264.64 353.106 1242.15 358.053 C 1227.39 361.676 1212.72 368.612 1199.12 375.28 C 1204.43 362.595 1208.28 349.342 1210.57 335.78 C 1214.48 312.534 1214.69 277.276 1200.48 257.22 C 1224.05 248.784 1248.62 243.465 1273.57 241.401 z" fill="rgb(95,167,165)" transform="translate(0,0)"></path>
<path d="M 1117.01 145.043 C 1123.39 144.751 1128.7 146.745 1132.9 151.844 C 1157.15 181.261 1168.01 222.578 1167.79 260.173 C 1150.37 265.828 1134.81 275.954 1119.56 285.753 C 1113.13 289.888 1094.26 309.174 1090.12 309.721 C 1081.38 272.874 1065.1 236.337 1035.28 211.701 C 1050.23 182.964 1086.43 155.637 1117.01 145.043 z" fill="rgb(95,167,165)" transform="translate(0,0)"></path>
<path d="M 925.053 146.036 C 956.391 145.09 998.524 187.622 1015.68 211.392 C 985.916 233.107 970.23 269.705 963.291 304.885 C 962.889 308.551 963.349 308.892 961.386 311.624 C 935.415 285.692 916.236 272.96 881.241 259.764 C 882.711 237.601 884.931 215.448 892.886 194.572 C 899.209 177.982 908.274 154.133 925.053 146.036 z" fill="rgb(95,167,165)" transform="translate(0,0)"></path>
<path d="M 920.949 1868.99 C 929.04 1873.59 934.274 1878.38 935.361 1887.9 C 940.048 1920.84 904.833 1926.06 881.539 1929.57 C 846.699 1934.81 835.987 1932.09 810.622 1958.34 C 796.281 1973.18 747.549 1980.76 726.042 1982.21 C 692.397 1984.47 639.617 1985.16 612.296 1961.73 C 599.751 1946.25 600.293 1932.82 613.574 1918.58 C 617.674 1927.25 622.09 1933.76 632.47 1937.58 C 674.67 1953.1 747.123 1949.07 788.152 1932.33 C 803.7 1924.63 813.698 1909.18 830.469 1903.45 C 849.177 1897.06 869.774 1896.11 888.859 1891.31 C 903.198 1887.7 914.903 1883.35 920.949 1868.99 z" fill="rgb(254,253,252)" transform="translate(0,0)"></path>
<path d="M 1126.91 1868.72 C 1130.16 1871.18 1133.4 1879.45 1139.09 1882.89 C 1163.92 1897.9 1196.3 1893.97 1222.73 1904.97 C 1238.65 1911.6 1249.18 1929.95 1266.38 1935.24 C 1309.78 1948.79 1376.11 1953.4 1418.77 1936.19 C 1428.13 1932.41 1432.5 1926.25 1435.31 1917.53 C 1447.18 1930.74 1450.25 1943.52 1439.5 1959.14 C 1423.74 1975.3 1392.31 1982.06 1369.85 1982.94 C 1333.26 1984.38 1276.49 1981.82 1244.45 1962.24 C 1232.89 1955.18 1223.68 1940.64 1207.5 1936.15 C 1181.85 1929.04 1143.4 1931.52 1122.23 1914.58 C 1116.18 1909.75 1113.39 1899.38 1113.74 1891.9 C 1114.28 1880.29 1119.1 1875.89 1126.91 1868.72 z" fill="rgb(254,253,252)" transform="translate(0,0)"></path>
<path d="M 1261.77 1929.99 L 1261.27 1929.66 C 1250.1 1922.36 1237.32 1908.92 1227.93 1903.81 C 1205.66 1892.65 1177.85 1893.53 1154.24 1886.26 C 1110.93 1872.91 1139.74 1834.8 1145.97 1806.92 C 1147.75 1798.96 1147.15 1771.33 1154.82 1767.65 L 1157.1 1768.9 C 1159.44 1772.06 1158.98 1775.56 1159.06 1779.58 C 1178.66 1800.57 1202.92 1797.63 1226.36 1786.56 C 1245.17 1795.48 1241.84 1797.28 1233 1812.8 C 1223.6 1829.29 1219.57 1847.4 1228.82 1864.8 C 1225.92 1872.46 1222.64 1877.69 1227.56 1885.14 C 1236.46 1889.22 1239.03 1875.89 1240.46 1870.04 C 1246.6 1869.51 1251.23 1869.56 1256.6 1866.18 C 1270.92 1857.17 1276.13 1823.09 1279.99 1806.59 C 1281.81 1807.96 1282.99 1808.93 1284.66 1810.49 C 1279.8 1839.42 1271.98 1866.79 1261.49 1894.08 C 1260.64 1896.3 1262.01 1897.74 1263.13 1899.44 C 1266.26 1901.27 1266.12 1901.41 1269.91 1901.31 C 1277.38 1897.55 1284.41 1874.96 1290.92 1864.17 C 1293.18 1872.17 1294.23 1875.5 1297.65 1883.02 C 1277.99 1897.57 1270.68 1907.98 1261.77 1929.99 z" fill="rgb(254,253,252)" transform="translate(0,0)"></path>
<path d="M 891.591 1765.68 C 905.026 1773.18 901.123 1795.89 904.424 1809.96 C 908.052 1825.43 923.067 1851.87 917.554 1866.49 C 905.987 1897.18 850.567 1888.39 825.47 1901.69 C 810.466 1909.67 801.708 1920.42 787.596 1928.66 C 779.024 1907.75 768.443 1896.31 750.737 1882.34 C 755.065 1876.2 756.217 1873.01 758.753 1866.22 C 765.185 1876.16 771.22 1899.39 781.277 1901.34 C 784.396 1900.09 785.246 1899.98 787.565 1897.47 C 787.584 1892.62 785.199 1887.71 783.418 1883.03 C 773.977 1855.12 765.671 1820.44 763.033 1791.23 C 771.753 1804.86 775.375 1845.28 787.167 1860.66 C 793.718 1869.21 799.113 1869.18 808.828 1870.37 C 810.646 1876.94 811.48 1883.7 818.996 1885.58 C 828.939 1882.86 823.009 1870.77 820.645 1864.39 C 832.718 1842.29 820.839 1818.57 809.378 1798.85 C 813.07 1794.47 817.232 1789.98 821.075 1785.68 C 838.391 1795.8 865.932 1800.19 883.5 1786.59 C 890.978 1780.8 891.145 1774.43 891.591 1765.68 z" fill="rgb(254,253,252)" transform="translate(0,0)"></path>
<path d="M 745.768 450.381 C 749.496 450.209 753.735 450.374 757.511 450.423 C 775.415 476.183 788.02 488.109 813.681 505.218 C 805.998 509.277 797.409 512.717 789.279 517.112 C 762.751 531.453 745.246 548.625 727.657 572.669 L 718.71 568.74 C 696.758 559.885 677.112 547.872 658.532 533.161 C 642.59 520.539 641.352 507.113 655.638 491.907 C 679.729 466.266 710.748 452.553 745.768 450.381 z" fill="rgb(95,167,165)" transform="translate(0,0)"></path>
<path d="M 1290.69 451.263 C 1304.9 450.611 1317.06 451.665 1332.83 455.28 C 1353.5 460.017 1409.83 492.298 1402 518.669 C 1397.64 533.362 1357.11 556.504 1341.54 564.045 L 1321.95 572.932 C 1303.44 544.154 1268.13 516.304 1234.84 507.028 C 1262.82 483.198 1266.78 483.775 1290.69 451.263 z" fill="rgb(95,167,165)" transform="translate(0,0)"></path>
<path d="M 667.786 1855.32 C 678.348 1854.06 699.912 1859.84 709.513 1864.16 C 745.843 1880.5 768.476 1894.08 784.247 1930.45 C 766.271 1937.4 751.451 1939.29 732.57 1941.8 C 709.728 1944.07 621.618 1948.88 617.344 1915.96 C 613.692 1887.84 639.042 1859.94 667.786 1855.32 z" fill="rgb(254,253,252)" transform="translate(0,0)"></path>
<path d="M 1374.67 1855.35 C 1405.87 1852.76 1440.75 1891.83 1430.26 1920.36 C 1420.81 1946.05 1346.95 1943.79 1326.75 1942.56 C 1317.03 1941.84 1271.51 1937.5 1266.71 1929.51 C 1267.15 1923.66 1273.05 1912.92 1276.73 1908.2 C 1299.61 1878.86 1338.81 1860.65 1374.67 1855.35 z" fill="rgb(254,253,252)" transform="translate(0,0)"></path>
<path d="M 980.941 775.963 C 988.196 777.11 999.29 777.414 1006.89 777.843 C 988.535 820.775 989.046 931.607 988.929 978.301 C 978.622 973.204 967.837 976.844 956.221 978.826 C 948.176 980.146 939.98 981.307 931.908 982.528 C 928.325 923.47 929.319 814.088 980.941 775.963 z" fill="rgb(224,165,30)" transform="translate(0,0)"></path>
<path d="M 987.503 111.26 C 1002.56 110.758 1021.42 141.844 1057.6 111.027 C 1078.95 114.366 1114.76 121.31 1132.32 134.808 C 1141.7 142.026 1143.04 149.532 1144.17 160.181 C 1132.01 144.659 1125.46 136.671 1104.72 145.858 C 1083.75 155.141 1067.31 168.202 1051.26 184.362 C 1044.58 191.438 1039.77 198.359 1034.27 206.288 C 1031.78 209.875 1024.6 208.842 1018.39 209.678 C 1001.53 186.895 985.087 169.522 960.83 154.821 C 946.562 146.173 925.316 135.203 912.323 151.007 C 910.672 153.015 907.805 157.049 905.914 157.49 C 903.398 153.131 907.528 145.139 910.213 141.703 C 925.899 121.633 963.748 115.921 987.503 111.26 z" fill="rgb(224,165,30)" transform="translate(0,0)"></path>
<path d="M 1302.17 805.841 C 1311.53 809.496 1351.3 866.231 1358.37 876.775 C 1316.44 888.41 1293.09 899.259 1257.59 924.607 C 1243.49 935.71 1240.98 936.7 1224 941.175 C 1224.29 908.201 1222.72 895.782 1216.35 864.144 C 1241.7 835.887 1269.09 821.704 1302.17 805.841 z" fill="rgb(225,156,174)" transform="translate(0,0)"></path>
<path d="M 745.932 805.647 C 756.347 811.267 767.585 816.057 778.178 821.943 C 799.661 833.881 815.045 846.941 832.351 864.072 C 824.821 892.441 824.224 911.178 823.583 939.786 C 807.998 936.926 805.877 935.441 793.456 925.828 C 754.705 897.262 733.672 890.783 690.431 876.127 C 707.132 852.114 725.323 826.385 745.932 805.647 z" fill="rgb(225,156,174)" transform="translate(0,0)"></path>
<path d="M 1206.91 142.337 C 1214.58 141.676 1222.07 141.28 1228.11 146.812 C 1249.78 166.651 1257.31 212.197 1260.37 239.079 C 1233.73 243.152 1221.59 247.248 1196.77 254.824 C 1186.35 253.712 1181 255.97 1171.07 258.969 C 1171.8 223.529 1163.41 194.054 1145.74 163.165 C 1167.88 152.486 1182.72 146.176 1206.91 142.337 z" fill="rgb(95,167,165)" transform="translate(0,0)"></path>
<path d="M 828.008 142.16 C 851.47 140.291 883.374 152.579 903.403 163.92 C 883.901 196.182 880.002 222.307 877.831 258.728 C 873.694 257.505 869.41 256.367 865.245 255.203 C 860.315 254.233 853.69 255.166 852.026 254.569 C 831.687 247.27 811.238 242.085 789.695 239.405 C 791.841 210.689 800.853 158.037 828.008 142.16 z" fill="rgb(95,167,165)" transform="translate(0,0)"></path>
<path d="M 945.857 770.922 C 955.441 773.443 966.083 774.579 975.965 775.791 C 923.574 822.856 926.341 917.824 928.277 982.807 C 921.224 983.337 902.389 986.614 896.931 985.003 L 898.681 982.764 C 904.952 977.008 911.6 966.532 905.56 958.929 C 897.515 948.802 885.368 956.91 878.234 961.737 C 875.702 893.391 884.418 813.299 945.857 770.922 z" fill="rgb(95,167,165)" transform="translate(0,0)"></path>
<path d="M 913.107 763.208 C 915.976 765.278 936.271 768.776 941.029 769.714 C 879.734 821.731 871.515 887.551 874.904 961.193 C 875.259 968.914 862.977 964.764 858.488 963.556 C 847.458 961.322 838.789 959.575 827.975 956.312 C 823.629 874.516 841.175 809.542 913.107 763.208 z" fill="rgb(224,165,30)" transform="translate(0,0)"></path>
<path d="M 1320.49 342.436 C 1337.53 343.133 1409.38 360.41 1408.88 386.071 C 1408.53 403.482 1376.59 435.294 1362.61 447.632 C 1358.63 451.053 1354.64 454.452 1350.63 457.826 C 1329.8 448.678 1315.53 448.119 1293.22 447.279 C 1303.61 429.161 1323.87 393.541 1321.15 372.584 C 1320.3 365.958 1316.52 363.518 1311.4 360.139 L 1320.49 342.436 z" fill="rgb(95,167,165)" transform="translate(0,0)"></path>
<path d="M 724.549 341.105 L 726.914 341.05 C 729.915 343.546 735.313 356.487 737.237 360.655 C 733.557 363.454 729.872 366.457 728.876 371.19 C 724.2 393.401 744.594 428.895 755.109 446.858 C 732.194 446.819 719.732 448.845 698.427 457.5 L 687.557 448.263 C 605.952 378.171 641.554 361.907 724.549 341.105 z" fill="rgb(95,167,165)" transform="translate(0,0)"></path>
<path d="M 1236.31 746.745 C 1250.13 751.929 1289.34 790.861 1300.95 802.833 C 1292.73 807.081 1283.49 810.71 1274.96 815.147 C 1256.47 824.77 1243.09 834.97 1227.49 848.241 C 1223.47 852.026 1219.37 856.253 1215.45 860.176 C 1203.71 830.28 1194.25 812.718 1172.79 789.13 C 1195.69 769.484 1209.27 759.929 1236.31 746.745 z" fill="rgb(224,165,30)" transform="translate(0,0)"></path>
<path d="M 810.445 745.73 C 829.272 753.357 859.981 775.201 875.211 788.832 C 853.115 812.871 843.732 830.848 833.343 860.987 L 823.985 851.319 C 799.667 827.529 778.076 817.455 748.172 803.493 C 768.881 780.536 786.507 765.39 810.445 745.73 z" fill="rgb(224,165,30)" transform="translate(0,0)"></path>
<path d="M 688.22 879.57 C 731.975 890.003 764.689 908.769 800.396 935.128 C 758.992 932.866 729.527 934.396 692.489 955.066 C 664.306 971.303 651.84 986.343 632.746 1011.48 C 640.223 962.777 662.388 920.624 688.22 879.57 z" fill="rgb(224,165,30)" transform="translate(0,0)"></path>
<path d="M 1357.57 879.993 C 1359.1 879.9 1359.12 880.161 1360.73 880.737 C 1386.54 913.394 1408.53 972.806 1416.62 1013.53 C 1400.43 988.495 1388.03 975.676 1362.87 959.163 C 1325.68 936.548 1292.18 932.461 1249.76 935.362 C 1289.32 904.788 1309.76 894.998 1357.57 879.993 z" fill="rgb(224,165,30)" transform="translate(0,0)"></path>
<path d="M 1195.4 1713.48 C 1229.74 1743.99 1262.09 1752.86 1301.57 1723.97 C 1313.04 1732.69 1319.86 1744.26 1325.89 1756.99 L 1304.54 1765.84 C 1296.68 1758.96 1293.33 1757.77 1283.1 1760.54 C 1273.24 1768.47 1262.89 1762.14 1253.2 1766.92 C 1226.12 1780.26 1191.15 1810.29 1162.94 1778.15 C 1161.84 1768.16 1161.89 1760.79 1161.89 1750.81 C 1178.3 1739.89 1185.69 1730.28 1195.4 1713.48 z" fill="rgb(254,253,252)" transform="translate(0,0)"></path>
<path d="M 852.636 1713.82 C 863.449 1732.43 869.517 1739.36 887.978 1750.62 C 888.015 1754.16 887.722 1759.71 888.024 1763.19 C 890.677 1791.25 860.505 1794.58 840.023 1789.65 C 816.739 1784.03 799.406 1758.48 772.99 1763.66 L 771.612 1762.58 C 770.424 1761.97 769.217 1761.4 767.993 1760.86 C 757.028 1756.21 755.522 1759.08 746.6 1762.85 C 740.666 1765.36 729.689 1759.37 724.037 1756.72 C 729.392 1742.47 735.39 1734.03 747.007 1724.43 C 783.826 1753.37 820.594 1743.76 852.636 1713.82 z" fill="rgb(254,253,252)" transform="translate(0,0)"></path>
<path d="M 1020.6 33.5105 C 1044.64 31.3762 1065.87 49.1097 1068.06 73.1486 C 1070.24 97.1874 1052.55 118.456 1028.51 120.688 C 1004.41 122.927 983.068 105.174 980.878 81.0663 C 978.689 56.9581 996.484 35.651 1020.6 33.5105 z" fill="rgb(225,156,174)" transform="translate(0,0)"></path>
<path d="M 1134.55 773.7 C 1166.65 794.577 1219.04 837.737 1191.63 882.496 C 1186.69 890.561 1176.19 897.229 1166.72 898.519 C 1157.69 899.681 1148.56 897.17 1141.4 891.548 C 1122.97 877.378 1122.01 850.885 1118.69 829.801 C 1116.77 817.646 1109.2 797.408 1112.51 786.198 C 1113.42 785.306 1113.99 784.24 1114.72 783.138 L 1122.14 782.124 C 1129.94 804.441 1137.46 826.955 1139.86 850.193 C 1140.93 860.58 1145.06 876.431 1155.48 879.311 C 1184.26 887.266 1182.11 852.336 1174.1 836.825 C 1161.11 811.69 1140.83 801.287 1124 781.052 C 1127.73 778.63 1131.13 776.56 1134.55 773.7 z" fill="rgb(225,156,174)" transform="translate(0,0)"></path>
<path d="M 893.988 699.004 C 900.228 702.791 905.753 706.769 911.71 710.988 L 906.206 718.783 C 907.241 734.403 907.035 743.069 917.597 755.393 C 902.188 766.717 891.622 772.656 876.825 786.26 C 870.964 780.982 865.677 776.69 859.486 771.783 C 844.069 760.19 830.009 752.143 813.106 743.391 C 846.707 721.667 857.058 714.757 893.988 699.004 z" fill="rgb(224,165,30)" transform="translate(0,0)"></path>
<path d="M 1156.15 700.282 C 1175.35 706.077 1218.68 731.135 1234.51 744.101 C 1219.08 751.412 1207.39 757.93 1193.49 768.23 C 1185.22 774.262 1178.35 780.412 1170.52 786.856 C 1162.53 778.656 1151.92 768.861 1141.75 763.579 C 1136.2 760.697 1136.92 758.606 1134.8 751.507 C 1143.81 735.502 1147.99 725.206 1139.12 708.914 C 1145.13 705.924 1150.25 703.608 1156.15 700.282 z" fill="rgb(224,165,30)" transform="translate(0,0)"></path>
<path d="M 1059.21 881.734 C 1060.48 882.833 1060.46 882.82 1061.29 884.36 C 1073.62 907.096 1094.71 912.797 1116.4 902.207 C 1117.19 929.45 1116.47 954.001 1116.2 981.043 C 1115.09 983.432 1114.8 982.528 1111.99 982.115 C 1101.02 980.493 1090.09 978.303 1079.14 976.549 C 1069.39 974.987 1067.59 975.372 1059.31 979.2 C 1058.97 946.713 1058.93 914.223 1059.21 881.734 z" fill="rgb(224,165,30)" transform="translate(0,0)"></path>
<path d="M 1009.64 674.437 C 1058.35 672.245 1106.96 680.59 1152.14 698.902 C 1145.87 701.801 1140.24 704.12 1134.64 708.182 C 1109.23 698.973 1070.39 696.315 1043.25 695.031 C 1002.7 694.122 952.58 694.485 914.597 709.322 C 909.038 705.424 902.928 701.516 897.24 697.736 C 933.244 684.088 971.181 676.224 1009.64 674.437 z" fill="rgb(224,165,30)" transform="translate(0,0)"></path>
<path d="M 1132.56 888.745 C 1134.95 890.259 1137.29 892.761 1139.68 894.567 C 1151.18 903.247 1159.53 902.325 1172.81 901.102 C 1173.5 922.97 1173.92 940.292 1172.21 962.532 C 1159.68 953.216 1147.67 945.756 1141.58 965.432 C 1143.36 976.246 1145.2 978.169 1153.09 986.224 C 1142.02 985.214 1131.06 984.286 1120 983.048 C 1120.07 956.019 1120.7 927.352 1119.68 900.381 C 1125.36 895.979 1127.72 893.886 1132.56 888.745 z" fill="rgb(95,167,165)" transform="translate(0,0)"></path>
<path d="M 1194.01 826.025 L 1196.35 826.516 C 1202.61 838.473 1209.77 851.984 1213 866.982 C 1218.24 891.289 1225.55 931.022 1216.68 955.403 C 1214.69 960.873 1181.11 967.748 1176.67 964.69 C 1175.65 957.684 1176.62 945.044 1176.8 937.526 C 1177.13 925.017 1176.85 912.5 1175.97 900.017 C 1207.51 882.873 1207.65 855.124 1194.01 826.025 z" fill="rgb(225,156,174)" transform="translate(0,0)"></path>
<path d="M 768.056 1769.76 C 796.075 1773.05 817.72 1815.24 821.967 1840.5 C 823.573 1850.06 822.252 1856.95 815.68 1864.14 C 809.438 1866.69 795.104 1866.46 791.46 1861.07 C 777.324 1840.13 777.128 1810.69 765.226 1788.86 C 760.002 1779.28 759.602 1776 768.056 1769.76 z" fill="rgb(95,167,165)" transform="translate(0,0)"></path>
<path d="M 767.547 1780.81 C 791.116 1784.01 812.388 1829.93 808.415 1852.81 C 795.283 1856.81 797.482 1850.86 793.336 1838.6 C 785.572 1815.63 783.946 1800.76 768.186 1781.6 L 767.547 1780.81 z" fill="rgb(1,1,1)" transform="translate(0,0)"></path>
<path d="M 796.151 1814.77 C 801.398 1817.18 809.412 1845.51 803.906 1850.84 L 802.627 1852.13 C 799.58 1847.7 799.3 1845.9 797.836 1840.52 L 797.366 1838.91 C 795.42 1832.1 793.022 1825.13 791.416 1818.33 C 791.28 1817.75 795.644 1815.12 796.151 1814.77 z" fill="rgb(254,253,252)" transform="translate(0,0)"></path>
<path d="M 783.062 1796.44 C 787.122 1799.31 793.628 1807.24 795.26 1811.94 C 785.436 1814.27 787.785 1807.16 783.062 1796.44 z" fill="rgb(175,201,199)" transform="translate(0,0)"></path>
<path d="M 1100.66 774.947 C 1105.39 779.587 1108.52 781.061 1114.72 783.138 C 1113.99 784.24 1113.42 785.306 1112.51 786.198 C 1111.42 785.612 1112.15 785.858 1110.19 786.12 L 1109.63 786.863 C 1102.5 796.374 1096.58 807.018 1091.12 817.72 C 1080.98 837.57 1066.39 869.243 1090.24 885.589 C 1092.98 887.467 1097.43 889.357 1100.74 887.98 C 1112.09 883.252 1115.76 872.796 1119.98 862.373 C 1122.95 872.845 1124.8 876.652 1130.52 885.887 C 1103.75 916.025 1064.55 906.948 1058.83 866.332 C 1054.72 837.129 1082.56 797.796 1100.66 774.947 z" fill="rgb(225,156,174)" transform="translate(0,0)"></path>
<path d="M 1277.8 1768.87 C 1281.3 1769.75 1290.81 1775.73 1284.53 1777.95 C 1268.89 1783.49 1256.81 1798.51 1249.35 1813.25 C 1244.8 1822.25 1237.82 1839.51 1240.43 1850.37 C 1247.28 1860.55 1251.23 1851.54 1253.78 1843.99 C 1259.99 1825.59 1265.99 1799.96 1277.79 1784.77 C 1283.28 1777.69 1294.57 1782.08 1281.93 1787.79 L 1280.38 1788.57 C 1278.7 1790.17 1277.79 1798.67 1277.19 1801.51 L 1276.35 1805.55 L 1275.17 1811.02 C 1271.99 1826.47 1268.41 1843.38 1260.91 1857.43 C 1258.12 1862.65 1253.77 1863.6 1248.52 1865.15 C 1222.77 1872.73 1224.52 1840.5 1231.79 1823.57 C 1241.82 1800.23 1252.44 1780.12 1277.8 1768.87 z" fill="rgb(95,167,165)" transform="translate(0,0)"></path>
<path d="M 1002.2 698.419 C 1045.22 696.881 1089.71 699.596 1131.42 710.869 C 1135.06 711.853 1139.56 715.662 1137.99 719.866 C 1132.11 723.419 1120.24 727.771 1113.39 727.34 C 1113.41 723.379 1113.52 722.287 1112.65 718.496 C 1101.63 707.392 1066.37 705.486 1050.32 704.245 C 1018.34 703.098 973.13 702.535 942.486 714.56 C 938.833 715.993 937.09 722.275 936.11 725.706 L 935.719 727.113 C 929.466 728.46 916.494 725.699 911.971 720.431 C 909.016 702.032 988.204 699.042 1002.2 698.419 z" fill="url(#Gradient2)" transform="translate(0,0)"></path>
<path d="M 1098.15 811.515 C 1101.7 814.667 1105.76 828.709 1106.73 833.541 C 1110.33 851.46 1123.09 878.755 1096.88 884.478 L 1095.23 883.746 C 1065.82 870.801 1088.24 830.502 1098.15 811.515 z" fill="rgb(224,165,30)" transform="translate(0,0)"></path>
<path d="M 1333.5 1775.82 C 1340.18 1775.78 1372.11 1777.72 1370.7 1767.5 C 1368.82 1753.94 1323.46 1771.21 1315.98 1772.72 C 1309.65 1773.99 1306.57 1777.41 1306.17 1769.01 C 1306.14 1768.33 1315.16 1765.08 1316 1764.5 C 1332.09 1757.45 1346.46 1750.03 1364.5 1750.07 C 1375.89 1750.1 1387.56 1757.57 1385.27 1770.01 C 1381.69 1789.37 1342.96 1786.3 1329 1784.12 C 1321.58 1782.96 1312.8 1781.53 1305.16 1780.15 C 1312.9 1778.6 1319.71 1778.82 1325.96 1773.51 C 1326.12 1773.37 1326.67 1773.46 1326.89 1773.59 C 1326.86 1775.4 1324.87 1775.72 1325.51 1776.93 C 1327.62 1777.56 1329.74 1777.06 1331.68 1776.25 L 1333.5 1775.82 z" fill="rgb(95,167,165)" transform="translate(0,0)"></path>
<path d="M 678.171 1750.27 C 701.191 1748.16 711.522 1754.93 731.865 1764.17 C 734.925 1765.56 747.495 1767.85 740.664 1772.5 C 738.431 1774.02 724.417 1770.14 721.489 1769.15 C 710.608 1765.98 696.929 1759.86 685.441 1761.62 C 676.36 1763.01 675.22 1769.66 684 1773.03 L 688.094 1774.58 C 707.979 1777.45 723.303 1775.19 742.977 1777.96 C 724.248 1784.12 697.352 1790.06 678.521 1783.82 C 658.153 1777.06 658.847 1759.14 678.171 1750.27 z" fill="rgb(95,167,165)" transform="translate(0,0)"></path>
<path d="M 1129.3 792.481 C 1134.13 795.464 1145.41 807.028 1149.06 811.461 C 1158.36 822.746 1174.37 860.844 1171.11 874.625 C 1155.86 880.522 1146.31 872.006 1144.76 857.01 C 1142.34 833.586 1136.77 814.765 1129.3 792.481 z" fill="rgb(95,167,165)" transform="translate(0,0)"></path>
<path d="M 1072.09 775.544 C 1075.97 776.147 1082.58 786.116 1084.88 789.414 C 1068.23 811.916 1068.84 816.285 1058.71 841.351 C 1056.11 833.241 1056.3 819.519 1053.8 810.011 C 1051.53 801.397 1049.08 791.192 1047.21 782.489 L 1046.08 777.29 C 1055.93 776.906 1062.12 776.629 1072.09 775.544 z" fill="rgb(224,165,30)" transform="translate(0,0)"></path>
<path d="M 1357.04 1839.19 C 1361.15 1838.82 1373.33 1848.39 1377.45 1851.13 C 1352.08 1855.08 1335.07 1860.35 1312.98 1873.02 L 1311.25 1874 L 1300.96 1880.51 C 1298.92 1875.4 1297.57 1871.96 1295.85 1866.63 C 1311.71 1849.86 1335.27 1844.15 1357.04 1839.19 z" fill="rgb(254,253,252)" transform="translate(0,0)"></path>
<path d="M 690.888 1839.96 C 700.26 1839.53 719.896 1846.94 729.149 1850.51 C 739.801 1854.62 748.291 1859.76 754.386 1869.52 C 748.913 1879.85 750.315 1882.43 740.504 1875.67 C 721.598 1864.72 702.489 1855.14 680.496 1852.07 L 671.768 1850.91 C 679.98 1845.15 681.798 1843.96 690.888 1839.96 z" fill="rgb(254,253,252)" transform="translate(0,0)"></path>
<path d="M 1138.72 724.089 C 1141.68 728.964 1135.27 743.422 1132.85 747.982 C 1114.72 738.743 1102.35 739.31 1094.94 759.865 C 1090.32 760.793 1085.67 761.605 1081.07 762.627 C 1078.92 762.925 1076.77 763.515 1074.6 763.544 C 1073.74 763.555 1074.15 761.595 1074.33 761.21 C 1078.1 753.212 1081.08 744.82 1083.84 736.426 C 1104.4 732.148 1118.38 732.461 1138.72 724.089 z" fill="rgb(95,167,165)" transform="translate(0,0)"></path>
<path d="M 758.946 1791.15 C 760.26 1794.72 762.322 1818.94 764.005 1826.71 C 769.183 1850.61 776.546 1871.27 783.407 1894.34 C 782.606 1897.47 782.513 1896.64 778.977 1899.07 C 778.751 1898.79 778.525 1898.51 778.298 1898.23 C 762.128 1867.41 750.159 1835.2 752.89 1799.7 C 753.302 1794.35 755.534 1793.81 758.946 1791.15 z" fill="rgb(95,167,165)" transform="translate(0,0)"></path>
<path d="M 1291.7 1792.24 C 1295.02 1793.5 1297.03 1793.89 1299.42 1796.52 C 1297.33 1809.71 1296.88 1822.04 1294.39 1835.42 C 1290.37 1857.07 1280.52 1876.51 1271.66 1896.66 C 1270.52 1897.25 1269.62 1897.33 1268.32 1897.63 L 1266.59 1896.29 C 1265.67 1890.76 1271.37 1877.72 1273.43 1871.98 C 1282.62 1846.32 1286.89 1818.98 1291.7 1792.24 z" fill="rgb(95,167,165)" transform="translate(0,0)"></path>
<path d="M 1110.96 746.046 C 1136.69 745.641 1143.59 766.039 1121.97 778.243 C 1101.35 782.64 1087.98 756.572 1110.96 746.046 z" fill="rgb(229,179,136)" transform="translate(0,0)"></path>
<path d="M 1041.69 739.498 C 1041.68 739.498 1044.52 739.34 1044.51 739.348 C 1044.67 739.214 1046.6 739.562 1046.56 739.898 C 1046.02 744.398 1040.16 758.34 1039.04 762.517 L 1038.18 765.845 C 1030.23 765.991 1022.27 766.086 1014.32 766.13 C 1007.7 756.644 1007.59 750.452 1007.7 739.721 C 1019.15 739.741 1030.23 739.895 1041.69 739.498 z" fill="rgb(95,167,165)" transform="translate(0,0)"></path>
<path d="M 687.09 1827.21 C 704.634 1825 738.426 1834.35 751.669 1848.3 C 754.284 1851.05 757.561 1862.76 758.864 1867.06 C 755.953 1864.39 753.224 1861.7 750.351 1859.03 C 733.786 1845.93 712.094 1839.17 691.492 1836.14 C 676.703 1833.97 658.842 1833.13 687.09 1827.21 z" fill="rgb(95,167,165)" transform="translate(0,0)"></path>
<path d="M 1122.42 642.87 C 1127.15 643.172 1135.29 646.636 1139.74 648.417 C 1120.05 662.08 1091.01 674.738 1066.77 673.135 C 1059.99 672.628 1054.13 671.912 1047.36 671.096 C 1076.82 666.418 1097.18 659.409 1122.42 642.87 z" fill="rgb(95,167,165)" transform="translate(0,0)"></path>
<path d="M 1353.64 1826.31 C 1358.03 1826.06 1370.27 1827.45 1374.58 1830.49 C 1374.58 1830.79 1374.42 1831.29 1374.22 1831.51 C 1371.72 1834.25 1365.96 1834.75 1362.51 1835.26 C 1340.69 1838.44 1323.4 1843.71 1304.37 1854.63 C 1300.08 1857.1 1297.35 1859.8 1293.55 1862.37 L 1290.72 1864.26 C 1292.79 1858.03 1294.7 1852.03 1296.6 1845.74 C 1317.36 1837.07 1330.67 1829.89 1353.64 1826.31 z" fill="rgb(95,167,165)" transform="translate(0,0)"></path>
<path d="M 910.611 650.994 C 916.216 646.662 918.561 645.283 924.949 642.008 C 946.695 654.641 968.11 667.497 994.215 669.808 C 994.884 670.521 996.234 671.634 996.946 672.249 C 991.81 672.096 977.402 674.506 974.496 673.963 C 954.213 670.172 927.324 661.971 910.611 650.994 z" fill="rgb(95,167,165)" transform="translate(0,0)"></path>
<path d="M 737.804 1793.3 C 755.226 1795.29 735.633 1801.39 727.982 1807.81 C 725.11 1810.22 708.534 1815.51 703.591 1818.27 C 692.172 1824.66 673.982 1826.71 660.749 1829.58 C 651.426 1828.88 651.233 1822.9 658.977 1821.1 C 684.337 1815.2 716.268 1808.38 737.804 1793.3 z" fill="rgb(95,167,165)" transform="translate(0,0)"></path>
<path d="M 940.858 733.795 C 950.529 734.422 963.275 735.818 972.975 736.937 C 971.463 750.699 972.666 749.497 979.692 764.327 C 973.82 764.815 961.21 762.469 954.946 761.502 C 944.653 751.855 944.212 746.96 940.858 733.795 z" fill="rgb(224,165,30)" transform="translate(0,0)"></path>
<path d="M 1301.36 1791.24 C 1310.02 1790.73 1325.09 1800.49 1333.46 1804.37 C 1351.54 1812.74 1368.99 1816.76 1388.52 1820.04 C 1395.87 1821.27 1395.71 1822.51 1394.06 1828.8 C 1387.48 1829.43 1375.54 1826.22 1368.48 1825.2 C 1367.46 1825.41 1364.46 1824.02 1363.49 1824.17 C 1353.25 1825.83 1303.65 1797.5 1301.36 1791.24 z" fill="rgb(95,167,165)" transform="translate(0,0)"></path>
<path d="M 1074.64 737.451 C 1077.06 737.046 1079.69 737.03 1079.57 737.649 C 1078.04 745.008 1072.59 757.295 1069.18 763.737 C 1062.14 764.616 1055.39 765.094 1048.5 766.039 C 1038.08 766.055 1042.36 765.446 1045.35 755.116 C 1046.81 750.085 1049.17 744.196 1050.9 739.185 C 1058.6 738.751 1066.91 738.072 1074.64 737.451 z" fill="rgb(224,165,30)" transform="translate(0,0)"></path>
<path d="M 909.521 724.904 C 919.59 728.976 927.095 729.851 937.484 732.224 C 939.956 746.323 941.333 750.384 950.038 761.263 C 923.416 756.993 912.942 754.738 909.521 724.904 z" fill="rgb(224,165,30)" transform="translate(0,0)"></path>
<path d="M 975.696 737.021 C 986.119 738.447 993.534 738.952 1003.92 739.224 C 1004.14 751.712 1004.33 754.991 1011.15 766.043 C 1002.08 765.917 993.442 765.129 984.336 764.848 C 978.041 754.124 975.314 749.306 975.696 737.021 z" fill="rgb(225,156,174)" transform="translate(0,0)"></path>
<path d="M 957.836 765.822 C 991.491 771.118 1036.04 771.012 1069.79 767.344 C 1076.53 766.611 1092.7 762.488 1096.19 765.273 L 1095.77 766.999 C 1077.02 777.802 983.357 773.349 959 769.652 L 957.836 765.822 z" fill="rgb(188,176,186)" transform="translate(0,0)"></path>
<path d="M 1331.71 1817.03 C 1335.52 1817.13 1343.35 1821.69 1347.69 1823.58 C 1334.86 1827.04 1323.03 1829.74 1310.74 1835.31 C 1303.24 1838.32 1294.16 1845.27 1299.28 1831 C 1300.55 1827.45 1326.5 1819.19 1331.71 1817.03 z" fill="rgb(95,167,165)" transform="translate(0,0)"></path>
<path d="M 712.324 1817.94 C 718.879 1816.91 728.702 1821.71 734.837 1823.91 C 740.443 1825.93 750.71 1829.15 750.934 1836.01 C 750.965 1836.97 752.319 1841.27 751.359 1841.78 C 750.23 1841.64 747.373 1839.24 746.491 1838.57 C 731.402 1829.44 718.242 1827.1 701.594 1823.17 C 705.453 1821.08 708.442 1819.82 712.324 1817.94 z" fill="rgb(95,167,165)" transform="translate(0,0)"></path>
<path d="M 1260.04 1768.19 C 1261.55 1768.05 1278.06 1766.56 1267.12 1770.44 C 1254.54 1778.04 1251.67 1782.44 1243.5 1794.64 L 1242.34 1793.6 C 1236.3 1788.07 1236.23 1788.72 1228.97 1784.73 C 1240.2 1776.8 1247.5 1773.18 1260.04 1768.19 z" fill="rgb(254,253,252)" transform="translate(0,0)"></path>
<path d="M 1260.04 1768.19 C 1261.55 1768.05 1278.06 1766.56 1267.12 1770.44 C 1264.3 1768.87 1263.31 1768.89 1260.04 1768.19 z" fill="rgb(221,221,222)" transform="translate(0,0)"></path>
<path d="M 789.142 1768.03 C 797.794 1769.92 810.819 1778.23 818.431 1783.1 L 817.072 1784.6 C 813.655 1788.33 810.549 1791.85 807.208 1795.64 C 797.798 1783.35 795.134 1778.65 782.229 1769.43 C 785.019 1768.37 786.146 1768.62 789.142 1768.03 z" fill="rgb(254,253,252)" transform="translate(0,0)"></path>
<path d="M 1107.54 795.764 C 1108.72 797.593 1114.23 823.575 1114.84 827.015 L 1115.83 832.513 C 1116.15 834.363 1123.13 864.819 1116.77 859.91 C 1113.61 844.892 1108.85 821.168 1101.65 808.245 L 1100.73 806.58 C 1103.04 802.951 1105.32 799.469 1107.54 795.764 z" fill="url(#Gradient1)" transform="translate(0,0)"></path>
<path d="M 1289.3 1761.88 C 1299.54 1762.85 1300.28 1767.55 1304.1 1776.96 C 1303.36 1780.49 1302.7 1787.9 1299 1789.42 L 1297.63 1790.03 C 1293.24 1788.57 1288.39 1788.54 1290.04 1782.51 C 1294.09 1767.64 1273.48 1769.33 1289.3 1761.88 z" fill="rgb(95,167,165)" transform="translate(0,0)"></path>
<path d="M 756.793 1762.14 C 758.499 1762.42 766.288 1763.54 766.761 1765.65 C 766.396 1766.74 763.09 1768.52 761.942 1769.51 C 753.923 1776.38 762.3 1782 754.266 1788.26 L 753.009 1789.35 C 737.737 1783.32 744.517 1766.34 756.793 1762.14 z" fill="rgb(95,167,165)" transform="translate(0,0)"></path>
<path d="M 1251.82 1815.66 C 1252.94 1816.7 1256.01 1821.31 1256.68 1822.75 C 1254.68 1828.95 1252.88 1835.22 1251.28 1841.54 C 1250.3 1845.49 1249.68 1847.54 1248.24 1851.34 C 1236.37 1850.64 1249.28 1821.3 1251.82 1815.66 z" fill="rgb(254,253,252)" transform="translate(0,0)"></path>
<path d="M 1313.11 1811.17 C 1315.78 1810.97 1318.46 1810.8 1320.99 1811.14 C 1322.46 1811.34 1325.63 1814.21 1324.56 1815.29 C 1321.64 1818.23 1312.47 1820.39 1308.36 1821.95 C 1303.7 1823.4 1299.12 1827.9 1299.93 1821.01 C 1300.95 1812.37 1303.62 1813.22 1313.11 1811.17 z" fill="rgb(95,167,165)" transform="translate(0,0)"></path>
<path d="M 1156.76 778.672 C 1169.99 789.058 1188.32 811.808 1196.35 826.516 L 1194.01 826.025 C 1179.05 805.693 1174.53 800.071 1154.7 783.475 L 1156.76 778.672 z" fill="rgb(195,155,137)" transform="translate(0,0)"></path>
<path d="M 672.2 1836.68 C 676.388 1837.38 680.328 1838.21 684.594 1838.85 C 677.722 1842.73 670.851 1848.21 665.099 1851.31 C 661.399 1852.48 658.029 1853.5 654.241 1854.42 L 655.418 1852.95 C 661.285 1845.52 665.355 1842.88 672.2 1836.68 z" fill="rgb(254,253,252)" transform="translate(0,0)"></path>
<path d="M 693.792 1772.07 C 690.708 1771.87 687.387 1771.11 684.584 1769.88 C 683.626 1769.46 681.682 1767.21 682.997 1766.49 C 687.137 1764.23 695.125 1766.44 699.51 1766.83 C 704.191 1767.24 708.772 1768.73 712.893 1770.42 C 714.217 1770.76 717.488 1771.31 718.364 1772.54 C 717.708 1773.89 696.634 1772.65 693.792 1772.07 z" fill="rgb(254,253,252)" transform="translate(0,0)"></path>
<path d="M 712.893 1770.42 C 714.217 1770.76 717.488 1771.31 718.364 1772.54 C 717.708 1773.89 696.634 1772.65 693.792 1772.07 C 700.192 1771.51 708.629 1772.77 712.893 1770.42 z" fill="rgb(221,221,222)" transform="translate(0,0)"></path>
<path d="M 725.37 1811.77 C 730.69 1811.75 745.936 1814.51 749.416 1820.39 C 750.454 1822.15 750.694 1824.56 748.13 1825.07 C 744.735 1823.42 722.046 1814.95 721.996 1814.73 C 722.402 1813.6 724.209 1812.79 725.37 1811.77 z" fill="rgb(95,167,165)" transform="translate(0,0)"></path>
<path d="M 1360.77 1765.42 C 1362.18 1765.45 1369.19 1766.32 1365.59 1769.39 C 1360.34 1773.87 1347.54 1773.07 1340.75 1773.11 C 1322.48 1770.86 1360.34 1765.47 1360.77 1765.42 z" fill="rgb(254,253,252)" transform="translate(0,0)"></path>
<path d="M 1377.1 1837.68 C 1378.88 1838.47 1393.36 1852.24 1393.87 1853.29 L 1393.73 1853.57 C 1392.76 1853.94 1387.25 1852.57 1385.76 1852.31 C 1383.34 1851.56 1367.52 1840.86 1366.97 1839.67 C 1365.93 1840.51 1376.51 1837.9 1377.1 1837.68 z" fill="rgb(254,253,252)" transform="translate(0,0)"></path>
<path d="M 959 769.652 C 955.754 769.102 952.346 768.681 948.995 768.141 C 942.127 767.014 935.287 765.727 928.481 764.279 C 927.869 764.148 915.105 762.315 918.443 759.97 C 921.555 757.784 926.692 760.152 930.012 760.824 C 935.337 761.901 940.628 762.872 946.007 763.77 L 952.009 764.83 C 954.099 765.178 955.73 765.4 957.836 765.822 L 959 769.652 z" fill="rgb(229,179,136)" transform="translate(0,0)"></path>
<path d="M 1092.58 772.378 C 1094.04 772.099 1096.22 771.494 1097.55 772.503 C 1097.42 773.269 1088.32 784.644 1087.13 786.221 C 1083.74 781.939 1081.12 778.706 1077.55 774.47 C 1083.2 773.536 1086.88 773.06 1092.58 772.378 z" fill="rgb(234,197,118)" transform="translate(0,0)"></path>
<path d="M 1165.14 831.862 L 1166.96 830.995 C 1175.68 849.55 1176.91 847.547 1175.59 869.685 C 1173.39 864.007 1171.89 857.524 1170.76 851.517 C 1169.46 844.589 1166.8 838.448 1165.14 831.862 z" fill="rgb(228,143,58)" transform="translate(0,0)"></path>
<path d="M 1154.7 783.475 C 1151.78 781.359 1137.06 771.37 1136.91 770.496 C 1134.85 758.589 1154.99 777.285 1156.76 778.672 L 1154.7 783.475 z" fill="rgb(225,156,174)" transform="translate(0,0)"></path>
<path d="M 747.184 1799.92 C 748.411 1800.88 748.797 1801.73 748.651 1803.48 C 747.835 1813.26 752.664 1815.92 741.727 1811.98 C 729.643 1808.21 738.043 1806.78 747.184 1799.92 z" fill="rgb(175,201,199)" transform="translate(0,0)"></path>
<path d="M 1279.99 1806.59 C 1280.19 1804.92 1281.91 1791.73 1283.5 1791.06 C 1291.69 1787.58 1285.71 1805.85 1284.66 1810.49 C 1282.99 1808.93 1281.81 1807.96 1279.99 1806.59 z" fill="rgb(191,195,191)" transform="translate(0,0)"></path>
<path d="M 1265.61 1795.84 C 1266.1 1799.2 1259.92 1816.23 1257.26 1818.48 C 1251.9 1807.9 1257.47 1804.7 1265.61 1795.84 z" fill="rgb(191,195,191)" transform="translate(0,0)"></path>
<path d="M 1302.7 1798.27 C 1304.32 1799.1 1318.1 1805.52 1314.65 1807.48 C 1301.61 1809.81 1300.03 1813.62 1302.7 1798.27 z" fill="rgb(191,195,191)" transform="translate(0,0)"></path>
<path d="M 1232.46 1867.2 C 1239.68 1870.55 1236.32 1874.97 1233.82 1882.39 C 1224.69 1880.03 1229.06 1874.46 1232.46 1867.2 z" fill="rgb(73,149,171)" transform="translate(0,0)"></path>
<path d="M 816.14 1866.73 C 818.921 1869.25 822.983 1877.11 820.347 1880.88 L 819.525 1882.11 C 814.887 1879.86 810.998 1871.07 814.84 1867.9 L 816.14 1866.73 z" fill="rgb(95,167,165)" transform="translate(0,0)"></path>
<path d="M 1159.1 1337.6 C 1163.21 1342.33 1166.24 1344.39 1160.01 1346.89 L 1158.5 1347.6 C 1151.93 1347.25 1156.59 1342.68 1159.1 1337.6 z" fill="rgb(224,165,30)" transform="translate(0,0)"></path>
<path d="M 889.496 1337.87 C 891.544 1340.93 894.885 1345.99 890.558 1347.57 C 882.801 1344.26 884.477 1345.12 889.496 1337.87 z" fill="rgb(224,165,30)" transform="translate(0,0)"></path>
<path d="M 1165.14 831.862 C 1163.28 828.893 1161.77 825.988 1159.84 823.089 L 1160.25 822.074 L 1159.44 822.382 L 1159.82 821.584 L 1159.2 821.765 C 1159.14 821.488 1158.96 820.868 1159.2 820.665 C 1159.26 820.611 1159.47 820.371 1159.59 820.431 C 1161.75 821.549 1165.73 829.124 1166.96 830.995 L 1165.14 831.862 z" fill="rgb(136,89,43)" transform="translate(0,0)"></path>
<path d="M 782.229 1769.43 C 770.205 1765.56 783.962 1766.45 789.142 1768.03 C 786.146 1768.62 785.019 1768.37 782.229 1769.43 z" fill="rgb(191,195,191)" transform="translate(0,0)"></path>
<path d="M 994.215 669.808 C 994.208 669.807 1002.25 670.128 998.471 671.878 C 997.963 672.002 997.454 672.125 996.946 672.249 C 996.234 671.634 994.884 670.521 994.215 669.808 z" fill="rgb(81,86,89)" transform="translate(0,0)"></path>
<path d="M 1331.68 1776.25 C 1330.27 1771.11 1332.87 1769.79 1333.5 1775.82 L 1331.68 1776.25 z" fill="rgb(81,86,89)" transform="translate(0,0)"></path>
<metadata><recraft-signature>{"signed_by": "recraft", "signature_b64": "eLiRkBNi8TWN2iQOvmUXrOabJqJRFjc9dnDm8D/WrC9aWPtotxFdXSxKehpgZbds98OV6iSIOZ0M5xCstP3XCQ==", "signing_algo": "Ed25519", "generation_timestamp": 1778557394, "identifier": "6d5e64b9-5ebf-48c2-a886-a45248f3d876"}</recraft-signature></metadata></svg>