<svg xmlns="http://www.w3.org/2000/svg" height="1024" preserveAspectRatio="none" style="display: block;" version="1.1" viewBox="0 0 2048 2048" width="1024">
<defs>
	<linearGradient gradientUnits="userSpaceOnUse" id="Gradient1" x1="1269.3" x2="1274.86" y1="1071.38" y2="1103.1">
		<stop class="stop0" offset="0" stop-color="rgb(33,27,26)" stop-opacity="1"></stop>
		<stop class="stop1" offset="1" stop-color="rgb(28,41,38)" stop-opacity="1"></stop>
	</linearGradient>
	<linearGradient gradientUnits="userSpaceOnUse" id="Gradient2" x1="827.706" x2="818.858" y1="1079.18" y2="1105.17">
		<stop class="stop0" offset="0" stop-color="rgb(28,27,26)" stop-opacity="1"></stop>
		<stop class="stop1" offset="1" stop-color="rgb(25,40,36)" stop-opacity="1"></stop>
	</linearGradient>
</defs>

<path d="M 1061.46 591.375 C 1062.42 610.917 1061.94 633.802 1062.01 653.597 C 1080.09 642.085 1099.19 633.446 1120.02 628.145 C 1126.46 626.506 1143.02 623.653 1148.84 626.065 C 1179.49 604.839 1211.17 601.444 1244.94 619.342 C 1259.55 627.089 1266.07 635.552 1276.27 648.243 C 1292.4 675.687 1294 700.883 1282.07 730.459 C 1319.84 784.73 1337.19 863.804 1338.86 929.189 C 1396.49 960.146 1442.16 1011.02 1461.55 1074.62 C 1475.55 1120.51 1473.46 1175.16 1432.6 1206.62 C 1423.69 1213.48 1413.35 1219.68 1403.28 1225 C 1406.33 1247.44 1407.59 1262.55 1407.11 1285.36 C 1405.03 1329.91 1391.6 1364.21 1358.36 1394.71 C 1350.18 1402.22 1326.79 1419.15 1316.91 1422.43 C 1317.91 1438.65 1319.19 1452.3 1319.02 1468.6 C 1318.93 1490.76 1317.32 1512.88 1314.22 1534.83 C 1310.3 1556.08 1306.64 1578.1 1301.8 1599.12 C 1250.35 1620.2 1169.29 1619.66 1114.95 1608.82 L 1114.34 1608.42 C 1113.43 1609.61 1113.36 1610.46 1111.99 1610.45 C 1068.2 1610.32 1023.83 1612.8 980.155 1613.54 L 980.238 1608.85 C 910.582 1622.29 864.505 1618.1 797.002 1600.29 C 793.105 1584.89 787.173 1549.58 785.649 1534.44 C 782.443 1517.11 781.878 1481.03 781.686 1463.43 C 782.21 1450.6 783.135 1437.78 784.459 1425.01 C 783.071 1421.34 773.6 1417.41 769.703 1415.24 C 760.328 1410.07 751.506 1403.96 743.375 1397 C 709.25 1367.88 697.332 1331.13 693.908 1287.92 C 693.234 1265.69 694.025 1250.13 697.389 1228.18 C 629.509 1196.74 614.033 1148.62 632.433 1077.38 C 649.353 1011.87 694.741 962.345 752.281 928.732 C 753.721 872.902 766.372 817.932 789.482 767.09 C 794.902 755.222 802.514 739.815 810.394 729.657 C 797.612 698.421 800.33 675.383 817.77 646.929 C 848.109 606.487 894.984 601.302 938.121 624.236 C 949.856 621.168 970.155 624.116 982.496 625.073 C 986.286 625.367 990.876 626.857 994.485 627.175 C 1009.13 628.467 1024.43 638.996 1036.96 642.673 L 1037.1 595.137 C 1049.13 599.744 1049.79 602.75 1061.46 591.375 z" fill="rgb(29,144,109)" transform="translate(0,0)"></path>
<path d="M 1058.79 1217.78 C 1059.83 1217.76 1060.86 1217.75 1061.9 1217.74 C 1075.43 1218.56 1097.01 1217.88 1109.07 1222.21 C 1142.39 1234.16 1176.21 1241.47 1211.35 1245.67 C 1221.08 1246.83 1231.11 1247.81 1240.57 1249.52 C 1241.97 1251.79 1241.5 1254 1241.4 1256.78 C 1242.39 1255.07 1241.56 1253.06 1242.9 1249.58 C 1247.65 1248.8 1252.92 1248.86 1257.68 1249 C 1298.68 1250.16 1339.71 1245.73 1379.12 1234.15 C 1386.97 1231.84 1395.34 1227.85 1403.28 1225 C 1406.33 1247.44 1407.59 1262.55 1407.11 1285.36 C 1405.03 1329.91 1391.6 1364.21 1358.36 1394.71 C 1350.18 1402.22 1326.79 1419.15 1316.91 1422.43 C 1317.91 1438.65 1319.19 1452.3 1319.02 1468.6 C 1318.93 1490.76 1317.32 1512.88 1314.22 1534.83 C 1310.3 1556.08 1306.64 1578.1 1301.8 1599.12 C 1250.35 1620.2 1169.29 1619.66 1114.95 1608.82 L 1114.34 1608.42 C 1113.43 1609.61 1113.36 1610.46 1111.99 1610.45 C 1068.2 1610.32 1023.83 1612.8 980.155 1613.54 L 980.238 1608.85 C 910.582 1622.29 864.505 1618.1 797.002 1600.29 C 793.105 1584.89 787.173 1549.58 785.649 1534.44 C 782.443 1517.11 781.878 1481.03 781.686 1463.43 C 782.21 1450.6 783.135 1437.78 784.459 1425.01 C 783.071 1421.34 773.6 1417.41 769.703 1415.24 C 760.328 1410.07 751.506 1403.96 743.375 1397 C 709.25 1367.88 697.332 1331.13 693.908 1287.92 C 693.234 1265.69 694.025 1250.13 697.389 1228.18 C 746.892 1244.75 804.891 1253.26 856.993 1247.92 C 880.992 1244.16 900.98 1243.31 926.352 1238.22 C 937.605 1235.96 948.697 1232.97 959.558 1229.27 C 991.954 1218.56 989.074 1220.47 1023.73 1220.87 C 1032.33 1219.48 1042.47 1219.84 1052.38 1218.32 C 1054.87 1217.92 1056.29 1217.88 1058.79 1217.78 z" fill="rgb(29,144,109)" transform="translate(0,0)"></path>
<path d="M 1058.79 1217.78 C 1059.83 1217.76 1060.86 1217.75 1061.9 1217.74 C 1075.43 1218.56 1097.01 1217.88 1109.07 1222.21 C 1142.39 1234.16 1176.21 1241.47 1211.35 1245.67 C 1221.08 1246.83 1231.11 1247.81 1240.57 1249.52 C 1241.97 1251.79 1241.5 1254 1241.4 1256.78 C 1241 1264.05 1240.76 1270.9 1239.62 1278.11 C 1230.85 1341.04 1177.07 1393.23 1116.38 1407.71 C 1056.33 1422.04 984.833 1417.97 931.943 1383.89 C 894.691 1360.07 868.604 1322.25 859.572 1278.97 C 858.202 1268.48 857.131 1258.51 856.993 1247.92 C 880.992 1244.16 900.98 1243.31 926.352 1238.22 C 937.605 1235.96 948.697 1232.97 959.558 1229.27 C 991.954 1218.56 989.074 1220.47 1023.73 1220.87 C 1032.33 1219.48 1042.47 1219.84 1052.38 1218.32 C 1054.87 1217.92 1056.29 1217.88 1058.79 1217.78 z" fill="rgb(247,244,227)" transform="translate(0,0)"></path>
<path d="M 1058.79 1217.78 C 1059.83 1217.76 1060.86 1217.75 1061.9 1217.74 C 1062.13 1236.69 1062.24 1255.65 1062.21 1274.6 C 1062.27 1286.81 1067.1 1309 1049.5 1309.86 C 1032.13 1310.7 1036.78 1287.29 1036.81 1276.19 C 1036.93 1257.67 1036.92 1239.16 1036.8 1220.64 C 1031.68 1220.95 1028.91 1221.1 1023.73 1220.87 C 1032.33 1219.48 1042.47 1219.84 1052.38 1218.32 C 1054.87 1217.92 1056.29 1217.88 1058.79 1217.78 z" fill="rgb(120,193,175)" transform="translate(0,0)"></path>
<path d="M 784.459 1425.01 C 787.866 1423.63 791.253 1425.83 795.279 1427.53 C 857.497 1453.85 928.089 1464.19 995.141 1468.27 C 1015.15 1469.48 1036.21 1470.01 1056.28 1470 C 1071.25 1469.99 1086.64 1468.64 1101.62 1468.88 L 1106.98 1524.6 C 1107.38 1535.08 1108.81 1546.19 1109.95 1556.67 C 1111.07 1573.22 1112.38 1592.04 1114.34 1608.42 C 1113.43 1609.61 1113.36 1610.46 1111.99 1610.45 C 1068.2 1610.32 1023.83 1612.8 980.155 1613.54 L 980.238 1608.85 C 910.582 1622.29 864.505 1618.1 797.002 1600.29 C 793.105 1584.89 787.173 1549.58 785.649 1534.44 C 782.443 1517.11 781.878 1481.03 781.686 1463.43 C 782.21 1450.6 783.135 1437.78 784.459 1425.01 z" fill="rgb(29,144,109)" transform="translate(0,0)"></path>
<path d="M 995.141 1468.27 C 1015.15 1469.48 1036.21 1470.01 1056.28 1470 C 1071.25 1469.99 1086.64 1468.64 1101.62 1468.88 L 1106.98 1524.6 C 1107.38 1535.08 1108.81 1546.19 1109.95 1556.67 C 1111.07 1573.22 1112.38 1592.04 1114.34 1608.42 C 1113.43 1609.61 1113.36 1610.46 1111.99 1610.45 C 1068.2 1610.32 1023.83 1612.8 980.155 1613.54 L 980.238 1608.85 C 982.487 1604.25 985.249 1565.19 986.255 1556.87 C 987.584 1544.17 989.053 1531.49 990.664 1518.82 C 991.62 1502.67 993.657 1484.55 995.141 1468.27 z" fill="rgb(255,255,255)" transform="translate(0,0)"></path>
<path d="M 785.649 1534.44 C 833.228 1554.76 888.514 1561.45 939.897 1560.42 C 955.553 1560.11 970.817 1559.97 986.255 1556.87 C 985.249 1565.19 982.487 1604.25 980.238 1608.85 C 910.582 1622.29 864.505 1618.1 797.002 1600.29 C 793.105 1584.89 787.173 1549.58 785.649 1534.44 z" fill="rgb(233,127,46)" transform="translate(0,0)"></path>
<path d="M 784.459 1425.01 C 787.866 1423.63 791.253 1425.83 795.279 1427.53 C 857.497 1453.85 928.089 1464.19 995.141 1468.27 C 993.657 1484.55 991.62 1502.67 990.664 1518.82 C 985.925 1519.08 952.183 1509.75 946.011 1507.86 C 944.547 1513.53 938.832 1517 933.125 1515.68 C 927.419 1514.37 923.8 1508.74 924.966 1503.01 C 898.258 1492.76 850.248 1479.08 821.963 1473.43 C 813.186 1468.18 814.752 1467.86 804.267 1470.57 C 796.316 1469.09 789.465 1465.89 781.686 1463.43 C 782.21 1450.6 783.135 1437.78 784.459 1425.01 z" fill="rgb(20,62,48)" transform="translate(0,0)"></path>
<path d="M 924.966 1503.01 C 925.748 1499.16 928.556 1496.04 932.3 1494.86 C 936.045 1493.67 940.135 1494.62 942.984 1497.32 C 945.833 1500.02 946.992 1504.06 946.011 1507.86 C 944.547 1513.53 938.832 1517 933.125 1515.68 C 927.419 1514.37 923.8 1508.74 924.966 1503.01 z" fill="rgb(233,127,46)" transform="translate(0,0)"></path>
<path d="M 804.267 1470.57 C 814.752 1467.86 813.186 1468.18 821.963 1473.43 C 832.483 1504.3 788.845 1493.73 803.505 1471.78 L 804.267 1470.57 z" fill="rgb(233,127,46)" transform="translate(0,0)"></path>
<path d="M 864.242 1499.02 C 883.631 1500.84 887.032 1520.99 871.152 1530 C 851.66 1526.35 844.743 1506.59 864.242 1499.02 z" fill="rgb(233,127,46)" transform="translate(0,0)"></path>
<path d="M 921.193 1536.52 C 924.09 1535.33 927.418 1536.56 928.834 1539.36 C 930.25 1542.16 929.276 1545.57 926.599 1547.2 C 924.672 1548.37 922.251 1548.36 920.331 1547.18 C 918.411 1546 917.317 1543.84 917.499 1541.59 C 917.68 1539.34 919.108 1537.38 921.193 1536.52 z" fill="rgb(233,127,46)" transform="translate(0,0)"></path>
<path d="M 815.947 1512.86 C 818.769 1511.49 822.167 1512.65 823.553 1515.47 C 824.939 1518.28 823.792 1521.69 820.987 1523.09 C 818.158 1524.5 814.719 1523.34 813.322 1520.51 C 811.924 1517.67 813.102 1514.24 815.947 1512.86 z" fill="rgb(233,127,46)" transform="translate(0,0)"></path>
<path d="M 1101.62 1468.88 C 1106.16 1467.94 1119.17 1467.09 1124.31 1466.6 C 1138.44 1465.24 1152.55 1463.68 1166.64 1461.92 C 1228.54 1453.65 1260.43 1444.82 1316.91 1422.43 C 1317.91 1438.65 1319.19 1452.3 1319.02 1468.6 C 1318.93 1490.76 1317.32 1512.88 1314.22 1534.83 C 1310.3 1556.08 1306.64 1578.1 1301.8 1599.12 C 1250.35 1620.2 1169.29 1619.66 1114.95 1608.82 L 1114.34 1608.42 C 1112.38 1592.04 1111.07 1573.22 1109.95 1556.67 C 1108.81 1546.19 1107.38 1535.08 1106.98 1524.6 L 1101.62 1468.88 z" fill="rgb(29,144,109)" transform="translate(0,0)"></path>
<path d="M 1109.95 1556.67 C 1197.24 1563.11 1230.19 1560.03 1314.22 1534.83 C 1310.3 1556.08 1306.64 1578.1 1301.8 1599.12 C 1250.35 1620.2 1169.29 1619.66 1114.95 1608.82 L 1114.34 1608.42 C 1112.38 1592.04 1111.07 1573.22 1109.95 1556.67 z" fill="rgb(233,127,46)" transform="translate(0,0)"></path>
<path d="M 1101.62 1468.88 C 1106.16 1467.94 1119.17 1467.09 1124.31 1466.6 C 1138.44 1465.24 1152.55 1463.68 1166.64 1461.92 C 1228.54 1453.65 1260.43 1444.82 1316.91 1422.43 C 1317.91 1438.65 1319.19 1452.3 1319.02 1468.6 C 1310.39 1471.01 1302.46 1472.71 1293.72 1474.57 C 1291.36 1472.48 1288.24 1471.47 1285.1 1471.77 C 1281.97 1472.08 1279.1 1473.68 1277.19 1476.18 C 1270.55 1476.95 1253 1483.39 1245.37 1485.55 C 1228.33 1490.37 1211.1 1494.93 1193.92 1499.3 C 1190.54 1500.16 1176.49 1503.99 1174.07 1504.02 C 1174.2 1508.57 1171.39 1512.69 1167.1 1514.22 C 1162.81 1515.76 1158.03 1514.37 1155.23 1510.77 C 1139.9 1515.29 1122.33 1520.87 1106.98 1524.6 L 1101.62 1468.88 z" fill="rgb(20,62,48)" transform="translate(0,0)"></path>
<path d="M 1155.23 1510.77 C 1152.43 1507.17 1152.27 1502.16 1154.84 1498.39 C 1157.41 1494.61 1162.12 1492.92 1166.5 1494.2 C 1170.89 1495.49 1173.94 1499.45 1174.07 1504.02 C 1174.2 1508.57 1171.39 1512.69 1167.1 1514.22 C 1162.81 1515.76 1158.03 1514.37 1155.23 1510.77 z" fill="rgb(233,127,46)" transform="translate(0,0)"></path>
<path d="M 1277.19 1476.18 C 1279.1 1473.68 1281.97 1472.08 1285.1 1471.77 C 1288.24 1471.47 1291.36 1472.48 1293.72 1474.57 C 1298.34 1478.65 1298.86 1485.67 1294.88 1490.38 C 1290.91 1495.1 1283.91 1495.78 1279.1 1491.92 C 1274.3 1488.06 1273.45 1481.08 1277.19 1476.18 z" fill="rgb(233,127,46)" transform="translate(0,0)"></path>
<path d="M 1227.04 1498.97 C 1248.28 1497.23 1249.62 1518.04 1233.24 1529.5 C 1213.3 1533.35 1212.41 1510.21 1225.45 1500.22 L 1227.04 1498.97 z" fill="rgb(233,127,46)" transform="translate(0,0)"></path>
<path d="M 1173.99 1535.6 C 1177.51 1534.49 1181.26 1536.45 1182.35 1539.97 C 1183.45 1543.5 1181.46 1547.24 1177.93 1548.31 C 1174.43 1549.37 1170.73 1547.4 1169.65 1543.91 C 1168.57 1540.42 1170.51 1536.71 1173.99 1535.6 z" fill="rgb(233,127,46)" transform="translate(0,0)"></path>
<path d="M 1280.3 1512.71 C 1283.72 1512.25 1286.88 1514.59 1287.46 1517.99 C 1288.03 1521.39 1285.8 1524.64 1282.42 1525.33 C 1280.13 1525.79 1277.77 1524.97 1276.26 1523.18 C 1274.75 1521.4 1274.33 1518.93 1275.17 1516.75 C 1276.02 1514.57 1277.98 1513.02 1280.3 1512.71 z" fill="rgb(233,127,46)" transform="translate(0,0)"></path>
<path d="M 1241.4 1256.78 C 1242.39 1255.07 1241.56 1253.06 1242.9 1249.58 C 1247.65 1248.8 1252.92 1248.86 1257.68 1249 C 1298.68 1250.16 1339.71 1245.73 1379.12 1234.15 C 1386.97 1231.84 1395.34 1227.85 1403.28 1225 C 1406.33 1247.44 1407.59 1262.55 1407.11 1285.36 C 1381.71 1284.94 1356.86 1283.62 1331.51 1282.86 C 1331.22 1277.88 1327.09 1274.01 1322.1 1274.04 C 1317.12 1274.06 1313.03 1277.99 1312.8 1282.97 C 1297.1 1279.89 1257.86 1279.31 1239.62 1278.11 C 1240.76 1270.9 1241 1264.05 1241.4 1256.78 z" fill="rgb(20,62,48)" transform="translate(0,0)"></path>
<path d="M 697.389 1228.18 C 746.892 1244.75 804.891 1253.26 856.993 1247.92 C 857.131 1258.51 858.202 1268.48 859.572 1278.97 C 843.123 1280.94 821.626 1280 804.242 1281.08 C 797.768 1268.73 788.608 1270.81 783.51 1282.88 C 763.651 1283.19 745.829 1284.22 726.04 1285.66 C 717.16 1286.3 702.342 1287.88 693.908 1287.92 C 693.234 1265.69 694.025 1250.13 697.389 1228.18 z" fill="rgb(20,62,48)" transform="translate(0,0)"></path>
<path d="M 783.51 1282.88 C 788.608 1270.81 797.768 1268.73 804.242 1281.08 C 802.164 1301.79 786.458 1304.17 783.51 1282.88 z" fill="rgb(233,127,46)" transform="translate(0,0)"></path>
<path d="M 1312.8 1282.97 C 1313.03 1277.99 1317.12 1274.06 1322.1 1274.04 C 1327.09 1274.01 1331.22 1277.88 1331.51 1282.86 C 1331.71 1286.32 1329.99 1289.61 1327.03 1291.41 C 1324.07 1293.21 1320.36 1293.23 1317.38 1291.47 C 1314.4 1289.7 1312.63 1286.43 1312.8 1282.97 z" fill="rgb(233,127,46)" transform="translate(0,0)"></path>
<path d="M 801.946 1335 C 832.51 1333.37 844.313 1376.29 820.015 1390.04 C 790.628 1390.65 776.55 1350.15 801.946 1335 z" fill="rgb(233,127,46)" transform="translate(0,0)"></path>
<path d="M 1302.04 1334.21 C 1336.55 1330.26 1337.67 1369.02 1309.38 1381.74 L 1308.01 1382.03 C 1280.45 1388.16 1271.48 1347.58 1302.04 1334.21 z" fill="rgb(233,127,46)" transform="translate(0,0)"></path>
<path d="M 732.21 1292.11 C 741.663 1291.4 747.396 1292.94 752.831 1301.59 C 760.208 1313.33 763.782 1335.03 748.837 1342.54 L 747.269 1343.37 C 720.627 1342.66 709.25 1307.31 732.21 1292.11 z" fill="rgb(233,127,46)" transform="translate(0,0)"></path>
<path d="M 1366.45 1289.97 C 1390.63 1289.83 1390.98 1321.93 1367.86 1333.83 C 1365.36 1333.98 1361.96 1334.28 1359.53 1333.73 C 1355.94 1332.94 1352.82 1330.72 1350.91 1327.58 C 1348.2 1323.05 1348.12 1315.11 1349.4 1310.19 C 1352.18 1299.51 1357.57 1295.14 1366.45 1289.97 z" fill="rgb(233,127,46)" transform="translate(0,0)"></path>
<path d="M 1236.31 1361.91 C 1254.4 1361.84 1253.86 1381.17 1242.29 1389.27 L 1240.76 1390.37 C 1223.88 1390.16 1222.95 1371.61 1234.92 1362.96 L 1236.31 1361.91 z" fill="rgb(233,127,46)" transform="translate(0,0)"></path>
<path d="M 1271.12 1288.72 C 1286.17 1289.39 1289.97 1306.03 1276.94 1316.13 C 1259.71 1316.43 1259.43 1298.65 1269.8 1289.88 L 1271.12 1288.72 z" fill="rgb(233,127,46)" transform="translate(0,0)"></path>
<path d="M 836.378 1289.71 C 851.336 1293.31 852.973 1308.22 842.089 1318.72 C 828.158 1315.42 823.681 1299.67 834.959 1290.89 L 836.378 1289.71 z" fill="rgb(233,127,46)" transform="translate(0,0)"></path>
<path d="M 871.924 1366.86 C 887.874 1367.39 888.742 1380.47 878.258 1389.23 L 876.871 1390.41 C 861.635 1390.19 859.002 1375.68 871.924 1366.86 z" fill="rgb(233,127,46)" transform="translate(0,0)"></path>
<path d="M 817.77 646.929 C 848.109 606.487 894.984 601.302 938.121 624.236 C 949.856 621.168 970.155 624.116 982.496 625.073 C 986.286 625.367 990.876 626.857 994.485 627.175 C 1009.13 628.467 1024.43 638.996 1036.96 642.673 L 1037 663.67 C 1032.42 664.271 1030.88 663.92 1025.89 664.955 C 1029.4 664.891 1032.91 664.874 1036.42 664.906 C 1037.65 669.812 1037.05 685.31 1036.93 691.335 C 1036.87 694.422 1036.87 697.51 1036.93 700.597 L 1037.06 825.168 C 1037.01 828.032 1036.97 830.897 1036.96 833.762 L 1036.77 943.269 C 1036.78 961.624 1037.34 981.8 1036.86 999.884 C 1036.86 1009.7 1035.91 1047.14 1036.85 1054.35 C 1024.64 1053.38 1019.83 1057.24 1011.75 1066.18 C 1007.05 1083.64 1009.72 1094.37 1025.1 1105.07 C 996.823 1118.56 993.924 1141.42 1019.39 1160.36 C 985.406 1188.99 1017.76 1218.24 1052.38 1218.32 C 1042.47 1219.84 1032.33 1219.48 1023.73 1220.87 C 989.074 1220.47 991.954 1218.56 959.558 1229.27 C 948.697 1232.97 937.605 1235.96 926.352 1238.22 C 900.98 1243.31 880.992 1244.16 856.993 1247.92 C 804.891 1253.26 746.892 1244.75 697.389 1228.18 C 629.509 1196.74 614.033 1148.62 632.433 1077.38 C 649.353 1011.87 694.741 962.345 752.281 928.732 C 753.721 872.902 766.372 817.932 789.482 767.09 C 794.902 755.222 802.514 739.815 810.394 729.657 C 797.612 698.421 800.33 675.383 817.77 646.929 z" fill="rgb(29,144,109)" transform="translate(0,0)"></path>
<path d="M 1036.86 999.884 C 1036.86 1009.7 1035.91 1047.14 1036.85 1054.35 C 1024.64 1053.38 1019.83 1057.24 1011.75 1066.18 C 990.45 1073.29 965.443 1090.24 950.056 1106.55 C 929.403 1108.77 908.576 1108.49 889.772 1110.54 L 891.545 1103.68 C 921.59 1043.07 970.125 1009.23 1036.86 999.884 z" fill="rgb(247,244,227)" transform="translate(0,0)"></path>
<path d="M 938.121 624.236 C 949.856 621.168 970.155 624.116 982.496 625.073 C 986.286 625.367 990.876 626.857 994.485 627.175 C 1009.13 628.467 1024.43 638.996 1036.96 642.673 L 1037 663.67 C 1032.42 664.271 1030.88 663.92 1025.89 664.955 C 1009.89 665.402 990.622 671.24 975.394 675.877 C 967.467 651.319 959.035 639.64 938.121 624.236 z" fill="rgb(255,255,255)" transform="translate(0,0)"></path>
<path d="M 783.944 1086.93 C 784.102 1078.83 783.657 1071.61 787.182 1064.24 L 788.495 1064.15 C 792.345 1069.97 791.635 1082.67 791.661 1090 C 832.558 1103.09 850.934 1101.51 891.545 1103.68 L 889.772 1110.54 C 885.246 1111.36 870.007 1111.26 865.069 1111.09 C 832.181 1109.93 798.159 1103.58 768.9 1087.97 C 764.789 1085.77 756.005 1082.6 756.441 1077.7 L 758.504 1076.02 C 764.603 1075.27 776.916 1083.53 783.944 1086.93 z" fill="url(#Gradient2)" transform="translate(0,0)"></path>
<path d="M 1036.96 833.762 C 1003.33 829.69 972.514 823.884 944.878 802.225 C 941.872 799.869 930.887 793.12 937.467 788.876 C 942.04 785.926 945.38 791.537 948.564 793.897 C 965.44 807.01 989.081 816.722 1010.01 820.848 L 1015.01 821.848 C 1022.31 823.213 1029.65 824.61 1037.06 825.168 C 1037.01 828.032 1036.97 830.897 1036.96 833.762 z" fill="rgb(30,33,31)" transform="translate(0,0)"></path>
<path d="M 1036.93 700.597 C 1016.1 706.811 1006.71 718.443 991.002 731.835 C 989.207 733.366 982.73 728.656 985.725 725.399 C 998.897 711.077 1017.08 695.215 1036.93 691.335 C 1036.87 694.422 1036.87 697.51 1036.93 700.597 z" fill="rgb(30,33,31)" transform="translate(0,0)"></path>
<path d="M 845.725 798.38 C 878.111 795.433 915.269 810.887 922.046 845.806 C 924.465 858.221 921.742 871.086 914.5 881.455 C 902.402 898.963 883.444 906.266 863.431 909.989 C 842.652 911.271 821.733 907.968 804.756 895.182 C 781.7 877.817 775.687 846.164 794.502 823.289 C 807.71 807.231 825.649 800.739 845.725 798.38 z" fill="rgb(233,127,46)" transform="translate(0,0)"></path>
<path d="M 879.524 644.898 C 913.149 639.642 944.62 662.776 949.639 696.436 C 954.657 730.097 931.302 761.404 897.607 766.184 C 864.247 770.917 833.318 747.845 828.35 714.519 C 823.381 681.193 846.235 650.102 879.524 644.898 z" fill="rgb(255,255,255)" transform="translate(0,0)"></path>
<path d="M 884.23 680.146 C 898.393 676.874 912.505 685.781 915.645 699.973 C 918.786 714.166 909.748 728.195 895.528 731.203 C 881.492 734.173 867.685 725.279 864.586 711.271 C 861.486 697.264 870.252 683.375 884.23 680.146 z" fill="rgb(30,33,31)" transform="translate(0,0)"></path>
<path d="M 859.961 1018.96 C 866.701 1018.68 874.277 1019.11 877.066 1025.98 C 883.053 1040.73 876.109 1050.3 864.804 1056.78 C 840.197 1057.29 841.38 1029.03 859.961 1018.96 z" fill="rgb(233,127,46)" transform="translate(0,0)"></path>
<path d="M 885.561 619.156 C 895.183 618.499 896.498 628.708 885.989 629.855 C 872.219 631.358 859.535 638.218 849.244 647.323 C 846.346 648.175 841.776 646.898 842.142 644.496 C 844.255 630.661 874.411 621.548 885.561 619.156 z" fill="rgb(30,33,31)" transform="translate(0,0)"></path>
<path d="M 640.872 1072.65 C 660.512 1074.23 684.004 1081.47 698.857 1095.19 C 700.35 1096.57 700.263 1097.63 700.067 1099.5 L 699.888 1101.49 C 696.398 1102.43 695.5 1102.42 692.512 1100.01 C 682.195 1091.7 670.652 1086.49 658.009 1082.81 C 652.802 1081.3 647.788 1080.72 642.727 1079.36 C 641.919 1079.09 641.014 1073.29 640.872 1072.65 z" fill="rgb(255,255,255)" transform="translate(0,0)"></path>
<path d="M 661.618 1026.01 C 674.159 1027.09 687.764 1031.54 698.427 1038.16 C 704.845 1042.15 721.092 1049.72 715.875 1057.96 L 714.843 1059.65 C 710.691 1057.27 708.644 1053.78 704.681 1050.6 C 694.905 1042.74 683.822 1039 671.944 1035.51 C 668.751 1034.15 661.827 1033.5 659.561 1030.81 C 658.791 1029.89 661.147 1026.75 661.618 1026.01 z" fill="rgb(255,255,255)" transform="translate(0,0)"></path>
<path d="M 690.72 982.801 C 710.534 984.053 731.83 999.503 742.232 1016.02 C 743.471 1017.99 742.786 1019.89 742.179 1021.89 C 734.772 1021.51 736.08 1017.37 730.332 1011.64 C 722.065 1003.39 713.686 997.45 702.923 992.854 C 697.607 990.584 690.942 990.89 690.788 984.624 L 690.72 982.801 z" fill="rgb(255,255,255)" transform="translate(0,0)"></path>
<path d="M 908.21 997.712 C 924.202 997.824 924.654 1011.95 912.954 1021.29 C 897.452 1020.12 896.258 1006.62 908.21 997.712 z" fill="rgb(233,127,46)" transform="translate(0,0)"></path>
<path d="M 1061.46 591.375 C 1062.42 610.917 1061.94 633.802 1062.01 653.597 C 1061.99 657.299 1061.91 660.943 1062.07 664.642 C 1062.03 673.219 1061.73 683.199 1062.02 691.663 C 1062.04 695.141 1062.02 698.62 1061.96 702.098 C 1061.55 727.319 1061.34 752.542 1061.31 777.766 C 1061.26 791.059 1060.76 811.926 1061.65 824.869 C 1061.79 827.436 1061.89 830.006 1061.95 832.576 C 1061.95 862.751 1061.98 961.323 1061.88 997.547 C 1062.24 997.997 1062.61 998.446 1062.97 998.896 L 1064.73 999.389 L 1062.23 1000.39 C 1060.11 1005.68 1061.02 1050.22 1061.06 1058.95 C 1052.7 1057.07 1045.4 1055.31 1036.85 1054.35 C 1035.91 1047.14 1036.86 1009.7 1036.86 999.884 C 1037.34 981.8 1036.78 961.624 1036.77 943.269 L 1036.96 833.762 C 1036.97 830.897 1037.01 828.032 1037.06 825.168 L 1036.93 700.597 C 1036.87 697.51 1036.87 694.422 1036.93 691.335 C 1037.05 685.31 1037.65 669.812 1036.42 664.906 C 1032.91 664.874 1029.4 664.891 1025.89 664.955 C 1030.88 663.92 1032.42 664.271 1037 663.67 L 1036.96 642.673 L 1037.1 595.137 C 1049.13 599.744 1049.79 602.75 1061.46 591.375 z" fill="rgb(120,193,175)" transform="translate(0,0)"></path>
<path d="M 1064.73 999.389 C 1133.05 1009.31 1183.39 1040.29 1211.47 1105.22 L 1212.56 1108.95 C 1205.86 1111.2 1156.33 1105.68 1147.49 1104.82 C 1125.97 1083.16 1090.86 1065.48 1061.06 1058.95 C 1061.02 1050.22 1060.11 1005.68 1062.23 1000.39 L 1064.73 999.389 z" fill="rgb(247,244,227)" transform="translate(0,0)"></path>
<path d="M 1011.75 1066.18 C 1019.83 1057.24 1024.64 1053.38 1036.85 1054.35 C 1020.54 1064.42 1012.75 1070.77 1019.81 1088.6 C 1027.14 1107.12 1097.06 1109.67 1095.35 1121.31 C 1090.13 1125.35 1079.59 1121.8 1073.14 1118.77 C 1050.02 1107.89 993.456 1107.64 1015.58 1147.74 C 1023.61 1162.29 1087.73 1157.07 1091.13 1173.1 C 1083.64 1180.57 1016.37 1143.44 1013 1186.68 C 1011.16 1210.34 1057.83 1212.62 1058.79 1217.78 C 1056.29 1217.88 1054.87 1217.92 1052.38 1218.32 C 1017.76 1218.24 985.406 1188.99 1019.39 1160.36 C 993.924 1141.42 996.823 1118.56 1025.1 1105.07 C 1009.72 1094.37 1007.05 1083.64 1011.75 1066.18 z" fill="rgb(30,33,31)" transform="translate(0,0)"></path>
<path d="M 1062.01 653.597 C 1080.09 642.085 1099.19 633.446 1120.02 628.145 C 1126.46 626.506 1143.02 623.653 1148.84 626.065 C 1132.99 639.779 1122.29 653.459 1117.54 674.395 L 1117.2 675.818 L 1116.33 675.594 C 1096.84 670.418 1082.51 666.528 1062.07 664.642 C 1061.91 660.943 1061.99 657.299 1062.01 653.597 z" fill="rgb(255,255,255)" transform="translate(0,0)"></path>
<path d="M 1298.73 1089.15 C 1298.73 1083.77 1297.74 1070.07 1298.53 1066.27 C 1301.42 1064.1 1299.89 1064.55 1303.04 1064.29 C 1307.04 1068.82 1305.89 1079.8 1305.87 1086.56 C 1311.33 1084.14 1328.08 1075.84 1332.37 1075.45 L 1334.15 1076.59 C 1331.13 1097.1 1224.29 1118.8 1212.56 1108.95 L 1211.47 1105.22 C 1215.06 1102.61 1228.48 1103.09 1233.33 1102.68 C 1254.98 1100.87 1278.5 1097.32 1298.73 1089.15 z" fill="url(#Gradient1)" transform="translate(0,0)"></path>
<path d="M 1061.65 824.869 C 1068.68 823.221 1076.75 822.262 1083.99 820.918 C 1108.84 816.309 1134.05 805.948 1153.22 789.22 C 1154.01 788.515 1154.82 787.935 1155.81 787.555 C 1158.02 787.949 1161.02 790.88 1160.06 792.996 C 1156.98 799.795 1144.92 807.145 1138.41 810.882 C 1114.21 824.782 1089.5 830.717 1061.95 832.576 C 1061.89 830.006 1061.79 827.436 1061.65 824.869 z" fill="rgb(30,33,31)" transform="translate(0,0)"></path>
<path d="M 1062.02 691.663 C 1075.64 696.125 1102.49 714.696 1109.29 726.967 C 1109.72 727.743 1109.77 728.675 1109.41 729.488 C 1108.51 731.589 1105.03 733.78 1103.02 731.982 C 1090.72 720.936 1079.54 707.793 1063.05 702.462 L 1061.96 702.098 C 1062.02 698.62 1062.04 695.141 1062.02 691.663 z" fill="rgb(30,33,31)" transform="translate(0,0)"></path>
<path d="M 1194.32 645.114 C 1227.54 639.478 1259.07 661.711 1264.91 694.887 C 1270.76 728.064 1248.72 759.736 1215.59 765.79 C 1182.15 771.898 1150.13 749.623 1144.24 716.15 C 1138.34 682.678 1160.81 650.801 1194.32 645.114 z" fill="rgb(255,255,255)" transform="translate(0,0)"></path>
<path d="M 1205.54 679.236 C 1219.95 677.968 1232.69 688.565 1234.06 702.966 C 1235.43 717.367 1224.92 730.177 1210.53 731.652 C 1195.99 733.142 1183.02 722.506 1181.64 707.957 C 1180.25 693.409 1190.98 680.516 1205.54 679.236 z" fill="rgb(30,33,31)" transform="translate(0,0)"></path>
<path d="M 1233.62 800.334 C 1250.38 797.983 1271 803.19 1285.18 812.093 C 1319.94 833.91 1318.69 878.888 1283.07 899.308 C 1272.97 905.097 1266.17 906.857 1254.77 909.193 C 1162.89 920.387 1144.19 812.274 1233.62 800.334 z" fill="rgb(233,127,46)" transform="translate(0,0)"></path>
<path d="M 1228.98 1018.98 C 1250.72 1016.66 1259.67 1044.83 1240.04 1055.95 C 1232.59 1056.2 1226.32 1055.71 1222.29 1048.78 C 1214.91 1036.1 1217.73 1026.28 1228.98 1018.98 z" fill="rgb(233,127,46)" transform="translate(0,0)"></path>
<path d="M 1198.92 618.813 C 1210.95 620.072 1255.17 629.864 1246.18 648.25 C 1242.22 647.992 1240.64 648.417 1237.86 645.133 C 1230.39 636.192 1218.77 632.469 1207.97 629.299 C 1199.25 626.737 1196.24 628.217 1198.92 618.813 z" fill="rgb(30,33,31)" transform="translate(0,0)"></path>
<path d="M 1429.61 1026.19 C 1433.66 1026.73 1435.54 1031.34 1431.41 1032.6 C 1426.4 1034.13 1421.2 1035.9 1416.22 1037.4 C 1401.05 1041.96 1392.26 1048.87 1381.02 1059.47 C 1378.37 1058.98 1373.8 1057.6 1376.5 1053.98 C 1387.64 1039.08 1411.85 1029.48 1429.61 1026.19 z" fill="rgb(255,255,255)" transform="translate(0,0)"></path>
<path d="M 1447.7 1074.28 C 1453.63 1073.52 1456.06 1079.96 1448.55 1081.25 C 1429.35 1084.57 1415.54 1091.34 1399.55 1101.96 C 1394.83 1104.07 1393.72 1097.85 1395.58 1096.23 C 1409.43 1084.17 1429.84 1077.16 1447.7 1074.28 z" fill="rgb(255,255,255)" transform="translate(0,0)"></path>
<path d="M 1399.59 983.937 C 1407.72 985.069 1400.4 990.816 1395.63 992.403 C 1379.92 997.619 1367.18 1009.08 1356.82 1021.75 C 1354.33 1020.82 1350.26 1019.22 1352.63 1015.77 C 1365.06 997.688 1379.84 990.793 1399.59 983.937 z" fill="rgb(255,255,255)" transform="translate(0,0)"></path>
<path d="M 1186.27 997.679 C 1199.23 999.56 1203.38 1015.09 1188.85 1021.28 C 1173.03 1017.79 1173.01 1005.32 1186.27 997.679 z" fill="rgb(233,127,46)" transform="translate(0,0)"></path>
<path d="M 1114.95 1608.82 C 1169.29 1619.66 1250.35 1620.2 1301.8 1599.12 C 1299.99 1608.63 1297.89 1618.08 1295.5 1627.47 C 1315.51 1631.23 1346.82 1636.94 1365.62 1643.24 C 1366.88 1633.49 1368.01 1624.06 1376.16 1617.33 C 1381.65 1612.79 1389.38 1613.5 1392.09 1620.71 C 1395.99 1631.05 1388.87 1640.31 1383.61 1648.43 C 1426.68 1663.61 1472.24 1689.57 1510.04 1714.81 C 1515.52 1711.06 1519.88 1708.12 1525.82 1705.23 C 1557.18 1690.03 1595.08 1704.32 1610.36 1735.33 C 1666.91 1736.53 1845.02 1750.01 1883.63 1789.5 C 1887.32 1793.27 1890.17 1798.16 1889.96 1803.59 C 1889.7 1809.9 1885.9 1815.05 1881.24 1819.01 C 1864.71 1833.02 1837.54 1840.61 1816.84 1845.35 C 1756.39 1859.19 1692.22 1861.63 1630.48 1865.48 C 1590.09 1867.99 1547.82 1872.51 1507.46 1868.33 C 1503.2 1867.89 1496.45 1867.22 1493.47 1863.86 C 1493.62 1855.95 1517.33 1850.49 1523.86 1848.49 C 1520.86 1846.9 1519.34 1847.08 1515.9 1846.64 C 1503.71 1848.21 1456.22 1852.88 1453.77 1866.37 C 1456.99 1877.88 1488.15 1882.17 1499.19 1884.79 C 1512.68 1887.84 1541.54 1893.13 1549.76 1905.44 C 1551.31 1907.72 1551.88 1910.53 1551.33 1913.24 C 1547.14 1934.09 1474.45 1946.46 1455.63 1949.75 C 1343.8 1969.28 1229.3 1972.69 1116 1972.07 C 1074.95 1971.81 1031.9 1972.64 991.455 1965.3 C 986.157 1964.33 980.838 1960.42 980.758 1954.67 C 989.75 1940.67 1043.38 1947.72 1056.28 1931.73 C 1056.83 1929.14 1057.15 1927.99 1055.63 1925.56 C 1048.24 1913.7 1001.29 1909.86 986.674 1908.47 C 967.044 1906.59 865.842 1901.33 854.202 1910.79 C 853.954 1910.99 853.764 1911.25 853.544 1911.49 C 854.575 1913.09 854.613 1913.62 857.608 1913.92 C 868.484 1915 883.564 1914.3 894.084 1914.3 C 915.419 1914.29 994.117 1915.22 1010.78 1925.16 L 1011.91 1927.34 C 1010.99 1929.73 1010.23 1930.53 1007.87 1931.65 C 983.826 1943.02 731.813 1937.85 703.865 1925.25 C 701.336 1924.11 700.19 1923.24 698.87 1920.83 C 700.987 1915.46 706.752 1914.87 712.003 1913.34 C 708.376 1910.95 706.946 1911.99 702.45 1911.8 C 693.777 1912.65 681.961 1914.88 676.239 1921.81 C 675.939 1923.51 675.44 1924.23 676.324 1925.85 C 689.757 1950.43 871.791 1939.49 906.628 1951.73 C 910.137 1952.96 913.833 1954.82 915.536 1958.28 L 914.762 1960.21 C 910.156 1963.63 906.018 1966.17 900.378 1967.55 C 841.773 1981.84 586.211 1962.35 537.79 1931.74 C 533.627 1929.11 527.959 1925.14 527.367 1919.76 C 527.065 1917.01 528.25 1914.6 529.866 1912.49 C 545.905 1891.52 609.659 1887.13 635.665 1883.94 C 641.264 1882.38 655.899 1878.5 659.569 1875.38 C 684.46 1854.21 622.165 1846.6 612.535 1845.9 C 608.527 1846.23 605.928 1845.87 602.224 1847.4 C 611.873 1849.78 638.932 1854.29 639.884 1866.5 C 639.466 1867.84 639.059 1868.98 638.055 1870.02 C 626.025 1882.47 578.061 1882 560.611 1881.98 C 482.722 1881.92 224.015 1870.1 174.284 1817.7 C 170.765 1814 168.024 1809.24 168.391 1803.98 C 168.812 1797.95 172.939 1792.97 177.357 1789.2 C 218.703 1753.95 333.957 1742.89 387.052 1737.57 C 405.195 1735.74 425.645 1731.98 443.81 1733.47 C 464.791 1725.43 486.126 1714.51 508.4 1705.93 C 513.23 1698.81 516.254 1691.63 521.723 1684.29 C 527.994 1674.47 562.772 1626.38 570.298 1620.48 L 571.953 1619.91 C 599.414 1609.79 628.808 1615.33 653.595 1629.26 C 659.111 1637.86 668.931 1657.22 673.387 1666.73 C 709.841 1651.73 766.123 1641.72 805.426 1633.6 C 802.279 1622.59 799.469 1611.48 797.002 1600.29 C 864.505 1618.1 910.582 1622.29 980.238 1608.85 L 980.155 1613.54 C 1023.83 1612.8 1068.2 1610.32 1111.99 1610.45 C 1113.36 1610.46 1113.43 1609.61 1114.34 1608.42 L 1114.95 1608.82 z" fill="rgb(237,183,103)" transform="translate(0,0)"></path>
<path d="M 1190.85 1891.43 C 1196.34 1879.18 1200.41 1880.03 1205.5 1891.08 C 1237.37 1891.55 1271.98 1891.4 1302.81 1883.29 C 1312.04 1884.64 1322.15 1884.09 1331.51 1884.34 C 1349.88 1884.82 1369.05 1884.17 1387.34 1884.76 C 1386.53 1904.91 1398.25 1905.78 1397.69 1885.79 C 1405.09 1882.24 1482.99 1887.01 1499.19 1884.79 C 1512.68 1887.84 1541.54 1893.13 1549.76 1905.44 C 1551.31 1907.72 1551.88 1910.53 1551.33 1913.24 C 1547.14 1934.09 1474.45 1946.46 1455.63 1949.75 C 1343.8 1969.28 1229.3 1972.69 1116 1972.07 C 1074.95 1971.81 1031.9 1972.64 991.455 1965.3 C 986.157 1964.33 980.838 1960.42 980.758 1954.67 C 989.75 1940.67 1043.38 1947.72 1056.28 1931.73 C 1056.83 1929.14 1057.15 1927.99 1055.63 1925.56 C 1048.24 1913.7 1001.29 1909.86 986.674 1908.47 C 967.044 1906.59 865.842 1901.33 854.202 1910.79 C 853.954 1910.99 853.764 1911.25 853.544 1911.49 C 854.575 1913.09 854.613 1913.62 857.608 1913.92 C 868.484 1915 883.564 1914.3 894.084 1914.3 C 915.419 1914.29 994.117 1915.22 1010.78 1925.16 L 1011.91 1927.34 C 1010.99 1929.73 1010.23 1930.53 1007.87 1931.65 C 983.826 1943.02 731.813 1937.85 703.865 1925.25 C 701.336 1924.11 700.19 1923.24 698.87 1920.83 C 700.987 1915.46 706.752 1914.87 712.003 1913.34 C 708.376 1910.95 706.946 1911.99 702.45 1911.8 C 693.777 1912.65 681.961 1914.88 676.239 1921.81 C 675.939 1923.51 675.44 1924.23 676.324 1925.85 C 689.757 1950.43 871.791 1939.49 906.628 1951.73 C 910.137 1952.96 913.833 1954.82 915.536 1958.28 L 914.762 1960.21 C 910.156 1963.63 906.018 1966.17 900.378 1967.55 C 841.773 1981.84 586.211 1962.35 537.79 1931.74 C 533.627 1929.11 527.959 1925.14 527.367 1919.76 C 527.065 1917.01 528.25 1914.6 529.866 1912.49 C 545.905 1891.52 609.659 1887.13 635.665 1883.94 C 644.519 1886.07 729.524 1885.08 742.379 1883.73 C 781.336 1891.07 849.507 1888.55 890.599 1889.8 C 990.862 1892.87 1090.55 1893.07 1190.85 1891.43 z" fill="rgb(120,193,175)" transform="translate(0,0)"></path>
<path d="M 1190.85 1891.43 C 1196.34 1879.18 1200.41 1880.03 1205.5 1891.08 C 1206.46 1898.13 1207.84 1902.97 1206.93 1910.51 C 1205.67 1920.93 1196.71 1927.14 1190.23 1916.39 C 1186.02 1909.41 1188.5 1898.95 1190.85 1891.43 z" fill="rgb(255,255,255)" transform="translate(0,0)"></path>
<path d="M 702.45 1911.8 C 708.365 1910.66 719.128 1910.29 725.189 1910.44 C 719.991 1911.71 717.374 1912.72 712.003 1913.34 C 708.376 1910.95 706.946 1911.99 702.45 1911.8 z" fill="rgb(229,243,237)" transform="translate(0,0)"></path>
<path d="M 1242.71 1912.54 C 1249.78 1913.12 1267.94 1913.76 1268.83 1922.57 C 1257.72 1942.59 1157.08 1941.12 1149.82 1928.44 C 1151.72 1925.27 1154.55 1925.2 1158.05 1924.65 L 1157.92 1927.94 L 1157.67 1928.46 C 1166.22 1937.05 1250.48 1934.26 1252.7 1920.61 C 1250.19 1917.15 1244.53 1915.77 1240.44 1914.47 L 1242.71 1912.54 z" fill="rgb(255,255,255)" transform="translate(0,0)"></path>
<path d="M 1389.54 1923.42 C 1394.39 1922.72 1402.11 1923.45 1407.16 1923.78 C 1390.81 1932.15 1362.27 1931.12 1343.85 1930.79 C 1337.88 1930.49 1331.92 1929.98 1325.99 1929.26 C 1346.31 1926.84 1368.71 1925.52 1389.54 1923.42 z" fill="rgb(255,255,255)" transform="translate(0,0)"></path>
<path d="M 1459.9 1909.22 C 1468.42 1912.18 1466.83 1928.37 1464.5 1934.62 C 1455.32 1933.49 1459.14 1929.28 1457.84 1920.49 C 1457.23 1916.37 1458.52 1913 1459.9 1909.22 z" fill="rgb(255,255,255)" transform="translate(0,0)"></path>
<path d="M 1135.87 1942.19 L 1137.68 1942.6 C 1145.16 1944.25 1142.59 1953.54 1141.65 1959.69 C 1130.42 1959.05 1133.86 1952.42 1135.87 1942.19 z" fill="rgb(255,255,255)" transform="translate(0,0)"></path>
<path d="M 1240.44 1914.47 C 1239.48 1914.28 1235.71 1914.08 1235.49 1912.68 C 1236.68 1911.3 1241.08 1912.03 1242.71 1912.54 L 1240.44 1914.47 z" fill="rgb(229,243,237)" transform="translate(0,0)"></path>
<path d="M 1158.05 1924.65 C 1159.41 1924.33 1160.73 1924 1162.11 1923.83 L 1162.84 1924.98 L 1163.23 1923.95 C 1164.96 1925.72 1159.33 1927.21 1157.92 1927.94 L 1158.05 1924.65 z" fill="rgb(229,243,237)" transform="translate(0,0)"></path>
<path d="M 602.224 1847.4 C 611.873 1849.78 638.932 1854.29 639.884 1866.5 C 639.466 1867.84 639.059 1868.98 638.055 1870.02 C 626.025 1882.47 578.061 1882 560.611 1881.98 C 482.722 1881.92 224.015 1870.1 174.284 1817.7 C 170.765 1814 168.024 1809.24 168.391 1803.98 C 168.812 1797.95 172.939 1792.97 177.357 1789.2 C 218.703 1753.95 333.957 1742.89 387.052 1737.57 C 405.195 1735.74 425.645 1731.98 443.81 1733.47 C 423.045 1744.74 379.22 1766.66 367.924 1789.4 C 361.515 1802.3 393.23 1810.34 401.18 1811.08 C 478.804 1824.13 558.775 1820.78 637.061 1826.89 C 672.531 1829.65 715.933 1830.21 748.101 1845.2 C 731.831 1855.94 712.484 1873.35 742.379 1883.73 C 729.524 1885.08 644.519 1886.07 635.665 1883.94 C 641.264 1882.38 655.899 1878.5 659.569 1875.38 C 684.46 1854.21 622.165 1846.6 612.535 1845.9 C 608.527 1846.23 605.928 1845.87 602.224 1847.4 z" fill="rgb(196,216,192)" transform="translate(0,0)"></path>
<path d="M 602.224 1847.4 C 600.959 1847.2 597.455 1847.03 596.746 1845.61 C 597.621 1843.92 610.271 1845.47 612.535 1845.9 C 608.527 1846.23 605.928 1845.87 602.224 1847.4 z" fill="rgb(229,243,237)" transform="translate(0,0)"></path>
<path d="M 446.094 1849.42 C 458.772 1848.05 492.507 1849.36 504.914 1855.33 C 505.098 1855.28 506.39 1856.42 506.253 1856.69 C 503.317 1862.51 478.997 1864.34 475.246 1864.81 C 470.213 1865.02 389.119 1865.17 420.997 1852.05 C 423.064 1851.2 442.22 1849.81 446.094 1849.42 z" fill="rgb(255,255,255)" transform="translate(0,0)"></path>
<path d="M 316.116 1788.21 C 318.303 1787.91 326.05 1787.04 320.116 1790.44 C 314.358 1791.85 309.388 1793.96 305.699 1798.65 C 302.317 1816.58 400.905 1825.92 415.867 1827 L 416.416 1827.87 C 408.874 1831.67 324.015 1821.85 309.241 1817.62 C 272.818 1807.19 285.064 1794.29 316.116 1788.21 z" fill="rgb(255,255,255)" transform="translate(0,0)"></path>
<path d="M 316.116 1788.21 C 318.303 1787.91 326.05 1787.04 320.116 1790.44 C 318.724 1789.7 317.428 1789.08 316.116 1788.21 z" fill="rgb(229,243,237)" transform="translate(0,0)"></path>
<path d="M 1610.36 1735.33 C 1666.91 1736.53 1845.02 1750.01 1883.63 1789.5 C 1887.32 1793.27 1890.17 1798.16 1889.96 1803.59 C 1889.7 1809.9 1885.9 1815.05 1881.24 1819.01 C 1864.71 1833.02 1837.54 1840.61 1816.84 1845.35 C 1756.39 1859.19 1692.22 1861.63 1630.48 1865.48 C 1590.09 1867.99 1547.82 1872.51 1507.46 1868.33 C 1503.2 1867.89 1496.45 1867.22 1493.47 1863.86 C 1493.62 1855.95 1517.33 1850.49 1523.86 1848.49 C 1520.86 1846.9 1519.34 1847.08 1515.9 1846.64 C 1503.71 1848.21 1456.22 1852.88 1453.77 1866.37 C 1456.99 1877.88 1488.15 1882.17 1499.19 1884.79 C 1482.99 1887.01 1405.09 1882.24 1397.69 1885.79 C 1398.25 1905.78 1386.53 1904.91 1387.34 1884.76 C 1369.05 1884.17 1349.88 1884.82 1331.51 1884.34 C 1322.15 1884.09 1312.04 1884.64 1302.81 1883.29 C 1327.28 1869.76 1309.29 1861.62 1315.95 1850.39 C 1331.18 1824.73 1636.57 1827.17 1688.21 1806.82 C 1693.42 1804.76 1701.27 1800.92 1703.41 1795.32 C 1704.33 1792.92 1702.89 1790.36 1701.82 1788.22 C 1691.14 1766.78 1659.14 1752.53 1637.36 1746.44 C 1630.16 1744.42 1620.74 1743.57 1614.16 1740.39 C 1611.47 1739.1 1611.38 1737.95 1610.36 1735.33 z" fill="rgb(196,216,192)" transform="translate(0,0)"></path>
<path d="M 1387.34 1884.76 C 1388.61 1879.96 1386.47 1866.2 1393.53 1866.54 C 1397.81 1866.75 1397.2 1883.18 1397.69 1885.79 C 1398.25 1905.78 1386.53 1904.91 1387.34 1884.76 z" fill="rgb(255,255,255)" transform="translate(0,0)"></path>
<path d="M 1515.9 1846.64 C 1518.22 1846.33 1527.35 1845.22 1529.13 1846.53 C 1528.7 1847.64 1524.87 1848.24 1523.86 1848.49 C 1520.86 1846.9 1519.34 1847.08 1515.9 1846.64 z" fill="rgb(229,243,237)" transform="translate(0,0)"></path>
<path d="M 1775.27 1783.86 C 1787.94 1785.08 1820.53 1794.42 1796.29 1808.52 C 1791.08 1810.32 1786.95 1811.56 1781.67 1813.17 C 1792.19 1797.4 1790.25 1796.16 1776.08 1784.52 L 1775.27 1783.86 z" fill="rgb(255,255,255)" transform="translate(0,0)"></path>
<path d="M 1744.76 1797.8 C 1757.94 1810.75 1733.68 1812.82 1726.15 1814.11 C 1725.41 1814.06 1723.53 1814.22 1722.96 1813.45 C 1723.21 1812.73 1723.88 1812.37 1724.55 1812.05 C 1734.63 1807.21 1737.14 1805.45 1744.76 1797.8 z" fill="rgb(255,255,255)" transform="translate(0,0)"></path>
<path d="M 1114.95 1608.82 C 1169.29 1619.66 1250.35 1620.2 1301.8 1599.12 C 1299.99 1608.63 1297.89 1618.08 1295.5 1627.47 C 1291.62 1641.47 1287.25 1657.29 1282.52 1671.02 C 1303.28 1679.14 1324.18 1686.89 1345.22 1694.26 C 1352.03 1696.7 1359.01 1699.06 1365.72 1701.63 C 1379.7 1706.99 1394.17 1710.33 1400.01 1725.88 C 1405.32 1740.04 1400.54 1755.02 1386.17 1761.12 C 1379.35 1763.87 1373.58 1762.52 1366.48 1761.56 C 1362.78 1791.03 1330.27 1799.87 1309.74 1780.68 C 1304.86 1798.53 1289.58 1817.83 1269.24 1809.03 C 1234.34 1793.92 1203.44 1754.73 1170.79 1735.65 C 1156.1 1723.78 1139.49 1711.62 1124.37 1700.12 C 1121.52 1686.16 1120.43 1664.24 1118.47 1649.34 C 1117.23 1636.55 1115.44 1621.45 1114.95 1608.82 z" fill="rgb(29,144,109)" transform="translate(0,0)"></path>
<path d="M 1297.45 1701.38 C 1309.92 1703.65 1328.67 1714.17 1341.41 1718.21 C 1354.19 1722.25 1372.64 1741.47 1365.47 1755.76 C 1360.35 1754.32 1358.1 1746.55 1357.63 1742.24 C 1355.17 1719.15 1291 1718.57 1296.83 1703.08 L 1297.45 1701.38 z" fill="rgb(30,33,31)" transform="translate(0,0)"></path>
<path d="M 1252.25 1715.3 C 1257.34 1716.88 1262.73 1720.51 1267.39 1723.21 C 1286.13 1734.09 1311.21 1743.35 1312.95 1768.51 C 1313.24 1772.73 1312.44 1773.41 1309.7 1776.32 C 1304.66 1774.62 1306.32 1772.2 1305.17 1766.97 C 1299.65 1741.95 1266.23 1735.58 1249.1 1720.53 C 1248.52 1720.02 1252.14 1715.45 1252.25 1715.3 z" fill="rgb(30,33,31)" transform="translate(0,0)"></path>
<path d="M 797.002 1600.29 C 864.505 1618.1 910.582 1622.29 980.238 1608.85 L 980.155 1613.54 C 978.461 1628.12 976.929 1642.71 975.556 1657.33 C 973.589 1669.63 972.525 1685.78 971.587 1698.3 C 962.433 1705.23 928.058 1730.3 921.705 1736.59 C 883.861 1753.85 813.668 1860.13 784.171 1781.41 C 756.618 1797.87 735.208 1794.5 725.988 1761.31 C 692.7 1765.83 682.251 1727.11 709.032 1711.79 C 721.722 1704.54 736.88 1699.76 750.687 1694.76 L 815.361 1671.67 C 811.941 1659.01 808.629 1646.32 805.426 1633.6 C 802.279 1622.59 799.469 1611.48 797.002 1600.29 z" fill="rgb(29,144,109)" transform="translate(0,0)"></path>
<path d="M 797.092 1701.03 C 798.898 1702.6 801.134 1707.62 799.58 1708.31 C 783.858 1715.36 763.983 1719.78 748.295 1727.37 C 731.676 1735.4 735.452 1746.74 729.802 1755.82 L 728.759 1757.49 C 722.518 1753.99 726.274 1742.1 728.635 1737.38 C 738.622 1717.38 776.97 1708.41 797.092 1701.03 z" fill="rgb(30,33,31)" transform="translate(0,0)"></path>
<path d="M 840.085 1715.74 C 840.882 1716.09 844.97 1717.99 844.101 1720.5 C 842.681 1724.61 837.47 1726.44 833.488 1728.9 C 817.438 1738.77 790.302 1746.52 788.025 1768.5 C 787.827 1770.41 788.074 1772.2 787.041 1773.91 L 786.215 1775.26 C 778.654 1772.84 779.405 1772.33 781.339 1763.57 C 786.585 1739.81 820.824 1727.09 840.085 1715.74 z" fill="rgb(30,33,31)" transform="translate(0,0)"></path>
<path d="M 1114.34 1608.42 L 1114.95 1608.82 C 1115.44 1621.45 1117.23 1636.55 1118.47 1649.34 C 1120.43 1664.24 1121.52 1686.16 1124.37 1700.12 C 1139.49 1711.62 1156.1 1723.78 1170.79 1735.65 C 1155.23 1733.92 1137.89 1728 1122.09 1725.05 C 1081.05 1717.8 1039.21 1716.26 997.753 1720.45 C 976.88 1722.43 956.125 1727.78 936.1 1733.74 C 930.898 1735.28 927.195 1736.86 921.705 1736.59 C 928.058 1730.3 962.433 1705.23 971.587 1698.3 C 972.525 1685.78 973.589 1669.63 975.556 1657.33 C 976.929 1642.71 978.461 1628.12 980.155 1613.54 C 1023.83 1612.8 1068.2 1610.32 1111.99 1610.45 C 1113.36 1610.46 1113.43 1609.61 1114.34 1608.42 z" fill="rgb(194,146,83)" transform="translate(0,0)"></path>
<path d="M 1114.34 1608.42 L 1114.95 1608.82 C 1115.44 1621.45 1117.23 1636.55 1118.47 1649.34 L 1117.94 1652.36 C 1114.49 1653.47 1101.58 1653.26 1097.4 1653.05 C 1056.75 1651.01 1015.88 1656.89 975.556 1657.33 C 976.929 1642.71 978.461 1628.12 980.155 1613.54 C 1023.83 1612.8 1068.2 1610.32 1111.99 1610.45 C 1113.36 1610.46 1113.43 1609.61 1114.34 1608.42 z" fill="rgb(237,183,103)" transform="translate(0,0)"></path>
<path d="M 1030.11 1672.54 C 1031.57 1672.72 1035.15 1672.68 1036.07 1673.98 C 1040.63 1680.39 1044.28 1690.77 1044.02 1698.51 C 1042.28 1698.31 1038.81 1698.35 1037.82 1697.19 C 1033.35 1691.96 1030.1 1679.1 1030.11 1672.54 z" fill="rgb(237,183,103)" transform="translate(0,0)"></path>
<path d="M 1057.33 1667.39 C 1066.53 1670.43 1057.43 1680.66 1057.16 1688.04 C 1057.08 1690.46 1055.05 1696.38 1053.94 1698.7 C 1045.61 1694.19 1052.75 1673.65 1057.33 1667.39 z" fill="rgb(237,183,103)" transform="translate(0,0)"></path>
<path d="M 1073.74 1684.83 C 1078.9 1690.45 1073.46 1697.2 1067.86 1700.06 C 1063.53 1694.83 1069.89 1689.07 1073.74 1684.83 z" fill="rgb(237,183,103)" transform="translate(0,0)"></path>
<path d="M 570.298 1620.48 L 571.953 1619.91 C 599.414 1609.79 628.808 1615.33 653.595 1629.26 C 645.99 1633.47 630.387 1640.08 622.064 1643.46 C 619.187 1650.23 615.216 1668.1 613.772 1675.49 L 611.865 1684.99 C 611.223 1687.83 610.676 1690.68 609.85 1693.48 C 601.831 1695.44 585.12 1705.66 576.323 1709.72 C 562.075 1702.52 536.472 1687.7 521.723 1684.29 C 527.994 1674.47 562.772 1626.38 570.298 1620.48 z" fill="rgb(237,183,103)" transform="translate(0,0)"></path>
<path d="M 570.298 1620.48 L 571.953 1619.91 C 599.414 1609.79 628.808 1615.33 653.595 1629.26 C 645.99 1633.47 630.387 1640.08 622.064 1643.46 C 603.174 1636.33 588.299 1627.87 570.298 1620.48 z" fill="rgb(249,210,140)" transform="translate(0,0)"></path>
<path d="M 622.064 1643.46 C 630.387 1640.08 645.99 1633.47 653.595 1629.26 C 659.111 1637.86 668.931 1657.22 673.387 1666.73 C 679.698 1684.39 703.312 1714.52 665.002 1715.22 C 644.945 1715.58 624.688 1714.93 604.609 1715.04 C 605.453 1712.56 606.184 1710.04 606.8 1707.48 C 607.907 1702.81 608.82 1698.15 609.85 1693.48 C 610.676 1690.68 611.223 1687.83 611.865 1684.99 L 613.772 1675.49 C 615.216 1668.1 619.187 1650.23 622.064 1643.46 z" fill="rgb(194,146,83)" transform="translate(0,0)"></path>
<path d="M 521.723 1684.29 C 536.472 1687.7 562.075 1702.52 576.323 1709.72 C 585.12 1705.66 601.831 1695.44 609.85 1693.48 C 608.82 1698.15 607.907 1702.81 606.8 1707.48 C 606.184 1710.04 605.453 1712.56 604.609 1715.04 C 578.789 1715.52 541.625 1715.97 515.041 1713.87 C 512.604 1713.68 510.183 1710.16 509.195 1707.77 L 508.4 1705.93 C 513.23 1698.81 516.254 1691.63 521.723 1684.29 z" fill="rgb(206,159,122)" transform="translate(0,0)"></path>
<path d="M 1493.48 1766.16 C 1502.05 1765.4 1511.98 1765.49 1518.66 1771.38 C 1534.28 1785.16 1522.49 1789.82 1509.24 1791.76 C 1503.48 1792.16 1488.07 1792.48 1483.5 1790 C 1466.11 1780.58 1483.76 1769.24 1493.48 1766.16 z" fill="rgb(194,146,83)" transform="translate(0,0)"></path>
<path d="M 466.941 1770.17 C 489.717 1770.12 504.019 1790.88 475.679 1792.12 C 469.085 1792.06 450.923 1793.29 448.967 1785.51 C 446.671 1776.38 460.598 1771.47 466.941 1770.17 z" fill="rgb(194,146,83)" transform="translate(0,0)"></path>
<path d="M 1103.5 1780.71 C 1122.05 1782.67 1104.77 1812.53 1097.23 1818.77 C 1078.83 1812.89 1092.39 1789.16 1102 1781.89 L 1103.5 1780.71 z" fill="rgb(249,210,140)" transform="translate(0,0)"></path>
<path d="M 755.68 1653.12 C 765.963 1652.22 771.787 1653.73 770.937 1667.5 C 770.622 1672.62 765.541 1677.46 761.222 1680.21 C 739.635 1684.92 744.394 1662.23 755.68 1653.12 z" fill="rgb(194,146,83)" transform="translate(0,0)"></path>
<path d="M 535.944 1755.04 C 553.816 1753.83 566.283 1768.9 545.852 1774.06 C 528.598 1773.53 512.839 1767.66 535.944 1755.04 z" fill="rgb(194,146,83)" transform="translate(0,0)"></path>
<path d="M 1123.22 1798.99 C 1127.45 1798.81 1130.81 1798.51 1133.85 1802.17 C 1140.28 1809.9 1127.37 1820.48 1122.21 1824.97 C 1103.05 1832.83 1112.37 1807.67 1123.22 1798.99 z" fill="rgb(249,210,140)" transform="translate(0,0)"></path>
<path d="M 908.016 1822.96 C 923.83 1823.19 931.407 1836.35 916.742 1839.38 C 912.867 1839.3 901.314 1840.38 899.436 1835.53 C 896.966 1829.15 903.194 1825.38 908.016 1822.96 z" fill="rgb(194,146,83)" transform="translate(0,0)"></path>
<path d="M 1579.48 1730.4 C 1591.59 1732.99 1576.96 1755.47 1572.12 1760.36 C 1568.75 1758.49 1566.3 1757.54 1566.95 1753.02 C 1568.32 1743.64 1572.6 1736.69 1579.48 1730.4 z" fill="rgb(194,146,83)" transform="translate(0,0)"></path>
<path d="M 947.999 1835.92 C 960.38 1835.97 969.246 1845.55 956.765 1851.31 C 942.147 1852.6 934.247 1846.73 947.999 1835.92 z" fill="rgb(194,146,83)" transform="translate(0,0)"></path>
<path d="M 1143.05 1846.05 C 1146.05 1845.9 1149.48 1845.43 1152.26 1846.62 C 1154.4 1847.55 1156.08 1849.28 1156.93 1851.45 C 1159.24 1857.31 1155.58 1858.95 1150.75 1860.45 C 1136.48 1861.08 1127.39 1856.35 1143.05 1846.05 z" fill="rgb(194,146,83)" transform="translate(0,0)"></path>
<path d="M 1460.41 1792.9 C 1472.76 1795.65 1478.18 1805.97 1462.06 1809.1 C 1446.79 1807.36 1446.1 1798.12 1460.41 1792.9 z" fill="rgb(194,146,83)" transform="translate(0,0)"></path>
<path d="M 987.998 1767.84 C 998.981 1768.48 1008.31 1776.99 995.386 1783.3 L 994.132 1783.3 C 979.449 1783.4 974.471 1775.68 987.998 1767.84 z" fill="rgb(194,146,83)" transform="translate(0,0)"></path>
<path d="M 1551.54 1733.43 C 1564.83 1735.47 1562.6 1747.61 1561.71 1759.73 C 1550.47 1757.41 1550.29 1742.79 1551.54 1733.43 z" fill="rgb(194,146,83)" transform="translate(0,0)"></path>
<path d="M 653.94 1765.25 C 663.633 1768.73 661.751 1783.46 660.661 1791.73 C 658.72 1791.42 654.586 1791.16 653.884 1789.02 C 651.944 1783.11 652.32 1771.03 653.94 1765.25 z" fill="rgb(194,146,83)" transform="translate(0,0)"></path>
<path d="M 676.316 1777.49 C 688.286 1779.97 681.683 1787.49 677.556 1795.67 C 666.172 1798.16 674.09 1781.92 676.316 1777.49 z" fill="rgb(194,146,83)" transform="translate(0,0)"></path>
<path d="M 634.489 1782.38 C 642.608 1783.73 645.876 1788.72 644.183 1796.86 C 637.034 1795.59 630.558 1791.91 633.996 1783.64 L 634.489 1782.38 z" fill="rgb(194,146,83)" transform="translate(0,0)"></path>
<path d="M 1590.65 1754.64 C 1601.3 1754.93 1596.93 1761.04 1592.42 1766.63 C 1582.66 1764.27 1585.27 1759.78 1590.65 1754.64 z" fill="rgb(194,146,83)" transform="translate(0,0)"></path>
<path d="M 1029.88 190.148 L 1029.89 125.027 C 1029.86 112.767 1027.28 86.9524 1035.53 78.5262 C 1039.14 74.8127 1044.15 72.7967 1049.32 72.976 C 1073.18 73.606 1068 106.342 1068.01 122.634 C 1067.98 145.031 1068.06 167.428 1068.26 189.824 C 1104.18 193.002 1139.78 196.438 1175.26 203.71 C 1374.55 244.554 1558.65 376.863 1624.6 574.608 C 1630.16 591.292 1632.74 607.972 1637.59 624.514 C 1634.39 624.655 1631.24 624.897 1628.04 625.063 L 1627.94 624.196 C 1615.32 622.566 1600.98 613.367 1586.87 610.918 C 1521.62 599.592 1437.71 621.741 1399.42 679.786 C 1399.72 685.72 1399.9 692.952 1400.5 698.736 L 1399.58 698.794 C 1394.95 699.059 1392.15 698.868 1387.35 699.577 L 1385.05 679.259 C 1353.06 655.989 1315.95 644.46 1276.27 648.243 C 1266.07 635.552 1259.55 627.089 1244.94 619.342 C 1211.17 601.444 1179.49 604.839 1148.84 626.065 C 1143.02 623.653 1126.46 626.506 1120.02 628.145 C 1099.19 633.446 1080.09 642.085 1062.01 653.597 C 1061.94 633.802 1062.42 610.917 1061.46 591.375 C 1049.79 602.75 1049.13 599.744 1037.1 595.137 L 1036.96 642.673 C 1024.43 638.996 1009.13 628.467 994.485 627.175 C 990.876 626.857 986.286 625.367 982.496 625.073 C 970.155 624.116 949.856 621.168 938.121 624.236 C 894.984 601.302 848.109 606.487 817.77 646.929 C 812.391 644.991 797.548 646.295 791.458 647.064 C 760.374 650.991 728.315 661.152 704.211 681.813 C 703.325 688.231 702.899 693.261 702.495 699.737 C 697.461 698.763 693.967 698.82 688.868 698.662 L 690.462 680.686 C 689.541 674.527 670.058 656.002 664.47 651.563 C 612.109 609.965 534.578 596.833 471.905 619.682 L 465.461 626.72 C 462.473 625.213 459.202 624.352 455.859 624.195 C 465.632 589.122 472.464 565.262 487.393 531.405 C 535.526 422.242 623.56 333.634 726.89 275.479 C 819.725 223.495 923.558 194.252 1029.88 190.148 z" fill="rgb(120,193,175)" transform="translate(0,0)"></path>
<path d="M 773.525 604.997 C 776.101 595.708 790.75 581.317 797.818 575.11 C 836.327 541.899 886.517 525.464 937.212 529.465 C 972.274 532.015 1012.2 543.356 1036.08 570.753 C 1035.92 581.096 1035.97 584.944 1037.1 595.137 L 1036.96 642.673 C 1024.43 638.996 1009.13 628.467 994.485 627.175 C 990.876 626.857 986.286 625.367 982.496 625.073 C 970.155 624.116 949.856 621.168 938.121 624.236 C 894.984 601.302 848.109 606.487 817.77 646.929 C 812.391 644.991 797.548 646.295 791.458 647.064 C 760.374 650.991 728.315 661.152 704.211 681.813 C 705.464 650.104 720.73 600.443 731.723 570.926 C 738.416 573.955 754.035 590.318 759.027 596.675 C 759.039 602.766 759.119 614.723 768.403 612.495 C 771.709 609.889 771.768 609.023 773.525 604.997 z" fill="rgb(249,210,140)" transform="translate(0,0)"></path>
<path d="M 1061.35 572.109 C 1064.65 564.648 1084.7 553.321 1092.01 549.495 C 1158.71 514.578 1255.58 523.809 1305.79 583.116 C 1310.55 588.744 1314.92 597.841 1319.16 604.144 C 1319.68 607.545 1320.83 610.007 1323.56 612.156 C 1331.47 613.077 1332.84 607.082 1333.83 600.863 C 1343.18 588.151 1349.36 581.886 1361.65 572.054 C 1369.72 599.518 1384.8 650.634 1385.05 679.259 C 1353.06 655.989 1315.95 644.46 1276.27 648.243 C 1266.07 635.552 1259.55 627.089 1244.94 619.342 C 1211.17 601.444 1179.49 604.839 1148.84 626.065 C 1143.02 623.653 1126.46 626.506 1120.02 628.145 C 1099.19 633.446 1080.09 642.085 1062.01 653.597 C 1061.94 633.802 1062.42 610.917 1061.46 591.375 C 1061.71 584.947 1061.24 578.657 1061.35 572.109 z" fill="rgb(249,210,140)" transform="translate(0,0)"></path>
<path d="M 1372.25 564.853 C 1412.75 539.748 1457.41 538.983 1502.85 548.711 C 1541.99 557.092 1605.27 587.878 1626.82 622.303 C 1627.21 622.926 1627.58 623.557 1627.94 624.196 C 1615.32 622.566 1600.98 613.367 1586.87 610.918 C 1521.62 599.592 1437.71 621.741 1399.42 679.786 C 1399.72 685.72 1399.9 692.952 1400.5 698.736 L 1399.58 698.794 C 1394.95 699.059 1392.15 698.868 1387.35 699.577 L 1385.05 679.259 C 1384.8 650.634 1369.72 599.518 1361.65 572.054 C 1364.65 569.782 1369.04 567.02 1372.25 564.853 z" fill="rgb(249,210,140)" transform="translate(0,0)"></path>
<path d="M 1361.65 572.054 C 1364.65 569.782 1369.04 567.02 1372.25 564.853 C 1385.71 601.988 1394.83 640.555 1399.42 679.786 C 1399.72 685.72 1399.9 692.952 1400.5 698.736 L 1399.58 698.794 C 1394.95 699.059 1392.15 698.868 1387.35 699.577 L 1385.05 679.259 C 1384.8 650.634 1369.72 599.518 1361.65 572.054 z" fill="rgb(29,144,109)" transform="translate(0,0)"></path>
<path d="M 471.905 619.682 C 474.064 616.342 480.604 609.762 483.564 606.805 C 509.73 580.67 546.439 561.201 581.642 550.566 C 626.97 536.872 677.955 539.89 719.971 562.516 C 724.218 564.752 729.157 566.842 731.723 570.926 C 720.73 600.443 705.464 650.104 704.211 681.813 C 703.325 688.231 702.899 693.261 702.495 699.737 C 697.461 698.763 693.967 698.82 688.868 698.662 L 690.462 680.686 C 689.541 674.527 670.058 656.002 664.47 651.563 C 612.109 609.965 534.578 596.833 471.905 619.682 z" fill="rgb(249,210,140)" transform="translate(0,0)"></path>
<path d="M 719.971 562.516 C 724.218 564.752 729.157 566.842 731.723 570.926 C 720.73 600.443 705.464 650.104 704.211 681.813 C 703.325 688.231 702.899 693.261 702.495 699.737 C 697.461 698.763 693.967 698.82 688.868 698.662 L 690.462 680.686 C 696.644 635.103 703.425 604.665 719.971 562.516 z" fill="rgb(29,144,109)" transform="translate(0,0)"></path>
<path d="M 759.027 596.675 L 759.205 595.688 C 761.011 585.211 761.41 573.594 762.502 562.924 C 775.588 434.974 839.905 301.18 956.505 237.747 C 962.725 234.363 977.303 226.149 982.75 232.628 C 983.166 236.294 983.45 236.663 982.428 240.28 C 976.857 244.675 967.497 247.684 960.75 251.381 C 944.937 259.986 929.96 270.046 916.013 281.43 C 859.497 328.126 816.109 401.312 795.091 471.014 C 786.929 498.082 770.026 579.021 773.525 604.997 C 771.768 609.023 771.709 609.889 768.403 612.495 C 759.119 614.723 759.039 602.766 759.027 596.675 z" fill="rgb(29,144,109)" transform="translate(0,0)"></path>
<path d="M 1319.16 604.144 C 1319.67 601.475 1319.78 600.086 1319.79 597.28 C 1320.4 488.769 1277.4 362.292 1197.41 287.117 C 1185.22 275.55 1172.14 264.944 1158.31 255.395 C 1150.09 249.83 1124.86 240.492 1125.49 231.439 C 1127.75 228.602 1127.52 228.728 1130.89 227.408 C 1150.34 229.431 1193.91 264.166 1208.87 279.223 C 1294.36 365.24 1332.13 482.262 1333.83 600.863 C 1332.84 607.082 1331.47 613.077 1323.56 612.156 C 1320.83 610.007 1319.68 607.545 1319.16 604.144 z" fill="rgb(29,144,109)" transform="translate(0,0)"></path>
<path d="M 1049.55 582.884 C 1051.49 580.826 1059.05 570.571 1061.35 572.109 C 1061.24 578.657 1061.71 584.947 1061.46 591.375 C 1049.79 602.75 1049.13 599.744 1037.1 595.137 C 1035.97 584.944 1035.92 581.096 1036.08 570.753 C 1040.55 574.929 1045 578.825 1049.55 582.884 z" fill="rgb(29,144,109)" transform="translate(0,0)"></path>
<path d="M 1346.68 295.8 C 1361.88 300.329 1398.53 325.879 1411.84 336.211 C 1446.28 363.132 1476.11 395.468 1500.17 431.957 C 1505.19 439.447 1511.49 445.656 1512.61 454.476 C 1511.3 458.57 1511.72 457.29 1507.87 460.484 C 1506.9 460.395 1503.21 460.139 1502.61 459.202 C 1463.19 397.001 1411.53 344.649 1346.29 309.336 C 1343.1 307.61 1342.53 306.396 1341.9 303.093 C 1343.15 299.123 1343.67 298.895 1346.68 295.8 z" fill="rgb(29,144,109)" transform="translate(0,0)"></path>
<path d="M 1114.12 258.65 C 1116.29 258.981 1118.4 259.205 1119.89 261.064 C 1150.35 298.88 1168.6 346.614 1170.88 395.139 C 1171.18 401.453 1170.57 403.143 1166.39 407.315 C 1164.93 406.835 1159.58 405.22 1159.43 404.09 C 1153.61 360.671 1145.39 317.345 1118.15 281.122 C 1114.86 276.751 1108.8 269.864 1108.86 263.925 C 1110.01 261.038 1111.53 260.42 1114.12 258.65 z" fill="rgb(29,144,109)" transform="translate(0,0)"></path>
<path d="M 773.274 284.021 C 779.667 283.685 785.943 285.905 785.048 294.049 C 784.464 299.36 773.612 302.401 769.011 304.123 C 751.152 310.806 733.802 320.597 717.994 331.258 C 709.724 336.897 702.444 343.336 693.918 348.853 C 686.026 350.748 681.648 344.035 683.201 341.022 C 694.206 319.68 755.483 288.759 773.274 284.021 z" fill="rgb(247,244,227)" transform="translate(0,0)"></path>
<path d="M 618.291 393.968 C 640.386 397.666 621.257 425.602 608.529 430.287 L 606.646 431.014 C 583.864 425.115 603.8 400.619 618.291 393.968 z" fill="rgb(247,244,227)" transform="translate(0,0)"></path>
<path d="M 655.787 361.84 C 657.157 361.768 659.176 361.557 660.506 361.911 C 661.844 362.263 662.959 363.188 663.552 364.438 C 667.18 372.135 652.633 386.689 646.251 390.075 L 644.961 389.587 C 625.317 382.312 646.323 366.857 655.787 361.84 z" fill="rgb(247,244,227)" transform="translate(0,0)"></path>
<path d="M 291.12 1879.22 C 304.822 1878.59 318.57 1879.46 332.225 1880.61 C 351.647 1882.24 443.263 1891.76 452.887 1904.9 C 453.828 1906.18 453.374 1906.66 453.13 1908.09 C 448.796 1912.33 444.693 1912.52 438.679 1913.39 C 417.448 1915.94 272.423 1910.67 276.076 1885.56 C 281.076 1880.13 283.745 1880.39 291.12 1879.22 z" fill="rgb(196,216,192)" transform="translate(0,0)"></path>
<path d="M 1400.5 698.736 C 1410.29 702.904 1415.66 712.611 1411.36 723.244 C 1410.03 726.513 1403.23 732.066 1400.43 734.778 C 1400.8 744.565 1398.47 747.275 1407.31 750.647 C 1412.01 752.435 1416.72 762.409 1416.81 767.505 C 1417.33 798.213 1373.51 798.081 1372.72 767.497 C 1372.41 755.795 1379.3 751.695 1388.99 746.598 C 1388.99 742.627 1389.05 738.5 1388.92 734.543 C 1382.33 729.591 1375.99 726.559 1375.26 717.504 C 1374.46 707.681 1380.29 704.124 1387.35 699.577 C 1392.15 698.868 1394.95 699.059 1399.58 698.794 L 1400.5 698.736 z" fill="rgb(233,127,46)" transform="translate(0,0)"></path>
<path d="M 688.868 698.662 C 693.967 698.82 697.461 698.763 702.495 699.737 C 719.168 709.945 713.557 723.619 701.02 733.862 C 701.083 738.431 701.245 742.999 701.505 747.561 C 725.449 761.596 720.479 784.293 694.41 791.241 C 680.431 787.786 669.426 780.689 672.2 763.521 C 673.683 754.343 682.465 750.215 689.758 745.852 C 689.905 741.664 689.911 737.873 689.885 733.697 C 671.83 723.843 669.55 708.667 688.868 698.662 z" fill="rgb(233,127,46)" transform="translate(0,0)"></path>
<path d="M 1660.98 1874.58 C 1671.92 1873.61 1684.3 1873.68 1695.29 1873.84 C 1702.94 1873.96 1721.13 1872.62 1724.72 1880.04 C 1720.4 1892.76 1660.54 1897.51 1646.47 1898.86 C 1632.6 1899.35 1593.49 1905.2 1584.51 1894.14 C 1587.26 1879.75 1647.8 1875.32 1660.98 1874.58 z" fill="rgb(120,193,175)" transform="translate(0,0)"></path>
<path d="M 455.859 624.195 C 459.202 624.352 462.473 625.213 465.461 626.72 C 476.336 632.206 481.315 645.017 476.999 656.408 C 472.683 667.799 460.464 674.093 448.684 670.995 C 436.904 667.897 429.363 656.406 431.209 644.366 C 433.055 632.325 443.692 623.621 455.859 624.195 z" fill="rgb(233,127,46)" transform="translate(0,0)"></path>
<path d="M 1637.59 624.514 C 1660.79 630.792 1666.09 658.91 1645.56 669.157 C 1615.42 684.197 1593.36 638.995 1628.04 625.063 C 1631.24 624.897 1634.39 624.655 1637.59 624.514 z" fill="rgb(233,127,46)" transform="translate(0,0)"></path>
<path d="M 181.075 1850.32 C 198.051 1850.44 219.417 1854.28 234.813 1861.52 C 247.854 1867.65 249.845 1873.03 234.915 1876.22 C 216.413 1877.5 192.16 1874.12 176.604 1863.83 C 164.874 1856.08 171.004 1851.85 181.075 1850.32 z" fill="rgb(196,216,192)" transform="translate(0,0)"></path>
<path d="M 402.486 1361.63 C 404.639 1362.77 407.753 1363.99 407.805 1367.03 C 408.002 1378.72 407.956 1390.45 407.977 1402.14 C 408.009 1419.59 408.028 1437.08 407.86 1454.52 C 407.877 1455.95 407.229 1457.29 406.268 1458.31 C 405.592 1459.05 404.917 1459.8 404.242 1460.55 C 403.439 1460.24 402.631 1459.95 401.818 1459.67 C 400.953 1459.37 397.666 1458.3 397.612 1457.22 C 396.105 1426.94 397.254 1396.03 397.14 1365.62 C 397.137 1364.81 401.981 1361.98 402.486 1361.63 z" fill="rgb(247,244,227)" transform="translate(0,0)"></path>
<path d="M 585.343 826.523 C 587.314 826.762 592.917 826.782 593.453 829.804 C 593.919 833.705 594.483 842.699 594.039 846.376 C 592.303 860.75 597.708 916.718 592.383 927.466 C 591.353 927.346 584.743 926.944 584.86 924.53 C 585.925 902.466 579.734 845.955 585.343 826.523 z" fill="rgb(120,193,175)" transform="translate(0,0)"></path>
<path d="M 1764.55 1887.29 C 1770.34 1886.49 1776.66 1886.89 1782.47 1886.9 C 1811.61 1886.95 1812.5 1902.53 1783.15 1904.76 C 1771.5 1906.37 1760.26 1906.92 1748.49 1905.26 C 1745.24 1905.56 1740.31 1902.77 1739.86 1898.99 C 1738.89 1890.89 1760.36 1887.92 1764.55 1887.29 z" fill="rgb(120,193,175)" transform="translate(0,0)"></path>
<path d="M 1659.64 938.788 C 1661.09 938.884 1667.18 938.729 1667.75 941.244 C 1668.8 947.217 1669.17 956.694 1668.69 962.749 C 1667.32 980.131 1671.28 1009.11 1667.04 1025.09 C 1665.8 1025.09 1658.51 1025.57 1658.29 1022.36 C 1657.08 1004.41 1657.9 985.856 1657.63 967.818 C 1657.49 958.787 1656.59 947.013 1659.64 938.788 z" fill="rgb(247,244,227)" transform="translate(0,0)"></path>
<path d="M 1513.27 180.42 C 1524.76 182.109 1522.51 189.737 1521.63 201.946 C 1520.43 218.767 1524.76 254.664 1519.94 269.031 C 1517.91 268.566 1515.78 268.293 1513.95 267.242 C 1512.44 266.376 1511.76 265.112 1511.42 263.448 C 1510.08 256.804 1510.36 184.826 1511.95 182.452 C 1512.1 182.226 1512.28 182.017 1512.42 181.789 C 1512.72 181.339 1512.99 180.876 1513.27 180.42 z" fill="rgb(120,193,175)" transform="translate(0,0)"></path>
<path d="M 1647.79 1447.55 C 1656.75 1451.82 1656.05 1456.4 1654.93 1467.29 C 1653.4 1482.22 1658.17 1528.15 1652.57 1539.28 C 1651.21 1539 1645.33 1538.29 1645.25 1536.01 C 1644.33 1509.41 1644.76 1482.62 1644.75 1455.99 C 1644.75 1451.84 1645.73 1450.94 1647.79 1447.55 z" fill="rgb(247,244,227)" transform="translate(0,0)"></path>
<path d="M 479.823 1495.18 C 481.494 1495.52 487.788 1497.02 487.661 1499.34 C 486.812 1514.76 490.975 1573.11 486.598 1584 C 485.499 1583.94 478.165 1583.8 478.343 1581.6 C 479.99 1561.24 474.047 1513.16 479.823 1495.18 z" fill="rgb(120,193,175)" transform="translate(0,0)"></path>
<path d="M 1629.78 316.698 C 1630.94 316.946 1637.67 318.327 1637.48 320.269 C 1635.91 336.366 1641.16 392.828 1636.66 404.958 C 1636.04 404.962 1628.22 405.483 1628.32 403.638 C 1629.46 383.143 1624.35 334.925 1629.78 316.698 z" fill="rgb(196,216,192)" transform="translate(0,0)"></path>
<path d="M 629.968 172.314 C 638.855 174.913 637.675 181.193 636.977 190.164 C 636.12 201.19 639.22 255.852 635.492 261.688 L 633.569 261.292 C 632.256 261.035 627.365 260.36 627.312 258.035 C 626.715 231.772 627.126 205.325 627.292 179.04 C 627.302 177.368 629.193 173.765 629.968 172.314 z" fill="rgb(247,244,227)" transform="translate(0,0)"></path>
<path d="M 644.671 1436.28 C 646.421 1436.74 650.875 1437.33 650.913 1440.01 C 651.285 1466.13 650.962 1492.34 650.847 1518.48 C 650.837 1520.68 649.782 1522.68 648.405 1524.31 L 647.26 1525.73 C 644.57 1524.74 641.299 1523.61 641.24 1520.02 C 640.822 1494.24 640.927 1468.36 641.268 1442.59 C 641.283 1441.42 642.307 1439.37 643.055 1438.44 C 643.594 1437.72 644.132 1437 644.671 1436.28 z" fill="rgb(247,244,227)" transform="translate(0,0)"></path>
<path d="M 1382.43 150.82 C 1383.65 151.124 1388.03 151.964 1388.14 152.513 C 1390.07 166.399 1389.08 183.057 1389.11 197.5 C 1389.13 205.59 1391.19 222.492 1385.73 227.818 L 1384.36 229.222 L 1383.48 228.765 C 1377.8 225.863 1377.07 221.445 1378.1 215.003 C 1379.71 204.878 1374.37 155.365 1381.05 151.621 L 1382.43 150.82 z" fill="rgb(247,244,227)" transform="translate(0,0)"></path>
<path d="M 390.247 1165.44 C 390.746 1165.58 391.244 1165.73 391.745 1165.86 C 393.099 1166.23 394.605 1166.48 395.8 1167.27 C 397.194 1168.19 397.433 1169.39 397.688 1170.98 C 398.707 1177.31 399.165 1241.62 396.868 1244.39 C 396.694 1244.6 396.504 1244.8 396.333 1245.01 C 395.996 1245.43 395.672 1245.86 395.342 1246.29 C 394.519 1246.08 393.694 1245.87 392.868 1245.67 C 391.904 1245.45 387.914 1244.81 387.98 1243.01 C 388.511 1228.53 384.215 1174.96 390.247 1165.44 z" fill="rgb(196,216,192)" transform="translate(0,0)"></path>
<path d="M 1669.02 1205.61 C 1676.46 1206.19 1678.79 1205.69 1678.61 1214.49 C 1678.31 1228.97 1678.38 1243.52 1678.24 1258 C 1678.18 1263.71 1678.98 1271 1677.39 1276.34 C 1677.49 1276 1675.74 1279.35 1676.09 1278.69 C 1674.31 1278.71 1667.97 1279.14 1668 1276.04 C 1668.14 1264.21 1664.41 1213.57 1669.02 1205.61 z" fill="rgb(196,216,192)" transform="translate(0,0)"></path>
<path d="M 505.143 250.591 C 506.612 250.746 512.915 251.144 512.727 253.653 C 511.615 268.538 516.274 322.733 510.748 333.218 C 509.448 332.832 504.281 331.676 504.278 329.865 C 504.256 315.182 500.67 262.358 505.143 250.591 z" fill="rgb(120,193,175)" transform="translate(0,0)"></path>
<path d="M 1502.99 799.474 C 1504.44 799.789 1510.8 801.445 1510.65 803.367 C 1509.49 817.643 1513.89 866.341 1509.97 877.367 C 1508.47 877.311 1501.11 877.385 1501.31 874.378 C 1502.42 856.868 1497.51 813.8 1502.99 799.474 z" fill="rgb(120,193,175)" transform="translate(0,0)"></path>
<path d="M 450.362 730.818 C 453.796 731.946 456.344 731.86 456.467 736.208 C 457.05 756.91 457.06 777.775 456.724 798.489 C 456.702 799.899 455.863 801.579 454.93 802.609 C 454.298 803.345 453.666 804.081 453.034 804.817 C 446.845 801.741 444.64 800.011 446.1 792.164 C 448.374 779.942 441.38 736.909 450.362 730.818 z" fill="rgb(196,216,192)" transform="translate(0,0)"></path>
<path d="M 1505.21 1554.55 C 1506.46 1554.6 1514.82 1554.74 1514.75 1557.22 C 1514.24 1575.6 1518.65 1609.73 1514.1 1626.5 C 1505.08 1627.49 1504.65 1624.16 1504.98 1616.14 C 1505.82 1596.02 1503.83 1574.52 1505.21 1554.55 z" fill="rgb(247,244,227)" transform="translate(0,0)"></path>
<path d="M 1603 1106.73 C 1604.08 1106.74 1612.59 1106.51 1612.51 1109.08 C 1611.99 1126.29 1615.75 1162.34 1611.44 1177.45 C 1609.18 1177.17 1603.46 1176.61 1603.26 1174.69 C 1602.06 1163.66 1601.21 1114.2 1603 1106.73 z" fill="rgb(247,244,227)" transform="translate(0,0)"></path>
<path d="M 455.739 956.165 C 458.202 956.599 461.496 956.72 461.556 959.997 C 461.975 982.776 462.032 1005.66 461.878 1028.45 C 461.869 1029.86 459.625 1032.33 458.887 1033.28 C 457.943 1032.82 453.347 1030.82 453.222 1029.87 C 450.488 1009.01 452.301 981.831 452.391 960.246 C 452.401 958.023 455.392 956.395 455.739 956.165 z" fill="rgb(120,193,175)" transform="translate(0,0)"></path>
<path d="M 1547.56 947.6 C 1549.38 947.745 1556.03 947.832 1555.76 951.269 C 1554.61 965.531 1559.14 1008.07 1553.74 1018.74 C 1552.26 1018.46 1546.25 1017.83 1546.23 1015.33 C 1546.14 1003.3 1542.62 956.435 1547.56 947.6 z" fill="rgb(120,193,175)" transform="translate(0,0)"></path>
<path d="M 1623.22 723.538 L 1624.29 723.783 C 1625.15 723.973 1630.36 724.767 1630.44 726.77 C 1631.16 744.342 1630.73 762.156 1630.89 779.775 C 1630.96 787.361 1632.28 792.451 1628.89 798.908 C 1627.29 798.635 1621.05 798.225 1621.23 795.435 C 1622.14 781.161 1617.61 733.031 1623.22 723.538 z" fill="rgb(120,193,175)" transform="translate(0,0)"></path>
<path d="M 491.175 1140.5 C 492.538 1140.65 498.914 1140.69 498.848 1142.95 C 498.443 1156.71 502.823 1200.57 497.201 1210.59 C 495.065 1210.45 488.939 1209.69 489.162 1206.56 C 490.077 1193.76 485.974 1148.9 491.175 1140.5 z" fill="rgb(247,244,227)" transform="translate(0,0)"></path>
<path d="M 543.536 1297.38 L 544.526 1297.42 C 545.725 1297.45 550.471 1297.73 550.572 1299.54 C 551.245 1311.64 554.122 1360.14 550.866 1369.18 L 550.422 1370.51 C 548.59 1370.46 542.18 1370.53 542.235 1367.34 C 542.468 1353.86 539.022 1307.86 543.536 1297.38 z" fill="rgb(120,193,175)" transform="translate(0,0)"></path>
<path d="M 400.94 1617.4 C 401.916 1617.67 406.981 1619.04 406.929 1620.62 C 406.414 1636.02 410.285 1679.94 405.975 1692.41 C 405.408 1692.35 404.842 1692.29 404.275 1692.24 C 402.73 1692.11 400.749 1692.19 399.372 1691.29 C 398.628 1690.8 398.331 1690.41 398.131 1689.56 C 396.807 1683.87 396.681 1624.25 399.227 1620.11 C 399.784 1619.2 400.374 1618.3 400.94 1617.4 z" fill="rgb(120,193,175)" transform="translate(0,0)"></path>
<path d="M 1564.81 1297.58 C 1566.85 1297.96 1569.27 1298.2 1570.97 1299.53 C 1571.79 1300.17 1571.95 1300.95 1572.08 1301.95 C 1573 1308.79 1572.61 1365.81 1570.94 1367.87 C 1570.64 1368.25 1570.31 1368.6 1570.01 1368.97 C 1569.63 1369.46 1569.27 1369.97 1568.9 1370.47 C 1567.56 1370.19 1566.18 1370.04 1564.93 1369.46 C 1563.65 1368.86 1562.58 1367.74 1562.21 1366.35 C 1561.25 1362.78 1561.8 1302.45 1563.19 1300.15 C 1563.42 1299.78 1563.67 1299.43 1563.9 1299.06 C 1564.21 1298.57 1564.5 1298.08 1564.81 1297.58 z" fill="rgb(120,193,175)" transform="translate(0,0)"></path>
<path d="M 1785.64 1858.42 C 1814.51 1856.33 1820.89 1870.88 1796.01 1874.26 L 1792.25 1874.85 C 1787.4 1875.09 1763.77 1877.18 1763.07 1867.67 C 1762.49 1859.76 1779.98 1858.85 1785.64 1858.42 z" fill="rgb(120,193,175)" transform="translate(0,0)"></path>
<path d="M 1244.71 96.3536 C 1261.72 99.0454 1248.67 129.199 1252.86 142.754 C 1254.16 146.929 1252.74 154.284 1250.21 158.421 C 1234.64 155.709 1245.25 127.761 1241.95 115.058 C 1240.61 109.886 1241.84 101.352 1244.71 96.3536 z" fill="rgb(120,193,175)" transform="translate(0,0)"></path>
<path d="M 428.876 412.308 C 441.557 419.106 431.741 443.395 434.832 457.131 C 436.268 463.512 435.021 468.532 430.717 473.317 L 429.703 472.845 C 418.434 467.709 426.867 440.077 424.244 428.497 C 422.773 422.003 424.379 416.937 428.876 412.308 z" fill="rgb(120,193,175)" transform="translate(0,0)"></path>
<path d="M 1670.99 1632.43 C 1671.9 1632.47 1678.5 1632.41 1678.91 1634.58 C 1681.31 1647.34 1679.37 1661.44 1680.15 1674.5 C 1680.61 1682.19 1680.22 1683.45 1677.75 1690.24 C 1676.57 1690.17 1670.38 1689.99 1670.3 1687.7 C 1669.8 1672.94 1666.9 1646.06 1670.99 1632.43 z" fill="rgb(196,216,192)" transform="translate(0,0)"></path>
<path d="M 1458.26 1414.5 C 1459.55 1414.62 1466.31 1414.41 1466.58 1417.48 C 1467.73 1430.6 1466.7 1444.19 1466.99 1457.44 C 1467.1 1462.38 1467.74 1468.7 1465.78 1473.18 L 1465.25 1474.46 C 1464.63 1474.38 1464.01 1474.3 1463.39 1474.22 C 1463.28 1474.33 1461.02 1473.89 1461 1473.89 C 1460.01 1473.97 1457.54 1471.57 1457.49 1470.83 C 1456.86 1460.71 1455.9 1421.84 1458.26 1414.5 z" fill="rgb(120,193,175)" transform="translate(0,0)"></path>
<path d="M 752.686 149.278 C 766.384 154.864 755.938 179.722 759.215 193.2 C 760.623 198.991 759.493 203.769 755.837 208.23 C 741.697 202.418 752.469 180.37 749.137 166.207 C 747.719 160.183 748.794 154.15 752.686 149.278 z" fill="rgb(247,244,227)" transform="translate(0,0)"></path>
<path d="M 726.438 1535.43 C 727.053 1535.52 732.239 1535.97 732.3 1536.73 C 733.104 1546.63 736 1589.1 730.413 1595.24 C 729.26 1594.96 724.349 1594.3 724.212 1592.03 C 723.431 1579.11 723.682 1565.95 723.618 1553 C 723.577 1544.73 722.453 1542.37 726.438 1535.43 z" fill="rgb(247,244,227)" transform="translate(0,0)"></path>
<path d="M 867.191 92.5141 C 873.117 93.6118 875.739 93.5051 875.409 99.9853 C 874.72 113.512 878.22 134.635 873.906 146.921 C 862.389 144.749 864.9 141.606 865.017 128.5 C 865.106 118.583 863.221 100.729 867.191 92.5141 z" fill="rgb(196,216,192)" transform="translate(0,0)"></path>
<path d="M 1678.02 1912.21 C 1696.57 1910.51 1705.34 1919.12 1686.89 1923.71 C 1681.26 1924.07 1669.77 1925.4 1667.05 1918.79 C 1665.75 1915.63 1672.51 1913.27 1674.56 1912.87 L 1678.02 1912.21 z" fill="rgb(120,193,175)" transform="translate(0,0)"></path>
<metadata><recraft-signature>{"signed_by": "recraft", "signature_b64": "zJMiUK+Z9Rv9JwzNhXz/fDHciLqXIcpdUaclrzdTJ8m2wCQzNVRhTWqD1LBBDSyKcGR6Ilj+5mPE6b6weQ8XAQ==", "signing_algo": "Ed25519", "generation_timestamp": 1778557550, "identifier": "c9208754-94e4-4862-817d-fdf2eabf471a"}</recraft-signature></metadata></svg>