<svg xmlns="http://www.w3.org/2000/svg" height="1024" preserveAspectRatio="none" style="display: block;" version="1.1" viewBox="0 0 2048 2048" width="1024">

<path d="M 1019.87 57.1355 C 1037.53 56.5543 1052.65 61.0121 1060.86 78.3339 C 1065.17 87.3689 1065.67 97.7586 1062.24 107.165 C 1056.86 121.652 1046.35 127.011 1033.45 132.678 C 1046.66 157.043 1071.77 182.75 1094.8 198.124 C 1125.95 218.92 1097.12 212.645 1088.88 233.933 C 1070.99 280.148 1145.58 301.46 1163.51 259.068 C 1169.85 244.072 1161.1 233.243 1155.56 220.374 C 1169.89 209.142 1199.13 197.675 1216.58 191.428 C 1229.13 186.938 1282.26 173.96 1291.61 184.813 C 1291.52 186.906 1290.32 189.213 1288.91 190.722 C 1238.35 244.822 1208.7 311.492 1193.49 383.796 C 1201.35 394.079 1204.33 401.73 1198.45 413.873 L 1197.78 415.226 C 1202.91 418.397 1219.65 423.388 1226.6 425.887 C 1270.84 441.78 1307.25 464.088 1343.87 493.216 C 1353.87 483.217 1362.27 473.258 1372.88 463.24 C 1375.61 448.246 1380.28 439.588 1391.54 429.275 C 1390.78 411.799 1392.16 405.943 1403.55 392.629 C 1399.05 379.021 1401.21 368.897 1409.17 357.129 C 1397.49 340.083 1389.35 307.674 1399.26 289.954 C 1416.17 259.688 1438.05 287.834 1441.01 309.95 C 1443.9 331.613 1445.15 340.462 1432.87 358.894 C 1434.37 382.167 1430.29 379.013 1422.38 398.618 C 1416.69 412.72 1419.5 420.807 1405.58 433.138 C 1402.99 438.477 1399.06 456.622 1395.04 459.97 C 1380.4 472.161 1367.96 488.149 1354.86 501.345 C 1364.87 511.944 1376.54 522.73 1386.14 533.448 C 1411.34 561.602 1441.56 603.501 1456.01 638.333 C 1502.27 649.121 1554.02 680.943 1586 715.175 C 1592.72 722.364 1602.47 731.825 1607.68 739.996 C 1773.38 738.566 1854.28 893.756 1874.82 1037.29 C 1893.89 1170.54 1868.99 1305.29 1790.42 1415.88 C 1702.15 1540.11 1538.28 1574.42 1434.24 1449.26 C 1429.62 1443.74 1404.33 1409.12 1403.08 1408.18 C 1403.09 1408.54 1403.09 1408.9 1403.09 1409.26 L 1403.08 1411.05 C 1403.08 1428.76 1392.49 1442.07 1382.92 1456.42 C 1394.42 1467.84 1406.83 1481 1415.03 1495.03 C 1418.19 1500.44 1414.44 1504.73 1414.72 1505.87 C 1421.51 1533.39 1428.96 1540.83 1408.61 1565.05 C 1423.79 1583.39 1437.55 1599.23 1446.03 1621.77 L 1440.73 1629.56 C 1446.77 1641.1 1450.67 1650.29 1447.14 1663.42 C 1450.82 1664.13 1454.49 1664.93 1458.14 1665.81 C 1504.22 1677.11 1541.42 1701.89 1566.55 1742.77 C 1581.52 1767.13 1590.2 1800.16 1583.03 1828.49 C 1604.44 1840.64 1608.45 1860.9 1603.31 1883.77 C 1598.82 1903.73 1579.51 1918.99 1562.3 1928.33 C 1478.87 1973.64 1300.49 1970.38 1250.9 1878.01 C 1223.96 1883.84 1194.98 1884.43 1167.11 1879.44 C 1130.45 1872.89 1081.92 1845.23 1092.68 1800.55 C 1095.24 1789.91 1101.42 1783.95 1110.61 1778.61 C 1104.59 1751.2 1105.02 1734.12 1111.75 1707.13 C 1104.59 1702.65 1099.58 1698.16 1093.51 1692.4 C 1082.14 1651.25 1092.46 1611.3 1112.76 1575.06 C 1103.21 1567.1 1099.74 1564.29 1093.09 1553.86 C 1090.23 1522.59 1100.96 1478.91 1114.46 1450.54 C 1094.44 1430.07 1099.69 1405.72 1110.98 1382.59 C 1105.18 1371.12 1113.1 1355.77 1118.28 1345.22 C 1127.98 1325.43 1146.42 1313.64 1167.03 1307.33 C 1161.45 1283.49 1157.69 1259.09 1152.25 1236.4 C 1085.46 1251.23 1016.65 1254.69 948.713 1246.65 C 933.031 1244.73 912.678 1241.61 897.772 1236.92 C 893.474 1260.05 887.539 1285.07 882.297 1308.1 C 885.157 1308.99 887.999 1309.93 890.823 1310.93 C 916.421 1320.04 947.848 1357.86 937.656 1385.12 C 949.524 1406.62 952.761 1431.84 933.903 1450.68 C 948.507 1478.75 953.28 1510.7 955.139 1542.23 C 956.029 1557.33 946.059 1565.78 936.176 1576.03 C 947.35 1593.15 952.982 1617.88 955.918 1637.77 C 957.367 1649.1 957.938 1667.41 956.982 1678.8 C 955.7 1694.1 946.088 1700.77 935.025 1709.25 C 944.034 1734.18 942.315 1753.68 936.822 1779.12 C 966.93 1802.57 952.75 1841.64 925.821 1860.31 C 887.542 1886.83 839.99 1885.49 795.936 1878.51 C 786.59 1894.88 776.147 1906.16 760.405 1916.83 C 702.162 1956.33 619.024 1963.7 551.069 1951.3 C 518.071 1945.29 469.18 1929.44 449.568 1900.37 C 440.998 1887.81 437.964 1872.28 441.174 1857.41 C 444.344 1842.51 451.603 1835.56 463.569 1827.75 C 449.268 1758.75 504.001 1695.67 565.165 1672.54 C 571.72 1670.06 597.974 1664.66 600.653 1662.32 C 600.653 1662.32 599.844 1660.41 599.843 1660.41 C 592.624 1649.07 605.133 1635.98 604.364 1627.58 C 602.327 1625.28 601.727 1625.02 600.981 1622.03 C 603.624 1606.85 627.876 1577.22 639.02 1565.7 C 619.797 1541.99 623.16 1533.72 634.567 1506.76 C 632.979 1504.5 631.36 1501.85 631.897 1499.07 C 634.737 1484.38 655.333 1465.32 665.356 1456.27 C 658.702 1446.23 650.606 1434.6 647.103 1423.29 C 643.559 1411.85 646.212 1398.7 652.421 1388.73 C 653.562 1386.9 653.348 1387.1 653.499 1384.83 L 649.466 1381.02 C 646.497 1373.21 654.651 1361.92 657.991 1354.87 C 677.505 1313.68 713.653 1301.92 756.858 1304.62 C 763.418 1269.09 774.042 1231.99 779.935 1198.07 C 773.103 1194.8 766.151 1190.84 759.464 1187.82 C 753.141 1185.87 746.852 1187.57 740.86 1184.42 C 728.825 1178.1 721.835 1161.74 707.697 1161.25 C 705.455 1161.17 696.24 1152.77 693.423 1150.69 C 656.579 1123.49 629.023 1089.82 605.499 1050.82 C 595.015 1074.91 584.819 1099.12 574.913 1123.45 C 610.929 1140.08 628.974 1178.33 596.413 1209.22 C 607.158 1223.85 623.009 1247.96 620.327 1267.51 C 617.495 1288.16 589.839 1281.74 575.875 1278.73 C 582.965 1307.46 578.166 1351.45 571.737 1380.3 C 568.505 1392.77 564.34 1420.92 553.205 1428.18 C 540.919 1436.18 527.264 1411.69 521.875 1403.38 C 518.066 1417.33 515.957 1431.51 511.695 1447.02 C 507.401 1462.64 500.123 1499.01 486.979 1508.95 C 485.034 1510.23 480.646 1510.4 478.728 1509.11 C 454.891 1493.11 438.663 1454.41 429.007 1430.45 C 416.232 1440.4 399.439 1451.76 389.987 1430.19 C 375.499 1397.14 370.487 1347.9 373.328 1311.63 C 374.523 1296.06 377.44 1280.68 382.026 1265.75 C 317.207 1293.97 313.956 1267.12 351.495 1218.77 C 347.807 1218.63 343.059 1218.38 339.419 1218.25 C 296.184 1216.8 295.648 1193.21 328.712 1171.48 C 345.908 1160.18 362.273 1153.64 382.772 1148.76 C 375.414 1114.03 389.475 1080.91 427.921 1074.79 C 442.12 1072.53 454.068 1074.18 467.983 1077.4 C 488.694 1017.81 521.871 958.951 553.591 904.598 C 555.72 900.949 557.267 896.272 555.913 892.203 C 553.19 891.904 549.484 895.185 546.595 897.174 C 518.412 915.741 490.243 920.652 456.147 913.986 C 442.145 911.248 378.424 888.108 378.448 865.158 C 378.453 860.183 403.701 851.309 410.474 848.571 C 433.108 761.817 487.88 686.815 570.291 648.336 C 580.627 643.51 590.832 639.698 601.841 636.75 C 622.047 591.234 660.4 538.44 698.019 505.606 C 682.798 491.266 666.781 472.069 650.874 457.634 C 647.444 453.464 646.093 441.167 643.799 437.356 C 633.748 420.663 630.158 413.366 627.027 394.188 C 626.159 393.188 625.301 392.181 624.451 391.166 C 614.67 379.446 615.109 373.093 616.424 358.691 C 601.035 340.621 604.112 309.799 614.872 289.949 C 627.486 266.68 651.78 277.619 654.48 301.496 C 656.916 323.039 652.069 339.657 639.588 357.211 C 649.057 371.334 649.765 377.697 646.65 394.074 C 663.304 410.491 652.634 416.446 658.413 428.005 C 665.912 443.002 671.146 442.22 676.358 463.938 C 688.38 475.52 696.448 484.501 707.281 497.042 C 747.59 461.149 803.861 430.642 855.808 415.646 C 847.854 401.627 849.38 396.127 859.442 384.406 C 843.252 321.706 825.112 266.288 784.224 214.911 C 779.032 208.386 761.065 189.592 761.569 183.6 C 771.879 174.321 825.547 188.402 838.34 192.827 C 857.862 199.58 876.678 210.556 894.468 220.946 C 889.382 229.271 885.964 235.423 884.636 245.247 C 879.501 283.215 930.038 291.766 952.736 270.404 C 959.161 264.358 963.83 257.01 963.921 247.9 C 964.109 229.21 950.439 222.877 939.037 211.742 C 946.889 204.007 957.264 197.63 965.892 190.647 C 987.361 173.273 1004.53 156.767 1017.72 132.532 C 1015.17 131.508 1012.66 130.393 1010.19 129.189 C 1000.31 124.34 992.774 115.953 989.481 105.392 C 986.538 95.952 987.556 85.7214 992.302 77.0464 C 998.82 65.2263 1007.83 60.8816 1019.87 57.1355 z" fill="rgb(18,17,17)" transform="translate(0,0)"></path>
<path d="M 1189.71 422.389 C 1237.35 435.678 1301.15 467.377 1338.65 499.924 C 1300.65 538.934 1237.49 571.179 1235.06 636.498 C 1234.92 640.087 1235.56 642.541 1237.84 645.291 C 1241.15 646.467 1239.52 646.383 1242.92 645.555 C 1245.79 633.89 1247.64 617.092 1252.28 606.852 C 1271.86 563.561 1315.95 538.722 1348.04 507.5 C 1432.81 586.595 1476.36 675.22 1489.52 790.888 C 1461.19 816.47 1426.04 857.611 1409.66 892.622 C 1390.7 879.647 1369.3 873.487 1346.33 877.652 C 1330.54 880.571 1316.6 889.741 1307.67 903.082 C 1299.27 915.49 1296.06 930.691 1298.72 945.437 C 1302.39 965.584 1314.4 978.117 1330.22 989.793 C 1331.08 996.464 1330.77 1001.93 1335.53 1006.34 L 1337.42 1006.89 C 1340.12 1004.24 1340.09 1000.84 1340.52 996.838 C 1343.21 997.01 1344.26 998.33 1346.37 1000.08 C 1350.24 1007.91 1343.87 1011.52 1351.42 1017.48 L 1354.85 1017.83 C 1355.99 1015.93 1356.5 1014.81 1357.42 1012.82 L 1360.56 1014.38 C 1359.94 1017.26 1359.16 1019.46 1358.73 1022.36 C 1352.1 1046.55 1342.6 1095.65 1342.9 1120.68 C 1330.18 1134.94 1317.12 1158.61 1304.63 1174.53 C 1295.36 1177.71 1291.46 1179.57 1282.93 1184.5 C 1290.45 1170.22 1301.38 1149.33 1306.15 1134.22 C 1287.48 1154.79 1269.52 1174.1 1252.66 1196.25 C 1245.85 1199.04 1239.5 1201.6 1232.57 1204.07 C 1240.77 1190.57 1250.96 1173.92 1257.45 1159.49 C 1235.54 1176.62 1212.99 1202.58 1189.76 1217.27 C 1184.26 1220.75 1167.17 1224.03 1160.29 1224.98 C 1167.77 1214.19 1183.25 1194.78 1187.97 1184.16 C 1165.87 1199.42 1142.92 1220.06 1119.19 1233.3 C 1115.63 1235.28 1108.65 1236.29 1104.45 1236.99 C 1112.2 1221.52 1125.88 1208.64 1133.7 1193.91 C 1119.58 1200.98 1075.37 1230.37 1062.77 1240.43 C 1056.61 1240.86 1050.75 1241.28 1044.57 1241.45 C 1054.57 1232.02 1075.63 1210.75 1083.42 1200.07 C 1060.92 1213.21 1028.48 1232.02 1004.07 1241.58 C 1001.43 1242.62 991.429 1242.18 987.796 1242.05 C 997.884 1232.06 1017.12 1218.55 1023.72 1210.26 L 1022.12 1210.6 C 1002.46 1214.85 958.718 1239.39 947.842 1236.72 C 949.575 1232.13 973.672 1218.31 981.53 1209.15 C 976.044 1211.01 970.605 1213.01 965.346 1215.44 C 949.302 1222.85 932.049 1226.96 915.69 1233.55 L 894.461 1228.03 C 904.925 1221.61 923.411 1210.92 932.139 1203.01 C 910.199 1208.06 885.596 1213.12 863.152 1215.63 C 862.275 1215.73 844.196 1218.05 854.102 1213.59 C 860.37 1209.07 871.294 1203.26 878.238 1199.46 C 864.073 1200.22 841.947 1205.57 827.644 1209.02 C 810.913 1204.18 791.785 1194.96 776.522 1186.64 C 782.417 1184.21 790.329 1183.21 793.63 1177.87 L 792.638 1176.33 C 782.837 1173.5 760.043 1176.98 748.205 1177.48 C 739.482 1170.23 735.148 1166.35 725.533 1159.68 C 730.681 1158.1 739.548 1156.31 741.722 1151.32 L 741.611 1152.92 L 740.465 1150.66 L 741.191 1150.83 C 733.108 1148.31 717.684 1150.22 709.518 1152.42 C 694.117 1140.26 677.942 1127.72 664.383 1113.6 C 525.36 968.778 535.988 731.936 648.053 574.698 C 664.828 551.161 684.285 531.101 704.504 511.026 C 710.939 517.64 717.571 524.061 724.389 530.28 C 734.857 538.377 746.393 547.267 755.876 556.512 C 774.02 574.163 784.899 585.967 795.181 610.185 C 799.772 620.998 798.227 641.111 803.106 645.736 C 806.507 647.004 804.805 646.928 808.393 645.801 C 809.528 644.541 810.635 643.496 810.823 641.682 C 813.628 614.619 800.444 591.6 784.777 570.784 C 777.905 561.654 770.885 555.33 764.889 547.405 L 764.349 546.679 L 733.665 521.756 C 726.219 517.043 719.625 510.469 713.89 503.819 C 744.985 472.329 819.277 432.102 862.621 422.753 C 956.229 463.552 1080.61 465.295 1175.54 428.061 C 1180.28 426.198 1185 424.308 1189.71 422.389 z" fill="rgb(10,156,122)" transform="translate(0,0)"></path>
<path d="M 724.389 530.28 C 734.857 538.377 746.393 547.267 755.876 556.512 C 735.186 576.577 717.429 597.28 702.598 622.363 C 690.746 642.409 681.946 667.026 666.751 684.75 C 663.297 688.78 657.761 691.195 652.471 691.021 C 647.226 690.849 642.223 688.545 638.614 684.696 C 635.213 681.343 633.812 675.841 634.109 671.294 C 636.767 630.607 696.227 557.859 724.389 530.28 z" fill="rgb(255,255,255)" transform="translate(0,0)"></path>
<path d="M 733.665 521.756 C 768.844 494.026 798.945 472.061 842.015 457.607 C 856.124 452.872 872.929 453.267 871.687 472.833 C 870.419 484.825 849.861 491.392 839.661 496.096 C 830.298 500.507 821.129 505.318 812.179 510.516 C 791.036 522.972 781.925 533.877 764.349 546.679 L 733.665 521.756 z" fill="rgb(255,255,255)" transform="translate(0,0)"></path>
<path d="M 1357.42 1012.82 L 1360.56 1014.38 C 1359.94 1017.26 1359.16 1019.46 1358.73 1022.36 C 1358.16 1020.27 1358.47 1018.51 1356.22 1018.1 L 1354.85 1017.83 C 1355.99 1015.93 1356.5 1014.81 1357.42 1012.82 z" fill="rgb(22,152,131)" transform="translate(0,0)"></path>
<path d="M 854.102 1213.59 C 859.037 1215.53 859.548 1212.67 863.152 1215.63 C 862.275 1215.73 844.196 1218.05 854.102 1213.59 z" fill="rgb(22,152,131)" transform="translate(0,0)"></path>
<path d="M 674.492 1005.13 C 654.911 1004.64 636.719 1001.37 622.187 986.938 C 611.945 976.77 606.886 961.898 607.397 947.518 C 609.82 905.772 651.905 874.296 692.515 876.553 C 731.754 878.733 755.218 919.277 741.583 955.047 C 738.101 964.181 731.95 972.288 727.613 981.032 C 723.707 988.714 723.237 999.213 717.163 1005.71 C 716.059 1006.89 715.657 1006.5 714.079 1006.53 C 709.436 1002 711.362 998.528 712.303 992.4 L 711.487 991.6 C 699.334 1000.13 702.979 1014.45 694.781 1017.76 C 691.381 1016.17 692.735 1017.33 690.681 1014.04 L 690.697 1010.16 C 688.943 1008 688.235 1007.21 686.222 1005.29 C 682.708 1012.38 681.624 1016.8 674.321 1019.53 L 672.458 1019.15 C 669.706 1014.45 672.455 1009.66 674.492 1005.13 z" fill="rgb(18,17,17)" transform="translate(0,0)"></path>
<path d="M 686.222 1005.29 L 687.499 1003.96 C 694.324 996.631 691.446 1006.47 690.697 1010.16 C 688.943 1008 688.235 1007.21 686.222 1005.29 z" fill="rgb(22,152,131)" transform="translate(0,0)"></path>
<path d="M 686.705 884.406 C 762.321 888.278 749.531 994.075 666.716 996.123 C 588.314 993.452 605.627 890.723 686.705 884.406 z" fill="rgb(43,71,111)" transform="translate(0,0)"></path>
<path d="M 1232.1 738.632 C 1246.42 736.25 1260.91 741.741 1270.05 753.01 C 1279.19 764.28 1281.57 779.591 1276.28 793.104 C 1271 806.618 1258.86 816.252 1244.5 818.332 C 1222.62 821.5 1202.27 806.463 1198.87 784.617 C 1195.47 762.771 1210.29 742.261 1232.1 738.632 z" fill="rgb(18,17,17)" transform="translate(0,0)"></path>
<path d="M 799.087 738.863 C 820.798 734.699 841.787 748.878 846.028 770.574 C 850.269 792.27 836.164 813.309 814.483 817.626 C 792.694 821.964 771.527 807.773 767.265 785.97 C 763.003 764.166 777.268 743.049 799.087 738.863 z" fill="rgb(18,17,17)" transform="translate(0,0)"></path>
<path d="M 997.414 865.416 C 1082.39 860.71 1178.02 877.426 1250.5 924.197 C 1254.64 926.873 1261.5 931.45 1258.62 936.827 C 1256.2 937.025 1253.78 936.172 1251.73 934.851 C 1192.56 896.696 1128.39 880.296 1058.25 874.186 C 974.694 868.571 877.492 884.181 806.759 930.804 C 802.925 933.331 796.917 936.95 792.409 935.848 C 792.227 933.637 793.393 930.761 795.02 929.355 C 845.483 885.769 935.615 870.057 997.414 865.416 z" fill="rgb(9,12,12)" transform="translate(0,0)"></path>
<path d="M 635.844 701.302 C 661.898 704.717 650.365 724.549 643.213 740.569 C 636.181 756.32 636.724 769.175 618.336 775.102 C 586.304 767.716 609.558 726.317 619.579 709.286 C 622.068 705.054 627.286 702.728 632.011 701.929 L 635.844 701.302 z" fill="rgb(255,255,255)" transform="translate(0,0)"></path>
<path d="M 1012.58 722.399 C 1032.79 720.98 1051.47 722.481 1070.78 729.086 C 1078.96 731.881 1099.95 740.586 1103.8 748.401 C 1103.39 751.52 1100.37 757.519 1097.01 755.653 C 1076.93 744.506 1063.15 738.596 1040.24 735.188 C 1007.27 731.333 981.679 737.739 954.223 754.752 C 951.895 756.195 950.443 755.896 948.111 755.062 C 933.746 736.648 1001.6 723.31 1012.58 722.399 z" fill="rgb(219,172,108)" transform="translate(0,0)"></path>
<path d="M 1017.46 765.413 C 1028.74 764.118 1072.29 765.923 1076.61 778.667 C 1076.07 782.193 1075.71 782.163 1073.34 784.747 C 1068.7 786.53 1053.24 780.195 1047.29 779.268 C 1041.8 778.411 1036.89 777.839 1031.27 777.429 C 1020.12 776.822 1008.93 777.724 998.02 780.112 C 990.811 781.759 968.673 791.636 972.628 776.198 C 980.401 768.036 1006.35 766.351 1017.46 765.413 z" fill="rgb(219,172,108)" transform="translate(0,0)"></path>
<path d="M 1650.43 759.419 C 1744.35 756.453 1815.45 861.761 1843.06 941.488 C 1900.05 1106.01 1876.39 1316.07 1753.33 1445.53 C 1715.31 1485.52 1672.69 1511.14 1616.61 1511.54 C 1578.01 1510.15 1539.54 1491.68 1511.26 1466.09 C 1434.88 1396.99 1399.34 1289.64 1393.01 1189.69 C 1385.14 1065.34 1421.45 932.046 1505.88 838.691 C 1545.37 795.026 1589.92 763.034 1650.43 759.419 z" fill="rgb(219,172,108)" transform="translate(0,0)"></path>
<path d="M 1655.98 821.35 C 1692.55 817.231 1725.64 829.103 1754.31 851.803 C 1815.66 900.364 1845.55 983.823 1855.2 1059.49 C 1868.96 1167.45 1845.91 1286.36 1779.26 1374.09 C 1749.47 1413.31 1708.51 1445.59 1658.39 1451.62 C 1628.15 1456.57 1589.24 1442.75 1565.57 1424.29 C 1504 1376.27 1471.2 1297.47 1460.26 1221.86 C 1444.39 1112.14 1467.82 993.762 1534.16 903.754 C 1564.44 862.777 1604.59 829.021 1655.98 821.35 z" fill="rgb(18,17,17)" transform="translate(0,0)"></path>
<path d="M 1663.15 829.383 C 1694.07 825.617 1733.37 843.745 1755.89 863.944 C 1816.46 918.272 1843.86 1004.77 1849.57 1083.93 C 1857.2 1189.71 1831.01 1300.41 1761.72 1382.56 C 1734.99 1414.26 1695.66 1440.35 1653.42 1443.25 C 1621.14 1443.86 1592.99 1435.9 1567.63 1414.84 C 1482.66 1344.37 1458.87 1226.1 1465.32 1121.15 C 1472.07 1011.5 1539.52 843.571 1663.15 829.383 z" fill="rgb(10,156,122)" transform="translate(0,0)"></path>
<path d="M 1682.85 892.412 C 1708.48 891.699 1737.88 902.907 1756.73 920.041 C 1840.23 995.943 1850.77 1142.72 1814.03 1243.57 C 1789.34 1311.33 1742.51 1376.27 1669.1 1382.76 C 1570.21 1378.46 1524.53 1269.05 1518.07 1183.56 C 1510.69 1085.82 1539.54 972.031 1623.16 912.842 C 1641.73 899.702 1660.43 894.148 1682.85 892.412 z" fill="rgb(18,17,17)" transform="translate(0,0)"></path>
<path d="M 1676.66 901.374 C 1700.73 897.396 1730.13 909.877 1748.55 924.668 C 1794.34 961.437 1816.86 1026.43 1823.61 1083.28 C 1832.96 1162.04 1814.22 1252.76 1765.76 1316.53 C 1745.05 1343.16 1711.99 1369.28 1677.25 1373.06 C 1587.1 1382.42 1536.23 1273.18 1527.82 1198.52 C 1518.54 1116.05 1533.83 1026.57 1585.68 959.635 C 1608.67 929.952 1638.77 906.085 1676.66 901.374 z" fill="rgb(219,172,108)" transform="translate(0,0)"></path>
<path d="M 1690.22 966.308 C 1771.16 958.364 1804.7 1059.35 1804.78 1123.7 C 1804.87 1194.85 1774.94 1293.62 1695.41 1308.77 C 1686.98 1309.35 1675.91 1309.49 1667.88 1307.05 C 1536.26 1267.04 1561.8 986.973 1690.22 966.308 z" fill="rgb(18,17,17)" transform="translate(0,0)"></path>
<path d="M 1689.43 975.209 C 1750.18 969.599 1778.96 1024.32 1791.25 1076.03 C 1808.45 1148.35 1782.97 1282.13 1696.15 1299.9 C 1636.44 1306.09 1605.16 1251.11 1594.06 1200.16 C 1581.64 1143.15 1591.44 1074.98 1622.98 1025.37 C 1639.82 998.89 1658.46 981.982 1689.43 975.209 z" fill="rgb(43,71,111)" transform="translate(0,0)"></path>
<path d="M 1026.25 134.788 C 1040.35 166.409 1070.6 190.949 1098.21 210.984 L 1097.01 211.848 C 1065.88 233.927 1073.81 275.103 1109.15 287.06 C 1122.89 291.783 1137.96 290.736 1150.93 284.16 C 1176.74 271.022 1178.55 247.455 1166.12 223.922 C 1202.02 203.023 1237.26 189.82 1279.38 188.643 C 1228.29 247.61 1202.45 305.167 1185.87 381.163 C 1129.13 405.578 1086.72 411.531 1025.05 412.363 C 981.888 412.234 940.109 408.39 898.739 394.908 C 888.111 391.444 877.096 386.284 866.624 381.955 C 848.928 307.461 825.755 244.698 771.665 188.013 C 819.315 191.728 843.147 202.065 883.787 223.89 C 878.583 232.92 875.347 240.706 876.029 251.532 C 876.608 262.318 881.605 272.389 889.843 279.375 C 919.825 304.813 975.878 283.783 971.847 240.668 C 970.582 227.135 961.814 219.58 952.051 211.675 C 985.57 186.978 1005.08 171.842 1026.25 134.788 z" fill="rgb(219,172,108)" transform="translate(0,0)"></path>
<path d="M 1206.69 280.674 C 1207.09 281.059 1207.72 282.306 1208.03 282.858 C 1207.75 291.49 1185.04 357.903 1181.56 370.706 C 1180.95 372.926 1179.21 376.24 1177.34 378.053 C 1169.72 385.424 1152.99 390.674 1142.51 390.697 L 1139.89 386.952 C 1139.82 386.074 1139.75 385.196 1139.69 384.319 C 1146.25 379.954 1156.63 372.14 1161.89 367.259 C 1181.63 348.931 1191.8 299.478 1206.69 280.674 z" fill="rgb(18,17,17)" transform="translate(0,0)"></path>
<path d="M 1065.13 253.327 C 1066.43 253.773 1068.69 254.251 1068.67 256.117 C 1067.89 320.012 1137.33 326.024 1172.95 286.815 C 1176.18 283.266 1180.95 274.352 1184.43 271.817 C 1185.15 274.872 1184.49 274.903 1183.33 278.403 C 1181.44 281.996 1179.72 285.041 1177.45 288.465 C 1149.2 331.122 1071.05 330.787 1062.19 272.102 C 1061.15 265.196 1060.8 259.201 1065.13 253.327 z" fill="rgb(9,12,12)" transform="translate(0,0)"></path>
<path d="M 980.23 257.28 C 982.865 258.556 983.739 258.467 985.377 260.593 C 988.457 264.569 987.451 270.842 986.602 275.438 C 980.072 310.807 944.456 324.444 912.581 316.468 C 890.469 310.935 879.714 301.328 867.881 282.566 C 865.386 277.906 864.034 273.227 862.348 268.218 C 866.291 272.78 871.127 280.592 875.248 285.779 C 886.828 300.158 903.75 309.218 922.137 310.882 C 937.112 312.358 953.715 309.126 965.046 298.881 C 980.639 284.781 978.754 274.825 980.23 257.28 z" fill="rgb(9,12,12)" transform="translate(0,0)"></path>
<path d="M 825.427 222.287 L 828.216 223.216 C 830.682 226.02 839.824 244.754 841.226 248.182 C 848.561 266.113 893.364 353.933 886.365 368.664 L 883.165 368.919 C 879.396 361.986 868.227 329.876 864.548 320.473 C 857.135 301.479 849.405 282.61 841.363 263.874 C 837.925 255.995 824.586 228.916 825.427 222.287 z" fill="rgb(255,255,255)" transform="translate(0,0)"></path>
<path d="M 1024.21 162.51 C 1026.18 163.435 1027.25 164.334 1026.53 166.745 C 1020.2 187.932 1006.69 202.445 990 216.115 C 992.751 217.911 995.383 219.883 997.879 222.02 C 1009.65 232.147 1021.26 261.094 1015.9 276.164 L 1014.3 276.654 L 1012.8 274.458 C 1005.85 240.922 1003.33 238.945 977.928 216.256 C 984.944 208.056 997.279 199.28 1005.21 190.858 C 1014.34 181.158 1017.13 173.428 1024.21 162.51 z" fill="rgb(255,255,255)" transform="translate(0,0)"></path>
<path d="M 1019.18 321.557 C 1023.86 325.048 1022.65 368.938 1021.5 376.278 C 1021.31 376.097 1019.48 374.433 1019.47 374.279 C 1018.27 364.432 1017.38 329.514 1019.18 321.557 z" fill="rgb(250,248,237)" transform="translate(0,0)"></path>
<path d="M 503.578 1869.53 C 478.153 1857.09 474.693 1846.28 470.757 1819.57 C 459.512 1743.28 537.266 1677.38 607.545 1671.16 C 634.376 1668.78 694.732 1684.59 719.628 1695.58 C 736.16 1702.75 751.631 1712.16 765.608 1723.53 C 787.575 1741.49 808.774 1767 814.932 1795.25 C 816.909 1804.32 817.873 1815.54 818.832 1824.9 C 824.222 1804.68 822.455 1774.85 816.612 1754.52 C 829.786 1757.39 839.412 1758.12 852.782 1758.87 C 858.036 1759.17 871.064 1759.47 875.321 1760.76 L 878.151 1760.93 C 880.987 1759.56 884.866 1759.89 888.152 1759.86 C 889.39 1759.67 890.626 1759.47 891.861 1759.26 C 896.745 1758.47 901.614 1757.58 906.464 1756.6 C 907.03 1760.45 907.693 1764.15 908.155 1768 C 909.17 1777.1 909.843 1786.24 910.172 1795.4 L 907.477 1797.47 C 903.975 1800.19 898.661 1805.24 894.386 1805.37 L 893.47 1805.25 C 891.486 1809.3 881.555 1813.38 877.219 1814.83 C 853.091 1828.47 806.079 1830.92 778.454 1830.35 C 759.967 1840.89 747.477 1849.28 729.956 1861.47 C 731.166 1855.43 734.369 1834.07 735.706 1829.69 L 731.476 1829.96 C 729.002 1842.36 724.165 1854.72 722.01 1866.67 C 712.39 1872.81 702.29 1878.17 691.808 1882.69 C 693.131 1875.01 695.855 1861.84 693.808 1854.6 C 690.089 1858.76 687.288 1878.62 686.116 1885.19 C 680.859 1886.75 675.594 1888.27 670.32 1889.77 C 671.702 1881.53 673.195 1873.26 674.073 1864.96 L 670.907 1861.72 C 668.724 1871.7 666.492 1881.66 664.21 1891.61 C 641.723 1894.84 630.98 1895.31 608.749 1894.75 C 604.232 1888.64 595.594 1873.71 592.054 1869.95 L 591.264 1870.78 C 592.261 1880.22 596.568 1885.38 601.667 1893.45 C 591.572 1892.88 583.008 1891.19 573.152 1889.35 C 569.606 1880.84 566.251 1872.42 561.99 1864.24 C 562.524 1874.72 563.524 1878.01 566.382 1887.92 C 559.316 1886.74 552.902 1884.96 545.981 1883.15 C 540.003 1871.85 534.617 1858.79 528.614 1846.96 L 528.732 1847.77 L 528.946 1849.12 C 530.911 1862.05 533.89 1868.59 539.063 1880.85 C 528.47 1878.19 519.607 1875.19 509.421 1871.54 C 507.901 1861.78 504.668 1850.76 501.043 1841.55 C 498.954 1845.94 502.594 1863.78 503.578 1869.53 z" fill="rgb(219,172,108)" transform="translate(0,0)"></path>
<path d="M 891.861 1759.26 C 896.745 1758.47 901.614 1757.58 906.464 1756.6 C 907.03 1760.45 907.693 1764.15 908.155 1768 C 909.17 1777.1 909.843 1786.24 910.172 1795.4 L 907.477 1797.47 C 903.975 1800.19 898.661 1805.24 894.386 1805.37 L 893.47 1805.25 C 890.595 1793.21 890.474 1773.56 888.152 1759.86 C 889.39 1759.67 890.626 1759.47 891.861 1759.26 z" fill="rgb(219,172,108)" transform="translate(0,0)"></path>
<path d="M 888.152 1759.86 C 889.39 1759.67 890.626 1759.47 891.861 1759.26 C 895.467 1771.91 896.42 1792.56 894.386 1805.37 L 893.47 1805.25 C 890.595 1793.21 890.474 1773.56 888.152 1759.86 z" fill="rgb(9,12,12)" transform="translate(0,0)"></path>
<path d="M 878.151 1760.93 C 880.769 1770.03 879.791 1804.92 876.942 1814.35 C 874.181 1811.03 874.548 1766.05 875.321 1760.76 L 878.151 1760.93 z" fill="rgb(9,12,12)" transform="translate(0,0)"></path>
<path d="M 670.907 1861.72 C 671.254 1860.58 672.042 1856.3 673.395 1855.88 C 674.545 1856.54 674.082 1863.74 674.073 1864.96 L 670.907 1861.72 z" fill="rgb(9,12,12)" transform="translate(0,0)"></path>
<path d="M 731.476 1829.96 C 733.688 1824.36 734.298 1822.94 735.706 1829.69 L 731.476 1829.96 z" fill="rgb(9,12,12)" transform="translate(0,0)"></path>
<path d="M 566.427 1715.25 C 580.557 1718.2 579.681 1729.56 569.05 1736.16 C 557.31 1743.46 549.799 1756.38 539.299 1761.73 C 507.181 1756.06 545.451 1719.11 564.461 1715.65 L 566.427 1715.25 z" fill="rgb(255,255,255)" transform="translate(0,0)"></path>
<path d="M 617.088 1690.29 C 628.095 1689.29 633.675 1694.59 628.945 1706.45 C 626.13 1713.52 607.626 1716.76 600.013 1718.59 C 591.066 1719.09 583.256 1712.51 587.576 1703.14 C 590.757 1696.24 609.306 1691.63 617.088 1690.29 z" fill="rgb(255,255,255)" transform="translate(0,0)"></path>
<path d="M 509.071 1766.11 C 533.386 1764.33 529.058 1785.32 516.149 1795.48 C 496.408 1799.43 494.497 1777.01 509.071 1766.11 z" fill="rgb(255,255,255)" transform="translate(0,0)"></path>
<path d="M 685.78 1716.65 C 686.054 1716.76 687.725 1717.31 687.902 1717.49 C 704.48 1735.04 721.334 1765.44 722.9 1789.31 C 717.483 1788.1 717.388 1782.59 715.859 1777.51 C 711.363 1762.56 703.735 1749.16 696.087 1735.65 C 692.494 1729.3 687.925 1723.6 685.78 1716.65 z" fill="rgb(250,248,237)" transform="translate(0,0)"></path>
<path d="M 611.094 1767.64 C 617.929 1783.05 612.337 1833.58 606.268 1850.4 C 602.415 1848.68 605.147 1842.14 605.881 1837.99 C 608.077 1825.58 608.572 1813.36 609.878 1800.99 C 610.852 1791.77 608.927 1775.68 611.094 1767.64 z" fill="rgb(250,248,237)" transform="translate(0,0)"></path>
<path d="M 748.086 1733.37 C 758.408 1738.32 774.707 1776.72 773.624 1788.73 C 771.396 1788.13 769.813 1788.36 769.115 1785.99 C 765.391 1773.34 761.331 1761.12 754.78 1749.62 C 751.633 1744.09 747.959 1739.77 748.086 1733.37 z" fill="rgb(250,248,237)" transform="translate(0,0)"></path>
<path d="M 858.662 1765.51 C 867.536 1772.98 862.24 1804.34 859.908 1814.79 C 856.664 1818.84 858.538 1807 858.587 1806.72 C 861.128 1792.36 858.95 1779.67 858.662 1765.51 z" fill="rgb(9,12,12)" transform="translate(0,0)"></path>
<path d="M 664.169 1787.46 C 670.728 1792.2 676.906 1814.97 676.814 1822.63 C 671.24 1818.96 664.069 1793.68 664.169 1787.46 z" fill="rgb(250,248,237)" transform="translate(0,0)"></path>
<path d="M 843.673 1763.5 C 848.882 1767.81 850.42 1780.22 850.996 1786.72 C 841.323 1786.66 843.583 1771.35 843.673 1763.5 z" fill="rgb(9,12,12)" transform="translate(0,0)"></path>
<path d="M 1229.87 1822.39 C 1229.89 1765.05 1268.2 1726 1316.92 1700.19 C 1344.51 1685.58 1373.42 1680.33 1403.46 1674.09 C 1428.39 1667.8 1446.71 1670.63 1471.05 1678.3 C 1535.13 1698.51 1595.23 1766.82 1572.32 1837.14 C 1566.47 1855.1 1558.45 1861.36 1541.79 1869.4 C 1543.57 1861.77 1544.7 1855.65 1545.92 1847.9 L 1542.67 1846.37 C 1540.72 1855.09 1538.27 1863.69 1535.35 1872.12 C 1524.85 1875.86 1517.29 1878.24 1506.55 1881.19 C 1509.32 1875.79 1517.89 1859.05 1516.4 1853.24 C 1512.84 1857.09 1503.58 1876.54 1499.65 1883.18 C 1493.57 1884.91 1484.38 1887.9 1478.39 1888.05 C 1476.17 1888.07 1476.3 1888 1474.25 1887.08 C 1470.83 1892.69 1449.9 1893.22 1443.03 1893.86 C 1450.79 1882.94 1452.28 1879.48 1455.66 1866.57 C 1450.68 1873.21 1442.3 1886.95 1437.35 1894.46 C 1418.87 1895.71 1400.31 1894.85 1382.02 1891.89 C 1380.66 1881.62 1375.17 1860.71 1371.85 1850.85 C 1370.82 1865.03 1373.77 1877.02 1376.85 1890.69 L 1361.9 1885.56 C 1359.36 1875.13 1356.41 1857.79 1352.43 1848.96 C 1351.6 1861.09 1352.71 1870.4 1354.49 1882.42 C 1344.88 1878.5 1334.43 1873.15 1325.43 1868.09 C 1320.15 1852.84 1316.61 1836.76 1311.11 1821.03 C 1311.2 1836.15 1313.63 1849.58 1317.38 1864.13 C 1298.35 1849.38 1288.46 1841.7 1267.3 1830.02 C 1231.04 1831.27 1206.77 1828.76 1172.39 1816.55 C 1172.87 1797.99 1172.81 1778.69 1173.07 1760.03 C 1195.73 1760.02 1210.96 1758.31 1232.62 1752.88 C 1226.24 1772 1221.79 1803.79 1229.87 1822.39 z" fill="rgb(219,172,108)" transform="translate(0,0)"></path>
<path d="M 1474.25 1887.08 C 1478.22 1878.5 1480.05 1874.12 1484.98 1866.12 L 1483.94 1871.37 C 1482.55 1878.16 1481.01 1881.73 1478.39 1888.05 C 1476.17 1888.07 1476.3 1888 1474.25 1887.08 z" fill="rgb(9,12,12)" transform="translate(0,0)"></path>
<path d="M 1542.67 1846.37 C 1547.66 1835.2 1546.48 1842.05 1545.92 1847.9 L 1542.67 1846.37 z" fill="rgb(9,12,12)" transform="translate(0,0)"></path>
<path d="M 1479.4 1714.87 C 1491.62 1714.4 1510.43 1731.94 1516.91 1741.99 C 1523.77 1752.66 1517.78 1757.18 1509.16 1761.89 C 1500.13 1759.35 1494.15 1750.33 1487.24 1743.75 C 1473.42 1730.6 1458.77 1728.02 1479.4 1714.87 z" fill="rgb(255,255,255)" transform="translate(0,0)"></path>
<path d="M 1421.65 1690.04 C 1432.17 1689.11 1437.96 1690.4 1447.78 1694.36 C 1459.71 1699.17 1466.24 1709.69 1453.22 1718 C 1441.09 1718.96 1439.1 1715.81 1428.05 1713.65 C 1416.54 1711.4 1409.87 1698.82 1420.2 1691.16 L 1421.65 1690.04 z" fill="rgb(255,255,255)" transform="translate(0,0)"></path>
<path d="M 1529.97 1764.93 C 1549.55 1764.8 1554.79 1788.04 1536.86 1796.64 C 1526.44 1796.16 1519.98 1785.82 1521.31 1776.49 C 1521.89 1772.54 1524.07 1769.01 1527.36 1766.73 C 1528.2 1766.14 1529.1 1765.54 1529.97 1764.93 z" fill="rgb(255,255,255)" transform="translate(0,0)"></path>
<path d="M 1358.85 1716.61 C 1359.28 1717.01 1359.71 1717.41 1360.14 1717.81 C 1361.35 1719.33 1357.33 1724.63 1356.31 1726.24 C 1345.37 1743.57 1334.37 1761.66 1330.21 1782.02 C 1329.52 1785.4 1329.33 1786.05 1328.13 1789.41 C 1314.4 1777.09 1350.62 1727.68 1358.85 1716.61 z" fill="rgb(250,248,237)" transform="translate(0,0)"></path>
<path d="M 1296.63 1734.58 C 1301.71 1736.46 1294.42 1745.47 1292.12 1749.57 C 1285.07 1762.12 1281.67 1775.65 1275.89 1788.41 C 1274.99 1787.66 1272.51 1785.96 1272.86 1784.5 C 1276.54 1768.81 1285.26 1746.15 1296.63 1734.58 z" fill="rgb(255,255,255)" transform="translate(0,0)"></path>
<path d="M 1434.3 1767.71 C 1435.69 1773.73 1434.7 1782.12 1435.14 1788.5 C 1436.02 1800.95 1437.18 1813.22 1438.93 1825.5 C 1439.88 1832.11 1443.22 1846.85 1441.51 1852.33 C 1433.6 1837.88 1429.26 1783.13 1434.3 1767.71 z" fill="rgb(250,248,237)" transform="translate(0,0)"></path>
<path d="M 1188.16 1764.62 C 1188.96 1766.91 1189.24 1774.55 1188.39 1776.19 C 1185.55 1781.69 1191.29 1814.3 1187.65 1815.44 C 1184.77 1801.93 1181.39 1777.12 1188.16 1764.62 z" fill="rgb(9,12,12)" transform="translate(0,0)"></path>
<path d="M 1380.26 1788.55 C 1384.23 1792.1 1374.77 1818.83 1371.33 1822.82 C 1366.72 1816.07 1376.42 1795.07 1380.26 1788.55 z" fill="rgb(250,248,237)" transform="translate(0,0)"></path>
<path d="M 1203.31 1763.65 C 1206.7 1766.71 1203.42 1784.52 1201.58 1788.62 C 1195.62 1781.7 1199.97 1771.3 1203.31 1763.65 z" fill="rgb(9,12,12)" transform="translate(0,0)"></path>
<path d="M 1100.81 1550.78 C 1100.84 1532.08 1108.31 1467.58 1122.27 1456.83 C 1127.37 1461.94 1108.68 1489.89 1125.67 1498.07 C 1126.73 1498.87 1127.49 1499.32 1128.61 1500.01 C 1131.75 1498.53 1132.89 1499.58 1137.2 1500.4 C 1138.67 1500.48 1138.76 1500.77 1139.7 1501.84 C 1142.81 1499.84 1166.07 1501 1168.82 1503.45 L 1169.27 1506.04 C 1170.45 1503.46 1173.56 1504.08 1175.76 1505.08 L 1176.61 1502.27 C 1181.49 1501.56 1206.72 1503 1213.61 1503.14 C 1232.49 1503.53 1245.8 1502.33 1264.41 1500.26 C 1265.1 1504.14 1265.12 1506.95 1267.66 1509.86 L 1269.13 1509.88 C 1270.72 1506.88 1269.81 1504.07 1269.33 1500.54 C 1305.74 1503.66 1326.93 1506 1356.84 1480.87 C 1360.42 1477.81 1363.93 1474.67 1367.38 1471.46 C 1371.99 1477.01 1373.82 1479.82 1380.23 1483.14 L 1381.85 1482.02 L 1381.29 1483.65 L 1382.19 1482.78 C 1379.58 1478.41 1374.16 1470.67 1373.52 1466.2 L 1374.53 1464.48 C 1383.01 1463.34 1402.91 1491.06 1406.92 1498.85 C 1406.74 1503.44 1402.67 1505.12 1403.27 1506.37 C 1409.21 1518.7 1411.96 1526.65 1414.33 1540.08 C 1408.4 1557.05 1392.78 1570.8 1376.82 1578.41 C 1347.12 1592.58 1261.11 1606.82 1226.28 1611.62 C 1225.86 1605.8 1226.04 1600.27 1223.41 1595.22 L 1221.62 1593.94 C 1217.16 1597.59 1219.41 1607.13 1220.01 1612.43 C 1201.88 1610.43 1137.32 1595.7 1131.42 1576.86 C 1130.16 1576.88 1130.24 1576.84 1129.06 1577.16 C 1122.13 1575.86 1105.11 1557.07 1100.81 1550.78 z" fill="rgb(219,172,108)" transform="translate(0,0)"></path>
<path d="M 1100.81 1550.78 C 1100.84 1532.08 1108.31 1467.58 1122.27 1456.83 C 1127.37 1461.94 1108.68 1489.89 1125.67 1498.07 C 1126.73 1498.87 1127.49 1499.32 1128.61 1500.01 C 1131.75 1498.53 1132.89 1499.58 1137.2 1500.4 C 1138.67 1500.48 1138.76 1500.77 1139.7 1501.84 C 1135.03 1523.78 1133.1 1538.84 1131.71 1561.26 C 1129.45 1564.28 1132.1 1567.75 1129.26 1572.76 C 1129.17 1574.26 1129.1 1575.66 1129.06 1577.16 C 1122.13 1575.86 1105.11 1557.07 1100.81 1550.78 z" fill="rgb(219,172,108)" transform="translate(0,0)"></path>
<path d="M 1137.2 1500.4 C 1138.67 1500.48 1138.76 1500.77 1139.7 1501.84 C 1135.03 1523.78 1133.1 1538.84 1131.71 1561.26 C 1129.45 1564.28 1132.1 1567.75 1129.26 1572.76 C 1127.99 1552.25 1125.99 1518.64 1137.2 1500.4 z" fill="rgb(9,12,12)" transform="translate(0,0)"></path>
<path d="M 1125.67 1498.07 C 1126.73 1498.87 1127.49 1499.32 1128.61 1500.01 C 1121.51 1524.84 1120.47 1535.8 1118.95 1561.56 C 1113.51 1542.29 1114.28 1530.08 1120.12 1510.88 C 1121.8 1505.37 1122.2 1502.69 1125.67 1498.07 z" fill="rgb(9,12,12)" transform="translate(0,0)"></path>
<path d="M 1169.27 1506.04 C 1170.45 1503.46 1173.56 1504.08 1175.76 1505.08 C 1176.32 1510.14 1176.98 1516.25 1176.53 1520.88 C 1176.21 1524.14 1172.64 1528.05 1170.09 1525.36 C 1167.74 1522.9 1169 1508.36 1169.27 1506.04 z" fill="rgb(9,12,12)" transform="translate(0,0)"></path>
<path d="M 1129.26 1572.76 C 1132.1 1567.75 1129.45 1564.28 1131.71 1561.26 C 1132.16 1565.79 1132.14 1572.33 1131.42 1576.86 C 1130.16 1576.88 1130.24 1576.84 1129.06 1577.16 C 1129.1 1575.66 1129.17 1574.26 1129.26 1572.76 z" fill="rgb(41,27,16)" transform="translate(0,0)"></path>
<path d="M 1352.46 1496.6 C 1366.15 1499.59 1375.17 1532.65 1377.89 1544.51 L 1378.81 1549.01 C 1380.33 1556.86 1383.62 1559.25 1379.8 1565.39 C 1373.55 1565.85 1374.35 1566.07 1372.8 1559.53 C 1367.93 1539.02 1362.35 1518.12 1351.5 1499.88 C 1351.05 1499.11 1352.27 1497.02 1352.46 1496.6 z" fill="rgb(255,255,255)" transform="translate(0,0)"></path>
<path d="M 1335.4 1506.57 C 1348.12 1512.19 1367.27 1558.99 1360.18 1571.63 C 1354.88 1570.72 1355.92 1570.34 1354.33 1564.43 L 1353.84 1562.53 C 1348.86 1543.86 1342.77 1528.04 1333.91 1510.99 C 1333.23 1509.69 1334.82 1507.52 1335.4 1506.57 z" fill="rgb(255,255,255)" transform="translate(0,0)"></path>
<path d="M 1323.47 1528.58 C 1335.17 1532.65 1347.47 1572.5 1342.45 1581.07 C 1342.07 1581.05 1337.84 1581.04 1337.6 1580.5 C 1335.82 1576.49 1334.76 1570.95 1333.61 1566.59 C 1330.52 1554.97 1325.83 1544.24 1321.84 1532.99 C 1321.31 1531.48 1322.68 1529.83 1323.47 1528.58 z" fill="rgb(255,255,255)" transform="translate(0,0)"></path>
<path d="M 1304.13 1534.51 C 1305.36 1534.63 1309.33 1534.52 1309.94 1535.99 C 1314.27 1546.57 1326.29 1574.49 1324.63 1584.87 C 1318.18 1584.58 1318.06 1585.2 1316.33 1578.43 C 1314 1569.28 1310.99 1560.23 1308.23 1551.21 C 1306.5 1545.55 1303.83 1540.38 1304.13 1534.51 z" fill="rgb(255,255,255)" transform="translate(0,0)"></path>
<path d="M 1153.27 1508.58 C 1154.22 1509.41 1155.01 1510.05 1154.83 1511.45 C 1151.93 1534.6 1150.85 1558.32 1153.92 1581.51 C 1154.4 1585.12 1154.73 1585.79 1153.7 1589.12 C 1145.56 1573.77 1147.21 1524.99 1153.27 1508.58 z" fill="rgb(9,12,12)" transform="translate(0,0)"></path>
<path d="M 1248.08 1520.23 C 1248.79 1520.58 1249.55 1520.86 1250.2 1521.32 C 1251.06 1521.93 1251.66 1546.12 1251.88 1549 C 1252.19 1552.97 1252.57 1557.08 1253.34 1560.99 C 1253.5 1561.83 1253.71 1562.67 1253.85 1563.51 C 1254.49 1567.2 1255.03 1569.25 1253.84 1572.78 C 1243.97 1565.82 1244.89 1530.63 1248.08 1520.23 z" fill="rgb(250,248,237)" transform="translate(0,0)"></path>
<path d="M 1393.49 1578.01 C 1395.88 1583.18 1397.78 1590.12 1403.38 1592.01 L 1404.43 1591.04 C 1403.54 1584.4 1399.91 1578.42 1400.37 1573.4 L 1401.92 1572.31 C 1408.8 1574.21 1429.31 1605.83 1433.12 1612.53 C 1434.64 1615.16 1435.98 1617.89 1437.15 1620.7 L 1430.42 1628.17 C 1434.63 1635.02 1446.86 1655.06 1437.8 1661.77 C 1420.7 1661.75 1403.75 1661.65 1386.72 1663.48 C 1333.49 1669.22 1265.6 1695.05 1236.33 1743.02 C 1231.21 1742.89 1224.6 1742.93 1219.62 1742.59 C 1218.23 1742.44 1216.92 1742.33 1215.53 1742.22 C 1187.85 1739.91 1164.53 1730.97 1140.89 1717.19 C 1139.73 1716.79 1139.89 1716.84 1138.95 1715.95 C 1126.8 1708.34 1110.78 1697.94 1100.63 1687.99 C 1090.74 1656.42 1102.05 1613 1117.04 1584.62 C 1118.47 1581.93 1119.95 1579.27 1121.47 1576.63 C 1118.41 1589.05 1111.87 1609.1 1115.53 1621 C 1117.28 1622.75 1122.61 1625.98 1122.37 1627.39 C 1120.1 1640.8 1112.18 1681.2 1118.23 1693.74 L 1119.57 1692.82 C 1120.64 1686.58 1120.22 1680.78 1120.63 1674.47 C 1121.58 1659.7 1123.12 1640.49 1127.52 1626.52 C 1143.06 1628.64 1176.32 1631.03 1191.41 1627.52 C 1216.54 1621.68 1238.51 1622.7 1263 1619.93 C 1301.06 1615.62 1356.2 1606.46 1387.01 1583.16 C 1389.2 1581.48 1391.37 1579.77 1393.49 1578.01 z" fill="rgb(219,172,108)" transform="translate(0,0)"></path>
<path d="M 1138.28 1709.72 C 1133 1683.24 1133.08 1652.66 1144.27 1627.69 C 1144.17 1635.72 1143.79 1640.03 1142.12 1648.01 C 1138.52 1665.23 1140.08 1682.4 1140.12 1699.72 C 1139.89 1702.64 1140.86 1708.84 1138.28 1709.72 z" fill="rgb(9,12,12)" transform="translate(0,0)"></path>
<path d="M 1206.07 1703.85 C 1209.29 1709.37 1209.59 1711.09 1211.23 1717.48 C 1213.38 1726.06 1216.18 1734.45 1219.62 1742.59 C 1218.23 1742.44 1216.92 1742.33 1215.53 1742.22 C 1208.79 1728.65 1208.01 1718.69 1206.07 1703.85 z" fill="rgb(9,12,12)" transform="translate(0,0)"></path>
<path d="M 1140.12 1699.72 C 1141.17 1705.66 1141.14 1711.16 1140.89 1717.19 C 1139.73 1716.79 1139.89 1716.84 1138.95 1715.95 C 1138.85 1713.21 1138.73 1712.46 1138.28 1709.72 C 1140.86 1708.84 1139.89 1702.64 1140.12 1699.72 z" fill="rgb(41,27,16)" transform="translate(0,0)"></path>
<path d="M 1380.87 1606.55 C 1389.3 1611.3 1401.34 1642.53 1399.11 1651.62 C 1394.95 1651.42 1393.47 1652.35 1392.23 1648.03 C 1389.2 1637.1 1385.41 1626.4 1380.88 1616.01 C 1379.27 1612.24 1378.18 1611.23 1380.22 1607.73 L 1380.87 1606.55 z" fill="rgb(255,255,255)" transform="translate(0,0)"></path>
<path d="M 1290.56 1634.48 C 1300.37 1636.29 1297.44 1641.26 1300.8 1650.52 C 1301.68 1652.93 1302.37 1657.85 1302.84 1660.52 L 1304.26 1668.99 C 1304.87 1672.79 1305.43 1676.7 1305.93 1680.52 C 1304.57 1680.62 1301.51 1681.09 1300.33 1680.46 C 1300.99 1681.51 1291.49 1638.18 1290.56 1634.48 z" fill="rgb(255,255,255)" transform="translate(0,0)"></path>
<path d="M 1361.48 1618.32 C 1361.95 1618.46 1364.61 1619.11 1364.75 1619.36 C 1368.87 1626.53 1377.93 1646.94 1373.76 1654.57 C 1373.05 1654.46 1372.33 1654.36 1371.62 1654.27 C 1371.03 1654.19 1369.02 1653.92 1368.97 1653.68 C 1367.53 1647.65 1358.32 1623.5 1360.81 1619.47 L 1361.48 1618.32 z" fill="rgb(250,248,237)" transform="translate(0,0)"></path>
<path d="M 1343.44 1622.94 C 1350.98 1625.21 1350.21 1627.87 1352.63 1636.07 C 1354.99 1644.05 1358.14 1653.4 1358.28 1661.68 C 1350 1660.56 1351.48 1660.35 1349.17 1650.98 L 1348.32 1647.44 C 1346.93 1641.56 1342.77 1627.87 1343.44 1622.94 z" fill="rgb(255,255,255)" transform="translate(0,0)"></path>
<path d="M 1165.31 1650.76 C 1166.63 1652.03 1166.46 1651.96 1166.31 1653.93 C 1165.08 1670.83 1166.13 1688.18 1167.84 1705 C 1168.35 1710.52 1169.01 1716.02 1169.83 1721.5 C 1170.47 1725.92 1170.92 1726.2 1169.82 1730.3 C 1162.81 1713.83 1159.57 1667.33 1165.31 1650.76 z" fill="rgb(9,12,12)" transform="translate(0,0)"></path>
<path d="M 1220.8 1652.53 C 1223.53 1655.26 1225.97 1689.07 1223.68 1691.28 L 1223.14 1690.39 C 1218.2 1682.45 1216.11 1660.12 1220.8 1652.53 z" fill="rgb(250,248,237)" transform="translate(0,0)"></path>
<path d="M 610.066 1619.65 C 615.136 1610.31 635.246 1577.91 644.638 1573.01 L 646.322 1573.39 C 648.94 1580.16 639.582 1586.59 643.754 1594.01 L 645.41 1593.87 C 649.13 1589.2 651.275 1584.54 654.04 1579.26 C 704.808 1613.67 766.854 1618.65 825.975 1622.91 C 836.678 1623.68 848.027 1626.84 858.81 1627.86 C 874.829 1629.39 904.18 1630.37 919.546 1627.73 C 928.973 1663.04 925.22 1667.75 927.229 1700.38 C 932.719 1671.41 931.269 1656.29 924.702 1627.43 C 928.323 1625.25 930.939 1624.02 931.908 1619.65 C 934.62 1607.42 929.944 1589.48 927.455 1577.09 C 944.707 1605.03 952.684 1647.58 948.032 1680.15 C 946.214 1692.87 919.388 1712.59 908.4 1716.2 L 907.349 1716.28 C 904.747 1720.35 884.742 1729.57 880.069 1729.47 C 879.519 1729.12 878.253 1728.25 877.48 1727.96 C 876.958 1729.61 876.794 1729.75 875.98 1731.29 C 864.247 1737.69 844.195 1740.5 830.734 1742.39 C 836.885 1731.04 838.89 1723.71 839.554 1710.85 C 837.725 1710.44 838.066 1709.9 837.872 1708.12 C 835.239 1721.24 832.589 1729.85 826.783 1741.97 C 821.705 1742.11 816.404 1742.33 811.345 1742.33 C 775.574 1695.06 722.882 1671.9 665.089 1664.05 C 656.271 1662.85 647.391 1662.14 638.493 1661.95 C 611.184 1661.58 592.246 1666.96 614.225 1630.79 C 617.278 1625.77 613.458 1623.06 610.066 1619.65 z" fill="rgb(219,172,108)" transform="translate(0,0)"></path>
<path d="M 903.162 1628.16 C 904 1630.41 904.866 1632.64 905.76 1634.87 C 914.686 1657.35 913.596 1692.73 908.4 1716.2 L 907.349 1716.28 C 906.376 1707.91 907.464 1695.35 908.011 1686.5 C 909.255 1666.37 903.585 1647.67 903.162 1628.16 z" fill="rgb(9,12,12)" transform="translate(0,0)"></path>
<path d="M 877.48 1727.96 C 880.314 1703.57 882.596 1679.62 881.009 1655 C 880.944 1653.99 880.748 1650.25 882.407 1650.16 C 882.981 1650.66 883.39 1656.77 883.564 1658 C 886.378 1677.81 884.52 1698.26 881.889 1717.99 C 881.29 1722.4 880.459 1724.7 880.069 1729.47 C 879.519 1729.12 878.253 1728.25 877.48 1727.96 z" fill="rgb(9,12,12)" transform="translate(0,0)"></path>
<path d="M 837.872 1708.12 C 840.542 1707.52 840.015 1708.6 839.554 1710.85 C 837.725 1710.44 838.066 1709.9 837.872 1708.12 z" fill="rgb(9,12,12)" transform="translate(0,0)"></path>
<path d="M 662.206 1608.39 C 662.521 1608.59 667.24 1610.97 666.979 1611.65 C 661.954 1624.71 658.101 1639.42 653.378 1652.49 L 652.699 1652.13 C 651.633 1651.57 648.591 1650.14 648.294 1648.85 C 646.169 1639.7 658.558 1615.92 662.206 1608.39 z" fill="rgb(255,255,255)" transform="translate(0,0)"></path>
<path d="M 752.399 1634.37 C 758.281 1637.52 752.882 1647.9 752.121 1654.51 C 751.481 1660.07 749.907 1679.6 746.062 1681.94 L 744.678 1682.81 C 742.096 1680.67 741.108 1680.59 741.562 1677.04 C 742.89 1666.65 744.621 1656.34 747.408 1646.22 C 748.696 1641.55 749.78 1638.44 752.399 1634.37 z" fill="rgb(255,255,255)" transform="translate(0,0)"></path>
<path d="M 700.278 1624.5 C 704.335 1627.51 700.337 1636.75 699.212 1642.02 L 698.228 1646.53 C 697.437 1650.27 696.556 1660.72 693.047 1662.23 L 691.932 1662.73 C 690.68 1661.29 688.893 1659.68 689.039 1657.53 C 689.618 1649.02 692.355 1631.81 698.867 1625.84 L 700.278 1624.5 z" fill="rgb(255,255,255)" transform="translate(0,0)"></path>
<path d="M 682.414 1619.32 C 683.274 1619.55 688.157 1620.66 687.769 1622.01 C 684.754 1632.48 680.979 1644.48 677.73 1654.75 C 664.93 1657.44 680.562 1623.48 682.414 1619.32 z" fill="rgb(250,248,237)" transform="translate(0,0)"></path>
<path d="M 823.997 1653.5 C 831.659 1659.33 827.028 1683.92 824.8 1692.43 C 824.081 1692.51 822.578 1692.59 822.527 1692.09 C 821.851 1685.42 823.615 1659.17 823.997 1653.5 z" fill="rgb(250,248,237)" transform="translate(0,0)"></path>
<path d="M 1575.52 1518.11 C 1546.71 1517.58 1509.31 1501.88 1485.95 1485.42 C 1412.53 1433.66 1373.64 1341.52 1357.7 1255.85 C 1333.35 1125 1362.14 974.433 1436.81 863.764 C 1473.97 808.699 1522.36 764.898 1589.49 751.322 C 1597.23 749.758 1631.89 746.673 1637.59 750.637 C 1632.79 752.229 1624.79 752.939 1619.25 754.283 C 1605.05 757.727 1593.95 762.549 1580.93 769.06 C 1498.12 810.472 1436.65 906.556 1408.8 992.802 C 1370.03 1112.92 1374.78 1262.42 1432.93 1375.82 C 1458.37 1425.42 1494.81 1472.59 1544.71 1499.34 C 1560.15 1507.62 1573.12 1511.82 1589.45 1517.17 C 1591.01 1517.39 1591.88 1517.39 1593.04 1518.4 C 1593.03 1518.46 1593.02 1518.51 1593.01 1518.57 C 1590.95 1519.79 1578.52 1518.66 1575.52 1518.11 z" fill="rgb(219,172,108)" transform="translate(0,0)"></path>
<path d="M 1589.45 1517.17 C 1591.01 1517.39 1591.88 1517.39 1593.04 1518.4 C 1593.03 1518.46 1593.02 1518.51 1593.01 1518.57 C 1590.95 1519.79 1578.52 1518.66 1575.52 1518.11 C 1580.92 1517.73 1584.12 1518.16 1589.45 1517.17 z" fill="rgb(186,146,107)" transform="translate(0,0)"></path>
<path d="M 639.257 1499.7 C 645.048 1489.68 659.998 1469.74 670.468 1465.18 C 674.185 1465.33 672.664 1464.64 675.224 1467.23 C 673.76 1474.02 663.41 1477.61 667.509 1483.09 C 672.541 1482.76 677.07 1476.11 680.711 1472.01 C 683.799 1475 686.939 1477.92 690.131 1480.8 C 719.652 1506.84 741.477 1503.04 776.103 1500.91 C 780.83 1504.28 775.272 1506.63 778.211 1511.62 L 779.713 1511.43 C 782.225 1508.8 782.692 1504.47 783.544 1500.77 C 793.699 1501.81 803.886 1502.61 814.089 1502.95 C 832.527 1503.55 850.963 1502.45 869.4 1502.59 C 870.019 1503.12 870.638 1503.64 871.257 1504.16 C 874.435 1503.38 875.042 1502.98 877.832 1504.42 L 878.734 1503.04 C 881.995 1501.61 902.197 1501.49 907.4 1501.25 C 915.174 1527.38 914.924 1554.94 917.133 1581.78 C 886.895 1598.5 862.577 1609.03 827.127 1612.31 C 828.245 1605.08 829.824 1600.72 826.919 1594.13 L 825.394 1593.56 C 820.444 1597.67 821.168 1606.26 820.894 1612.33 C 797.001 1607.99 773.155 1603.4 749.361 1598.56 C 711.851 1591.06 645.67 1582.87 632.529 1539.02 C 635.672 1524.94 636.775 1517.59 646.564 1506.68 C 644.421 1504.45 641.545 1501.87 639.257 1499.7 z" fill="rgb(219,172,108)" transform="translate(0,0)"></path>
<path d="M 871.257 1504.16 C 874.435 1503.38 875.042 1502.98 877.832 1504.42 C 878.254 1508.32 879.998 1526.1 874.328 1526.77 C 869.037 1524.33 870.988 1509.22 871.257 1504.16 z" fill="rgb(9,12,12)" transform="translate(0,0)"></path>
<path d="M 688.992 1495.8 C 697.37 1495.54 697.33 1494.61 693.913 1502.49 C 687.111 1518.19 680.281 1534.88 676.284 1551.55 L 675.839 1553.48 C 674.82 1557.78 674.025 1562.13 672.929 1566.42 C 666.574 1564.62 665.868 1564.87 666.86 1558.48 C 667.807 1552.38 668.796 1546.57 670.231 1540.51 C 674.104 1524.72 680.435 1509.63 688.992 1495.8 z" fill="rgb(255,255,255)" transform="translate(0,0)"></path>
<path d="M 707.346 1504.46 C 716.594 1506.99 715.028 1507.88 710.919 1516.42 C 702.282 1534.35 696.282 1551.59 691.023 1570.77 C 673.14 1571.81 703.704 1512 707.346 1504.46 z" fill="rgb(250,248,237)" transform="translate(0,0)"></path>
<path d="M 723.49 1526.55 C 727.904 1530.54 721.644 1543.22 719.586 1547.38 C 716.521 1553.58 712.03 1577.53 707.935 1579.66 L 706.64 1580.36 C 704.213 1577.89 703.156 1577.72 703.632 1574.03 C 705.31 1561.02 709.248 1548.29 715.03 1536.52 C 717.312 1531.88 719.534 1529.66 723.49 1526.55 z" fill="rgb(255,255,255)" transform="translate(0,0)"></path>
<path d="M 737.797 1533.38 C 741.38 1534.57 743.719 1534.11 742.159 1537.99 C 738.539 1546.77 735.574 1555.8 733.289 1565.02 L 732.806 1566.98 L 731.795 1570.98 C 730.558 1575.82 729.38 1580.68 728.147 1585.52 C 727.406 1585.26 722.267 1583.81 722.292 1583.38 C 723.097 1569.83 732.063 1544.9 737.797 1533.38 z" fill="rgb(250,248,237)" transform="translate(0,0)"></path>
<path d="M 893.484 1581.18 C 895.724 1561.76 896.284 1541.93 893.906 1522.5 C 893.613 1520.1 892.136 1512.15 893.371 1510.26 C 893.632 1509.87 894.018 1509.56 894.468 1509.41 C 895.95 1509.76 896.873 1515.48 897.195 1516.99 C 901.616 1537.82 900.876 1564.31 895.567 1584.78 C 892.476 1595.56 891.73 1587.33 893.484 1581.18 z" fill="rgb(9,12,12)" transform="translate(0,0)"></path>
<path d="M 893.484 1581.18 C 894.229 1583.13 894.272 1583.03 895.567 1584.78 C 892.476 1595.56 891.73 1587.33 893.484 1581.18 z" fill="rgb(18,17,17)" transform="translate(0,0)"></path>
<path d="M 797.929 1519.42 C 806.602 1524.02 800.311 1563.39 795.342 1572.41 C 791.564 1571.29 791.37 1570.47 792.808 1565.99 C 797.323 1551.92 794.963 1532.65 797.929 1519.42 z" fill="rgb(250,248,237)" transform="translate(0,0)"></path>
<path d="M 652.209 1413.14 C 653.41 1408.09 654.542 1404.39 656.439 1399.64 C 658.48 1394.54 666.792 1381.84 666.321 1376.88 C 664.207 1375.09 662.383 1375.45 659.463 1375.34 L 658.178 1375.3 L 657.433 1374.37 C 677.859 1324.17 703.572 1312.63 756.304 1312.19 C 755.657 1316.22 755.557 1317.34 754.104 1321.08 C 738.627 1326.33 686.889 1324.59 686.377 1351.33 C 685.765 1383.26 737.602 1394.46 761.243 1399.54 C 792.126 1406.17 893.9 1404.88 910.031 1372.15 C 912.685 1366.7 913.024 1360.41 910.971 1354.71 C 906.215 1341.4 889.546 1331.64 877.584 1325.63 C 878.558 1322.33 879.659 1318.97 880.693 1315.67 C 910.056 1324.91 927.059 1346.99 932.053 1376.93 C 928.837 1382.96 920.339 1391.99 920.399 1397.78 L 922.121 1398.68 C 927.095 1397.77 928.032 1396.66 932.333 1393.65 C 944.537 1415.84 940.234 1440.25 918.142 1454.13 L 916.667 1454.22 C 912.12 1465.28 858.793 1488.93 848.381 1486.21 L 847.954 1485.06 C 843.732 1484.18 844.994 1481 845.081 1476.7 C 844.105 1480.09 843.221 1484.12 842.36 1487.6 C 823.754 1490.99 804.387 1491.23 785.561 1490.94 C 786.281 1484.76 788.389 1475.29 784.903 1470.51 C 780.782 1473.35 780.21 1485.54 779.636 1490.45 C 752.766 1484.8 716.428 1478.43 691.632 1466.64 C 671.551 1457.1 658.799 1433.69 652.209 1413.14 z" fill="rgb(219,172,108)" transform="translate(0,0)"></path>
<path d="M 916.667 1454.22 C 913.871 1444.19 916.001 1431.08 913.99 1420.5 C 913.379 1417.29 907.246 1390.09 910.397 1390.39 C 912.765 1390.62 914.79 1401.65 915.258 1403.34 C 918.216 1415.06 919.697 1426.47 919.018 1438.56 C 918.752 1443.8 918.074 1448.89 918.142 1454.13 L 916.667 1454.22 z" fill="rgb(9,12,12)" transform="translate(0,0)"></path>
<path d="M 850.34 1446.84 C 850.999 1458.54 850.179 1473.56 847.954 1485.06 C 843.732 1484.18 844.994 1481 845.081 1476.7 C 845.345 1468.93 848.503 1454.55 850.34 1446.84 z" fill="rgb(9,12,12)" transform="translate(0,0)"></path>
<path d="M 712.777 1399.44 C 713.531 1399.51 714.293 1399.53 715.036 1399.68 C 715.959 1399.86 717.002 1400.29 717.518 1401.12 C 717.923 1401.77 707.297 1424.14 705.234 1433.52 C 704.837 1435.32 704.399 1437.18 704.104 1439.01 C 703.782 1440.99 703.322 1443.01 703.083 1445 C 702.651 1448.62 701.993 1452.2 701.412 1455.8 C 690.943 1452.57 694.894 1445.95 696.237 1435.51 C 697.942 1422.27 704.135 1409.63 712.777 1399.44 z" fill="rgb(255,255,255)" transform="translate(0,0)"></path>
<path d="M 724.677 1410.5 C 732.404 1413.28 728.299 1417.15 725.275 1425.03 C 720.299 1438.01 720.358 1450.92 717.061 1463.78 C 716.294 1463.44 715.521 1463.11 714.742 1462.79 C 714.1 1462.53 711.676 1461.62 711.556 1460.98 C 709.167 1448.29 715.923 1423.6 722.442 1413.79 L 724.677 1410.5 z" fill="rgb(255,255,255)" transform="translate(0,0)"></path>
<path d="M 736.393 1422.14 C 742.612 1423.97 740.202 1429.76 739.118 1436.01 C 737.479 1445.44 736.781 1459.75 734.028 1468.53 C 724.153 1462.75 730.185 1456.06 730.818 1444.98 C 731.189 1438.5 734.168 1428.32 736.393 1422.14 z" fill="rgb(255,255,255)" transform="translate(0,0)"></path>
<path d="M 895.607 1450.27 C 896.899 1437.3 896.694 1424.91 895.313 1412 C 895.591 1408.16 893.487 1402.24 894.878 1398.83 C 894.842 1398.92 895.407 1398.36 895.539 1398.56 C 904.63 1412.11 901.29 1440.67 897.566 1455.78 C 894.986 1467.55 894.657 1455.46 895.607 1450.27 z" fill="rgb(9,12,12)" transform="translate(0,0)"></path>
<path d="M 895.607 1450.27 C 896.269 1453.12 896.209 1453.19 897.566 1455.78 C 894.986 1467.55 894.657 1455.46 895.607 1450.27 z" fill="rgb(18,17,17)" transform="translate(0,0)"></path>
<path d="M 828.99 1421.37 C 837.383 1424.81 833.764 1452.23 831.56 1459.67 C 830.742 1460.16 829.729 1461.2 828.875 1460.34 C 828.857 1460.27 828.896 1423.72 828.99 1421.37 z" fill="rgb(250,248,237)" transform="translate(0,0)"></path>
<path d="M 1170.95 1325.81 C 1117.93 1352.83 1130.11 1384.87 1183.39 1396.89 C 1225.14 1405.79 1271.8 1405.36 1312.95 1393.74 C 1329.24 1389.15 1358.98 1375.2 1362.4 1357.25 C 1368.99 1322.67 1305.59 1328.47 1293.58 1317.82 C 1292.12 1314.57 1292.34 1316.24 1293.11 1312.6 C 1302.78 1309.77 1328.04 1314.63 1338.21 1317.51 C 1369.61 1326.4 1374.72 1346.11 1385.19 1373.03 C 1384.34 1375.43 1383.93 1375.55 1382.2 1377.49 C 1382.57 1384.26 1394.79 1399.67 1394.61 1407.54 C 1393.18 1468.75 1314.1 1482.89 1268.37 1491.07 C 1267.41 1483.77 1267.29 1477.88 1264.11 1471.31 L 1263.01 1471.39 C 1261.28 1478.86 1262.21 1483.98 1262.9 1491.55 C 1247.26 1491.33 1220.89 1490.61 1205.39 1487.73 C 1204.02 1479.99 1200.77 1458.33 1198.62 1452.55 C 1196.46 1457.58 1199.77 1480.91 1200.83 1487.33 C 1170.97 1480.18 1156.95 1475 1131.68 1457.01 C 1131.1 1455.38 1130.98 1455.41 1130.95 1453.9 C 1125.23 1452.07 1116.78 1442.93 1114.17 1437.49 C 1107.27 1423.06 1108.65 1408.42 1115.2 1394.2 C 1118.92 1396.81 1119.76 1397.81 1124.08 1398.57 L 1125.97 1397.59 C 1126.69 1392.47 1119.05 1381.75 1116.68 1374.57 C 1124.71 1342.97 1136.7 1326.28 1168.52 1315.6 L 1170.95 1325.81 z" fill="rgb(219,172,108)" transform="translate(0,0)"></path>
<path d="M 1141.17 1388.49 C 1137.82 1404.77 1133.94 1415.11 1133.55 1432.49 C 1133.44 1437.61 1133.31 1453.38 1131.68 1457.01 C 1131.1 1455.38 1130.98 1455.41 1130.95 1453.9 C 1130.2 1430.51 1125.93 1413.8 1139.21 1391.8 L 1141.17 1388.49 z" fill="rgb(9,12,12)" transform="translate(0,0)"></path>
<path d="M 1331.23 1399.43 L 1332.84 1399.59 C 1343.31 1400.58 1356.23 1446.27 1351.71 1455.49 C 1351.03 1455.64 1350.34 1455.77 1349.67 1455.96 C 1348.92 1456.16 1347.13 1456.92 1346.35 1456.49 C 1345.06 1455.79 1342.88 1438.13 1342.28 1435.48 C 1342.09 1434.66 1341.94 1433.83 1341.73 1433.02 C 1339.18 1423.14 1331.6 1408.5 1331.23 1399.43 z" fill="rgb(255,255,255)" transform="translate(0,0)"></path>
<path d="M 1318.05 1410.65 C 1328.93 1410.88 1328.65 1419.54 1331.76 1429.53 C 1334.1 1437.08 1338.14 1455.39 1334.79 1462.51 C 1328.53 1462.85 1329.53 1462.13 1328.13 1454.99 C 1326.09 1444.61 1325.04 1434.22 1321.83 1424.02 C 1320.44 1419.6 1318.43 1415.22 1318.05 1410.65 z" fill="rgb(255,255,255)" transform="translate(0,0)"></path>
<path d="M 1306.62 1422.23 C 1312.6 1423.5 1312.13 1423.77 1313.21 1430.48 C 1315.06 1441.99 1317.99 1455.29 1318.14 1466.85 C 1314.6 1467.33 1311.55 1469 1311 1464.57 C 1309.25 1450.47 1306.4 1436.51 1306.62 1422.23 z" fill="rgb(255,255,255)" transform="translate(0,0)"></path>
<path d="M 1152.33 1398.72 C 1155.32 1401.91 1153.66 1404.07 1153.1 1408.51 C 1151.3 1420.92 1151.11 1432.99 1151.47 1445.5 C 1151.59 1449.93 1154.13 1460.03 1151.13 1462.46 C 1147.37 1448.07 1142.47 1410.86 1152.33 1398.72 z" fill="rgb(9,12,12)" transform="translate(0,0)"></path>
<path d="M 1215.53 1421.39 C 1215.66 1421.45 1217.16 1421.98 1217.52 1422.43 C 1218.42 1423.54 1217.73 1460.17 1216.63 1463.85 C 1211.23 1455.16 1211.93 1430.9 1215.53 1421.39 z" fill="rgb(250,248,237)" transform="translate(0,0)"></path>
<path d="M 1110.45 1786.73 C 1112.29 1788.7 1112.28 1790.35 1113.11 1793.14 C 1118.45 1810.93 1120.56 1815.58 1135.89 1826.21 C 1167.57 1848.18 1230.61 1845.92 1267.65 1838.29 C 1278.91 1845.02 1286.7 1854.74 1295.47 1864.24 C 1307.77 1877.57 1321.04 1887.59 1337.65 1895.04 C 1385.83 1916.67 1507.26 1899.83 1556.44 1880.59 C 1565.19 1877.17 1575.93 1872.34 1579.52 1862.95 C 1581.63 1857.41 1579.37 1853.26 1577 1848.29 L 1581.23 1835.88 C 1598.04 1850.35 1599.38 1862.79 1595.53 1883.56 C 1588.29 1899.93 1576.55 1911.35 1560.71 1919.56 C 1474.97 1964.03 1308.61 1964.49 1255.73 1869.65 C 1242.51 1870.6 1230.54 1872.44 1216.09 1873.49 C 1174.23 1876.54 1104.02 1864.42 1098.98 1812.05 C 1098.01 1802.01 1103.7 1793.85 1110.45 1786.73 z" fill="rgb(43,71,111)" transform="translate(0,0)"></path>
<path d="M 934.641 1786.34 C 945.205 1794.16 945.361 1811.99 942.756 1823.49 C 939.321 1838.66 925.92 1851 912.766 1858.47 C 880.268 1876.93 827.366 1877.61 792.483 1868.29 C 772.819 1899.7 757.43 1914.36 721.352 1928.5 C 652.21 1955.59 567.146 1956.29 498.918 1926.35 C 475.611 1916.12 459.064 1905.39 449.567 1881.39 C 444.814 1858.71 450.098 1849.63 465.918 1834.74 C 470.194 1848.67 471.528 1846.01 465.039 1859.48 C 458.589 1872.87 497.464 1883 504.257 1884.98 C 537.121 1894.53 572.927 1901.59 606.916 1903.65 C 649.437 1905.85 689.139 1910.09 726.514 1885.41 C 746.697 1872.08 760.707 1848.67 778.695 1838.23 C 817.867 1846.05 873.686 1850.04 908.339 1827.99 C 924.965 1817.41 930.649 1804.39 934.641 1786.34 z" fill="rgb(43,71,111)" transform="translate(0,0)"></path>
<path d="M 527.283 968.384 C 534.098 971.584 558.642 995.821 562.719 1003.26 C 572.754 1021.59 578.203 1044.5 592.186 1060.84 C 576.558 1097.11 566.506 1123.57 553.903 1161.43 C 543.978 1161.15 536.915 1160.63 527.211 1158.91 C 504.288 1154.73 480.293 1147.18 460.715 1134.27 C 471.327 1079.77 501.184 1017.71 527.283 968.384 z" fill="rgb(43,71,111)" transform="translate(0,0)"></path>
<path d="M 435.647 1081.36 C 443.842 1080.63 463.99 1079.53 465.363 1090.16 C 459.504 1098.78 399.215 1089.97 436.748 1126.83 C 446.585 1136.49 463.958 1147.06 477.253 1152.04 C 504.101 1162.11 551.188 1179.49 577.363 1160.48 C 585.168 1154.41 575.953 1144.06 569.788 1138.72 L 573.016 1129.94 C 594.689 1141.72 608.519 1155.91 603.979 1182.49 C 602.615 1187.11 600.529 1191.48 597.799 1195.45 C 552.911 1260.08 385.305 1216.65 388.513 1129.44 C 389.611 1099.56 407.786 1084.99 435.647 1081.36 z" fill="rgb(219,172,108)" transform="translate(0,0)"></path>
<path d="M 403.35 1133.55 C 406.619 1136.32 409.184 1147.24 412.229 1152.39 C 421.1 1168.07 435.522 1179.09 451.125 1187.48 C 456.928 1190.6 467.981 1191.36 466.633 1198.18 L 466.365 1199.74 C 461.835 1198.59 457.365 1197.22 452.972 1195.63 C 433.083 1188.33 393.375 1157.32 403.35 1133.55 z" fill="rgb(9,12,12)" transform="translate(0,0)"></path>
<path d="M 491.203 1205.98 C 495.664 1206.17 499.188 1207.16 503.505 1207.86 C 517.384 1210.1 531.673 1208.91 545.489 1206.86 C 548.378 1206.43 552.804 1204.84 551.559 1209.37 C 536.409 1217.87 504.461 1217.64 491.203 1205.98 z" fill="rgb(18,17,17)" transform="translate(0,0)"></path>
<path d="M 587.261 1173.18 C 598.442 1177.68 587.314 1194.72 582.081 1200.46 C 581.167 1200.67 580.085 1201.34 579.265 1200.64 C 579.3 1201.48 586.651 1175.84 587.261 1173.18 z" fill="rgb(9,12,12)" transform="translate(0,0)"></path>
<path d="M 784.652 1217.64 C 787.983 1220.15 797.52 1233.38 802.007 1237.39 C 826.763 1259.52 848.925 1272.4 879.755 1282.83 C 872.045 1305.9 859.148 1364.81 854.936 1389.68 L 846.154 1390.72 C 811.624 1395.94 786.061 1394.96 752.167 1390.54 C 757.703 1342.27 771.858 1266.32 784.652 1217.64 z" fill="rgb(43,71,111)" transform="translate(0,0)"></path>
<path d="M 1266.79 1218.78 C 1271.08 1223.44 1294.81 1371.3 1297.6 1389.65 C 1264.57 1393.86 1237.9 1396.42 1204.23 1391.05 C 1201.22 1390.89 1195.96 1390.08 1192.8 1389.69 C 1189.78 1363.86 1176.55 1311.3 1170.59 1284.87 C 1179.08 1280.89 1190.43 1277.54 1199.64 1273.41 C 1224.94 1262.06 1251.92 1242.41 1266.79 1218.78 z" fill="rgb(43,71,111)" transform="translate(0,0)"></path>
<path d="M 584.115 674.005 L 584.411 674.287 C 585.128 676.977 570.275 716.247 568.586 723.273 C 559.042 763.729 554.157 805.143 554.026 846.708 C 534.023 860.68 522.02 867.039 498.225 874.611 C 476.753 881.443 470.86 880.974 451.092 870.909 C 447.637 869.052 443.667 866.564 440.232 864.538 L 443.219 853.913 C 465.697 774.914 512.521 713.901 584.115 674.005 z" fill="rgb(43,71,111)" transform="translate(0,0)"></path>
<path d="M 454.843 1290.95 C 457.846 1294.49 456.464 1332.24 465.961 1336.29 C 482.352 1343.29 511.395 1304.59 518.506 1294.07 C 526.268 1349.57 512.526 1419.6 496.071 1473.22 C 492.133 1485.17 489.462 1492.43 483.308 1503.34 C 482.352 1502.51 481.41 1501.65 480.481 1500.79 C 446.811 1469.64 426.483 1405.88 421.103 1360.99 C 419.111 1344.36 418.859 1328.34 418.212 1311.6 C 434.081 1306.35 442.201 1301.88 454.843 1290.95 z" fill="rgb(43,71,111)" transform="translate(0,0)"></path>
<path d="M 866.022 389.414 C 867.946 389.879 880.477 395.637 883.421 396.911 C 893.719 401.483 904.4 405.141 915.34 407.841 C 1005.97 429.494 1101.02 423.229 1188.02 389.867 C 1195.45 400.992 1195.69 406.67 1184.93 414.973 C 1153.52 430.799 1112.41 438.703 1076.51 443.287 C 1010.4 451.466 940.654 445.296 878.355 421.003 C 859.892 413.804 851.133 406.095 866.022 389.414 z" fill="rgb(219,172,108)" transform="translate(0,0)"></path>
<path d="M 870.929 401.992 C 871.376 401.97 875.218 401.731 875.505 401.865 C 888.004 407.729 901.07 412.691 913.595 418.217 C 914.116 418.447 913.753 420.822 913.683 421.245 L 913.444 422.89 C 904.428 423.454 871.917 411.058 870.929 401.992 z" fill="rgb(255,255,255)" transform="translate(0,0)"></path>
<path d="M 950.244 421.632 C 956.197 421.68 962.708 421.483 958.062 429.08 L 957.124 430.714 C 949.389 432.14 948.09 427.975 950.244 421.632 z" fill="rgb(255,255,255)" transform="translate(0,0)"></path>
<path d="M 1339.66 1165.9 C 1340.83 1169.73 1341.86 1206.35 1342.77 1215.08 C 1346.55 1250.71 1353.9 1285.88 1364.7 1320.04 C 1347.46 1309.68 1331.17 1306.63 1311.24 1304.29 C 1305.96 1303.82 1297.14 1304.04 1291.56 1304.03 C 1286.89 1269.27 1276.98 1232.18 1272.33 1197.72 C 1298.21 1187.88 1315.71 1179.25 1339.66 1165.9 z" fill="rgb(255,255,255)" transform="translate(0,0)"></path>
<path d="M 1346.56 885.259 C 1368.8 882.892 1386.49 887.862 1405.33 899.753 C 1389.18 928.258 1375.35 964.8 1365.7 996.197 C 1357.9 993.742 1350.81 991.267 1343.32 987.878 C 1307.39 971.617 1291.51 925.736 1324.06 896.646 C 1331.35 890.133 1337.52 888.179 1346.56 885.259 z" fill="rgb(43,71,111)" transform="translate(0,0)"></path>
<path d="M 408.681 1251.09 C 409.864 1252.64 408.06 1255.72 407.05 1258 C 401.934 1269.59 400.984 1279.8 399.857 1291.71 C 398.307 1308.08 408.545 1307.49 410.113 1315.5 C 411.211 1321.1 410.687 1338.09 411.228 1345.41 C 413.31 1373.62 418.272 1395.74 426.213 1422.71 C 419.47 1427.91 414.762 1430.6 407.322 1434.55 C 405.903 1434.88 405.622 1434.63 404.045 1434.4 C 394.542 1426.69 388.425 1401.55 386.328 1389.83 C 378.638 1346.86 378.575 1301.65 392.634 1259.98 L 408.681 1251.09 z" fill="rgb(43,71,111)" transform="translate(0,0)"></path>
<path d="M 595.017 647.078 L 596.01 647.908 C 595.589 652.231 592.373 658.703 590.563 662.94 C 579.595 667.279 569.889 672.316 560.074 678.902 C 496.495 721.558 448.943 786.812 433.65 862.135 L 424.515 855.586 L 417.953 850.19 C 425.385 824.494 431.872 806.769 443.927 783.007 C 473.367 724.982 532.184 667.017 595.017 647.078 z" fill="rgb(219,172,108)" transform="translate(0,0)"></path>
<path d="M 515.137 706.242 C 520.395 706.182 523.065 707.967 516.936 709.371 C 508.988 715.338 495.376 729.512 489.377 737.637 C 483.415 745.713 481.638 737.117 482.813 735.459 C 489.65 725.812 504.13 710.491 515.137 706.242 z" fill="rgb(255,255,255)" transform="translate(0,0)"></path>
<path d="M 515.137 706.242 C 520.395 706.182 523.065 707.967 516.936 709.371 C 516.353 708.318 515.754 707.275 515.137 706.242 z" fill="rgb(250,248,237)" transform="translate(0,0)"></path>
<path d="M 546.823 674.765 C 552.954 679.54 553.181 683.391 545.479 686.153 L 542.195 687.3 C 532.425 684.397 543.308 677.165 546.823 674.765 z" fill="rgb(255,255,255)" transform="translate(0,0)"></path>
<path d="M 411.366 857.042 C 416.25 858.547 422.338 864.29 426.536 866.675 C 435.913 872.002 461.491 886.342 472.334 886.84 C 498.511 888.042 533.467 870.873 553.529 855.888 C 553.815 864.731 554.383 871.957 555.281 880.769 L 542.478 889.885 C 512.006 910.5 477.747 914.242 442.996 902.212 C 424.428 895.785 397.524 882.7 384.709 867.469 C 393.559 863.903 402.445 860.427 411.366 857.042 z" fill="rgb(219,172,108)" transform="translate(0,0)"></path>
<path d="M 406.139 868.853 C 412.764 869.391 422.708 877.434 418.682 881.662 C 415.277 880.246 400.334 874.031 406.139 868.853 z" fill="rgb(255,255,255)" transform="translate(0,0)"></path>
<path d="M 434.045 886.56 C 435.446 885.483 437.448 885.711 438.571 887.075 C 439.694 888.439 439.532 890.448 438.205 891.615 C 437.307 892.405 436.05 892.643 434.926 892.236 C 433.802 891.828 432.989 890.84 432.806 889.659 C 432.622 888.477 433.097 887.289 434.045 886.56 z" fill="rgb(255,255,255)" transform="translate(0,0)"></path>
<path d="M 444.251 1216.7 C 458.412 1224.37 476.882 1228.81 492.673 1231.66 C 481.355 1253.5 463.398 1274.58 444.144 1289.89 C 440.588 1292.51 411.975 1309.97 410.003 1303.05 C 405.247 1286.35 414.866 1252.44 425.084 1238.57 C 430.815 1230.73 437.229 1223.41 444.251 1216.7 z" fill="rgb(43,71,111)" transform="translate(0,0)"></path>
<path d="M 403.632 1187.81 C 406.34 1189.42 412.38 1195.67 416.149 1198.46 C 423.197 1203.66 429.739 1207.87 437.193 1212.46 C 431.953 1217.61 417.859 1235.92 413.715 1238.41 C 399.028 1247.24 379.061 1258.34 363.243 1264.42 C 349.737 1269.19 348.605 1269.25 334.659 1268.8 C 345.367 1229.65 370.226 1208.66 403.632 1187.81 z" fill="rgb(43,71,111)" transform="translate(0,0)"></path>
<path d="M 1468.89 667.733 C 1488.69 676.965 1507.38 688.418 1524.59 701.871 C 1540.45 714.118 1558.02 731.116 1570.25 747.082 C 1565.42 748.592 1561.01 750.302 1556.3 751.938 C 1546.98 756.483 1536.23 760.821 1526.56 765.264 C 1517.68 754.762 1497.77 732.152 1487.69 723.913 C 1481.45 706.376 1474.7 685.643 1468.89 667.733 z" fill="rgb(43,71,111)" transform="translate(0,0)"></path>
<path d="M 500.194 1232.49 C 512.926 1234.52 524.436 1234.14 537.258 1234 C 529.511 1269.4 513.616 1291.96 488.103 1317.33 C 472.062 1332.26 469.172 1335.29 465.082 1311 C 463.666 1302.59 463.671 1292.48 463.17 1283.79 C 478.769 1267.79 492.213 1253.86 500.194 1232.49 z" fill="rgb(43,71,111)" transform="translate(0,0)"></path>
<path d="M 569.486 1298.75 C 570.207 1299.85 570.771 1301.15 570.89 1302.45 C 573.546 1331.7 563.186 1400.31 548.163 1424.09 C 539.047 1416.79 536.74 1412.62 530.55 1402.76 C 527.352 1398.48 526.053 1397.12 522.152 1393.45 C 527.904 1369.43 529.999 1333.36 528.081 1309.38 C 552.036 1337.21 556.084 1323.76 569.486 1298.75 z" fill="rgb(43,71,111)" transform="translate(0,0)"></path>
<path d="M 1017.61 65.6664 C 1028.1 62.5412 1039.46 65.3395 1047.29 72.9792 C 1055.13 80.619 1058.22 91.9028 1055.36 102.468 C 1052.5 113.033 1044.15 121.224 1033.53 123.873 C 1017.62 127.844 1001.44 118.376 997.116 102.554 C 992.788 86.7322 1001.89 70.3502 1017.61 65.6664 z" fill="rgb(200,75,66)" transform="translate(0,0)"></path>
<path d="M 1042.58 85.4036 L 1043.72 85.9427 C 1051.6 89.5849 1050.14 97.1143 1047.69 104.896 C 1045.13 113.032 1038.3 115.866 1030.93 119.056 C 1018.12 118.13 1035.71 107.327 1039.46 102.924 C 1040.91 96.3753 1041.34 91.741 1042.58 85.4036 z" fill="rgb(18,17,17)" transform="translate(0,0)"></path>
<path d="M 1017.88 68.8072 C 1019.51 69.186 1023.91 69.7281 1025.11 70.9113 C 1030.57 76.3062 1029.12 81.8816 1024.04 86.7241 L 1022.87 87.8638 C 1020.08 88.0018 1017.34 88.5307 1014.99 86.8557 C 1013.38 85.7122 1012.3 83.964 1011.99 82.0094 C 1011.19 76.8235 1015.05 72.6721 1017.88 68.8072 z" fill="rgb(255,255,255)" transform="translate(0,0)"></path>
<path d="M 384.755 1156.24 C 385.559 1157.04 396.741 1177.61 398.787 1180.93 C 385.655 1186.6 372.801 1198.72 362.022 1208.29 C 348.151 1209.8 342.435 1209.61 328.936 1208.84 C 328.715 1208.8 328.495 1208.76 328.274 1208.71 L 326.894 1208.41 C 320.929 1207.14 310.222 1203.71 316.136 1195.6 C 329.975 1176.61 362.281 1161.63 384.755 1156.24 z" fill="rgb(43,71,111)" transform="translate(0,0)"></path>
<path d="M 562.323 1228.11 C 566.479 1227.26 566.346 1229.69 566.96 1233.52 C 569.229 1248.12 568.982 1263 566.23 1277.51 C 565.163 1283.33 557.589 1313.74 549.027 1316.79 C 547.641 1317.28 541.863 1311.83 540.222 1310.29 C 531.25 1300.42 530.263 1299.89 523.133 1288.44 C 535.493 1270.12 542.462 1255.12 545.287 1232.72 C 551.173 1231.29 556.539 1229.68 562.323 1228.11 z" fill="rgb(43,71,111)" transform="translate(0,0)"></path>
<path d="M 1460.52 647.646 C 1462.88 648.143 1465.22 648.73 1467.53 649.405 C 1506.16 660.657 1553.4 691.49 1580.19 720.563 C 1585.24 726.035 1594.42 733.635 1597.9 739.919 L 1596.76 740.923 L 1578.58 744.622 C 1543.88 703.267 1517.26 679.98 1466.29 659.106 L 1460.52 647.646 z" fill="rgb(219,172,108)" transform="translate(0,0)"></path>
<path d="M 925.833 1453.34 C 940.84 1478.82 948.029 1521.07 946.981 1550.36 C 939.294 1563.51 931.676 1569.25 919.582 1578.54 C 919.765 1561.88 920.174 1545.34 918.768 1528.66 C 918.145 1521.26 911.088 1504.46 914.256 1500.11 C 916.087 1500.45 918.48 1500.85 919.309 1502.83 C 925.515 1517.64 927.938 1543.59 929.877 1558.54 C 930.627 1555.62 931.313 1552.68 931.935 1549.72 C 932.295 1531.86 930.85 1522.85 924.773 1505.96 C 923.616 1502.75 922.023 1500.2 923.763 1498.66 C 929.931 1493.23 929.373 1490.06 929.125 1482.02 C 928.842 1472.84 927.202 1462.59 925.833 1453.34 z" fill="rgb(219,172,108)" transform="translate(0,0)"></path>
<path d="M 931.935 1549.72 C 931.939 1549.87 931.391 1567.73 929.877 1558.54 C 930.627 1555.62 931.313 1552.68 931.935 1549.72 z" fill="rgb(99,73,46)" transform="translate(0,0)"></path>
<path d="M 589.903 1214.88 C 595.026 1218.29 629.717 1272.65 599.154 1273.32 C 590.902 1272.77 585.07 1271.71 576.935 1270.29 C 577.065 1255.5 577.627 1241.6 574.065 1227.07 L 573.63 1225.17 C 579.461 1221.6 584.175 1218.56 589.903 1214.88 z" fill="rgb(43,71,111)" transform="translate(0,0)"></path>
<path d="M 928.047 1716.72 C 932.213 1719.75 933.776 1740.41 933.51 1745.45 C 932.999 1755.16 932.34 1771.12 926.799 1779.38 C 924.998 1782.07 916.694 1789.32 913.746 1792.15 C 913.313 1792.02 912.815 1791.94 912.474 1791.65 C 913.505 1794.76 910.798 1756.8 910.798 1756.79 C 929.726 1746.09 929.35 1737.57 928.047 1716.72 z" fill="rgb(219,172,108)" transform="translate(0,0)"></path>
<path d="M 1116.38 1723.04 C 1118.01 1725.8 1117.98 1726 1118.94 1729.06 C 1121.08 1744.66 1122.92 1749.64 1137 1755.72 C 1134.9 1770.68 1134.01 1781.34 1136.16 1796.38 C 1129.24 1789.62 1119.35 1779.65 1117.12 1769.99 C 1114.1 1756.91 1113.99 1736.25 1116.38 1723.04 z" fill="rgb(219,172,108)" transform="translate(0,0)"></path>
<path d="M 1159.3 1759.81 C 1161.51 1759.85 1166.46 1759.68 1168.4 1760.32 C 1169.56 1760.7 1168.76 1769.8 1168.6 1771.22 C 1166.98 1785.6 1169.14 1799.62 1170.21 1813.89 C 1170.23 1814.22 1168.69 1815.13 1168.78 1815.08 C 1164.23 1812.87 1159.7 1810.61 1155.2 1808.31 C 1156.76 1791.27 1156.55 1777.41 1159.3 1759.81 z" fill="rgb(219,172,108)" transform="translate(0,0)"></path>
<path d="M 1141.5 1757.43 C 1146.26 1758.14 1150.7 1758.88 1155.5 1759.43 C 1150.87 1778.83 1152.33 1787.92 1153.11 1807.14 C 1148.41 1804.94 1142.07 1800.33 1138.04 1797.05 C 1138.3 1783.9 1138.99 1770.34 1141.5 1757.43 z" fill="rgb(219,172,108)" transform="translate(0,0)"></path>
<path d="M 1357.42 1012.82 C 1356.64 1009.08 1354.93 999.235 1362.1 1003.36 C 1363.43 1004.13 1360.87 1012.46 1360.56 1014.38 L 1357.42 1012.82 z" fill="rgb(17,128,126)" transform="translate(0,0)"></path>
<path d="M 1116.38 1723.04 C 1116.66 1721.38 1117.18 1716.79 1118.59 1715.59 C 1119.56 1715.59 1119.08 1718.78 1119.07 1718.99 C 1118.99 1722.35 1118.96 1725.71 1118.94 1729.06 C 1117.98 1726 1118.01 1725.8 1116.38 1723.04 z" fill="rgb(186,146,107)" transform="translate(0,0)"></path>
<metadata><recraft-signature>{"signed_by": "recraft", "signature_b64": "T9XknNtCUyC1FtD4wgt+XMMC9FnL8Z2M/0fDTYKLSeY/OqZyOXHhKrtpPVATpED48TrnjU1Aet3gRDPAEKjwBQ==", "signing_algo": "Ed25519", "generation_timestamp": 1778557419, "identifier": "122ab439-d501-43ab-b630-3c0afd5a1990"}</recraft-signature></metadata></svg>