<svg xmlns="http://www.w3.org/2000/svg" height="1024" preserveAspectRatio="none" style="display: block;" version="1.1" viewBox="0 0 2048 2048" width="1024">
<defs>
	<linearGradient gradientUnits="userSpaceOnUse" id="Gradient1" x1="779.775" x2="778.975" y1="1682.2" y2="1699.09">
		<stop class="stop0" offset="0" stop-color="rgb(177,159,126)" stop-opacity="1"></stop>
		<stop class="stop1" offset="1" stop-color="rgb(210,187,157)" stop-opacity="1"></stop>
	</linearGradient>
</defs>

<path d="M 1279.24 127.683 C 1290.73 182.341 1285.67 253.125 1266.52 305.521 C 1244.39 366.054 1185.38 422.286 1121.45 435.605 C 1096.29 440.848 1063.69 439.141 1037.47 438.875 C 1022.54 473.544 1018.62 495.744 1023.77 534.028 C 1040.41 514.934 1048.84 509.924 1071.83 498.68 C 1073.3 482.387 1081.52 470.148 1093.78 459.808 C 1111.43 444.698 1134.45 437.374 1157.58 439.5 C 1202.47 443.553 1236.14 478.483 1284.33 468.025 C 1296.55 465.4 1307.96 459.857 1317.57 451.868 C 1320.68 449.273 1324.67 445.171 1327.41 442.192 C 1319.46 483.229 1294.78 516.823 1260.03 539.67 C 1231.42 558.483 1194.39 574.266 1159.46 567.276 C 1127.85 560.95 1090.45 534.339 1074.35 506.412 C 1055.63 515.15 1038.72 526.214 1028.33 544.34 C 1031.68 565.634 1054.27 606.207 1074.27 613.532 C 1133.31 625.576 1170.42 632.103 1225.46 660.161 C 1296.82 696.394 1357.52 750.565 1401.6 817.353 C 1412.82 834.371 1423.01 854.894 1432.75 873.093 C 1441.83 868.484 1449.69 864.548 1459.61 862.095 C 1497.24 852.785 1536.31 873.233 1553.23 907.27 C 1563.79 928.507 1565.37 953.099 1557.62 975.515 C 1545.42 1010.22 1509.93 1034.67 1472.85 1026.91 C 1473.86 1042.9 1475.09 1061.53 1474.52 1077.57 C 1502.16 1085.89 1510.48 1134.88 1514.61 1159.57 C 1540.64 1161.48 1539.1 1184.59 1543.75 1202.31 C 1546.03 1211.04 1550.55 1217.21 1553.06 1227.72 C 1586.95 1228.71 1591.04 1247.09 1591.02 1276.04 C 1613.22 1282.33 1625.12 1302.2 1618.6 1324.55 C 1620 1327.26 1622.39 1331.63 1623.32 1335.21 C 1624.44 1339.54 1625.68 1348.49 1626.53 1353.35 C 1626.53 1353.34 1628.8 1354.19 1629.04 1354.24 C 1641.46 1357.14 1652.76 1361.89 1658.97 1374.07 C 1664.15 1384.24 1663.71 1395.13 1660.34 1406.06 C 1700.19 1421.89 1711.91 1470.35 1672.58 1493.33 C 1692.92 1510.09 1689.12 1529.6 1673.42 1548.55 C 1702.9 1575.79 1667.6 1606.03 1633.11 1601.02 C 1627.33 1639.44 1596.11 1647.03 1565.17 1629.52 C 1544.54 1653.42 1494.22 1650.13 1494.67 1611.08 C 1494.88 1593.2 1504.17 1579.24 1521.1 1573.01 C 1503.49 1561.15 1497.15 1553.6 1490.39 1533.43 C 1413.53 1575.85 1406.23 1469.22 1467.96 1464.93 L 1470.43 1464.74 C 1462.98 1450.81 1457.38 1438.09 1462.7 1421.71 C 1466.07 1411.54 1473.44 1403.19 1483.1 1398.57 C 1485.37 1397.49 1488.99 1396.35 1491.38 1395.55 C 1482.38 1376.35 1480.06 1367.48 1483.48 1346.27 C 1463.12 1335.15 1462.62 1317.33 1474.48 1299.04 C 1458.08 1282 1458.51 1267.77 1462.1 1245.74 C 1453.48 1235.87 1451.74 1233.73 1448.76 1220.61 C 1418.18 1301.19 1376.31 1361.04 1308.45 1414.59 C 1316.56 1422.11 1324.27 1429.25 1331.4 1437.77 C 1369.5 1483.28 1385.79 1557.26 1341.88 1604.94 C 1339.91 1607.06 1337.9 1609.14 1335.85 1611.18 C 1369.97 1643.4 1381.33 1676.94 1357.25 1719.88 C 1377.08 1720.76 1398.13 1724.35 1416.33 1732.73 C 1416.71 1732.91 1417.11 1733.06 1417.5 1733.25 C 1421.67 1735.24 1423.02 1740.37 1426.29 1742.3 C 1431.95 1745.63 1451 1743.23 1460.69 1752.61 C 1469.56 1761.2 1463.71 1763.55 1477.36 1769.41 C 1491.76 1775.6 1517.31 1799.43 1523.48 1814.13 C 1525.8 1819.68 1526.44 1826.21 1523.94 1831.82 C 1520.73 1839.05 1513.46 1843.24 1506.29 1845.73 C 1489.09 1851.69 1418.9 1849.28 1395.96 1849.29 C 1387.03 1859.67 1379.75 1865.39 1365.2 1865.97 C 1330.79 1867.31 1296.17 1866.89 1261.72 1866.58 C 1236.71 1866.35 1211.01 1867.45 1186.22 1864.34 C 1176.89 1863.17 1168.7 1855.35 1162.38 1849.04 L 1101.82 1850.04 C 1087.28 1850.26 1071.62 1851.51 1057.29 1848.87 C 1049.82 1847.5 1042.04 1844.8 1036.43 1839.48 C 1032.41 1835.66 1030.2 1830.66 1030.06 1825.11 C 1029.92 1819.39 1032.57 1814.73 1036.49 1810.73 C 1041.21 1805.9 1054.44 1798.94 1057.28 1794.58 C 1060.47 1789.68 1059.87 1784.53 1065.42 1780.87 C 1071.62 1776.79 1081.84 1776.13 1087.14 1771.53 C 1095.84 1763.99 1080.16 1755.56 1113 1748.91 C 1120.4 1731.94 1138.45 1727.68 1154.81 1723.18 C 1142.38 1705.26 1137.33 1686.87 1141.18 1665.06 C 1144.53 1646.04 1154.61 1628.87 1169.58 1616.67 C 1142.64 1594.96 1133.21 1573.55 1134.98 1539.12 C 1116.79 1526.82 1111.22 1519.59 1098.47 1501.66 C 1053.25 1507.85 990.301 1511.74 945.103 1504.22 C 935.201 1518.67 928.908 1524.9 914.864 1535.56 C 914.62 1569.83 906.98 1590.79 882.189 1615.37 C 881.122 1616.42 880.045 1617.47 878.957 1618.5 C 912.862 1650.48 916.006 1686.56 889.875 1724.64 C 898.945 1727.31 918.712 1732.69 921.685 1742.14 C 927.009 1759.05 941.28 1746.48 949.215 1760.96 C 951.51 1765.15 948.518 1772.17 953.932 1773.75 C 965.364 1778.68 975.268 1778.6 981.482 1790.69 L 981.482 1791.59 C 983.202 1793.35 984.6 1794.48 986.372 1796.07 C 991.877 1801.87 1006.69 1815.05 1006.96 1822.14 C 1008.09 1852.12 970.189 1849.51 950.752 1849.83 C 927.095 1850.21 902.263 1847.68 879.451 1849.48 C 862.763 1869.35 843.054 1865.73 819.487 1865.76 L 767.177 1865.89 L 709.549 1866 C 686.381 1866.03 664.683 1869.64 648.748 1849.28 C 630.438 1849.13 612.126 1849.16 593.816 1849.37 C 578.356 1849.56 543.361 1851.67 530.621 1843.99 C 493.857 1821.83 539.275 1787.35 559.344 1773.14 C 563.564 1769.58 573.711 1765.22 575.995 1760.52 C 587.051 1741.52 604.848 1751.44 620.088 1735.57 C 629.689 1725.58 671.995 1721.01 685.139 1721.06 C 662.641 1680.1 671.521 1637.47 708.719 1608.95 C 686.139 1585.89 677.077 1565.85 676.732 1533 C 676.295 1491.4 698.006 1449.49 727.153 1420.47 C 716.644 1409.82 698.933 1396.17 686.47 1384.11 C 646.682 1345.62 613.783 1300.59 589.2 1250.99 L 586.257 1251.58 C 591.883 1270.49 587.899 1284.45 574.308 1298.49 C 584.763 1317.51 584.827 1334.92 566.046 1347.87 C 568.357 1368.25 566.288 1376.39 557.624 1394.46 C 581.293 1404.26 589.659 1422.94 583.859 1447.45 C 582.524 1453.09 579.064 1458.8 579.162 1464.56 L 580.823 1465.91 C 617.261 1462.86 638.878 1532.9 595.844 1541.97 C 579.882 1545.34 568.343 1540.25 555.094 1532.4 C 550.753 1552.27 542.131 1560.41 527.408 1572.89 C 541.623 1581.26 551.265 1593.51 551.094 1610.72 C 551.093 1619.62 547.507 1628.15 541.145 1634.38 C 523.665 1651.37 495.685 1646.17 480.044 1629.07 C 461.177 1646.83 430.75 1639.14 417.71 1618.25 C 414.066 1612.41 413.087 1607.82 411.614 1601.3 C 409.563 1601.32 407.523 1601.49 405.462 1601.52 C 377.989 1601.93 347.296 1572.99 374.757 1548.68 C 359.845 1529.15 351.802 1508.9 377.64 1494.04 C 337.986 1470.02 347.262 1424.5 387.828 1407.12 C 385.093 1400.88 383.675 1398.05 383.807 1391.04 C 383.965 1381.12 388.146 1371.68 395.392 1364.9 C 403.673 1357.01 411.49 1354.68 422.419 1354.72 C 421.758 1342.86 421.438 1338.01 427.757 1327.71 C 420.537 1302.86 432.609 1281.85 458.613 1278.16 C 453.539 1245.92 463.609 1231.08 495.766 1226.92 C 497.2 1221.78 499.17 1217.09 501.114 1212.13 C 492.888 1189.3 506.311 1167.01 528.785 1159.58 C 531.744 1138.27 537.342 1117.42 545.449 1097.5 C 547.547 1092.31 554.606 1080.51 555.146 1076.31 C 557.308 1059.47 557.294 1045.43 560.523 1028.23 C 498.687 1025.66 465.647 960.285 493.419 907.439 C 517.614 861.401 565.888 847.361 611.283 871.227 C 628.011 838.619 644.426 813.951 667.005 785.35 C 729.835 706.197 816.909 649.855 914.856 624.974 C 939.482 618.688 965.779 614.688 991.001 611.737 C 979.631 574.232 975.986 543.712 984.195 504.798 C 980.42 501.379 976.663 497.941 972.924 494.481 C 945.699 518.976 915.36 538.656 877.149 536.015 C 804.414 530.988 724.472 477.881 715.129 401.203 C 752.256 450.604 810.235 425.537 855.493 406.898 C 909.193 384.783 970.92 403.359 982.358 465.144 C 983.622 471.371 983.304 491.918 986.617 495.651 C 989.88 491.033 993.585 480.797 996.252 475.06 C 1003.99 458.41 1013.18 448.234 1026.07 435.534 C 1007.81 420.773 995.371 397.412 993.009 374.052 C 990.098 345.261 999.686 317.653 1017.99 295.492 C 1081.55 218.562 1196.51 255.132 1251.12 188.498 C 1265.12 171.419 1273.63 148.795 1279.24 127.683 z" fill="rgb(47,39,24)" transform="translate(0,0)"></path>
<path d="M 580.396 1203.93 C 573.629 1182.66 568.044 1151.26 566.059 1129.06 C 554.868 1003.93 601.832 876.293 682.015 780.93 C 760.296 688.32 872.409 630.924 993.309 621.563 C 996.015 622.133 995.86 621.525 997.376 624.097 C 1001.63 631.319 1004.4 638.483 1009.29 645.401 C 1020.04 651.593 1032.91 678.638 1047.03 676.767 C 1051.13 679.863 1084.16 679.574 1088.31 677.462 C 1096.67 673.215 1126.84 650.664 1130 643.309 L 1132.24 643.426 C 1135.69 641.587 1136.17 640.039 1138.15 636.66 C 1147.15 638.546 1157.54 642.55 1165.7 644.587 C 1234.43 661.738 1217.68 717.861 1168.93 746.125 C 1161.06 750.689 1139.29 763.463 1130.26 765.07 L 1133.44 767.535 C 1179.04 756.189 1252.86 727.543 1218.55 667.108 C 1232.01 672.23 1254.22 686.704 1266.42 694.971 C 1337.02 742.196 1392.71 808.551 1426.98 886.272 C 1445.27 926.907 1459.92 981.758 1460.53 1026.31 C 1461.69 1109.5 1427.4 1196.54 1366.52 1253.57 C 1382.55 1225.53 1400.16 1186.57 1399.84 1154.12 C 1399.71 1142.09 1397.98 1131.02 1396.08 1119.21 C 1364.74 1234.84 1292.9 1334.99 1189.38 1397.3 C 1184.19 1400.43 1178.16 1403.33 1172.67 1405.96 L 1171.07 1404.21 C 1219.09 1354.07 1245.42 1311.6 1264.46 1244.72 C 1244.53 1266.72 1227.31 1289.54 1205.21 1310.25 C 1124.96 1385.39 1032.51 1434.3 921.454 1439.82 C 865.692 1442.59 836.945 1433.71 785.502 1416.04 C 786.658 1415.52 787.818 1415.02 788.983 1414.52 C 805.639 1416.06 822.384 1416.41 839.09 1415.56 C 923.482 1412.04 1012.4 1381.95 1070.63 1318.68 C 1062.2 1322.96 1051.44 1329.99 1042.55 1334.87 C 1022.51 1345.75 1001.54 1354.84 979.899 1362.04 C 892.968 1390.16 774.328 1387.94 692.294 1345.36 C 633.929 1315.06 599.85 1265.69 580.396 1203.93 z" fill="rgb(149,135,107)" transform="translate(0,0)"></path>
<path d="M 580.396 1203.93 C 573.629 1182.66 568.044 1151.26 566.059 1129.06 C 554.868 1003.93 601.832 876.293 682.015 780.93 C 760.296 688.32 872.409 630.924 993.309 621.563 C 996.015 622.133 995.86 621.525 997.376 624.097 C 1001.63 631.319 1004.4 638.483 1009.29 645.401 C 984.787 647.437 960.446 651.141 936.442 656.487 C 918.653 660.595 901.041 665.205 883.875 671.376 C 879.776 672.85 875.291 674.837 870.967 674.748 C 878.425 667.589 886.617 663.129 892.951 657.102 C 870.256 665.771 870.043 669.827 852.353 682.226 C 793.488 710.208 745.321 755.856 711.459 810.542 C 709.513 813.685 702.463 826.396 699.509 826.868 C 705.197 807.051 713.152 787.957 723.215 769.963 C 728.339 760.607 738.833 743.1 742.283 733.911 L 741.619 733.917 C 730.883 747.01 706.732 788.072 698.674 803.819 C 691.615 809.686 682.842 824.339 677.788 832.65 C 646.114 884.738 630.41 937.149 624.879 997.62 C 624.496 1001.81 623.412 1011.78 624.172 1015.64 C 619.004 1025.68 619.844 1032.92 621.292 1044.45 C 620.058 1099.68 624.545 1154.88 634.683 1209.17 C 635.86 1215.53 644.628 1251.74 643.68 1253.91 C 620.195 1237.11 612.12 1224.41 592.922 1206.73 L 592.882 1207.64 L 594.421 1212.05 L 592.55 1212.31 L 589.84 1209.91 C 585.733 1206.59 585.161 1205.9 580.396 1203.93 z" fill="rgb(206,185,158)" transform="translate(0,0)"></path>
<path d="M 698.674 803.819 C 706.732 788.072 730.883 747.01 741.619 733.917 L 742.283 733.911 C 738.833 743.1 728.339 760.607 723.215 769.963 C 713.152 787.957 705.197 807.051 699.509 826.868 C 694.857 837.263 689.427 866.908 688.314 878.022 C 683.798 923.1 700.251 961.29 730.783 994.008 C 739.772 1003.64 753.07 1014.52 760.847 1024.02 L 761.692 1025.07 C 733.446 1005.51 705.335 978.897 690.067 947.726 C 672.636 912.139 674.955 875.093 686.24 837.999 C 689.7 826.627 694.704 815.201 698.674 803.819 z" fill="rgb(47,39,24)" transform="translate(0,0)"></path>
<path d="M 592.882 1207.64 L 592.922 1206.73 C 612.12 1224.41 620.195 1237.11 643.68 1253.91 C 645.612 1256.1 651.792 1260.15 654.608 1262.05 C 709.203 1298.73 773.518 1316.92 838.239 1324.98 C 847.103 1326.08 855.93 1326.9 864.485 1328.84 L 865.872 1329.16 C 860.081 1329.25 854.289 1329.17 848.502 1328.95 C 782.483 1326.14 693.865 1307.44 643.434 1263.79 C 630.885 1253.11 619.354 1241.4 608.429 1229.09 C 603.777 1223.84 599.184 1216.77 594.421 1212.05 L 592.882 1207.64 z" fill="rgb(47,39,24)" transform="translate(0,0)"></path>
<path d="M 852.353 682.226 C 870.043 669.827 870.256 665.771 892.951 657.102 C 886.617 663.129 878.425 667.589 870.967 674.748 C 852.381 692.68 852.827 717.095 871.322 734.84 C 891.03 753.75 916.29 759.643 940.806 769.312 C 901.769 765.051 811.916 737.383 852.353 682.226 z" fill="rgb(47,39,24)" transform="translate(0,0)"></path>
<path d="M 624.172 1015.64 C 633.003 1017.34 635.067 1050.88 633.241 1057.53 C 630.109 1068.92 622.031 1047.3 621.292 1044.45 C 619.844 1032.92 619.004 1025.68 624.172 1015.64 z" fill="rgb(47,39,24)" transform="translate(0,0)"></path>
<path d="M 1133.44 767.535 C 1129.39 768.256 1123.6 769.901 1130.26 765.07 L 1133.44 767.535 z" fill="rgb(60,50,36)" transform="translate(0,0)"></path>
<path d="M 1023.04 1041.05 C 1016.79 1053.06 1009.32 1061.95 997.452 1068.82 C 983.169 1077.26 966.033 1079.45 950.088 1074.85 C 901.096 1060.45 916.98 998.639 952.518 979.892 C 955.321 978.413 956.522 979.316 959.013 980.395 C 962.027 990.1 933.051 1034.77 964.828 1049.77 C 985.788 1059.67 1009.87 1037.26 1023.26 1025.2 C 1030.88 1032.1 1036.81 1038.02 1045.18 1043.11 C 1067.41 1056.64 1097.33 1054.68 1095.77 1022.19 C 1094.99 1005.79 1088.11 996.486 1084.64 981.303 C 1084.81 981.005 1084.98 980.708 1085.16 980.41 C 1096.64 975.48 1114.89 996.204 1119.58 1005.7 C 1155.55 1078.62 1056.5 1103.06 1023.04 1041.05 z" fill="rgb(213,193,168)" transform="translate(0,0)"></path>
<path d="M 1023.04 1041.05 C 1016.79 1053.06 1009.32 1061.95 997.452 1068.82 C 983.169 1077.26 966.033 1079.45 950.088 1074.85 C 901.096 1060.45 916.98 998.639 952.518 979.892 C 955.321 978.413 956.522 979.316 959.013 980.395 C 944.008 992.155 932.314 1003.81 929.257 1023.55 C 925.723 1046.37 943.609 1063.1 965.489 1064.02 C 992.372 1065.16 1008.64 1051.76 1023.39 1031.33 C 1030.73 1044.92 1045.45 1058.61 1060.5 1061.88 C 1124.43 1075.79 1133.6 1011.57 1085.16 980.41 C 1096.64 975.48 1114.89 996.204 1119.58 1005.7 C 1155.55 1078.62 1056.5 1103.06 1023.04 1041.05 z" fill="rgb(47,39,24)" transform="translate(0,0)"></path>
<path d="M 1199.29 836.297 C 1213.31 835.804 1225.8 840.459 1237.54 849.445 C 1249.68 858.745 1273.59 890.036 1260.87 905.334 C 1251.27 916.875 1238.4 889.605 1232.45 883.747 C 1224.74 876.148 1219.48 873.446 1207.9 872.796 L 1206.49 872.729 C 1170.95 873.128 1176.41 896.743 1149.32 907.912 C 1147.85 908.301 1144.43 908.466 1143.33 907.343 C 1132.82 896.585 1143.51 873.941 1150.17 865.117 C 1162.08 849.384 1179.74 839.019 1199.29 836.297 z" fill="rgb(47,39,24)" transform="translate(0,0)"></path>
<path d="M 834.96 836.379 C 850.034 836.607 862.589 842.408 874.465 852.573 C 885.431 861.96 907.698 890.82 894.316 905.224 C 885.973 914.205 874.238 892.701 868.894 887.162 C 858.633 876.531 851.017 873.334 836.297 872.518 C 805.459 873.598 801.46 903.685 785.869 907.254 C 759.349 913.326 777.014 871.68 787.231 861.788 C 804.26 845.302 811.295 838.49 834.96 836.379 z" fill="rgb(47,39,24)" transform="translate(0,0)"></path>
<path d="M 1301.78 754.759 C 1302.15 754.877 1302.51 754.996 1302.87 755.114 C 1356.11 811.92 1377.8 902.691 1342.99 974.74 C 1308.76 1045.6 1247.49 1075.16 1177.87 1099.99 C 1174.71 1101.29 1174.75 1101.41 1171.17 1101.6 C 1173.53 1097.75 1191.48 1090.72 1197.22 1087.83 C 1258.36 1057.09 1317.83 1013.92 1340.25 946.224 C 1356.56 897.104 1349.43 842.48 1327.09 796.473 C 1320.09 782.069 1307.92 767.923 1301.78 754.759 z" fill="rgb(47,39,24)" transform="translate(0,0)"></path>
<path d="M 740.581 1067.06 C 781.459 1065.28 782.668 1096.67 812.604 1115.65 C 840.098 1133.51 872.95 1132.71 903.899 1138.71 C 924.102 1142.63 967.889 1156.25 983.928 1170.17 L 983.157 1171 L 980.765 1170.35 C 968.005 1166.77 953.411 1164.46 940.953 1160.46 C 903.394 1147.77 860.622 1151.41 824.102 1138.37 C 795.873 1128.28 757.449 1101.89 736.391 1080.34 C 731.519 1075.35 735.491 1069.89 740.581 1067.06 z" fill="rgb(47,39,24)" transform="translate(0,0)"></path>
<path d="M 1157.44 661.944 C 1162.05 661.799 1164.17 661.441 1166.85 665.443 C 1169.25 685.613 1141.15 704.057 1125.44 711.516 C 1070.04 737.832 1000.67 734.552 943.982 714.272 C 936.922 711.471 932.249 709.585 925.573 706.033 C 989.602 719.61 1074.54 731.695 1131.52 690.827 C 1140.82 684.162 1147.92 669.403 1157.44 661.944 z" fill="rgb(47,39,24)" transform="translate(0,0)"></path>
<path d="M 1147.66 1164.9 L 1148.39 1165.71 C 1147.47 1169.36 1140.17 1175.66 1137.27 1178.34 C 1111.58 1202.05 1082.74 1222.4 1051.1 1237.39 C 993.068 1264.89 927.937 1270.62 865.024 1260.74 C 831.77 1255.49 799.376 1245.38 767.754 1234.03 C 765.08 1232.95 763.885 1232.58 762.624 1230.48 C 769.266 1230.21 812.373 1243.35 823.085 1245.79 C 843.599 1250.45 864.427 1253.6 885.402 1255.21 C 991.121 1263.31 1068.29 1232.81 1147.66 1164.9 z" fill="rgb(47,39,24)" transform="translate(0,0)"></path>
<path d="M 1272.3 1130.75 L 1273.32 1131.77 C 1273.02 1133.1 1272.79 1134.26 1272.22 1135.51 C 1229.03 1230.27 1177.81 1267.54 1085.16 1302.97 L 1084.6 1302.54 C 1084.56 1300.58 1084.77 1300.47 1086.98 1299.4 C 1148.65 1269.36 1205.25 1228.25 1245.91 1172.36 C 1255.22 1159.56 1263.43 1144.22 1272.3 1130.75 z" fill="rgb(47,39,24)" transform="translate(0,0)"></path>
<path d="M 657.229 1025.23 C 657.639 1027.31 658.326 1027.64 659.802 1029.22 C 660.002 1059.31 661.886 1088.37 676.022 1115.52 C 697.568 1156.91 733.82 1185.09 768.931 1213.85 C 744.223 1203.62 698.086 1162.27 681.957 1141.18 C 653.386 1103.83 651.811 1069.94 657.229 1025.23 z" fill="rgb(47,39,24)" transform="translate(0,0)"></path>
<path d="M 947.623 1286.41 C 952.384 1285.69 990.207 1286.11 987.29 1296.08 C 986.17 1299.91 960.447 1305.32 953.772 1306.09 C 948.87 1306.81 911.915 1312.18 911.985 1304.03 C 912.107 1289.78 936.911 1287.58 947.623 1286.41 z" fill="rgb(213,193,168)" transform="translate(0,0)"></path>
<path d="M 1395.37 944.505 C 1406.23 952.003 1416.86 998.009 1413.81 1013.24 C 1408.94 1037.51 1398.3 1048.78 1379.25 1062.89 C 1376.55 1064.95 1375.88 1065.14 1372.88 1066.55 C 1373.29 1065.16 1383.2 1054.04 1385.13 1051.58 C 1412.41 1016.77 1405.44 984.082 1395.37 944.505 z" fill="rgb(47,39,24)" transform="translate(0,0)"></path>
<path d="M 1063.43 1366.13 C 1068.17 1365.83 1075.2 1364.44 1076.66 1370.06 C 1077.04 1370.94 1076.78 1373.3 1076.13 1373.99 C 1063.02 1387.76 1042.37 1391.48 1024.81 1395.7 C 1017.35 1396.59 1014.71 1396.93 1007.07 1397.25 C 1024.1 1384.32 1042.07 1370.62 1063.43 1366.13 z" fill="rgb(213,193,168)" transform="translate(0,0)"></path>
<path d="M 1340.78 1054.14 C 1346.98 1107.56 1325.98 1141.78 1280.21 1167.44 C 1310.42 1134.8 1337.38 1104.37 1338.03 1057.29 L 1340.78 1054.14 z" fill="rgb(47,39,24)" transform="translate(0,0)"></path>
<path d="M 1240.26 748.115 C 1247.04 747.656 1260.54 748.821 1255.73 758.932 C 1251.59 767.612 1229.01 772.876 1220.31 774.313 C 1217.46 774.65 1197.43 778.232 1203.35 770.25 C 1211.56 759.176 1226.99 751.096 1240.26 748.115 z" fill="rgb(47,39,24)" transform="translate(0,0)"></path>
<path d="M 1018.88 759.201 C 1024.89 758.781 1037.35 757.688 1042.51 760.97 C 1055.95 769.511 1048.2 773.98 1037.69 776.748 C 1030.64 777.136 1023.76 777.56 1016.91 775.488 C 1000.83 770.621 1006.92 764.273 1018.88 759.201 z" fill="rgb(206,185,158)" transform="translate(0,0)"></path>
<path d="M 676.629 1226.79 C 686.851 1226.68 697.56 1233.51 695.538 1244.52 C 684.438 1242.59 671.992 1240.45 676.629 1226.79 z" fill="rgb(47,39,24)" transform="translate(0,0)"></path>
<path d="M 1077.49 754.956 C 1087.49 755.383 1098.5 761.196 1086.66 769.237 C 1076.62 770.199 1068.15 764.069 1076.23 756.216 L 1077.49 754.956 z" fill="rgb(206,185,158)" transform="translate(0,0)"></path>
<path d="M 657.229 1025.23 C 657.576 1023.41 658.585 1016.93 659.932 1015.94 L 660.368 1015.9 C 661.03 1016.73 659.899 1027.37 659.802 1029.22 C 658.326 1027.64 657.639 1027.31 657.229 1025.23 z" fill="rgb(36,32,18)" transform="translate(0,0)"></path>
<path d="M 1338.03 1057.29 C 1338.02 1055.88 1338.52 1038.19 1340.31 1050.97 L 1340.78 1054.14 L 1338.03 1057.29 z" fill="rgb(36,32,18)" transform="translate(0,0)"></path>
<path d="M 1279.24 127.683 C 1290.73 182.341 1285.67 253.125 1266.52 305.521 C 1244.39 366.054 1185.38 422.286 1121.45 435.605 C 1096.29 440.848 1063.69 439.141 1037.47 438.875 C 1022.54 473.544 1018.62 495.744 1023.77 534.028 C 1040.41 514.934 1048.84 509.924 1071.83 498.68 C 1073.3 482.387 1081.52 470.148 1093.78 459.808 C 1111.43 444.698 1134.45 437.374 1157.58 439.5 C 1202.47 443.553 1236.14 478.483 1284.33 468.025 C 1296.55 465.4 1307.96 459.857 1317.57 451.868 C 1320.68 449.273 1324.67 445.171 1327.41 442.192 C 1319.46 483.229 1294.78 516.823 1260.03 539.67 C 1231.42 558.483 1194.39 574.266 1159.46 567.276 C 1127.85 560.95 1090.45 534.339 1074.35 506.412 C 1055.63 515.15 1038.72 526.214 1028.33 544.34 C 1031.68 565.634 1054.27 606.207 1074.27 613.532 C 1078.85 625.387 1125.91 633.689 1138.15 636.66 C 1136.17 640.039 1135.69 641.587 1132.24 643.426 L 1130 643.309 C 1126.84 650.664 1096.67 673.215 1088.31 677.462 C 1084.16 679.574 1051.13 679.863 1047.03 676.767 C 1032.91 678.638 1020.04 651.593 1009.29 645.401 C 1004.4 638.483 1001.63 631.319 997.376 624.097 C 995.86 621.525 996.015 622.133 993.309 621.563 L 994.318 621.03 L 994.91 619.067 C 993.598 615.107 993.501 615.184 991.001 611.737 C 979.631 574.232 975.986 543.712 984.195 504.798 C 980.42 501.379 976.663 497.941 972.924 494.481 C 945.699 518.976 915.36 538.656 877.149 536.015 C 804.414 530.988 724.472 477.881 715.129 401.203 C 752.256 450.604 810.235 425.537 855.493 406.898 C 909.193 384.783 970.92 403.359 982.358 465.144 C 983.622 471.371 983.304 491.918 986.617 495.651 C 989.88 491.033 993.585 480.797 996.252 475.06 C 1003.99 458.41 1013.18 448.234 1026.07 435.534 C 1007.81 420.773 995.371 397.412 993.009 374.052 C 990.098 345.261 999.686 317.653 1017.99 295.492 C 1081.55 218.562 1196.51 255.132 1251.12 188.498 C 1265.12 171.419 1273.63 148.795 1279.24 127.683 z" fill="rgb(194,151,89)" transform="translate(0,0)"></path>
<path d="M 1047.03 676.767 C 1010.03 638.973 991.698 612.209 987.415 556.476 C 984.292 515.827 998.986 476.751 1025.73 446.289 C 1022.39 454.8 1019.72 463.564 1017.76 472.497 C 1008.99 511.693 1016.42 552.772 1038.36 586.416 C 1063.33 624.687 1087.3 634.191 1130 643.309 C 1126.84 650.664 1096.67 673.215 1088.31 677.462 C 1084.16 679.574 1051.13 679.863 1047.03 676.767 z" fill="rgb(45,90,65)" transform="translate(0,0)"></path>
<path d="M 1274.43 164.085 L 1277.43 166.096 C 1278.98 250.057 1270.54 324.829 1202.63 384.177 C 1149.84 430.318 1104.73 435.755 1037.38 431.043 C 1046.69 339.394 1172.98 328.519 1213.27 264.324 C 1185.69 289.614 1152.17 308.433 1119.44 326.049 C 1071.51 351.841 1043.25 374.633 1029.51 428.317 C 992.982 397.243 991.836 342.61 1019.69 305.427 C 1027.26 295.322 1034.24 289.042 1044.14 281.279 C 1118.01 223.362 1229.51 263.108 1274.43 164.085 z" fill="rgb(45,90,65)" transform="translate(0,0)"></path>
<path d="M 891.577 406.394 C 945.957 401.524 971.941 432.985 976.126 484.091 C 963.622 473.813 949.358 465.886 934.026 460.695 C 899.759 449.193 862.347 451.603 829.839 467.405 L 829.523 468.712 C 837.237 468.182 851.18 463.476 860.875 462.051 C 899.901 456.311 936.27 463.316 968.309 487.029 C 963.256 491.92 958.476 496.175 953.176 500.805 C 908.65 538.423 862.511 533.673 811.947 510.977 C 775.379 494.563 741.662 462.592 727.808 424.584 C 799.182 460.258 827.468 413.044 891.577 406.394 z" fill="rgb(45,90,65)" transform="translate(0,0)"></path>
<path d="M 1078.76 497.008 C 1096.88 449.545 1143.76 435.411 1188.77 454.421 C 1232.51 472.893 1267.38 490.071 1312.71 465.236 C 1294.83 504.9 1270.4 527.363 1231.94 546.981 C 1183.78 571.543 1141.17 563.999 1102.16 527.417 C 1100.82 526.16 1090.77 516.509 1089.67 515.96 L 1081.83 504.342 C 1135.29 482.253 1164.57 491.865 1217.38 507.496 C 1177.88 481.407 1121.86 478.106 1078.76 497.008 z" fill="rgb(45,90,65)" transform="translate(0,0)"></path>
<path d="M 1274.43 164.085 C 1274.82 163.327 1275.64 161.164 1276.54 160.763 C 1277.27 161.284 1277.34 165.201 1277.43 166.096 L 1274.43 164.085 z" fill="rgb(101,103,80)" transform="translate(0,0)"></path>
<path d="M 980.902 1798.78 C 981.571 1798.56 982.128 1798.51 982.822 1798.39 C 986.489 1804.14 987.586 1809.17 982.431 1814.68 C 963.215 1835.21 931.096 1831.52 909.564 1819.3 C 933.802 1817.48 961.818 1815.99 980.902 1798.78 z" fill="rgb(109,91,70)" transform="translate(0,0)"></path>
<path d="M 980.902 1798.78 C 975.41 1794.6 974.895 1793.45 981.482 1791.59 C 983.202 1793.35 984.6 1794.48 986.372 1796.07 C 984.839 1797.22 984.534 1797.38 982.822 1798.39 C 982.128 1798.51 981.571 1798.56 980.902 1798.78 z" fill="rgb(60,50,36)" transform="translate(0,0)"></path>
<path d="M 1171.07 1404.21 L 1172.67 1405.96 C 1171.73 1406.53 1166.92 1410.01 1165.87 1409.37 C 1165.66 1408.23 1170.21 1404.93 1171.07 1404.21 z" fill="rgb(128,111,85)" transform="translate(0,0)"></path>
<path d="M 785.502 1416.04 C 784.563 1415.66 781.984 1414.95 781.538 1413.97 C 781.995 1412.91 787.762 1414.18 788.983 1414.52 C 787.818 1415.02 786.658 1415.52 785.502 1416.04 z" fill="rgb(128,111,85)" transform="translate(0,0)"></path>
<path d="M 586.257 1251.58 C 586.188 1251.05 585.398 1247.04 586.489 1246.78 C 587.636 1247.24 588.66 1249.88 589.2 1250.99 L 586.257 1251.58 z" fill="rgb(224,220,223)" transform="translate(0,0)"></path>
<path d="M 686.487 1540.01 L 686.443 1538.51 C 685.424 1496.53 702.014 1459.05 730.729 1428.79 C 738.722 1435.76 748.178 1443.22 756.438 1450.02 C 781.731 1471.39 818.678 1492.76 849.134 1505.54 C 860.007 1510.1 872.141 1513.29 882.901 1517.5 C 883.57 1541.91 877.467 1563.12 859.979 1581.74 C 825.755 1618.16 745.272 1629.17 707.112 1593.45 C 692.309 1579.59 687.795 1559.75 686.487 1540.01 z" fill="rgb(101,103,80)" transform="translate(0,0)"></path>
<path d="M 686.487 1540.01 L 686.443 1538.51 C 685.424 1496.53 702.014 1459.05 730.729 1428.79 C 738.722 1435.76 748.178 1443.22 756.438 1450.02 C 748.182 1466.13 742.41 1477.25 736.631 1494.56 C 750.741 1517.69 766.347 1529.5 793.121 1536.64 C 798.489 1538.07 815.667 1539.24 817.501 1541.02 C 813.213 1544.25 800.432 1542.92 794.947 1542.07 C 768.548 1537.99 751.368 1527.47 732.604 1509.34 C 730.343 1519.38 727.823 1532.83 726.616 1543.19 C 747.799 1564.95 782.449 1573.42 811.918 1573.85 C 815.204 1573.89 818.49 1573.9 821.775 1573.87 C 826.136 1574.26 827.388 1573.66 830.915 1575.49 C 782.428 1594.17 730.244 1556.52 726.71 1556.98 C 727.509 1559.83 727.753 1558.62 726.873 1560.88 C 715.119 1560.15 695.732 1547.18 686.487 1540.01 z" fill="rgb(206,185,158)" transform="translate(0,0)"></path>
<path d="M 821.775 1573.87 C 822.916 1573.68 834.577 1571.82 834.39 1573.95 C 833.661 1574.96 832.074 1575.18 830.915 1575.49 C 827.388 1573.66 826.136 1574.26 821.775 1573.87 z" fill="rgb(213,193,168)" transform="translate(0,0)"></path>
<path d="M 1293.17 1431.67 C 1322.95 1458.47 1338.91 1498.83 1331 1538.63 C 1326.5 1561.54 1312.97 1581.66 1293.46 1594.48 C 1262.43 1615.01 1224.08 1618.66 1188.28 1611.27 C 1141.62 1595.38 1141.95 1564.2 1145.16 1521.73 C 1204.59 1506.21 1256.28 1484.31 1293.17 1431.67 z" fill="rgb(101,103,80)" transform="translate(0,0)"></path>
<path d="M 1185.67 1573.79 C 1229.81 1574.89 1264.39 1570.16 1297.87 1538.41 L 1305.11 1531.51 C 1293.96 1554.06 1276.64 1566.02 1253.02 1574.17 C 1231.4 1581.44 1208.18 1582.52 1185.97 1577.31 C 1183.41 1575.89 1180.97 1574.24 1185.67 1573.79 z" fill="rgb(206,185,158)" transform="translate(0,0)"></path>
<path d="M 1185.97 1577.31 C 1183.41 1575.89 1180.97 1574.24 1185.67 1573.79 C 1185.87 1574.77 1185.91 1576.33 1185.97 1577.31 z" fill="rgb(213,193,168)" transform="translate(0,0)"></path>
<path d="M 1204.86 1540.02 C 1236.68 1538.07 1263.65 1525.16 1280.8 1497.6 C 1286.56 1488.35 1288.84 1480.24 1293.4 1470.66 C 1293.12 1475.6 1293.07 1481.18 1292.01 1486 C 1284.7 1519.24 1253.11 1538.98 1221 1542.97 C 1215.03 1543.71 1209.76 1543.22 1203.85 1543.03 C 1204.21 1542.01 1204.54 1541.06 1204.86 1540.02 z" fill="rgb(206,185,158)" transform="translate(0,0)"></path>
<path d="M 1203.85 1543.03 C 1198.7 1540.88 1200.12 1540.2 1204.86 1540.02 C 1204.54 1541.06 1204.21 1542.01 1203.85 1543.03 z" fill="rgb(213,193,168)" transform="translate(0,0)"></path>
<path d="M 715.205 1613.75 C 724.638 1620.85 736.19 1628.69 747.739 1631.79 C 787.977 1644.24 822.67 1643.18 861.906 1629.39 C 872.937 1639.14 880.015 1651.91 881.064 1666.8 C 881.923 1678.77 877.853 1690.57 869.797 1699.46 C 854.182 1716.9 826.651 1723.17 804.17 1723.3 C 768.949 1723.5 733.762 1723.52 698.531 1723.89 C 692.066 1716.6 686.561 1706.52 684.1 1697.09 C 675.911 1664.75 689.156 1633.54 715.205 1613.75 z" fill="rgb(101,103,80)" transform="translate(0,0)"></path>
<path d="M 715.205 1613.75 C 724.638 1620.85 736.19 1628.69 747.739 1631.79 C 743.913 1638.26 740.523 1644.97 737.592 1651.89 C 735.718 1655 735.288 1657.11 733.855 1659.35 L 733.269 1660.67 C 729.673 1668.45 730.452 1679.74 726.73 1687.19 C 725.532 1687.11 719.176 1685.99 721.574 1688.29 C 720.25 1690.11 719.664 1690.93 718.089 1692.57 C 707.404 1689.13 694.769 1693.83 684.1 1697.09 C 675.911 1664.75 689.156 1633.54 715.205 1613.75 z" fill="rgb(213,193,168)" transform="translate(0,0)"></path>
<path d="M 835.827 1648.32 C 813.547 1670.46 761.999 1667.91 733.855 1659.35 C 735.288 1657.11 735.718 1655 737.592 1651.89 C 755.506 1660.41 785.408 1660.14 804.994 1657.88 C 816.254 1656.58 825.597 1652.82 835.827 1648.32 z" fill="rgb(206,185,158)" transform="translate(0,0)"></path>
<path d="M 840.613 1684.59 L 841.418 1686.32 C 801.675 1700.33 759.119 1707.22 718.089 1692.57 C 719.664 1690.93 720.25 1690.11 721.574 1688.29 C 723.071 1689.01 724.776 1689.92 726.321 1690.43 C 764.118 1698.07 803.949 1696.97 840.613 1684.59 z" fill="url(#Gradient1)" transform="translate(0,0)"></path>
<path d="M 840.613 1684.59 C 844.604 1682.38 845.382 1683.96 841.418 1686.32 L 840.613 1684.59 z" fill="rgb(149,135,107)" transform="translate(0,0)"></path>
<path d="M 1176.93 1621.95 C 1185.66 1627.01 1194.75 1630.43 1204.3 1633.56 C 1249.62 1644.92 1276.89 1642.96 1319.62 1624.57 C 1344.22 1645.84 1350.9 1674 1327.47 1700.08 C 1305.73 1724.29 1271.76 1724.09 1242 1724.17 C 1217.28 1724.09 1189.6 1724.91 1165.25 1722.94 C 1155.38 1712.26 1151.84 1703.2 1149.16 1689 C 1147.49 1657.12 1153.63 1643.44 1176.93 1621.95 z" fill="rgb(101,103,80)" transform="translate(0,0)"></path>
<path d="M 1176.93 1621.95 C 1185.66 1627.01 1194.75 1630.43 1204.3 1633.56 C 1203.25 1640.65 1202.15 1646.03 1200.55 1653.03 C 1227.64 1660.17 1254.66 1661.56 1282.11 1654.36 C 1290.44 1652.17 1299.74 1647.45 1306.36 1645.71 C 1280.36 1668.7 1231.02 1670.59 1199.48 1660.06 L 1197.1 1691.5 C 1236.46 1697.83 1268.62 1695.11 1306.67 1683.65 C 1296.42 1690.28 1283.48 1693.49 1271.64 1696 C 1229.35 1704.94 1190.06 1701.79 1149.16 1689 C 1147.49 1657.12 1153.63 1643.44 1176.93 1621.95 z" fill="rgb(206,185,158)" transform="translate(0,0)"></path>
<path d="M 1275.21 1744.42 C 1302.41 1744.28 1321.77 1751.5 1344.03 1768.42 C 1355.41 1776.08 1372.47 1800.27 1372.86 1814.45 C 1373.69 1844.49 1299.4 1845.64 1281.6 1846.04 C 1238.07 1846.61 1141.35 1845.6 1199.81 1779.81 C 1219.48 1757.68 1246.12 1746.34 1275.21 1744.42 z" fill="rgb(109,91,70)" transform="translate(0,0)"></path>
<path d="M 1349.3 1806.92 L 1351.43 1806.96 L 1351.36 1808.2 C 1345.4 1813.63 1337.41 1817.06 1329.85 1819.75 C 1294.22 1832.45 1248.43 1830.46 1214.25 1814.02 C 1211.27 1812.44 1207.29 1809.28 1204.48 1807.21 C 1252.59 1824.34 1301.22 1825.14 1349.3 1806.92 z" fill="rgb(47,39,24)" transform="translate(0,0)"></path>
<path d="M 1229.4 1783.27 L 1230.15 1783.45 C 1239.53 1785.73 1247.6 1789.54 1257.5 1790.91 C 1276.84 1793.67 1297.48 1792.67 1316.32 1787.35 C 1318.06 1786.86 1328.07 1783.13 1329.43 1784.7 C 1330.77 1786.26 1329.14 1787.65 1327.74 1788.6 C 1296.3 1800.92 1264.89 1806.45 1233.55 1787.98 C 1231.01 1786.49 1229.94 1785.93 1229.4 1783.27 z" fill="rgb(47,39,24)" transform="translate(0,0)"></path>
<path d="M 750.74 1745.28 C 782.578 1742.77 804.737 1749.09 830.474 1769.06 C 842.367 1778.26 857.751 1797.4 858.876 1812.82 C 861.318 1846.3 800.202 1844.96 779.197 1845.86 C 748.958 1846.31 704.538 1845.41 676.871 1832.36 C 660.053 1824.43 672.556 1798.74 680.624 1787.71 C 697.931 1764.03 721.752 1750.08 750.74 1745.28 z" fill="rgb(109,91,70)" transform="translate(0,0)"></path>
<path d="M 689.565 1806.09 C 697.342 1808.11 705.537 1812.1 713.815 1814.22 C 746.79 1822.65 783.032 1822.3 815.956 1813.79 C 821.388 1812.38 826.559 1810.03 832.103 1809.33 L 832.027 1810.26 L 829.129 1812.44 C 789.918 1832.01 729.422 1835.09 690.516 1810.01 C 689.003 1809.03 689.537 1807.79 689.565 1806.09 z" fill="rgb(47,39,24)" transform="translate(0,0)"></path>
<path d="M 809.815 1783.03 C 810.803 1783.39 812.979 1784.66 811.445 1785.86 C 799.034 1795.43 782.743 1798.59 767.437 1799.33 C 748.156 1800.27 736.411 1797.69 719.069 1790.13 C 717.829 1789.32 713.038 1786.89 713.179 1784.99 C 713.2 1784.71 713.341 1784.45 713.567 1784.28 C 715.052 1783.14 728.398 1788.06 731.524 1788.83 C 747.323 1792.83 762.94 1792.52 779.003 1791.17 C 791.579 1790.11 798.347 1786.89 809.815 1783.03 z" fill="rgb(47,39,24)" transform="translate(0,0)"></path>
<path d="M 1547.4 1296.4 C 1560.67 1296.89 1572.84 1299.38 1582.99 1307.67 C 1611.99 1331.37 1609.88 1372.15 1576.1 1390.09 C 1564.4 1396.29 1557.92 1398.02 1545.24 1399.62 C 1467.48 1407.86 1476.33 1302.65 1547.4 1296.4 z" fill="rgb(109,91,70)" transform="translate(0,0)"></path>
<path d="M 1534.66 1310.94 C 1549.68 1311.82 1532.62 1328.07 1524.48 1331.66 C 1512.11 1321.97 1524.5 1314.7 1534.66 1310.94 z" fill="rgb(194,151,89)" transform="translate(0,0)"></path>
<path d="M 1516.84 1338.74 C 1528.31 1338.89 1524.57 1350.61 1519.25 1356.26 L 1517.96 1357.67 C 1505.97 1354.99 1508.54 1345.15 1516.84 1338.74 z" fill="rgb(194,151,89)" transform="translate(0,0)"></path>
<path d="M 1523.06 1361.47 C 1524.71 1360.4 1526.82 1360.35 1528.52 1361.33 C 1530.22 1362.31 1531.24 1364.16 1531.14 1366.12 C 1531.04 1368.09 1529.85 1369.83 1528.06 1370.64 C 1525.57 1371.77 1522.62 1370.78 1521.31 1368.38 C 1520 1365.97 1520.76 1362.96 1523.06 1361.47 z" fill="rgb(194,151,89)" transform="translate(0,0)"></path>
<path d="M 1541.87 1366.73 C 1543.45 1365.89 1545.35 1365.99 1546.84 1366.97 C 1548.32 1367.96 1549.15 1369.68 1549 1371.45 C 1548.84 1373.23 1547.73 1374.77 1546.1 1375.49 C 1543.7 1376.54 1540.9 1375.51 1539.76 1373.15 C 1538.62 1370.79 1539.56 1367.95 1541.87 1366.73 z" fill="rgb(194,151,89)" transform="translate(0,0)"></path>
<path d="M 495.185 1296.34 C 504.842 1296.32 515.149 1297.35 523.515 1302.62 C 530.121 1306.69 534.743 1313.32 536.28 1320.92 C 542.669 1351.2 510.914 1395.66 480.331 1401.66 C 422.313 1406.17 421.197 1304.63 495.185 1296.34 z" fill="rgb(109,91,70)" transform="translate(0,0)"></path>
<path d="M 483.199 1313.13 C 495.533 1312.59 506.795 1316.05 509.019 1329.49 C 512.511 1350.59 502.453 1361.21 484.819 1367.81 L 483.546 1368 C 443.812 1374.34 452.414 1326.15 483.199 1313.13 z" fill="rgb(194,151,89)" transform="translate(0,0)"></path>
<path d="M 1474.09 867.366 C 1478.56 867.122 1483.05 867.32 1487.48 867.956 C 1545.01 876.275 1579.21 950.33 1526.67 990.001 C 1510.54 1002.18 1489.13 1004.23 1469.54 1000.96 C 1468.89 994.66 1466.47 982.689 1466.71 977.28 L 1468.24 977.324 C 1485.71 983.961 1503.66 981.46 1515.38 965.814 C 1522.34 956.617 1525.26 944.987 1523.49 933.591 C 1517.55 896.805 1474.76 888.788 1452.66 921.37 L 1436.31 880.563 C 1450.64 872.623 1457.91 869.339 1474.09 867.366 z" fill="rgb(149,135,107)" transform="translate(0,0)"></path>
<path d="M 572.694 867.918 C 619.425 871.551 601.77 885.924 590.965 915.983 C 582.011 907.413 572.689 900.138 559.578 900.577 C 524.585 901.75 509.47 947.658 535.154 970.728 C 545.584 980.097 556.351 980.496 569.422 979.541 L 563.941 1003.18 C 541.647 1002.45 516.292 995.932 504.239 975.322 C 503.543 974.076 503.016 973.239 502.491 971.942 C 479.7 926.766 505.869 880.308 554.587 869.175 C 560.269 867.876 566.845 867.996 572.694 867.918 z" fill="rgb(149,135,107)" transform="translate(0,0)"></path>
<path d="M 502.491 971.942 C 479.7 926.766 505.869 880.308 554.587 869.175 C 560.269 867.876 566.845 867.996 572.694 867.918 C 567.589 879.738 557.458 879.892 546.001 886.71 C 516.784 904.095 506.652 930.925 504.44 963.195 C 503.157 966.878 504.7 967.638 502.491 971.942 z" fill="rgb(206,185,158)" transform="translate(0,0)"></path>
<path d="M 502.491 971.942 C 504.7 967.638 503.157 966.878 504.44 963.195 C 504.878 967.501 504.955 971.077 504.239 975.322 C 503.543 974.076 503.016 973.239 502.491 971.942 z" fill="rgb(213,193,168)" transform="translate(0,0)"></path>
<path d="M 1525.51 1482.19 C 1566.76 1479.79 1586.29 1532.17 1566.55 1563.56 C 1562.63 1569.8 1551.68 1571.67 1545.14 1572.29 C 1519.54 1568.64 1493.06 1547.54 1496.83 1519.5 C 1497.61 1513.04 1499.52 1506.77 1502.49 1500.98 C 1508.06 1490.06 1514.15 1485.79 1525.51 1482.19 z" fill="rgb(109,91,70)" transform="translate(0,0)"></path>
<path d="M 1521.72 1493.64 C 1523.12 1493.69 1531 1494.6 1528.48 1497.97 C 1522.88 1504.82 1519.18 1511.49 1518.67 1520.49 C 1518.49 1523.69 1517.58 1525.64 1515.3 1527.76 L 1514.36 1528.67 C 1507.49 1526.12 1505.5 1523.86 1506.22 1516 C 1507.18 1505.58 1513.84 1499.76 1521.72 1493.64 z" fill="rgb(206,185,158)" transform="translate(0,0)"></path>
<path d="M 1533.73 1503.47 C 1542.29 1504.87 1540.4 1509.1 1536.47 1514.56 C 1529.68 1512.02 1530.75 1508.99 1533.73 1503.47 z" fill="rgb(194,151,89)" transform="translate(0,0)"></path>
<path d="M 514.23 1481.19 C 537.171 1480.73 553.091 1515.05 547.372 1534.16 C 542.365 1550.89 523.149 1561.52 508.677 1569.28 C 501.069 1571.47 484.998 1574.19 480.931 1566.01 C 464.157 1532.26 475.88 1488.7 514.23 1481.19 z" fill="rgb(109,91,70)" transform="translate(0,0)"></path>
<path d="M 506.408 1494.03 C 519.648 1493.41 527.064 1497.24 531.102 1512.52 C 531.539 1514.18 529.83 1516.09 528.724 1517.23 C 523.204 1510.3 519.405 1506.07 510.922 1502.51 C 503.514 1499.4 500.446 1500.23 506.408 1494.03 z" fill="rgb(213,193,168)" transform="translate(0,0)"></path>
<path d="M 506.507 1512.88 C 510.044 1510.78 514.617 1511.92 516.75 1515.44 C 518.883 1518.96 517.778 1523.54 514.275 1525.7 C 510.732 1527.89 506.087 1526.77 503.929 1523.21 C 501.772 1519.65 502.929 1515.01 506.507 1512.88 z" fill="rgb(194,151,89)" transform="translate(0,0)"></path>
<path d="M 1490.53 1401.17 C 1540.26 1400.37 1556.48 1459.16 1513.59 1471.89 C 1459.93 1477.19 1450.76 1411.08 1490.53 1401.17 z" fill="rgb(109,91,70)" transform="translate(0,0)"></path>
<path d="M 446.926 1413.02 C 483.34 1414.44 517.897 1460.88 476.989 1477.71 L 475.281 1478.4 C 474.54 1478.69 473.799 1478.99 473.058 1479.29 C 408.237 1494.6 421.643 1424.68 446.926 1413.02 z" fill="rgb(109,91,70)" transform="translate(0,0)"></path>
<path d="M 458.467 1435.94 C 460.848 1434.7 463.716 1434.87 465.939 1436.37 C 468.161 1437.88 469.381 1440.48 469.116 1443.15 C 468.852 1445.82 467.145 1448.13 464.671 1449.17 C 461.056 1450.68 456.888 1449.08 455.224 1445.53 C 453.559 1441.98 454.99 1437.75 458.467 1435.94 z" fill="rgb(206,185,158)" transform="translate(0,0)"></path>
<path d="M 447.253 1425.83 C 449.795 1425.16 452.424 1426.56 453.301 1429.03 C 454.178 1431.51 453.011 1434.25 450.616 1435.33 C 448.877 1436.11 446.845 1435.85 445.361 1434.66 C 443.876 1433.46 443.192 1431.53 443.592 1429.66 C 443.992 1427.8 445.408 1426.31 447.253 1425.83 z" fill="rgb(194,151,89)" transform="translate(0,0)"></path>
<path d="M 415.032 1497.4 C 427.333 1495.43 446.641 1497.83 454.612 1508.37 C 463.176 1519.71 459.464 1536.01 447.671 1543.43 C 437.613 1549.76 427.656 1548.32 416.778 1546.86 C 404.186 1544.03 359.088 1536.23 370.7 1510.39 C 375.278 1500.2 403.94 1498.82 415.032 1497.4 z" fill="rgb(109,91,70)" transform="translate(0,0)"></path>
<path d="M 409.719 1517.61 C 411.454 1516.47 413.671 1516.36 415.508 1517.33 C 417.345 1518.29 418.512 1520.18 418.555 1522.26 C 418.598 1524.33 417.511 1526.27 415.716 1527.31 C 413.044 1528.86 409.621 1528 407.996 1525.38 C 406.371 1522.75 407.135 1519.3 409.719 1517.61 z" fill="rgb(194,151,89)" transform="translate(0,0)"></path>
<path d="M 397.957 1504.71 C 406.378 1505.65 408.118 1505.39 402.055 1511.93 C 395.743 1511.77 394.711 1509.84 397.957 1504.71 z" fill="rgb(206,185,158)" transform="translate(0,0)"></path>
<path d="M 396.196 1517.56 C 397.022 1516.75 398.243 1516.51 399.316 1516.93 C 400.388 1517.35 401.112 1518.37 401.165 1519.52 C 401.218 1520.67 400.59 1521.75 399.561 1522.27 C 398.271 1522.92 396.698 1522.53 395.858 1521.36 C 395.017 1520.18 395.161 1518.57 396.196 1517.56 z" fill="rgb(206,185,158)" transform="translate(0,0)"></path>
<path d="M 1588.98 1416.2 C 1615.67 1416.35 1628.97 1447.53 1616.57 1467.33 C 1612.06 1474.46 1604.79 1479.38 1596.5 1480.94 C 1591.55 1481.77 1589.1 1481.97 1584.09 1482.08 L 1579.98 1481.24 C 1533.08 1472.09 1549.85 1424.16 1585.56 1416.87 L 1588.98 1416.2 z" fill="rgb(109,91,70)" transform="translate(0,0)"></path>
<path d="M 1601.56 1432.47 C 1609.14 1433.84 1610.76 1437.08 1606.21 1443.37 C 1599.88 1440.23 1596.88 1438.52 1601.56 1432.47 z" fill="rgb(206,185,158)" transform="translate(0,0)"></path>
<path d="M 1594.61 1425.72 C 1595.54 1424.79 1596.9 1424.44 1598.17 1424.81 C 1599.43 1425.17 1600.39 1426.19 1600.69 1427.47 C 1600.98 1428.75 1600.56 1430.09 1599.58 1430.97 C 1598.12 1432.28 1595.89 1432.19 1594.54 1430.77 C 1593.19 1429.34 1593.22 1427.1 1594.61 1425.72 z" fill="rgb(206,185,158)" transform="translate(0,0)"></path>
<path d="M 387.047 1412.15 C 421.961 1410.54 416.633 1433.78 415.027 1457.83 C 413.713 1477.5 411.568 1487.95 389.46 1487.27 C 346.911 1475.58 352.474 1426.56 387.047 1412.15 z" fill="rgb(109,91,70)" transform="translate(0,0)"></path>
<path d="M 390.982 1428.52 C 406.498 1432.36 402.909 1444.53 393.052 1453.2 C 376.061 1453.82 382.309 1436.36 390.982 1428.52 z" fill="rgb(194,151,89)" transform="translate(0,0)"></path>
<path d="M 369.276 1437.02 C 369.502 1437.49 369.729 1437.97 369.955 1438.44 C 370.351 1439.27 371.078 1439.91 371.96 1440.18 C 373.431 1440.65 375.166 1440.42 376.681 1440.47 C 376.997 1444.33 376.627 1446.27 376.766 1449.79 L 376.303 1451.39 C 375.267 1455.36 373.531 1456.37 370.125 1458.33 C 367.185 1455.2 367.157 1454.81 365.04 1450.93 C 365.596 1448.32 366.903 1438.02 369.276 1437.02 z" fill="rgb(128,111,85)" transform="translate(0,0)"></path>
<path d="M 365.04 1450.93 C 366.553 1449.55 368.105 1448.22 369.693 1446.92 C 372.799 1447.92 373.86 1448.46 376.766 1449.79 L 376.303 1451.39 C 375.267 1455.36 373.531 1456.37 370.125 1458.33 C 367.185 1455.2 367.157 1454.81 365.04 1450.93 z" fill="rgb(194,151,89)" transform="translate(0,0)"></path>
<path d="M 365.04 1450.93 C 366.553 1449.55 368.105 1448.22 369.693 1446.92 C 369.922 1450.72 370.066 1454.52 370.125 1458.33 C 367.185 1455.2 367.157 1454.81 365.04 1450.93 z" fill="rgb(206,185,158)" transform="translate(0,0)"></path>
<path d="M 369.276 1437.02 C 370.181 1435.12 377.549 1419 383.15 1426 C 384.327 1427.47 377.824 1438.06 376.681 1440.47 C 375.166 1440.42 373.431 1440.65 371.96 1440.18 C 371.078 1439.91 370.351 1439.27 369.955 1438.44 C 369.729 1437.97 369.502 1437.49 369.276 1437.02 z" fill="rgb(206,185,158)" transform="translate(0,0)"></path>
<path d="M 446.965 1556.16 C 470.796 1555.58 475.559 1572.72 475.576 1593 C 475.595 1614.23 467.472 1623.71 446.582 1624.28 C 433 1621.89 424.884 1618.21 417.18 1606.92 C 415.887 1584.23 421.959 1561.63 446.965 1556.16 z" fill="rgb(109,91,70)" transform="translate(0,0)"></path>
<path d="M 444.637 1585.99 C 447.637 1584.37 451.377 1585.37 453.177 1588.26 C 454.977 1591.16 454.218 1594.95 451.442 1596.93 C 449.486 1598.32 446.917 1598.51 444.775 1597.43 C 442.633 1596.34 441.273 1594.15 441.244 1591.75 C 441.214 1589.35 442.522 1587.13 444.637 1585.99 z" fill="rgb(194,151,89)" transform="translate(0,0)"></path>
<path d="M 442.413 1569.25 C 451.017 1570.63 450.25 1573.38 447.663 1581.26 C 439.598 1580.97 441.236 1576.75 442.413 1569.25 z" fill="rgb(149,135,107)" transform="translate(0,0)"></path>
<path d="M 1649.34 1411.22 C 1661.6 1410.55 1669.31 1414.44 1676.72 1424.27 C 1690.16 1442.11 1673.33 1471.52 1659.19 1482.74 L 1657.94 1483.34 C 1650.66 1486.93 1632.88 1487.68 1632.96 1479 C 1633.21 1451.3 1616.26 1422.5 1649.34 1411.22 z" fill="rgb(109,91,70)" transform="translate(0,0)"></path>
<path d="M 1652.19 1423.92 C 1669.28 1422.44 1669.92 1442.29 1656.77 1450.65 C 1639.14 1449.91 1640.85 1432.98 1650.89 1424.98 L 1652.19 1423.92 z" fill="rgb(194,151,89)" transform="translate(0,0)"></path>
<path d="M 1480.19 909.259 C 1506.83 906.519 1522.57 928.882 1513.3 952.601 C 1510.06 961.045 1503.43 967.748 1495.03 971.084 C 1494.06 971.468 1492.99 971.847 1492 972.226 C 1480.52 974.451 1473.61 972.257 1464.52 965.16 C 1460.93 955.127 1458.35 943.929 1456.35 933.421 C 1462.57 919.113 1465.88 915.561 1480.19 909.259 z" fill="rgb(149,135,107)" transform="translate(0,0)"></path>
<path d="M 1486.32 923.081 C 1490.06 923.08 1496.21 922.924 1499.2 926.037 C 1499.42 926.266 1499.31 926.616 1499.31 926.623 C 1497.74 928.403 1493.51 927.422 1491.36 928.541 C 1486.49 930.075 1482.02 932.996 1481.35 938.549 C 1479.76 951.868 1490.75 952.099 1500.3 952.774 C 1499.62 959.182 1478.02 958.049 1473.32 946.943 C 1471.44 942.44 1471.51 937.363 1473.5 932.908 C 1475.56 928.372 1479.73 925.215 1484.42 923.734 L 1486.32 923.081 z" fill="rgb(36,32,18)" transform="translate(0,0)"></path>
<path d="M 1612.88 1496.3 C 1625.09 1495.18 1651.83 1496.5 1658.7 1508.62 C 1660.6 1511.9 1660.98 1515.84 1659.76 1519.43 C 1656.07 1530.17 1640.76 1538.1 1631.22 1542.54 C 1620.79 1545.32 1604.31 1548.95 1594.48 1542.02 C 1585.09 1535.39 1583.39 1515.92 1590.84 1507 C 1597.09 1499.52 1603.6 1497.92 1612.88 1496.3 z" fill="rgb(109,91,70)" transform="translate(0,0)"></path>
<path d="M 1608.21 1503.02 C 1615.11 1502.99 1619.84 1504.27 1614 1511.5 C 1602.98 1525.13 1627.83 1527.32 1637.85 1530.7 C 1633.18 1532.32 1630.07 1533.43 1625.18 1534.71 C 1614.81 1536.48 1601.62 1538.92 1595.92 1527.54 C 1590.03 1515.79 1598.15 1507.24 1608.21 1503.02 z" fill="rgb(206,185,158)" transform="translate(0,0)"></path>
<path d="M 552.645 1400.34 C 555.391 1400.42 559.488 1401.02 561.821 1402.57 C 565.079 1404.74 567.298 1408.15 567.953 1412 C 569.926 1423.65 562.518 1439 555.464 1447.89 C 546.284 1459.46 539.973 1465.53 525.149 1467.55 C 500.118 1462.96 505.48 1433.05 517.129 1417.6 C 525.678 1406.25 538.926 1402.17 552.645 1400.34 z" fill="rgb(109,91,70)" transform="translate(0,0)"></path>
<path d="M 1465.31 1470.28 C 1495.95 1470.17 1503.01 1525.56 1456.73 1533.76 C 1417.95 1536.18 1426.09 1477.06 1465.31 1470.28 z" fill="rgb(109,91,70)" transform="translate(0,0)"></path>
<path d="M 1474.03 1483.27 C 1482.83 1485.26 1482 1493.13 1481.16 1500.68 C 1473.39 1501.69 1473.9 1488.24 1474.03 1483.27 z" fill="rgb(206,185,158)" transform="translate(0,0)"></path>
<path d="M 552.272 909.208 C 567.73 908.2 578.769 911.439 587.156 925.442 C 582.18 940.605 575.683 955.686 571.232 971.088 C 570.917 972.179 566.657 972.804 565.81 972.994 C 523.85 970.373 517.296 923.794 552.272 909.208 z" fill="rgb(149,135,107)" transform="translate(0,0)"></path>
<path d="M 552.161 953.174 C 560.818 950.703 568.103 947.903 564.584 937.311 C 561.387 927.689 554.724 928.527 547.457 927.198 C 539.569 925.755 553.96 920.628 563 924.298 C 567.939 926.348 571.769 930.407 573.531 935.455 C 576.805 944.646 571.213 953.689 562.002 955.953 C 554.695 957.75 551.644 956.804 544.63 955.112 C 537.824 951.33 549.937 953.132 552.161 953.174 z" fill="rgb(36,32,18)" transform="translate(0,0)"></path>
<path d="M 544.63 955.112 C 537.824 951.33 549.937 953.132 552.161 953.174 C 549.518 953.781 547.229 954.377 544.63 955.112 z" fill="rgb(60,50,36)" transform="translate(0,0)"></path>
<path d="M 1588.62 1558.27 C 1612.99 1557.03 1627.23 1572.34 1622.38 1598.16 C 1620.92 1605.91 1612.48 1610.97 1605.84 1614.45 C 1593.41 1616.77 1582.67 1617.35 1570.71 1612.16 C 1572.78 1600.86 1574.71 1589.5 1575.01 1578 C 1575.38 1564.26 1574.39 1561.33 1588.62 1558.27 z" fill="rgb(109,91,70)" transform="translate(0,0)"></path>
<path d="M 545.379 1210.35 C 574.457 1211.17 579.816 1234.06 564.169 1256.1 C 559.61 1262.52 552.344 1263.88 544.998 1264.63 C 505.518 1258.72 508.146 1216.48 545.379 1210.35 z" fill="rgb(109,91,70)" transform="translate(0,0)"></path>
<path d="M 529.281 1223.38 C 541.502 1226.01 537.139 1245.14 532.056 1250.89 L 531.075 1252.04 C 519.261 1250.33 524.093 1230.7 529.281 1223.38 z" fill="rgb(194,151,89)" transform="translate(0,0)"></path>
<path d="M 573.635 1470.41 C 577.52 1470.09 581.219 1469.37 585.018 1470.76 C 600.475 1476.39 616.167 1494.49 609.621 1511.77 C 606.777 1519.28 600.647 1521.69 593.946 1524.58 C 552.695 1529.13 545.006 1491.17 573.635 1470.41 z" fill="rgb(109,91,70)" transform="translate(0,0)"></path>
<path d="M 571.535 1488.37 C 579.275 1492.49 577.122 1503.4 572.866 1509.34 C 563.708 1504.44 567.158 1495.55 571.535 1488.37 z" fill="rgb(206,185,158)" transform="translate(0,0)"></path>
<path d="M 1548.2 1234.2 C 1562.39 1233.19 1577.52 1236.28 1582.34 1250.86 C 1588.12 1268.37 1579.63 1276.45 1565.91 1282.26 C 1521.41 1289.71 1520.46 1249.43 1548.2 1234.2 z" fill="rgb(109,91,70)" transform="translate(0,0)"></path>
<path d="M 1546.89 1243 C 1562.13 1242.44 1571.43 1252.97 1557.06 1262.72 C 1539.32 1264.16 1532.92 1252.63 1546.89 1243 z" fill="rgb(194,151,89)" transform="translate(0,0)"></path>
<path d="M 1522.39 1580.19 C 1555.56 1579.01 1563.92 1619.09 1526.11 1630.93 C 1520.85 1632.21 1512.82 1633.05 1508 1631.03 C 1492.56 1624.55 1498.7 1601.49 1506.35 1591.32 C 1511.02 1585.13 1515.71 1582.66 1522.39 1580.19 z" fill="rgb(109,91,70)" transform="translate(0,0)"></path>
<path d="M 1529.97 1588.88 C 1540.37 1589.22 1545.03 1596.13 1542.58 1606.1 C 1539.31 1604.33 1530.85 1592.95 1529.97 1588.88 z" fill="rgb(206,185,158)" transform="translate(0,0)"></path>
<path d="M 1624.09 1363.07 C 1630.48 1362.83 1634.93 1362.52 1640.82 1365.31 C 1647.41 1368.4 1652.43 1374.09 1654.67 1381.01 C 1659.96 1397.68 1653.49 1405.44 1638.77 1410.78 C 1596.82 1417.44 1598.35 1376.57 1624.09 1363.07 z" fill="rgb(109,91,70)" transform="translate(0,0)"></path>
<path d="M 413.386 1362.2 C 425.216 1362.24 430.596 1365.01 435.688 1376.14 C 439.809 1385.15 442.529 1396.21 435.367 1404.65 C 430.52 1410.36 422.984 1410.77 416.003 1411.13 C 399.648 1408.38 382.115 1401.84 391.547 1380.57 C 395.676 1371.26 403.722 1365.31 413.386 1362.2 z" fill="rgb(109,91,70)" transform="translate(0,0)"></path>
<path d="M 400.232 1382.04 C 408.6 1381.9 424.15 1382.1 413.823 1393.7 C 402.697 1397.53 392.766 1393.27 400.232 1382.04 z" fill="rgb(194,151,89)" transform="translate(0,0)"></path>
<path d="M 513.976 1580.07 C 549.642 1579.76 534.056 1616.76 512.73 1628.57 C 490.929 1631.12 489.164 1620.21 494.512 1600.16 C 496.833 1591.46 505.83 1583.79 513.976 1580.07 z" fill="rgb(109,91,70)" transform="translate(0,0)"></path>
<path d="M 511.45 1586.54 C 520.779 1588.31 510.826 1595.38 507.625 1597.99 C 499.935 1596.91 509.358 1588.27 511.45 1586.54 z" fill="rgb(213,193,168)" transform="translate(0,0)"></path>
<path d="M 504.194 1600.44 C 510.399 1602.29 507.587 1605.69 504.976 1610.64 C 497.955 1608.35 500.69 1605.14 504.194 1600.44 z" fill="rgb(206,185,158)" transform="translate(0,0)"></path>
<path d="M 553.524 1784.9 C 558.125 1785.48 557.042 1786.77 560.281 1790.38 C 575.092 1806.88 598.832 1806.93 619.129 1808.77 C 620.48 1808.89 619.494 1812.89 619.226 1813.69 C 617.947 1817.48 613.995 1818.76 610.456 1819.75 C 608.111 1820.42 605.753 1821.04 603.384 1821.62 C 591.432 1823.09 583.4 1823.26 571.491 1821.25 C 548.303 1817.34 519.461 1802.28 553.524 1784.9 z" fill="rgb(109,91,70)" transform="translate(0,0)"></path>
<path d="M 1487.06 1783.06 C 1500.56 1788.01 1509.46 1798.8 1495.72 1810.7 C 1481.81 1822.74 1457.86 1823.56 1440.13 1821.78 C 1436.26 1821 1431.92 1820.25 1428.37 1818.41 C 1425.68 1817.02 1424.07 1814.88 1423.2 1811.99 C 1423.05 1811.5 1422.96 1811 1422.8 1810.52 C 1422.63 1810 1422.31 1809.4 1422.7 1808.88 C 1422.79 1808.76 1449.34 1806.55 1456.61 1804.4 C 1469.26 1800.66 1480.61 1795.09 1487.06 1783.06 z" fill="rgb(109,91,70)" transform="translate(0,0)"></path>
<path d="M 487.017 1234.21 C 516.867 1231.87 519.711 1261.46 489.638 1271.79 C 480.727 1272.63 468.552 1274.78 466.521 1263.65 C 463.407 1246.59 470.717 1237.5 487.017 1234.21 z" fill="rgb(149,135,107)" transform="translate(0,0)"></path>
<path d="M 948.887 1775.86 C 959.074 1777.31 968.408 1782 974.636 1790.28 L 973.294 1791.48 C 960.875 1802.78 939.82 1806.58 923.516 1807.13 C 906.088 1807.29 905.226 1808.38 896.823 1791.99 C 917.905 1791.54 932.115 1789.83 948.887 1775.86 z" fill="rgb(109,91,70)" transform="translate(0,0)"></path>
<path d="M 526.182 1163.02 C 558.833 1162.01 552.797 1191.28 529.666 1202.66 L 527.873 1203.58 C 508.179 1209.57 504.851 1200.57 509.208 1182.53 C 511.547 1172.85 518.177 1167.76 526.182 1163.02 z" fill="rgb(149,135,107)" transform="translate(0,0)"></path>
<path d="M 1085.31 1778.1 C 1097.12 1777.43 1090.29 1779.35 1100.99 1785.06 C 1113.28 1791.63 1129.58 1793.44 1143.44 1792.2 L 1145.32 1792.05 C 1142.12 1797.83 1141.7 1798.25 1139.26 1804.5 C 1136.21 1804.85 1131.07 1805.66 1128.24 1805.81 C 1103.87 1807.63 1085.48 1807.66 1065.34 1791.9 L 1066.36 1790.87 C 1073.45 1783.58 1076.01 1782.19 1085.31 1778.1 z" fill="rgb(109,91,70)" transform="translate(0,0)"></path>
<path d="M 1494.81 1211.96 C 1519.46 1211.85 1533.93 1242.93 1514.09 1255.58 C 1487.54 1256.82 1477.14 1222.84 1494.81 1211.96 z" fill="rgb(128,111,85)" transform="translate(0,0)"></path>
<path d="M 1507.59 1163.08 C 1516.9 1162.55 1522.59 1163.34 1529.25 1171.78 C 1537.1 1181.73 1543.4 1196.84 1532.57 1206.99 C 1511.5 1212.24 1495.82 1182.1 1507.59 1163.08 z" fill="rgb(128,111,85)" transform="translate(0,0)"></path>
<path d="M 571.573 1768.79 C 580.104 1768.52 583.703 1777.8 595.016 1780.76 C 609.226 1784.47 618.979 1784.34 633.502 1784.41 C 631.139 1788.96 627.954 1794.67 625.352 1799.1 C 609.233 1799.48 593.31 1799.01 577.99 1793.09 C 571.921 1790.75 559.689 1785.27 561.928 1776.46 C 562.658 1773.58 567.654 1771.39 569.936 1769.88 L 571.573 1768.79 z" fill="rgb(109,91,70)" transform="translate(0,0)"></path>
<path d="M 1425.28 1747.95 C 1448.88 1748.47 1478.68 1767.04 1435.49 1771.92 L 1426.79 1772.99 C 1415.87 1773.09 1413.39 1773.35 1402.94 1771.76 C 1401.53 1770.19 1399.83 1768.45 1398.57 1766.81 L 1393.1 1759.76 C 1392.67 1759.23 1392.25 1758.71 1391.82 1758.18 C 1406.61 1756.8 1413.15 1757.04 1425.28 1747.95 z" fill="rgb(109,91,70)" transform="translate(0,0)"></path>
<path d="M 611.183 1748.17 C 615.947 1747.9 616.875 1749.23 621.153 1751.7 C 631.217 1757.5 641.513 1757.85 652.753 1758.09 C 649.075 1762.95 645.496 1767.89 642.017 1772.9 C 637.63 1773.11 633.241 1773.29 628.851 1773.45 C 621.276 1773.4 614.488 1772.92 606.992 1772.18 C 575.494 1769.06 589.606 1752.77 611.183 1748.17 z" fill="rgb(109,91,70)" transform="translate(0,0)"></path>
<path d="M 1058.6 1797.7 C 1062.86 1800.08 1063.86 1801.8 1067.4 1804.59 C 1074.72 1810.29 1083.51 1813.86 1092.51 1815.83 C 1101.19 1817.73 1109.94 1818.03 1118.78 1818.29 C 1124.02 1818.45 1129.33 1818.97 1134.57 1819.42 C 1130.03 1821.88 1126.97 1823.25 1122.32 1825.32 C 1114.35 1826.98 1105.34 1828.83 1097 1828.66 C 1083.78 1828.41 1050.44 1825.69 1051.96 1806.46 C 1052.21 1803.3 1054.72 1800.77 1057.11 1798.91 L 1058.6 1797.7 z" fill="rgb(109,91,70)" transform="translate(0,0)"></path>
<path d="M 387.926 1555.37 C 400.868 1556.65 412.07 1561.88 411.363 1576.99 C 410.858 1587.78 405.611 1589.34 396.125 1589.08 C 395.381 1588.82 394.633 1588.57 393.884 1588.33 C 372.351 1581.49 361.436 1559.15 387.926 1555.37 z" fill="rgb(109,91,70)" transform="translate(0,0)"></path>
<path d="M 387.892 1561.2 C 388.032 1561.21 388.172 1561.22 388.311 1561.24 C 390.388 1561.38 392.457 1561.63 394.51 1561.97 C 403.902 1563.54 409.547 1576.93 398.968 1582.65 L 397.575 1583.46 L 396.038 1583.25 C 388.376 1582.31 376.072 1572.78 380.352 1565.26 C 381.35 1563.54 383.014 1562.31 384.952 1561.85 C 385.379 1561.76 385.807 1561.67 386.234 1561.58 L 387.892 1561.2 z" fill="rgb(194,151,89)" transform="translate(0,0)"></path>
<path d="M 1466.43 1770.65 C 1469.14 1771.32 1484.81 1776.1 1480.36 1781.27 C 1468.42 1795.14 1443.66 1797.31 1426.39 1797.96 C 1413.77 1797.85 1417.55 1796.32 1410.58 1783.85 C 1429.84 1785.03 1450.97 1783.45 1466.43 1770.65 z" fill="rgb(109,91,70)" transform="translate(0,0)"></path>
<path d="M 1107.23 1755.25 C 1108.8 1755.34 1114.77 1755.54 1115.77 1756.64 C 1128.32 1770.44 1141.17 1772.54 1158.94 1774.61 C 1152.37 1779.65 1152.73 1779.68 1144.88 1781.75 C 1129.95 1784.28 1100.33 1784.08 1093.37 1767.42 C 1090.73 1761.1 1102.47 1756.2 1107.23 1755.25 z" fill="rgb(109,91,70)" transform="translate(0,0)"></path>
<path d="M 1647.29 1557.14 C 1678.85 1554.66 1674.8 1577.91 1650.57 1587.29 C 1644.73 1588.77 1634.63 1591.04 1631.95 1583.55 C 1626.48 1568.31 1633.45 1562.16 1647.29 1557.14 z" fill="rgb(109,91,70)" transform="translate(0,0)"></path>
<path d="M 925.678 1755.21 C 956.372 1753.89 953.479 1780.69 907.336 1782.14 C 901.677 1782.08 889.476 1782.96 887.519 1775.5 L 887.503 1775.53 C 888.635 1774.84 889.686 1774.52 890.994 1774.21 C 907.936 1770.24 913.423 1765.99 925.678 1755.21 z" fill="rgb(109,91,70)" transform="translate(0,0)"></path>
<path d="M 552.452 1096.01 L 555.317 1098.08 C 554.819 1108.09 555.563 1113.7 554.081 1124 C 552.288 1136.46 551.85 1151.16 551.209 1163.8 C 545.295 1161.1 541.667 1159.9 535.852 1157.75 C 537.235 1132.03 542.706 1118.97 552.452 1096.01 z" fill="rgb(149,135,107)" transform="translate(0,0)"></path>
<path d="M 905.304 1734.78 C 911.56 1735.91 919.017 1739.8 918.835 1746.51 C 918.502 1758.7 888.195 1761.8 880.25 1762.21 C 878.213 1762.19 867.225 1762.31 866.302 1760.24 C 866.568 1758.91 872.201 1757.23 873.396 1756.73 C 885.529 1751.66 894.679 1742.29 905.304 1734.78 z" fill="rgb(109,91,70)" transform="translate(0,0)"></path>
<path d="M 1138.11 1732.66 C 1142.8 1733.47 1152.88 1751.37 1161.63 1752.62 C 1162.33 1752.72 1170.43 1756.62 1170.8 1757.47 C 1170.27 1761.02 1160.16 1760.67 1157.76 1760.61 L 1151 1760 C 1143.21 1759.27 1127.68 1755.31 1122.71 1749.26 C 1117.4 1742.79 1134.65 1734.75 1138.11 1732.66 z" fill="rgb(109,91,70)" transform="translate(0,0)"></path>
<path d="M 550.756 1276.13 C 554.015 1276.17 556.589 1276.16 559.482 1277.99 C 562.199 1279.68 564.087 1282.43 564.69 1285.57 C 566.4 1294.14 558.751 1299.98 551 1301.09 L 546.987 1301.64 C 523.553 1300.11 528.686 1282.62 550.756 1276.13 z" fill="rgb(149,135,107)" transform="translate(0,0)"></path>
<path d="M 1489.83 1277.16 C 1509.32 1275.07 1524.2 1290.4 1505.83 1299.7 L 1504.25 1300.54 C 1484.37 1303.98 1470.53 1286.18 1489.83 1277.16 z" fill="rgb(149,135,107)" transform="translate(0,0)"></path>
<path d="M 646.795 1731.21 C 651.355 1730.81 669.332 1738.26 675.066 1740.17 C 663.909 1746.12 661.3 1746.04 649.076 1747.9 C 634.082 1748.16 633.097 1748.26 619.868 1741.46 C 629.681 1736.23 635.814 1733.66 646.795 1731.21 z" fill="rgb(109,91,70)" transform="translate(0,0)"></path>
<path d="M 1391 1729.97 C 1397.68 1729.36 1412.63 1738.79 1418.17 1742.91 C 1412.19 1744.55 1405.22 1746.28 1399.1 1747.07 C 1389.91 1747.03 1383.74 1747.21 1375.01 1743.09 C 1372.62 1741.97 1370.25 1740.81 1367.9 1739.61 C 1376.07 1735.3 1379.03 1734.74 1387.13 1731.51 L 1391 1729.97 z" fill="rgb(109,91,70)" transform="translate(0,0)"></path>
<path d="M 1588.58 1278.69 C 1602.48 1280.25 1614.7 1293.51 1605.19 1307 C 1587.4 1306.77 1579.22 1294.22 1588.58 1278.69 z" fill="rgb(109,91,70)" transform="translate(0,0)"></path>
<path d="M 449.867 1283.08 C 473.757 1282.2 458.668 1298.41 447.679 1305.86 C 427.111 1308.26 436.584 1289.28 449.867 1283.08 z" fill="rgb(128,111,85)" transform="translate(0,0)"></path>
<path d="M 552.452 1096.01 C 552.914 1094.66 553.431 1092.68 554.548 1091.78 C 555.523 1091.97 555.302 1097.57 555.317 1098.08 L 552.452 1096.01 z" fill="rgb(128,111,85)" transform="translate(0,0)"></path>
<metadata><recraft-signature>{"signed_by": "recraft", "signature_b64": "H4ghbKnpI5HmI0RxJ98MRWd93pWv1zDA7Pmt5frSkWIb3DWnPYD9+27LOKyK3tsj5SgcJ+wPNLknJn12P+G7Dg==", "signing_algo": "Ed25519", "generation_timestamp": 1778557905, "identifier": "2c216fc0-f517-466a-ade9-39a39a0d5562"}</recraft-signature></metadata></svg>