<svg xmlns="http://www.w3.org/2000/svg" height="1024" preserveAspectRatio="none" style="display: block;" version="1.1" viewBox="0 0 2048 2048" width="1024">

<path d="M 1001.66 189.36 C 1044.83 182.478 1084.65 211.453 1122.63 224.416 C 1142.05 231.043 1165.14 225.881 1185.28 225.37 C 1213.59 224.652 1238.96 230.103 1265.3 240.244 C 1292.42 251.069 1319.83 266.522 1343.11 284.289 C 1391.43 321.172 1433.46 349.117 1497.6 346.809 C 1508.21 346.329 1518.78 345.114 1529.22 343.172 C 1540.69 341.128 1570.54 331.45 1579.01 335.738 C 1593.95 343.306 1570.67 389.205 1565.61 396.898 C 1540.23 435.45 1506.18 446.544 1463.19 455.51 C 1471.87 459.711 1492.7 463.067 1493.69 472.676 C 1499.68 530.991 1407.31 553.566 1373.57 564.145 C 1381.23 567.826 1395.42 571.905 1397.24 580.013 C 1403.79 609.042 1342.72 631.39 1325.21 636.808 C 1324.87 671.845 1319.63 703.928 1300.07 733.646 C 1255.63 801.191 1175.52 832.486 1099.98 848.919 C 1116.53 856.074 1138.82 862.528 1156.44 868.667 C 1199.61 883.833 1242.94 898.556 1286.42 912.835 C 1292.54 908.263 1298.83 903.07 1304.67 898.126 C 1331.31 875.543 1360.73 854.52 1386.55 831.099 C 1366.8 805.944 1346.9 773.218 1357.54 740.372 C 1357.08 739.855 1356.62 739.337 1356.16 738.82 C 1352.04 734.662 1349.19 726.894 1349.19 720.882 C 1349.2 709.629 1349.6 694.191 1357.65 685.422 C 1366.29 676.536 1380.31 682.4 1391.18 682.811 C 1397.42 683.047 1402.91 682.914 1409.08 682.724 C 1414.46 656.578 1430.53 642.608 1455.18 659.263 C 1468 650.439 1482.5 650.11 1493.22 662.084 C 1513.99 650.41 1531.23 653.559 1533.92 679.4 C 1542.22 678.287 1547.76 678.197 1556.21 678.079 C 1558.9 675.256 1561.96 672.628 1564.88 670.014 C 1573.98 668.079 1605.63 663.057 1613.64 665.186 C 1659.42 677.346 1655.93 805.977 1599.82 798.22 C 1590.71 796.959 1565.87 790.288 1555.36 787.705 L 1550.48 781.164 C 1542.1 778.767 1532.61 776.771 1524.05 774.779 C 1524.73 802.471 1514.91 828.059 1493.71 846.478 C 1481.73 856.891 1469.67 859.16 1454.48 861.601 C 1429.88 886.538 1343.84 993.88 1321.59 1004.39 C 1316.63 1006.73 1312.67 1007.3 1307.24 1006.58 C 1292.02 1004.58 1276.31 998.076 1261.64 993.454 C 1236.47 985.523 1211.04 977.938 1186.24 968.924 C 1225.17 1032.4 1261.87 1104 1243.62 1180.94 C 1241.81 1196.94 1224.25 1218.26 1222.14 1232.08 C 1214.67 1280.88 1205.94 1333.14 1200.1 1381.88 C 1216.39 1383.54 1264.28 1389.18 1266.93 1411.63 C 1269.16 1430.52 1262.92 1454.63 1250.28 1469.18 C 1242.67 1477.95 1244.69 1502.37 1246.81 1513.25 L 1258.23 1515.04 C 1313.97 1484.33 1378.62 1489.28 1425.1 1534.52 C 1454.63 1563.5 1467.34 1605.53 1458.82 1646.02 C 1457.65 1651.53 1456.26 1657.74 1454.21 1662.88 C 1453.64 1664.4 1448.86 1672.39 1449.29 1673.36 C 1455.99 1688.37 1451.94 1704.05 1449.9 1720.61 C 1418.73 1746.52 1378.42 1761.28 1338.77 1767.64 C 1271.36 1778.49 1202.41 1761.89 1147.31 1721.56 C 1146.17 1721.83 1145.02 1722.07 1143.87 1722.3 C 1115.58 1728.06 1111.73 1729.24 1084.21 1720.85 C 1038.51 1706.91 1021.24 1701.82 1030.11 1648.45 C 1030.39 1646.76 1035.15 1640.04 1036.33 1638.3 C 1036.66 1634.21 1035.09 1624.65 1034.52 1619.97 C 1033.05 1608.18 1033.47 1596.23 1035.76 1584.58 C 1047.43 1526.7 1076.99 1532.82 1058.73 1468.56 C 1051.01 1462.2 1047.35 1455.42 1045.61 1445.61 C 1043.93 1436.04 1040.44 1412.42 1046.47 1404.79 C 1057.77 1390.49 1090.11 1385.45 1106.86 1382.54 C 1108.24 1357.33 1110.46 1331.66 1111.11 1306.51 L 1100.52 1309.18 C 1068.04 1315.27 1053.95 1314.12 1022.21 1312.94 C 1014.92 1335.16 998.912 1345.89 976.074 1335.14 C 972.052 1337.48 969.26 1338.77 964.994 1340.66 C 959.719 1364.88 955.918 1386.01 949.624 1410.28 C 951.94 1410.69 954.237 1411.2 956.508 1411.81 C 969.91 1415.46 992.774 1422.82 999.578 1435.89 C 1005.08 1446.45 1001.7 1457.98 998.766 1468.59 C 1045.3 1470.22 1021.07 1521.7 1017.64 1546.56 C 1014.68 1568.04 1029.99 1609.75 989.877 1604.72 L 985.879 1616.46 C 1009.24 1647.9 1021.28 1670.13 1021.86 1711.64 C 1022 1721.3 1018.63 1731.18 1018.82 1742.39 L 1020.77 1745.94 C 1024.47 1752.62 1026.21 1757 1026.18 1764.85 C 1025.95 1814.38 963.951 1839.31 923.982 1848.82 C 871.89 1861.22 812.288 1859.45 762.123 1840.4 C 738.235 1831.33 709.299 1816.92 698.22 1792.29 C 691.732 1777.71 691.247 1761.17 696.871 1746.23 C 678.144 1696.93 687.346 1643.27 722.895 1603.79 C 730.258 1595.62 737.111 1588.66 746.352 1582.56 C 746.328 1582.2 746.304 1581.84 746.28 1581.47 L 746.199 1579.66 C 745.606 1567.91 748.989 1549.04 747.751 1541.38 C 744.411 1523.89 737.446 1509.67 738.244 1491.31 C 739.491 1462.59 752.434 1459.46 777.804 1460.1 C 773.7 1435.87 775.142 1422.82 801.136 1414.4 C 818.335 1408.82 833.472 1407.28 851.271 1404.98 C 852.708 1392.85 853.947 1382.93 856.283 1370.91 C 813.248 1370.25 773.195 1373.37 730.271 1366.98 C 713.988 1364.56 673.823 1341.54 668.186 1341.69 C 668.272 1347.54 671.213 1350.86 666.326 1355.37 C 663.315 1358.15 661.084 1361.46 660.522 1365.61 L 661.542 1366.84 C 681.865 1364.3 681.162 1370.76 685.65 1383.98 C 686.118 1385.36 697.057 1388.04 698.77 1391.56 C 700.268 1394.64 701.495 1395.46 700.596 1399.61 C 697.379 1413.95 708.76 1408.17 712.234 1418.26 C 713.325 1421.43 712.7 1424.9 711.085 1427.6 C 710.684 1428.27 708.448 1433.13 708.724 1433.66 C 711.487 1438.9 715.394 1442.95 713.697 1449.49 C 711.279 1456.36 703.959 1457.31 703.201 1465.51 C 702.068 1472.49 699.573 1475.99 692.476 1477.14 C 690.318 1477.49 688.463 1484.46 687.61 1486.15 C 684.292 1492.71 681.742 1489.62 676.636 1490.34 C 674.705 1490.62 670.8 1499.17 667.395 1499.01 C 660.775 1500.58 658.016 1496.44 652.458 1495.3 C 650.542 1494.91 643.531 1499.39 640.349 1498.94 C 634.357 1498.1 633.266 1493.55 627.336 1496.22 C 625.735 1496.94 622.006 1497.88 620.189 1497.87 C 611.809 1497.82 612.116 1489.58 607.982 1486.53 C 602.092 1483.83 598.931 1486.8 593.675 1481.72 C 588.746 1476.96 591.689 1470.82 589.163 1467.22 L 588.07 1466.82 C 574.021 1461.5 569.948 1449.8 577.383 1436.65 C 582.255 1428.04 566.689 1416.02 576.828 1405.25 C 578.627 1403.34 589.056 1400.86 589.18 1398.7 C 589.995 1384.47 588.981 1381.96 603.836 1379.79 C 610.102 1369.94 610.034 1367.32 623.494 1366.88 C 628.172 1366.72 629.754 1365.12 633.277 1362.19 C 634.143 1356.14 634.941 1351.98 637.01 1346.19 C 634.387 1338.29 633.268 1334.22 631.652 1326.07 C 572.949 1302.35 594.467 1250.63 620.488 1210.25 C 612.85 1204.41 597.789 1190.54 600.151 1180.14 C 608.855 1141.81 646.23 1102.24 671.887 1073.19 C 686.7 1056.42 701.665 1053.56 722.095 1054.07 C 740.56 1023.29 763.518 993.651 783.62 963.914 C 798.177 942.379 813.942 923.992 823.854 899.755 C 836.262 869.414 859.761 857.676 889.059 846.818 C 854.309 837.101 837.85 833.6 804.374 815.521 C 793.712 830.552 774.635 844.641 757.975 851.172 C 729.465 863.661 696.646 854.452 670.287 840.534 C 639.254 824.15 626.354 844.895 601.414 845.79 C 563.917 847.135 552.621 832.901 514.018 848.511 C 496.014 897.922 480.895 991.63 537.877 1022.38 C 544.356 1025.88 556.723 1027.27 560.89 1032.66 C 566.814 1053.02 539.811 1064.38 534.488 1082.81 C 533.484 1086.29 532.775 1088.32 529.526 1089.88 C 528.904 1089.75 526.742 1089.3 526.21 1088.89 C 449.432 1030.31 450.193 924.875 480.352 841.658 C 484.304 830.753 488.724 819.975 493.244 809.105 C 481.611 780.002 463.888 770.275 453.464 746.426 C 442.15 720.54 456.923 674.661 459.497 647.527 C 460.64 635.48 456.967 623.698 455.625 611.424 C 453.21 589.337 456.007 570.283 465.069 550.09 C 474.226 525.512 507.036 514.091 518.818 492.386 C 540.649 452.169 537.558 413.941 573.014 379.439 C 605.262 348.059 642.968 352.604 675.099 325.245 C 690.851 311.833 701.179 291.015 713.778 274.858 C 744.321 233.291 798.409 216.817 848.175 218.398 C 867.795 218.924 892.862 224.284 912.212 219.218 C 945.336 210.545 966.106 193.996 1001.66 189.36 z" fill="rgb(0,0,0)" transform="translate(0,0)"></path>
<path d="M 1216.72 480.357 C 1255.34 473.435 1293.19 503.632 1303.31 539.419 C 1314.91 580.401 1322.85 635.253 1315.89 677.173 C 1313.54 691.023 1309.14 704.445 1302.83 716.994 C 1276.46 770.743 1213.74 807.745 1158.45 826.671 C 1055.29 861.982 915.29 863.053 816.288 814.503 C 786.573 800.956 775.459 787.961 758.451 761.848 C 764.797 757.672 767.835 755.262 773.622 750.297 C 748.223 761.932 731.921 760.487 708.55 745.34 C 725.282 738.726 737.32 727.902 747.015 712.954 C 751.334 716.861 756.164 720.587 760.722 724.247 C 756.902 717.825 752.549 711.182 748.547 704.821 C 799.173 690.124 788.485 657.492 816.773 621.088 C 856.067 570.521 896.852 581.383 950.642 564.423 C 969.907 558.349 993.464 540.922 1013.52 538.209 C 1047.89 533.559 1070.27 538.504 1105.26 527.531 C 1120.03 522.758 1134.36 516.706 1148.08 509.443 C 1176.26 494.279 1184.27 484.811 1216.72 480.357 z" fill="rgb(92,125,104)" transform="translate(0,0)"></path>
<path d="M 910.583 591.311 C 952.868 587.598 990.18 618.812 993.992 661.088 C 997.804 703.364 966.678 740.749 924.411 744.66 C 882.003 748.585 844.467 717.332 840.642 674.916 C 836.817 632.499 868.158 595.036 910.583 591.311 z" fill="rgb(216,206,188)" transform="translate(0,0)"></path>
<path d="M 912.074 605.785 C 946.062 603.718 975.351 629.461 977.663 663.434 C 979.975 697.406 954.444 726.88 920.49 729.438 C 886.186 732.021 856.343 706.171 854.007 671.85 C 851.671 637.529 877.737 607.873 912.074 605.785 z" fill="rgb(62,41,34)" transform="translate(0,0)"></path>
<path d="M 1220.43 550.98 C 1260.94 546.229 1297.67 575.113 1302.61 615.602 C 1307.55 656.09 1278.84 692.956 1238.37 698.081 C 1197.64 703.239 1160.48 674.296 1155.51 633.542 C 1150.54 592.789 1179.65 555.763 1220.43 550.98 z" fill="rgb(216,206,188)" transform="translate(0,0)"></path>
<path d="M 1219.29 566.297 C 1251.17 561.225 1281.17 582.848 1286.44 614.699 C 1291.71 646.551 1270.27 676.68 1238.45 682.143 C 1206.35 687.655 1175.9 665.989 1170.59 633.859 C 1165.27 601.729 1187.13 571.413 1219.29 566.297 z" fill="rgb(62,41,34)" transform="translate(0,0)"></path>
<path d="M 894.186 756.147 C 939.401 753.28 954.983 797.984 912.027 807.148 C 895.421 808.066 873.607 804.975 867.339 785.414 C 862.134 769.169 880.44 759.348 894.186 756.147 z" fill="rgb(216,206,188)" transform="translate(0,0)"></path>
<path d="M 1244.78 705.123 C 1257.06 704.539 1271.98 704.956 1276.29 718.983 C 1281.65 736.422 1265.12 746.167 1251.51 750.817 L 1250.34 751.007 C 1213.61 757.242 1202.91 718.24 1244.78 705.123 z" fill="rgb(216,206,188)" transform="translate(0,0)"></path>
<path d="M 1147.8 717.96 C 1151.96 719.937 1157.39 724.474 1158.38 729.124 C 1156.31 731.315 1153.99 730.834 1150.13 731.365 C 1119.73 761.23 1077.78 764.526 1041.25 744.17 C 1036.87 741.728 1035.91 742.627 1031.76 744.19 C 1030.41 742.098 1030.53 742.231 1030.48 739.717 C 1032.35 736.29 1034.44 730.744 1038.71 730.969 L 1039.74 732.451 C 1058.66 759.341 1111.74 754.408 1135.39 736.403 C 1149.62 725.565 1141.77 727.545 1147.8 717.96 z" fill="rgb(0,0,0)" transform="translate(0,0)"></path>
<path d="M 1091.6 660.251 C 1110.3 658.689 1117.77 661.062 1129.75 674.881 C 1116.49 667.568 1113.2 665.644 1098.19 664.268 C 1077.93 665.111 1076.59 669.035 1061.15 678.272 C 1071.66 665.817 1074.63 663.013 1091.6 660.251 z" fill="rgb(0,0,0)" transform="translate(0,0)"></path>
<path d="M 1074.57 693.401 C 1076.16 693.717 1077.84 693.828 1079.24 694.72 C 1081.13 695.902 1082.43 697.828 1082.82 700.023 C 1083.07 701.376 1082.65 702.637 1081.72 703.634 L 1080.63 704.851 C 1071.65 704.599 1069.9 701.371 1074.57 693.401 z" fill="rgb(0,0,0)" transform="translate(0,0)"></path>
<path d="M 1119.78 690.545 C 1129.28 691.252 1129.51 695.034 1123.01 701.371 C 1116.19 700.579 1112.79 698.051 1118.64 691.819 L 1119.78 690.545 z" fill="rgb(0,0,0)" transform="translate(0,0)"></path>
<path d="M 1093.27 856.214 C 1099.15 861.166 1105.98 866.429 1110.32 872.88 C 1129.41 896.206 1155.38 931.194 1171.43 957.607 C 1154.33 950.176 1143.97 943.543 1125.64 938.52 L 1124.65 940.549 C 1170.36 955.186 1189.1 983.65 1209.56 1023.27 C 1212.73 1029.52 1215.76 1035.85 1218.64 1042.24 C 1240.04 1091.09 1250.14 1129.39 1229.66 1180.52 C 1213.86 1219.95 1180.26 1260.49 1140.9 1277.69 C 1152.59 1260.13 1162.99 1242.4 1165.61 1221.01 C 1138.33 1290.87 1095.25 1309.14 1023.4 1306.91 C 1024.71 1285.47 1021.49 1269.58 1013.94 1249.45 C 1012.26 1244.97 1019.19 1234.56 1017.55 1228.86 C 1017.55 1228 1017.54 1227.14 1017.54 1226.28 C 1013.06 1217.32 1008.86 1213.6 1000.8 1207.85 C 983.054 1197.85 948.715 1180.53 929.888 1176.22 C 922.657 1175.3 916.918 1175.13 909.613 1174.9 C 901.874 1167.09 883.881 1151.94 877.795 1142.88 C 876.788 1138.87 879.746 1130.1 881.585 1127.45 C 898.713 1102.71 917.004 1079.44 933.383 1054.13 C 976.799 997.498 1023 944.195 1066.12 886.628 C 1075.01 876.352 1084.07 866.213 1093.27 856.214 z" fill="rgb(216,206,188)" transform="translate(0,0)"></path>
<path d="M 1218.64 1042.24 C 1240.04 1091.09 1250.14 1129.39 1229.66 1180.52 C 1213.86 1219.95 1180.26 1260.49 1140.9 1277.69 C 1152.59 1260.13 1162.99 1242.4 1165.61 1221.01 C 1138.33 1290.87 1095.25 1309.14 1023.4 1306.91 C 1024.71 1285.47 1021.49 1269.58 1013.94 1249.45 C 1012.26 1244.97 1019.19 1234.56 1017.55 1228.86 C 1017.55 1228 1017.54 1227.14 1017.54 1226.28 C 1013.06 1217.32 1008.86 1213.6 1000.8 1207.85 C 1018.93 1194.06 1036.74 1195.63 1055.75 1205.92 C 1123.14 1242.42 1096.79 1144.87 1145.68 1145.96 C 1153.23 1146.13 1158.95 1166.07 1163.89 1171.93 C 1172.34 1181.97 1180.03 1178.75 1189.06 1171.18 C 1216.14 1145.51 1176.88 1114.79 1181.93 1084.34 C 1186.59 1056.21 1201.22 1055.71 1218.64 1042.24 z" fill="rgb(92,125,104)" transform="translate(0,0)"></path>
<path d="M 909.613 1174.9 C 901.874 1167.09 883.881 1151.94 877.795 1142.88 C 876.788 1138.87 879.746 1130.1 881.585 1127.45 C 898.713 1102.71 917.004 1079.44 933.383 1054.13 C 941.872 1067.6 950.37 1078.15 966.776 1082.91 C 997.525 1091.87 1032.53 1043.22 1058.13 1077.67 C 1066.51 1089.71 1060.62 1105.2 1053.94 1116.51 C 1037.23 1144.8 1008.33 1161.58 976.484 1167.14 C 961.815 1169.7 942.213 1168.38 929.888 1176.22 C 922.657 1175.3 916.918 1175.13 909.613 1174.9 z" fill="rgb(92,125,104)" transform="translate(0,0)"></path>
<path d="M 1093.27 856.214 C 1099.15 861.166 1105.98 866.429 1110.32 872.88 C 1097.88 877.398 1078.71 884.35 1066.12 886.628 C 1075.01 876.352 1084.07 866.213 1093.27 856.214 z" fill="rgb(71,101,82)" transform="translate(0,0)"></path>
<path d="M 1124.65 940.549 C 1123.83 940.041 1121.6 939.143 1121.48 937.935 C 1122.03 936.712 1124.98 938.274 1125.64 938.52 L 1124.65 940.549 z" fill="rgb(50,56,50)" transform="translate(0,0)"></path>
<path d="M 1242.91 1469.36 C 1237.74 1486.5 1236.61 1495.96 1239.45 1513.84 C 1218.04 1518.11 1203.63 1523.63 1188.58 1539.84 C 1201 1532.35 1219.87 1520.64 1234.72 1519.94 C 1238.39 1519.18 1255.13 1518.98 1244.85 1521.33 C 1218.46 1532.46 1191.67 1545.23 1176.56 1571.43 L 1178.47 1572.4 C 1194.27 1552.81 1210.74 1542.74 1233.79 1532.55 C 1215.11 1552.12 1204.62 1564.63 1197.52 1591.04 L 1199.55 1591.52 C 1200.1 1590.09 1200.67 1588.67 1201.26 1587.26 C 1215.24 1553.92 1249.12 1524.47 1282.25 1511.21 C 1312.7 1498.81 1346.83 1499.03 1377.11 1511.82 C 1393.17 1518.58 1428.1 1539.34 1434.5 1555.78 C 1440.1 1564.87 1444.44 1572.73 1448.3 1582.76 C 1444.83 1586.43 1441.24 1592.32 1437.79 1594.98 C 1437.93 1595.55 1438.06 1596.13 1438.2 1596.71 L 1435.66 1597.23 C 1441.14 1640.01 1441.83 1647.55 1423.24 1687.94 C 1358.78 1727.48 1277.95 1723.76 1209.95 1696.05 C 1190.5 1687.84 1175.47 1681.18 1154.99 1674.7 C 1125.77 1665.46 1051.59 1667.06 1042.21 1630.07 C 1035.21 1602.48 1045.56 1563.63 1060.14 1539.71 C 1066.33 1528.88 1069.33 1521.3 1071.28 1509.15 C 1070.23 1493.6 1072.17 1491.7 1067.38 1474.39 L 1066.31 1470.61 C 1074.58 1473.44 1082.94 1475.98 1091.51 1477.77 L 1096.51 1478.82 C 1104.66 1480.45 1113.74 1481.97 1122 1482.87 L 1143.22 1484.96 C 1183.29 1486.36 1205.07 1483.74 1242.91 1469.36 z" fill="rgb(216,206,188)" transform="translate(0,0)"></path>
<path d="M 1423.24 1687.94 C 1358.78 1727.48 1277.95 1723.76 1209.95 1696.05 C 1190.5 1687.84 1175.47 1681.18 1154.99 1674.7 C 1125.77 1665.46 1051.59 1667.06 1042.21 1630.07 C 1035.21 1602.48 1045.56 1563.63 1060.14 1539.71 C 1077.92 1541.96 1082.18 1545.44 1096.1 1559.4 C 1110.78 1574.1 1107.3 1613.77 1124.07 1620.65 C 1134.26 1624.83 1155.05 1592.15 1166.65 1606.89 C 1180.02 1623.14 1167.71 1669.22 1197.14 1672.39 C 1221.37 1675.01 1225.53 1649.72 1233.06 1633.96 C 1245.04 1609.15 1270.77 1594 1298.28 1595.54 C 1315.43 1596.52 1333.27 1605.19 1347.03 1615.71 C 1367.88 1631.64 1384.43 1657.03 1412.26 1633.67 C 1419.78 1627.35 1434.86 1606.22 1435.39 1596.58 L 1435.66 1597.23 C 1441.14 1640.01 1441.83 1647.55 1423.24 1687.94 z" fill="rgb(92,125,104)" transform="translate(0,0)"></path>
<path d="M 1377.11 1511.82 C 1393.17 1518.58 1428.1 1539.34 1434.5 1555.78 C 1425.7 1571.2 1405.48 1596.87 1386.99 1599.73 C 1367.91 1602.68 1361.78 1588.11 1352.46 1575.14 C 1348.93 1570.04 1341.61 1564.54 1339.01 1559 C 1327.11 1533.72 1350.65 1532.58 1366.47 1530.34 C 1374.59 1523.3 1375.75 1522.63 1377.11 1511.82 z" fill="rgb(92,125,104)" transform="translate(0,0)"></path>
<path d="M 1066.31 1470.61 C 1074.58 1473.44 1082.94 1475.98 1091.51 1477.77 L 1096.51 1478.82 C 1104.66 1480.45 1113.74 1481.97 1122 1482.87 L 1143.22 1484.96 C 1140.89 1507.14 1124.71 1532.72 1099.99 1529.03 C 1086.62 1527.03 1075.06 1510.14 1071.28 1509.15 C 1070.23 1493.6 1072.17 1491.7 1067.38 1474.39 L 1066.31 1470.61 z" fill="rgb(92,125,104)" transform="translate(0,0)"></path>
<path d="M 1435.39 1596.58 C 1434.66 1594.03 1431.18 1584.77 1431.73 1583.11 C 1431.84 1582.95 1431.95 1582.79 1432.06 1582.63 L 1432.13 1582.61 C 1434.05 1585.12 1436.35 1591.66 1437.79 1594.98 C 1437.93 1595.55 1438.06 1596.13 1438.2 1596.71 L 1435.66 1597.23 L 1435.39 1596.58 z" fill="rgb(24,25,23)" transform="translate(0,0)"></path>
<path d="M 1234.72 1519.94 C 1238.39 1519.18 1255.13 1518.98 1244.85 1521.33 C 1241.36 1519.44 1239.3 1520.25 1234.72 1519.94 z" fill="rgb(192,190,176)" transform="translate(0,0)"></path>
<path d="M 1176.56 1571.43 L 1178.47 1572.4 C 1173.96 1578.55 1172.57 1577.52 1176.56 1571.43 z" fill="rgb(50,56,50)" transform="translate(0,0)"></path>
<path d="M 1197.52 1591.04 L 1199.55 1591.52 C 1199.55 1591.52 1198.8 1596.63 1197.47 1595.42 C 1196.75 1594.76 1197.37 1592 1197.52 1591.04 z" fill="rgb(98,98,94)" transform="translate(0,0)"></path>
<path d="M 855.934 1216.15 C 813.95 1189.95 778.921 1155.76 746.274 1119.68 C 704.3 1073.28 724.645 1061.79 754.337 1016.82 C 764.641 1001.21 776.291 984.569 787.403 968.809 C 797.679 954.234 809.759 937.652 819.765 922.568 C 833.803 891.476 845.743 866.53 881.512 855.704 C 897.387 850.9 912.962 860.998 926.924 869.249 C 954.973 883.318 981.872 892.707 1013.76 893.154 C 976.418 938.828 939.307 984.69 902.429 1030.74 C 891.793 1045.46 875.925 1063.21 864.032 1078.09 C 863.851 1061.31 864.984 1044.74 865.608 1028.02 C 865.915 1019.78 867.295 1007.13 866.217 999.278 C 877.316 987.985 888.247 976.529 899.007 964.912 L 897.862 962.962 C 875.373 982.58 853.829 1003.26 833.303 1024.92 C 819.998 1038.82 808.256 1053.12 793.733 1065.85 C 789.199 1062.7 784.462 1059.77 779.803 1056.81 C 784.599 1063 804.92 1082.91 811.805 1089.58 C 843.372 1120.16 875.688 1151.55 907.981 1181.29 C 928.896 1181.5 940.226 1183.18 959.061 1193.89 C 984.054 1208.41 1005.67 1240.15 1013.06 1267.52 C 1018.16 1286.42 1023.43 1326.97 997.004 1331.78 C 992.476 1332.6 983.978 1332.85 980.131 1330.36 C 988.733 1315.12 989.845 1313.82 989.956 1295.5 C 989.999 1288.52 988.041 1274.69 983.021 1269.84 L 981.927 1270.99 C 979.951 1287.43 993.473 1331.46 960.78 1333.42 C 953.626 1333.85 947.848 1328.88 943.34 1323.8 C 944.975 1320.77 947.177 1317.03 947.93 1313.73 C 949.831 1305.39 950.706 1284.7 946.541 1277.49 C 943.749 1276.05 945.205 1276.25 942.001 1277.07 C 941.483 1277.61 940.965 1278.14 940.448 1278.67 C 942.572 1289.03 945.518 1300.22 942.765 1310.86 C 941.086 1317.2 936.937 1322.61 931.245 1325.88 C 905.951 1340.6 879.183 1315.15 886.964 1290.52 L 888.57 1290.15 C 893.364 1293.96 897.338 1304.65 902.064 1305.27 C 903.578 1301.63 899.538 1293.5 897.805 1288.73 C 856.872 1276.06 855.418 1252.85 855.934 1216.15 z" fill="rgb(92,125,104)" transform="translate(0,0)"></path>
<path d="M 926.924 869.249 C 954.973 883.318 981.872 892.707 1013.76 893.154 C 976.418 938.828 939.307 984.69 902.429 1030.74 C 887.404 1005.27 924.114 997.594 908.391 954.634 C 929.927 925.987 934.962 903.896 926.924 869.249 z" fill="rgb(216,206,188)" transform="translate(0,0)"></path>
<path d="M 897.862 962.962 C 899.025 961.892 902.952 957.749 904.366 957.799 C 905.419 958.785 899.766 964.101 899.007 964.912 L 897.862 962.962 z" fill="rgb(50,56,50)" transform="translate(0,0)"></path>
<path d="M 776.463 236.585 C 811.481 224.265 839.807 222.873 876.32 227.762 C 874.906 245.034 872.573 268.788 858.519 280.86 C 842.308 294.784 818.773 286.913 815.213 316.697 C 813.13 334.119 829.203 346.744 825.897 364.571 C 821.237 389.704 786.22 388.581 796.809 435.048 C 754.337 465.858 716.404 498.083 679.835 535.764 C 675.073 540.671 669.592 546.211 664.578 550.846 C 661.997 553.765 659.937 556.002 657.136 558.706 C 660.619 539.38 661.802 520.569 660.889 500.897 C 660.401 490.388 658.483 482.424 659.217 471.412 C 660.007 459.578 682.916 432.61 683.352 426.089 L 682.105 425.14 C 676.543 427.809 660.938 456.11 657.124 462.891 C 656.234 437.131 656.82 415.12 662.938 389.609 C 664.59 382.722 671.664 363.674 669.698 358.357 L 668.242 358.223 C 659.107 369.835 652.961 425.515 652.864 440.975 C 652.613 480.839 663.002 524.298 650.725 563.227 C 649.235 567.607 625.39 593.769 620.872 598.679 C 610.779 611.253 600.942 624.03 591.367 637.002 C 575.522 621.897 591.439 605.141 586.414 591.818 C 577.907 569.262 562.618 576.367 556.976 547.367 C 558.068 542.458 562.382 533.63 564.885 528.923 C 580.59 499.393 562.244 484.416 535.256 473.199 C 541.478 456.55 544.334 439.629 552.136 422.217 C 569.712 382.996 592.169 370.206 630.007 355.286 C 641.538 349.999 655.381 348.158 667.024 340.082 C 680.235 330.918 689.744 320.08 698.953 306.983 C 724.834 270.174 734.169 253.895 776.463 236.585 z" fill="rgb(92,125,104)" transform="translate(0,0)"></path>
<path d="M 776.463 236.585 C 811.481 224.265 839.807 222.873 876.32 227.762 C 874.906 245.034 872.573 268.788 858.519 280.86 C 842.308 294.784 818.773 286.913 815.213 316.697 C 813.13 334.119 829.203 346.744 825.897 364.571 C 821.237 389.704 786.22 388.581 796.809 435.048 C 754.337 465.858 716.404 498.083 679.835 535.764 C 675.073 540.671 669.592 546.211 664.578 550.846 C 663.621 531.466 674.811 528.545 684.407 514.375 C 691.682 503.634 688.509 494.916 686.056 483.549 C 681.822 463.932 693.729 458.272 703.507 444.771 C 710.169 435.865 703.26 428.549 702.538 420.554 C 699.568 387.653 739.534 396.791 751.549 376.238 C 755.022 370.297 756.459 359.663 754.594 353.854 C 748.879 336.047 732.891 320.847 748.591 302.349 C 756.446 293.553 770.621 291.569 777.036 279.641 C 784.65 265.485 780.391 251.007 776.463 236.585 z" fill="rgb(216,206,188)" transform="translate(0,0)"></path>
<path d="M 535.256 473.199 C 541.478 456.55 544.334 439.629 552.136 422.217 C 569.712 382.996 592.169 370.206 630.007 355.286 C 627.739 380.741 621.141 382.131 604.285 399.545 C 592.315 414.266 592.655 435.508 605.774 449.634 C 612.698 457.089 623.326 468.566 622.105 480.138 C 620.858 491.97 608.719 497.57 604.776 508.308 C 602.238 515.22 603.536 525.856 608.959 531.002 C 631.603 552.486 619.728 567.903 620.767 595.101 L 620.872 598.679 C 610.779 611.253 600.942 624.03 591.367 637.002 C 575.522 621.897 591.439 605.141 586.414 591.818 C 577.907 569.262 562.618 576.367 556.976 547.367 C 558.068 542.458 562.382 533.63 564.885 528.923 C 580.59 499.393 562.244 484.416 535.256 473.199 z" fill="rgb(216,206,188)" transform="translate(0,0)"></path>
<path d="M 774.16 1602.55 C 777.493 1610.24 780.695 1620.02 790.979 1616.72 C 814.737 1609.11 840.595 1585.18 853.682 1564.96 C 873.996 1572.73 892.031 1572.35 913.091 1567.46 L 917.463 1574.87 C 935.111 1596.59 952.616 1612.5 979.742 1620.94 C 994.62 1637.48 1006.45 1657.38 1011.59 1679.17 C 1014.64 1693.51 1018.62 1735.83 1008.73 1746.13 C 946.522 1810.88 805.386 1812.19 734.826 1770.35 C 727.439 1745.25 720.494 1715.01 725.309 1688.73 C 729.142 1671.28 730.38 1662.59 737.554 1646.26 C 742.1 1632.05 754.242 1615.14 764.156 1604.07 C 766.895 1603.49 771.26 1602.98 774.16 1602.55 z" fill="rgb(216,206,188)" transform="translate(0,0)"></path>
<path d="M 725.309 1688.73 C 725.343 1688.98 725.586 1691.18 725.847 1691.59 C 729.341 1696.74 734.158 1700.53 738.207 1705.56 C 746.603 1716 755.164 1734.42 767.439 1740.17 C 785.284 1748.52 796.457 1723.23 806.324 1713.07 C 812.52 1706.69 819.383 1701.57 828.079 1698.67 C 837.806 1695.51 848.27 1695.44 858.043 1698.45 C 892.254 1708.67 894.311 1732.52 921.181 1748.76 C 925.038 1751.09 931.749 1751.55 936.387 1749.65 C 961.3 1737.64 938.838 1697.6 950.886 1677.19 C 965.317 1652.74 993.966 1670.03 1011.59 1679.17 C 1014.64 1693.51 1018.62 1735.83 1008.73 1746.13 C 946.522 1810.88 805.386 1812.19 734.826 1770.35 C 727.439 1745.25 720.494 1715.01 725.309 1688.73 z" fill="rgb(92,125,104)" transform="translate(0,0)"></path>
<path d="M 774.16 1602.55 C 777.493 1610.24 780.695 1620.02 790.979 1616.72 C 814.737 1609.11 840.595 1585.18 853.682 1564.96 C 873.996 1572.73 892.031 1572.35 913.091 1567.46 L 917.463 1574.87 L 917.272 1575.91 C 911.215 1610.54 957.12 1607.54 956.575 1634.51 C 956.2 1653.1 928.062 1662.55 913.348 1658.41 C 872.886 1653.87 867.775 1587.03 822.639 1616.54 C 798.543 1631.55 791.538 1673.28 760.656 1671.59 C 749.415 1670.98 740.868 1655.73 737.554 1646.26 C 742.1 1632.05 754.242 1615.14 764.156 1604.07 C 766.895 1603.49 771.26 1602.98 774.16 1602.55 z" fill="rgb(92,125,104)" transform="translate(0,0)"></path>
<path d="M 1331.83 284.605 C 1339.78 288.738 1353.12 299.523 1360.8 305.374 C 1391.57 328.815 1414.89 340.888 1452.43 349.672 C 1463.42 360.661 1485.37 380.812 1499.43 386.295 C 1490.21 374.76 1471.58 362.443 1459.65 350.279 C 1476.74 353.664 1494.23 354.508 1511.57 352.785 C 1521.37 351.725 1572.44 340.246 1575.71 342.018 C 1576.73 346.115 1575.45 349.411 1573.11 352.997 C 1553.86 382.412 1527.4 377.38 1506.22 389.78 C 1486.25 401.474 1479.87 418.777 1449.82 424.172 C 1421.77 430.257 1399.29 410.324 1371.34 416.422 C 1344.7 422.237 1338.85 455.69 1312.76 457.684 C 1293.21 459.179 1275.13 442.298 1257.77 434.463 C 1225.26 419.792 1201.85 435.269 1177.79 456.094 C 1174.59 437.132 1158.58 444.316 1144.99 440.985 C 1130.25 437.373 1128.93 420.396 1121.9 409.087 C 1103.18 378.974 1070.02 413.713 1050.61 382.628 C 1042.28 369.525 1043.03 353.361 1027.5 345.857 C 1022.29 343.34 1018.09 342.287 1012.56 340.884 C 1021.25 337.595 1042.27 331.284 1050.92 333.582 C 1079.09 341.066 1111.81 353.725 1136.58 369.082 C 1144.67 374.099 1157.95 400.438 1168.58 407.414 L 1169.79 407.028 C 1169.02 401.281 1150.32 378.985 1145.83 373.727 C 1164.18 382.461 1181.94 396.923 1200.47 406.292 L 1202.25 405.624 L 1201.81 406.904 L 1204.88 407.974 L 1204.98 407.228 C 1195.78 397.656 1183.97 391.526 1172.74 384.443 C 1135.46 360.926 1097.84 341.681 1055.13 329.845 C 1072.63 326.812 1088.89 322.24 1106.99 319.819 C 1134.08 313.383 1242.07 313.749 1271.77 317.609 C 1315.44 320.087 1349.72 331.205 1384.22 357.839 C 1393.82 365.246 1404.55 376.423 1414.97 381.782 C 1404.01 364.315 1372.75 344.096 1355.03 333.123 C 1359.71 334.187 1400.02 346.503 1401.01 346.403 L 1401.46 344.88 C 1394.86 336.157 1317.91 318.627 1303.09 316.092 C 1309.98 313.396 1338.48 303.277 1341 298.028 C 1333.22 293.794 1307.71 314.892 1291.99 312.268 C 1305.22 293.371 1302.39 282.286 1331.83 284.605 z" fill="rgb(92,125,104)" transform="translate(0,0)"></path>
<path d="M 1106.99 319.819 C 1134.08 313.383 1242.07 313.749 1271.77 317.609 C 1276.15 327.116 1277.59 329.645 1283.76 337.746 C 1293.78 350.9 1316.14 365.537 1308.36 383.979 C 1306.12 389.313 1301.99 395.118 1296.15 397.147 C 1285.35 400.902 1278.74 399.93 1268.44 396.062 C 1242.6 386.356 1241.26 348.609 1208.96 357.72 C 1201.31 359.88 1188.06 370.49 1179.43 364.543 C 1166.2 355.424 1168.43 349.789 1152.65 339.516 C 1138.93 330.585 1116.23 326.429 1106.99 319.819 z" fill="rgb(216,206,188)" transform="translate(0,0)"></path>
<path d="M 790.167 449.274 C 806.746 461.906 830.52 483.395 852.591 479.816 C 869.942 475.512 871.158 467.011 890.675 468.5 C 918.859 470.65 913.248 508.663 943.436 501.52 C 961.235 497.309 994.315 481.897 996.308 515.035 C 978.657 537.295 955.279 549.796 926.137 546.27 C 886.165 541.125 858.35 540.563 824.192 566.04 C 796.744 586.514 793.817 607.912 777.415 631.289 C 764.034 649.344 753.454 658.095 732.285 666.971 C 718.96 672.559 712.521 674.394 702.057 684.302 C 690.801 685.318 683.067 692.2 672.177 693.11 C 656.928 694.385 641.081 686.912 625.915 691.362 C 604.361 697.687 595.618 724.63 569.015 715.454 C 579.867 694.028 595.128 670.078 607.764 649.347 C 612.722 639.751 640.505 596.28 648.828 591.047 C 671.706 576.664 721.528 578.064 748.286 579.393 C 753.799 579.667 765.901 581.147 769.976 578.773 L 769.844 576.854 L 768.425 575.818 C 723.795 574.137 696.096 571.339 652.898 583.108 C 660.156 573.497 667.168 563.701 673.925 553.731 C 695.659 525.576 761.216 469.943 790.167 449.274 z" fill="rgb(92,125,104)" transform="translate(0,0)"></path>
<path d="M 790.167 449.274 C 806.746 461.906 830.52 483.395 852.591 479.816 C 869.942 475.512 871.158 467.011 890.675 468.5 C 918.859 470.65 913.248 508.663 943.436 501.52 C 961.235 497.309 994.315 481.897 996.308 515.035 C 978.657 537.295 955.279 549.796 926.137 546.27 C 909.366 523.183 891.565 526.42 867.119 534.481 C 850.671 539.904 840.969 530.912 826.783 524.933 L 825.778 525.359 C 812.368 531.172 804.799 540.071 788.454 531.884 C 765.155 520.214 754.737 527.39 740.166 546.053 C 731.624 556.992 687.101 555.33 673.925 553.731 C 695.659 525.576 761.216 469.943 790.167 449.274 z" fill="rgb(216,206,188)" transform="translate(0,0)"></path>
<path d="M 607.764 649.347 C 631.82 645.35 635.191 654.969 656.482 654.435 C 669.712 654.104 682.296 633.29 695.357 629.021 C 708.217 623.541 723.528 637.49 735.772 635.24 C 755.413 631.632 756.131 614.125 777.415 631.289 C 764.034 649.344 753.454 658.095 732.285 666.971 C 718.96 672.559 712.521 674.394 702.057 684.302 C 690.801 685.318 683.067 692.2 672.177 693.11 C 656.928 694.385 641.081 686.912 625.915 691.362 C 604.361 697.687 595.618 724.63 569.015 715.454 C 579.867 694.028 595.128 670.078 607.764 649.347 z" fill="rgb(216,206,188)" transform="translate(0,0)"></path>
<path d="M 1391.61 835.49 C 1395.03 837.838 1395.7 838.565 1399.6 839.632 L 1401 838.708 C 1400.12 836.391 1386.6 821.215 1383.84 817.585 C 1377.32 808.849 1371.91 799.342 1367.73 789.28 C 1359.98 770.612 1351.84 738.803 1379.97 728.375 C 1386.98 725.776 1406.75 729.733 1408.37 739.54 C 1410.33 751.394 1402.18 758.005 1396.68 767.367 C 1398.93 767.776 1398.73 767.773 1400.79 767.198 C 1403.94 770.893 1404.1 778.659 1407.3 784.793 L 1408.55 784.642 C 1411.43 777.702 1409.98 774.9 1408.2 767.694 C 1421.34 773.988 1441.17 779.872 1448.33 792.81 C 1451.1 797.83 1449.98 800.063 1448.46 805.33 L 1450.47 806.491 C 1455.54 791.412 1473.28 780.6 1488.52 779.563 C 1498.94 778.853 1507.62 781.459 1517.48 784.202 C 1515.37 813.624 1499.15 843.875 1469.33 852.97 C 1463.34 854.797 1456.62 855.943 1450.45 857.13 C 1443.82 865.359 1433.69 876.102 1426.5 884.227 C 1409.78 903.247 1392.91 922.13 1375.89 940.876 C 1365.08 952.78 1354.4 964.595 1343.93 976.82 C 1334.74 987.547 1323.27 1003.14 1307.1 1000.31 C 1291.92 997.663 1276.66 991.947 1261.96 987.206 C 1234.58 978.432 1207.26 969.456 1180.01 960.277 C 1173.71 950.216 1167.35 940.188 1161.05 930.123 C 1150.98 914.028 1138.88 899.339 1128.67 883.335 C 1132.41 881.188 1141.05 874.177 1144.87 871.221 C 1162.22 876.291 1182.48 883.87 1199.75 889.911 C 1228.88 900.356 1258.2 910.266 1287.7 919.638 C 1300.48 910.312 1314.59 898.043 1327.02 887.881 L 1391.61 835.49 z" fill="rgb(92,125,104)" transform="translate(0,0)"></path>
<path d="M 1450.47 806.491 C 1450.13 807.043 1449.09 809.08 1448.36 809.323 L 1448.15 809.208 C 1447.64 807.921 1448.13 806.644 1448.46 805.33 L 1450.47 806.491 z" fill="rgb(24,25,23)" transform="translate(0,0)"></path>
<path d="M 1012.56 340.884 C 1018.09 342.287 1022.29 343.34 1027.5 345.857 C 1043.03 353.361 1042.28 369.525 1050.61 382.628 C 1070.02 413.713 1103.18 378.974 1121.9 409.087 C 1128.93 420.396 1130.25 437.373 1144.99 440.985 C 1158.58 444.316 1174.59 437.132 1177.79 456.094 C 1156.38 478.137 1141.1 481.722 1111.77 473.232 C 1056.23 459.688 1032.95 471.776 996.308 515.035 C 994.315 481.897 961.235 497.309 943.436 501.52 C 913.248 508.663 918.859 470.65 890.675 468.5 C 871.158 467.011 869.942 475.512 852.591 479.816 C 830.52 483.395 806.746 461.906 790.167 449.274 C 797.665 443.324 804.04 438.837 811.88 433.448 C 837.472 432.645 863.12 432.28 888.616 435.093 C 910.19 437.472 928.256 453.161 944.984 465.831 C 937.375 452.824 931.811 449.896 918.944 442.329 C 922.114 440.34 922.489 440.644 926.24 440.544 C 933.041 441.378 961.86 447.161 965.53 445.817 L 965.107 443.851 C 960.04 441.632 945.247 439.291 939.265 438.191 C 898.155 430.631 862.33 428.169 820.771 428.122 C 834.63 417.634 869.241 398.066 885.173 390.524 C 929.875 368.514 965.498 355.562 1012.56 340.884 z" fill="rgb(92,125,104)" transform="translate(0,0)"></path>
<path d="M 1012.56 340.884 C 1018.09 342.287 1022.29 343.34 1027.5 345.857 C 1043.03 353.361 1042.28 369.525 1050.61 382.628 C 1070.02 413.713 1103.18 378.974 1121.9 409.087 C 1128.93 420.396 1130.25 437.373 1144.99 440.985 C 1158.58 444.316 1174.59 437.132 1177.79 456.094 C 1156.38 478.137 1141.1 481.722 1111.77 473.232 C 1111 471.133 1110.17 469.055 1109.28 466.999 C 1106.61 460.862 1101.86 454.507 1096.99 449.956 C 1074.29 428.72 1052.05 454.332 1030.38 443.228 C 1015.15 435.43 1011.16 415.267 992.698 408.867 C 974.557 402.576 966.543 409.442 951.29 415.859 C 927.432 425.897 921.591 412.04 906.295 399.231 C 903.975 397.289 889.481 392.175 885.173 390.524 C 929.875 368.514 965.498 355.562 1012.56 340.884 z" fill="rgb(216,206,188)" transform="translate(0,0)"></path>
<path d="M 876.32 227.762 C 884.571 228.266 891.788 228.637 900.019 227.889 C 943.422 223.948 980.86 188.133 1026.44 195.791 C 1054.29 200.808 1066.5 207.648 1091.61 218.999 C 1078.41 238.417 1092.57 259.196 1062.69 264.084 C 1052.93 265.681 1041.05 267.944 1035.36 276.749 C 1021.64 298.004 1040.12 308.52 1024.92 329.393 C 989.441 340.106 958.858 349.832 924.365 364.147 C 909.765 370.206 888.797 381.733 876.02 386.271 C 879.87 378.34 888.577 359.202 892.811 352.47 C 898.6 339.177 927.316 268.758 924.832 258.588 L 923.301 258.246 C 920.709 260.38 914.079 284.556 912.139 289.863 C 900.052 322.92 887.5 359.468 867.781 388.717 C 864.136 393.958 836.647 408.783 828.929 413.572 C 817.996 420.386 807.284 427.548 796.809 435.048 C 786.22 388.581 821.237 389.704 825.897 364.571 C 829.203 346.744 813.13 334.119 815.213 316.697 C 818.773 286.913 842.308 294.784 858.519 280.86 C 872.573 268.788 874.906 245.034 876.32 227.762 z" fill="rgb(92,125,104)" transform="translate(0,0)"></path>
<path d="M 1026.44 195.791 C 1054.29 200.808 1066.5 207.648 1091.61 218.999 C 1078.41 238.417 1092.57 259.196 1062.69 264.084 C 1052.93 265.681 1041.05 267.944 1035.36 276.749 C 1021.64 298.004 1040.12 308.52 1024.92 329.393 C 989.441 340.106 958.858 349.832 924.365 364.147 C 909.765 370.206 888.797 381.733 876.02 386.271 C 879.87 378.34 888.577 359.202 892.811 352.47 C 915.01 348.095 913.461 342.395 916.019 322.633 C 918.696 301.945 944.209 303.355 957.527 293.751 C 969.373 285.387 967.336 270.013 969.41 257.799 C 973.365 234.511 997.475 238.948 1012.19 229.511 C 1021.82 223.331 1024.83 206.718 1026.44 195.791 z" fill="rgb(216,206,188)" transform="translate(0,0)"></path>
<path d="M 535.256 473.199 C 562.244 484.416 580.59 499.393 564.885 528.923 C 562.382 533.63 558.068 542.458 556.976 547.367 C 562.618 576.367 577.907 569.262 586.414 591.818 C 591.439 605.141 575.522 621.897 591.367 637.002 C 584.153 647.473 576.229 658.752 569.463 669.466 C 567.32 657.747 567.005 655.223 566.806 644.086 C 566.622 633.726 570.816 604.624 568.3 596.936 C 563.615 599.645 562.508 632.214 561.689 640.16 C 558.252 634.392 543.683 608.202 540.5 605.258 L 539.264 605.851 C 538.297 613.072 545.68 622.539 549.639 628.76 C 559.579 644.378 564.774 657.001 565.164 675.923 C 559.273 685.522 553.263 694.904 547.848 704.779 C 544.825 710.17 541.993 715.23 538.69 720.463 C 536.407 725.395 529.441 736.395 526.357 742.072 C 517.082 758.975 508.568 776.285 500.841 793.951 C 493.226 771.137 483.76 758.577 474.612 737.209 C 465.672 716.328 470.512 694.826 472.088 673.097 C 472.801 663.264 472.526 656.027 471.906 646.171 C 469.557 635.236 463.868 622.363 462.855 611.221 C 460.22 582.231 463.357 560.991 480.772 538.12 C 483.318 534.237 491.842 528.295 495.779 525.235 C 516.335 509.256 525.493 496.858 535.256 473.199 z" fill="rgb(216,206,188)" transform="translate(0,0)"></path>
<path d="M 535.256 473.199 C 562.244 484.416 580.59 499.393 564.885 528.923 C 562.382 533.63 558.068 542.458 556.976 547.367 C 562.618 576.367 577.907 569.262 586.414 591.818 C 591.439 605.141 575.522 621.897 591.367 637.002 C 584.153 647.473 576.229 658.752 569.463 669.466 C 567.32 657.747 567.005 655.223 566.806 644.086 C 566.622 633.726 570.816 604.624 568.3 596.936 C 563.615 599.645 562.508 632.214 561.689 640.16 C 558.252 634.392 543.683 608.202 540.5 605.258 L 539.264 605.851 C 538.297 613.072 545.68 622.539 549.639 628.76 C 559.579 644.378 564.774 657.001 565.164 675.923 C 559.273 685.522 553.263 694.904 547.848 704.779 C 535.866 687.636 550.758 671.233 542.37 654.281 C 534.972 639.331 510.307 639.382 505.638 620.037 C 502.533 607.171 510.416 601.398 515.406 590.974 C 525.605 569.665 501.241 568.191 490.296 557.701 C 485.78 553.373 482.706 543.927 480.772 538.12 C 483.318 534.237 491.842 528.295 495.779 525.235 C 516.335 509.256 525.493 496.858 535.256 473.199 z" fill="rgb(92,125,104)" transform="translate(0,0)"></path>
<path d="M 471.906 646.171 C 484.501 670.408 496.666 659.125 506.778 671.65 C 520.4 688.52 509.929 702.997 538.69 720.463 C 536.407 725.395 529.441 736.395 526.357 742.072 C 517.082 758.975 508.568 776.285 500.841 793.951 C 493.226 771.137 483.76 758.577 474.612 737.209 C 465.672 716.328 470.512 694.826 472.088 673.097 C 472.801 663.264 472.526 656.027 471.906 646.171 z" fill="rgb(92,125,104)" transform="translate(0,0)"></path>
<path d="M 1091.61 218.999 C 1105.17 225.607 1117.27 230.851 1132.31 233.169 C 1146.49 235.354 1160.3 233.707 1174.52 232.946 C 1202.92 230.918 1229.96 234.108 1256.74 244.267 C 1283.46 254.914 1308.97 266.678 1331.83 284.605 C 1302.39 282.286 1305.22 293.371 1291.99 312.268 C 1237.93 304.721 1166.86 308.596 1111.99 311.243 L 1127.34 297.249 C 1134.37 291.018 1154.17 271.068 1157.23 262.797 L 1156.63 261.508 C 1152.08 262.56 1111.29 308.814 1101.98 311.472 C 1079.93 317.768 1046.52 325.596 1024.92 329.393 C 1040.12 308.52 1021.64 298.004 1035.36 276.749 C 1041.05 267.944 1052.93 265.681 1062.69 264.084 C 1092.57 259.196 1078.41 238.417 1091.61 218.999 z" fill="rgb(92,125,104)" transform="translate(0,0)"></path>
<path d="M 1207.21 279.61 C 1244.23 280.432 1230.49 255.378 1256.74 244.267 C 1283.46 254.914 1308.97 266.678 1331.83 284.605 C 1302.39 282.286 1305.22 293.371 1291.99 312.268 C 1237.93 304.721 1166.86 308.596 1111.99 311.243 L 1127.34 297.249 C 1142.73 297.136 1149.41 294.463 1158.78 282.001 C 1174.69 260.845 1187.89 265.483 1207.21 279.61 z" fill="rgb(216,206,188)" transform="translate(0,0)"></path>
<path d="M 1039.02 1644.3 C 1043.86 1647.47 1047.96 1651.41 1053.29 1654.72 C 1082.69 1674.47 1122.35 1670.76 1153.47 1681.42 C 1200.91 1697.67 1242.56 1720.04 1294.13 1723.22 C 1345.18 1726.37 1399.53 1716.5 1440.76 1684.37 C 1442.36 1683.12 1443.51 1683.91 1444.87 1684.54 C 1447.38 1690.44 1444.34 1709.97 1443.69 1717.51 L 1427.86 1727.96 C 1414.61 1736.16 1400.59 1743.04 1385.99 1748.5 C 1315.37 1774.29 1236.97 1767.61 1171.73 1730.23 C 1156.61 1721.59 1147.65 1708.29 1132.98 1700.45 C 1118.59 1692.76 1112.71 1710.55 1109.15 1720.02 C 1095.83 1717.17 1079.55 1711.86 1066.68 1707.72 C 1058.11 1704.97 1041.86 1700.04 1038.64 1691.49 C 1033.56 1678.03 1034.03 1657.6 1039.02 1644.3 z" fill="rgb(193,140,72)" transform="translate(0,0)"></path>
<path d="M 713.04 1075.83 C 715.027 1076.12 714.05 1075.75 715.875 1077.18 C 716.177 1078.59 716.516 1080.02 716.808 1081.42 C 718.54 1089.71 721.622 1097.67 725.931 1104.96 C 736.796 1123 775.106 1159.92 791.44 1174.56 C 768.2 1203.55 753.13 1220.61 713.767 1217.87 C 689.452 1214.19 648.646 1196.49 634.074 1174.59 C 629.256 1167.35 645.879 1146.82 650.993 1140.32 C 666.277 1120.88 689.34 1084.35 713.04 1075.83 z" fill="rgb(144,119,89)" transform="translate(0,0)"></path>
<path d="M 685.246 1147.82 C 693.933 1147.22 698.306 1150.29 699.906 1159.01 C 702.317 1172.15 703.723 1178.66 691.736 1184.49 C 678.347 1182.42 673.21 1175.51 674.941 1161.48 C 675.805 1154.48 680.118 1151.62 685.246 1147.82 z" fill="rgb(121,96,72)" transform="translate(0,0)"></path>
<path d="M 743.555 1184.1 C 765.015 1183.82 761.514 1203.55 740.251 1206.59 C 716.854 1205.95 725.684 1189.84 743.555 1184.1 z" fill="rgb(121,96,72)" transform="translate(0,0)"></path>
<path d="M 635.837 1366.25 C 641.359 1367.53 649.95 1368.95 654.28 1371.88 L 654.859 1374.89 C 655.579 1378.1 655.632 1377.96 657.575 1380.83 L 658.388 1382.06 C 660.935 1375.64 662.252 1374.31 668.064 1370.55 C 678.654 1370.12 676.512 1384.79 682.124 1389.72 C 690.748 1390.93 697.604 1392.48 694.672 1403.24 C 690.769 1417.57 701.464 1410.42 706.377 1419.76 C 706.654 1426 703.424 1430.02 699.923 1434.9 C 701.037 1435.95 702.133 1437.02 703.209 1438.12 C 706.098 1441.07 707.967 1443.38 707.901 1447.62 C 706.088 1452.16 701.091 1452.55 697.876 1456.4 C 695.976 1458.68 697.551 1463.58 698.056 1466.97 C 694.958 1473.74 692.782 1470.21 687.953 1471.11 C 685.229 1471.62 687.423 1479.25 682.082 1484.19 C 677.975 1485.6 677.77 1484.76 673.917 1484.31 C 669.147 1483.75 670.744 1489.02 665.462 1492.89 C 660.967 1493.45 662.335 1493.88 658.548 1492.29 C 653.392 1482.55 654.411 1487.52 645.967 1491.54 C 638.809 1494.94 637.034 1490.88 633.875 1486.35 C 627.832 1487.71 622.754 1498.7 614.567 1488.28 C 611.641 1472.33 606.462 1484.97 597.132 1477.41 C 594.682 1473.54 594.913 1467.6 594.582 1462.74 C 591.543 1459.47 585.54 1459.46 581.744 1456.76 C 571.829 1449.71 584.5 1435.88 589.848 1429.87 C 583.714 1427.08 576.281 1421.05 579.624 1413.42 C 582.408 1407.07 590.022 1404.86 595.987 1402.4 C 594.697 1397.32 592.203 1389.88 597.135 1386.44 L 601.461 1386.49 C 605.207 1386.53 605.554 1386.84 608.837 1384.71 L 610.265 1381.13 C 612.432 1375.64 615.891 1371.51 622.521 1372.45 C 623.966 1373.86 624.732 1374.6 626.325 1375.82 C 630.214 1374.97 633.42 1369.54 635.837 1366.25 z" fill="rgb(193,140,72)" transform="translate(0,0)"></path>
<path d="M 621.004 1388.19 C 622.968 1388.01 632.923 1388.05 634.106 1385.97 C 634.444 1385.38 637.406 1381.57 636.092 1381.13 C 636.653 1381.03 630.975 1382.16 632.563 1381.63 C 632.087 1382.15 631.876 1382.82 631.995 1383.5 C 632.691 1387.7 629.75 1385.13 627.966 1385.95 C 626.525 1386.61 627.452 1379.05 627.306 1379.5 C 631.556 1378.21 633.228 1372.77 637.658 1368.33 C 642.652 1369.74 651.517 1371.44 654.859 1374.89 C 655.579 1378.1 655.632 1377.96 657.575 1380.83 L 658.388 1382.06 C 659.445 1385.63 666.574 1387.81 670.466 1400.25 C 682.461 1401.12 692.289 1400.37 688.078 1416.01 C 684.638 1428.79 692.408 1440.79 681.538 1451.6 C 678.52 1454.6 665.432 1452.62 661.167 1452.37 C 659.065 1456.52 655.488 1464.8 651.492 1466.98 C 636.098 1475.37 626.208 1464.07 619.403 1452.84 L 618.427 1451.29 C 614.828 1450.3 611.415 1449.45 607.843 1448.31 C 599.437 1438.94 594.675 1428.56 598.95 1415.53 C 600.852 1409.73 605.504 1409.29 610.632 1407.09 C 614.264 1399.69 616.4 1395.13 621.004 1388.19 z" fill="rgb(231,171,96)" transform="translate(0,0)"></path>
<path d="M 815.688 1213.94 L 816.483 1215.4 C 810.781 1251.63 794.759 1294.87 779.257 1328.26 C 757.071 1376.05 725.108 1362.38 687.542 1343.16 C 681.216 1339.98 674.934 1336.7 668.696 1333.35 C 673.98 1315.02 691.494 1280.81 702.911 1265.08 C 709.642 1266.85 716.563 1267.78 723.52 1267.85 C 762.445 1268.08 790.512 1238.89 815.688 1213.94 z" fill="rgb(144,119,89)" transform="translate(0,0)"></path>
<path d="M 776.065 1257.99 C 806.238 1256.63 792.894 1283.36 778.45 1290.93 L 775.173 1292.61 C 752.365 1294.3 749.558 1270.1 772.953 1259.43 L 776.065 1257.99 z" fill="rgb(121,96,72)" transform="translate(0,0)"></path>
<path d="M 725.491 1298.78 C 743.243 1302.99 739.194 1329.39 722.622 1333.87 C 700.961 1327.66 710.252 1305.37 725.491 1298.78 z" fill="rgb(121,96,72)" transform="translate(0,0)"></path>
<path d="M 814.583 1578.32 C 805.829 1583.41 765.832 1603.71 757.59 1593.13 C 745.841 1578.04 761.081 1542.91 750.317 1524.71 C 747.933 1520.68 745.162 1503.17 744.821 1498.03 C 742.442 1462.16 760.738 1464.98 787.92 1468.58 C 812.384 1476.33 829.157 1486.38 848.114 1504.35 C 846.223 1512.76 845.461 1517.28 844.776 1525.78 C 829.136 1521.56 809.049 1519.73 794.916 1529.24 L 795.095 1530.24 C 800.214 1531.77 808.131 1529.29 814.49 1529.09 C 827.56 1528.68 832.467 1529.03 844.944 1532.22 C 845.099 1541 845.486 1546.38 846.907 1555.19 C 835.245 1563.36 826.977 1570.08 814.583 1578.32 z" fill="rgb(231,171,96)" transform="translate(0,0)"></path>
<path d="M 787.92 1468.58 C 812.384 1476.33 829.157 1486.38 848.114 1504.35 C 846.223 1512.76 845.461 1517.28 844.776 1525.78 C 829.136 1521.56 809.049 1519.73 794.916 1529.24 C 785.249 1519.41 785.882 1481.85 787.92 1468.58 z" fill="rgb(193,140,72)" transform="translate(0,0)"></path>
<path d="M 795.095 1530.24 C 800.214 1531.77 808.131 1529.29 814.49 1529.09 C 827.56 1528.68 832.467 1529.03 844.944 1532.22 C 845.099 1541 845.486 1546.38 846.907 1555.19 C 835.245 1563.36 826.977 1570.08 814.583 1578.32 C 810.152 1568.63 796.376 1539.21 795.095 1530.24 z" fill="rgb(193,140,72)" transform="translate(0,0)"></path>
<path d="M 867.385 1342.49 C 896.094 1364.92 921.381 1365.3 955.143 1354.49 C 949.77 1386.1 941.51 1419.9 934.089 1451.24 L 931.337 1460.69 C 902.699 1463.23 877.371 1463.26 849.144 1456.2 C 852.286 1443.79 853.884 1428.64 855.885 1415.83 C 859.699 1391.42 862.886 1366.8 867.385 1342.49 z" fill="rgb(92,125,104)" transform="translate(0,0)"></path>
<path d="M 636.587 589.96 L 639.776 589.737 C 633.767 596.405 621.456 615.558 615.926 623.857 C 580.158 676.413 550.179 732.683 526.511 791.686 C 504.122 847.863 476.554 933.49 501.553 991.297 C 509.807 1010.38 521.149 1023.24 540.629 1030.95 C 521.474 1039.52 514.823 1052.14 516.995 1072.88 C 403.131 954.478 512.679 767.849 585.664 656.666 C 600.594 633.922 620.311 612.018 636.587 589.96 z" fill="rgb(92,125,104)" transform="translate(0,0)"></path>
<path d="M 978.988 1478.92 C 993.455 1476.05 1016.52 1469.51 1019.77 1490.45 C 1022.86 1510.35 1015.67 1524.4 1011.24 1543.95 C 1008.96 1553.99 1019.85 1595.81 1000.15 1598.64 C 991.381 1599.9 970.45 1590.43 962.566 1586.11 C 947.77 1578.28 933.532 1568.86 922.714 1555.99 C 923.854 1548.26 924.329 1543.07 924.747 1535.25 C 943.663 1530.13 960.974 1536.44 969.815 1534.25 L 969.796 1532.82 C 957.785 1523.75 938.5 1526.07 924.821 1529.72 C 924.668 1521.19 924.217 1516.61 922.688 1508.33 C 939.696 1493.92 957.513 1484.35 978.988 1478.92 z" fill="rgb(193,140,72)" transform="translate(0,0)"></path>
<path d="M 978.988 1478.92 C 993.455 1476.05 1016.52 1469.51 1019.77 1490.45 C 1022.86 1510.35 1015.67 1524.4 1011.24 1543.95 C 1008.96 1553.99 1019.85 1595.81 1000.15 1598.64 C 991.381 1599.9 970.45 1590.43 962.566 1586.11 C 976.681 1562.52 987.395 1529.93 984.77 1501.89 C 984.414 1498.09 980.221 1484.24 978.988 1478.92 z" fill="rgb(231,171,96)" transform="translate(0,0)"></path>
<path d="M 1258.46 1410.89 C 1259.92 1411.2 1259.26 1411.07 1260.57 1412.93 C 1261.77 1425.61 1256.71 1446.1 1251.48 1457.67 C 1197.77 1486.45 1130.98 1482.63 1073.56 1466.5 C 1066.04 1464.38 1059.38 1461.91 1055.69 1454.97 C 1051.28 1440.81 1050.51 1427.83 1049.99 1413.16 C 1062.37 1419.59 1075.45 1424.58 1088.97 1428.02 C 1143.84 1442.2 1208.77 1440.17 1258.46 1410.89 z" fill="rgb(193,140,72)" transform="translate(0,0)"></path>
<path d="M 569.015 715.454 C 595.618 724.63 604.361 697.687 625.915 691.362 C 641.081 686.912 656.928 694.385 672.177 693.11 C 683.067 692.2 690.801 685.318 702.057 684.302 C 687.301 710.046 696.885 746.426 659.288 757.265 C 642.871 761.998 628.561 756.939 612.123 755.648 C 581.832 753.58 563.434 778.789 545.239 799.085 C 537.722 807.45 529.804 815.445 521.513 823.042 C 530.979 796.416 541.678 770.244 553.574 744.611 C 574.327 736.962 584.705 728.828 610.41 727.959 C 617.568 727.717 641.191 731.148 643.197 727.525 C 637.564 722.861 611.455 723.782 603.482 724.472 C 585.872 725.995 572.742 730.786 556.917 738.066 C 560.965 729.871 564.234 723.321 569.015 715.454 z" fill="rgb(92,125,104)" transform="translate(0,0)"></path>
<path d="M 1205.61 1298.89 C 1205.95 1301.97 1201.65 1327.27 1200.96 1331.72 C 1196.05 1363.78 1190.97 1395.8 1185.72 1427.8 C 1159.12 1430.6 1140.13 1429.38 1114.24 1426.34 L 1112.03 1425.81 C 1108.95 1421.14 1114.94 1355.14 1115.05 1343.36 C 1154.6 1338.39 1176.36 1323.96 1205.61 1298.89 z" fill="rgb(92,125,104)" transform="translate(0,0)"></path>
<path d="M 703.597 1059.2 L 720.139 1058.84 C 718.731 1063.28 717.306 1069.24 716.077 1073.85 C 708.505 1074.07 703.83 1075.67 698.097 1080.64 C 684.459 1092.47 629.848 1153.42 629.164 1171.11 C 628.956 1176.46 632.326 1181.29 636.01 1184.86 C 641.592 1190.27 648.771 1194.26 655.352 1198.34 C 677.79 1212.24 699.598 1222.7 726.699 1221.88 C 749.2 1221.2 766.3 1209.83 780.952 1193.48 C 785.296 1188.63 789.039 1183.2 793.529 1178.51 L 794.824 1177.17 C 800.287 1182.05 806.183 1186.46 811.984 1190.94 C 809.013 1193.72 806.087 1196.92 803.267 1199.88 C 768.098 1241.9 747.181 1249.82 694.062 1241.88 C 685.702 1223.92 677.711 1223.7 659.928 1228.7 C 633.988 1209.91 585.755 1199 614.405 1155.95 C 632.998 1128.01 671.162 1067.97 703.597 1059.2 z" fill="rgb(231,171,96)" transform="translate(0,0)"></path>
<path d="M 1532.59 684.848 C 1539.59 683.84 1546.15 683.958 1553.21 683.894 C 1540.33 717.701 1538.35 740.344 1549.99 774.744 C 1509.31 763.779 1457.51 754.858 1415.5 745.527 C 1411.08 720.551 1393.1 720.533 1372.46 723.25 C 1372.07 710.882 1374.3 698.921 1381.05 688.411 L 1409.2 688.782 C 1410.77 694.957 1411.44 696.998 1413.84 702.893 C 1414.3 703.697 1414.76 704.501 1415.22 705.305 C 1424.5 715.906 1435.05 714.3 1446.49 708.192 C 1467.37 737.825 1483.48 711.549 1489.58 714.303 C 1517.97 727.112 1528.05 711.63 1532.59 684.848 z" fill="rgb(144,119,89)" transform="translate(0,0)"></path>
<path d="M 1413.84 702.893 C 1414.3 703.697 1414.76 704.501 1415.22 705.305 C 1404.32 706.163 1400.71 706.244 1389.84 704.829 C 1400.85 703.241 1403.25 703.432 1413.84 702.893 z" fill="rgb(62,41,34)" transform="translate(0,0)"></path>
<path d="M 1413.99 725.346 C 1425.32 724.263 1532.8 731.774 1541.53 735.52 C 1529.13 736.865 1426.68 728.787 1413.99 725.346 z" fill="rgb(0,0,0)" transform="translate(0,0)"></path>
<path d="M 1051.27 890.429 L 1054.02 890.286 C 1052.41 898.269 901.401 1083.3 883.454 1104.34 C 876.552 1112.58 869.214 1120.45 861.47 1127.9 L 855.348 1122.13 L 844.048 1111.63 C 855.146 1099.31 866.069 1084.92 876.594 1071.93 L 923.15 1014.59 L 1021.69 893.109 C 1031.55 892.287 1041.41 891.393 1051.27 890.429 z" fill="rgb(144,119,89)" transform="translate(0,0)"></path>
<path d="M 735.491 1778.23 C 747.32 1784.89 759.921 1790.07 773.012 1793.65 C 774.951 1794.17 776.821 1794.73 778.714 1795.4 C 813.191 1804.05 852.944 1808.98 888.422 1803.7 C 891.076 1816.93 896.944 1833.5 900.523 1846.91 C 867.903 1851.42 831.469 1851.2 799.305 1844.73 C 789.911 1842.91 772.12 1837.44 764.154 1832.69 C 754.378 1826.86 739.78 1796.14 737.08 1784.99 L 735.491 1778.23 z" fill="rgb(231,171,96)" transform="translate(0,0)"></path>
<path d="M 735.491 1778.23 C 747.32 1784.89 759.921 1790.07 773.012 1793.65 C 774.951 1794.17 776.821 1794.73 778.714 1795.4 C 779.921 1808.39 796.729 1832.22 799.305 1844.73 C 789.911 1842.91 772.12 1837.44 764.154 1832.69 C 754.378 1826.86 739.78 1796.14 737.08 1784.99 L 735.491 1778.23 z" fill="rgb(144,119,89)" transform="translate(0,0)"></path>
<path d="M 1603.07 671.155 C 1619.3 669.914 1625.47 676.574 1632.33 691.368 C 1644.45 717.49 1642.7 780.431 1611.22 793.017 C 1598.9 793.545 1592.51 790.055 1585.78 778.848 C 1568.8 750.587 1572.35 689.458 1603.07 671.155 z" fill="rgb(121,96,72)" transform="translate(0,0)"></path>
<path d="M 1600.47 689.095 C 1631.21 685.353 1631.98 733.826 1625.72 753.456 C 1621.89 765.481 1620.21 768.612 1609.78 774.75 C 1583.56 776.879 1578.73 741.302 1582.33 722.004 L 1583.16 717.51 C 1585.41 706.049 1590.71 695.742 1600.47 689.095 z" fill="rgb(0,0,0)" transform="translate(0,0)"></path>
<path d="M 888.422 1803.7 C 926.648 1799.5 968.43 1787.3 999.543 1763.48 C 1005.13 1759.2 1010.56 1754.45 1016.02 1749.99 C 1018.7 1752.4 1019.53 1760.48 1019.67 1764.03 C 1021.69 1814.83 939.062 1841.82 900.523 1846.91 C 896.944 1833.5 891.076 1816.93 888.422 1803.7 z" fill="rgb(193,140,72)" transform="translate(0,0)"></path>
<path d="M 782.253 1438.41 C 802.771 1448.34 824.193 1456.29 846.225 1462.15 C 891.193 1473.84 955.328 1471.33 995.941 1447.55 C 994.254 1463.63 995.832 1468.59 979.237 1472.36 C 953.619 1479.1 941.513 1485.83 920.739 1501.57 C 914.563 1496.4 911.283 1494.26 903.424 1491.88 C 886.094 1486.82 867.461 1488.9 851.673 1497.65 C 829.41 1481.18 811.693 1466.38 783.387 1462.42 C 782.43 1453.01 782.001 1447.79 782.253 1438.41 z" fill="rgb(193,140,72)" transform="translate(0,0)"></path>
<path d="M 874.987 1496.41 C 889.895 1495.61 915.321 1495.29 918.199 1514.49 C 919.633 1524.06 918.402 1530.37 918.401 1539.27 C 918.401 1556.56 915.092 1562.07 897.246 1563.84 C 884.252 1565.13 866.603 1565.84 855.565 1557.88 C 849.301 1553.36 851.196 1525.84 851.955 1518.49 C 853.69 1501.69 859.227 1498.16 874.987 1496.41 z" fill="rgb(193,140,72)" transform="translate(0,0)"></path>
<path d="M 620.227 1222.4 C 624.481 1224.34 626.546 1227.09 630.598 1229.84 C 637.545 1234.54 643.693 1237.56 651.376 1240.78 C 651.106 1252.13 649.462 1255.89 657.959 1264.99 C 647.443 1281.14 637.691 1298.06 633.161 1316.98 C 631.944 1321.51 628.994 1318.95 625.53 1316.98 C 615.253 1311.37 603.144 1299.65 600.25 1287.99 C 595.879 1270.37 611.51 1237.64 620.227 1222.4 z" fill="rgb(144,119,89)" transform="translate(0,0)"></path>
<path d="M 624.286 1245.12 C 631.887 1246.7 639.198 1250.94 639.968 1259.99 C 640.716 1268.77 641.249 1276.97 630.635 1277.46 C 623.073 1274.61 616.36 1270.96 613.787 1262.55 C 612.593 1258.54 613.049 1254.22 615.055 1250.55 C 617.066 1246.91 620.666 1246.04 624.286 1245.12 z" fill="rgb(121,96,72)" transform="translate(0,0)"></path>
<path d="M 1580.8 673.332 L 1592.8 672.678 C 1564.08 703.391 1563.92 753.353 1585.56 788.022 C 1582.85 787.782 1579.07 787.155 1576.29 786.775 C 1570.58 785.689 1565.02 784.254 1559.38 782.857 C 1541.45 751.555 1544.46 706.58 1564.74 677.124 C 1571.08 674.726 1574.11 674.402 1580.8 673.332 z" fill="rgb(121,96,72)" transform="translate(0,0)"></path>
<path d="M 748.174 1589.69 C 752.076 1598.01 752.519 1597.87 760.041 1603.15 C 736.404 1627.85 726.796 1657.67 721.227 1690.4 C 714.083 1687.37 698.903 1684.98 694.342 1682.16 C 700.879 1642.05 716.317 1615.15 748.174 1589.69 z" fill="rgb(216,206,188)" transform="translate(0,0)"></path>
<path d="M 859.834 1006.88 C 862.036 1009.24 859.507 1027.66 859.245 1032 C 858.42 1046.87 857.906 1061.75 857.704 1076.64 C 845.685 1073.31 828.437 1069.3 816.172 1067.14 L 802.329 1066.03 C 816.343 1052.74 828.733 1038.98 842.188 1025.19 C 848.087 1019.14 854.317 1013.28 859.834 1006.88 z" fill="rgb(255,255,255)" transform="translate(0,0)"></path>
<path d="M 694.716 1244.2 C 706.98 1250.09 690.69 1264.18 686.546 1271.22 C 671.77 1296.32 658.428 1314.65 658.169 1344.78 C 655.739 1344.21 650.968 1343.18 648.705 1342.41 L 645.183 1341.2 C 626.196 1326.99 654.088 1282.79 664.304 1269.07 C 671.988 1269.34 677.726 1271.63 685.099 1266.24 C 692.761 1260.63 693.304 1252.65 694.716 1244.2 z" fill="rgb(193,140,72)" transform="translate(0,0)"></path>
<path d="M 729.824 1768.45 C 723.82 1764.62 709.952 1756.03 706.357 1750.62 C 696.589 1735.92 691.586 1699.16 694.342 1682.16 C 698.903 1684.98 714.083 1687.37 721.227 1690.4 C 719.62 1711.53 719.135 1729.38 724.848 1750.19 C 726.127 1754.85 727.881 1759.89 728.94 1764.51 L 729.824 1768.45 z" fill="rgb(92,125,104)" transform="translate(0,0)"></path>
<path d="M 1469.22 659.177 C 1475.66 658.921 1491.12 659.1 1486.04 669.993 C 1479.09 684.883 1480.08 692.735 1485.12 707.686 C 1478.69 713.468 1479.3 712.489 1471.8 715.359 C 1447.21 715.23 1445.59 694.254 1452.35 674.198 C 1455.04 666.227 1461.47 662.019 1469.22 659.177 z" fill="rgb(92,125,104)" transform="translate(0,0)"></path>
<path d="M 1505.85 662.202 L 1507.2 662.049 C 1512.57 661.4 1521.58 660.979 1524.2 666.402 C 1530.71 679.862 1525.58 708.018 1509.62 712.345 L 1507.77 712.873 C 1478.66 712.088 1481.73 672.055 1505.85 662.202 z" fill="rgb(92,125,104)" transform="translate(0,0)"></path>
<path d="M 701.047 1755.59 C 712.26 1762.93 716.47 1769.62 730.514 1776.05 C 733.275 1790.83 737.226 1802.89 744.594 1815.96 C 746.372 1819.11 750.859 1825.01 750.364 1828.3 C 728.416 1817.32 706.141 1804.78 700.722 1778.97 C 698.811 1769.86 698.484 1764.49 701.047 1755.59 z" fill="rgb(144,119,89)" transform="translate(0,0)"></path>
<path d="M 1437.8 657.218 C 1441.23 657.252 1451.68 658.351 1450.33 662.497 C 1447.17 672.171 1441.79 681.969 1443.31 693.503 C 1444.78 704.658 1441.2 706.151 1430.41 706.913 C 1423.5 705.206 1417.49 702.572 1416.38 694.406 C 1413.88 676.004 1418.08 661.179 1437.8 657.218 z" fill="rgb(92,125,104)" transform="translate(0,0)"></path>
<path d="M 1448.3 1582.76 C 1456.39 1602.09 1456.86 1629.79 1451.8 1649.99 C 1447.78 1666.01 1442.29 1672.73 1431.08 1683.93 C 1443.23 1653.52 1448.61 1628.68 1438.2 1596.71 C 1438.06 1596.13 1437.93 1595.55 1437.79 1594.98 C 1441.24 1592.32 1444.83 1586.43 1448.3 1582.76 z" fill="rgb(92,125,104)" transform="translate(0,0)"></path>
<path d="M 671.828 1232.12 C 680.523 1231.64 687.988 1238.23 688.597 1246.92 C 689.205 1255.61 682.732 1263.17 674.057 1263.92 C 668.322 1264.41 662.768 1261.77 659.525 1257.02 C 656.281 1252.27 655.851 1246.13 658.4 1240.97 C 660.949 1235.81 666.082 1232.43 671.828 1232.12 z" fill="rgb(231,171,96)" transform="translate(0,0)"></path>
<path d="M 919.128 1562.63 C 923.627 1565.38 927.144 1570.11 931.615 1573.79 C 942.772 1583.01 955.146 1590.76 968.38 1596.66 C 972.144 1598.34 979.461 1600.62 982.866 1602.55 C 984.236 1603.33 981.119 1610.33 980.621 1611.67 C 977.925 1613.4 976.665 1613.53 973.511 1612.08 C 953.245 1602.8 928.081 1583.46 919.128 1562.63 z" fill="rgb(231,171,96)" transform="translate(0,0)"></path>
<path d="M 845.005 1563.94 C 846.005 1564.99 846.022 1565.16 845.053 1566.51 C 835.768 1579.39 800.585 1612.21 785.075 1610.53 C 782.878 1607.02 777.897 1601.01 783.51 1599.25 C 805.896 1592.23 827.547 1579.57 845.005 1563.94 z" fill="rgb(231,171,96)" transform="translate(0,0)"></path>
<path d="M 1364.1 686.069 C 1366.31 686.14 1373.26 686.076 1374.74 687.345 C 1374.84 688.922 1365.08 708.09 1366.11 715 C 1367.08 721.52 1367.51 725.852 1363.96 730.987 C 1358.62 736.345 1356.88 730.143 1355.56 724.21 C 1352.96 712.486 1357.72 696.172 1364.1 686.069 z" fill="rgb(121,96,72)" transform="translate(0,0)"></path>
<path d="M 549.024 1035.36 C 551.139 1035.41 555.417 1034.61 556.05 1036.95 C 556.591 1038.96 555.204 1045.15 553.251 1045.72 C 548.96 1043.52 548.723 1032.28 534.544 1047.55 C 528.642 1053.91 525.582 1063.7 526.431 1072.44 C 526.516 1073.17 527.951 1081.54 526.574 1081.55 C 517.84 1075.55 520.994 1058.37 525.733 1050.94 C 532.031 1041.05 537.792 1037.48 549.024 1035.36 z" fill="rgb(71,101,82)" transform="translate(0,0)"></path>
<path d="M 986.21 1208.57 C 993.841 1210.47 1002.96 1216.56 1008.03 1222.5 C 1012.43 1227.65 1011.23 1233.19 1010.73 1239.66 C 1007.59 1238.41 992.451 1215.22 986.21 1208.57 z" fill="rgb(92,125,104)" transform="translate(0,0)"></path>
<path d="M 642.317 1347.46 C 648.385 1348.62 652.374 1349.26 658.484 1349.88 C 656.749 1354.07 654.879 1358.21 652.878 1362.29 C 651.364 1365.54 643.288 1361.53 640.374 1360.56 C 640.948 1354.97 641.12 1353.09 642.317 1347.46 z" fill="rgb(231,171,96)" transform="translate(0,0)"></path>
<path d="M 1414.52 752.329 C 1426.61 756.463 1422.05 757.597 1413.13 765.268 C 1410.91 766.348 1406.93 764.871 1407.4 763.97 C 1409.46 760.054 1412.23 756.709 1414.52 752.329 z" fill="rgb(255,255,255)" transform="translate(0,0)"></path>
<path d="M 909.972 438.4 C 915.523 439.106 920.638 439.48 926.24 440.544 C 922.489 440.644 922.114 440.34 918.944 442.329 C 916.091 441.279 912.891 439.613 909.972 438.4 z" fill="rgb(71,101,82)" transform="translate(0,0)"></path>
<path d="M 636.587 589.96 L 637.397 588.906 C 638.135 587.921 639.146 586.232 640.525 586.102 C 641.682 586.638 640.082 589.038 639.776 589.737 L 636.587 589.96 z" fill="rgb(50,56,50)" transform="translate(0,0)"></path>
<metadata><recraft-signature>{"signed_by": "recraft", "signature_b64": "nYPIw10e8KrvBXAddElKDeaooAln9EOPHkEfoGyWAWuTlOmlJvwgcJCZjdD1GwfobLxeTutvQGR08bkEUVh6Aw==", "signing_algo": "Ed25519", "generation_timestamp": 1778553094, "identifier": "93cb9a31-6493-42eb-a4d5-0ed269c524fa"}</recraft-signature></metadata></svg>