<svg xmlns="http://www.w3.org/2000/svg" height="1024" preserveAspectRatio="none" style="display: block;" version="1.1" viewBox="0 0 2048 2048" width="1024">

<path d="M 731.365 310.792 C 752.947 131.209 950.685 14.2072 1121.11 51.4236 C 1269.34 83.7929 1363.31 213.613 1329.07 364.786 C 1350.46 369.079 1365.28 372.552 1385.94 380.39 C 1449.42 403.952 1500.84 451.904 1528.77 513.578 C 1552.01 565.357 1557.24 623.427 1543.63 678.526 C 1539.34 695.665 1532.94 711.787 1526.61 728.233 C 1537.99 732.855 1546.3 736.931 1557 742.59 C 1566.47 751.106 1595.72 767.351 1608.34 777.203 C 1621.95 787.823 1636.32 801.71 1649.06 811.359 C 1657.63 819.467 1665.95 827.822 1674.03 836.415 C 1755.73 924.016 1799.54 1031.01 1795.22 1151.4 C 1789.97 1276.71 1735.27 1394.83 1643.1 1479.89 C 1653.84 1484.14 1665.14 1488.53 1675.31 1493.96 C 1728.96 1523.25 1768.95 1572.45 1786.69 1630.94 C 1803.91 1688.91 1799.22 1753.18 1769.89 1806.48 C 1737.44 1866.17 1682.29 1910.25 1616.93 1928.77 C 1557.63 1945.96 1493.94 1938.81 1439.92 1908.91 C 1389.23 1880.4 1353.38 1839.14 1337.83 1782.73 C 1327.68 1796.42 1308.72 1816.54 1296.44 1828.75 C 1193.05 1930.6 1053.28 1986.97 908.156 1985.35 C 768.778 1984.89 632.366 1931.84 539.244 1825.86 C 475.153 1752.92 446.218 1672.19 446.749 1575.37 C 373.259 1573.17 291.236 1528.88 237.72 1480.37 C 169.26 1417.33 128.499 1329.78 124.321 1236.81 C 115.806 1060.87 236.572 916.528 415.214 908.025 C 417.195 899.221 418.978 892.719 422.048 884.199 C 447.776 812.75 496.441 751.833 560.444 710.961 C 576.586 700.844 591.378 694.118 608.559 686.064 C 513.603 592.57 508.9 436.853 621.124 354.091 C 656.439 328.048 688.856 318.154 731.365 310.792 z" fill="rgb(40,126,183)" transform="translate(0,0)"></path>
<path d="M 1041.41 114.916 C 1101.35 110.796 1164.11 123.257 1210.57 163.472 C 1244.89 193.641 1265.93 236.127 1269.12 281.711 C 1273.95 352.299 1238.61 405.339 1176.6 436.563 L 1178.51 438.476 C 1241.75 416.749 1286.67 407.988 1350.77 438.614 C 1401.09 462.658 1439.04 505.246 1457.02 558.148 C 1474.97 612.42 1467.03 670.225 1441.53 720.726 C 1403.18 796.673 1332.69 843.874 1253.92 870.128 C 1166.19 899.367 1069.56 895.26 984.762 932.629 C 977.021 936.04 968.601 941.912 960.959 944.69 C 936.336 963.77 921.852 981.742 917.763 1012.58 C 916.012 1021.08 917.888 1025.34 916.77 1033.13 L 915.298 1036.47 C 829.49 1045.09 764.057 979.994 793.376 894.622 C 832.419 780.94 991.607 767.46 1079.58 706.524 C 1087.94 700.73 1123.34 677.639 1125.66 670.496 L 1117.11 675.56 C 1110.68 680.614 1093.08 690.321 1085.26 694.027 C 982.771 742.615 853.245 771.305 742.933 733.759 C 687.535 714.903 639.314 678.933 613.654 625.969 C 592.243 581.865 589.215 531.066 605.237 484.731 C 611.056 464.239 628.326 437.282 642.59 421.665 C 669.418 391.92 706.996 374.095 747.004 372.137 C 772.886 371.081 807.685 378.345 827.381 396.33 C 818.403 381.312 812.445 364.683 809.842 347.38 C 798.046 265.883 859.98 188.252 926.989 150.315 C 962.332 130.305 995.861 120.904 1035.51 115.397 C 1037.67 115.101 1039.25 115 1041.41 114.916 z" fill="rgb(250,250,250)" transform="translate(0,0)"></path>
<path d="M 1041.41 114.916 C 1101.35 110.796 1164.11 123.257 1210.57 163.472 C 1244.89 193.641 1265.93 236.127 1269.12 281.711 C 1273.95 352.299 1238.61 405.339 1176.6 436.563 L 1178.51 438.476 C 1241.75 416.749 1286.67 407.988 1350.77 438.614 C 1401.09 462.658 1439.04 505.246 1457.02 558.148 C 1474.97 612.42 1467.03 670.225 1441.53 720.726 C 1403.18 796.673 1332.69 843.874 1253.92 870.128 C 1166.19 899.367 1069.56 895.26 984.762 932.629 C 977.021 936.04 968.601 941.912 960.959 944.69 C 983.825 917.195 1065.36 891.777 1100.47 881.483 C 1184.13 856.956 1261.87 825.762 1317.84 755.338 C 1351.07 713.533 1374.69 659.019 1368.88 604.566 C 1360.44 526.788 1295.29 463.646 1220.37 447.403 C 1173.31 437.198 1129.84 454.005 1088.37 420.221 C 1068.27 403.838 1052.65 380.74 1049.99 354.623 C 1047.69 333.727 1053.99 312.792 1067.44 296.636 C 1103.4 252.786 1170.14 256.308 1197.32 307.849 C 1203.39 319.353 1204.26 329.056 1205.17 341.875 C 1206.39 338.01 1207.48 334.109 1208.46 330.178 C 1215.51 301.557 1210.13 273.195 1194.7 248.645 C 1149.72 177.106 1052.51 174.499 986.735 217.801 C 934.008 252.515 909.1 296.635 895.787 356.401 L 893.196 357.355 C 888.326 313.107 896.019 268.382 915.392 228.304 C 937.694 181.196 987.116 135.463 1036.07 118.059 L 1035.51 115.397 C 1037.67 115.101 1039.25 115 1041.41 114.916 z" fill="rgb(138,193,199)" transform="translate(0,0)"></path>
<path d="M 1176.6 436.563 L 1178.51 438.476 C 1176.4 439.189 1170.28 442.211 1168.4 441.723 C 1168.33 441.578 1168.25 441.433 1168.18 441.288 C 1168.32 441.112 1175.91 436.862 1176.6 436.563 z" fill="rgb(109,166,208)" transform="translate(0,0)"></path>
<path d="M 1035.51 115.397 C 1037.67 115.101 1039.25 115 1041.41 114.916 C 1039.03 116.673 1038.85 116.896 1036.07 118.059 L 1035.51 115.397 z" fill="rgb(227,238,242)" transform="translate(0,0)"></path>
<path d="M 1227.1 558.17 C 1218.83 636.644 1173.69 710.893 1112.89 760.176 C 1092.32 777.07 1069.97 791.685 1046.25 803.765 C 1027.91 813.154 1008.24 820.199 989.424 829.523 C 932.377 857.785 857.685 898.647 848.122 968.436 C 842.839 1006.98 866.217 1029.34 903.498 1032.76 C 907.912 1033.13 912.343 1033.26 916.77 1033.13 L 915.298 1036.47 C 829.49 1045.09 764.057 979.994 793.376 894.622 C 832.419 780.94 991.607 767.46 1079.58 706.524 C 1087.94 700.73 1123.34 677.639 1125.66 670.496 L 1126.67 669.522 C 1131.95 664.44 1138.76 659.381 1144.39 654.454 C 1172.97 629.442 1199.79 601.062 1220.14 568.877 C 1222.35 565.382 1224.66 561.554 1227.1 558.17 z" fill="rgb(138,193,199)" transform="translate(0,0)"></path>
<path d="M 605.237 484.731 C 608.366 491.234 609.189 512.081 610.862 520.114 C 651.545 715.441 882.964 761.266 1046.76 701.979 C 1058.3 697.804 1108.72 676.218 1117.11 675.56 C 1110.68 680.614 1093.08 690.321 1085.26 694.027 C 982.771 742.615 853.245 771.305 742.933 733.759 C 687.535 714.903 639.314 678.933 613.654 625.969 C 592.243 581.865 589.215 531.066 605.237 484.731 z" fill="rgb(175,202,231)" transform="translate(0,0)"></path>
<path d="M 893.196 357.355 L 895.787 356.401 C 894.745 361.652 892.576 367.633 893.196 357.355 z" fill="rgb(175,202,231)" transform="translate(0,0)"></path>
<path d="M 986.707 564.897 C 1021.27 569.964 985.363 610.22 971.809 619.973 C 953.771 632.866 931.312 637.976 909.472 634.157 C 885.235 629.98 869.1 616.476 855.191 597.087 C 851.859 591.163 845.886 582.477 847.235 575.415 C 848.438 569.125 854.42 564.721 860.967 566.312 C 869.645 568.341 870.718 578.021 875.248 584.322 C 899.072 617.462 944.266 620.628 969.972 587.688 C 975.548 580.542 978.133 570.038 985.891 565.388 C 986.163 565.224 986.435 565.061 986.707 564.897 z" fill="rgb(40,126,183)" transform="translate(0,0)"></path>
<path d="M 1052.97 474.243 C 1070.93 472.478 1083.56 478.362 1095.52 492.342 C 1103.22 501.34 1118.46 532.426 1104.75 540.854 C 1089.96 549.946 1086.51 525.07 1082.57 516.707 C 1078.33 507.691 1073.55 503.279 1064.06 499.808 C 1059 498.656 1053.14 498.908 1048.57 501.172 C 1035.73 507.238 1033.12 522.207 1029.15 534.59 C 1025.19 546.94 1008.67 544.244 1006.88 533.778 C 1005 522.789 1011.13 507.226 1017.24 497.964 C 1025.97 484.747 1037.53 477.238 1052.97 474.243 z" fill="rgb(40,126,183)" transform="translate(0,0)"></path>
<path d="M 781.352 468.138 C 788.276 467.499 795.369 468.137 802.408 470.718 C 822.926 478.242 845.757 507.458 838.432 529.992 C 837.644 532.417 834.604 535.72 831.89 536.165 C 816.759 538.645 818.119 516.912 811.235 508.435 C 804.482 499.186 803.556 498.474 793.986 493.302 C 777.386 490.041 767.227 500.122 761.952 515.187 C 758.76 525.101 754.919 543.3 740.267 534.111 C 727.856 526.328 739.816 502.175 745.686 493.076 C 754.39 479.587 765.569 471.465 781.352 468.138 z" fill="rgb(40,126,183)" transform="translate(0,0)"></path>
<path d="M 1495.49 779.212 C 1514.12 789.524 1531.4 799.224 1548.97 811.016 C 1706.86 916.998 1762.78 1110.11 1668.28 1279.69 C 1562.9 1468.79 1309.67 1546.72 1119.95 1437.03 C 1055.48 1399.15 1004.62 1345.41 984.277 1271.64 C 967.185 1209.67 973.259 1141.18 1005.31 1084.83 C 1035.39 1030.87 1085.71 991.096 1145.16 974.297 C 1170.5 967.399 1208.9 963.154 1234.22 972.13 C 1295.91 983.875 1352.07 1049.89 1325.07 1114.3 C 1324.86 1114.53 1323.96 1115.91 1323.37 1115.62 C 1323.09 1115.04 1323 1114.21 1322.97 1113.58 C 1322.44 1104.34 1318.89 1095.76 1315.73 1087.24 C 1302.67 1065.27 1287.34 1049.43 1261.82 1042.79 C 1238.02 1036.79 1212.81 1040.49 1191.73 1053.06 C 1170.25 1065.94 1154.87 1086.93 1149.04 1111.28 C 1129.94 1188.65 1193.39 1256.79 1265.54 1273.74 C 1313.65 1284.92 1364.22 1276.67 1406.28 1250.79 C 1450.37 1223.33 1482.16 1181.36 1493.84 1130.52 C 1505.07 1080.15 1495.75 1027.38 1467.95 983.909 C 1439.43 939.615 1411.76 920.662 1366.24 896.475 C 1378.14 888.461 1391.05 881.211 1402.82 873.002 C 1428.79 854.883 1453.85 831.681 1474.85 808.007 C 1477.54 804.152 1480.44 800.454 1483.42 796.818 L 1486.59 792.61 C 1487.82 790.945 1488.46 789.983 1489.82 788.312 L 1495.49 779.212 z" fill="rgb(250,250,250)" transform="translate(0,0)"></path>
<path d="M 1495.49 779.212 C 1514.12 789.524 1531.4 799.224 1548.97 811.016 C 1706.86 916.998 1762.78 1110.11 1668.28 1279.69 C 1562.9 1468.79 1309.67 1546.72 1119.95 1437.03 C 1055.48 1399.15 1004.62 1345.41 984.277 1271.64 C 967.185 1209.67 973.259 1141.18 1005.31 1084.83 C 1035.39 1030.87 1085.71 991.096 1145.16 974.297 C 1170.5 967.399 1208.9 963.154 1234.22 972.13 C 1221.23 974.628 1207.87 974.884 1194.17 977.917 C 1109.55 996.654 1044.09 1059.81 1032.94 1147.48 C 1017.99 1265.02 1105.07 1358.77 1211.86 1391.01 C 1264 1406.75 1318.1 1408.65 1371.1 1396.41 C 1460.5 1375.27 1538.04 1319.93 1587.1 1242.26 C 1667.13 1113.71 1643.11 959.751 1536.01 854.23 C 1525.52 843.895 1514.16 833.126 1501.61 825.395 L 1500.95 824.621 C 1491.54 819.484 1485.36 812.203 1474.85 808.007 C 1477.54 804.152 1480.44 800.454 1483.42 796.818 L 1486.59 792.61 C 1487.82 790.945 1488.46 789.983 1489.82 788.312 L 1495.49 779.212 z" fill="rgb(138,193,199)" transform="translate(0,0)"></path>
<path d="M 1474.85 808.007 C 1477.54 804.152 1480.44 800.454 1483.42 796.818 L 1486.59 792.61 C 1487.82 790.945 1488.46 789.983 1489.82 788.312 C 1493.87 800.63 1497.91 811.893 1500.95 824.621 C 1491.54 819.484 1485.36 812.203 1474.85 808.007 z" fill="rgb(109,166,208)" transform="translate(0,0)"></path>
<path d="M 1474.85 808.007 C 1485.36 812.203 1491.54 819.484 1500.95 824.621 L 1501.61 825.395 C 1502.47 831.396 1503.65 837.287 1504.76 843.225 C 1511.96 881.722 1503.44 921.603 1485.16 955.876 C 1480.72 964.2 1476.15 973.295 1470.41 980.814 C 1469.61 981.864 1468.79 982.896 1467.95 983.909 C 1439.43 939.615 1411.76 920.662 1366.24 896.475 C 1378.14 888.461 1391.05 881.211 1402.82 873.002 C 1428.79 854.883 1453.85 831.681 1474.85 808.007 z" fill="rgb(175,202,231)" transform="translate(0,0)"></path>
<path d="M 1315.73 1087.24 C 1316.47 1086.94 1316.2 1086.98 1316.6 1086.99 C 1320.65 1089.9 1323.6 1109.12 1325.07 1114.3 C 1324.86 1114.53 1323.96 1115.91 1323.37 1115.62 C 1323.09 1115.04 1323 1114.21 1322.97 1113.58 C 1322.44 1104.34 1318.89 1095.76 1315.73 1087.24 z" fill="rgb(227,238,242)" transform="translate(0,0)"></path>
<path d="M 1237.14 1725.27 C 1135.51 1831.57 979.88 1884.5 834.428 1860.84 C 669.534 1834.01 505.845 1698.54 536.283 1515.69 C 551.797 1422.49 629.581 1354.37 726.211 1371.8 C 785.438 1385.8 844.17 1443.22 812.382 1506.54 C 809.962 1464.94 776.83 1433.12 734.49 1436.16 C 714.483 1437.7 695.93 1447.2 682.977 1462.53 C 672.679 1474.51 666.244 1490.35 663.73 1505.87 C 650.189 1589.47 732.811 1659.67 805.833 1680.68 C 848.676 1687.91 869.293 1693.13 915.077 1686.59 C 1002.39 1673.27 1081.08 1626.46 1134.47 1556.1 C 1172.68 1572.15 1197.58 1580 1238.04 1587.29 C 1276.66 1592.68 1288.69 1593.51 1327.95 1593.07 C 1307.19 1635.25 1286.12 1671.33 1254.41 1706.17 C 1250.34 1710.63 1241.24 1721.56 1237.14 1725.27 z" fill="rgb(250,250,250)" transform="translate(0,0)"></path>
<path d="M 1237.14 1725.27 C 1135.51 1831.57 979.88 1884.5 834.428 1860.84 C 669.534 1834.01 505.845 1698.54 536.283 1515.69 C 551.797 1422.49 629.581 1354.37 726.211 1371.8 C 690.261 1370.71 645.638 1391.38 619.912 1415.76 C 589.208 1445.31 571.574 1485.9 570.928 1528.51 C 569.72 1586.03 598.968 1639.87 638.1 1680.09 C 705.548 1749.4 803.907 1790.11 900.423 1790.99 C 966.898 1791.59 1031.53 1772.57 1088.85 1739.34 C 1097.59 1734.28 1114.9 1724.01 1121.94 1717.75 L 1123.04 1717.3 C 1143.98 1720.31 1226.01 1720.54 1237.14 1725.27 z" fill="rgb(138,193,199)" transform="translate(0,0)"></path>
<path d="M 1134.47 1556.1 C 1172.68 1572.15 1197.58 1580 1238.04 1587.29 C 1276.66 1592.68 1288.69 1593.51 1327.95 1593.07 C 1307.19 1635.25 1286.12 1671.33 1254.41 1706.17 C 1250.34 1710.63 1241.24 1721.56 1237.14 1725.27 C 1226.01 1720.54 1143.98 1720.31 1123.04 1717.3 L 1121.94 1717.75 C 1111.21 1715.99 1087.24 1716.13 1075.18 1715.17 C 1020.78 1710.83 845.598 1707.55 805.833 1680.68 C 848.676 1687.91 869.293 1693.13 915.077 1686.59 C 1002.39 1673.27 1081.08 1626.46 1134.47 1556.1 z" fill="rgb(175,202,231)" transform="translate(0,0)"></path>
<path d="M 1238.04 1587.29 C 1276.66 1592.68 1288.69 1593.51 1327.95 1593.07 C 1307.19 1635.25 1286.12 1671.33 1254.41 1706.17 C 1250.34 1710.63 1241.24 1721.56 1237.14 1725.27 C 1226.01 1720.54 1143.98 1720.31 1123.04 1717.3 C 1163.1 1685.96 1191.43 1661.85 1219.42 1617.62 C 1225.4 1608.18 1233.36 1597.41 1238.04 1587.29 z" fill="rgb(109,166,208)" transform="translate(0,0)"></path>
<path d="M 370.112 973.212 C 380.642 968.069 393.847 965.331 405.36 962.573 C 403.915 997.626 404.179 1049.52 415.347 1083.21 C 432.834 1148.71 458.869 1189.58 502.549 1240.28 C 526.856 1264.25 542.447 1277.63 570.673 1297.43 C 591.381 1309.49 603.278 1318.01 626.055 1328.83 C 587.276 1346.81 567.027 1355.09 534.409 1385.9 C 515.402 1402.4 499.925 1422.44 487.261 1444.09 C 315.611 1439.56 173.501 1315.18 217.941 1131.52 C 225.979 1098.3 241.527 1072.92 262.286 1046.16 C 280.526 1021.94 339.643 979.775 370.112 973.212 z" fill="rgb(138,193,199)" transform="translate(0,0)"></path>
<path d="M 370.112 973.212 C 380.642 968.069 393.847 965.331 405.36 962.573 C 403.915 997.626 404.179 1049.52 415.347 1083.21 C 432.834 1148.71 458.869 1189.58 502.549 1240.28 C 526.856 1264.25 542.447 1277.63 570.673 1297.43 C 591.381 1309.49 603.278 1318.01 626.055 1328.83 C 587.276 1346.81 567.027 1355.09 534.409 1385.9 C 520.724 1369.48 507.225 1352.9 493.915 1336.17 C 487.926 1328.77 476.198 1315.28 471.638 1308.11 L 470.738 1308.08 C 462.621 1295.38 441.376 1272.95 431.256 1259.78 C 387.064 1202.42 342.272 1145.53 296.887 1089.11 L 297.327 1087.94 C 284.987 1075.4 276.525 1059.54 262.286 1046.16 C 280.526 1021.94 339.643 979.775 370.112 973.212 z" fill="rgb(175,202,231)" transform="translate(0,0)"></path>
<path d="M 570.673 1297.43 C 591.381 1309.49 603.278 1318.01 626.055 1328.83 C 587.276 1346.81 567.027 1355.09 534.409 1385.9 C 520.724 1369.48 507.225 1352.9 493.915 1336.17 C 487.926 1328.77 476.198 1315.28 471.638 1308.11 C 499.982 1309.89 544.491 1309.23 570.673 1297.43 z" fill="rgb(109,166,208)" transform="translate(0,0)"></path>
<path d="M 415.347 1083.21 C 432.834 1148.71 458.869 1189.58 502.549 1240.28 C 487.984 1238.62 476.039 1235.98 462.938 1229.16 C 437.634 1215.72 418.754 1192.72 410.504 1165.28 C 403.468 1142.64 404.529 1103.62 415.347 1083.21 z" fill="rgb(109,166,208)" transform="translate(0,0)"></path>
<path d="M 262.286 1046.16 C 280.526 1021.94 339.643 979.775 370.112 973.212 C 344.65 998.89 324.378 1023.1 309.238 1056.56 C 304.112 1067.89 301.681 1077.14 297.327 1087.94 C 284.987 1075.4 276.525 1059.54 262.286 1046.16 z" fill="rgb(109,166,208)" transform="translate(0,0)"></path>
<path d="M 296.887 1089.11 C 342.272 1145.53 387.064 1202.42 431.256 1259.78 C 441.376 1272.95 462.621 1295.38 470.738 1308.08 C 354.024 1296.99 268.004 1209.8 296.887 1089.11 z" fill="rgb(250,250,250)" transform="translate(0,0)"></path>
<path d="M 628.964 839.168 C 654.334 841.217 685.168 843.487 707.987 855.322 C 670.941 926.808 700.84 1008.8 771.522 1044.97 C 830.265 1075.03 899.623 1072.69 958.937 1045.35 C 936.759 1073.74 919.117 1114.94 911.218 1150.48 C 903.299 1179.52 902.551 1210.08 903.162 1239.86 C 824.64 1260.32 741.414 1252.37 668.183 1217.42 C 599.107 1185.2 538.44 1129.53 512.643 1056.61 C 492.569 999.861 493.543 921.413 519.441 866.875 C 524.622 865.638 540.788 858.766 546.804 856.579 C 573.705 846.799 599.494 839.751 628.312 839.629 L 628.964 839.168 z" fill="rgb(138,193,199)" transform="translate(0,0)"></path>
<path d="M 628.964 839.168 C 654.334 841.217 685.168 843.487 707.987 855.322 C 670.941 926.808 700.84 1008.8 771.522 1044.97 C 830.265 1075.03 899.623 1072.69 958.937 1045.35 C 936.759 1073.74 919.117 1114.94 911.218 1150.48 C 903.666 1151.9 895.391 1154.62 887.669 1156.35 C 770.074 1182.71 620.183 1125.25 592.786 996.558 C 584.356 955.082 589.652 911.99 607.872 873.79 C 613.173 862.916 621.656 849.873 628.312 839.629 L 628.964 839.168 z" fill="rgb(250,250,250)" transform="translate(0,0)"></path>
<path d="M 1620.13 1498.95 C 1623 1500.21 1625.79 1501.24 1628.72 1502.35 C 1643.9 1507.22 1654.19 1512 1667.44 1521.09 C 1693.99 1532.82 1726.29 1579.22 1736.48 1605.88 C 1790.59 1747.43 1634.35 1902.9 1494.18 1837.13 C 1458.98 1820.62 1424.03 1786.35 1416.42 1746.99 L 1418.19 1747.99 C 1420.52 1749.34 1423.06 1752.42 1425.92 1754.24 C 1433.7 1759.18 1448.53 1764.17 1457.67 1765.63 C 1452 1751.08 1451.84 1743.93 1451.95 1728.58 C 1464.32 1740.75 1490.98 1754.06 1508.09 1747.33 C 1530.86 1757.19 1556.29 1759.06 1580.25 1752.63 C 1612.97 1744.02 1634.78 1726.36 1651.71 1697.63 C 1669.38 1646.16 1655.4 1595.23 1614.96 1558.61 C 1599.73 1544.82 1585.72 1538.37 1567.01 1530.94 C 1588.63 1520.99 1600.67 1512.41 1620.13 1498.95 z" fill="rgb(250,250,250)" transform="translate(0,0)"></path>
<path d="M 1667.44 1521.09 C 1693.99 1532.82 1726.29 1579.22 1736.48 1605.88 C 1790.59 1747.43 1634.35 1902.9 1494.18 1837.13 C 1458.98 1820.62 1424.03 1786.35 1416.42 1746.99 L 1418.19 1747.99 C 1420.52 1749.34 1423.06 1752.42 1425.92 1754.24 C 1433.7 1759.18 1448.53 1764.17 1457.67 1765.63 C 1460.31 1769.62 1462.99 1774.42 1465.95 1778.1 C 1500.84 1820.13 1566.02 1819.28 1613.45 1801.25 C 1715 1762.64 1751.1 1647.08 1694.72 1555.72 C 1686.88 1543.01 1676.58 1532.75 1667.44 1521.09 z" fill="rgb(138,193,199)" transform="translate(0,0)"></path>
<path d="M 1620.13 1498.95 C 1623 1500.21 1625.79 1501.24 1628.72 1502.35 L 1627.21 1503.98 C 1629.59 1509.03 1645.1 1523.79 1650.33 1531.07 C 1677.32 1568.61 1689.99 1616.53 1675.06 1661.4 C 1671.23 1672.9 1661.24 1690.31 1651.71 1697.63 C 1669.38 1646.16 1655.4 1595.23 1614.96 1558.61 C 1599.73 1544.82 1585.72 1538.37 1567.01 1530.94 C 1588.63 1520.99 1600.67 1512.41 1620.13 1498.95 z" fill="rgb(175,202,231)" transform="translate(0,0)"></path>
<path d="M 826.199 1358.95 C 862.377 1359.48 890.679 1352.54 925.186 1344.16 C 935.742 1374.78 957.776 1410.12 977.407 1435.71 C 997.878 1462.52 1019.42 1483.26 1046.19 1503.84 C 1009.43 1563.88 950.063 1606.6 881.461 1622.4 C 836.819 1632.77 770.682 1629.62 733.014 1600.39 C 731.755 1599.9 725.871 1596.39 724.432 1595.57 C 768.628 1604.16 804.042 1591.07 836.144 1560.14 C 860.738 1536.36 874.834 1503.75 875.308 1469.55 C 875.775 1422.8 857.972 1391.1 826.199 1358.95 z" fill="rgb(175,202,231)" transform="translate(0,0)"></path>
<path d="M 977.407 1435.71 C 997.878 1462.52 1019.42 1483.26 1046.19 1503.84 C 1009.43 1563.88 950.063 1606.6 881.461 1622.4 C 836.819 1632.77 770.682 1629.62 733.014 1600.39 C 778.893 1604.33 805.72 1604.16 849.159 1584.03 C 897.974 1561.62 937.663 1523.2 961.648 1475.13 C 967.559 1463.2 972.781 1448.38 977.407 1435.71 z" fill="rgb(109,166,208)" transform="translate(0,0)"></path>
<path d="M 1280.24 929.458 C 1279.76 929.247 1277.35 928.489 1277.72 927.475 C 1278.73 926.606 1285.06 926.91 1286.47 926.902 C 1436.61 929.136 1515.51 1086.37 1405.79 1195.81 C 1375.48 1226.04 1330.18 1245.18 1287.01 1243.88 C 1272.01 1243.57 1257.16 1240.95 1242.96 1236.11 C 1257.09 1235.27 1272.06 1234.63 1285.59 1230.31 C 1436.24 1182.15 1408.9 987.506 1280.24 929.458 z" fill="rgb(138,193,199)" transform="translate(0,0)"></path>
<path d="M 1280.24 929.458 C 1279.76 929.247 1277.35 928.489 1277.72 927.475 C 1278.73 926.606 1285.06 926.91 1286.47 926.902 C 1284.41 927.796 1282.33 928.648 1280.24 929.458 z" fill="rgb(175,202,231)" transform="translate(0,0)"></path>
<path d="M 659.764 735.762 C 684.813 751.076 697.5 756.867 724.855 767.219 C 741.692 772.931 768.889 781.149 786.279 782.481 C 746.479 805.102 732.078 815.682 707.987 855.322 C 685.168 843.487 654.334 841.217 628.964 839.168 L 628.312 839.629 C 599.494 839.751 573.705 846.799 546.804 856.579 C 540.788 858.766 524.622 865.638 519.441 866.875 C 524.081 855.484 533.894 840.338 540.902 830.303 C 573.405 783.757 609.902 759.39 659.764 735.762 z" fill="rgb(109,166,208)" transform="translate(0,0)"></path>
<path d="M 628.964 839.168 C 652.901 806.64 688.215 783.267 724.855 767.219 C 741.692 772.931 768.889 781.149 786.279 782.481 C 746.479 805.102 732.078 815.682 707.987 855.322 C 685.168 843.487 654.334 841.217 628.964 839.168 z" fill="rgb(175,202,231)" transform="translate(0,0)"></path>
<path d="M 1416.42 1746.99 C 1415.06 1742.62 1415.22 1742.32 1414.76 1738.01 C 1412.65 1718.45 1418.25 1698.84 1430.36 1683.34 C 1447.22 1662.15 1479.43 1656.93 1501.89 1673.18 C 1513.49 1681.57 1521.69 1700.55 1510.75 1712.78 C 1501.57 1723.04 1495.81 1723.33 1483.09 1723.92 C 1492.97 1737.71 1494.61 1738.37 1508.09 1747.33 C 1490.98 1754.06 1464.32 1740.75 1451.95 1728.58 C 1451.84 1743.93 1452 1751.08 1457.67 1765.63 C 1448.53 1764.17 1433.7 1759.18 1425.92 1754.24 C 1423.06 1752.42 1420.52 1749.34 1418.19 1747.99 L 1416.42 1746.99 z" fill="rgb(109,166,208)" transform="translate(0,0)"></path>
<path d="M 1451.95 1728.58 C 1456.38 1702.28 1467.53 1693.04 1490.84 1682.91 C 1484.38 1693.96 1477.03 1711.17 1483.09 1723.92 C 1492.97 1737.71 1494.61 1738.37 1508.09 1747.33 C 1490.98 1754.06 1464.32 1740.75 1451.95 1728.58 z" fill="rgb(175,202,231)" transform="translate(0,0)"></path>
<path d="M 1418.43 1581.29 C 1450.27 1579.11 1471.89 1561.96 1502.57 1573.03 C 1525.35 1581.24 1543.95 1590.12 1560.8 1607.93 C 1555.57 1618.38 1552.69 1630.13 1543.52 1637.86 C 1503.35 1601.55 1443.36 1598.23 1401.89 1634.12 C 1408.59 1618.38 1414.58 1597.89 1418.43 1581.29 z" fill="rgb(175,202,231)" transform="translate(0,0)"></path>
<path d="M 1068.03 945.547 L 1069.59 947.305 C 1062.14 949.652 1049.53 957.045 1042.59 961.235 C 985.873 995.508 986.96 1026.37 915.298 1036.47 L 916.77 1033.13 C 917.888 1025.34 916.012 1021.08 917.763 1012.58 C 917.878 1018.13 918.076 1023.67 918.354 1029.21 C 945.882 976.148 1012.75 954.298 1068.03 945.547 z" fill="rgb(175,202,231)" transform="translate(0,0)"></path>
<path d="M 1560.8 1607.93 C 1583.43 1635.26 1590.66 1668.57 1571.55 1699.9 L 1568.75 1697.97 C 1570.41 1674.58 1559.98 1653.97 1543.52 1637.86 C 1552.69 1630.13 1555.57 1618.38 1560.8 1607.93 z" fill="rgb(250,250,250)" transform="translate(0,0)"></path>
<path d="M 1568.75 1697.97 L 1571.55 1699.9 C 1571.55 1699.89 1569.39 1704.72 1568.48 1703.38 C 1567.69 1702.22 1568.54 1699.26 1568.75 1697.97 z" fill="rgb(227,238,242)" transform="translate(0,0)"></path>
<path d="M 1068.03 945.547 C 1072.28 943.505 1075.34 944.756 1069.59 947.305 L 1068.03 945.547 z" fill="rgb(109,166,208)" transform="translate(0,0)"></path>
<path d="M 292.53 1621.34 C 336.199 1617.46 376.849 1646.28 396.209 1683.87 C 415.306 1720.95 417.833 1773.49 405.585 1812.81 C 404.199 1760.39 394.17 1699.06 338.727 1677.89 C 321.713 1672.81 316.162 1672.64 298.333 1674.56 C 315.766 1681.83 329.302 1693.31 332.806 1712.85 C 335.069 1726.22 331.856 1739.94 323.891 1750.92 C 315.49 1762.88 302.49 1770.81 288.009 1772.8 C 223.637 1781.12 192.956 1698.66 233.169 1653.83 C 251.883 1632.97 264.492 1624.67 292.53 1621.34 z" fill="rgb(196,160,99)" transform="translate(0,0)"></path>
<path d="M 1774.96 902.61 C 1789.75 908.125 1815.21 934.79 1826.49 947.499 C 1944.71 1080.76 1937.73 1254.21 1802.03 1372.32 C 1791.58 1381.26 1784.52 1387.25 1772.46 1393.85 C 1782.49 1379.08 1792.86 1364.76 1801.94 1349.38 C 1831.26 1299.72 1848.19 1245.27 1855.78 1188.29 C 1867.74 1102.43 1849.08 1015.1 1803.09 941.624 C 1794.36 927.667 1784.94 915.658 1774.96 902.61 z" fill="rgb(196,160,99)" transform="translate(0,0)"></path>
<path d="M 410.412 485.392 C 425.661 486.2 437.747 491.713 445.09 505.922 C 456.443 527.706 440.313 544.461 431.935 562.955 C 392.499 649.998 399.048 736.605 440.507 820.494 C 436.103 816.826 432.371 813.162 428.26 809.183 C 383.271 761.5 354.038 714.803 345.723 647.106 C 339.872 599.481 350.883 542.165 379.208 502.038 C 386.787 491.302 397.622 486.691 410.412 485.392 z" fill="rgb(196,160,99)" transform="translate(0,0)"></path>
<path d="M 1454.69 339.42 C 1503.83 334.794 1555.51 356.38 1591.98 388.356 C 1631.55 423.002 1655.63 472.025 1658.87 524.52 C 1662.66 587.3 1641.75 637.713 1600.81 684.277 C 1599.22 686.415 1596.8 688.351 1594.77 690.151 C 1600 674.008 1606.26 659.773 1610.32 642.974 C 1645.65 496.889 1566.71 379.274 1424.76 344.107 C 1435.09 341.211 1444.07 340.243 1454.69 339.42 z" fill="rgb(196,160,99)" transform="translate(0,0)"></path>
<path d="M 1557 742.59 C 1608.77 758.639 1674.14 780.074 1726.88 756.891 C 1743.37 749.644 1757.05 727.01 1747.02 709.597 C 1743.9 704.062 1738.66 700.033 1732.51 698.435 C 1728.39 697.385 1725.17 697.613 1722.03 700.701 C 1722.04 703.13 1722.84 703.998 1724.39 705.836 C 1730.21 712.741 1726.21 728.229 1718.61 732.788 C 1712.63 736.374 1705.92 736.941 1699.4 735.249 C 1691.6 733.143 1684.96 728.003 1680.97 720.974 C 1669.37 700.969 1683.19 673.411 1702.16 664.245 C 1731.66 649.993 1768.95 663.787 1782.71 693.108 C 1803.58 737.601 1779.87 787.17 1737.09 807.169 C 1708.05 820.654 1678.86 819.756 1649.06 811.359 C 1636.32 801.71 1621.95 787.823 1608.34 777.203 C 1595.72 767.351 1566.47 751.106 1557 742.59 z" fill="rgb(196,160,99)" transform="translate(0,0)"></path>
<path d="M 224.562 747.3 C 233.387 746.222 246.349 747.392 255.029 749.127 C 310.244 760.163 342.111 789.031 372.987 833.762 C 353.434 825.508 348.01 817.855 321.54 809.7 C 295.755 801.5 259.831 799.787 234.478 809.855 C 223.903 813.843 214.227 818.642 203.233 821.357 C 173.196 828.773 156.253 792.514 174.402 770.529 C 186.764 755.554 205.976 749.813 224.562 747.3 z" fill="rgb(196,160,99)" transform="translate(0,0)"></path>
<path d="M 84.8975 1063.13 C 85.0764 1007.55 107.613 954.376 147.429 915.593 C 186.508 877.548 239.124 856.625 293.657 857.445 C 307.747 857.691 318.546 859.281 332.068 862.669 C 249.542 876.86 175.42 917.757 126.478 986.784 C 108.816 1011.61 95.4817 1039.25 87.0385 1068.53 L 85.9207 1069.71 C 84.6263 1067.57 84.999 1065.92 84.8975 1063.13 z" fill="rgb(196,160,99)" transform="translate(0,0)"></path>
<path d="M 1888.11 1376.27 C 1888.9 1376.32 1889.68 1376.38 1890.47 1376.45 C 1903.8 1377.72 1916 1386.9 1915.58 1401.19 C 1915.11 1417.18 1903.31 1429.52 1891.25 1438.46 C 1861.45 1460.54 1829.52 1464.28 1793.77 1458.81 C 1779.4 1455.93 1773.5 1454.61 1760.11 1448.8 C 1797.96 1441.47 1824.91 1424.42 1853.44 1399.44 C 1862.97 1391.09 1875.7 1378.52 1888.11 1376.27 z" fill="rgb(196,160,99)" transform="translate(0,0)"></path>
<path d="M 547.282 281.317 C 578.003 278.444 593.99 283.664 622.495 292.862 C 550.303 294.079 486.286 326.374 464.354 398.934 C 459.247 418.367 459.451 434.699 462.809 454.187 C 452.981 440.975 448.417 427.195 445.945 411.009 C 435.934 345.443 482.276 289.883 547.282 281.317 z" fill="rgb(196,160,99)" transform="translate(0,0)"></path>
<path d="M 1773.86 1489.91 C 1792.72 1493.29 1811.39 1498.69 1828.73 1506.91 C 1860.19 1521.83 1912.09 1569.56 1885.78 1607.79 C 1879.56 1612.88 1876.61 1613.48 1869.07 1615.33 C 1852.04 1611.51 1848.49 1604.5 1844.23 1588.52 C 1842.24 1581.04 1838.69 1570.28 1835.14 1563.43 C 1825.13 1544.14 1810.85 1526.22 1795.76 1510.68 C 1789.01 1503.79 1781.18 1497.92 1774.58 1490.72 L 1773.86 1489.91 z" fill="rgb(196,160,99)" transform="translate(0,0)"></path>
<path d="M 1303.45 100.022 C 1314.8 102.31 1331.92 111.722 1341.51 118.393 C 1407.42 164.272 1431.47 265.541 1383.5 332.759 C 1378.73 338.462 1375.95 341.306 1370.51 346.407 C 1382.44 320.169 1387.92 291.452 1386.47 262.663 C 1384.23 215.578 1366.64 165.514 1335.22 129.837 C 1324.48 117.65 1315.01 110.555 1303.45 100.022 z" fill="rgb(196,160,99)" transform="translate(0,0)"></path>
<path d="M 1523.31 249.272 C 1542.97 247.893 1569.28 250.428 1580.96 268.795 C 1584.67 274.576 1585.84 281.628 1584.19 288.295 C 1577.08 315.967 1538.69 294.325 1521.92 289.713 C 1495.92 284.833 1478.29 285.159 1455.26 298.281 C 1469.07 272.623 1494.44 253.87 1523.31 249.272 z" fill="rgb(196,160,99)" transform="translate(0,0)"></path>
<path d="M 122.202 1413.72 C 126.343 1426.17 129.005 1435.74 134.758 1447.85 C 156.843 1494.7 195.318 1530.04 240.681 1553.88 C 255.59 1561.72 274.141 1565.95 287.736 1573.65 C 241.124 1574.97 200.214 1567.26 166.643 1531.94 C 137.99 1501.8 121.121 1455.06 122.202 1413.72 z" fill="rgb(196,160,99)" transform="translate(0,0)"></path>
<path d="M 651.625 187.433 C 661.897 185.987 672.148 190.204 678.43 198.458 C 684.712 206.713 686.043 217.717 681.912 227.232 C 677.781 236.746 668.831 243.286 658.511 244.332 C 642.978 245.906 629.042 234.758 627.166 219.259 C 625.291 203.759 636.165 189.61 651.625 187.433 z" fill="rgb(196,160,99)" transform="translate(0,0)"></path>
<path d="M 488.744 627.634 C 500.47 625.634 511.608 633.483 513.67 645.197 C 515.732 656.912 507.943 668.092 496.24 670.217 C 484.448 672.357 473.164 664.497 471.086 652.693 C 469.009 640.889 476.93 629.648 488.744 627.634 z" fill="rgb(196,160,99)" transform="translate(0,0)"></path>
<path d="M 1820.79 832.572 C 1831.75 829.663 1843 836.185 1845.93 847.146 C 1848.85 858.107 1842.35 869.366 1831.39 872.308 C 1820.41 875.257 1809.12 868.735 1806.19 857.75 C 1803.26 846.766 1809.8 835.487 1820.79 832.572 z" fill="rgb(196,160,99)" transform="translate(0,0)"></path>
<metadata><recraft-signature>{"signed_by": "recraft", "signature_b64": "n45117pLaRE/F8h2rDkh7YoEu/uNePh3x7c2Z1FAtDoMl1vythU8PYwTSDkse8cMz6Jjd8pumZNZWt5PaXKzBw==", "signing_algo": "Ed25519", "generation_timestamp": 1778553426, "identifier": "3abb7012-7dc5-4be4-84f9-351c989dd5ee"}</recraft-signature></metadata></svg>