<svg xmlns="http://www.w3.org/2000/svg" height="1024" preserveAspectRatio="none" style="display: block;" version="1.1" viewBox="0 0 2048 2048" width="1024">

<path d="M 1026.93 140.434 C 1077.5 138.548 1223.63 140.286 1254.37 183.534 C 1259.64 190.95 1305.91 324.311 1309.64 339.037 C 1361.97 341.925 1489.97 348.295 1530.5 378.265 C 1536.05 382.369 1541.14 387.997 1541.8 395.164 C 1542.47 402.373 1538.8 409.302 1534.21 414.591 C 1511.72 440.526 1410.28 470.67 1376.33 473.299 C 1369.05 488 1362.39 494.628 1350.06 505.311 C 1354.53 517.749 1358.57 533.58 1362.2 546.544 C 1371.38 544.69 1407.79 537.365 1414.15 540.974 L 1413.8 542.396 C 1409.5 544.036 1394.54 545.294 1388.9 546.055 C 1380.58 547.132 1372.3 548.587 1364.11 550.416 L 1374.9 588.61 C 1383.02 588.333 1418.09 587.439 1422.88 591.441 C 1418.74 593.773 1385.15 592.33 1376.17 592.727 C 1376.93 596.968 1381.6 624.543 1383.94 625.154 C 1426.39 636.251 1447.76 687.477 1443.01 728.131 C 1441.76 738.829 1439.64 748.139 1436.55 759.412 C 1442.96 774.848 1444.57 786.403 1438.11 802.257 C 1462.44 843.584 1467.87 892.531 1423.61 922.353 C 1450.96 987.831 1466.94 1048.43 1484.49 1117.08 L 1528.46 1291.21 C 1535.9 1297.82 1541.83 1303.59 1547.43 1311.88 C 1566.09 1339.49 1576.98 1387.62 1544.68 1409.55 C 1536.62 1441.44 1509.32 1456.7 1483.97 1430.82 C 1474.88 1438.49 1468.82 1441.65 1457.3 1443.78 C 1459.44 1469.18 1454.62 1500.37 1450.39 1525.46 C 1443.22 1568.07 1427.22 1608.29 1411.64 1648.32 C 1444.76 1700.9 1467.17 1730.86 1525.96 1756.6 C 1542.62 1763.96 1559.83 1769.99 1577.43 1774.65 C 1585.24 1776.65 1605.1 1779.62 1610.6 1783.11 C 1649.46 1807.71 1612.95 1831.48 1587.84 1838.53 C 1538.65 1852.35 1493.33 1853.44 1443.88 1852.39 C 1447.23 1859.4 1450.99 1868.13 1451.8 1875.84 C 1452.72 1884.54 1449.97 1893.23 1444.23 1899.83 C 1436.68 1908.66 1425.51 1912.93 1414.17 1913.87 C 1411.43 1916.47 1408.69 1919.05 1405.55 1921.19 C 1375.02 1942.01 1273.92 1923.96 1238.08 1917.06 C 1219.57 1913.55 1201.2 1909.35 1183 1904.49 C 1140.04 1892.87 1101.23 1875.69 1099.81 1825.06 C 1098.96 1794.79 1100.07 1784.04 1082.12 1756.92 C 1073.87 1744.45 1051.72 1722.79 1037.22 1720.8 C 1023.2 1718.88 1010.68 1718.74 995.16 1715.88 C 971.802 1746.34 951.882 1777.52 953.838 1817.04 C 956.298 1866.76 916.12 1888.37 874.441 1900.79 C 828.396 1914.52 785.252 1923.08 737.245 1928.59 C 725.331 1930.52 702.849 1929.8 690.518 1929.21 C 674.358 1928.43 659.692 1927.73 648.351 1915.31 C 576.757 1901.72 610.002 1844.68 653.208 1821.21 C 662.985 1815.91 675.105 1811.95 685.57 1807.89 L 727.047 1791.71 C 714.539 1771.67 702.422 1751.39 690.701 1730.89 C 611.951 1590.62 593.805 1487.15 622.524 1329.05 C 630.428 1285.54 637.743 1245.5 649.899 1202.35 C 506.931 1172.43 503.489 1030.83 402.884 952.606 C 374.477 930.52 350.234 901.883 350.921 863.766 C 351.292 843.163 363.178 833.363 376.851 820.815 C 374.163 800.711 374.263 784.443 381.398 765.033 C 391.092 738.983 410.721 717.84 435.98 706.241 C 461.226 694.687 490.029 693.646 516.043 703.347 C 538.825 712.179 557.098 729.803 566.746 752.252 C 577.022 775.661 577.364 802.237 567.691 825.902 C 555.94 855.017 535.397 871.249 507.269 883.093 C 516.161 886.366 521.911 888.057 529.732 893.612 C 556.905 912.908 574.776 948.932 610.32 954.823 C 628.181 957.783 651.185 950.829 665.55 940.103 C 662.391 937.808 659.295 935.428 656.266 932.964 C 639.039 918.91 629.883 903.142 627.782 880.744 C 625.815 859.778 632.612 833.391 646.312 817.128 C 645.651 814.66 645.041 812.18 644.48 809.688 C 641.567 796.45 642.43 784.619 649.875 772.949 C 643.358 753.315 642.124 732.312 646.298 712.05 C 650.969 689.835 663.553 666.963 682.963 654.424 L 688.845 631.621 C 667.57 628.056 645.955 626.955 624.428 628.341 C 618.305 628.705 601.586 631.258 597.378 630.633 L 597.037 628.894 C 608.513 620.152 673.443 624.092 690.086 627.232 C 692.75 617.184 695.328 607.114 697.821 597.023 C 674.906 589.68 651.341 584.544 627.449 581.687 C 620.39 580.789 607.113 581.757 603.111 578.666 L 603.459 577.567 C 620.699 571.629 680.575 587.351 698.95 592.78 C 702.947 578.464 707.18 564.216 711.647 550.04 C 706.921 548.286 702.325 545.602 697.448 544.333 C 687.503 541.745 661.704 541.551 650.125 540.511 C 611.473 537.038 565.23 531.558 530.355 513.629 C 520.942 508.791 509.845 501.682 506.744 490.955 C 504.972 484.823 506.474 478.745 509.52 473.3 C 528.962 438.547 682.244 392.186 723.576 381.118 C 731.782 328.251 742.42 272.87 753.084 220.295 C 756.508 203.415 791.002 188.099 805.922 182.107 C 875.415 154.195 952.456 143.457 1026.93 140.434 z" fill="rgb(0,0,0)" transform="translate(0,0)"></path>
<path d="M 379.165 892.453 C 371.378 872.946 364.31 854.737 372.12 833.636 C 375.917 823.376 393.565 820.076 401.093 824.902 C 413.952 833.146 414.425 853.003 424.31 866.19 C 419.975 878.089 419.007 885.561 419.333 898.382 C 422.258 889.481 424.213 881.481 428.125 871.272 C 438.075 845.307 467.104 827.278 485.912 856.273 C 491.545 864.958 475.139 897.591 475.684 907.852 C 477.466 907.146 476.683 907.74 477.845 905.846 C 480.018 900.065 482.846 894.184 485.148 888.364 C 488.016 888.093 495.537 886.865 498.001 887.105 C 520.957 889.34 533.753 901.998 548.663 918.319 C 568.761 939.348 586.842 959.873 618.155 960.852 C 634.711 961.37 650.708 955.58 664.738 947.079 L 670.32 942.383 C 709.056 964.62 752.62 978.318 795.608 989.7 C 795.375 995.035 795.03 1010.77 794.109 1015.29 C 789.437 1145.14 785.587 1275.02 782.558 1404.91 C 781.5 1441.02 780.806 1477.1 780.009 1513.21 C 779.689 1517.41 779.556 1522.62 778.461 1526.61 C 775.742 1536.51 769.875 1545.83 766.364 1555.32 C 760.683 1570.67 751.436 1581.86 743.841 1595.97 C 743.599 1596.42 745.663 1601.42 746.432 1601.55 C 752.309 1607.16 762.505 1604.19 769.172 1602.18 C 773.012 1608.12 772.591 1608.26 778.113 1610.87 C 783.096 1613.21 797.647 1603.49 798.165 1604.36 C 802.001 1610.8 806.707 1611.44 814.717 1607.37 C 816.395 1606.51 817.732 1606.23 820.003 1605.78 C 829.156 1609.46 838.366 1613.71 847.593 1616.86 C 848.819 1617.27 859.827 1612.92 859.899 1612.95 C 874.771 1619.5 876.67 1624.42 892.173 1610.78 L 892.618 1610.39 C 907.516 1624.79 912.485 1609.17 920.447 1606.14 C 921.921 1607.17 922.249 1606.8 922.619 1608.49 C 924.473 1616.97 937.197 1624.27 945.538 1622.59 C 950.802 1621.52 952.686 1615.59 957.298 1615.34 C 968.983 1622.91 972.573 1620.53 982.845 1611.53 C 995.931 1610.98 994.584 1615.7 1005.08 1604.73 C 1014.94 1606.86 1014.37 1612.05 1026.5 1607.28 C 1037.99 1614.79 1042.46 1618.57 1052.93 1607.96 C 1064.55 1605.17 1064.97 1621.27 1082.24 1602.56 C 1094.31 1610.71 1099.77 1612.13 1110.66 1601.6 C 1115.95 1599.62 1129.46 1608.52 1134.36 1596.94 C 1135.33 1594.66 1135.09 1589.02 1133.59 1587.61 C 1116.57 1571.65 1115.56 1553.02 1107.23 1531.81 C 1106.86 1531.42 1103.23 1527.37 1103.23 1527.29 C 1102.92 1500.08 1103.82 1472.54 1103.95 1445.32 L 1108.01 1001.17 C 1125.99 1000.61 1157.51 996.31 1175.32 993.701 C 1258.91 981.454 1341.76 963.683 1417.9 926.214 C 1420.78 927.51 1420.41 928.397 1422.28 931.932 C 1457.1 1018.05 1478.15 1114.84 1501.36 1204.73 C 1508.53 1232.5 1515.69 1266.31 1523.76 1293.3 C 1534.34 1303.29 1543.07 1312.09 1549.2 1325.47 C 1560.84 1350.89 1567.33 1381.7 1544.67 1403.02 C 1542.03 1385.32 1537.93 1373.42 1526.66 1358.99 C 1533.45 1378.13 1544.75 1400.93 1535.32 1421.03 C 1531.7 1428.74 1524.87 1435.04 1516.62 1437.51 C 1510.47 1439.36 1503.82 1438.68 1498.16 1435.63 C 1494.17 1433.46 1490.64 1429.63 1487.83 1426.09 C 1499.08 1406.16 1498.34 1387.89 1484.92 1369.19 C 1489.94 1386.71 1494.2 1402.77 1485.08 1419.9 C 1472.52 1443.47 1429.5 1445.31 1422.68 1416.56 C 1419 1401.04 1426.06 1384.76 1420.14 1369.48 C 1410.01 1349.7 1385.45 1336.25 1369.36 1317.53 C 1351.83 1297.02 1336.71 1274.57 1324.29 1250.62 C 1304.87 1214.36 1289.64 1176 1278.89 1136.3 C 1275.72 1124.53 1269.5 1089.81 1265.45 1080.81 C 1263.49 1101.11 1282.16 1164.13 1289.4 1185.16 C 1292.85 1195.16 1301.14 1212.88 1303.7 1221.82 C 1323.74 1259.51 1339.12 1292.28 1368.52 1324.67 C 1382.68 1340.26 1400.3 1350.7 1412.44 1366.51 C 1418.88 1374.91 1417.59 1387.61 1416.4 1397.59 C 1412.31 1424.24 1425.15 1440.85 1452.2 1443.76 C 1453.07 1532.7 1424.83 1611.17 1385.67 1690.5 C 1368.43 1725.42 1347.52 1758.29 1329.35 1792.2 C 1337.14 1797.58 1346.39 1800.5 1354.99 1804.16 C 1383.38 1816.24 1415.89 1822.96 1434.98 1849.57 C 1455.19 1877.74 1449.93 1899.93 1415.47 1909.38 C 1418.62 1892.78 1417.1 1885.2 1408.21 1870.05 C 1402.39 1860.12 1379.88 1842.43 1368.45 1845.51 C 1369.91 1847.48 1378.82 1850.21 1382.58 1852.18 C 1401.58 1862.13 1425.29 1899.44 1402.96 1916.11 C 1390.67 1925.29 1364.34 1925.34 1348.89 1925.13 C 1350.08 1897.02 1341.6 1872.98 1315.42 1859.27 L 1314.08 1859.49 C 1315.1 1862.13 1321.65 1865.84 1324.27 1868.72 C 1339.44 1885.37 1345.65 1903.24 1343.09 1925.16 C 1285.95 1923.8 1202.97 1907.07 1149.49 1887.59 C 1107.14 1872.16 1104.3 1834.13 1104.21 1796.75 C 1104.15 1769.39 1072.38 1731.91 1049.32 1719.24 C 1041.33 1714.6 1020.46 1714.18 1010.71 1713.01 C 1000.17 1711.73 989.705 1709.9 979.359 1707.51 C 965.781 1704.34 951.801 1700.45 938.548 1696.09 C 931.116 1693.64 924.635 1689.77 916.927 1687.78 L 915.483 1688.51 L 916.016 1690.42 C 920.312 1692.27 924.471 1694.43 928.742 1696.39 C 947.337 1704.95 966.892 1709.14 986.356 1714.93 C 987.063 1715.14 987.771 1715.34 988.481 1715.54 C 985.246 1720.01 978.037 1730.68 974.761 1734.17 C 965.513 1749.56 953.426 1771.86 950.09 1789.42 C 944.966 1816.38 954.167 1842.62 931.056 1865.36 C 893.87 1901.95 763.89 1923.49 715.021 1924.15 C 714.494 1903.17 719.43 1883.83 734.921 1868.86 C 739.283 1864.65 744.105 1860.96 748.103 1856.49 C 719.296 1869.51 708.241 1893.46 710.63 1923.97 C 686.894 1923.64 642.767 1927.67 648.804 1891.39 C 653.084 1865.67 671.071 1858.48 689.053 1845.44 C 687.393 1845.16 687.778 1845.03 686.317 1845.43 C 664.281 1851.57 645.507 1870.4 643.041 1893.68 C 642.389 1899.83 643.48 1904.05 645.034 1909.87 C 643.018 1909.35 641.012 1908.78 639.019 1908.18 C 619.584 1902.24 605.546 1888.72 614.721 1867.57 C 634.202 1822.66 693.865 1813 734.37 1794.67 C 729.323 1783.01 712.105 1757.94 704.778 1744.89 C 685.854 1711.18 667.604 1679 653.36 1642.89 C 639.866 1607.78 626.103 1570.6 620.607 1533.07 C 600.058 1392.72 646.54 1253.11 672.706 1116.7 C 677.515 1091.63 687.496 1066.92 692.577 1042.43 L 691.838 1041.53 C 687.59 1045.83 672.944 1097.71 670.147 1107.61 C 669.019 1112.34 667.777 1117.28 666.749 1121.99 L 659.75 1153.49 L 657.788 1162.99 C 656.744 1168.03 655.732 1172.93 654.789 1177.99 C 653.597 1184.36 652.322 1190.72 650.963 1197.06 L 641.519 1194.76 C 629.076 1191.71 611.232 1185.24 600.058 1179.03 C 588.393 1173.4 575.493 1162.9 565.841 1154.57 C 513.529 1109.18 490.203 1042.7 448.601 989.051 C 422.038 954.793 379.83 937.629 363.103 896.337 C 355.749 878.186 353.64 864.485 360.894 845.644 L 363.79 841.799 L 364.715 842.25 C 364.46 844.237 364.23 846.34 363.926 848.308 C 363.936 866.798 367.877 877.627 379.165 892.453 z" fill="rgb(160,131,120)" transform="translate(0,0)"></path>
<path d="M 1108.01 1001.17 C 1125.99 1000.61 1157.51 996.31 1175.32 993.701 C 1258.91 981.454 1341.76 963.683 1417.9 926.214 C 1420.78 927.51 1420.41 928.397 1422.28 931.932 C 1407.69 938.768 1393.65 946.592 1378.83 952.845 C 1321.24 977.139 1257.48 994.202 1195.97 1005.25 C 1178.15 1008.29 1160.28 1010.95 1142.35 1013.24 C 1133.58 1014.36 1120.48 1015.6 1112.18 1017.28 C 1112.79 1122.9 1109.74 1228.47 1109.2 1334.17 L 1108.02 1456.02 C 1107.98 1474.94 1109.01 1514.18 1107.23 1531.81 C 1106.86 1531.42 1103.23 1527.37 1103.23 1527.29 C 1102.92 1500.08 1103.82 1472.54 1103.95 1445.32 L 1108.01 1001.17 z" fill="rgb(137,110,101)" transform="translate(0,0)"></path>
<path d="M 1303.7 1221.82 C 1323.74 1259.51 1339.12 1292.28 1368.52 1324.67 C 1382.68 1340.26 1400.3 1350.7 1412.44 1366.51 C 1418.88 1374.91 1417.59 1387.61 1416.4 1397.59 C 1405.82 1393.16 1385.64 1371.54 1377.53 1362.26 C 1351.27 1332.21 1332 1296.04 1315.82 1259.79 C 1311.28 1249.62 1302.96 1232.72 1303.7 1221.82 z" fill="rgb(137,110,101)" transform="translate(0,0)"></path>
<path d="M 600.058 1179.03 C 608.365 1176.16 614.679 1171.25 622.1 1167.17 C 644.688 1154.76 653.833 1122.12 670.147 1107.61 C 669.019 1112.34 667.777 1117.28 666.749 1121.99 L 659.75 1153.49 L 657.788 1162.99 C 656.744 1168.03 655.732 1172.93 654.789 1177.99 C 653.597 1184.36 652.322 1190.72 650.963 1197.06 L 641.519 1194.76 C 629.076 1191.71 611.232 1185.24 600.058 1179.03 z" fill="rgb(137,110,101)" transform="translate(0,0)"></path>
<path d="M 664.738 947.079 L 670.32 942.383 C 709.056 964.62 752.62 978.318 795.608 989.7 C 795.375 995.035 795.03 1010.77 794.109 1015.29 C 793.556 1010.65 794 1007.24 794.343 1002.61 L 793.387 1002.4 C 768.05 996.819 677.624 967.067 664.738 947.079 z" fill="rgb(137,110,101)" transform="translate(0,0)"></path>
<path d="M 916.016 1690.42 C 920.312 1692.27 924.471 1694.43 928.742 1696.39 C 947.337 1704.95 966.892 1709.14 986.356 1714.93 C 987.063 1715.14 987.771 1715.34 988.481 1715.54 C 985.246 1720.01 978.037 1730.68 974.761 1734.17 C 973.481 1733.28 972.526 1732.48 971 1732.13 C 950.176 1727.27 924.649 1710.68 916.016 1690.42 z" fill="rgb(137,110,101)" transform="translate(0,0)"></path>
<path d="M 485.148 888.364 C 488.016 888.093 495.537 886.865 498.001 887.105 C 520.957 889.34 533.753 901.998 548.663 918.319 C 541.166 917.505 539.805 915.998 533.022 912.175 C 512.95 900.861 500.017 900.417 477.845 905.846 C 480.018 900.065 482.846 894.184 485.148 888.364 z" fill="rgb(137,110,101)" transform="translate(0,0)"></path>
<path d="M 1410.62 1468.28 C 1416.51 1469.14 1423.96 1472.03 1425.46 1478.67 C 1427.37 1490.01 1425.23 1508.05 1421.68 1519.28 C 1415.58 1538.63 1415.88 1569.41 1394.28 1575.99 C 1388.35 1576.25 1380.42 1571.93 1379.24 1565.97 C 1378.6 1559.49 1381.91 1549.14 1384.05 1543.03 C 1390.29 1525.22 1392.73 1507.27 1396.06 1488.84 C 1398.04 1477.86 1398.54 1471.45 1410.62 1468.28 z" fill="rgb(198,187,173)" transform="translate(0,0)"></path>
<path d="M 1425.02 1007.68 C 1435.3 1009.47 1436.59 1014.7 1440.63 1024.22 C 1446.51 1038.1 1450.7 1053.32 1454.13 1067.99 C 1456.16 1076.7 1457.26 1082.12 1449.2 1087.26 C 1445.32 1086.97 1439.27 1086.32 1437.77 1082.12 C 1430.69 1062.33 1426.4 1041.15 1418.15 1021.5 C 1415.63 1015.51 1420.6 1010.51 1425.02 1007.68 z" fill="rgb(198,187,173)" transform="translate(0,0)"></path>
<path d="M 640.111 1409.8 C 655.8 1408.87 656.657 1420.7 653.688 1432.99 C 650.021 1448.18 658.67 1463.81 644.16 1472.77 C 636.171 1473.36 631.773 1470.3 631.084 1462 C 629.77 1446.16 627.49 1420.94 640.111 1409.8 z" fill="rgb(198,187,173)" transform="translate(0,0)"></path>
<path d="M 639.862 1490.69 C 655.323 1492.99 653.9 1501.64 655.878 1515.01 C 657.268 1524.41 658.93 1530.45 650.547 1536.23 C 642.304 1536.26 635.994 1534.69 635.092 1525.49 C 633.572 1510 627.942 1501.64 639.862 1490.69 z" fill="rgb(198,187,173)" transform="translate(0,0)"></path>
<path d="M 1376.8 1600.87 C 1401.36 1602.67 1393.75 1628.08 1378.64 1633.39 L 1376.82 1634.1 C 1351.97 1633.26 1362.97 1608.58 1376.8 1600.87 z" fill="rgb(198,187,173)" transform="translate(0,0)"></path>
<path d="M 1451.17 1107 C 1467.13 1106.89 1465.39 1116.6 1468.98 1130.5 C 1470.15 1135.03 1468.58 1140.58 1465.46 1143.98 L 1464.5 1145.05 C 1452.09 1145.43 1451.07 1142.24 1447.77 1129.78 C 1445.12 1119.82 1443.07 1113.72 1451.17 1107 z" fill="rgb(198,187,173)" transform="translate(0,0)"></path>
<path d="M 1270.83 381.32 C 1267.29 383.577 1265.77 384.106 1263.72 387.586 L 1264.45 388.969 C 1268.44 388.439 1274.77 385.852 1278.39 384.067 C 1327.11 360.108 1382.74 395.487 1376.61 450.712 C 1373.86 475.456 1361.16 489.373 1342.52 504.187 C 1350.15 517.584 1353.19 533.136 1356.82 548.075 C 1347.26 550.427 1301.86 565.829 1298.42 572.386 L 1299.48 574.236 C 1306.49 574.271 1345.37 551.237 1357.83 552.712 L 1358.71 554.654 C 1362.54 561.949 1367.19 580.205 1369.65 588.796 C 1365.54 589.07 1362.21 589.035 1357.99 589.479 C 1346.09 590.837 1311.35 595.335 1303.48 602.84 L 1303.3 603.347 C 1306.43 603.928 1344.97 595.287 1352.28 594.514 C 1358.62 593.523 1363.99 593.239 1370.38 592.848 C 1372.83 604.281 1375.28 617.081 1378.04 628.333 C 1320.66 659.515 1263.67 690.242 1202.22 712.832 C 1190.18 717.257 1171.38 725.084 1159.45 727.88 C 1144.92 731.284 1119.65 731.331 1103.9 731.941 C 1020.33 735.177 933.013 731.25 852.329 707.359 C 824.378 698.968 796.896 689.085 770.003 677.752 C 755.826 671.859 740.154 664.322 726.138 659.038 C 714.915 653.776 702.026 650.234 689.648 651.738 C 691.139 645.515 693.095 638.944 694.827 632.748 C 700.308 633.811 715.269 638.476 718.515 637.724 L 719.308 635.792 C 716.133 631.807 701.677 630.22 695.85 629.171 C 697.955 618.486 700.177 610.193 703.079 599.756 C 707.955 601.962 717.604 607.267 722.337 605.611 C 719.968 600.718 708.974 597.113 703.919 595.061 C 715.503 547.613 742.218 471.415 763.082 426.823 C 815.038 417.947 881.116 412.151 933.878 406.896 C 1045.9 394.875 1158.28 386.346 1270.83 381.32 z" fill="rgb(160,131,120)" transform="translate(0,0)"></path>
<path d="M 1352.28 594.514 C 1358.62 593.523 1363.99 593.239 1370.38 592.848 C 1372.83 604.281 1375.28 617.081 1378.04 628.333 C 1320.66 659.515 1263.67 690.242 1202.22 712.832 C 1190.18 717.257 1171.38 725.084 1159.45 727.88 C 1144.92 731.284 1119.65 731.331 1103.9 731.941 C 1020.33 735.177 933.013 731.25 852.329 707.359 C 824.378 698.968 796.896 689.085 770.003 677.752 C 755.826 671.859 740.154 664.322 726.138 659.038 C 741.303 656.97 809.904 684.664 830.617 690.672 C 932.79 720.304 1055.44 726.953 1159.78 707.297 C 1214.97 696.9 1338.98 656.02 1352.28 594.514 z" fill="rgb(137,110,101)" transform="translate(0,0)"></path>
<path d="M 1358.71 554.654 C 1362.54 561.949 1367.19 580.205 1369.65 588.796 C 1365.54 589.07 1362.21 589.035 1357.99 589.479 C 1358.09 581.175 1357.49 561.655 1358.71 554.654 z" fill="rgb(137,110,101)" transform="translate(0,0)"></path>
<path d="M 981.258 554.408 C 1001.37 553.937 1049.03 559.982 1028.84 593.619 C 1020.22 607.98 1001.48 612.445 985.693 615.158 L 985.605 630.245 C 995.366 644.048 1005.37 651.525 1021.74 656.253 C 1043.82 662.63 1068.99 652.884 1074.95 629.264 L 1075.89 625.644 C 1076.46 623.444 1075.88 624.46 1078.18 622.978 L 1079.92 623.606 C 1083.22 630.231 1075.24 643.394 1070.71 648.25 C 1061.93 657.642 1049.76 663.127 1036.91 663.481 C 1019.14 663.9 1001.75 656.194 989.126 643.835 C 987.299 641.776 984.921 638.59 983.153 636.373 C 954.027 686.748 888.755 653.928 895.026 619.652 L 896.579 619.238 C 900.716 622.784 900.247 634.136 908.006 642.498 C 916.587 651.745 925.809 656.584 938.694 657.229 C 950.2 657.828 961.437 653.619 969.718 645.61 C 979.675 636.029 980.896 627.891 980.938 615.254 C 963.34 614.509 938.436 606.64 936.31 586.104 C 935.68 579.949 937.599 573.804 941.62 569.101 C 951.11 557.867 967.549 555.592 981.258 554.408 z" fill="rgb(0,0,0)" transform="translate(0,0)"></path>
<path d="M 1139.72 493.015 C 1160.71 488.786 1181.14 502.453 1185.24 523.472 C 1189.33 544.491 1175.54 564.829 1154.5 568.798 C 1133.64 572.732 1113.51 559.085 1109.45 538.249 C 1105.39 517.413 1118.91 497.206 1139.72 493.015 z" fill="rgb(0,0,0)" transform="translate(0,0)"></path>
<path d="M 791.183 584.063 C 810.803 579.04 830.756 590.976 835.61 610.639 C 840.463 630.302 828.356 650.151 808.652 654.834 C 789.187 659.461 769.631 647.532 764.836 628.108 C 760.041 608.684 771.801 589.025 791.183 584.063 z" fill="rgb(233,226,213)" transform="translate(0,0)"></path>
<path d="M 1206.46 571.302 C 1226.08 569.77 1243.32 584.213 1245.26 603.798 C 1247.19 623.383 1233.1 640.915 1213.56 643.246 C 1200.56 644.797 1187.73 639.198 1180.03 628.609 C 1172.33 618.02 1170.96 604.095 1176.44 592.206 C 1181.93 580.317 1193.41 572.32 1206.46 571.302 z" fill="rgb(233,226,213)" transform="translate(0,0)"></path>
<path d="M 841.54 500.281 C 860.584 498.082 877.806 511.733 880.013 530.776 C 882.22 549.819 868.577 567.047 849.535 569.262 C 830.481 571.479 813.24 557.825 811.032 538.771 C 808.824 519.716 822.485 502.481 841.54 500.281 z" fill="rgb(0,0,0)" transform="translate(0,0)"></path>
<path d="M 1308.95 406.121 C 1357.14 403.404 1364.97 467.844 1327.08 475.803 C 1322.41 475.642 1316.77 475.738 1312.57 473.407 C 1310.27 472.128 1285.24 429.077 1284.34 425.424 C 1283.76 423.101 1283.95 421.101 1285.21 419.021 C 1289.34 412.21 1301.61 408.028 1308.95 406.121 z" fill="rgb(0,0,0)" transform="translate(0,0)"></path>
<path d="M 1044.24 597.676 C 1045.84 596.004 1048.5 595.953 1050.16 597.562 C 1051.82 599.171 1051.86 601.825 1050.24 603.479 C 1048.64 605.119 1046.01 605.154 1044.36 603.558 C 1042.71 601.962 1042.66 599.334 1044.24 597.676 z" fill="rgb(0,0,0)" transform="translate(0,0)"></path>
<path d="M 941.4 615.706 C 942.785 615.08 944.4 615.259 945.614 616.173 C 946.827 617.087 947.445 618.59 947.225 620.094 C 947.006 621.597 945.983 622.86 944.558 623.389 C 942.459 624.167 940.121 623.143 939.27 621.072 C 938.419 619.002 939.361 616.629 941.4 615.706 z" fill="rgb(0,0,0)" transform="translate(0,0)"></path>
<path d="M 1019.09 616.495 C 1021.04 615.317 1023.57 615.94 1024.76 617.886 C 1025.94 619.833 1025.32 622.369 1023.38 623.555 C 1021.43 624.746 1018.88 624.127 1017.7 622.174 C 1016.51 620.221 1017.14 617.676 1019.09 616.495 z" fill="rgb(0,0,0)" transform="translate(0,0)"></path>
<path d="M 920.781 601.634 C 922.219 601.008 923.888 601.257 925.08 602.275 C 926.273 603.294 926.781 604.903 926.388 606.421 C 925.996 607.939 924.772 609.101 923.236 609.414 C 921.179 609.833 919.137 608.631 918.505 606.629 C 917.874 604.627 918.856 602.471 920.781 601.634 z" fill="rgb(0,0,0)" transform="translate(0,0)"></path>
<path d="M 920.782 625.522 C 922.661 624.506 925.008 625.188 926.049 627.054 C 927.09 628.92 926.438 631.275 924.586 632.34 C 923.366 633.041 921.863 633.032 920.652 632.316 C 919.441 631.6 918.709 630.288 918.736 628.881 C 918.763 627.475 919.545 626.191 920.782 625.522 z" fill="rgb(0,0,0)" transform="translate(0,0)"></path>
<path d="M 1040.93 625.542 C 1042 624.647 1043.48 624.417 1044.77 624.943 C 1046.07 625.468 1046.96 626.665 1047.11 628.053 C 1047.25 629.441 1046.61 630.795 1045.45 631.572 C 1043.79 632.69 1041.54 632.308 1040.33 630.702 C 1039.13 629.096 1039.39 626.829 1040.93 625.542 z" fill="rgb(0,0,0)" transform="translate(0,0)"></path>
<path d="M 972.442 734.788 C 991.109 735.694 1009.53 737.036 1028.39 737.843 C 1018.81 745.103 1007.17 755.324 1000.11 765.551 C 959.915 823.824 958.188 911.793 956.791 980.477 C 956.494 995.061 956.507 1021.45 958.293 1034.15 C 958.929 1034.36 959.427 1034.42 959.871 1034.84 C 961.951 949.783 953.808 786.267 1037.66 737.956 C 1058.42 737.973 1080.11 738.338 1100.75 737.232 C 1030.16 787.668 1025.54 912.855 1018.67 991.37 C 1017.44 1005.51 1014.95 1042.01 1016.6 1054.93 L 1017.62 1055.63 C 1019.83 1050.51 1020.47 1027.56 1020.93 1020.03 C 1021.08 1017.02 1022.11 1001.43 1022.58 999.29 C 1023.45 986.779 1024.58 974.398 1025.34 961.935 C 1026.72 956.203 1026.03 944.826 1027.6 940.263 C 1029.71 943.017 1048.1 941.785 1052.56 941.782 L 1104.01 941.824 C 1103.9 949.345 1103.94 962.256 1103.28 969.137 C 1103.07 979.03 1102.97 988.925 1102.98 998.821 C 1102.97 1007.3 1103.16 1021.19 1102.15 1029.25 C 1102.22 1048.25 1102.8 1085.25 1101.19 1103.34 C 1101.32 1106.41 1101.24 1109.28 1101.2 1112.34 C 1101.13 1130.24 1101.42 1151.01 1100.52 1169.05 C 1100.4 1171.4 1099.43 1172.15 1098.12 1173.57 C 1090.02 1172.54 1086.8 1159.9 1082.01 1159.62 C 1080.81 1162.78 1081.31 1163.35 1082.14 1167.24 C 1077.03 1167.11 1064.46 1166.57 1060.12 1167.99 C 1059.87 1166.77 1059.44 1166.52 1058.62 1165.37 L 1056.81 1165.79 L 1055.91 1168.05 C 1045.88 1192.33 1020.12 1207.86 994.594 1197.7 C 980.789 1192.33 969.726 1181.62 963.895 1168 C 963.383 1166.77 962.871 1165.54 962.36 1164.31 C 961.127 1163.17 961.103 1163.29 959.618 1162.46 L 957.609 1163.87 C 942.295 1195.53 908.241 1208.26 877.62 1186.66 C 867.689 1179.65 863.556 1170.84 858.39 1160.22 L 856.67 1159.94 C 852.474 1157.45 834.391 1158.5 828.26 1158.48 C 830.202 1154.53 830.188 1154.74 830.524 1150.37 C 826.492 1147.8 819.748 1164.87 811.714 1163.95 C 803.483 1163.24 794.957 1161.38 795.263 1151.25 C 796.114 1123.15 796.54 1094.65 797.397 1066.58 C 797.848 1064.53 798.161 1060.82 798.673 1059.23 C 801.28 1058.23 875.889 1058.85 885.026 1058.47 C 885.353 1061.74 885.178 1064.5 887.277 1066.87 C 890.102 1064.08 888.968 1029.34 889.018 1022.02 C 889.503 951.027 890.273 874.631 912.297 806.628 C 923.327 772.57 940.603 750.701 972.442 734.788 z" fill="rgb(124,181,198)" transform="translate(0,0)"></path>
<path d="M 1025.34 961.935 C 1026.72 956.203 1026.03 944.826 1027.6 940.263 C 1029.71 943.017 1048.1 941.785 1052.56 941.782 L 1104.01 941.824 C 1103.9 949.345 1103.94 962.256 1103.28 969.137 C 1103.07 979.03 1102.97 988.925 1102.98 998.821 C 1094.44 999.909 1026.34 1000.87 1022.58 999.29 C 1023.45 986.779 1024.58 974.398 1025.34 961.935 z" fill="rgb(124,181,198)" transform="translate(0,0)"></path>
<path d="M 1025.34 961.935 C 1026.72 956.203 1026.03 944.826 1027.6 940.263 C 1029.71 943.017 1048.1 941.785 1052.56 941.782 L 1104.01 941.824 C 1103.9 949.345 1103.94 962.256 1103.28 969.137 C 1103.21 968.615 1102.79 961.816 1102 961.766 C 1079.95 960.367 1057.21 962.069 1035 961.585 L 1032.99 961.529 L 1031 961.502 C 1028.22 961.452 1027.98 961.279 1025.34 961.935 z" fill="rgb(101,150,166)" transform="translate(0,0)"></path>
<path d="M 858.39 1160.22 C 862.822 1157.83 881.164 1159.55 886.715 1159.97 L 887.646 1160.04 C 893.527 1166.49 898.04 1171.37 907.493 1171.79 C 913.778 1172.13 919.917 1169.82 924.426 1165.43 C 925.607 1164.29 926.916 1162.71 928.133 1161.44 C 935.02 1162.9 954.128 1162.5 957.609 1163.87 C 942.295 1195.53 908.241 1208.26 877.62 1186.66 C 867.689 1179.65 863.556 1170.84 858.39 1160.22 z" fill="rgb(233,226,213)" transform="translate(0,0)"></path>
<path d="M 962.36 1164.31 C 971.011 1164.3 981.03 1164.12 989.668 1163.91 C 996.184 1174.95 1010.14 1179.87 1021.47 1172.96 C 1025.47 1170.52 1026.62 1167.79 1029.85 1165.29 C 1040.14 1168.5 1049.82 1165.96 1055.91 1168.05 C 1045.88 1192.33 1020.12 1207.86 994.594 1197.7 C 980.789 1192.33 969.726 1181.62 963.895 1168 C 963.383 1166.77 962.871 1165.54 962.36 1164.31 z" fill="rgb(233,226,213)" transform="translate(0,0)"></path>
<path d="M 1102.98 998.821 C 1102.97 1007.3 1103.16 1021.19 1102.15 1029.25 C 1102.04 1028.16 1101.61 1021.65 1101.32 1021.15 C 1099.95 1020.67 1028.51 1020.2 1020.93 1020.03 C 1021.08 1017.02 1022.11 1001.43 1022.58 999.29 C 1026.34 1000.87 1094.44 999.909 1102.98 998.821 z" fill="rgb(101,150,166)" transform="translate(0,0)"></path>
<path d="M 1101.2 1112.34 C 1098.18 1112.09 1094.54 1112.1 1092.19 1110.44 C 1075.17 1098.42 1090.26 1078.59 1100.41 1083.34 C 1101.05 1083.64 1100.88 1099.56 1101.19 1103.34 C 1101.32 1106.41 1101.24 1109.28 1101.2 1112.34 z" fill="rgb(233,226,213)" transform="translate(0,0)"></path>
<path d="M 989.668 1163.91 C 988.236 1146.12 995.798 1168.48 1006.38 1170.57 C 1021.81 1173.61 1024.95 1159.03 1029.53 1157.56 C 1032.24 1158.86 1030.58 1163.23 1029.85 1165.29 C 1026.62 1167.79 1025.47 1170.52 1021.47 1172.96 C 1010.14 1179.87 996.184 1174.95 989.668 1163.91 z" fill="rgb(0,0,0)" transform="translate(0,0)"></path>
<path d="M 887.646 1160.04 C 887.085 1157.7 886.287 1146.74 890.437 1152.49 C 893.705 1157.01 892.881 1163.53 902.009 1165.71 C 908.067 1167.87 911.647 1166.86 917.279 1164.71 C 923.362 1162.39 923.617 1155.03 927.909 1153.97 C 930.118 1153.43 928.194 1161.19 928.133 1161.44 C 926.916 1162.71 925.607 1164.29 924.426 1165.43 C 919.917 1169.82 913.778 1172.13 907.493 1171.79 C 898.04 1171.37 893.527 1166.49 887.646 1160.04 z" fill="rgb(0,0,0)" transform="translate(0,0)"></path>
<path d="M 958.293 1034.15 C 958.929 1034.36 959.427 1034.42 959.871 1034.84 C 959.794 1035.42 959.971 1037.09 959.201 1037.19 C 958.414 1036.1 958.437 1035.51 958.293 1034.15 z" fill="rgb(45,68,82)" transform="translate(0,0)"></path>
<path d="M 879.186 1078.3 C 887.275 1075.97 895.716 1080.65 898.03 1088.75 C 900.345 1096.84 895.655 1105.27 887.56 1107.58 C 879.478 1109.88 871.061 1105.2 868.75 1097.12 C 866.44 1089.04 871.11 1080.62 879.186 1078.3 z" fill="rgb(233,226,213)" transform="translate(0,0)"></path>
<path d="M 811.873 1076.1 C 819.818 1073.51 828.364 1077.82 831.003 1085.75 C 833.642 1093.68 829.382 1102.25 821.468 1104.94 C 813.488 1107.65 804.829 1103.34 802.169 1095.35 C 799.508 1087.35 803.862 1078.72 811.873 1076.1 z" fill="rgb(233,226,213)" transform="translate(0,0)"></path>
<path d="M 1024.77 1081.84 C 1032.65 1078.97 1041.37 1083.04 1044.23 1090.93 C 1047.09 1098.82 1043 1107.53 1035.11 1110.38 C 1027.23 1113.22 1018.54 1109.15 1015.69 1101.27 C 1012.83 1093.4 1016.9 1084.7 1024.77 1081.84 z" fill="rgb(233,226,213)" transform="translate(0,0)"></path>
<path d="M 953.206 1079.54 C 958.306 1077.56 964.075 1078.49 968.297 1081.97 C 972.519 1085.44 974.539 1090.93 973.58 1096.31 C 972.62 1101.7 968.832 1106.15 963.669 1107.95 C 955.867 1110.68 947.32 1106.64 944.464 1098.89 C 941.608 1091.13 945.499 1082.52 953.206 1079.54 z" fill="rgb(233,226,213)" transform="translate(0,0)"></path>
<path d="M 746.947 285.794 C 751.433 264.9 754.12 238.119 760.967 218.507 C 762.775 214.924 767.744 209.12 771.078 207.177 C 879.783 143.821 1049.69 138.607 1167.03 154.545 C 1189.27 158.719 1237.2 166.852 1248.46 187.336 C 1255.39 199.949 1268.61 239.279 1273.19 254.155 C 1245.66 249.279 1217.65 244.701 1189.78 242.383 C 1164.57 239.438 1132.86 239.048 1107.47 238.497 C 987.474 235.892 861.643 249.935 746.947 285.794 z" fill="rgb(233,226,213)" transform="translate(0,0)"></path>
<path d="M 1167.03 154.545 C 1189.27 158.719 1237.2 166.852 1248.46 187.336 C 1255.39 199.949 1268.61 239.279 1273.19 254.155 C 1245.66 249.279 1217.65 244.701 1189.78 242.383 C 1191.99 242.101 1194.16 241.746 1196.36 241.406 C 1197.2 235.006 1171.82 163.304 1167.03 154.545 z" fill="rgb(198,187,173)" transform="translate(0,0)"></path>
<path d="M 852.899 1305.8 C 858.784 1311.94 860.141 1318.23 869.974 1325.42 C 881.732 1334.11 896.561 1337.54 910.939 1334.9 C 928.979 1331.41 938.831 1321.01 948.434 1306.75 C 953.024 1314.5 956.308 1319.92 963.48 1325.8 C 974.952 1335.16 989.726 1339.48 1004.44 1337.78 C 1022.47 1335.54 1032.9 1325.14 1043.28 1311.82 C 1057.36 1335.12 1072.73 1342.05 1099.05 1334.56 L 1098.04 1455.66 C 1080.73 1445.65 1075.58 1438.65 1069.05 1420.38 C 1062.24 1439.09 1056.98 1447.81 1039.29 1458.24 L 1038.43 1458.64 C 1024.87 1464.85 1009.37 1465.31 995.472 1459.91 C 977.834 1452.99 967.897 1439.01 960.76 1422.25 C 953.82 1438.85 943.605 1452.74 926.525 1460 C 912.439 1465.88 896.593 1465.93 882.474 1460.13 C 864.153 1452.4 855.972 1439.24 849.064 1421.96 C 833.803 1449.19 818.937 1459.57 786.803 1459.3 C 787.427 1415.29 788.5 1371.3 790.023 1327.32 C 818.475 1337.06 836.034 1329.93 852.899 1305.8 z" fill="rgb(232,139,149)" transform="translate(0,0)"></path>
<path d="M 1051.21 1356.43 C 1062.52 1354.07 1073.64 1361.21 1076.19 1372.48 C 1078.73 1383.75 1071.77 1394.97 1060.55 1397.7 C 1053.12 1399.51 1045.3 1397.17 1040.09 1391.59 C 1034.87 1386 1033.07 1378.04 1035.38 1370.76 C 1037.68 1363.47 1043.74 1358 1051.21 1356.43 z" fill="rgb(233,226,213)" transform="translate(0,0)"></path>
<path d="M 933.226 1361.68 C 944.552 1359 955.892 1366.06 958.492 1377.41 C 961.093 1388.75 953.959 1400.04 942.598 1402.56 C 931.345 1405.06 920.184 1398.01 917.608 1386.78 C 915.032 1375.54 922.008 1364.33 933.226 1361.68 z" fill="rgb(233,226,213)" transform="translate(0,0)"></path>
<path d="M 826.903 1356.26 C 837.879 1354.72 848.083 1362.21 849.903 1373.15 C 851.723 1384.08 844.495 1394.47 833.611 1396.57 C 826.321 1397.97 818.842 1395.31 814.076 1389.62 C 809.31 1383.93 808.007 1376.1 810.672 1369.17 C 813.337 1362.24 819.55 1357.3 826.903 1356.26 z" fill="rgb(233,226,213)" transform="translate(0,0)"></path>
<path d="M 857.319 1170.67 C 883.958 1212.84 930.919 1213.15 959.943 1172.93 C 984.237 1213.09 1031.81 1219.02 1057.69 1177.26 C 1068.22 1196.82 1077.09 1205.75 1099.94 1209.34 L 1099.2 1292.88 C 1099.16 1294.54 1099.1 1296.2 1099.01 1297.86 C 1098.82 1308.35 1099.11 1318.95 1099.18 1329.45 C 1071.12 1337.21 1056.86 1329.88 1045.1 1303.01 C 1043.56 1300.79 1044.58 1301.59 1041.61 1301.03 C 1035.48 1315.65 1028.22 1324.35 1012.89 1330.49 C 990.45 1339.48 961.249 1325.4 953.179 1302.99 C 952.522 1301.16 951.938 1299.28 951.241 1297.42 C 948.336 1297.33 949.236 1296.99 946.804 1298.03 C 933.785 1324.44 912.252 1338.26 882.385 1326.56 C 865.563 1319.98 861.716 1309.87 854.68 1294.9 L 852.417 1294.49 C 843.758 1293.02 831.941 1293.98 822.926 1293.56 C 824.04 1290.1 825.284 1287.58 824.664 1284.06 L 823.287 1283.43 C 813.7 1292.78 807.625 1306.24 793.269 1288.99 C 792.657 1288.25 792.058 1287.5 791.472 1286.74 C 791.944 1256.1 792.751 1225.46 793.893 1194.83 C 821.46 1201.05 840.623 1193.49 857.319 1170.67 z" fill="rgb(232,139,149)" transform="translate(0,0)"></path>
<path d="M 882.269 1294.03 C 892.786 1309.66 907.361 1308.36 920.27 1296.25 C 926.697 1296.92 942.991 1296.86 946.804 1298.03 C 933.785 1324.44 912.252 1338.26 882.385 1326.56 C 865.563 1319.98 861.716 1309.87 854.68 1294.9 C 861.911 1293.71 874.713 1293.97 882.269 1294.03 z" fill="rgb(233,226,213)" transform="translate(0,0)"></path>
<path d="M 951.241 1297.42 C 959.268 1298.44 971.023 1297.95 979.908 1298.46 C 989.934 1313.11 1004.87 1310.74 1016.71 1299.9 C 1025.5 1300.42 1032.74 1300.96 1041.61 1301.03 C 1035.48 1315.65 1028.22 1324.35 1012.89 1330.49 C 990.45 1339.48 961.249 1325.4 953.179 1302.99 C 952.522 1301.16 951.938 1299.28 951.241 1297.42 z" fill="rgb(233,226,213)" transform="translate(0,0)"></path>
<path d="M 1097.46 1297.99 L 1099.01 1297.86 C 1098.82 1308.35 1099.11 1318.95 1099.18 1329.45 C 1071.12 1337.21 1056.86 1329.88 1045.1 1303.01 C 1049.38 1300.84 1053.23 1301.66 1058.02 1301.27 L 1060.05 1301.08 C 1067.19 1306.67 1070.6 1311.61 1081.51 1309.27 C 1089.07 1307.65 1093.34 1304.46 1097.46 1297.99 z" fill="rgb(233,226,213)" transform="translate(0,0)"></path>
<path d="M 882.269 1294.03 C 881.636 1290.65 880.472 1288.21 883.098 1285.71 C 883.965 1285.9 885.456 1286.63 885.522 1287.52 C 886.6 1302.17 910.514 1303.89 915.605 1293.39 C 920.632 1283.03 923.23 1285.82 920.27 1296.25 C 907.361 1308.36 892.786 1309.66 882.269 1294.03 z" fill="rgb(0,0,0)" transform="translate(0,0)"></path>
<path d="M 979.908 1298.46 C 978.75 1294.84 977.52 1293.56 979.051 1290.09 L 980.045 1289.64 C 983.657 1291.11 982.342 1298.18 991.415 1302.29 C 1009.5 1310.49 1012.44 1289.35 1017.52 1290.48 C 1020.02 1293.78 1018.32 1296.58 1016.71 1299.9 C 1004.87 1310.74 989.934 1313.11 979.908 1298.46 z" fill="rgb(0,0,0)" transform="translate(0,0)"></path>
<path d="M 1060.05 1301.08 C 1060.02 1301 1057.55 1289.68 1061.35 1292.6 C 1066.65 1298.62 1064.72 1301.24 1073.45 1304.23 C 1087.8 1309.14 1092.73 1292.87 1095.25 1291.43 C 1095.89 1291.47 1096.77 1292.63 1097.1 1292.99 L 1099.2 1292.88 C 1099.16 1294.54 1099.1 1296.2 1099.01 1297.86 L 1097.46 1297.99 C 1093.34 1304.46 1089.07 1307.65 1081.51 1309.27 C 1070.6 1311.61 1067.19 1306.67 1060.05 1301.08 z" fill="rgb(0,0,0)" transform="translate(0,0)"></path>
<path d="M 1097.1 1292.99 L 1099.2 1292.88 C 1099.16 1294.54 1099.1 1296.2 1099.01 1297.86 L 1097.46 1297.99 C 1097.44 1296.12 1097.54 1294.83 1097.1 1292.99 z" fill="rgb(102,99,98)" transform="translate(0,0)"></path>
<path d="M 845.233 1217.65 C 853.892 1217.04 861.413 1223.55 862.04 1232.21 C 862.667 1240.87 856.163 1248.4 847.506 1249.04 C 838.833 1249.68 831.286 1243.16 830.658 1234.48 C 830.029 1225.81 836.558 1218.27 845.233 1217.65 z" fill="rgb(233,226,213)" transform="translate(0,0)"></path>
<path d="M 1045.68 1227.48 C 1051.01 1225.73 1056.88 1227.01 1061 1230.82 C 1065.11 1234.64 1066.83 1240.4 1065.48 1245.85 C 1064.14 1251.3 1059.93 1255.58 1054.51 1257.04 C 1046.44 1259.21 1038.11 1254.56 1035.72 1246.56 C 1033.33 1238.55 1037.74 1230.09 1045.68 1227.48 z" fill="rgb(233,226,213)" transform="translate(0,0)"></path>
<path d="M 947.542 1223.7 C 955.684 1221.56 964.028 1226.39 966.227 1234.51 C 968.427 1242.64 963.658 1251.02 955.548 1253.27 C 947.357 1255.55 938.875 1250.73 936.653 1242.52 C 934.431 1234.31 939.319 1225.86 947.542 1223.7 z" fill="rgb(233,226,213)" transform="translate(0,0)"></path>
<path d="M 1065.86 339.453 C 1087.25 338.508 1112.13 338.835 1133.59 338.908 C 1185.72 338.928 1237.84 340.531 1289.87 343.717 C 1362.66 347.813 1444.41 350.454 1513.45 375.717 C 1528.78 381.328 1540.93 389.214 1532.11 405.823 L 1530.63 406.241 C 1526.86 404.938 1525.28 399.146 1522.58 397.371 C 1516.06 393.257 1507.12 390.433 1499.61 388.707 C 1448.62 376.989 1395.41 375.802 1343.3 375.571 C 1333.83 375.519 1321.08 370.371 1311.81 371.056 C 1295.44 372.267 1280.89 375.739 1264.18 376.359 C 1146.94 381.359 1029.9 390.212 913.238 402.901 C 906.641 403.304 899.021 404.199 892.415 405.009 C 849.794 410.234 805.478 413.73 763.279 421.033 C 743.261 412.432 718.75 411.765 699.495 423.036 C 693.477 426.559 685.915 433.518 679.128 435.159 C 639.856 444.717 599.392 450.968 561.729 466.34 C 544.85 473.229 522.535 482.167 524.759 503.847 C 492.177 474.668 532.71 460.667 555.733 448.01 C 563.576 443.698 573.346 439.434 581.578 435.954 C 734.287 371.407 901.064 345.905 1065.86 339.453 z" fill="rgb(233,226,213)" transform="translate(0,0)"></path>
<path d="M 1408.98 1654.77 C 1456.45 1723.75 1476.22 1748.14 1562.59 1776.28 C 1573.52 1781.17 1602.43 1783.4 1610.86 1790.03 C 1654.05 1824.01 1560.4 1839.47 1545.97 1841.8 C 1511.29 1847.63 1475.39 1847.17 1440.39 1846.98 C 1406.06 1810.24 1380.16 1810.5 1336.07 1790.49 C 1361.93 1746.1 1387.24 1701.34 1408.98 1654.77 z" fill="rgb(137,110,101)" transform="translate(0,0)"></path>
<path d="M 1465.85 1749.01 C 1476.93 1750.22 1510.24 1763.7 1488.95 1776.57 C 1476.01 1775.26 1442.51 1760.81 1465.85 1749.01 z" fill="rgb(198,187,173)" transform="translate(0,0)"></path>
<path d="M 1424.8 1713.9 L 1426.44 1714.39 C 1433.54 1716.46 1451.31 1728.91 1448.76 1737.99 C 1448.02 1740.69 1446.17 1742.96 1443.67 1744.22 C 1443.43 1744.34 1443.19 1744.45 1442.94 1744.56 L 1441.52 1745.27 C 1424.08 1744.06 1407.04 1726.7 1424.8 1713.9 z" fill="rgb(198,187,173)" transform="translate(0,0)"></path>
<path d="M 382.032 818.296 C 379.366 779.071 388.801 746.233 422.159 721.498 C 445.674 704.062 472.33 700.262 500.914 704.761 L 504.534 705.765 C 533.211 713.643 557.178 737.281 565.217 765.961 C 573.995 801.44 562.619 837.461 533.993 860.798 C 519.333 872.748 507.149 876.921 489.235 881.795 C 491.667 870.945 493.162 866.641 491.027 855.556 C 482.252 833.937 456.554 831.795 440 845.361 C 433.313 850.841 431.155 853.909 426.062 860.865 C 415.446 837.632 415.761 812.638 382.032 818.296 z" fill="rgb(233,226,213)" transform="translate(0,0)"></path>
<path d="M 550.3 773.471 C 557.231 770.533 558.638 770.47 565.217 765.961 C 573.995 801.44 562.619 837.461 533.993 860.798 C 519.333 872.748 507.149 876.921 489.235 881.795 C 491.667 870.945 493.162 866.641 491.027 855.556 C 519.143 844.398 549.507 805.446 551.872 775.007 L 550.3 773.471 z" fill="rgb(198,187,173)" transform="translate(0,0)"></path>
<path d="M 500.914 704.761 L 504.534 705.765 C 533.211 713.643 557.178 737.281 565.217 765.961 C 558.638 770.47 557.231 770.533 550.3 773.471 C 505.72 780.176 484.748 744.638 500.914 704.761 z" fill="rgb(45,50,85)" transform="translate(0,0)"></path>
<path d="M 429.714 749.132 C 464.959 748.214 463.753 792.633 432.826 804.91 C 428.482 805.147 424.034 805.736 420.014 803.861 C 405.312 797.007 402.332 778.103 409.224 764.592 C 413.927 755.373 420.182 751.807 429.714 749.132 z" fill="rgb(45,50,85)" transform="translate(0,0)"></path>
<path d="M 477.136 795.131 C 482.243 794.872 489.772 794.352 494.374 796.459 C 513.966 805.429 508.781 823.893 491.343 830.97 C 463.7 837.084 448.765 807.271 477.136 795.131 z" fill="rgb(45,50,85)" transform="translate(0,0)"></path>
<path d="M 1227.4 708.983 C 1228.82 710.167 1230.21 711.396 1231.56 712.666 C 1268.92 747.12 1261.99 804.084 1264.89 850.774 C 1266.36 874.571 1268.05 899.833 1269.05 923.527 L 1269.73 971.264 L 1247.01 976.19 C 1238.37 978.006 1229.7 979.668 1221.01 981.175 C 1212.07 982.769 1203.11 984.215 1194.12 985.512 C 1193.95 969.84 1194.09 954.197 1193.82 938.529 C 1193.01 913.247 1192.7 887.95 1192.88 862.655 C 1193.08 819.616 1199.51 763.967 1167.63 730.782 C 1187.64 724.294 1207.77 716.529 1227.4 708.983 z" fill="rgb(124,181,198)" transform="translate(0,0)"></path>
<path d="M 1193.82 938.529 C 1202.43 936.078 1214.03 934.66 1223.01 933.162 L 1240.01 930.16 C 1244.87 929.302 1249.71 928.334 1254.52 927.255 C 1259.42 926.166 1264.29 925.139 1269.05 923.527 L 1269.73 971.264 L 1247.01 976.19 C 1238.37 978.006 1229.7 979.668 1221.01 981.175 C 1212.07 982.769 1203.11 984.215 1194.12 985.512 C 1193.95 969.84 1194.09 954.197 1193.82 938.529 z" fill="rgb(101,150,166)" transform="translate(0,0)"></path>
<path d="M 738.779 670.653 C 759.216 679.038 783.593 688.061 803.377 696.9 C 746.445 739.818 757.727 788.746 752.739 851.677 C 750.841 875.613 745.328 900.297 743.128 924.695 C 742.809 939.341 742.821 954.167 742.41 968.738 C 720.368 960.456 701.75 954.19 680.607 942.704 L 679.07 941.883 C 678.727 928.23 678.127 917.974 679.484 904.182 L 679.654 902.273 C 681.826 887.1 686.06 868.919 689.289 853.736 C 690.935 845.324 692.563 837.626 693.446 829.033 C 695.808 817.762 692.197 794.008 691.685 781.271 C 690.952 763.078 691.37 754.024 694.7 735.983 C 697.517 727.016 700.297 720.363 704.043 711.847 C 714.428 693.242 721.623 683.4 738.779 670.653 z" fill="rgb(124,181,198)" transform="translate(0,0)"></path>
<path d="M 679.654 902.273 C 696.07 906.439 726.722 921.362 743.128 924.695 C 742.809 939.341 742.821 954.167 742.41 968.738 C 720.368 960.456 701.75 954.19 680.607 942.704 L 679.07 941.883 C 678.727 928.23 678.127 917.974 679.484 904.182 L 679.654 902.273 z" fill="rgb(101,150,166)" transform="translate(0,0)"></path>
<path d="M 704.043 711.847 L 705.796 712.523 C 714.903 715.856 723.498 721.17 732.174 725.464 C 739.616 729.146 745.563 737.237 740.897 745.454 C 729.961 764.713 706.214 744.09 694.7 735.983 C 697.517 727.016 700.297 720.363 704.043 711.847 z" fill="rgb(174,205,216)" transform="translate(0,0)"></path>
<path d="M 693.446 829.033 C 706.649 831.97 744.906 841.977 720.616 861.224 C 713.897 866.548 695.675 857.315 689.289 853.736 C 690.935 845.324 692.563 837.626 693.446 829.033 z" fill="rgb(174,205,216)" transform="translate(0,0)"></path>
<path d="M 1287.45 681.631 C 1342.21 721.116 1331.77 772.066 1333.79 831.559 C 1334.11 840.401 1334.83 848.81 1335.18 857.671 C 1336.7 873.039 1337.99 888.427 1339.06 903.833 L 1340 952.152 C 1318.65 957.866 1298.29 964.845 1276.23 969.378 L 1274.63 969.718 C 1274.8 953.175 1274.24 938.921 1274.07 922.761 L 1267.9 799.089 C 1265.93 761.993 1260.8 732.513 1232.41 706.93 C 1250.91 698.844 1269.26 690.41 1287.45 681.631 z" fill="rgb(124,181,198)" transform="translate(0,0)"></path>
<path d="M 1274.07 922.761 C 1289.24 919.739 1322.13 908.659 1339.06 903.833 L 1340 952.152 C 1318.65 957.866 1298.29 964.845 1276.23 969.378 L 1274.63 969.718 C 1274.8 953.175 1274.24 938.921 1274.07 922.761 z" fill="rgb(101,150,166)" transform="translate(0,0)"></path>
<path d="M 1335.18 857.671 C 1326.49 858.617 1317.62 862.058 1314.09 850.991 C 1309.98 838.127 1323.61 833.34 1333.79 831.559 C 1334.11 840.401 1334.83 848.81 1335.18 857.671 z" fill="rgb(174,205,216)" transform="translate(0,0)"></path>
<path d="M 747.953 927.476 C 749.241 903.837 754.126 881.819 756.879 858.188 C 760.911 823.576 756.365 786.816 766.698 753.482 C 773.244 732.367 790.114 709.086 810.091 699.009 C 841.042 709.859 860.101 715.738 892.147 722.707 L 888.32 725.147 C 839.077 757.065 822.906 814.083 811.521 868.008 C 809.805 874.815 808.781 881.178 807.524 888.039 C 804.984 904.968 802.103 922.854 800.635 939.848 C 798.153 953.663 797.675 970.815 796.251 984.991 C 779.105 980.111 763.674 975.098 747.022 970.201 C 747.026 955.335 747.667 942.077 747.953 927.476 z" fill="rgb(124,181,198)" transform="translate(0,0)"></path>
<path d="M 747.953 927.476 C 756.815 929.233 766.212 932.302 775.021 934.721 L 787.017 937.762 C 791.068 938.749 796.569 940.275 800.635 939.848 C 798.153 953.663 797.675 970.815 796.251 984.991 C 779.105 980.111 763.674 975.098 747.022 970.201 C 747.026 955.335 747.667 942.077 747.953 927.476 z" fill="rgb(101,150,166)" transform="translate(0,0)"></path>
<path d="M 807.524 888.039 C 796.328 887.922 760.87 890.339 764.014 871.498 C 766.144 858.735 788.405 862.467 797.468 864.32 C 802.227 865.245 806.921 866.477 811.521 868.008 C 809.805 874.815 808.781 881.178 807.524 888.039 z" fill="rgb(174,205,216)" transform="translate(0,0)"></path>
<path d="M 1338.5 656.156 C 1359.04 666.156 1370.11 675.695 1382.54 694.632 C 1388.68 705.538 1389.14 707.871 1393.49 718.811 C 1401.19 756.61 1393.86 776.053 1394.23 812.91 C 1394.41 831.389 1402.07 857.027 1404.58 876.212 C 1406.74 884.495 1405.75 912.286 1404.36 921.212 C 1404.02 923.457 1403.72 925.707 1403.44 927.959 C 1383.12 936.639 1365.77 943.406 1344.86 950.625 C 1344.91 933.45 1344.42 919.747 1344.01 902.922 L 1340.03 855.484 C 1339.34 846.166 1338.85 839.358 1338.61 829.829 C 1338.03 825.229 1338.21 815.575 1338.21 810.756 C 1338.24 757.192 1340.14 714.007 1292.43 679.265 L 1338.5 656.156 z" fill="rgb(124,181,198)" transform="translate(0,0)"></path>
<path d="M 1404.58 876.212 C 1406.74 884.495 1405.75 912.286 1404.36 921.212 C 1404.02 923.457 1403.72 925.707 1403.44 927.959 C 1383.12 936.639 1365.77 943.406 1344.86 950.625 C 1344.91 933.45 1344.42 919.747 1344.01 902.922 C 1350.66 899.862 1361.2 896.432 1368.4 893.69 C 1379.21 889.515 1389.8 884.791 1400.13 879.537 C 1402.49 878.363 1403.18 878.305 1404.58 876.212 z" fill="rgb(101,150,166)" transform="translate(0,0)"></path>
<path d="M 1382.54 694.632 C 1388.68 705.538 1389.14 707.871 1393.49 718.811 C 1391 720.316 1388.45 721.724 1385.85 723.031 C 1377.37 727.375 1349.9 742.524 1344.63 728.143 C 1337.9 709.798 1369.03 699.502 1381.57 694.988 L 1382.54 694.632 z" fill="rgb(174,205,216)" transform="translate(0,0)"></path>
<path d="M 1338.61 829.829 C 1341.86 823.032 1360.53 827.977 1362.06 837.504 C 1364.3 851.524 1350.35 854.13 1340.03 855.484 C 1339.34 846.166 1338.85 839.358 1338.61 829.829 z" fill="rgb(174,205,216)" transform="translate(0,0)"></path>
<path d="M 1169.53 740.279 C 1198.79 779.801 1184.95 845.001 1187.92 892.268 C 1188.37 899.32 1188.46 911.115 1188.13 917.959 C 1189.89 929.264 1188.95 973.378 1188.92 986.667 C 1162 990.375 1135.01 993.619 1107.98 996.397 C 1107.77 920.989 1109.14 813.776 1158.6 753.323 C 1162.23 748.827 1165.63 744.559 1169.53 740.279 z" fill="rgb(124,181,198)" transform="translate(0,0)"></path>
<path d="M 1158.6 753.323 C 1159.2 754.955 1160.05 757.082 1159.61 758.865 C 1155.67 774.872 1148.41 791.367 1145.67 807.598 C 1137.99 853.141 1131.36 899.986 1131.92 946.231 C 1151.25 944.748 1168.79 941.647 1187.82 939.358 C 1187.76 933.036 1187.4 923.975 1188.13 917.959 C 1189.89 929.264 1188.95 973.378 1188.92 986.667 C 1162 990.375 1135.01 993.619 1107.98 996.397 C 1107.77 920.989 1109.14 813.776 1158.6 753.323 z" fill="rgb(101,150,166)" transform="translate(0,0)"></path>
<path d="M 846.499 1470.74 C 848.956 1473.59 852.189 1477.42 854.922 1479.92 C 869.043 1492.85 887.696 1499.68 906.826 1498.93 C 928.024 1498.05 942.537 1489.11 956.457 1473.87 C 959.601 1477.99 963.23 1481.72 967.265 1484.97 C 982.522 1497.31 1002.1 1502.98 1021.59 1500.71 C 1042.05 1498.47 1057.31 1488.19 1069.91 1472.38 C 1078.6 1481.96 1086.21 1485.98 1097.72 1491.22 C 1097.63 1499.33 1099.79 1520.94 1095.46 1526.08 L 1091.25 1526.26 C 988.95 1529.24 887.157 1526.23 784.971 1524.92 C 784.91 1514.09 785.27 1504.42 785.767 1493.63 C 813.259 1495.57 827.478 1491.83 846.499 1470.74 z" fill="rgb(124,181,198)" transform="translate(0,0)"></path>
<path d="M 806.718 929.002 C 821.479 929.038 836.24 929.15 851 929.337 C 857.592 929.476 882.02 930.415 886.939 929.466 C 886.472 935.906 886.073 943.9 885.382 950.076 C 884.794 959.164 884.318 973.13 884.267 982.185 C 884.136 989.413 883.931 996.713 884.154 1003.94 C 884.232 1007.67 884.372 1011.2 884.148 1014.94 C 885.105 1023.49 885.178 1048.92 885.026 1058.47 C 875.889 1058.85 801.28 1058.23 798.673 1059.23 C 798.161 1060.82 797.848 1064.53 797.397 1066.58 C 797.113 1057.64 797.547 1037.36 798.871 1028.63 C 798.586 1019.87 799.472 1011.61 799.922 1003 C 800.122 1000.03 801.246 981.547 801.62 980.342 C 802.38 970.184 803.172 959.556 804.504 949.474 C 805.459 942.757 805.882 935.771 806.718 929.002 z" fill="rgb(124,181,198)" transform="translate(0,0)"></path>
<path d="M 806.718 929.002 C 821.479 929.038 836.24 929.15 851 929.337 C 857.592 929.476 882.02 930.415 886.939 929.466 C 886.472 935.906 886.073 943.9 885.382 950.076 C 884.794 959.164 884.318 973.13 884.267 982.185 C 859.862 982.632 828.41 983.302 803.32 982.577 C 802.509 982.554 801.886 980.898 801.62 980.342 C 802.38 970.184 803.172 959.556 804.504 949.474 C 805.459 942.757 805.882 935.771 806.718 929.002 z" fill="rgb(124,181,198)" transform="translate(0,0)"></path>
<path d="M 806.718 929.002 C 821.479 929.038 836.24 929.15 851 929.337 C 857.592 929.476 882.02 930.415 886.939 929.466 C 886.472 935.906 886.073 943.9 885.382 950.076 C 863.912 949.477 825.292 948.737 804.504 949.474 C 805.459 942.757 805.882 935.771 806.718 929.002 z" fill="rgb(101,150,166)" transform="translate(0,0)"></path>
<path d="M 801.62 980.342 C 801.886 980.898 802.509 982.554 803.32 982.577 C 828.41 983.302 859.862 982.632 884.267 982.185 C 884.136 989.413 883.931 996.713 884.154 1003.94 C 859.954 1002.29 824.846 1002.94 799.922 1003 C 800.122 1000.03 801.246 981.547 801.62 980.342 z" fill="rgb(101,150,166)" transform="translate(0,0)"></path>
<path d="M 884.148 1014.94 C 885.105 1023.49 885.178 1048.92 885.026 1058.47 C 875.889 1058.85 801.28 1058.23 798.673 1059.23 C 798.161 1060.82 797.848 1064.53 797.397 1066.58 C 797.113 1057.64 797.547 1037.36 798.871 1028.63 C 799.015 1030.34 799.163 1038.29 799.617 1039 C 802.826 1040.32 875.344 1039.79 883.77 1039.67 C 883.71 1032.06 883.35 1022.33 884.148 1014.94 z" fill="rgb(101,150,166)" transform="translate(0,0)"></path>
<path d="M 1418.71 656.294 C 1426.7 667.006 1428.69 672.539 1433.62 684.32 C 1443.07 717.104 1439.2 745.73 1423.23 776.291 C 1420.39 781.724 1410.96 793.031 1410.43 797.504 L 1411.91 797.852 C 1421.36 791.756 1429.68 774.671 1433.94 764.545 C 1441.48 795.231 1432.05 808.694 1409.95 828.247 C 1421.97 823.298 1427.67 818.726 1434.92 807.406 C 1442.74 821.368 1447.19 831.182 1450.55 846.933 C 1455.06 885.299 1442.15 906.604 1409.14 924.798 C 1411.62 907.312 1411.6 892.816 1409.73 875.249 C 1406.73 856.589 1399.76 830.849 1399.08 813.332 C 1397.7 777.425 1408.14 750.808 1396.64 714.401 C 1393.12 704.38 1388.98 696.831 1384 687.581 C 1385.59 685.952 1387.26 684.395 1389 682.916 C 1397.87 675.448 1410.27 662.357 1418.71 656.294 z" fill="rgb(124,181,198)" transform="translate(0,0)"></path>
<path d="M 1450.55 846.933 C 1455.06 885.299 1442.15 906.604 1409.14 924.798 C 1411.62 907.312 1411.6 892.816 1409.73 875.249 C 1425.69 865.835 1436.95 860.422 1450.55 846.933 z" fill="rgb(101,150,166)" transform="translate(0,0)"></path>
<path d="M 1418.71 656.294 C 1426.7 667.006 1428.69 672.539 1433.62 684.32 C 1420.75 695.07 1412.82 707.371 1396.64 714.401 C 1393.12 704.38 1388.98 696.831 1384 687.581 C 1385.59 685.952 1387.26 684.395 1389 682.916 C 1397.87 675.448 1410.27 662.357 1418.71 656.294 z" fill="rgb(174,205,216)" transform="translate(0,0)"></path>
<path d="M 675.136 442.253 L 676.375 442.608 C 655.577 474.369 662.077 510.882 688.539 537.008 C 654.304 537.044 604.102 529.94 570.984 521.583 C 563.478 519.548 548.419 515.778 541.713 512.245 C 501.966 491.302 568.446 469.467 584.005 464.47 C 613.889 454.873 644.431 448.771 675.136 442.253 z" fill="rgb(198,187,173)" transform="translate(0,0)"></path>
<path d="M 831.278 812.266 C 835.821 814.802 893.834 813.754 904.664 814.712 C 903.897 817.262 903.422 818.9 902.792 821.483 L 900.281 831.499 C 900.023 832.545 899.941 833.065 899.761 834.195 C 896.2 846.622 894.613 858.711 892.361 871.321 C 891.545 877.553 890.833 889.517 889.484 894.895 C 888.395 905.674 887.08 918.771 886.939 929.466 C 882.02 930.415 857.592 929.476 851 929.337 C 836.24 929.15 821.479 929.038 806.718 929.002 C 808.367 916.327 810.677 903.765 812.466 891.138 C 813.823 884.942 815.362 876.401 816.198 870.077 C 816.728 867.707 817.363 865.339 817.866 862.991 L 818.751 858.988 L 819.77 854.488 L 820.673 850.448 C 821.926 844.935 823.472 839.317 824.57 833.824 C 826.916 826.67 828.559 819.295 831.278 812.266 z" fill="rgb(124,181,198)" transform="translate(0,0)"></path>
<path d="M 831.278 812.266 C 835.821 814.802 893.834 813.754 904.664 814.712 C 903.897 817.262 903.422 818.9 902.792 821.483 L 900.281 831.499 C 900.023 832.545 899.941 833.065 899.761 834.195 C 896.2 846.622 894.613 858.711 892.361 871.321 C 872.548 870.651 833.411 872.433 816.198 870.077 C 816.728 867.707 817.363 865.339 817.866 862.991 L 818.751 858.988 L 819.77 854.488 L 820.673 850.448 C 821.926 844.935 823.472 839.317 824.57 833.824 C 826.916 826.67 828.559 819.295 831.278 812.266 z" fill="rgb(124,181,198)" transform="translate(0,0)"></path>
<path d="M 831.278 812.266 C 835.821 814.802 893.834 813.754 904.664 814.712 C 903.897 817.262 903.422 818.9 902.792 821.483 L 900.281 831.499 C 900.023 832.545 899.941 833.065 899.761 834.195 C 878.818 833.573 845.303 833.128 824.57 833.824 C 826.916 826.67 828.559 819.295 831.278 812.266 z" fill="rgb(101,150,166)" transform="translate(0,0)"></path>
<path d="M 816.198 870.077 C 833.411 872.433 872.548 870.651 892.361 871.321 C 891.545 877.553 890.833 889.517 889.484 894.895 C 889.352 894.374 888.818 891.099 887.938 891.186 C 879.163 892.054 816.584 888.658 812.466 891.138 C 813.823 884.942 815.362 876.401 816.198 870.077 z" fill="rgb(101,150,166)" transform="translate(0,0)"></path>
<path d="M 1352.06 384.113 C 1350.82 383.189 1350.76 383.405 1349.58 382.785 L 1349.21 382.163 L 1349.18 382.158 L 1349.27 381.879 C 1350.38 380.998 1368.35 381.82 1370.36 381.957 C 1390.72 380.894 1522.95 386.159 1525.98 410.541 C 1521.1 433.791 1400.88 462.782 1378.47 467.804 C 1384.77 444.802 1383.8 428.029 1372.29 406.258 C 1368.27 398.64 1359.61 388.343 1352.06 384.113 z" fill="rgb(198,187,173)" transform="translate(0,0)"></path>
<path d="M 1352.06 384.113 C 1350.82 383.189 1350.76 383.405 1349.58 382.785 L 1349.21 382.163 L 1349.18 382.158 L 1349.27 381.879 C 1350.38 380.998 1368.35 381.82 1370.36 381.957 C 1364.8 383.728 1359.43 382.828 1352.06 384.113 z" fill="rgb(233,226,213)" transform="translate(0,0)"></path>
<path d="M 1048.35 826.273 C 1048.42 826.381 1049.29 827.833 1049.63 827.836 C 1069.63 828.028 1098.63 827.985 1117.64 827.912 C 1116.41 833.318 1114.22 845.199 1112.58 849.798 C 1111.74 855.876 1110.65 861.908 1109.89 867.995 L 1107.99 882.735 C 1107.71 887.835 1106.87 899.245 1106.26 903.923 C 1105.29 916.543 1104.54 929.178 1104.01 941.824 L 1052.56 941.782 C 1048.1 941.785 1029.71 943.017 1027.6 940.263 C 1028.61 928.096 1029.84 915.144 1031.72 903.08 C 1032.25 898.564 1034.08 884.382 1035.39 880.284 C 1037.12 869.96 1039.68 857.863 1042.3 847.728 C 1044.12 840.529 1045.77 833.252 1048.35 826.273 z" fill="rgb(124,181,198)" transform="translate(0,0)"></path>
<path d="M 1048.35 826.273 C 1048.42 826.381 1049.29 827.833 1049.63 827.836 C 1069.63 828.028 1098.63 827.985 1117.64 827.912 C 1116.41 833.318 1114.22 845.199 1112.58 849.798 C 1111.74 855.876 1110.65 861.908 1109.89 867.995 L 1107.99 882.735 C 1088.6 882.962 1056.93 883.351 1036.63 882.559 C 1036.16 882.54 1035.35 880.206 1035.39 880.284 C 1037.12 869.96 1039.68 857.863 1042.3 847.728 C 1044.12 840.529 1045.77 833.252 1048.35 826.273 z" fill="rgb(124,181,198)" transform="translate(0,0)"></path>
<path d="M 1048.35 826.273 C 1048.42 826.381 1049.29 827.833 1049.63 827.836 C 1069.63 828.028 1098.63 827.985 1117.64 827.912 C 1116.41 833.318 1114.22 845.199 1112.58 849.798 C 1110.04 845.901 1050.03 847.568 1042.3 847.728 C 1044.12 840.529 1045.77 833.252 1048.35 826.273 z" fill="rgb(101,150,166)" transform="translate(0,0)"></path>
<path d="M 1035.39 880.284 C 1035.35 880.206 1036.16 882.54 1036.63 882.559 C 1056.93 883.351 1088.6 882.962 1107.99 882.735 C 1107.71 887.835 1106.87 899.245 1106.26 903.923 C 1081.18 902.584 1056.48 903.904 1031.72 903.08 C 1032.25 898.564 1034.08 884.382 1035.39 880.284 z" fill="rgb(101,150,166)" transform="translate(0,0)"></path>
<path d="M 848.412 1434.69 C 854.358 1444.23 859.971 1451.67 869.213 1458.29 C 882.733 1468.04 899.688 1471.74 916.042 1468.53 C 936.854 1464.57 949.134 1451.98 960.657 1435.4 C 990.371 1478.37 1039.22 1481.69 1068.6 1436.18 C 1078.84 1449.05 1083.45 1452.92 1097.76 1461.08 L 1097.41 1484.94 C 1084.92 1480.52 1077.1 1473.4 1070.73 1462.03 C 1064.66 1471.41 1062.02 1475.06 1053.52 1482.2 C 1052.46 1483.05 1051.38 1483.86 1050.27 1484.65 C 1018.08 1507.49 978.276 1495.66 956.584 1464.62 C 951.619 1470.62 948.014 1476.01 941.933 1480.88 C 918.394 1499.72 882.977 1497.04 860.649 1477.64 C 854.974 1472.71 851.025 1467.42 846.416 1461.48 C 830.334 1483.65 813.918 1492.26 785.835 1486.62 L 786.194 1464.89 C 813.979 1465.12 831.289 1456.92 848.412 1434.69 z" fill="rgb(233,226,213)" transform="translate(0,0)"></path>
<path d="M 666.893 677.54 C 688.105 645.373 704.521 657.104 733.799 668.223 C 716.586 682.004 711.067 689.816 700.031 709.01 C 696.207 716.34 693.439 725.036 690.738 732.812 C 681.607 774.368 690.015 787.779 689.317 824.739 C 681.716 820.706 675.437 817.116 667.223 814.52 C 667.695 811.761 669.332 813.13 669.897 809.371 C 670.374 808.001 670.56 808.309 669.863 807.009 C 651.318 772.416 644.074 742.199 653.774 703.512 C 659.21 691.571 658.602 689.916 666.893 677.54 z" fill="rgb(124,181,198)" transform="translate(0,0)"></path>
<path d="M 666.893 677.54 C 688.105 645.373 704.521 657.104 733.799 668.223 C 716.586 682.004 711.067 689.816 700.031 709.01 C 693.324 698.634 677.799 683.377 666.893 677.54 z" fill="rgb(124,181,198)" transform="translate(0,0)"></path>
<path d="M 666.893 677.54 C 677.799 683.377 693.324 698.634 700.031 709.01 C 696.207 716.34 693.439 725.036 690.738 732.812 C 673.744 726.708 664.39 717.46 653.774 703.512 C 659.21 691.571 658.602 689.916 666.893 677.54 z" fill="rgb(174,205,216)" transform="translate(0,0)"></path>
<path d="M 900.778 724.77 C 916.882 728.113 947.132 732.895 963.55 733.31 C 934.12 751.197 911.441 780.463 904.664 814.712 C 893.834 813.754 835.821 814.802 831.278 812.266 C 844.156 778.325 864.108 741.578 898.711 725.673 C 899.395 725.36 900.084 725.059 900.778 724.77 z" fill="rgb(124,181,198)" transform="translate(0,0)"></path>
<path d="M 1107.56 737.131 C 1126.77 736.809 1150.27 734.428 1168.23 735.312 C 1157.54 745.678 1146.92 758.957 1139.86 772.092 C 1136.37 779.113 1132.72 785.865 1129.56 793.08 C 1124.81 803.549 1120.3 816.717 1117.64 827.912 C 1098.63 827.985 1069.63 828.028 1049.63 827.836 C 1049.29 827.833 1048.42 826.381 1048.35 826.273 C 1051.89 814.531 1056.42 803.107 1061.87 792.122 C 1063.75 788.362 1071.62 774.245 1073.9 771.67 C 1087.37 751.337 1092.08 751.387 1107.56 737.131 z" fill="rgb(124,181,198)" transform="translate(0,0)"></path>
<path d="M 1107.56 737.131 C 1126.77 736.809 1150.27 734.428 1168.23 735.312 C 1157.54 745.678 1146.92 758.957 1139.86 772.092 C 1127.61 772.041 1083 773.175 1073.9 771.67 C 1087.37 751.337 1092.08 751.387 1107.56 737.131 z" fill="rgb(124,181,198)" transform="translate(0,0)"></path>
<path d="M 1061.87 792.122 C 1063.75 788.362 1071.62 774.245 1073.9 771.67 C 1083 773.175 1127.61 772.041 1139.86 772.092 C 1136.37 779.113 1132.72 785.865 1129.56 793.08 C 1107.24 791.631 1084.53 793.374 1061.87 792.122 z" fill="rgb(101,150,166)" transform="translate(0,0)"></path>
<path d="M 1037.38 244.584 C 1050.24 243.905 1063.12 243.543 1076 243.499 C 1077.4 271.724 1079.3 305.221 1079.86 333.071 C 1071.74 333.205 1064.09 333.788 1056.25 333.954 C 1043.53 334.442 1029.79 334.928 1017.19 336.151 C 1014.93 312.013 1014.62 270.114 1014.75 245.327 C 1022.34 244.984 1029.79 244.964 1037.38 244.584 z" fill="rgb(254,254,254)" transform="translate(0,0)"></path>
<path d="M 940.461 251.382 C 941.135 251.256 947.661 250.454 947.69 251.451 C 948.551 281.309 948.903 311.554 949.663 341.571 C 935.669 342.878 912.017 344.245 898.762 347.45 C 895.114 347.897 891.2 348.536 887.642 348.918 C 887.285 318.766 887.091 288.612 887.058 258.458 C 899.989 256.79 913.073 254.558 926.004 253.092 L 940.461 251.382 z" fill="rgb(254,254,254)" transform="translate(0,0)"></path>
<path d="M 1000.83 246.413 C 1004.09 245.975 1008.14 245.787 1011.5 245.598 C 1011.11 275.909 1011.72 306.225 1013.34 336.496 L 962.76 340.258 C 959.578 340.493 956.298 340.924 953.027 341.185 L 951.986 250.241 L 1000.83 246.413 z" fill="rgb(124,181,198)" transform="translate(0,0)"></path>
<path d="M 1079.96 243.426 C 1099.87 243.338 1120.71 244.148 1140.64 244.785 C 1141.66 274.113 1141.91 303.829 1143.89 333.149 C 1123.58 332.919 1103.28 332.992 1082.97 333.368 C 1082.88 311.332 1081.4 289.627 1080.91 267.594 C 1080.71 259.045 1079.67 252.547 1079.96 243.426 z" fill="rgb(124,181,198)" transform="translate(0,0)"></path>
<path d="M 882.757 259.437 C 883.931 260.779 884.022 340.385 884.173 349.546 C 865.643 351.719 846.642 354.689 828.285 358.105 C 825.931 355.675 827.108 280.436 827.578 270.52 C 829.227 270.088 830.87 269.636 832.512 269.184 L 836.514 268.262 C 842.831 266.854 849.137 265.332 855.509 264.179 L 861.009 263.147 C 868.231 261.757 875.483 260.52 882.757 259.437 z" fill="rgb(124,181,198)" transform="translate(0,0)"></path>
<path d="M 729.719 420.398 C 741.748 420.221 747.169 420.884 758.231 424.917 C 754.28 433.444 750.529 442.062 746.981 450.765 L 745.421 450.321 C 739.44 448.563 731.512 449.938 725.576 451.382 C 705.406 456.295 693.83 475.89 700.473 495.801 C 704.278 507.205 711.373 513.414 721.631 518.734 C 719.742 525.73 717.49 532.79 715.36 539.731 C 714.566 542.462 714.808 542.576 712.697 544.366 C 708.422 544.313 695.928 536.075 692.45 532.859 C 648.747 492.441 669.62 425.666 729.719 420.398 z" fill="rgb(160,131,120)" transform="translate(0,0)"></path>
<path d="M 1143.96 244.987 C 1160.18 245.132 1180.66 246.966 1196.91 248.432 C 1197.26 277.882 1199.67 304.661 1201.43 333.876 C 1182.74 333.184 1165.66 332.992 1146.92 333.03 C 1146.31 303.707 1144.76 274.196 1143.96 244.987 z" fill="rgb(254,254,254)" transform="translate(0,0)"></path>
<path d="M 823.134 271.31 C 824.446 272.533 823.84 349.772 823.848 359.261 C 813.725 361.192 803.618 363.208 793.528 365.307 C 789.077 366.247 784.627 367.235 780.202 368.287 C 776.52 365.228 780.63 290.865 780.908 281.544 C 786.372 280.305 792.064 278.644 797.548 277.307 L 801.558 276.324 C 803.013 275.971 804.557 275.578 806.013 275.24 L 810.012 274.298 C 814.374 273.251 818.749 272.254 823.134 271.31 z" fill="rgb(254,254,254)" transform="translate(0,0)"></path>
<path d="M 1200.85 248.775 C 1211.61 250.247 1222.7 251.692 1233.5 252.891 C 1237.73 253.356 1241.93 253.957 1246.11 254.693 C 1247.88 281.753 1249.31 308.833 1250.4 335.928 C 1235.06 334.894 1219.91 334.529 1204.54 334.041 C 1202.81 307.922 1201.02 274.727 1200.85 248.775 z" fill="rgb(101,150,166)" transform="translate(0,0)"></path>
<path d="M 649.579 821.379 C 653.284 826.975 662.901 843.365 669.858 843.553 C 674.856 844.113 680.687 848.099 685.553 850.388 C 685.415 850.981 685.277 851.574 685.139 852.166 C 681.393 867.02 678.169 882 675.475 897.08 C 674.698 912.206 673.802 923.796 674.063 939.156 C 644.961 919.407 633.744 906.171 632.863 869.821 C 633.866 850.253 639.167 837.393 649.579 821.379 z" fill="rgb(124,181,198)" transform="translate(0,0)"></path>
<path d="M 632.863 869.821 C 636.436 871.373 635.157 871.037 637.856 873.162 C 645.486 879.167 666.973 893.508 675.475 897.08 C 674.698 912.206 673.802 923.796 674.063 939.156 C 644.961 919.407 633.744 906.171 632.863 869.821 z" fill="rgb(101,150,166)" transform="translate(0,0)"></path>
<path d="M 918.059 1532.75 C 933.395 1532.62 948.732 1532.56 964.069 1532.58 C 964.176 1549.36 963.739 1565.26 966.732 1582.01 C 965.353 1587.01 977.923 1606.45 977.822 1607 C 975.161 1621.47 959.878 1610.47 956.557 1607.52 C 955.326 1605.6 950.002 1590.98 947.518 1596.07 C 945.716 1599.76 954.04 1610.23 950.806 1613.87 C 939.107 1627.01 924.203 1607.37 923.064 1595.49 C 919.856 1574.23 918.252 1553.08 918.059 1532.75 z" fill="rgb(232,139,149)" transform="translate(0,0)"></path>
<path d="M 1012.29 1532.54 C 1026.25 1532.25 1040.21 1532.08 1054.17 1532.02 C 1057.28 1544.94 1061.07 1557.06 1064.93 1570.01 C 1064.54 1573.99 1076.31 1601.46 1076.97 1599.87 C 1072.04 1611.77 1060.28 1603.52 1053.67 1597.9 C 1051.89 1596.1 1045.89 1587.19 1044.75 1586.96 C 1038.56 1589.11 1049.15 1600.1 1049.36 1602.15 C 1050.35 1610.56 1040.96 1610.65 1035.48 1607.05 C 1012.91 1592.23 1012.45 1557.12 1012.29 1532.54 z" fill="rgb(232,139,149)" transform="translate(0,0)"></path>
<path d="M 860.731 1532.07 C 873.405 1531.94 886.082 1532.07 898.751 1532.47 C 899.604 1552.82 902.031 1598.46 882.545 1612.13 C 878.6 1614.89 868.175 1614.46 865.342 1610.38 C 864.52 1609.19 868.149 1603.34 868.704 1602.32 C 869.326 1600.97 874.673 1591.35 870.01 1591.06 C 868.515 1590.97 866.433 1596.29 865.758 1597.39 C 864.236 1599.88 861.986 1604.44 859.536 1606.1 C 854.459 1609.54 845.856 1614.64 841.077 1608.01 C 840.604 1607.35 840.155 1606.35 840.508 1605.52 C 848.038 1594.16 852.831 1583.92 855.856 1570.49 C 858.709 1557.82 859.02 1544.99 860.731 1532.07 z" fill="rgb(233,226,213)" transform="translate(0,0)"></path>
<path d="M 774.56 283.077 C 778.179 282.912 777.032 286.478 776.823 289.498 C 774.991 315.993 774.287 342.878 774.785 369.439 C 772.9 369.88 770.849 370.449 768.988 370.842 L 759.988 372.799 L 751.464 374.698 C 745.024 376.088 738.617 377.625 732.248 379.309 C 728.771 379.8 729.674 377.92 730.191 375.004 C 735.102 347.319 741.36 319.248 745.536 291.479 C 754.567 288.562 765.325 285.62 774.56 283.077 z" fill="rgb(124,181,198)" transform="translate(0,0)"></path>
<path d="M 783.712 1530.03 C 795.685 1530.07 807.936 1530.69 819.953 1531.04 C 815.11 1551.24 809.13 1606.13 779.522 1605.92 C 778.324 1605.91 772.571 1601.43 773.849 1598.71 C 775.225 1597.16 784.136 1587.16 780.035 1584.96 C 777.882 1585.12 764.056 1605.94 752.146 1598.66 C 743.79 1593.55 756.654 1586.27 758.926 1582.44 C 768.691 1565.97 774.451 1546.87 783.712 1530.03 z" fill="rgb(233,226,213)" transform="translate(0,0)"></path>
<path d="M 1063.28 1531.51 C 1075.77 1531.09 1088.27 1530.95 1100.77 1531.1 C 1107.9 1547.75 1112.58 1572.89 1125.62 1586.39 C 1126.99 1587.8 1129.62 1591.3 1129.03 1593.49 C 1125.73 1605.64 1110.72 1593.01 1106.03 1587.68 C 1104.81 1586.04 1103.32 1583.34 1101.51 1582.38 C 1100.86 1582.03 1099.45 1582.15 1099.39 1583.11 C 1098.17 1586.62 1105.85 1595.26 1105.9 1596.57 C 1106.23 1604.48 1094 1603.97 1089.96 1601.51 C 1077.45 1593.87 1074.05 1584.6 1070.38 1571.4 C 1066.82 1558.57 1063.51 1547.17 1060 1534.47 C 1059.57 1532.9 1059.41 1531.91 1061.49 1531.68 C 1062.09 1531.62 1062.68 1531.57 1063.28 1531.51 z" fill="rgb(233,226,213)" transform="translate(0,0)"></path>
<path d="M 1249.43 255.213 C 1256.52 256.375 1261.51 257.403 1268.51 258.883 L 1275.4 260.32 L 1275.81 261.377 C 1280.86 274.208 1300.82 328.154 1302.65 338.613 C 1286.43 337.398 1270.18 336.485 1253.93 335.874 C 1253.41 309.139 1250.86 281.976 1249.43 255.213 z" fill="rgb(198,187,173)" transform="translate(0,0)"></path>
<path d="M 995.362 1532.49 C 999.326 1532.45 1003.29 1532.51 1007.25 1532.66 C 1007.58 1543.1 1007.73 1553.12 1008.83 1563.5 C 1010.01 1576.27 1013.1 1589.24 1020.53 1599.91 C 1021.5 1600.95 1022.67 1602.6 1020.63 1603.3 C 1012.98 1606.02 1003.29 1596.53 1000.7 1590.12 C 999.514 1587.19 997.072 1583.17 994.985 1588.38 C 994.7 1589.17 994.415 1589.95 994.13 1590.74 L 994.65 1591.67 C 996.321 1594.7 999.301 1598.12 1000.41 1600.93 C 1001.29 1604.26 995.756 1606.92 993.498 1606.99 C 965.596 1607.85 969.639 1547.76 969.799 1532.69 C 978.32 1532.56 986.841 1532.49 995.362 1532.49 z" fill="rgb(232,139,149)" transform="translate(0,0)"></path>
<path d="M 825.02 1531.54 C 835.06 1531.64 845.099 1531.81 855.136 1532.07 C 854.726 1543.19 853.278 1554.45 851.243 1566.01 C 850.099 1575.25 841.414 1602.98 830.547 1605.5 C 822.341 1607.4 825.432 1598.02 828.001 1594.01 C 829.047 1591.86 832.246 1587.33 829.311 1585.65 C 823.304 1587.82 820.347 1601.55 811.011 1604.24 C 806.873 1605.43 800.297 1604.16 803.811 1599 C 817.673 1578.61 819.039 1554.53 825.02 1531.54 z" fill="rgb(232,139,149)" transform="translate(0,0)"></path>
<path d="M 1343.36 653.189 C 1349.6 649.455 1380.54 631.177 1386.47 631.693 C 1396.93 632.602 1412.07 647.898 1418.71 656.294 C 1410.27 662.357 1397.87 675.448 1389 682.916 C 1387.26 684.395 1385.59 685.952 1384 687.581 C 1371.62 669.622 1361.84 663.294 1343.36 653.189 z" fill="rgb(124,181,198)" transform="translate(0,0)"></path>
<path d="M 822.926 1293.56 C 831.941 1293.98 843.758 1293.02 852.417 1294.49 L 851.844 1295.78 C 840.159 1322.82 817.739 1333.11 790.313 1321.59 C 790.496 1313 790.729 1304.41 791.01 1295.82 C 803.361 1302.8 812.101 1304.93 822.926 1293.56 z" fill="rgb(233,226,213)" transform="translate(0,0)"></path>
<path d="M 828.26 1158.48 C 834.391 1158.5 852.474 1157.45 856.67 1159.94 C 845.006 1185 823.122 1196.94 795.768 1190.22 L 794.043 1189.82 C 793.989 1180.75 793.969 1172.79 794.727 1163.71 C 809.158 1170.26 817.807 1171.14 828.26 1158.48 z" fill="rgb(233,226,213)" transform="translate(0,0)"></path>
<path d="M 904.26 1532.46 C 906.373 1532.48 911.372 1532.05 912.885 1533.24 C 913.025 1533.61 917.065 1593.42 917.763 1599.49 C 913.787 1605.78 914.371 1605.61 908.276 1609.77 C 905.552 1610.25 894.714 1611.23 896.8 1605.07 C 904.968 1580.92 904.764 1557.45 904.26 1532.46 z" fill="rgb(232,139,149)" transform="translate(0,0)"></path>
<path d="M 1082.14 1167.24 L 1083.3 1168.65 C 1088.81 1175.55 1092.84 1177.03 1100.56 1180.6 C 1100.09 1188.16 1100.16 1196.39 1100.11 1204.03 C 1077.26 1199.76 1067.92 1190.13 1060.12 1167.99 C 1064.46 1166.57 1077.03 1167.11 1082.14 1167.24 z" fill="rgb(233,226,213)" transform="translate(0,0)"></path>
<path d="M 652.186 815.368 C 660.313 813.874 659.457 814.124 667.223 814.52 C 675.437 817.116 681.716 820.706 689.317 824.739 C 688.555 833.989 687.166 841.355 685.553 850.388 C 680.687 848.099 674.856 844.113 669.858 843.553 C 660.988 830.512 659.694 831.921 652.186 815.368 z" fill="rgb(174,205,216)" transform="translate(0,0)"></path>
<path d="M 651.048 779.423 C 658.061 791.371 658.197 799.409 669.897 809.371 C 669.332 813.13 667.695 811.761 667.223 814.52 C 659.457 814.124 660.313 813.874 652.186 815.368 C 646.757 800.026 647.616 794.866 651.048 779.423 z" fill="rgb(124,181,198)" transform="translate(0,0)"></path>
<metadata><recraft-signature>{"signed_by": "recraft", "signature_b64": "sWiz20xj9/EWF4unrqwaYhB+xXZA8eqHOfFVIoyHeW5LCMM6PEZ8R+MVqEjTpik/Br4l4G7jJEr2M8OAvtTqCg==", "signing_algo": "Ed25519", "generation_timestamp": 1778557524, "identifier": "db04e657-fa93-4b4d-a55c-74a514ff6431"}</recraft-signature></metadata></svg>