<svg xmlns="http://www.w3.org/2000/svg" height="1024" preserveAspectRatio="none" style="display: block;" version="1.1" viewBox="0 0 2048 2048" width="1024">

<path d="M 976.203 389.287 L 978.102 390.696 C 978.62 396.434 976.931 398.953 976.705 404.279 C 976.161 417.094 981.714 429.949 988.091 440.762 C 984.523 443.335 979.082 440.078 975.073 438.565 C 961.984 441.483 949.226 448.107 947.345 463.097 C 946.193 472.279 953.479 479.71 962.701 479.25 C 972.513 478.761 977.97 473.328 984.545 466.859 C 1019.75 473.381 1067.91 472.319 1083.79 433.675 C 1110.45 441.419 1141.74 439.246 1159.17 415.087 C 1163.88 417.055 1167.07 417.778 1171.95 419.001 C 1181.71 419.353 1185.04 421.407 1195.75 420.31 C 1201.44 419.413 1206.08 417.781 1211.97 417.453 C 1267.98 425.595 1309.67 464.609 1320.45 520.252 C 1376.37 510.559 1443.57 565.676 1434.51 624.076 C 1433.19 632.574 1430.99 640.275 1428.36 648.409 C 1464.84 664.821 1484.12 688.297 1499.85 725.621 C 1505.28 738.481 1512.25 773.608 1507.23 786.575 C 1505.76 802.047 1495.48 819.648 1484.98 830.845 C 1494.34 867.774 1491.49 903.144 1455.19 923.648 C 1454.72 945.078 1450.88 963.223 1434.77 978.798 C 1424.09 989.325 1409.51 994.939 1394.53 994.298 C 1390.86 994.172 1385.9 993.411 1382.35 992.636 C 1342.04 1039.22 1306.41 1054.06 1248.18 1067.66 L 1253.45 1079.72 C 1297.47 1060.5 1331.04 1061.28 1366.78 1096.67 C 1373.71 1102.23 1382.45 1118.52 1385.69 1126.94 C 1388.16 1135.41 1389.78 1142.7 1390.64 1151.54 C 1422.68 1144.46 1450.54 1159.16 1462.35 1189.76 C 1493.58 1179.72 1520.43 1189.18 1534.52 1219.22 C 1547.29 1212.44 1556.73 1210.37 1571.26 1209.73 C 1612.62 1206.37 1653.83 1236.98 1674.38 1270.94 C 1687.41 1297.94 1686.75 1317.46 1675.67 1344.73 C 1692.69 1354.56 1702.3 1360.77 1713.29 1377.23 C 1717.32 1383.37 1719.4 1387.08 1721.79 1394.04 C 1725.56 1402.73 1728.23 1415.99 1728.1 1425.44 C 1727.56 1474.26 1703.22 1512.02 1655.04 1524.71 C 1664.09 1557.82 1635.28 1589.72 1604.47 1597.9 C 1583.93 1603.49 1562 1600.55 1543.66 1589.74 C 1532.41 1583.08 1526.8 1576.31 1519.28 1566.02 C 1463.62 1573.2 1416.4 1529.26 1442.57 1472.76 C 1433.46 1470.54 1426.71 1468.85 1418.21 1465.04 C 1377.64 1446.83 1361.48 1399.97 1372.31 1358.6 C 1374.03 1352.16 1376.13 1345.83 1378.59 1339.63 C 1348.35 1321.07 1339.09 1309.84 1316.66 1282.52 C 1314.97 1304.8 1313.61 1316.84 1307.85 1338.83 C 1342.48 1385.29 1313.4 1447.53 1285.12 1489.12 C 1301.59 1495.25 1322.26 1503.13 1336.99 1512.53 C 1380.71 1544.74 1417.77 1594.67 1416.94 1651.07 C 1417.11 1672.81 1412.79 1694.17 1402.23 1713.37 C 1409.17 1715.28 1416.95 1717.74 1423.3 1721.2 C 1470.85 1741.25 1519.66 1788.31 1538.96 1836.53 C 1543.83 1848.69 1548.26 1864.56 1547.13 1877.78 C 1546.99 1882.48 1546.98 1885.34 1546.44 1890.05 C 1540.69 1913.46 1530.31 1930.84 1509.26 1943.66 C 1458.74 1974.45 1320.71 1972.83 1262.28 1968.79 C 1226.86 1966.34 1178.33 1960.59 1144.28 1951.95 C 1119.54 1945.67 1097.74 1932.46 1084.46 1910.15 C 1070.9 1887.36 1071.3 1861.06 1077.81 1836.09 C 1087.78 1797.86 1109.4 1760.31 1137.57 1732.58 C 1145.45 1724.82 1154.25 1718.52 1162.55 1711.31 C 1157.67 1707.45 1152.27 1703.38 1147.89 1698.97 C 1121.41 1672.3 1115.8 1634.58 1132.18 1601.22 C 1061.21 1618.92 991.262 1623.72 919.799 1604.22 C 932.026 1651.84 921.684 1677.81 887.121 1711.36 C 940.099 1749.01 1005.94 1852.03 960.263 1917.2 C 941.687 1943.7 914.383 1949.83 884.251 1955.16 C 871.632 1957.46 858.984 1959.61 846.311 1961.6 C 777.011 1971.98 591.422 1982.44 533.813 1939.56 C 519.418 1928.85 509.596 1913.77 505.043 1896.47 C 504.573 1894.41 504.136 1892.33 503.731 1890.25 C 502.637 1883.55 502.889 1881.26 503.046 1874.51 C 500.336 1822.14 559.724 1759.32 602.405 1735.9 C 613.494 1729.81 624.201 1724.35 635.208 1718.36 L 645.988 1714.27 C 634.064 1700.58 630.496 1686.59 628.212 1668.9 C 628.055 1665.23 627.938 1661.8 627.669 1658.12 C 628.12 1640.61 630.142 1626.47 635.902 1609.74 C 649.777 1569.46 686.635 1522.92 725.252 1504.13 C 733.381 1499.4 744.537 1494.53 753.23 1490.45 C 733.227 1460.06 718.244 1427.29 720.995 1390.01 C 722.233 1373.24 727.727 1361.7 734.995 1346.95 C 729.003 1332.34 727.391 1317.91 725.509 1302.44 C 725.007 1298.72 725.055 1296.04 724.827 1292.36 C 699.339 1319.14 702.996 1319.7 668.289 1339.82 C 678.871 1368.61 681.396 1396.97 668.017 1425.51 C 658.409 1446.16 640.838 1462.02 619.323 1469.47 C 614.72 1471.08 609.972 1472.24 605.239 1473.4 C 613.437 1488.18 615.963 1501.25 611.107 1518.09 C 606.224 1534.8 594.798 1548.84 579.419 1557.02 C 560.977 1566.86 546.804 1566.79 526.925 1564.87 C 499.332 1625.03 381.929 1608.36 392.64 1524.78 C 349.112 1514.59 317.36 1472.62 319.171 1428.1 C 322.585 1387.08 334.357 1364.31 372.305 1345.09 C 371.4 1343.09 370.532 1341.07 369.701 1339.04 C 359.845 1314.85 362.422 1295.99 372.252 1272.6 C 375.128 1266.55 377.108 1263.88 380.941 1258.4 C 413.426 1215.8 467.611 1196.31 517.508 1220 C 529.6 1190.41 559.41 1180.38 588.392 1191.59 C 592.572 1180.91 596.55 1175.04 604.334 1166.92 L 608.829 1163.21 C 625.676 1150.5 638.329 1149.49 658.383 1151.31 C 659.581 1142.33 660.637 1134.56 663.523 1125.96 C 664.629 1122.57 665.913 1119.23 667.37 1115.98 C 674.729 1099.64 693.498 1082.62 709.87 1076.44 C 740.009 1061.84 764.656 1065.41 793.549 1080.1 L 798.651 1068.39 C 787.258 1065.47 774.319 1063.22 762.512 1060.34 C 720.65 1050.13 683.584 1031.3 659.145 994.599 C 655.538 994.883 651.922 995.033 648.305 995.05 C 611.023 995.161 596.31 960.187 596.113 928.413 C 555.917 905.977 556.046 868.498 567.163 828.757 C 554.839 819.43 549.726 812.746 544.329 798.387 C 525.727 750.127 556.502 692.822 591.877 660.982 C 596.385 656.924 614.98 647.773 616.574 644.947 C 611.488 633.025 610.098 624.623 610.151 611.896 C 612.764 566.187 649.919 529.751 694.623 523.571 C 699.135 523.064 705.661 522.839 710.333 522.55 C 715.122 520.596 719.677 506.314 721.814 501.146 C 729.312 485.277 740.83 472.288 753.849 460.751 C 766.839 449.852 783.222 439.154 798.931 432.562 C 805.325 429.09 811.99 426.144 818.862 423.752 C 842.142 415.679 866.78 414.299 889.262 425.292 C 902.113 410.345 928.849 397.186 947.995 394.249 C 956.413 391.744 967.337 390.501 976.203 389.287 z" fill="rgb(14,17,19)" transform="translate(0,0)"></path>
<path d="M 1507.23 786.575 L 1505.49 788.225 L 1505.36 787.147 C 1496.73 791.68 1488.6 812.855 1468.43 820.491 C 1412.92 841.505 1373.6 813.551 1353.27 761.096 C 1338.27 722.398 1334.03 668.39 1381.46 650.142 C 1395.02 644.922 1414.79 642.332 1428.36 648.409 C 1464.84 664.821 1484.12 688.297 1499.85 725.621 C 1505.28 738.481 1512.25 773.608 1507.23 786.575 z" fill="rgb(43,51,56)" transform="translate(0,0)"></path>
<path d="M 616.574 644.947 C 620.763 646.249 629.945 642.903 635.124 642.171 C 680.282 635.791 707.771 674.818 703.126 716.738 C 699.759 727.194 696.54 737.06 690.819 746.496 C 662.24 793.634 596.172 830.594 544.329 798.387 C 525.727 750.127 556.502 692.822 591.877 660.982 C 596.385 656.924 614.98 647.773 616.574 644.947 z" fill="rgb(118,125,127)" transform="translate(0,0)"></path>
<path d="M 622.241 652.985 C 626.801 654.087 633.829 658.639 631.051 662.12 C 625.735 668.782 606.78 678.774 599.575 685.118 C 592.892 691.003 585.261 696.975 578.748 700.977 C 569.193 701.629 568.751 692.568 572.307 686.139 C 582.221 668.209 603.178 658.239 622.241 652.985 z" fill="rgb(224,214,199)" transform="translate(0,0)"></path>
<path d="M 372.305 1345.09 C 378.669 1343.44 385.535 1340.64 391.807 1339.48 C 426.051 1333.2 454.596 1341.4 474.493 1370.35 C 475.789 1399.01 476.996 1405.71 490.889 1431.35 C 487.33 1453.57 480.786 1470.05 461.873 1483.75 C 446.442 1494.76 427.247 1499.14 408.567 1495.91 C 375.963 1490.32 344.7 1465.31 327.137 1438.24 C 324.914 1434.81 322.168 1429.36 319.171 1428.1 C 322.585 1387.08 334.357 1364.31 372.305 1345.09 z" fill="rgb(118,125,127)" transform="translate(0,0)"></path>
<path d="M 371.506 1352.03 C 394.125 1350.62 389.01 1369.6 374.015 1377.87 C 362.708 1384.1 351.212 1391.94 341.328 1400.24 C 333.987 1407.1 329.49 1401.07 330.193 1394.52 C 332.065 1377.06 356.513 1356.65 371.506 1352.03 z" fill="rgb(224,214,199)" transform="translate(0,0)"></path>
<path d="M 1571.31 1371.19 C 1595.69 1332.38 1636.61 1334.11 1675.67 1344.73 C 1692.69 1354.56 1702.3 1360.77 1713.29 1377.23 C 1717.32 1383.37 1719.4 1387.08 1721.79 1394.04 C 1725.56 1402.73 1728.23 1415.99 1728.1 1425.44 C 1726.19 1427.25 1723.46 1431.57 1721.92 1433.98 C 1694.91 1476.14 1633.02 1519 1584.82 1483.27 C 1566.44 1469.64 1559.53 1454.59 1556 1432.58 C 1568.14 1406.4 1571.03 1399.97 1571.31 1371.19 z" fill="rgb(118,125,127)" transform="translate(0,0)"></path>
<path d="M 1718.37 1392.36 C 1717.97 1396.96 1715.75 1405.49 1712.4 1403.33 C 1702.26 1396.79 1675.7 1379.05 1666.24 1372.41 C 1656.68 1365.69 1661.77 1350.12 1673.4 1351.51 C 1687.4 1353.19 1700.85 1367.52 1710.38 1377.71 L 1711.66 1379.06 L 1713.29 1377.23 C 1717.32 1383.37 1719.4 1387.08 1721.79 1394.04 C 1720.64 1393.49 1719.51 1392.93 1718.37 1392.36 z" fill="rgb(224,214,199)" transform="translate(0,0)"></path>
<path d="M 1713.29 1377.23 C 1717.32 1383.37 1719.4 1387.08 1721.79 1394.04 C 1720.64 1393.49 1719.51 1392.93 1718.37 1392.36 C 1716.22 1385.65 1715.83 1384.76 1711.66 1379.06 L 1713.29 1377.23 z" fill="rgb(128,133,135)" transform="translate(0,0)"></path>
<path d="M 503.046 1874.51 C 500.336 1822.14 559.724 1759.32 602.405 1735.9 C 613.494 1729.81 624.201 1724.35 635.208 1718.36 C 640.87 1736.54 672.16 1741.67 688.412 1744.39 C 707.268 1747.39 726.19 1749.96 745.162 1752.11 C 754.05 1753.03 771.794 1753.62 779.695 1756.02 C 822.264 1768.93 859.018 1802.63 875.068 1844.38 C 843.722 1803.89 797.934 1780.3 747.501 1773.67 C 696.064 1766.57 643.938 1780.53 602.929 1812.38 C 566.838 1840.42 538.116 1886.37 550.266 1933.37 C 531.129 1922.58 516.644 1912.93 507.245 1891.95 L 505.043 1896.47 C 504.573 1894.41 504.136 1892.33 503.731 1890.25 C 502.637 1883.55 502.889 1881.26 503.046 1874.51 z" fill="rgb(228,139,75)" transform="translate(0,0)"></path>
<path d="M 503.046 1874.51 L 503.677 1876.22 C 504.723 1878.81 504.952 1881.57 504.866 1884.34 C 504.514 1886.32 504.136 1888.29 503.731 1890.25 C 502.637 1883.55 502.889 1881.26 503.046 1874.51 z" fill="rgb(143,83,42)" transform="translate(0,0)"></path>
<path d="M 503.731 1890.25 C 504.136 1888.29 504.514 1886.32 504.866 1884.34 C 505.614 1887.5 505.945 1888.99 507.245 1891.95 L 505.043 1896.47 C 504.573 1894.41 504.136 1892.33 503.731 1890.25 z" fill="rgb(12,8,5)" transform="translate(0,0)"></path>
<path d="M 610.806 1739.16 C 614.445 1738.89 619.487 1738.27 623.017 1739.32 C 623.674 1739.51 624.527 1739.87 624.802 1740.57 C 625.462 1742.24 624.603 1744.45 624.019 1745.99 C 619.953 1756.76 568.076 1814.01 556.863 1823.46 C 551.791 1827.74 546.594 1830.96 540.572 1833.7 C 539.984 1833.96 539.406 1834.25 538.823 1834.53 C 514.51 1837.07 524.105 1816.82 532.659 1803.69 C 548.247 1779.77 582.275 1745.76 610.806 1739.16 z" fill="rgb(224,214,199)" transform="translate(0,0)"></path>
<path d="M 1423.3 1721.2 C 1470.85 1741.25 1519.66 1788.31 1538.96 1836.53 C 1543.83 1848.69 1548.26 1864.56 1547.13 1877.78 C 1546.99 1882.48 1546.98 1885.34 1546.44 1890.05 L 1544.5 1886.15 C 1534.97 1908.43 1521.8 1923.68 1498.94 1933.51 C 1508.95 1888.37 1484.01 1842.84 1449.45 1815.5 C 1363.34 1747.38 1244.64 1760.05 1175.31 1842.61 C 1182.45 1824.89 1192.17 1810.8 1205.09 1796.76 C 1216.83 1784 1229.72 1772.83 1245.4 1765.19 C 1257.81 1759.14 1272.22 1754.71 1285.87 1752.61 C 1314.55 1748.18 1403.09 1751.47 1420.39 1732.78 C 1423.76 1729.13 1423.45 1725.86 1423.3 1721.2 z" fill="rgb(228,139,75)" transform="translate(0,0)"></path>
<path d="M 1547.13 1877.78 C 1546.99 1882.48 1546.98 1885.34 1546.44 1890.05 L 1544.5 1886.15 C 1545.02 1883.81 1545.51 1881.59 1546.46 1879.37 L 1547.13 1877.78 z" fill="rgb(12,8,5)" transform="translate(0,0)"></path>
<path d="M 798.931 432.562 L 800.887 432.518 C 843.377 431.302 865.3 431.888 880.572 478.889 C 876.089 529.292 785.873 587.179 736.845 580.071 L 732.86 579.524 C 729.282 577.405 726.004 574.816 723.115 571.825 C 707.945 556.148 712.383 540.891 712.366 523.701 L 710.333 522.55 C 715.122 520.596 719.677 506.314 721.814 501.146 C 729.312 485.277 740.83 472.288 753.849 460.751 C 766.839 449.852 783.222 439.154 798.931 432.562 z" fill="rgb(118,125,127)" transform="translate(0,0)"></path>
<path d="M 759.772 458.549 C 771.742 449.33 795.052 437.903 810.489 439.752 C 814.196 440.211 817.552 442.169 819.776 445.17 C 823.674 450.397 817.143 457.981 812.55 460.062 C 787.355 471.475 770.669 492.15 752.091 511.531 C 737.366 526.892 721.649 526.943 724.507 501.377 L 721.814 501.146 C 729.312 485.277 740.83 472.288 753.849 460.751 L 755.509 461.428 L 756.268 461.451 L 758.441 459.545 C 759.034 459.022 759.068 458.924 759.772 458.549 z" fill="rgb(224,214,199)" transform="translate(0,0)"></path>
<path d="M 753.849 460.751 L 755.509 461.428 C 754.392 462.498 753.909 462.936 752.943 464.064 C 739.462 477.551 732.809 483.615 724.507 501.377 L 721.814 501.146 C 729.312 485.277 740.83 472.288 753.849 460.751 z" fill="rgb(128,133,135)" transform="translate(0,0)"></path>
<path d="M 755.509 461.428 L 756.268 461.451 C 754.907 463.217 754.914 463.619 752.943 464.064 C 753.909 462.936 754.392 462.498 755.509 461.428 z" fill="rgb(195,191,182)" transform="translate(0,0)"></path>
<path d="M 728.103 1273.67 C 731.455 1256.41 743.16 1240.46 757.653 1230.72 C 775.4 1218.83 797.123 1214.44 818.093 1218.49 C 834.345 1221.73 850.303 1231.37 859.387 1245.42 C 868.453 1259.24 871.573 1276.13 868.044 1292.28 C 853.852 1357.09 754.937 1370.77 727.851 1300.01 L 725.509 1302.44 C 725.007 1298.72 725.055 1296.04 724.827 1292.36 C 724.814 1287.41 724.301 1287.83 725.88 1283.32 C 726.482 1279.74 727.186 1277.17 728.103 1273.67 z" fill="rgb(118,125,127)" transform="translate(0,0)"></path>
<path d="M 725.88 1283.32 C 727.554 1289.02 725.967 1292.66 727.892 1298.87 L 727.851 1300.01 L 725.509 1302.44 C 725.007 1298.72 725.055 1296.04 724.827 1292.36 C 724.814 1287.41 724.301 1287.83 725.88 1283.32 z" fill="rgb(43,51,56)" transform="translate(0,0)"></path>
<path d="M 725.88 1283.32 C 726.482 1279.74 727.186 1277.17 728.103 1273.67 C 728.968 1283.98 727.268 1290.64 727.892 1298.87 C 725.967 1292.66 727.554 1289.02 725.88 1283.32 z" fill="rgb(78,87,91)" transform="translate(0,0)"></path>
<path d="M 784.37 1230.27 C 793.382 1229.03 808.954 1228.87 814.636 1237.34 C 821.041 1246.89 800.277 1257.64 794.546 1263.09 C 784.229 1272.9 775.94 1283.64 763.94 1291.25 C 736.45 1303.06 726.931 1274.78 742.93 1255.29 C 755.342 1240.18 765.106 1233.52 784.37 1230.27 z" fill="rgb(224,214,199)" transform="translate(0,0)"></path>
<path d="M 1571.26 1209.73 C 1612.62 1206.37 1653.83 1236.98 1674.38 1270.94 C 1670.41 1275.04 1669.89 1295.72 1652.74 1309.71 C 1635.34 1324.96 1611.2 1330.42 1588.48 1328.99 C 1560.08 1327.19 1519.35 1307.83 1516.7 1275.78 C 1514.72 1251.77 1534.62 1230.99 1554.04 1220.01 C 1559.63 1216.84 1566.52 1213.95 1571.26 1209.73 z" fill="rgb(43,51,56)" transform="translate(0,0)"></path>
<path d="M 1609.6 1227.02 C 1631.53 1226.12 1645.5 1241.95 1658.17 1258.01 C 1662.56 1263.57 1666.06 1273.7 1658.4 1278.07 L 1657.02 1278.89 C 1650.02 1273.95 1644.23 1267.04 1636.38 1261.24 C 1629.6 1256.24 1607.78 1245.1 1604.54 1240.98 C 1603.42 1239.58 1602.92 1237.78 1603.16 1236 C 1603.74 1231.42 1606.25 1229.6 1609.6 1227.02 z" fill="rgb(157,154,149)" transform="translate(0,0)"></path>
<path d="M 627.669 1658.12 C 628.12 1640.61 630.142 1626.47 635.902 1609.74 C 649.777 1569.46 686.635 1522.92 725.252 1504.13 C 736.781 1520.39 750.318 1535.13 765.542 1547.99 C 734.123 1566.55 699.775 1602.58 690.382 1638.92 C 680.407 1677.5 691.689 1707.09 718.451 1735.13 C 676.012 1723.06 650.116 1710.48 631.747 1667.08 L 628.212 1668.9 C 628.055 1665.23 627.938 1661.8 627.669 1658.12 z" fill="rgb(228,139,75)" transform="translate(0,0)"></path>
<path d="M 627.669 1658.12 C 629.649 1661.44 630.28 1663.52 631.747 1667.08 L 628.212 1668.9 C 628.055 1665.23 627.938 1661.8 627.669 1658.12 z" fill="rgb(12,8,5)" transform="translate(0,0)"></path>
<path d="M 679.268 1551.93 C 682.461 1551.9 687.592 1551.34 688.607 1555.32 C 690.228 1561.68 682.671 1571.45 679.92 1577.05 C 672.799 1591.11 666.696 1605.59 663.221 1621.02 C 662.364 1624.82 661.754 1629.28 660.741 1632.98 C 657.827 1643.64 659.498 1651 647.242 1652.19 C 613.981 1636.48 658.221 1566.63 679.268 1551.93 z" fill="rgb(224,214,199)" transform="translate(0,0)"></path>
<path d="M 1336.99 1512.53 C 1380.71 1544.74 1417.77 1594.67 1416.94 1651.07 C 1415.4 1653.95 1414.83 1655.43 1414.23 1658.72 C 1396.17 1701.38 1362.25 1728.63 1315.28 1730.43 C 1340.59 1712.5 1364.72 1690.33 1362.13 1656.23 C 1359.03 1615.24 1326.46 1583.84 1297.25 1558.32 C 1317.06 1542.45 1323.65 1533.77 1336.99 1512.53 z" fill="rgb(228,139,75)" transform="translate(0,0)"></path>
<path d="M 658.383 1151.31 C 660.149 1154.11 660.275 1153.45 662.756 1154.91 C 683.421 1167.14 701.239 1183.41 708.539 1206.77 C 722.651 1251.93 680.083 1263.59 647.515 1245.16 C 629.877 1235.17 611.272 1216.85 604.242 1197.32 C 601.188 1187.65 603.411 1179.14 606.652 1170.1 C 609 1166.93 608.269 1167.68 608.829 1163.21 C 625.676 1150.5 638.329 1149.49 658.383 1151.31 z" fill="rgb(43,51,56)" transform="translate(0,0)"></path>
<path d="M 642.81 1157.33 C 645.677 1157.2 652.579 1156.71 654.771 1158.36 C 662.629 1164.27 662.751 1171.52 651.996 1172.91 C 642.44 1174.14 633.354 1176.61 625.534 1181.23 C 621.488 1183.86 611.472 1190.28 610.234 1182 C 608.015 1167.15 633.657 1158.87 642.81 1157.33 z" fill="rgb(228,139,75)" transform="translate(0,0)"></path>
<path d="M 610.151 611.896 C 612.764 566.187 649.919 529.751 694.623 523.571 C 698.572 533.55 705.544 539.627 707.23 551.474 C 709.076 564.444 708.396 571.117 701.177 582.992 C 685.03 609.552 644.64 627.009 615.261 614.386 C 612.563 613.226 614.082 612.021 610.151 611.896 z" fill="rgb(43,51,56)" transform="translate(0,0)"></path>
<path d="M 668.153 540.271 C 671.174 540.152 686.54 541.633 682.451 545.881 C 666.927 562.007 654.345 591.801 635.084 602.193 C 602.682 609.513 627.674 546.801 668.153 540.271 z" fill="rgb(224,214,199)" transform="translate(0,0)"></path>
<path d="M 663.523 1125.96 C 664.629 1122.57 665.913 1119.23 667.37 1115.98 C 674.729 1099.64 693.498 1082.62 709.87 1076.44 C 711.763 1078.81 711.935 1078.64 715.016 1079.77 C 718.289 1081.09 721.365 1083.52 723.983 1085.96 C 738.594 1099.53 748.401 1110.53 752.189 1130.45 C 760.612 1174.76 719.824 1185.24 689.123 1162.44 C 680.092 1155.74 673.416 1146.87 668.82 1136.39 C 666.777 1131.78 666.788 1129.59 663.523 1125.96 z" fill="rgb(43,51,56)" transform="translate(0,0)"></path>
<path d="M 711.979 1089.15 C 733.109 1089.36 713.988 1106.12 704.006 1107.04 C 702.07 1107.22 689.63 1115.23 686.765 1117.06 C 674.863 1124.64 671.854 1098.25 711.979 1089.15 z" fill="rgb(228,139,75)" transform="translate(0,0)"></path>
<path d="M 1366.78 1096.67 C 1373.71 1102.23 1382.45 1118.52 1385.69 1126.94 C 1384.27 1128.86 1382.83 1130.63 1382.23 1133.03 C 1375.9 1159.07 1344.42 1177.9 1318.51 1174.82 C 1303.74 1173.07 1300.4 1160.66 1301.84 1147.99 C 1302.93 1138.44 1306.47 1129.34 1312.12 1121.57 C 1323.14 1106.6 1340.88 1095.5 1360.01 1097.28 C 1363.12 1097.57 1363.88 1097.68 1366.78 1096.67 z" fill="rgb(43,51,56)" transform="translate(0,0)"></path>
<path d="M 889.262 425.292 C 902.113 410.345 928.849 397.186 947.995 394.249 L 949.424 395.053 C 958.219 399.897 972.542 396.493 966.825 416.985 C 961.002 437.858 909.356 479.635 888.919 458.524 C 881.553 450.915 888.828 434.298 889.262 425.292 z" fill="rgb(43,51,56)" transform="translate(0,0)"></path>
<path d="M 703.126 716.738 C 707.041 736.93 691.292 768.118 681.051 784.996 C 661.326 817.507 604.651 852.633 567.163 828.757 C 554.839 819.43 549.726 812.746 544.329 798.387 C 596.172 830.594 662.24 793.634 690.819 746.496 C 696.54 737.06 699.759 727.194 703.126 716.738 z" fill="rgb(43,51,56)" transform="translate(0,0)"></path>
<path d="M 880.572 478.889 C 884.496 501.387 875.299 528.991 862.28 547.4 C 845.733 570.852 820.54 586.763 792.254 591.627 C 774.967 594.502 746.008 592.616 732.86 579.524 L 736.845 580.071 C 785.873 587.179 876.089 529.292 880.572 478.889 z" fill="rgb(43,51,56)" transform="translate(0,0)"></path>
<path d="M 422.873 1227.63 C 432.858 1224.64 468.682 1209.49 472.975 1227.95 C 474.695 1237.73 467.395 1238.41 460.413 1240.78 C 438.39 1248.24 416.175 1258.6 398.697 1274.21 C 394.01 1278.4 386.609 1282.42 382.781 1274.01 C 381.097 1270.31 383.084 1265.87 383.755 1262.09 C 391.511 1249.44 399.969 1241.59 412.547 1233.53 C 415.024 1231.94 421.373 1229.01 422.873 1227.63 z" fill="rgb(228,139,75)" transform="translate(0,0)"></path>
<path d="M 1171.95 419.001 C 1181.71 419.353 1185.04 421.407 1195.75 420.31 C 1199.69 424.2 1209.92 431.022 1208.98 437.532 C 1205.82 459.322 1138.86 449.012 1171.95 419.001 z" fill="rgb(43,51,56)" transform="translate(0,0)"></path>
<path d="M 422.873 1227.63 C 429.989 1218.51 477.353 1208.82 475.667 1231.69 C 474.8 1243.44 454.012 1242.09 445.916 1248.16 C 438.52 1253.71 425.478 1256.74 417.506 1262.1 C 409.005 1267.37 402.362 1275.56 393.237 1279.61 C 388.111 1281.88 383.003 1283.63 380.341 1288.7 C 380.374 1294.74 389.818 1304.39 394.304 1309.07 C 444.33 1361.19 582.6 1299.61 505.403 1231.62 C 499.897 1226.77 484.641 1215.94 477.903 1213.94 L 477.518 1213.26 C 495.724 1219.23 516.601 1236.91 525.462 1254.16 C 541.674 1285.73 512.298 1310.89 485.67 1322.67 C 449.318 1338.75 395.179 1328.42 378.355 1288.92 C 376.57 1284.73 374.573 1275.15 372.252 1272.6 C 375.128 1266.55 377.108 1263.88 380.941 1258.4 L 381.556 1261.44 L 383.755 1262.09 C 383.084 1265.87 381.097 1270.31 382.781 1274.01 C 386.609 1282.42 394.01 1278.4 398.697 1274.21 C 416.175 1258.6 438.39 1248.24 460.413 1240.78 C 467.395 1238.41 474.695 1237.73 472.975 1227.95 C 468.682 1209.49 432.858 1224.64 422.873 1227.63 z" fill="rgb(43,51,56)" transform="translate(0,0)"></path>
<path d="M 1416.94 1651.07 C 1417.11 1672.81 1412.79 1694.17 1402.23 1713.37 C 1397.16 1718.13 1404.71 1704.08 1404.63 1704.26 C 1409.58 1692.33 1417.01 1671.9 1414.23 1658.72 C 1414.83 1655.43 1415.4 1653.95 1416.94 1651.07 z" fill="rgb(12,8,5)" transform="translate(0,0)"></path>
<path d="M 906.009 741.388 C 896.216 734.696 887.816 725.176 881.428 715.32 C 835.288 643.722 876.865 551.754 943.103 508.791 C 995.733 474.655 1070.55 474.629 1123.65 508.696 C 1131.99 514.047 1138.85 522.057 1144.17 530.363 C 1153.62 537.092 1162.34 553.393 1166.3 564.107 C 1176.81 592.889 1178.6 620.332 1170.69 649.997 C 1153.15 715.717 1095.13 756.164 1030.3 767.003 C 993.96 773.079 933.493 769.545 906.009 741.388 z" fill="rgb(118,125,127)" transform="translate(0,0)"></path>
<path d="M 1144.17 530.363 C 1153.62 537.092 1162.34 553.393 1166.3 564.107 C 1176.81 592.889 1178.6 620.332 1170.69 649.997 C 1153.15 715.717 1095.13 756.164 1030.3 767.003 C 993.96 773.079 933.493 769.545 906.009 741.388 C 942.402 753.732 969.293 756.264 1006.27 743.788 C 1085.71 716.983 1173.74 618.222 1144.17 530.363 z" fill="rgb(43,51,56)" transform="translate(0,0)"></path>
<path d="M 902.996 1542.66 C 894.84 1538.18 885.994 1528.84 880.255 1521.62 C 854.858 1489.67 854.138 1447.3 874.855 1412.66 C 910.332 1353.33 989.146 1331.1 1054.36 1339.46 C 1084.22 1343.29 1127.62 1359.16 1146.43 1383.9 C 1161.9 1398.46 1172.34 1423.73 1172.46 1444.52 C 1172.94 1527.63 1076.49 1571.88 1004.5 1571.29 C 971.626 1571.02 928.937 1563.95 902.996 1542.66 z" fill="rgb(224,214,199)" transform="translate(0,0)"></path>
<path d="M 1146.43 1383.9 C 1161.9 1398.46 1172.34 1423.73 1172.46 1444.52 C 1172.94 1527.63 1076.49 1571.88 1004.5 1571.29 C 971.626 1571.02 928.937 1563.95 902.996 1542.66 C 912.712 1543.83 921.999 1546.52 932.193 1547.29 C 1009.5 1553.11 1107.81 1528.81 1144.6 1453.37 C 1153.36 1435.41 1156.36 1410.36 1149.27 1391.4 L 1146.43 1383.9 z" fill="rgb(157,154,149)" transform="translate(0,0)"></path>
<path d="M 1011.96 1126.41 C 1047.8 1121.76 1093.17 1133.28 1121.41 1156.02 C 1156.28 1183.5 1161.32 1234.28 1131.75 1267.75 C 1103.01 1300.28 1062.12 1312.26 1020.25 1315.6 C 983.738 1318.24 942.159 1312.18 911.864 1290.13 C 874.223 1262.74 871.765 1215.01 900.106 1179.5 C 927.759 1144.85 969.099 1131.44 1011.96 1126.41 z" fill="rgb(43,51,56)" transform="translate(0,0)"></path>
<path d="M 803.833 777.966 C 850.843 772.982 893.033 806.949 898.2 853.939 C 903.366 900.929 869.563 943.251 822.594 948.599 C 775.366 953.977 732.76 919.948 727.566 872.699 C 722.371 825.451 756.565 782.978 803.833 777.966 z" fill="rgb(224,214,199)" transform="translate(0,0)"></path>
<path d="M 1216.82 778.12 C 1263.81 772.628 1306.36 806.289 1311.82 853.286 C 1317.28 900.284 1283.59 942.805 1236.59 948.239 C 1189.63 953.668 1147.16 920.017 1141.7 873.06 C 1136.24 826.103 1169.87 783.607 1216.82 778.12 z" fill="rgb(224,214,199)" transform="translate(0,0)"></path>
<path d="M 1459.87 1282.41 C 1491.82 1280.07 1525.55 1301.12 1546.78 1323.44 C 1578.63 1356.92 1573.89 1383.55 1540.53 1413.28 C 1526.9 1425.43 1517.6 1427.76 1499.62 1426.6 C 1471.07 1423.81 1432.1 1409.81 1408.81 1392.86 C 1381.4 1372.9 1380.52 1334.86 1402.4 1310.24 C 1419.06 1291.48 1435.09 1284.53 1459.87 1282.41 z" fill="rgb(43,51,56)" transform="translate(0,0)"></path>
<path d="M 1199.6 587.679 C 1211.1 577.063 1226.69 573.584 1242.22 574.469 C 1273.36 576.243 1302.25 591.995 1323.58 614.468 C 1344.69 636.715 1350.46 673.811 1325.37 695.653 C 1311.6 707.639 1289.4 710.494 1271.93 708.616 C 1228.11 704.369 1177.78 667.325 1182.31 618.968 C 1183.06 610.955 1187.21 601.338 1192.53 595.09 C 1195.34 591.262 1195.88 590.594 1199.6 587.679 z" fill="rgb(118,125,127)" transform="translate(0,0)"></path>
<path d="M 1199.6 587.679 C 1205.4 587.544 1210.76 583.348 1218 582.12 C 1246.52 577.283 1306.02 603.138 1307.3 635.207 C 1309.37 686.619 1222.06 656.425 1204.14 632.962 C 1189.73 615.139 1190.07 614.904 1192.53 595.09 C 1195.34 591.262 1195.88 590.594 1199.6 587.679 z" fill="rgb(157,154,149)" transform="translate(0,0)"></path>
<path d="M 809.241 597.465 C 894.093 600.32 861.174 711.73 767.271 716.036 C 680.828 710.547 713.789 602.767 809.241 597.465 z" fill="rgb(43,51,56)" transform="translate(0,0)"></path>
<path d="M 1201.29 459.377 C 1221.25 456.849 1253.42 464.825 1268.99 477.302 C 1317.23 515.98 1290.12 552.147 1239.44 559.885 C 1141.25 563.662 1103.03 470.519 1201.29 459.377 z" fill="rgb(43,51,56)" transform="translate(0,0)"></path>
<path d="M 848.529 1102.38 C 861.351 1100.35 884.753 1103.34 894.379 1111.78 C 941.006 1152.67 878.709 1199.64 839.198 1204.85 C 750.988 1217.87 750.848 1114.93 848.529 1102.38 z" fill="rgb(43,51,56)" transform="translate(0,0)"></path>
<path d="M 536.665 1449.3 C 555.652 1448.06 569.013 1450.76 585.63 1460.77 C 606.638 1473.42 613.552 1495.08 598.815 1515.88 C 588.083 1531.03 568.65 1538.32 550.826 1541.1 C 533.562 1543.63 514.93 1540.56 500.342 1530.65 C 481.894 1518.11 470.681 1496.48 485.962 1476.58 C 498.567 1460.16 516.763 1452.67 536.665 1449.3 z" fill="rgb(118,125,127)" transform="translate(0,0)"></path>
<path d="M 541.352 1462.39 C 551.676 1461.05 579.998 1463.31 582.646 1476.59 C 588.174 1504.32 555.465 1517.37 534.06 1522.41 C 524.301 1523.67 513.268 1524.33 504.25 1519.66 C 491.265 1512.94 487.027 1500.64 494.645 1487.73 C 505.364 1469.56 521.817 1464.92 541.352 1462.39 z" fill="rgb(157,154,149)" transform="translate(0,0)"></path>
<path d="M 1494.86 1449.36 C 1511.97 1447.67 1536.56 1454.34 1549.12 1465.96 C 1586.34 1500.44 1550.76 1538.05 1511.51 1541.24 C 1427.97 1542.09 1411.04 1461.54 1494.86 1449.36 z" fill="rgb(118,125,127)" transform="translate(0,0)"></path>
<path d="M 1488.2 1459.13 C 1495.75 1458.52 1503.05 1458.62 1510.51 1459.78 C 1517.44 1460.87 1524.16 1463.07 1530.39 1466.3 C 1557.55 1480.35 1563.51 1510.37 1527.21 1519.78 C 1508.38 1522 1496.26 1520.38 1480.56 1508.91 C 1456.9 1491.61 1456.52 1465.82 1488.2 1459.13 z" fill="rgb(157,154,149)" transform="translate(0,0)"></path>
<path d="M 1165.77 1357.83 C 1138.38 1352.73 1135.43 1325.67 1143.62 1303.47 C 1149.69 1286.85 1162.18 1273.37 1178.29 1266.06 C 1202.73 1255.1 1231.39 1259.16 1242.5 1286.26 C 1243.94 1292.75 1242.72 1298.39 1240.81 1304.54 L 1242.84 1309.1 C 1242.74 1319.07 1231.28 1335.77 1224.4 1342.71 C 1210.88 1356.37 1184.29 1366.77 1165.77 1357.83 z" fill="rgb(118,125,127)" transform="translate(0,0)"></path>
<path d="M 1165.77 1357.83 C 1167.54 1357.5 1169.19 1357.21 1171 1357.07 C 1200.8 1354.78 1229.73 1331.31 1240.81 1304.54 L 1242.84 1309.1 C 1242.74 1319.07 1231.28 1335.77 1224.4 1342.71 C 1210.88 1356.37 1184.29 1366.77 1165.77 1357.83 z" fill="rgb(43,51,56)" transform="translate(0,0)"></path>
<path d="M 636.79 858.308 C 665.492 857.91 699.651 913.157 688.183 939.399 C 681.865 953.859 668.146 962.651 653.897 968.33 C 586.629 982.147 580.993 870.103 636.79 858.308 z" fill="rgb(43,51,56)" transform="translate(0,0)"></path>
<path d="M 1408.48 1153.3 C 1440.62 1154.48 1450.57 1181 1435.78 1206.93 C 1422.05 1231 1401.54 1246.64 1375.26 1254.21 C 1313.43 1262.82 1337.51 1160.65 1408.48 1153.3 z" fill="rgb(43,51,56)" transform="translate(0,0)"></path>
<path d="M 1406.89 860.07 C 1458.88 856.422 1462.62 959.524 1401.54 963.397 C 1388.61 962.612 1361.65 954.778 1360.46 940.386 C 1358.38 915.42 1381.22 866.212 1406.89 860.07 z" fill="rgb(43,51,56)" transform="translate(0,0)"></path>
<path d="M 751.07 1474.4 C 743.276 1465.71 742.682 1457.44 746.976 1446.19 C 760.412 1410.99 836.837 1400.47 850.073 1440.39 C 857.657 1462.97 833.088 1483.01 813.985 1489.66 C 802.779 1493.66 790.76 1494.84 778.992 1493.08 C 768.774 1491.61 755.201 1484.3 751.07 1474.4 z" fill="rgb(118,125,127)" transform="translate(0,0)"></path>
<path d="M 850.073 1440.39 C 857.657 1462.97 833.088 1483.01 813.985 1489.66 C 802.779 1493.66 790.76 1494.84 778.992 1493.08 C 768.774 1491.61 755.201 1484.3 751.07 1474.4 L 752.541 1475.06 C 767.027 1481.42 773.257 1484.07 790.002 1482.2 C 810.384 1479.93 843.385 1465.39 849.15 1443.93 L 850.073 1440.39 z" fill="rgb(43,51,56)" transform="translate(0,0)"></path>
<path d="M 556.586 1194.3 C 574.638 1192.24 581.299 1195.34 596.208 1204.75 C 616.998 1217.88 666.286 1273.07 615.084 1281.08 C 598.097 1281.35 583.055 1278.41 567.263 1269.37 C 549.853 1259.41 521.284 1228.16 533.547 1206.27 C 537.991 1198.33 548.026 1195.98 556.586 1194.3 z" fill="rgb(43,51,56)" transform="translate(0,0)"></path>
<path d="M 554.065 1200.26 C 561.826 1199.58 569.566 1198.83 576.379 1203.31 C 578.199 1204.5 582.362 1207.86 580.188 1210.23 C 578.128 1212.48 572.914 1212.52 570.149 1212.75 C 567.223 1212.82 543.997 1213.74 542.921 1213.22 C 534.837 1209.28 551.521 1201.21 554.065 1200.26 z" fill="rgb(228,139,75)" transform="translate(0,0)"></path>
<path d="M 1189.19 1126.34 C 1252.29 1117.71 1273.84 1180.98 1207.88 1194.67 C 1198.33 1195.8 1194.54 1196.21 1184.99 1195.07 C 1177.31 1194.2 1169.91 1191.66 1163.3 1187.64 C 1146.85 1177.81 1141.86 1161 1153.26 1144.63 C 1161.63 1132.59 1175.38 1128.71 1189.19 1126.34 z" fill="rgb(43,51,56)" transform="translate(0,0)"></path>
<path d="M 1213.76 1438.15 C 1243.32 1435.48 1259.95 1454.36 1256.18 1483.5 C 1255.34 1490.28 1253.11 1496.81 1249.62 1502.69 C 1242.96 1514.15 1233.1 1521.44 1220.32 1524.8 C 1190.7 1527.88 1174.39 1509.15 1178.4 1479.01 C 1181.01 1459.36 1193.99 1443.3 1213.76 1438.15 z" fill="rgb(43,51,56)" transform="translate(0,0)"></path>
<path d="M 421.768 1507.15 C 442.193 1506.15 449.489 1510.04 466.515 1521.12 C 486.33 1534 517.534 1567.89 477.762 1579.59 L 475.836 1579.96 C 421.732 1590.69 370.969 1520.71 421.768 1507.15 z" fill="rgb(43,51,56)" transform="translate(0,0)"></path>
<path d="M 1610.08 1507.18 C 1621.82 1506.23 1633.8 1506.33 1641.9 1516.56 C 1646.02 1521.76 1647.79 1528.44 1646.78 1535 C 1643.2 1558.25 1613.19 1577.77 1591.2 1579.76 C 1575.99 1581.65 1549.25 1579.12 1552.14 1556.51 C 1555.12 1533.18 1588.45 1512.63 1610.08 1507.18 z" fill="rgb(43,51,56)" transform="translate(0,0)"></path>
<path d="M 1262.11 1355.25 C 1318.86 1350.48 1316.86 1413.15 1267.58 1425.31 L 1265.91 1425.83 C 1211.6 1434.58 1203.91 1367.56 1258.58 1355.96 L 1262.11 1355.25 z" fill="rgb(43,51,56)" transform="translate(0,0)"></path>
<path d="M 765.153 1351.31 C 771.359 1350.64 779.374 1350.49 785.518 1351.8 C 790.723 1352.89 795.771 1354.63 800.542 1356.98 C 806.63 1360 811.821 1365.48 813.643 1372.02 C 820.068 1395.08 795.211 1410.49 777.192 1415.98 L 775.942 1416.33 C 758.402 1421.14 730.687 1412.33 728.289 1391.49 C 725.724 1369.19 739.967 1355.61 761.016 1352.01 L 765.153 1351.31 z" fill="rgb(43,51,56)" transform="translate(0,0)"></path>
<path d="M 1316.82 539.125 C 1360.47 537.94 1390.27 594.819 1351.36 606.334 C 1300.17 611.715 1278.63 549.06 1316.82 539.125 z" fill="rgb(43,51,56)" transform="translate(0,0)"></path>
<path d="M 1231.29 1198.16 C 1240.27 1197.46 1246.3 1196.76 1254.6 1200.76 C 1284.22 1215.06 1273.43 1249.71 1245.48 1257.83 C 1242.47 1258.7 1244.95 1257.89 1241.99 1258.89 C 1195.1 1268.45 1181.69 1209.53 1231.29 1198.16 z" fill="rgb(43,51,56)" transform="translate(0,0)"></path>
<path d="M 826.859 1513.3 C 837.976 1512.12 844.787 1512.15 855.416 1516.28 C 876.401 1524.43 898.191 1550.11 867.153 1562.58 C 856.737 1563.57 851.882 1563.22 842.016 1560.74 C 818.309 1554.8 794.515 1527.66 826.859 1513.3 z" fill="rgb(78,87,91)" transform="translate(0,0)"></path>
<path d="M 866.203 1336.12 C 900.598 1336.29 901.904 1387.58 868.751 1398.81 C 830.009 1400.67 835.969 1347.73 866.203 1336.12 z" fill="rgb(118,125,127)" transform="translate(0,0)"></path>
<path d="M 711.341 596.361 C 756.559 598.662 728.982 638.743 692.448 642.359 C 645.815 642.12 673.91 600.919 711.341 596.361 z" fill="rgb(128,133,135)" transform="translate(0,0)"></path>
<path d="M 940.38 793.123 C 980.833 790.757 989.438 829.45 957.346 838.933 C 942.33 839.543 928.866 836.486 923.484 820.914 C 918.47 806.405 928.164 797.569 940.38 793.123 z" fill="rgb(78,87,91)" transform="translate(0,0)"></path>
<path d="M 912.72 1311.23 C 928.004 1310.14 955.061 1312.85 950.595 1337.67 C 949.65 1342.92 938.885 1347.43 933.994 1349.06 C 893.603 1353.14 876.244 1321.86 912.72 1311.23 z" fill="rgb(43,51,56)" transform="translate(0,0)"></path>
<path d="M 1242.5 1286.26 C 1242.8 1285.73 1243.1 1285.21 1243.4 1284.68 C 1249.24 1253.8 1292.71 1257.08 1286.13 1290.51 C 1282.92 1306.82 1272.64 1315.61 1255.49 1312.89 C 1249.83 1311.99 1248.12 1308.02 1245.33 1304.33 C 1243.87 1304.23 1243.19 1308.05 1242.84 1309.1 L 1240.81 1304.54 C 1242.72 1298.39 1243.94 1292.75 1242.5 1286.26 z" fill="rgb(43,51,56)" transform="translate(0,0)"></path>
<path d="M 1110.92 1300.26 C 1140.31 1297.71 1146.88 1330.72 1112.78 1336.43 C 1074.25 1337.55 1083.11 1305.85 1107.55 1300.92 L 1110.92 1300.26 z" fill="rgb(43,51,56)" transform="translate(0,0)"></path>
<path d="M 1093.88 453.162 C 1106.3 452.367 1121.99 453.311 1127.72 466.167 C 1132.52 476.946 1126.58 482.8 1117.47 486.642 C 1093.72 488.147 1064.73 465.98 1093.88 453.162 z" fill="rgb(43,51,56)" transform="translate(0,0)"></path>
<path d="M 1194.36 1383.18 C 1222.45 1386.79 1212.94 1416.67 1195.75 1422.44 L 1194.07 1423.03 C 1183.16 1423.13 1181.71 1421.83 1175.65 1412.56 L 1175.13 1411.77 C 1175.98 1404.83 1176.48 1398.23 1180.22 1391.98 C 1182.71 1387.86 1186.77 1384.92 1191.46 1383.83 C 1191.78 1383.77 1192.11 1383.7 1192.43 1383.63 L 1194.36 1383.18 z" fill="rgb(43,51,56)" transform="translate(0,0)"></path>
<path d="M 909.192 496.044 C 911.298 495.908 914.959 495.515 916.979 496.127 C 919.218 496.786 921.093 498.327 922.173 500.396 C 928.268 512.274 909.189 528.356 900.097 533.101 C 873.76 536.992 890.004 504.355 909.192 496.044 z" fill="rgb(118,125,127)" transform="translate(0,0)"></path>
<path d="M 1240.4 104.191 C 1257.27 79.0084 1277.82 61.5787 1308.22 55.5775 C 1334.32 50.4551 1361.38 55.9374 1383.42 70.8122 C 1401.8 83.1458 1412.03 96.4187 1422.64 115.334 C 1437.13 108.2 1450.44 103.134 1466.69 101.774 C 1513.97 97.8182 1563.47 126.934 1584.23 169.335 C 1597.97 197.793 1599.98 230.511 1589.82 260.435 C 1578.56 293.282 1555.36 315.966 1522.31 326.082 C 1519.12 376.223 1482.4 410.428 1431.49 406.654 C 1408.88 404.979 1393.19 395.898 1376.12 381.554 C 1372.6 387.861 1369.7 393.096 1364.64 398.263 C 1327.89 435.747 1273.89 431.288 1240.72 393.584 C 1234.64 400.114 1230.66 404.062 1223.36 409.285 C 1220.15 411.582 1214.53 414.981 1211.97 417.453 C 1206.08 417.781 1201.44 419.413 1195.75 420.31 C 1185.04 421.407 1181.71 419.353 1171.95 419.001 C 1167.07 417.778 1163.88 417.055 1159.17 415.087 C 1141.74 439.246 1110.45 441.419 1083.79 433.675 C 1067.91 472.319 1019.75 473.381 984.545 466.859 C 977.97 473.328 972.513 478.761 962.701 479.25 C 953.479 479.71 946.193 472.279 947.345 463.097 C 949.226 448.107 961.984 441.483 975.073 438.565 C 979.082 440.078 984.523 443.335 988.091 440.762 C 981.714 429.949 976.161 417.094 976.705 404.279 C 976.931 398.953 978.62 396.434 978.102 390.696 L 976.203 389.287 C 976.394 389.196 978.819 387.845 978.826 387.829 C 982.799 379.373 986.467 369.507 992.808 362.489 C 1005.32 348.642 1021.22 344.926 1038.82 343.758 C 1042.88 336.479 1045.04 332.69 1050.05 326.133 C 1022.9 304.781 1006.67 278.872 1012.41 243.205 C 1014.96 226.39 1024.28 211.35 1038.2 201.583 C 1055.17 189.922 1073.3 188.504 1092.98 192.036 C 1092.29 123.805 1148.24 68.1217 1219.02 92.4843 C 1224.78 94.4661 1234.79 100.97 1240.4 104.191 z" fill="rgb(78,87,91)" transform="translate(0,0)"></path>
<path d="M 1092.98 192.036 C 1092.29 123.805 1148.24 68.1217 1219.02 92.4843 C 1224.78 94.4661 1234.79 100.97 1240.4 104.191 C 1234.22 114.993 1232.22 120.461 1228.63 132.436 C 1211.51 124.895 1197.48 121.697 1178.97 128.83 C 1163.69 134.725 1151.45 146.569 1145.06 161.65 C 1136.55 181.703 1139.73 201.886 1146.46 221.816 C 1071.79 190.893 1041.68 279.275 1097.69 329.912 C 1076.58 338.497 1067.8 348.896 1071.15 372.971 C 1065.04 371.349 1059.47 369.615 1053.14 370.53 C 1019.11 375.449 1007.85 400.555 1014.79 430.627 C 1005.45 432.991 995.882 434.842 988.091 440.762 C 981.714 429.949 976.161 417.094 976.705 404.279 C 976.931 398.953 978.62 396.434 978.102 390.696 L 976.203 389.287 C 976.394 389.196 978.819 387.845 978.826 387.829 C 982.799 379.373 986.467 369.507 992.808 362.489 C 1005.32 348.642 1021.22 344.926 1038.82 343.758 C 1042.88 336.479 1045.04 332.69 1050.05 326.133 C 1022.9 304.781 1006.67 278.872 1012.41 243.205 C 1014.96 226.39 1024.28 211.35 1038.2 201.583 C 1055.17 189.922 1073.3 188.504 1092.98 192.036 z" fill="rgb(224,214,199)" transform="translate(0,0)"></path>
<metadata><recraft-signature>{"signed_by": "recraft", "signature_b64": "bRxqsLCgYZ6KpWhcP/Ep5l5QvOGqTh1ii6WWrPmy2BKvQDcMWcZKR96YC0R1p6SJ5mjGzxYF5XuT2FeF9w7+Ag==", "signing_algo": "Ed25519", "generation_timestamp": 1778558295, "identifier": "606e6027-dfe9-4eaa-a49a-f082f3837e9e"}</recraft-signature></metadata></svg>