<svg xmlns="http://www.w3.org/2000/svg" height="1024" preserveAspectRatio="none" style="display: block;" version="1.1" viewBox="0 0 2048 2048" width="1024">
<defs>
	<linearGradient gradientUnits="userSpaceOnUse" id="Gradient1" x1="1545.69" x2="1550.68" y1="1013.86" y2="1012.5">
		<stop class="stop0" offset="0" stop-color="rgb(255,255,255)" stop-opacity="0.796078"></stop>
		<stop class="stop1" offset="1" stop-color="rgb(255,255,255)" stop-opacity="0.839216"></stop>
	</linearGradient>
	<linearGradient gradientUnits="userSpaceOnUse" id="Gradient2" x1="1518.07" x2="1747.97" y1="975.187" y2="1089.02">
		<stop class="stop0" offset="0" stop-color="rgb(254,254,254)" stop-opacity="0.835294"></stop>
		<stop class="stop1" offset="1" stop-color="rgb(255,255,255)" stop-opacity="0.921569"></stop>
	</linearGradient>
</defs>
<path d="M 1047.51 304.89 C 1052.14 292.489 1058.71 280.075 1074.22 285.291 C 1094.64 292.163 1100.75 330.647 1124.49 326.064 C 1133.38 324.348 1133.71 309.704 1136.21 303.953 C 1151.81 328.654 1171.16 352.975 1185.67 376.815 C 1193.42 386.766 1201.08 397.067 1208.47 407.312 C 1224.52 429.576 1242.5 450.633 1258.78 472.663 C 1294.03 515.747 1326.61 560.952 1356.34 608.023 C 1361.17 615.724 1374.16 635.737 1377.14 642.779 C 1392.63 668.306 1420.37 718.265 1432.28 744.753 C 1445.12 768.809 1458.7 798.893 1469.78 823.948 C 1482.46 852.61 1497.61 886.543 1508.42 915.775 C 1511.07 923.173 1513.86 930.52 1516.79 937.813 C 1518.26 943.473 1522.15 952.223 1524.33 957.839 C 1526.8 965 1529.65 972.03 1532.3 979.124 C 1533.09 983.027 1538.65 998.121 1540.24 1002.48 C 1541.44 1006.28 1542.41 1009.79 1544.11 1013.42 C 1544.65 1016.06 1545.44 1017.64 1545.99 1020.09 L 1548.14 1025.83 C 1552.66 1038.8 1557.78 1059.96 1563.29 1071.55 C 1567.58 1085.26 1571.4 1099.11 1575.64 1112.84 L 1576.21 1114.62 C 1576.5 1115.75 1578.45 1123.06 1578.48 1123.74 C 1582.15 1138.53 1586.29 1154.13 1589.39 1168.98 C 1592.07 1179.41 1597.9 1209.28 1600.88 1216.83 L 1600.55 1219.94 C 1609.72 1254.7 1612.24 1284.73 1617.94 1319.68 C 1618.42 1322.72 1620.44 1333.95 1620.05 1336.21 C 1624.02 1347.64 1623.22 1393.17 1626.6 1405.69 C 1627.24 1413.82 1628.96 1451.59 1629.84 1455.64 C 1629.74 1465.07 1629.9 1514.02 1628.48 1520.8 C 1627.24 1550.96 1623.38 1580.95 1616.96 1610.44 C 1608.17 1651.06 1599.22 1670.59 1586.28 1709.06 C 1580.15 1726.78 1552.3 1776.33 1539.69 1791.02 C 1521.06 1816.23 1482.05 1862.25 1455.82 1879.32 C 1437.15 1895.62 1409.97 1912.26 1387.04 1922.62 C 1363.08 1933.72 1341.15 1942.88 1315.78 1950.88 C 1153.84 2001.97 984.863 2008.62 818.986 1974.36 C 766.512 1963.52 708.007 1946.77 660.482 1922.57 C 651.43 1917.88 642.067 1913.42 633.405 1908.07 C 622.165 1901.27 611.316 1893.85 600.911 1885.83 C 593.126 1881.02 584.101 1872.34 576.906 1866.35 C 547.881 1842.18 530.092 1820.32 508 1790.38 C 494.269 1776.13 468.439 1727.11 460.772 1708.24 C 449.663 1680.14 439.998 1650.74 433.379 1621.21 L 430.177 1608.57 C 423.082 1579.44 418.33 1547.52 418.118 1517.56 C 417.941 1495.73 417.758 1475.29 418.964 1453.49 C 418.9 1435.67 420.866 1412.56 422.396 1394.6 C 425.447 1373.25 426.23 1353.02 430.412 1331.21 C 431.054 1325.5 431.647 1320.27 431.942 1314.52 C 411.113 1310.33 397.941 1304.07 378.806 1295.44 C 403.596 1256.8 404.775 1248.61 417.744 1207.29 L 447.097 1217.89 L 449.347 1207.72 C 449.945 1198.99 457.034 1172.72 459.215 1161.68 C 464.112 1145.21 469.187 1125.18 473.358 1108.45 C 476.963 1095.55 480.277 1082.94 485.02 1070.41 C 497.589 1025.3 513.374 982.776 529.506 938.951 C 531.689 934.76 534.929 925.421 536.487 920.87 C 536.719 920.247 536.951 919.623 537.184 919 C 540.935 910.666 544.175 902.112 546.885 893.383 L 547.253 892.64 C 572.011 841.988 588.844 789.598 618.426 738.825 C 618.986 736.52 625.601 723.47 626.953 720.767 C 639.581 695.076 653.321 669.946 668.132 645.448 C 696.656 592.407 747.235 519.644 787.464 473.383 C 812.179 442.068 837.523 411.206 860.261 378.408 C 861.225 377.018 862.266 376.384 863.676 375.576 C 868.772 371.391 867.371 368.274 870.885 362.884 C 883.887 342.938 897.762 323.546 911.193 303.872 C 913.14 313.915 915.844 328.929 929.637 324.977 C 951.009 318.853 957.6 276.055 984.587 286.389 C 1000.46 293.577 998.959 331.209 1031.69 323.1 C 1038.36 321.448 1043.37 314.385 1046.49 308.667 L 1047.51 304.89 z" fill="rgb(128,189,198)" transform="translate(0,0)"></path>
<path d="M 1047.51 304.89 C 1052.14 292.489 1058.71 280.075 1074.22 285.291 C 1094.64 292.163 1100.75 330.647 1124.49 326.064 C 1133.38 324.348 1133.71 309.704 1136.21 303.953 C 1151.81 328.654 1171.16 352.975 1185.67 376.815 C 1193.42 386.766 1201.08 397.067 1208.47 407.312 C 1224.52 429.576 1242.5 450.633 1258.78 472.663 C 1294.03 515.747 1326.61 560.952 1356.34 608.023 C 1361.17 615.724 1374.16 635.737 1377.14 642.779 C 1392.63 668.306 1420.37 718.265 1432.28 744.753 C 1445.12 768.809 1458.7 798.893 1469.78 823.948 C 1482.46 852.61 1497.61 886.543 1508.42 915.775 C 1511.07 923.173 1513.86 930.52 1516.79 937.813 C 1518.26 943.473 1522.15 952.223 1524.33 957.839 C 1526.8 965 1529.65 972.03 1532.3 979.124 C 1533.09 983.027 1538.65 998.121 1540.24 1002.48 C 1541.44 1006.28 1542.41 1009.79 1544.11 1013.42 C 1544.65 1016.06 1545.44 1017.64 1545.99 1020.09 L 1548.14 1025.83 C 1552.66 1038.8 1557.78 1059.96 1563.29 1071.55 C 1553.74 1080.56 1545.33 1083.32 1532.57 1083.74 C 1496.49 1085.82 1478.6 1057.42 1456.32 1034.66 C 1434.63 1013.92 1406.3 1008.73 1378.79 1020 C 1352.49 1030.78 1346.04 1048.48 1328.41 1067.16 L 1327.49 1068.12 L 1326.57 1069.18 C 1312.04 1082.46 1299.22 1089.26 1279.23 1088.52 C 1243.97 1087.22 1232.71 1064.33 1208.44 1045.61 C 1173.34 1018.56 1129.74 1019.49 1097.4 1050.4 C 1073.19 1073.53 1060.08 1092.42 1022.74 1091.18 C 984.654 1089.92 974.74 1067.36 950.037 1046.78 C 911.059 1014.3 865.569 1019.52 830.726 1055.18 C 812.523 1073.81 792.558 1085.59 765.757 1084.57 C 725.326 1083.04 713.969 1054.47 685.749 1033.64 C 654.52 1010.59 612.911 1015.37 585.287 1041.86 C 563.715 1062.54 548.086 1082.84 515.441 1080.89 C 503.581 1080.18 494.978 1077.29 485.02 1070.41 C 497.589 1025.3 513.374 982.776 529.506 938.951 C 531.689 934.76 534.929 925.421 536.487 920.87 C 536.719 920.247 536.951 919.623 537.184 919 C 540.935 910.666 544.175 902.112 546.885 893.383 L 547.253 892.64 C 572.011 841.988 588.844 789.598 618.426 738.825 C 618.986 736.52 625.601 723.47 626.953 720.767 C 639.581 695.076 653.321 669.946 668.132 645.448 C 696.656 592.407 747.235 519.644 787.464 473.383 C 812.179 442.068 837.523 411.206 860.261 378.408 C 861.225 377.018 862.266 376.384 863.676 375.576 C 868.772 371.391 867.371 368.274 870.885 362.884 C 883.887 342.938 897.762 323.546 911.193 303.872 C 913.14 313.915 915.844 328.929 929.637 324.977 C 951.009 318.853 957.6 276.055 984.587 286.389 C 1000.46 293.577 998.959 331.209 1031.69 323.1 C 1038.36 321.448 1043.37 314.385 1046.49 308.667 L 1047.51 304.89 z" fill="rgb(128,189,198)" transform="translate(0,0)"></path>
<path d="M 1047.51 304.89 C 1052.14 292.489 1058.71 280.075 1074.22 285.291 C 1094.64 292.163 1100.75 330.647 1124.49 326.064 C 1133.38 324.348 1133.71 309.704 1136.21 303.953 C 1151.81 328.654 1171.16 352.975 1185.67 376.815 C 1193.42 386.766 1201.08 397.067 1208.47 407.312 C 1224.52 429.576 1242.5 450.633 1258.78 472.663 C 1294.03 515.747 1326.61 560.952 1356.34 608.023 C 1361.17 615.724 1374.16 635.737 1377.14 642.779 C 1362.73 657.387 1350.47 653.422 1336.45 639.531 C 1330.92 633.958 1325.99 627.833 1321.72 621.252 C 1311.95 606.133 1272.36 521.544 1244.12 548.933 C 1228.35 564.228 1244.09 610.168 1252.56 626.777 C 1268.99 652.494 1287.68 730.31 1236.96 733.288 C 1238.62 741.164 1245.34 765.652 1249 771.967 C 1233.3 768.988 1222.52 765.027 1211.77 752.231 C 1207.37 746.997 1208.73 749.988 1203.85 752.276 C 1201.66 747.992 1198.86 742.532 1193.33 745.478 C 1187.39 757.089 1196.34 785.882 1173.2 793.544 C 1166.64 779.903 1149.19 748.019 1136.22 743.493 C 1091.88 729.066 1084.91 799.249 1079.34 826.874 C 1072.2 862.223 1038.13 896.28 1001.77 874.584 C 958.599 848.82 980.114 774.065 940.523 745.399 C 910.574 723.714 892.306 776.229 882.135 792.855 L 881.571 793.757 C 865.585 771.766 873.605 766.147 867.723 749.885 L 865.621 748.982 C 861.656 749.436 863.23 748.606 860.598 751.282 C 857.139 762.474 863.841 782.054 868.331 792.545 C 851.498 790.47 837.114 792.011 821.091 796.946 C 818.562 795.049 815.767 792.345 813.38 790.16 C 807.521 783.869 805.641 780.138 802.848 771.954 C 801.493 767.488 802.189 767.336 799.301 764.511 C 795.199 764.444 795.851 764.9 791.676 767.16 C 763.817 758.63 762.496 709.61 764.933 687.131 C 765.395 682.865 764.917 676 760.605 674.001 C 743.217 679.173 703.295 768.086 692.333 786.672 C 688.083 794.019 682.989 800.844 677.153 807.007 C 664.061 820.629 640.114 834.202 623.579 816.996 C 610.131 803.002 611.523 777.772 614.774 760.159 C 616.019 753.409 618.608 745.768 618.426 738.825 C 618.986 736.52 625.601 723.47 626.953 720.767 C 639.581 695.076 653.321 669.946 668.132 645.448 C 696.656 592.407 747.235 519.644 787.464 473.383 C 812.179 442.068 837.523 411.206 860.261 378.408 C 861.225 377.018 862.266 376.384 863.676 375.576 C 868.772 371.391 867.371 368.274 870.885 362.884 C 883.887 342.938 897.762 323.546 911.193 303.872 C 913.14 313.915 915.844 328.929 929.637 324.977 C 951.009 318.853 957.6 276.055 984.587 286.389 C 1000.46 293.577 998.959 331.209 1031.69 323.1 C 1038.36 321.448 1043.37 314.385 1046.49 308.667 L 1047.51 304.89 z" fill="rgb(230,230,229)" transform="translate(0,0)"></path>
<path d="M 668.132 645.448 C 672.531 649.081 675.217 650.235 681.233 649.617 C 693.212 648.387 709.699 632.833 716.933 623.424 C 724.951 612.998 730.067 599.8 737.024 588.825 C 746.974 573.129 765.127 545.064 785.068 541.65 C 801.217 538.885 806.429 555.174 806.871 567.847 C 808.571 616.562 765.866 651.374 777.8 701.182 C 787.1 741.83 818.718 741.905 843.343 713.612 C 855.304 699.953 862.148 688.057 869.284 670.9 C 885.754 631.3 893.108 551.67 945.419 543.51 C 971.184 539.491 977.51 580.766 976.034 599.244 C 974.575 617.512 972.157 639.965 971.554 658.573 C 971.187 679.838 977.506 703.821 992.113 719.765 C 999.646 727.987 1013.97 735.323 1025.14 734.424 C 1068.37 730.946 1080.44 680.544 1078.35 645.199 C 1076.46 613.253 1064.32 578.576 1085.52 551.188 C 1098.63 537.478 1119.87 544.164 1130.86 557.084 C 1169.93 603.016 1163.98 671.936 1205.92 716.265 C 1212.68 723.419 1226.34 732.502 1236.37 733.079 L 1236.96 733.288 C 1238.62 741.164 1245.34 765.652 1249 771.967 C 1233.3 768.988 1222.52 765.027 1211.77 752.231 C 1207.37 746.997 1208.73 749.988 1203.85 752.276 C 1201.66 747.992 1198.86 742.532 1193.33 745.478 C 1187.39 757.089 1196.34 785.882 1173.2 793.544 C 1166.64 779.903 1149.19 748.019 1136.22 743.493 C 1091.88 729.066 1084.91 799.249 1079.34 826.874 C 1072.2 862.223 1038.13 896.28 1001.77 874.584 C 958.599 848.82 980.114 774.065 940.523 745.399 C 910.574 723.714 892.306 776.229 882.135 792.855 L 881.571 793.757 C 865.585 771.766 873.605 766.147 867.723 749.885 L 865.621 748.982 C 861.656 749.436 863.23 748.606 860.598 751.282 C 857.139 762.474 863.841 782.054 868.331 792.545 C 851.498 790.47 837.114 792.011 821.091 796.946 C 818.562 795.049 815.767 792.345 813.38 790.16 C 807.521 783.869 805.641 780.138 802.848 771.954 C 801.493 767.488 802.189 767.336 799.301 764.511 C 795.199 764.444 795.851 764.9 791.676 767.16 C 763.817 758.63 762.496 709.61 764.933 687.131 C 765.395 682.865 764.917 676 760.605 674.001 C 743.217 679.173 703.295 768.086 692.333 786.672 C 688.083 794.019 682.989 800.844 677.153 807.007 C 664.061 820.629 640.114 834.202 623.579 816.996 C 610.131 803.002 611.523 777.772 614.774 760.159 C 616.019 753.409 618.608 745.768 618.426 738.825 C 618.986 736.52 625.601 723.47 626.953 720.767 C 639.581 695.076 653.321 669.946 668.132 645.448 z" fill="rgb(8,78,97)" transform="translate(0,0)"></path>
<path d="M 802.848 771.954 C 806.601 771.917 809.816 771.723 813.497 770.944 C 828.163 767.84 842.277 739.814 846.994 742.727 C 848.95 743.935 850.705 747.229 850.951 749.494 C 851.669 756.095 845.78 765.025 841.743 769.781 C 833.646 779.318 824.055 784.236 813.38 790.16 C 807.521 783.869 805.641 780.138 802.848 771.954 z" fill="rgb(128,189,198)" transform="translate(0,0)"></path>
<path d="M 1047.51 304.89 C 1052.14 292.489 1058.71 280.075 1074.22 285.291 C 1094.64 292.163 1100.75 330.647 1124.49 326.064 C 1133.38 324.348 1133.71 309.704 1136.21 303.953 C 1151.81 328.654 1171.16 352.975 1185.67 376.815 C 1193.42 386.766 1201.08 397.067 1208.47 407.312 C 1224.52 429.576 1242.5 450.633 1258.78 472.663 C 1294.03 515.747 1326.61 560.952 1356.34 608.023 C 1361.17 615.724 1374.16 635.737 1377.14 642.779 C 1362.73 657.387 1350.47 653.422 1336.45 639.531 C 1330.92 633.958 1325.99 627.833 1321.72 621.252 C 1311.95 606.133 1272.36 521.544 1244.12 548.933 C 1228.35 564.228 1244.09 610.168 1252.56 626.777 C 1268.99 652.494 1287.68 730.31 1236.96 733.288 L 1236.37 733.079 C 1236.54 722.82 1215.62 679.777 1210.68 668.083 C 1180.92 597.667 1144.77 530.419 1106.37 464.392 C 1102.55 457.818 1090.69 430.231 1086.3 427.436 L 1086.82 426.95 C 1086.89 424.508 1078 406.268 1076.25 402.611 C 1073 395.844 1069.31 379.19 1065.09 374.503 L 1063.94 374.604 L 1046.49 308.667 L 1047.51 304.89 z" fill="rgb(128,189,198)" transform="translate(0,0)"></path>
<path d="M 1047.51 304.89 C 1052.14 292.489 1058.71 280.075 1074.22 285.291 C 1094.64 292.163 1100.75 330.647 1124.49 326.064 C 1133.38 324.348 1133.71 309.704 1136.21 303.953 C 1151.81 328.654 1171.16 352.975 1185.67 376.815 C 1193.42 386.766 1201.08 397.067 1208.47 407.312 C 1224.52 429.576 1242.5 450.633 1258.78 472.663 C 1232.18 481.536 1222.83 440.175 1205 438.902 C 1178.61 437.019 1197.65 497.021 1159.97 492.032 C 1118.51 486.544 1123.89 431.117 1086.82 426.95 C 1086.89 424.508 1078 406.268 1076.25 402.611 C 1073 395.844 1069.31 379.19 1065.09 374.503 L 1063.94 374.604 L 1046.49 308.667 L 1047.51 304.89 z" fill="rgb(4,137,141)" transform="translate(0,0)"></path>
<path d="M 1047.51 304.89 C 1052.14 292.489 1058.71 280.075 1074.22 285.291 C 1094.64 292.163 1100.75 330.647 1124.49 326.064 C 1133.38 324.348 1133.71 309.704 1136.21 303.953 C 1151.81 328.654 1171.16 352.975 1185.67 376.815 C 1160.46 370.272 1178.39 421.72 1152.91 423.031 C 1120.2 424.713 1100.63 334.93 1065.09 374.503 L 1063.94 374.604 L 1046.49 308.667 L 1047.51 304.89 z" fill="rgb(128,189,198)" transform="translate(0,0)"></path>
<path d="M 911.193 303.872 C 913.14 313.915 915.844 328.929 929.637 324.977 C 951.009 318.853 957.6 276.055 984.587 286.389 C 1000.46 293.577 998.959 331.209 1031.69 323.1 C 1038.36 321.448 1043.37 314.385 1046.49 308.667 L 1063.94 374.604 L 1065.09 374.503 C 1069.31 379.19 1073 395.844 1076.25 402.611 C 1078 406.268 1086.89 424.508 1086.82 426.95 L 1086.3 427.436 C 1054.41 440.868 1065.39 485.775 1029.53 492.596 C 1009.62 496.38 997.697 485.098 990.646 467.456 C 984.737 452.162 973.136 419.23 950.637 430.034 C 924.981 443.525 923.913 481.761 893.915 490.408 C 879.401 494.591 872.101 492.599 864.488 478.631 C 859.321 469.151 858.379 427.94 837.337 439.471 C 817.889 450.128 816.384 477.02 787.464 473.383 C 812.179 442.068 837.523 411.206 860.261 378.408 C 861.225 377.018 862.266 376.384 863.676 375.576 C 868.772 371.391 867.371 368.274 870.885 362.884 C 883.887 342.938 897.762 323.546 911.193 303.872 z" fill="rgb(6,161,167)" transform="translate(0,0)"></path>
<path d="M 911.193 303.872 C 913.14 313.915 915.844 328.929 929.637 324.977 C 951.009 318.853 957.6 276.055 984.587 286.389 C 1000.46 293.577 998.959 331.209 1031.69 323.1 C 1038.36 321.448 1043.37 314.385 1046.49 308.667 L 1063.94 374.604 C 1056.51 389.609 1052.77 407.953 1037.44 416.159 C 1030.88 419.626 1021.66 421.657 1014.41 419.172 C 991.904 412.905 990.994 370.837 970.24 365.668 C 932.065 356.16 929.184 431.798 889.937 421.052 C 875.021 416.968 880.894 391.736 874.401 381.36 C 871.478 376.689 868.771 376.649 863.676 375.576 C 868.772 371.391 867.371 368.274 870.885 362.884 C 883.887 342.938 897.762 323.546 911.193 303.872 z" fill="rgb(230,230,229)" transform="translate(0,0)"></path>
<path d="M 1236.96 733.288 C 1287.68 730.31 1268.99 652.494 1252.56 626.777 C 1244.09 610.168 1228.35 564.228 1244.12 548.933 C 1272.36 521.544 1311.95 606.133 1321.72 621.252 C 1325.99 627.833 1330.92 633.958 1336.45 639.531 C 1350.47 653.422 1362.73 657.387 1377.14 642.779 C 1392.63 668.306 1420.37 718.265 1432.28 744.753 C 1445.12 768.809 1458.7 798.893 1469.78 823.948 C 1482.46 852.61 1497.61 886.543 1508.42 915.775 C 1511.07 923.173 1513.86 930.52 1516.79 937.813 C 1518.26 943.473 1522.15 952.223 1524.33 957.839 C 1526.8 965 1529.65 972.03 1532.3 979.124 C 1533.09 983.027 1538.65 998.121 1540.24 1002.48 C 1541.44 1006.28 1542.41 1009.79 1544.11 1013.42 C 1544.65 1016.06 1545.44 1017.64 1545.99 1020.09 L 1548.14 1025.83 C 1552.66 1038.8 1557.78 1059.96 1563.29 1071.55 C 1553.74 1080.56 1545.33 1083.32 1532.57 1083.74 C 1496.49 1085.82 1478.6 1057.42 1456.32 1034.66 C 1434.63 1013.92 1406.3 1008.73 1378.79 1020 C 1352.49 1030.78 1346.04 1048.48 1328.41 1067.16 L 1327.49 1068.12 C 1324.3 1042.07 1318.74 1010.71 1314.26 984.694 C 1308.13 949.021 1300.08 903.443 1289.63 869.21 C 1298.32 868.407 1306.59 866.698 1314.15 862.215 C 1320.71 858.322 1336.53 849.603 1330.26 840.483 C 1321.12 839.134 1302.56 868.41 1285.66 858.013 C 1286.07 851.578 1281.02 838.637 1277.32 834.015 C 1289.64 832.391 1310.5 809.755 1307.5 797.756 C 1304.58 794.344 1306.31 795.355 1302.51 794.063 C 1297.36 797.15 1295.77 807.692 1291.46 812.53 C 1286.25 818.38 1280.87 822.057 1274.38 826.213 C 1265.12 811.303 1266.02 808.289 1251.38 796.038 C 1256.77 786.759 1261.22 775.935 1260.69 765.013 C 1256 766.066 1253.42 766.291 1251.09 770.987 L 1249 771.967 C 1245.34 765.652 1238.62 741.164 1236.96 733.288 z" fill="rgb(6,161,167)" transform="translate(0,0)"></path>
<path d="M 1236.96 733.288 C 1287.68 730.31 1268.99 652.494 1252.56 626.777 C 1244.09 610.168 1228.35 564.228 1244.12 548.933 C 1272.36 521.544 1311.95 606.133 1321.72 621.252 C 1325.99 627.833 1330.92 633.958 1336.45 639.531 C 1350.47 653.422 1362.73 657.387 1377.14 642.779 C 1392.63 668.306 1420.37 718.265 1432.28 744.753 C 1431.16 761.318 1448.29 803.308 1429.53 818.256 C 1368.46 866.94 1317.91 676.239 1286.43 672.575 C 1278.39 676.863 1280.4 692.615 1280.57 700.855 C 1281.1 726.113 1278.67 746.072 1260.69 765.013 C 1256 766.066 1253.42 766.291 1251.09 770.987 L 1249 771.967 C 1245.34 765.652 1238.62 741.164 1236.96 733.288 z" fill="rgb(3,43,55)" transform="translate(0,0)"></path>
<path d="M 1173.2 793.544 C 1196.34 785.882 1187.39 757.089 1193.33 745.478 C 1198.86 742.532 1201.66 747.992 1203.85 752.276 C 1208.73 749.988 1207.37 746.997 1211.77 752.231 C 1222.52 765.027 1233.3 768.988 1249 771.967 L 1251.09 770.987 C 1253.42 766.291 1256 766.066 1260.69 765.013 C 1261.22 775.935 1256.77 786.759 1251.38 796.038 C 1266.02 808.289 1265.12 811.303 1274.38 826.213 C 1280.87 822.057 1286.25 818.38 1291.46 812.53 C 1295.77 807.692 1297.36 797.15 1302.51 794.063 C 1306.31 795.355 1304.58 794.344 1307.5 797.756 C 1310.5 809.755 1289.64 832.391 1277.32 834.015 C 1281.02 838.637 1286.07 851.578 1285.66 858.013 C 1302.56 868.41 1321.12 839.134 1330.26 840.483 C 1336.53 849.603 1320.71 858.322 1314.15 862.215 C 1306.59 866.698 1298.32 868.407 1289.63 869.21 C 1287.63 873.424 1288.86 886.188 1288.41 892.745 C 1287.38 906.285 1283.46 919.447 1276.9 931.337 C 1264.62 953.562 1243.96 969.941 1219.51 976.812 C 1194.9 983.562 1169.95 981.328 1147.7 968.514 C 1126.29 956.059 1110.68 935.635 1104.29 911.706 C 1097.83 886.755 1101.57 860.258 1114.68 838.069 C 1127.59 816.125 1148.61 800.134 1173.2 793.544 z" fill="rgb(254,253,253)" transform="translate(0,0)"></path>
<path d="M 1203.85 752.276 C 1208.73 749.988 1207.37 746.997 1211.77 752.231 C 1222.52 765.027 1233.3 768.988 1249 771.967 L 1251.09 770.987 C 1248.92 778.356 1246.14 785.515 1242.2 792.134 C 1223.25 781.733 1216.51 777.219 1203.29 760.527 C 1202.5 756.902 1202.82 755.82 1203.85 752.276 z" fill="rgb(128,189,198)" transform="translate(0,0)"></path>
<path d="M 1203.29 760.527 C 1216.51 777.219 1223.25 781.733 1242.2 792.134 C 1239 795.595 1237.47 796.986 1233.8 799.852 C 1218.14 794.384 1209.48 792.065 1192.66 790.961 C 1198.64 778.871 1201.63 774.357 1203.29 760.527 z" fill="rgb(8,78,97)" transform="translate(0,0)"></path>
<path d="M 1251.38 796.038 C 1266.02 808.289 1265.12 811.303 1274.38 826.213 C 1266.52 828.499 1269.13 828.458 1262.52 821.962 C 1256.34 815.894 1249.9 810.784 1243.02 805.613 C 1246.23 802.266 1248.45 799.574 1251.38 796.038 z" fill="rgb(8,78,97)" transform="translate(0,0)"></path>
<path d="M 1285.66 858.013 C 1282.66 851.659 1279.69 845.026 1276.12 838.994 C 1274.21 835.774 1273.74 836.416 1277.32 834.015 C 1281.02 838.637 1286.07 851.578 1285.66 858.013 z" fill="rgb(3,43,55)" transform="translate(0,0)"></path>
<path d="M 1181.77 810.153 C 1211.1 806.387 1240.19 818.704 1257.9 842.389 C 1275.61 866.075 1279.2 897.46 1267.3 924.532 C 1255.39 951.605 1229.83 970.171 1200.4 973.125 C 1155.77 977.606 1115.81 945.398 1110.72 900.829 C 1105.62 856.26 1137.27 815.864 1181.77 810.153 z" fill="rgb(230,230,229)" transform="translate(0,0)"></path>
<path d="M 1183.79 853.385 C 1195.79 850.604 1208.36 854.486 1216.7 863.551 C 1225.04 872.615 1227.86 885.462 1224.09 897.189 C 1220.33 908.917 1210.55 917.714 1198.49 920.225 C 1180.13 924.046 1162.12 912.385 1158.09 894.073 C 1154.06 875.761 1165.52 857.618 1183.79 853.385 z" fill="rgb(34,35,37)" transform="translate(0,0)"></path>
<path d="M 868.331 792.545 C 863.841 782.054 857.139 762.474 860.598 751.282 C 863.23 748.606 861.656 749.436 865.621 748.982 L 867.723 749.885 C 873.605 766.147 865.585 771.766 881.571 793.757 C 894.864 800.581 905.572 806.096 916.583 816.586 C 946.807 845.375 956.884 893.861 936.928 931.419 C 925.247 953.352 905.245 969.673 881.415 976.719 C 856.18 984.265 831.874 981.592 808.872 968.822 C 786.076 956.421 769.418 935.15 762.843 910.045 C 758.664 894.69 758.445 883.88 760.24 868.331 C 741.955 870.141 730.115 866.375 715.678 854.576 C 709.745 849.728 706.358 844.336 708.815 836.627 L 710.338 835.275 C 722.865 837.178 721.17 860.216 762.063 859.326 C 765.933 849.248 768.303 842.76 774.691 834.043 C 764.256 830.982 757.968 828.068 749.906 820.454 C 744.434 815.286 728.297 797.161 741.253 792.264 C 750.095 795.524 755.724 820.638 774.958 823.397 C 783.03 810.162 788.129 801.293 802.034 793.486 C 796.76 783.396 793.581 778.362 791.676 767.16 C 795.851 764.9 795.199 764.444 799.301 764.511 C 802.189 767.336 801.493 767.488 802.848 771.954 C 805.641 780.138 807.521 783.869 813.38 790.16 C 815.767 792.345 818.562 795.049 821.091 796.946 C 837.114 792.011 851.498 790.47 868.331 792.545 z" fill="rgb(254,253,253)" transform="translate(0,0)"></path>
<path d="M 802.034 793.486 C 804.979 796.577 807.432 798.744 810.623 801.541 C 800.163 808.952 790.872 814.981 781.506 824.161 C 781.393 824.272 775.796 823.457 774.958 823.397 C 783.03 810.162 788.129 801.293 802.034 793.486 z" fill="rgb(8,78,97)" transform="translate(0,0)"></path>
<path d="M 847.509 810.879 C 891.9 805.19 932.568 836.378 938.584 880.726 C 944.6 925.074 913.712 965.969 869.41 972.312 C 824.644 978.721 783.226 947.438 777.147 902.627 C 771.068 857.815 802.654 816.629 847.509 810.879 z" fill="rgb(230,230,229)" transform="translate(0,0)"></path>
<path d="M 856.267 852.849 C 874.898 849.172 892.98 861.302 896.644 879.936 C 900.307 898.57 888.163 916.643 869.526 920.293 C 850.909 923.938 832.859 911.809 829.2 893.195 C 825.54 874.581 837.655 856.522 856.267 852.849 z" fill="rgb(34,35,37)" transform="translate(0,0)"></path>
<path d="M 1327.49 1068.12 L 1328.41 1067.16 C 1346.04 1048.48 1352.49 1030.78 1378.79 1020 C 1406.3 1008.73 1434.63 1013.92 1456.32 1034.66 C 1478.6 1057.42 1496.49 1085.82 1532.57 1083.74 C 1545.33 1083.32 1553.74 1080.56 1563.29 1071.55 C 1567.58 1085.26 1571.4 1099.11 1575.64 1112.84 L 1576.21 1114.62 C 1576.5 1115.75 1578.45 1123.06 1578.48 1123.74 C 1582.15 1138.53 1586.29 1154.13 1589.39 1168.98 C 1592.07 1179.41 1597.9 1209.28 1600.88 1216.83 L 1600.55 1219.94 C 1609.72 1254.7 1612.24 1284.73 1617.94 1319.68 C 1618.42 1322.72 1620.44 1333.95 1620.05 1336.21 C 1624.02 1347.64 1623.22 1393.17 1626.6 1405.69 C 1627.24 1413.82 1628.96 1451.59 1629.84 1455.64 C 1629.74 1465.07 1629.9 1514.02 1628.48 1520.8 L 1627.32 1519.43 C 1617.23 1519.64 1602.17 1532.05 1595.03 1539.6 C 1569.68 1566.39 1564.58 1604.75 1520.54 1608.6 C 1508.92 1609.37 1495.36 1602.94 1487.63 1594.83 C 1463.86 1569.91 1456.68 1526.1 1413.73 1526.31 C 1361.36 1526.56 1351.57 1587.58 1312.89 1607.72 C 1312.97 1604.13 1331.95 1564.23 1335.07 1554.17 C 1302.32 1564.55 1279.03 1544.04 1268.4 1515.19 C 1263.66 1502.31 1263.61 1492.51 1262.43 1479.14 C 1264.64 1440.7 1272.99 1431.1 1287.62 1396.89 C 1299.6 1368.87 1306.52 1335.61 1307.05 1305.23 C 1318.84 1326.21 1329.3 1347.37 1340.65 1368.56 C 1340.98 1325.66 1341.56 1286.16 1338.96 1243.04 C 1322.44 1259.31 1309.31 1266.15 1285.99 1266.99 C 1250.77 1268.26 1235.02 1247.15 1212.65 1224.34 C 1184.69 1195.83 1138.45 1191.68 1106.83 1216.98 C 1078.63 1239.32 1067.98 1266.26 1026.43 1267.11 C 991.279 1269.31 974.562 1244.61 952.658 1223.29 C 914.72 1186.36 856.394 1195.11 824.882 1235.68 C 812.138 1252.08 790.455 1262.67 769.909 1263.08 C 735.458 1263.77 716.126 1242.87 694.44 1219.34 C 683.356 1207.85 665.89 1199.33 650.021 1196.95 C 582.464 1186.8 578.2 1256.21 520.096 1258.15 C 497.019 1258.22 475.909 1246.13 463.387 1226.88 C 460.461 1222.39 452.871 1210.79 449.347 1207.72 C 449.945 1198.99 457.034 1172.72 459.215 1161.68 C 464.112 1145.21 469.187 1125.18 473.358 1108.45 C 476.963 1095.55 480.277 1082.94 485.02 1070.41 C 494.978 1077.29 503.581 1080.18 515.441 1080.89 C 548.086 1082.84 563.715 1062.54 585.287 1041.86 C 612.911 1015.37 654.52 1010.59 685.749 1033.64 C 713.969 1054.47 725.326 1083.04 765.757 1084.57 C 792.558 1085.59 812.523 1073.81 830.726 1055.18 C 865.569 1019.52 911.059 1014.3 950.037 1046.78 C 974.74 1067.36 984.654 1089.92 1022.74 1091.18 C 1060.08 1092.42 1073.19 1073.53 1097.4 1050.4 C 1129.74 1019.49 1173.34 1018.56 1208.44 1045.61 C 1232.71 1064.33 1243.97 1087.22 1279.23 1088.52 C 1299.22 1089.26 1312.04 1082.46 1326.57 1069.18 L 1327.49 1068.12 z" fill="rgb(6,161,167)" transform="translate(0,0)"></path>
<path d="M 485.02 1070.41 C 494.978 1077.29 503.581 1080.18 515.441 1080.89 C 548.086 1082.84 563.715 1062.54 585.287 1041.86 C 612.911 1015.37 654.52 1010.59 685.749 1033.64 C 713.969 1054.47 725.326 1083.04 765.757 1084.57 C 792.558 1085.59 812.523 1073.81 830.726 1055.18 C 865.569 1019.52 911.059 1014.3 950.037 1046.78 C 974.74 1067.36 984.654 1089.92 1022.74 1091.18 C 1060.08 1092.42 1073.19 1073.53 1097.4 1050.4 C 1129.74 1019.49 1173.34 1018.56 1208.44 1045.61 C 1232.71 1064.33 1243.97 1087.22 1279.23 1088.52 C 1299.22 1089.26 1312.04 1082.46 1326.57 1069.18 C 1330.53 1077.6 1329.96 1108.65 1333.06 1118.27 L 1332.83 1119.27 C 1333.33 1138.99 1334.04 1158.91 1334.3 1178.61 C 1301.98 1210.21 1260.06 1209.95 1229.96 1175.68 C 1209.78 1152.66 1189.82 1135.74 1157.99 1134.71 C 1127.92 1133.72 1104.16 1149.02 1085.3 1171.49 C 1054.01 1208.74 1004.55 1212.3 970.368 1176.66 C 962.117 1168.06 953.74 1158.13 943.989 1151.12 C 908.046 1123.91 862.231 1130.85 831.77 1162.51 C 812.916 1182.1 797.02 1198.14 768.044 1197.8 C 715.106 1199.53 705.451 1146.47 659.652 1134.05 C 629.466 1125.87 600.339 1136.07 579.487 1159.01 C 563.581 1176.87 547.496 1194.05 521.545 1194.74 C 507.768 1195.12 490.434 1189.51 479.251 1181.36 C 472.454 1176.41 465.063 1167.91 459.215 1161.68 C 464.112 1145.21 469.187 1125.18 473.358 1108.45 C 476.963 1095.55 480.277 1082.94 485.02 1070.41 z" fill="rgb(128,189,198)" transform="translate(0,0)"></path>
<path d="M 485.02 1070.41 C 494.978 1077.29 503.581 1080.18 515.441 1080.89 C 548.086 1082.84 563.715 1062.54 585.287 1041.86 C 612.911 1015.37 654.52 1010.59 685.749 1033.64 C 713.969 1054.47 725.326 1083.04 765.757 1084.57 C 792.558 1085.59 812.523 1073.81 830.726 1055.18 C 865.569 1019.52 911.059 1014.3 950.037 1046.78 C 974.74 1067.36 984.654 1089.92 1022.74 1091.18 C 1060.08 1092.42 1073.19 1073.53 1097.4 1050.4 C 1129.74 1019.49 1173.34 1018.56 1208.44 1045.61 C 1232.71 1064.33 1243.97 1087.22 1279.23 1088.52 C 1299.22 1089.26 1312.04 1082.46 1326.57 1069.18 C 1330.53 1077.6 1329.96 1108.65 1333.06 1118.27 L 1332.83 1119.27 C 1327.74 1125.82 1309.63 1135.95 1301.08 1138.28 C 1228.8 1158 1224.35 1073.37 1153.13 1075.61 C 1084.98 1077.76 1084.42 1150.79 1014.97 1141.16 C 975.663 1135.71 963.922 1101.88 932.42 1084.86 C 920.137 1078.22 906.321 1074.95 892.367 1075.37 C 829.3 1076.79 828.146 1139.52 765.67 1137.27 C 721.906 1135.69 710.478 1099.84 677.386 1081.29 C 643.537 1062.32 601.192 1074.55 578.067 1104.28 C 554.139 1134.04 520.691 1144.89 486.565 1124.25 C 480.805 1120.77 474.849 1115.28 473.358 1108.45 C 476.963 1095.55 480.277 1082.94 485.02 1070.41 z" fill="rgb(230,230,229)" transform="translate(0,0)"></path>
<path d="M 1620.05 1336.21 C 1624.02 1347.64 1623.22 1393.17 1626.6 1405.69 C 1627.24 1413.82 1628.96 1451.59 1629.84 1455.64 C 1629.74 1465.07 1629.9 1514.02 1628.48 1520.8 L 1627.32 1519.43 C 1617.23 1519.64 1602.17 1532.05 1595.03 1539.6 C 1569.68 1566.39 1564.58 1604.75 1520.54 1608.6 C 1508.92 1609.37 1495.36 1602.94 1487.63 1594.83 C 1463.86 1569.91 1456.68 1526.1 1413.73 1526.31 C 1361.36 1526.56 1351.57 1587.58 1312.89 1607.72 C 1312.97 1604.13 1331.95 1564.23 1335.07 1554.17 C 1353.29 1545.32 1363.88 1536.03 1372.83 1517.25 C 1395.15 1470.44 1372 1436.92 1357.1 1394.83 C 1365.65 1365.48 1389.55 1331.89 1423.99 1340.29 C 1481.43 1354.3 1469.07 1423.77 1495.45 1462.58 C 1507.43 1480.22 1528.34 1491.41 1547.34 1477.38 C 1594.03 1442.89 1572.39 1369.43 1620.05 1336.21 z" fill="rgb(3,43,55)" transform="translate(0,0)"></path>
<path d="M 1335.26 1178.46 C 1357.02 1152.39 1375.43 1128.91 1412.34 1128.9 C 1469.02 1128.89 1476.18 1198.77 1533.68 1196.62 C 1558.04 1195.71 1572.66 1185.97 1589.39 1168.98 C 1592.07 1179.41 1597.9 1209.28 1600.88 1216.83 L 1600.55 1219.94 C 1593.19 1227.2 1587.21 1235.9 1579.55 1242.89 C 1551.3 1268.67 1509.94 1268.22 1483.2 1240.43 C 1476.66 1232.99 1469.63 1225.37 1463.27 1217.81 C 1435.88 1185.23 1385.1 1185.05 1358.77 1219.16 C 1353.03 1226.6 1346.95 1236.02 1339.9 1242.56 L 1338.77 1243.6 C 1337.24 1221.91 1336.06 1200.19 1335.26 1178.46 z" fill="rgb(4,137,141)" transform="translate(0,0)"></path>
<path d="M 1327.49 1068.12 L 1328.41 1067.16 C 1346.04 1048.48 1352.49 1030.78 1378.79 1020 C 1406.3 1008.73 1434.63 1013.92 1456.32 1034.66 C 1478.6 1057.42 1496.49 1085.82 1532.57 1083.74 C 1545.33 1083.32 1553.74 1080.56 1563.29 1071.55 C 1567.58 1085.26 1571.4 1099.11 1575.64 1112.84 L 1576.21 1114.62 C 1576.5 1115.75 1578.45 1123.06 1578.48 1123.74 C 1563.05 1126.98 1559.23 1138.78 1535.06 1138.25 C 1501.1 1137.51 1487.38 1120.33 1465.62 1097.39 C 1450.78 1081.76 1428.75 1068.83 1406.79 1069.5 C 1369.22 1070.2 1356.32 1094.73 1333.68 1117.65 L 1333.06 1118.27 C 1329.96 1108.65 1330.53 1077.6 1326.57 1069.18 L 1327.49 1068.12 z" fill="rgb(128,189,198)" transform="translate(0,0)"></path>
<path d="M 1313.79 1332.48 C 1324.81 1345.16 1351.04 1445.37 1354.03 1464.57 C 1356.75 1482.04 1357.54 1503.37 1346.23 1518.07 C 1338.68 1527.89 1328.74 1532.79 1316.67 1534.17 L 1315.21 1533.98 C 1279.14 1529.09 1272.15 1498.78 1274.85 1467.84 C 1277.32 1439.53 1292.5 1417.01 1301.02 1390.49 C 1307.17 1371.36 1310.59 1352.25 1313.79 1332.48 z" fill="rgb(128,189,198)" transform="translate(0,0)"></path>
<path d="M 1312.89 1607.72 C 1351.57 1587.58 1361.36 1526.56 1413.73 1526.31 C 1456.68 1526.1 1463.86 1569.91 1487.63 1594.83 C 1495.36 1602.94 1508.92 1609.37 1520.54 1608.6 C 1564.58 1604.75 1569.68 1566.39 1595.03 1539.6 C 1602.17 1532.05 1617.23 1519.64 1627.32 1519.43 L 1628.48 1520.8 C 1627.24 1550.96 1623.38 1580.95 1616.96 1610.44 C 1608.17 1651.06 1599.22 1670.59 1586.28 1709.06 C 1580.15 1726.78 1552.3 1776.33 1539.69 1791.02 C 1521.06 1816.23 1482.05 1862.25 1455.82 1879.32 C 1437.15 1895.62 1409.97 1912.26 1387.04 1922.62 C 1363.08 1933.72 1341.15 1942.88 1315.78 1950.88 C 1153.84 2001.97 984.863 2008.62 818.986 1974.36 C 766.512 1963.52 708.007 1946.77 660.482 1922.57 C 664.14 1916.02 669.255 1910.7 672.294 1905.04 L 672.71 1904.94 C 692.366 1904.33 711.651 1897.67 730.708 1897.72 L 730.567 1896.95 C 742.38 1894.46 759.283 1892.43 769.936 1887.6 L 772.087 1888.52 C 776.088 1886.45 809.649 1877.11 818.221 1874.14 C 869.539 1856.34 905.131 1835.54 947.113 1801.67 L 946.867 1800.53 C 956.67 1794.68 973.829 1780.92 981.734 1772.6 L 982.927 1773.28 C 993.573 1760.88 1037.06 1715.45 1041.66 1704.77 C 1045.26 1697.8 1058.63 1681.96 1063.81 1674.34 C 1071.45 1662.18 1082.44 1647.46 1089.29 1635.28 C 1121.27 1578.45 1174.52 1575.63 1214.61 1626.34 C 1221.37 1634.88 1231.94 1654.8 1241.23 1660.48 C 1246.51 1663.77 1252.91 1664.72 1258.91 1663.12 C 1279.62 1657.71 1298.38 1627.91 1308.23 1610.41 L 1312.89 1607.72 z" fill="rgb(3,43,55)" transform="translate(0,0)"></path>
<path d="M 947.113 1801.67 C 972.072 1819.65 976.859 1842.57 1014.22 1846.36 C 1070.51 1851.98 1080.12 1792.49 1134.24 1785.61 C 1196.27 1777.73 1192.98 1842.8 1246.72 1844.11 C 1302.11 1845.46 1316.37 1784.31 1371.77 1779.37 C 1427.57 1774.4 1408.23 1827.68 1453.5 1832.45 C 1489.37 1834.81 1503.5 1796.74 1539.69 1791.02 C 1521.06 1816.23 1482.05 1862.25 1455.82 1879.32 C 1437.15 1895.62 1409.97 1912.26 1387.04 1922.62 C 1363.08 1933.72 1341.15 1942.88 1315.78 1950.88 C 1153.84 2001.97 984.863 2008.62 818.986 1974.36 C 766.512 1963.52 708.007 1946.77 660.482 1922.57 C 664.14 1916.02 669.255 1910.7 672.294 1905.04 L 672.71 1904.94 C 692.366 1904.33 711.651 1897.67 730.708 1897.72 L 730.567 1896.95 C 742.38 1894.46 759.283 1892.43 769.936 1887.6 L 772.087 1888.52 C 776.088 1886.45 809.649 1877.11 818.221 1874.14 C 869.539 1856.34 905.131 1835.54 947.113 1801.67 z" fill="rgb(6,161,167)" transform="translate(0,0)"></path>
<path d="M 730.708 1897.72 C 762.372 1913.78 770.099 1940 807.796 1946.46 C 860.552 1955.49 859.493 1904.6 907.957 1902.81 C 918.865 1902.4 929.704 1904.71 939.495 1909.54 C 975.012 1926.99 988.243 1972.05 1038.69 1955.45 C 1074.43 1943.69 1081.32 1907.6 1121.4 1902.38 C 1179.02 1894.87 1183.47 1967.37 1244.76 1945.05 C 1267.07 1936.92 1277.05 1924.68 1295.34 1909.97 C 1312.85 1896.97 1342.96 1885.58 1364.07 1896.23 C 1376 1902.24 1381 1911.58 1387.04 1922.62 C 1363.08 1933.72 1341.15 1942.88 1315.78 1950.88 C 1153.84 2001.97 984.863 2008.62 818.986 1974.36 C 766.512 1963.52 708.007 1946.77 660.482 1922.57 C 664.14 1916.02 669.255 1910.7 672.294 1905.04 L 672.71 1904.94 C 692.366 1904.33 711.651 1897.67 730.708 1897.72 z" fill="rgb(3,43,55)" transform="translate(0,0)"></path>
<path d="M 947.113 1801.67 C 972.072 1819.65 976.859 1842.57 1014.22 1846.36 C 1070.51 1851.98 1080.12 1792.49 1134.24 1785.61 C 1196.27 1777.73 1192.98 1842.8 1246.72 1844.11 C 1302.11 1845.46 1316.37 1784.31 1371.77 1779.37 C 1427.57 1774.4 1408.23 1827.68 1453.5 1832.45 C 1489.37 1834.81 1503.5 1796.74 1539.69 1791.02 C 1521.06 1816.23 1482.05 1862.25 1455.82 1879.32 C 1452.03 1879.31 1446.46 1881.21 1442.9 1882.35 C 1431.65 1885.97 1414.03 1886.44 1405.77 1876.32 C 1392.24 1859.73 1387.85 1840.04 1360.54 1839.05 C 1302.22 1836.92 1287.35 1902.22 1230.04 1897.2 C 1215.32 1895.92 1204.3 1891.2 1194.37 1879.94 C 1176.74 1859.96 1165.27 1847.52 1136.92 1846.2 C 1116.9 1845.26 1095.84 1854.12 1081.66 1868.09 C 1063.17 1886.3 1047.37 1903.56 1019.27 1903.23 C 987.171 1903.87 970.574 1878.34 948.543 1860.53 C 925.571 1841.96 879.923 1840.12 859.74 1863.87 C 833.725 1894.49 812.767 1909.08 772.087 1888.52 C 776.088 1886.45 809.649 1877.11 818.221 1874.14 C 869.539 1856.34 905.131 1835.54 947.113 1801.67 z" fill="rgb(3,43,55)" transform="translate(0,0)"></path>
<path d="M 1312.89 1607.72 C 1351.57 1587.58 1361.36 1526.56 1413.73 1526.31 C 1456.68 1526.1 1463.86 1569.91 1487.63 1594.83 C 1495.36 1602.94 1508.92 1609.37 1520.54 1608.6 C 1564.58 1604.75 1569.68 1566.39 1595.03 1539.6 C 1602.17 1532.05 1617.23 1519.64 1627.32 1519.43 L 1628.48 1520.8 C 1627.24 1550.96 1623.38 1580.95 1616.96 1610.44 C 1564.37 1618.99 1561.16 1688.65 1510.05 1696.77 C 1450.75 1706.19 1465.44 1613.76 1400.52 1622 C 1343.44 1629.25 1335.93 1704.08 1277.52 1704.84 C 1264.86 1705.08 1252.48 1701.02 1242.43 1693.31 C 1209.78 1668.6 1201.71 1617.44 1145.58 1625.02 C 1093.97 1631.99 1086.95 1693.1 1041.66 1704.77 C 1045.26 1697.8 1058.63 1681.96 1063.81 1674.34 C 1071.45 1662.18 1082.44 1647.46 1089.29 1635.28 C 1121.27 1578.45 1174.52 1575.63 1214.61 1626.34 C 1221.37 1634.88 1231.94 1654.8 1241.23 1660.48 C 1246.51 1663.77 1252.91 1664.72 1258.91 1663.12 C 1279.62 1657.71 1298.38 1627.91 1308.23 1610.41 L 1312.89 1607.72 z" fill="rgb(6,161,167)" transform="translate(0,0)"></path>
<path d="M 982.927 1773.28 C 1011.6 1792.96 1042.28 1791.92 1067.89 1768.53 C 1090.8 1746.22 1105.91 1722.56 1140.24 1718.76 C 1187.83 1713.49 1201.61 1746.24 1230.31 1774.64 C 1237.58 1781.83 1252.56 1785.57 1263.44 1785.28 C 1317.58 1783.88 1331.19 1717.71 1383.75 1712.37 C 1430.64 1707.19 1432.16 1749.9 1457.72 1772.52 C 1463.7 1777.82 1474.28 1779.4 1482.34 1778.17 C 1531.48 1770.69 1534.69 1717.77 1585.05 1709.26 L 1586.28 1709.06 C 1580.15 1726.78 1552.3 1776.33 1539.69 1791.02 C 1503.5 1796.74 1489.37 1834.81 1453.5 1832.45 C 1408.23 1827.68 1427.57 1774.4 1371.77 1779.37 C 1316.37 1784.31 1302.11 1845.46 1246.72 1844.11 C 1192.98 1842.8 1196.27 1777.73 1134.24 1785.61 C 1080.12 1792.49 1070.51 1851.98 1014.22 1846.36 C 976.859 1842.57 972.072 1819.65 947.113 1801.67 L 946.867 1800.53 C 956.67 1794.68 973.829 1780.92 981.734 1772.6 L 982.927 1773.28 z" fill="rgb(6,161,167)" transform="translate(0,0)"></path>
<path d="M 418.118 1517.56 C 435.607 1519.49 447.18 1526.1 458.084 1540.03 C 478.134 1565.65 487.609 1603.16 526.013 1606.98 C 574.409 1611.8 578.969 1556.91 611.977 1535.85 C 639.768 1518.12 673.298 1528.28 693.209 1552.61 C 712.935 1579.06 726.116 1609.01 763.519 1612.28 C 801.157 1615.57 818.9 1588.02 838.214 1562.05 C 852.439 1542.92 876.709 1529.8 900.434 1532.41 C 920.561 1533.87 941.654 1548.23 953.58 1563.7 C 971.289 1588.08 987.553 1611.44 1020.19 1614.28 C 1036.46 1615.69 1056.65 1610.25 1068.14 1598.89 C 1096.43 1570.61 1114.29 1528.02 1161.96 1532.08 C 1180.39 1533.65 1202.36 1546.59 1212.64 1561.61 C 1236.06 1595.85 1260.54 1629.29 1308.23 1610.41 C 1298.38 1627.91 1279.62 1657.71 1258.91 1663.12 C 1252.91 1664.72 1246.51 1663.77 1241.23 1660.48 C 1231.94 1654.8 1221.37 1634.88 1214.61 1626.34 C 1174.52 1575.63 1121.27 1578.45 1089.29 1635.28 C 1082.44 1647.46 1071.45 1662.18 1063.81 1674.34 C 1058.63 1681.96 1045.26 1697.8 1041.66 1704.77 C 1037.06 1715.45 993.573 1760.88 982.927 1773.28 L 981.734 1772.6 C 973.829 1780.92 956.67 1794.68 946.867 1800.53 L 947.113 1801.67 C 905.131 1835.54 869.539 1856.34 818.221 1874.14 C 809.649 1877.11 776.088 1886.45 772.087 1888.52 L 769.936 1887.6 C 759.283 1892.43 742.38 1894.46 730.567 1896.95 L 730.708 1897.72 C 711.651 1897.67 692.366 1904.33 672.71 1904.94 L 672.294 1905.04 C 669.255 1910.7 664.14 1916.02 660.482 1922.57 C 651.43 1917.88 642.067 1913.42 633.405 1908.07 C 622.165 1901.27 611.316 1893.85 600.911 1885.83 C 593.126 1881.02 584.101 1872.34 576.906 1866.35 C 547.881 1842.18 530.092 1820.32 508 1790.38 C 494.269 1776.13 468.439 1727.11 460.772 1708.24 C 449.663 1680.14 439.998 1650.74 433.379 1621.21 L 430.177 1608.57 C 423.082 1579.44 418.33 1547.52 418.118 1517.56 z" fill="rgb(128,189,198)" transform="translate(0,0)"></path>
<path d="M 460.772 1708.24 C 467.128 1709.54 470.332 1709.56 476.885 1711.61 L 481.269 1715.25 C 517.231 1732.31 517.947 1766.01 556.945 1776.02 C 564.485 1777.96 573.865 1778.61 581.154 1775.73 C 611.766 1763.67 610.272 1722.44 646.383 1712.49 C 660.27 1708.66 673.592 1711.95 686.406 1717.51 C 724.056 1733.87 732.777 1777.9 777.269 1783.95 C 786.071 1785.15 795.712 1785.12 803.998 1781.93 C 841.941 1767.32 842.156 1721.16 891.439 1718.07 C 903.589 1717.31 915.738 1719.56 926.804 1724.64 C 956.959 1738.46 961.594 1756.13 981.734 1772.6 C 973.829 1780.92 956.67 1794.68 946.867 1800.53 L 947.113 1801.67 C 905.131 1835.54 869.539 1856.34 818.221 1874.14 C 809.649 1877.11 776.088 1886.45 772.087 1888.52 L 769.936 1887.6 C 759.283 1892.43 742.38 1894.46 730.567 1896.95 L 730.708 1897.72 C 711.651 1897.67 692.366 1904.33 672.71 1904.94 L 672.294 1905.04 C 669.255 1910.7 664.14 1916.02 660.482 1922.57 C 651.43 1917.88 642.067 1913.42 633.405 1908.07 C 622.165 1901.27 611.316 1893.85 600.911 1885.83 C 593.126 1881.02 584.101 1872.34 576.906 1866.35 C 547.881 1842.18 530.092 1820.32 508 1790.38 C 494.269 1776.13 468.439 1727.11 460.772 1708.24 z" fill="rgb(128,189,198)" transform="translate(0,0)"></path>
<path d="M 560.02 1822.36 C 560.855 1822.86 561.697 1823.35 562.546 1823.83 C 569.893 1827.94 579.542 1831.33 588.022 1831.51 C 625.574 1832.35 619.873 1789.05 656.138 1780.37 C 682.149 1774.14 706.108 1786.92 724.942 1803.78 C 738.454 1815.87 744.179 1824.04 759.835 1833.93 C 780.112 1847.41 813.455 1850.09 831.557 1831.43 C 849.145 1813.3 860.076 1792.58 887.384 1786.63 C 909.615 1781.78 928.003 1788.59 946.867 1800.53 L 947.113 1801.67 C 905.131 1835.54 869.539 1856.34 818.221 1874.14 C 809.649 1877.11 776.088 1886.45 772.087 1888.52 L 769.936 1887.6 C 759.283 1892.43 742.38 1894.46 730.567 1896.95 L 730.708 1897.72 C 711.651 1897.67 692.366 1904.33 672.71 1904.94 L 672.294 1905.04 C 669.255 1910.7 664.14 1916.02 660.482 1922.57 C 651.43 1917.88 642.067 1913.42 633.405 1908.07 C 622.165 1901.27 611.316 1893.85 600.911 1885.83 C 593.126 1881.02 584.101 1872.34 576.906 1866.35 C 547.881 1842.18 530.092 1820.32 508 1790.38 C 527.609 1796.35 531.858 1801.98 548.11 1814.37 C 551.173 1816.7 556.56 1821.21 560.02 1822.36 z" fill="rgb(8,78,97)" transform="translate(0,0)"></path>
<path d="M 600.911 1885.83 C 611.67 1886.74 628.692 1888.58 636.697 1880.59 C 655.298 1862.03 656.685 1838.01 691.682 1840.73 C 728.846 1843.62 743.498 1870.7 769.936 1887.6 C 759.283 1892.43 742.38 1894.46 730.567 1896.95 L 730.708 1897.72 C 711.651 1897.67 692.366 1904.33 672.71 1904.94 L 672.294 1905.04 C 669.255 1910.7 664.14 1916.02 660.482 1922.57 C 651.43 1917.88 642.067 1913.42 633.405 1908.07 C 622.165 1901.27 611.316 1893.85 600.911 1885.83 z" fill="rgb(128,189,198)" transform="translate(0,0)"></path>
<path d="M 672.71 1904.94 C 687.902 1889.49 709.955 1889.9 729.194 1896.69 C 729.651 1896.78 730.109 1896.87 730.567 1896.95 L 730.708 1897.72 C 711.651 1897.67 692.366 1904.33 672.71 1904.94 z" fill="rgb(8,78,97)" transform="translate(0,0)"></path>
<path d="M 633.405 1908.07 C 641.124 1907.41 647.259 1907.11 654.998 1906.83 C 660.461 1906.63 666.537 1905.07 672.294 1905.04 C 669.255 1910.7 664.14 1916.02 660.482 1922.57 C 651.43 1917.88 642.067 1913.42 633.405 1908.07 z" fill="rgb(6,161,167)" transform="translate(0,0)"></path>
<path d="M 460.772 1708.24 C 467.128 1709.54 470.332 1709.56 476.885 1711.61 L 481.269 1715.25 C 493.309 1739.6 518.971 1771.26 535.96 1792.68 C 540.884 1798.89 557.082 1816.82 560.02 1822.36 C 556.56 1821.21 551.173 1816.7 548.11 1814.37 C 531.858 1801.98 527.609 1796.35 508 1790.38 C 494.269 1776.13 468.439 1727.11 460.772 1708.24 z" fill="rgb(6,161,167)" transform="translate(0,0)"></path>
<path d="M 430.177 1608.57 C 445.569 1609.76 459.111 1618.54 468.925 1630.34 C 488.962 1654.43 500.807 1692.41 537.641 1695.28 C 581.298 1698.68 584.567 1651.78 612.645 1630.72 C 638.752 1611.14 672.997 1618.66 693.804 1642.2 C 715.12 1668.12 729.516 1701.24 768.017 1703.03 C 783.067 1703.73 801.622 1697.64 811.466 1686.88 C 836.778 1658.89 852.123 1622.45 896.495 1624.6 C 915.19 1625.5 935.746 1635.08 947.412 1649.73 C 975.885 1685.5 990.146 1713.46 1041.66 1704.77 C 1037.06 1715.45 993.573 1760.88 982.927 1773.28 L 981.734 1772.6 C 961.594 1756.13 956.959 1738.46 926.804 1724.64 C 915.738 1719.56 903.589 1717.31 891.439 1718.07 C 842.156 1721.16 841.941 1767.32 803.998 1781.93 C 795.712 1785.12 786.071 1785.15 777.269 1783.95 C 732.777 1777.9 724.056 1733.87 686.406 1717.51 C 673.592 1711.95 660.27 1708.66 646.383 1712.49 C 610.272 1722.44 611.766 1763.67 581.154 1775.73 C 573.865 1778.61 564.485 1777.96 556.945 1776.02 C 517.947 1766.01 517.231 1732.31 481.269 1715.25 L 476.885 1711.61 C 470.332 1709.56 467.128 1709.54 460.772 1708.24 C 449.663 1680.14 439.998 1650.74 433.379 1621.21 L 430.177 1608.57 z" fill="rgb(8,78,97)" transform="translate(0,0)"></path>
<path d="M 433.379 1621.21 C 438.933 1626.72 442.56 1637.73 446.515 1646 L 465.539 1686.76 C 469.101 1694.37 474.365 1703.89 476.885 1711.61 C 470.332 1709.56 467.128 1709.54 460.772 1708.24 C 449.663 1680.14 439.998 1650.74 433.379 1621.21 z" fill="rgb(3,43,55)" transform="translate(0,0)"></path>
<path d="M 430.412 1331.21 C 465.439 1359.84 466.447 1396.04 476.751 1436.19 C 486.941 1471.82 522.108 1506.06 552.873 1465.06 C 568.357 1444.43 570.916 1422.95 577.982 1398.67 C 589.947 1357.55 630.076 1319.58 672.989 1351.12 C 715.069 1382.04 697.507 1448.22 742.816 1478.05 C 765.503 1493.2 789.346 1484.21 804.03 1463.72 C 818.545 1443.46 821.208 1422.11 828.604 1399.12 C 837.364 1373.56 857.501 1345.58 886.274 1341.33 C 902.271 1339.03 918.511 1343.37 931.239 1353.32 C 973.104 1385.91 955.76 1449.91 1001.73 1479.37 C 1025.11 1493.28 1048.11 1486.4 1064.2 1466.16 C 1082.13 1443.62 1083.72 1419.83 1091.91 1393.92 C 1106.18 1348.83 1153.92 1322.15 1195.07 1354.22 C 1236.25 1386.31 1219.56 1449.68 1262.43 1479.14 C 1263.61 1492.51 1263.66 1502.31 1268.4 1515.19 C 1279.03 1544.04 1302.32 1564.55 1335.07 1554.17 C 1331.95 1564.23 1312.97 1604.13 1312.89 1607.72 L 1308.23 1610.41 C 1260.54 1629.29 1236.06 1595.85 1212.64 1561.61 C 1202.36 1546.59 1180.39 1533.65 1161.96 1532.08 C 1114.29 1528.02 1096.43 1570.61 1068.14 1598.89 C 1056.65 1610.25 1036.46 1615.69 1020.19 1614.28 C 987.553 1611.44 971.289 1588.08 953.58 1563.7 C 941.654 1548.23 920.561 1533.87 900.434 1532.41 C 876.709 1529.8 852.439 1542.92 838.214 1562.05 C 818.9 1588.02 801.157 1615.57 763.519 1612.28 C 726.116 1609.01 712.935 1579.06 693.209 1552.61 C 673.298 1528.28 639.768 1518.12 611.977 1535.85 C 578.969 1556.91 574.409 1611.8 526.013 1606.98 C 487.609 1603.16 478.134 1565.65 458.084 1540.03 C 447.18 1526.1 435.607 1519.49 418.118 1517.56 C 417.941 1495.73 417.758 1475.29 418.964 1453.49 C 418.9 1435.67 420.866 1412.56 422.396 1394.6 C 425.447 1373.25 426.23 1353.02 430.412 1331.21 z" fill="rgb(8,78,97)" transform="translate(0,0)"></path>
<path d="M 417.744 1207.29 L 447.097 1217.89 C 441.406 1249.11 435.001 1283.02 431.942 1314.52 C 411.113 1310.33 397.941 1304.07 378.806 1295.44 C 403.596 1256.8 404.775 1248.61 417.744 1207.29 z" fill="rgb(3,43,55)" transform="translate(0,0)"></path>
<path d="M 266.789 1390.84 C 217.047 1361.88 161.193 1302.2 128.851 1254.99 C 15.2693 1089.21 57.354 809.784 227.169 696.615 C 314.23 638.596 445.034 649.233 503.536 743.015 C 531.191 787.348 541.411 829.548 530.378 881.226 C 528.649 886.731 526.997 893.159 525.561 898.788 C 524.391 900.852 524.038 901.842 523.186 904.027 L 522.111 905.903 C 518.606 915.252 515.597 919.778 510.738 927.976 C 510.13 928.95 510.128 929.043 509.699 930.146 C 504.709 936.481 500.893 942.89 493.26 945.24 L 491.495 945.712 L 490.667 947.055 C 475.883 970.748 449.739 982.931 422.496 986.007 C 408.886 987.544 390.078 984.182 379.868 974.613 C 362.687 954.319 365.334 934.807 374.324 912.243 L 375.356 913.528 C 378.283 917.056 380.607 921.821 383.432 924.802 C 391.86 935.79 394.438 939.807 407.572 931.176 L 408.267 929.995 C 418.096 921.359 414.854 894.265 407.699 884.535 C 404.816 880.569 403.935 879.431 400.639 875.837 C 373.248 852.864 337.276 880.508 319.337 902.279 C 234.677 1005.02 301.954 1162.88 417.744 1207.29 C 404.775 1248.61 403.596 1256.8 378.806 1295.44 L 377.236 1295 C 365.571 1311.36 339.238 1337.85 323.882 1351.41 L 322.555 1351.18 C 311.353 1360.56 278.976 1386.77 266.789 1390.84 z M 405.994 968.453 C 402.361 969.879 399.794 970.9 396.024 971.971 C 404.536 977.528 414.263 974.748 405.994 968.453 z" fill="rgb(168,201,178)" transform="translate(0,0)"></path>
<path d="M 396.024 971.971 C 399.794 970.9 402.361 969.879 405.994 968.453 C 414.263 974.748 404.536 977.528 396.024 971.971 z" fill="rgb(168,201,178)" fill-opacity="0.894118" transform="translate(0,0)"></path>
<path d="M 266.789 1390.84 C 217.047 1361.88 161.193 1302.2 128.851 1254.99 C 15.2693 1089.21 57.354 809.784 227.169 696.615 C 314.23 638.596 445.034 649.233 503.536 743.015 C 531.191 787.348 541.411 829.548 530.378 881.226 C 528.649 886.731 526.997 893.159 525.561 898.788 C 524.391 900.852 524.038 901.842 523.186 904.027 L 522.111 905.903 C 518.606 915.252 515.597 919.778 510.738 927.976 C 510.13 928.95 510.128 929.043 509.699 930.146 C 504.709 936.481 500.893 942.89 493.26 945.24 C 493.012 939.727 500.219 922.02 501.891 914.436 C 520.79 828.754 450.067 737.264 362.006 736.861 C 225.193 736.235 126.85 893.293 126.007 1017.9 C 125.317 1119.91 164.683 1212.15 236.628 1283.44 C 263.398 1310.03 290.297 1331.01 322.555 1351.18 C 311.353 1360.56 278.976 1386.77 266.789 1390.84 z" fill="rgb(230,230,229)" transform="translate(0,0)"></path>
<path d="M 377.236 1295 C 313.732 1260.52 268.027 1221.94 232.108 1156.92 C 197.391 1094.57 191.957 1022.05 209.633 953.867 C 227.635 884.427 307.79 792.678 387.76 817.223 C 408.397 823.611 425.607 838.014 435.531 857.204 C 447.159 879.347 448.782 905.536 441.345 929.333 C 435.28 948.741 423.481 959.352 405.994 968.453 C 402.361 969.879 399.794 970.9 396.024 971.971 C 389.774 973.327 386.263 974.135 379.868 974.613 C 362.687 954.319 365.334 934.807 374.324 912.243 L 375.356 913.528 C 378.283 917.056 380.607 921.821 383.432 924.802 C 391.86 935.79 394.438 939.807 407.572 931.176 L 408.267 929.995 C 418.096 921.359 414.854 894.265 407.699 884.535 C 404.816 880.569 403.935 879.431 400.639 875.837 C 373.248 852.864 337.276 880.508 319.337 902.279 C 234.677 1005.02 301.954 1162.88 417.744 1207.29 C 404.775 1248.61 403.596 1256.8 378.806 1295.44 L 377.236 1295 z" fill="rgb(8,78,97)" transform="translate(0,0)"></path>
<path d="M 1520.54 900.272 L 1520.41 898.664 C 1519.3 885.164 1514.92 872.466 1514 859.016 C 1507.25 760.705 1580.97 669.023 1680.29 660.956 C 1857.49 646.564 1969.07 833.686 1980.04 989.521 C 1982.66 1026.79 1981.57 1090.6 1972.42 1126.97 C 1962.74 1139.09 1953.51 1153.08 1943.66 1165.62 C 1918.31 1197.9 1866.25 1253.54 1829.99 1273.35 L 1824.8 1278.35 C 1800.16 1293.88 1755.33 1321.97 1725.3 1315.63 C 1714.69 1313.39 1695.12 1302.9 1689.75 1293.17 L 1689.22 1293.11 C 1670.47 1303.69 1638.76 1313.75 1617.94 1319.68 C 1612.24 1284.73 1609.72 1254.7 1600.55 1219.94 L 1600.88 1216.83 C 1610.29 1213.72 1630.07 1207.3 1638.29 1202.44 C 1640.68 1198.77 1665.62 1185.9 1671.27 1181.77 C 1687.98 1169.57 1699.73 1155.17 1713.65 1140.64 L 1710.98 1144.49 C 1733.15 1126.52 1764.62 1065.27 1763.17 1033.09 C 1762.71 1022.95 1763.4 1013.11 1762.74 1003.52 C 1761.82 989.975 1757.7 974.908 1755.96 961.27 C 1754.14 948.978 1732.75 915.647 1732.55 907.188 C 1730.05 902.371 1719.3 890.983 1714.98 887.524 C 1698.52 874.326 1683.36 866.201 1661.99 867.937 L 1663.43 868.387 C 1664.02 868.556 1665.08 868.722 1665.37 869.378 C 1665.12 870.505 1661.27 872.583 1659.79 872.651 C 1657.96 872.736 1656.47 875.786 1655.47 877.024 C 1649.32 874.397 1647.64 879.353 1653.48 880.035 C 1656.99 880.592 1657.22 883.649 1660.3 885.898 C 1664.96 890.003 1662.64 895.932 1668.58 898.709 C 1673.34 900.938 1668.15 911.73 1676.92 912.71 C 1682.52 913.336 1680.14 929.112 1682.72 933.575 C 1684.65 936.894 1686.67 946.609 1684.84 950.43 C 1680.16 956.966 1682.77 968.836 1673.21 969.904 L 1668.7 973.952 C 1641.7 1001.29 1590.9 981.141 1565.86 960.763 C 1556.99 955.326 1548.4 945.146 1547 934.66 C 1532.85 929.923 1539.13 925.41 1529.11 921.629 L 1528.05 919.409 C 1525.85 911.498 1530.38 911.772 1522.36 903.067 C 1521.75 902.136 1521.15 901.204 1520.54 900.272 z" fill="rgb(168,201,178)" transform="translate(0,0)"></path>
<path d="M 1668.7 973.952 C 1597.19 974.218 1583.38 879.253 1627.72 836.662 C 1675.46 790.808 1745.67 820.338 1785.33 861.718 C 1833.11 911.572 1850.27 970.116 1849.19 1037.86 C 1847.95 1115.53 1815.67 1189.48 1759.56 1243.21 C 1736.67 1265.36 1716.89 1277.69 1689.75 1293.17 L 1689.22 1293.11 C 1670.47 1303.69 1638.76 1313.75 1617.94 1319.68 C 1612.24 1284.73 1609.72 1254.7 1600.55 1219.94 L 1600.88 1216.83 C 1610.29 1213.72 1630.07 1207.3 1638.29 1202.44 C 1640.68 1198.77 1665.62 1185.9 1671.27 1181.77 C 1687.98 1169.57 1699.73 1155.17 1713.65 1140.64 L 1710.98 1144.49 C 1733.15 1126.52 1764.62 1065.27 1763.17 1033.09 C 1762.71 1022.95 1763.4 1013.11 1762.74 1003.52 C 1761.82 989.975 1757.7 974.908 1755.96 961.27 C 1754.14 948.978 1732.75 915.647 1732.55 907.188 C 1730.05 902.371 1719.3 890.983 1714.98 887.524 C 1698.52 874.326 1683.36 866.201 1661.99 867.937 L 1663.43 868.387 C 1664.02 868.556 1665.08 868.722 1665.37 869.378 C 1665.12 870.505 1661.27 872.583 1659.79 872.651 C 1657.96 872.736 1656.47 875.786 1655.47 877.024 C 1649.32 874.397 1647.64 879.353 1653.48 880.035 C 1656.99 880.592 1657.22 883.649 1660.3 885.898 C 1664.96 890.003 1662.64 895.932 1668.58 898.709 C 1673.34 900.938 1668.15 911.73 1676.92 912.71 C 1682.52 913.336 1680.14 929.112 1682.72 933.575 C 1684.65 936.894 1686.67 946.609 1684.84 950.43 C 1680.16 956.966 1682.77 968.836 1673.21 969.904 L 1668.7 973.952 z" fill="rgb(8,78,97)" transform="translate(0,0)"></path>
<path d="M 1638.29 1202.44 C 1644.38 1200.13 1650.67 1196.44 1656.43 1193.31 C 1657.22 1234.12 1667.01 1258.96 1689.22 1293.11 C 1670.47 1303.69 1638.76 1313.75 1617.94 1319.68 C 1612.24 1284.73 1609.72 1254.7 1600.55 1219.94 L 1600.88 1216.83 C 1610.29 1213.72 1630.07 1207.3 1638.29 1202.44 z" fill="rgb(3,43,55)" transform="translate(0,0)"></path>
<path d="M 1661.99 867.937 L 1663.43 868.387 C 1664.02 868.556 1665.08 868.722 1665.37 869.378 C 1665.12 870.505 1661.27 872.583 1659.79 872.651 C 1657.96 872.736 1656.47 875.786 1655.47 877.024 C 1649.32 874.397 1647.64 879.353 1653.48 880.035 C 1656.99 880.592 1657.22 883.649 1660.3 885.898 C 1664.96 890.003 1662.64 895.932 1668.58 898.709 C 1673.34 900.938 1668.15 911.73 1676.92 912.71 C 1682.52 913.336 1680.14 929.112 1682.72 933.575 C 1684.65 936.894 1686.67 946.609 1684.84 950.43 C 1680.16 956.966 1682.77 968.836 1673.21 969.904 C 1684.77 948.066 1683.41 936.216 1673.45 913.997 C 1666.24 922.64 1658.71 941.138 1645.61 934.653 C 1631.04 927.44 1631.92 900.243 1638.27 888.023 C 1643.91 877.188 1649.05 872.22 1660.08 868.601 L 1661.99 867.937 z" fill="rgb(230,230,229)" transform="translate(0,0)"></path>
<path d="M 1732.55 907.188 C 1741.39 917.339 1747.56 929.505 1752.72 941.842 C 1793.83 1040.21 1742.53 1141.34 1656.43 1193.31 C 1650.67 1196.44 1644.38 1200.13 1638.29 1202.44 C 1640.68 1198.77 1665.62 1185.9 1671.27 1181.77 C 1687.98 1169.57 1699.73 1155.17 1713.65 1140.64 L 1710.98 1144.49 C 1733.15 1126.52 1764.62 1065.27 1763.17 1033.09 C 1762.71 1022.95 1763.4 1013.11 1762.74 1003.52 C 1761.82 989.975 1757.7 974.908 1755.96 961.27 C 1754.14 948.978 1732.75 915.647 1732.55 907.188 z" fill="rgb(254,253,253)" transform="translate(0,0)"></path>
<path d="M 1520.54 900.272 L 1520.41 898.664 C 1519.3 885.164 1514.92 872.466 1514 859.016 C 1507.25 760.705 1580.97 669.023 1680.29 660.956 C 1857.49 646.564 1969.07 833.686 1980.04 989.521 C 1982.66 1026.79 1981.57 1090.6 1972.42 1126.97 C 1962.74 1139.09 1953.51 1153.08 1943.66 1165.62 C 1918.31 1197.9 1866.25 1253.54 1829.99 1273.35 C 1834.26 1267.04 1839.76 1260.21 1844.42 1254.04 C 1895.86 1185.93 1924.83 1100.98 1921.88 1014.63 C 1919.41 929.788 1882.59 849.581 1819.87 792.39 C 1783.44 758.681 1736.75 734.826 1686.09 737.137 C 1646.14 739.328 1608.66 757.138 1581.73 786.725 C 1551.07 820.558 1542.81 857.447 1544.97 901.782 C 1547.21 914.978 1549.62 926.326 1554.12 938.93 C 1557.2 947.542 1563.18 953.003 1565.86 960.763 C 1556.99 955.326 1548.4 945.146 1547 934.66 C 1532.85 929.923 1539.13 925.41 1529.11 921.629 L 1528.05 919.409 C 1525.85 911.498 1530.38 911.772 1522.36 903.067 C 1521.75 902.136 1521.15 901.204 1520.54 900.272 z" fill="rgb(230,230,229)" transform="translate(0,0)"></path>
<path d="M 1661.99 867.937 C 1683.36 866.201 1698.52 874.326 1714.98 887.524 C 1719.3 890.983 1730.05 902.371 1732.55 907.188 C 1732.75 915.647 1754.14 948.978 1755.96 961.27 C 1757.7 974.908 1761.82 989.975 1762.74 1003.52 C 1763.4 1013.11 1762.71 1022.95 1763.17 1033.09 C 1764.62 1065.27 1733.15 1126.52 1710.98 1144.49 L 1713.65 1140.64 C 1699.73 1155.17 1687.98 1169.57 1671.27 1181.77 C 1665.62 1185.9 1640.68 1198.77 1638.29 1202.44 C 1630.07 1207.3 1610.29 1213.72 1600.88 1216.83 C 1597.9 1209.28 1592.07 1179.41 1589.39 1168.98 C 1586.29 1154.13 1582.15 1138.53 1578.48 1123.74 C 1578.45 1123.06 1576.5 1115.75 1576.21 1114.62 C 1579.92 1109.54 1581.18 1106.84 1577.62 1100.79 L 1576.62 1100.4 L 1577.12 1100.16 L 1576.44 1100.39 C 1575.61 1102.42 1578.05 1105.45 1576.48 1107 C 1574.92 1107.14 1574.22 1104.04 1574.21 1102.98 C 1574.18 1098.62 1567.43 1086.76 1570.49 1083.66 C 1573.09 1081.03 1568.1 1071.23 1567.37 1071.26 C 1566.44 1072.44 1567.83 1076.36 1566.32 1076.64 C 1566.17 1076.43 1564.08 1070.29 1564.91 1069.47 C 1571.95 1068.55 1559.74 1062 1562.6 1058.42 C 1563.61 1057.17 1563.91 1052.25 1561.51 1052.26 C 1560.78 1053.09 1561.54 1055.09 1560.55 1055.52 C 1558.75 1054.58 1557.44 1048.07 1556.62 1046.37 C 1555.35 1043.71 1557.62 1044.94 1557.52 1043.06 C 1557.48 1042.28 1555.57 1042.7 1555.22 1042.32 C 1555.23 1041.12 1558.46 1031.11 1554.26 1030.32 C 1552.83 1030.93 1553.22 1033.12 1552.53 1033.8 L 1552.31 1033.73 C 1551.73 1032.64 1552.53 1031.27 1551.83 1030.19 C 1551.65 1030.01 1550.08 1027.55 1550.21 1027.44 C 1551.4 1026.4 1554.02 1024.64 1552.38 1021.84 C 1550.91 1021.27 1548.73 1024.91 1548.14 1025.83 L 1545.99 1020.09 C 1558.66 1018.16 1554.04 1007.31 1552 1007.37 L 1551.86 1007.57 C 1552.03 1008.14 1552.08 1008.53 1552.17 1009.05 L 1551.68 1009.18 C 1551.53 1009.13 1549.17 1006.14 1546.4 1007.93 C 1545.49 1008.53 1544.68 1012.1 1544.11 1013.42 C 1542.41 1009.79 1541.44 1006.28 1540.24 1002.48 C 1540.48 1001.07 1542.64 987.736 1542.46 987.388 L 1542.4 987.405 C 1541.83 988.366 1541.4 988.954 1540.23 988.456 C 1540 979.219 1534.82 988.388 1535.4 979.982 C 1535.73 975.277 1540.58 965.176 1540.25 963.604 C 1538.11 953.584 1529.77 957.446 1534.71 944.748 C 1538.9 933.947 1531.54 928.621 1529.11 921.629 C 1539.13 925.41 1532.85 929.923 1547 934.66 C 1548.4 945.146 1556.99 955.326 1565.86 960.763 C 1590.9 981.141 1641.7 1001.29 1668.7 973.952 L 1673.21 969.904 C 1682.77 968.836 1680.16 956.966 1684.84 950.43 C 1686.67 946.609 1684.65 936.894 1682.72 933.575 C 1680.14 929.112 1682.52 913.336 1676.92 912.71 C 1668.15 911.73 1673.34 900.938 1668.58 898.709 C 1662.64 895.932 1664.96 890.003 1660.3 885.898 C 1657.22 883.649 1656.99 880.592 1653.48 880.035 C 1647.64 879.353 1649.32 874.397 1655.47 877.024 C 1656.47 875.786 1657.96 872.736 1659.79 872.651 C 1661.27 872.583 1665.12 870.505 1665.37 869.378 C 1665.08 868.722 1664.02 868.556 1663.43 868.387 L 1661.99 867.937 z M 1606.39 1213.85 C 1611.23 1209.3 1611.99 1206.8 1604.7 1204.9 C 1595.67 1210 1599.46 1211.9 1606.39 1213.85 z" fill="url(#Gradient2)" transform="translate(0,0)"></path>
<path d="M 1604.7 1204.9 C 1611.99 1206.8 1611.23 1209.3 1606.39 1213.85 C 1599.46 1211.9 1595.67 1210 1604.7 1204.9 z" fill="rgb(254,253,253)" fill-opacity="0.627451" transform="translate(0,0)"></path>
<path d="M 1972.42 1126.97 C 1952.44 1233.99 1877.35 1328.59 1788.53 1387.88 C 1738.61 1421.2 1689.65 1446.7 1629.84 1455.64 C 1628.96 1451.59 1627.24 1413.82 1626.6 1405.69 C 1623.22 1393.17 1624.02 1347.64 1620.05 1336.21 C 1620.44 1333.95 1618.42 1322.72 1617.94 1319.68 C 1638.76 1313.75 1670.47 1303.69 1689.22 1293.11 L 1689.75 1293.17 C 1695.12 1302.9 1714.69 1313.39 1725.3 1315.63 C 1755.33 1321.97 1800.16 1293.88 1824.8 1278.35 L 1829.99 1273.35 C 1866.25 1253.54 1918.31 1197.9 1943.66 1165.62 C 1953.51 1153.08 1962.74 1139.09 1972.42 1126.97 z" fill="rgb(128,189,198)" transform="translate(0,0)"></path>
<path d="M 1824.8 1278.35 C 1820.33 1285.15 1807.4 1296.71 1801.31 1302.56 C 1763.39 1338.98 1722.36 1366.76 1674.25 1388.23 C 1664.89 1392.36 1655.33 1396.04 1645.61 1399.26 C 1642 1400.46 1628.8 1404.43 1626.6 1405.69 C 1623.22 1393.17 1624.02 1347.64 1620.05 1336.21 C 1620.44 1333.95 1618.42 1322.72 1617.94 1319.68 C 1638.76 1313.75 1670.47 1303.69 1689.22 1293.11 L 1689.75 1293.17 C 1695.12 1302.9 1714.69 1313.39 1725.3 1315.63 C 1755.33 1321.97 1800.16 1293.88 1824.8 1278.35 z" fill="rgb(10,160,128)" transform="translate(0,0)"></path>
<path d="M 1023.39 45.4989 C 1024.6 50.7296 1025.72 55.982 1026.74 61.2535 C 1038.8 120.106 1073.54 194.864 1102.35 247.527 C 1112.19 265.515 1127.53 286.651 1136.21 303.953 C 1133.71 309.704 1133.38 324.348 1124.49 326.064 C 1100.75 330.647 1094.64 292.163 1074.22 285.291 C 1058.71 280.075 1052.14 292.489 1047.51 304.89 L 1046.49 308.667 C 1043.37 314.385 1038.36 321.448 1031.69 323.1 C 998.959 331.209 1000.46 293.577 984.587 286.389 C 957.6 276.055 951.009 318.853 929.637 324.977 C 915.844 328.929 913.14 313.915 911.193 303.872 C 920.634 285.685 935.554 265.457 945.479 246.703 C 976.027 188.981 1005.44 126.701 1020.48 62.9877 C 1021.08 57.4362 1022.38 50.9955 1023.39 45.4989 z" fill="rgb(128,189,198)" transform="translate(0,0)"></path>
<path d="M 1023.39 45.4989 C 1024.6 50.7296 1025.72 55.982 1026.74 61.2535 C 1038.8 120.106 1073.54 194.864 1102.35 247.527 C 1112.19 265.515 1127.53 286.651 1136.21 303.953 C 1133.71 309.704 1133.38 324.348 1124.49 326.064 C 1100.75 330.647 1094.64 292.163 1074.22 285.291 C 1058.71 280.075 1052.14 292.489 1047.51 304.89 C 1045.68 300.944 1044.28 293.641 1043.22 289.206 C 1029.7 232.344 1023.11 172.986 1022.92 114.562 C 1022.88 101.245 1022.57 88.2663 1022.02 75.0995 C 1021.76 69.2039 1023.15 66.7298 1020.48 62.9877 C 1021.08 57.4362 1022.38 50.9955 1023.39 45.4989 z" fill="rgb(6,161,167)" transform="translate(0,0)"></path>
<path d="M 1023.39 45.4989 C 1024.6 50.7296 1025.72 55.982 1026.74 61.2535 C 1022.06 68.693 1024.17 65.1386 1022.02 75.0995 C 1021.76 69.2039 1023.15 66.7298 1020.48 62.9877 C 1021.08 57.4362 1022.38 50.9955 1023.39 45.4989 z" fill="rgb(60,176,191)" transform="translate(0,0)"></path>
<path d="M 377.236 1295 L 378.806 1295.44 C 397.941 1304.07 411.113 1310.33 431.942 1314.52 C 431.647 1320.27 431.054 1325.5 430.412 1331.21 C 426.23 1353.02 425.447 1373.25 422.396 1394.6 C 420.866 1412.56 418.9 1435.67 418.964 1453.49 C 376.351 1446.83 301.232 1415.81 266.789 1390.84 C 278.976 1386.77 311.353 1360.56 322.555 1351.18 L 323.882 1351.41 C 339.238 1337.85 365.571 1311.36 377.236 1295 z" fill="rgb(128,189,198)" transform="translate(0,0)"></path>
<path d="M 377.236 1295 L 378.806 1295.44 C 397.941 1304.07 411.113 1310.33 431.942 1314.52 C 431.647 1320.27 431.054 1325.5 430.412 1331.21 C 426.23 1353.02 425.447 1373.25 422.396 1394.6 C 380.394 1381.6 361.186 1373.27 323.882 1351.41 C 339.238 1337.85 365.571 1311.36 377.236 1295 z" fill="rgb(10,160,128)" transform="translate(0,0)"></path>
<path d="M 389.521 886.244 C 390.984 883.959 393.022 881.783 394.768 879.622 C 396.42 882.293 401.54 888.938 401.361 891.546 C 401.309 891.744 399.508 898.469 399.494 898.493 C 396.485 903.828 401.879 907.581 401.351 913.535 C 400.861 919.055 409.09 921.794 406.678 926.534 C 406.445 926.948 406.435 928.238 406.54 928.795 C 406.746 928.019 406.784 927.268 407.41 926.743 C 407.828 927.469 408.129 929.351 408.267 929.995 L 407.572 931.176 C 407.426 931.144 407.28 931.112 407.134 931.079 C 404.107 930.479 401.232 929.279 398.677 927.548 C 396.317 925.93 388.955 922.721 388.889 921.691 C 388.459 914.903 390.462 915.884 383.885 909.387 C 385.198 903.092 385.967 904.739 389.41 899.639 C 394.556 892.018 393.571 890.883 389.521 886.244 z" fill="rgb(230,230,229)" fill-opacity="0.470588" transform="translate(0,0)"></path>
<path d="M 407.699 884.535 C 414.854 894.265 418.096 921.359 408.267 929.995 C 408.129 929.351 407.828 927.469 407.41 926.743 C 406.784 927.268 406.746 928.019 406.54 928.795 C 406.435 928.238 406.445 926.948 406.678 926.534 C 409.09 921.794 400.861 919.055 401.351 913.535 C 401.879 907.581 396.485 903.828 399.494 898.493 C 399.508 898.469 401.309 891.744 401.361 891.546 C 401.518 890.384 406.486 885.76 407.699 884.535 z" fill="rgb(230,230,229)" fill-opacity="0.521569" transform="translate(0,0)"></path>
<path d="M 1528.05 919.409 L 1529.11 921.629 C 1531.54 928.621 1538.9 933.947 1534.71 944.748 C 1529.77 957.446 1538.11 953.584 1540.25 963.604 C 1540.58 965.176 1535.73 975.277 1535.4 979.982 C 1534.82 988.388 1540 979.219 1540.23 988.456 C 1541.4 988.954 1541.83 988.366 1542.4 987.405 L 1542.46 987.388 C 1542.64 987.736 1540.48 1001.07 1540.24 1002.48 C 1538.65 998.121 1533.09 983.027 1532.3 979.124 C 1532.62 976.954 1532.87 972.005 1533.47 970.221 C 1535.31 964.814 1536.06 963.685 1531.26 959.573 C 1531.23 957.122 1529.13 953.857 1528.04 951.676 C 1530.23 939.28 1527.96 931.52 1528.05 919.409 z" fill="rgb(254,253,253)" fill-opacity="0.682353" transform="translate(0,0)"></path>
<path d="M 1522.36 903.067 C 1530.38 911.772 1525.85 911.498 1528.05 919.409 C 1527.96 931.52 1530.23 939.28 1528.04 951.676 C 1526.15 954.115 1525.8 955.158 1524.33 957.839 C 1522.15 952.223 1518.26 943.473 1516.79 937.813 C 1528.53 914.148 1517.35 922.055 1521.5 906.375 L 1521.99 904.538 C 1522.12 904.048 1522.24 903.558 1522.36 903.067 z" fill="rgb(254,253,253)" fill-opacity="0.431373" transform="translate(0,0)"></path>
<path d="M 522.111 905.903 L 522.686 907.448 C 524.075 911.664 531.125 919.699 535.719 917.812 L 537.184 919 C 536.951 919.623 536.719 920.247 536.487 920.87 C 534.491 920.462 534.722 920.724 532.588 921.243 C 530.372 921.782 529.404 923.957 529.862 926.076 C 530.492 928.989 526.312 927.486 525.498 928.258 C 525.595 929.203 529.876 930.356 527.802 932.325 C 523.688 936.228 522.986 930.277 521.26 929.476 C 519.3 930.077 519.549 929.995 517.403 930.188 C 514.767 930.551 515.856 929.768 512.645 928.938 C 511.861 928.624 511.294 928.512 510.738 927.976 C 515.597 919.778 518.606 915.252 522.111 905.903 z" fill="rgb(254,253,253)" fill-opacity="0.192157" transform="translate(0,0)"></path>
<path d="M 1548.14 1025.83 C 1548.73 1024.91 1550.91 1021.27 1552.38 1021.84 C 1554.02 1024.64 1551.4 1026.4 1550.21 1027.44 C 1550.08 1027.55 1551.65 1030.01 1551.83 1030.19 C 1552.53 1031.27 1551.73 1032.64 1552.31 1033.73 L 1552.53 1033.8 C 1553.22 1033.12 1552.83 1030.93 1554.26 1030.32 C 1558.46 1031.11 1555.23 1041.12 1555.22 1042.32 C 1555.57 1042.7 1557.48 1042.28 1557.52 1043.06 C 1557.62 1044.94 1555.35 1043.71 1556.62 1046.37 C 1557.44 1048.07 1558.75 1054.58 1560.55 1055.52 C 1561.54 1055.09 1560.78 1053.09 1561.51 1052.26 C 1563.91 1052.25 1563.61 1057.17 1562.6 1058.42 C 1559.74 1062 1571.95 1068.55 1564.91 1069.47 C 1564.08 1070.29 1566.17 1076.43 1566.32 1076.64 C 1567.83 1076.36 1566.44 1072.44 1567.37 1071.26 C 1568.1 1071.23 1573.09 1081.03 1570.49 1083.66 C 1567.43 1086.76 1574.18 1098.62 1574.21 1102.98 C 1574.22 1104.04 1574.92 1107.14 1576.48 1107 C 1578.05 1105.45 1575.61 1102.42 1576.44 1100.39 L 1577.12 1100.16 L 1576.62 1100.4 L 1577.62 1100.79 C 1581.18 1106.84 1579.92 1109.54 1576.21 1114.62 L 1575.64 1112.84 C 1571.4 1099.11 1567.58 1085.26 1563.29 1071.55 C 1557.78 1059.96 1552.66 1038.8 1548.14 1025.83 z" fill="rgb(254,253,253)" fill-opacity="0.968627" transform="translate(0,0)"></path>
<path d="M 1520.54 900.272 C 1521.15 901.204 1521.75 902.136 1522.36 903.067 C 1522.24 903.558 1522.12 904.048 1521.99 904.538 L 1521.5 906.375 C 1517.35 922.055 1528.53 914.148 1516.79 937.813 C 1513.86 930.52 1511.07 923.173 1508.42 915.775 C 1512.1 908.488 1518.21 905.484 1520.54 900.272 z" fill="rgb(254,253,253)" fill-opacity="0.301961" transform="translate(0,0)"></path>
<path d="M 389.521 886.244 C 393.571 890.883 394.556 892.018 389.41 899.639 C 385.967 904.739 385.198 903.092 383.885 909.387 C 386.048 920.857 388.508 909.523 383.432 924.802 C 380.607 921.821 378.283 917.056 375.356 913.528 L 374.324 912.243 C 377.884 901.84 383.397 895.15 389.521 886.244 z" fill="rgb(230,230,229)" fill-opacity="0.909804" transform="translate(0,0)"></path>
<path d="M 525.561 898.788 C 529.699 898.203 529.761 891.704 530.587 887.584 C 535.352 889.318 530.887 885 537.543 886.793 C 540.309 887.538 544.187 888.076 544.827 891.713 L 545.059 892.829 C 543.544 892.084 539.95 890.076 538.985 893.473 C 538.541 895.035 540.176 897.771 540.969 898.934 C 541.481 899.726 542.044 899.176 542.452 898.561 C 543.427 897.091 544.152 895.393 544.961 893.792 L 546.885 893.383 C 544.175 902.112 540.935 910.666 537.184 919 L 535.719 917.812 L 535.967 916.81 C 538.063 912.03 538.942 911.876 539.089 906.639 C 534.374 900.284 531.213 897.568 524.561 902.938 L 523.186 904.027 C 524.038 901.842 524.391 900.852 525.561 898.788 z" fill="rgb(254,253,253)" fill-opacity="0.219608" transform="translate(0,0)"></path>
<path d="M 517.403 930.188 C 519.549 929.995 519.3 930.077 521.26 929.476 C 522.986 930.277 523.688 936.228 527.802 932.325 C 529.876 930.356 525.595 929.203 525.498 928.258 C 526.312 927.486 530.492 928.989 529.862 926.076 C 529.404 923.957 530.372 921.782 532.588 921.243 C 534.722 920.724 534.491 920.462 536.487 920.87 C 534.929 925.421 531.689 934.76 529.506 938.951 C 518.573 936.482 515.125 952.237 509.398 942.077 C 507.254 938.274 510.063 935.506 509.699 930.146 C 510.128 929.043 510.13 928.95 510.738 927.976 C 511.294 928.512 511.861 928.624 512.645 928.938 C 512.497 932.23 511.678 936.989 513.604 939.943 C 514.102 940.708 515.29 940.259 515.493 939.744 C 517.19 935.452 524.715 936.964 525.364 936.522 C 525.29 936.44 525.215 936.358 525.141 936.276 L 524.725 936.437 L 524.221 935.894 C 519.688 934.374 519.679 933.957 517.403 930.188 z" fill="rgb(254,253,253)" fill-opacity="0.145098" transform="translate(0,0)"></path>
<path d="M 383.432 924.802 C 388.508 909.523 386.048 920.857 383.885 909.387 C 390.462 915.884 388.459 914.903 388.889 921.691 C 388.955 922.721 396.317 925.93 398.677 927.548 C 401.232 929.279 404.107 930.479 407.134 931.079 C 407.28 931.112 407.426 931.144 407.572 931.176 C 394.438 939.807 391.86 935.79 383.432 924.802 z" fill="rgb(230,230,229)" fill-opacity="0.207843" transform="translate(0,0)"></path>
<path d="M 1524.33 957.839 C 1525.8 955.158 1526.15 954.115 1528.04 951.676 C 1529.13 953.857 1531.23 957.122 1531.26 959.573 C 1536.06 963.685 1535.31 964.814 1533.47 970.221 C 1532.87 972.005 1532.62 976.954 1532.3 979.124 C 1529.65 972.03 1526.8 965 1524.33 957.839 z" fill="rgb(254,253,253)" fill-opacity="0.52549" transform="translate(0,0)"></path>
<path d="M 535.967 916.81 C 535.292 916.42 520.27 908.697 527.579 902.961 C 528.817 901.989 535.026 906.187 539.089 906.639 C 538.942 911.876 538.063 912.03 535.967 916.81 z" fill="rgb(254,253,253)" fill-opacity="0.309804" transform="translate(0,0)"></path>
<path d="M 525.561 898.788 C 526.997 893.159 528.649 886.731 530.378 881.226 C 530.55 881.532 531.073 882.665 531.498 882.939 C 532.843 882.177 533.596 880.56 535.541 881.059 C 541.397 882.562 545.427 887.251 547.253 892.64 L 546.885 893.383 L 544.961 893.792 L 545.059 892.829 L 544.827 891.713 C 544.187 888.076 540.309 887.538 537.543 886.793 C 530.887 885 535.352 889.318 530.587 887.584 C 529.761 891.704 529.699 898.203 525.561 898.788 z" fill="rgb(254,253,253)" fill-opacity="0.168627" transform="translate(0,0)"></path>
<path d="M 1544.11 1013.42 C 1544.68 1012.1 1545.49 1008.53 1546.4 1007.93 C 1549.17 1006.14 1551.53 1009.13 1551.68 1009.18 L 1552.17 1009.05 C 1552.08 1008.53 1552.03 1008.14 1551.86 1007.57 L 1552 1007.37 C 1554.04 1007.31 1558.66 1018.16 1545.99 1020.09 C 1545.44 1017.64 1544.65 1016.06 1544.11 1013.42 z" fill="url(#Gradient1)" transform="translate(0,0)"></path>
<path d="M 400.639 875.837 C 403.935 879.431 404.816 880.569 407.699 884.535 C 406.486 885.76 401.518 890.384 401.361 891.546 C 401.54 888.938 396.42 882.293 394.768 879.622 C 396.732 878.362 398.64 877.044 400.639 875.837 z" fill="rgb(230,230,229)" fill-opacity="0.141176" transform="translate(0,0)"></path>
<path d="M 523.186 904.027 L 524.561 902.938 C 531.213 897.568 534.374 900.284 539.089 906.639 C 535.026 906.187 528.817 901.989 527.579 902.961 C 520.27 908.697 535.292 916.42 535.967 916.81 L 535.719 917.812 C 531.125 919.699 524.075 911.664 522.686 907.448 L 522.111 905.903 L 523.186 904.027 z" fill="rgb(254,253,253)" fill-opacity="0.25098" transform="translate(0,0)"></path>
<path d="M 512.645 928.938 C 515.856 929.768 514.767 930.551 517.403 930.188 C 519.679 933.957 519.688 934.374 524.221 935.894 L 524.725 936.437 L 525.141 936.276 C 525.215 936.358 525.29 936.44 525.364 936.522 C 524.715 936.964 517.19 935.452 515.493 939.744 C 515.29 940.259 514.102 940.708 513.604 939.943 C 511.678 936.989 512.497 932.23 512.645 928.938 z" fill="rgb(254,253,253)" fill-opacity="0.160784" transform="translate(0,0)"></path>
<path d="M 544.961 893.792 C 544.152 895.393 543.427 897.091 542.452 898.561 C 542.044 899.176 541.481 899.726 540.969 898.934 C 540.176 897.771 538.541 895.035 538.985 893.473 C 539.95 890.076 543.544 892.084 545.059 892.829 L 544.961 893.792 z" fill="rgb(254,253,253)" fill-opacity="0.294118" transform="translate(0,0)"></path>
<metadata><recraft-signature>{"signed_by": "recraft", "signature_b64": "wR4MmYL1l9IhVEbW2ZvC7Kw+DAnhJcGKOHhlanePeXw6p9Xtl8Qap/mHp8k5T0kRP8lHrvL5tqyJc/pBJ8XDBw==", "signing_algo": "Ed25519", "generation_timestamp": 1778557780, "identifier": "93e5a5e6-b04a-4288-a579-fa67cc7059ec"}</recraft-signature></metadata></svg>