<svg xmlns="http://www.w3.org/2000/svg" height="1024" preserveAspectRatio="none" style="display: block;" version="1.1" viewBox="0 0 2048 2048" width="1024">
<defs>
	<linearGradient gradientUnits="userSpaceOnUse" id="Gradient1" x1="1732.59" x2="1716.93" y1="1516.3" y2="1522.5">
		<stop class="stop0" offset="0" stop-color="rgb(137,37,38)" stop-opacity="1"></stop>
		<stop class="stop1" offset="1" stop-color="rgb(182,58,58)" stop-opacity="1"></stop>
	</linearGradient>
	<linearGradient gradientUnits="userSpaceOnUse" id="Gradient2" x1="238.166" x2="245.204" y1="1838.45" y2="1834.34">
		<stop class="stop0" offset="0" stop-color="rgb(136,33,34)" stop-opacity="1"></stop>
		<stop class="stop1" offset="1" stop-color="rgb(176,57,58)" stop-opacity="1"></stop>
	</linearGradient>
</defs>

<path d="M 1025.03 914.368 C 1042.25 934.519 1061.52 942.315 1084.61 954.306 C 1107.15 965.861 1129.58 977.64 1151.89 989.641 C 1153.22 995.972 1160.23 1006.1 1162.98 1014.39 C 1163.53 1015.86 1164.37 1017.8 1164.66 1019.28 C 1171.64 1036.15 1181.59 1054.27 1190.01 1070.54 C 1191.69 1072.87 1191.53 1072 1192.02 1074.54 C 1197.96 1085.18 1233.9 1142.48 1242.85 1147.43 C 1244.43 1151.58 1254.03 1161.53 1257.39 1164.95 C 1287.34 1195.43 1322.64 1220.12 1361.54 1237.8 C 1431.77 1270.41 1529.39 1281.95 1602.59 1254.34 C 1683.27 1223.91 1728.87 1168.31 1764.22 1092.64 C 1772.94 1073.98 1779.45 1054.27 1787.96 1035.62 L 1789.7 1033.33 L 1791.52 1033.41 L 1792.97 1035.71 C 1811.95 1084.6 1819.03 1113.51 1831.72 1164.17 L 1832.55 1166.67 C 1839.38 1214.33 1841.07 1247.55 1839.12 1295.14 L 1838.9 1298.93 C 1838.55 1317.94 1831.98 1358.5 1827.72 1376.96 C 1826.57 1378.48 1826.68 1378.8 1826.14 1380.72 C 1826.14 1386.04 1822.99 1394.66 1821.31 1400.07 C 1820.69 1401.47 1820.56 1402 1820.06 1403.55 C 1819.54 1408.64 1818.89 1411.28 1817.63 1416.27 C 1816.8 1418.02 1816.21 1420.27 1815.49 1422.15 C 1808.4 1441.3 1799.7 1459.81 1789.48 1477.48 L 1786.88 1481.27 C 1772.25 1505.5 1763.09 1517.43 1742.77 1538.14 L 1741.33 1539.12 C 1737.98 1542.76 1734.53 1546.32 1731 1549.79 L 1727.54 1552.68 C 1725.03 1554.97 1718.53 1560.56 1716.85 1562.96 L 1713.77 1564.74 C 1709.65 1568.26 1706.54 1570.78 1702.16 1574.01 C 1700.48 1575.11 1699.27 1575.87 1697.49 1576.85 L 1683.94 1586 L 1680.46 1587.38 C 1676.91 1589.67 1669.13 1594.33 1665.11 1595.82 L 1664.21 1596.21 C 1659.2 1599.09 1651.02 1603.15 1645.5 1604.84 L 1643.85 1605.48 C 1639.24 1608.28 1635.88 1609.66 1631 1611.78 C 1643.09 1613.34 1655.31 1613.15 1667.15 1614.6 C 1804.33 1631.46 1935.76 1723.22 1997.13 1847.46 C 2000.52 1854.33 2004.77 1862.8 2006.6 1870.14 C 2008.31 1873.94 2008.4 1872.26 2007.79 1875.6 C 2004.99 1875.78 2006.26 1876.06 2003.8 1874.78 C 1998.85 1873.52 1985.14 1865.88 1976.97 1863.24 C 1929.31 1847.82 1890.49 1845.81 1841.32 1851.22 C 1839.42 1851.65 1837.52 1852.04 1835.61 1852.4 C 1829.94 1853.28 1823.64 1854.12 1818.06 1855.17 L 1812.75 1856.37 C 1807.79 1857.6 1802.72 1858.95 1797.71 1859.9 L 1796.69 1860.22 C 1790.56 1862.36 1785.06 1864.22 1778.81 1866.03 L 1777.89 1866.26 C 1771.67 1868.89 1767.36 1870.51 1760.92 1872.57 L 1759.64 1873.34 C 1698.96 1898.69 1639.6 1938.49 1576.42 1959.23 C 1569.65 1961.45 1551.77 1967.92 1545.23 1969.03 C 1539.5 1971.24 1535.34 1972.51 1529.21 1973.42 C 1528.31 1973.91 1527.36 1974.41 1526.48 1974.93 C 1520.33 1975.09 1514.62 1976.49 1508.59 1977.73 C 1504.15 1978.4 1495.56 1979.92 1491.4 1980.18 L 1489.68 1981.26 C 1482.75 1981.11 1459.42 1984.67 1448.97 1985.25 C 1407.53 1987.58 1359.17 1982.21 1319.3 1970.31 L 1317.82 1969.8 C 1311.39 1967.99 1308.24 1966.97 1302.07 1964.37 L 1300.75 1963.86 C 1295.71 1962.25 1291.35 1960.91 1286.19 1959.6 L 1283.7 1958.25 C 1277.1 1956.08 1267.15 1952.22 1260.77 1949.33 C 1152.58 1900.32 1067.81 1826.82 1023.76 1715.07 C 1014.26 1742.21 996.957 1777.8 979.623 1801.03 C 929.057 1868.77 845.32 1930.69 765.18 1957.8 L 763.144 1958.59 C 758.267 1960.49 753.316 1962.17 748.26 1963.54 L 747.33 1963.8 L 746.059 1964.26 C 740.863 1966.11 735.839 1967.88 730.712 1969.93 L 728.701 1970.24 C 685.733 1983.01 627.36 1988.28 582.852 1983.96 C 577.908 1983.48 565.975 1982.33 561.806 1981.21 L 560.658 1980.93 C 556.174 1980.71 547.577 1978.99 543.146 1978.03 L 540.238 1977.81 C 536.424 1976.49 525.805 1974.46 520.933 1973.21 C 514.832 1972.41 512.286 1971.66 506.547 1969.96 C 436.554 1952.23 358.516 1904.14 291.18 1874.12 L 290.256 1873.93 C 283.796 1871.88 278.743 1869.88 272.459 1867.32 L 270.426 1866.83 C 265.929 1864.77 257.269 1862.06 252.332 1860.37 C 251.137 1860.15 250.002 1859.94 248.798 1859.77 C 243.065 1858.07 238.921 1857.35 233.006 1855.14 L 231.391 1855.52 C 226.9 1853.89 215.929 1852.5 210.151 1851.19 L 208.818 1851.23 C 168.018 1847.12 125.901 1847.28 86.1502 1859.26 C 70.3139 1864.03 58.358 1870.99 44.8833 1875.95 C 43.0655 1876.69 44.0611 1876.55 41.7578 1875.64 C 40.8371 1872.24 40.6698 1873.82 42.1648 1870.72 C 42.9783 1866.31 49.6278 1852.72 52.0214 1847.65 C 71.3854 1806.63 97.6222 1772.12 129.821 1739.74 C 189.847 1679.4 271.786 1635 355.326 1618.21 C 377.31 1613.79 397.293 1612.82 419.335 1612.38 C 414.107 1609.44 408.386 1607.85 402.358 1604.4 L 399.869 1603.75 C 394.104 1600.31 389.055 1598.88 382.774 1594.43 L 380.397 1593.23 C 374.799 1590.46 371.35 1588.38 366.087 1585.1 C 365.044 1584.63 364.062 1584.19 363.003 1583.75 C 362.165 1582.87 351.737 1575.94 349.725 1574.43 L 347.449 1573.08 C 343.429 1570.7 336.725 1565.76 333.312 1562.64 L 330.141 1560.75 C 326.714 1557.57 323.26 1554.42 319.779 1551.3 C 318.961 1550.63 318.136 1549.96 317.304 1549.3 C 292.229 1522.34 284.501 1512.28 263.477 1482.22 L 261.195 1479.32 C 260.797 1476.99 253.767 1463.97 252.346 1461.32 C 245.388 1448.35 240.177 1435.83 235.228 1421.99 C 234.96 1420.21 234.329 1418.53 233.782 1416.82 L 229.803 1404.1 L 229.429 1403.18 C 228.448 1400.82 228.13 1399.06 227.336 1396.77 C 225.878 1391.61 224.356 1386.46 222.771 1381.34 C 222.287 1379.71 221.847 1378.07 221.451 1376.41 C 221.175 1371.7 219.997 1365.41 219.111 1360.61 C 215.249 1339.66 212.851 1319.35 211.127 1298.11 L 210.934 1295.26 C 211.379 1283.85 210.057 1270.8 210.419 1259.22 C 211.331 1230.09 212.679 1193.6 217.727 1165.13 L 218.202 1164.3 C 218.584 1158.32 222.351 1143.06 223.92 1136.76 C 231.811 1105.08 242.376 1064.77 257.328 1035.74 L 258.595 1032.93 L 260.474 1032.56 C 262.099 1034.63 261.646 1033.49 261.956 1035.93 C 263.646 1041.05 265.964 1045.42 267.753 1050.39 C 296.283 1129.67 341.321 1205.58 420.343 1242.87 C 494.096 1277.68 575.503 1277.39 651.678 1251.92 C 701.208 1235.86 746.449 1208.78 783.994 1172.71 C 791.242 1165.77 802.03 1154.97 807.979 1147.17 C 824.521 1129.63 845.721 1095.5 857.229 1074.37 L 858.556 1070.62 C 867.182 1054.82 877.674 1035.63 884.208 1018.96 L 887.175 1013.63 C 891.571 1004.44 892.67 999.408 898.165 989.528 C 919.476 978.193 940.867 967.01 962.336 955.979 C 982.637 945.515 1011.6 933.039 1025.03 914.368 z" fill="rgb(141,155,212)" transform="translate(0,0)"></path>
<path d="M 149.899 1805.38 C 156.945 1795.11 205.998 1784.17 220.336 1781.15 C 290.852 1766.31 360.267 1787.47 430.716 1788.24 C 687.772 1791.06 924.089 1594.6 1004.21 1356.46 C 1012.19 1332.77 1017.55 1308.04 1025.08 1284.46 C 1029.84 1310.36 1038.55 1337.6 1047.12 1362.49 C 1093.08 1495.94 1182.26 1606.9 1298.16 1686.7 C 1372.02 1738.03 1456.85 1771.38 1545.89 1784.09 C 1584.73 1789.28 1631.91 1790.14 1669.8 1785.11 C 1741.97 1775.52 1808.28 1768.99 1878.38 1793.88 C 1884.6 1796.09 1902.92 1801.99 1906.32 1807.47 C 1934.4 1819.12 1952.78 1828.17 1977.86 1846.91 C 1986.98 1853.72 1998.33 1864.14 2006.6 1870.14 C 2008.31 1873.94 2008.4 1872.26 2007.79 1875.6 C 2004.99 1875.78 2006.26 1876.06 2003.8 1874.78 C 1998.85 1873.52 1985.14 1865.88 1976.97 1863.24 C 1929.31 1847.82 1890.49 1845.81 1841.32 1851.22 C 1839.42 1851.65 1837.52 1852.04 1835.61 1852.4 C 1829.94 1853.28 1823.64 1854.12 1818.06 1855.17 L 1812.75 1856.37 C 1807.79 1857.6 1802.72 1858.95 1797.71 1859.9 L 1796.69 1860.22 C 1790.56 1862.36 1785.06 1864.22 1778.81 1866.03 L 1777.89 1866.26 C 1771.67 1868.89 1767.36 1870.51 1760.92 1872.57 L 1759.64 1873.34 C 1698.96 1898.69 1639.6 1938.49 1576.42 1959.23 C 1569.65 1961.45 1551.77 1967.92 1545.23 1969.03 C 1539.5 1971.24 1535.34 1972.51 1529.21 1973.42 C 1528.31 1973.91 1527.36 1974.41 1526.48 1974.93 C 1520.33 1975.09 1514.62 1976.49 1508.59 1977.73 C 1504.15 1978.4 1495.56 1979.92 1491.4 1980.18 L 1489.68 1981.26 C 1482.75 1981.11 1459.42 1984.67 1448.97 1985.25 C 1407.53 1987.58 1359.17 1982.21 1319.3 1970.31 L 1317.82 1969.8 C 1311.39 1967.99 1308.24 1966.97 1302.07 1964.37 L 1300.75 1963.86 C 1295.71 1962.25 1291.35 1960.91 1286.19 1959.6 L 1283.7 1958.25 C 1277.1 1956.08 1267.15 1952.22 1260.77 1949.33 C 1152.58 1900.32 1067.81 1826.82 1023.76 1715.07 C 1014.26 1742.21 996.957 1777.8 979.623 1801.03 C 929.057 1868.77 845.32 1930.69 765.18 1957.8 L 763.144 1958.59 C 758.267 1960.49 753.316 1962.17 748.26 1963.54 L 747.33 1963.8 L 746.059 1964.26 C 740.863 1966.11 735.839 1967.88 730.712 1969.93 L 728.701 1970.24 C 685.733 1983.01 627.36 1988.28 582.852 1983.96 C 577.908 1983.48 565.975 1982.33 561.806 1981.21 L 560.658 1980.93 C 556.174 1980.71 547.577 1978.99 543.146 1978.03 L 540.238 1977.81 C 536.424 1976.49 525.805 1974.46 520.933 1973.21 C 514.832 1972.41 512.286 1971.66 506.547 1969.96 C 436.554 1952.23 358.516 1904.14 291.18 1874.12 L 290.256 1873.93 C 283.796 1871.88 278.743 1869.88 272.459 1867.32 L 270.426 1866.83 C 265.929 1864.77 257.269 1862.06 252.332 1860.37 C 251.137 1860.15 250.002 1859.94 248.798 1859.77 C 243.065 1858.07 238.921 1857.35 233.006 1855.14 L 231.391 1855.52 C 226.9 1853.89 215.929 1852.5 210.151 1851.19 L 208.818 1851.23 C 168.018 1847.12 125.901 1847.28 86.1502 1859.26 C 70.3139 1864.03 58.358 1870.99 44.8833 1875.95 C 43.0655 1876.69 44.0611 1876.55 41.7578 1875.64 C 40.8371 1872.24 40.6698 1873.82 42.1648 1870.72 C 75.5269 1841.3 107.8 1820.29 149.899 1805.38 z" fill="rgb(8,154,184)" transform="translate(0,0)"></path>
<path d="M 44.8833 1875.95 C 49.8521 1868.14 62.9683 1858.91 70.7368 1852.94 C 125.648 1810.78 206.895 1779.54 271.504 1818.87 C 290.444 1830.4 302.652 1848.28 308.057 1870.04 C 330.632 1853.41 362.608 1847.37 389.997 1851.76 C 449.108 1861.23 499.411 1909.72 506.813 1969.49 C 507.056 1969.21 507.3 1968.92 507.543 1968.64 C 515.676 1952.93 528.473 1937.5 543.373 1927.48 C 544.295 1926.45 545.258 1925.77 546.49 1925.16 L 547.995 1924.36 C 556.252 1916.75 578.088 1907.26 588.966 1904.09 C 631.76 1891.6 671.76 1895.44 710.854 1916.28 C 713.124 1917.23 713.284 1917.25 715.259 1918.65 C 716.072 1921.73 720.052 1923.99 723.012 1926.87 C 731.637 1936.37 744.381 1951.04 747.33 1963.8 L 746.059 1964.26 C 740.863 1966.11 735.839 1967.88 730.712 1969.93 L 728.701 1970.24 C 685.733 1983.01 627.36 1988.28 582.852 1983.96 C 577.908 1983.48 565.975 1982.33 561.806 1981.21 L 560.658 1980.93 C 556.174 1980.71 547.577 1978.99 543.146 1978.03 L 540.238 1977.81 C 536.424 1976.49 525.805 1974.46 520.933 1973.21 C 514.832 1972.41 512.286 1971.66 506.547 1969.96 C 436.554 1952.23 358.516 1904.14 291.18 1874.12 L 290.256 1873.93 C 283.796 1871.88 278.743 1869.88 272.459 1867.32 L 270.426 1866.83 C 265.929 1864.77 257.269 1862.06 252.332 1860.37 C 251.137 1860.15 250.002 1859.94 248.798 1859.77 C 243.065 1858.07 238.921 1857.35 233.006 1855.14 L 231.391 1855.52 C 226.9 1853.89 215.929 1852.5 210.151 1851.19 L 208.818 1851.23 C 168.018 1847.12 125.901 1847.28 86.1502 1859.26 C 70.3139 1864.03 58.358 1870.99 44.8833 1875.95 z" fill="rgb(233,111,102)" transform="translate(0,0)"></path>
<path d="M 691.828 1913.6 C 701.627 1922.53 727.689 1957.55 730.712 1969.93 L 728.701 1970.24 C 717.979 1954.14 698.497 1930.42 691.828 1913.6 z" fill="rgb(151,44,45)" transform="translate(0,0)"></path>
<path d="M 540.238 1977.81 C 541.835 1970.32 559.282 1927.85 564.677 1926.73 C 566.715 1929.06 559.394 1941.24 558.11 1944 C 552.925 1955.14 547.015 1966.35 543.146 1978.03 L 540.238 1977.81 z" fill="rgb(151,44,45)" transform="translate(0,0)"></path>
<path d="M 248.798 1859.77 C 246.625 1842.55 238.53 1831.26 231.14 1816.56 C 229.309 1812.92 237.059 1813.09 241.366 1825.77 C 244.331 1834.51 250.915 1844.58 251.22 1855.49 C 251.362 1856.58 252.05 1859.18 252.332 1860.37 C 251.137 1860.15 250.002 1859.94 248.798 1859.77 z" fill="url(#Gradient2)" transform="translate(0,0)"></path>
<path d="M 270.426 1866.83 C 269.89 1864.26 269.318 1861.69 268.709 1859.14 C 266.712 1850.63 263.839 1843.48 260.387 1835.54 C 258.733 1831.74 247.988 1814.53 250.547 1811.98 C 253.428 1811.17 258.578 1823.67 259.785 1826 C 266.534 1839.04 271.274 1852.59 272.459 1867.32 L 270.426 1866.83 z" fill="rgb(151,44,45)" transform="translate(0,0)"></path>
<path d="M 710.854 1916.28 C 713.124 1917.23 713.284 1917.25 715.259 1918.65 C 716.072 1921.73 720.052 1923.99 723.012 1926.87 C 731.637 1936.37 744.381 1951.04 747.33 1963.8 L 746.059 1964.26 C 743.641 1960.32 736.489 1950.48 734.862 1947.04 C 730.365 1937.52 714.193 1923.37 710.854 1916.28 z" fill="rgb(151,44,45)" transform="translate(0,0)"></path>
<path d="M 543.373 1927.48 C 544.295 1926.45 545.258 1925.77 546.49 1925.16 L 547.995 1924.36 C 541.755 1939.46 532.15 1955.07 525.244 1970.05 C 524.299 1972.1 523.912 1972 521.965 1972.8 C 523.316 1962.4 542.475 1934.01 543.373 1927.48 z" fill="rgb(96,19,22)" transform="translate(0,0)"></path>
<path d="M 560.658 1980.93 C 559.328 1975.56 570.982 1949.62 573.864 1949.1 C 577.657 1951.74 563.83 1976.65 561.806 1981.21 L 560.658 1980.93 z" fill="rgb(151,44,45)" transform="translate(0,0)"></path>
<path d="M 290.256 1873.93 C 289.342 1863.65 286.854 1855.55 283.162 1845.97 C 282.017 1843.01 278.168 1835.61 278.977 1832.62 C 279.739 1831.89 280.659 1832.85 280.907 1833.48 C 284.662 1842.98 294.452 1864.4 291.18 1874.12 L 290.256 1873.93 z" fill="rgb(96,19,22)" transform="translate(0,0)"></path>
<path d="M 231.391 1855.52 C 229.568 1851.56 219.733 1832.73 221.698 1830.22 C 227.097 1829.97 232.434 1851.02 233.006 1855.14 L 231.391 1855.52 z" fill="rgb(151,44,45)" transform="translate(0,0)"></path>
<path d="M 208.818 1851.23 C 208.627 1850.58 208.436 1849.93 208.246 1849.28 C 207.062 1845.58 205.68 1841.96 204.107 1838.41 C 200.016 1829.33 215.695 1838.58 210.151 1851.19 L 208.818 1851.23 z" fill="rgb(151,44,45)" transform="translate(0,0)"></path>
<path d="M 923.42 1855.61 C 914.303 1827.43 914.615 1802.21 928.224 1775.2 C 941.511 1748.66 964.818 1728.49 992.998 1719.17 C 1022.2 1709.58 1045.59 1712.78 1073 1727.02 C 1099.53 1740.84 1119.43 1764.68 1128.29 1793.25 C 1134.88 1814.59 1134.48 1834.43 1126.44 1855.22 C 1136.64 1852.01 1145.07 1849.57 1155.78 1848.68 C 1213.47 1843.91 1263.49 1886.88 1279.64 1940.5 C 1281.35 1946.33 1282.7 1952.26 1283.7 1958.25 C 1277.1 1956.08 1267.15 1952.22 1260.77 1949.33 C 1152.58 1900.32 1067.81 1826.82 1023.76 1715.07 C 1014.26 1742.21 996.957 1777.8 979.623 1801.03 C 929.057 1868.77 845.32 1930.69 765.18 1957.8 C 772.159 1920.57 790.724 1889.43 822.284 1867.79 C 846.275 1851.1 875.992 1844.81 904.69 1850.35 C 910.893 1851.52 917.436 1853.56 923.42 1855.61 z" fill="rgb(233,111,102)" transform="translate(0,0)"></path>
<path d="M 1740.25 1868.73 C 1745.14 1856.24 1750.56 1843.17 1760.36 1833.7 C 1831.99 1764.43 1945.06 1817.41 2003.8 1874.78 C 1998.85 1873.52 1985.14 1865.88 1976.97 1863.24 C 1929.31 1847.82 1890.49 1845.81 1841.32 1851.22 C 1839.42 1851.65 1837.52 1852.04 1835.61 1852.4 C 1829.94 1853.28 1823.64 1854.12 1818.06 1855.17 L 1812.75 1856.37 C 1807.79 1857.6 1802.72 1858.95 1797.71 1859.9 L 1796.69 1860.22 C 1790.56 1862.36 1785.06 1864.22 1778.81 1866.03 L 1777.89 1866.26 C 1771.67 1868.89 1767.36 1870.51 1760.92 1872.57 L 1759.64 1873.34 C 1698.96 1898.69 1639.6 1938.49 1576.42 1959.23 C 1569.65 1961.45 1551.77 1967.92 1545.23 1969.03 L 1543.93 1968.01 C 1555.85 1876.73 1657.79 1820.29 1740.25 1868.73 z" fill="rgb(233,111,102)" transform="translate(0,0)"></path>
<path d="M 1777.89 1866.26 C 1772.88 1852.12 1792.1 1820.8 1801.81 1810.2 C 1794.12 1830.97 1784.96 1841.26 1779.1 1864.82 L 1778.81 1866.03 L 1777.89 1866.26 z" fill="rgb(151,44,45)" transform="translate(0,0)"></path>
<path d="M 1796.69 1860.22 C 1792.04 1855.82 1809.81 1820.98 1814.51 1814.87 C 1815.03 1814.19 1817.51 1813.5 1818.03 1814.92 C 1813.46 1828.84 1799.86 1844.79 1797.71 1859.9 L 1796.69 1860.22 z" fill="rgb(151,44,45)" transform="translate(0,0)"></path>
<path d="M 1812.75 1856.37 C 1816.2 1848.49 1820.24 1838.34 1825.29 1831.34 C 1825.83 1830.6 1828.57 1830.15 1828.78 1831.61 C 1829.22 1834.57 1826.07 1838.23 1825.13 1841 C 1822.65 1845.6 1820.51 1850.5 1818.06 1855.17 L 1812.75 1856.37 z" fill="rgb(151,44,45)" transform="translate(0,0)"></path>
<path d="M 1759.64 1873.34 C 1757.17 1865.42 1764.14 1842.32 1769.03 1835.24 C 1770.68 1834.35 1774.07 1835.17 1772.19 1837.59 C 1764.9 1846.96 1761.46 1860.88 1760.92 1872.57 L 1759.64 1873.34 z" fill="rgb(96,19,22)" transform="translate(0,0)"></path>
<path d="M 1835.61 1852.4 C 1837.46 1847.94 1839.56 1838.59 1842.31 1835.34 C 1842.9 1834.63 1847.86 1835.42 1845.94 1839.44 C 1844.67 1842.11 1842.2 1848.3 1841.32 1851.22 C 1839.42 1851.65 1837.52 1852.04 1835.61 1852.4 z" fill="rgb(151,44,45)" transform="translate(0,0)"></path>
<path d="M 1338.04 1916.66 C 1375.14 1896.1 1418.96 1891.36 1459.6 1903.51 C 1469.64 1906.45 1499.87 1919.05 1505.11 1927.17 C 1506.75 1930.94 1508.9 1933.9 1511.08 1937.37 C 1518.71 1949.52 1524.22 1960.03 1529.21 1973.42 C 1528.31 1973.91 1527.36 1974.41 1526.48 1974.93 C 1520.33 1975.09 1514.62 1976.49 1508.59 1977.73 C 1504.15 1978.4 1495.56 1979.92 1491.4 1980.18 L 1489.68 1981.26 C 1482.75 1981.11 1459.42 1984.67 1448.97 1985.25 C 1407.53 1987.58 1359.17 1982.21 1319.3 1970.31 L 1317.82 1969.8 C 1311.39 1967.99 1308.24 1966.97 1302.07 1964.37 L 1300.75 1963.86 C 1295.71 1962.25 1291.35 1960.91 1286.19 1959.6 C 1298.21 1943.26 1319.41 1924.68 1338.04 1916.66 z" fill="rgb(233,111,102)" transform="translate(0,0)"></path>
<path d="M 1317.82 1969.8 C 1320.01 1959.38 1342.24 1931.48 1349.93 1922.44 C 1350.89 1921.29 1354.89 1915.95 1355.43 1920.48 C 1355.56 1921.54 1352.73 1925.27 1352.15 1925.98 C 1342.9 1937.24 1334.33 1948.88 1326.56 1961.22 C 1324.43 1964.62 1322.69 1968.17 1319.3 1970.31 L 1317.82 1969.8 z" fill="rgb(151,44,45)" transform="translate(0,0)"></path>
<path d="M 1482.94 1927.9 L 1484.46 1927.94 C 1491.67 1927.88 1509.19 1969.16 1508.59 1977.73 C 1505.8 1974.74 1507.06 1975.97 1505.33 1972.41 C 1499.08 1959.57 1493.7 1943.18 1484.12 1932.45 C 1482.97 1931.15 1483.13 1931.22 1483.03 1929.44 L 1482.94 1927.9 z" fill="rgb(151,44,45)" transform="translate(0,0)"></path>
<path d="M 1526.48 1974.93 C 1519.81 1959.74 1508.33 1941.46 1502.74 1928.59 C 1503.06 1927.16 1503.75 1927.23 1505.11 1927.17 C 1506.75 1930.94 1508.9 1933.9 1511.08 1937.37 C 1518.71 1949.52 1524.22 1960.03 1529.21 1973.42 C 1528.31 1973.91 1527.36 1974.41 1526.48 1974.93 z" fill="rgb(151,44,45)" transform="translate(0,0)"></path>
<path d="M 1475.03 1945.59 L 1476.02 1946.7 C 1482.89 1954.28 1488.52 1970.4 1491.4 1980.18 L 1489.68 1981.26 C 1485.62 1976.46 1477.98 1958.65 1476.67 1952.8 C 1476.15 1950.39 1475.6 1947.99 1475.03 1945.59 z" fill="rgb(151,44,45)" transform="translate(0,0)"></path>
<path d="M 1300.75 1963.86 L 1300.85 1963.38 C 1302.93 1953.53 1327.39 1924.76 1336.66 1919.34 C 1325.92 1933.19 1312.47 1945.21 1303.84 1961.49 C 1303.32 1962.48 1302.68 1963.43 1302.07 1964.37 L 1300.75 1963.86 z" fill="rgb(96,19,22)" transform="translate(0,0)"></path>
<path d="M 1021.65 1708.88 C 1021.56 1696.21 1020.75 1650.83 1022.71 1640.98 L 1023.94 1641.23 C 1028.34 1654.92 1025.92 1692.3 1025.96 1708.81 C 1036.59 1710.19 1045.5 1711.4 1055.74 1714.84 C 1113.88 1734.4 1146.38 1787.29 1134.33 1847.68 C 1164.68 1839.74 1196.94 1844.39 1223.81 1860.57 C 1257.4 1880.57 1277.22 1913.3 1286.81 1950.37 C 1306.93 1929.48 1321.33 1919.06 1347.48 1906.74 C 1410.33 1877.14 1504.51 1894.66 1540.38 1958.71 C 1549.5 1918.74 1572.3 1887.85 1607.15 1866 C 1635.87 1847.62 1670.72 1841.42 1704.01 1848.77 C 1715.84 1851.52 1727.24 1855.85 1737.91 1861.64 C 1762.22 1804.7 1819.42 1788.52 1877.24 1799.97 C 1886.99 1801.89 1896.72 1805.51 1906.32 1807.47 C 1934.4 1819.12 1952.78 1828.17 1977.86 1846.91 C 1986.98 1853.72 1998.33 1864.14 2006.6 1870.14 C 2008.31 1873.94 2008.4 1872.26 2007.79 1875.6 C 2004.99 1875.78 2006.26 1876.06 2003.8 1874.78 C 1945.06 1817.41 1831.99 1764.43 1760.36 1833.7 C 1750.56 1843.17 1745.14 1856.24 1740.25 1868.73 C 1657.79 1820.29 1555.85 1876.73 1543.93 1968.01 L 1545.23 1969.03 C 1539.5 1971.24 1535.34 1972.51 1529.21 1973.42 C 1524.22 1960.03 1518.71 1949.52 1511.08 1937.37 C 1508.9 1933.9 1506.75 1930.94 1505.11 1927.17 C 1499.87 1919.05 1469.64 1906.45 1459.6 1903.51 C 1418.96 1891.36 1375.14 1896.1 1338.04 1916.66 C 1319.41 1924.68 1298.21 1943.26 1286.19 1959.6 L 1283.7 1958.25 C 1282.7 1952.26 1281.35 1946.33 1279.64 1940.5 C 1263.49 1886.88 1213.47 1843.91 1155.78 1848.68 C 1145.07 1849.57 1136.64 1852.01 1126.44 1855.22 C 1134.48 1834.43 1134.88 1814.59 1128.29 1793.25 C 1119.43 1764.68 1099.53 1740.84 1073 1727.02 C 1045.59 1712.78 1022.2 1709.58 992.998 1719.17 C 964.818 1728.49 941.511 1748.66 928.224 1775.2 C 914.615 1802.21 914.303 1827.43 923.42 1855.61 C 917.436 1853.56 910.893 1851.52 904.69 1850.35 C 875.992 1844.81 846.275 1851.1 822.284 1867.79 C 790.724 1889.43 772.159 1920.57 765.18 1957.8 L 763.144 1958.59 C 758.267 1960.49 753.316 1962.17 748.26 1963.54 L 747.33 1963.8 C 744.381 1951.04 731.637 1936.37 723.012 1926.87 C 720.052 1923.99 716.072 1921.73 715.259 1918.65 C 713.284 1917.25 713.124 1917.23 710.854 1916.28 C 671.76 1895.44 631.76 1891.6 588.966 1904.09 C 578.088 1907.26 556.252 1916.75 547.995 1924.36 L 546.49 1925.16 C 545.258 1925.77 544.295 1926.45 543.373 1927.48 C 528.473 1937.5 515.676 1952.93 507.543 1968.64 C 507.3 1968.92 507.056 1969.21 506.813 1969.49 C 499.411 1909.72 449.108 1861.23 389.997 1851.76 C 362.608 1847.37 330.632 1853.41 308.057 1870.04 C 302.652 1848.28 290.444 1830.4 271.504 1818.87 C 206.895 1779.54 125.648 1810.78 70.7368 1852.94 C 62.9683 1858.91 49.8521 1868.14 44.8833 1875.95 C 43.0655 1876.69 44.0611 1876.55 41.7578 1875.64 C 40.8371 1872.24 40.6698 1873.82 42.1648 1870.72 C 75.5269 1841.3 107.8 1820.29 149.899 1805.38 C 186.485 1795.67 216.99 1790.92 253.601 1805.04 C 282.422 1816.17 299.789 1832.54 310.764 1861.43 C 345.495 1845.18 378.464 1840.21 415.323 1853.56 C 453.222 1867.52 484.099 1895.85 501.273 1932.41 C 504.972 1940.44 506.987 1947.09 509.455 1955.57 C 539.847 1919.54 572.08 1897.34 620.552 1893.12 C 665.236 1889.29 709.606 1903.42 743.85 1932.38 C 750.417 1937.87 756.486 1943.93 761.989 1950.49 C 766.651 1934.19 770.345 1922.01 779.437 1907.26 C 809.379 1858.68 859.744 1833.03 916.584 1848.64 C 909.81 1817.99 912.974 1790 930.144 1763.07 C 946.908 1736.45 973.767 1717.79 1004.56 1711.37 C 1009.6 1710.28 1016.5 1709.17 1021.65 1708.88 z" fill="rgb(0,0,0)" transform="translate(0,0)"></path>
<path d="M 1505.11 1927.17 C 1518.11 1934.27 1530.92 1950.64 1538.15 1963.42 C 1539.86 1966.43 1540.39 1969.73 1543.93 1968.01 L 1545.23 1969.03 C 1539.5 1971.24 1535.34 1972.51 1529.21 1973.42 C 1524.22 1960.03 1518.71 1949.52 1511.08 1937.37 C 1508.9 1933.9 1506.75 1930.94 1505.11 1927.17 z" fill="rgb(233,111,102)" transform="translate(0,0)"></path>
<path d="M 725.517 1924.53 C 737.289 1933.06 748.574 1941.18 757.524 1952.89 C 759.274 1955.18 760.621 1957.21 763.144 1958.59 C 758.267 1960.49 753.316 1962.17 748.26 1963.54 L 747.33 1963.8 C 744.381 1951.04 731.637 1936.37 723.012 1926.87 L 725.517 1924.53 z" fill="rgb(233,111,102)" transform="translate(0,0)"></path>
<path d="M 715.259 1918.65 C 718.645 1920.27 722.458 1922.4 725.517 1924.53 L 723.012 1926.87 C 720.052 1923.99 716.072 1921.73 715.259 1918.65 z" fill="rgb(221,83,74)" transform="translate(0,0)"></path>
<path d="M 995.102 1514.17 C 997.666 1514.86 997.533 1514.77 999.674 1516.32 C 1000.53 1523.68 993.948 1547.94 991.723 1556.12 C 972.694 1625 935.852 1687.66 884.906 1737.77 C 816.224 1805.78 723.236 1849.35 625.75 1849.01 C 623.487 1848.71 624.331 1848.98 622.403 1847.57 L 622.219 1844.96 C 625.792 1841.4 638.109 1842.94 643.738 1842.55 C 657.904 1841.56 671.998 1839.74 685.947 1837.09 C 732.452 1828.18 776.785 1810.33 816.487 1784.53 C 914.71 1720.42 971.353 1627.64 995.102 1514.17 z" fill="rgb(253,253,252)" transform="translate(0,0)"></path>
<path d="M 1051.62 1514.39 C 1056.45 1517.26 1060.23 1539.64 1062.03 1546.46 C 1066.55 1563.9 1072.2 1581.03 1078.95 1597.74 C 1098.2 1645.67 1126.62 1689.38 1162.62 1726.42 C 1228.86 1795.34 1318.29 1838.55 1414.01 1842.74 C 1417.43 1842.89 1424.57 1842.69 1427.29 1844.41 C 1427.97 1847.46 1427.99 1845.92 1426.78 1849.17 C 1355.3 1850.05 1277.25 1823.93 1218.7 1783.2 C 1143.58 1730.86 1088.21 1654.8 1061.48 1567.24 C 1057.01 1552.66 1052.88 1536.87 1049.92 1521.87 C 1048.99 1517.15 1049.44 1517.44 1051.62 1514.39 z" fill="rgb(253,253,252)" transform="translate(0,0)"></path>
<path d="M 1583.61 1821.99 C 1588.39 1821.26 1587.02 1826.37 1586.88 1826.48 C 1580.4 1831.28 1549.58 1837.92 1543.15 1839.45 C 1536.97 1839.63 1539.09 1831.08 1545.5 1832.14 C 1545.96 1832.22 1553.5 1830.52 1554.53 1830.29 C 1564.4 1828.16 1574.11 1825.39 1583.61 1821.99 z" fill="rgb(253,253,252)" transform="translate(0,0)"></path>
<path d="M 463.021 1821.5 C 471.606 1823.27 480.64 1826.77 489.513 1828.84 L 493.514 1829.76 C 507.193 1832.87 508.512 1828.36 509.309 1839.71 C 505.664 1838.98 503.123 1838.42 497.987 1837.21 C 487.536 1834.74 472.815 1831.74 463.272 1826.83 C 462.767 1826.17 462.835 1825.29 462.841 1824.51 C 462.901 1823.5 462.961 1822.5 463.021 1821.5 z" fill="rgb(253,253,252)" transform="translate(0,0)"></path>
<path d="M 536.598 1836.74 C 547.214 1837.41 559.508 1838.86 570.21 1839.62 C 571.171 1839.69 571.213 1845.64 571.252 1846.15 C 561.1 1845.69 547.383 1845.25 537.526 1842.58 C 536.655 1842.34 536.624 1837.2 536.598 1836.74 z" fill="rgb(253,253,252)" transform="translate(0,0)"></path>
<path d="M 1498.51 1838.5 C 1500.79 1838.28 1518.61 1834.56 1512.57 1843.39 C 1512.21 1843.93 1497.32 1844.87 1494.25 1844.95 C 1489.78 1845.07 1484.42 1845.36 1480.47 1845.32 C 1476.47 1845.28 1477.83 1839.85 1478.47 1839.64 C 1480.75 1838.9 1495.85 1838.77 1498.51 1838.5 z" fill="rgb(253,253,252)" transform="translate(0,0)"></path>
<path d="M 1787.96 1035.62 L 1789.7 1033.33 L 1791.52 1033.41 L 1792.97 1035.71 C 1811.95 1084.6 1819.03 1113.51 1831.72 1164.17 L 1832.55 1166.67 C 1839.38 1214.33 1841.07 1247.55 1839.12 1295.14 L 1838.9 1298.93 C 1838.55 1317.94 1831.98 1358.5 1827.72 1376.96 C 1826.57 1378.48 1826.68 1378.8 1826.14 1380.72 C 1826.14 1386.04 1822.99 1394.66 1821.31 1400.07 C 1820.69 1401.47 1820.56 1402 1820.06 1403.55 C 1819.54 1408.64 1818.89 1411.28 1817.63 1416.27 C 1816.8 1418.02 1816.21 1420.27 1815.49 1422.15 C 1808.4 1441.3 1799.7 1459.81 1789.48 1477.48 L 1786.88 1481.27 C 1772.25 1505.5 1763.09 1517.43 1742.77 1538.14 L 1741.33 1539.12 C 1737.98 1542.76 1734.53 1546.32 1731 1549.79 L 1727.54 1552.68 C 1725.03 1554.97 1718.53 1560.56 1716.85 1562.96 L 1713.77 1564.74 C 1709.65 1568.26 1706.54 1570.78 1702.16 1574.01 C 1700.48 1575.11 1699.27 1575.87 1697.49 1576.85 L 1683.94 1586 L 1680.46 1587.38 C 1676.91 1589.67 1669.13 1594.33 1665.11 1595.82 L 1664.21 1596.21 C 1659.2 1599.09 1651.02 1603.15 1645.5 1604.84 L 1643.85 1605.48 C 1639.24 1608.28 1635.88 1609.66 1631 1611.78 C 1627.92 1612.86 1623.56 1614.16 1620.99 1615.92 L 1617.58 1615.99 L 1616.02 1609.73 C 1606.52 1580.32 1621.68 1544.37 1641.57 1522.57 C 1678.31 1482.31 1730.13 1478.89 1781.15 1476.92 C 1767.94 1463.7 1759.39 1449 1753.77 1431.16 C 1744.92 1402.65 1747.85 1371.78 1761.91 1345.45 C 1775.51 1320.03 1798.31 1302.7 1825.69 1294.45 C 1789.26 1269.38 1775.91 1231.56 1798.71 1190.88 C 1804.94 1179.78 1813.65 1173.05 1823.68 1165.5 C 1815.86 1161.56 1811.52 1158.22 1805.58 1151.73 C 1774.21 1117.46 1786.32 1076.99 1787.96 1035.62 z" fill="rgb(0,0,0)" transform="translate(0,0)"></path>
<path d="M 1620.99 1615.92 C 1605.43 1532.25 1672.85 1487.13 1748.95 1483.33 C 1761.36 1482.71 1774.49 1482.23 1786.88 1481.27 C 1772.25 1505.5 1763.09 1517.43 1742.77 1538.14 L 1741.33 1539.12 C 1737.98 1542.76 1734.53 1546.32 1731 1549.79 L 1727.54 1552.68 C 1725.03 1554.97 1718.53 1560.56 1716.85 1562.96 L 1713.77 1564.74 C 1709.65 1568.26 1706.54 1570.78 1702.16 1574.01 C 1700.48 1575.11 1699.27 1575.87 1697.49 1576.85 L 1683.94 1586 L 1680.46 1587.38 C 1676.91 1589.67 1669.13 1594.33 1665.11 1595.82 L 1664.21 1596.21 C 1659.2 1599.09 1651.02 1603.15 1645.5 1604.84 L 1643.85 1605.48 C 1639.24 1608.28 1635.88 1609.66 1631 1611.78 C 1627.92 1612.86 1623.56 1614.16 1620.99 1615.92 z" fill="rgb(233,111,102)" transform="translate(0,0)"></path>
<path d="M 1697.49 1576.85 C 1688.07 1569.15 1675.5 1559.06 1668.79 1548.05 C 1666.85 1544.86 1657.44 1535.86 1664.72 1534.62 C 1666.21 1534.37 1672.68 1546.42 1674.08 1547.4 C 1682.41 1558.17 1691.01 1566.48 1702.16 1574.01 C 1700.48 1575.11 1699.27 1575.87 1697.49 1576.85 z" fill="rgb(151,44,45)" transform="translate(0,0)"></path>
<path d="M 1727.54 1552.68 C 1714.4 1541.21 1702.59 1530.9 1693.06 1516.36 C 1692.3 1515.21 1694.63 1512.63 1695.57 1513.03 C 1698.78 1514.41 1701.06 1520.76 1703.71 1523.26 C 1711.22 1533.88 1722.13 1540.97 1731 1549.79 L 1727.54 1552.68 z" fill="rgb(151,44,45)" transform="translate(0,0)"></path>
<path d="M 1713.77 1564.74 C 1709.16 1560.31 1704.28 1556.78 1699.54 1552.31 C 1691.51 1544.75 1683.41 1535.73 1678.21 1525.97 C 1677.63 1523.35 1680.47 1522.02 1681.81 1524.56 C 1690.18 1540.45 1706.02 1550.37 1716.85 1562.96 L 1713.77 1564.74 z" fill="rgb(151,44,45)" transform="translate(0,0)"></path>
<path d="M 1741.33 1539.12 C 1727.95 1531.13 1716.24 1518.19 1708.34 1504.86 C 1707.5 1503.44 1710.79 1499.46 1712.27 1501.74 C 1719.82 1513.31 1727.87 1524.42 1738.33 1533.57 C 1740.77 1535.7 1740.81 1535.38 1742.77 1538.14 L 1741.33 1539.12 z" fill="url(#Gradient1)" transform="translate(0,0)"></path>
<path d="M 1680.46 1587.38 C 1668.17 1578.81 1659.07 1567.06 1651.77 1554.11 C 1651.02 1552.76 1647.74 1548.36 1649.83 1546.7 C 1652.08 1544.92 1657.27 1555.29 1658.09 1556.5 C 1664.28 1565.68 1670.85 1575.32 1679.34 1582.53 C 1680.64 1583.64 1682.51 1584.85 1683.94 1586 L 1680.46 1587.38 z" fill="rgb(151,44,45)" transform="translate(0,0)"></path>
<path d="M 1633.34 1550.37 C 1643.84 1564.01 1649.93 1579.47 1662.82 1591.57 C 1664.22 1592.89 1664.57 1594.05 1665.11 1595.82 L 1664.21 1596.21 C 1650.76 1589.94 1638.43 1563.98 1633.34 1550.37 z" fill="rgb(151,44,45)" transform="translate(0,0)"></path>
<path d="M 1643.85 1605.48 C 1641.95 1603.54 1641.57 1603.12 1640.36 1600.66 C 1637.64 1595.16 1631.89 1589.49 1630.57 1583.56 C 1630.45 1583.04 1632 1583.45 1632.44 1584.47 C 1634.42 1589.05 1645.52 1600.87 1645.5 1604.84 L 1643.85 1605.48 z" fill="rgb(151,44,45)" transform="translate(0,0)"></path>
<path d="M 1838.9 1298.93 C 1838.55 1317.94 1831.98 1358.5 1827.72 1376.96 C 1826.57 1378.48 1826.68 1378.8 1826.14 1380.72 C 1826.14 1386.04 1822.99 1394.66 1821.31 1400.07 C 1820.69 1401.47 1820.56 1402 1820.06 1403.55 C 1819.54 1408.64 1818.89 1411.28 1817.63 1416.27 C 1816.8 1418.02 1816.21 1420.27 1815.49 1422.15 C 1808.4 1441.3 1799.7 1459.81 1789.48 1477.48 C 1740.18 1438.73 1741.92 1352.36 1793.16 1315.71 C 1805.96 1306.55 1822.74 1296.67 1838.9 1298.93 z" fill="rgb(233,111,102)" transform="translate(0,0)"></path>
<path d="M 1815.49 1422.15 C 1807.99 1416.78 1798.88 1411.13 1791.01 1406.2 C 1784.89 1402.37 1789.3 1398.63 1793.41 1401.08 C 1799.69 1404.83 1810.99 1414.63 1817.63 1416.27 C 1816.8 1418.02 1816.21 1420.27 1815.49 1422.15 z" fill="rgb(234,167,183)" transform="translate(0,0)"></path>
<path d="M 1820.06 1403.55 C 1812.87 1396.18 1805.06 1389.44 1798.09 1382.01 C 1797.37 1380.93 1800.34 1377.52 1801.03 1378.09 C 1807.65 1383.51 1815.7 1393.98 1821.31 1400.07 C 1820.69 1401.47 1820.56 1402 1820.06 1403.55 z" fill="rgb(247,212,209)" transform="translate(0,0)"></path>
<path d="M 1826.14 1380.72 C 1809.69 1374.39 1797.01 1354.31 1827.72 1376.96 C 1826.57 1378.48 1826.68 1378.8 1826.14 1380.72 z" fill="rgb(247,212,209)" transform="translate(0,0)"></path>
<path d="M 1832.55 1166.67 C 1839.38 1214.33 1841.07 1247.55 1839.12 1295.14 C 1824.43 1288.6 1817.06 1284.12 1807.46 1272.95 C 1778.66 1239.46 1791.63 1185.4 1831.62 1167.51 C 1831.93 1167.23 1832.24 1166.95 1832.55 1166.67 z" fill="rgb(233,111,102)" transform="translate(0,0)"></path>
<path d="M 1792.97 1035.71 C 1811.95 1084.6 1819.03 1113.51 1831.72 1164.17 C 1791.26 1148.48 1785.05 1104.36 1790.17 1067.01 C 1791.57 1056.77 1791.33 1046.15 1792.97 1035.71 z" fill="rgb(233,111,102)" transform="translate(0,0)"></path>
<path d="M 257.328 1035.74 L 258.595 1032.93 L 260.474 1032.56 C 262.099 1034.63 261.646 1033.49 261.956 1035.93 C 263.318 1077.4 276.147 1116.15 244.264 1150.57 C 238.484 1156.75 231.863 1162.1 224.595 1166.44 C 243.306 1178.77 255.469 1193.05 260.018 1215.67 C 263.873 1234.84 259.872 1254.76 248.914 1270.95 C 242.288 1280.87 234.688 1287.52 224.983 1294.27 C 234.408 1297.85 242.204 1300.86 250.727 1306.26 C 295.767 1334.8 311.583 1389.14 293.022 1438.2 C 287.585 1452.49 279.451 1465.61 269.062 1476.83 C 302.392 1479.03 327.596 1480.02 360.054 1490.59 C 406.207 1505.62 448.407 1560.12 435.21 1610.31 L 433.347 1616.34 L 429.551 1615.68 C 426.569 1613.94 422.751 1613.23 419.335 1612.38 C 414.107 1609.44 408.386 1607.85 402.358 1604.4 L 399.869 1603.75 C 394.104 1600.31 389.055 1598.88 382.774 1594.43 L 380.397 1593.23 C 374.799 1590.46 371.35 1588.38 366.087 1585.1 C 365.044 1584.63 364.062 1584.19 363.003 1583.75 C 362.165 1582.87 351.737 1575.94 349.725 1574.43 L 347.449 1573.08 C 343.429 1570.7 336.725 1565.76 333.312 1562.64 L 330.141 1560.75 C 326.714 1557.57 323.26 1554.42 319.779 1551.3 C 318.961 1550.63 318.136 1549.96 317.304 1549.3 C 292.229 1522.34 284.501 1512.28 263.477 1482.22 L 261.195 1479.32 C 260.797 1476.99 253.767 1463.97 252.346 1461.32 C 245.388 1448.35 240.177 1435.83 235.228 1421.99 C 234.96 1420.21 234.329 1418.53 233.782 1416.82 L 229.803 1404.1 L 229.429 1403.18 C 228.448 1400.82 228.13 1399.06 227.336 1396.77 C 225.878 1391.61 224.356 1386.46 222.771 1381.34 C 222.287 1379.71 221.847 1378.07 221.451 1376.41 C 221.175 1371.7 219.997 1365.41 219.111 1360.61 C 215.249 1339.66 212.851 1319.35 211.127 1298.11 L 210.934 1295.26 C 211.379 1283.85 210.057 1270.8 210.419 1259.22 C 211.331 1230.09 212.679 1193.6 217.727 1165.13 L 218.202 1164.3 C 218.584 1158.32 222.351 1143.06 223.92 1136.76 C 231.811 1105.08 242.376 1064.77 257.328 1035.74 z" fill="rgb(0,0,0)" transform="translate(0,0)"></path>
<path d="M 263.477 1482.22 C 312.071 1482.35 366.516 1486.07 402.545 1522.82 C 427.817 1548.59 438.236 1580.52 429.551 1615.68 C 426.569 1613.94 422.751 1613.23 419.335 1612.38 C 414.107 1609.44 408.386 1607.85 402.358 1604.4 L 399.869 1603.75 C 394.104 1600.31 389.055 1598.88 382.774 1594.43 L 380.397 1593.23 C 374.799 1590.46 371.35 1588.38 366.087 1585.1 C 365.044 1584.63 364.062 1584.19 363.003 1583.75 C 362.165 1582.87 351.737 1575.94 349.725 1574.43 L 347.449 1573.08 C 343.429 1570.7 336.725 1565.76 333.312 1562.64 L 330.141 1560.75 C 326.714 1557.57 323.26 1554.42 319.779 1551.3 C 318.961 1550.63 318.136 1549.96 317.304 1549.3 C 292.229 1522.34 284.501 1512.28 263.477 1482.22 z" fill="rgb(233,111,102)" transform="translate(0,0)"></path>
<path d="M 330.141 1560.75 C 342.535 1550.81 352.492 1540.67 361.741 1527.71 C 364.792 1523.44 367.834 1520.92 371.671 1517.46 C 364.277 1535.37 349.456 1552.08 333.312 1562.64 L 330.141 1560.75 z" fill="rgb(151,44,45)" transform="translate(0,0)"></path>
<path d="M 363.003 1583.75 C 362.861 1583.89 372.994 1574.38 372.321 1574.8 C 377.156 1571.82 394.863 1542.36 396.551 1541.66 C 403.362 1543.14 382.339 1569.96 380.263 1572.25 C 375.884 1577.08 370.87 1580.73 366.087 1585.1 C 365.044 1584.63 364.062 1584.19 363.003 1583.75 z" fill="rgb(151,44,45)" transform="translate(0,0)"></path>
<path d="M 380.397 1593.23 C 383.429 1588.41 386.364 1586.66 389.899 1582.31 C 395.345 1575.57 400.172 1568.36 404.32 1560.76 C 405.845 1557.93 407.606 1553.11 410.211 1551.39 C 411.232 1550.71 412.86 1553.52 412.579 1554.03 C 407.181 1563.78 392.929 1590.78 382.774 1594.43 L 380.397 1593.23 z" fill="rgb(151,44,45)" transform="translate(0,0)"></path>
<path d="M 317.304 1549.3 C 328.944 1537.59 338.534 1530.72 348.222 1516.29 C 356.599 1503.81 356.829 1511.45 349.108 1521.59 C 339.092 1534.75 332.988 1541.3 319.779 1551.3 C 318.961 1550.63 318.136 1549.96 317.304 1549.3 z" fill="rgb(151,44,45)" transform="translate(0,0)"></path>
<path d="M 347.449 1573.08 C 357.155 1564.64 366.032 1556.09 373.54 1545.55 C 375.642 1542.6 380.617 1533.43 383.749 1533.25 C 386.262 1539.53 356.193 1570.34 349.725 1574.43 L 347.449 1573.08 z" fill="rgb(151,44,45)" transform="translate(0,0)"></path>
<path d="M 399.869 1603.75 C 402.756 1595.85 410.082 1585.79 414.339 1578.28 C 414.601 1577.81 415.757 1578.9 415.738 1579.57 C 415.514 1587.64 407.67 1598.82 402.358 1604.4 L 399.869 1603.75 z" fill="rgb(151,44,45)" transform="translate(0,0)"></path>
<path d="M 337.792 1499.78 C 340.722 1502.03 340.779 1503.9 338.512 1506.96 L 334.805 1511.91 C 327.142 1522.06 319.834 1530.22 309.217 1537.29 C 308.092 1537.03 307.08 1537.09 306.886 1535.85 C 309.175 1531.92 320.067 1521.7 323.956 1517.44 C 330.157 1510.63 332.53 1506.95 337.792 1499.78 z" fill="rgb(151,44,45)" transform="translate(0,0)"></path>
<path d="M 211.127 1298.11 C 234.443 1298.91 252.885 1310.29 268.246 1326.45 C 309.53 1369.88 302.94 1435.32 262.775 1476.92 C 261.875 1477.85 261.856 1478.09 261.195 1479.32 C 260.797 1476.99 253.767 1463.97 252.346 1461.32 C 245.388 1448.35 240.177 1435.83 235.228 1421.99 C 234.96 1420.21 234.329 1418.53 233.782 1416.82 L 229.803 1404.1 L 229.429 1403.18 C 228.448 1400.82 228.13 1399.06 227.336 1396.77 C 225.878 1391.61 224.356 1386.46 222.771 1381.34 C 222.287 1379.71 221.847 1378.07 221.451 1376.41 C 221.175 1371.7 219.997 1365.41 219.111 1360.61 C 215.249 1339.66 212.851 1319.35 211.127 1298.11 z" fill="rgb(233,111,102)" transform="translate(0,0)"></path>
<path d="M 227.336 1396.77 C 232.648 1395.59 243.279 1379.48 248.969 1377.82 C 249.467 1377.67 253.111 1381.23 250.906 1382.39 C 243.842 1389.54 236.435 1396.52 229.803 1404.1 L 229.429 1403.18 C 228.448 1400.82 228.13 1399.06 227.336 1396.77 z" fill="rgb(234,167,183)" transform="translate(0,0)"></path>
<path d="M 233.782 1416.82 C 241.993 1411.49 249.921 1406.19 257.558 1400 C 260.732 1397.43 261.44 1402.57 260.857 1403.49 C 259.027 1406.38 252.997 1409.47 250.42 1411.9 C 246.404 1414.8 239.443 1419.75 235.228 1421.99 C 234.96 1420.21 234.329 1418.53 233.782 1416.82 z" fill="rgb(247,212,209)" transform="translate(0,0)"></path>
<path d="M 221.451 1376.41 C 224.582 1374.41 237.622 1365.67 238.889 1366.07 C 247.374 1368.81 225.204 1380.21 222.771 1381.34 C 222.287 1379.71 221.847 1378.07 221.451 1376.41 z" fill="rgb(247,212,209)" transform="translate(0,0)"></path>
<path d="M 210.934 1295.26 C 211.379 1283.85 210.057 1270.8 210.419 1259.22 C 211.331 1230.09 212.679 1193.6 217.727 1165.13 C 219.387 1169.09 230.02 1175.56 234.761 1179.82 C 256.035 1198.83 262.978 1229.21 252.076 1255.57 C 245.056 1272.72 228.907 1289.79 210.934 1295.26 z" fill="rgb(233,111,102)" transform="translate(0,0)"></path>
<path d="M 218.202 1164.3 C 218.584 1158.32 222.351 1143.06 223.92 1136.76 C 231.811 1105.08 242.376 1064.77 257.328 1035.74 C 261.975 1081.11 270.776 1141.72 218.202 1164.3 z" fill="rgb(233,111,102)" transform="translate(0,0)"></path>
<path d="M 1025.03 914.368 C 1042.25 934.519 1061.52 942.315 1084.61 954.306 C 1107.15 965.861 1129.58 977.64 1151.89 989.641 C 1153.22 995.972 1160.23 1006.1 1162.98 1014.39 C 1146.25 1017.19 1141.81 1019.53 1138.57 1037.25 C 1124.3 1031.95 1108.7 1029.73 1099.88 1045.14 C 1096.62 1050.84 1096.37 1056.57 1094.32 1062.65 C 1087.71 1064.18 1076.35 1053.78 1065.05 1060.93 C 1050.46 1070.16 1051.14 1077.61 1049.09 1092.95 C 1043.58 1098.56 1034.86 1088.38 1023.76 1105.87 C 1016.27 1096.37 1012.96 1095.4 1000.84 1094.3 L 999.406 1094.18 C 998.575 1092.8 998.45 1092.95 998.331 1091.37 C 996.192 1062.82 981.22 1052.36 954.37 1063.35 C 953.953 1053.72 951.349 1042.17 942.651 1036.41 C 933.381 1030.26 923.776 1034.02 913.865 1035.8 C 902.974 1028.69 918.583 1019.24 887.175 1013.63 C 891.571 1004.44 892.67 999.408 898.165 989.528 C 919.476 978.193 940.867 967.01 962.336 955.979 C 982.637 945.515 1011.6 933.039 1025.03 914.368 z" fill="rgb(253,253,252)" transform="translate(0,0)"></path>
<path d="M 887.175 1013.63 C 918.583 1019.24 902.974 1028.69 913.865 1035.8 C 923.776 1034.02 933.381 1030.26 942.651 1036.41 C 951.349 1042.17 953.953 1053.72 954.37 1063.35 C 981.22 1052.36 996.192 1062.82 998.331 1091.37 C 998.45 1092.95 998.575 1092.8 999.406 1094.18 L 1000.84 1094.3 C 1012.96 1095.4 1016.27 1096.37 1023.76 1105.87 C 1034.86 1088.38 1043.58 1098.56 1049.09 1092.95 C 1051.14 1077.61 1050.46 1070.16 1065.05 1060.93 C 1076.35 1053.78 1087.71 1064.18 1094.32 1062.65 C 1096.37 1056.57 1096.62 1050.84 1099.88 1045.14 C 1108.7 1029.73 1124.3 1031.95 1138.57 1037.25 C 1141.81 1019.53 1146.25 1017.19 1162.98 1014.39 C 1163.53 1015.86 1164.37 1017.8 1164.66 1019.28 C 1171.64 1036.15 1181.59 1054.27 1190.01 1070.54 C 1186.08 1071.15 1182.15 1071.81 1178.24 1072.51 C 1111.95 1084.47 1062.78 1115.77 1024.6 1170.9 C 983.261 1112.46 930.131 1079.79 858.556 1070.62 C 867.182 1054.82 877.674 1035.63 884.208 1018.96 L 887.175 1013.63 z" fill="rgb(233,111,102)" transform="translate(0,0)"></path>
<path d="M 887.175 1013.63 C 918.583 1019.24 902.974 1028.69 913.865 1035.8 C 923.776 1034.02 933.381 1030.26 942.651 1036.41 C 951.349 1042.17 953.953 1053.72 954.37 1063.35 C 981.22 1052.36 996.192 1062.82 998.331 1091.37 C 998.45 1092.95 998.575 1092.8 999.406 1094.18 L 1000.84 1094.3 C 1012.96 1095.4 1016.27 1096.37 1023.76 1105.87 C 1034.86 1088.38 1043.58 1098.56 1049.09 1092.95 C 1051.14 1077.61 1050.46 1070.16 1065.05 1060.93 C 1076.35 1053.78 1087.71 1064.18 1094.32 1062.65 C 1096.37 1056.57 1096.62 1050.84 1099.88 1045.14 C 1108.7 1029.73 1124.3 1031.95 1138.57 1037.25 C 1141.81 1019.53 1146.25 1017.19 1162.98 1014.39 C 1163.53 1015.86 1164.37 1017.8 1164.66 1019.28 C 1133.86 1022.1 1149.91 1036.87 1143.69 1048.03 C 1139.25 1045.15 1136.28 1040.84 1131.37 1039.2 C 1120.37 1035.53 1109.67 1037.64 1103.34 1047.86 C 1097.2 1057.78 1101.63 1065.23 1100.53 1074.05 C 1085.88 1064.55 1072.57 1054.85 1058.24 1073.26 C 1051.75 1081.59 1057.26 1098.93 1055.35 1101.27 C 1047.78 1100.28 1038.2 1096.46 1031.82 1101.78 C 1024.27 1108.07 1026.17 1119.76 1023.16 1129.76 C 1019.39 1104.83 1019.56 1091.99 989.807 1103.24 C 993.108 1093.26 995.193 1085.98 990.472 1075.77 C 984.239 1062.3 970.538 1060.12 958.061 1066.29 C 953.659 1068.47 951.184 1074.11 946.565 1075.07 L 945.567 1073.99 C 951.172 1058.88 952.638 1048.54 937.315 1038.27 C 929.565 1036.02 923.309 1036.72 915.751 1039.72 C 912.311 1042.17 910.591 1045.19 906.934 1045.56 C 902.383 1038.94 917.04 1018.66 884.208 1018.96 L 887.175 1013.63 z" fill="rgb(0,0,0)" transform="translate(0,0)"></path>
<path d="M 1190.01 1070.54 C 1191.69 1072.87 1191.53 1072 1192.02 1074.54 C 1134.05 1084.55 1086.16 1104.14 1046.36 1149.54 C 1038.51 1158.48 1032.51 1168.49 1024.96 1177.56 L 1024.19 1178.47 C 977.091 1110.78 936.809 1090.23 857.229 1074.37 L 858.556 1070.62 C 930.131 1079.79 983.261 1112.46 1024.6 1170.9 C 1062.78 1115.77 1111.95 1084.47 1178.24 1072.51 C 1182.15 1071.81 1186.08 1071.15 1190.01 1070.54 z" fill="rgb(0,0,0)" transform="translate(0,0)"></path>
<path d="M 1617.58 1615.99 C 1585.68 1626.73 1535.56 1631.71 1503.77 1617.34 C 1502.55 1616.79 1502.92 1615.68 1502.89 1614.57 C 1503.43 1613.94 1503.98 1613.3 1504.53 1612.67 C 1507.68 1612.57 1518.97 1615.48 1521.56 1616.12 C 1553.34 1623.93 1585.06 1619.22 1616.02 1609.73 L 1617.58 1615.99 z" fill="rgb(253,253,252)" transform="translate(0,0)"></path>
<path d="M 435.21 1610.31 C 476.13 1621.28 500.82 1624.1 541.878 1613.64 C 543.565 1613.21 544.85 1614.38 546.102 1615.28 C 544.919 1620.26 530.952 1622.37 526.232 1623.47 C 496.228 1630.49 465.612 1625.08 436.34 1617.17 C 435.34 1616.9 434.342 1616.62 433.347 1616.34 L 435.21 1610.31 z" fill="rgb(253,253,252)" transform="translate(0,0)"></path>
<path d="M 719.624 1288.24 C 724.183 1287.64 729.551 1287.79 734.098 1287.95 C 800.22 1290.32 808.405 1387.57 736.413 1384.39 C 718.21 1382.47 701.158 1367.2 704.862 1347.71 C 705.921 1342.14 711.525 1330.51 719.346 1334.38 C 721.65 1335.52 722.442 1337.32 723.267 1339.6 C 722.599 1344 718.184 1348.88 715.619 1352.83 C 735.727 1392.81 780.552 1363.85 772.768 1330 C 766.636 1303.34 732.602 1297.5 708.967 1305.23 C 693.338 1310.23 680.406 1321.35 673.131 1336.06 C 655.087 1372.1 677.725 1401.44 709.728 1416.54 C 767.303 1439.87 836.713 1406.62 885.573 1378.01 C 887.379 1376.95 890.13 1377.17 892.128 1377.49 C 902.937 1386.61 878.145 1397.5 872.339 1400.65 C 820.024 1429.27 743.531 1457.75 688.742 1420.48 C 629.26 1380 650.447 1300.54 719.624 1288.24 z" fill="rgb(233,111,102)" transform="translate(0,0)"></path>
<path d="M 1317.63 1287.38 C 1357.79 1282.74 1403.75 1327.42 1396.77 1367.89 C 1393.24 1388.34 1380.16 1407.87 1363.34 1419.5 C 1308.58 1457.38 1236.19 1430.3 1182.75 1403.4 C 1173.69 1398.83 1153.12 1390.56 1155.26 1378.12 C 1158.15 1376.44 1161.95 1376.41 1164.87 1378.08 C 1213.16 1405.81 1273.46 1435.2 1330.72 1420.43 C 1339.25 1417.95 1347.3 1414.07 1354.54 1408.94 C 1405.74 1372.43 1382.42 1309.4 1328.05 1301.82 C 1314.36 1299.78 1300.45 1303.49 1289.6 1312.07 C 1252.1 1342.02 1295.96 1393.57 1330.17 1361.49 C 1339.74 1352.52 1326.64 1342.69 1326.06 1338.15 C 1328.18 1333.55 1334.43 1330.5 1337.06 1333.44 C 1357.96 1356.86 1337.44 1380.94 1314.15 1384.16 C 1285.27 1388.16 1266.52 1368.92 1263.51 1344.39 C 1262 1331.71 1265.57 1318.94 1273.45 1308.89 C 1284.6 1294.64 1300.37 1289.22 1317.63 1287.38 z" fill="rgb(233,111,102)" transform="translate(0,0)"></path>
<path d="M 307.907 1211.69 C 312.454 1213.51 313.321 1218.21 314.758 1222.57 C 319.505 1236.96 323.481 1251.64 329.354 1265.63 C 358.706 1335.51 403.858 1397.63 461.266 1447.12 C 521.877 1498.84 612.108 1543.22 693.249 1536.45 C 815.008 1525.89 909.736 1425.68 963.934 1323.28 C 966.695 1318.06 972.361 1303.44 978.306 1303.25 L 979.961 1304.99 L 979.066 1308.17 C 940.068 1391.86 865.146 1481.54 779.895 1519.9 C 711.393 1550.73 648.036 1550.36 578.844 1524.44 C 466.572 1482.39 379.552 1391.28 330.107 1283.42 C 324.271 1270.69 303.936 1222.41 307.907 1211.69 z" fill="rgb(253,253,252)" transform="translate(0,0)"></path>
<path d="M 1738.03 1212.14 C 1740.58 1213.08 1740.44 1212.94 1742.05 1215.11 C 1742.54 1224.21 1735.66 1242.02 1732.5 1251.12 C 1674.39 1418.81 1477.94 1593.98 1290.61 1528.69 C 1200.61 1497.32 1112.83 1399.06 1072.97 1313.55 C 1071.3 1309.99 1069.4 1306.93 1070.24 1303.29 L 1072.16 1302.43 C 1077.4 1305.12 1082.09 1317.55 1085.18 1323.16 C 1132.94 1409.99 1204.63 1493.58 1301.29 1525.52 C 1374.19 1549.62 1444.72 1533.15 1510.4 1499.42 C 1601.61 1452.58 1672.47 1371.05 1714.53 1278.36 C 1724.56 1256.18 1730.59 1235.11 1738.03 1212.14 z" fill="rgb(253,253,252)" transform="translate(0,0)"></path>
<path d="M 1276.34 1610.28 C 1280.26 1611.25 1291.66 1619.81 1295.63 1622.57 C 1323.17 1641.72 1359.27 1658.32 1390.85 1669.8 C 1457.62 1694.09 1528.85 1703.72 1599.68 1698.03 C 1635.33 1695.41 1673.26 1689.65 1708.91 1691.1 C 1751.54 1692.83 1797.9 1701.42 1836.61 1719.66 C 1842.72 1722.53 1851.85 1726.68 1856.87 1731.48 C 1858.36 1732.91 1857.73 1733.01 1857.49 1735.82 C 1853.02 1736.17 1819.23 1719.54 1811.29 1716.58 C 1790.84 1709.15 1769.66 1703.92 1748.1 1701 C 1677.15 1691.2 1632.13 1705.8 1565.27 1706.12 C 1479.2 1707.17 1394.31 1686.02 1318.8 1644.7 C 1305.93 1637.57 1289.01 1627.77 1278.21 1617.66 C 1275.34 1614.97 1276.09 1613.6 1276.34 1610.28 z" fill="rgb(253,253,252)" transform="translate(0,0)"></path>
<path d="M 770.368 1610.71 C 772.86 1611.59 773.988 1612.65 774.59 1615 C 770.606 1622.16 729.357 1645.58 719.881 1650.51 C 651.527 1685.66 576.037 1704.69 499.193 1706.15 C 418.631 1707.74 343.893 1685.27 262.942 1708.72 C 239.029 1715.65 216.414 1723.47 195.31 1737.17 C 192.758 1736.03 193.606 1736.38 191.544 1734.1 L 191.771 1731.9 C 197.446 1725.97 217.065 1717.6 225.321 1714.25 C 272.972 1694.87 328.886 1688.46 380.038 1692.14 C 405.464 1693.97 430.608 1697.23 456.023 1698.7 C 484.147 1700.4 512.362 1699.89 540.405 1697.15 C 623.424 1689.48 702.853 1659.62 770.368 1610.71 z" fill="rgb(253,253,252)" transform="translate(0,0)"></path>
<path d="M 1191.56 1132.36 C 1194.14 1132.77 1195.76 1132.26 1196.05 1134.97 C 1197.4 1148.07 1201.56 1160.53 1208.72 1171.62 C 1220.02 1189.28 1239.67 1202.27 1260.04 1206.82 C 1263.79 1207.66 1263.5 1206.66 1264.38 1210.95 C 1246.6 1211.68 1222.04 1195.57 1210.79 1182.15 C 1200.71 1170.15 1190.91 1148.2 1191.56 1132.36 z" fill="rgb(0,0,0)" transform="translate(0,0)"></path>
<path d="M 855.14 1131.44 C 858.884 1134.38 857.106 1139.57 856.292 1144 C 854.704 1152.92 851.632 1161.5 847.204 1169.4 C 833.131 1194.3 813.651 1204.68 787.254 1211.82 C 785.193 1208.63 785.225 1206.71 789.456 1206 C 821.708 1200.58 847.604 1172.41 852.873 1140.49 C 853.434 1137.09 854.005 1134.74 855.14 1131.44 z" fill="rgb(0,0,0)" transform="translate(0,0)"></path>
<path d="M 904.721 1136.23 C 912.066 1139.96 908.088 1165.62 907.166 1173.01 C 903.808 1199.93 891.127 1216.58 873.166 1235.38 C 864.915 1231.87 878.059 1224.25 882.42 1218.73 C 892.09 1206.54 898.739 1192.24 901.824 1176.99 C 903.429 1169.43 904.269 1161.73 904.331 1154 C 904.378 1147.23 903.372 1142.85 904.721 1136.23 z" fill="rgb(0,0,0)" transform="translate(0,0)"></path>
<path d="M 1141.63 1136.21 C 1142.02 1136.36 1144.51 1137.17 1144.56 1137.42 C 1145.77 1147.26 1144.3 1157.47 1145.74 1168 C 1149.24 1193.6 1159.7 1213.19 1177.69 1231.55 C 1178.4 1232.27 1177.25 1234.93 1177.06 1235.46 C 1176.39 1235.05 1175.72 1234.65 1175.04 1234.25 C 1147.6 1210.88 1135.91 1171.3 1141.63 1136.21 z" fill="rgb(0,0,0)" transform="translate(0,0)"></path>
<path d="M 1099.88 1146.47 C 1105.26 1149.05 1096.63 1162.51 1095.21 1169.52 C 1092.41 1183.25 1091.42 1195.57 1094.3 1209.47 C 1095.54 1215.67 1097.5 1221.7 1100.16 1227.44 C 1102.42 1232.27 1104.68 1233.32 1103.16 1238.37 C 1094.7 1232.91 1090.77 1217.02 1089.07 1207.5 C 1085.74 1188.89 1088.86 1162.23 1099.88 1146.47 z" fill="rgb(0,0,0)" transform="translate(0,0)"></path>
<path d="M 947.598 1146.42 C 952.898 1147.98 951.917 1149.71 954.141 1154.99 C 964.389 1179.34 963.686 1216.57 948.29 1238.96 C 944.263 1234.95 944.668 1236.45 946.98 1231.98 C 958.254 1210.18 959.582 1182.9 951.366 1159.86 C 949.495 1154.62 947.178 1152.05 947.598 1146.42 z" fill="rgb(0,0,0)" transform="translate(0,0)"></path>
<path d="M 1024.49 69.532 C 1034.14 65.2265 1045.13 59.905 1055.28 57.4841 C 1167.31 30.7704 1271.21 112.213 1313.92 210.96 C 1320.25 225.598 1325.28 240.259 1330.52 254.977 C 1337.63 254.765 1348.39 258.807 1354.13 262.522 C 1382.86 281.099 1396.65 320.837 1376.7 350.874 C 1373.47 355.746 1370.26 359.877 1366.59 364.403 C 1381.52 392.214 1428.81 416.76 1457.75 425.039 C 1485.37 432.942 1516.22 434.404 1544.99 436.157 C 1618.88 440.658 1712.37 500.725 1686.89 586.715 C 1679.18 612.108 1661.66 633.378 1638.21 645.809 C 1637.4 646.222 1636.59 646.634 1635.78 647.046 C 1676.38 676.351 1732.01 695.987 1752.31 745.66 C 1777.78 807.983 1736.73 867.21 1675.82 883.572 C 1676.99 894.113 1672.69 911.172 1668.52 920.748 C 1642.27 981.01 1561.19 1006.23 1504.36 974.057 C 1494.66 968.567 1486.58 963.49 1477.53 957.319 C 1492.97 984.729 1499.34 1010.03 1490.85 1041.25 C 1484.7 1063.82 1469.92 1083.07 1449.71 1094.84 C 1400.34 1122.93 1342.73 1097.39 1302.59 1064.86 C 1318.29 1098.48 1299.57 1125.62 1268.48 1138.81 C 1259.94 1142.44 1251.63 1144.63 1242.85 1147.43 C 1233.9 1142.48 1197.96 1085.18 1192.02 1074.54 C 1191.53 1072 1191.69 1072.87 1190.01 1070.54 C 1181.59 1054.27 1171.64 1036.15 1164.66 1019.28 C 1164.37 1017.8 1163.53 1015.86 1162.98 1014.39 C 1160.23 1006.1 1153.22 995.972 1151.89 989.641 C 1129.58 977.64 1107.15 965.861 1084.61 954.306 C 1061.52 942.315 1042.25 934.519 1025.03 914.368 C 1011.6 933.039 982.637 945.515 962.336 955.979 C 940.867 967.01 919.476 978.193 898.165 989.528 C 892.67 999.408 891.571 1004.44 887.175 1013.63 L 884.208 1018.96 C 877.674 1035.63 867.182 1054.82 858.556 1070.62 L 857.229 1074.37 C 845.721 1095.5 824.521 1129.63 807.979 1147.17 C 800.114 1145.63 792.415 1143.35 784.985 1140.35 C 765.774 1132.62 747.775 1119.11 741.968 1098.39 C 738.334 1085.42 741.936 1076.45 746.77 1064.83 C 727.874 1080.1 696.575 1098.79 672.965 1104.06 C 580.555 1124.67 526.056 1035.07 572.651 957.237 L 569.354 959.44 C 537.608 980.471 504.282 994.472 465.618 986.182 C 423.006 977.046 383.687 946.794 375.417 902.267 C 374.352 896.535 372.503 889.381 373.779 883.616 C 321.17 873.624 279.626 816.738 291.689 763.509 C 305.838 701.068 366.298 679.1 413.729 647.183 C 410.14 645.059 406.616 642.829 403.161 640.493 C 355.092 607.533 345.431 546.857 379.276 499.617 C 414.8 451.786 476.46 435.258 533.251 433.746 C 585.712 432.35 652.382 410.952 683.786 366.356 C 681.468 364.234 679.341 361.912 677.43 359.418 C 654.158 328.628 659.868 287.903 690.394 263.932 C 697.294 258.514 712.023 252.244 721.071 253.527 C 725.894 238.848 730.91 223.137 737.519 209.187 C 763.646 154.035 803.916 105.111 858.854 76.8424 C 908.972 51.0536 973.274 41.473 1024.49 69.532 z" fill="rgb(253,253,252)" transform="translate(0,0)"></path>
<path d="M 799.566 545.546 C 801.759 549.4 803.99 553.232 806.258 557.043 L 809.582 563.015 C 816.644 572.236 823.925 581.287 831.421 590.16 L 836.339 595.754 C 879.944 634.071 920.519 656.392 978.62 665.872 C 982.685 666.921 986.821 667.677 990.994 668.134 C 1022.28 671.793 1041.41 669.728 1071.91 666.192 C 1129.01 655.653 1170.31 635.383 1213.6 596.77 C 1214.73 595.199 1217.3 592.513 1218.69 590.962 C 1226.71 581.699 1234.29 572.066 1241.41 562.094 L 1243.37 557.784 L 1244.8 555.175 L 1251.15 556.205 C 1256.63 590.53 1272.11 623.781 1300.63 644.375 C 1329.41 665.151 1360.46 670.14 1394.79 663.385 C 1448.35 652.849 1511.44 639.755 1559.8 673.277 C 1572.75 682.25 1584.01 694.83 1587.11 710.995 C 1593.42 741.255 1553.12 767.368 1587.72 791.604 C 1600.89 800.829 1612.23 804.076 1626.94 810.097 C 1656.38 822.143 1674.8 846.732 1676.18 878.843 L 1675.82 883.572 C 1676.99 894.113 1672.69 911.172 1668.52 920.748 C 1642.27 981.01 1561.19 1006.23 1504.36 974.057 C 1494.66 968.567 1486.58 963.49 1477.53 957.319 C 1492.97 984.729 1499.34 1010.03 1490.85 1041.25 C 1484.7 1063.82 1469.92 1083.07 1449.71 1094.84 C 1400.34 1122.93 1342.73 1097.39 1302.59 1064.86 C 1318.29 1098.48 1299.57 1125.62 1268.48 1138.81 C 1259.94 1142.44 1251.63 1144.63 1242.85 1147.43 C 1233.9 1142.48 1197.96 1085.18 1192.02 1074.54 C 1191.53 1072 1191.69 1072.87 1190.01 1070.54 C 1181.59 1054.27 1171.64 1036.15 1164.66 1019.28 C 1164.37 1017.8 1163.53 1015.86 1162.98 1014.39 C 1160.23 1006.1 1153.22 995.972 1151.89 989.641 C 1129.58 977.64 1107.15 965.861 1084.61 954.306 C 1061.52 942.315 1042.25 934.519 1025.03 914.368 C 1011.6 933.039 982.637 945.515 962.336 955.979 C 940.867 967.01 919.476 978.193 898.165 989.528 C 892.67 999.408 891.571 1004.44 887.175 1013.63 L 884.208 1018.96 C 877.674 1035.63 867.182 1054.82 858.556 1070.62 L 857.229 1074.37 C 845.721 1095.5 824.521 1129.63 807.979 1147.17 C 800.114 1145.63 792.415 1143.35 784.985 1140.35 C 765.774 1132.62 747.775 1119.11 741.968 1098.39 C 738.334 1085.42 741.936 1076.45 746.77 1064.83 C 727.874 1080.1 696.575 1098.79 672.965 1104.06 C 580.555 1124.67 526.056 1035.07 572.651 957.237 L 569.354 959.44 C 537.608 980.471 504.282 994.472 465.618 986.182 C 423.006 977.046 383.687 946.794 375.417 902.267 C 374.352 896.535 372.503 889.381 373.779 883.616 C 373.838 882.673 373.538 880.6 373.426 879.569 C 374.099 850.353 393.625 821.627 420.477 810.888 C 436.919 804.311 450.007 800.199 464.75 789.673 C 495.676 767.592 455.944 738.183 462.986 710.174 C 465.586 694.394 476.405 682.575 489.225 673.856 C 537.153 641.261 598.446 651.889 651.519 662.9 C 682.621 668.729 718.027 667.512 744.536 648.35 C 781.923 621.324 791.743 587.914 799.566 545.546 z" fill="rgb(8,154,184)" transform="translate(0,0)"></path>
<path d="M 1231.39 771.971 C 1233.87 783.918 1237.67 796.374 1241.47 807.972 C 1242.74 812.514 1243.81 816.654 1245.5 821.072 C 1252.81 845.466 1259.93 869.916 1266.86 894.421 C 1270.6 907.488 1278.68 931.355 1278.99 944.447 C 1279.78 976.583 1255.23 1002.82 1223.15 1006.13 C 1192.61 1006.05 1178.68 999.709 1152.04 984.957 C 1137.51 976.91 1121.7 968.893 1106.94 961.098 C 1130.05 925.645 1129.95 924.098 1144.05 885.135 C 1153.28 889.708 1210.27 921.124 1214.35 921.232 C 1211.81 914.135 1182.62 900.405 1174.71 896.527 C 1169.94 875.42 1155.79 835.277 1148.89 813.491 C 1165.74 805.241 1213.74 783.43 1227.47 773.623 C 1228.77 773.063 1230.08 772.512 1231.39 771.971 z" fill="rgb(253,253,252)" transform="translate(0,0)"></path>
<path d="M 1167.01 808.872 C 1171.67 809.123 1173.42 819.55 1175.67 823.812 C 1180.9 833.725 1177.9 834.852 1170.4 838.721 C 1165.14 835.071 1163.04 827.319 1160.82 821.526 C 1157.06 811.719 1158.81 812.283 1167.01 808.872 z" fill="rgb(233,111,102)" transform="translate(0,0)"></path>
<path d="M 1197.92 793.326 C 1200.02 794.94 1205.98 815.657 1206.86 819.348 C 1207.2 820.779 1199.43 823.75 1198.53 824.155 C 1193.16 818.844 1190.09 805.941 1188.12 798.372 C 1191.35 796.636 1194.62 794.953 1197.92 793.326 z" fill="rgb(233,111,102)" transform="translate(0,0)"></path>
<path d="M 1219.68 783.231 C 1220.77 783.167 1227.39 782.39 1228.03 783.241 C 1232.03 788.529 1234.41 798.339 1236.97 804.55 C 1237.72 806.371 1234.72 809.42 1233.85 810.655 C 1223.65 811.128 1218.11 787.003 1219.68 783.231 z" fill="rgb(233,111,102)" transform="translate(0,0)"></path>
<path d="M 817.841 773.365 C 819.274 773.676 820.703 774.002 822.128 774.344 C 842.909 785.853 878.894 803.897 899.828 813.634 C 893.236 840.556 881.912 868.345 875.384 896.04 C 864.968 901.825 846.632 911.366 836.001 917.878 C 834.524 918.783 834.67 920.719 834.754 922.062 C 836.949 922.097 896.663 889.975 905.991 885.214 C 916.216 918.552 921.516 932.139 943.085 960.862 C 917.956 973.977 891.79 988.298 865.91 1000.01 C 851.759 1006.41 842.965 1004.83 828.702 1006.72 C 828.07 1006.41 826.445 1006.15 825.609 1005.98 C 805.404 1002.03 791.769 995.595 780.465 977.92 C 763.26 951.018 774.453 928.802 781.447 901.445 C 788.494 873.884 797.818 846.249 804.244 818.806 C 805.393 815.452 806.462 811.751 807.525 808.339 C 811.295 797.793 813.636 784.749 817.841 773.365 z" fill="rgb(253,253,252)" transform="translate(0,0)"></path>
<path d="M 851.792 792.923 C 855.722 794.582 858.003 796.165 861.597 798.4 C 858.306 807.561 855.793 815.521 852.021 824.654 C 841.175 822.538 841.493 817.608 845.469 808.839 C 847.483 804.398 849.268 799.15 851.145 794.548 L 851.792 792.923 z" fill="rgb(233,111,102)" transform="translate(0,0)"></path>
<path d="M 880.599 807.715 C 885.32 810.131 886.165 810.781 890.005 814.289 C 887.708 821.683 884.882 830.948 880.941 837.514 C 869.222 836.534 870.796 831.372 874.305 822.059 C 876.34 816.657 877.658 812.881 880.599 807.715 z" fill="rgb(233,111,102)" transform="translate(0,0)"></path>
<path d="M 821.811 784.075 C 823.376 784.363 830.658 784.962 830.574 787.548 C 830.338 794.812 826.997 805.91 823.136 812.013 C 820.741 811.372 813.078 809.444 812.888 806.524 C 812.511 800.745 818.81 788.742 821.811 784.075 z" fill="rgb(233,111,102)" transform="translate(0,0)"></path>
<path d="M 1088.87 854.203 C 1085.43 846.837 1079.47 837.115 1088.89 831.506 C 1102.61 829.186 1121.19 865.709 1126.18 875.559 C 1132.19 878.647 1138.15 881.839 1144.05 885.135 C 1129.95 924.098 1130.05 925.645 1106.94 961.098 C 1089.11 951.595 1071.03 942.656 1053.27 932.918 C 1037.89 924.486 1026.5 913.073 1021.84 895.639 C 1018.87 884.545 1020.42 872.17 1026.54 862.283 C 1032.08 853.318 1041.07 847.03 1051.4 844.898 C 1066.83 841.65 1076.63 846.169 1088.87 854.203 z" fill="rgb(233,111,102)" transform="translate(0,0)"></path>
<path d="M 922.978 876.337 C 930.379 862.372 943.378 837.722 959.146 830.69 C 960.623 830.031 963.256 830.925 964.263 832.314 C 969.231 839.172 964.553 846.2 961.269 852.597 C 983.222 842.021 1005.01 837.578 1022.9 858.786 C 1015.34 876.014 1013.04 885.846 1020.27 904.23 C 1021.08 906.348 1021.97 908.438 1022.92 910.497 C 1005.93 931.592 968.088 949.43 943.085 960.862 C 921.516 932.139 916.216 918.552 905.991 885.214 C 911.621 882.194 917.284 879.234 922.978 876.337 z" fill="rgb(233,111,102)" transform="translate(0,0)"></path>
<path d="M 978.62 665.872 C 982.685 666.921 986.821 667.677 990.994 668.134 C 1022.28 671.793 1041.41 669.728 1071.91 666.192 C 1071.91 669.398 1071.97 672.628 1071.9 675.825 L 1072.39 691.835 C 1076.71 692.219 1080.92 693.028 1085.19 693.757 C 1078.97 707.407 1068.08 720.15 1054.79 727.317 C 1039.78 735.328 1022.2 737.021 1005.94 732.02 C 985.229 725.563 974.57 711.896 964.859 693.503 C 969.095 692.953 973.633 692.159 977.885 691.502 L 978.142 675.833 L 978.62 665.872 z" fill="rgb(253,253,252)" transform="translate(0,0)"></path>
<path d="M 978.62 665.872 C 982.685 666.921 986.821 667.677 990.994 668.134 C 1022.28 671.793 1041.41 669.728 1071.91 666.192 C 1071.91 669.398 1071.97 672.628 1071.9 675.825 C 1067 676.781 1066.41 680.27 1062.2 682.309 C 1038.8 693.631 999.056 694.898 979.975 674.906 C 979.588 674.5 978.019 675.928 978.142 675.833 L 978.62 665.872 z" fill="rgb(220,219,219)" transform="translate(0,0)"></path>
<path d="M 1079.69 843.033 C 1080.34 836.604 1082.99 824.486 1091.86 827.035 C 1108.33 831.762 1122.67 859.855 1130.13 873.503 C 1145.92 880.615 1159.51 888.256 1174.71 896.527 C 1182.62 900.405 1211.81 914.135 1214.35 921.232 C 1210.27 921.124 1153.28 889.708 1144.05 885.135 C 1138.15 881.839 1132.19 878.647 1126.18 875.559 C 1121.19 865.709 1102.61 829.186 1088.89 831.506 C 1079.47 837.115 1085.43 846.837 1088.87 854.203 C 1076.63 846.169 1066.83 841.65 1051.4 844.898 C 1041.07 847.03 1032.08 853.318 1026.54 862.283 C 1020.42 872.17 1018.87 884.545 1021.84 895.639 C 1026.5 913.073 1037.89 924.486 1053.27 932.918 C 1071.03 942.656 1089.11 951.595 1106.94 961.098 C 1121.7 968.893 1137.51 976.91 1152.04 984.957 C 1178.68 999.709 1192.61 1006.05 1223.15 1006.13 C 1214.46 1021.4 1163.46 994.893 1151.89 989.641 C 1129.58 977.64 1107.15 965.861 1084.61 954.306 C 1061.52 942.315 1042.25 934.519 1025.03 914.368 C 1011.6 933.039 982.637 945.515 962.336 955.979 C 940.867 967.01 919.476 978.193 898.165 989.528 C 878.704 998.667 854.26 1013.55 831.635 1009.83 C 829.48 1008.29 830.123 1009 828.702 1006.72 C 842.965 1004.83 851.759 1006.41 865.91 1000.01 C 891.79 988.298 917.956 973.977 943.085 960.862 C 968.088 949.43 1005.93 931.592 1022.92 910.497 C 1021.97 908.438 1021.08 906.348 1020.27 904.23 C 1013.04 885.846 1015.34 876.014 1022.9 858.786 C 1005.01 837.578 983.222 842.021 961.269 852.597 C 964.553 846.2 969.231 839.172 964.263 832.314 C 963.256 830.925 960.623 830.031 959.146 830.69 C 943.378 837.722 930.379 862.372 922.978 876.337 C 917.284 879.234 911.621 882.194 905.991 885.214 C 896.663 889.975 836.949 922.097 834.754 922.062 C 834.67 920.719 834.524 918.783 836.001 917.878 C 846.632 911.366 864.968 901.825 875.384 896.04 C 886.965 890.939 907.452 881.02 917.886 873.177 C 930.825 863.45 941.294 820.536 965.056 828.74 C 970.447 830.601 970.637 838.365 970.451 843.243 C 992.543 836.444 1009.31 837.027 1025.83 855.537 C 1042.67 838.66 1057.26 836.207 1079.69 843.033 z" fill="rgb(0,0,0)" transform="translate(0,0)"></path>
<path d="M 831.421 590.16 L 836.339 595.754 C 836.921 618.747 832.355 644.949 826.641 667.418 C 815.874 710.916 794.118 750.922 763.458 783.602 C 758.991 788.373 754.152 793.094 749.364 797.677 C 696.357 848.413 648.125 912.737 638.246 987.317 C 636.899 997.487 638.491 1012.06 635.664 1021.13 L 634.558 1020.94 C 633.118 1017.22 632.499 1013.77 632.51 1009.7 C 632.699 942.45 668.618 880.702 711.103 830.97 C 726.996 812.367 743.189 797.822 759.582 780.984 C 807.449 731.814 832.975 658.612 831.421 590.16 z" fill="rgb(0,0,0)" transform="translate(0,0)"></path>
<path d="M 809.582 563.015 C 807.793 577.135 806.733 587.558 803.131 601.644 C 787.813 663.64 746.926 716.234 690.621 746.366 C 653.196 765.948 622.884 775.268 594.107 810.024 C 572.905 835.631 556.403 860.993 548.874 894.086 C 547.276 901.107 545.281 916.007 541.941 921.658 L 540.752 920.632 C 539.455 902.966 548.345 877.221 555.487 861.324 C 574.183 819.027 606.393 784.134 647.063 762.122 C 659.316 755.468 672.767 750.465 685.149 744.23 C 711.244 731.092 737.514 709.999 755.618 687.041 C 778.472 658.06 794.636 622.23 802.33 586.148 C 803.92 578.693 804.042 562.815 806.258 557.043 L 809.582 563.015 z" fill="rgb(0,0,0)" transform="translate(0,0)"></path>
<path d="M 1218.69 590.962 C 1213.73 661.624 1247.49 742.109 1299.46 790.899 C 1354.88 842.93 1408.13 912.787 1416.03 990.702 C 1416.96 999.886 1417.62 1011 1415.89 1019.96 L 1414.1 1021.26 L 1415.61 1021.12 L 1415.49 1021.5 L 1413.95 1020.92 C 1411.48 1011.55 1412.26 997.804 1411.18 987.895 C 1404.8 928.808 1371.68 877.81 1334.31 833.366 C 1317.15 812.954 1297.06 796.112 1279.45 776.539 C 1237.28 729.668 1213.3 659.838 1213.6 596.77 C 1214.73 595.199 1217.3 592.513 1218.69 590.962 z" fill="rgb(0,0,0)" transform="translate(0,0)"></path>
<path d="M 1243.37 557.784 C 1246.93 563.693 1248.41 588.3 1250.4 596.683 C 1265.33 659.563 1306.76 717.973 1366.26 745.497 C 1378.26 751.048 1391.35 756.58 1402.89 762.798 C 1445.57 786.181 1478.84 823.606 1497.06 868.724 C 1501.63 880.167 1510.69 908.537 1509.28 920.822 L 1507.86 922.019 C 1503.21 920.503 1502.8 902.365 1501.43 896.747 C 1493.9 866.889 1479.76 839.104 1460.05 815.447 C 1429.12 778.482 1400.11 765.676 1358.56 746.136 C 1292.11 714.888 1243.75 634.498 1241.41 562.094 L 1243.37 557.784 z" fill="rgb(0,0,0)" transform="translate(0,0)"></path>
<path d="M 897.503 700.211 C 897.296 693.888 899.349 687.107 903.693 682.4 C 907.37 678.396 912.566 676.131 918.002 676.163 C 928.86 676.225 939.166 687.682 938.173 697.497 C 935.779 721.161 908.156 727.732 898.452 704.121 L 898.016 703.084 L 897.503 700.211 z" fill="rgb(253,253,252)" transform="translate(0,0)"></path>
<path d="M 1152.07 701.876 C 1149.59 712.575 1139.04 719.351 1128.28 717.155 C 1117.52 714.958 1110.47 704.589 1112.39 693.776 C 1114.3 682.962 1124.48 675.642 1135.34 677.272 C 1146.2 678.901 1153.79 688.886 1152.44 699.785 C 1152.36 700.488 1152.23 701.186 1152.07 701.876 z" fill="rgb(253,253,252)" transform="translate(0,0)"></path>
<path d="M 804.244 818.806 C 799.101 825.375 791.016 838.764 786.291 846.117 C 761.553 884.616 737.058 926.821 725.984 971.512 C 723.95 979.75 722.38 988.096 721.284 996.511 C 720.388 1003.21 720.753 1019.39 718.374 1023.68 L 716.847 1023.32 C 709.806 1007.7 726.549 949.927 733.262 934.168 C 749.129 896.918 769.904 861.498 792.545 827.958 C 795.548 823.51 803.495 810.045 807.525 808.339 C 806.462 811.751 805.393 815.452 804.244 818.806 z" fill="rgb(0,0,0)" transform="translate(0,0)"></path>
<path d="M 1241.47 807.972 C 1249.43 815.276 1264.77 840.127 1270.7 849.526 C 1303.05 900.748 1332.68 952.603 1334.51 1015.16 C 1334.61 1018.59 1334.8 1019.47 1333.8 1022.72 L 1332.33 1023.68 L 1331.06 1022.74 C 1329.98 1014.98 1329.59 1007.63 1328.82 999.734 C 1322.92 938.737 1287.82 884.478 1255.36 834.256 C 1252.71 830.159 1248.94 824.208 1245.5 821.072 C 1243.81 816.654 1242.74 812.514 1241.47 807.972 z" fill="rgb(0,0,0)" transform="translate(0,0)"></path>
<path d="M 817.841 773.365 C 819.759 742.863 868.455 702.661 897.503 700.211 L 898.016 703.084 C 890.248 706.907 882.041 709.547 874.27 713.375 C 850.435 725.116 827.26 747.406 822.128 774.344 C 820.703 774.002 819.274 773.676 817.841 773.365 z" fill="rgb(0,0,0)" transform="translate(0,0)"></path>
<path d="M 1152.44 699.785 C 1184.57 711.978 1212.09 725.239 1227.39 758.541 C 1229.71 763.594 1230.74 766.491 1231.39 771.971 C 1230.08 772.512 1228.77 773.063 1227.47 773.623 C 1226.89 769.056 1226.91 768.949 1225.19 764.611 C 1212.01 731.169 1183.38 715.427 1152.07 701.876 C 1152.23 701.186 1152.36 700.488 1152.44 699.785 z" fill="rgb(0,0,0)" transform="translate(0,0)"></path>
<path d="M 1021.1 763.316 C 1034.94 761.778 1047.4 771.774 1048.9 785.622 C 1050.4 799.47 1040.37 811.905 1026.52 813.368 C 1012.72 814.826 1000.35 804.842 998.85 791.047 C 997.355 777.252 1007.31 764.848 1021.1 763.316 z" fill="rgb(253,253,252)" transform="translate(0,0)"></path>
<path d="M 953.379 756.454 C 982.676 735.337 1010.13 776.315 983.593 795.164 C 972.089 803.334 954.81 798.644 947.502 786.498 C 944.296 781.088 943.482 774.589 945.256 768.556 C 946.04 765.871 947.445 763.657 948.902 761.311 L 946.903 758.644 C 948.76 757.65 950.464 756.395 951.964 754.916 L 953.379 756.454 z" fill="rgb(253,253,252)" transform="translate(0,0)"></path>
<path d="M 951.964 754.916 L 953.379 756.454 C 951.883 758.105 950.444 759.699 948.902 761.311 L 946.903 758.644 C 948.76 757.65 950.464 756.395 951.964 754.916 z" fill="rgb(50,162,195)" transform="translate(0,0)"></path>
<path d="M 1073.43 750.26 C 1086.76 747.068 1100.14 755.347 1103.23 768.7 C 1106.31 782.052 1097.93 795.364 1084.56 798.35 C 1071.33 801.304 1058.19 793.032 1055.13 779.824 C 1052.08 766.617 1060.25 753.417 1073.43 750.26 z" fill="rgb(253,253,252)" transform="translate(0,0)"></path>
<path d="M 915.971 747.084 C 912.065 736.827 916.319 725.261 925.94 719.979 C 935.561 714.697 947.603 717.318 954.159 726.12 C 960.716 734.921 959.779 747.21 951.964 754.916 C 950.464 756.395 948.76 757.65 946.903 758.644 C 941.331 761.628 934.744 762.069 928.824 759.857 C 922.903 757.644 918.221 752.99 915.971 747.084 z" fill="rgb(253,253,252)" transform="translate(0,0)"></path>
<path d="M 1107.88 718.586 C 1115.37 716.47 1123.41 718.565 1128.92 724.062 C 1134.42 729.559 1136.52 737.601 1134.42 745.089 C 1132.31 752.577 1126.32 758.342 1118.76 760.163 C 1107.38 762.902 1095.9 756.03 1092.94 744.706 C 1089.97 733.382 1096.62 721.769 1107.88 718.586 z" fill="rgb(253,253,252)" transform="translate(0,0)"></path>
<path d="M 598.722 722.788 C 601.204 723.559 600.315 722.76 601.634 724.993 C 600.269 728.388 581.348 742.149 577.275 745.87 C 521.218 797.093 465.382 863.657 462.725 942.647 C 456.685 940.502 458.512 927.994 459.434 922.45 C 472.716 842.608 536.817 770.641 598.722 722.788 z" fill="rgb(0,0,0)" transform="translate(0,0)"></path>
<path d="M 1448.32 722.892 C 1454.98 724.039 1466.18 734.88 1471.42 739.343 C 1500.59 764.173 1527.04 793.641 1548.78 825.145 C 1567.37 852.094 1597.24 909.695 1590.97 942.625 C 1589.68 942.081 1589.44 941.749 1588.3 940.893 C 1586.23 934.413 1586.93 928.024 1586.03 921.431 C 1584.1 907.418 1579.15 891.909 1573.59 879.027 C 1548.42 820.701 1502.22 769.171 1453.07 729.796 C 1449.28 726.764 1448.65 726.593 1448.32 722.892 z" fill="rgb(0,0,0)" transform="translate(0,0)"></path>
<path d="M 1024.49 69.532 C 1034.14 65.2265 1045.13 59.905 1055.28 57.4841 C 1167.31 30.7704 1271.21 112.213 1313.92 210.96 C 1320.25 225.598 1325.28 240.259 1330.52 254.977 C 1337.63 254.765 1348.39 258.807 1354.13 262.522 C 1382.86 281.099 1396.65 320.837 1376.7 350.874 C 1373.47 355.746 1370.26 359.877 1366.59 364.403 L 1363.29 368.157 C 1359.33 370.635 1354.73 372.968 1352.3 376.919 L 1350.49 375.938 C 1349.07 377.014 1349.17 376.697 1348.24 378.101 C 1345.39 376.938 1325.35 379.656 1323.4 383.77 L 1322.35 381.382 L 1319.25 380.941 C 1307.86 379.333 1303.88 378.541 1293.61 372.88 C 1288.04 369.809 1282.31 364.759 1276.54 363.776 C 1290.16 413.051 1309.93 503.199 1337.09 542.563 C 1346.16 555.541 1358 566.346 1371.75 574.198 C 1423.4 603.446 1450.68 576.236 1499.3 590.022 C 1573.13 610.954 1639.37 705.802 1684.73 765.203 C 1691.7 774.326 1706.67 827.431 1695.12 830.117 C 1693.66 828.499 1693.86 826.139 1694.08 823.553 C 1698.34 774.152 1653.33 728.659 1622.27 692.85 C 1585.14 650.048 1536.21 593.574 1475.83 590.486 C 1458.8 589.615 1446.07 592.34 1429.87 592.904 C 1396.42 594.107 1364.15 580.385 1341.82 555.449 C 1311.76 521.408 1299.54 461.996 1286.94 418.82 C 1284.25 409.569 1281.68 391.863 1276.02 385.99 C 1240.65 349.263 1201.16 350.549 1158.54 340.206 C 1110.63 328.642 1069.6 297.86 1045.08 255.099 C 1037.15 241.128 1031.98 227.203 1026.65 212.127 C 1016.8 258.153 997.101 293.915 956.993 321.192 C 910.273 352.965 861.704 337.435 813.593 358.707 C 795.842 366.556 784.642 376.002 770.044 388.268 C 754.58 448.832 738.273 544.204 681.644 577.37 C 631.943 606.478 599.271 582.163 553.811 593.765 C 534.91 598.776 517.108 607.263 501.315 618.793 C 469.546 642.158 434.569 684.421 408.822 714.571 C 398.131 727.089 379.895 748.732 371.418 762.526 C 365.537 772.293 361.086 782.852 358.202 793.882 C 357.867 795.138 356.58 800.641 356.273 801.458 C 353.834 807.931 356.331 825.155 352.482 829.671 C 346.277 819.618 354.598 787.99 359.075 777.542 C 369.126 754.088 388.628 731.316 405.363 711.953 C 435.877 676.649 471.854 631.103 511.809 606.625 C 535.347 591.982 562.789 584.861 590.477 586.211 C 602.336 586.815 615.19 588.586 626.945 588.238 C 738.957 584.921 745.674 446.453 771.82 365.334 C 767.712 367.421 761.031 370.126 757.322 372.267 C 752.042 375.314 732.233 379.015 730.79 382.831 C 729.849 381.513 730.505 382.231 728.541 380.968 L 726.679 382.14 C 723.263 379.61 709.35 379.222 702.424 377.74 C 700.602 376.132 701.363 376.637 699.003 375.833 L 697.815 376.959 C 696.347 374.298 690.699 371.652 687.62 369.745 C 687.213 369.243 684.454 366.934 683.786 366.356 C 681.468 364.234 679.341 361.912 677.43 359.418 C 654.158 328.628 659.868 287.903 690.394 263.932 C 697.294 258.514 712.023 252.244 721.071 253.527 C 725.894 238.848 730.91 223.137 737.519 209.187 C 763.646 154.035 803.916 105.111 858.854 76.8424 C 908.972 51.0536 973.274 41.473 1024.49 69.532 z" fill="rgb(0,0,0)" transform="translate(0,0)"></path>
<path d="M 1027.86 146.985 C 1032.28 144.153 1037.79 140.714 1042.55 138.807 C 1118.67 108.319 1134.25 189.861 1187.42 210.253 C 1214.13 220.5 1257.57 203.903 1287.78 217.781 C 1307.59 226.878 1317.86 234.626 1326.52 254.842 C 1303.53 255.024 1293.08 261.719 1276.93 276.563 C 1238.99 225.486 1205.12 268.477 1166.01 250.679 C 1144.6 240.935 1123.71 193.681 1092.69 182.331 C 1066.88 172.887 1052.96 176.266 1027.97 186.343 C 1027.66 173.528 1027.87 159.867 1027.86 146.985 z" fill="rgb(233,111,102)" transform="translate(0,0)"></path>
<path d="M 724.177 255.541 C 737.036 234.042 763.059 215.603 787.451 209.732 C 805.865 205.559 825.531 204.068 841.118 192.143 C 879.679 162.643 892.444 99.284 946.544 91.1023 C 969.588 87.6172 1003.58 94.6663 1023.03 107.499 L 1023.18 140.996 C 1003.25 129.703 983.78 124.387 960.974 130.668 C 912.405 144.045 904.724 199.892 865.321 225.027 C 825.806 250.234 797.04 230.519 761.283 267.662 C 757.42 264.477 755.082 263.273 750.791 260.819 L 745.972 258.709 C 737.068 256.04 733.568 254.421 724.177 255.541 z" fill="rgb(233,111,102)" transform="translate(0,0)"></path>
<path d="M 745.972 258.709 C 767.218 236.264 785.115 221.784 816.004 216.158 C 842.901 211.258 862.814 196.865 877.19 174.006 C 879.844 169.786 884.774 163.006 888.64 159.75 L 889.783 159.945 C 887.893 173.268 868.252 195.257 857.369 203.258 C 845.266 212.157 833.262 216.256 818.754 219.782 C 787.777 227.311 771.011 236.61 750.791 260.819 L 745.972 258.709 z" fill="rgb(247,212,209)" transform="translate(0,0)"></path>
<path d="M 683.786 366.356 C 681.468 364.234 679.341 361.912 677.43 359.418 C 654.158 328.628 659.868 287.903 690.394 263.932 C 697.294 258.514 712.023 252.244 721.071 253.527 L 724.177 255.541 C 733.568 254.421 737.068 256.04 745.972 258.709 L 750.791 260.819 C 755.082 263.273 757.42 264.477 761.283 267.662 L 764.189 269.763 C 766.415 272.144 768.603 274.57 770.979 276.797 L 773.328 278.418 C 774.616 281.823 779.025 287.604 781.285 290.823 L 783.067 294.6 C 787.089 306.335 787.692 311.608 787.916 324.217 L 785.731 332.059 C 783.076 339.175 781.169 344.588 777.539 351.368 C 774.666 357.029 773.602 359.035 771.82 365.334 C 767.712 367.421 761.031 370.126 757.322 372.267 C 752.042 375.314 732.233 379.015 730.79 382.831 C 729.849 381.513 730.505 382.231 728.541 380.968 L 726.679 382.14 C 723.263 379.61 709.35 379.222 702.424 377.74 C 700.602 376.132 701.363 376.637 699.003 375.833 L 697.815 376.959 C 696.347 374.298 690.699 371.652 687.62 369.745 C 687.213 369.243 684.454 366.934 683.786 366.356 z" fill="rgb(220,219,219)" transform="translate(0,0)"></path>
<path d="M 707.801 274.36 C 739.693 276.32 738.602 316.64 708.314 322.741 C 680.234 321.175 674.353 279.812 707.801 274.36 z" fill="rgb(253,253,252)" transform="translate(0,0)"></path>
<path d="M 1330.52 254.977 C 1337.63 254.765 1348.39 258.807 1354.13 262.522 C 1382.86 281.099 1396.65 320.837 1376.7 350.874 C 1373.47 355.746 1370.26 359.877 1366.59 364.403 L 1363.29 368.157 C 1359.33 370.635 1354.73 372.968 1352.3 376.919 L 1350.49 375.938 C 1349.07 377.014 1349.17 376.697 1348.24 378.101 C 1345.39 376.938 1325.35 379.656 1323.4 383.77 L 1322.35 381.382 L 1319.25 380.941 C 1307.86 379.333 1303.88 378.541 1293.61 372.88 C 1288.04 369.809 1282.31 364.759 1276.54 363.776 C 1274.89 359.646 1273.07 355.684 1271.24 351.633 L 1269.42 352.833 C 1267.14 347.689 1265.12 342.114 1262.92 336.868 L 1264.28 334.725 L 1261.36 325.321 C 1260.66 305.764 1264.1 297.536 1273.54 280.768 L 1276.93 276.563 C 1293.08 261.719 1303.53 255.024 1326.52 254.842 L 1330.52 254.977 z" fill="rgb(220,219,219)" transform="translate(0,0)"></path>
<path d="M 1264.28 334.725 C 1266.5 341.156 1268.66 345.484 1271.24 351.633 L 1269.42 352.833 C 1267.14 347.689 1265.12 342.114 1262.92 336.868 L 1264.28 334.725 z" fill="rgb(56,55,57)" transform="translate(0,0)"></path>
<path d="M 1303.63 276.125 C 1313.25 275.717 1324.25 277.04 1328.73 286.618 C 1336.87 304.018 1326.94 314.271 1312.93 321.591 C 1299.95 323.09 1290.36 321.362 1285.69 307.579 C 1280.24 291.516 1287.83 280.642 1303.63 276.125 z" fill="rgb(253,253,252)" transform="translate(0,0)"></path>
<path d="M 764.189 269.763 C 806.719 234.269 819.777 255.173 863.081 231.571 C 911.629 205.111 917.89 128.099 986.297 132.712 C 999.939 133.632 1012.14 138.863 1023.31 146.12 L 1023.31 185.514 C 1004.34 177.954 987.271 176.04 967.922 183.839 C 926.788 200.419 921.707 249.958 888.525 269.477 C 858.095 287.376 810.962 264.891 781.285 290.823 C 779.025 287.604 774.616 281.823 773.328 278.418 L 770.979 276.797 C 768.603 274.57 766.415 272.144 764.189 269.763 z" fill="rgb(233,111,102)" transform="translate(0,0)"></path>
<path d="M 770.979 276.797 C 817.274 247.038 842.526 281.237 885.921 244.457 C 900.406 232.181 906.288 223.332 915.126 206.087 C 917.217 202.007 920.982 192.685 923.69 190.213 C 924.431 190.732 925.662 191.118 925.289 192.387 C 918.447 215.632 889.534 254.235 865.267 261.971 C 829.478 273.379 812.255 260.594 773.328 278.418 L 770.979 276.797 z" fill="rgb(253,253,252)" transform="translate(0,0)"></path>
<path d="M 1028.33 191.711 C 1048.89 181.581 1063.25 177.521 1085.72 184.481 C 1120.93 195.385 1136.9 238.83 1161.99 253.882 C 1197.74 275.334 1241.43 228.519 1273.54 280.768 C 1264.1 297.536 1260.66 305.764 1261.36 325.321 C 1235.65 299.345 1221.22 309.305 1187.94 303.474 C 1161.18 298.832 1139.08 288.15 1116.58 273.753 C 1105.48 266.649 1076.13 229.793 1070.38 229.331 C 1068.37 226.906 1066.09 224.911 1063.79 222.76 L 1064.12 218.979 C 1062.13 217.98 1061.02 217.484 1059.21 216.244 L 1057.92 215.713 C 1037.26 207.383 1029.84 217.921 1028.33 191.711 z" fill="rgb(233,111,102)" transform="translate(0,0)"></path>
<path d="M 1059.21 216.244 C 1062.23 214.916 1064.18 215.243 1067.5 216.077 C 1092.12 222.265 1114.16 248.577 1121.62 271.876 C 1110.87 259.951 1103.64 245.183 1091.4 234.266 C 1085.67 229.15 1071.72 219.364 1064.12 218.979 C 1062.13 217.98 1061.02 217.484 1059.21 216.244 z" fill="rgb(253,253,252)" transform="translate(0,0)"></path>
<path d="M 1051.15 196.337 C 1067.45 197.124 1081.01 201.839 1094.12 211.794 C 1104.07 219.357 1112.92 228.256 1120.44 238.238 C 1123.78 242.7 1129.23 246.41 1126.89 251.481 C 1124.9 250.704 1123.68 250.364 1122.44 248.574 C 1106.28 225.223 1084.77 204.918 1055.49 201.113 C 1052.43 200.716 1047.8 200.909 1051.15 196.337 z" fill="rgb(253,253,252)" transform="translate(0,0)"></path>
<path d="M 993.438 221.212 C 1002.03 218.111 1012.36 216.739 1021.44 215.475 C 1011.77 256.931 990.406 295.942 953.167 318.22 C 887.218 357.675 835.527 321.979 771.935 381.425 L 779.84 352.889 L 777.539 351.368 C 781.169 344.588 783.076 339.175 785.731 332.059 L 787.916 324.217 C 810.989 297.041 833.251 308.205 863.985 306.995 C 903.169 305.452 941.354 286.556 964.71 254.761 C 968.784 249.216 980.343 231.822 986.396 230.291 C 987.061 227.212 991.094 223.689 993.438 221.212 z" fill="rgb(253,253,252)" transform="translate(0,0)"></path>
<path d="M 787.916 324.217 C 810.989 297.041 833.251 308.205 863.985 306.995 C 903.169 305.452 941.354 286.556 964.71 254.761 C 968.784 249.216 980.343 231.822 986.396 230.291 C 959.56 278.79 916.023 311.874 858.107 311.943 C 830.355 311.976 805.602 301.979 787.874 332.152 L 785.731 332.059 L 787.916 324.217 z" fill="rgb(0,0,0)" transform="translate(0,0)"></path>
<path d="M 785.731 332.059 L 787.874 332.152 C 785.798 337.732 782.253 347.762 779.84 352.889 L 777.539 351.368 C 781.169 344.588 783.076 339.175 785.731 332.059 z" fill="rgb(56,55,57)" transform="translate(0,0)"></path>
<path d="M 1033.03 215.439 C 1044.79 216.366 1053.08 218.115 1063.79 222.76 C 1066.09 224.911 1068.37 226.906 1070.38 229.331 C 1076.13 229.793 1105.48 266.649 1116.58 273.753 C 1139.08 288.15 1161.18 298.832 1187.94 303.474 C 1221.22 309.305 1235.65 299.345 1261.36 325.321 L 1264.28 334.725 L 1262.92 336.868 C 1265.12 342.114 1267.14 347.689 1269.42 352.833 C 1271.8 361.702 1274.09 370.595 1276.29 379.513 C 1264.1 370.104 1249.9 359.898 1235.56 354.186 C 1192.78 337.147 1161.42 343.295 1118.7 320.354 C 1077.27 298.231 1046.43 260.45 1033.03 215.439 z" fill="rgb(253,253,252)" transform="translate(0,0)"></path>
<path d="M 1070.38 229.331 C 1076.13 229.793 1105.48 266.649 1116.58 273.753 C 1139.08 288.15 1161.18 298.832 1187.94 303.474 C 1221.22 309.305 1235.65 299.345 1261.36 325.321 L 1264.28 334.725 L 1262.92 336.868 C 1261.81 334.732 1260.58 332.657 1259.25 330.65 C 1240.31 301.943 1212.72 314.352 1183.59 307.382 C 1130.94 294.787 1099.73 273.328 1070.38 229.331 z" fill="rgb(0,0,0)" transform="translate(0,0)"></path>
<path d="M 783.067 294.6 C 791.146 289.818 798.818 285.531 808.024 283.549 C 834.444 277.831 866.371 287.892 890.877 272.966 C 925.787 251.703 931.611 200.364 974.325 186.509 C 990.668 181.208 1008.01 183.616 1023.2 191.177 C 1023.38 197.369 1023.1 203.695 1022.93 209.899 C 1011.1 211.432 1003.93 213.738 992.38 217.296 L 991.767 220.502 L 993.438 221.212 C 991.094 223.689 987.061 227.212 986.396 230.291 C 980.343 231.822 968.784 249.216 964.71 254.761 C 941.354 286.556 903.169 305.452 863.985 306.995 C 833.251 308.205 810.989 297.041 787.916 324.217 C 787.692 311.608 787.089 306.335 783.067 294.6 z" fill="rgb(233,111,102)" transform="translate(0,0)"></path>
<path d="M 991.767 220.502 C 975.272 231.312 961.055 239.908 950.694 257.722 C 949.652 259.515 946.75 264.49 944.575 265.047 C 943.547 265.31 941.848 263.737 942.214 262.564 C 947.803 249.415 976.689 214.392 992.38 217.296 L 991.767 220.502 z" fill="rgb(253,253,252)" transform="translate(0,0)"></path>
<path d="M 995.987 197.096 C 1002.95 196.617 1017 197.682 1000.98 200.814 C 979.168 205.079 962.102 219.421 948.384 236.368 C 943.36 242.575 939.763 248.745 935.847 255.49 C 931.5 264.368 926.463 262.677 932.019 252.959 C 946.088 228.354 967.848 204.51 995.987 197.096 z" fill="rgb(253,253,252)" transform="translate(0,0)"></path>
<path d="M 937.802 57.3923 C 967.477 53.8869 997.501 59.8265 1023.6 74.3666 C 1023.67 83.4349 1023.38 92.9817 1023.24 102.088 C 950.821 67.589 910.616 86.3017 871.56 150.129 C 853.68 179.351 835.43 196.34 800.745 202.271 C 770.262 206.533 750.344 219.638 729.546 240.988 C 766.415 146.573 830.765 69.9956 937.802 57.3923 z" fill="rgb(233,111,102)" transform="translate(0,0)"></path>
<path d="M 872.11 98.454 C 881.446 101.948 870.966 107.07 866.137 112.656 C 843.881 138.397 817.877 152.906 788.383 168.356 C 780.854 171.369 785.698 161.128 795.064 159.812 C 795.868 159.699 811.531 151.23 812.992 150.399 C 835.932 137.154 856.024 119.5 872.11 98.454 z" fill="rgb(253,253,252)" transform="translate(0,0)"></path>
<path d="M 861.747 86.5192 C 861.907 86.6165 863.509 87.4895 863.396 87.837 C 853.559 118.074 812.161 138.155 786.664 151.488 C 785.015 151.473 784.72 150.617 785.28 149.064 C 786.06 147.033 787.478 145.793 789.464 144.994 C 803.236 139.451 816.002 131.002 827.836 122.118 C 834.709 116.959 841.564 111.168 847.412 104.881 C 852.718 99.1771 856.963 92.6082 861.747 86.5192 z" fill="rgb(253,253,252)" transform="translate(0,0)"></path>
<path d="M 1093.42 56.409 C 1109.33 56.2836 1125.18 58.0731 1140.66 61.7388 C 1210.01 77.7749 1257.65 123.276 1293.99 181.837 C 1265.25 186.975 1248.29 187.021 1221.37 175.315 C 1174.42 153.716 1163.47 105.102 1116.04 89.0329 C 1085.79 78.7814 1054.76 88.8654 1027.52 102.719 C 1027.22 93.3108 1027.27 83.4249 1027.16 73.9726 C 1051.3 60.4177 1066.11 57.7784 1093.42 56.409 z" fill="rgb(233,111,102)" transform="translate(0,0)"></path>
<path d="M 1175.33 98.6269 C 1181.65 100.949 1183.57 105.211 1187.82 110.12 C 1207.53 132.895 1233.31 149.626 1260.43 162.256 C 1262.11 163.039 1263 163.089 1264.52 164.265 C 1264.96 165.38 1264.72 168.308 1264.75 169.63 C 1242.26 162.952 1196.39 129.146 1181.51 109.945 C 1177.19 104.367 1175.09 104.732 1175.33 98.6269 z" fill="rgb(253,253,252)" transform="translate(0,0)"></path>
<path d="M 1187.07 87.5552 C 1193.43 90.1542 1195.65 97.5469 1200.54 102.837 C 1217.02 120.66 1238.02 134.654 1260.15 144.469 C 1265.81 146.979 1267.83 145.448 1266.19 151.611 C 1247.85 150.65 1189.41 108.146 1187.07 87.5552 z" fill="rgb(253,253,252)" transform="translate(0,0)"></path>
<path d="M 1076.83 90.3389 C 1178.97 79.5659 1161.28 209.07 1296.42 186.501 C 1306.36 203.506 1310.76 214.084 1318.16 232.155 C 1303.93 219.931 1294.88 215.104 1277.32 209.703 C 1244.35 202.918 1215.8 214.554 1189.1 206.14 C 1153.46 194.908 1132.25 141.24 1091.5 130.325 C 1066.64 123.665 1049.41 130.027 1027.82 141.575 C 1027.2 131.038 1027.43 118.847 1027.38 108.181 C 1042.5 98.517 1059.11 92.862 1076.83 90.3389 z" fill="rgb(233,111,102)" transform="translate(0,0)"></path>
<path d="M 1366.59 364.403 C 1381.52 392.214 1428.81 416.76 1457.75 425.039 C 1485.37 432.942 1516.22 434.404 1544.99 436.157 C 1618.88 440.658 1712.37 500.725 1686.89 586.715 C 1679.18 612.108 1661.66 633.378 1638.21 645.809 C 1637.4 646.222 1636.59 646.634 1635.78 647.046 C 1676.38 676.351 1732.01 695.987 1752.31 745.66 C 1777.78 807.983 1736.73 867.21 1675.82 883.572 L 1676.18 878.843 C 1699.53 872.268 1717.21 862.848 1732.95 843.706 C 1749.83 823.46 1757.75 797.221 1754.89 771.017 C 1746.71 696.363 1652.25 676.665 1609.05 628.624 C 1584.43 601.249 1594.09 568.067 1564.38 545.188 C 1537.63 524.588 1504.51 525.659 1472.7 530.192 C 1403.66 540.376 1349.12 484.374 1328.55 423.502 C 1323.21 407.695 1320.97 397.687 1319.25 380.941 L 1322.35 381.382 L 1323.4 383.77 C 1325.35 379.656 1345.39 376.938 1348.24 378.101 C 1349.17 376.697 1349.07 377.014 1350.49 375.938 L 1352.3 376.919 C 1354.73 372.968 1359.33 370.635 1363.29 368.157 L 1366.59 364.403 z" fill="rgb(253,253,252)" transform="translate(0,0)"></path>
<path d="M 1366.59 364.403 C 1381.52 392.214 1428.81 416.76 1457.75 425.039 C 1485.37 432.942 1516.22 434.404 1544.99 436.157 C 1618.88 440.658 1712.37 500.725 1686.89 586.715 C 1679.18 612.108 1661.66 633.378 1638.21 645.809 C 1637.4 646.222 1636.59 646.634 1635.78 647.046 C 1676.38 676.351 1732.01 695.987 1752.31 745.66 C 1777.78 807.983 1736.73 867.21 1675.82 883.572 L 1676.18 878.843 C 1699.53 872.268 1717.21 862.848 1732.95 843.706 C 1749.83 823.46 1757.75 797.221 1754.89 771.017 C 1746.71 696.363 1652.25 676.665 1609.05 628.624 C 1584.43 601.249 1594.09 568.067 1564.38 545.188 C 1537.63 524.588 1504.51 525.659 1472.7 530.192 C 1403.66 540.376 1349.12 484.374 1328.55 423.502 C 1323.21 407.695 1320.97 397.687 1319.25 380.941 L 1322.35 381.382 L 1323.4 383.77 C 1327.86 416.107 1340.25 446.839 1359.45 473.23 C 1394 519.784 1436.17 533.32 1490.37 523.774 C 1528.58 517.044 1581.32 536.028 1590.87 577.573 C 1597.89 608.103 1605.71 623.168 1631.67 643.592 C 1683.27 621.068 1701.31 557.346 1673.08 511.355 C 1628.8 438.691 1546.32 442.823 1473 433.121 C 1437.86 428.471 1383.14 398.61 1363.29 368.157 L 1366.59 364.403 z" fill="rgb(0,0,0)" transform="translate(0,0)"></path>
<path d="M 1348.24 378.101 C 1349.17 376.697 1349.07 377.014 1350.49 375.938 L 1352.3 376.919 C 1369.87 416.665 1398.84 440.761 1438.52 456.86 C 1473.21 470.934 1499.23 466.644 1534 469.57 C 1577.18 473.203 1628.93 500.306 1646.73 541.548 C 1649.7 548.663 1651.43 554.718 1650.34 562.63 L 1649.17 563.557 C 1646.12 559.807 1644.37 545.296 1639.09 536 C 1618.11 498.83 1573.56 478.205 1532.48 473.848 C 1517.27 472.235 1501.55 473.192 1486.11 471.971 C 1428.3 467.394 1370.53 433.623 1348.24 378.101 z" fill="rgb(0,0,0)" transform="translate(0,0)"></path>
<path d="M 683.786 366.356 C 684.454 366.934 687.213 369.243 687.62 369.745 C 690.699 371.652 696.347 374.298 697.815 376.959 L 699.003 375.833 C 701.363 376.637 700.602 376.132 702.424 377.74 C 709.35 379.222 723.263 379.61 726.679 382.14 L 728.541 380.968 C 730.505 382.231 729.849 381.513 730.79 382.831 C 720.326 435.405 702.559 479.008 656.731 511.558 C 599.823 551.978 557.705 511.874 501.004 535.652 C 454.739 555.054 469.623 593.611 440.292 627.943 C 397.651 677.854 310.373 691.173 295.591 763.803 C 290.767 788.261 295.821 813.635 309.647 834.379 C 324.833 857.2 347.419 871.944 373.426 879.569 C 373.538 880.6 373.838 882.673 373.779 883.616 C 321.17 873.624 279.626 816.738 291.689 763.509 C 305.838 701.068 366.298 679.1 413.729 647.183 C 410.14 645.059 406.616 642.829 403.161 640.493 C 355.092 607.533 345.431 546.857 379.276 499.617 C 414.8 451.786 476.46 435.258 533.251 433.746 C 585.712 432.35 652.382 410.952 683.786 366.356 z" fill="rgb(253,253,252)" transform="translate(0,0)"></path>
<path d="M 683.786 366.356 C 684.454 366.934 687.213 369.243 687.62 369.745 C 659.785 400.084 639.88 413.21 600.456 426.668 C 561.19 440.747 521.738 435.477 481.511 444.036 C 436.13 453.692 392.047 477.101 372.252 520.992 C 351.042 568.021 370.475 622.259 418.204 643.889 C 449.253 615.151 450.02 607.037 461.679 569.557 C 472.521 534.706 519.505 520.302 551.796 523.105 C 564.137 523.577 576.075 526.008 588.419 526.847 C 618.429 528.885 647.782 515.83 669.509 495.654 C 685.594 480.717 697.101 463.893 707.011 444.439 C 717.409 424.026 722.077 404.357 726.679 382.14 L 728.541 380.968 C 730.505 382.231 729.849 381.513 730.79 382.831 C 720.326 435.405 702.559 479.008 656.731 511.558 C 599.823 551.978 557.705 511.874 501.004 535.652 C 454.739 555.054 469.623 593.611 440.292 627.943 C 397.651 677.854 310.373 691.173 295.591 763.803 C 290.767 788.261 295.821 813.635 309.647 834.379 C 324.833 857.2 347.419 871.944 373.426 879.569 C 373.538 880.6 373.838 882.673 373.779 883.616 C 321.17 873.624 279.626 816.738 291.689 763.509 C 305.838 701.068 366.298 679.1 413.729 647.183 C 410.14 645.059 406.616 642.829 403.161 640.493 C 355.092 607.533 345.431 546.857 379.276 499.617 C 414.8 451.786 476.46 435.258 533.251 433.746 C 585.712 432.35 652.382 410.952 683.786 366.356 z" fill="rgb(0,0,0)" transform="translate(0,0)"></path>
<path d="M 697.815 376.959 L 699.003 375.833 C 701.363 376.637 700.602 376.132 702.424 377.74 C 701.558 379.677 700.661 381.6 699.735 383.509 C 674.494 435.488 622.06 466.381 565.378 471.788 C 555.789 472.702 544.292 472.139 534.486 472.318 C 515.745 472.704 497.183 476.044 479.483 482.214 C 439.695 496.149 409.107 523.034 402.435 563.381 C 402.268 564.389 400.738 564.355 399.774 564.557 L 398.641 562.93 C 398.225 555.846 403.138 542.304 406.227 536.08 C 426.349 495.535 476.412 472.237 519.733 468.954 C 553.472 466.397 572.604 470.828 606.512 458.412 C 648.91 442.887 678.35 417.74 697.815 376.959 z" fill="rgb(0,0,0)" transform="translate(0,0)"></path>
<path d="M 1244.8 555.175 C 1250.49 547.497 1250.68 544.631 1251.15 556.205 L 1244.8 555.175 z" fill="rgb(50,162,195)" transform="translate(0,0)"></path>
<path d="M 905.293 421.45 C 908.904 423.755 913.832 436.876 918.448 440.511 C 922.733 443.885 925.325 441.549 931.675 441.519 C 937.984 441.186 943.301 443.075 948.176 447.563 C 974.499 471.798 970.604 544.88 928.256 548.296 C 911.204 549.672 896.98 519.727 896.161 504.598 C 895.805 498.01 895.783 492.793 896.393 485.756 C 896.887 481.256 897.806 476.315 898.542 471.809 C 877.03 472.868 867.454 471.725 850.717 456.914 L 850.83 454.937 L 849.229 454.774 L 849.616 455.71 L 850.436 454.784 C 858.285 457.355 866.461 464.504 873.662 466.08 C 883.807 468.301 896.527 471.022 902.517 461.003 C 900.128 456.715 871.59 446.295 874.335 432.874 C 883.865 427.722 886.946 472.203 916.769 445.733 C 910.671 439.022 904.297 430.92 905.293 421.45 z" fill="rgb(0,0,0)" transform="translate(0,0)"></path>
<path d="M 932.29 460.752 C 948.151 461.68 949.49 480.642 938.13 490.118 C 921.215 489.095 921.164 470.144 930.943 461.934 L 932.29 460.752 z" fill="rgb(253,253,252)" transform="translate(0,0)"></path>
<path d="M 929.949 520.78 C 938.454 520.251 942.146 524.117 937.766 532.414 L 936.974 533.974 C 935.482 533.99 933.005 534.175 931.597 533.639 C 930.095 533.055 928.88 531.908 928.213 530.441 C 927.027 527.836 928 524.82 929.181 522.435 L 929.949 520.78 z" fill="rgb(253,253,252)" transform="translate(0,0)"></path>
<path d="M 1145.31 421.736 C 1151.6 428.069 1141.53 440.746 1136.69 445.203 L 1147.26 455.804 C 1161.05 450.941 1166.83 445.978 1174.63 434.65 C 1175.57 433.285 1176.65 433.265 1178.08 433.378 C 1178.35 448.334 1151.28 454.79 1150.41 463.286 C 1151.76 464.995 1153.72 466.347 1155.88 466.582 C 1180.71 469.282 1182.33 464.378 1198.7 453.036 L 1200.49 453.67 L 1200.53 455.762 C 1188.83 471.286 1170.8 472.468 1153.14 471.053 L 1155.5 482.729 C 1158.67 507.164 1150.47 553.39 1118.36 547.11 C 1074.61 538.553 1077.91 425.977 1133.95 443.401 C 1139.52 435.549 1141.62 430.507 1145.31 421.736 z" fill="rgb(0,0,0)" transform="translate(0,0)"></path>
<path d="M 1114.11 462.969 C 1131.25 461.503 1134.16 477.536 1125.11 486.953 L 1123.93 488.244 C 1107.3 492.679 1104.94 472.458 1112.97 464.194 L 1114.11 462.969 z" fill="rgb(253,253,252)" transform="translate(0,0)"></path>
<path d="M 1116.25 519.491 C 1126.63 519.898 1125.45 527.501 1120.9 534.459 C 1111.55 531.684 1112.04 526.916 1116.25 519.491 z" fill="rgb(253,253,252)" transform="translate(0,0)"></path>
<path d="M 1023.27 270.533 C 1027.45 274.32 1034.13 291.424 1037.91 297.438 C 1064.21 339.225 1111.74 371.693 1161.66 375.013 C 1185.2 376.449 1206.03 373.871 1226.73 387.438 C 1261.03 409.921 1262.44 442.344 1268.33 478.854 C 1275.21 515.975 1285.18 552.011 1303.74 585.113 C 1307.8 592.349 1323.96 614.879 1325.01 619.57 L 1324.03 621.026 L 1322.32 620.75 C 1290.96 578.609 1271.66 531.695 1264.1 479.32 C 1257.86 436.043 1251.17 391.647 1198.7 381.305 C 1187.79 379.154 1173.19 380.328 1161.42 379.411 C 1148.39 378.395 1135.53 375.751 1123.16 371.54 C 1078.96 356.419 1045.19 323.78 1024.95 282.171 L 1024.23 280.688 C 1023.44 281.102 1011.09 305.755 1008.76 309.404 C 983.265 349.993 940.001 376.055 892.2 379.623 C 879.714 380.654 856.857 378.896 846.157 381.995 C 784.94 399.728 792.81 459.345 779.796 508.207 C 770.661 542.503 761.51 569.594 742.539 599.399 C 739.478 604.208 730.541 618.646 725.602 619.738 C 724.305 614.376 732.926 605.844 736.171 601.187 C 741.16 593.908 745.662 586.306 749.646 578.432 C 760.656 556.812 776.238 514.087 779.563 490.371 C 786.655 439.791 792.963 384.614 855.093 376.36 C 865.589 374.966 877.996 376.137 889.147 375.36 C 902.113 374.424 914.922 371.957 927.308 368.011 C 960.002 357.45 989.853 333.175 1007.04 303.504 C 1013.49 292.379 1017.47 281.764 1023.27 270.533 z" fill="rgb(0,0,0)" transform="translate(0,0)"></path>
<path d="M 884.121 551.252 C 933.723 546.843 948.583 582.823 904.983 591.773 C 856.53 598.493 835.006 561.025 884.121 551.252 z" fill="rgb(234,167,183)" transform="translate(0,0)"></path>
<path d="M 1152.26 550.363 C 1198.64 549.766 1211.88 587.218 1159.76 592.444 C 1111.84 593.874 1102.42 555.929 1152.26 550.363 z" fill="rgb(234,167,183)" transform="translate(0,0)"></path>
<path d="M 978.41 566.31 L 979.813 566.72 C 983.165 567.653 986.091 577.033 990.677 581.602 C 1010.15 601.524 1044.92 599.051 1059.9 574.999 C 1061.75 572.042 1065.26 562.209 1068.09 569.816 C 1052.5 601.486 1015.18 610.144 987.902 585.061 C 982.864 580.429 978.224 573.373 978.41 566.31 z" fill="rgb(0,0,0)" transform="translate(0,0)"></path>
<path d="M 1112.81 407.172 C 1128.72 406.006 1140.05 407.63 1153.5 416.995 C 1161.77 422.757 1156.25 422.519 1150.41 419.762 C 1138.81 413.53 1125.75 409.42 1112.5 412.137 C 1110.5 412.447 1108.02 414.102 1106.02 413.962 C 1104.88 413.881 1103.49 411.593 1104.14 410.592 C 1105.42 408.604 1110.83 407.676 1112.81 407.172 z" fill="rgb(0,0,0)" transform="translate(0,0)"></path>
<path d="M 930.183 407.383 C 933.163 407.369 944.811 407.669 946.441 410.034 C 948.432 412.925 945.957 413.984 943.011 413.176 C 931.129 409.92 918.291 411.84 907.09 416.526 C 904.532 417.755 895.956 423.104 895.007 422.219 C 885.465 413.323 925.67 407.734 930.183 407.383 z" fill="rgb(0,0,0)" transform="translate(0,0)"></path>
<path d="M 1024.9 512.083 C 1036.91 512.37 1044.96 516.41 1047.37 530.521 C 1047.97 533.991 1043.74 533.68 1042.89 530.549 C 1041.45 525.263 1039.16 521.407 1034.78 518.103 L 1033.19 516.88 C 1022.48 516.056 1020.09 517.855 1015.15 527.539 C 1008.93 539.749 1006.29 520.431 1024.9 512.083 z" fill="rgb(0,0,0)" transform="translate(0,0)"></path>
<metadata><recraft-signature>{"signed_by": "recraft", "signature_b64": "xc8NPanuVXmzEzG5T2dX3QYkvOfHDMvugP2g76hoZ3C4VVQ0XCxXMD8ROnKH4NqRklqRIO0Y9qHewKEfVcdgCQ==", "signing_algo": "Ed25519", "generation_timestamp": 1778557466, "identifier": "62fac0a4-7a55-4b42-9abd-3f8d964ed82f"}</recraft-signature></metadata></svg>