<svg xmlns="http://www.w3.org/2000/svg" height="1024" preserveAspectRatio="none" style="display: block;" version="1.1" viewBox="0 0 2048 2048" width="1024">
<defs>
	<linearGradient gradientUnits="userSpaceOnUse" id="Gradient1" x1="382.379" x2="379.24" y1="1551.68" y2="1182.53">
		<stop class="stop0" offset="0" stop-color="rgb(9,6,6)" stop-opacity="1"></stop>
		<stop class="stop1" offset="1" stop-color="rgb(78,57,54)" stop-opacity="1"></stop>
	</linearGradient>
	<linearGradient gradientUnits="userSpaceOnUse" id="Gradient2" x1="716.379" x2="446.891" y1="827.431" y2="845.963">
		<stop class="stop0" offset="0" stop-color="rgb(119,87,78)" stop-opacity="1"></stop>
		<stop class="stop1" offset="1" stop-color="rgb(146,110,93)" stop-opacity="1"></stop>
	</linearGradient>
</defs>

<path d="M 747.689 387.761 C 745.621 372.687 742.079 357.853 737.114 343.471 C 721.219 298.587 684.541 263.66 634.879 264.213 C 612.263 264.465 589.687 275.866 565.058 262.905 C 553.882 257.335 542.585 245.94 539.523 233.364 C 529.675 192.926 565.674 168.973 599.07 161.099 C 652.561 148.486 707.982 155.812 754.865 183.617 C 826.563 226.137 849.783 289.996 869.56 365.474 C 907.66 360.268 951.322 354.788 989.741 354.902 C 1003.78 353.155 1039.56 353.666 1053.97 354.582 C 1095.78 356.179 1137.48 360.009 1178.89 366.056 C 1183.5 347.112 1188.15 328.132 1194.44 309.644 C 1222.87 226.061 1294.24 160.229 1384.84 155.592 C 1424.63 153.556 1479.64 158.754 1503.51 196.269 C 1518.02 219.067 1509.12 249.275 1485.63 261.678 C 1460.64 275.288 1435.68 264.365 1410.14 263.951 C 1380.05 263.463 1347.39 282.8 1330.55 307.131 C 1312.55 332.292 1307.14 357.665 1300.9 387.218 C 1429.94 416.879 1550.57 502.738 1603.36 625.541 C 1609.33 639.413 1615.93 653.813 1620.2 668.29 C 1636.38 671.2 1649.59 678.308 1659.26 691.951 C 1667.78 703.957 1670.88 718.985 1667.8 733.382 C 1664.04 751.44 1649.73 767.312 1631.95 772.477 C 1614.42 779.724 1571.73 771.832 1561.44 775.793 C 1565.27 786.44 1568.73 796.086 1571.94 806.967 C 1601.11 806.688 1632.22 801.559 1654.07 823.082 C 1664.79 833.646 1670.84 848.056 1670.87 863.104 C 1670.78 877.8 1664.8 891.848 1654.28 902.11 C 1645.12 911.013 1636.95 914.043 1625.18 918.025 C 1618.56 949.213 1610.58 981.531 1603.49 1012.76 L 1572.39 1150.74 C 1604.21 1171.22 1648.63 1222.6 1664.71 1257.05 C 1667.9 1261.74 1676.77 1279.23 1678.48 1284.68 C 1693.73 1319.6 1700.63 1343.51 1706.44 1381.47 C 1735.61 1396.1 1757.63 1421.89 1767.51 1452.99 C 1777.88 1484.62 1784.6 1531.55 1736.19 1528.75 C 1724.97 1561.27 1694.98 1561.99 1677.89 1533.44 C 1666.19 1548.3 1649.29 1554.2 1633.43 1540.7 C 1615.39 1525.34 1623.4 1503.5 1623.34 1483.4 C 1613.34 1489.04 1601.27 1493.54 1589.61 1490.33 C 1571.97 1485.48 1570.61 1461.58 1575.92 1447.24 C 1583.94 1423.62 1598.66 1405.18 1617.85 1390.06 C 1605.95 1341.4 1583.3 1299.56 1546.49 1265.44 C 1534.94 1312.27 1524.38 1359.34 1514.81 1406.61 C 1507.22 1443.01 1498.87 1480.78 1494.52 1517.65 C 1501.26 1519.56 1506.63 1520.95 1513.08 1523.72 C 1519.58 1526.12 1523.93 1528.92 1529.24 1533.39 C 1543.4 1545.56 1552.39 1560.7 1553.94 1579.59 C 1555.24 1596.94 1549.56 1614.09 1538.18 1627.24 C 1528.71 1638.22 1517.31 1644.93 1503.34 1648.44 C 1490.59 1652.65 1445.41 1651 1430.14 1650.98 L 1326.77 1650.92 C 1314.78 1650.93 1254.43 1652.62 1245.51 1650.31 L 1250.56 1649.19 C 1247.15 1649.28 1245.79 1647.38 1242.77 1647.36 C 1223.32 1647.26 1202.47 1646.05 1183.11 1646.93 C 1159.55 1647.99 1129.84 1644.9 1106.83 1648.14 L 1106.62 1649.56 L 1106.09 1649.48 L 1113.55 1650.79 C 1092.15 1652.4 1048.37 1651.12 1025.65 1651.08 C 1000.09 1651.03 957.608 1652.35 933.779 1650.55 C 936.762 1649.61 942.522 1649.66 945.847 1649.53 C 945.553 1649.33 945.293 1649.06 944.965 1648.92 C 938.111 1645.92 810.353 1645.61 799.402 1648.25 C 797.026 1648.82 795.421 1649.1 792.969 1648.85 C 791.048 1648.66 789.952 1648.52 788.053 1649.15 C 788.482 1649.53 800.079 1649.83 802.6 1650.35 C 797.601 1651.25 781.4 1650.9 775.259 1650.9 L 719.405 1650.87 L 612.901 1650.97 C 578.31 1651 528.022 1657.19 506.791 1622.96 C 490.961 1600.96 489.969 1571.63 504.682 1548.82 C 507.558 1541.54 520.775 1530.27 527.91 1526.54 C 534.406 1522.09 546.101 1518.76 553.925 1516.27 C 545.616 1467.51 535.143 1418.09 525.422 1369.53 C 518.526 1335.08 508.439 1299.48 502.203 1264.97 C 496.853 1269.62 492.521 1274.09 487.555 1279.16 C 477.316 1259.54 469.605 1238.02 461.443 1217.5 C 459.042 1211.46 449.773 1182.69 445.346 1180.53 C 443.175 1181.34 441.577 1181.48 439.272 1181.67 C 450.125 1170.83 463.287 1158.88 475.878 1150.38 L 425.434 918.14 C 417.127 916.449 413.219 915.088 405.8 911.342 C 396.144 907.851 384.102 892.62 380.551 883.275 C 377.733 877.082 376.434 870.278 376.335 863.485 C 376.216 848.504 382.128 834.105 392.741 823.531 C 415.256 800.992 446.496 806.777 477.15 806.964 C 480.904 797.543 484.824 785.428 488.225 775.701 C 483.392 775.424 478.711 775.403 473.875 775.128 C 464.961 776.08 453.752 775.045 444.605 775.444 C 423.223 776.377 400.038 771.68 387.679 751.87 C 383.544 745.878 380.683 739.101 379.276 731.958 C 376.659 718.119 379.788 703.811 387.943 692.328 C 398.01 678.068 410.826 671.748 427.443 668.62 C 435.26 640.607 446.775 613.759 461.683 588.786 C 470.127 571.668 499.041 531.989 513.518 519.363 C 518.546 512.424 534.304 498.281 540.831 492.366 C 596.297 442.093 674.482 403.31 747.689 387.761 z" fill="rgb(62,44,42)" transform="translate(0,0)"></path>
<path d="M 1324.23 810.766 C 1322.56 827.911 1318.06 844.661 1310.91 860.331 C 1278.26 931.16 1188.41 962.202 1119.53 927.659 C 1086.54 911.111 1058.77 882.817 1046.71 847.719 C 1034.13 810.099 1037.13 769.007 1055.06 733.62 C 1071.13 701.525 1101.75 676.232 1135.76 665.087 C 1173.46 652.361 1214.74 655.594 1250 674.037 C 1284.22 691.746 1307.76 721.059 1319.28 757.604 C 1357.18 757.137 1397.18 758.005 1435.25 758.158 C 1474.95 758.036 1514.65 758.167 1554.35 758.552 C 1556.41 763.841 1558.39 769.218 1562.68 773.087 L 1561.38 774.265 L 1561.44 775.793 C 1565.27 786.44 1568.73 796.086 1571.94 806.967 C 1601.11 806.688 1632.22 801.559 1654.07 823.082 C 1664.79 833.646 1670.84 848.056 1670.87 863.104 C 1670.78 877.8 1664.8 891.848 1654.28 902.11 C 1645.12 911.013 1636.95 914.043 1625.18 918.025 C 1618.56 949.213 1610.58 981.531 1603.49 1012.76 L 1572.39 1150.74 C 1604.21 1171.22 1648.63 1222.6 1664.71 1257.05 C 1667.9 1261.74 1676.77 1279.23 1678.48 1284.68 C 1693.73 1319.6 1700.63 1343.51 1706.44 1381.47 C 1735.61 1396.1 1757.63 1421.89 1767.51 1452.99 C 1777.88 1484.62 1784.6 1531.55 1736.19 1528.75 C 1724.97 1561.27 1694.98 1561.99 1677.89 1533.44 C 1666.19 1548.3 1649.29 1554.2 1633.43 1540.7 C 1615.39 1525.34 1623.4 1503.5 1623.34 1483.4 C 1613.34 1489.04 1601.27 1493.54 1589.61 1490.33 C 1571.97 1485.48 1570.61 1461.58 1575.92 1447.24 C 1583.94 1423.62 1598.66 1405.18 1617.85 1390.06 C 1605.95 1341.4 1583.3 1299.56 1546.49 1265.44 C 1534.94 1312.27 1524.38 1359.34 1514.81 1406.61 C 1507.22 1443.01 1498.87 1480.78 1494.52 1517.65 C 1501.26 1519.56 1506.63 1520.95 1513.08 1523.72 C 1508.7 1524.92 1496.39 1521.33 1491.05 1520.13 C 1491.81 1508.1 1494.47 1492.81 1496.68 1480.95 L 1499.56 1462.71 C 1524.73 1341.41 1551.6 1220.46 1580.13 1099.9 L 1605.64 986.984 C 1610.75 964.637 1617.03 940.376 1621.02 918.048 L 1538.94 918.197 C 1529.21 918.272 1503.14 919.459 1494.85 917.85 L 1494.72 916.869 C 1504.72 912.615 1517.05 914.567 1527.73 914.54 C 1542.77 914.502 1621.66 916.772 1631.49 912.121 C 1632.02 911.87 1632.53 911.587 1633.05 911.321 C 1642.98 907.772 1651.57 901.235 1657.63 892.607 C 1684.5 854.396 1651.4 806.96 1607.97 810.332 C 1597.52 811.143 1588.81 810.095 1577.94 812.406 C 1571.33 809.167 1555.08 810.832 1547.11 810.886 L 1493.26 810.988 L 1324.23 810.766 z" fill="rgb(7,6,6)" transform="translate(0,0)"></path>
<path d="M 1601.55 1179.56 C 1615.11 1192.5 1627.37 1206.73 1638.18 1222.04 C 1646.28 1233.32 1653.42 1245.29 1661.84 1256.32 C 1662.79 1256.56 1663.75 1256.8 1664.71 1257.05 C 1667.9 1261.74 1676.77 1279.23 1678.48 1284.68 C 1678.24 1285.08 1676.84 1287.78 1676.92 1287.98 C 1689.79 1318.05 1698.43 1345.98 1701.86 1378.75 C 1670.15 1370.44 1649.73 1373.78 1621.28 1388.25 C 1607.48 1338.91 1593.51 1311.66 1559.92 1272.3 C 1572.09 1251.45 1591.8 1203.72 1601.55 1179.56 z" fill="rgb(62,44,42)" transform="translate(0,0)"></path>
<path d="M 1051.45 751.846 C 1071.32 697.604 1122.71 661.337 1180.47 660.787 C 1238.24 660.237 1290.3 695.519 1311.2 749.374 C 1333.53 806.92 1315.18 872.299 1266.17 909.819 C 1217.15 947.339 1149.25 947.985 1099.53 911.405 C 1049.81 874.825 1030.22 809.807 1051.45 751.846 z" fill="rgb(254,254,254)" transform="translate(0,0)"></path>
<path d="M 1051.45 751.846 C 1071.32 697.604 1122.71 661.337 1180.47 660.787 C 1238.24 660.237 1290.3 695.519 1311.2 749.374 C 1303.02 744.244 1294.34 730.59 1285.36 723.493 C 1221.13 672.771 1128.42 676.225 1068.86 732.532 C 1065.61 735.597 1053.85 750.485 1051.45 751.846 z" fill="rgb(223,214,203)" transform="translate(0,0)"></path>
<path d="M 1111.77 790.011 C 1121.8 782.326 1130.55 775.319 1142.43 770.5 C 1179.42 755.499 1220.79 763.356 1249.55 791.066 C 1260.67 786.702 1265.26 783.652 1270.46 771.968 C 1270.76 771.04 1270.86 770.244 1271.43 769.54 C 1271.52 769.542 1271.6 769.545 1271.69 769.547 C 1272.52 771.024 1271.75 777.253 1271.54 779.084 C 1266.92 790.819 1259.82 793.393 1258.07 799.717 C 1264.49 811.395 1281.81 794.876 1287.51 790.545 C 1288.7 804.28 1272.08 807.044 1264.74 813.23 C 1267.12 817.838 1269.02 818.832 1273.97 819.167 C 1286.09 819.991 1290.88 814.648 1299.05 806.9 C 1286.3 829.318 1284.32 818.845 1270.54 827.803 C 1269.03 831.569 1270.01 833.254 1270.67 837.715 C 1259.15 819.704 1249.94 806.951 1232.04 794.927 C 1198.01 772.064 1152.58 773.486 1120.58 799.378 C 1108.09 809.489 1100.64 821.865 1091.99 835.195 C 1092.69 831.18 1093.66 827.148 1094.56 823.167 C 1078 821.993 1073.65 819.942 1064.8 805.52 C 1067.69 807.878 1070.45 809.936 1073.46 812.14 C 1079.26 816.392 1094.51 818.885 1098.51 811.367 C 1094.58 804.175 1082.49 810.389 1074.25 783.882 C 1075.61 785.717 1077.04 787.499 1078.54 789.226 C 1084.04 795.687 1096.06 806.105 1104.76 798.484 C 1102.32 789.916 1091.86 790.761 1091.1 773 L 1091.48 769.492 L 1092.46 769.587 L 1094.15 773.161 C 1099.06 781.594 1102.8 785.732 1111.77 790.011 z" fill="rgb(7,6,6)" transform="translate(0,0)"></path>
<path d="M 1270.46 771.968 C 1270.76 771.04 1270.86 770.244 1271.43 769.54 C 1271.52 769.542 1271.6 769.545 1271.69 769.547 C 1272.52 771.024 1271.75 777.253 1271.54 779.084 C 1271.23 776.583 1270.9 774.448 1270.46 771.968 z" fill="rgb(36,31,31)" transform="translate(0,0)"></path>
<path d="M 1668.32 1378.46 C 1678.07 1378.09 1687.82 1379.44 1697.11 1382.44 C 1741.73 1397.08 1778.39 1456.75 1768.48 1507.76 C 1767.07 1515.02 1749.65 1528.99 1740.5 1524.8 C 1737.83 1521.62 1738.26 1520.81 1738.46 1516.72 C 1738.93 1507.03 1735.86 1469.65 1728.18 1464.48 C 1725.56 1471.17 1730.33 1478.18 1731.61 1484.49 C 1735.38 1503.14 1738.01 1537 1717.57 1547.1 C 1711.79 1549.96 1705.1 1550.37 1699.02 1548.25 C 1689.19 1544.83 1685.09 1537.59 1681.11 1528.87 C 1684.43 1520.06 1685.48 1514.26 1686.9 1505.05 C 1687.37 1493.03 1687.02 1480.68 1680.73 1470.02 L 1679.78 1470.64 C 1678.89 1486.59 1684.85 1497.16 1681.08 1515.67 C 1677.79 1531.87 1661.96 1549.11 1644.6 1543.34 C 1613.36 1532.96 1634.4 1478.48 1625.51 1455.04 C 1625.06 1453.84 1623.92 1454.2 1622.88 1454.12 L 1622.02 1456.03 C 1623.05 1462.05 1623.25 1468.72 1623.6 1474.85 C 1608.02 1493.41 1576.48 1489.7 1576.89 1467.95 C 1577.82 1418.64 1624.61 1381.34 1668.32 1378.46 z" fill="rgb(223,214,203)" transform="translate(0,0)"></path>
<path d="M 728.542 757.923 C 741.521 719.288 762.499 691.388 799.756 672.671 C 834.143 655.386 874.027 652.617 910.473 664.984 C 986.578 690.415 1027.41 770.628 1000.96 846.816 C 988.629 882.028 962.902 910.953 929.369 927.309 C 892.762 944.797 854.553 946.814 816.349 933.085 C 780.699 920.268 751.676 893.693 735.774 859.308 C 729.063 844.875 724.462 827.443 723.674 811.501 C 648.801 810.774 573.924 810.551 499.048 810.833 C 485.89 810.873 472.665 810.976 459.594 810.726 C 450.635 810.554 440.36 808.377 431.852 809.238 C 398.773 812.588 377.117 836.876 379.982 870.402 C 380.147 872.331 380.961 882.242 380.551 883.275 C 377.733 877.082 376.434 870.278 376.335 863.485 C 376.216 848.504 382.128 834.105 392.741 823.531 C 415.256 800.992 446.496 806.777 477.15 806.964 C 480.904 797.543 484.824 785.428 488.225 775.701 C 488.477 774.372 488.718 773.162 489.007 771.835 C 491.645 766.526 492.857 763.496 494.872 757.997 L 728.542 757.923 z" fill="rgb(7,6,6)" transform="translate(0,0)"></path>
<path d="M 735.729 750.943 C 756.216 696.335 808.635 660.342 866.958 660.838 C 925.28 661.334 977.08 698.212 996.635 753.161 C 1017.23 811.02 997.377 875.533 947.821 911.809 C 898.266 948.085 830.77 947.511 781.839 910.398 C 732.907 873.285 714.157 808.443 735.729 750.943 z" fill="rgb(254,254,254)" transform="translate(0,0)"></path>
<path d="M 735.729 750.943 C 756.216 696.335 808.635 660.342 866.958 660.838 C 925.28 661.334 977.08 698.212 996.635 753.161 C 990.48 748.59 983.329 737.372 976.817 731.247 C 917.415 675.426 825.628 674.269 761.645 722.949 C 753.866 728.867 740.177 748.521 735.729 750.943 z" fill="rgb(223,214,203)" transform="translate(0,0)"></path>
<path d="M 798.434 790.547 C 839.982 755.707 891.008 752.335 933.577 788.288 C 939.156 792.999 952.493 777.37 954.741 772.142 L 955.59 769.385 L 956.72 769.975 L 957.678 773.927 C 955.132 790.663 950.154 786.078 942.81 797.57 L 943.575 799.036 C 957.462 801.65 964.62 794.548 973.834 785.758 C 973.404 786.877 972.962 787.991 972.508 789.1 C 967.635 800.95 960.82 804.866 949.556 809.524 C 950.97 813.193 955.39 815.586 959.201 815.962 C 969.311 816.96 976.146 810.141 983.358 804.144 C 971.986 821.585 972.42 818.743 954.611 823.556 L 953.83 825.38 C 954.602 828.407 954.954 829.293 954.4 832.47 L 954.485 832.495 C 952.899 831.373 948.553 823.315 946.572 820.576 C 938.064 808.675 927.184 798.665 914.616 791.177 C 862.509 760.464 807.399 786.432 778.976 835.706 L 777.605 836.042 L 777.004 834.678 C 777.87 832.651 778.47 831.074 779.197 828.991 L 777.849 827.498 C 762.689 825.801 759.106 821.081 751.037 808.62 C 757.54 813.913 775.051 824.352 782.564 817.115 C 782.75 816.141 782.937 815.167 783.124 814.193 C 775.841 808.408 766.971 804.573 762.011 796.199 C 760.705 793.993 760.89 792.638 761.506 790.461 L 762.577 790.23 C 768.539 797.166 783.818 808.418 791.812 799.491 C 787.758 790.075 772.693 787.78 777.151 769.574 L 778.191 769.599 C 781.081 780.961 785.987 786.832 797.029 790.139 L 798.434 790.547 z" fill="rgb(7,6,6)" transform="translate(0,0)"></path>
<path d="M 1178.89 366.056 C 1183.5 347.112 1188.15 328.132 1194.44 309.644 C 1222.87 226.061 1294.24 160.229 1384.84 155.592 C 1424.63 153.556 1479.64 158.754 1503.51 196.269 C 1518.02 219.067 1509.12 249.275 1485.63 261.678 C 1460.64 275.288 1435.68 264.365 1410.14 263.951 C 1380.05 263.463 1347.39 282.8 1330.55 307.131 C 1312.55 332.292 1307.14 357.665 1300.9 387.218 C 1429.94 416.879 1550.57 502.738 1603.36 625.541 C 1609.33 639.413 1615.93 653.813 1620.2 668.29 C 1636.38 671.2 1649.59 678.308 1659.26 691.951 C 1667.78 703.957 1670.88 718.985 1667.8 733.382 C 1664.04 751.44 1649.73 767.312 1631.95 772.477 L 1631.67 771.324 C 1633.29 769.243 1635.62 768.081 1637.89 766.656 C 1644.1 763.388 1649.62 758.949 1654.14 753.584 C 1671.25 733.108 1668.2 701.778 1647.8 684.521 C 1626.76 666.718 1595.62 673.234 1570.08 672.371 C 1556.61 671.916 1540.99 673.011 1527.57 674.027 C 1518.28 672.054 1492.5 672.985 1488.77 670.613 C 1495.88 666.557 1597.57 670.497 1616.15 668.702 C 1612.72 655.094 1602.9 632.775 1596.75 619.805 C 1542.92 506.29 1453.93 442.661 1338.27 401.441 C 1331.85 397.657 1308.94 392.313 1300.51 390.196 C 1297.47 410.071 1296.85 430.56 1297.01 450.6 C 1297.08 459.141 1297.62 468.541 1296.3 476.906 C 1287.33 533.618 1208.51 543.848 1176.99 500.636 C 1168.55 489.068 1166.4 474.781 1166.87 460.846 C 1167.92 430.002 1173.26 399.16 1178.85 368.929 C 1173.16 368.372 1073.17 357.466 1075.98 358.837 C 1078.87 358.93 1083.88 359.622 1085.85 358.353 C 1085.29 358.114 1055.22 355.641 1052.55 355.574 L 1051.3 355.553 C 1052.52 354.578 1051.7 355.058 1053.97 354.582 C 1095.78 356.179 1137.48 360.009 1178.89 366.056 z" fill="rgb(7,6,6)" transform="translate(0,0)"></path>
<path d="M 1200.25 306.483 C 1206.08 310.925 1214.21 319.556 1221 324.969 C 1244.8 343.955 1274.55 352.348 1304.58 354.279 C 1300.82 369.169 1297.82 384.242 1295.61 399.438 L 1281.57 403.297 C 1279.1 403.833 1276.61 404.278 1274.1 404.629 C 1236.04 410.244 1210.07 400.323 1180.28 378.267 C 1185.62 354.207 1191.51 329.546 1200.25 306.483 z" fill="rgb(223,214,203)" transform="translate(0,0)"></path>
<path d="M 1179.66 381.539 C 1214.68 410.712 1252.08 416.191 1295.18 403.465 C 1294.12 420.986 1293.14 435.493 1293.03 453.134 L 1282.34 458.73 C 1245.78 477.086 1201.65 466.267 1171.76 440.346 C 1174.14 420.257 1176.4 401.521 1179.66 381.539 z" fill="rgb(213,106,91)" transform="translate(0,0)"></path>
<path d="M 1278.65 197.744 C 1290.09 199.615 1342.03 268.001 1352.6 279.382 C 1341.03 288.832 1335.71 293.927 1326.34 305.52 C 1320.08 304.564 1315.9 303.6 1309.79 302.087 C 1274.68 292.661 1254.02 272.884 1230.43 247.663 C 1244.08 228.847 1260.32 212.043 1278.65 197.744 z" fill="rgb(223,214,203)" transform="translate(0,0)"></path>
<path d="M 1385.39 159.405 C 1401.03 157.388 1426.98 160.292 1442.04 163.517 C 1441.15 199.02 1436.73 227.367 1425.15 260.918 C 1418.2 260.044 1412.44 260.053 1405.44 259.959 L 1391.42 261.663 C 1382.19 229.472 1369.49 191.899 1348.4 165.488 C 1362.11 161.798 1371.46 160.738 1385.39 159.405 z" fill="rgb(223,214,203)" transform="translate(0,0)"></path>
<path d="M 1228.13 250.685 C 1255.73 280.798 1282.27 302.343 1324.24 308.898 C 1315.02 322.521 1311.86 334.788 1304.7 349.28 C 1304.26 350.163 1300.9 350.069 1299.42 350.181 C 1255.3 344.548 1232.06 333.387 1201.96 302.134 C 1208 283.391 1217.89 267.284 1228.13 250.685 z" fill="rgb(213,106,91)" transform="translate(0,0)"></path>
<path d="M 1172.06 444.969 C 1204.42 475.824 1254.54 478.438 1292.9 457.622 C 1293.33 477.606 1293.43 484.455 1281.78 501.432 C 1267.63 517.818 1246.16 526.963 1224.81 523.829 C 1178.51 517.035 1166.97 486.282 1172.06 444.969 z" fill="rgb(223,214,203)" transform="translate(0,0)"></path>
<path d="M 1343.5 166.006 L 1345.31 166.525 C 1365.8 192.517 1378.96 231.05 1387.82 262.438 C 1374.47 266.8 1368.21 270.253 1355.82 277.255 C 1351.84 273.261 1348.02 267.972 1344.52 263.463 C 1328.33 241.859 1302.42 213.082 1283.2 194.328 C 1307.65 179.592 1316.15 174.737 1343.5 166.006 z" fill="rgb(213,106,91)" transform="translate(0,0)"></path>
<path d="M 1445.69 163.989 C 1465.87 169.817 1487.48 178.097 1499.29 196.794 C 1505.78 206.941 1507.82 219.302 1504.94 230.994 C 1501.88 243.04 1493.27 252.21 1482.7 258.268 C 1463.52 266.596 1448.75 266.14 1428.61 261.383 C 1432.06 252.997 1434.8 244.335 1436.79 235.488 C 1443.04 207.864 1443.66 191.378 1445.69 163.989 z" fill="rgb(213,106,91)" transform="translate(0,0)"></path>
<path d="M 747.689 387.761 C 745.621 372.687 742.079 357.853 737.114 343.471 C 721.219 298.587 684.541 263.66 634.879 264.213 C 612.263 264.465 589.687 275.866 565.058 262.905 C 553.882 257.335 542.585 245.94 539.523 233.364 C 529.675 192.926 565.674 168.973 599.07 161.099 C 652.561 148.486 707.982 155.812 754.865 183.617 C 826.563 226.137 849.783 289.996 869.56 365.474 C 907.66 360.268 951.322 354.788 989.741 354.902 C 993.291 355.177 996.974 355.557 1000.51 355.459 C 993.952 357.328 988.226 356.553 981.504 356.924 C 944.805 358.95 906.636 365.8 870.273 368.487 C 873.661 384.889 875.019 401.032 877.76 417.326 C 885.37 462.565 889.61 514.118 831.951 526.075 C 812.919 529.846 793.169 525.871 777.078 515.03 C 748.344 495.644 753.155 469.459 752.889 439.505 C 752.756 424.55 751.156 404.804 748.383 390.043 C 741.347 392.018 716.937 398.488 712.512 401.612 C 674.655 413.637 619.052 436.382 587.684 461.107 C 572.542 467.856 533.187 503.963 520.038 516.137 C 519.149 516.96 514.614 519.531 513.518 519.363 C 518.546 512.424 534.304 498.281 540.831 492.366 C 596.297 442.093 674.482 403.31 747.689 387.761 z" fill="rgb(7,6,6)" transform="translate(0,0)"></path>
<path d="M 847.603 306.067 C 853.584 313.966 865.517 367.396 868.253 379.382 C 835.021 402.294 808.007 410.158 767.247 403.651 C 762.605 402.821 757.983 401.495 753.412 400.291 C 751.15 384.919 748.369 369.627 745.075 354.441 C 784.404 350.721 821.884 337.145 847.603 306.067 z" fill="rgb(223,214,203)" transform="translate(0,0)"></path>
<path d="M 767.849 196.728 C 789.513 212.398 801.717 226.614 817.811 247.102 C 797.882 273.521 773.076 290.182 742.227 301.12 C 735.728 303.351 728.329 304.723 721.495 305.345 C 712.694 294.161 707.615 288.993 696.805 279.689 C 719.492 248.451 741.174 224.206 767.849 196.728 z" fill="rgb(223,214,203)" transform="translate(0,0)"></path>
<path d="M 867.606 383.719 L 868.841 384.655 C 871.397 390.738 875.948 431.719 877.082 440.93 C 840.525 467.543 810.14 475.746 766.719 459.016 L 756.99 454.283 C 756.87 437.579 755.831 420.895 753.878 404.305 C 760.763 406.349 767.809 407.811 774.939 408.677 C 808.47 412.802 841.004 404.673 867.606 383.719 z" fill="rgb(213,106,91)" transform="translate(0,0)"></path>
<path d="M 633.69 159.412 C 653.842 157.31 678.879 160.595 698.502 164.66 C 680.738 196.757 670.306 215.778 660.172 251.763 L 657.668 262.563 C 643.565 260.215 638.296 259.71 623.951 260.514 C 612.043 233.919 606.413 193.092 605.946 163.556 C 616.242 161.396 623.209 160.427 633.69 159.412 z" fill="rgb(223,214,203)" transform="translate(0,0)"></path>
<path d="M 819.728 250.655 C 828.494 259.868 841.853 289.079 846.451 301.897 C 820.32 332.357 789.892 345.077 750.243 349.448 C 748.388 349.805 746.842 349.74 744.951 349.787 C 742.154 347.883 735.544 329.266 733.351 324.813 C 730.501 319.027 727.835 314.427 724.25 308.922 C 763.187 303.104 795.62 281.236 819.728 250.655 z" fill="rgb(213,106,91)" transform="translate(0,0)"></path>
<path d="M 876.585 444.707 C 893.283 516.596 813.72 548.901 769.11 503.088 C 756.429 488.121 755.95 476.632 756.925 458.41 C 799.193 479.894 840.377 474.99 876.585 444.707 z" fill="rgb(223,214,203)" transform="translate(0,0)"></path>
<path d="M 702.027 165.648 C 725.372 172.719 744.727 180.99 764.919 194.619 C 744.368 213.952 723.686 239.447 706.202 261.468 C 701.927 266.589 697.774 272.717 693.874 278.207 C 681.334 270.364 675.501 268.067 661.404 263.075 C 670.717 222.576 682.888 200.966 702.027 165.648 z" fill="rgb(213,106,91)" transform="translate(0,0)"></path>
<path d="M 599.147 165.064 C 603.76 164.943 602.357 177.06 602.881 182.002 C 605.704 208.67 609.173 236.871 620.622 261.41 C 619.931 261.558 619.241 261.711 618.552 261.867 C 600.608 266.12 586.755 266.573 569.239 260.417 L 568.277 259.919 C 535.157 243.033 533.088 205.505 561.481 182.893 C 573.716 173.149 584.35 169.528 599.147 165.064 z" fill="rgb(213,106,91)" transform="translate(0,0)"></path>
<path d="M 1529.24 1533.39 C 1543.4 1545.56 1552.39 1560.7 1553.94 1579.59 C 1555.24 1596.94 1549.56 1614.09 1538.18 1627.24 C 1528.71 1638.22 1517.31 1644.93 1503.34 1648.44 C 1503.97 1647.63 1520.77 1637.68 1525.4 1634.12 C 1525.14 1631.88 1524.82 1629.64 1524.44 1627.41 C 1521.56 1611.5 1505.64 1590.38 1490.45 1587.56 C 1467.85 1583.35 1433.39 1584.97 1410.35 1584.91 L 1223.02 1585.05 C 1191.47 1585.12 1159.43 1585.3 1127.86 1584.92 C 1126.05 1584.89 1121.11 1584.23 1120 1582.48 C 1107.97 1563.48 1142.57 1565.7 1147.09 1565.32 C 1162.34 1564.02 1173.8 1563.37 1187.14 1562.37 L 1354.23 1549.78 C 1377.15 1547.84 1515.29 1533.45 1527.98 1536.51 L 1529.24 1533.39 z" fill="rgb(137,100,86)" transform="translate(0,0)"></path>
<path d="M 1529.24 1533.39 C 1543.4 1545.56 1552.39 1560.7 1553.94 1579.59 C 1555.24 1596.94 1549.56 1614.09 1538.18 1627.24 C 1528.71 1638.22 1517.31 1644.93 1503.34 1648.44 C 1503.97 1647.63 1520.77 1637.68 1525.4 1634.12 C 1527.24 1632.61 1529.42 1630.81 1531.15 1629.15 C 1543.29 1617.51 1550.11 1601.39 1550.02 1584.57 C 1550.01 1565.04 1541.34 1550.03 1527.98 1536.51 L 1529.24 1533.39 z" fill="rgb(7,6,6)" transform="translate(0,0)"></path>
<path d="M 1290.89 1481.45 C 1283.89 1494.07 1278.11 1503.37 1267.74 1513.71 C 1249.74 1531.68 1218.33 1538.56 1200.11 1517.04 C 1193.09 1508.75 1188.92 1501.47 1190.27 1490.11 C 1190.72 1486.32 1191.01 1485.07 1193.89 1482.66 L 1196.39 1483.15 C 1208.47 1492.26 1205.41 1509.68 1220.3 1515.35 C 1225.51 1517.33 1234.22 1516.55 1239.46 1514.85 C 1266.45 1506.1 1276.88 1476.02 1289.07 1453.33 C 1301.62 1429.48 1334.2 1427.64 1355.35 1436.78 C 1394.65 1453.74 1420.4 1512.17 1431.28 1432.49 C 1432.9 1420.67 1443.63 1412.8 1455.81 1416.54 C 1478.02 1423.37 1488.86 1443.89 1499.56 1462.71 L 1496.68 1480.95 C 1494.11 1479.97 1484.04 1463.36 1481.77 1459.83 C 1480 1482.56 1467.84 1499.79 1443.91 1500.42 C 1414.59 1501.19 1385.37 1477.16 1364.71 1458.8 C 1369.5 1472.54 1370.34 1489.53 1363.02 1502.55 C 1358.74 1510.2 1351.47 1515.72 1342.96 1517.79 C 1316.81 1524.39 1296.98 1505.65 1290.89 1481.45 z" fill="rgb(213,106,91)" transform="translate(0,0)"></path>
<path d="M 1324.91 1446.22 C 1342.68 1444.75 1351.57 1450.8 1353.43 1469.27 C 1355.21 1486.95 1353.05 1500.67 1333.92 1505.45 C 1310.98 1502.55 1296.3 1478.54 1306.98 1456.48 C 1310.12 1449.98 1318 1447.63 1324.91 1446.22 z" fill="rgb(62,44,42)" transform="translate(0,0)"></path>
<path d="M 1445.74 1429.26 C 1469.16 1431.87 1471.96 1460.55 1462.37 1476.34 C 1459.32 1481.41 1454.31 1484.98 1448.52 1486.21 C 1447.49 1486.43 1446.51 1486.64 1445.47 1486.88 C 1435.48 1487.06 1433.9 1486.27 1424.16 1484.17 C 1435.04 1473.75 1440.81 1466.61 1442.95 1451 C 1443.84 1444.42 1443.64 1435.18 1445.74 1429.26 z" fill="rgb(62,44,42)" transform="translate(0,0)"></path>
<path d="M 1559.77 668.247 C 1528.46 581.676 1476.98 508.959 1404.55 452.856 C 1392.23 443.313 1380.59 433.497 1367.92 424.33 C 1359.29 418.085 1345.06 410.234 1337.95 403.069 L 1338.27 401.441 C 1453.93 442.661 1542.92 506.29 1596.75 619.805 C 1602.9 632.775 1612.72 655.094 1616.15 668.702 C 1607.78 667.369 1570.53 668.178 1559.77 668.247 z" fill="rgb(137,100,86)" transform="translate(0,0)"></path>
<path d="M 548.154 1462.89 C 561.351 1446.85 585.087 1403.62 611.676 1419.93 C 623.245 1427.03 625.782 1481.7 640.41 1474.59 C 669.259 1460.57 685.108 1429.34 725.11 1431.91 C 775.833 1435.16 764.384 1500.13 809.36 1513.64 C 845.971 1524.38 842.643 1488.63 852.321 1482.89 C 861.185 1484.17 859.447 1500.56 856.995 1506.39 C 847.286 1529.43 821.653 1534.41 800.495 1525.45 C 780.708 1517.08 769.127 1501.15 759.281 1483.32 C 757.855 1488.46 756.872 1492.04 754.373 1496.99 C 741.399 1522.7 702.667 1527.27 688.84 1499.73 C 682.596 1487.3 683.121 1472.74 686.122 1459.12 C 661.603 1479.08 609.699 1523.61 576.891 1486.74 C 569.201 1478.1 568.637 1466.47 569.098 1455.31 C 564.822 1463.31 559.144 1475.87 552.345 1481.13 L 548.154 1462.89 z" fill="rgb(213,106,91)" transform="translate(0,0)"></path>
<path d="M 723.431 1446.37 C 749.611 1447.14 751.536 1469.38 743.088 1489 C 739.237 1497.95 732.333 1501.44 723.764 1504.08 C 710.278 1503.55 701.468 1500.54 698.988 1485.01 C 697.263 1474.2 697.877 1461.29 705.202 1452.6 C 710.045 1446.85 716.364 1447.04 723.431 1446.37 z" fill="rgb(62,44,42)" transform="translate(0,0)"></path>
<path d="M 597.241 1430.94 C 600.115 1430.85 605.148 1430.13 605.541 1433.42 C 608.241 1456.03 609.092 1466.38 626.194 1483.94 C 620.695 1485.24 617.689 1485.83 612.236 1486.76 C 590.975 1487.72 582.208 1473.11 584.132 1453.5 C 585.2 1442.62 588.97 1437.28 597.241 1430.94 z" fill="rgb(62,44,42)" transform="translate(0,0)"></path>
<path d="M 1577.94 812.406 C 1588.81 810.095 1597.52 811.143 1607.97 810.332 C 1651.4 806.96 1684.5 854.396 1657.63 892.607 C 1651.57 901.235 1642.98 907.772 1633.05 911.321 C 1641.29 884.868 1636.77 859.893 1604.1 854.721 C 1594.18 853.149 1582.23 853.887 1572.03 853.916 L 1520.92 854.082 L 1350.56 854.046 L 1347.82 851.355 C 1396.24 843.925 1444.55 835.773 1492.73 826.903 C 1521.41 821.892 1549.19 817.89 1577.94 812.406 z" fill="rgb(137,100,86)" transform="translate(0,0)"></path>
<path d="M 1527.57 674.027 C 1540.99 673.011 1556.61 671.916 1570.08 672.371 C 1595.62 673.234 1626.76 666.718 1647.8 684.521 C 1668.2 701.778 1671.25 733.108 1654.14 753.584 C 1649.62 758.949 1644.1 763.388 1637.89 766.656 C 1637.17 764.444 1638.94 756.806 1639.66 753.888 C 1644.17 735.69 1623.3 714.516 1606.55 711.741 C 1574.92 706.503 1539.98 705.778 1507.85 703.75 C 1477.24 701.563 1446.67 698.963 1416.13 695.95 C 1393.71 693.882 1369.5 692.137 1347.28 689.131 C 1348.11 689.009 1348.1 689.073 1348.74 688.618 C 1376.96 688.067 1415.74 683.759 1444.53 682.179 C 1461.91 681.225 1513.14 677.241 1527.57 674.027 z" fill="rgb(137,100,86)" transform="translate(0,0)"></path>
<path d="M 405.8 911.342 C 410.071 910.069 426.927 914.051 433.988 914.231 C 451.811 914.685 557.959 911.886 564.727 915.557 C 565.061 915.738 565.352 915.988 565.665 916.203 C 563.591 918.711 552.358 918.235 548.904 918.209 C 509.19 917.911 469.127 919.044 429.454 918.126 C 433.689 942.987 439.754 968.028 444.909 992.83 C 469.06 1109.04 497.102 1224.43 522.683 1340.33 C 524.955 1350.63 527.363 1360.58 529.323 1370.95 C 533.082 1391.22 537.036 1411.45 541.184 1431.65 C 542.769 1439.41 545.797 1455.84 548.154 1462.89 L 552.345 1481.13 C 553.387 1493.95 556.323 1507.9 558.66 1520.64 C 547.616 1520.89 530.501 1528.32 528.257 1527.74 L 527.91 1526.54 C 534.406 1522.09 546.101 1518.76 553.925 1516.27 C 545.616 1467.51 535.143 1418.09 525.422 1369.53 C 518.526 1335.08 508.439 1299.48 502.203 1264.97 C 496.853 1269.62 492.521 1274.09 487.555 1279.16 C 477.316 1259.54 469.605 1238.02 461.443 1217.5 C 459.042 1211.46 449.773 1182.69 445.346 1180.53 C 443.175 1181.34 441.577 1181.48 439.272 1181.67 C 450.125 1170.83 463.287 1158.88 475.878 1150.38 L 425.434 918.14 C 417.127 916.449 413.219 915.088 405.8 911.342 z" fill="rgb(7,6,6)" transform="translate(0,0)"></path>
<path d="M 587.684 461.107 C 619.052 436.382 674.655 413.637 712.512 401.612 C 709.492 408.626 679.439 426.245 672.021 431.987 C 635.348 460.375 596.923 492.086 564.379 525.038 C 568.782 512.655 586.12 470.464 587.684 461.107 z" fill="rgb(137,100,86)" transform="translate(0,0)"></path>
<path d="M 461.683 588.786 L 463.093 589.288 C 459.519 600.311 455.441 605.865 450.986 615.771 C 443.716 631.935 435.649 651.542 431.271 668.71 C 475.486 669.146 520.917 667.32 564.902 669.233 C 560.933 674.019 541.672 672.148 534.997 672.268 C 510.733 672.784 486.461 672.847 462.195 672.459 C 424.902 672.134 385.367 671.354 382.396 724.07 C 381.931 732.314 389.04 745.898 387.679 751.87 C 383.544 745.878 380.683 739.101 379.276 731.958 C 376.659 718.119 379.788 703.811 387.943 692.328 C 398.01 678.068 410.826 671.748 427.443 668.62 C 435.26 640.607 446.775 613.759 461.683 588.786 z" fill="rgb(7,6,6)" transform="translate(0,0)"></path>
<path d="M 504.682 1548.82 L 505.034 1550.39 C 506.026 1554.59 501.681 1561.43 500.41 1566.6 C 496.673 1581.81 498.078 1605.56 507.42 1618.59 C 507.292 1620.06 506.986 1621.5 506.791 1622.96 C 490.961 1600.96 489.969 1571.63 504.682 1548.82 z" fill="rgb(7,6,6)" transform="translate(0,0)"></path>
<path d="M 473.875 775.128 C 479.398 771.658 481.701 772.699 489.007 771.835 C 488.718 773.162 488.477 774.372 488.225 775.701 C 483.392 775.424 478.711 775.403 473.875 775.128 z" fill="rgb(36,31,31)" transform="translate(0,0)"></path>
<path d="M 1350.56 854.046 C 1348.28 854.104 1331.86 854.522 1330.77 854.096 L 1330.61 853.651 C 1331.11 853.369 1346.8 851.456 1347.82 851.355 L 1350.56 854.046 z" fill="rgb(96,72,65)" transform="translate(0,0)"></path>
<path d="M 1347.28 689.131 C 1347.09 689.084 1346.07 688.763 1345.88 688.656 L 1345.91 688.606 C 1346.84 688.397 1347.78 688.552 1348.74 688.618 C 1348.1 689.073 1348.11 689.009 1347.28 689.131 z" fill="rgb(96,72,65)" transform="translate(0,0)"></path>
<path d="M 1230.68 1043.15 C 1238.89 1043.31 1246.08 1046.83 1251.78 1052.5 C 1292.74 1093.26 1257.37 1170.84 1227.85 1203.7 C 1131.25 1311.25 939.58 1315.77 835.011 1218.51 C 810.543 1194.74 794.923 1171.84 784.614 1138.61 C 777.738 1114.46 776.277 1085.81 789.108 1063.31 C 802.266 1040.24 815.2 1040.31 836.498 1051.16 C 873.815 1070.17 913.3 1085.27 954.695 1092.23 C 1034.51 1105.65 1119.27 1095.08 1192.36 1059.85 C 1205.08 1053.73 1216.92 1047.1 1230.68 1043.15 z" fill="rgb(7,6,6)" transform="translate(0,0)"></path>
<path d="M 978.453 1155.41 C 979.132 1155.31 982.581 1154.93 983.239 1155.53 C 995.679 1166.8 1008.09 1175.74 1025.82 1175.57 C 1044.5 1175.38 1055.2 1167.42 1067.55 1154.82 C 1078.7 1156.89 1090.19 1157.76 1101.82 1160.19 C 1146.98 1169.62 1177.64 1184.82 1214.68 1210.53 C 1175.93 1248.04 1137.57 1265.03 1085.75 1276.29 C 1067.83 1279.54 1050.29 1282.04 1032.06 1282.45 C 955.595 1284.17 889.189 1262.39 832.835 1210.29 C 876.001 1176.4 924.576 1161.06 978.453 1155.41 z" fill="rgb(213,106,91)" transform="translate(0,0)"></path>
<path d="M 974.006 1100.2 C 1010.15 1103.83 1040.87 1104.96 1077.2 1099.66 C 1077.15 1103.65 1077.32 1112.42 1076.59 1115.8 C 1072.15 1149.83 1053.42 1174.65 1015.99 1169.21 C 988.275 1165.18 976.304 1138.05 974.758 1112.82 L 974.006 1100.2 z" fill="rgb(223,214,203)" transform="translate(0,0)"></path>
<path d="M 974.006 1100.2 C 1010.15 1103.83 1040.87 1104.96 1077.2 1099.66 C 1077.15 1103.65 1077.32 1112.42 1076.59 1115.8 C 1075.38 1112.75 1075.08 1112.52 1071.01 1113.18 C 1038.42 1118.53 1007.09 1113.63 974.758 1112.82 L 974.006 1100.2 z" fill="rgb(197,186,174)" transform="translate(0,0)"></path>
<path d="M 1082.8 1098.39 C 1112.44 1094.03 1135.98 1087.25 1164.01 1077.19 L 1167.43 1075.98 C 1167.86 1077.93 1168.47 1080.11 1168.81 1082.01 L 1169.81 1087.51 C 1170.23 1089.79 1170.68 1092.11 1171.05 1094.39 C 1171.92 1111.39 1171.21 1124.91 1158.84 1137.89 C 1133.22 1164.78 1099.99 1156 1079.41 1130.09 C 1080.65 1124.15 1081.59 1118.16 1082.23 1112.13 C 1082.68 1107.07 1082.73 1103.46 1082.8 1098.39 z" fill="rgb(223,214,203)" transform="translate(0,0)"></path>
<path d="M 1082.8 1098.39 C 1112.44 1094.03 1135.98 1087.25 1164.01 1077.19 L 1167.43 1075.98 C 1167.86 1077.93 1168.47 1080.11 1168.81 1082.01 L 1169.81 1087.51 C 1170.23 1089.79 1170.68 1092.11 1171.05 1094.39 L 1170.2 1094.57 C 1161.8 1096.45 1152.03 1099.55 1143.48 1101.79 L 1141.57 1102.28 C 1141.04 1102.43 1140.51 1102.58 1139.98 1102.72 L 1135.98 1103.75 L 1131.98 1104.78 C 1130.71 1105.1 1129.27 1105.43 1127.98 1105.74 C 1122.38 1107.13 1116.71 1108.28 1111.01 1109.21 C 1101.26 1110.71 1091.97 1111.06 1082.23 1112.13 C 1082.68 1107.07 1082.73 1103.46 1082.8 1098.39 z" fill="rgb(197,186,174)" transform="translate(0,0)"></path>
<path d="M 883.548 1077.99 C 903.639 1085.67 934.16 1093.6 955.493 1097.21 L 960.993 1098.16 C 963.882 1098.65 965.842 1099.01 968.821 1099.37 C 969.022 1104.47 969.318 1108.24 969.781 1113.3 C 970.397 1119.09 971.424 1124.8 972.504 1130.51 C 960.448 1146.26 947.957 1155.25 927 1154.24 C 914.071 1153.71 901.938 1147.86 893.481 1138.06 C 882.638 1125.63 880.693 1108 881.748 1092.25 C 882.182 1087.65 882.966 1082.67 883.548 1077.99 z" fill="rgb(223,214,203)" transform="translate(0,0)"></path>
<path d="M 883.548 1077.99 C 903.639 1085.67 934.16 1093.6 955.493 1097.21 L 960.993 1098.16 C 963.882 1098.65 965.842 1099.01 968.821 1099.37 C 969.022 1104.47 969.318 1108.24 969.781 1113.3 C 945.166 1111.22 920.732 1105.22 897.392 1097.34 C 892.508 1095.69 887.699 1093.72 882.697 1092.48 L 881.748 1092.25 C 882.182 1087.65 882.966 1082.67 883.548 1077.99 z" fill="rgb(197,186,174)" transform="translate(0,0)"></path>
<path d="M 801.934 1055.03 C 806.734 1049.73 809.173 1049.51 815.984 1047.86 C 826.489 1051.26 839.67 1058.31 849.997 1063.07 C 859.677 1067.54 870.942 1071.97 880.256 1076.61 C 879.307 1080.92 878.468 1085.43 877.482 1089.68 C 876.601 1096.83 876.553 1103.18 876.768 1110.35 C 836.543 1138.73 782.831 1107.29 801.934 1055.03 z" fill="rgb(223,214,203)" transform="translate(0,0)"></path>
<path d="M 801.934 1055.03 C 806.734 1049.73 809.173 1049.51 815.984 1047.86 C 826.489 1051.26 839.67 1058.31 849.997 1063.07 C 859.677 1067.54 870.942 1071.97 880.256 1076.61 C 879.307 1080.92 878.468 1085.43 877.482 1089.68 C 860.626 1085.68 823.45 1062.83 801.934 1055.03 z" fill="rgb(197,186,174)" transform="translate(0,0)"></path>
<path d="M 1170.74 1074.7 C 1186.3 1067.92 1201.92 1061.01 1217.16 1053.52 C 1230.63 1046.9 1236.55 1045.15 1247.39 1057.2 C 1252.95 1067.53 1253.65 1078.29 1250.09 1089.51 C 1246.39 1100.87 1238.24 1110.25 1227.49 1115.5 C 1210.05 1123.83 1190.9 1119.22 1175.93 1108.2 C 1175.78 1101.38 1175.49 1097.12 1174.57 1090.25 C 1174.41 1089.46 1174.26 1088.68 1174.12 1087.89 C 1173.35 1083.37 1172.22 1079.03 1170.74 1074.7 z" fill="rgb(223,214,203)" transform="translate(0,0)"></path>
<path d="M 1170.74 1074.7 C 1186.3 1067.92 1201.92 1061.01 1217.16 1053.52 C 1230.63 1046.9 1236.55 1045.15 1247.39 1057.2 C 1221.8 1073.5 1202.41 1080.07 1174.57 1090.25 C 1174.41 1089.46 1174.26 1088.68 1174.12 1087.89 C 1173.35 1083.37 1172.22 1079.03 1170.74 1074.7 z" fill="rgb(197,186,174)" transform="translate(0,0)"></path>
<path d="M 1074.48 1307.27 C 1077.61 1307.02 1082.32 1307.11 1085.5 1307.37 C 1102.32 1308.81 1117.83 1317.05 1128.43 1330.18 C 1140.68 1345.27 1143.8 1361.64 1141.95 1380.49 C 1148.72 1375.69 1153.21 1372.74 1161.45 1370.36 C 1175.18 1366.44 1189.91 1368.2 1202.34 1375.23 C 1212.62 1381.1 1219.6 1390.27 1222.3 1401.82 C 1225.04 1413.21 1223.11 1425.23 1216.93 1435.19 C 1209.77 1446.43 1198.47 1454.41 1185.48 1457.38 C 1168.96 1461.13 1155.83 1457.19 1141.96 1448.7 C 1142.42 1454.48 1142.69 1460.24 1141.89 1466 C 1139.52 1482.47 1130.54 1497.27 1117.01 1506.97 C 1081.2 1532.98 1044.27 1514.63 1021.25 1482.19 C 1007.66 1503.11 994.457 1513.81 969.992 1519.05 C 966.538 1519.19 962.892 1519.35 959.446 1519.22 C 943.081 1518.63 927.644 1511.47 916.619 1499.36 C 902.455 1483.86 900.332 1469.48 901.119 1449.5 C 883.731 1458.6 862.644 1462.39 844.421 1453.13 C 833.145 1447.29 824.775 1437.07 821.287 1424.86 C 818.011 1413.8 819.373 1401.89 825.061 1391.86 C 840.804 1363.49 874.2 1367.04 898.633 1380.17 C 896.539 1353.68 905.23 1328.75 929.527 1315.28 C 944.047 1307.33 961.14 1305.5 977.014 1310.2 C 998.463 1316.6 1009.68 1330.52 1019.78 1349.26 C 1032.16 1325.37 1047.54 1312.1 1074.48 1307.27 z" fill="rgb(223,214,203)" transform="translate(0,0)"></path>
<path d="M 1422.72 1029.1 C 1470.74 1027.57 1464.45 1083.51 1453.49 1114.11 C 1473.06 1096.63 1507.09 1066.91 1535.39 1083.42 C 1542.74 1087.74 1547.99 1094.87 1549.93 1103.16 C 1558.25 1137.65 1518.4 1155.88 1491.41 1161.78 C 1514.06 1171.72 1543.64 1189.4 1540.5 1218.4 C 1539.71 1226.18 1535.81 1233.31 1529.67 1238.15 C 1521.81 1244.44 1510.23 1247.05 1500.44 1245.29 C 1475.6 1240.83 1459.87 1221.53 1446 1202.66 C 1451.45 1231.09 1458.9 1272.84 1426.98 1288.41 C 1409.33 1293.35 1392.73 1287.82 1383.94 1271.25 C 1372.91 1250.47 1379.02 1228.69 1385.16 1207.66 C 1371.74 1219.48 1365.14 1226.27 1347.52 1233.53 C 1314.58 1247.09 1281.61 1224.46 1299.65 1188.79 C 1308.67 1170.93 1334.52 1159.19 1353.93 1153.55 C 1330.27 1145.25 1302.27 1127.02 1301.98 1098.32 C 1301.8 1080.06 1316.96 1067.45 1335.02 1068.35 C 1362.51 1069.73 1377.62 1089.79 1394.62 1108.46 C 1389.17 1081.06 1389.77 1038.3 1422.72 1029.1 z" fill="rgb(213,106,91)" transform="translate(0,0)"></path>
<path d="M 597.347 1118.92 C 591.544 1102.72 587.957 1088.26 587.981 1070.75 C 587.055 1051.17 600.536 1026.01 623.526 1029.52 C 660.665 1035.18 660.038 1076.76 656.58 1103.31 L 660.57 1102.24 C 669.172 1090.31 678.337 1081.07 691.391 1073.73 C 705.13 1064.18 734.77 1066.69 741.343 1084.42 C 754.707 1120.46 717.383 1143.51 692.155 1154.97 C 716.146 1162.18 751.319 1178.28 752.761 1207.57 C 753.69 1226.46 737.17 1239.27 719.147 1239.02 C 694.985 1238.68 676.438 1222.15 659.881 1206.5 C 666.419 1229.66 673.801 1268.8 650.443 1285.2 C 643.334 1290.26 634.454 1292.18 625.889 1290.5 C 587.268 1282.74 594.806 1224.94 601.093 1197.51 C 589.622 1216.21 581.088 1229.27 561.175 1240.79 C 531.451 1257.99 493.698 1236.97 507.776 1201.38 C 515.899 1180.84 540.164 1170.26 559.629 1162.04 C 543.003 1158.2 525.836 1152.02 512.445 1140.74 C 497.744 1129.8 491.844 1103.16 506.137 1089.21 C 535.333 1060.71 577.916 1100.86 597.347 1118.92 z" fill="rgb(223,214,203)" transform="translate(0,0)"></path>
<path d="M 656.58 1103.31 L 660.57 1102.24 C 658.952 1104.47 654.063 1112.35 656.58 1103.31 z" fill="rgb(96,72,65)" transform="translate(0,0)"></path>
<path d="M 1273.71 935.34 C 1300.25 931.13 1344.59 944.791 1349.49 974.817 C 1354.83 1007.53 1319.59 1021.73 1294.23 1025.9 C 1265.76 1028.66 1223.49 1019.11 1218.7 985.302 C 1217.43 975.888 1219.97 966.356 1225.77 958.83 C 1236.89 944.117 1256.19 937.859 1273.71 935.34 z" fill="rgb(223,214,203)" transform="translate(0,0)"></path>
<path d="M 753.748 935.364 C 834.04 924.773 862.989 1014.18 774.05 1025.64 C 755.621 1028.45 733.882 1024.1 717.959 1013.8 C 689.261 995.252 691.954 960.933 721.567 945.01 C 732.404 939.183 741.34 937.043 753.748 935.364 z" fill="rgb(223,214,203)" transform="translate(0,0)"></path>
<path d="M 1356.4 432.399 C 1357.61 432.554 1359.68 433.09 1360.95 433.373 C 1361.61 434.063 1362.27 434.753 1362.92 435.443 C 1364.39 447.087 1360.49 459.746 1362.99 471.866 C 1368.77 500.233 1393.61 521.712 1418.29 534.309 C 1438.63 544.514 1459.05 549.887 1475.28 566.725 C 1489.43 581.417 1491.47 601.172 1479.18 618.002 C 1471.87 628.016 1460.04 632.144 1448.06 633.894 C 1387.24 633.277 1371.88 558.834 1431.18 552.286 C 1390.14 535.456 1352.93 508.202 1350.25 459.806 C 1349.7 449.87 1350.78 440.883 1356.4 432.399 z" fill="rgb(223,214,203)" transform="translate(0,0)"></path>
<path d="M 1433.15 561.152 C 1450.14 560.123 1469.12 568.588 1474.43 585.748 C 1476.68 593.024 1475.93 600.896 1472.36 607.62 C 1468.77 614.347 1462.38 619.869 1454.99 621.928 L 1450.65 623.096 C 1401.79 622.726 1384.88 571.986 1433.15 561.152 z" fill="rgb(62,44,42)" transform="translate(0,0)"></path>
<path d="M 604.527 557.352 C 634.125 552.633 678.759 562.334 681.458 598.958 C 682.332 609.817 678.756 620.566 671.551 628.738 C 663.677 637.55 652.508 642.711 640.694 642.995 C 597.672 644.364 580.686 597.943 611.514 568.561 L 612.54 567.599 L 600.307 569.179 C 568.964 575.906 538.437 592.6 525.134 624.201 C 522.406 630.682 523.011 642.578 518.428 649.329 C 515.81 650.482 515.796 650.177 512.908 649.577 C 511.27 648.132 509.551 646.539 509.68 644.019 C 512.244 594.144 559.815 563.459 604.527 557.352 z" fill="rgb(223,214,203)" transform="translate(0,0)"></path>
<path d="M 630.263 571.166 C 675.496 569.21 683.659 619.201 648.307 630.369 L 646.564 630.945 C 631.358 633.534 616.24 628.718 609.791 613.559 C 606.42 605.544 606.578 596.48 610.226 588.588 C 614.616 578.863 620.785 574.798 630.263 571.166 z" fill="rgb(62,44,42)" transform="translate(0,0)"></path>
<path d="M 818.49 1608.16 C 769.061 1605.63 719.648 1602.79 670.253 1599.67 C 644.047 1598 613.999 1596.52 588.72 1589.8 C 575.561 1586.3 556.592 1568.4 558.988 1553.69 C 560.983 1541.44 575.248 1542.37 584.4 1544.08 C 612.431 1549.32 639.837 1557.84 667.322 1565.37 C 697.888 1573.62 728.517 1581.64 759.207 1589.42 C 781.972 1595.3 804.786 1601.63 827.779 1606.49 C 824.426 1608.23 822.512 1607.78 818.49 1608.16 z" fill="rgb(137,100,86)" transform="translate(0,0)"></path>
<path d="M 1057.91 373.687 C 1061.83 375.528 1063.27 375.549 1064.57 380.478 C 1067.93 393.154 1069.87 400.251 1075.43 411.32 C 1085.55 431.489 1116.18 429.561 1124.72 441.224 C 1124.72 441.898 1124.72 442.572 1124.72 443.246 C 1112.91 448.853 1097.65 451 1087.15 458.289 C 1066.54 472.603 1068.72 499.606 1062.53 507.694 L 1057.27 507.158 C 1051.51 503.051 1051.07 486.343 1046.19 476.713 C 1036.09 456.799 1023.9 454.745 1004.24 447.725 C 999.871 446.164 995.711 444.378 993.771 440.088 C 998.345 431.954 1021.53 433.151 1035.4 419.824 C 1056.5 399.542 1047.08 383.387 1057.91 373.687 z" fill="rgb(223,214,203)" transform="translate(0,0)"></path>
<path d="M 1059.02 399.579 C 1072.95 426.494 1074.42 428.469 1102.61 441.085 C 1078.19 449.904 1068.4 459.176 1060.23 484.025 C 1045.17 453.247 1043.87 453.373 1014.3 441.099 C 1037.2 432.664 1051.4 424.288 1059.02 399.579 z" fill="rgb(62,44,42)" transform="translate(0,0)"></path>
<path d="M 1516.24 926.511 C 1517.68 926.737 1519.27 926.988 1521.01 927.263 C 1530.1 938.464 1524.7 947.83 1535.43 961.941 C 1550.21 981.368 1572.2 979.586 1579.75 986.836 C 1579.61 993.633 1552.92 998.804 1544.53 1005.28 C 1525.34 1020.06 1531.2 1034.6 1523.09 1050.23 C 1522.28 1050.22 1518.82 1050.12 1518.3 1049.97 C 1512.37 1048.31 1510.48 1030.55 1507.89 1024.36 C 1504.71 1016.75 1504.42 1016.21 1500.02 1009.8 C 1491.32 997.14 1464.61 997.597 1459.03 987.525 C 1459.05 986.684 1459.07 985.842 1459.09 985.001 C 1469.55 979.862 1482.46 978.522 1492.37 972.24 C 1511.16 960.336 1510.05 935.871 1516.24 926.511 z" fill="rgb(223,214,203)" transform="translate(0,0)"></path>
<path d="M 1518.63 948.165 C 1520.18 950.832 1521.36 954.8 1522.81 957.867 C 1531 975.198 1542.36 982.08 1559.47 988.317 C 1536.78 995.467 1528.49 1006.1 1519.19 1027.19 C 1516.94 1024.82 1513.42 1014.64 1510.72 1010.61 C 1501.51 996.89 1493.56 992.417 1478.17 988.098 C 1500.94 979.887 1510.48 971.125 1518.63 948.165 z" fill="rgb(62,44,42)" transform="translate(0,0)"></path>
<path d="M 720.115 851.911 C 702.601 851.726 683.398 852.825 665.616 853.067 L 543.477 854.015 C 521.344 854.098 499.431 854.155 477.485 853.378 C 452.003 852.476 425.767 820.406 460.198 820.277 C 472.802 820.23 499.669 825.322 513.737 826.941 C 554.316 831.343 594.872 835.966 635.401 840.812 C 660.095 843.869 690.129 849.065 714.385 850.148 C 716.285 850.767 718.196 851.354 720.115 851.911 z" fill="url(#Gradient2)" transform="translate(0,0)"></path>
<path d="M 759.726 1260.74 C 762.316 1260.99 766.159 1261.51 767.245 1264.34 C 772.439 1277.9 774.133 1287.93 783.047 1299.58 C 790.951 1309.91 815.428 1310.88 819.991 1319.41 C 818.799 1325.21 797.523 1328.14 788.542 1334.77 C 769.629 1348.75 773.387 1366.5 765.604 1378.94 C 753.807 1377.53 756.768 1353.07 747.376 1342.71 C 734.365 1328.36 722.665 1330.33 707.589 1321.15 C 706.328 1320.39 706.8 1319.11 706.859 1317.8 C 712.69 1311.39 726.192 1312.35 735.152 1306.94 C 751.704 1296.95 754.975 1278.05 759.726 1260.74 z" fill="rgb(223,214,203)" transform="translate(0,0)"></path>
<path d="M 762.431 1282.75 C 764.294 1284.93 764.187 1285.96 765.464 1288.57 C 773.848 1305.72 784.016 1313.84 801.35 1320.46 C 781.243 1327.56 769.742 1334.75 764.048 1357.03 C 753.708 1335.33 748.817 1326.53 723.795 1320.15 C 747.423 1311.69 753.346 1306.09 762.431 1282.75 z" fill="rgb(62,44,42)" transform="translate(0,0)"></path>
<path d="M 938.873 490.558 C 946.656 492.811 952.721 520.426 959.508 531.296 C 966.859 534.454 994.543 540.627 996.54 547.113 C 993.684 551.73 966.469 561.401 958.996 564.85 C 950.854 577.899 948.012 593.356 941.222 604.571 L 938.715 603.781 C 934.541 599.863 927.707 579.039 925.86 572.51 C 921.452 556.932 886.506 555.939 882.315 545.682 C 888.67 539.704 911.008 536.267 921.582 530.041 C 930.114 517.497 932.213 499.84 938.873 490.558 z" fill="rgb(213,106,91)" transform="translate(0,0)"></path>
<path d="M 1280.33 1276.37 C 1288.39 1280.01 1291.16 1305.4 1299.33 1311.55 C 1310.75 1320.16 1324.71 1320.56 1337.31 1327.73 C 1323.85 1335.57 1312.61 1336.42 1299.71 1343.14 C 1292.51 1354.98 1289.3 1372.33 1281.96 1380.6 C 1274.24 1376.17 1269.85 1355.89 1263.34 1344.09 C 1256.7 1340.73 1230.24 1332.81 1228.3 1327.61 C 1231.56 1323.08 1255 1315.98 1262.42 1312.57 L 1263.7 1311.97 C 1269.28 1302.06 1274.44 1283.6 1280.33 1276.37 z" fill="rgb(213,106,91)" transform="translate(0,0)"></path>
<path d="M 1300.77 554.573 C 1319.2 550.245 1337.66 561.678 1342 580.114 C 1346.33 598.55 1334.91 617.012 1316.47 621.357 C 1298.03 625.704 1279.55 614.27 1275.21 595.823 C 1270.87 577.375 1282.32 558.904 1300.77 554.573 z" fill="rgb(213,106,91)" transform="translate(0,0)"></path>
<path d="M 449.935 686.019 C 463.529 685.498 508.759 692.66 524.698 694.868 L 596.969 705.516 C 609.786 707.384 622.912 708.393 635.556 710.853 C 631.311 711.45 627.122 711.747 622.853 712.104 C 604.104 714.473 576.166 714.064 556.433 715.198 C 529.766 716.283 503.194 717.859 476.506 717.505 C 463.607 717.334 441.367 707.671 443.217 692.462 C 445.24 688.661 446.145 688.454 449.935 686.019 z" fill="rgb(137,100,86)" transform="translate(0,0)"></path>
<path d="M 1474.5 1303.46 C 1485.29 1300.74 1496.71 1304.05 1504.37 1312.12 C 1512.03 1320.18 1514.75 1331.76 1511.48 1342.39 C 1508.21 1353.03 1499.46 1361.07 1488.59 1363.45 C 1472.15 1367.03 1455.87 1356.77 1452.03 1340.39 C 1448.18 1324.01 1458.18 1307.57 1474.5 1303.46 z" fill="rgb(213,106,91)" transform="translate(0,0)"></path>
<path d="M 562.42 1304.44 C 578.188 1301.42 593.469 1311.59 596.779 1327.3 C 600.09 1343 590.212 1358.47 574.567 1362.07 C 564.184 1364.47 553.32 1361.06 546.155 1353.18 C 538.99 1345.29 536.642 1334.15 540.015 1324.05 C 543.388 1313.94 551.955 1306.44 562.42 1304.44 z" fill="rgb(213,106,91)" transform="translate(0,0)"></path>
<path d="M 612.308 932.707 C 626.944 930.878 640.37 941.046 642.577 955.629 C 644.784 970.213 634.966 983.897 620.445 986.48 C 610.712 988.212 600.806 984.526 594.571 976.854 C 588.337 969.182 586.755 958.731 590.441 949.558 C 594.126 940.385 602.499 933.933 612.308 932.707 z" fill="rgb(213,106,91)" transform="translate(0,0)"></path>
<path d="M 713.103 557.199 C 719.885 559.017 725.028 572.519 730.724 578.322 C 754.021 602.055 793.141 614.263 825.41 604.407 C 832.989 602.092 843.52 595.184 847.541 595.345 C 852.617 598.921 851.645 601.944 848.617 606.526 C 837.645 613.127 827.516 616.859 814.656 618.407 C 786.633 621.782 751.395 610.972 729.323 593.638 C 721.499 587.493 709.315 575.8 708.947 565.532 C 708.78 560.881 710.366 560.143 713.103 557.199 z" fill="rgb(223,214,203)" transform="translate(0,0)"></path>
<path d="M 520.309 969.652 C 532.504 967.421 544.243 975.356 546.717 987.504 C 549.192 999.653 541.492 1011.55 529.395 1014.26 C 521.353 1016.07 512.963 1013.39 507.459 1007.25 C 501.955 1001.12 500.197 992.485 502.863 984.685 C 505.528 976.886 512.201 971.136 520.309 969.652 z" fill="rgb(223,214,203)" transform="translate(0,0)"></path>
<path d="M 1090.51 553.789 C 1102.93 553.013 1113.63 562.426 1114.45 574.841 C 1115.27 587.257 1105.9 597.997 1093.49 598.861 C 1081.01 599.729 1070.21 590.297 1069.38 577.819 C 1068.56 565.342 1078.03 554.57 1090.51 553.789 z" fill="rgb(223,214,203)" transform="translate(0,0)"></path>
<path d="M 688.419 441.405 C 704.138 450.831 698.394 488.496 689.992 502.484 C 676.368 525.161 662.04 533.829 637.282 541.524 C 634.222 540.833 631.038 539.481 631.727 535.48 C 632.786 529.997 642.879 528.019 647.483 525.929 C 673.496 514.118 692.08 487.696 685.522 458.423 C 683.123 447.712 679.252 448.989 688.419 441.405 z" fill="rgb(223,214,203)" transform="translate(0,0)"></path>
<path d="M 1385.49 1347.95 C 1396.06 1346.37 1405.92 1353.62 1407.55 1364.19 C 1409.19 1374.75 1401.98 1384.64 1391.42 1386.33 C 1380.8 1388.03 1370.81 1380.76 1369.17 1370.12 C 1367.53 1359.49 1374.84 1349.54 1385.49 1347.95 z" fill="rgb(223,214,203)" transform="translate(0,0)"></path>
<path d="M 650.207 1354.37 C 659.611 1351.73 669.401 1357.1 672.214 1366.46 C 675.026 1375.81 669.822 1385.7 660.517 1388.67 C 654.351 1390.65 647.6 1389.14 642.86 1384.73 C 638.12 1380.32 636.129 1373.69 637.652 1367.4 C 639.175 1361.11 643.975 1356.13 650.207 1354.37 z" fill="rgb(223,214,203)" transform="translate(0,0)"></path>
<path d="M 1419.11 922.567 C 1428.51 921.375 1437.16 927.882 1438.63 937.252 C 1440.09 946.622 1433.83 955.454 1424.51 957.184 C 1418.23 958.347 1411.82 956.009 1407.77 951.079 C 1403.72 946.149 1402.67 939.407 1405.03 933.478 C 1407.38 927.549 1412.78 923.37 1419.11 922.567 z" fill="rgb(223,214,203)" transform="translate(0,0)"></path>
<path d="M 1073.43 1570.59 C 1077.91 1570.25 1093.79 1568.54 1095.98 1571.5 C 1108.7 1588.74 1075.76 1585.01 1073.5 1585.01 C 1067.15 1585.01 1058.24 1585.86 1052.25 1583.63 C 1049.21 1582.85 1047.82 1575.54 1049.78 1573.86 C 1053.93 1570.3 1068.49 1571.09 1073.43 1570.59 z" fill="rgb(137,100,86)" transform="translate(0,0)"></path>
<path d="M 917.954 388.588 C 925.223 387.024 932.42 391.518 934.205 398.736 C 935.989 405.954 931.716 413.284 924.556 415.287 C 919.726 416.638 914.544 415.254 911.031 411.675 C 907.518 408.097 906.231 402.89 907.671 398.086 C 909.112 393.283 913.052 389.643 917.954 388.588 z" fill="rgb(223,214,203)" transform="translate(0,0)"></path>
<path d="M 1441.77 516.334 C 1445.12 514.683 1449.17 515.972 1450.95 519.255 C 1452.73 522.537 1451.6 526.64 1448.39 528.546 C 1446.2 529.846 1443.47 529.843 1441.28 528.539 C 1439.1 527.235 1437.8 524.839 1437.9 522.293 C 1438 519.748 1439.48 517.461 1441.77 516.334 z" fill="rgb(223,214,203)" transform="translate(0,0)"></path>
<path d="M 827.779 1606.49 C 829.783 1606.79 831.841 1606.97 833.754 1607.67 L 833.224 1607.56 L 834.676 1608.31 C 834.542 1609.99 820.346 1608.45 818.49 1608.16 C 822.512 1607.78 824.426 1608.23 827.779 1606.49 z" fill="rgb(96,72,65)" transform="translate(0,0)"></path>
<path d="M 714.385 850.148 C 716.091 850.115 723.159 849.669 724.285 851.347 L 724.259 851.476 C 722.929 852.093 721.581 851.929 720.115 851.911 C 718.196 851.354 716.285 850.767 714.385 850.148 z" fill="rgb(96,72,65)" transform="translate(0,0)"></path>
<path d="M 802.6 1650.35 C 800.079 1649.83 788.482 1649.53 788.053 1649.15 C 789.952 1648.52 791.048 1648.66 792.969 1648.85 C 795.421 1649.1 797.026 1648.82 799.402 1648.25 C 810.353 1645.61 938.111 1645.92 944.965 1648.92 C 945.293 1649.06 945.553 1649.33 945.847 1649.53 C 942.522 1649.66 936.762 1649.61 933.779 1650.55 C 932.355 1669.78 932.317 1694.91 931.43 1715.09 C 944.266 1718.43 961.845 1722.41 968.795 1735.01 C 971.477 1739.77 971.974 1745.45 970.158 1750.61 C 966.132 1762.39 953.627 1769.74 943.219 1775.07 L 941.269 1858.97 C 943.513 1859.91 945.843 1860.86 947.781 1862.35 C 952.005 1865.62 954.539 1870.03 955.087 1875.34 C 955.596 1880.28 954.232 1884.34 950.905 1888.04 C 934.38 1906.38 841.824 1914.31 815.885 1915.53 C 790.274 1916.73 683.884 1913.58 668.442 1895.93 C 666.279 1893.45 665.886 1890.72 665.867 1887.56 C 665.769 1871.14 671.728 1852.86 683.121 1840.99 C 712.68 1810.18 760.143 1804.29 800.527 1803.61 C 800.517 1793.76 800.35 1783.91 800.027 1774.06 C 791.532 1768.81 779.493 1760.16 776.44 1750.55 C 768.48 1725.5 797.38 1718.16 814.37 1713.32 C 810.229 1692.8 807.182 1670.35 802.6 1650.35 z" fill="rgb(7,6,6)" transform="translate(0,0)"></path>
<path d="M 804.693 1776.27 C 837.469 1787.12 906.084 1785.52 939.114 1776.88 C 938.962 1794.51 938.651 1812.14 938.182 1829.77 C 937.97 1839.28 938.596 1849.94 936.941 1859.32 C 936.546 1861.56 935.507 1863.46 933.932 1865.07 C 915.746 1883.64 812.241 1886.91 784.448 1887.19 C 764.061 1887.24 684.552 1886.65 673.368 1871.01 C 672.527 1867.99 672.47 1865.1 673.847 1862.21 C 693.567 1820.83 748.102 1808.44 789.815 1808.17 C 800.396 1808.1 810.433 1808.72 820.346 1812.29 C 822.64 1813.12 823.581 1813.52 826.063 1813.93 L 827.574 1812.46 L 827.216 1810.84 C 821.982 1806.8 811.089 1805.5 804.396 1804.29 C 804.377 1794.95 804.476 1785.61 804.693 1776.27 z" fill="rgb(196,155,104)" transform="translate(0,0)"></path>
<path d="M 812.452 1718.02 L 814.273 1718.4 C 815.973 1721.99 816.202 1726.94 816.682 1730.99 C 843.084 1738.9 907.77 1748.46 930.815 1730.78 C 932.532 1728.13 931.963 1722.84 931.943 1719.4 C 942.524 1722.09 957.759 1725.54 963.882 1735.11 C 973.589 1750.29 957.293 1762.33 946.182 1769.16 C 921.507 1781.87 829.482 1784.09 803.372 1770.75 C 766.87 1752.11 772.638 1729.72 812.452 1718.02 z" fill="rgb(196,155,104)" transform="translate(0,0)"></path>
<path d="M 829.791 1678.5 C 862.9 1678.47 896.009 1678.74 929.113 1679.31 C 929.291 1695.64 928.269 1712.33 927.847 1728.74 C 920.574 1731.88 914.167 1733.28 906.466 1734.71 C 874.89 1739.44 850.508 1736.37 819.569 1728.75 C 817.64 1711.87 814.496 1695.44 811.695 1678.68 L 829.791 1678.5 z" fill="rgb(62,44,42)" transform="translate(0,0)"></path>
<path d="M 941.245 1864.09 C 948.318 1866.96 952.577 1872.75 950.317 1879.77 C 945.261 1895.48 904.052 1901.01 890.51 1903.3 C 822.85 1914.74 744.413 1916.91 678.393 1897.38 C 666.112 1893.36 668.54 1887.02 671.607 1877.1 C 705.936 1892.3 777.6 1892.72 816.176 1890.52 C 848.383 1888.69 902.934 1885.1 932.594 1871.54 C 935.804 1870.07 938.883 1866.72 941.245 1864.09 z" fill="rgb(196,155,104)" transform="translate(0,0)"></path>
<path d="M 1113.55 1650.79 L 1106.09 1649.48 L 1106.62 1649.56 L 1106.83 1648.14 C 1129.84 1644.9 1159.55 1647.99 1183.11 1646.93 C 1202.47 1646.05 1223.32 1647.26 1242.77 1647.36 C 1245.79 1647.38 1247.15 1649.28 1250.56 1649.19 L 1245.51 1650.31 C 1241.67 1670.97 1238.41 1692.61 1234.97 1713.4 C 1251.53 1717.27 1277.97 1724.3 1272.21 1748.47 C 1269.54 1759.67 1257.87 1768.13 1248.12 1773.62 C 1248.63 1783.36 1248.6 1793.71 1248.74 1803.51 C 1292 1803.73 1347.39 1812.42 1373.49 1852.08 C 1377.82 1858.65 1385.27 1884.24 1382.47 1891.7 C 1377.38 1905.3 1345.64 1906.75 1332.99 1909.69 C 1261.21 1921.98 1185.65 1916.38 1115.54 1897.45 C 1108.19 1895.47 1097.68 1890.67 1094.18 1883.27 C 1089.67 1871.97 1096.97 1863.17 1106.98 1859.41 C 1106.83 1831.74 1107.02 1804.07 1107.53 1776.4 C 1106.87 1776.06 1106.22 1775.72 1105.57 1775.37 C 1091.05 1767.53 1082.43 1760.97 1077.64 1744.75 C 1082.22 1723.96 1096.95 1719.82 1115.82 1716.39 C 1115.32 1694.51 1114.56 1672.65 1113.55 1650.79 z" fill="rgb(7,6,6)" transform="translate(0,0)"></path>
<path d="M 1111.7 1777.22 C 1144.12 1785.55 1211.86 1786.72 1244.11 1776.3 C 1244.88 1784.89 1244.8 1794.83 1244.92 1803.55 C 1239.77 1804.72 1222.14 1807.55 1220.47 1812.66 C 1224.14 1815.74 1239.66 1808.61 1246.24 1808.28 C 1292.46 1805.99 1342.01 1816.18 1370.5 1854.59 C 1372.26 1857.41 1373.98 1860.86 1374.75 1864.11 C 1375.44 1866.99 1375.51 1870.61 1373.54 1873.04 C 1364.32 1884.39 1308.37 1886.4 1292.61 1886.86 C 1263.72 1887.71 1130.72 1884.94 1113.67 1864.97 C 1108.42 1858.81 1111.46 1790.2 1111.7 1777.22 z" fill="rgb(196,155,104)" transform="translate(0,0)"></path>
<path d="M 1234.4 1716.92 C 1245.9 1720.26 1262.82 1723.96 1267.85 1736.29 C 1273.86 1751.03 1253.44 1768.69 1240.85 1772.84 C 1212.67 1782.12 1180.02 1779.2 1150.68 1778.78 C 1135.81 1778.5 1118.27 1776.25 1104.7 1770.36 C 1093.89 1764.14 1075.81 1750.47 1084.9 1735.73 C 1090.85 1726.09 1105.11 1722.85 1115.55 1720.37 C 1114.84 1728.16 1117.35 1732.14 1125.26 1734.66 C 1156.13 1744.48 1201.98 1742.21 1231.88 1730.83 C 1233.08 1725.92 1233.66 1721.87 1234.4 1716.92 z" fill="rgb(196,155,104)" transform="translate(0,0)"></path>
<path d="M 1118.82 1678.98 L 1237.42 1678.74 C 1235.2 1691.17 1231.84 1716.99 1228.31 1727.88 C 1197.35 1738.07 1151.47 1741.34 1120.83 1728.25 C 1119.23 1715.93 1119.17 1691.69 1118.82 1678.98 z" fill="rgb(62,44,42)" transform="translate(0,0)"></path>
<path d="M 1106.67 1862.99 C 1129.9 1895.53 1341.1 1899.37 1375.09 1877.42 L 1376.46 1876.53 C 1384.47 1881.57 1377.97 1893.16 1370.85 1897.24 C 1357.66 1902.03 1344.38 1903.81 1330.3 1906.11 C 1259.77 1917.61 1184.89 1912.01 1116.08 1893.32 C 1098.4 1888.52 1089.89 1876.19 1106.67 1862.99 z" fill="rgb(196,155,104)" transform="translate(0,0)"></path>
<path d="M 439.272 1181.67 C 441.577 1181.48 443.175 1181.34 445.346 1180.53 C 449.773 1182.69 459.042 1211.46 461.443 1217.5 C 469.605 1238.02 477.316 1259.54 487.555 1279.16 C 458.312 1312.39 440.826 1347.47 431.461 1390.52 C 453.009 1408.15 470.72 1429.09 475.074 1457.66 C 480.327 1492.14 449.425 1500.61 424.847 1481.22 C 424.59 1490.95 426.379 1498.75 426.611 1508.02 C 427.522 1544.36 396.832 1561.62 370.206 1534.48 C 365.958 1541.68 361.466 1547.44 353.752 1551.2 C 346.863 1554.61 338.849 1554.93 331.71 1552.08 C 320.099 1547.42 315.809 1538.45 311.347 1527.96 C 305.882 1529.21 300.916 1529.28 295.497 1527.71 C 271.632 1520.67 273.153 1493.45 276.312 1473.84 C 282.573 1434.97 305.081 1399.7 340.859 1381.97 C 343.838 1363.14 347.161 1345.62 352.759 1327.39 C 367.865 1278.17 402.023 1217.51 439.272 1181.67 z" fill="url(#Gradient1)" transform="translate(0,0)"></path>
<path d="M 372.791 1378.41 C 420 1375.12 468.236 1417.7 471.734 1464.25 C 473.775 1491.41 441.46 1492.8 424.754 1474.93 C 424.733 1467.27 426.864 1459.6 426.476 1454.17 L 424.818 1453.14 L 423.102 1454.15 C 418.178 1465.29 421.149 1498.36 422.206 1510.77 C 422.956 1519.59 418.309 1531.96 412.109 1538.17 C 408.135 1542.19 402.991 1544 397.423 1543.8 C 367.875 1542.77 365.398 1511.17 367.325 1488.5 C 367.72 1483.86 371.189 1472.06 368.006 1468.92 C 364.636 1471.63 363.802 1484.85 363.066 1489.95 C 362.675 1507.08 362.614 1513.78 368.056 1529.86 C 362.724 1539.05 355.723 1549.21 343.896 1549.71 C 310.553 1551.12 313.088 1508.05 316.906 1485.78 C 318.173 1478.38 321.751 1472.05 321.621 1464.45 L 319.227 1463.65 L 321.505 1463.81 L 319.093 1463.87 C 309.67 1483.62 310.294 1503.29 311.106 1524.2 C 301.73 1524.35 296.369 1525.12 288.512 1518.77 C 282.632 1514.01 279.248 1505.14 278.958 1497.77 C 277.822 1468.88 289.256 1434.35 308.312 1412.66 C 327.262 1391.09 344.708 1380.74 372.791 1378.41 z" fill="rgb(223,214,203)" transform="translate(0,0)"></path>
<metadata><recraft-signature>{"signed_by": "recraft", "signature_b64": "O2WtdoIb4KXCJc/Ks5uv38W+ZJAwjSvdfEYwzqG9CuqOgNpr13n92S1IAfhSvFbMqwUolVRFp7K6iIB5DVdRBQ==", "signing_algo": "Ed25519", "generation_timestamp": 1778553364, "identifier": "bf2646b9-ce90-4073-b20c-d86f1ce23bbf"}</recraft-signature></metadata></svg>