<svg xmlns="http://www.w3.org/2000/svg" height="1024" preserveAspectRatio="none" style="display: block;" version="1.1" viewBox="0 0 2048 2048" width="1024">
<defs>
	<linearGradient gradientUnits="userSpaceOnUse" id="Gradient1" x1="637.57" x2="639.207" y1="21.8885" y2="206.341">
		<stop class="stop0" offset="0" stop-color="rgb(231,123,52)" stop-opacity="1"></stop>
		<stop class="stop1" offset="1" stop-color="rgb(191,122,130)" stop-opacity="1"></stop>
	</linearGradient>
</defs>

<path d="M 523.618 99.7123 C 532.089 76.1414 545.425 56.9741 565.731 42.0223 C 593.019 22.1339 627.186 14.1177 660.471 19.7947 C 691.867 25.0859 719.951 42.438 738.731 68.1478 C 746.134 77.7244 750.946 87.067 755.715 98.1968 C 790.003 75.2362 816.701 62.63 859.796 71.0566 C 890.203 76.7738 916.959 94.6572 933.869 120.567 C 948.96 143.317 952.763 162.721 953.682 189.267 C 1052.74 176.536 1130.69 272.769 1084.61 365.441 C 1081.62 371.462 1078.07 377.041 1074.34 382.633 C 1087.52 384.116 1098.49 385.337 1111.21 389.634 C 1188.66 415.804 1214.16 515.841 1156.39 574.74 C 1150.52 580.725 1144.65 585.61 1138.14 590.899 C 1163.71 606.279 1182.09 631.225 1189.2 660.204 C 1196.2 689.628 1191.14 720.629 1175.15 746.304 C 1158.83 772.405 1132.82 790.962 1102.83 797.899 C 1096.65 799.241 1090.37 800.087 1084.06 800.43 C 1105.43 861.198 1083.42 912.943 1029.38 946.144 C 1089.66 943.809 1142.52 943.162 1202 954.83 C 1212.22 940.312 1232.67 917.404 1244.68 903.167 L 1309.85 825.306 C 1340.9 788.649 1381.28 729.751 1422.71 708.002 C 1394.01 701.902 1368.92 684.62 1352.99 659.977 C 1337.04 635.26 1331.8 605.12 1338.49 576.47 C 1345.05 548.028 1362.69 523.382 1387.5 508.006 C 1396.52 502.384 1406.31 498.107 1416.56 495.31 C 1400.72 466.9 1395.65 440.259 1404.62 408.293 C 1413.09 379.223 1432.79 354.724 1459.36 340.217 C 1486.97 324.736 1519.69 321.119 1550.02 330.193 C 1564.29 334.481 1573.5 339.785 1586.23 347.164 C 1598.63 315.239 1619.04 292.806 1650.8 278.999 C 1679.56 266.784 1711.98 266.423 1741 277.994 C 1770.21 289.467 1793.46 312.373 1805.36 341.404 C 1811.1 355.047 1812.44 364.967 1813.78 379.502 C 1844.89 372.056 1877.7 377.347 1904.9 394.198 C 1932.71 411.232 1952.62 438.605 1960.27 470.31 C 1972.32 522.1 1947.34 569.681 1902.83 596.324 C 1932.02 616.023 1950.26 638.493 1957.02 674.05 C 1962.83 705.032 1956.03 737.052 1938.12 762.997 C 1919.75 789.507 1891.58 807.617 1859.83 813.333 C 1846.97 815.579 1836.06 815.234 1823.06 814.829 C 1823.52 848.322 1815.18 874.315 1791.34 898.965 C 1769.68 921.061 1740.18 933.722 1709.25 934.2 C 1678.47 934.77 1648.79 922.834 1626.97 901.122 C 1620.78 895.004 1616.79 889.541 1611.73 882.536 C 1601.31 894.282 1591.4 898.569 1582.1 908.111 C 1569.91 920.629 1559.95 939.499 1547.02 952.046 C 1531.5 968.453 1515.18 984.787 1499.3 1000.86 C 1473.75 1026.88 1448 1052.69 1422.04 1078.29 C 1428.83 1086.47 1437.73 1097.07 1443.58 1105.91 C 1446.25 1109.04 1448.86 1113.17 1451.22 1116.58 C 1452.51 1118.28 1454.18 1120.86 1455.37 1122.7 C 1504.67 1200.83 1506.33 1264.62 1493.93 1353 C 1486.75 1404.24 1497.7 1479.97 1530.65 1521.66 L 1531.83 1523.9 C 1567.83 1576.69 1582.12 1553.12 1562.72 1620.61 C 1556.29 1643.11 1549.32 1665.45 1541.83 1687.62 C 1525.64 1737.46 1507.89 1786.78 1488.6 1835.5 C 1477.9 1861.86 1466.68 1887.71 1452.27 1912.29 C 1433.19 1944.84 1392.77 1964.84 1355.62 1966.18 C 1350.89 1968.42 1314.6 1966.61 1310.17 1964.28 C 1291.12 1962.61 1241.53 1946.73 1228.24 1934.45 C 1226.62 1929.98 1224.86 1923.58 1224.12 1918.85 C 1221.64 1903 1225.54 1886.8 1234.96 1873.82 C 1249.39 1854.09 1272.13 1846.27 1295.28 1842.54 C 1309.11 1787.93 1320.65 1727.21 1330.74 1671.69 C 1334.5 1650.97 1339.89 1620.98 1341.78 1600.53 L 1326.29 1591.24 C 1316.64 1630.22 1300.97 1673.05 1288.2 1711.27 C 1273.95 1754.34 1258.07 1796.34 1240.18 1838.01 C 1223.4 1877.1 1190.57 1910.5 1146.14 1914.26 C 1136.45 1918.39 1087.5 1917.26 1078.32 1912.37 C 1066.75 1911.01 1048.08 1905.23 1037.73 1900.46 C 1034.48 1899.35 1019.89 1892.38 1017.69 1889.9 C 1010.13 1884.59 1008.03 1874.26 1007.32 1865.5 C 1003.79 1822.09 1040.15 1798.83 1077.38 1794.29 C 1080.4 1772.99 1087.82 1743.91 1092.38 1722.06 C 1102.62 1672.96 1112.09 1625.79 1118.43 1575.85 C 1076.19 1541.45 1043.69 1496.6 1024.14 1445.75 C 1019.86 1434.72 1017.59 1424.43 1013.91 1414.04 L 1013.27 1412.26 C 1012.52 1412.38 1011.97 1412.59 1011.31 1412.4 C 983.842 1409.52 943.102 1405.84 916.33 1400.49 C 910.973 1452.7 905.391 1499.48 894.225 1550.98 C 875.143 1639.33 848.97 1726.41 817.54 1811.15 C 806.12 1841.95 794.865 1871.87 779.114 1900.77 C 758.64 1938.35 732.58 1951.79 692.933 1962.59 C 675.513 1965.86 643.089 1967.8 626.033 1962.7 C 612.522 1961.82 580.084 1950.95 567.858 1945.46 C 563.602 1944.25 551.987 1938.19 547.941 1935.91 C 534.64 1925.59 536.706 1900.04 539.203 1885.23 C 516.134 1903.88 502.132 1911.38 473.046 1918.43 C 459.811 1923.55 411.604 1923.77 398.303 1918.52 C 387.286 1916.94 371.252 1912.12 360.937 1907.9 C 356.279 1906.44 342.374 1900.51 338.735 1897.56 C 329.429 1893.44 325.289 1886.44 323.688 1876.64 C 315.661 1827.52 353.287 1803.19 395.234 1795.81 C 405.448 1741.71 414.295 1687.37 421.768 1632.82 C 439.394 1507.95 451.265 1386.61 434.828 1261.03 C 433.574 1251.45 430.902 1231.31 428.157 1222.43 C 423.721 1208.09 417.72 1194.34 413.327 1179.42 C 401.148 1137.07 395.649 1093.07 397.029 1049.02 C 359.261 1023.71 349.096 998.681 340.524 956.13 C 316.081 960 298.265 960.714 274.292 952.408 C 244.993 942.424 220.911 921.128 207.419 893.271 C 193.073 863.605 192.703 831.792 203.518 801.04 C 165.473 796.809 134.794 781.833 113.319 748.988 C 96.2869 723.275 90.4342 691.746 97.1035 661.634 C 103.848 631.102 122.02 607.392 148.158 590.827 C 143.039 587.87 138.167 584.504 133.592 580.76 C 111.484 562.518 97.6042 536.181 95.0519 507.633 C 89.2117 441.65 140.098 388.084 204.781 382.842 C 186.005 356.422 177.896 332.423 180.726 299.463 C 183.75 267.505 199.419 238.08 224.248 217.732 C 253.168 193.608 287.921 185.105 324.879 188.629 C 325.462 159.692 332.485 134.767 350.86 111.942 C 370.48 87.7276 398.98 72.3791 429.996 69.3241 C 466.056 65.6258 496.086 77.1096 523.618 99.7123 z" fill="rgb(22,11,7)" transform="translate(0,0)"></path>
<path d="M 1158.21 950.394 C 1182.19 953.632 1206.5 957.254 1229.9 963.41 C 1204.2 986.304 1199.85 1020.96 1224.05 1046.21 C 1263.76 1087.67 1351.88 1099.01 1390.95 1051.55 C 1408.98 1066.18 1427.19 1087.42 1440.87 1106.02 L 1443.58 1105.91 C 1446.25 1109.04 1448.86 1113.17 1451.22 1116.58 C 1452.51 1118.28 1454.18 1120.86 1455.37 1122.7 C 1504.67 1200.83 1506.33 1264.62 1493.93 1353 C 1486.75 1404.24 1497.7 1479.97 1530.65 1521.66 L 1531.83 1523.9 L 1530.29 1525.88 C 1534.77 1532.36 1539.59 1538.61 1544.74 1544.58 C 1552.49 1553.51 1565.08 1563.07 1568.68 1574.55 C 1575.84 1597.38 1506 1785.53 1492.71 1819.15 C 1481.94 1846.38 1470.99 1874.07 1456.94 1899.79 C 1438.38 1933.79 1415.53 1949.62 1378.77 1960.43 C 1379.08 1954.43 1379.37 1948.34 1379.47 1942.44 C 1380.43 1911.05 1349.91 1882 1318.52 1895.18 C 1292.1 1906.27 1285.32 1931.23 1287.1 1956.96 L 1270.33 1951.86 C 1275.12 1932.73 1286 1900.28 1273.88 1881.97 C 1268.91 1874.47 1256.09 1874.24 1249.66 1880.37 C 1234.28 1895.03 1233.73 1916.95 1231.48 1936.6 C 1228.87 1929.15 1226.63 1922.61 1225.84 1914.68 C 1224.43 1899.51 1229.06 1884.38 1238.72 1872.6 C 1252.77 1855.51 1275.54 1846.77 1297.07 1844.81 C 1314.89 1770.42 1335.25 1674.56 1344.37 1599.31 C 1326.04 1588.54 1313.36 1577.69 1297.83 1563.52 C 1227.11 1499.05 1176.31 1399.96 1186.19 1302.13 C 1136.35 1298.34 1084.38 1291.32 1034.44 1286.35 C 1000.62 1283.2 966.837 1279.7 933.094 1275.84 C 919.543 1274.38 904.807 1273.63 891.585 1271.63 L 892.121 1272.44 C 921.302 1317.39 917.392 1368.59 912.456 1419.62 C 911.19 1432.71 909.509 1450.87 906.906 1463.47 C 877.06 1470.05 870.734 1483.55 849.295 1502.35 C 813.911 1533.38 780.517 1508.16 758.051 1478.42 C 734.618 1447.4 696.974 1431.9 664.122 1460.71 C 664.679 1412.33 665.861 1367.71 653.791 1320.39 C 643.825 1281.32 625.528 1252.46 609.339 1216.46 C 588.79 1170.75 576.338 1125.48 566.356 1076.64 C 572.187 1084.17 575.974 1087.16 583.477 1092.51 C 586.61 1097.08 601.713 1105.46 607.209 1107.45 C 667.661 1129.34 730.765 1117.24 757.543 1054.8 C 784.793 1074.52 787.052 1072.62 816.798 1081.16 C 772.724 1153.87 939.632 1179.36 957.936 1119.45 C 967.45 1088.32 931.766 1070.69 907.716 1063.58 C 923.117 1053.75 926.047 1045.8 937.064 1033.23 C 956.827 1047.89 976.388 1054.39 1001.02 1055.25 C 1071.72 1057.72 1138.82 1021.28 1158.21 950.394 z" fill="rgb(231,123,54)" transform="translate(0,0)"></path>
<path d="M 1455.37 1122.7 C 1504.67 1200.83 1506.33 1264.62 1493.93 1353 C 1486.75 1404.24 1497.7 1479.97 1530.65 1521.66 L 1527.97 1522.54 C 1495.2 1472.34 1483.87 1410.63 1491.73 1351.88 C 1503.46 1264.09 1502.44 1200.44 1452.72 1122.94 L 1455.37 1122.7 z" fill="rgb(37,25,21)" transform="translate(0,0)"></path>
<path d="M 1443.58 1105.91 C 1446.25 1109.04 1448.86 1113.17 1451.22 1116.58 L 1450.04 1119.02 C 1448.15 1116.07 1445.25 1111.85 1443.02 1109.14 L 1443.58 1105.91 z" fill="rgb(37,25,21)" transform="translate(0,0)"></path>
<path d="M 1451.22 1116.58 C 1452.51 1118.28 1454.18 1120.86 1455.37 1122.7 L 1452.72 1122.94 C 1451.58 1121.01 1451.42 1120.77 1450.04 1119.02 L 1451.22 1116.58 z" fill="rgb(22,11,7)" transform="translate(0,0)"></path>
<path d="M 1530.65 1521.66 L 1531.83 1523.9 L 1530.29 1525.88 C 1529.19 1524.47 1528.9 1524.1 1527.97 1522.54 L 1530.65 1521.66 z" fill="rgb(75,37,25)" transform="translate(0,0)"></path>
<path d="M 1440.87 1106.02 L 1443.58 1105.91 L 1443.02 1109.14 C 1442.28 1108.12 1441.56 1107.08 1440.87 1106.02 z" fill="rgb(75,37,25)" transform="translate(0,0)"></path>
<path d="M 1143.52 1077.36 C 1173.4 1072.89 1215.88 1080.95 1240.48 1098.77 C 1257.39 1111.02 1264.2 1132.22 1249.84 1149.17 C 1233.73 1168.2 1204.72 1175.17 1181.24 1177.78 C 1151.15 1181.28 1113.32 1175.16 1088.48 1158.6 C 1052.63 1133.58 1066.59 1101.74 1102 1087.64 C 1117.46 1081.49 1126.74 1079.36 1143.52 1077.36 z" fill="rgb(22,11,7)" transform="translate(0,0)"></path>
<path d="M 1146.7 1079.38 C 1174.57 1075 1250.24 1087.01 1255.3 1124.95 C 1259.79 1158.56 1208.32 1172.86 1181.76 1175.32 C 1151.62 1178.97 1111.31 1172.79 1086.22 1154.23 C 1070.98 1142.95 1063.09 1123.02 1077.12 1107.17 C 1093.97 1088.11 1122.47 1082.09 1146.7 1079.38 z" fill="rgb(226,212,193)" transform="translate(0,0)"></path>
<path d="M 1355.75 1130.41 C 1389.62 1127.3 1440.83 1143.53 1447.63 1182.98 C 1448.86 1192.5 1446.72 1202.64 1440.61 1210.19 C 1430.2 1223.06 1415.67 1226.56 1400.18 1228.19 C 1366.96 1228.02 1312 1212.12 1305.28 1171.6 C 1300.81 1144.62 1332.96 1132.34 1355.75 1130.41 z" fill="rgb(22,11,7)" transform="translate(0,0)"></path>
<path d="M 1349.86 1133.3 C 1444.34 1121.93 1483.12 1217.92 1402.25 1225.49 C 1382.91 1228.41 1352.4 1219.2 1336.27 1208.7 C 1294.18 1181.31 1297.37 1142.59 1349.86 1133.3 z" fill="rgb(226,212,193)" transform="translate(0,0)"></path>
<path d="M 1263.35 1323.13 C 1270.35 1310.51 1280.54 1301.43 1294.6 1297.37 C 1305.14 1294.25 1316.49 1295.59 1326.01 1301.07 C 1347.63 1313.28 1347.72 1339.44 1335.27 1358.4 C 1321.72 1371.48 1310.84 1375.91 1291.49 1373.26 C 1279.63 1371.76 1265.03 1365.74 1260.38 1353.72 C 1256.01 1342.41 1259.88 1333.38 1263.35 1323.13 z" fill="rgb(226,212,193)" transform="translate(0,0)"></path>
<path d="M 1263.35 1323.13 C 1270.35 1310.51 1280.54 1301.43 1294.6 1297.37 C 1305.14 1294.25 1316.49 1295.59 1326.01 1301.07 C 1347.63 1313.28 1347.72 1339.44 1335.27 1358.4 L 1334.5 1355.76 C 1365.07 1306.48 1293.43 1271.23 1264.83 1324.95 L 1263.35 1323.13 z" fill="rgb(22,11,7)" transform="translate(0,0)"></path>
<path d="M 1263.35 1323.13 L 1264.83 1324.95 C 1257.58 1345.3 1259.02 1361.74 1282.99 1369.07 C 1303.03 1375.18 1320.36 1372.04 1334.5 1355.76 L 1335.27 1358.4 C 1321.72 1371.48 1310.84 1375.91 1291.49 1373.26 C 1279.63 1371.76 1265.03 1365.74 1260.38 1353.72 C 1256.01 1342.41 1259.88 1333.38 1263.35 1323.13 z" fill="rgb(22,11,7)" transform="translate(0,0)"></path>
<path d="M 1353.09 1401.27 C 1400.67 1400.92 1403.97 1470.42 1348.38 1472.09 C 1318.86 1467.77 1297.27 1455.67 1317.02 1422.52 C 1324.29 1410.31 1339.35 1403.36 1353.09 1401.27 z" fill="rgb(22,11,7)" transform="translate(0,0)"></path>
<path d="M 1347.62 1404.25 C 1398.58 1400.3 1401.24 1463.95 1352.49 1469.62 C 1290.14 1467.47 1308.04 1414.62 1347.62 1404.25 z" fill="rgb(226,212,193)" transform="translate(0,0)"></path>
<path d="M 924.48 1196.67 L 926.282 1193.05 C 938.521 1169.04 990.661 1169.98 1003.57 1193.75 C 1019.95 1223.9 977.653 1239.14 954.512 1230.81 C 940.336 1225.84 937.195 1225.61 928.227 1214.31 C 927.726 1213.69 927.224 1213.08 926.722 1212.46 C 926.331 1210.81 925.847 1209.25 925.258 1207.65 L 924.613 1205.82 C 923.736 1201.33 923.84 1201.26 924.48 1196.67 z" fill="rgb(22,11,7)" transform="translate(0,0)"></path>
<path d="M 929.39 1211.95 C 921.405 1198.27 929.624 1188.29 941.603 1182.27 C 959.155 1173.44 996.867 1177.98 1003.47 1198.14 C 1013.84 1229.76 964.857 1236.61 944.986 1225.23 C 936.294 1220.25 935.505 1219.76 929.786 1213.08 L 929.39 1211.95 z" fill="rgb(226,212,193)" transform="translate(0,0)"></path>
<path d="M 924.613 1205.82 C 923.736 1201.33 923.84 1201.26 924.48 1196.67 C 924.991 1201.18 925.036 1201.37 924.613 1205.82 z" fill="rgb(75,37,25)" transform="translate(0,0)"></path>
<path d="M 929.39 1211.95 L 929.786 1213.08 L 928.227 1214.31 C 927.726 1213.69 927.224 1213.08 926.722 1212.46 L 929.39 1211.95 z" fill="rgb(96,50,29)" transform="translate(0,0)"></path>
<path d="M 730.903 1251.11 C 783.117 1247.65 800.941 1297.96 752.209 1308.73 C 701.421 1313.11 680.595 1264.3 730.903 1251.11 z" fill="rgb(22,11,7)" transform="translate(0,0)"></path>
<path d="M 733.154 1253.25 C 780.39 1250.74 798.278 1297.49 750.78 1306.46 C 699.905 1308.94 685.938 1262.6 733.154 1253.25 z" fill="rgb(226,212,193)" transform="translate(0,0)"></path>
<path d="M 787.235 1174.19 C 835.097 1170.96 854.357 1219.51 805.345 1230.99 C 752.216 1233.27 739.484 1182.9 787.235 1174.19 z" fill="rgb(22,11,7)" transform="translate(0,0)"></path>
<path d="M 792.321 1176.38 C 837.717 1176.47 847.658 1223.95 801.39 1229.06 C 751.334 1227.1 744.07 1180.63 792.321 1176.38 z" fill="rgb(226,212,193)" transform="translate(0,0)"></path>
<path d="M 1418.03 1280.37 C 1469.19 1278.84 1477.23 1332.32 1431.43 1337.23 C 1374.79 1336.3 1370.92 1286.65 1418.03 1280.37 z" fill="rgb(22,11,7)" transform="translate(0,0)"></path>
<path d="M 1412.72 1283.23 C 1424.88 1282.34 1431.56 1282.33 1443 1287.97 C 1455.67 1294.21 1464.02 1308.04 1456.35 1321.62 C 1451.9 1329.49 1442.78 1332.81 1434.23 1334.7 C 1385.58 1337.43 1369.6 1294.54 1412.72 1283.23 z" fill="rgb(226,212,193)" transform="translate(0,0)"></path>
<path d="M 1247.73 1207.08 C 1264.63 1205.75 1285.16 1208.77 1291.92 1227 C 1293.91 1232.23 1293.69 1238.05 1291.31 1243.12 C 1286.84 1252.42 1279.03 1255.28 1269.96 1258.37 C 1226.2 1264.73 1204.83 1218.43 1247.73 1207.08 z" fill="rgb(22,11,7)" transform="translate(0,0)"></path>
<path d="M 1248.77 1209.17 C 1292.08 1207.02 1308.88 1243.8 1268.99 1256.12 L 1267.91 1256.22 C 1253.42 1257.7 1232.01 1251.94 1227.22 1236.45 C 1225.83 1231.87 1226.33 1226.91 1228.62 1222.7 C 1233.18 1214.48 1240.24 1211.45 1248.77 1209.17 z" fill="rgb(226,212,193)" transform="translate(0,0)"></path>
<path d="M 669.872 1152.16 C 715.409 1148.75 729.931 1193.56 689.264 1202.86 C 644.893 1205.77 627.812 1162.8 669.872 1152.16 z" fill="rgb(22,11,7)" transform="translate(0,0)"></path>
<path d="M 674.013 1154.38 C 715.791 1153.42 722.12 1194.27 691.5 1199.95 L 686.178 1200.89 C 641.929 1200.07 633.626 1160.22 674.013 1154.38 z" fill="rgb(226,212,193)" transform="translate(0,0)"></path>
<path d="M 1403.89 1486.45 C 1443.51 1483.67 1458.73 1521.69 1419.59 1530.99 C 1378.79 1532.01 1367.28 1496.03 1403.89 1486.45 z" fill="rgb(22,11,7)" transform="translate(0,0)"></path>
<path d="M 1408.53 1488.33 C 1445.28 1489.49 1448.76 1522.77 1423 1527.95 L 1417.49 1529.01 C 1404.24 1528.62 1386.64 1524.98 1384.24 1509 C 1383.7 1505.27 1384.71 1501.48 1387.03 1498.52 C 1392.87 1490.94 1399.8 1489.49 1408.53 1488.33 z" fill="rgb(226,212,193)" transform="translate(0,0)"></path>
<path d="M 1062.6 1211.87 C 1066.62 1204.35 1070.36 1200.64 1079.01 1198.32 C 1087.66 1195.95 1096.91 1197.23 1104.58 1201.88 C 1113.26 1207.11 1119.2 1220.74 1112.29 1228.61 C 1098.27 1244.58 1070.9 1240.36 1062.6 1220.95 C 1061.75 1216.42 1061.79 1216.43 1062.6 1211.87 z" fill="rgb(22,11,7)" transform="translate(0,0)"></path>
<path d="M 1062.6 1211.87 C 1063.09 1216.38 1063.1 1216.47 1062.6 1220.95 C 1061.75 1216.42 1061.79 1216.43 1062.6 1211.87 z" fill="rgb(75,37,25)" transform="translate(0,0)"></path>
<path d="M 1085.46 1199.22 C 1116.28 1200.08 1125.88 1231.26 1091.58 1235.82 C 1056.87 1232.95 1057.27 1204.18 1081 1199.98 L 1085.46 1199.22 z" fill="rgb(226,212,193)" transform="translate(0,0)"></path>
<path d="M 795.535 1322.16 C 825.898 1320.11 840.697 1347.85 808.884 1359.49 C 775.771 1359.52 763.589 1331.95 795.535 1322.16 z" fill="rgb(22,11,7)" transform="translate(0,0)"></path>
<path d="M 798.016 1324.17 C 808.147 1323.96 820.689 1326.81 823.608 1338.12 C 824.531 1341.68 823.984 1345.46 822.09 1348.61 C 818.821 1353.98 813.276 1355.77 807.574 1357.27 C 774.174 1355.41 770.785 1329.79 794.561 1324.86 L 798.016 1324.17 z" fill="rgb(226,212,193)" transform="translate(0,0)"></path>
<path d="M 1014.8 1410.63 L 1022.68 1411.29 C 1025.71 1411.58 1030.58 1411.82 1033.24 1412.78 C 1033.9 1413.51 1034.55 1414.25 1035.2 1414.99 C 1067.23 1417.17 1097.93 1420.83 1130.35 1422.23 C 1132.22 1423.18 1132.51 1422.92 1134.73 1422.68 C 1158.59 1423.65 1176.6 1424.38 1200.43 1422.96 C 1223.26 1483.02 1251.71 1524.78 1299.57 1568.08 C 1300.38 1569.34 1300.23 1569.38 1301.41 1569.95 C 1308.87 1576.73 1316.51 1583.31 1324.32 1589.68 C 1318.68 1614.5 1309.62 1641.17 1301.47 1665.42 C 1282.19 1722.82 1262.99 1780.49 1238.58 1835.95 C 1221.1 1875.64 1198.92 1898.64 1156.69 1910.15 C 1157.81 1899.23 1158.46 1892.69 1156.64 1881.99 C 1150.9 1848.29 1113.75 1830.19 1086.75 1854.5 C 1070.11 1869.48 1068.2 1887.42 1069.28 1908.1 C 1064.08 1906.58 1058.43 1905.05 1053.34 1903.3 C 1059.08 1883 1068.37 1855.95 1057.78 1836.06 C 1053.01 1827.1 1043.55 1824.77 1035.23 1830.54 C 1020.71 1840.6 1016.51 1855.74 1014.76 1872.09 C 1013.9 1874.88 1013.79 1874.8 1011.92 1877.04 C 1013.01 1881.14 1013.12 1881.48 1015.27 1884.82 C 1017.04 1887.14 1017.49 1887.14 1017.69 1889.9 C 1010.13 1884.59 1008.03 1874.26 1007.32 1865.5 C 1003.79 1822.09 1040.15 1798.83 1077.38 1794.29 C 1080.4 1772.99 1087.82 1743.91 1092.38 1722.06 C 1102.62 1672.96 1112.09 1625.79 1118.43 1575.85 C 1076.19 1541.45 1043.69 1496.6 1024.14 1445.75 C 1019.86 1434.72 1017.59 1424.43 1013.91 1414.04 L 1013.27 1412.26 C 1013.16 1410.88 1013.54 1411.06 1014.8 1410.63 z" fill="rgb(201,97,40)" transform="translate(0,0)"></path>
<path d="M 1014.8 1410.63 L 1022.68 1411.29 C 1022.56 1411.87 1022.43 1412.45 1022.3 1413.02 C 1018.49 1413.15 1018.67 1412.47 1016.44 1414.45 C 1016.27 1418.4 1020.74 1429.65 1022.29 1433.93 C 1036.86 1474.96 1059.45 1512.68 1088.73 1544.9 C 1099.51 1556.69 1109.43 1565.18 1121.37 1575.59 C 1114.94 1612.03 1110.45 1648.03 1102.75 1684.68 L 1087.78 1754.1 C 1085.16 1766.14 1080.51 1785.16 1079.53 1796.93 C 1060.25 1797.1 1039.86 1805.4 1026.35 1819.24 C 1015.22 1830.45 1009.22 1845.75 1009.76 1861.54 C 1009.92 1867.26 1010.73 1871.48 1011.92 1877.04 C 1013.01 1881.14 1013.12 1881.48 1015.27 1884.82 C 1017.04 1887.14 1017.49 1887.14 1017.69 1889.9 C 1010.13 1884.59 1008.03 1874.26 1007.32 1865.5 C 1003.79 1822.09 1040.15 1798.83 1077.38 1794.29 C 1080.4 1772.99 1087.82 1743.91 1092.38 1722.06 C 1102.62 1672.96 1112.09 1625.79 1118.43 1575.85 C 1076.19 1541.45 1043.69 1496.6 1024.14 1445.75 C 1019.86 1434.72 1017.59 1424.43 1013.91 1414.04 L 1013.27 1412.26 C 1013.16 1410.88 1013.54 1411.06 1014.8 1410.63 z" fill="rgb(37,25,21)" transform="translate(0,0)"></path>
<path d="M 1022.68 1411.29 C 1025.71 1411.58 1030.58 1411.82 1033.24 1412.78 C 1033.9 1413.51 1034.55 1414.25 1035.2 1414.99 C 1031.75 1414.79 1025.42 1414.27 1022.3 1413.02 C 1022.43 1412.45 1022.56 1411.87 1022.68 1411.29 z" fill="rgb(75,37,25)" transform="translate(0,0)"></path>
<path d="M 630.288 20.6966 C 631.996 20.8593 646.147 20.8772 647.717 20.7279 C 678.486 22.2881 708.687 37.1697 729.346 59.9021 C 731.9 62.6642 734.283 65.58 736.48 68.6333 C 737.005 69.5707 737.402 70.1475 738.01 71.0345 C 746.281 82.1405 749.656 90.6817 755.406 103.058 C 760.277 97.1058 766.218 93.6922 772.572 89.5522 C 812.857 63.3033 868.876 65.207 907.015 94.7189 C 907.514 95.3341 907.425 95.1969 908.105 95.6334 C 914.693 101.429 919.955 106.221 925.575 113.036 C 926.065 113.822 926.091 113.774 926.805 114.431 L 928.436 116.754 C 929.114 117.424 929.025 117.253 929.424 118.021 C 946.298 141.046 950.466 161.156 951.348 188.943 C 932.591 192.199 917.979 198.392 901.552 207.629 C 899.76 202.519 897.888 197.547 895.819 192.546 C 875.466 143.359 818 122.693 770.76 146.601 C 762.946 150.556 758.131 153.831 750.964 159.238 C 738.836 138.614 726.483 125.413 705.676 112.901 C 676.248 94.9316 640.855 89.4787 607.383 97.7569 C 572.246 106.528 545.29 127.879 526.934 158.789 C 515.805 149.321 504.34 143.048 490.078 139.401 C 466.607 133.235 441.639 136.849 420.88 149.418 C 398.102 163.166 385.034 182.691 378.665 208.172 C 362.432 197.226 345.714 192.71 326.928 188.789 C 329.097 158.636 333.631 135.851 354.022 111.832 C 374.024 88.0231 402.821 73.3358 433.837 71.1233 C 468.617 68.5469 498.445 81.1789 524.448 103.485 C 529.392 87.7028 537.6 73.1371 548.537 60.7328 C 569.349 37.0079 598.785 22.592 630.288 20.6966 z" fill="url(#Gradient1)" transform="translate(0,0)"></path>
<path d="M 642.288 1697.36 C 709.19 1670.84 716.434 1760.26 775.916 1762.62 C 811.719 1764.03 823.256 1741.99 846.404 1721.59 C 827.882 1777.55 807.259 1837.75 781.882 1890.86 C 762.344 1931.74 739.597 1945.33 698.54 1958.77 C 702.015 1934.85 701.992 1914.8 680.95 1897.92 C 649.964 1873.06 612.126 1894.72 605.842 1931.04 C 605.679 1931.59 605.515 1932.14 605.351 1932.69 C 604.415 1941.68 604.788 1946.52 605.296 1955.67 L 586.775 1950.09 C 593.012 1929.32 604.831 1897.16 591.551 1877.43 C 584.44 1866.87 571.271 1867.59 562.537 1876.12 C 546.897 1891.4 546.69 1911.85 545.955 1932.1 C 542.917 1923.69 541.199 1920.67 540.057 1911.33 C 537.934 1895.05 542.476 1878.59 552.654 1865.71 C 568.205 1845.99 591.275 1838.61 615.187 1835.59 C 625.469 1792.21 635.842 1741.41 642.288 1697.36 z" fill="rgb(231,123,54)" transform="translate(0,0)"></path>
<path d="M 896.552 1274.69 L 1073.3 1292.78 C 1109.03 1296.64 1147.89 1301.41 1183.56 1304.22 C 1180.72 1346.21 1185 1381.23 1199.83 1420.88 C 1151.59 1422.39 1104.94 1419.17 1056.95 1414.59 C 1049.2 1413.86 1040.99 1413.08 1033.24 1412.78 C 1030.58 1411.82 1025.71 1411.58 1022.68 1411.29 L 1014.8 1410.63 C 1013.54 1411.06 1013.16 1410.88 1013.27 1412.26 C 1012.52 1412.38 1011.97 1412.59 1011.31 1412.4 L 1011.84 1410.25 C 980.083 1407.08 948.407 1403.17 916.834 1398.52 C 919.004 1352.72 920.023 1315.87 896.552 1274.69 z" fill="rgb(226,212,193)" transform="translate(0,0)"></path>
<path d="M 1011.84 1410.25 C 1013.36 1410.22 1013.45 1410.12 1014.8 1410.63 C 1013.54 1411.06 1013.16 1410.88 1013.27 1412.26 C 1012.52 1412.38 1011.97 1412.59 1011.31 1412.4 L 1011.84 1410.25 z" fill="rgb(85,79,72)" transform="translate(0,0)"></path>
<path d="M 605.842 1931.04 C 606.291 1930.87 606.74 1930.71 607.189 1930.54 C 608.566 1918.32 621.131 1903.33 630.315 1896.17 C 634.348 1893.02 636.796 1892.29 641.64 1891.51 C 653.414 1885.58 664.963 1894.2 672.369 1894.25 C 673.249 1896.94 680.749 1901.45 683.684 1904.32 C 697.357 1917.66 699.513 1935.39 696.865 1953.5 C 696.213 1957.92 694.502 1958.38 692.933 1962.59 C 675.513 1965.86 643.089 1967.8 626.033 1962.7 C 625.125 1960.32 611.498 1957.8 608.335 1956.99 L 608.242 1955.93 C 607.808 1950.47 607.944 1936.5 605.351 1932.69 C 605.515 1932.14 605.679 1931.59 605.842 1931.04 z" fill="rgb(75,37,25)" transform="translate(0,0)"></path>
<path d="M 389.598 1914.32 C 388.427 1897.38 389.882 1882.78 399.893 1868.56 C 411.642 1851.87 435.324 1844.17 452.95 1855.61 C 473.12 1868.7 478.783 1886.23 475.402 1909.28 C 474.844 1913.08 472.354 1916.44 473.046 1918.43 C 459.811 1923.55 411.604 1923.77 398.303 1918.52 C 398.824 1918.21 399.345 1917.9 399.867 1917.59 C 399.056 1916.29 391.481 1914.81 389.598 1914.32 z" fill="rgb(75,37,25)" transform="translate(0,0)"></path>
<path d="M 1290.52 1957.98 C 1280.62 1906.55 1336.62 1869.59 1369.8 1916.08 C 1378.93 1928.87 1377.14 1946.23 1375.6 1961.01 C 1370.38 1962.18 1359.59 1963.42 1355.62 1966.18 C 1350.89 1968.42 1314.6 1966.61 1310.17 1964.28 C 1305.97 1961.02 1298.48 1960.36 1293.07 1958.72 C 1292.22 1958.46 1291.37 1958.22 1290.52 1957.98 z" fill="rgb(75,37,25)" transform="translate(0,0)"></path>
<path d="M 1078.32 1912.37 C 1075.82 1910.24 1072.96 1909.67 1072.53 1906.4 C 1063.39 1836.3 1153.81 1820.92 1154.92 1896.06 C 1155.28 1919.99 1147.46 1907.51 1146.14 1914.26 C 1136.45 1918.39 1087.5 1917.26 1078.32 1912.37 z" fill="rgb(75,37,25)" transform="translate(0,0)"></path>
<path d="M 752.406 1040.14 C 776.646 1056.03 791.227 1064.15 821.946 1066.77 C 826.866 1067.19 837.527 1065.5 841.035 1066.7 C 835.679 1072.02 824.08 1073.76 816.798 1081.16 C 787.052 1072.62 784.793 1074.52 757.543 1054.8 C 730.765 1117.24 667.661 1129.34 607.209 1107.45 C 601.713 1105.46 586.61 1097.08 583.477 1092.51 C 582.304 1090.19 582.571 1090.92 582.013 1088.47 L 583.248 1088.21 C 589.013 1091.92 606.954 1098.28 614.022 1100.15 C 671.282 1115.34 721.869 1086.89 752.406 1040.14 z" fill="rgb(96,50,29)" transform="translate(0,0)"></path>
<path d="M 547.941 1935.91 C 548.471 1934.8 548.801 1930.84 548.634 1928.99 C 546.988 1910.7 555.862 1869.5 581.005 1873.09 C 593.702 1874.9 597.702 1900.99 594.042 1910.51 C 591.457 1925.08 588.398 1935.9 584.328 1949.32 C 579.232 1947.88 572.77 1944.96 567.858 1945.46 C 563.602 1944.25 551.987 1938.19 547.941 1935.91 z" fill="rgb(75,37,25)" transform="translate(0,0)"></path>
<path d="M 338.735 1897.56 C 339.909 1895.48 338.731 1895.7 337.588 1893.89 C 333.299 1887.08 335.505 1876.97 336.195 1869.5 C 336.5 1867.8 336.796 1865.62 337.216 1864 C 339.855 1853.81 344.418 1842.26 353.548 1836.24 C 356.712 1834.16 360.116 1832.63 363.991 1833.56 C 370.402 1835.21 374.726 1842.51 375.47 1848.64 C 376.654 1858.39 376.324 1868.8 375.067 1878.51 C 374.029 1886.53 371.67 1894.09 370.173 1902.02 C 369.865 1903.66 369.679 1906.17 368.547 1907.58 C 365.12 1908.4 364.727 1906.26 360.937 1907.9 C 356.279 1906.44 342.374 1900.51 338.735 1897.56 z" fill="rgb(75,37,25)" transform="translate(0,0)"></path>
<path d="M 1014.97 1873.8 C 1015.44 1875.37 1015.94 1879.2 1016.49 1879.98 L 1016.76 1880.1 C 1017.45 1879.5 1017.6 1875.87 1017.62 1875 C 1017.71 1869.76 1018.39 1865.05 1019.24 1860.01 C 1022.01 1843.53 1045.41 1815.56 1057.54 1841.31 C 1061.67 1850.06 1059.54 1866.62 1057.65 1875.99 L 1056.6 1880.98 C 1055.05 1888.41 1052.69 1895.64 1050.78 1902.94 C 1045.86 1901.48 1043.31 1899.13 1037.73 1900.46 C 1034.48 1899.35 1019.89 1892.38 1017.69 1889.9 C 1017.49 1887.14 1017.04 1887.14 1015.27 1884.82 C 1013.12 1881.48 1013.01 1881.14 1011.92 1877.04 C 1013.79 1874.8 1013.9 1874.88 1014.76 1872.09 L 1014.97 1873.8 z" fill="rgb(75,37,25)" transform="translate(0,0)"></path>
<path d="M 1014.76 1872.09 L 1014.97 1873.8 C 1015.02 1877.27 1015.4 1881.59 1015.27 1884.82 C 1013.12 1881.48 1013.01 1881.14 1011.92 1877.04 C 1013.79 1874.8 1013.9 1874.88 1014.76 1872.09 z" fill="rgb(180,75,31)" transform="translate(0,0)"></path>
<path d="M 867.958 1060.18 C 885.085 1051.64 898.163 1044.83 911.445 1030.69 C 913.009 1029.03 921.44 1018.21 922.065 1018.07 C 923.426 1018.49 934.326 1030.98 937.064 1033.23 C 926.047 1045.8 923.117 1053.75 907.716 1063.58 C 896.848 1060.51 879.501 1061.09 867.958 1060.18 z" fill="rgb(96,50,29)" transform="translate(0,0)"></path>
<path d="M 630.288 20.6966 C 632.305 18.896 645.724 18.9511 647.717 20.7279 C 646.147 20.8772 631.996 20.8593 630.288 20.6966 z" fill="rgb(96,50,29)" transform="translate(0,0)"></path>
<path d="M 1130.35 1422.23 C 1132.47 1421.69 1133 1421.26 1134.73 1422.68 C 1132.51 1422.92 1132.22 1423.18 1130.35 1422.23 z" fill="rgb(96,50,29)" transform="translate(0,0)"></path>
<path d="M 591.592 246.092 C 599.64 274.577 619.936 292.297 650.833 283.84 C 662.892 280.642 673.047 272.516 678.812 261.452 C 681.109 257.057 682.271 252.266 683.522 247.49 C 690.34 276.733 710.699 288.596 738.67 274.868 C 828.774 309.52 887.111 345.43 951.588 419.981 C 1024.83 500.082 1028.29 610.299 992.219 708.001 C 966.006 779.013 905.576 837.582 835.332 865.43 C 663.697 933.472 375.587 917.147 292.115 722.348 C 261.52 650.948 256.465 557.709 286.858 485.37 C 324.795 397.174 418.962 324.705 504.988 288.365 C 515.942 283.781 527.04 279.547 538.264 275.671 C 560.655 287.355 586.16 276.717 589.335 250.399 C 590.072 248.955 590.824 247.519 591.592 246.092 z" fill="rgb(231,123,54)" transform="translate(0,0)"></path>
<path d="M 836.705 473.368 C 894.593 467.781 947.228 507.215 956.065 565.239 C 959.988 592.087 953.067 619.392 936.829 641.13 C 918.106 666.567 893.048 680.034 862.234 684.789 C 802.359 692.174 748.135 655.644 739.711 594.509 C 735.716 566.165 743.404 537.415 761.011 514.848 C 779.87 490.491 806.474 477.093 836.705 473.368 z" fill="rgb(22,11,7)" transform="translate(0,0)"></path>
<path d="M 838.079 474.271 C 895.918 469.007 947.165 511.404 952.83 569.204 C 958.495 627.005 916.453 678.545 858.693 684.609 C 800.365 690.733 748.207 648.188 742.487 589.819 C 736.766 531.45 779.672 479.588 838.079 474.271 z" fill="rgb(255,255,255)" transform="translate(0,0)"></path>
<path d="M 818.716 515.679 C 859.395 508.33 898.294 535.462 905.449 576.177 C 912.603 616.891 885.284 655.659 844.536 662.619 C 804.063 669.531 765.613 642.437 758.507 601.997 C 751.401 561.558 778.311 522.979 818.716 515.679 z" fill="rgb(37,25,21)" transform="translate(0,0)"></path>
<path d="M 344.293 638.877 C 319.28 600.904 320.762 551.323 348 514.912 C 375.238 478.501 422.382 463.078 465.873 476.351 C 509.364 489.623 539.864 528.74 542.131 574.155 C 542.406 579.669 542.258 585.197 541.687 590.688 C 537.038 635.407 505.143 672.554 461.642 683.914 C 418.141 695.273 372.156 678.463 346.236 641.727 C 345.573 640.787 344.926 639.837 344.293 638.877 z" fill="rgb(22,11,7)" transform="translate(0,0)"></path>
<path d="M 346.397 638.725 C 330.345 614.165 323.224 588.288 329.225 558.986 C 334.918 531.886 351.208 508.188 374.469 493.165 C 423.596 461.357 486.971 473.078 521.689 520.02 C 599.28 639.902 431.847 747.802 346.397 638.725 z" fill="rgb(255,255,255)" transform="translate(0,0)"></path>
<path d="M 441.926 515.375 C 482.779 510.789 519.614 540.189 524.201 581.042 C 528.787 621.895 499.388 658.732 458.535 663.319 C 417.681 667.906 380.843 638.506 376.257 597.652 C 371.67 556.798 401.071 519.961 441.926 515.375 z" fill="rgb(37,25,21)" transform="translate(0,0)"></path>
<path d="M 542.131 574.155 C 542.406 579.669 542.258 585.197 541.687 590.688 C 541.23 585.086 541.497 579.722 542.131 574.155 z" fill="rgb(96,50,29)" transform="translate(0,0)"></path>
<path d="M 344.293 638.877 L 346.397 638.725 L 346.236 641.727 C 345.573 640.787 344.926 639.837 344.293 638.877 z" fill="rgb(75,37,25)" transform="translate(0,0)"></path>
<path d="M 884.111 681.507 C 917.253 678.157 946.864 702.239 950.336 735.369 C 953.809 768.499 929.835 798.198 896.719 801.793 C 863.429 805.406 833.541 781.28 830.05 747.977 C 826.56 714.675 850.796 684.875 884.111 681.507 z" fill="rgb(22,11,7)" transform="translate(0,0)"></path>
<path d="M 882.528 686.249 C 896.371 684.396 911.786 687.379 923.706 694.719 C 936.358 702.354 945.357 714.809 948.634 729.218 C 956.278 764.406 933.245 790.223 900.111 796.89 C 869.273 801.591 838.131 784.295 831.442 752.757 C 828.458 738.239 831.558 723.132 840.017 710.962 C 851.434 694.485 864.092 689.816 882.528 686.249 z" fill="rgb(202,122,107)" transform="translate(0,0)"></path>
<path d="M 381.162 682.014 C 413.937 678.474 443.416 702.074 447.135 734.83 C 450.853 767.586 427.414 797.193 394.679 801.089 C 361.691 805.016 331.805 781.356 328.058 748.347 C 324.311 715.338 348.133 685.582 381.162 682.014 z" fill="rgb(22,11,7)" transform="translate(0,0)"></path>
<path d="M 376.872 684.988 C 408.021 679.021 438.12 699.397 444.152 730.533 C 450.185 761.668 429.872 791.81 398.749 797.908 C 367.534 804.024 337.283 783.638 331.232 752.41 C 325.182 721.182 345.631 690.973 376.872 684.988 z" fill="rgb(202,122,107)" transform="translate(0,0)"></path>
<path d="M 626.608 589.377 C 650.118 585.191 700.943 593.942 709.913 620.469 C 721.476 654.664 679.157 672.229 653.982 680.473 C 625.244 685.77 573.813 669.245 568.41 635.588 C 563.453 604.71 601.802 592.367 626.608 589.377 z" fill="rgb(22,11,7)" transform="translate(0,0)"></path>
<path d="M 625.76 592.315 C 630.213 591.886 635.132 591.919 639.594 591.841 C 655.437 591.566 670.123 593.478 684.496 600.297 C 716.749 615.6 716.981 643.699 687.862 662.591 C 676.002 670.286 667.285 673.538 653.654 677.564 C 652.775 677.77 651.893 677.965 651.009 678.147 C 621.495 684.141 550.511 654.743 576.868 614.352 C 585.806 600.655 609.837 594.205 625.76 592.315 z" fill="rgb(75,37,25)" transform="translate(0,0)"></path>
<path d="M 825.148 396.309 C 845.951 393.797 889.286 399.778 888.949 428.251 C 888.802 440.635 873.55 445.911 863.199 443.742 C 854.675 441.955 847.591 437.492 838.584 436.569 C 817.17 436.896 820.233 441.501 802.745 446.421 C 796.276 448.183 789.365 447.141 783.703 443.553 C 773.877 437.438 774.938 425.214 781.12 416.851 C 790.903 403.618 809.651 398.705 825.148 396.309 z" fill="rgb(22,11,7)" transform="translate(0,0)"></path>
<path d="M 835.764 398.44 C 850.431 398.967 867.397 402.067 879.224 411.235 C 887.264 417.468 888.065 429.777 881.059 437.043 C 870.406 448.092 853.866 436.877 841.779 434.35 C 837.48 433.451 833.203 433.748 828.947 433.926 C 817.787 436.522 810.259 441.724 799.562 444.115 C 795.267 445.074 786.686 443.245 783.286 440.057 C 776.021 433.246 780.342 420.69 786.694 414.754 C 799.822 402.603 818.422 398.857 835.764 398.44 z" fill="rgb(75,37,25)" transform="translate(0,0)"></path>
<path d="M 438.641 396.266 C 459.743 394.342 495.112 398.395 506.104 420.515 C 510.602 429.564 506.946 443.022 496.437 446.169 C 485.51 449.442 477.846 445.249 468.266 440.55 C 439.955 428.264 406.659 461.165 398.472 427.323 C 393.44 406.52 422.489 398.959 438.641 396.266 z" fill="rgb(22,11,7)" transform="translate(0,0)"></path>
<path d="M 437.42 399.277 C 454.919 397.656 465.962 398.68 483.77 405.132 C 498.991 410.647 517.723 432.859 495.26 443.802 C 487.693 447.488 478.18 442.469 470.74 438.83 C 441.594 426.636 418.795 447.741 408.441 438.883 C 381.755 416.054 423.229 402.062 437.42 399.277 z" fill="rgb(75,37,25)" transform="translate(0,0)"></path>
<path d="M 633.947 707.145 C 639.522 707.109 645.096 706.993 650.668 706.796 C 651.389 732.709 661.345 745.9 688.778 741.646 C 694.432 738.777 699.477 737.063 703.47 731.469 C 704.741 729.688 704.782 728.941 706.484 727.774 C 710.369 715.987 708.558 719.156 709.411 708.794 C 710.121 708.211 711.076 708.273 712.003 708.167 C 713.386 708.183 714.768 708.207 716.151 708.241 C 722.006 708.723 720.222 718.062 719.815 722.495 C 718.962 731.791 711.276 742.128 703.713 747.431 C 694.197 754.065 682.322 756.375 671.013 753.794 C 662.375 751.845 654.444 747.121 649.474 739.71 L 649.156 739.245 C 647.523 738.139 646.374 735.979 645.686 734.162 L 643.056 729.029 L 641.517 728.71 C 637.56 732.247 636.95 736.231 634.196 739.903 C 626.832 749.721 613.758 755.603 601.716 754.935 C 590.25 754.2 579.607 748.726 572.342 739.825 C 566.438 732.605 559.048 717.447 565.08 708.537 C 567.636 706.942 569.713 707.349 572.788 707.392 C 573.436 718.839 574.826 727.801 584.312 736.041 C 590.34 741.306 598.286 743.827 606.247 743.003 C 614.04 742.197 621.161 738.228 625.946 732.025 C 632.009 724.213 632.772 716.674 633.947 707.145 z" fill="rgb(22,11,7)" transform="translate(0,0)"></path>
<path d="M 706.484 727.774 C 710.369 715.987 708.558 719.156 709.411 708.794 C 710.121 708.211 711.076 708.273 712.003 708.167 C 713.386 708.183 714.768 708.207 716.151 708.241 C 722.006 708.723 720.222 718.062 719.815 722.495 C 718.962 731.791 711.276 742.128 703.713 747.431 C 694.197 754.065 682.322 756.375 671.013 753.794 C 662.375 751.845 654.444 747.121 649.474 739.71 L 649.156 739.245 C 647.523 738.139 646.374 735.979 645.686 734.162 C 646.096 729.683 645.396 728.495 643.855 724.007 C 642.691 720.619 643.295 716.758 642.795 713.003 C 642.44 710.342 645.912 708.105 647.684 710.807 C 649.848 719.84 649.988 731.507 658.831 737.289 C 660.277 738.142 661.35 739.391 662.577 740.477 C 665.811 743.337 671.264 744.364 675.494 744.723 C 678.607 744.987 684.551 745.67 687.363 743.621 C 687.855 743.262 688.518 742.075 688.778 741.646 C 694.432 738.777 699.477 737.063 703.47 731.469 C 704.741 729.688 704.782 728.941 706.484 727.774 z" fill="rgb(75,37,25)" transform="translate(0,0)"></path>
<path d="M 716.151 708.241 C 722.006 708.723 720.222 718.062 719.815 722.495 C 718.962 731.791 711.276 742.128 703.713 747.431 C 694.197 754.065 682.322 756.375 671.013 753.794 C 662.375 751.845 654.444 747.121 649.474 739.71 L 649.156 739.245 C 654.273 741.311 655.013 743.664 659.686 746.685 C 684.606 762.795 723.212 741.852 716.919 711.096 C 716.716 710.105 716.402 709.524 716.151 708.241 z" fill="rgb(22,11,7)" transform="translate(0,0)"></path>
<path d="M 706.484 727.774 C 710.369 715.987 708.558 719.156 709.411 708.794 C 710.121 708.211 711.076 708.273 712.003 708.167 C 713.742 712.716 711.656 724.128 706.484 727.774 z" fill="rgb(37,25,21)" transform="translate(0,0)"></path>
<path d="M 566.824 709.244 C 569.562 710.537 570.503 710.952 570.819 714.49 C 574.418 754.775 631.009 756.216 635.86 715.467 C 636.412 710.836 639.276 706.79 640.07 714.936 C 639.84 729.11 638.864 730.858 629.141 740.875 C 604.378 766.383 561.195 744.904 566.824 709.244 z" fill="rgb(75,37,25)" transform="translate(0,0)"></path>
<path d="M 1679.03 357.314 C 1726.6 352.24 1764.86 382.858 1775 428.741 C 1785.96 426.692 1797.23 426.982 1808.07 429.593 C 1829.71 434.847 1848.34 448.55 1859.81 467.642 C 1871.12 486.258 1874.51 508.624 1869.22 529.755 C 1863.03 554.952 1848.42 570.628 1826.81 583.587 C 1904.71 639.918 1856.71 762.469 1761.3 749.72 C 1770.87 822.599 1696.02 867.531 1632.16 835.934 C 1624.94 832.095 1620.5 829.329 1614.95 823.398 C 1613.76 816.158 1612.18 807.939 1609.66 800.853 C 1590.99 748.378 1567.44 709.88 1510.67 694.286 C 1495.05 689.993 1482.87 693.467 1469.58 685.973 C 1449.46 674.626 1433.96 657.453 1427.33 635.426 C 1420.77 613.748 1423.13 590.345 1433.9 570.418 C 1445.6 548.928 1462.53 537.024 1485.53 530.29 C 1460.38 500.213 1457.94 460.936 1481.29 428.948 C 1494.79 410.583 1515.09 398.385 1537.64 395.074 C 1563.3 391.284 1586.48 398.642 1607.02 413.931 C 1619.45 380.728 1644.62 362.764 1679.03 357.314 z" fill="rgb(226,212,193)" transform="translate(0,0)"></path>
<path d="M 1039.46 419.648 C 1060.08 423.942 1083.56 440.806 1095.51 458.393 C 1109.02 478.681 1114.04 503.45 1109.52 527.398 C 1104.52 553.566 1088.81 572.905 1067.11 587.543 L 1068.42 588.505 C 1074.6 593.05 1080.45 597.604 1085.88 602.942 C 1130.66 646.903 1119.03 726.581 1063.47 755.895 C 1049.02 763.519 1037.91 765.765 1022.02 767.937 C 1050.14 841.987 986.683 913.441 909.835 899.758 C 904.601 898.826 899.762 897.443 894.661 895.97 C 893.492 915.408 889.398 931.565 878.323 947.968 C 864.473 968.676 842.922 982.991 818.463 987.729 C 785.801 993.766 762.218 984.037 736.119 965.972 C 735.635 967.228 735.125 968.474 734.589 969.709 C 724.098 993.819 704.107 1011.47 679.735 1020.88 C 654.038 1030.8 625.456 1030.11 600.264 1018.98 C 577.504 1008.73 557.648 989.688 548.819 966.108 C 534.051 977.56 518.119 985.759 499.451 988.565 C 473.483 992.388 447.061 985.718 426.02 970.026 C 400.534 950.644 392.816 926.611 388.748 896.46 C 364.975 903.512 341.641 903.841 318.351 894.446 C 293.167 884.279 273.068 864.503 262.495 839.487 C 253.067 817.022 251.885 790.427 261.038 767.685 C 255.723 767.002 250.264 765.826 245.053 764.566 C 219.668 758.544 197.84 742.422 184.618 719.931 C 170.353 696.055 168.04 672.286 174.624 645.71 C 183.974 615.757 196.211 604.491 220.276 586.57 C 218.702 585.738 217.151 584.863 215.625 583.947 C 196.973 572.68 183.826 553.182 178.666 532.155 C 172.752 508.363 176.559 483.196 189.246 462.218 C 201.295 442.19 220.833 427.794 243.532 422.219 C 257.486 434.241 269.965 442.996 285.26 453.161 L 285.118 454.232 L 284.909 456.02 C 284.015 463.067 285.646 479.249 284.556 482.395 C 267.216 532.486 260.061 576.76 265.94 630.498 C 274.256 706.523 309.161 780.86 371.749 828.348 C 464.55 898.759 598.944 912.234 711.597 899.246 C 802.962 888.062 894.41 855.935 953.328 780.962 C 1005.07 714.989 1025.2 624.413 1013.53 541.987 C 1010.35 519.505 1002.31 499.039 994.709 477.973 C 994.299 476.835 993.564 458.574 993.13 455.11 C 1009.96 443.233 1024.07 433.397 1039.46 419.648 z" fill="rgb(226,212,193)" transform="translate(0,0)"></path>
<path d="M 1587.41 350.236 C 1604.74 305.409 1641.39 274.84 1690.36 272.068 C 1721.12 270.121 1751.38 280.588 1774.36 301.125 C 1798.98 323.363 1809.84 349.85 1811.33 382.39 C 1852.17 373.478 1883.77 380.195 1916.92 405.643 C 1917.67 406.04 1917.53 405.944 1918.1 406.591 C 1924.38 412.265 1927.98 415.744 1933.56 422.065 C 1934.17 422.349 1934.16 422.594 1934.5 423.252 L 1939.61 429.94 C 1940.25 430.35 1940.52 430.955 1940.97 431.633 C 1941.75 432.579 1941.75 432.694 1942.3 433.841 C 1958.39 459.47 1965.35 488.011 1958.66 517.994 C 1951.93 548.219 1933.43 574.515 1907.25 591.065 C 1904.23 592.974 1901.11 594.727 1897.91 596.32 C 1912.53 604.885 1924.35 614.351 1934.58 628.006 C 1935.19 628.338 1935.16 628.56 1935.51 629.22 L 1940.63 636.896 C 1941.21 637.3 1941.18 637.513 1941.49 638.188 C 1956.79 666.793 1961.68 696.995 1952.17 728.536 C 1942.77 759.437 1921.31 785.245 1892.65 800.127 C 1869.87 812.006 1845.96 815.242 1820.76 811.46 C 1821.6 844.856 1814.93 870.783 1791.18 895.978 C 1770.11 918.206 1741.07 931.133 1710.45 931.906 C 1680.28 932.774 1651.06 921.338 1629.49 900.226 C 1623.95 894.899 1615.48 885.595 1612.89 878.331 C 1609.8 880.62 1604.7 886.294 1601.58 889.324 C 1595.76 894.986 1592.08 897.658 1585.21 902.231 C 1586.3 899.775 1587.25 896.993 1588.56 894.678 C 1599.56 875.161 1606.06 851.774 1608.08 829.498 C 1608.19 828.247 1607.63 822.322 1609.9 822.375 C 1610.72 823.002 1610.88 823.26 1611.25 824.227 C 1611.93 826.002 1615.4 828.162 1617.08 829.39 C 1635.48 842.945 1657.71 850.439 1680.65 848.809 C 1705.55 847.046 1728.7 835.394 1744.95 816.452 C 1761.14 797.366 1765.82 776.999 1763.97 752.655 C 1768.8 752.937 1774.34 753.249 1779.12 752.998 C 1804.64 751.422 1828.44 739.62 1845.14 720.263 C 1861.51 701.35 1869.59 676.659 1867.59 651.729 C 1865.36 622.946 1853.01 601.911 1831.38 583.607 C 1860.85 565.924 1877.4 534.599 1873.35 500.137 C 1870.65 477.764 1859.2 457.37 1841.51 443.41 C 1823.38 428.943 1800.1 422.559 1777.13 425.753 C 1776.37 422.839 1775.55 419.943 1774.65 417.069 C 1767.21 393.859 1750.65 374.674 1728.78 363.929 C 1707.32 353.11 1682.37 351.513 1659.71 359.507 C 1633.13 368.597 1617.65 385.345 1605.63 409.976 C 1597.22 404.055 1587.98 399.41 1578.2 396.192 C 1555.38 388.769 1530.52 390.895 1509.28 402.087 C 1488.4 412.928 1472.82 431.792 1466.13 454.347 C 1459.33 477.258 1463.18 498.352 1474.53 519.014 C 1475.14 519.325 1475.09 519.541 1475.38 520.262 L 1481.47 528.743 C 1458.46 536.695 1441.05 550.501 1430.16 572.657 C 1420.03 593.282 1418.54 617.09 1426.01 638.817 C 1427.95 644.447 1430.49 649.854 1433.58 654.948 C 1434.21 655.334 1434.33 655.895 1434.66 656.634 C 1435.43 657.621 1435.88 658.043 1436.34 659.102 C 1446.52 673.806 1457.13 681.038 1472 690.403 C 1451.36 693.419 1442.62 699.012 1423.95 705.726 C 1413.76 704.022 1403.29 700.066 1394.23 695.157 C 1369.02 681.688 1350.28 658.657 1342.22 631.238 C 1334.19 603.595 1337.6 573.886 1351.67 548.776 C 1366.86 521.403 1390.37 505.522 1419.84 496.949 C 1414.1 487.068 1410.3 479.897 1406.95 468.847 C 1398.96 441.563 1402.05 412.229 1415.55 387.206 C 1430.32 360.791 1454.82 341.183 1483.84 332.554 C 1525.6 320.343 1551.46 330.447 1587.41 350.236 z" fill="rgb(202,122,107)" transform="translate(0,0)"></path>
<path d="M 1585.21 902.231 C 1586.3 899.775 1587.25 896.993 1588.56 894.678 C 1599.56 875.161 1606.06 851.774 1608.08 829.498 C 1608.19 828.247 1607.63 822.322 1609.9 822.375 C 1610.72 823.002 1610.88 823.26 1611.25 824.227 C 1611.93 826.002 1615.4 828.162 1617.08 829.39 C 1614.3 837.859 1620.45 866.473 1612.89 878.331 C 1609.8 880.62 1604.7 886.294 1601.58 889.324 C 1595.76 894.986 1592.08 897.658 1585.21 902.231 z" fill="rgb(96,50,29)" transform="translate(0,0)"></path>
<path d="M 152.441 591.151 C 162.436 590.33 203.371 585.203 209.632 591.409 C 186.605 610.33 171.923 632.514 169.167 662.988 C 167.319 685.701 173.462 708.346 186.535 727.012 C 187.149 727.325 187.104 727.549 187.412 728.256 C 203.488 753.399 229.738 764.268 257.766 769.597 C 252.515 788.944 250.698 805.003 255.435 824.831 C 261.916 851.779 278.997 874.971 302.809 889.156 C 329.66 905.228 356.801 907.117 386.666 899.726 C 392.677 946.34 418.934 980.701 466.695 990.167 C 497.387 996.249 522.486 987.498 547.822 970.201 C 556.977 991.498 574.453 1008.61 595.007 1019 C 619.794 1031.62 648.6 1033.79 675 1025.04 C 704.93 1015.09 723.669 997.347 737.5 969.637 C 753.324 980.673 767.564 987.95 787.031 990.728 C 812.369 994.498 838.154 987.856 858.518 972.315 C 884.055 952.628 892.902 929.643 897.032 899.043 C 915.935 904.59 938.32 905.226 957.354 899.941 C 983.436 892.561 1005.5 875.08 1018.64 851.375 C 1033.95 823.908 1033.91 799.151 1025.52 769.851 C 1050.56 766.651 1071.85 757.346 1089.12 738.655 C 1107.48 718.808 1117.02 692.374 1115.56 665.378 C 1114.14 636.26 1102.99 615.224 1081.86 595.89 C 1082.87 594.193 1083.32 593.854 1084.63 592.359 C 1092.35 589.604 1123.17 591.05 1133.35 591.262 C 1140.89 595.423 1144.32 597.296 1150.97 602.605 C 1152.66 603.558 1152.42 603.324 1153.43 604.931 L 1160.61 612.006 C 1161.79 612.668 1161.6 612.629 1162.43 613.955 L 1166.61 618.961 C 1167.21 619.324 1167.19 619.547 1167.54 620.197 L 1171.65 625.89 C 1172.31 626.367 1172.83 627.305 1173.31 628.014 C 1173.98 628.838 1173.95 628.924 1174.42 629.941 C 1216.87 707.604 1167.81 791.241 1081.05 798.523 C 1086.95 814.817 1089.72 824.727 1090.03 842.135 C 1091.37 917.193 1012.82 975.844 941.166 951.695 C 938.508 985.477 926.238 1014.86 900.053 1037.19 C 877.188 1056.93 847.246 1066.48 817.171 1063.61 C 792.704 1061.42 769.606 1051.35 751.342 1034.92 C 736.022 1064.64 709.307 1086.87 677.305 1096.54 C 647.148 1105.63 614.6 1102.22 586.983 1087.07 C 565.096 1075.21 547.258 1057.08 535.765 1034.99 C 515.961 1051.85 494.058 1060.49 468.153 1063.15 C 462.805 1062.95 456.527 1063.14 451.091 1063.19 C 448.415 1063.05 445.739 1062.92 443.062 1062.81 L 441.353 1062.51 C 380.718 1050.27 351.282 1013.28 343.142 953.232 C 316.575 958.492 293.6 958.237 268.208 947.594 C 240.079 935.972 217.792 913.547 206.344 885.347 C 195.089 857.3 195.414 825.935 207.25 798.128 C 198.058 797.831 191.794 797.456 182.767 795.358 C 153.923 788.372 129.015 770.257 113.482 744.969 C 97.5478 719.289 92.6829 688.254 99.9946 658.931 C 107.545 628.871 126.15 606.727 152.441 591.151 z" fill="rgb(202,122,107)" transform="translate(0,0)"></path>
<path d="M 468.153 1063.15 C 463.601 1064.28 457.881 1064.08 453.085 1064.16 L 453.659 1065.19 C 457.883 1064.88 460.276 1066.22 463.485 1066.09 C 488.177 1065.06 515.542 1055.23 534.618 1039.44 L 541.232 1050.6 C 548.847 1059.3 554.79 1065.97 563.146 1074.06 C 573.044 1116.13 580.174 1149.69 596.495 1190.95 C 608.683 1221.76 622.357 1247.73 636.212 1277.5 C 655.125 1318.15 660.781 1361.05 661.447 1405.5 C 490.088 1378.77 392.264 1215.14 399.263 1050.99 C 402.843 1054.23 405.52 1056.84 409.582 1059.51 L 408.497 1056.91 C 414.261 1055.41 432.325 1066.5 441.353 1062.51 L 443.062 1062.81 C 445.739 1062.92 448.415 1063.05 451.091 1063.19 C 456.527 1063.14 462.805 1062.95 468.153 1063.15 z" fill="rgb(226,212,193)" transform="translate(0,0)"></path>
<path d="M 468.153 1063.15 C 463.601 1064.28 457.881 1064.08 453.085 1064.16 L 453.659 1065.19 C 457.883 1064.88 460.276 1066.22 463.485 1066.09 C 488.177 1065.06 515.542 1055.23 534.618 1039.44 L 541.232 1050.6 C 511.687 1078.35 458.757 1084.57 422.333 1067.44 C 418.983 1065.87 411.985 1062.02 409.582 1059.51 L 408.497 1056.91 C 414.261 1055.41 432.325 1066.5 441.353 1062.51 L 443.062 1062.81 C 445.739 1062.92 448.415 1063.05 451.091 1063.19 C 456.527 1063.14 462.805 1062.95 468.153 1063.15 z" fill="rgb(96,50,29)" transform="translate(0,0)"></path>
<path d="M 443.062 1062.81 C 445.739 1062.92 448.415 1063.05 451.091 1063.19 C 449.156 1064.38 444.61 1066.41 442.695 1064.36 C 442.687 1063.74 442.824 1063.44 443.062 1062.81 z" fill="rgb(22,11,7)" transform="translate(0,0)"></path>
<path d="M 1470.73 693.315 C 1492.35 691.385 1517.99 696.312 1536.91 707.447 C 1551.88 716.257 1562.45 742.29 1566.07 758.889 C 1571.99 784.991 1567.12 812.378 1552.56 834.838 C 1533.14 864.358 1499.52 881.357 1464.24 879.494 C 1456.03 878.981 1437.03 875.773 1430.15 877.586 C 1407.52 883.55 1412.73 905.569 1409.44 922.787 C 1407.43 932.879 1403.66 942.539 1398.3 951.322 C 1380.07 981.147 1351.95 990.386 1320.26 998.178 L 1305.32 990.531 C 1267.02 972.29 1246.58 963.842 1204.45 955.297 C 1216.76 938.607 1237.24 915.863 1250.9 899.606 C 1277.4 867.508 1304.12 835.593 1331.06 803.862 C 1348.05 807.153 1366.16 809.218 1382.63 802.978 C 1426.76 786.257 1439.23 750.172 1425.16 708.289 C 1442.52 700.299 1452.06 696.329 1470.73 693.315 z" fill="rgb(226,212,193)" transform="translate(0,0)"></path>
<path d="M 527.503 162.855 C 544.1 133.043 570.279 110.914 603.252 101.416 C 636.065 92.0648 671.254 96.2331 700.974 112.991 C 724.593 126.13 736.606 140.225 750.817 162.404 C 808.901 117.423 877.09 138.862 899.522 208.67 C 875.785 224.067 852.076 249.503 837.255 273.74 C 831.413 270.64 822.72 265.673 816.899 263.121 C 808.697 258.062 795.113 252.146 786.241 248.6 C 773.947 243.576 762.409 239.187 749.412 235.99 C 738.863 215.837 720.26 209.334 699.838 220.237 C 697.851 221.28 695.898 222.386 693.981 223.553 C 689.174 223.436 685.289 223.321 680.46 222.813 C 673.916 210.368 665.669 201.036 651.729 196.594 C 639.503 192.804 626.252 194.25 615.132 200.589 C 604.238 206.735 599.834 213.786 593.792 223.958 L 582.276 226.585 C 560.087 209.305 538.586 210.122 524.391 236.576 C 498.444 244.196 464.797 260.518 441.32 273.71 C 419.458 238.828 411.951 233.395 380.881 208.734 C 386.619 184.835 399.484 165.123 420.664 152.047 C 441.173 139.366 465.971 135.608 489.316 141.645 C 504.066 145.342 516.756 152.086 527.503 162.855 z" fill="rgb(226,212,193)" transform="translate(0,0)"></path>
<path d="M 415.459 1690.97 C 430.17 1683.92 443.619 1677.99 460.239 1684.03 C 499.533 1698.3 503.152 1742.96 548.91 1750.47 C 560.464 1752.35 572.317 1750.57 582.812 1745.39 C 593.705 1740.13 601.802 1732.61 609.299 1723.24 C 597.921 1764.13 580.393 1809.21 563.462 1848.33 C 561.156 1853.66 553.755 1860.92 550.482 1865.99 C 533.894 1891.75 507.134 1907.8 477.512 1914.95 C 479.947 1898.02 481.01 1881.04 469.686 1867.01 C 438.537 1828.42 391.39 1852.44 386.853 1896.77 C 386.245 1902.22 386.109 1907.72 386.447 1913.2 L 371.479 1909.05 C 375.701 1889.24 385.999 1853.4 374.034 1837.4 C 355.488 1812.6 331.759 1855.67 332.921 1874.19 C 333.275 1879.83 332.913 1889.71 333.094 1894.88 C 316.64 1860.18 324.599 1833.47 355.797 1811.51 C 356.379 1811.03 356.443 1810.99 357.115 1810.65 C 372.916 1802.15 379.556 1800.8 397.473 1797.7 C 403.369 1761.9 409.806 1727.15 415.459 1690.97 z" fill="rgb(201,97,40)" transform="translate(0,0)"></path>
<path d="M 1547.28 712.873 C 1615.58 759.599 1621.44 848.207 1575.24 912.609 C 1546.2 953.087 1511.32 984.918 1476.45 1020.24 C 1462.59 1034.32 1434.14 1065.02 1420.12 1076.56 C 1388.83 1043.78 1361.11 1022.71 1322.02 999.58 C 1353.69 992.974 1379.89 982.968 1398.67 954.55 C 1404.61 945.547 1408.92 935.571 1411.4 925.075 C 1415.07 909.061 1411.09 882.83 1430.45 879.775 C 1441.74 877.994 1449.59 881.168 1460.3 881.167 C 1462.47 880.509 1473.67 880.55 1475.75 881.19 C 1523.95 881.458 1567.59 836.773 1570.23 789.211 C 1569.28 785.396 1569.71 774.959 1570.1 770.912 C 1568.3 748.691 1559.99 730.787 1547.28 712.873 z" fill="rgb(231,123,54)" transform="translate(0,0)"></path>
<path d="M 1460.3 881.167 C 1462.47 880.509 1473.67 880.55 1475.75 881.19 C 1473.2 882.442 1462.74 882.555 1460.3 881.167 z" fill="rgb(75,37,25)" transform="translate(0,0)"></path>
<path d="M 1570.1 770.912 C 1571.01 775.326 1571.81 785.153 1570.23 789.211 C 1569.28 785.396 1569.71 774.959 1570.1 770.912 z" fill="rgb(75,37,25)" transform="translate(0,0)"></path>
<path d="M 443.582 1255.14 C 451.628 1264.03 459.641 1278.42 466.763 1288.68 C 507.079 1346.77 589.318 1403.97 661.837 1407.24 C 661.877 1417.05 662.541 1458.41 660.813 1465.56 C 654.572 1470.17 646.299 1473.43 640.52 1478.59 C 631.05 1487.06 623.386 1497.82 612.791 1504.93 C 606.13 1509.4 595.837 1512.86 587.783 1512.86 C 540.439 1512.86 532.557 1454.61 488.316 1446.41 C 469.806 1442.99 456.969 1448.97 442.761 1458.95 C 442.982 1451.13 443.567 1443.19 444.036 1435.37 C 447.657 1374.97 442.953 1314.79 436.65 1254.78 C 440.994 1255.72 439.933 1255.48 443.405 1257.79 L 443.582 1255.14 z" fill="rgb(201,97,40)" transform="translate(0,0)"></path>
<path d="M 443.582 1255.14 C 451.628 1264.03 459.641 1278.42 466.763 1288.68 C 507.079 1346.77 589.318 1403.97 661.837 1407.24 C 661.877 1417.05 662.541 1458.41 660.813 1465.56 C 579.508 1448.63 496.297 1362.19 460.185 1289.97 C 454.698 1279 447.772 1269.55 443.405 1257.79 L 443.582 1255.14 z" fill="rgb(96,50,29)" transform="translate(0,0)"></path>
<path d="M 840.005 275.151 C 841.86 265.823 864.065 242.167 871.704 234.214 C 903.435 201.177 951.222 182.995 996.84 192.293 C 1030.09 199.137 1059.18 219.089 1077.55 247.644 C 1094.26 273.198 1100.15 304.347 1093.9 334.239 C 1083.64 381.804 1033.9 426.077 994.264 451.063 L 992.742 452.012 C 987.793 434.155 984.399 426.319 976.481 409.767 C 1008.83 382.415 1060.84 322.312 1024.1 279.433 C 1010.94 264.064 981.594 249.004 961.514 247.761 C 930.264 245.826 895.757 278.665 877.959 300.849 C 871.411 296.269 863.628 290.504 856.988 286.294 C 855.649 284.976 852.156 283.018 850.394 281.929 L 849.65 281.496 C 846.839 279.383 843.028 277.094 840.005 275.151 z" fill="rgb(231,123,54)" transform="translate(0,0)"></path>
<path d="M 298.212 190.388 C 362.565 186.318 407.096 223.619 439.575 275.425 C 426.642 282.114 413.136 291.768 401.15 300.137 C 384.188 281.397 360.34 257.12 335.502 249.869 C 302.065 240.108 251.715 266.11 242.64 300.708 C 236.915 322.534 245.567 340.801 255.941 359.023 C 267.994 377.845 283.839 396.362 302.099 409.391 C 293.791 425.078 289.152 433.516 285.881 450.699 C 274.394 443.404 263.325 435.471 252.726 426.936 C 219.822 400.125 187.22 367.855 183.144 323.282 C 176.64 252.152 228.428 197.208 298.212 190.388 z" fill="rgb(231,123,54)" transform="translate(0,0)"></path>
<path d="M 696.737 1448.27 C 753.62 1441.76 763.459 1521.62 817.405 1518.36 C 857.27 1515.95 864.857 1473.35 905.302 1466.52 L 906.582 1466.32 C 903.164 1493.33 898.563 1520.18 892.792 1546.79 C 886.757 1549.53 883.617 1551.37 877.949 1554.83 C 860.86 1566.1 853.354 1581.63 834.556 1590.31 C 806.966 1603.05 778.467 1594.62 758.077 1573.47 C 741.029 1555.79 729.246 1535.21 704.516 1526.33 C 686.639 1519.9 674.879 1522.43 658.434 1530.05 C 659.55 1513 662.078 1480.69 664.24 1463.99 C 674.165 1454.1 683.345 1450.49 696.737 1448.27 z" fill="rgb(226,212,193)" transform="translate(0,0)"></path>
<path d="M 680.115 1525.26 C 739.243 1521.27 745.217 1594.13 802.442 1598.54 C 847.386 1602.01 857.193 1566.78 891.007 1550.22 L 892.154 1549.67 C 888.164 1570.5 878.054 1613.09 872.1 1632.82 L 863.687 1635.34 C 837.772 1645.42 824.494 1672.73 806.706 1679.17 C 736.553 1704.54 729.888 1584.77 651.528 1620.39 C 655.332 1598.48 657.548 1555.43 658.587 1532.36 C 666.772 1528.61 671.388 1526.94 680.115 1525.26 z" fill="rgb(231,123,54)" transform="translate(0,0)"></path>
<path d="M 1050.29 947.753 C 1052.62 945.531 1064.16 946.885 1067.38 947.138 C 1094.5 947.147 1129.2 946.802 1155.91 950.27 C 1144.05 988.704 1125.06 1013.74 1088.79 1033.76 C 1056.5 1051.59 1004.91 1058.79 969.236 1047.63 C 957.986 1044.2 947.518 1038.6 938.422 1031.14 C 935.357 1028.25 928.25 1021.2 926.037 1018 L 923.721 1014.61 C 937.264 994.389 939.489 978.741 944.811 956.217 C 947.512 956.454 950.152 957.023 952.817 957.51 C 980.462 962.811 1001.16 955.998 1027.07 949.252 C 1031.04 948.216 1045.55 947.886 1050.29 947.753 z" fill="rgb(226,212,193)" transform="translate(0,0)"></path>
<path d="M 944.811 956.217 C 947.512 956.454 950.152 957.023 952.817 957.51 C 958.755 982.521 950.056 1009.07 938.422 1031.14 C 935.357 1028.25 928.25 1021.2 926.037 1018 L 923.721 1014.61 C 937.264 994.389 939.489 978.741 944.811 956.217 z" fill="rgb(96,50,29)" transform="translate(0,0)"></path>
<path d="M 1050.29 947.753 C 1052.62 945.531 1064.16 946.885 1067.38 947.138 C 1062.93 947.656 1054.72 948.206 1050.29 947.753 z" fill="rgb(85,79,72)" transform="translate(0,0)"></path>
<path d="M 459.048 1523.22 C 517.516 1520.23 518.058 1583.54 571.388 1592.13 C 609.674 1598.3 626.041 1566.66 652.954 1547.28 C 648.711 1572.45 641.909 1602.28 635.197 1626.91 C 629.493 1629.84 626.274 1632.01 620.978 1635.58 C 611.128 1643.53 596.987 1661.99 586.676 1666.35 C 510.23 1698.7 511.031 1570.23 426.509 1615.71 C 431.026 1589.01 433.516 1559.28 436.887 1532.17 C 444.733 1527.82 450.515 1525.63 459.048 1523.22 z" fill="rgb(201,97,40)" transform="translate(0,0)"></path>
<path d="M 441.684 1472.38 C 442.028 1467.19 442.328 1462.16 446.804 1458.76 C 456.625 1451.29 471.228 1447.14 483.216 1448.26 C 530.088 1452.63 537.512 1513.76 586.005 1515.22 C 597.678 1515.56 611.119 1510.16 619.74 1502.55 C 637.307 1487.06 639.694 1479.98 661.02 1468.93 C 660.146 1495.24 655.736 1519.51 654.618 1543.63 C 624.467 1562.7 608.855 1598.72 567.205 1589.06 C 526.128 1579.54 521.529 1536.84 482.025 1523.29 C 458.375 1515.17 441.525 1529.16 436.93 1528.03 C 436.767 1525.57 436.023 1524.17 437.693 1522.38 L 438.257 1514.82 L 438.173 1514.34 C 437.987 1513.35 438.023 1513.07 438.666 1512.3 L 439.248 1502.91 L 439.162 1502.41 C 438.964 1501.35 438.987 1501.12 439.68 1500.35 L 440.299 1491.92 L 440.21 1491.42 C 440.005 1490.35 440.026 1490.1 440.699 1489.3 L 441.266 1476.76 C 440.813 1474.62 440.264 1474.01 441.684 1472.38 z" fill="rgb(226,212,193)" transform="translate(0,0)"></path>
<path d="M 441.684 1472.38 C 441.913 1474.55 442.122 1474.9 441.266 1476.76 C 440.813 1474.62 440.264 1474.01 441.684 1472.38 z" fill="rgb(85,79,72)" transform="translate(0,0)"></path>
<path d="M 437.693 1522.38 C 437.908 1525.08 437.64 1525.41 436.93 1528.03 C 436.767 1525.57 436.023 1524.17 437.693 1522.38 z" fill="rgb(85,79,72)" transform="translate(0,0)"></path>
<path d="M 439.248 1502.91 L 439.162 1502.41 C 438.964 1501.35 438.987 1501.12 439.68 1500.35 C 439.815 1501.74 439.915 1501.71 439.248 1502.91 z" fill="rgb(85,79,72)" transform="translate(0,0)"></path>
<path d="M 440.299 1491.92 L 440.21 1491.42 C 440.005 1490.35 440.026 1490.1 440.699 1489.3 C 440.833 1490.71 440.93 1490.69 440.299 1491.92 z" fill="rgb(85,79,72)" transform="translate(0,0)"></path>
<path d="M 438.257 1514.82 L 438.173 1514.34 C 437.987 1513.35 438.023 1513.07 438.666 1512.3 C 438.77 1513.76 438.873 1513.62 438.257 1514.82 z" fill="rgb(85,79,72)" transform="translate(0,0)"></path>
<path d="M 675.362 1616.33 C 722.952 1617.84 729.448 1658.92 764.659 1678.8 C 800.754 1699.19 823.841 1670.23 846.58 1647.95 C 852.406 1642.24 863.596 1637.59 871.475 1635.31 C 866.45 1654.22 861.074 1673.04 855.35 1691.75 C 853.183 1698.87 848.998 1713.4 845.958 1719.77 L 844.689 1720.75 C 827.502 1733.75 821.875 1748.05 800.468 1756.18 C 774.168 1766.18 749.378 1756.68 730.801 1737.19 C 716.141 1721.81 706.28 1704.03 685.597 1695.15 C 669.542 1688.26 658.11 1688.83 642.474 1694.8 C 645.596 1672.36 648.186 1644.38 651.956 1622.79 C 661.752 1617.96 664.595 1617.25 675.362 1616.33 z" fill="rgb(226,212,193)" transform="translate(0,0)"></path>
<path d="M 152.441 591.151 C 124.815 572.659 105.731 553.409 98.8563 519.198 C 93.0478 490.616 98.9918 460.899 115.348 436.751 C 131.97 411.965 159.215 392.776 188.691 387.233 C 194.716 386.14 200.831 385.615 206.955 385.666 C 218.413 399.111 227.65 408.091 240.512 419.993 C 214.519 429.65 194.558 444.292 182.543 470.1 C 172 492.807 170.927 518.775 179.561 542.273 C 183.69 553.585 188.573 560.945 195.884 570.471 C 200.504 576.492 213.838 582.721 213.473 588.694 L 209.632 591.409 C 203.371 585.203 162.436 590.33 152.441 591.151 z" fill="rgb(231,123,54)" transform="translate(0,0)"></path>
<path d="M 1072.62 384.907 C 1078.37 385.386 1084.35 386.112 1090.04 386.905 C 1151.34 395.433 1194.81 454.068 1184.31 515.34 C 1178.38 549.985 1161.13 571 1133.35 591.262 C 1123.17 591.05 1092.35 589.604 1084.63 592.359 C 1083.32 593.854 1082.87 594.193 1081.86 595.89 L 1071.19 587.393 C 1075.73 584.044 1079.43 581.079 1083.64 577.287 C 1127.06 538.169 1122.07 466.419 1073.89 433.393 C 1063.18 426.057 1053.81 422.399 1041.71 417.658 C 1052.3 407.348 1062.58 395.835 1072.62 384.907 z" fill="rgb(231,123,54)" transform="translate(0,0)"></path>
<path d="M 451.957 1608.26 C 502.025 1604 511.675 1662.37 552.239 1672.78 C 591.44 1682.85 606.186 1646.67 634.999 1629.33 C 631.591 1642.87 614.076 1714.44 607.767 1721.52 C 600.366 1731.16 591.151 1739.05 579.968 1743.96 C 569.959 1748.47 558.825 1749.86 548.012 1747.96 C 505.883 1740.79 499.59 1696.04 462.262 1682.35 C 443.878 1675.61 431.8 1680.86 415.497 1688.32 C 419.379 1665.28 422.54 1642.13 426.536 1619.11 C 434.588 1612.89 442.12 1610.06 451.957 1608.26 z" fill="rgb(226,212,193)" transform="translate(0,0)"></path>
<path d="M 317.275 250.352 C 349.316 248.147 379.732 279.833 399.035 301.787 C 363.152 330.471 338.248 355.088 312.133 392.617 C 309.248 396.823 305.907 402.747 303.213 407.252 C 301.669 406.232 300.166 405.15 298.709 404.008 C 276.263 386.389 247.53 350.705 243.995 321.145 C 238.941 278.886 280.225 254.433 317.275 250.352 z" fill="rgb(202,122,107)" transform="translate(0,0)"></path>
<path d="M 953.97 250.305 C 956.522 250.262 959.075 250.322 961.622 250.487 C 981.471 251.665 1008.6 265.647 1021.6 280.478 C 1058.64 322.76 1006.53 380.266 975.474 407.642 L 969.86 398.851 C 939.87 354.379 920.601 336.348 879.921 302.464 L 880.719 301.366 C 896.21 280.392 927.149 254.407 953.97 250.305 z" fill="rgb(202,122,107)" transform="translate(0,0)"></path>
<path d="M 1232.07 964.686 C 1239.93 965.312 1253.97 970.591 1261.72 973.62 C 1306.94 991.299 1352.5 1017.68 1388.85 1050.02 C 1378.7 1062 1373.62 1066.12 1359.36 1072.75 C 1317.44 1088.64 1249.85 1077.19 1221.74 1040.16 C 1212.7 1028.48 1208.91 1013.57 1211.29 998.993 C 1213.45 985.273 1220.91 972.952 1232.07 964.686 z" fill="rgb(226,212,193)" transform="translate(0,0)"></path>
<path d="M 818.684 1083.2 C 825.137 1076.93 830.041 1075.22 837.958 1071.52 C 859.919 1061.26 881.732 1060.77 905.069 1065.75 C 915.103 1066.93 924.537 1071.5 933.489 1076.27 C 957.267 1088.81 967.724 1120.06 942.121 1137.29 C 920.855 1151.61 891.329 1152.78 866.855 1148.54 C 837.004 1143.37 793.11 1118.75 818.684 1083.2 z" fill="rgb(226,212,193)" transform="translate(0,0)"></path>
<path d="M 818.684 1083.2 C 825.137 1076.93 830.041 1075.22 837.958 1071.52 C 859.919 1061.26 881.732 1060.77 905.069 1065.75 C 873.305 1084.72 853.66 1083.57 818.684 1083.2 z" fill="rgb(96,50,29)" transform="translate(0,0)"></path>
<path d="M 740.691 272.85 C 756.38 257.074 747.538 247.695 752.209 240.935 C 760.556 237.681 778.101 250.837 786.241 248.6 C 795.113 252.146 808.697 258.062 816.899 263.121 L 816.745 264.53 C 819.515 267.243 836.901 278.007 840.005 275.151 C 843.028 277.094 846.839 279.383 849.65 281.496 L 850.394 281.929 C 852.156 283.018 855.649 284.976 856.988 286.294 C 858.009 291.155 903.623 324.972 911.334 331.955 C 939.468 357.431 998.724 431.444 991.4 471.429 C 986.492 469.303 986.282 463.632 984.166 460.039 C 976.402 446.854 966.787 434.22 957.274 422.225 C 900.183 350.242 825.516 304.325 740.691 272.85 z" fill="rgb(75,37,25)" transform="translate(0,0)"></path>
<path d="M 849.65 281.496 L 850.394 281.929 C 850.086 282.501 849.78 283.491 848.946 283.343 C 848.442 282.594 849.11 282.129 849.65 281.496 z" fill="rgb(22,11,7)" transform="translate(0,0)"></path>
<path d="M 521.718 240.02 C 525.68 240.488 522.926 249.632 523.994 254.755 C 525.76 263.227 529.273 267.559 534.736 273.655 C 448.64 305.064 374.014 353.743 317.711 427.601 C 308.809 439.279 300.64 450.602 293.889 463.68 C 291.519 468.711 289.138 473.199 286.521 478.096 C 286.178 460.434 288.724 442.984 296.432 426.854 C 330.626 355.294 400.162 295.803 470.451 261.147 C 486.493 253.238 505.149 246.401 521.718 240.02 z" fill="rgb(75,37,25)" transform="translate(0,0)"></path>
<path d="M 652.419 1561.21 L 654.486 1565.12 C 653.314 1573.54 653.286 1583.46 652.481 1592.07 C 644.903 1673.06 632.689 1754.51 613.128 1833.43 C 591.452 1836.48 585.872 1839.4 566.493 1849.33 C 604.353 1756.29 633.129 1659.8 652.419 1561.21 z" fill="rgb(255,255,255)" transform="translate(0,0)"></path>
<path d="M 636.498 196.809 C 660.219 196.186 680.008 214.799 680.839 238.513 C 681.669 262.227 663.23 282.179 639.524 283.216 C 615.523 284.266 595.269 265.548 594.428 241.539 C 593.588 217.53 612.483 197.44 636.498 196.809 z" fill="rgb(75,37,25)" transform="translate(0,0)"></path>
<path d="M 1422.78 709.941 C 1428.74 717.607 1429.82 738.908 1428.21 748.508 C 1425.65 763.776 1417.63 777.596 1405.66 787.406 C 1388.98 801.126 1365.11 808 1343.76 803.59 C 1342.04 803.37 1334.02 802.864 1333.17 801.285 C 1333.24 800.535 1366.65 759.846 1369.99 755.59 C 1379.79 743.07 1396.8 728.331 1409.88 718.79 C 1414.07 715.683 1418.37 712.731 1422.78 709.941 z" fill="rgb(231,123,54)" transform="translate(0,0)"></path>
<path d="M 715.154 217.526 C 756.627 217.175 761.693 270.767 722.309 277.194 C 709.085 277.209 700.9 275.929 692.66 263.616 C 687.297 255.209 686.019 248.066 688.108 238.473 C 689.473 232.207 691.962 231.607 695.268 226.29 C 698.754 220.684 708.902 218.671 715.154 217.526 z" fill="rgb(75,37,25)" transform="translate(0,0)"></path>
<path d="M 550.437 218.138 C 561.078 216.005 572.044 219.757 579.147 227.961 C 586.251 236.165 588.395 247.555 584.762 257.781 C 581.128 268.007 572.278 275.49 561.59 277.372 C 545.333 280.236 529.797 269.489 526.742 253.266 C 523.688 237.044 534.252 221.383 550.437 218.138 z" fill="rgb(75,37,25)" transform="translate(0,0)"></path>
<path d="M 1256.84 1879.18 C 1283.25 1874.71 1276.54 1912.65 1273.07 1928.02 L 1270.61 1938.42 C 1270.47 1938.96 1270.33 1939.49 1270.18 1940.03 L 1269.15 1944.04 C 1266.96 1952.87 1266.23 1951.51 1257.25 1947.55 C 1252.49 1946.11 1239.4 1939.22 1236.73 1938.72 C 1234 1934.23 1236.24 1924.46 1236.53 1918.63 C 1237.18 1905.48 1243.91 1887.02 1255.23 1880.19 L 1256.84 1879.18 z" fill="rgb(75,37,25)" transform="translate(0,0)"></path>
<path d="M 432.077 1231.72 C 436.753 1239.76 439.682 1246.71 443.582 1255.14 L 443.405 1257.79 C 439.933 1255.48 440.994 1255.72 436.65 1254.78 C 435.054 1247.17 433.687 1239.41 432.077 1231.72 z" fill="rgb(180,75,31)" transform="translate(0,0)"></path>
<path d="M 683.21 237.391 C 682.89 233.548 681.492 228.847 681.768 225.715 C 681.91 224.11 691.378 225.751 691.156 226.505 C 690.659 228.194 686.278 236.458 685.392 238.759 C 684.237 243.281 683.057 240.234 683.21 237.391 z" fill="rgb(231,123,54)" transform="translate(0,0)"></path>
<path d="M 683.21 237.391 C 683.932 237.854 684.66 238.311 685.392 238.759 C 684.237 243.281 683.057 240.234 683.21 237.391 z" fill="rgb(180,75,31)" transform="translate(0,0)"></path>
<path d="M 588.498 238.713 C 585.121 232.639 579.895 227.129 591.137 226.88 C 593.909 226.819 591.12 235.956 590.844 237.867 L 588.498 238.713 z" fill="rgb(231,123,54)" transform="translate(0,0)"></path>
<path d="M 652.419 1561.21 C 653.343 1555.02 654.699 1551.26 656.453 1545.4 C 655.615 1552.2 655.215 1558.44 654.486 1565.12 L 652.419 1561.21 z" fill="rgb(193,194,203)" transform="translate(0,0)"></path>
<path d="M 590.844 237.867 C 591.024 240.907 591.135 243.076 591.592 246.092 C 590.824 247.519 590.072 248.955 589.335 250.399 C 589.165 246.217 589.187 242.886 588.498 238.713 L 590.844 237.867 z" fill="rgb(201,97,40)" transform="translate(0,0)"></path>
<metadata><recraft-signature>{"signed_by": "recraft", "signature_b64": "zNmCjN11oQkKfJSpe5l4nrq6u8nXrbW0TGRrSA8TVyCCU53YYT6tLv3aMs0uPLvtxUSp38sjUlRrItVFZZ+BDg==", "signing_algo": "Ed25519", "generation_timestamp": 1778557459, "identifier": "b51b3504-93f5-4a6f-b2b5-60313b6171dd"}</recraft-signature></metadata></svg>