<svg xmlns="http://www.w3.org/2000/svg" height="1024" preserveAspectRatio="none" style="display: block;" version="1.1" viewBox="0 0 2048 2048" width="1024">
<defs>
	<linearGradient gradientUnits="userSpaceOnUse" id="Gradient1" x1="519.397" x2="536.867" y1="1345.66" y2="1296.96">
		<stop class="stop0" offset="0" stop-color="rgb(255,198,150)" stop-opacity="1"></stop>
		<stop class="stop1" offset="1" stop-color="rgb(254,226,187)" stop-opacity="1"></stop>
	</linearGradient>
	<linearGradient gradientUnits="userSpaceOnUse" id="Gradient2" x1="912.218" x2="920.421" y1="180.324" y2="463.755">
		<stop class="stop0" offset="0" stop-color="rgb(143,49,62)" stop-opacity="1"></stop>
		<stop class="stop1" offset="1" stop-color="rgb(206,49,75)" stop-opacity="1"></stop>
	</linearGradient>
	<linearGradient gradientUnits="userSpaceOnUse" id="Gradient3" x1="1659.72" x2="1639.85" y1="599.771" y2="585.965">
		<stop class="stop0" offset="0" stop-color="rgb(8,23,33)" stop-opacity="1"></stop>
		<stop class="stop1" offset="1" stop-color="rgb(16,47,73)" stop-opacity="1"></stop>
	</linearGradient>
	<linearGradient gradientUnits="userSpaceOnUse" id="Gradient4" x1="997.814" x2="999.175" y1="254.653" y2="384.347">
		<stop class="stop0" offset="0" stop-color="rgb(242,183,134)" stop-opacity="1"></stop>
		<stop class="stop1" offset="1" stop-color="rgb(208,182,141)" stop-opacity="1"></stop>
	</linearGradient>
	<linearGradient gradientUnits="userSpaceOnUse" id="Gradient5" x1="1051.35" x2="1050.86" y1="291.32" y2="405.693">
		<stop class="stop0" offset="0" stop-color="rgb(234,176,134)" stop-opacity="1"></stop>
		<stop class="stop1" offset="1" stop-color="rgb(217,188,138)" stop-opacity="1"></stop>
	</linearGradient>
	<linearGradient gradientUnits="userSpaceOnUse" id="Gradient6" x1="404.32" x2="1835.91" y1="1310.55" y2="799.126">
		<stop class="stop0" offset="0" stop-color="rgb(21,23,23)" stop-opacity="1"></stop>
		<stop class="stop1" offset="1" stop-color="rgb(11,42,71)" stop-opacity="1"></stop>
	</linearGradient>
</defs>

<path d="M 1314.68 172.39 C 1321.41 168.583 1337.09 158.583 1342.95 156.267 C 1349.47 159.256 1347.4 162.789 1348.43 168.831 C 1349.73 176.52 1349.02 233.126 1352.09 235.781 L 1355.32 235.103 C 1363.86 242.263 1346.21 268.887 1376.7 262.492 C 1376.19 267.588 1376.86 264.768 1374.48 268.748 C 1378.04 269.974 1378.07 270.218 1380.93 272.711 C 1383.17 270.792 1385.37 268.996 1387.59 267.025 C 1390.81 263.673 1391.46 265.031 1395.35 266.057 L 1395.67 268.066 C 1407.9 272.734 1420.12 275.851 1433 278.113 C 1434.12 278.309 1434.74 278.494 1435.81 278.853 C 1478.18 284.627 1518.64 289.307 1561.25 282.012 C 1567.87 280.878 1578.77 277.102 1584.84 279.247 L 1585.7 280.46 C 1583.41 293.372 1575.8 315.315 1572.16 329.288 C 1563.5 363.023 1555.67 396.965 1548.66 431.082 C 1524.08 558.941 1508.48 688.364 1501.98 818.403 C 1507.63 819.596 1513.2 820.658 1518.94 821.424 C 1590.3 830.958 1652.77 768.677 1682.82 708.6 C 1655.39 703.464 1635.38 695.319 1613 678.039 C 1611.03 676.515 1603.88 670.982 1602.81 669.676 C 1599.11 666.672 1594.3 663.365 1593.75 658.488 L 1595.11 656.836 C 1603.4 651.949 1611.44 647.85 1618.69 641.396 C 1658.09 606.333 1679.24 566.35 1684.14 514.648 C 1683.52 484.39 1678.67 455.809 1655.8 433.977 C 1652.41 430.708 1648.59 427.908 1644.46 425.651 C 1640.36 423.365 1631.47 421.409 1630.38 417.486 C 1637.3 406.303 1658.25 396.224 1670.79 392.99 C 1687.65 388.64 1708.02 390.564 1722.87 399.873 C 1750.18 416.995 1747.59 450.402 1754.44 453.771 C 1758.39 455.713 1766.64 454.377 1770.73 453.51 C 1786.73 450.119 1802.69 441.675 1817.84 435.512 C 1861.95 417.567 1910.74 407.811 1953.31 434.879 C 1968.15 444.313 1991.31 460.483 1994.86 478.756 C 1996.74 488.416 1992.9 496.701 1987.36 504.378 C 1984.37 508.529 1977.37 515.79 1978.66 521.292 C 1980.28 528.206 1989.39 529.668 1993.33 534.456 C 2023.41 549.292 2009.8 577.607 1994.69 595.916 C 1990.14 601.419 1999.71 613.672 2002.79 618.636 C 2011.43 627.492 2013.85 629.707 2024.74 635.323 C 2020.72 644.324 2014.13 651.918 2008.85 659.776 C 1996.73 677.788 1983.57 691.413 1961.13 678.539 C 1936.92 664.646 1922.85 659.112 1894.84 660.639 C 1847.59 670.4 1829.72 709.452 1826.12 754.338 C 1825.76 758.742 1827.78 778.124 1822.7 778.533 C 1808.08 777.474 1794.11 765.495 1784.47 756.053 C 1776.26 748.013 1770.51 736.687 1763.68 731.207 L 1762.49 731.368 C 1755.48 741.756 1748.75 756.588 1742.43 768.083 C 1724.56 800.606 1693.04 841.648 1662.33 863.055 C 1620.01 900.406 1555.55 912.48 1500.97 904.18 C 1501.19 920.28 1502.58 936.726 1503.76 952.808 C 1512.04 1064.98 1527.03 1176.75 1558.09 1285.09 C 1560.73 1294.29 1577.64 1340 1576.26 1344.77 C 1565.46 1351.28 1521.23 1342.84 1508.76 1339.93 C 1495.82 1336.91 1478.82 1330.2 1466.09 1325.08 C 1454.94 1337.49 1451.21 1351.86 1446.78 1367.46 C 1446.49 1368.51 1445.35 1369.03 1444.46 1369.39 C 1426.38 1361.84 1423.03 1360.31 1403.02 1363.91 C 1380.93 1373.28 1372.37 1389.23 1366.11 1411.29 C 1362.04 1409.9 1359.78 1409.34 1355.8 1407.49 C 1336.53 1402.79 1322.98 1400.4 1302.93 1401.37 C 1302.95 1430.84 1303.5 1460.66 1308.4 1489.83 C 1309.26 1494.92 1311.5 1500.77 1310.54 1505.78 C 1307.41 1508.41 1290.85 1499.29 1284.96 1497.18 C 1266.34 1490.52 1247.41 1484.75 1228.24 1479.9 C 1228.66 1488.22 1229.81 1505.02 1229.18 1512.85 C 1230.1 1520.98 1230.05 1538.81 1229.83 1547.39 C 1231.55 1570.07 1230.15 1611.25 1229.96 1635.4 C 1270.38 1646.17 1290.36 1665.5 1267.67 1707.6 C 1279.28 1718.5 1293.05 1720.13 1306.81 1727.04 C 1335.57 1716.42 1357.9 1715.66 1387.2 1726.42 C 1413.3 1736.12 1434.38 1755.95 1445.66 1781.41 C 1459.24 1811.66 1458.54 1838.65 1447.21 1869.02 C 1407.27 1903.48 1300.54 1895.03 1255.24 1872.36 C 1236.15 1862.8 1213.53 1846.54 1194.45 1835.28 C 1191.28 1846.04 1189.86 1854.94 1187.94 1865.96 C 1183.7 1867.71 1179.09 1869.03 1174.7 1870.41 C 1165.93 1868.05 1109.93 1853.04 1105.96 1846.96 C 1099.2 1831.26 1103.69 1803 1101.5 1787.4 C 1097.58 1759.51 1098.18 1730.85 1118.9 1708.9 C 1101.46 1678.03 1110.76 1644.51 1147.11 1636.05 C 1145.13 1577.41 1139.67 1516.06 1135.07 1457.53 C 1064.36 1441.96 987.135 1432.96 915.242 1425.42 C 906.871 1489.41 903.122 1569.63 900.122 1633.78 C 938.796 1642.64 951.734 1672.13 933.939 1707.49 C 938.919 1713.83 941.817 1718.1 946.596 1728.09 C 956.548 1748.87 949.037 1828.03 945.676 1845.46 C 944.584 1851.13 888.742 1866.4 876.831 1870.22 L 862.623 1865.92 C 859.657 1855.49 856.432 1844.97 853.334 1834.56 C 836.238 1845.77 817.942 1860.58 799.634 1869.68 C 752.391 1893.15 680.249 1897.54 629.973 1881.55 C 621.223 1878.63 606.708 1872.78 603.424 1863.43 C 571.318 1771.98 655.697 1690.46 745.808 1726.38 C 760.489 1720.11 772.238 1715.73 785.57 1706.88 C 762.307 1666.07 780.848 1648.26 818.939 1634.31 C 817.047 1567.62 818.602 1486.42 823.942 1420.3 C 773.567 1418.18 723.105 1419.8 672.97 1425.15 C 660.665 1426.58 648.404 1428.37 636.202 1430.5 C 628.982 1431.8 608.483 1436.45 603.084 1436.09 C 599.964 1434.2 599.292 1431.53 597.727 1428.11 C 591.912 1428.06 586.102 1427.77 580.312 1427.22 C 542.02 1423.51 502.554 1409.72 476.995 1379.38 C 447.973 1344.94 465.497 1311.85 476.553 1273.7 C 485.387 1242.83 493.947 1211.89 502.231 1180.88 C 521.585 1108.06 535.008 1033.8 542.367 958.817 C 505.408 960.357 478.403 961.389 442.7 947.063 C 364.173 915.554 322.624 850.902 290.297 777.515 C 274.763 794.173 256.822 810.859 235.147 818.92 C 232.858 818.336 230.631 817.726 228.289 817.379 C 227.115 814.386 231.597 813.58 234.491 812.466 C 242.326 809.452 244.282 810.757 250.029 804.249 C 268.945 791.898 271.362 785.916 287.203 772.612 C 317.177 748.65 353.414 728.549 391.734 722.777 C 407.781 720.36 411.295 728.389 412.199 742.032 C 437.094 731.058 447.363 722.801 463.942 702.13 C 447.694 697.573 438.058 691.834 425.743 680.459 L 428.803 678.606 C 445.53 690.178 452.52 693.648 471.929 699.548 C 471.199 701.082 470.392 702.577 469.512 704.029 C 447.675 739.828 411.065 751.322 373.155 760.68 C 396.355 817.346 453.159 878.316 519.053 875.64 C 528.73 875.247 537.531 873.796 547.025 872.087 C 550.875 758.074 540.216 644.035 515.305 532.711 C 509.472 507.9 502.85 483.281 495.448 458.892 C 486 428.762 470.753 410.584 494.133 381.618 C 525.488 342.768 597.211 279.658 648.673 319.03 C 843.589 227.235 1060.81 268.563 1260.02 195.762 C 1278.77 188.907 1296.55 180.763 1314.68 172.39 z" fill="url(#Gradient6)" transform="translate(0,0)"></path>
<path d="M 582.546 425.177 C 604.335 367.602 650.919 349.29 705.389 331.591 C 787.894 305.69 873.244 289.921 959.557 284.633 C 1061.7 277.375 1167.16 277.419 1264.22 240.497 C 1276.74 235.732 1296.97 225.085 1308.88 222.53 C 1313.01 223.805 1311.19 222.737 1314.28 226.25 L 1312.55 236.756 C 1308.59 249.827 1310.8 260.703 1318.7 271.577 C 1326.11 266.328 1332.13 261.506 1339.19 255.83 C 1342.17 253.102 1345.58 249.489 1349.19 247.951 L 1350.46 248.804 L 1350.11 252.708 C 1350.98 253.727 1350.78 253.612 1351.94 254.194 C 1357.86 263.482 1362.51 272.265 1374.48 268.748 C 1378.04 269.974 1378.07 270.218 1380.93 272.711 C 1383.17 270.792 1385.37 268.996 1387.59 267.025 C 1385.53 277.998 1381.58 294.323 1388.24 303.816 C 1392.53 309.916 1395.29 310.114 1401.48 313.286 C 1411.07 315.678 1437.74 295.842 1445.81 290.431 C 1447.22 293.117 1446.42 294.505 1446.09 298.163 L 1445.61 300.735 C 1442.5 316.383 1439.36 328.325 1447.6 342.696 L 1448.93 344.253 C 1458.05 340.961 1462.76 338.695 1471.27 333.917 C 1477.59 354.649 1493.33 351.117 1510.02 345.959 C 1496.61 387.323 1488.99 446 1482.86 489.382 C 1472.02 563.77 1464.13 638.558 1459.2 713.57 C 1457.35 741.738 1455.06 774.149 1454.83 802.304 L 1450.88 800.534 C 1443.43 797.367 1437.3 792.597 1430.95 787.661 L 1427.75 785.302 C 1418.91 778.893 1414.79 766.332 1398.19 755.214 L 1394.36 753.314 C 1383.62 748.126 1373.07 750.767 1362.23 753.439 L 1358.04 756.027 C 1354.47 757.355 1343.12 765.743 1339.36 768.467 C 1340.59 657.247 1334.8 545.989 1341.79 434.94 C 1342.46 424.377 1344.99 405.609 1343.96 395.642 C 1338.64 392.603 1325.73 398.221 1319.51 399.378 C 1304.89 402.101 1290.11 405.136 1275.29 406.615 C 1129.6 421.154 982.001 391.509 836.007 398.331 C 797.333 400.152 758.78 403.983 720.504 409.808 C 697.226 413.392 671.357 418.748 648.126 423.541 C 618.163 429.722 613.791 431.309 582.546 425.177 z" fill="rgb(9,46,81)" transform="translate(0,0)"></path>
<path d="M 1466.51 341.365 L 1468.49 340.91 C 1476.48 348.65 1476.83 353.294 1490.9 353.861 C 1495.37 354.041 1502.12 351.983 1506.59 350.708 C 1491.7 393.227 1483.6 453.542 1477.25 498.51 C 1466.74 570.951 1459.25 643.797 1454.8 716.861 C 1453.17 743.196 1450.89 774.327 1450.88 800.534 C 1443.43 797.367 1437.3 792.597 1430.95 787.661 L 1427.75 785.302 C 1427.13 738.129 1430.26 683.378 1432.32 635.939 C 1434.6 581.241 1438.36 526.614 1443.6 472.119 C 1447.74 431.078 1451.25 396.707 1461.12 356.765 C 1461.9 354.368 1462.24 352.312 1462.95 349.862 C 1463.53 347.308 1464.33 344.816 1464.9 342.256 L 1466.51 341.365 z" fill="rgb(9,46,81)" transform="translate(0,0)"></path>
<path d="M 1461.12 356.765 C 1461.44 358.294 1461.77 359.819 1462.12 361.34 C 1454.78 399.59 1450.95 436.548 1447.3 475.258 C 1441.14 543.713 1436.94 612.33 1434.7 681.024 C 1433.65 704.219 1432.86 727.424 1432.33 750.636 C 1432.03 760.449 1431.96 778.416 1430.95 787.661 L 1427.75 785.302 C 1427.13 738.129 1430.26 683.378 1432.32 635.939 C 1434.6 581.241 1438.36 526.614 1443.6 472.119 C 1447.74 431.078 1451.25 396.707 1461.12 356.765 z" fill="rgb(232,182,130)" transform="translate(0,0)"></path>
<path d="M 1466.51 341.365 C 1465.93 344.344 1465.12 348.42 1464.2 351.273 L 1462.95 349.862 C 1463.53 347.308 1464.33 344.816 1464.9 342.256 L 1466.51 341.365 z" fill="rgb(64,73,83)" transform="translate(0,0)"></path>
<path d="M 1462.95 349.862 L 1464.2 351.273 C 1463.67 354.66 1462.98 358.02 1462.12 361.34 C 1461.77 359.819 1461.44 358.294 1461.12 356.765 C 1461.9 354.368 1462.24 352.312 1462.95 349.862 z" fill="rgb(126,123,121)" transform="translate(0,0)"></path>
<path d="M 1471.27 333.917 C 1477.59 354.649 1493.33 351.117 1510.02 345.959 C 1496.61 387.323 1488.99 446 1482.86 489.382 C 1472.02 563.77 1464.13 638.558 1459.2 713.57 C 1457.35 741.738 1455.06 774.149 1454.83 802.304 L 1450.88 800.534 C 1450.89 774.327 1453.17 743.196 1454.8 716.861 C 1459.25 643.797 1466.74 570.951 1477.25 498.51 C 1483.6 453.542 1491.7 393.227 1506.59 350.708 C 1502.12 351.983 1495.37 354.041 1490.9 353.861 C 1476.83 353.294 1476.48 348.65 1468.49 340.91 L 1466.51 341.365 L 1464.9 342.256 C 1426.16 358.192 1405.25 362.519 1364.29 371.323 C 1252.34 395.386 1143.45 392.544 1030.19 385.065 C 959.994 380.43 888.917 374.693 818.509 379.863 C 770.457 383.391 719.763 394.275 673.347 407.357 L 672.584 405.365 C 679.844 404.112 704.852 395.626 714.245 393.213 C 749.889 383.765 786.392 377.917 823.204 375.758 C 890.862 372.112 964.899 376.989 1032.78 381.491 C 1173.98 390.855 1311.87 390.616 1447.81 345.283 L 1448.93 344.253 C 1458.05 340.961 1462.76 338.695 1471.27 333.917 z" fill="rgb(232,182,130)" transform="translate(0,0)"></path>
<path d="M 1350.11 252.708 C 1350.98 253.727 1350.78 253.612 1351.94 254.194 C 1357.86 263.482 1362.51 272.265 1374.48 268.748 C 1378.04 269.974 1378.07 270.218 1380.93 272.711 C 1383.17 270.792 1385.37 268.996 1387.59 267.025 C 1385.53 277.998 1381.58 294.323 1388.24 303.816 C 1392.53 309.916 1395.29 310.114 1401.48 313.286 L 1399.3 315.683 C 1378.38 308.417 1379.71 298.313 1379.92 278.483 C 1368.57 287.419 1351.54 301.659 1338.38 307.401 C 1255.11 343.737 1152.29 338.819 1063.31 339.176 C 1012.65 339.379 964.588 338.549 914.504 341.464 C 848.377 345.221 782.913 356.668 719.434 375.573 C 703.109 380.317 680.12 387.176 664.469 393.412 L 662.583 391.901 C 794.745 335.204 917.123 331.973 1057.98 333.993 C 1143.73 335.222 1271.18 338.713 1347.26 296.729 C 1338.24 282.706 1338.12 283.637 1341.5 266.001 C 1342.77 261.145 1345.78 255.409 1350.11 252.708 z" fill="rgb(232,182,130)" transform="translate(0,0)"></path>
<path d="M 1350.11 252.708 C 1350.98 253.727 1350.78 253.612 1351.94 254.194 C 1357.86 263.482 1362.51 272.265 1374.48 268.748 C 1378.04 269.974 1378.07 270.218 1380.93 272.711 C 1369.47 283.185 1359.17 288.489 1347.26 296.729 C 1338.24 282.706 1338.12 283.637 1341.5 266.001 C 1342.77 261.145 1345.78 255.409 1350.11 252.708 z" fill="rgb(9,46,81)" transform="translate(0,0)"></path>
<path d="M 1401.48 313.286 C 1411.07 315.678 1437.74 295.842 1445.81 290.431 C 1447.22 293.117 1446.42 294.505 1446.09 298.163 L 1445.61 300.735 C 1442.5 316.383 1439.36 328.325 1447.6 342.696 L 1444.35 342.345 C 1434.65 328.396 1438.24 316.87 1440.65 300.762 C 1318.92 383.409 1079.36 351.295 935.296 355.158 C 867.827 356.753 800.752 365.941 735.34 382.55 C 721.367 386.089 671.06 399.438 658.257 405.641 L 655.565 403.822 C 660.124 402.828 667.021 399.753 671.573 397.992 C 711.959 382.368 754.478 371.31 797.116 363.415 C 939.441 337.063 1084.25 358.762 1227.68 351.61 C 1278.89 349.057 1330.65 342.537 1379.05 324.847 C 1383.71 323.141 1396.58 318.51 1399.3 315.683 L 1401.48 313.286 z" fill="url(#Gradient5)" transform="translate(0,0)"></path>
<path d="M 1314.28 226.25 L 1312.55 236.756 C 1308.59 249.827 1310.8 260.703 1318.7 271.577 L 1316.34 273.83 C 1305.06 266.185 1306.38 252.453 1306.61 240.382 C 1245.84 300.546 1085.78 296.482 1003.99 302.484 C 945.376 306.785 899.663 309.185 840.122 319.595 C 791.13 328.066 743.027 341.052 696.427 358.387 C 677.1 365.745 658.183 375.791 639.425 382.56 C 665.128 364.756 699.965 351.329 729.394 341.289 C 828.908 307.339 929.765 301.281 1033.63 295.395 C 1113.89 290.846 1240.34 291.546 1303.75 237.055 C 1305.43 234.984 1312.13 228.446 1314.28 226.25 z" fill="rgb(232,182,130)" transform="translate(0,0)"></path>
<path d="M 1339.19 255.83 C 1342.17 253.102 1345.58 249.489 1349.19 247.951 L 1350.46 248.804 L 1350.11 252.708 C 1345.78 255.409 1342.77 261.145 1341.5 266.001 C 1339.92 265.507 1338.47 264.951 1336.92 264.373 C 1326.44 272.206 1309.7 284.902 1297.85 289.781 C 1203.89 328.449 1090.27 319.549 990.501 322.226 C 943.556 322.679 897.315 325.276 850.756 331.683 C 799.562 338.727 751.263 352.739 702.401 369.075 C 685.894 374.594 663.848 385.614 648.495 389.699 L 647.957 388.951 C 664.505 377.077 708.584 361.976 727.884 355.05 C 846.402 312.515 971.29 317.899 1094.99 315.903 C 1170.04 314.692 1249.65 311.504 1316.34 273.83 L 1318.7 271.577 C 1326.11 266.328 1332.13 261.506 1339.19 255.83 z" fill="url(#Gradient4)" transform="translate(0,0)"></path>
<path d="M 1415.36 371.699 L 1417.59 371.234 C 1410.72 396.607 1407.08 442.805 1405.06 469.137 C 1397.8 563.84 1398.71 660.168 1398.19 755.214 L 1394.36 753.314 C 1395.74 662.061 1392.96 570.964 1400.73 479.987 C 1403.67 445.52 1406.57 405.174 1415.36 371.699 z" fill="rgb(232,182,130)" transform="translate(0,0)"></path>
<path d="M 1372.31 388.741 L 1374.53 388.099 C 1369.76 404.808 1365.92 442.05 1364.63 459.878 C 1357.69 556.407 1359.93 656.728 1362.23 753.439 L 1358.04 756.027 C 1356.26 723.644 1356.41 679.605 1356.45 646.812 C 1356.56 568.492 1354.62 464.453 1372.31 388.741 z" fill="rgb(232,182,130)" transform="translate(0,0)"></path>
<path d="M 1336.92 264.373 C 1338.47 264.951 1339.92 265.507 1341.5 266.001 C 1338.12 283.637 1338.24 282.706 1347.26 296.729 C 1331.69 291.78 1335.45 277.399 1336.92 264.373 z" fill="rgb(232,182,130)" transform="translate(0,0)"></path>
<path d="M 673.347 407.357 C 671.22 408.271 660.822 411.628 658.718 411.124 L 658.689 410.878 C 659.403 409.458 670.335 406.286 672.584 405.365 L 673.347 407.357 z" fill="rgb(126,123,121)" transform="translate(0,0)"></path>
<path d="M 1372.31 388.741 C 1373.03 385.035 1374.48 378.631 1377.1 375.707 C 1377.81 374.915 1377.7 377.15 1377.57 377.56 C 1376.46 381.091 1375.28 384.463 1374.53 388.099 L 1372.31 388.741 z" fill="rgb(161,156,148)" transform="translate(0,0)"></path>
<path d="M 664.469 393.412 C 663.487 393.754 653.884 397.664 653.281 396.462 L 653.774 396.363 L 653.732 395.907 C 656.073 394.366 659.906 392.866 662.583 391.901 L 664.469 393.412 z" fill="rgb(126,123,121)" transform="translate(0,0)"></path>
<path d="M 1415.36 371.699 C 1415.68 369.935 1416.24 365.613 1418.16 364.816 C 1419.03 365.217 1417.74 370.331 1417.59 371.234 L 1415.36 371.699 z" fill="rgb(126,123,121)" transform="translate(0,0)"></path>
<path d="M 658.257 405.641 C 657.633 405.743 653.895 406.59 653.546 405.526 C 653.668 404.93 654.182 404.71 654.669 404.406 L 655.565 403.822 L 658.257 405.641 z" fill="rgb(126,123,121)" transform="translate(0,0)"></path>
<path d="M 1447.6 342.696 L 1448.93 344.253 L 1447.81 345.283 C 1446.61 344.294 1445.51 343.386 1444.35 342.345 L 1447.6 342.696 z" fill="rgb(126,123,121)" transform="translate(0,0)"></path>
<path d="M 1684.14 514.648 C 1683.52 484.39 1678.67 455.809 1655.8 433.977 C 1652.41 430.708 1648.59 427.908 1644.46 425.651 C 1640.36 423.365 1631.47 421.409 1630.38 417.486 C 1637.3 406.303 1658.25 396.224 1670.79 392.99 C 1687.65 388.64 1708.02 390.564 1722.87 399.873 C 1750.18 416.995 1747.59 450.402 1754.44 453.771 C 1758.39 455.713 1766.64 454.377 1770.73 453.51 C 1786.73 450.119 1802.69 441.675 1817.84 435.512 C 1861.95 417.567 1910.74 407.811 1953.31 434.879 C 1968.15 444.313 1991.31 460.483 1994.86 478.756 C 1996.74 488.416 1992.9 496.701 1987.36 504.378 C 1984.37 508.529 1977.37 515.79 1978.66 521.292 C 1980.28 528.206 1989.39 529.668 1993.33 534.456 C 2023.41 549.292 2009.8 577.607 1994.69 595.916 C 1990.14 601.419 1999.71 613.672 2002.79 618.636 C 2011.43 627.492 2013.85 629.707 2024.74 635.323 C 2020.72 644.324 2014.13 651.918 2008.85 659.776 C 1996.73 677.788 1983.57 691.413 1961.13 678.539 C 1936.92 664.646 1922.85 659.112 1894.84 660.639 C 1890.9 657.895 1886.54 657.993 1881.92 658.861 C 1865.29 661.983 1848.63 676.168 1839.76 690.12 C 1823.88 715.128 1825.19 761.959 1819.51 769.995 C 1818.88 770.881 1818.8 770.959 1817.69 771.082 C 1815.33 771.343 1813.45 770.213 1811.36 769.298 L 1807.35 767.544 C 1787.35 754.643 1781.97 745.452 1768.79 727.518 C 1748.08 700.209 1715.63 681.486 1681.85 676.367 C 1662.7 673.465 1653.41 670.814 1650.4 693.481 C 1635.11 687.378 1621.64 674.391 1607.85 667.295 L 1611.81 673.158 L 1611.21 673.53 C 1608.72 672.047 1606.86 670.573 1604.57 668.84 L 1602.81 669.676 C 1599.11 666.672 1594.3 663.365 1593.75 658.488 L 1595.11 656.836 C 1603.4 651.949 1611.44 647.85 1618.69 641.396 C 1658.09 606.333 1679.24 566.35 1684.14 514.648 z" fill="rgb(9,46,81)" transform="translate(0,0)"></path>
<path d="M 2000.93 659.073 C 1985.16 647.85 1970.68 626.652 1966.72 607.395 C 1963.77 594.612 1974.3 586.979 1980.79 577.976 C 1999.05 552.609 1977.97 537.646 1957.33 525.626 C 1953.15 523.19 1950.18 520.123 1949.29 515.297 C 1953.06 497.251 1982.06 495.914 1974.99 458.13 C 1981.53 465.141 1986.18 469.873 1988.79 479.675 C 1993.51 497.394 1970.02 506.155 1972.62 521.221 C 1974.09 529.685 1988.62 537.917 1995.81 542.581 C 2001.68 548.564 2004.28 549.231 2005.24 557.987 C 2007.21 575.925 1993.7 582.688 1987.49 595.796 C 1981.74 609.346 2006.84 631.372 2016.89 637.632 C 2011.58 645.55 2007.14 651.836 2000.93 659.073 z" fill="rgb(232,182,130)" transform="translate(0,0)"></path>
<path d="M 1995.34 552.654 C 1997.94 554.924 1996.95 555.718 1997.18 559.245 C 1997.62 566.144 1996.5 569.492 1993.58 575.373 C 1990.72 581.116 1978.2 591.654 1978.18 597.485 C 1978.12 614.883 1991.48 631.167 2003.93 642.075 C 2004.68 642.719 2004.33 643.698 2004.22 644.356 C 1990.55 636.48 1984.04 627.174 1977.25 613.409 C 1967.63 593.902 1984.71 588.544 1992.22 573.07 C 1995.28 566.772 1995.04 559.56 1995.34 552.654 z" fill="rgb(31,28,25)" transform="translate(0,0)"></path>
<path d="M 1963.39 510.046 C 1969.52 502.334 1975.74 496.017 1979.25 486.775 C 1979.85 485.175 1981.31 481.206 1982.11 481.378 C 1985.39 482.077 1978.8 494.386 1978.32 495.227 C 1974.78 501.522 1969.6 505.751 1964.85 510.909 L 1963.39 510.046 z" fill="rgb(31,28,25)" transform="translate(0,0)"></path>
<path d="M 1963.39 510.046 L 1964.85 510.909 C 1964 512.212 1961.28 518.826 1960.38 518.63 L 1960.17 518.285 C 1960.01 515.215 1961.71 512.482 1963.39 510.046 z" fill="rgb(93,70,54)" transform="translate(0,0)"></path>
<path d="M 1684.14 514.648 C 1698.31 534.686 1664.34 600.477 1649.1 617.755 C 1636.22 632.358 1616.66 657.622 1595.11 656.836 C 1603.4 651.949 1611.44 647.85 1618.69 641.396 C 1658.09 606.333 1679.24 566.35 1684.14 514.648 z" fill="url(#Gradient3)" transform="translate(0,0)"></path>
<path d="M 1993.33 534.456 C 2023.41 549.292 2009.8 577.607 1994.69 595.916 C 1990.14 601.419 1999.71 613.672 2002.79 618.636 C 1998.37 617.446 1997.67 614.199 1994.97 610.033 C 1984.65 594.115 2003.46 586.818 2006.65 573.057 C 2006.58 572.892 2006.51 572.727 2006.44 572.561 C 2002.5 575.813 1990.4 597.139 1987.49 595.796 C 1993.7 582.688 2007.21 575.925 2005.24 557.987 C 2004.28 549.231 2001.68 548.564 1995.81 542.581 C 1995.92 542.48 1996.48 541.835 1996.84 541.781 C 1997.36 541.703 1998.19 542.577 1998.5 542.878 C 2001.02 545.329 2005.49 549.285 2006.06 553.001 C 2006.17 553.739 2006.1 553.897 2006.33 554.523 C 2006.63 555.345 2007.06 556.178 2007.23 557.052 C 2007.52 558.495 2008.06 560.068 2008.24 561.501 C 2008.35 562.282 2008.37 563.058 2008.61 563.813 C 2008.67 564.029 2008.65 563.986 2008.81 564.055 L 2009.1 563.865 L 2008.93 563.122 L 2009.58 562.878 C 2012.27 556.555 2003.63 541.039 1997.25 538.968 C 1996.17 538.617 1993.85 535.932 1993.33 534.456 z" fill="rgb(18,27,33)" transform="translate(0,0)"></path>
<path d="M 1645.39 412.81 C 1666.33 398.03 1692.01 391.127 1715.07 402.824 C 1738.06 414.488 1740.5 429.609 1743.66 451.457 C 1745.19 462.037 1761.78 466.267 1772.25 462.832 C 1794.49 455.536 1816.95 442.71 1839.44 435.142 C 1878.03 420.117 1946.65 416.551 1967.66 461.493 C 1976.27 479.932 1950.24 497.686 1942.5 510.34 C 1930.65 529.704 1978.23 537.206 1980.57 555.313 C 1983.02 570.372 1965.43 584.809 1959.06 596.741 C 1959.22 599.346 1959.47 601.945 1959.78 604.536 C 1962.61 628.302 1979 649.205 1997.25 663.66 C 1993.48 668.233 1989.87 671.634 1985.63 675.759 C 1960.98 658.966 1937.82 618.947 1951.38 587.404 C 1953.6 582.234 1960.52 574.854 1963.49 568.973 C 1975.56 545.111 1948.57 540.582 1937.08 526.511 C 1934.66 523.495 1933.61 519.73 1932.48 516.165 C 1938.41 489.974 1970.89 469.364 1936.63 446.693 C 1898.51 421.349 1852.03 435.308 1813.44 451.833 C 1792.49 460.801 1751 486.808 1739 453.046 C 1736.68 446.5 1736.39 438.442 1733.8 431.718 C 1723.26 404.392 1696.93 400.001 1671.66 405.294 L 1675.38 408.013 C 1752.23 411.886 1718.29 452.112 1740.29 472.041 C 1748.53 479.508 1760.16 476.838 1770.34 476.528 C 1761.77 485.588 1748.86 482.049 1739.68 476.774 C 1718.97 464.883 1733.01 440.614 1718.68 427.47 C 1701.21 411.44 1667.41 412.838 1645.39 412.81 z" fill="rgb(232,182,130)" transform="translate(0,0)"></path>
<path d="M 1675.38 408.013 C 1673.77 408.042 1667.88 408.447 1666.73 407.355 C 1666.93 405.95 1670.55 405.512 1671.66 405.294 L 1675.38 408.013 z" fill="rgb(93,70,54)" transform="translate(0,0)"></path>
<path d="M 1895.95 644.401 C 1922.34 640.968 1950.66 654.079 1969.48 671.897 C 1951.16 663.316 1939.18 653.468 1917.66 649.832 C 1895.07 646.05 1871.9 651.45 1853.31 664.83 C 1822.82 686.768 1813.61 717.701 1807.81 753.071 C 1801.59 747.365 1791.98 734.213 1785.92 727.227 C 1759.81 697.147 1739.47 677.489 1702.24 662.74 C 1681.58 655.417 1658.65 652.711 1637.71 660.531 C 1633.96 661.932 1623.07 668.136 1620 667.384 C 1620.49 666.704 1620.87 666.093 1621.6 665.58 C 1660.32 638.356 1714.07 654.94 1748.21 681.961 C 1768.52 698.04 1788.16 719.302 1804.1 740.194 C 1812.84 689.694 1842.93 650.167 1895.95 644.401 z" fill="rgb(232,182,130)" transform="translate(0,0)"></path>
<path d="M 1858.72 449.284 C 1882.15 442.073 1930.82 440.498 1939.24 470.528 C 1944.05 491.309 1919.33 500 1923.49 520.646 C 1927 538.042 1963.37 547.596 1952.05 566.608 C 1943.36 581.193 1924.73 586.027 1931.97 609.653 C 1934.3 617.268 1939.76 627.482 1941.61 635.21 C 1932.54 623.458 1925.42 611.408 1926.01 595.66 C 1926.77 575.531 1958.76 569.077 1944.64 551.398 C 1934.18 539.853 1915.95 531.902 1918.33 513.195 C 1920.33 497.425 1942.63 479.793 1928.89 463.249 C 1914.81 446.299 1882.05 448.329 1863.33 451.449 L 1858.72 449.284 z" fill="rgb(232,182,130)" transform="translate(0,0)"></path>
<path d="M 1662.16 424.748 C 1681.88 428.88 1695.73 462.22 1699.04 479.724 C 1707.1 522.299 1693.8 571.81 1669.98 607.171 L 1667.94 607.795 C 1665.26 599.825 1737.94 498.969 1662.16 424.748 z" fill="rgb(232,182,130)" transform="translate(0,0)"></path>
<path d="M 1665.32 626.323 C 1719.65 616.669 1780.01 664.894 1808.48 706.604 C 1803.78 703.308 1801.65 700.9 1797.73 696.838 C 1794.86 693.756 1791.92 690.747 1788.9 687.814 C 1755.71 655.125 1714.96 626.629 1666.13 629.436 C 1659.93 629.793 1653.86 629.961 1647.65 630.017 C 1654.43 628.163 1658.36 627.397 1665.32 626.323 z" fill="rgb(232,182,130)" transform="translate(0,0)"></path>
<path d="M 1920.18 586.58 C 1921.42 589.71 1920.19 608.324 1917.26 610.612 C 1914.09 601.343 1913.98 594.45 1920.18 586.58 z" fill="rgb(232,182,130)" transform="translate(0,0)"></path>
<path d="M 1843.78 454.938 C 1847.95 453.127 1854.54 449.864 1858.72 449.284 L 1863.33 451.449 C 1856.85 452.797 1850.33 453.972 1843.78 454.938 z" fill="rgb(188,155,121)" transform="translate(0,0)"></path>
<path d="M 1338.46 857.107 C 1344.66 863.445 1352.56 872.374 1361.11 874.325 L 1361.28 875.378 C 1362.07 875.181 1362.96 874.985 1363.73 874.746 L 1364.55 879.878 C 1363.32 878.41 1392.01 900.462 1391.49 900.182 L 1392.21 887.163 L 1394.08 886.655 C 1394.07 892.332 1393.95 898.381 1394.22 904.022 C 1396.45 907.887 1408.79 916.645 1412.37 921.413 C 1414.46 924.2 1419.01 927.2 1422.66 927.718 L 1423.42 926.834 C 1424.4 927.988 1425.38 928.985 1426.43 930.076 L 1426.97 938.873 C 1436.74 941.335 1441.82 953.626 1452.65 959.878 L 1453.04 962.067 L 1454.99 963.791 L 1455.24 972.73 C 1460.9 975.021 1464.06 978.114 1468.78 981.968 C 1468.98 993.918 1469.58 1006.05 1470.32 1017.98 C 1476.22 1114.17 1483.82 1213.49 1514.89 1305.31 C 1500.62 1302.3 1490.77 1301.45 1476.93 1308.57 C 1458.91 1317.85 1454.63 1334.84 1444.14 1350.83 L 1444.23 1353.26 C 1446.97 1352.69 1445.65 1353.14 1448.02 1350.48 C 1449.54 1354.87 1446.07 1362.88 1444.46 1367.6 L 1444.46 1369.39 C 1426.38 1361.84 1423.03 1360.31 1403.02 1363.91 C 1380.93 1373.28 1372.37 1389.23 1366.11 1411.29 C 1362.04 1409.9 1359.78 1409.34 1355.8 1407.49 C 1358.59 1405.19 1362.27 1410.06 1365.25 1406.82 C 1365.2 1406.44 1365.28 1406.69 1364.79 1406 C 1363.99 1405.43 1363.19 1404.86 1362.38 1404.29 C 1345.74 1396.03 1321.4 1395.03 1303.07 1394.66 C 1302.53 1320.55 1310.51 1244.44 1317.26 1170.6 C 1319.72 1143.7 1324.08 1116.04 1326.7 1089.04 C 1334.54 1011.98 1338.46 934.566 1338.46 857.107 z" fill="rgb(9,46,81)" transform="translate(0,0)"></path>
<path d="M 1394.22 904.022 C 1396.45 907.887 1408.79 916.645 1412.37 921.413 C 1414.46 924.2 1419.01 927.2 1422.66 927.718 C 1423.57 938.302 1422.91 954.31 1422.64 965.186 L 1421.18 1024.82 C 1419.88 1084.65 1420.55 1144.51 1423.2 1204.3 C 1425.13 1243.79 1428.65 1282.37 1435.66 1321.28 C 1436.47 1325.79 1438.19 1336.37 1437.46 1340.42 L 1437.31 1340.74 L 1436.32 1340.93 C 1421.43 1320.42 1405.17 1322.18 1390.39 1341.65 C 1385.32 1309.69 1384.43 1256.88 1383.86 1223.78 C 1382 1117 1394.01 1010.79 1394.22 904.022 z" fill="rgb(9,46,81)" transform="translate(0,0)"></path>
<path d="M 1392.21 887.163 L 1394.08 886.655 C 1394.07 892.332 1393.95 898.381 1394.22 904.022 C 1394.01 1010.79 1382 1117 1383.86 1223.78 C 1384.43 1256.88 1385.32 1309.69 1390.39 1341.65 C 1405.17 1322.18 1421.43 1320.42 1436.32 1340.93 L 1437.31 1340.74 L 1437.46 1340.42 C 1438.19 1336.37 1436.47 1325.79 1435.66 1321.28 C 1428.65 1282.37 1425.13 1243.79 1423.2 1204.3 C 1420.55 1144.51 1419.88 1084.65 1421.18 1024.82 L 1422.64 965.186 C 1422.91 954.31 1423.57 938.302 1422.66 927.718 L 1423.42 926.834 C 1424.4 927.988 1425.38 928.985 1426.43 930.076 L 1426.97 938.873 C 1425.48 1060.68 1421.2 1182.86 1436.19 1304.09 C 1437.62 1315.68 1439.23 1327.39 1440.49 1338.99 C 1441.11 1342.46 1441.1 1350.65 1441.21 1354.53 C 1435.18 1345.05 1428.95 1333.72 1417.12 1330.97 C 1402.8 1327.63 1393.35 1340.72 1391.24 1353.31 C 1364.2 1363.62 1363.42 1373.21 1343.63 1386.83 C 1356.83 1368.87 1367.31 1359.15 1387.4 1350.58 C 1372.31 1250.87 1380.85 1104.19 1386.46 1004.13 C 1387.7 985.262 1388.65 966.376 1389.31 947.478 C 1389.74 934.25 1389.88 913.024 1391.49 900.182 L 1392.21 887.163 z" fill="rgb(232,182,130)" transform="translate(0,0)"></path>
<path d="M 1361.28 875.378 C 1362.07 875.181 1362.96 874.985 1363.73 874.746 L 1364.55 879.878 C 1358.65 1037.47 1330.94 1196.44 1341.4 1354.47 C 1341.97 1363.12 1344.19 1371.97 1343.96 1380.66 L 1343.39 1380.49 C 1336.79 1357.02 1336.27 1330.14 1335.62 1305.76 C 1333.23 1214.2 1342.22 1122.48 1349.76 1031.3 C 1354.04 979.541 1356.04 926.934 1361.28 875.378 z" fill="rgb(232,182,130)" transform="translate(0,0)"></path>
<path d="M 1453.04 962.067 L 1454.99 963.791 L 1455.24 972.73 C 1457.27 1057.41 1463.9 1214.03 1498.45 1291.53 L 1496.93 1293.58 C 1456.74 1203.16 1450.85 1061.06 1453.04 962.067 z" fill="rgb(232,182,130)" transform="translate(0,0)"></path>
<path d="M 1397.63 1360.13 C 1400.49 1361.08 1401.9 1360.96 1403.02 1363.91 C 1380.93 1373.28 1372.37 1389.23 1366.11 1411.29 C 1362.04 1409.9 1359.78 1409.34 1355.8 1407.49 C 1358.59 1405.19 1362.27 1410.06 1365.25 1406.82 C 1365.2 1406.44 1365.28 1406.69 1364.79 1406 C 1363.99 1405.43 1363.19 1404.86 1362.38 1404.29 C 1364.83 1402.8 1365.32 1401.75 1366.94 1399.34 C 1373.2 1376.13 1377.35 1371.47 1397.63 1360.13 z" fill="rgb(10,34,54)" transform="translate(0,0)"></path>
<path d="M 1397.63 1360.13 C 1404.98 1359.53 1409.65 1361.23 1416.59 1359.93 C 1424.66 1358.42 1437.48 1363.7 1444.46 1367.6 L 1444.46 1369.39 C 1426.38 1361.84 1423.03 1360.31 1403.02 1363.91 C 1401.9 1360.96 1400.49 1361.08 1397.63 1360.13 z" fill="rgb(10,34,54)" transform="translate(0,0)"></path>
<path d="M 1498.45 1291.53 C 1499.97 1296.65 1500.28 1301.49 1496.93 1293.58 L 1498.45 1291.53 z" fill="rgb(161,156,148)" transform="translate(0,0)"></path>
<path d="M 1445.61 300.735 C 1452.49 304.828 1453.14 310.917 1459.11 316.17 C 1469.87 325.627 1509.11 326.2 1521.47 323.008 C 1523.16 322.567 1524.85 322.096 1526.52 321.593 L 1527.41 322.131 C 1520 365.618 1508.09 408.814 1501.19 453.82 C 1487.09 546.104 1476.94 638.947 1470.76 732.096 C 1469.02 757.942 1469.35 783.042 1467.77 807.936 C 1463.2 806.084 1459.32 804.45 1454.83 802.304 C 1455.06 774.149 1457.35 741.738 1459.2 713.57 C 1464.13 638.558 1472.02 563.77 1482.86 489.382 C 1488.99 446 1496.61 387.323 1510.02 345.959 C 1493.33 351.117 1477.59 354.649 1471.27 333.917 C 1462.76 338.695 1458.05 340.961 1448.93 344.253 L 1447.6 342.696 C 1439.36 328.325 1442.5 316.383 1445.61 300.735 z" fill="rgb(9,46,81)" transform="translate(0,0)"></path>
<path d="M 1153.02 1606.34 L 1154.08 1606.02 C 1162.66 1603.29 1171.08 1601.08 1178.93 1596.49 C 1194.12 1587.62 1207.49 1579.58 1223.8 1572.83 L 1224.07 1577.74 C 1226.3 1605.28 1220.83 1635.14 1222.84 1662.42 C 1195.98 1672.03 1179.6 1670.26 1153.1 1659.46 C 1152.52 1651.91 1151.7 1616.45 1153.17 1609.89 L 1153.02 1606.34 z" fill="rgb(9,46,81)" transform="translate(0,0)"></path>
<path d="M 1153.02 1606.34 L 1154.08 1606.02 C 1162.66 1603.29 1171.08 1601.08 1178.93 1596.49 C 1194.12 1587.62 1207.49 1579.58 1223.8 1572.83 L 1224.07 1577.74 C 1203.14 1587.8 1173.77 1610.04 1153.17 1609.89 L 1153.02 1606.34 z" fill="rgb(232,182,130)" transform="translate(0,0)"></path>
<path d="M 1153.02 1606.34 C 1152.7 1605.17 1145.3 1501.54 1144.69 1504.03 L 1146.76 1503.46 C 1149.84 1504.68 1150.33 1504.55 1152.33 1507.22 L 1154.78 1509.7 C 1175.67 1534.96 1192.16 1541.69 1223.26 1547.68 C 1223.18 1550.17 1223.14 1551.51 1223.36 1553.98 C 1224.1 1559.23 1223.41 1571.04 1223.8 1572.83 C 1207.49 1579.58 1194.12 1587.62 1178.93 1596.49 C 1171.08 1601.08 1162.66 1603.29 1154.08 1606.02 L 1153.02 1606.34 z" fill="rgb(9,46,81)" transform="translate(0,0)"></path>
<path d="M 1223.36 1553.98 C 1222.07 1553.7 1220.78 1553.44 1219.49 1553.2 C 1198.36 1549.44 1155.8 1530.86 1152.33 1507.22 L 1154.78 1509.7 C 1175.67 1534.96 1192.16 1541.69 1223.26 1547.68 C 1223.18 1550.17 1223.14 1551.51 1223.36 1553.98 z" fill="rgb(232,182,130)" transform="translate(0,0)"></path>
<path d="M 1154.78 1509.7 C 1164.59 1508.28 1174.03 1513.1 1183.99 1515.29 L 1187.99 1516.18 C 1203.97 1519.6 1208.43 1518.94 1224.3 1520.09 C 1225.37 1520.24 1227.2 1520.82 1228.23 1520.38 C 1228.82 1519.61 1229.01 1514.22 1229.18 1512.85 C 1230.1 1520.98 1230.05 1538.81 1229.83 1547.39 C 1228.29 1544.99 1228.34 1542.79 1226.98 1541.61 C 1226.24 1545.04 1226.31 1545.79 1223.26 1547.68 C 1192.16 1541.69 1175.67 1534.96 1154.78 1509.7 z" fill="rgb(9,46,81)" transform="translate(0,0)"></path>
<path d="M 1229.18 1512.85 C 1230.1 1520.98 1230.05 1538.81 1229.83 1547.39 C 1228.29 1544.99 1228.34 1542.79 1226.98 1541.61 C 1224.29 1533.7 1226.23 1528.66 1224.3 1520.09 C 1225.37 1520.24 1227.2 1520.82 1228.23 1520.38 C 1228.82 1519.61 1229.01 1514.22 1229.18 1512.85 z" fill="rgb(10,34,54)" transform="translate(0,0)"></path>
<path d="M 1807.35 767.544 L 1811.36 769.298 C 1813.45 770.213 1815.33 771.343 1817.69 771.082 C 1818.8 770.959 1818.88 770.881 1819.51 769.995 C 1825.19 761.959 1823.88 715.128 1839.76 690.12 C 1848.63 676.168 1865.29 661.983 1881.92 658.861 C 1886.54 657.993 1890.9 657.895 1894.84 660.639 C 1847.59 670.4 1829.72 709.452 1826.12 754.338 C 1825.76 758.742 1827.78 778.124 1822.7 778.533 C 1808.08 777.474 1794.11 765.495 1784.47 756.053 C 1776.26 748.013 1770.51 736.687 1763.68 731.207 L 1762.49 731.368 C 1755.48 741.756 1748.75 756.588 1742.43 768.083 C 1724.56 800.606 1693.04 841.648 1662.33 863.055 C 1662.73 858.54 1686.75 840.421 1691.47 835.198 C 1712.2 812.227 1729.69 788.577 1744.14 761.153 C 1749.65 750.691 1754.47 739.754 1760.4 730.117 C 1761.48 729.638 1764.12 728.4 1765.14 729.618 C 1774.47 740.851 1808.14 783.901 1824.39 775.451 C 1823.84 771.009 1823.61 767.745 1823.44 763.267 L 1821.99 764.31 C 1823.88 776.511 1815.43 772.763 1807.96 768.979 L 1807.35 767.544 z" fill="rgb(18,27,33)" transform="translate(0,0)"></path>
<path d="M 1395.67 268.066 C 1407.9 272.734 1420.12 275.851 1433 278.113 C 1434.12 278.309 1434.74 278.494 1435.81 278.853 C 1433.99 280.466 1433.1 280.054 1430.76 279.685 L 1429 279.419 C 1424.87 278.769 1398.69 271.199 1397.27 271.518 C 1398.04 272.839 1398.82 274.16 1399.6 275.481 C 1400.08 275.424 1400.59 275.019 1401.01 274.754 C 1400.73 274.75 1431.13 283.558 1432.78 284.137 L 1429.6 284.47 C 1440.6 286.765 1433.11 288.118 1427.06 291.831 L 1425.97 292.808 C 1419.04 299.125 1410.88 296.366 1404.18 290.736 C 1398.48 285.94 1397.35 283.552 1397.08 276.531 C 1396.99 274.199 1395.36 271.8 1395.67 268.066 z" fill="rgb(18,27,33)" transform="translate(0,0)"></path>
<path d="M 1400.14 277.018 C 1402.07 277.554 1404.08 278.164 1406.01 278.648 L 1410.01 279.641 C 1416.65 281.228 1423.02 282.581 1429.6 284.47 C 1440.6 286.765 1433.11 288.118 1427.06 291.831 C 1411.61 296.036 1410.09 288.379 1400.14 277.018 z" fill="rgb(197,54,75)" transform="translate(0,0)"></path>
<path d="M 1312.55 236.756 C 1321.71 230.299 1321.05 255.695 1330.04 250.094 C 1336.21 246.251 1338.16 250.715 1339.19 255.83 C 1332.13 261.506 1326.11 266.328 1318.7 271.577 C 1310.8 260.703 1308.59 249.827 1312.55 236.756 z" fill="rgb(9,46,81)" transform="translate(0,0)"></path>
<path d="M 1314.68 172.39 C 1321.41 168.583 1337.09 158.583 1342.95 156.267 C 1349.47 159.256 1347.4 162.789 1348.43 168.831 C 1349.73 176.52 1349.02 233.126 1352.09 235.781 L 1355.32 235.103 C 1363.86 242.263 1346.21 268.887 1376.7 262.492 C 1376.19 267.588 1376.86 264.768 1374.48 268.748 C 1362.51 272.265 1357.86 263.482 1351.94 254.194 C 1355.4 249.814 1358.18 242.168 1354.6 237.308 L 1351.26 238.707 L 1349.79 238.071 C 1348.04 231.872 1348.75 223.649 1348.3 217.106 C 1347.09 199.771 1348.44 175.87 1345.42 159.184 C 1337.88 157.64 1327.54 169.375 1316.61 173.344 L 1314.68 172.39 z" fill="rgb(18,27,33)" transform="translate(0,0)"></path>
<path d="M 1423.42 926.834 C 1423.68 923.432 1423.89 905.742 1425.27 904.941 C 1425.35 904.993 1425.43 905.045 1425.5 905.097 C 1425.37 905.536 1425.24 905.975 1425.11 906.415 L 1425.84 906.724 C 1425.81 914.116 1426.22 922.656 1426.43 930.076 C 1425.38 928.985 1424.4 927.988 1423.42 926.834 z" fill="rgb(210,209,209)" transform="translate(0,0)"></path>
<path d="M 1452.65 959.878 C 1452.7 957.107 1452.44 942.891 1453.62 941.738 C 1453.74 941.753 1453.87 941.767 1453.99 941.782 L 1453.86 942.244 C 1455.51 943.74 1455.05 960.547 1454.99 963.791 L 1453.04 962.067 L 1452.65 959.878 z" fill="rgb(126,123,121)" transform="translate(0,0)"></path>
<path d="M 1361.11 874.325 C 1361.59 872.165 1361.9 864.304 1363.32 863.661 L 1363.48 863.725 C 1364.32 865.819 1364.08 872.403 1363.73 874.746 C 1362.96 874.985 1362.07 875.181 1361.28 875.378 L 1361.11 874.325 z" fill="rgb(188,155,121)" transform="translate(0,0)"></path>
<path d="M 1392.21 887.163 C 1392.23 886.315 1391.95 883.519 1393.19 883.416 C 1394.07 884.182 1393.94 885.603 1394.08 886.655 L 1392.21 887.163 z" fill="rgb(126,123,121)" transform="translate(0,0)"></path>
<path d="M 1333.64 402.1 L 1335.84 401.94 C 1337.97 405.177 1335.5 424.49 1335.25 429.698 C 1334.2 451.16 1333.4 472.634 1332.86 494.114 C 1330.62 591.895 1333.27 689.804 1332.81 787.595 C 1333.09 804.512 1332.73 821.562 1333.11 838.47 C 1337.29 1027.47 1295.72 1213.34 1295.75 1402.13 C 1295.76 1434.93 1299.11 1463.75 1301.37 1496.21 C 1265.28 1481.6 1238.7 1474.87 1201.38 1465.1 C 1115.33 1442.59 1027.69 1430.28 939.305 1421.22 C 884.307 1415.59 827.159 1411.42 771.895 1411.94 C 727.039 1412.07 682.268 1415.86 638.028 1423.27 L 605.337 1428.98 C 601.774 1417.26 598.93 1403.22 600.2 1390.92 C 603.184 1362.04 610.008 1332.18 616.165 1303.85 C 621.026 1280.83 625.532 1257.74 629.683 1234.58 C 641.991 1167.04 650.913 1084.83 656.416 1016.29 C 662.614 936.904 665.605 857.299 665.381 777.671 C 665.135 737.23 664.849 695.891 662.268 655.51 C 657.672 581.024 646.124 507.129 627.775 434.792 C 741.402 405.029 843.587 399.793 960.044 404.874 C 1068.89 409.622 1229.12 430.209 1333.64 402.1 z" fill="rgb(197,54,75)" transform="translate(0,0)"></path>
<path d="M 851.665 433.432 C 863.216 432.589 875.752 433.065 887.345 432.875 C 965.411 431.597 1043.15 438.787 1120.97 443.799 C 1163.36 446.529 1206.85 449.924 1249.29 447.87 C 1267.37 446.995 1287.2 443.534 1305.16 440.465 C 1304.81 464.701 1301.74 494.609 1300.5 519.624 C 1298.77 559.21 1297.99 598.833 1298.18 638.456 C 1298.19 759.869 1304.29 894.788 1296.77 1015.07 C 1293.05 1074.64 1287.81 1134.1 1281.04 1193.4 C 1270.46 1285.16 1258.67 1364.48 1257.86 1457.94 C 1207.62 1439.36 1133 1424.33 1080.23 1412.83 C 930.906 1385.54 773.424 1367.04 622.862 1396.74 C 628.444 1365.99 632.272 1332.37 637.034 1301.23 C 644.096 1255.05 652.062 1207.11 657.489 1160.81 C 667.029 1075.66 672.882 990.15 675.032 904.503 C 679.159 770.523 682.564 582.621 641.35 455.387 C 708.35 442.929 783.809 436.585 851.665 433.432 z" fill="rgb(249,167,119)" transform="translate(0,0)"></path>
<path d="M 850.722 448.449 C 866.97 447.641 886.524 447.916 903.014 447.916 C 942.641 447.917 982.259 449.068 1021.82 451.37 C 1086.3 455.396 1149 461.82 1214.05 463.971 C 1213.78 510.89 1236.37 545.904 1283.82 554.414 C 1282.59 577.051 1283 600.074 1282.44 622.736 C 1280.16 715.745 1286.27 809.987 1284.88 902.695 C 1283.2 1014.97 1272.84 1129.85 1259.56 1241.22 C 1256.14 1271.75 1252.5 1302.25 1248.64 1332.73 C 1196.39 1334.39 1158.98 1361.13 1144.11 1411.84 L 1092.3 1400.16 C 979.095 1379.14 861.913 1362.15 746.424 1367.86 C 740.134 1319.09 703.884 1284.13 656.943 1273.24 C 664.74 1230.17 670.422 1180.98 675.26 1137.38 C 691.57 987.204 696.656 836.019 690.477 685.084 C 688.66 647.15 686.612 596.092 680.535 559.719 C 727.535 539.17 751.014 505.164 755.203 453.779 C 786.993 451.204 818.843 449.427 850.722 448.449 z" fill="rgb(197,54,75)" transform="translate(0,0)"></path>
<path d="M 711.826 780.884 C 704.744 724.359 737.417 670.373 790.778 650.429 C 844.139 630.486 904.212 649.809 935.939 697.122 C 967.666 744.435 962.738 807.346 924.031 849.141 C 921.474 856.338 917.456 860.075 911.975 865.219 C 854.089 919.531 749.68 904.123 718.893 827.84 C 713.49 814.453 708.656 792.356 709.145 777.964 L 710.232 777.2 L 710.809 782.665 L 711.826 780.884 z" fill="rgb(18,27,33)" transform="translate(0,0)"></path>
<path d="M 924.031 849.141 C 921.474 856.338 917.456 860.075 911.975 865.219 C 854.089 919.531 749.68 904.123 718.893 827.84 C 713.49 814.453 708.656 792.356 709.145 777.964 L 710.232 777.2 L 710.809 782.665 L 711.826 780.884 C 717.769 828.317 750.666 868.005 796.174 882.643 C 841.682 897.282 891.549 884.215 924.031 849.141 z" fill="rgb(152,44,62)" transform="translate(0,0)"></path>
<path d="M 882.946 869.494 C 854.069 881.303 825.048 884.776 795.091 873.905 C 765.596 863.403 741.482 841.613 728.054 813.33 C 715.631 785.866 714.453 754.629 724.772 726.307 C 748.819 660.841 815.083 636.044 878.749 659.861 C 908.023 673.888 922.491 688.11 938.392 716.725 C 903.266 680.623 861.473 673.41 817.564 699.294 C 825.379 697.804 826.379 697.471 834.393 697.871 C 854.936 704.305 851.563 706.607 856.296 724.644 C 857.882 730.687 872.097 731.661 867.185 741.324 C 865.782 744.615 864.33 746.117 861.14 747.58 C 856.925 747.918 854.112 745.77 850.379 743.619 C 845.448 746.073 842.54 750.233 837.457 751.987 C 819.669 758.127 805.466 747.002 800.869 730.23 L 800.402 728.487 C 800.638 724.727 801.202 720.44 801.681 716.683 L 800.857 716.157 L 797.605 720.039 C 782.199 743.275 776.105 767.551 781.698 795.339 C 786.804 819.557 801.392 840.724 822.207 854.115 C 829.493 858.832 835.797 861.669 843.958 864.4 C 856.201 866.976 866.335 868.537 878.94 867.515 L 882.946 869.494 z" fill="rgb(255,255,255)" transform="translate(0,0)"></path>
<path d="M 882.946 869.494 C 854.069 881.303 825.048 884.776 795.091 873.905 C 765.596 863.403 741.482 841.613 728.054 813.33 C 715.631 785.866 714.453 754.629 724.772 726.307 C 748.819 660.841 815.083 636.044 878.749 659.861 C 871.591 661.337 857.555 657.526 849.155 657.297 C 718.246 653.727 693.205 834.042 821.676 863.446 C 827.349 864.744 838.655 867.9 843.958 864.4 C 856.201 866.976 866.335 868.537 878.94 867.515 L 882.946 869.494 z" fill="rgb(210,209,209)" transform="translate(0,0)"></path>
<path d="M 834.393 697.871 C 839.886 692.053 855.943 690.436 863.88 690.216 C 886.604 689.651 908.605 698.222 924.957 714.012 C 958.979 746.652 956.101 805.493 924.153 838.489 C 892.852 870.817 842.922 866.492 812.048 835.724 C 795.871 819.819 786.93 797.973 787.314 775.29 C 787.435 764.616 792.096 736.686 800.869 730.23 C 805.466 747.002 819.669 758.127 837.457 751.987 C 842.54 750.233 845.448 746.073 850.379 743.619 C 854.112 745.77 856.925 747.918 861.14 747.58 C 864.33 746.117 865.782 744.615 867.185 741.324 C 872.097 731.661 857.882 730.687 856.296 724.644 C 851.563 706.607 854.936 704.305 834.393 697.871 z" fill="rgb(9,46,81)" transform="translate(0,0)"></path>
<path d="M 926.914 812.636 C 911.756 819.614 896.738 806.259 899.138 793.999 C 902.834 775.114 923.607 771.25 934.322 788.371 C 936.977 799.213 936.686 805.831 926.914 812.636 z" fill="rgb(255,255,255)" transform="translate(0,0)"></path>
<path d="M 934.322 788.371 C 936.977 799.213 936.686 805.831 926.914 812.636 C 927.698 810.903 931.611 804.907 931.55 804.328 C 931.499 804.321 931.448 804.314 931.397 804.307 C 931.016 804.294 930.635 804.28 930.255 804.267 C 930.374 804.922 934.17 788.893 934.322 788.371 z" fill="rgb(243,241,242)" transform="translate(0,0)"></path>
<path d="M 878.94 867.515 C 879.816 867.36 887.489 865.911 887.51 867.249 C 886.883 868.331 884.055 869.141 882.946 869.494 L 878.94 867.515 z" fill="rgb(189,188,189)" transform="translate(0,0)"></path>
<path d="M 1130.65 644.637 C 1197.73 642.045 1254.25 694.252 1256.97 761.328 C 1259.7 828.405 1207.6 885.024 1140.53 887.88 C 1073.27 890.745 1016.46 838.472 1013.73 771.208 C 1011 703.945 1063.38 647.237 1130.65 644.637 z" fill="rgb(18,27,33)" transform="translate(0,0)"></path>
<path d="M 1139.56 697.227 C 1144.98 696.036 1146.7 693.838 1152.39 692.924 C 1191.81 686.592 1239.18 704.743 1247.29 747.953 C 1249.51 759.785 1252.49 782.637 1246.34 792.927 C 1247.38 799.341 1244.95 805.828 1239.95 809.979 C 1241.07 811.515 1243 813.407 1241.85 815.561 C 1193.81 905.89 1073.34 847.609 1093.62 754.793 C 1094.85 749.195 1102.69 724.154 1106.62 721.564 C 1110.37 721.619 1108.61 721.081 1111.85 723.868 C 1112.14 722.731 1112.4 721.59 1112.65 720.444 C 1113.91 714.339 1114.96 712.506 1118.31 707.235 L 1116.95 705.423 C 1119.48 703.206 1121.75 701.492 1124.4 699.472 L 1125.95 701.108 C 1132.95 698.124 1132.56 698.552 1139.56 697.227 z" fill="rgb(9,46,81)" transform="translate(0,0)"></path>
<path d="M 1139.56 697.227 C 1144.16 697.905 1148.11 697.878 1152.51 699.971 C 1161.56 704.26 1167.64 714.03 1168.09 723.971 C 1168.16 727.975 1167.51 728.566 1171.47 729.946 C 1183.34 734.076 1175.1 753.361 1164.18 746.658 C 1159.78 743.959 1159.21 747.167 1154.21 749.525 C 1131.16 760.383 1114.85 747.731 1111.85 723.868 C 1112.14 722.731 1112.4 721.59 1112.65 720.444 C 1113.91 714.339 1114.96 712.506 1118.31 707.235 L 1116.95 705.423 C 1119.48 703.206 1121.75 701.492 1124.4 699.472 L 1125.95 701.108 C 1132.95 698.124 1132.56 698.552 1139.56 697.227 z" fill="rgb(255,255,255)" transform="translate(0,0)"></path>
<path d="M 1124.4 699.472 L 1125.95 701.108 C 1122.6 703.551 1121.35 704.353 1118.31 707.235 L 1116.95 705.423 C 1119.48 703.206 1121.75 701.492 1124.4 699.472 z" fill="rgb(31,28,25)" transform="translate(0,0)"></path>
<path d="M 1239.95 809.979 C 1233.55 815.293 1224.38 815.637 1217.61 810.818 C 1210.83 806 1208.14 797.224 1211.06 789.436 C 1213.97 781.648 1221.76 776.797 1230.04 777.615 C 1238.31 778.434 1245 784.718 1246.34 792.927 C 1247.38 799.341 1244.95 805.828 1239.95 809.979 z" fill="rgb(255,255,255)" transform="translate(0,0)"></path>
<path d="M 1181.95 870.348 L 1181.09 870.689 C 1150.35 882.78 1118.75 884.113 1088.09 870.53 C 1060.89 858.609 1039.55 836.364 1028.76 808.697 C 1017.62 779.555 1018.62 747.164 1031.54 718.766 C 1044.45 691.219 1067.64 669.825 1096.13 659.166 C 1124.82 648.546 1154.35 649.487 1182.15 662.327 C 1205.02 673.026 1220.12 685.606 1233.53 707.301 C 1209.8 690.23 1187.8 680.931 1157.87 685.835 C 1145.84 687.845 1134.41 692.503 1124.4 699.472 C 1121.75 701.492 1119.48 703.206 1116.95 705.423 C 1098.38 720.502 1086.56 740.106 1084.69 764.049 C 1080.86 813.23 1103.04 844.746 1146.53 863.318 C 1147.38 863.513 1148.23 863.708 1149.07 863.902 C 1156.9 865.764 1166.46 868.028 1174.55 868.028 C 1176.45 868.014 1183.99 867.669 1185.34 868.508 L 1185.42 868.649 C 1184.99 869.82 1182.96 870.114 1181.95 870.348 z" fill="rgb(255,255,255)" transform="translate(0,0)"></path>
<path d="M 1181.95 870.348 L 1181.09 870.689 C 1150.35 882.78 1118.75 884.113 1088.09 870.53 C 1060.89 858.609 1039.55 836.364 1028.76 808.697 C 1017.62 779.555 1018.62 747.164 1031.54 718.766 C 1044.45 691.219 1067.64 669.825 1096.13 659.166 C 1124.82 648.546 1154.35 649.487 1182.15 662.327 C 1174.91 663.389 1159.53 659.479 1151.3 659.164 C 1082.45 656.53 1036.24 707.086 1042.38 775.331 C 1044.76 801.852 1055.64 822.347 1076.3 839.015 C 1091.31 850.883 1113.13 863.912 1132.49 865.094 C 1138.94 864.666 1141.04 865.758 1146.53 863.318 C 1147.38 863.513 1148.23 863.708 1149.07 863.902 C 1156.9 865.764 1166.46 868.028 1174.55 868.028 C 1176.45 868.014 1183.99 867.669 1185.34 868.508 L 1185.42 868.649 C 1184.99 869.82 1182.96 870.114 1181.95 870.348 z" fill="rgb(210,209,209)" transform="translate(0,0)"></path>
<path d="M 1146.53 863.318 C 1147.38 863.513 1148.23 863.708 1149.07 863.902 C 1143.28 867.012 1139.15 866.441 1132.49 865.094 C 1138.94 864.666 1141.04 865.758 1146.53 863.318 z" fill="rgb(243,241,242)" transform="translate(0,0)"></path>
<path d="M 1174.55 868.028 C 1176.45 868.014 1183.99 867.669 1185.34 868.508 L 1185.42 868.649 C 1184.99 869.82 1182.96 870.114 1181.95 870.348 C 1179.03 868.686 1177.91 868.778 1174.55 868.028 z" fill="rgb(189,188,189)" transform="translate(0,0)"></path>
<path d="M 769.131 1001.5 L 772.471 1003.53 C 769.111 1004.62 764.892 1007.26 761.723 1009.07 C 790.687 1040.46 865.418 1076.71 906.637 1087.73 C 1011.64 1115.81 1114.36 1095.91 1195.81 1022.56 L 1195.46 1022.29 C 1189.26 1017.26 1185.07 1015.2 1177.99 1011.34 C 1198.32 1014.19 1208.64 1019.62 1216.08 1039.35 C 1211.59 1034.99 1206.35 1030.55 1201.61 1026.36 C 1196.81 1050.24 1188.73 1074.65 1176.01 1095.99 C 1114.1 1199.89 953.426 1212.31 856.576 1154.45 C 801.346 1121.46 772.235 1074.66 757.166 1013.29 C 751.852 1016.87 747.476 1020.37 741.837 1023.96 C 749.617 1010.13 754.268 1006.41 769.131 1001.5 z" fill="rgb(18,27,33)" transform="translate(0,0)"></path>
<path d="M 883.075 1087.62 C 899.085 1093.68 915.63 1098.23 932.492 1101.2 L 937.992 1102.16 C 949.908 1104.2 961.524 1105.61 973.446 1107.37 C 963.876 1131.71 953.858 1162.3 921.914 1164.27 C 895.046 1161.62 884.72 1129.11 883.932 1106.18 C 882.486 1099.59 883.011 1094.38 883.075 1087.62 z" fill="rgb(255,255,255)" transform="translate(0,0)"></path>
<path d="M 883.075 1087.62 C 899.085 1093.68 915.63 1098.23 932.492 1101.2 L 937.992 1102.16 C 949.908 1104.2 961.524 1105.61 973.446 1107.37 C 963.876 1131.71 953.858 1162.3 921.914 1164.27 C 934.454 1154.18 954.513 1136.43 957.929 1120 L 959.433 1112.75 C 933.242 1108.7 910.576 1105.6 885.383 1096.3 C 883.271 1095.52 883.993 1104.84 883.932 1106.18 C 882.486 1099.59 883.011 1094.38 883.075 1087.62 z" fill="rgb(189,188,189)" transform="translate(0,0)"></path>
<path d="M 983.675 1113.99 C 983.332 1112.45 981.789 1107.24 984.927 1107.26 C 993.785 1107.33 1002.63 1107.34 1011.5 1106.97 C 1023.7 1106.06 1035.89 1104.65 1047.99 1102.89 C 1050.18 1102.58 1052.27 1102.17 1054.49 1101.88 C 1056.13 1101.66 1058.32 1101.24 1060 1100.95 C 1062.88 1100.46 1065.93 1099.84 1068.78 1099.19 L 1069.42 1105.49 C 1071.55 1127.68 1058.37 1174.86 1028.47 1169.36 C 998.631 1160.36 991.158 1141.13 983.675 1113.99 z" fill="rgb(255,255,255)" transform="translate(0,0)"></path>
<path d="M 983.675 1113.99 C 983.332 1112.45 981.789 1107.24 984.927 1107.26 C 993.785 1107.33 1002.63 1107.34 1011.5 1106.97 C 1023.7 1106.06 1035.89 1104.65 1047.99 1102.89 C 1050.18 1102.58 1052.27 1102.17 1054.49 1101.88 C 1056.13 1101.66 1058.32 1101.24 1060 1100.95 C 1062.88 1100.46 1065.93 1099.84 1068.78 1099.19 L 1069.42 1105.49 C 1071.55 1127.68 1058.37 1174.86 1028.47 1169.36 C 1032.73 1167.99 1040.92 1167.21 1043.37 1163.66 C 1051.97 1151.2 1056.99 1126.32 1056.94 1111.89 C 1036.07 1112.52 1003.97 1118.01 983.675 1113.99 z" fill="rgb(189,188,189)" transform="translate(0,0)"></path>
<path d="M 1074.9 1097.7 C 1105.03 1089.1 1112.8 1085.94 1140.6 1071.93 C 1141.58 1089.53 1140.73 1121.75 1125.21 1133.18 L 1124.32 1133.85 C 1111.53 1143.59 1085.45 1115.39 1079.15 1105.19 C 1077.28 1102.57 1076.36 1100.49 1074.9 1097.7 z" fill="rgb(255,255,255)" transform="translate(0,0)"></path>
<path d="M 1074.9 1097.7 C 1105.03 1089.1 1112.8 1085.94 1140.6 1071.93 C 1141.58 1089.53 1140.73 1121.75 1125.21 1133.18 L 1124.32 1133.85 C 1127.49 1122.98 1130.08 1119.42 1130.41 1106.97 C 1130.64 1098.62 1130.79 1093.49 1129.95 1085.05 C 1117.65 1089.58 1106.44 1096.31 1093.59 1099.9 C 1089.37 1101.08 1083.04 1103.15 1079.15 1105.19 C 1077.28 1102.57 1076.36 1100.49 1074.9 1097.7 z" fill="rgb(210,209,209)" transform="translate(0,0)"></path>
<path d="M 805.381 1062.27 C 803.628 1044.53 811.741 1055.17 824.16 1061.58 C 840.865 1070.39 858.059 1078.25 875.658 1085.12 C 867.716 1097.02 858.306 1108.53 844.002 1112.98 C 839.248 1114.46 835.913 1113.74 831.147 1113.89 C 814.51 1102.33 808.288 1081.42 805.381 1062.27 z" fill="rgb(255,255,255)" transform="translate(0,0)"></path>
<path d="M 805.381 1062.27 C 803.628 1044.53 811.741 1055.17 824.16 1061.58 C 840.865 1070.39 858.059 1078.25 875.658 1085.12 C 867.716 1097.02 858.306 1108.53 844.002 1112.98 C 839.248 1114.46 835.913 1113.74 831.147 1113.89 C 845.584 1106.86 851.104 1102.34 860.761 1089.19 C 844.772 1078.74 824.453 1068.63 807.474 1058.39 C 805.975 1058.4 805.731 1061.02 805.381 1062.27 z" fill="rgb(189,188,189)" transform="translate(0,0)"></path>
<path d="M 993.259 817.172 C 1020.6 815.527 1022.63 841.738 1024.74 862.185 C 1026.44 878.803 1026.87 895.131 1026.96 911.815 C 1043.11 915.137 1062.19 921.341 1069.17 937.999 C 1074.41 950.482 1068.98 965.003 1055.61 969.184 C 1038.37 974.575 1021.27 964.623 1006.13 957.301 C 999.602 958.688 996.358 958.968 989.755 959.475 C 980.884 958.738 978.743 957.288 971.595 952.144 C 964.826 955.12 942.548 963.454 936.443 963.358 C 893.749 962.684 907.884 909.048 949.998 908.972 C 955.598 901.349 958.055 899.784 965.784 894.948 C 966.958 876.07 972.134 853.11 977.989 834.966 C 981.176 825.088 984.431 821.32 993.259 817.172 z" fill="rgb(18,27,33)" transform="translate(0,0)"></path>
<path d="M 978.181 893.433 C 968.544 894.669 974.575 889.306 974.256 881.021 C 974.218 880.022 975.496 874.362 975.77 872.974 C 977.707 863.442 979.853 853.954 982.205 844.517 L 982.626 842.953 C 986.056 829.893 991.933 815.719 1007.92 826.774 C 1021.59 848.232 1019.14 893.041 1020.15 918.485 C 1020.65 918.893 1021.16 919.301 1021.66 919.708 C 1031.86 918.383 1045.68 923.726 1053.96 929.52 C 1062.09 935.209 1063.95 941.074 1064.14 950.329 C 1061.41 958.155 1054 964.614 1045.51 964.489 C 1036.16 959.983 1043.79 950.791 1036.54 945.273 C 1024.47 936.092 1008.88 948.11 997.265 951.668 C 995.332 952.26 986.772 951.977 984.528 951.913 C 975.439 946.249 964.708 936.99 953.932 935.921 C 933.809 933.924 942.531 951.064 934.873 957.438 C 928.502 957.804 922.795 953.248 919.375 948.243 C 911.909 928.042 935.667 913.043 953.929 917.164 C 956.39 915.52 956.294 914.192 956.891 911.792 C 963.226 898.954 974.719 897.819 987.914 898.343 L 988.331 897.276 L 987.448 895.61 C 983.609 893.61 982.643 893.798 978.181 893.433 z" fill="rgb(232,182,130)" transform="translate(0,0)"></path>
<path d="M 978.181 893.433 C 968.544 894.669 974.575 889.306 974.256 881.021 C 974.218 880.022 975.496 874.362 975.77 872.974 C 977.707 863.442 979.853 853.954 982.205 844.517 L 982.626 842.953 C 986.056 829.893 991.933 815.719 1007.92 826.774 C 1004.85 829.449 994.58 835.617 993.541 837.153 C 983.401 852.154 982.414 876.384 978.181 893.433 z" fill="rgb(253,239,212)" transform="translate(0,0)"></path>
<path d="M 956.891 911.792 C 963.226 898.954 974.719 897.819 987.914 898.343 C 991.386 900.245 999.212 908.224 996.711 909.98 C 993.517 912.223 959.998 912.092 956.891 911.792 z" fill="rgb(253,239,212)" transform="translate(0,0)"></path>
<path d="M 1021.66 919.708 C 1031.86 918.383 1045.68 923.726 1053.96 929.52 C 1062.09 935.209 1063.95 941.074 1064.14 950.329 L 1063.38 949.525 C 1062.47 948.58 1061.71 947.824 1061.33 946.501 C 1055.81 927.114 1030.06 926.459 1021.66 919.708 z" fill="rgb(253,239,212)" transform="translate(0,0)"></path>
<path d="M 919.375 948.243 C 911.909 928.042 935.667 913.043 953.929 917.164 C 944.888 923.466 929.071 921.958 922.593 935.382 C 920 940.756 921.968 943.355 919.375 948.243 z" fill="rgb(253,239,212)" transform="translate(0,0)"></path>
<path d="M 1024.16 947.847 C 1034.51 948.457 1039.79 962.901 1029.26 959.81 C 1024.03 957.48 1017.54 954.894 1012.14 952.702 C 1016.28 950.968 1019.9 949.361 1024.16 947.847 z" fill="rgb(249,167,119)" transform="translate(0,0)"></path>
<path d="M 953.121 940.906 C 959.241 943.097 960.277 943.773 965.83 947.512 C 961.98 949.002 957.143 950.702 953.244 951.982 C 938.169 957.218 943.629 945.497 953.121 940.906 z" fill="rgb(232,182,130)" transform="translate(0,0)"></path>
<path d="M 769.131 1001.5 C 770.6 1001.28 774.73 1000.52 776.131 1001.36 L 776.188 1001.49 C 775.767 1002.37 773.266 1003.17 772.471 1003.53 L 769.131 1001.5 z" fill="rgb(68,20,30)" transform="translate(0,0)"></path>
<path d="M 655.565 1288.52 C 665.188 1290.37 674.428 1293.84 682.891 1298.79 C 710.677 1315.06 724.687 1338.05 732.741 1368.11 C 726.84 1368.74 718.245 1369.49 712.242 1369.78 C 688.867 1371.48 664.451 1374.59 641.167 1377.69 C 641.732 1374.29 642.263 1370.89 642.866 1367.49 L 644.887 1353.99 C 647.855 1333.2 651.367 1308.99 655.565 1288.52 z" fill="rgb(197,54,75)" transform="translate(0,0)"></path>
<path d="M 1239.59 1348.38 C 1249.26 1346.68 1247.74 1348.62 1246.75 1358.5 C 1244.08 1384.94 1242.66 1411.34 1242.27 1437.93 L 1240.65 1437.36 C 1225.77 1432.01 1202.12 1425.17 1186.72 1421.88 L 1185.02 1421.5 C 1178.19 1419.52 1169.97 1417.36 1163 1416.04 L 1158.79 1415.28 C 1171.44 1374.43 1197.37 1353.71 1239.59 1348.38 z" fill="rgb(197,54,75)" transform="translate(0,0)"></path>
<path d="M 734.382 456.399 C 741.502 454.865 739.158 458.775 738.495 464.505 C 738.094 467.973 737.056 472.119 736.246 475.528 C 734.647 482.398 732.382 489.095 729.483 495.526 C 719.073 518.905 702.508 533.469 678.916 542.548 C 678.25 539.634 677.737 536.705 677.192 533.767 C 672.135 511.729 668.44 489.104 660.727 467.727 L 689.007 463.213 C 699.743 461.517 710.754 459.573 721.505 458.143 L 734.382 456.399 z" fill="rgb(197,54,75)" transform="translate(0,0)"></path>
<path d="M 1289.02 458.274 C 1289.38 459.135 1284.52 532.749 1284.03 539.832 C 1267.35 534.465 1262.21 532.481 1248.49 521.002 C 1232.19 502.279 1230.22 488.664 1228.14 464.87 C 1248.75 463.67 1268.97 463.694 1289.02 458.274 z" fill="rgb(197,54,75)" transform="translate(0,0)"></path>
<path d="M 518.518 515.308 C 521.007 517.838 523.902 520.635 526.166 523.32 C 527.418 524.417 546.477 540.633 546.16 540.22 C 576.225 557.844 610.559 567.848 643.964 552.409 C 663.063 675.61 660.333 811.837 653.693 936.086 C 651.565 975.891 648.764 1017.48 644.115 1056.98 C 643.832 1064.35 642.723 1073.87 641.765 1081.24 C 641.693 1096.29 637.53 1128.53 635.548 1144.1 C 630.629 1182.75 625.252 1223.7 617.785 1261.86 L 615.797 1270.99 C 615.464 1272.57 614.978 1274.28 614.601 1275.89 L 599.784 1276.12 L 599.338 1275.94 C 600.251 1272.61 600.828 1268.44 601.27 1265 C 569.962 1263.35 531.17 1248.95 519.322 1217.04 C 515.794 1211.13 511.085 1199.19 506.308 1195.09 L 506.882 1193.95 C 509.889 1178.87 514.601 1161.86 518.077 1146.43 C 527.051 1107.46 534.784 1068.22 541.262 1028.76 C 567.281 861.186 556.918 680.144 518.518 515.308 z" fill="rgb(197,54,75)" transform="translate(0,0)"></path>
<path d="M 506.882 1193.95 L 509.612 1193.25 C 512.344 1187.53 517.663 1165.26 519.586 1157.78 C 531.225 1111.05 541.545 1064 550.535 1016.68 C 552.629 1005.76 551.013 993.446 553.833 983.704 L 554.872 983.633 C 555.014 998.325 556.119 1025.33 555.038 1038.52 C 551.114 1086.38 538.788 1173.2 519.322 1217.04 C 515.794 1211.13 511.085 1199.19 506.308 1195.09 L 506.882 1193.95 z" fill="rgb(229,121,124)" transform="translate(0,0)"></path>
<path d="M 526.166 523.32 C 527.418 524.417 546.477 540.633 546.16 540.22 C 546.118 544.785 555.594 581.351 557.194 592.81 C 564.103 642.312 564.679 681.016 560.696 730.308 C 560.341 730.659 560.104 731.007 559.626 731.075 C 558.796 729.937 558.833 728.506 558.403 727.2 L 557.823 725.471 C 558.04 718.61 554.494 692.309 553.69 684.391 C 549.771 645.806 545.205 608.499 537.553 570.441 C 535.601 560.732 526.599 530.408 526.166 523.32 z" fill="rgb(229,121,124)" transform="translate(0,0)"></path>
<path d="M 637.874 1082.13 C 637.39 1082.9 643.752 1070.47 640.669 1073.04 L 640.766 1073.18 C 640.843 1076.22 641.132 1078.22 641.765 1081.24 C 641.693 1096.29 637.53 1128.53 635.548 1144.1 C 630.629 1182.75 625.252 1223.7 617.785 1261.86 L 615.797 1270.99 C 615.464 1272.57 614.978 1274.28 614.601 1275.89 L 599.784 1276.12 L 599.338 1275.94 C 600.251 1272.61 600.828 1268.44 601.27 1265 L 602.281 1264.54 C 600.726 1260.34 610.758 1221.8 612.596 1213.43 C 622.147 1169.89 630.576 1126.11 637.874 1082.13 z" fill="rgb(152,44,62)" transform="translate(0,0)"></path>
<path d="M 602.281 1264.54 C 607.422 1263.81 612.808 1262.06 617.785 1261.86 L 615.797 1270.99 C 615.464 1272.57 614.978 1274.28 614.601 1275.89 L 599.784 1276.12 L 599.338 1275.94 C 600.251 1272.61 600.828 1268.44 601.27 1265 L 602.281 1264.54 z" fill="rgb(177,123,83)" transform="translate(0,0)"></path>
<path d="M 637.874 1082.13 C 638.136 1074.03 639.57 1063.77 644.115 1056.98 C 643.832 1064.35 642.723 1073.87 641.765 1081.24 C 641.132 1078.22 640.843 1076.22 640.766 1073.18 L 640.669 1073.04 C 643.752 1070.47 637.39 1082.9 637.874 1082.13 z" fill="rgb(205,58,76)" transform="translate(0,0)"></path>
<path d="M 557.823 725.471 L 558.403 727.2 C 558.833 728.506 558.796 729.937 559.626 731.075 C 560.104 731.007 560.341 730.659 560.696 730.308 C 560.448 732.262 560.522 732.642 559.719 734.283 C 557.416 735.554 557.835 725.943 557.823 725.471 z" fill="rgb(220,104,115)" transform="translate(0,0)"></path>
<path d="M 1229.6 1642.89 C 1289.47 1656.28 1277.21 1705.46 1230.59 1725.54 L 1232.55 1727.71 C 1245.67 1723.83 1250.94 1722.02 1261.76 1712.95 C 1271.72 1721.3 1286.77 1726.7 1298.9 1731.09 C 1282.55 1743.55 1274.61 1749.75 1265.72 1768.7 C 1300.38 1729.56 1337.46 1713.5 1388.21 1734.43 C 1400.23 1739.78 1408.71 1744.09 1417.88 1753.82 C 1439.47 1773 1449.2 1804.77 1449 1832.94 C 1433.72 1842.51 1419.6 1846.48 1402.07 1850.42 C 1346.65 1860.64 1287.38 1853.61 1237.76 1826.42 C 1223.6 1818.67 1209.46 1807.49 1194.95 1801.59 C 1184.16 1797.21 1167.38 1797.93 1155.89 1795.29 C 1141.27 1794.38 1109.47 1788.84 1107.04 1770.49 C 1104.39 1750.48 1111.76 1730.19 1123.4 1714.13 L 1131.67 1720.43 C 1141.4 1724.75 1147.06 1727.38 1157.5 1729.75 L 1162.32 1727.23 C 1150.37 1723.09 1142.31 1720.49 1132.3 1712.82 C 1118.35 1700.03 1115.91 1687.56 1118.71 1668.98 C 1120.94 1654.15 1134.06 1647.81 1146.77 1642.9 C 1147.59 1658.05 1150.86 1654.18 1140.29 1656.45 C 1158.47 1674.93 1207.12 1684.32 1227.02 1665.69 C 1227.59 1664.15 1227.81 1663.67 1228.56 1662.2 C 1228.85 1656.19 1229.02 1648.76 1229.6 1642.89 z" fill="rgb(197,54,75)" transform="translate(0,0)"></path>
<path d="M 1388.21 1734.43 C 1400.23 1739.78 1408.71 1744.09 1417.88 1753.82 C 1439.47 1773 1449.2 1804.77 1449 1832.94 C 1433.72 1842.51 1419.6 1846.48 1402.07 1850.42 C 1416.57 1815.7 1406.21 1773.57 1383.63 1744.75 C 1382.26 1744.71 1382.48 1744.82 1381.34 1744.33 C 1384.46 1742.2 1375.52 1739.13 1372.97 1737.63 C 1379.83 1734.92 1380.77 1737.94 1388.21 1734.43 z" fill="rgb(152,44,62)" transform="translate(0,0)"></path>
<path d="M 1388.21 1734.43 C 1400.23 1739.78 1408.71 1744.09 1417.88 1753.82 C 1413.21 1754.08 1393.67 1745.94 1383.63 1744.75 C 1382.26 1744.71 1382.48 1744.82 1381.34 1744.33 C 1384.46 1742.2 1375.52 1739.13 1372.97 1737.63 C 1379.83 1734.92 1380.77 1737.94 1388.21 1734.43 z" fill="rgb(177,123,83)" transform="translate(0,0)"></path>
<path d="M 1123.4 1714.13 L 1131.67 1720.43 C 1125.71 1742.18 1117.67 1743.49 1127.54 1768.75 C 1134.03 1785.37 1152.81 1790.18 1155.89 1795.29 C 1141.27 1794.38 1109.47 1788.84 1107.04 1770.49 C 1104.39 1750.48 1111.76 1730.19 1123.4 1714.13 z" fill="rgb(229,121,124)" transform="translate(0,0)"></path>
<path d="M 1132.3 1712.82 C 1118.35 1700.03 1115.91 1687.56 1118.71 1668.98 C 1120.94 1654.15 1134.06 1647.81 1146.77 1642.9 C 1147.59 1658.05 1150.86 1654.18 1140.29 1656.45 C 1131.41 1672.05 1127.21 1679.94 1131.09 1698.99 C 1132.46 1705.72 1134.73 1706.65 1132.3 1712.82 z" fill="rgb(220,104,115)" transform="translate(0,0)"></path>
<path d="M 1288.13 1788.99 C 1298.49 1760.06 1324.34 1745.04 1353.5 1738.08 C 1358.26 1736.95 1368.66 1735.9 1372.97 1737.63 C 1375.52 1739.13 1384.46 1742.2 1381.34 1744.33 C 1355.41 1742.95 1332.24 1748.78 1311.27 1764.3 C 1301.08 1771.85 1295.89 1779.41 1288.13 1788.99 z" fill="rgb(249,167,119)" transform="translate(0,0)"></path>
<path d="M 1162.32 1727.23 C 1163.62 1727.42 1172.51 1729.2 1173.34 1729.98 C 1173.48 1730.43 1173.5 1730.27 1173.39 1730.51 C 1171.37 1731.92 1160.31 1730.14 1157.5 1729.75 L 1162.32 1727.23 z" fill="rgb(68,20,30)" transform="translate(0,0)"></path>
<path d="M 1228.56 1662.2 L 1229.31 1661.65 C 1236.71 1655.62 1237.6 1660.61 1227.02 1665.69 C 1227.59 1664.15 1227.81 1663.67 1228.56 1662.2 z" fill="rgb(31,28,25)" transform="translate(0,0)"></path>
<path d="M 1230.59 1725.54 L 1232.55 1727.71 C 1231.99 1727.77 1226.65 1728.77 1226.61 1727.55 C 1227.27 1726.55 1229.54 1725.93 1230.59 1725.54 z" fill="rgb(68,20,30)" transform="translate(0,0)"></path>
<path d="M 899.883 1640.18 C 911.889 1642.63 919.692 1644.87 927.295 1655.38 C 933.895 1664.49 936.134 1678.13 933.871 1688.99 C 931.874 1698.85 925.921 1707.47 917.4 1712.82 C 912.163 1716.11 905.738 1718.77 899.854 1720.69 C 893.24 1723.76 889.849 1725.2 882.924 1727.38 L 887.277 1729.54 C 893.836 1728.23 899.547 1726.83 906.026 1725.14 C 915.502 1721.62 920.699 1718.79 929.29 1713.61 C 943.518 1729.17 944.887 1745.19 945.175 1765.5 C 945.562 1792.85 896.365 1795.52 876.378 1794.95 C 848.675 1796.19 836.487 1813.51 813.036 1826.25 C 758.499 1855.9 679.403 1864.08 621.44 1840.9 C 612.772 1836.96 610.451 1836.45 603.328 1830.06 C 603.256 1828.94 603.2 1827.83 603.159 1826.71 C 602.682 1813.03 608.791 1782.86 617.582 1773.43 C 618.923 1770.55 622.87 1763.68 625.207 1761.74 C 632.779 1751.11 643.285 1743.19 654.756 1737.15 C 660.523 1732.81 677.523 1727.03 684.804 1725.78 C 698.537 1720.76 728.207 1725.4 741.951 1732.27 C 762.018 1742.31 772.541 1752.65 786.524 1769.55 C 778.145 1751.17 770.542 1742.69 753.71 1730.94 C 764.848 1726.09 781.28 1719.39 791.064 1712.77 C 801.386 1721.9 807.725 1724.58 820.687 1728.69 L 822.636 1726.37 C 800.501 1717.81 773.379 1692.11 785.311 1665.08 C 790.882 1652.45 807.169 1646.53 819.519 1642.19 C 819.803 1648.86 819.799 1654.76 819.717 1661.43 C 819.04 1662.45 818.312 1663.5 817.676 1664.54 C 847.463 1683.38 882.871 1680.72 910.155 1658.46 C 906.157 1656.25 904.152 1659.18 899.916 1661.53 L 899.883 1640.18 z" fill="rgb(197,54,75)" transform="translate(0,0)"></path>
<path d="M 906.026 1725.14 C 915.502 1721.62 920.699 1718.79 929.29 1713.61 C 943.518 1729.17 944.887 1745.19 945.175 1765.5 C 945.562 1792.85 896.365 1795.52 876.378 1794.95 C 888.988 1790.82 911.185 1774.85 914.417 1761.19 C 917.231 1749.29 911.433 1735.4 906.026 1725.14 z" fill="rgb(152,44,62)" transform="translate(0,0)"></path>
<path d="M 899.883 1640.18 C 911.889 1642.63 919.692 1644.87 927.295 1655.38 C 933.895 1664.49 936.134 1678.13 933.871 1688.99 C 931.874 1698.85 925.921 1707.47 917.4 1712.82 C 912.163 1716.11 905.738 1718.77 899.854 1720.69 C 909.5 1703.43 928.777 1676.8 911.595 1656.65 C 910.503 1655.36 910.163 1658.4 910.155 1658.46 C 906.157 1656.25 904.152 1659.18 899.916 1661.53 L 899.883 1640.18 z" fill="rgb(152,44,62)" transform="translate(0,0)"></path>
<path d="M 625.207 1761.74 C 627.146 1760.82 628.913 1760.07 630.382 1758.46 C 630.808 1758 632.918 1755.47 633.692 1755.79 C 633.73 1756.46 633.104 1757.06 632.74 1757.61 C 633.517 1757.91 634.347 1758.13 635.146 1758.37 L 638.027 1758.78 C 637.494 1759.96 637.305 1760.15 636.603 1761.26 C 627.849 1775.19 624.5 1793.46 621.838 1809.49 C 620.148 1820.11 620.968 1830.31 621.44 1840.9 C 612.772 1836.96 610.451 1836.45 603.328 1830.06 C 603.256 1828.94 603.2 1827.83 603.159 1826.71 C 602.682 1813.03 608.791 1782.86 617.582 1773.43 C 618.923 1770.55 622.87 1763.68 625.207 1761.74 z" fill="rgb(229,121,124)" transform="translate(0,0)"></path>
<path d="M 625.207 1761.74 C 627.146 1760.82 628.913 1760.07 630.382 1758.46 C 630.808 1758 632.918 1755.47 633.692 1755.79 C 633.73 1756.46 633.104 1757.06 632.74 1757.61 C 633.517 1757.91 634.347 1758.13 635.146 1758.37 C 634.966 1758.69 625.576 1764.07 624.772 1767.32 C 624.299 1769.23 619.377 1772.8 617.582 1773.43 C 618.923 1770.55 622.87 1763.68 625.207 1761.74 z" fill="rgb(247,175,152)" transform="translate(0,0)"></path>
<path d="M 666.944 1734.71 C 672.36 1737.51 679.645 1733.26 682.586 1736.79 C 719.674 1740.75 746.839 1751.62 763.035 1786.7 C 734.148 1752.4 697.341 1735.85 652.358 1748.16 C 654.555 1743.57 655.189 1743.09 658.877 1739.36 C 660.042 1738.71 661.283 1738.17 662.383 1737.42 L 663.257 1736.85 C 664.49 1736.14 665.72 1735.43 666.944 1734.71 z" fill="rgb(249,167,119)" transform="translate(0,0)"></path>
<path d="M 666.944 1734.71 C 672.36 1737.51 679.645 1733.26 682.586 1736.79 C 679.404 1737.21 666.659 1737.13 663.257 1736.85 C 664.49 1736.14 665.72 1735.43 666.944 1734.71 z" fill="rgb(205,58,76)" transform="translate(0,0)"></path>
<path d="M 654.756 1737.15 C 656.272 1737.9 657.408 1738.52 658.877 1739.36 C 655.189 1743.09 654.555 1743.57 652.358 1748.16 C 646.496 1750.83 642.264 1754.04 638.027 1758.78 L 635.146 1758.37 C 634.347 1758.13 633.517 1757.91 632.74 1757.61 C 633.104 1757.06 633.73 1756.46 633.692 1755.79 C 632.918 1755.47 630.808 1758 630.382 1758.46 C 628.913 1760.07 627.146 1760.82 625.207 1761.74 C 632.779 1751.11 643.285 1743.19 654.756 1737.15 z" fill="rgb(232,182,130)" transform="translate(0,0)"></path>
<path d="M 684.804 1725.78 C 685.267 1726.31 685.19 1726.12 685.246 1726.4 C 685.089 1726.51 669.207 1733.52 666.944 1734.71 C 665.72 1735.43 664.49 1736.14 663.257 1736.85 L 662.383 1737.42 C 661.283 1738.17 660.042 1738.71 658.877 1739.36 C 657.408 1738.52 656.272 1737.9 654.756 1737.15 C 660.523 1732.81 677.523 1727.03 684.804 1725.78 z" fill="rgb(247,175,152)" transform="translate(0,0)"></path>
<path d="M 887.277 1729.54 C 884.506 1730 872.316 1731.68 870.391 1730.29 C 869.693 1728.68 881.935 1727.5 882.924 1727.38 L 887.277 1729.54 z" fill="rgb(68,20,30)" transform="translate(0,0)"></path>
<path d="M 817.676 1664.54 C 809.329 1659.55 812.325 1658.61 819.717 1661.43 C 819.04 1662.45 818.312 1663.5 817.676 1664.54 z" fill="rgb(31,28,25)" transform="translate(0,0)"></path>
<path d="M 822.636 1726.37 C 823.221 1726.57 826.698 1727.35 826.297 1728.56 C 825.206 1729.52 821.803 1728.81 820.687 1728.69 L 822.636 1726.37 z" fill="rgb(68,20,30)" transform="translate(0,0)"></path>
<path d="M 658.72 1752.8 C 678.668 1758.2 658.341 1774.82 647.137 1779.05 L 646.24 1778.73 C 625.556 1771.54 650.274 1757.17 658.72 1752.8 z" fill="rgb(229,121,124)" transform="translate(0,0)"></path>
<path d="M 1340.93 164.895 C 1343.12 188.188 1343.91 216.091 1342.88 239.422 C 1342.84 240.265 1333.97 248.546 1328.37 242.122 C 1320.46 233.069 1327.89 211.246 1324.04 205.119 C 1317.36 207.251 1290.04 221.984 1279.87 226.476 C 1244.84 241.589 1208.18 252.626 1170.63 259.37 C 1098 272.78 1019.99 273.311 946.422 279.418 C 873.311 285.488 794.642 298.124 724.33 318.704 C 702.269 325.161 655.749 341.688 636.144 353.086 C 632.601 344.495 628.127 337.441 618.701 334.193 C 584.192 322.302 551.796 352.456 528.805 373.812 C 491.392 408.564 521.216 413.987 554.432 425.41 C 575.56 432.675 597.526 435.265 619.917 436.815 C 622.335 445.195 625.799 456.011 627.666 464.333 L 630.555 474.783 L 642.322 540.914 C 642.805 544.352 643.317 549.119 643.964 552.409 C 610.559 567.848 576.225 557.844 546.16 540.22 C 546.477 540.633 527.418 524.417 526.166 523.32 C 523.902 520.635 521.007 517.838 518.518 515.308 L 514.346 498.195 C 513.712 497.329 513.159 496.641 512.649 495.708 C 513.536 489.866 499.513 449.237 497.438 440.165 C 493.893 431.925 491.269 424.815 488.269 416.342 C 487.952 412.156 488.042 411.209 488.383 407.051 C 498.518 375.523 545.012 339.313 573.911 323.627 C 599.427 309.777 624.058 308.263 647.034 328.118 C 715.818 291.347 829.003 269.418 906.019 261.217 C 1034.16 247.573 1165.01 244.025 1285.96 193.516 C 1304.84 185.678 1323.12 175.033 1340.93 164.895 z" fill="url(#Gradient2)" transform="translate(0,0)"></path>
<path d="M 497.438 440.165 C 499.688 442.425 504.353 447.633 506.266 449.191 C 509.524 451.89 515.685 456.859 518.379 459.571 C 552.518 484.397 591.657 498.945 630.555 474.783 L 642.322 540.914 C 642.805 544.352 643.317 549.119 643.964 552.409 C 610.559 567.848 576.225 557.844 546.16 540.22 C 546.477 540.633 527.418 524.417 526.166 523.32 C 523.902 520.635 521.007 517.838 518.518 515.308 L 514.346 498.195 C 513.712 497.329 513.159 496.641 512.649 495.708 C 513.536 489.866 499.513 449.237 497.438 440.165 z" fill="rgb(197,54,75)" transform="translate(0,0)"></path>
<path d="M 514.346 498.195 C 517.115 496.933 517.787 499.537 519.784 501.808 C 522.478 506.865 534.089 517.636 538.962 521.243 C 561.682 547.015 611.088 556.306 642.322 540.914 C 642.805 544.352 643.317 549.119 643.964 552.409 C 610.559 567.848 576.225 557.844 546.16 540.22 C 546.477 540.633 527.418 524.417 526.166 523.32 C 523.902 520.635 521.007 517.838 518.518 515.308 L 514.346 498.195 z" fill="rgb(254,217,174)" transform="translate(0,0)"></path>
<path d="M 497.438 440.165 C 499.688 442.425 504.353 447.633 506.266 449.191 C 509.524 451.89 515.685 456.859 518.379 459.571 C 518.808 466.369 536.773 509.686 538.962 521.243 C 534.089 517.636 522.478 506.865 519.784 501.808 C 517.787 499.537 517.115 496.933 514.346 498.195 C 513.712 497.329 513.159 496.641 512.649 495.708 C 513.536 489.866 499.513 449.237 497.438 440.165 z" fill="rgb(229,121,124)" transform="translate(0,0)"></path>
<path d="M 497.438 440.165 C 499.688 442.425 504.353 447.633 506.266 449.191 C 508.95 463.692 513.38 478.058 517.96 492.054 C 516.36 493.531 514.447 494.49 512.649 495.708 C 513.536 489.866 499.513 449.237 497.438 440.165 z" fill="rgb(205,58,76)" transform="translate(0,0)"></path>
<path d="M 517.96 492.054 C 519.423 497.153 520.124 496.675 519.784 501.808 C 517.787 499.537 517.115 496.933 514.346 498.195 C 513.712 497.329 513.159 496.641 512.649 495.708 C 514.447 494.49 516.36 493.531 517.96 492.054 z" fill="rgb(220,104,115)" transform="translate(0,0)"></path>
<path d="M 488.383 407.051 C 489.601 408.544 490.028 408.8 490.549 410.506 C 495.084 419.452 499.97 429.121 507.198 436.248 C 538.745 467.353 586.487 490.614 627.666 464.333 L 630.555 474.783 C 591.657 498.945 552.518 484.397 518.379 459.571 C 515.685 456.859 509.524 451.89 506.266 449.191 C 504.353 447.633 499.688 442.425 497.438 440.165 C 493.893 431.925 491.269 424.815 488.269 416.342 C 487.952 412.156 488.042 411.209 488.383 407.051 z" fill="rgb(254,217,174)" transform="translate(0,0)"></path>
<path d="M 488.383 407.051 C 489.601 408.544 490.028 408.8 490.549 410.506 C 489.812 412.46 489.051 414.405 488.269 416.342 C 487.952 412.156 488.042 411.209 488.383 407.051 z" fill="rgb(232,182,130)" transform="translate(0,0)"></path>
<path d="M 506.308 1195.09 C 511.085 1199.19 515.794 1211.13 519.322 1217.04 C 531.17 1248.95 569.962 1263.35 601.27 1265 C 600.828 1268.44 600.251 1272.61 599.338 1275.94 L 599.784 1276.12 L 614.601 1275.89 L 603.808 1328.49 C 602.308 1335.85 601.06 1344.79 599.089 1351.87 C 598.066 1355.8 597.364 1359.8 596.527 1363.77 C 592.517 1390.71 591.535 1394.22 595.492 1420.96 C 573.96 1420.21 547.78 1416.68 528.158 1407.26 C 512.611 1401.09 484.821 1383.67 477.744 1368.22 C 457.939 1337.27 472.321 1320.48 479.904 1288.74 C 480.478 1284.8 482.846 1277.93 484.22 1274.07 C 489.102 1255.5 494.383 1237.39 499.785 1218.98 L 500.353 1217.02 C 501.298 1213.81 501.889 1211.66 503.028 1208.46 C 503.128 1204.55 504.883 1198.79 506.308 1195.09 z" fill="rgb(197,54,75)" transform="translate(0,0)"></path>
<path d="M 479.904 1288.74 C 481.342 1290.88 488.087 1304.04 488.95 1306.16 C 505.095 1334.53 523.925 1351.67 556.018 1360.68 C 558.666 1361.42 561.333 1362.1 564.016 1362.71 C 566.95 1363.28 569.865 1363.94 572.798 1364.51 C 576.731 1362.51 577.361 1357.31 578.198 1353.17 L 578.828 1352.87 C 587.232 1353.16 590.85 1352.86 599.089 1351.87 C 598.066 1355.8 597.364 1359.8 596.527 1363.77 C 592.517 1390.71 591.535 1394.22 595.492 1420.96 C 573.96 1420.21 547.78 1416.68 528.158 1407.26 C 512.611 1401.09 484.821 1383.67 477.744 1368.22 C 457.939 1337.27 472.321 1320.48 479.904 1288.74 z" fill="rgb(197,54,75)" transform="translate(0,0)"></path>
<path d="M 578.828 1352.87 C 587.232 1353.16 590.85 1352.86 599.089 1351.87 C 598.066 1355.8 597.364 1359.8 596.527 1363.77 C 592.517 1390.71 591.535 1394.22 595.492 1420.96 C 573.96 1420.21 547.78 1416.68 528.158 1407.26 C 551.633 1400.64 565.89 1389.11 573.811 1364.96 L 572.798 1364.51 C 576.731 1362.51 577.361 1357.31 578.198 1353.17 L 578.828 1352.87 z" fill="rgb(152,44,62)" transform="translate(0,0)"></path>
<path d="M 578.828 1352.87 C 587.232 1353.16 590.85 1352.86 599.089 1351.87 C 598.066 1355.8 597.364 1359.8 596.527 1363.77 C 587.107 1364.51 583.537 1364.97 573.811 1364.96 L 572.798 1364.51 C 576.731 1362.51 577.361 1357.31 578.198 1353.17 L 578.828 1352.87 z" fill="rgb(188,155,121)" transform="translate(0,0)"></path>
<path d="M 479.904 1288.74 C 481.342 1290.88 488.087 1304.04 488.95 1306.16 C 483.714 1317.81 481.863 1331.99 479.905 1344.5 C 478.648 1352.53 479.311 1360.44 477.744 1368.22 C 457.939 1337.27 472.321 1320.48 479.904 1288.74 z" fill="rgb(229,121,124)" transform="translate(0,0)"></path>
<path d="M 484.22 1274.07 C 486.752 1278.35 490.14 1287.7 493.144 1293.34 C 499.671 1312 519.836 1332.66 538.003 1341.41 C 547.871 1346.13 558.287 1349.61 569.011 1351.77 C 572.074 1352.24 575.124 1352.78 578.198 1353.17 C 577.361 1357.31 576.731 1362.51 572.798 1364.51 C 569.865 1363.94 566.95 1363.28 564.016 1362.71 C 561.333 1362.1 558.666 1361.42 556.018 1360.68 C 523.925 1351.67 505.095 1334.53 488.95 1306.16 C 488.087 1304.04 481.342 1290.88 479.904 1288.74 C 480.478 1284.8 482.846 1277.93 484.22 1274.07 z" fill="url(#Gradient1)" transform="translate(0,0)"></path>
<path d="M 506.308 1195.09 C 511.085 1199.19 515.794 1211.13 519.322 1217.04 C 531.17 1248.95 569.962 1263.35 601.27 1265 C 600.828 1268.44 600.251 1272.61 599.338 1275.94 C 593.53 1275.7 587.739 1275.14 581.992 1274.26 C 554.893 1270 531.072 1254.12 515.162 1232.03 C 510.07 1222.1 508.252 1219.66 503.028 1208.46 C 503.128 1204.55 504.883 1198.79 506.308 1195.09 z" fill="rgb(232,182,130)" transform="translate(0,0)"></path>
<path d="M 599.784 1276.12 L 614.601 1275.89 L 603.808 1328.49 C 602.308 1335.85 601.06 1344.79 599.089 1351.87 C 590.85 1352.86 587.232 1353.16 578.828 1352.87 C 583.088 1335.15 590.766 1317.47 594.799 1299.48 L 596.772 1290.98 C 597.905 1285.97 598.753 1281.11 599.784 1276.12 z" fill="rgb(152,44,62)" transform="translate(0,0)"></path>
<path d="M 503.028 1208.46 C 508.252 1219.66 510.07 1222.1 515.162 1232.03 C 508.758 1244.35 499.013 1278.69 493.144 1293.34 C 490.14 1287.7 486.752 1278.35 484.22 1274.07 C 489.102 1255.5 494.383 1237.39 499.785 1218.98 L 500.353 1217.02 C 501.298 1213.81 501.889 1211.66 503.028 1208.46 z" fill="rgb(229,121,124)" transform="translate(0,0)"></path>
<path d="M 306.197 798.719 C 328.741 781.176 339.047 774.197 366.348 763.328 C 384.928 801.485 405.216 831.415 440.195 856.465 C 475.682 881.879 505.398 887.287 547.998 878.764 C 546.987 904.027 545.472 925.707 543.422 950.889 C 498.867 955.644 464.266 952.013 424.148 930.931 C 414.133 925.667 400.113 919.994 391.596 912.243 C 386.332 907.452 377.83 903.094 374.721 899.03 C 374.458 896.321 374.349 897.277 375.26 894.762 C 370.28 889.561 368.486 889.807 366.114 883.29 C 361.582 878.171 355.029 869.7 350.291 865.566 C 334.395 857.274 316.207 814.074 306.197 798.719 z" fill="rgb(9,46,81)" transform="translate(0,0)"></path>
<path d="M 350.291 865.566 C 350.326 861.767 350.07 860.822 351.948 857.458 C 357.617 854.721 369.18 869.215 373.155 873.453 C 397.344 899.247 424.619 918.654 456.682 933.609 C 453.877 934.777 453.094 934.797 450.022 935.4 C 413.426 923.44 394.736 909.271 366.114 883.29 C 361.582 878.171 355.029 869.7 350.291 865.566 z" fill="rgb(80,124,171)" transform="translate(0,0)"></path>
<path d="M 456.682 933.609 C 465.756 937.241 451.363 935.599 450.022 935.4 C 453.094 934.797 453.877 934.777 456.682 933.609 z" fill="rgb(76,112,153)" transform="translate(0,0)"></path>
<path d="M 1573.59 286.25 L 1576.12 286.389 C 1577.27 291.087 1569.74 311.85 1567.85 318.947 C 1558.25 354.441 1549.86 390.251 1542.7 426.315 C 1516.64 552.624 1502.21 688.277 1494.53 816.875 C 1486.84 814.765 1481.91 813.203 1474.47 810.369 C 1475.36 784.816 1476.61 759.276 1478.22 733.756 C 1479.32 724.109 1479.71 709.411 1480.45 699.149 C 1482.35 672.577 1484.46 646.021 1486.78 619.482 C 1492.3 553.466 1501.08 487.764 1513.08 422.615 C 1516.49 402.609 1520.72 382.752 1525.77 363.097 C 1528.02 354.079 1537.41 321.935 1535.47 314.943 C 1530.1 310.408 1515.83 319.298 1503.23 318.868 C 1491.07 319.238 1479.69 316.469 1468.22 312.674 C 1459.15 309.673 1450.27 299.089 1454.56 289.157 C 1461.62 288.534 1482.8 291.112 1491.05 291.57 C 1520.62 293.213 1544.64 291.509 1573.59 286.25 z" fill="rgb(152,44,62)" transform="translate(0,0)"></path>
<path d="M 829.075 1479.37 C 827.662 1476.16 827.891 1475.85 827.895 1472.41 L 829.048 1470.44 L 903.017 1468.9 C 902.197 1507.17 897.076 1545.54 896.606 1584.11 C 896.287 1610.29 892.287 1633.98 895.049 1660.94 C 870.501 1671.85 852.555 1672.74 826.889 1663.71 C 827.217 1647.45 821.292 1587.2 826.18 1577.9 L 825.914 1573.37 C 825.503 1569.43 825.98 1559.38 826.078 1554.96 L 825.983 1550.61 C 823.991 1541.04 825.622 1489.39 829.012 1481.15 L 829.075 1479.37 z" fill="rgb(9,46,81)" transform="translate(0,0)"></path>
<path d="M 829.012 1481.15 C 842.31 1497.89 858.798 1509.52 878.378 1518.04 C 865.034 1535.5 846.684 1544.57 825.983 1550.61 C 823.991 1541.04 825.622 1489.39 829.012 1481.15 z" fill="rgb(9,46,81)" transform="translate(0,0)"></path>
<path d="M 829.075 1479.37 L 829.868 1479.94 C 832.219 1481.62 840.686 1489.29 843.586 1491.76 C 859.127 1505 867.986 1507.43 885.798 1514.47 C 875.58 1534.56 858.532 1545.31 837.39 1552.18 C 833.691 1553.37 829.911 1554.3 826.078 1554.96 L 825.983 1550.61 C 846.684 1544.57 865.034 1535.5 878.378 1518.04 C 858.798 1509.52 842.31 1497.89 829.012 1481.15 L 829.075 1479.37 z" fill="rgb(232,182,130)" transform="translate(0,0)"></path>
<path d="M 825.914 1573.37 C 847.224 1573.19 873.123 1575.3 893.813 1580.76 C 875.681 1591.84 854.249 1597.05 839.141 1613.66 C 835.525 1617.64 831.87 1621.62 828.228 1625.57 C 838.801 1603.95 855.008 1594.45 875.978 1583.34 C 864.674 1580.96 853.04 1579.06 841.5 1578.34 C 836.373 1578.03 831.3 1578.59 826.18 1577.9 L 825.914 1573.37 z" fill="rgb(232,182,130)" transform="translate(0,0)"></path>
<path d="M 1475.16 897.926 C 1481.35 899.544 1487.64 901.52 1493.8 903.363 C 1494.81 935.907 1498.11 968.418 1500.83 1000.85 C 1509.51 1104.36 1526.5 1207.39 1557.43 1306.69 C 1560.83 1317.61 1565.32 1328.57 1568.94 1339.53 C 1549.35 1340.45 1534.49 1338.35 1515.5 1334.82 C 1497.41 1330.21 1488.21 1326.04 1471.1 1318.72 C 1486.49 1309.53 1492.98 1308.84 1511.68 1310.96 C 1514.5 1311.29 1516.52 1313.83 1521.63 1314.81 L 1523.45 1313.56 C 1523.69 1311 1503.06 1237.66 1500.59 1225.96 C 1477.7 1117.18 1474.83 1008.4 1475.16 897.926 z" fill="rgb(152,44,62)" transform="translate(0,0)"></path>
<path d="M 1168.98 1803.61 C 1199.27 1807.64 1206.29 1816.68 1232.43 1831.43 C 1282.36 1859.61 1343.81 1867.03 1400.13 1857.46 C 1401.61 1862.33 1390.53 1878.44 1387.93 1882.99 C 1323.41 1891.62 1266.93 1877.49 1215.86 1840.03 C 1202.71 1830.39 1184.7 1819.88 1168.46 1817.26 C 1168.99 1812.02 1168.97 1808.83 1168.98 1803.61 z" fill="rgb(232,182,130)" transform="translate(0,0)"></path>
<path d="M 830.763 1823.61 C 827.922 1838.01 776.53 1865.45 772.744 1872.27 C 736.169 1884.17 677.369 1888.31 640.162 1877.51 C 630.548 1874.5 622.01 1871.38 612.935 1866.96 C 607.245 1855.68 606.635 1852.82 604.131 1840.74 C 610.255 1844.26 619.299 1848.68 626.216 1850.14 C 630.165 1851.34 634.133 1852.48 638.117 1853.56 C 679.807 1864.67 738.656 1862.59 779.781 1848.18 C 798.494 1841.62 813.792 1833.34 830.763 1823.61 z" fill="rgb(232,182,130)" transform="translate(0,0)"></path>
<path d="M 604.131 1840.74 C 610.255 1844.26 619.299 1848.68 626.216 1850.14 L 626.699 1852.01 C 629.575 1864.66 638.946 1868.54 640.162 1877.51 C 630.548 1874.5 622.01 1871.38 612.935 1866.96 C 607.245 1855.68 606.635 1852.82 604.131 1840.74 z" fill="rgb(254,217,174)" transform="translate(0,0)"></path>
<path d="M 830.763 1823.61 C 840.122 1817.06 851.102 1809.07 861.747 1805.02 C 870.101 1801.84 880.714 1802.65 889.529 1801.74 C 909.806 1800.58 924.883 1796.65 942.938 1787.66 L 942.752 1798.84 C 911.148 1819.12 890.153 1810.03 861.69 1821.9 C 830.693 1834.83 808.678 1863.13 772.744 1872.27 C 776.53 1865.45 827.922 1838.01 830.763 1823.61 z" fill="rgb(177,123,83)" transform="translate(0,0)"></path>
<path d="M 1109.05 1808.26 C 1133.36 1819.71 1142.57 1819.71 1167.82 1825.1 C 1167.72 1841.07 1167.73 1844.94 1169.29 1860.75 C 1155.91 1857.52 1121.91 1848.57 1110.65 1842.02 C 1109.6 1831.97 1109.29 1818.47 1109.05 1808.26 z" fill="rgb(197,54,75)" transform="translate(0,0)"></path>
<path d="M 941.089 1808.27 C 942.74 1810.09 941.132 1836.48 940.981 1841.14 C 922.732 1849.99 902.795 1853.83 883.81 1860.93 C 882.029 1859.5 883.967 1828.04 884.001 1823.59 C 905.888 1821.27 921.335 1818.41 941.089 1808.27 z" fill="rgb(152,44,62)" transform="translate(0,0)"></path>
<path d="M 597.533 339.2 C 607.509 338.471 612.673 339.307 621.901 342.823 C 582.718 354.192 562.758 367.772 536.033 398.66 L 528.737 407.912 C 524.051 406.042 520.467 403.93 516.074 401.505 C 527.756 377.042 570.15 344.565 597.533 339.2 z" fill="rgb(152,44,62)" transform="translate(0,0)"></path>
<path d="M 1400.13 1857.46 C 1401.86 1856.87 1404.15 1856.56 1406.01 1856.25 C 1421.28 1853.68 1434.01 1848.79 1447.72 1841.87 C 1446.17 1850.86 1444.95 1862.64 1436.4 1867.84 C 1424.06 1875.36 1402.2 1882.3 1387.93 1882.99 C 1390.53 1878.44 1401.61 1862.33 1400.13 1857.46 z" fill="rgb(177,123,83)" transform="translate(0,0)"></path>
<path d="M 1685.87 729.714 C 1690.43 734.129 1684.77 743.487 1682.36 747.872 C 1670.48 769.451 1641.75 805.44 1617.79 812.205 C 1612.13 804.89 1616.73 804.227 1624.43 798.895 C 1652.05 779.747 1666.65 756.027 1685.87 729.714 z" fill="rgb(80,124,171)" transform="translate(0,0)"></path>
<path d="M 1108.42 1786.96 C 1130.54 1800.91 1144.3 1799.95 1168.98 1803.61 C 1168.97 1808.83 1168.99 1812.02 1168.46 1817.26 C 1148.45 1815.92 1126.37 1810.93 1109.06 1800.63 C 1108.63 1795.14 1108.47 1792.57 1108.42 1786.96 z" fill="rgb(253,239,212)" transform="translate(0,0)"></path>
<path d="M 298.048 500.764 C 320.747 491.968 304.885 477.339 325.098 457.149 C 336.216 445.864 351.532 439.719 367.367 440.189 C 391.322 440.75 412.623 453.971 428.818 470.796 L 415.86 475.258 C 395.993 485.89 383.103 503.717 377.051 525.184 C 360.849 582.651 385.281 641.04 428.803 678.606 L 425.743 680.459 C 438.058 691.834 447.694 697.573 463.942 702.13 C 447.363 722.801 437.094 731.058 412.199 742.032 C 411.295 728.389 407.781 720.36 391.734 722.777 C 353.414 728.549 317.177 748.65 287.203 772.612 C 271.362 785.916 268.945 791.898 250.029 804.249 C 244.282 810.757 242.326 809.452 234.491 812.466 C 231.597 813.58 227.115 814.386 228.289 817.379 C 230.631 817.726 232.858 818.336 235.147 818.92 C 226.061 821.448 225.946 820.107 226.346 811.141 C 226.551 806.548 226.058 801.773 226.285 797.151 C 221.501 756.41 205.382 715.862 164.232 701.302 C 136.103 691.35 113.752 701.406 90.5268 715.962 C 84.5111 719.732 69.9988 721.203 63.7862 717.644 C 46.7569 707.885 31.172 678.942 23.5525 661.581 C 27.3992 659.814 31.1935 657.935 34.9305 655.947 C 50.0033 647.798 57.1824 638.543 62.0257 622.344 C 55.8652 609.89 45.6907 598.008 46.5483 582.991 C 47.5581 565.31 70.3999 555.224 82.1661 544.623 C 70.8838 516.986 52.556 498.076 87.9944 474.806 C 144.867 437.462 199.199 452.788 255.57 481.237 C 269.338 488.185 282.584 497.022 298.048 500.764 z" fill="rgb(9,46,81)" transform="translate(0,0)"></path>
<path d="M 298.048 500.764 C 320.747 491.968 304.885 477.339 325.098 457.149 C 336.216 445.864 351.532 439.719 367.367 440.189 C 391.322 440.75 412.623 453.971 428.818 470.796 L 415.86 475.258 C 395.993 485.89 383.103 503.717 377.051 525.184 C 360.849 582.651 385.281 641.04 428.803 678.606 L 425.743 680.459 C 399.863 661.329 397.749 644.535 381.135 618.635 L 381.028 622.719 C 376.413 617.532 373.838 599.866 372.006 593.006 C 367.773 580.991 369.79 571.526 369.878 559.998 C 369.951 550.429 367.672 549.705 369.971 537.839 C 374.998 511.898 389.932 486.972 411.859 472.106 C 415.02 469.415 414.091 471.008 415.285 467.516 L 414.065 465.678 C 391.309 443.087 352.391 439.426 330.036 461.303 C 314.598 476.41 322.352 504.127 299.799 507.719 C 291.332 508.26 273.708 500.039 265.695 495.503 C 216.93 467.9 151.094 437.66 100.415 477.895 C 94.7146 482.42 91.2618 492.371 91.0807 499.139 C 88.7879 522.563 128.719 537.705 112.67 555.404 C 106.174 562.567 92.434 565.677 84.6844 569.642 C 83.308 570.812 82.096 571.538 80.6112 572.571 C 76.5963 577.358 73.6007 581.911 74.0981 588.435 C 75.9852 613.187 111.85 620.045 77.3968 663.644 C 68.8648 674.441 58.6002 683.085 47.4864 691.096 C 50.3876 695.222 55.6862 703.2 58.7652 706.723 C 63.3524 716.518 77.493 718.181 85.1126 712.968 C 110.834 695.367 136.359 686.772 167.356 696.184 C 187.534 702.311 205.637 719.346 215.844 737.868 C 222.85 750.707 225.64 770.1 229.269 784.124 C 228.471 790.361 230.235 792.426 226.285 797.151 C 221.501 756.41 205.382 715.862 164.232 701.302 C 136.103 691.35 113.752 701.406 90.5268 715.962 C 84.5111 719.732 69.9988 721.203 63.7862 717.644 C 46.7569 707.885 31.172 678.942 23.5525 661.581 C 27.3992 659.814 31.1935 657.935 34.9305 655.947 C 50.0033 647.798 57.1824 638.543 62.0257 622.344 C 55.8652 609.89 45.6907 598.008 46.5483 582.991 C 47.5581 565.31 70.3999 555.224 82.1661 544.623 C 70.8838 516.986 52.556 498.076 87.9944 474.806 C 144.867 437.462 199.199 452.788 255.57 481.237 C 269.338 488.185 282.584 497.022 298.048 500.764 z" fill="rgb(18,27,33)" transform="translate(0,0)"></path>
<path d="M 31.8106 664.949 C 51.1341 656.799 76.8255 631.064 63.6632 611.456 C 37.6104 573.455 61.3086 570.229 83.8499 551.636 C 102.461 536.285 51.9776 517.908 83.4716 485.769 L 86.1375 488.079 C 76.303 527.6 137.281 544.803 90.0887 560.761 C 87.8244 561.737 87.4512 561.696 84.9577 562.215 L 80.9508 563.673 C 79.5584 564.982 78.1442 566.268 76.7088 567.529 C 74.1538 569.255 72.5103 572.091 70.245 573.106 C 57.9836 604.103 86.2179 606.376 85.4409 630.847 C 84.7593 652.318 59.8569 673.777 45.1914 687.203 C 40.5492 679.896 36.0876 672.476 31.8106 664.949 z" fill="rgb(232,182,130)" transform="translate(0,0)"></path>
<path d="M 84.9745 560.673 C 108.023 540.439 84.8046 532.108 78.8913 511.511 C 78.4116 509.84 77.3351 501.18 79.4211 500.295 C 79.9724 500.711 80.4388 507.628 80.7437 509.006 C 83.5387 521.64 92.688 530.625 97.8048 543.104 L 96.7014 546.008 C 94.7643 551.197 89.0933 557.476 90.0887 560.761 C 87.8244 561.737 87.4512 561.696 84.9577 562.215 L 84.9745 560.673 z" fill="rgb(93,70,54)" transform="translate(0,0)"></path>
<path d="M 70.245 573.106 C 70.6336 569.585 72.5947 570.511 70.3804 568.591 C 70.614 564.326 80.6493 560.31 84.9745 560.673 L 84.9577 562.215 L 80.9508 563.673 C 79.5584 564.982 78.1442 566.268 76.7088 567.529 C 74.1538 569.255 72.5103 572.091 70.245 573.106 z" fill="rgb(249,167,119)" transform="translate(0,0)"></path>
<path d="M 59.0747 583.778 L 59.8692 584.952 C 61.1581 608.879 81.4868 615.927 76.0108 634.495 C 70.8542 651.981 56.5432 665.361 40.4162 673.809 C 52.651 661.171 70.5047 647.79 73.6653 629.464 C 76.7039 611.845 53.4728 606.122 59.0747 583.778 z" fill="rgb(31,28,25)" transform="translate(0,0)"></path>
<path d="M 59.0747 583.778 C 59.5348 583.191 59.8003 581.94 60.7295 582.109 C 61.447 583.146 60.5099 584.176 59.8692 584.952 L 59.0747 583.778 z" fill="rgb(146,115,81)" transform="translate(0,0)"></path>
<path d="M 80.9508 563.673 C 84.5793 565.896 85.281 565.527 84.6844 569.642 C 83.308 570.812 82.096 571.538 80.6112 572.571 C 79.5401 571.429 78.6044 570.302 77.7285 569.004 L 76.7088 567.529 C 78.1442 566.268 79.5584 564.982 80.9508 563.673 z" fill="rgb(64,73,83)" transform="translate(0,0)"></path>
<path d="M 83.4716 485.769 C 84.4762 484.787 86.9946 481.946 88.3563 481.71 C 89.7197 482.191 86.5368 487.267 86.1375 488.079 L 83.4716 485.769 z" fill="rgb(232,182,130)" transform="translate(0,0)"></path>
<path d="M 84.6844 569.642 C 92.434 565.677 106.174 562.567 112.67 555.404 C 128.719 537.705 88.7879 522.563 91.0807 499.139 C 91.2618 492.371 94.7146 482.42 100.415 477.895 C 151.094 437.66 216.93 467.9 265.695 495.503 C 273.708 500.039 291.332 508.26 299.799 507.719 C 322.352 504.127 314.598 476.41 330.036 461.303 C 352.391 439.426 391.309 443.087 414.065 465.678 C 409.42 466.289 402.325 464.848 397.655 464.179 C 373.929 460.776 338.878 460.091 335.818 491.769 C 335.022 500.003 331.315 509.889 325.494 516.168 C 317.819 524.449 299.408 529.932 290.448 520.744 C 295.824 519.996 301.69 521.933 307.561 520.561 C 335.442 514.044 326.152 488.377 338.273 471.516 C 345.312 461.725 359.979 459.323 370.938 457.976 C 377.173 456.504 381.837 457.516 385.796 455.356 C 370.038 451.763 357.447 450.965 342.09 459.522 C 316.255 473.919 331.967 520.103 292.115 512.284 C 275.662 509.056 251.159 494.539 234.981 486.858 C 199.413 469.97 158.007 457.653 121.063 478.316 C 115.117 481.642 111.041 487.591 109.546 494.682 C 104.472 518.755 139.988 540.891 117.518 560.719 C 107.832 569.267 88.3088 569.317 86.8451 581.734 C 85.4772 593.339 94.9946 605.872 98.7142 616.478 C 111.341 652.48 84.7123 685.811 58.7652 706.723 C 55.6862 703.2 50.3876 695.222 47.4864 691.096 C 58.6002 683.085 68.8648 674.441 77.3968 663.644 C 111.85 620.045 75.9852 613.187 74.0981 588.435 C 73.6007 581.911 76.5963 577.358 80.6112 572.571 C 82.096 571.538 83.308 570.812 84.6844 569.642 z" fill="rgb(232,182,130)" transform="translate(0,0)"></path>
<path d="M 385.796 455.356 C 388.328 455.698 392.014 456.537 394.267 457.716 C 394.351 457.905 394.436 458.093 394.52 458.282 C 394.146 458.601 373.373 458.057 370.938 457.976 C 377.173 456.504 381.837 457.516 385.796 455.356 z" fill="rgb(93,70,54)" transform="translate(0,0)"></path>
<path d="M 229.269 784.124 C 231.227 789.65 229.948 805.084 230.012 811.96 C 237.523 809.588 242.934 807.376 250.029 804.249 C 244.282 810.757 242.326 809.452 234.491 812.466 C 231.597 813.58 227.115 814.386 228.289 817.379 C 230.631 817.726 232.858 818.336 235.147 818.92 C 226.061 821.448 225.946 820.107 226.346 811.141 C 226.551 806.548 226.058 801.773 226.285 797.151 C 230.235 792.426 228.471 790.361 229.269 784.124 z" fill="rgb(10,34,54)" transform="translate(0,0)"></path>
<path d="M 131.239 675.301 C 169.729 670.211 206.786 691.283 227.02 723.47 C 239.249 742.923 244.468 762.216 247.871 784.642 C 280.82 749.872 314.048 718.521 362.352 706.805 C 388.503 700.463 414.936 701.922 438.279 716.077 C 407.87 707.66 394.849 703.871 363.503 711.627 C 308.911 728.558 281.538 757.014 243.978 797.436 C 242.792 777.501 239.338 763.947 232.091 745.351 C 212.893 696.088 155.572 663.11 105.121 687.626 C 95.0729 692.509 84.9489 698.715 74.5553 702.957 L 73.257 703.479 C 89.4241 688.635 109.578 678.84 131.239 675.301 z" fill="rgb(232,182,130)" transform="translate(0,0)"></path>
<path d="M 149.306 479.152 C 172.966 477.405 196.47 479.863 216.609 493.092 C 206.398 489.422 195.872 486.695 185.163 484.945 C 170.516 482.536 147.469 479.938 135.437 489.644 C 108.162 511.648 140.779 527.669 137.951 549.72 C 135.964 564.395 120.982 568.872 111.214 576.591 C 91.8736 591.875 110.169 601.938 119.504 612.182 L 120.376 613.15 C 128.325 633.604 119.089 654.056 103.997 668.134 C 111.639 654.597 125.475 630.818 115.597 615.286 C 110.718 607.614 99.9401 604.782 97.7259 594.103 C 92.9399 571.018 121.813 571.398 131.017 556.099 C 139.161 541.611 124.283 527.879 120.781 514.318 C 115.249 492.898 130.919 483.474 149.306 479.152 z" fill="rgb(232,182,130)" transform="translate(0,0)"></path>
<path d="M 387.634 479.383 L 388.135 482.204 C 379.518 492.847 372.725 504.844 368.029 517.708 C 354.723 554.401 359.312 596.329 376.688 630.872 C 382.29 642.01 390.761 651.346 395.861 662.956 C 394.853 662.044 393.867 661.108 392.904 660.149 C 346.621 614.46 340.353 527.005 387.634 479.383 z" fill="rgb(232,182,130)" transform="translate(0,0)"></path>
<path d="M 253.352 742.357 C 256.023 738.668 264.252 731.196 267.756 728.139 C 292.047 706.943 316.189 692.924 346.747 682.961 C 349.376 684.355 350.279 685.396 352.894 686.642 C 331.578 692.443 311.389 701.789 293.173 714.287 C 288.2 717.647 251.956 746.583 250.954 746.851 L 251.64 745.846 C 252.227 743.885 252.044 743.635 253.352 742.357 z" fill="rgb(232,182,130)" transform="translate(0,0)"></path>
<path d="M 253.352 742.357 C 254.72 744.159 253.287 744.431 251.64 745.846 C 252.227 743.885 252.044 743.635 253.352 742.357 z" fill="rgb(188,155,121)" transform="translate(0,0)"></path>
<path d="M 346.747 682.961 C 371.128 675.414 394.097 675.92 418.198 683.715 C 413.234 683.72 411.448 683.761 406.497 683.162 C 392.198 681.343 377.707 681.689 363.511 684.187 C 359.92 684.819 356.428 685.772 352.894 686.642 C 350.279 685.396 349.376 684.355 346.747 682.961 z" fill="rgb(232,182,130)" transform="translate(0,0)"></path>
<path d="M 123.535 610.953 C 135.017 611.071 136.295 613.518 133.053 625.466 C 128.918 625.71 130.888 621.999 130.802 619.443 C 130.723 617.123 125.47 613.174 123.535 610.953 z" fill="rgb(232,182,130)" transform="translate(0,0)"></path>
<path d="M 387.634 479.383 C 390.532 476.367 394.144 473.675 397.492 471.162 C 394.337 474.84 391.253 478.503 388.135 482.204 L 387.634 479.383 z" fill="rgb(126,123,121)" transform="translate(0,0)"></path>
<path d="M 1376.7 262.492 C 1383.77 259.091 1388.49 255.329 1395.05 251.377 C 1395.14 256.351 1395.08 261.073 1395.35 266.057 C 1391.46 265.031 1390.81 263.673 1387.59 267.025 C 1385.37 268.996 1383.17 270.792 1380.93 272.711 C 1378.07 270.218 1378.04 269.974 1374.48 268.748 C 1376.86 264.768 1376.19 267.588 1376.7 262.492 z" fill="rgb(18,27,33)" transform="translate(0,0)"></path>
<metadata><recraft-signature>{"signed_by": "recraft", "signature_b64": "gllf+QRtQ9SPRd7lYEwjSBh+fLje6ivktW9NQLscl9PO2jDt9weHBZbogThwb+oVT28s/C9CVP6bOCwGhwRuAA==", "signing_algo": "Ed25519", "generation_timestamp": 1778553345, "identifier": "b495ff2e-3a7e-4901-b449-a9074f4324fc"}</recraft-signature></metadata></svg>