<svg xmlns="http://www.w3.org/2000/svg" height="1024" preserveAspectRatio="none" style="display: block;" version="1.1" viewBox="0 0 2048 2048" width="1024">

<path d="M 399.578 84.8612 C 400.193 84.9835 402.957 85.5119 403.597 85.8655 C 415.787 92.6003 402.931 121.218 403.395 134.094 C 403.817 145.827 403.395 152.127 409.336 162.901 C 432.543 204.978 478.363 213.196 496.741 263.087 C 511.315 302.649 500.493 338.064 478.589 372.602 C 468.812 388.019 457.939 401.279 450.644 417.993 C 441.947 437.92 440.212 462.141 448.973 482.412 C 477.306 547.971 559.646 546.239 616.353 570.384 C 657.654 587.969 698.283 623.074 714.114 665.344 C 743.061 742.637 714.405 815.132 652.114 865.468 C 612.562 897.281 560.86 914.984 540.066 965.465 C 515.876 1024.19 563.762 1081.06 615.49 1102.57 C 669.964 1057.82 735.343 1028.34 804.945 1017.14 C 813.357 1015.78 823.143 1014.26 831.576 1013.79 C 889.321 1010.52 943.717 998.963 992.122 965.1 C 995.951 953.064 1002.21 939.032 1006.91 926.942 C 970.002 961.816 923.468 949.522 887.942 917.81 C 885.857 915.948 885.767 914.362 886.001 911.902 C 892.23 906.958 905.023 913.073 913.537 912.314 C 979.201 906.459 971.028 855.991 969.835 809.026 C 925.008 858.399 857.555 835.944 824.127 785.969 C 818.839 778.063 805.678 758.405 807.363 748.945 C 808.746 747.392 809.978 746.267 812.366 747.031 C 837.462 755.053 859.582 757.706 886.03 753.45 C 878.167 726.876 880.1 716.585 887.951 690.023 C 843.887 694.975 805.545 680.365 786.024 636.051 C 784.951 633.616 785.323 631.979 786.575 629.901 C 793.948 629.007 807.084 644.47 819.281 646.285 C 848.797 650.675 859.4 631.58 877.501 613.986 C 884.525 607.158 889.922 603.413 897.795 598.406 C 844.419 576.835 806.545 535.03 779.246 485.13 C 746.008 421.63 738.289 342.115 757.058 273.04 C 766.757 237.346 795.844 222.813 822.384 254.488 C 828.095 261.759 832.262 270.947 837.697 278.284 C 857.806 305.427 892.096 328.882 923.039 341.279 C 946.346 350.616 975.881 326.845 993.517 314.535 C 1002.23 308.454 1011.78 303.625 1021.38 298.729 C 1001.46 284.324 990.283 266.709 985.011 242.42 C 983.65 236.15 982.101 215.749 985.423 210.849 C 988.923 209.437 989.688 209.601 992.292 213.145 C 1007.43 233.749 1023.7 245.454 1050.44 246.094 C 1103.37 247.36 1136.18 216.356 1193.39 230.101 C 1227.52 238.301 1250.82 251.857 1270.52 281.728 C 1265.65 236.13 1246.32 206.59 1200.74 192.174 C 1193.23 189.799 1181.75 192.173 1176.95 186.375 C 1177.17 184.785 1177.31 183.386 1178.92 182.514 C 1226.14 157.403 1287.58 171.894 1323.01 210.995 C 1348.92 239.589 1355.02 265.424 1354.05 302.859 C 1383.47 279.589 1405.14 244.351 1376.09 209.423 C 1372.06 204.576 1359.8 197.582 1361.39 190.681 C 1368.6 187.015 1389.33 196.028 1396.02 200.229 C 1449.44 233.745 1454.65 296.694 1422.87 346.7 C 1454.24 324.037 1489.71 308.86 1515.13 279.78 C 1523.94 269.698 1532.78 258.693 1538.72 246.62 C 1546.97 229.47 1547.25 210.092 1563.56 197.609 C 1578.81 185.939 1596.71 200.534 1605.34 213.675 C 1633.65 256.786 1637.63 321.524 1630.7 371.006 C 1620.55 443.565 1578.69 497.659 1520.92 539.579 C 1520.27 567.024 1534.61 595.255 1564.27 599.245 C 1570.87 600.151 1577.59 599.515 1583.9 597.386 C 1602.19 591.336 1601.18 580.237 1612.51 571.407 L 1614.22 571.738 C 1615.83 573.556 1617.07 575.242 1616.87 577.899 C 1614.05 616.201 1588.17 642.856 1550.37 644.273 C 1591.61 674.217 1615.59 709.783 1605.59 763.529 C 1604.23 770.842 1595.1 800.435 1585.27 797.197 C 1577.39 785.349 1598.74 757.467 1563.35 732.02 L 1562.16 731.181 C 1555.04 727.524 1549.99 726.037 1542.36 723.961 C 1535.08 758.576 1527.48 770.877 1503.01 796.462 C 1504.24 836.759 1517.91 864.963 1562.32 871.069 C 1570.8 872.234 1582.01 866.236 1588.9 871.307 L 1588.92 873.779 C 1584.52 881.604 1574.84 887.671 1567.47 892.536 C 1527.62 918.874 1479.07 912.557 1453.35 870.69 C 1448.99 897.942 1447.65 940.592 1474.96 956.983 C 1480.31 960.193 1487.82 960.815 1488.61 967.268 C 1486.02 971.228 1482.93 971.65 1478.22 972.696 C 1451.63 978.602 1431.57 972.699 1409.18 958.674 C 1415.43 977.156 1416.57 995.961 1423.01 1013.54 C 1424.46 1017.5 1434.33 1029.21 1437.39 1034.41 C 1450.39 1056.63 1460.05 1080.64 1466.06 1105.67 C 1483.64 1181.47 1471.35 1266.37 1442.16 1337.66 C 1430.21 1365.15 1416.92 1391.14 1407.65 1419.78 C 1392.1 1467.85 1386.87 1512.74 1386.9 1563.01 C 1390.05 1565.63 1394.09 1569.2 1396.94 1572.11 C 1407.21 1582.7 1412.63 1597.09 1411.9 1611.83 C 1411.3 1625.67 1406.89 1632.22 1397.52 1641.07 C 1403.67 1666.69 1409.86 1691.61 1420.26 1715.89 C 1431.72 1715.52 1442.76 1716.78 1454.07 1717.01 C 1471.15 1717.06 1484.6 1714.13 1500.81 1721.39 C 1556.75 1746.48 1567.87 1825.32 1529.21 1870.03 C 1510.26 1891.95 1476.07 1895.79 1448.89 1897.95 C 1426.12 1899.63 1403.28 1900.07 1380.46 1899.25 C 1330.17 1897.7 1290.78 1893.81 1250.76 1859.73 C 1242.36 1879.27 1228.71 1895.93 1209.48 1905.72 C 1176 1922.77 1076.35 1921.57 1037.11 1916.87 C 1025.01 1915.48 1013.08 1912.93 1001.48 1909.26 C 977.166 1901.42 964.826 1895.52 953.304 1873.02 C 906.781 1875.19 867.99 1874.13 827.434 1845.59 C 786.147 1816.53 787.811 1755.07 784.254 1708.48 C 782.427 1682.94 779.717 1657.48 776.128 1632.13 C 748.395 1614.07 730.456 1570.52 766.025 1549.05 C 768.136 1547.78 774.902 1544.19 776.179 1542.16 C 786.448 1525.82 787.27 1506.42 784.788 1487.78 C 780.797 1461.69 778.724 1434.72 774.699 1408.69 L 756.047 1403.02 C 744.767 1455.66 728.567 1501.37 681.429 1531.58 C 660.484 1545 645.354 1553.93 629.109 1573.18 C 630.485 1574.74 631.813 1576.35 633.089 1578 C 654.341 1605.88 634.115 1626.21 611.638 1642.18 C 612.341 1659.03 615.574 1696.07 624.841 1710.65 C 627.931 1715.52 641.597 1714.96 648.393 1715.81 C 669.233 1718.53 688.117 1729.48 700.832 1746.21 C 729.009 1783.1 722.442 1848.04 685.497 1873.23 C 656.89 1892.73 567.082 1889.37 532.746 1884.01 C 480.254 1875.83 437.009 1844.58 435.4 1788.53 C 433.755 1731.25 445.102 1671.97 454.748 1615.69 C 443.125 1601.09 434.425 1584.61 435.183 1565.53 C 436.214 1539.61 446.804 1523.54 474.008 1525.17 C 481.495 1494.95 502.555 1454.46 528.906 1436.82 C 529.13 1408.01 531.458 1378.69 533.034 1349.89 C 535.447 1305.8 542.017 1263.06 553.008 1220.29 C 539.013 1211.86 522.009 1202.61 509.449 1192.47 C 437.19 1133.99 395.158 1035.75 424.442 944.444 C 445.387 879.134 492.944 835.17 554.211 808.032 C 582.287 795.597 612.819 773.494 621.881 742.883 C 627.856 722.701 625.848 702.737 615.367 684.433 C 594.032 644.095 549.384 629.906 509.062 617.675 C 438.903 596.393 373.214 546.758 374.296 467.097 C 374.933 420.241 395.113 385.947 428.258 354.244 C 459.011 324.829 478.739 287.725 443.129 252.105 C 430.203 239.681 414.234 231.44 400.379 219.912 C 371.499 195.881 358.515 159.142 370.329 122.841 C 375.579 106.709 383.838 92.9632 399.578 84.8612 z" fill="rgb(32,27,26)" transform="translate(0,0)"></path>
<path d="M 1060.9 833.747 C 1061.12 832.884 1061.22 832.329 1061.56 831.558 C 1062.19 831.778 1074.2 839.669 1078.1 841.538 C 1082.16 843.3 1092.37 847.41 1095.79 849.328 C 1115.47 855.407 1129.62 858.807 1150.74 858.929 C 1156.52 858.325 1176.13 855.527 1180.63 855.738 C 1198.09 856.56 1219.74 860.571 1236.74 864.489 C 1284.11 875.409 1317.74 879.102 1364.64 865.166 C 1374.36 882.367 1390.49 917.436 1394.48 937.037 C 1430.24 1044.78 1437.33 1173.61 1385.38 1278.31 C 1343.39 1362.93 1276.96 1394.61 1191.84 1424.46 C 1164.85 1433.92 1142.1 1437.49 1113.36 1436.93 C 1115.18 1426.09 1117.32 1411.41 1120.94 1401.34 C 1125.13 1389.7 1131.9 1376.73 1137.01 1365.12 C 1149.54 1336.1 1154.87 1304.48 1152.53 1272.95 C 1152.01 1265.71 1152.01 1254.86 1148.01 1248.94 C 1143.18 1252.94 1143.31 1253.31 1144.07 1259.77 C 1150.28 1312.05 1135.73 1352.75 1112.88 1398.31 C 1108.79 1406.47 1107.21 1425.12 1105.19 1434.71 C 1098.32 1477.16 1097.54 1518.4 1098.3 1561.26 C 1039.76 1543.4 967.876 1554.47 928.014 1604.19 C 915.048 1540.09 889.199 1467.48 891.995 1401.51 C 892.987 1378.1 905.295 1347.24 908.183 1322.91 C 909.531 1311.55 909.961 1264.51 902.345 1257.23 C 899.13 1256.8 900.607 1256.5 897.781 1258.24 C 897.319 1259.55 896.786 1261.24 897.042 1262.62 C 899.65 1276.68 901.399 1288.89 901.355 1303.34 C 901.165 1319.04 898.934 1334.64 894.718 1349.76 C 886.787 1378.15 882.691 1393.29 883.085 1423.06 C 837.753 1415.61 800.497 1406.08 756.675 1395.84 C 760.057 1380.56 761.508 1353.07 762.201 1337.32 C 762.212 1331.87 762.195 1326.42 762.15 1320.97 C 762.088 1316.93 762.401 1316.03 759.97 1313.68 L 757.704 1313.8 C 757.007 1314.39 756.31 1314.98 755.614 1315.57 C 752.105 1385.31 747.273 1472.32 686.169 1518.39 C 657.093 1540.32 625.603 1550.6 611.426 1590.94 C 589.417 1599.38 567.618 1601.66 544.905 1594.81 C 517.478 1586.53 491.783 1568.05 477.923 1542.76 C 483.717 1505.04 502.585 1473.15 528.912 1446.36 C 528.903 1450.4 528.369 1460.37 529.99 1463.34 C 533.138 1464.24 531.563 1464.23 534.868 1463.08 C 536.97 1459.92 536.935 1449.78 536.999 1445.73 C 538.364 1359.3 542.671 1278.52 568.56 1195.29 C 592.4 1124.37 612.843 1109.56 674.942 1070.79 C 690.198 1062.66 701.298 1056.96 717.687 1050.79 C 744.369 1039.54 777.658 1029.17 806.429 1024.87 C 821.949 1021.84 846.311 1019.68 862.25 1018.99 C 876.043 1018.53 897.087 1013.71 910.566 1010.32 C 916.155 1008.97 921.698 1007.43 927.184 1005.71 C 937.682 1002.06 945.904 998.885 956.123 994.557 C 985.614 980.059 1011.33 965.646 1031.22 938.033 C 1036.88 929.86 1040.02 924.93 1044.61 916.159 C 1053.57 895.099 1057.75 880.345 1059.44 856.983 C 1059.96 849.727 1059.83 841.823 1060.75 834.769 L 1060.9 833.747 z" fill="rgb(231,176,113)" transform="translate(0,0)"></path>
<path d="M 1150.74 858.929 C 1156.52 858.325 1176.13 855.527 1180.63 855.738 C 1198.09 856.56 1219.74 860.571 1236.74 864.489 C 1284.11 875.409 1317.74 879.102 1364.64 865.166 C 1374.36 882.367 1390.49 917.436 1394.48 937.037 C 1430.24 1044.78 1437.33 1173.61 1385.38 1278.31 C 1343.39 1362.93 1276.96 1394.61 1191.84 1424.46 C 1164.85 1433.92 1142.1 1437.49 1113.36 1436.93 C 1115.18 1426.09 1117.32 1411.41 1120.94 1401.34 C 1125.13 1389.7 1131.9 1376.73 1137.01 1365.12 C 1149.54 1336.1 1154.87 1304.48 1152.53 1272.95 C 1152.01 1265.71 1152.01 1254.86 1148.01 1248.94 C 1140.95 1231.94 1156.36 1152.39 1158.45 1128.43 C 1166.21 1039.31 1158.59 950.801 1152.05 862.118 L 1150.74 858.929 z" fill="rgb(254,254,253)" transform="translate(0,0)"></path>
<path d="M 1150.74 858.929 C 1156.52 858.325 1176.13 855.527 1180.63 855.738 C 1198.09 856.56 1219.74 860.571 1236.74 864.489 C 1284.11 875.409 1317.74 879.102 1364.64 865.166 C 1374.36 882.367 1390.49 917.436 1394.48 937.037 C 1327.73 930.194 1210.61 893.656 1152.05 862.118 L 1150.74 858.929 z" fill="rgb(199,191,172)" transform="translate(0,0)"></path>
<path d="M 1250.29 1182.91 C 1250.9 1182.91 1253.76 1182.87 1254.44 1183.2 C 1272.9 1192.06 1231.06 1205.82 1227.23 1207.22 C 1221.77 1207.05 1216.71 1204.64 1218.03 1199.47 C 1219.14 1195.17 1246.41 1184.75 1250.29 1182.91 z" fill="rgb(83,90,141)" transform="translate(0,0)"></path>
<path d="M 1270.14 1261.77 C 1284.39 1262.97 1278.72 1272.23 1274.41 1280.63 C 1270.45 1288.34 1269.34 1293.81 1264.11 1301.32 C 1260.77 1301.06 1255.7 1301.33 1255.5 1296.83 C 1255.1 1288.22 1265.81 1268.78 1270.14 1261.77 z" fill="rgb(83,90,141)" transform="translate(0,0)"></path>
<path d="M 1235.92 1044.73 C 1241.02 1044.96 1245.6 1045.34 1245.96 1051.48 C 1246.5 1060.66 1253.48 1075.6 1248.7 1083.36 L 1247.84 1084.81 C 1239.66 1084.55 1239.59 1083.49 1238.13 1075.49 C 1238.01 1074.67 1237.88 1073.84 1237.75 1073.02 C 1236.44 1065.79 1235.16 1058.57 1233.32 1051.44 C 1232.47 1048.2 1234.17 1047.26 1235.92 1044.73 z" fill="rgb(83,90,141)" transform="translate(0,0)"></path>
<path d="M 1366.92 1186.59 C 1377.24 1187.83 1376.7 1191.49 1374.63 1200.99 C 1373.29 1207.16 1371.17 1217.38 1367.42 1222.27 L 1366.33 1223.71 C 1357.15 1221.6 1356.05 1218.86 1358.78 1210.17 C 1361.24 1202.31 1362.46 1193.6 1366.92 1186.59 z" fill="rgb(83,90,141)" transform="translate(0,0)"></path>
<path d="M 1194.3 1339.48 C 1206.35 1341.33 1203.08 1348.51 1197.66 1355.57 C 1193.3 1361.27 1191.61 1364.92 1186.36 1370.28 C 1174.16 1369.09 1178.26 1360.85 1182.93 1354.44 C 1187.96 1347.56 1187.58 1345.72 1194.3 1339.48 z" fill="rgb(83,90,141)" transform="translate(0,0)"></path>
<path d="M 1321.76 1101.5 C 1335.15 1105.67 1328.36 1111.81 1329.83 1124.51 C 1330.36 1129.18 1328.67 1133.24 1325.85 1136.93 C 1313.55 1134.42 1318.39 1131.84 1317.71 1119.03 C 1317.31 1111.45 1317.71 1107.79 1321.76 1101.5 z" fill="rgb(83,90,141)" transform="translate(0,0)"></path>
<path d="M 1241.92 946.424 C 1248.49 946.24 1250.62 950.032 1248.57 955.646 C 1247.23 959.301 1227.99 961.046 1224.35 961.645 C 1217.11 961.587 1211.81 950.175 1227.5 948.156 L 1241.92 946.424 z" fill="rgb(83,90,141)" transform="translate(0,0)"></path>
<path d="M 1306.42 1325.45 C 1318.18 1330.54 1312.3 1336.75 1307.62 1344.39 C 1304.59 1349.34 1303.67 1350.64 1299.65 1354.69 C 1284.84 1348.86 1299.45 1331.72 1306.42 1325.45 z" fill="rgb(83,90,141)" transform="translate(0,0)"></path>
<path d="M 1309.18 1009.87 C 1310.62 1009.9 1316.63 1009.52 1317.19 1010.76 C 1321.25 1019.75 1326.35 1027.99 1319.62 1035.59 C 1305.89 1033.75 1311.17 1027.42 1306.6 1015.48 C 1305.92 1013.72 1306.98 1012.34 1308.08 1011.13 L 1309.18 1009.87 z" fill="rgb(83,90,141)" transform="translate(0,0)"></path>
<path d="M 1361.83 962.123 C 1365.6 963.489 1369.68 966.541 1367.6 971.712 C 1366.2 975.191 1356.75 977.56 1353.08 978.737 L 1349.7 979.853 C 1345.24 978.122 1338.97 973.903 1345.15 967.594 C 1346.24 966.476 1359.32 962.785 1361.83 962.123 z" fill="rgb(83,90,141)" transform="translate(0,0)"></path>
<path d="M 762.796 1321.95 C 800.461 1325.3 831.236 1331.88 867.609 1342.26 C 876.136 1344.69 885.711 1346.22 893.83 1348.64 L 894.718 1349.76 C 886.787 1378.15 882.691 1393.29 883.085 1423.06 C 837.753 1415.61 800.497 1406.08 756.675 1395.84 C 760.057 1380.56 761.508 1353.07 762.201 1337.32 C 762.781 1331.28 762.865 1327.94 762.796 1321.95 z" fill="rgb(254,254,253)" transform="translate(0,0)"></path>
<path d="M 830.926 1359.78 C 837.903 1361.46 843.515 1364.73 850.269 1366.57 C 860.806 1369.44 861.039 1374.39 853.984 1381.12 C 847.743 1379.49 826.139 1372.76 826.174 1365.5 C 826.185 1363.28 829.476 1361.06 830.926 1359.78 z" fill="rgb(83,90,141)" transform="translate(0,0)"></path>
<path d="M 717.687 1050.79 C 744.369 1039.54 777.658 1029.17 806.429 1024.87 C 816.695 1037.79 819.718 1046.84 817.815 1064.09 C 812.294 1114.15 744.356 1152.24 707.508 1106.74 C 702.167 1100.14 699.954 1091.1 701.397 1082.96 C 702.495 1072.9 716.651 1056.82 717.687 1050.79 z" fill="rgb(224,112,93)" transform="translate(0,0)"></path>
<path d="M 674.942 1070.79 C 682.65 1079.13 691.933 1087.68 690.173 1100.23 C 681.864 1159.46 621.58 1189.84 568.56 1195.29 C 592.4 1124.37 612.843 1109.56 674.942 1070.79 z" fill="rgb(224,112,93)" transform="translate(0,0)"></path>
<path d="M 1060.9 833.747 C 1061.12 832.884 1061.22 832.329 1061.56 831.558 C 1062.19 831.778 1074.2 839.669 1078.1 841.538 C 1082.16 843.3 1092.37 847.41 1095.79 849.328 C 1100.52 855.658 1107.56 859.343 1111.9 864.728 C 1122.2 877.512 1125.25 898.377 1123.72 914.365 C 1120.76 949.666 1083.64 982.536 1054.58 947.523 C 1047.56 939.061 1049.08 924.235 1044.61 916.159 C 1053.57 895.099 1057.75 880.345 1059.44 856.983 C 1059.96 849.727 1059.83 841.823 1060.75 834.769 L 1060.9 833.747 z" fill="rgb(224,112,93)" transform="translate(0,0)"></path>
<path d="M 1060.9 833.747 C 1061.12 832.884 1061.22 832.329 1061.56 831.558 C 1062.19 831.778 1074.2 839.669 1078.1 841.538 C 1058.45 844.547 1061.68 849.126 1060.9 833.747 z" fill="rgb(231,176,113)" transform="translate(0,0)"></path>
<path d="M 862.25 1018.99 C 876.043 1018.53 897.087 1013.71 910.566 1010.32 C 916.155 1008.97 921.698 1007.43 927.184 1005.71 C 934.895 1019.11 937.961 1029.98 934.72 1045.47 C 930.823 1064.09 919.469 1075.94 903.396 1084.81 C 880.037 1097.69 851.177 1096.96 840.956 1068.51 C 835.799 1054.15 841.002 1039.18 851.307 1028.31 C 854.545 1024.96 858.697 1022.22 862.25 1018.99 z" fill="rgb(224,112,93)" transform="translate(0,0)"></path>
<path d="M 1031.22 938.033 C 1056.57 972.065 1017.85 1023.47 979.501 1015.01 C 970.957 1013.21 963.525 1007.98 958.938 1000.55 C 957.439 998.141 956.976 997.111 956.123 994.557 C 985.614 980.059 1011.33 965.646 1031.22 938.033 z" fill="rgb(224,112,93)" transform="translate(0,0)"></path>
<path d="M 630.629 1204.96 C 641.968 1204.18 652.841 1209.6 659.042 1219.12 C 665.243 1228.65 665.798 1240.78 660.492 1250.84 C 655.187 1260.89 644.853 1267.28 633.49 1267.53 C 616.477 1267.91 602.27 1254.64 601.493 1237.64 C 600.715 1220.64 613.652 1206.13 630.629 1204.96 z" fill="rgb(224,112,93)" transform="translate(0,0)"></path>
<path d="M 723.472 1144.74 C 740.08 1142.08 755.672 1153.47 758.191 1170.1 C 760.71 1186.73 749.19 1202.23 732.539 1204.61 C 716.087 1206.96 700.816 1195.6 698.327 1179.17 C 695.838 1162.74 707.061 1147.37 723.472 1144.74 z" fill="rgb(224,112,93)" transform="translate(0,0)"></path>
<path d="M 981.861 1041.71 C 991.389 1040.22 1000.98 1043.97 1006.98 1051.52 C 1012.98 1059.07 1014.46 1069.26 1010.85 1078.21 C 1007.25 1087.15 999.109 1093.46 989.549 1094.74 C 975 1096.68 961.596 1086.55 959.49 1072.03 C 957.384 1057.5 967.359 1043.98 981.861 1041.71 z" fill="rgb(224,112,93)" transform="translate(0,0)"></path>
<path d="M 1064.39 997.207 C 1083.78 996.76 1086.69 1006.65 1085.95 1022.71 C 1080.43 1030.63 1079.73 1031.74 1069.7 1034.74 C 1041.82 1035.47 1041.04 1004 1062.45 997.802 L 1064.39 997.207 z" fill="rgb(224,112,93)" transform="translate(0,0)"></path>
<path d="M 819.372 1139.78 C 827.216 1138.47 834.648 1143.73 836.038 1151.56 C 837.428 1159.38 832.259 1166.87 824.446 1168.35 C 819.313 1169.32 814.055 1167.46 810.678 1163.48 C 807.301 1159.49 806.325 1154 808.124 1149.09 C 809.923 1144.19 814.219 1140.63 819.372 1139.78 z" fill="rgb(224,112,93)" transform="translate(0,0)"></path>
<path d="M 924.809 1404.56 C 940.77 1406.34 919.375 1416.2 918.496 1421.92 C 918.465 1422.12 916.891 1424.49 916.692 1424.8 C 924.266 1423.35 934.624 1420.14 942.02 1419.24 C 944.799 1418.9 944.659 1423.23 943.338 1425.77 C 936.028 1428.34 896.642 1442.62 913.219 1416.17 C 915.105 1413.16 922.038 1406.96 924.809 1404.56 z" fill="rgb(32,27,26)" transform="translate(0,0)"></path>
<path d="M 927.227 1434.62 C 936.411 1436.48 927.058 1444.86 925.294 1450.09 C 919.535 1467.16 934.089 1450.06 937.45 1448.46 C 943.788 1445.45 941.809 1453.11 940.31 1456.18 C 919.67 1476.84 904.747 1454.25 927.227 1434.62 z" fill="rgb(32,27,26)" transform="translate(0,0)"></path>
<path d="M 1533.88 692.012 C 1537.09 724.013 1530.73 749.683 1511.14 775.649 C 1476.06 822.139 1398.81 844.141 1342.23 851.146 C 1254.27 862.035 1130.96 852.729 1058.15 796.997 C 1013.31 762.673 995.513 706.631 992.969 651.928 C 992.426 637.308 994.75 622.693 994.257 608.125 C 994.041 601.743 984.768 604.306 980.147 604.327 C 939.051 604.514 898.435 594.853 864.375 571.124 C 811.438 534.245 773.303 473.827 761.432 410.535 C 753.062 364.012 750.605 299.224 773.248 256.48 C 775.989 251.741 782.878 246.547 788.68 245.843 C 812.43 242.961 820.987 269.349 831.983 284.511 C 839.107 294.334 849.431 303.816 858.349 311.362 C 904.151 350.114 962.778 360.376 1011.86 392.639 C 1032.45 406.176 1046.36 427.863 1049.31 452.244 C 1050.41 461.259 1050.47 471.23 1052.1 480.001 C 1054.94 481.631 1053.51 481.459 1056.49 480.831 C 1059.87 476.526 1059.24 466.228 1058.56 460.771 C 1054.31 426.778 1046.61 411.515 1021.54 390.197 C 1064.93 357.942 1113.61 360.926 1162.29 376.359 C 1180.13 388.333 1220.95 404.866 1241.53 410.73 C 1244.74 413.88 1242.95 413.223 1246.74 413.603 C 1249.03 412.253 1249.13 412.529 1250.79 410.646 C 1254.64 408.842 1257.07 408.331 1261.02 409.382 C 1264.93 411.5 1264.83 411.108 1268.07 410.423 C 1271.43 407.798 1271.55 406.744 1273.39 402.695 C 1275.04 402.738 1284.03 402.884 1285.31 403.153 C 1286.3 403.864 1287.28 404.575 1288.27 405.286 C 1298.49 405.566 1319.95 403.68 1329.49 402.01 C 1345.24 399.255 1367.18 392.398 1380.33 385.012 C 1392.07 394.245 1404.58 403.93 1414.83 414.768 C 1457.19 459.583 1475.76 516.566 1482.92 576.38 C 1484.05 585.707 1484.95 595.062 1485.62 604.435 C 1498.68 622.829 1506.48 628.012 1519.65 649.891 C 1527.49 665.173 1531.7 674.969 1533.88 692.012 z" fill="rgb(231,176,113)" transform="translate(0,0)"></path>
<path d="M 1533.88 692.012 C 1506.9 699.323 1475.37 703.482 1448.61 692.742 C 1440.66 689.552 1434.82 678.855 1440.42 671.407 C 1450.32 658.254 1472.41 653.294 1488 652.081 L 1519.65 649.891 C 1527.49 665.173 1531.7 674.969 1533.88 692.012 z" fill="rgb(224,112,93)" transform="translate(0,0)"></path>
<path d="M 799.077 309.768 C 807.37 313.211 821.236 331.396 833.646 338.594 C 854.038 350.603 875.37 359.67 897.518 367.842 C 931.184 380.263 937.773 430.989 952.245 461.086 C 973.644 505.591 980.404 521.049 1026.3 539.161 C 1026.52 538.952 1026.73 538.743 1026.95 538.533 L 1028.05 537.508 C 1030.84 534.863 1033.79 531.544 1037.96 532.493 C 1039.93 540.862 1020.42 558.232 1013.87 562.865 C 998.572 571.927 982.311 577.761 964.532 578.639 C 848.253 584.388 756.768 447.74 787.646 340.159 C 790.355 330.72 792.483 317.184 799.077 309.768 z" fill="rgb(32,27,26)" transform="translate(0,0)"></path>
<path d="M 801.484 320.521 C 803.463 321.96 808.527 327.64 810.678 329.739 C 817.336 336.305 824.704 342.109 832.646 347.044 C 855.357 361.126 883.292 368.367 905.962 380.343 C 917.025 386.188 928.087 420.804 932.917 433.749 C 938.634 449.181 945.111 464.32 952.324 479.111 C 970.632 515.732 983.813 532.357 1022.06 545.12 C 1013.7 554.226 1011.01 556.091 1000.01 561.906 C 974.615 573.489 937.831 574.134 912.007 563.453 C 815.309 523.46 765.951 420.12 801.484 320.521 z" fill="rgb(224,112,93)" transform="translate(0,0)"></path>
<path d="M 1335.71 639.377 C 1354.18 636.304 1397.74 639.137 1401.84 662.981 C 1406.58 690.501 1375.4 701.882 1354.08 706.592 C 1353.82 712.16 1353.28 718.087 1352.86 723.669 C 1358.16 734.567 1360.87 745.052 1371.86 752.126 C 1387.04 761.901 1410.2 764.18 1424.27 750.998 C 1429.2 746.378 1430.95 734.424 1438.11 733.107 L 1439.37 734.288 C 1439.45 735.156 1439.59 736.029 1439.34 736.887 C 1432.18 761.057 1407.65 771.62 1384.41 764.275 C 1365.57 758.323 1359.06 749.741 1350.37 733.651 C 1347.3 741.327 1344.59 745.829 1339.82 752.382 C 1334.99 758.251 1328.92 762.979 1322.04 766.229 C 1296.86 778.027 1260.29 769.551 1246.12 743.039 C 1244.41 739.825 1244.12 735.061 1245.62 731.642 L 1246.97 731.595 C 1251.24 735.871 1252.67 742.421 1257.11 747.678 C 1274.54 768.608 1310.85 771.487 1330.87 752.747 C 1344.51 739.98 1346.21 724.703 1346.44 707.299 C 1327.62 705.37 1285.48 696.821 1282.12 674.527 C 1278.43 650.035 1318.85 641.554 1335.71 639.377 z" fill="rgb(32,27,26)" transform="translate(0,0)"></path>
<path d="M 1333.53 646.235 C 1345.67 645.108 1362.35 645.068 1374.09 647.789 C 1394.66 652.558 1397.64 662.051 1393.53 680.44 L 1392.68 679.678 C 1366.09 656.301 1370.24 698.341 1350.72 700.951 C 1348.85 700.827 1342.41 700.484 1341.44 699.721 C 1331.76 692.074 1332.77 680.003 1319.76 675.71 C 1311.1 672.851 1307.03 681.109 1299.73 684.381 C 1298.33 685.016 1295.14 685.2 1293.87 683.931 C 1270.4 660.327 1322.71 648.404 1333.53 646.235 z" fill="rgb(83,90,141)" transform="translate(0,0)"></path>
<path d="M 1336.88 649.364 C 1344.55 649.409 1363.22 649.051 1356.41 661.446 C 1355.09 663.839 1340.16 665.869 1337.4 666.243 C 1305.26 664.218 1308.33 653.657 1336.88 649.364 z" fill="rgb(163,167,209)" transform="translate(0,0)"></path>
<path d="M 1363.41 652.668 C 1371.29 653.326 1371.14 652.81 1372.78 661.611 C 1363.36 661.082 1363.51 662.206 1363.41 652.668 z" fill="rgb(163,167,209)" transform="translate(0,0)"></path>
<path d="M 1117.96 688.41 C 1202.23 684.191 1202.36 743.534 1110.77 748.522 C 1023.2 749.284 1032.62 693.6 1117.96 688.41 z" fill="rgb(224,112,93)" transform="translate(0,0)"></path>
<path d="M 1078.19 372.285 C 1084.48 372 1086.01 372.082 1092.01 372.866 C 1097.77 373.566 1103.33 375.386 1108.39 378.223 C 1121.03 385.224 1123.51 399.67 1116.03 411.517 C 1109.04 422.59 1098.87 425.525 1087 427.973 C 1030.81 429.267 1031.54 381.053 1078.19 372.285 z" fill="rgb(224,112,93)" transform="translate(0,0)"></path>
<path d="M 1214.01 608.033 C 1230.59 605.77 1230.71 621.011 1227.19 632.677 C 1223.02 646.972 1213.1 658.894 1199.8 665.595 C 1181.61 674.728 1165.69 671.285 1147.74 665.318 C 1145.22 670.096 1143.11 671.419 1137.99 673.33 C 1131.61 671.023 1133.99 663.003 1132.99 657.615 C 1131.27 655.813 1129.84 654.303 1128.68 653.085 C 1122.67 646.151 1111.37 632.38 1118.64 622.956 C 1120.48 621.955 1121.54 621.543 1123.69 621.504 C 1134.73 621.309 1140 632.923 1147.2 639.395 C 1154.47 645.93 1163.33 649.269 1173.12 648.655 C 1211.58 646.242 1201.06 621.901 1213.38 608.682 C 1213.58 608.461 1213.8 608.249 1214.01 608.033 z" fill="rgb(32,27,26)" transform="translate(0,0)"></path>
<path d="M 1459.78 592.805 C 1478.55 594.395 1468.87 611.436 1464.76 623.025 C 1463.41 626.822 1473.96 626.111 1469.4 634.254 C 1464.8 642.469 1462.19 638.629 1456.47 636.009 C 1434.2 646.563 1417.75 647.95 1396.89 630.128 C 1388.31 620.114 1375.62 599.208 1395.94 603.991 C 1396.02 604.009 1403.07 616.109 1409.3 619.657 C 1422.41 627.123 1432.83 629.111 1445.2 619.246 C 1455.75 610.72 1452.68 602.52 1459.78 592.805 z" fill="rgb(32,27,26)" transform="translate(0,0)"></path>
<path d="M 1152.21 396.399 C 1165 393.206 1177.95 401.02 1181.08 413.824 C 1184.22 426.628 1176.35 439.543 1163.53 442.626 C 1150.79 445.69 1137.97 437.879 1134.86 425.152 C 1131.74 412.426 1139.49 399.572 1152.21 396.399 z" fill="rgb(224,112,93)" transform="translate(0,0)"></path>
<path d="M 1114.75 456.728 C 1125.44 454.551 1135.91 461.319 1138.31 471.959 C 1140.71 482.599 1134.16 493.206 1123.57 495.829 C 1116.52 497.576 1109.08 495.373 1104.12 490.072 C 1099.15 484.771 1097.45 477.2 1099.65 470.281 C 1101.86 463.362 1107.63 458.178 1114.75 456.728 z" fill="rgb(224,112,93)" transform="translate(0,0)"></path>
<path d="M 1408.03 459.411 C 1418.57 457.189 1428.92 463.866 1431.25 474.378 C 1433.57 484.89 1427 495.314 1416.51 497.741 C 1405.87 500.203 1395.27 493.515 1392.92 482.857 C 1390.56 472.198 1397.35 461.663 1408.03 459.411 z" fill="rgb(224,112,93)" transform="translate(0,0)"></path>
<path d="M 1373.25 412.017 C 1383.45 409.442 1393.82 415.63 1396.39 425.838 C 1398.96 436.046 1392.76 446.404 1382.56 448.97 C 1372.35 451.535 1362 445.346 1359.43 435.145 C 1356.87 424.944 1363.05 414.592 1373.25 412.017 z" fill="rgb(224,112,93)" transform="translate(0,0)"></path>
<path d="M 1362.02 499.529 C 1362.83 499.594 1367.02 499.727 1367.4 500.268 C 1371.61 507.161 1372.69 517.618 1374.8 525.511 C 1375.56 528.364 1376.73 535.123 1376.92 538.002 C 1377.7 549.494 1380.73 567.17 1378.28 578.312 C 1371.22 577.166 1373.29 576.531 1372.92 568.504 C 1372.11 551.152 1370 534.43 1366.18 517.484 C 1364.95 512.042 1362.01 504.562 1362.02 499.529 z" fill="rgb(32,27,26)" transform="translate(0,0)"></path>
<path d="M 1418.28 696.489 C 1420.08 695 1422.75 695.265 1424.22 697.08 C 1425.7 698.895 1425.41 701.563 1423.58 703.017 C 1421.77 704.452 1419.15 704.166 1417.7 702.375 C 1416.24 700.585 1416.51 697.958 1418.28 696.489 z" fill="rgb(32,27,26)" transform="translate(0,0)"></path>
<path d="M 1268.39 721.73 C 1269.41 720.552 1271 720.04 1272.51 720.406 C 1274.02 720.772 1275.2 721.953 1275.57 723.466 C 1275.93 724.978 1275.42 726.568 1274.24 727.582 C 1272.59 728.997 1270.14 728.904 1268.6 727.368 C 1267.07 725.833 1266.98 723.375 1268.39 721.73 z" fill="rgb(32,27,26)" transform="translate(0,0)"></path>
<path d="M 1413.52 718.218 C 1415.61 717.506 1417.9 718.577 1418.69 720.643 C 1419.48 722.709 1418.5 725.031 1416.46 725.9 C 1415.07 726.493 1413.47 726.279 1412.29 725.344 C 1411.11 724.41 1410.53 722.902 1410.79 721.416 C 1411.04 719.93 1412.09 718.703 1413.52 718.218 z" fill="rgb(32,27,26)" transform="translate(0,0)"></path>
<path d="M 1285.5 706.513 C 1286.76 705.716 1288.35 705.671 1289.65 706.397 C 1290.95 707.123 1291.75 708.502 1291.73 709.991 C 1291.71 711.479 1290.88 712.838 1289.56 713.53 C 1287.63 714.542 1285.25 713.854 1284.16 711.97 C 1283.07 710.087 1283.66 707.678 1285.5 706.513 z" fill="rgb(32,27,26)" transform="translate(0,0)"></path>
<path d="M 1264.64 698.577 C 1265.89 697.752 1267.49 697.693 1268.8 698.426 C 1270.11 699.158 1270.9 700.558 1270.85 702.055 C 1270.8 703.552 1269.91 704.896 1268.56 705.538 C 1266.66 706.439 1264.39 705.717 1263.35 703.885 C 1262.32 702.053 1262.88 699.735 1264.64 698.577 z" fill="rgb(32,27,26)" transform="translate(0,0)"></path>
<path d="M 1398.6 704.568 C 1405.41 705.617 1405.24 708.071 1403.27 714.428 C 1397.91 711.164 1394.95 710.246 1398.6 704.568 z" fill="rgb(32,27,26)" transform="translate(0,0)"></path>
<path d="M 1462.49 1129.21 L 1464.44 1139.83 C 1467.9 1172.52 1466.75 1206.65 1461.66 1239.12 L 1459.64 1250.8 C 1458.82 1255.55 1457.88 1260.28 1456.83 1264.99 L 1455.82 1269.48 C 1455.5 1270.91 1455.07 1272.56 1454.72 1273.99 L 1453.72 1277.98 C 1451.75 1285.71 1449.27 1292.52 1447.12 1300.01 C 1437.23 1331.2 1422.81 1359.64 1410.5 1389.71 C 1387.21 1446.62 1378.88 1499.22 1379 1560.22 C 1322.18 1538.8 1254.86 1553.15 1212.46 1596.83 C 1206.84 1552.48 1202.29 1514.05 1198.77 1469.52 C 1260 1455.47 1308.74 1413.48 1345.7 1364.42 C 1397.51 1295.66 1424.43 1218.35 1430.27 1132.84 C 1434.25 1133.23 1439.37 1136.23 1443.96 1137.04 C 1452.19 1138.51 1456.27 1133.39 1462.49 1129.21 z" fill="rgb(231,176,113)" transform="translate(0,0)"></path>
<path d="M 1461.66 1239.12 C 1420.03 1235.66 1414.91 1155.31 1464.44 1139.83 C 1467.9 1172.52 1466.75 1206.65 1461.66 1239.12 z" fill="rgb(224,112,93)" transform="translate(0,0)"></path>
<path d="M 1447.12 1300.01 C 1433.54 1280.59 1440.95 1262.94 1459.64 1250.8 C 1458.82 1255.55 1457.88 1260.28 1456.83 1264.99 L 1455.82 1269.48 C 1455.5 1270.91 1455.07 1272.56 1454.72 1273.99 L 1453.72 1277.98 C 1451.75 1285.71 1449.27 1292.52 1447.12 1300.01 z" fill="rgb(224,112,93)" transform="translate(0,0)"></path>
<path d="M 907.675 601.857 C 936.263 609.519 955.366 606.774 972.581 636.112 C 983.862 655.336 985.75 671.178 989.698 692.591 C 997.938 737.278 1017.1 772.494 1051.49 802.517 C 1053.83 857.638 1054.5 902.958 1014.93 945.911 C 1012.89 948.117 1010.83 950.298 1008.74 952.452 L 1006.54 950.117 C 1013.92 934.414 1014.91 928.492 1020.01 913.628 C 1030.47 883.127 1030.1 866.455 1019.16 835.863 C 1017.85 832.197 1016.9 829.766 1013.92 827.118 L 1011.64 826.873 L 1009.36 828.866 C 1009.11 833.258 1014.4 846.544 1015.85 851.691 C 1023.43 878.59 1020.75 904.294 999.231 923.781 C 986.533 935.173 969.804 941.009 952.775 939.985 C 934.667 938.941 915.904 929.502 900.778 920.056 C 984.64 920.477 981.353 862.991 977.363 799.984 C 976.72 789.83 981.403 775.783 980.228 765.102 L 978.008 763.288 C 970.804 764.214 970.278 792.339 969.778 798.339 C 960.771 807.74 953.815 814.455 942.225 820.421 C 896.007 844.21 845.551 810.932 823.363 769.807 C 821.023 765.469 819.013 761.477 816.99 757.002 C 873.452 771.514 912.955 763.465 947.642 713.799 C 950.634 709.515 957.221 703.168 953.194 698.164 C 950.619 698.186 948.836 699.529 947.28 701.618 C 932.047 722.075 917.916 739.278 893.81 750.142 C 886.132 727.044 888.039 710.884 896.937 688.062 C 914.723 681.493 939.637 670.284 951.611 652.599 C 952.382 651.461 951.876 651.148 951.271 649.732 C 949.094 649.17 948.035 648.314 946.078 650.131 C 903.837 689.37 839.537 699.946 801.507 648.13 C 860.725 670.232 863.625 625.471 907.675 601.857 z" fill="rgb(164,188,174)" transform="translate(0,0)"></path>
<path d="M 1571.66 201.951 C 1589.66 200.674 1603.61 222.608 1609.2 237.479 C 1647.45 339.102 1620.31 455.279 1531.86 521.686 C 1518.44 531.765 1501.95 542.812 1486.61 549.426 C 1488.24 508.51 1496.95 514.101 1525.99 498.647 C 1590.09 464.538 1615.1 379.037 1605.65 310.76 C 1604.51 301.376 1599.34 274.67 1593.26 268.145 C 1588.26 267.674 1585.45 276.481 1582.27 281.173 C 1564.3 307.727 1546.11 321.452 1518.73 336.25 C 1519.66 386.771 1507.43 440.663 1462.55 470.146 C 1442.67 433.501 1423.94 408.593 1390.37 383.471 C 1403.63 372.261 1416.83 359.786 1431.2 350.339 C 1461.78 330.226 1494.19 314.641 1519.46 287.269 C 1530.67 275.125 1536.8 267.385 1544.82 252.735 C 1555.79 232.698 1552.05 215.875 1571.66 201.951 z" fill="rgb(231,176,113)" transform="translate(0,0)"></path>
<path d="M 1188.36 1434.12 L 1189.3 1434.31 C 1190.46 1436.36 1191.4 1477.71 1192.11 1484.21 C 1196.24 1521.81 1197.81 1565.88 1206.85 1602.48 C 1196.34 1620.43 1186.53 1640.1 1197.43 1660.75 C 1202.3 1669.99 1214.15 1680.1 1224.28 1683.39 C 1227.09 1708.19 1232.69 1727.9 1234.34 1754.41 C 1217.52 1736.94 1203.14 1728.51 1179.16 1726.41 C 1172.26 1725.66 1158.11 1725.88 1150.8 1725.82 C 1142.25 1702.12 1132.01 1665.58 1125.61 1640.8 C 1153.09 1610.96 1138.23 1582.58 1106.93 1565.06 C 1105.09 1522.79 1106.21 1487.26 1112.13 1444.98 C 1143.51 1445.07 1158.25 1442.42 1188.36 1434.12 z" fill="rgb(254,254,253)" transform="translate(0,0)"></path>
<path d="M 1050.63 1631.41 C 1064.25 1629.88 1080.29 1632.43 1093.01 1637.39 C 1102.4 1641.05 1106.83 1645.99 1117.84 1645.7 C 1122.57 1653.1 1137.69 1711.69 1141.97 1724.98 C 1119.52 1724.6 1102.67 1727.58 1084.32 1740.9 C 1068.08 1736.69 1050.89 1738.07 1035.53 1744.82 C 987.91 1765.28 973.54 1827.15 993.017 1872.31 C 1001.05 1888.53 1004.18 1890.35 1014.23 1904.45 C 1003.34 1901.98 984.851 1895.29 977.157 1889.19 C 940.654 1860.25 958.263 1803.18 963.196 1766.34 C 964.634 1755.61 952.901 1706.81 950.369 1692.98 C 955.569 1686.84 960.282 1679.44 965.51 1673.25 C 988.067 1646.54 1016.85 1634.74 1050.63 1631.41 z" fill="rgb(231,176,113)" transform="translate(0,0)"></path>
<path d="M 1328.64 1628.39 C 1350.54 1624.01 1370.64 1631.87 1389.43 1641.46 C 1395.98 1665.65 1401.75 1695.17 1411.81 1717.75 C 1402.23 1720.41 1394.45 1722.77 1386.47 1728.96 C 1381.18 1727.95 1376.21 1726.88 1370.87 1726.54 C 1311.3 1722.75 1277.43 1787.04 1291.78 1839.49 C 1294.92 1850.97 1298.29 1858.49 1303.99 1868.87 C 1307.33 1874.13 1311.29 1879.08 1315.08 1884.05 C 1289.16 1878.92 1272.86 1866.7 1252.65 1851.26 C 1261.2 1819.23 1255.69 1792.79 1240.69 1763.99 C 1246.13 1735.51 1232.23 1706.79 1232.7 1682.62 C 1239.84 1675.47 1247.16 1666.62 1253.87 1660.34 C 1274.03 1641.45 1301.45 1631.41 1328.64 1628.39 z" fill="rgb(231,176,113)" transform="translate(0,0)"></path>
<path d="M 461.813 1622.48 C 505.135 1655.52 552.277 1664.58 603.813 1645.39 C 605.248 1667.54 607.473 1698.35 618.689 1717.25 C 609.265 1719.32 604.949 1720.65 596.607 1725.32 C 594.143 1724.62 591.663 1723.98 589.17 1723.39 C 545.566 1713.37 510.401 1747.55 501.31 1788.16 C 500.275 1794.03 499.745 1799.97 499.725 1805.93 C 499.599 1834.1 508.09 1854.7 527.662 1874.43 C 421.942 1854.22 439.57 1768.68 451.848 1686.25 C 455.005 1665.04 457.876 1643.56 461.813 1622.48 z" fill="rgb(231,176,113)" transform="translate(0,0)"></path>
<path d="M 1056.44 1747.2 C 1106.98 1742.25 1141.74 1782.83 1142.87 1830.98 C 1143.73 1867.81 1133.08 1885.16 1109.2 1910.92 L 1080.58 1911.01 C 1065.11 1911.05 1046.39 1909.69 1030.97 1908.22 C 991.61 1874.77 979.69 1824.24 1008.08 1778.5 C 1018.97 1760.95 1036.46 1751.25 1056.44 1747.2 z" fill="rgb(164,188,174)" transform="translate(0,0)"></path>
<path d="M 785.008 1635.87 C 826.723 1656.77 867.498 1659.56 910.285 1640.38 C 907.894 1665.38 911.343 1694.59 943.224 1695.12 L 948.56 1723.32 C 903.172 1712.12 871.593 1738.3 859.266 1780.77 C 853.615 1813.28 860.243 1836.79 882.084 1861.13 C 781.776 1833.49 800.116 1770.15 790.374 1685.29 C 788.492 1668.91 786.896 1652.23 785.008 1635.87 z" fill="rgb(231,176,113)" transform="translate(0,0)"></path>
<path d="M 1357.46 1735.25 C 1389.08 1733.39 1409.88 1744.78 1426.48 1772.06 C 1447.72 1806.93 1439.29 1870.44 1401.68 1891.26 L 1381.25 1891.06 C 1365.16 1891.2 1347.54 1889.36 1331.54 1887.66 C 1321.34 1879.02 1315.05 1872.76 1308.67 1860.84 C 1282.88 1812.69 1299 1747.26 1357.46 1735.25 z" fill="rgb(164,188,174)" transform="translate(0,0)"></path>
<path d="M 991.424 224.966 C 1028.44 271.113 1080.32 252.764 1128.41 239.193 C 1182.57 223.91 1255.84 247.898 1272.44 306.312 C 1281.04 336.56 1276.25 381.815 1261.02 409.382 C 1257.07 408.331 1254.64 408.842 1250.79 410.646 C 1250.51 409.543 1250.23 408.443 1249.94 407.344 C 1238.76 364.737 1219.6 324.68 1179.75 302.197 C 1129.77 274.001 1082.63 281.469 1030.56 295.76 C 1027.94 293.815 1025.35 291.826 1022.79 289.793 C 999.77 271.312 994.59 252.683 991.424 224.966 z" fill="rgb(164,188,174)" transform="translate(0,0)"></path>
<path d="M 944.027 350.144 C 975.271 342.503 981.499 329.826 1006.88 315.953 C 1056.13 289.026 1127.05 279.813 1176.95 309.837 C 1210.41 329.966 1237.18 371.769 1241.53 410.73 C 1220.95 404.866 1180.13 388.333 1162.29 376.359 C 1163.91 371.907 1164.29 373.032 1163.12 369.434 C 1156.85 363.672 1124.77 358.869 1115.3 357.962 C 1081.87 354.759 1042.38 363.362 1016.51 385.555 C 988.83 369.644 972.243 362.565 944.027 350.144 z" fill="rgb(164,188,174)" transform="translate(0,0)"></path>
<path d="M 573.195 1730.42 C 619.266 1730.23 647.224 1776.09 643.004 1818.66 C 640.376 1845.16 631.288 1862.56 611.13 1879.85 C 600.423 1880.34 588.897 1880.04 578.121 1879.96 C 565.992 1879.37 555.587 1878.75 543.506 1877.44 C 542.053 1876.45 540.64 1875.4 539.27 1874.3 C 486.193 1831.53 501.587 1736.35 573.195 1730.42 z" fill="rgb(164,188,174)" transform="translate(0,0)"></path>
<path d="M 849.941 1450.41 C 860.266 1449.64 875.956 1450.49 886.731 1450.87 C 893.065 1496.91 903.853 1532.87 913.926 1577.84 C 885.406 1590.21 868.873 1595.3 837.23 1595.02 C 824.228 1594.42 774.892 1588.24 775.702 1567.31 C 775.921 1561.65 782.842 1547.36 785.765 1541.93 C 797.601 1519.93 793.859 1498.81 791.647 1474.52 C 808.509 1460.07 827.961 1452.34 849.941 1450.41 z" fill="rgb(231,176,113)" transform="translate(0,0)"></path>
<path d="M 1036.4 1561.41 C 1045.36 1560.76 1054.35 1560.95 1063.27 1561.99 C 1091.06 1565.08 1136.33 1577.57 1130.7 1615.54 C 1129.16 1625.92 1122.96 1632.89 1114.77 1638.95 C 1072.64 1613.86 1026.2 1619.51 985.444 1644.8 C 976.071 1651.53 968.993 1657.57 961.209 1666.19 C 956.288 1671.65 947.433 1686.03 940.894 1687.12 C 925.878 1689.61 918.489 1671.56 917.436 1659.38 C 913.32 1611.76 961.792 1577.35 1002.87 1566.79 C 1014.4 1563.83 1024.73 1562.41 1036.4 1561.41 z" fill="rgb(164,188,174)" transform="translate(0,0)"></path>
<path d="M 1590.97 282.787 C 1592.98 284.897 1593.54 288.648 1594.17 291.474 C 1610.49 364.036 1590.51 454.511 1521.23 492.964 C 1506.87 500.932 1492.85 504.404 1477.11 508.072 C 1473.25 498.131 1469.53 487.805 1465.8 477.791 C 1472.72 473.055 1479.17 467.656 1485.05 461.67 C 1516.91 429.402 1526.95 384.743 1526.68 340.768 C 1560.36 320.217 1567.34 314.977 1590.97 282.787 z" fill="rgb(224,112,93)" transform="translate(0,0)"></path>
<path d="M 1314.09 1558.41 C 1322.29 1557.67 1330.54 1557.73 1338.74 1558.56 C 1372.53 1562.14 1409.54 1576.92 1402.54 1618.77 C 1398.26 1644.44 1384.75 1628.3 1370.73 1624.1 C 1336.1 1613.73 1301.01 1622.09 1270 1639.1 C 1264.22 1642.58 1258.73 1646.52 1253.6 1650.89 C 1242.67 1660.26 1230.69 1681.46 1216.79 1670.85 C 1193.24 1652.89 1198.5 1625.1 1215.84 1605.38 C 1241.48 1576.24 1276.17 1562.12 1314.09 1558.41 z" fill="rgb(164,188,174)" transform="translate(0,0)"></path>
<path d="M 1197.42 182.89 C 1229.01 174.204 1260.81 177.903 1289.32 194.248 C 1315.62 209.178 1334.96 233.892 1343.12 263.01 C 1351.36 293.503 1344.74 326.85 1329.25 354.094 C 1317.31 375.11 1301.97 387.076 1285.31 403.153 C 1284.03 402.884 1275.04 402.738 1273.39 402.695 C 1282.38 376.956 1287.02 347.591 1283.8 320.311 C 1283.03 313.773 1278.18 302.487 1278.18 296.686 C 1278.19 274.393 1277.89 258.674 1267.81 237.897 C 1255.55 213.092 1233.83 194.266 1207.53 185.664 C 1204.22 184.535 1200.84 183.608 1197.42 182.89 z" fill="rgb(164,188,174)" transform="translate(0,0)"></path>
<path d="M 1131.59 1733.41 C 1210.2 1726.77 1248.14 1833.03 1202.09 1888.6 C 1186.74 1907.11 1179.39 1906.71 1157.24 1908.7 C 1146.93 1909.56 1132.29 1909.58 1121.33 1910.14 C 1150.21 1877.03 1159.22 1840.55 1144.77 1797.34 C 1136.62 1772.97 1117.28 1754.11 1094.07 1743.37 C 1108.61 1737.04 1115.9 1734.83 1131.59 1733.41 z" fill="rgb(164,188,174)" transform="translate(0,0)"></path>
<path d="M 1494.69 802.931 C 1496.74 826.608 1500.83 845.395 1519.7 861.927 C 1535.42 875.699 1553.11 879.815 1573.51 878.331 C 1538.63 907.135 1489 911.483 1462.02 868.926 C 1459.7 865.275 1453.96 850.689 1451.76 849.177 C 1441.17 854.208 1443.08 914.771 1445.51 926.748 C 1450.71 945.72 1457.19 953.386 1471.69 965.743 C 1456.87 967.551 1445.81 966.974 1431.57 962.106 C 1402.45 952.155 1401.38 930.918 1392.3 905.893 C 1388.62 895.741 1384.44 885.776 1379.78 876.034 C 1399.19 865.991 1406.08 855.559 1422.1 841.974 C 1425.35 839.219 1441.03 834.532 1446.07 832.358 C 1464.3 824.494 1479.16 815.243 1494.69 802.931 z" fill="rgb(164,188,174)" transform="translate(0,0)"></path>
<path d="M 1421.56 1724.2 C 1477.3 1721.34 1513.17 1763.17 1510.96 1818.49 C 1509.77 1848.08 1497.72 1866.93 1476 1886.56 C 1468.01 1888.02 1461.89 1888.57 1453.76 1889.26 C 1441.03 1890.5 1428.25 1891.13 1415.47 1891.15 C 1422.58 1883.81 1427.24 1879.31 1432.55 1870.31 C 1454.82 1832.53 1449.94 1776.96 1416.68 1746.95 C 1409.68 1740.63 1402.98 1736.61 1394.85 1731.89 C 1403.58 1729.02 1412.53 1725.78 1421.56 1724.2 z" fill="rgb(164,188,174)" transform="translate(0,0)"></path>
<path d="M 502.379 1003.27 C 509.681 1002.3 518.68 1002.75 525.98 1003.19 C 528.988 1027.99 532.919 1038.09 546.613 1059.03 C 499.72 1085.75 492.202 1126.91 503.358 1177.03 C 499.321 1173.4 495.112 1169.23 491.155 1165.45 C 468.153 1140.5 436.733 1094.11 431.559 1060.45 C 447.019 1028.02 465.713 1009.79 502.379 1003.27 z" fill="rgb(164,188,174)" transform="translate(0,0)"></path>
<path d="M 921.411 1729.22 C 934.4 1728.66 937.68 1728.41 949.95 1732.13 C 952.2 1741.7 955.63 1759.34 955.561 1769 C 955.532 1773.03 951.107 1787.16 950.067 1792.59 C 945.413 1816.55 945.787 1841.22 951.164 1865.04 C 935.977 1865.85 920.349 1866.9 905.233 1865.12 C 901.515 1864.8 898.035 1863.74 895.014 1861.53 C 846.335 1825.94 859.288 1740.91 921.411 1729.22 z" fill="rgb(164,188,174)" transform="translate(0,0)"></path>
<path d="M 484.203 912.333 C 512.648 910.078 530.044 918.594 540.988 945.545 C 529.973 964.875 528.029 974.714 525.818 996.278 C 523.436 995.926 521.044 995.645 518.645 995.436 C 493.512 993.178 469.666 1003.53 450.653 1019.38 C 439.152 1029.24 434.71 1037.73 427.761 1050.96 C 426.989 1047.7 426.32 1044.41 425.756 1041.1 C 420.823 1011.38 421.894 959.976 438.647 932.689 C 444.707 922.818 471.817 914.143 484.203 912.333 z" fill="rgb(224,112,93)" transform="translate(0,0)"></path>
<path d="M 1379.9 201.607 C 1407.24 211.496 1429.56 238.933 1433.45 267.483 C 1442.37 332.921 1397.11 377.583 1337.65 391.723 C 1327.32 394.562 1314.51 395.712 1303.73 396.843 C 1331.95 370.556 1343.23 351.893 1352.76 314.573 C 1355.34 312.441 1357.91 310.287 1360.46 308.114 C 1394.08 279.379 1413.9 239.868 1379.9 201.607 z" fill="rgb(164,188,174)" transform="translate(0,0)"></path>
<path d="M 625.207 756.8 C 665.33 761.995 679.598 781.313 683.372 820.538 C 667.617 848.549 628.666 873.577 601.605 890.019 L 599.958 890.879 L 598.895 889.564 C 598.712 854.268 579.37 829.315 544.844 820.999 C 582.479 802.633 604.221 793.881 625.207 756.8 z" fill="rgb(164,188,174)" transform="translate(0,0)"></path>
<path d="M 683.249 654.41 C 690.629 654.744 693.666 654.931 700.886 656.391 C 717.902 686.39 720.684 724.757 714.176 758.19 C 710.337 777.912 700.221 796.911 689.714 813.862 C 688.643 804.458 686.3 796.624 683.112 787.811 C 670.937 761.856 656.211 753.609 628.143 749.633 C 634.796 727.722 634.031 716.739 629.276 694.639 C 641.366 670.452 655.542 657.333 683.249 654.41 z" fill="rgb(224,112,93)" transform="translate(0,0)"></path>
<path d="M 459.784 1533.16 C 463.95 1532.97 465.628 1532.53 469.338 1534.1 C 469.568 1536.78 471.666 1548.71 472.739 1550.54 C 485.031 1571.42 508.744 1589.08 530.098 1597.96 C 561.428 1610.99 588.571 1609.25 618.964 1596.93 C 621.126 1589.34 621.238 1587.37 625.116 1580.4 C 636.681 1597.71 635.603 1609.85 621.351 1624.63 C 568.318 1672.48 431.941 1640.95 444.629 1554.9 C 446.067 1545.14 451.599 1538.39 459.784 1533.16 z" fill="rgb(164,188,174)" transform="translate(0,0)"></path>
<path d="M 625.656 1724.35 C 636.494 1721.99 649.938 1724.05 660.565 1726.94 C 725.151 1744.47 727.703 1860.13 661.459 1873.79 C 651.51 1876.61 635.356 1878.01 624.769 1879.11 C 629.016 1873.95 633.482 1868.56 637.079 1862.92 C 657.399 1830.93 656.621 1785.17 634.122 1754.43 C 625.529 1742.69 617.467 1736.65 605.421 1728.87 C 613.367 1726.35 617.496 1725.49 625.656 1724.35 z" fill="rgb(164,188,174)" transform="translate(0,0)"></path>
<path d="M 534.595 826.919 C 555.93 826.964 577.347 843.264 586.022 862.251 C 591.433 874.093 591.37 884.059 591.198 896.728 C 570.966 912.19 563.513 916.799 546.712 937.13 C 537.511 921.234 531.288 915.549 514.517 908.365 C 486.841 899.094 467.439 906.144 442.879 918.95 C 463.867 876.244 494.267 850.299 534.595 826.919 z" fill="rgb(224,112,93)" transform="translate(0,0)"></path>
<path d="M 550.584 1064.82 C 570.692 1084.99 582.336 1095.37 608.292 1108.64 C 580.627 1137 568.278 1165.03 557.95 1203.25 C 557.103 1206.79 557.035 1207.05 555.467 1210.32 L 554.061 1210.78 C 545.214 1207.28 521.089 1191.61 513.421 1185.31 C 500.368 1137.17 503.169 1091.82 550.584 1064.82 z" fill="rgb(224,112,93)" transform="translate(0,0)"></path>
<path d="M 769.641 1554.97 C 769.438 1561.67 765.917 1566.27 769.25 1573.97 C 773.486 1583.75 781.545 1590.11 791.315 1593.73 C 835.079 1609.94 874.184 1603.7 916.101 1585.75 C 917.911 1594.21 920.234 1602.65 922.436 1611.02 C 918.959 1617.16 915.69 1624.31 912.598 1630.72 C 888.778 1641.99 868.05 1647.29 840.492 1644.3 C 806.582 1640.63 749.712 1621.93 754.571 1577.85 C 755.713 1567.49 761.65 1561.02 769.641 1554.97 z" fill="rgb(164,188,174)" transform="translate(0,0)"></path>
<path d="M 610.236 577.733 C 616.635 579.094 624.883 583.383 630.711 586.481 C 658.066 601.025 680.256 621.422 696.312 647.951 C 675.026 644.897 660.155 650.072 643.281 662.669 C 634.368 670.468 631.714 674.279 625.201 684.302 C 610.493 660.16 601.027 650.99 578.007 635.689 C 582.058 609.665 590.002 594.607 610.236 577.733 z" fill="rgb(164,188,174)" transform="translate(0,0)"></path>
<path d="M 415.866 444.217 C 423.243 444.074 428.09 445.512 434.847 447.781 C 435.452 474.064 441.141 491.909 458.748 511.738 C 435.305 525.171 428.535 534.365 424.556 561.279 C 401.271 544.861 383.036 506.201 382.479 477.926 C 382.105 458.886 398.841 447.47 415.866 444.217 z" fill="rgb(164,188,174)" transform="translate(0,0)"></path>
<path d="M 527.997 552.648 C 534.63 552.644 557.347 560.495 565.566 562.688 L 567.481 563.185 L 569.066 563.626 L 570.982 564.136 L 572.612 564.598 C 584.043 567.72 591.504 570.172 602.623 574.101 C 587.148 586.943 578.496 601.169 573.186 620.44 C 572.413 623.786 571.848 627.163 571.103 630.513 L 570.706 632.344 C 554.472 625.117 541.395 618.241 523.981 613.358 L 522.018 612.819 L 515.498 611.027 L 511.714 610.013 C 504.335 587.656 510.554 568.003 527.997 552.648 z" fill="rgb(224,112,93)" transform="translate(0,0)"></path>
<path d="M 461.038 518.667 C 466.48 518.623 471.397 524.95 477.63 528.98 C 491.943 538.233 504.198 543.677 520.156 549.222 C 516.855 552.883 514.306 555.334 511.39 559.369 C 502.159 572.147 498.893 589.176 502.055 604.545 C 502.186 605.182 502.225 606.116 501.793 606.678 C 500.558 607.183 498.031 606.095 496.838 605.725 C 477.262 596.671 463.162 591.752 444.91 578.204 C 440.858 575.205 436.892 572.093 433.016 568.87 C 432.854 542.16 436.154 533.366 460.275 519.126 L 461.038 518.667 z" fill="rgb(224,112,93)" transform="translate(0,0)"></path>
<path d="M 1511.65 544.893 C 1512.35 546.79 1512.16 545.975 1512.45 547.944 C 1514.66 563.332 1518.36 576.666 1528.76 588.625 C 1538.74 600.021 1552.91 606.884 1568.03 607.642 C 1584.66 608.463 1594.39 603.118 1606.14 592.709 C 1602.34 606.28 1595.73 615.159 1585.27 624.288 C 1550.73 650.697 1517.44 630.273 1493.34 602.4 C 1491.88 587.257 1490.31 572.125 1488.61 557.007 C 1497.21 553.193 1503.54 549.542 1511.65 544.893 z" fill="rgb(164,188,174)" transform="translate(0,0)"></path>
<path d="M 1523.25 638.852 C 1578.48 666.967 1611.87 705.9 1595.57 770.763 L 1594.53 773.03 C 1590.74 768.888 1595.17 753.933 1580.83 736.781 C 1571.34 725.324 1557.7 718.09 1542.89 716.659 C 1543.84 685.171 1536.82 666.212 1523.25 638.852 z" fill="rgb(164,188,174)" transform="translate(0,0)"></path>
<path d="M 1469.05 1725.12 C 1519.16 1719.85 1548.04 1772.55 1543.28 1816.25 C 1540.65 1840.39 1529.86 1860.39 1511.29 1875.89 C 1504.05 1879.63 1499.96 1880.95 1492.2 1883.19 C 1535.85 1831.35 1526.82 1761.77 1469.05 1725.12 z" fill="rgb(164,188,174)" transform="translate(0,0)"></path>
<path d="M 426.947 371.198 C 444.001 369.179 450.213 372.638 457.296 388.406 C 446.069 409.249 440.323 416.374 435.273 440.133 C 424.1 436.381 415.772 435.32 404.266 439.019 L 402.328 439.597 C 392.359 444.237 389.869 446.598 382.45 454.345 C 383.183 447.778 383.775 443.595 385.218 437.014 C 385.833 434.335 386.503 431.67 387.229 429.018 C 392.511 409.815 409.388 380.971 426.947 371.198 z" fill="rgb(224,112,93)" transform="translate(0,0)"></path>
<path d="M 1176.51 1734.11 C 1225.33 1734.86 1251.48 1785.18 1248.11 1829.31 C 1246.09 1855.82 1238.36 1873.56 1217.96 1890.72 C 1214.02 1893.75 1209.69 1895.86 1205.3 1898.23 C 1206.12 1896.92 1208 1894.27 1208.92 1893.07 C 1227.19 1868.47 1234.21 1837.63 1228.45 1807.54 C 1221.55 1771.48 1205.3 1753.92 1176.51 1734.11 z" fill="rgb(164,188,174)" transform="translate(0,0)"></path>
<path d="M 398.561 93.628 L 400.676 94.0113 C 408.456 106.273 371.323 139.241 422.281 192.808 C 408.827 203.586 413.021 202.844 409.457 214.522 L 407.491 214.568 C 369.349 185.693 359.417 124.601 398.561 93.628 z" fill="rgb(164,188,174)" transform="translate(0,0)"></path>
<path d="M 466.08 314.412 C 478.939 318.38 481.78 321.636 489.67 332.908 C 485.295 344.108 473.521 371.154 463.619 380.768 C 462.989 381.379 459.648 376.016 459.287 375.487 C 452.91 365.433 441.724 363.831 430.961 362.775 C 447.294 345.912 457.71 336.488 466.08 314.412 z" fill="rgb(224,112,93)" transform="translate(0,0)"></path>
<path d="M 1442.82 1062.62 C 1452.82 1080.38 1459.33 1109.18 1462.49 1129.21 C 1456.27 1133.39 1452.19 1138.51 1443.96 1137.04 C 1439.37 1136.23 1434.25 1133.23 1430.27 1132.84 C 1432.56 1112.93 1429.45 1091.68 1428.91 1072.17 L 1430.02 1071.25 C 1434.61 1067.35 1437.63 1065.59 1442.82 1062.62 z" fill="rgb(224,112,93)" transform="translate(0,0)"></path>
<path d="M 467.45 249.185 C 471.726 248.877 476.277 248.715 480.588 248.481 C 490.108 265.195 495.804 281.733 495.013 301.28 C 494.894 304.218 494.731 328.587 488.536 319.248 C 482.311 312.842 477.047 310.072 468.562 307.352 C 471.349 280.92 469.042 274.72 454.95 252.385 C 459.603 250.941 462.661 250.102 467.45 249.185 z" fill="rgb(164,188,174)" transform="translate(0,0)"></path>
<path d="M 426.566 197.566 C 435.002 201.979 467.148 230.041 472.321 237.761 L 473.317 239.197 C 467.733 240.067 465.617 240.205 459.908 241.861 C 456.545 243.635 453.376 245.569 450.142 247.569 C 437.643 234.513 431.266 232.074 417.061 221.602 C 416.963 217.441 416.955 213.278 417.038 209.117 C 419.647 205.258 421.603 202.173 425.093 198.965 L 426.566 197.566 z" fill="rgb(224,112,93)" transform="translate(0,0)"></path>
<path d="M 1424.39 1028.35 C 1431.42 1040.03 1436.9 1050.38 1442.82 1062.62 C 1437.63 1065.59 1434.61 1067.35 1430.02 1071.25 L 1428.91 1072.17 C 1427.26 1057.74 1426.01 1043.02 1424.39 1028.35 z" fill="rgb(231,176,113)" transform="translate(0,0)"></path>
<path d="M 1006.54 950.117 L 1008.74 952.452 C 1004.28 957.149 1003.23 956.727 1006.14 951.021 L 1006.54 950.117 z" fill="rgb(199,191,172)" transform="translate(0,0)"></path>
<metadata><recraft-signature>{"signed_by": "recraft", "signature_b64": "eTy8MBkzDjC+ocCCvtK+r6g6LvSgxYTaey4c8GWBH51V1OGDvYgselUIoiVWJJAbAEbvJ5lQLGnHEWzhs4naDw==", "signing_algo": "Ed25519", "generation_timestamp": 1778557425, "identifier": "8d67a1ee-3bee-4995-af7c-6d2ae357acca"}</recraft-signature></metadata></svg>