<svg xmlns="http://www.w3.org/2000/svg" height="1024" preserveAspectRatio="none" style="display: block;" version="1.1" viewBox="0 0 2048 2048" width="1024">

<path d="M 1079.63 91.4171 C 1107.65 87.4357 1162.26 94.1832 1190 101.878 C 1312.76 135.93 1401.23 216.846 1464.57 324.492 C 1493.16 315.118 1522.61 308.023 1551 297.695 C 1560.72 294.157 1572.56 280.743 1580.24 281.156 C 1611.8 283.478 1615.12 310.026 1594.21 330.228 C 1585.14 338.993 1574.68 366.896 1568.02 379.775 C 1537.79 438.21 1501.81 493.254 1446.63 530.17 C 1445.1 545.1 1442.64 550.076 1436.34 563.981 C 1452.33 555.995 1478.45 546.022 1491.38 567.49 C 1496.55 576.063 1493.81 586.899 1490.7 595.977 C 1494.29 603.571 1496.91 616.188 1492.56 623.763 C 1480.5 644.75 1454.67 636.812 1437.61 630.041 C 1438.14 630.947 1438.66 631.859 1439.17 632.776 C 1458.51 667.601 1438.06 698.568 1402.91 684.437 C 1400.83 683.599 1386.77 691.464 1376.73 686.086 C 1357.31 675.692 1358.02 657.305 1366.69 636.653 C 1356.76 645.369 1338.91 661.088 1325.07 659.889 C 1318.5 659.319 1316.87 656.028 1312.77 651.21 C 1310.12 651.471 1306.05 654.706 1303.52 656.368 C 1326.16 672.049 1344.47 700.215 1320.16 723.649 C 1334.26 747.101 1359.19 778.261 1375.01 801.49 C 1421.77 870.135 1470.68 935.609 1523.14 1000.04 L 1589.36 1080.59 C 1599.99 1093.68 1611.15 1107.06 1621.05 1120.62 C 1645.32 1153.84 1606.98 1196.47 1581.82 1216.34 C 1607.86 1275.8 1620.8 1342.17 1555.29 1382.36 C 1548.63 1386.45 1542.48 1388.57 1534.61 1389.14 C 1530.21 1393.43 1527.12 1396.48 1521.73 1399.66 C 1511.86 1405.55 1500.04 1407.25 1488.9 1404.38 C 1469.88 1399.31 1459.98 1377.54 1471.27 1360.56 C 1474.49 1355.71 1485.63 1347.45 1486.17 1341.7 C 1487.51 1327.68 1484.34 1308.96 1468.05 1305.79 C 1455.93 1308.89 1468.24 1336.55 1456.79 1350.07 C 1451.77 1357.38 1441.97 1363.11 1432.98 1363.98 C 1399.36 1367.24 1408.86 1331.62 1405.74 1312.26 C 1394.2 1315.59 1382.85 1317.43 1371.6 1320.45 C 1360.07 1323.56 1343.88 1330.57 1333.19 1335.76 C 1348.33 1380.1 1368.6 1420.48 1392.41 1460.74 C 1407.34 1485.96 1426.73 1506.82 1427.86 1537.99 C 1428.91 1566.78 1406.65 1597.06 1388.13 1616.76 C 1403.94 1629.9 1414.76 1654.41 1407.83 1675.07 C 1403.06 1689.3 1389.36 1695.41 1376.73 1701.4 C 1384.94 1716.2 1399.71 1734.31 1410.58 1747.19 C 1461.41 1761.25 1480.87 1789.84 1481.15 1841.92 C 1488.5 1844.22 1490.64 1845.72 1495.98 1851.22 C 1497.33 1864.12 1498.65 1917.46 1493.3 1929.26 C 1486.48 1942.63 1467.32 1950.39 1454.07 1954.39 C 1380.61 1976.61 1202.03 2008.62 1171.04 1910.47 L 1169.45 1909.63 C 1157.6 1903.5 1139.89 1890.05 1130.25 1880.56 C 1129.24 1856.74 1130.8 1814.78 1131.74 1789.97 C 1131.89 1785.92 1138.01 1782.63 1141.54 1780.4 C 1141.5 1766.66 1141.41 1753.33 1142 1739.6 C 1096.55 1731.47 1094.07 1700.18 1109.99 1663.58 C 1054.06 1637.07 1036.08 1610.66 1037.15 1548.76 C 1041.39 1513.49 1045.34 1494.9 1042.63 1458.88 C 1025.2 1455.49 1004.89 1444.6 1011.51 1419.48 C 1014.32 1408.85 1011.5 1412.35 1009.9 1402.97 C 1008.78 1396.38 1016.09 1389.65 1009.67 1383.74 C 1005.33 1382.67 1004.5 1383.03 999.943 1383.66 C 994.392 1389.34 983.587 1495.92 984.687 1512.27 C 985.081 1518.12 987.826 1531.96 989.826 1538.15 C 1001.63 1574.7 986.812 1613.17 954.673 1633.67 C 951.229 1635.89 932.923 1645.54 932.339 1646.3 C 935.854 1652.03 942.278 1648.42 944.506 1658.53 C 952.4 1694.34 932.225 1712.47 900.95 1721.48 C 900.592 1732.82 899.981 1743.81 900.966 1755.12 C 905.09 1757.06 908.82 1758.87 911.025 1763.09 C 912.565 1766.04 913.344 1769.35 913.622 1772.64 C 914.196 1779.43 913.186 1786.83 913.179 1793.69 C 913.164 1807.62 916.258 1839.85 912.082 1851.53 C 908.074 1862.74 847.01 1884.76 833.21 1891.84 C 823.418 1890.41 815.676 1887.54 804.836 1886.33 C 761.734 1948.36 651.969 1936.66 586.779 1922.57 C 558.958 1916.55 507.662 1907.62 486.353 1889.49 C 482.992 1886.64 484.634 1819.09 485.096 1811.34 C 485.474 1804.2 494.009 1798.12 500.035 1794.5 C 500.432 1775.66 501.242 1761.73 509.341 1746.12 C 534.694 1697.22 591.079 1690.4 640.365 1694.73 C 643.754 1695.03 667.135 1685.59 673.113 1683.58 C 639.951 1666.49 641.52 1628.2 669.626 1606.51 C 639.514 1588.92 608.651 1555.78 615.731 1517.8 C 622.438 1481.82 645.451 1448.82 659.229 1414.74 C 672.434 1382.08 683.39 1350.66 693.511 1316.88 C 678.093 1309.94 660.637 1302.4 645.775 1294.29 C 631.881 1286.7 607.409 1274.12 602.747 1258.12 C 599.06 1245.47 614.038 1226.62 621.044 1215.24 C 608.394 1222.32 595.277 1228.52 581.782 1233.81 C 534.434 1252.43 489.01 1226.51 472.132 1179.77 C 469.85 1173.45 464.157 1169.85 460.928 1164.11 C 459.146 1160.95 458.448 1156.51 457.413 1152.92 L 456.713 1153.66 C 453.649 1170.16 463.456 1175.75 460.197 1190.66 C 458.711 1197.58 454.421 1203.58 448.347 1207.23 C 428.51 1219.11 407.851 1206.99 397.659 1188.6 C 373.369 1177.14 376.993 1165.68 374.327 1143.04 C 372.879 1130.74 369.852 1128.47 371.83 1114.06 C 376.588 1079.4 397.286 1058.35 423.58 1037.7 C 416.395 1021.34 413.792 1005.38 424.444 989.943 C 447.215 956.955 510.637 930.524 548.413 922.185 C 559.15 909.837 579.936 892.036 595.503 886.665 C 615.307 879.832 619.855 884.106 636.36 867.597 C 651.127 852.827 663.125 836.924 676.209 820.617 C 700.237 790.671 724.409 760.763 750.932 732.96 C 759.795 723.669 768.359 713.857 778.138 705.528 C 762.468 680.848 771.829 661.694 791.147 643.577 C 754.075 613.357 710.491 574.619 684.006 534.029 C 663.12 502.021 667.909 486.476 675.747 452.279 C 673.089 448.451 670.579 444.521 668.224 440.499 C 648.816 407.732 633.562 364.753 623.331 328.151 C 619.747 315.332 617.824 305.139 615.099 292.774 C 612.634 281.592 599.13 271.238 603.718 255.36 C 605.705 248.688 610.431 243.174 616.719 240.187 C 624.25 236.589 631.443 236.953 639.03 240.389 C 649.379 245.075 649.314 255.092 658.189 261.165 C 679.402 275.682 717.823 298.643 741.346 307.027 C 754.944 286.678 769.673 267.108 785.462 248.408 C 860.927 159.7 962.67 100.717 1079.63 91.4171 z" fill="rgb(0,0,0)" transform="translate(0,0)"></path>
<path d="M 893.783 715.732 C 877.751 703.934 861.814 690.459 845.819 677.813 C 792.22 635.432 732.458 589.042 692.777 532.971 C 678.337 511.171 673.514 497.396 679.326 471.879 C 736.829 219.421 1009.81 6.12509 1265.46 140.122 C 1356.76 187.978 1403.29 241.775 1457.4 327.028 C 1434.4 332.958 1413.53 338.385 1390.22 343.535 C 1374.84 308.896 1326.89 235.721 1296.06 215.227 C 1333.23 259.611 1353.47 293.003 1371.76 347.945 C 1353.22 352.02 1337.67 356.912 1322.58 369.181 C 1294.26 392.224 1292.44 449.62 1307.66 480.025 C 1315.52 497.798 1322.14 514.112 1336.97 527.347 C 1341.91 531.296 1346.72 533.46 1352.49 536.018 C 1355.12 547.144 1357.62 555.952 1364.79 565.228 C 1351.65 559.768 1339.84 555.994 1327.25 562.134 C 1310.7 570.201 1309.5 584.535 1315.99 599.346 C 1317.39 602.546 1309.65 618.489 1314.04 623.249 C 1317.84 629.453 1318.88 630.85 1324.4 635.594 C 1308.96 642.527 1293.6 651.881 1278.07 659.585 C 1262.08 667.522 1245.8 672.928 1230.14 680.031 C 1260.74 673.226 1280.02 670.222 1312.07 673.545 C 1316.61 678.569 1319.7 682.894 1321.77 689.44 C 1327.69 708.129 1324.24 711.296 1305.98 713.892 C 1283.27 717.121 1258.25 726.741 1237.3 735.926 L 1239.52 737.443 C 1259.02 730.172 1292.6 726.244 1313.58 728.747 C 1355.61 787.64 1398.61 851.113 1441.77 908.493 C 1479.87 958.504 1518.95 1007.75 1559.01 1056.2 C 1577.88 1079.43 1597.19 1102.43 1615.34 1126.2 C 1618.73 1130.64 1623.79 1138.9 1621.38 1144.44 C 1619.61 1143.53 1620.5 1144.27 1619.34 1142.23 C 1617.89 1139.7 1615.8 1138.23 1613 1137.48 C 1578.27 1128.21 1448.62 1210.78 1415.96 1231.62 C 1400.47 1241.5 1385.41 1252.18 1370.29 1262.62 C 1360.16 1269.62 1348.78 1276.54 1339.8 1284.97 C 1336.33 1288.22 1332.59 1292.5 1331.37 1297.22 C 1330.67 1299.91 1331.02 1302.9 1332.56 1305.24 C 1333.91 1307.29 1335.59 1308.43 1337.66 1309.66 L 1337.98 1311.19 C 1308.89 1306.04 1307.68 1295.84 1308.04 1268.3 C 1308.54 1229.73 1304.85 1192.13 1300.96 1153.78 C 1291.42 1052.32 1271.39 952.127 1241.19 854.798 L 1239.7 860.388 C 1244.05 889.049 1257.05 932.465 1264.42 962.224 C 1240.36 934.38 1220.43 911.045 1207.87 875.44 C 1206.7 872.931 1206.68 871.518 1204.79 870.715 C 1204.36 874.025 1204.39 874.173 1204.74 877.512 C 1211.28 917.778 1239.78 945.456 1250.7 981.506 C 1233.94 978.825 1218.14 976.647 1203.65 988.24 C 1184.28 979.93 1171.49 981.565 1154.38 994.574 C 1134.74 983.411 1118.49 983.254 1102.78 1000.77 C 1079.88 985.495 1064.39 988.324 1041.56 1000.9 C 1037.24 997.5 1032.9 986.748 1029.87 981.758 C 1010.01 949.055 974.928 941.091 944.68 965.452 C 913.943 959.026 880.981 972.555 871.475 1004.36 C 869.391 1004.04 854.309 1003.39 854.904 1003.79 C 837.82 992.264 836.533 988.164 813.846 993.397 C 800.662 979.298 797.791 981.4 781.792 978.661 C 780.608 978.458 773.024 965.599 761.762 960.42 C 762 946.647 764.133 932.729 765.529 919.043 C 770.36 871.654 780.724 827.065 792.939 781.133 C 787.141 790.542 782.667 804.068 778.815 814.59 C 762.396 859.436 752.894 902.943 748.822 950.534 C 706.191 942.055 684.543 999.539 717.42 1031.16 C 713.238 1043.2 712.752 1056.35 713.011 1068.98 C 701.108 1090.06 640.271 1190.94 627.656 1201.79 C 615.27 1212.44 584.817 1225.19 568.884 1229.75 C 564.695 1230.95 560.365 1231.51 556.052 1232.06 L 554.893 1228.85 C 561.173 1226.09 566.83 1222.09 571.528 1217.09 C 607.872 1177.82 572.13 1075.4 541.006 1041.05 C 510.706 1007.61 486.173 982.016 440.085 983.142 C 451.899 970.828 471.866 959.802 487.291 952.85 C 556.784 921.528 598.254 911.515 671.644 938.326 L 673.677 936.962 C 637.043 917.772 600.129 913.578 559.902 920.417 C 570.313 910.21 584.288 899.878 597.909 894.58 C 613.769 888.41 627.093 888.123 640.259 875.321 C 657.972 858.096 672.717 837.904 688.056 818.536 C 708.207 792.652 729.427 767.618 751.66 743.5 C 761.138 733.065 771.883 720.72 782.254 711.45 C 797.521 727.398 813.43 742.047 833.83 751.017 C 814.075 735.232 781.874 710.863 777.92 683.317 C 776.709 674.876 780.832 669.013 786.149 663.064 C 812.591 665.584 834.468 682.313 856.798 696.173 C 868.428 703.322 880.158 710.307 891.985 717.125 L 893.783 715.732 z" fill="rgb(109,157,133)" transform="translate(0,0)"></path>
<path d="M 1239.52 737.443 C 1238.3 737.798 1229.32 741.347 1229.51 739.166 L 1229.79 739.245 L 1230.09 738.547 L 1230.25 739.181 L 1230.53 738.284 C 1232.38 737.39 1235.27 736.592 1237.3 735.926 L 1239.52 737.443 z" fill="rgb(35,47,41)" transform="translate(0,0)"></path>
<path d="M 673.677 936.962 C 675.438 937.759 678.318 938.741 679.568 940.259 C 679.532 941.983 672.306 938.569 671.644 938.326 L 673.677 936.962 z" fill="rgb(35,47,41)" transform="translate(0,0)"></path>
<path d="M 893.783 715.732 C 900.706 721.039 897.511 720.97 891.985 717.125 L 893.783 715.732 z" fill="rgb(35,47,41)" transform="translate(0,0)"></path>
<path d="M 1239.7 860.388 C 1239.58 859.641 1238.13 851.845 1239.78 851.658 C 1240.88 852.706 1240.84 853.283 1241.19 854.798 L 1239.7 860.388 z" fill="rgb(35,47,41)" transform="translate(0,0)"></path>
<path d="M 949.954 225.38 C 984.932 226.783 1027.62 245.243 1057.61 263.71 C 1140.22 314.582 1222.63 392.41 1250.12 488.18 C 1267.32 548.127 1240.21 618.592 1181.17 643.266 C 1164.4 650.347 1151.74 650.466 1134.09 653.04 C 1118.5 655.306 1102.95 657.791 1087.43 660.496 C 1049.8 667.05 1002.59 676.699 965.277 685.867 C 950.858 690.04 919.155 698.533 904.929 698.913 C 916.49 694.392 935.187 689.899 947.771 686.342 C 935.526 681.114 919.863 675.843 908.271 670.101 C 866.726 649.521 823.926 623.284 787.459 595.104 C 763.4 576.512 709.69 528.89 708.052 499.078 C 705.588 454.237 754.7 379.689 783.706 345.021 C 818.134 303.871 868.921 255.961 917.996 233.187 C 927.964 228.561 939.274 226.434 949.954 225.38 z" fill="rgb(0,0,0)" transform="translate(0,0)"></path>
<path d="M 974.288 250.343 C 1028.48 243.622 1101.05 304.195 1142.19 339.293 C 1198.63 387.452 1291.76 513.932 1228.95 584.934 C 1185.8 633.716 1086.89 652.068 1021.75 654.144 C 922.646 657.078 769.665 617.413 749.046 501.326 C 740.688 454.271 759.873 390.396 788.428 352.407 C 829.936 297.183 906.732 260.073 974.288 250.343 z" fill="rgb(217,210,199)" transform="translate(0,0)"></path>
<path d="M 903.864 512.893 C 912.465 512.713 920.797 518.313 929.204 520.417 C 948.365 525.213 968.374 525.417 987.719 521.554 C 996.647 519.771 1005.18 513.558 1014.36 514.689 C 1024.01 521.843 1012.76 537.126 1007.31 544.17 C 997.848 552.968 988.43 558.55 975.672 561.374 C 957.007 565.528 937.457 561.991 921.431 551.562 C 910.093 544.107 894.32 526.934 903.864 512.893 z" fill="rgb(0,0,0)" transform="translate(0,0)"></path>
<path d="M 917.585 524.954 C 934.344 524.108 960.947 532.879 977.005 528.134 C 994.988 522.819 1020.66 527.181 997.071 546.56 L 995.507 547.877 C 957.355 571.432 898.873 545.755 916.626 526.078 L 917.585 524.954 z" fill="rgb(216,138,91)" transform="translate(0,0)"></path>
<path d="M 1088.4 441.121 C 1119.42 439.745 1126.59 486.412 1097.1 499.688 C 1084.98 500.492 1077.45 496.91 1071.97 485.504 C 1067.96 477.006 1067.52 467.255 1070.75 458.43 C 1074.37 448.805 1079.4 445.112 1088.4 441.121 z" fill="rgb(0,0,0)" transform="translate(0,0)"></path>
<path d="M 831.208 425.13 C 863.787 424.514 868.775 472.616 838.061 483.613 C 806.755 484.843 800.646 436.904 831.208 425.13 z" fill="rgb(0,0,0)" transform="translate(0,0)"></path>
<path d="M 1194.16 760.207 L 1195.98 761.691 C 1180.74 771.193 1166.03 782.176 1150.51 791.154 C 1112.51 813.133 1072.4 831.221 1030.83 845.313 C 1007.91 853.084 987.337 852.788 963.748 847.36 C 923.039 837.627 886.2 815.872 858.019 784.925 L 859.062 782.576 C 885.749 810.791 948.997 832.895 987.411 830.661 C 1059.03 826.495 1132.36 795.052 1194.16 760.207 z" fill="rgb(0,0,0)" transform="translate(0,0)"></path>
<path d="M 1190.57 683.301 L 1191.41 685.298 C 1137.62 714.404 1075 732.033 1015.4 744.534 L 1013.29 742.399 C 1038.47 735.441 1064.46 728.388 1089.34 720.524 C 1123.56 709.71 1157.19 696.449 1190.57 683.301 z" fill="rgb(0,0,0)" transform="translate(0,0)"></path>
<path d="M 1190.57 683.301 C 1194.76 680.978 1201.5 678.867 1206.1 677.316 C 1200.23 680.873 1197.6 682.511 1191.41 685.298 L 1190.57 683.301 z" fill="rgb(35,47,41)" transform="translate(0,0)"></path>
<path d="M 1015.4 744.534 C 1014.96 744.613 1005.37 746.856 1006.46 744.882 C 1007.02 743.876 1012.01 742.725 1013.29 742.399 L 1015.4 744.534 z" fill="rgb(35,47,41)" transform="translate(0,0)"></path>
<path d="M 1194.16 760.207 C 1202.04 754.37 1204.08 756.599 1195.98 761.691 L 1194.16 760.207 z" fill="rgb(63,90,78)" transform="translate(0,0)"></path>
<path d="M 858.019 784.925 C 855.18 781.619 852.822 778.067 859.062 782.576 L 858.019 784.925 z" fill="rgb(35,47,41)" transform="translate(0,0)"></path>
<path d="M 1330.24 1354.14 C 1332.97 1356.49 1341.5 1379.62 1344.05 1385.18 C 1358.58 1415.37 1374.38 1447.17 1392.33 1475.38 C 1407.06 1498.55 1424.87 1521.39 1418.76 1551.18 C 1413.24 1578.09 1378.91 1620.42 1356.42 1635.38 L 1348.76 1640.51 L 1348.51 1641.75 L 1351.12 1642.88 C 1362.53 1642.2 1376.23 1630.11 1384.05 1622.34 C 1399.65 1636.75 1412.96 1671.23 1390.5 1685.37 C 1375.82 1694.62 1354.2 1702.93 1337.66 1707.97 C 1276.64 1726.53 1201.79 1740.78 1138.23 1731.08 C 1106.33 1725.45 1106.56 1702.75 1113.2 1677.02 C 1126.99 1677.32 1173.42 1673.49 1186.2 1671.02 C 1177.92 1669.64 1165.41 1669.37 1156.37 1668.22 C 1125.97 1664.37 1093.41 1651.38 1071.21 1630.22 C 1035.27 1595.93 1044.64 1546.54 1050.61 1502.89 C 1051.51 1496.29 1051.1 1480.76 1051 1473.35 C 1073.98 1454.79 1092.46 1427.83 1086.53 1397.26 C 1094.81 1396.3 1103.69 1395.61 1112.01 1395.07 C 1187.03 1390.16 1258.74 1377.55 1330.24 1354.14 z" fill="rgb(109,157,133)" transform="translate(0,0)"></path>
<path d="M 1357.99 1545.79 L 1360.2 1544.94 C 1359.74 1552.08 1360.88 1562.43 1360.44 1571.01 C 1359.16 1595.64 1352.87 1623.89 1336.58 1643.15 C 1323.18 1658.98 1309.21 1662.48 1289.86 1663.98 C 1298.3 1659.14 1306.1 1653.26 1313.07 1646.48 C 1339.82 1620.71 1357.21 1583.05 1357.99 1545.79 z" fill="rgb(0,0,0)" transform="translate(0,0)"></path>
<path d="M 1142.13 1584.43 C 1146.85 1586 1148.1 1592.81 1150.12 1597.46 C 1164.49 1630.52 1196.52 1659.79 1232.01 1667.77 C 1236.72 1668.82 1239.02 1668.85 1243.48 1671.17 C 1199.19 1679.16 1149.58 1625.96 1142.13 1584.43 z" fill="rgb(0,0,0)" transform="translate(0,0)"></path>
<path d="M 1357.99 1545.79 L 1358.05 1543.96 C 1358.08 1542.64 1357.89 1540.24 1359.24 1539.6 C 1360.29 1540.06 1360.15 1544.14 1360.2 1544.94 L 1357.99 1545.79 z" fill="rgb(63,90,78)" transform="translate(0,0)"></path>
<path d="M 695.067 1338.09 C 727.704 1355.82 764.338 1369.15 799.614 1380.32 C 801.309 1381.14 816.812 1384.11 815.261 1387.09 C 812.344 1392.69 819.964 1401.44 817.137 1405.08 C 804.918 1420.84 812.47 1446.37 833.097 1455.86 C 844.47 1460.99 857.443 1461.25 869.013 1456.59 C 892.186 1447.18 900.82 1427.07 891.541 1404.05 C 905.443 1407.98 930.44 1415.97 938.462 1429.09 C 942.27 1435.31 943.019 1446.09 944.414 1453.42 C 948.669 1475.77 958.173 1496.57 976.057 1511.1 L 976.194 1512.67 C 976.973 1520.9 980.101 1532.87 982.288 1540.99 C 989.165 1566.52 986.68 1587.63 969.832 1608.62 C 948.93 1634.66 921.504 1642.08 889.752 1647.38 C 887.71 1647.72 876.945 1649.75 876.608 1651.6 C 881.804 1652.8 905.089 1653.96 909.688 1652.95 C 948.969 1644.3 945 1691.7 919.847 1704.25 C 885.82 1721.21 838.78 1714.35 801.911 1711.01 C 790.484 1709.99 779.961 1708.35 768.882 1706.03 C 758.391 1702.08 749.108 1695.93 738.664 1691.66 C 714.387 1681.73 673.614 1687.24 659.819 1659.89 C 650.153 1640.72 661.577 1617.12 682.045 1610.95 C 687.796 1612.16 693.398 1613.45 699.234 1614.18 C 710.663 1627.56 726.205 1632.16 742.908 1635.4 C 743.784 1635.28 744.662 1635.16 745.541 1635.06 C 748.455 1634.73 748.305 1634.95 750.814 1633.58 C 714.732 1624.46 694.658 1589.36 684.408 1556.15 C 682.561 1559.55 683.13 1561.21 682.78 1565.38 C 683.881 1584.41 687.5 1595.57 696.955 1611.87 C 634.774 1583.67 603.638 1542.3 637.156 1479.02 C 647.293 1459.88 656.541 1439.32 665.768 1419.69 C 676.965 1393.11 686.559 1365.66 695.067 1338.09 z" fill="rgb(109,157,133)" transform="translate(0,0)"></path>
<path d="M 750.814 1633.58 C 752.175 1633.73 755.772 1633.82 756.308 1635.26 C 755.509 1636.89 744.755 1635.62 742.908 1635.4 C 743.784 1635.28 744.662 1635.16 745.541 1635.06 C 748.455 1634.73 748.305 1634.95 750.814 1633.58 z" fill="rgb(35,47,41)" transform="translate(0,0)"></path>
<path d="M 682.78 1565.38 C 682.382 1562.22 681.475 1555.81 682.298 1552.92 C 682.862 1550.93 683.947 1553.26 684.102 1554.41 L 684.408 1556.15 C 682.561 1559.55 683.13 1561.21 682.78 1565.38 z" fill="rgb(35,47,41)" transform="translate(0,0)"></path>
<path d="M 777.984 1567.36 C 777.981 1567.18 777.336 1556.55 779.671 1557.5 C 780.307 1557.76 780.622 1561.62 780.719 1562.67 C 784.704 1590.5 795.384 1624.76 819.089 1641.47 C 820.995 1642.81 827.729 1646.44 828.021 1647.4 C 826.178 1651.71 808.548 1647.04 804.998 1644.99 C 777.972 1629.37 778.446 1593.81 777.984 1567.36 z" fill="rgb(0,0,0)" transform="translate(0,0)"></path>
<path d="M 777.984 1567.36 C 777.981 1567.18 777.336 1556.55 779.671 1557.5 C 780.307 1557.76 780.622 1561.62 780.719 1562.67 C 780.421 1562.37 779.801 1561.82 779.567 1561.63 C 778.897 1562.4 778.34 1566.09 777.984 1567.36 z" fill="rgb(35,47,41)" transform="translate(0,0)"></path>
<path d="M 844.261 1647.75 C 873.576 1634.71 884.053 1617.89 903.451 1595.95 C 891.653 1621.62 879.726 1642.4 850.418 1649.57 C 848.902 1649.72 842.861 1650.65 841.556 1649.32 C 841.303 1648.21 843.652 1647.9 844.261 1647.75 z" fill="rgb(0,0,0)" transform="translate(0,0)"></path>
<path d="M 844.261 1647.75 C 847.015 1649.06 847.354 1648.98 850.418 1649.57 C 848.902 1649.72 842.861 1650.65 841.556 1649.32 C 841.303 1648.21 843.652 1647.9 844.261 1647.75 z" fill="rgb(35,47,41)" transform="translate(0,0)"></path>
<path d="M 1159.29 1059.03 C 1178.98 1066.47 1199.49 1069.91 1215.67 1052.7 C 1231.48 1060.11 1238.23 1060.23 1254.2 1053.93 C 1258.79 1067.93 1266.64 1085.33 1271.88 1099.88 C 1281.96 1128.41 1289.59 1157.75 1294.68 1187.58 C 1300.87 1223.42 1301.97 1253.44 1303.19 1289.33 C 1304.03 1314 1332.49 1317.4 1352.84 1318.23 C 1336.88 1326.7 1309.06 1334.84 1291.65 1340.1 C 1223.34 1360.71 1155.14 1373.21 1083.67 1374.23 C 1083.01 1365.29 1082.26 1360.15 1077.35 1352.66 C 1086.6 1335.7 1087.89 1319.2 1075.17 1303.43 C 1086.09 1285.57 1088.04 1265.87 1073.15 1249.28 C 1084.05 1228.96 1084.48 1209.14 1066.37 1193.09 C 1077.35 1170.67 1077.48 1154.6 1058.17 1136.78 C 1066.34 1118.86 1065.52 1099.95 1050.38 1085.92 C 1052.04 1081.25 1053.18 1076.45 1054.44 1071.65 C 1070.11 1075.76 1088.72 1076.47 1100.39 1063.02 C 1119.51 1074.19 1132.37 1074.58 1152.21 1065.68 C 1174.37 1124.61 1190.99 1194.99 1208.34 1255.71 L 1210.54 1256.1 C 1208.84 1251.61 1206.28 1239.14 1205.08 1234.05 L 1194.5 1189.46 C 1183.91 1145.68 1172.17 1102.19 1159.29 1059.03 z" fill="rgb(109,157,133)" transform="translate(0,0)"></path>
<path d="M 1208.34 1255.71 L 1210.54 1256.1 C 1214.26 1273.45 1210.99 1269.29 1208.34 1255.71 z" fill="rgb(63,90,78)" transform="translate(0,0)"></path>
<path d="M 738.498 1041.44 C 760.96 1065.96 784.733 1052 791.022 1060.68 C 787.887 1067.72 779.901 1082.01 775.86 1090.26 C 755.419 1132 734.688 1172.62 714.587 1214.59 L 715.997 1215.07 C 738.952 1175.55 759.487 1132.99 781.874 1093.05 C 786.863 1084.15 791.612 1074.65 796.151 1065.51 C 809.59 1075.66 826.157 1080.21 841.377 1070.96 C 848.159 1075.75 851.915 1077.42 859.425 1080.73 C 857.883 1082.96 856.413 1085.14 855.212 1087.58 C 850.059 1098.16 849.262 1110.33 852.992 1121.49 C 834.472 1135.78 831.635 1154.64 841.239 1175.26 C 824.542 1192.11 823.917 1204.62 831.629 1225.96 C 817.059 1242.33 816.64 1258.99 827.024 1277.6 C 810.775 1295.44 812.735 1309.83 821.867 1330.26 C 816.053 1340.04 814.997 1342.24 813.568 1353.65 C 783.965 1344.76 751.572 1333.63 721.38 1320.88 C 700.261 1311.95 616.307 1276.99 609.715 1255.75 C 607.16 1247.52 651.433 1181.76 659.417 1169.01 L 738.498 1041.44 z" fill="rgb(109,157,133)" transform="translate(0,0)"></path>
<path d="M 707.204 1229.54 C 708.705 1226.33 712.74 1216.77 714.587 1214.59 L 715.997 1215.07 C 714.565 1219.53 712.079 1225.21 708.539 1228.33 L 707.204 1229.54 z" fill="rgb(63,90,78)" transform="translate(0,0)"></path>
<path d="M 687.628 1690.39 C 693.347 1689.87 699.098 1689.82 704.825 1690.23 C 744.151 1693.13 769.169 1711.51 793.504 1740.15 C 788.778 1731.78 785.21 1725.99 779.754 1718.08 C 806.866 1724.1 865.773 1737.1 892.112 1732.64 C 892.233 1739.73 893.741 1763.39 892.307 1769.01 C 886.064 1793.45 834.566 1797.7 814.067 1806.75 C 801.227 1812.42 792.026 1818.27 780.719 1825.55 C 725.217 1861.29 641.903 1847.67 580.245 1832.68 C 560.93 1827.95 524.556 1819.25 508.462 1809.48 C 494.144 1722.56 573.706 1689.91 647.159 1704.66 C 694.581 1714.19 726.887 1747.98 752.637 1786.6 C 751.6 1783.84 750.468 1781.12 749.244 1778.43 C 728.25 1733.51 697.523 1714.76 653.293 1698.74 C 667.146 1693.91 673.258 1691.7 687.628 1690.39 z" fill="rgb(217,210,199)" transform="translate(0,0)"></path>
<path d="M 1561.35 300.203 C 1567.4 293.713 1573.14 287.165 1582.88 286.829 C 1587.64 286.68 1592.26 288.463 1595.68 291.773 C 1607.51 303.06 1601.74 322.332 1586.54 327.68 C 1558.53 394.512 1508.29 486.704 1444.11 524.181 C 1438.41 514.623 1436 511.422 1424.97 506.709 C 1416.87 503.246 1401.63 511.836 1399.91 511.062 C 1389.25 506.276 1379.5 503.346 1367.15 510.295 C 1359.92 514.359 1355.98 522.391 1353.41 531.461 C 1349.2 530.165 1340.97 527.194 1336.97 527.347 C 1322.14 514.112 1315.52 497.798 1307.66 480.025 L 1307.62 478.079 C 1307.43 471.04 1304.79 458.814 1303.98 451.471 C 1292.96 351.778 1367.95 357.089 1440.22 337.669 C 1479.92 327.002 1521.51 311.548 1561.35 300.203 z" fill="rgb(131,106,88)" transform="translate(0,0)"></path>
<path d="M 1526.04 348.029 L 1526.65 349.339 C 1507.36 370.885 1477.92 387.88 1451.45 399.546 C 1416.6 414.905 1381.43 422.407 1359.28 456.801 C 1377.01 467.921 1380.84 469.844 1392.96 487.012 C 1383.61 480.026 1379.26 477.589 1368.62 472.889 L 1353.43 466.917 C 1349.5 475.135 1345.35 483.251 1341 491.254 C 1341.09 490.407 1341.2 489.561 1341.32 488.717 C 1350.39 424.999 1412.43 410.256 1461.17 388.319 C 1483.77 378.145 1506.33 362.947 1526.04 348.029 z" fill="rgb(0,0,0)" transform="translate(0,0)"></path>
<path d="M 1371.53 1710.29 L 1372.3 1710.36 C 1375.17 1712.9 1394.37 1739.95 1398.52 1745.48 C 1384.43 1743.43 1371.25 1741.61 1356.97 1740.91 C 1295.46 1737.9 1218.18 1756.03 1201.45 1824.86 C 1230.15 1776.45 1258.24 1755.97 1315.49 1749.03 C 1323.15 1748.1 1331.16 1747.12 1338.9 1747.16 C 1403.52 1747.51 1472.18 1757.27 1473.25 1836.75 C 1473.32 1840.77 1473.47 1844.84 1473.25 1848.86 C 1472.93 1854.59 1471.08 1858.67 1466.7 1862.41 C 1438.05 1886.87 1331.15 1894.16 1292.85 1891.86 C 1260.17 1889.9 1215.05 1881.66 1196.92 1850.77 C 1191.32 1841.21 1189.55 1829.43 1182.84 1820.58 C 1175.6 1811.03 1163.11 1808.03 1155.62 1799.05 C 1146.73 1788.38 1148.4 1769.81 1149.53 1756.89 C 1212.12 1757.35 1271.85 1727.84 1332.74 1716.3 C 1345.4 1713.91 1358.43 1712.88 1371.53 1710.29 z" fill="rgb(217,210,199)" transform="translate(0,0)"></path>
<path d="M 969.911 1095.87 C 976.094 1097.95 979.848 1097.85 986.121 1097.6 C 980.983 1117.3 982.996 1130.61 999.678 1143.93 C 990.87 1162.97 991.298 1181.4 1008.89 1195.21 C 998.71 1215.58 1003.28 1232.21 1016.32 1249.43 C 1004.72 1268.12 1005.03 1284.13 1020.1 1300.44 C 1007.48 1318.6 1009.43 1330.85 1018.81 1349.86 C 1011.45 1360.13 1011.02 1365.17 1010.29 1377.19 C 988.537 1377.12 967.421 1374.82 945.805 1372.73 C 927.205 1371.07 908.627 1369.18 890.074 1367.06 C 892.838 1354.08 892.975 1344.81 885.592 1333.14 C 893.785 1318.2 899.086 1300.65 886.625 1286 C 899.552 1270.92 902.64 1256.31 892.388 1238.61 C 904.82 1224.39 910.479 1207.36 898.624 1190.74 C 917.205 1176.33 919.19 1162.41 913.568 1140.82 C 924.846 1130.71 927.223 1124.24 929.651 1109.82 C 946.829 1111.12 958.355 1110.21 969.911 1095.87 z" fill="rgb(109,157,133)" transform="translate(0,0)"></path>
<path d="M 1555.42 1331.77 C 1552.65 1354.81 1540.99 1375.04 1522.96 1389.77 C 1516.02 1395.46 1504.54 1399.41 1495.66 1398.32 C 1490.77 1397.72 1478.86 1391.28 1476.33 1386.32 C 1464.85 1363.74 1503.03 1353.84 1492.19 1325.32 C 1487.43 1312.79 1489.08 1304.3 1472.86 1299.58 C 1464.21 1297.62 1455.27 1304.03 1454.94 1313.1 C 1454.32 1325.56 1457.91 1340.39 1447.63 1349.97 C 1441.35 1355.77 1422.62 1360 1417.17 1351.17 C 1411.23 1341.56 1413.74 1326.3 1412.15 1315.32 C 1410.94 1307.29 1407.75 1298.93 1406.9 1290.98 C 1406.38 1286.19 1406.64 1281.34 1407.68 1276.63 C 1414.84 1244.77 1474.59 1195.67 1505.54 1187.1 C 1518.09 1183.63 1537.83 1180.5 1551.17 1178.01 C 1574.61 1218.88 1606.21 1271.79 1593.15 1321.07 C 1591.15 1328.61 1588.23 1335.88 1584.46 1342.71 C 1579.14 1351.8 1582.42 1336.74 1582.8 1334.67 C 1582.9 1331.13 1583.73 1313.64 1582.2 1311.77 C 1580.56 1313.82 1580.79 1317.71 1580.49 1320.77 C 1577.39 1351.93 1571.44 1368.14 1541.74 1381.52 C 1548.79 1370.24 1555.9 1357.68 1557.08 1344.06 C 1557.02 1342.56 1556.99 1341.05 1556.99 1339.54 C 1557.01 1337.64 1557.35 1332.76 1556.31 1331.06 L 1556.2 1331.05 C 1555.94 1331.29 1555.68 1331.53 1555.42 1331.77 z" fill="rgb(131,106,88)" transform="translate(0,0)"></path>
<path d="M 1555.42 1331.77 C 1555.47 1326.49 1556.47 1322.81 1557.7 1317.79 C 1557.91 1325.89 1558.78 1336.48 1557.08 1344.06 C 1557.02 1342.56 1556.99 1341.05 1556.99 1339.54 C 1557.01 1337.64 1557.35 1332.76 1556.31 1331.06 L 1556.2 1331.05 C 1555.94 1331.29 1555.68 1331.53 1555.42 1331.77 z" fill="rgb(59,50,45)" transform="translate(0,0)"></path>
<path d="M 1584.46 1342.71 C 1579.14 1351.8 1582.42 1336.74 1582.8 1334.67 C 1583.29 1338.05 1583.1 1339.65 1584.46 1342.71 z" fill="rgb(126,99,75)" transform="translate(0,0)"></path>
<path d="M 904.761 1784.99 C 906.575 1787.69 906.131 1841.23 906.153 1848.59 C 893.168 1858.67 852.621 1873.64 834.55 1882.25 C 835.609 1875.16 838.89 1854.35 835.547 1848.73 C 833.459 1848.31 832.369 1848.32 830.529 1849.86 C 810.072 1866.9 791.459 1897.45 767.832 1908.5 C 698.337 1941.01 584.967 1919.82 515.259 1896.08 C 506.406 1892.67 499.964 1890.47 492.121 1885.06 L 492.06 1826.66 C 524.804 1850.52 659.25 1871.68 703.271 1869.28 C 721.854 1868.63 740.098 1865.68 757.786 1859.98 C 782.506 1852.01 802.738 1835.79 825.771 1824.68 C 843.524 1816.11 864.324 1812.81 881.905 1803.42 C 891.595 1798.24 897.399 1792.94 904.761 1784.99 z" fill="rgb(217,210,199)" transform="translate(0,0)"></path>
<path d="M 379.962 1128.41 C 374.493 1079.24 422.388 1043.11 460.355 1021.94 C 466.489 1018.53 473.855 1013.73 481.044 1012.68 C 494.441 1011.99 505.4 1013.42 515.736 1022.55 C 529.396 1035.11 554.545 1062.02 557.197 1080.49 C 560.057 1100.42 539.446 1122.75 528.297 1137.02 C 518.524 1149.54 505.492 1174.98 486.935 1174.93 C 481.764 1174.94 476.825 1172.79 473.316 1168.99 C 467.587 1162.72 462.562 1150.67 463.978 1142.35 C 469.705 1108.69 491.746 1109.36 477.382 1072.56 C 476.773 1083.09 478.054 1089.57 474.341 1099.8 C 466.74 1120.73 447.071 1135.12 448.711 1159.98 C 449.394 1172.49 458.996 1187.76 447.623 1198.18 C 443.122 1202.3 434.96 1204.78 429.01 1204.15 C 392.456 1200.31 399.126 1150.04 402.729 1125.84 L 402.88 1124.83 C 395.078 1144.9 392.656 1158.48 396.274 1180.26 C 386.809 1173.53 385.531 1170.29 382.491 1159.52 C 379.098 1147.5 388.54 1126.8 388.14 1120.41 L 387.063 1120.27 C 385.636 1122.57 383.957 1124.91 383.181 1127.46 C 382.115 1130.21 380.284 1135.98 379.962 1128.41 z" fill="rgb(131,106,88)" transform="translate(0,0)"></path>
<path d="M 379.962 1128.41 L 383.181 1127.46 C 382.115 1130.21 380.284 1135.98 379.962 1128.41 z" fill="rgb(126,99,75)" transform="translate(0,0)"></path>
<path d="M 1415.4 511.204 C 1424.78 511.822 1436.76 516.018 1439.22 526.264 C 1445.02 550.483 1422.61 569.82 1412.7 589.813 C 1427.09 575.188 1458.59 549.495 1479.8 563.56 C 1484.37 566.549 1487.51 571.283 1488.49 576.653 C 1489.89 584.135 1487.77 588.928 1483.82 594.974 C 1488.43 603.516 1492.03 611.132 1487.27 620.542 C 1473.43 647.904 1435.76 621.978 1419.16 612.181 C 1426.51 623.22 1438.41 639.135 1440.66 651.875 C 1444.63 674.38 1423.89 692.666 1403.33 677.204 C 1397.3 680.178 1395.43 681.466 1388.63 682.92 C 1379.46 682.671 1369.59 678.096 1367.12 668.621 C 1362.25 649.906 1377.78 627.246 1386.34 611.288 C 1371.45 622.35 1346.29 640.705 1327.7 631.292 C 1316.86 625.801 1315.24 608.379 1323.33 600.426 C 1324.67 599.108 1318.55 591.246 1317.63 588.229 C 1314.59 578.142 1325.94 567.275 1334.87 564.842 C 1356.02 560.286 1374.02 579.554 1390.74 589.339 C 1379.78 574.761 1331.28 527.724 1378.44 512.675 C 1385.5 510.421 1393.81 514.543 1399.64 518.953 C 1405.56 514.573 1408.25 512.915 1415.4 511.204 z" fill="rgb(204,169,111)" transform="translate(0,0)"></path>
<path d="M 1347.09 585.017 C 1355.86 586.644 1361.92 591.753 1370.51 593.855 C 1376.13 595.228 1381.83 595.801 1387.51 596.809 C 1388.58 596.999 1395.86 597.883 1395.5 599.726 C 1394.12 601.235 1379.74 603.936 1376.8 604.566 C 1376.3 604.717 1375.8 604.868 1375.31 605.019 C 1370.48 606.521 1365.71 608.216 1361.01 610.1 C 1350.06 614.482 1338.44 616.64 1337.15 598.001 C 1336.77 592.62 1342.88 587.981 1347.09 585.017 z" fill="rgb(253,253,252)" transform="translate(0,0)"></path>
<path d="M 1173.87 1871.23 C 1173.71 1870.04 1171.08 1844.72 1174.48 1849.44 L 1173.93 1849.46 L 1174.64 1849.94 C 1174.66 1850.26 1174.69 1850.57 1174.71 1850.89 C 1201.31 1911.81 1266.08 1916.57 1325.59 1915.06 C 1369.99 1913.94 1455.76 1907.62 1488.97 1876.18 C 1489.17 1891.6 1493.55 1919.09 1482.31 1930.82 C 1456.76 1957.48 1339.19 1970.38 1300.42 1970.09 C 1264.4 1969.82 1220.7 1962.92 1194.24 1935.93 C 1178.25 1919.62 1173.62 1894.74 1173.85 1872.64 L 1173.87 1871.23 z" fill="rgb(217,210,199)" transform="translate(0,0)"></path>
<path d="M 1173.87 1871.23 C 1173.71 1870.04 1171.08 1844.72 1174.48 1849.44 L 1173.93 1849.46 L 1174.64 1849.94 C 1174.66 1850.26 1174.69 1850.57 1174.71 1850.89 C 1173.69 1857.94 1174.48 1863.91 1173.87 1871.23 z" fill="rgb(158,153,153)" transform="translate(0,0)"></path>
<path d="M 622.264 243.111 C 647.76 241.305 642.353 257.361 652.76 264.244 C 678.462 281.245 710.082 300.03 738.638 311.324 C 720.037 341.125 700.854 377.557 689.008 410.764 C 684.8 422.265 681.078 434.11 677.278 445.763 C 654.821 409.509 640.96 369.766 629.088 329.074 C 623.406 309.596 621.848 288.886 611.17 272.187 C 602.748 259.016 610.094 249.779 622.264 243.111 z" fill="rgb(131,106,88)" transform="translate(0,0)"></path>
<path d="M 1171.81 1820.22 C 1180.92 1823.47 1181.32 1831.42 1184.85 1839.73 C 1221.65 1926.35 1377.71 1898.93 1449.94 1878.45 C 1469.5 1872.91 1473.12 1865.67 1481.07 1849.42 L 1482.41 1849.08 C 1495.02 1855.54 1487.02 1871.98 1479.02 1876.53 C 1421.07 1909.55 1337.12 1911.21 1271.92 1906.73 C 1238.34 1904.43 1194.64 1886.83 1182.81 1852.72 C 1178.66 1841.98 1176.08 1829.15 1168.94 1820.38 L 1171.81 1820.22 z" fill="rgb(221,160,168)" transform="translate(0,0)"></path>
<path d="M 1006.36 999.109 C 1043.23 996.574 1055.21 1023.17 1080.26 1044.41 C 1084.91 1048.35 1091 1054.37 1094.86 1059.07 L 1094.14 1061.17 C 1088.44 1065.96 1083.31 1067.06 1076.26 1068.83 C 1044.51 1070.93 1024.79 1045.93 1001.12 1029.2 C 996.631 1026.03 990.906 1021.51 987.109 1017.6 C 986.702 1008.51 999.11 1001.85 1006.36 999.109 z" fill="rgb(204,169,111)" transform="translate(0,0)"></path>
<path d="M 899.742 1761.47 C 902.842 1764.11 904.898 1765.42 905.539 1769.39 C 900.287 1797.64 847.318 1808.83 826.03 1817.62 C 811.327 1823.7 797.625 1833.46 783.714 1841.33 C 744.528 1863.49 699.947 1866.11 656.1 1860.61 C 621.685 1855.31 511.949 1842.5 491.273 1816.16 C 492.443 1811.59 494.157 1805.06 498.93 1803.59 C 501.85 1806.04 501.598 1808.05 502.777 1812.3 C 520.309 1829.11 616.346 1847.78 644.695 1851.34 C 689.518 1856.98 734.515 1858.14 775.342 1835.6 C 790.388 1827.28 803.187 1818.13 819.153 1811.53 C 848.493 1799.4 895.987 1801.15 899.742 1761.47 z" fill="rgb(221,160,168)" transform="translate(0,0)"></path>
<path d="M 1063.93 996.124 C 1105.61 992.884 1121.64 1032.07 1155.19 1056.92 C 1149.06 1061.28 1146.12 1062.64 1139.37 1065.2 C 1129.58 1066.8 1117.29 1065.92 1108.47 1061.37 C 1100.25 1057.13 1047.88 1008.75 1048.32 1003.63 C 1052.3 999.242 1058.33 997.517 1063.93 996.124 z" fill="rgb(204,169,111)" transform="translate(0,0)"></path>
<path d="M 1124.32 993.157 C 1125.48 993.048 1126.63 992.951 1127.79 992.866 C 1146.86 991.434 1161.11 1005.73 1174.36 1017.56 C 1186.74 1028.61 1198.77 1039.88 1211.37 1050.7 C 1205.38 1055.32 1202.07 1056.66 1195 1058.77 C 1192.88 1059.18 1190.73 1059.44 1188.57 1059.55 C 1151.21 1061.74 1132.98 1026.46 1108.53 1004.64 L 1107.34 1003.58 C 1113.6 997.433 1116.37 995.956 1124.32 993.157 z" fill="rgb(204,169,111)" transform="translate(0,0)"></path>
<path d="M 778.761 985.216 C 786.684 984.506 791.58 983.875 798.88 988.265 C 805.62 992.319 810.915 998.691 812.841 1006.51 C 817.719 1026.23 823.157 1046.66 835.006 1063.49 C 837.488 1067.02 838.444 1067.13 833.787 1068.98 C 790.226 1077.36 772.27 1026.63 775.981 992.491 C 776.396 988.673 776.24 988.096 778.761 985.216 z" fill="rgb(204,169,111)" transform="translate(0,0)"></path>
<path d="M 908.748 1099.98 C 912.993 1101.75 919.634 1106.13 924.441 1108.47 C 919.751 1128.15 915.974 1134.18 897.422 1143.84 C 883.08 1151.31 868.77 1159.48 854.41 1166.9 C 851.294 1168.91 848.166 1170.66 844.999 1172.57 C 829.051 1123.02 875.3 1117.05 908.748 1099.98 z" fill="rgb(204,169,111)" transform="translate(0,0)"></path>
<path d="M 1055.18 1140.77 C 1075.2 1160.36 1069.75 1179.32 1055.08 1200.24 C 1044.45 1215.39 1032.53 1229.48 1020.83 1243.81 C 1020.3 1243.83 1018.91 1243.45 1018.31 1243.32 C 1010.89 1235.32 1005.6 1215.74 1010.59 1206.28 C 1022.24 1184.2 1040.74 1161.5 1055.18 1140.77 z" fill="rgb(204,169,111)" transform="translate(0,0)"></path>
<path d="M 1177.87 989.132 C 1185.03 988.796 1192.36 988.466 1198.9 992.295 C 1221.05 1005.26 1239.63 1025.16 1257.37 1043.36 C 1257.54 1043.54 1257.14 1044.64 1256.96 1044.85 C 1252.61 1050.21 1246.21 1051.5 1239.9 1052.95 C 1220.87 1053.11 1211.44 1044.5 1197.93 1032.25 C 1185 1020.52 1171.91 1008.95 1158.73 997.52 C 1166.86 992.721 1168.59 991.45 1177.87 989.132 z" fill="rgb(204,169,111)" transform="translate(0,0)"></path>
<path d="M 758.487 965.835 C 777.501 969.218 772.687 982.339 771.156 996 C 769.054 1014.75 774.511 1034.95 783.007 1051.35 C 774.42 1052.35 769.439 1053.22 760.915 1051.31 C 752.558 1047.58 741.81 1040.02 737.907 1031.55 C 727.438 1008.82 734.772 976.842 758.487 965.835 z" fill="rgb(204,169,111)" transform="translate(0,0)"></path>
<path d="M 823.293 996.282 C 828.781 996.257 833.595 996.534 838.998 999.129 C 857.216 1007.88 861.37 1037.72 874.031 1053.59 C 878.285 1060.24 883.892 1066.19 887.975 1072.92 C 888.978 1074.57 880.675 1075.93 880.742 1075.92 C 861.595 1077.68 847.72 1074.34 836.483 1057.07 C 829.895 1045.48 822.996 1030.03 820.4 1016.91 C 818.371 1006.65 811.239 998.674 821.417 996.683 L 823.293 996.282 z" fill="rgb(204,169,111)" transform="translate(0,0)"></path>
<path d="M 1063.36 1198.65 C 1070.5 1201.62 1074.51 1213.88 1075.01 1221 C 1076.01 1235.38 1068.33 1246.84 1059.67 1257.69 C 1048.95 1271.12 1036.15 1282.81 1024.4 1295.37 C 1017.01 1297.58 1009.75 1269.28 1018.04 1257.52 C 1032.12 1237.54 1047.61 1217.41 1063.36 1198.65 z" fill="rgb(204,169,111)" transform="translate(0,0)"></path>
<path d="M 909.457 1022.76 C 914.087 1022.33 914.94 1022.73 916.491 1027.27 C 926.941 1057.9 934.77 1078.95 964.354 1095.16 C 957.659 1101.39 957.024 1101.31 948.443 1103.97 C 911.944 1107.33 890.765 1083.21 894.07 1046 C 894.716 1038.73 900.444 1028.84 906.714 1024.6 L 909.457 1022.76 z" fill="rgb(204,169,111)" transform="translate(0,0)"></path>
<path d="M 893.21 1194.65 C 899.596 1196.74 900.297 1212.27 898.836 1216.49 C 890.606 1240.23 851.616 1260.65 831.764 1274.18 C 821.53 1260.96 823.733 1242.34 835.203 1230.58 C 843.492 1222.08 856.083 1216.63 866.397 1210.73 C 875.442 1205.55 884.382 1200.19 893.21 1194.65 z" fill="rgb(204,169,111)" transform="translate(0,0)"></path>
<path d="M 1046.7 1090.6 C 1047.42 1091.16 1048.05 1091.6 1048.65 1092.31 C 1055.5 1100.38 1057.91 1111.14 1057.19 1121.5 C 1056.95 1124.99 1055.46 1130.27 1053.81 1132.99 C 1046.77 1144.58 1020.22 1183.44 1011.4 1191.05 C 1001.62 1182.65 994.496 1162.28 1001.72 1150.98 C 1015.24 1129.82 1032.09 1111.62 1046.7 1090.6 z" fill="rgb(204,169,111)" transform="translate(0,0)"></path>
<path d="M 907.529 1143.94 C 914.424 1149.86 909.225 1173.96 901.947 1180.47 C 882.491 1197.88 858.194 1208.05 836.43 1222.78 C 824.98 1199.63 838.417 1181.03 858.588 1170.37 C 874.717 1161.85 891.646 1152.86 907.529 1143.94 z" fill="rgb(204,169,111)" transform="translate(0,0)"></path>
<path d="M 887.559 1241.92 C 895.183 1251.43 893.691 1267.69 886.746 1276.85 C 871.179 1297.37 845.182 1310.69 826.011 1326.92 L 825.445 1325.74 C 808.096 1290.39 835.58 1277.46 859.988 1261.14 C 869.287 1254.89 878.479 1248.48 887.559 1241.92 z" fill="rgb(204,169,111)" transform="translate(0,0)"></path>
<path d="M 1069.71 1253.8 C 1075.57 1260.01 1079.17 1271.7 1078.08 1280.01 C 1074.75 1305.21 1042.97 1329.38 1024.6 1345.31 C 1021.98 1345.96 1021.75 1343.51 1020.87 1341.53 C 1008.19 1313.34 1028.83 1298.39 1045.92 1280.83 C 1053.19 1273.23 1060.19 1265.37 1066.89 1257.26 C 1067.81 1256.09 1068.75 1254.94 1069.71 1253.8 z" fill="rgb(204,169,111)" transform="translate(0,0)"></path>
<path d="M 1026.98 1056.59 C 1031.65 1058.95 1041.86 1065.97 1048.66 1069.61 C 1048.47 1070.4 1048.3 1071.2 1048.14 1072 C 1044.34 1091.47 1020.35 1116.6 1008.32 1132.75 L 1007.77 1133.5 C 1006.14 1135.67 1003.2 1142.08 1000.15 1138.9 C 970.392 1107.79 1006.36 1080.41 1026.98 1056.59 z" fill="rgb(204,169,111)" transform="translate(0,0)"></path>
<path d="M 882.445 1289.85 C 884.11 1291.27 884.365 1291.98 885.244 1293.97 C 898.744 1324.54 867.186 1342.11 846.646 1357.33 C 840.776 1361.68 833.5 1366.23 826.783 1369.01 L 826.2 1368.21 C 805.193 1339.9 838.118 1324.51 857.228 1310.28 C 865.941 1303.8 874.012 1296.63 882.445 1289.85 z" fill="rgb(204,169,111)" transform="translate(0,0)"></path>
<path d="M 1071.54 1307.75 C 1096.97 1340.72 1051.78 1377.36 1023.91 1387.98 C 1007.21 1376.77 1019.13 1353.19 1033 1344.13 C 1045.83 1335.75 1060.75 1318.92 1071.54 1307.75 z" fill="rgb(204,169,111)" transform="translate(0,0)"></path>
<path d="M 880.798 1337.07 C 902.782 1364.58 855.114 1405.88 827.496 1405.03 C 807.061 1384.27 835.405 1371.03 849.375 1361.62 C 860.464 1354.25 870.969 1346.05 880.798 1337.07 z" fill="rgb(204,169,111)" transform="translate(0,0)"></path>
<path d="M 976.924 957.331 C 1002.77 956.355 1021.25 971.708 1030.06 995.311 C 1014.97 992.754 1012.71 992.955 997.776 996.423 L 997.654 996.479 L 997.55 996.436 L 997.561 996.203 L 996.398 995.644 C 995.761 994.786 995.068 994.102 994.187 993.483 L 993.048 992.656 C 973.848 984.021 957.328 983.769 937.571 990.247 C 945.417 968.356 953.102 961.173 976.924 957.331 z" fill="rgb(204,169,111)" transform="translate(0,0)"></path>
<path d="M 1228.29 985.2 C 1238.24 984.511 1245.62 984.857 1254.09 990.473 C 1275.72 1004.82 1276.9 1021.02 1280.57 1044.72 C 1274.24 1043.43 1271.27 1043.01 1265.22 1040.58 C 1251.95 1032.99 1239.4 1016.67 1227.15 1006.81 C 1221.27 1002.08 1213.99 996.81 1208.65 991.784 C 1216.58 988.062 1219.51 986.94 1228.29 985.2 z" fill="rgb(204,169,111)" transform="translate(0,0)"></path>
<path d="M 1138.61 1807.56 C 1142.74 1811.05 1145.37 1814.28 1150.03 1817.48 C 1155.52 1821.25 1160.77 1823.7 1166.36 1827.29 C 1167.64 1848.34 1166.6 1877.58 1166.97 1899.71 C 1158.09 1892.91 1146.13 1884.48 1138.1 1877.18 C 1137.87 1858.27 1137.51 1825.79 1138.61 1807.56 z" fill="rgb(217,210,199)" transform="translate(0,0)"></path>
<path d="M 1073.67 1356.83 C 1077.57 1361.7 1078.61 1371.5 1077.59 1377.98 C 1074.69 1396.35 1053.79 1416.06 1036.97 1422.62 C 1032.42 1424.4 1027.63 1421.69 1023.94 1419.32 C 1018.75 1413.51 1016.18 1408.58 1015.34 1400.5 C 1014.79 1399.45 1017.16 1392.05 1018.22 1392.04 C 1041.4 1391.78 1058.25 1373.29 1073.67 1356.83 z" fill="rgb(204,169,111)" transform="translate(0,0)"></path>
<path d="M 1078.44 1393.72 C 1097.33 1416.63 1060.36 1475.86 1023.34 1444.19 C 1018.72 1438.83 1016.66 1434.78 1016.24 1427.52 C 1016.03 1426.04 1015.38 1419.35 1019 1422.37 C 1040.84 1440.53 1066 1409.32 1078.44 1393.72 z" fill="rgb(204,169,111)" transform="translate(0,0)"></path>
<path d="M 820.324 1408.52 C 821.424 1409.47 822.227 1410.18 822.842 1411.53 C 832.661 1433.19 858.178 1433.44 875.231 1420.28 C 880.699 1416.06 883.342 1413.02 887.68 1408 L 887.915 1408.87 C 890.913 1419.78 891.169 1422.72 887.473 1433.37 L 887.016 1434.13 C 876.168 1452.27 854.997 1459.5 835.532 1450.9 C 827.786 1447.47 821.803 1441 819.001 1433 C 815.694 1423.84 816.003 1417.01 820.324 1408.52 z" fill="rgb(204,169,111)" transform="translate(0,0)"></path>
<path d="M 922.005 969.223 C 929.997 968.509 934.127 968.83 941.967 969.424 C 936.503 980.915 936.482 979.114 932.476 992.527 C 932.066 992.793 931.657 993.06 931.248 993.326 C 924.254 997.68 919.178 1004.53 917.049 1012.49 C 916.509 1014.53 916.285 1018.15 913.493 1017.86 C 906.833 1017.15 905.252 1025.24 901.31 1019.2 C 892.533 1011.15 887.462 1009.51 876.707 1004.92 C 885.122 984.382 901.056 974.454 922.005 969.223 z" fill="rgb(204,169,111)" transform="translate(0,0)"></path>
<path d="M 951.229 991.139 C 968.931 989.801 977.653 990.931 993.08 999.446 C 988.872 1003.56 981.649 1009.44 980.996 1015.51 C 980.317 1021.82 978.322 1019.51 972.015 1020.38 C 965.812 1021.23 959.507 1021.96 953.171 1023.13 C 941.634 1024.59 933.87 1026.65 923.86 1032.28 C 923.198 1030.37 922.621 1028.44 922.131 1026.48 C 917.315 1006.4 934.022 995.241 951.229 991.139 z" fill="rgb(204,169,111)" transform="translate(0,0)"></path>
<path d="M 733.345 955.121 C 746.003 954.548 746.486 954.759 756.695 961.291 C 728.708 975.465 724.441 1003.59 732.157 1031.46 C 725.82 1032.12 711.964 1018.4 709.887 1012.54 C 701.186 987.97 709.612 965.423 733.345 955.121 z" fill="rgb(204,169,111)" transform="translate(0,0)"></path>
<path d="M 968.437 1047.28 C 971.873 1051.96 975.375 1056.59 978.941 1061.17 C 978.979 1069.27 979.703 1078.31 984.104 1085.47 C 992.776 1099.56 962.686 1087.84 958.708 1085.78 L 956.936 1084.87 C 944.748 1075.58 938.581 1068.5 932.092 1053.45 C 931.866 1052.93 931.94 1052.58 932.161 1052.15 C 932.889 1051.96 933.716 1052.14 934.449 1052.29 C 945.949 1054.68 957.89 1052.24 968.437 1047.28 z" fill="rgb(204,169,111)" transform="translate(0,0)"></path>
<path d="M 995.964 1031.77 C 1005.31 1038.14 1014.06 1046.16 1023.03 1053.27 C 1015.81 1061.69 1008.07 1070.86 1000.71 1079.08 C 997.935 1082.17 995.169 1085.47 992.391 1088.6 C 981.447 1066.81 979.93 1052.62 995.964 1031.77 z" fill="rgb(204,169,111)" transform="translate(0,0)"></path>
<path d="M 882.605 1378.64 C 900.612 1389.62 872.631 1435.17 836.924 1420.98 C 831.265 1416.85 830.415 1416.43 827.021 1410.11 C 853.555 1408.71 864.571 1397.53 882.605 1378.64 z" fill="rgb(204,169,111)" transform="translate(0,0)"></path>
<path d="M 891.418 1078.18 C 892.517 1078.36 902.736 1093.55 904.963 1096.17 C 892.718 1102.56 879.977 1106.87 867.591 1113.2 C 863.5 1115.2 860.897 1116.73 856.995 1119.01 C 856.184 1109.32 854.81 1081.56 870.399 1081.94 C 878.398 1082.14 884.03 1081.08 891.418 1078.18 z" fill="rgb(204,169,111)" transform="translate(0,0)"></path>
<path d="M 861.292 1008.25 C 875.126 1009.02 887.671 1013.31 897.892 1023.03 L 899.343 1024.37 C 889.369 1037.64 888.333 1045.35 889.304 1061.77 C 889.707 1062.86 890.136 1064.14 889.834 1065.3 C 889.711 1065.37 889.588 1065.44 889.465 1065.51 C 875.241 1050.03 865.377 1029.78 858.314 1010.27 C 858.128 1009.75 861.843 1007.96 861.292 1008.25 z" fill="rgb(204,169,111)" transform="translate(0,0)"></path>
<path d="M 971.654 1025.37 C 972.831 1025.14 976.186 1024.34 977.076 1025.59 C 977.05 1027.37 972.018 1034.67 970.934 1036.45 C 963.945 1047.91 946.004 1048.81 934.236 1047.33 L 933.042 1046.71 C 929.898 1045.15 924.963 1039.9 927.397 1037.36 C 935.275 1029.14 961.577 1026.66 971.654 1025.37 z" fill="rgb(204,169,111)" transform="translate(0,0)"></path>
<path d="M 1358.61 635.279 C 1358.83 635.356 1359.06 635.432 1359.29 635.509 L 1359.29 635.614 C 1357.83 638.299 1339.4 651.021 1335.5 652.994 C 1330.44 655.553 1327.6 655.023 1322.61 653.273 C 1322.36 652.988 1317.41 647.8 1318.54 647.046 C 1330.74 638.911 1344.55 639.464 1358.61 635.279 z" fill="rgb(204,169,111)" transform="translate(0,0)"></path>
<path d="M 984.249 1024.15 C 986.462 1025.29 988.309 1026.53 990.425 1027.83 C 983.976 1039.15 983.356 1040.93 979.3 1053.32 C 977.378 1049 971.884 1044.01 973.186 1042.53 C 977.857 1037.24 980.86 1030.33 984.249 1024.15 z" fill="rgb(204,169,111)" transform="translate(0,0)"></path>
<path d="M 1159.91 1816.21 C 1153.37 1812.46 1149.46 1809.51 1144.01 1803.49 C 1140.51 1799.61 1137.21 1793.4 1142 1788.44 C 1142.83 1787.58 1143.88 1789.87 1144.06 1790.44 C 1146.59 1798.42 1151.88 1805.03 1158.13 1810.46 L 1160.45 1812.46 L 1159.91 1816.21 z" fill="rgb(221,160,168)" transform="translate(0,0)"></path>
<path d="M 1160.45 1812.46 C 1164.2 1815.1 1167.99 1817.68 1171.81 1820.22 L 1168.94 1820.38 C 1166.27 1818.86 1162.76 1817.39 1159.91 1816.21 L 1160.45 1812.46 z" fill="rgb(194,143,142)" transform="translate(0,0)"></path>
<path d="M 556.052 1232.06 C 554.646 1232.02 549.757 1232.27 548.91 1231.42 C 549.327 1230.43 553.876 1229.24 554.893 1228.85 L 556.052 1232.06 z" fill="rgb(123,146,140)" transform="translate(0,0)"></path>
<path d="M 1337.66 1309.66 C 1345.84 1310.19 1343.64 1313.03 1337.98 1311.19 L 1337.66 1309.66 z" fill="rgb(59,50,45)" transform="translate(0,0)"></path>
<metadata><recraft-signature>{"signed_by": "recraft", "signature_b64": "Wm5jA5cJCWEkzKsbwILw8F6caEI4JnAGWl5NRfxJbZ712AF/F6oHSuSra3nHOhrJYIiX0T7ynnaDufF/JM6MDw==", "signing_algo": "Ed25519", "generation_timestamp": 1778557420, "identifier": "8a06a260-624a-4e5e-acf8-88c1e2041a2f"}</recraft-signature></metadata></svg>