<svg xmlns="http://www.w3.org/2000/svg" height="1024" preserveAspectRatio="none" style="display: block;" version="1.1" viewBox="0 0 2048 2048" width="1024">

<path d="M 1261.48 22.0966 C 1277.66 18.1041 1298.65 18.1436 1314.15 24.4582 C 1353.71 36.0674 1386.21 58.7557 1406.05 95.543 C 1422.98 126.341 1426.63 162.709 1416.15 196.255 C 1405 232.467 1379.89 262.75 1346.37 280.42 C 1345.58 280.826 1344.78 281.231 1343.99 281.637 C 1347.73 283.562 1362.13 284.183 1366.96 284.622 C 1411.21 288.645 1441.6 332.963 1425.84 375.453 C 1415.41 403.578 1389.49 428.35 1363.13 441.866 C 1359.41 443.679 1349.85 447.119 1347.94 448.163 C 1352.48 461.685 1358.64 469.45 1363.31 480.953 C 1393.46 480.676 1425.62 476.858 1455.4 472.111 C 1475.3 468.699 1494.92 462.373 1514.97 459.945 C 1618.25 447.443 1712.13 543.382 1711.82 644.495 C 1711.66 695.905 1689.28 743.736 1654.32 781.082 C 1653.63 781.683 1652.95 782.283 1652.26 782.884 C 1627.19 812.591 1571.05 842.853 1531.34 840.333 C 1527.12 841.161 1523.24 840.743 1518.65 840.811 C 1470.92 841.526 1410.18 797.478 1438.24 745.253 C 1441.68 738.866 1447.77 733.493 1453.46 728.46 C 1449.07 735.764 1445.12 746.238 1451.68 753.384 C 1472.52 776.085 1517.68 745.705 1517.32 720.311 C 1516.67 674.197 1461.4 671.448 1433.61 698.628 C 1406.11 725.516 1389.25 761.4 1386.84 800.196 C 1386.86 803.928 1386.42 808.164 1388.21 811.242 C 1400.36 817.016 1414.65 821.844 1425.89 829.051 C 1473.22 859.407 1498.32 922.778 1473.54 975.462 C 1468.97 984.973 1463.08 993.786 1456.03 1001.64 C 1466.85 1006.88 1477.82 1011.95 1488.18 1018.04 C 1499.46 1024.39 1517.85 1033.82 1526.32 1042.95 C 1533.42 1046.75 1548.1 1057.84 1551.03 1065.26 C 1553 1065.89 1555 1066.42 1557.02 1066.83 C 1579.48 1071.24 1609.64 1069.89 1628.93 1056.67 C 1685.05 1018.23 1604.91 957.39 1564.7 988.902 C 1552.29 998.629 1549.57 1012.12 1548.22 1026.87 C 1526.65 974.81 1549.44 926.137 1600.16 903.677 C 1632.64 890.263 1660.01 886.085 1695.32 890.427 C 1760.68 898.467 1823.3 941.589 1848.66 1003.33 C 1866.81 1047.51 1866.39 1097.13 1847.49 1141 C 1822.63 1199.44 1769.36 1246.35 1710.67 1268.9 C 1679.52 1280.87 1659.09 1284.35 1626.63 1289.48 C 1631.92 1297.69 1638.23 1308.1 1643.97 1315.79 C 1659.55 1338.86 1674.17 1378.83 1680.29 1405.88 C 1691.98 1477.99 1676.38 1542.27 1634.32 1601.93 C 1667.89 1608.39 1700.29 1619.89 1730.41 1636.05 C 1740.74 1641.76 1784.29 1667.6 1789.84 1674.45 C 1802.34 1683.93 1809.95 1690.15 1821.08 1701.66 C 1825.78 1706.52 1836.32 1718.42 1840.77 1722.21 C 1863.54 1745.52 1885.81 1791.83 1885.03 1824.76 C 1885.28 1857.16 1879.48 1882.6 1855.9 1906 C 1814.05 1947.54 1743.81 1964.05 1688.05 1976.08 C 1563.87 2002.87 1435.16 2013.11 1308.57 2020.52 C 1283.24 2021.93 1257.9 2023.09 1232.54 2024 C 1222.59 2024.35 1200.13 2024.48 1191.41 2025.69 C 1188.99 2026.37 1164.8 2026.83 1160.78 2027.06 C 1103.83 2030.29 1047.48 2028.45 990.553 2027.43 C 938.351 2026.89 886.167 2025.23 834.037 2022.44 L 779.479 2019.16 C 770.176 2018.57 753.959 2017.86 745.13 2016.06 C 733.068 2014.22 710.666 2013.37 697.847 2012.4 C 670.673 2010.22 643.515 2007.84 616.376 2005.25 C 578.881 2001.37 541.478 1996.65 504.194 1991.11 C 423.469 1979.48 247.556 1953.28 190.96 1889.08 C 168.238 1863.31 160.04 1830.85 162.245 1797 C 164.532 1761.9 178.713 1732.46 200.104 1705.08 C 205.689 1697.93 211.473 1690.48 218.321 1684.51 C 222.306 1679 232.213 1669.63 237.667 1664.72 C 276.48 1629.81 311.007 1611.86 358.007 1592.05 C 375.377 1585.81 393.059 1580.47 410.981 1576.07 C 379.175 1539.3 361.664 1480.3 365.931 1432.12 C 369.309 1405.25 377.966 1355.61 393.448 1333.01 C 407.623 1306.72 425.064 1282.33 445.358 1260.41 C 449.074 1256.4 464.981 1241.13 465.262 1238.46 L 462.083 1236.94 C 434.93 1237.91 399.021 1227.5 373.196 1218.73 C 254.593 1178.5 168.598 1062.81 216.726 935.876 C 236.038 886.083 274.295 845.972 323.118 824.326 C 358.665 808.581 404.136 804.179 440.886 818.31 L 446.224 820.41 C 489.063 842.015 504.803 880.394 473.066 921.043 C 472.593 897.686 463.731 880.862 437.744 882.222 C 426.218 882.802 415.465 888.19 408.101 897.076 C 397.965 909.127 394.728 925.13 396.402 940.481 C 399.023 963.357 410.699 984.229 428.822 998.433 C 463.384 1025.98 518.065 1022.98 558.548 1014.28 C 563.884 1013.13 569.842 1011.2 575.059 1010.34 C 596.007 996.477 617.544 974.477 642.188 960.812 L 641.241 956.314 C 640.285 928.131 642.074 909.312 657.4 883.916 C 673.23 857.687 705.42 837.388 733.977 827.698 C 742.471 824.815 754.37 824.513 762.48 822.506 L 763.948 822.131 C 762.815 819.121 762.075 815.716 759.617 814.003 C 750.487 814.965 731.065 822.674 719.894 824.793 C 706.484 824.937 693.32 826.741 679.586 826.504 C 593.745 825.026 484.342 793.943 473.592 693.99 C 469.892 659.781 480.232 625.534 502.247 599.09 C 531.247 563.574 578.763 545.293 623.551 542.716 C 677.446 539.615 741.997 546.911 779.79 500.013 C 778.16 498.838 778.752 499.046 777.153 498.543 C 761.202 493.577 746.045 486.352 732.144 477.087 C 710.837 462.859 691.526 442.828 686.667 416.792 C 683.455 400.113 687.207 382.845 697.051 369.002 C 709.028 351.917 725.183 345.146 745.026 341.541 C 741.953 338.374 738.326 333.829 735.405 330.383 C 709.814 318.396 678.335 277.77 677.182 248.831 C 674.315 176.908 737.164 141.966 799.633 136.786 C 799.107 105.052 811.579 81.5136 835.052 60.3786 C 860.732 37.6611 894.312 25.9472 928.551 27.7631 C 962.343 29.8783 1006.76 46.6905 1029.3 72.389 C 1081.14 39.2486 1136.43 62.1468 1189.14 83.4696 C 1222.14 96.8232 1275.57 111.786 1279.23 55.4122 C 1280.09 42.2823 1270.63 30.8721 1261.48 22.0966 z" fill="rgb(24,22,66)" transform="translate(0,0)"></path>
<path d="M 470.184 1237.77 C 487.791 1238.28 503.643 1238.46 521.228 1236.66 C 543.419 1234.4 565.903 1230.3 588.075 1228.7 C 614.594 1226.84 641.24 1228.09 667.466 1232.44 C 682.066 1258.34 703.235 1297.91 719.132 1322.19 L 719.676 1323.29 C 727.314 1338.5 738.464 1355.07 746.854 1370.26 C 762.635 1398.82 776.332 1432.46 781.315 1464.71 C 783.164 1477.41 784.292 1490.19 784.695 1503.02 C 784.886 1510.49 784.559 1523.7 785.79 1530.54 C 786.028 1557.04 781.356 1594.64 803.026 1612.96 C 828.792 1634.75 855.544 1621.89 873.93 1599.36 C 880.557 1611.07 885.315 1620.68 897.315 1628.24 C 906.913 1634.28 921.786 1635.48 932.579 1632.33 C 977.837 1619.13 1024.88 1556.03 1049.76 1517.2 C 1067.55 1489.42 1087.12 1449.02 1079.04 1416.24 C 1071.74 1386.63 1044.11 1364.2 1019.19 1349.07 C 1017.66 1346.42 1017.04 1336.51 1016.51 1332.32 C 1030.21 1336.03 1044.96 1340.12 1058.71 1343.28 C 1160.19 1366.54 1339.84 1366.25 1409.68 1274.79 C 1466.52 1289.55 1510.4 1296.1 1570.05 1293.57 C 1577.38 1292.41 1590.81 1293.47 1600.37 1292.35 C 1606.53 1293.28 1620.43 1290.6 1626.63 1289.48 C 1631.92 1297.69 1638.23 1308.1 1643.97 1315.79 C 1659.55 1338.86 1674.17 1378.83 1680.29 1405.88 C 1691.98 1477.99 1676.38 1542.27 1634.32 1601.93 C 1667.89 1608.39 1700.29 1619.89 1730.41 1636.05 C 1740.74 1641.76 1784.29 1667.6 1789.84 1674.45 C 1802.34 1683.93 1809.95 1690.15 1821.08 1701.66 C 1825.78 1706.52 1836.32 1718.42 1840.77 1722.21 C 1863.54 1745.52 1885.81 1791.83 1885.03 1824.76 C 1885.28 1857.16 1879.48 1882.6 1855.9 1906 C 1814.05 1947.54 1743.81 1964.05 1688.05 1976.08 C 1563.87 2002.87 1435.16 2013.11 1308.57 2020.52 C 1283.24 2021.93 1257.9 2023.09 1232.54 2024 C 1222.59 2024.35 1200.13 2024.48 1191.41 2025.69 C 1188.99 2026.37 1164.8 2026.83 1160.78 2027.06 C 1103.83 2030.29 1047.48 2028.45 990.553 2027.43 C 938.351 2026.89 886.167 2025.23 834.037 2022.44 L 779.479 2019.16 C 770.176 2018.57 753.959 2017.86 745.13 2016.06 C 733.068 2014.22 710.666 2013.37 697.847 2012.4 C 670.673 2010.22 643.515 2007.84 616.376 2005.25 C 578.881 2001.37 541.478 1996.65 504.194 1991.11 C 423.469 1979.48 247.556 1953.28 190.96 1889.08 C 168.238 1863.31 160.04 1830.85 162.245 1797 C 164.532 1761.9 178.713 1732.46 200.104 1705.08 C 205.689 1697.93 211.473 1690.48 218.321 1684.51 C 222.306 1679 232.213 1669.63 237.667 1664.72 C 276.48 1629.81 311.007 1611.86 358.007 1592.05 C 375.377 1585.81 393.059 1580.47 410.981 1576.07 C 379.175 1539.3 361.664 1480.3 365.931 1432.12 C 369.309 1405.25 377.966 1355.61 393.448 1333.01 C 407.623 1306.72 425.064 1282.33 445.358 1260.41 C 449.074 1256.4 464.981 1241.13 465.262 1238.46 L 462.083 1236.94 C 464.864 1237.14 467.462 1237.21 470.184 1237.77 z" fill="rgb(226,226,226)" transform="translate(0,0)"></path>
<path d="M 1680.29 1405.88 C 1691.98 1477.99 1676.38 1542.27 1634.32 1601.93 C 1667.89 1608.39 1700.29 1619.89 1730.41 1636.05 C 1726.83 1639.5 1723.07 1642.75 1719.14 1645.79 C 1609.34 1729.99 1253.37 1737.89 1108.93 1738.05 C 1080.31 1738.26 1051.69 1738.07 1023.08 1737.46 C 1010.14 1737.16 994.861 1737.21 982.321 1735.55 C 1025.9 1725.96 1081.01 1711.19 1116.65 1684.48 C 1158.28 1653.3 1183.65 1618.06 1236.91 1601.47 C 1320.95 1575.29 1388.34 1618.98 1471.37 1573.13 C 1551.74 1528.74 1593.37 1437.09 1680.29 1405.88 z" fill="rgb(86,156,118)" transform="translate(0,0)"></path>
<path d="M 1789.84 1674.45 C 1802.34 1683.93 1809.95 1690.15 1821.08 1701.66 C 1825.78 1706.52 1836.32 1718.42 1840.77 1722.21 C 1840.2 1724.27 1839.26 1726.66 1838.49 1728.68 C 1826.85 1759.19 1807.21 1785.99 1781.63 1806.27 C 1728.92 1847.61 1677.57 1842.89 1616.33 1830.63 C 1596.93 1826.75 1572.38 1824.35 1553.15 1829.39 C 1506.52 1841.62 1482.01 1883.09 1437.5 1902.05 C 1385.1 1924.38 1355.7 1907.35 1308.21 1888.25 C 1259.21 1868.55 1220.68 1875.99 1179.07 1906.51 C 1166.68 1915.59 1144.38 1930.01 1130.56 1936.1 C 1103.97 1947.98 1073.7 1948.56 1046.68 1937.7 C 1032.45 1932.11 997.452 1914.78 990.911 1899.59 C 985.79 1887.69 991.352 1871.43 1004.32 1866.05 C 1027.23 1856.54 1047.17 1872.09 1068.16 1877.72 C 1076.69 1880.06 1085.61 1880.6 1094.35 1879.32 C 1145.47 1872.03 1172.74 1812.93 1238.97 1803.27 C 1309.05 1793.06 1349.35 1853.78 1405.31 1836.87 C 1455.23 1821.78 1480.97 1763.77 1546.72 1755.32 C 1604.87 1747.85 1648.94 1780.56 1705.27 1759.64 C 1747.8 1743.85 1771.16 1714.13 1789.84 1674.45 z" fill="rgb(135,189,179)" transform="translate(0,0)"></path>
<path d="M 365.931 1432.12 C 388.672 1447.29 415.631 1460.41 441.873 1467.89 C 484.329 1479.98 522.172 1485.02 557.664 1513.66 C 595.742 1544.4 607.481 1579.2 628.89 1620.55 C 642.658 1647.14 674.211 1673.04 698.892 1689.08 C 718.752 1701.8 741.833 1714.43 763.418 1724.1 C 703.491 1720.46 643.803 1713.61 584.609 1703.59 C 535.196 1695.39 486.516 1686.37 439.984 1667.21 C 395.459 1648.88 379.45 1633.1 358.007 1592.05 C 375.377 1585.81 393.059 1580.47 410.981 1576.07 C 379.175 1539.3 361.664 1480.3 365.931 1432.12 z" fill="rgb(86,156,118)" transform="translate(0,0)"></path>
<path d="M 218.321 1684.51 C 214.902 1702.25 212.399 1713.94 212.585 1732.14 C 213.399 1812.12 277.862 1861.5 351.611 1875.02 C 394.628 1882.9 437.979 1873.96 480.346 1885.25 C 501.778 1891.11 531.647 1906.37 547.961 1920.38 C 584.305 1951.61 608.797 1962.46 655.208 1972.69 C 679.981 1978.15 725.444 2000.14 745.13 2016.06 C 733.068 2014.22 710.666 2013.37 697.847 2012.4 C 670.673 2010.22 643.515 2007.84 616.376 2005.25 C 578.881 2001.37 541.478 1996.65 504.194 1991.11 C 423.469 1979.48 247.556 1953.28 190.96 1889.08 C 168.238 1863.31 160.04 1830.85 162.245 1797 C 164.532 1761.9 178.713 1732.46 200.104 1705.08 C 205.689 1697.93 211.473 1690.48 218.321 1684.51 z" fill="rgb(86,156,118)" transform="translate(0,0)"></path>
<path d="M 1191.41 2025.69 C 1188.6 2025.36 1188.53 2025.39 1185.91 2024.38 C 1192.32 2011.74 1231.9 1989.73 1245.01 1983.14 C 1311.04 1949.98 1383.5 1971.58 1451.81 1952.88 C 1499.74 1939.76 1537.71 1905.87 1588.63 1898.46 C 1634.95 1891.72 1680.43 1903.92 1725.98 1891.39 C 1783.91 1875.98 1822.08 1824.24 1885.03 1824.76 C 1885.28 1857.16 1879.48 1882.6 1855.9 1906 C 1814.05 1947.54 1743.81 1964.05 1688.05 1976.08 C 1563.87 2002.87 1435.16 2013.11 1308.57 2020.52 C 1283.24 2021.93 1257.9 2023.09 1232.54 2024 C 1222.59 2024.35 1200.13 2024.48 1191.41 2025.69 z" fill="rgb(86,156,118)" transform="translate(0,0)"></path>
<path d="M 1600.37 1292.35 C 1606.53 1293.28 1620.43 1290.6 1626.63 1289.48 C 1631.92 1297.69 1638.23 1308.1 1643.97 1315.79 C 1641.77 1325.2 1637.15 1335.16 1632.91 1343.75 C 1612.55 1385.05 1574.51 1413.82 1529.88 1424.32 C 1511.08 1428.75 1492.21 1426.51 1475.3 1438.33 C 1447.05 1458.07 1440.94 1491.57 1413.57 1512.01 C 1383.81 1534.22 1347.69 1534.29 1313.02 1525.61 C 1295.88 1521.32 1280.35 1515.31 1262.99 1513.06 C 1226.71 1506.94 1202.29 1526.13 1182.82 1554.88 C 1165.48 1580.48 1142.1 1593.01 1110.93 1594.38 C 1095.28 1595.07 1076.42 1595.45 1066.17 1580.36 C 1062.87 1575.5 1061.06 1569.39 1062.36 1563.46 C 1065.55 1550.87 1076.13 1543.29 1088.85 1542.75 C 1146.74 1537.07 1150.54 1495.64 1192.63 1468.64 C 1217.46 1452.71 1250.83 1449.66 1279.27 1456.91 C 1290.39 1459.75 1302.07 1464.08 1313.57 1466.71 C 1390.67 1484.36 1388.22 1404.49 1445.27 1374.62 C 1472.38 1358.39 1506.32 1364.69 1533 1348.46 C 1551.07 1337.48 1565.73 1313.64 1570.05 1293.57 C 1577.38 1292.41 1590.81 1293.47 1600.37 1292.35 z" fill="rgb(135,189,179)" transform="translate(0,0)"></path>
<path d="M 462.083 1236.94 C 464.864 1237.14 467.462 1237.21 470.184 1237.77 C 461.944 1281.03 456.762 1327.99 513.791 1339.4 C 528.422 1342.32 543.548 1340.01 558.332 1340.61 C 594.914 1341.99 629.475 1354.72 651.37 1385.23 C 659.731 1397.08 666.524 1409.96 671.58 1423.55 C 679.276 1444.37 680.651 1464.71 698.055 1481.25 C 704.028 1486.91 710.848 1491.62 718.269 1495.18 C 731.555 1501.57 748.728 1504.27 756.748 1518 C 759.029 1521.9 760.81 1527.16 759.831 1531.69 C 753.848 1559.43 724.411 1559.36 702.916 1554.71 C 675.821 1548.71 652.271 1532.08 637.561 1508.55 C 616.513 1475.43 613.856 1423.2 565.161 1410.62 C 551.944 1407.21 532.861 1410.99 518.99 1411.08 C 475.157 1411.35 431.381 1397.46 406.11 1359.79 C 400.547 1351.56 396.277 1342.53 393.448 1333.01 C 407.623 1306.72 425.064 1282.33 445.358 1260.41 C 449.074 1256.4 464.981 1241.13 465.262 1238.46 L 462.083 1236.94 z" fill="rgb(135,189,179)" transform="translate(0,0)"></path>
<path d="M 299.444 1671.12 C 327.844 1672.57 328.218 1690.89 332.888 1713.16 C 335.824 1727.16 345.662 1738.47 357.814 1745.88 C 389.073 1764.92 422.152 1749.02 453.919 1740.97 C 516.405 1724.7 569.446 1741.23 610.3 1791.69 C 627.233 1812.61 637.807 1833.5 663.598 1844.16 C 710.542 1863.54 743.326 1824.95 792.421 1850.06 C 816.017 1862.13 823.205 1878.99 844.308 1893.04 C 857.134 1901.58 873.077 1903.18 886.36 1909.76 C 891.309 1912.21 894.926 1920.93 895.711 1926.61 C 896.554 1932.52 894.946 1938.51 891.261 1943.2 C 885.458 1950.51 879.683 1951.84 871.143 1952.64 C 812.232 1952.15 805.952 1911.67 764.882 1902.33 C 720.137 1892.15 696.449 1932.96 632.514 1902.95 C 614.274 1894.39 599.021 1882.13 585.172 1867.59 C 562.465 1843.76 547.357 1820.61 513.509 1812.02 C 452.716 1796.6 401.335 1843.89 339.306 1812.19 C 312.95 1798.71 287.743 1773.29 278.717 1744.68 C 272.868 1726.14 271.824 1702.24 281.497 1684.73 C 285.693 1677.13 291.227 1673.38 299.444 1671.12 z" fill="rgb(135,189,179)" transform="translate(0,0)"></path>
<path d="M 1261.48 22.0966 C 1277.66 18.1041 1298.65 18.1436 1314.15 24.4582 C 1353.71 36.0674 1386.21 58.7557 1406.05 95.543 C 1422.98 126.341 1426.63 162.709 1416.15 196.255 C 1405 232.467 1379.89 262.75 1346.37 280.42 C 1345.58 280.826 1344.78 281.231 1343.99 281.637 C 1347.73 283.562 1362.13 284.183 1366.96 284.622 C 1411.21 288.645 1441.6 332.963 1425.84 375.453 C 1415.41 403.578 1389.49 428.35 1363.13 441.866 C 1359.41 443.679 1349.85 447.119 1347.94 448.163 C 1352.48 461.685 1358.64 469.45 1363.31 480.953 C 1393.46 480.676 1425.62 476.858 1455.4 472.111 C 1475.3 468.699 1494.92 462.373 1514.97 459.945 C 1618.25 447.443 1712.13 543.382 1711.82 644.495 C 1711.66 695.905 1689.28 743.736 1654.32 781.082 C 1653.63 781.683 1652.95 782.283 1652.26 782.884 C 1627.19 812.591 1571.05 842.853 1531.34 840.333 C 1527.12 841.161 1523.24 840.743 1518.65 840.811 C 1470.92 841.526 1410.18 797.478 1438.24 745.253 C 1441.68 738.866 1447.77 733.493 1453.46 728.46 C 1449.07 735.764 1445.12 746.238 1451.68 753.384 C 1472.52 776.085 1517.68 745.705 1517.32 720.311 C 1516.67 674.197 1461.4 671.448 1433.61 698.628 C 1406.11 725.516 1389.25 761.4 1386.84 800.196 L 1385.9 804.809 L 1385.27 804.911 C 1382.76 795.707 1377.98 784.937 1374.52 775.626 C 1348.9 706.79 1314.45 630.688 1244.12 597.795 C 1235.77 593.891 1227.2 590.863 1218.26 589.529 C 1236.48 605.967 1258.99 633.471 1236.45 656.385 C 1212.38 680.862 1159.08 685.449 1158.02 728.177 C 1157.27 758.51 1181.06 770.68 1206.59 776.061 C 1187.02 811.554 1147.73 818.308 1113.69 799.394 C 1093.17 788.11 1078.04 769.061 1071.69 746.519 C 1062.98 715.478 1071.41 683.044 1087.03 655.708 C 1099.2 634.408 1115.14 619.529 1131.72 602.183 C 1094.34 616.407 1073.35 643.49 1053.78 678.057 C 1043.25 696.666 1032.72 723.716 1009.41 730.261 C 970.194 738.76 964.158 697.444 965.189 671.152 C 983.418 645.829 987.693 610.69 984.988 580.375 C 981.656 577.014 981.888 571.002 981.786 566.515 C 979.738 565.787 960.446 564.176 957.503 563.971 C 951.304 562.264 927.043 555.091 922.51 556.001 C 916.696 553.034 899.085 546.653 892.193 543.984 C 886.775 540.153 874.263 533.662 867.925 529.795 C 847.279 517.197 832.096 503.097 818.061 483.478 C 807.326 473.274 802.703 471.218 803.01 455.726 C 791.542 417.22 794.685 401.532 794.768 362.053 L 786.901 361.891 C 768.099 359.135 759.593 353.453 745.026 341.541 C 741.953 338.374 738.326 333.829 735.405 330.383 C 709.814 318.396 678.335 277.77 677.182 248.831 C 674.315 176.908 737.164 141.966 799.633 136.786 C 799.107 105.052 811.579 81.5136 835.052 60.3786 C 860.732 37.6611 894.312 25.9472 928.551 27.7631 C 962.343 29.8783 1006.76 46.6905 1029.3 72.389 C 1081.14 39.2486 1136.43 62.1468 1189.14 83.4696 C 1222.14 96.8232 1275.57 111.786 1279.23 55.4122 C 1280.09 42.2823 1270.63 30.8721 1261.48 22.0966 z" fill="rgb(135,189,179)" transform="translate(0,0)"></path>
<path d="M 1297.07 295.765 C 1315.7 293.182 1326.5 289.291 1343.99 281.637 C 1347.73 283.562 1362.13 284.183 1366.96 284.622 C 1411.21 288.645 1441.6 332.963 1425.84 375.453 C 1415.41 403.578 1389.49 428.35 1363.13 441.866 C 1359.41 443.679 1349.85 447.119 1347.94 448.163 C 1352.48 461.685 1358.64 469.45 1363.31 480.953 C 1393.46 480.676 1425.62 476.858 1455.4 472.111 C 1475.3 468.699 1494.92 462.373 1514.97 459.945 C 1618.25 447.443 1712.13 543.382 1711.82 644.495 C 1711.66 695.905 1689.28 743.736 1654.32 781.082 C 1653.63 781.683 1652.95 782.283 1652.26 782.884 C 1627.19 812.591 1571.05 842.853 1531.34 840.333 C 1527.12 841.161 1523.24 840.743 1518.65 840.811 C 1470.92 841.526 1410.18 797.478 1438.24 745.253 C 1441.68 738.866 1447.77 733.493 1453.46 728.46 C 1449.07 735.764 1445.12 746.238 1451.68 753.384 C 1472.52 776.085 1517.68 745.705 1517.32 720.311 C 1516.67 674.197 1461.4 671.448 1433.61 698.628 C 1406.11 725.516 1389.25 761.4 1386.84 800.196 L 1385.9 804.809 L 1385.27 804.911 C 1382.76 795.707 1377.98 784.937 1374.52 775.626 C 1348.9 706.79 1314.45 630.688 1244.12 597.795 C 1235.77 593.891 1227.2 590.863 1218.26 589.529 C 1213.84 585.31 1207.47 573.383 1205.27 567.445 C 1192.59 533.225 1195.21 506.494 1209.27 473.86 C 1207.87 463.084 1204.52 452.316 1202.88 439.595 C 1178.59 461.362 1129.67 463.47 1101.56 447.632 C 1073.29 431.698 1100.62 406.934 1123.74 402.928 C 1151.63 398.093 1176.76 398.434 1201.9 413.753 C 1202 362.991 1210.03 335.704 1237.13 294.003 C 1242.68 294.791 1251.71 295.786 1256.92 296.903 C 1270.61 297.358 1283.42 297.754 1297.07 295.765 z" fill="rgb(5,113,180)" transform="translate(0,0)"></path>
<path d="M 1297.07 295.765 C 1315.7 293.182 1326.5 289.291 1343.99 281.637 C 1347.73 283.562 1362.13 284.183 1366.96 284.622 C 1411.21 288.645 1441.6 332.963 1425.84 375.453 C 1415.41 403.578 1389.49 428.35 1363.13 441.866 C 1359.41 443.679 1349.85 447.119 1347.94 448.163 C 1352.48 461.685 1358.64 469.45 1363.31 480.953 C 1393.46 480.676 1425.62 476.858 1455.4 472.111 C 1475.3 468.699 1494.92 462.373 1514.97 459.945 C 1618.25 447.443 1712.13 543.382 1711.82 644.495 C 1711.66 695.905 1689.28 743.736 1654.32 781.082 C 1653.63 781.683 1652.95 782.283 1652.26 782.884 C 1653.45 777.493 1658.79 764.338 1660.91 758.193 C 1668.77 736.114 1670.41 712.299 1665.65 689.352 C 1649.38 609.695 1561.08 558.226 1484.54 554.14 C 1477.49 553.763 1467.76 552.211 1461.05 553.565 C 1455.36 550.424 1431.86 548.011 1423.91 546.001 C 1386.23 535.908 1338.57 524.614 1308.12 499.412 C 1248 449.66 1249.76 352.904 1297.07 295.765 z" fill="rgb(135,189,179)" transform="translate(0,0)"></path>
<path d="M 1281.14 435.327 C 1301.84 445.441 1324.71 452.104 1347.94 448.163 C 1352.48 461.685 1358.64 469.45 1363.31 480.953 C 1328.76 480.687 1299.5 464.52 1281.14 435.327 z" fill="rgb(24,22,66)" transform="translate(0,0)"></path>
<path d="M 1513.47 494.418 C 1564.56 491.533 1616.49 518.605 1646.55 559.004 C 1658.93 575.637 1653.3 587.686 1632.7 587.247 C 1625.92 587.102 1619.29 575.482 1615.92 570.656 C 1608.17 562.262 1601.5 555.65 1592.16 548.911 C 1566.79 530.624 1535.49 522.481 1504.43 526.08 C 1494.54 527.133 1474.9 534.069 1469.01 526.456 C 1446.2 496.953 1503.4 495.152 1513.47 494.418 z" fill="rgb(226,226,226)" transform="translate(0,0)"></path>
<path d="M 1356.56 335.221 C 1363.31 334.598 1371.7 331.972 1369.9 341.985 C 1369.34 345.112 1353.66 345.906 1349.51 347.049 C 1344.04 348.519 1338.78 350.677 1333.85 353.471 C 1322.65 359.788 1312.47 370.312 1309.15 383.018 C 1308.49 385.567 1307.91 388.138 1307.42 390.726 C 1305.95 399.049 1299.2 395.111 1299.17 391.485 C 1298.82 356.913 1333.1 339.555 1356.56 335.221 z" fill="rgb(24,22,66)" transform="translate(0,0)"></path>
<path d="M 1209.27 473.86 L 1209.65 474.622 C 1214.98 485.482 1218.45 497.448 1224.23 508.8 C 1244.7 549.078 1277.1 578.83 1320.04 593.542 C 1355.49 605.496 1393.63 604.975 1430.58 605.16 C 1439.9 605.207 1456.45 603.519 1465.2 604.955 C 1538.02 616.905 1615.54 687.878 1586.36 767.21 C 1578.33 789.036 1568.41 809.487 1549.99 824.344 C 1545.26 828.245 1534.56 836.291 1531.34 840.333 C 1527.12 841.161 1523.24 840.743 1518.65 840.811 C 1470.92 841.526 1410.18 797.478 1438.24 745.253 C 1441.68 738.866 1447.77 733.493 1453.46 728.46 C 1449.07 735.764 1445.12 746.238 1451.68 753.384 C 1472.52 776.085 1517.68 745.705 1517.32 720.311 C 1516.67 674.197 1461.4 671.448 1433.61 698.628 C 1406.11 725.516 1389.25 761.4 1386.84 800.196 L 1385.9 804.809 L 1385.27 804.911 C 1382.76 795.707 1377.98 784.937 1374.52 775.626 C 1348.9 706.79 1314.45 630.688 1244.12 597.795 C 1235.77 593.891 1227.2 590.863 1218.26 589.529 C 1213.84 585.31 1207.47 573.383 1205.27 567.445 C 1192.59 533.225 1195.21 506.494 1209.27 473.86 z" fill="rgb(24,22,66)" transform="translate(0,0)"></path>
<path d="M 1256.92 296.903 C 1270.61 297.358 1283.42 297.754 1297.07 295.765 C 1249.76 352.904 1248 449.66 1308.12 499.412 C 1338.57 524.614 1386.23 535.908 1423.91 546.001 C 1431.86 548.011 1455.36 550.424 1461.05 553.565 C 1408.08 566.812 1353.96 561.959 1305.93 535.431 C 1222.24 489.205 1213.35 372.967 1256.92 296.903 z" fill="rgb(226,226,226)" transform="translate(0,0)"></path>
<path d="M 1261.48 22.0966 C 1277.66 18.1041 1298.65 18.1436 1314.15 24.4582 C 1353.71 36.0674 1386.21 58.7557 1406.05 95.543 C 1422.98 126.341 1426.63 162.709 1416.15 196.255 C 1405 232.467 1379.89 262.75 1346.37 280.42 C 1345.58 280.826 1344.78 281.231 1343.99 281.637 C 1326.5 289.291 1315.7 293.182 1297.07 295.765 C 1283.42 297.754 1270.61 297.358 1256.92 296.903 C 1251.71 295.786 1242.68 294.791 1237.13 294.003 C 1210.2 289.141 1184.23 279.958 1160.22 266.81 C 1156.75 268.483 1153.24 270.085 1149.7 271.615 C 1111.45 287.749 1072.98 281.311 1040.45 256.008 C 1021.49 241.264 1011.93 223.018 1003.25 201.193 C 989.294 217.767 987.309 232.364 995.288 252.283 L 995.578 253.028 C 977.11 259.844 956.966 261.855 937.611 257.565 C 918.39 254.648 898.56 244.714 884.166 231.737 C 843.201 251.15 821.027 277.523 825.533 324.204 C 828.353 333.125 830.093 339.703 834.986 347.743 C 821.567 356.415 811.277 362.15 794.768 362.053 L 786.901 361.891 C 768.099 359.135 759.593 353.453 745.026 341.541 C 741.953 338.374 738.326 333.829 735.405 330.383 C 709.814 318.396 678.335 277.77 677.182 248.831 C 674.315 176.908 737.164 141.966 799.633 136.786 C 799.107 105.052 811.579 81.5136 835.052 60.3786 C 860.732 37.6611 894.312 25.9472 928.551 27.7631 C 962.343 29.8783 1006.76 46.6905 1029.3 72.389 C 1081.14 39.2486 1136.43 62.1468 1189.14 83.4696 C 1222.14 96.8232 1275.57 111.786 1279.23 55.4122 C 1280.09 42.2823 1270.63 30.8721 1261.48 22.0966 z" fill="rgb(135,189,179)" transform="translate(0,0)"></path>
<path d="M 1190.25 149.267 C 1231.25 159.046 1273.58 163.672 1308.3 134.403 C 1343.26 104.93 1342.73 59.5285 1313.84 26.1688 L 1314.15 24.4582 C 1353.71 36.0674 1386.21 58.7557 1406.05 95.543 C 1422.98 126.341 1426.63 162.709 1416.15 196.255 C 1405 232.467 1379.89 262.75 1346.37 280.42 C 1345.58 280.826 1344.78 281.231 1343.99 281.637 C 1326.5 289.291 1315.7 293.182 1297.07 295.765 C 1283.42 297.754 1270.61 297.358 1256.92 296.903 C 1251.71 295.786 1242.68 294.791 1237.13 294.003 C 1210.2 289.141 1184.23 279.958 1160.22 266.81 C 1134.19 249.336 1106.34 228.507 1109.88 192.954 C 1111.15 179.96 1117.67 168.049 1127.94 159.985 C 1147.68 144.193 1167.34 146.719 1190.25 149.267 z" fill="rgb(24,22,66)" transform="translate(0,0)"></path>
<path d="M 1369.1 122.1 C 1388.85 121.691 1389.24 138.072 1387.2 153.313 C 1381.81 193.538 1352.4 227.504 1313.71 239.217 C 1271.41 252.026 1234.15 241.455 1196.74 221.061 C 1187.01 216.245 1175.37 207.791 1179.44 196.399 C 1186.47 176.744 1210.95 194.099 1218.52 198.081 C 1225.26 201.603 1232.24 204.62 1239.42 207.109 C 1284.64 222.895 1342.2 210.11 1354.59 155.814 C 1358.13 140.31 1351.89 129.749 1369.1 122.1 z" fill="rgb(226,226,226)" transform="translate(0,0)"></path>
<path d="M 867.633 213.955 L 866.316 210.718 C 831.356 123.712 935.234 71.3335 1009.19 103.558 C 1000.07 132.991 999.95 133.474 997.718 164.866 C 998.053 171.151 999.095 175.548 999.886 181.646 C 1000.31 192.094 1002.66 193.958 1003.25 201.193 C 989.294 217.767 987.309 232.364 995.288 252.283 L 995.578 253.028 C 977.11 259.844 956.966 261.855 937.611 257.565 C 918.39 254.648 898.56 244.714 884.166 231.737 C 843.201 251.15 821.027 277.523 825.533 324.204 C 828.353 333.125 830.093 339.703 834.986 347.743 C 821.567 356.415 811.277 362.15 794.768 362.053 L 786.901 361.891 C 768.099 359.135 759.593 353.453 745.026 341.541 C 741.953 338.374 738.326 333.829 735.405 330.383 C 725.173 309.016 722.812 298.775 721.674 275.093 C 729.262 217.425 764.306 195.606 819.913 192.862 C 825.019 193.173 830.436 192.91 835.575 192.788 C 844.751 199.669 857.725 207.585 867.633 213.955 z" fill="rgb(5,113,180)" transform="translate(0,0)"></path>
<path d="M 825.533 324.204 C 813.549 328.326 791.523 321.391 784.306 312.778 C 746.361 267.493 795.477 211.25 846.349 214.43 C 867.019 215.723 870.942 218.194 884.166 231.737 C 843.201 251.15 821.027 277.523 825.533 324.204 z" fill="rgb(24,22,66)" transform="translate(0,0)"></path>
<path d="M 937.611 257.565 C 930.184 248.383 926.271 238.779 924.581 227.061 C 918.719 186.409 957.523 158.024 995.401 162.464 C 996.634 162.608 997.333 163.891 997.718 164.866 C 998.053 171.151 999.095 175.548 999.886 181.646 C 1000.31 192.094 1002.66 193.958 1003.25 201.193 C 989.294 217.767 987.309 232.364 995.288 252.283 L 995.578 253.028 C 977.11 259.844 956.966 261.855 937.611 257.565 z" fill="rgb(24,22,66)" transform="translate(0,0)"></path>
<path d="M 1093.24 251.196 C 1041.68 211.041 1018.48 135.307 1106.75 123.271 C 1134.49 119.489 1168.77 131.113 1190.25 149.267 C 1167.34 146.719 1147.68 144.193 1127.94 159.985 C 1117.67 168.049 1111.15 179.96 1109.88 192.954 C 1106.34 228.507 1134.19 249.336 1160.22 266.81 C 1156.75 268.483 1153.24 270.085 1149.7 271.615 C 1111.45 287.749 1072.98 281.311 1040.45 256.008 C 1021.49 241.264 1011.93 223.018 1003.25 201.193 C 1002.66 193.958 1000.31 192.094 999.886 181.646 C 1016.89 224.493 1046.16 248.462 1093.24 251.196 z" fill="rgb(5,113,180)" transform="translate(0,0)"></path>
<path d="M 721.674 275.093 C 719.172 273.283 716.939 271.126 715.042 268.689 C 707.647 259.175 706.033 248.49 707.397 236.762 C 713.333 185.685 766.099 164.39 812.376 170.287 C 819.673 179.568 823.912 184.199 832.744 191.944 C 827.886 192.038 824.741 192.283 819.913 192.862 C 764.306 195.606 729.262 217.425 721.674 275.093 z" fill="rgb(226,226,226)" transform="translate(0,0)"></path>
<path d="M 921.752 48.4007 C 933.618 47.0927 944.56 50.5256 944.587 64.8463 C 944.615 79.6641 921.464 79.5017 911.118 82.4139 C 893.465 87.3831 874.482 98.0726 865.482 114.741 C 859.808 125.275 860.454 134.414 851.318 143.386 C 840.987 147.572 831.462 145.037 830.067 132.795 C 828.296 117.248 837.087 99.9787 846.625 88.1478 C 865.205 65.1028 892.605 51.7118 921.752 48.4007 z" fill="rgb(226,226,226)" transform="translate(0,0)"></path>
<path d="M 981.786 566.515 C 1036.41 571.143 1072.23 559.995 1118.66 533.775 C 1115.89 555.266 1117.16 572.165 1126 592.453 C 1068.9 618.438 1038.33 612.616 984.988 580.375 C 981.656 577.014 981.888 571.002 981.786 566.515 z" fill="rgb(24,22,66)" transform="translate(0,0)"></path>
<path d="M 803.01 455.726 C 819.188 432.794 843.895 432.247 870.037 432.45 C 887.382 432.585 931.277 446.014 913.272 470.256 C 894.171 495.973 846.527 490.762 818.061 483.478 C 807.326 473.274 802.703 471.218 803.01 455.726 z" fill="rgb(5,113,180)" transform="translate(0,0)"></path>
<path d="M 1134.07 614.984 C 1141.56 614.227 1149.41 615.988 1153.06 623.144 C 1159.77 637.227 1138.85 652.911 1131.49 664.902 C 1101.27 714.107 1108.6 776.245 1171.38 793.096 C 1167.26 794.661 1164.25 795.039 1159.98 795.794 C 1134 796.466 1114.3 787.665 1098.01 766.954 C 1064.3 724.102 1095.03 643.446 1134.07 614.984 z" fill="rgb(226,226,226)" transform="translate(0,0)"></path>
<path d="M 1100.2 333.153 C 1126.74 331.256 1140.8 338.587 1154.92 361.023 C 1159.3 358.253 1164.58 354.296 1169.52 353.596 C 1172.97 354.772 1171.64 353.74 1173.62 356.836 C 1173.53 363.124 1164.15 362.046 1158.81 365.649 C 1154.62 368.475 1159.81 374.511 1155.71 379.663 C 1150.61 379.209 1142.06 358.266 1134.68 351.921 C 1113.54 336.746 1085.09 340.638 1073.5 365.92 C 1071.02 371.33 1069.71 379.659 1062.83 379.688 C 1053.99 369.431 1070.57 349.29 1078.38 342.861 C 1085.11 337.323 1092.02 335.163 1100.2 333.153 z" fill="rgb(24,22,66)" transform="translate(0,0)"></path>
<path d="M 896.01 357.255 C 917.953 355.331 932.521 363.218 946.298 380.138 C 950.751 385.608 954.849 392.272 949.629 398.71 C 944.134 399.013 938.334 386.431 932.923 380.498 C 929.289 376.487 924.947 373.179 920.115 370.741 C 909.065 365.292 898.103 365.964 886.823 370.152 L 885.562 370.632 C 871.105 379.7 867.212 392.513 860.948 407.348 L 858.12 407.708 C 854.711 404.776 855.372 403.776 854.8 398.572 C 849.724 393.7 840.34 396.388 836.932 389.471 L 837.906 387.456 C 843.862 385.33 850.717 388.712 856.487 390.924 C 864.776 371.661 875.666 362.193 896.01 357.255 z" fill="rgb(24,22,66)" transform="translate(0,0)"></path>
<path d="M 1027.7 416.378 C 1032.27 418.092 1035.46 418.847 1034.04 424.513 C 1028.97 444.661 1012.07 455.896 991.576 451.633 C 979.839 449.193 974.781 443.959 968.548 434.374 C 966.426 429.614 963.806 426.429 970.003 423.219 C 972.137 422.276 974.547 426.868 975.089 428.066 C 981.322 441.845 994.716 447.158 1009 442.077 C 1022.33 437.336 1022.74 427.25 1027.7 416.378 z" fill="rgb(24,22,66)" transform="translate(0,0)"></path>
<path d="M 1218.26 589.529 C 1227.2 590.863 1235.77 593.891 1244.12 597.795 C 1314.45 630.688 1348.9 706.79 1374.52 775.626 C 1377.98 784.937 1382.76 795.707 1385.27 804.911 L 1385.9 804.809 L 1386.84 800.196 C 1386.86 803.928 1386.42 808.164 1388.21 811.242 C 1400.36 817.016 1414.65 821.844 1425.89 829.051 C 1473.22 859.407 1498.32 922.778 1473.54 975.462 C 1468.97 984.973 1463.08 993.786 1456.03 1001.64 C 1431.61 1025.1 1406.56 1029.57 1374.78 1020.48 C 1375.01 1015.27 1377.09 999.711 1371.27 997.77 C 1370.45 998.412 1369.62 999.054 1368.79 999.696 C 1367.12 1007.82 1367.13 1015.58 1364.73 1023.61 C 1355.55 1054.27 1317.99 1062.26 1290.45 1054.87 C 1272.94 1050.17 1271.91 1042.03 1264.31 1027.7 C 1262.98 1025.19 1262.02 1024.48 1259.45 1023.95 L 1257.64 1025.84 C 1256.99 1033.15 1262.23 1042.16 1265.53 1048.69 C 1238.39 1068.25 1203.6 1068.79 1178.02 1046.47 C 1157.78 1028.8 1142.38 1009.68 1140.52 981.845 C 1137.8 940.987 1155.85 897.662 1187.29 871.318 C 1199.27 862.072 1212.7 857.698 1222.32 845.43 C 1232.58 832.357 1238.76 818.558 1242.84 802.463 C 1246.71 787.177 1245.57 774.165 1244 758.699 C 1239.55 802.362 1227.57 830.635 1184.15 848.309 C 1161.04 857.901 1135.01 857.653 1112.09 847.623 C 1086.78 836.681 1072.16 821.454 1062.09 796.304 L 1058.94 797.845 C 1069.56 845.255 1097.71 873.708 1144.17 885.99 C 1137.67 893.29 1130.31 899.775 1122.25 905.303 C 1088.13 929.149 1054.35 932.959 1013.82 926.154 C 954.987 916.485 907.443 867.06 904.415 806.927 C 902.678 772.429 913.066 747.692 925.606 716.808 C 925.68 716.256 925.755 715.705 925.829 715.153 C 939.711 701.165 950.578 688.678 962.403 672.851 C 963.304 671.645 963.832 671.518 965.189 671.152 C 964.158 697.444 970.194 738.76 1009.41 730.261 C 1032.72 723.716 1043.25 696.666 1053.78 678.057 C 1073.35 643.49 1094.34 616.407 1131.72 602.183 C 1115.14 619.529 1099.2 634.408 1087.03 655.708 C 1071.41 683.044 1062.98 715.478 1071.69 746.519 C 1078.04 769.061 1093.17 788.11 1113.69 799.394 C 1147.73 818.308 1187.02 811.554 1206.59 776.061 C 1181.06 770.68 1157.27 758.51 1158.02 728.177 C 1159.08 685.449 1212.38 680.862 1236.45 656.385 C 1258.99 633.471 1236.48 605.967 1218.26 589.529 z" fill="rgb(5,113,180)" transform="translate(0,0)"></path>
<path d="M 1057.56 783.435 L 1058.37 785.211 C 1060.13 788.988 1060.78 792.358 1062.09 796.304 L 1058.94 797.845 C 1058.16 791.87 1057.94 789.551 1057.56 783.435 z" fill="rgb(20,35,81)" transform="translate(0,0)"></path>
<path d="M 787.996 481.623 C 813.87 510.147 878.109 533.65 842.169 584.368 C 834.14 594.878 820.833 604.452 809.254 610.195 C 758.011 635.612 689.643 642.443 655.828 694.744 C 613.605 760.05 663.229 800.677 719.894 824.793 C 706.484 824.937 693.32 826.741 679.586 826.504 C 593.745 825.026 484.342 793.943 473.592 693.99 C 469.892 659.781 480.232 625.534 502.247 599.09 C 531.247 563.574 578.763 545.293 623.551 542.716 C 677.446 539.615 741.997 546.911 779.79 500.013 C 784.012 494.581 785.911 488.063 787.996 481.623 z" fill="rgb(5,113,180)" transform="translate(0,0)"></path>
<path d="M 633.736 587.362 C 649.897 585.346 666.473 613.536 627.11 619.774 C 583.389 626.703 545.243 664.706 558.917 711.851 C 562.012 722.523 560.5 732.063 548.79 736.049 C 531.672 736.884 528.044 725.064 525.58 709.79 C 521.536 684.717 527.357 655.563 542.883 635.136 C 565.451 605.443 597.793 592.768 633.736 587.362 z" fill="rgb(226,226,226)" transform="translate(0,0)"></path>
<path d="M 642.188 960.812 C 663.248 949.098 682.848 937.282 704.999 927.68 C 769.988 899.509 833.698 895.926 901.364 915.606 C 927.221 923.127 950.179 932.134 973.265 946.176 C 910.398 959.698 856.397 990.738 820.374 1045.45 C 786.438 1097 782.813 1153.66 789.642 1213.37 C 770.313 1216.12 748.348 1211.02 732.551 1199.29 C 704.342 1178.35 695.715 1145 690.66 1111.78 C 661.969 1123.15 592.02 1148.43 573.632 1105.01 C 565.077 1084.81 573.887 1061.11 581.971 1041.81 C 571.295 1039.49 561.945 1036.24 551.636 1032.8 C 558.062 1025.97 568.003 1017.3 575.059 1010.34 C 596.007 996.477 617.544 974.477 642.188 960.812 z" fill="rgb(5,113,180)" transform="translate(0,0)"></path>
<path d="M 877.88 1507.47 C 879.795 1440.35 852.261 1361.89 832.052 1298.9 C 809.816 1229.58 926.116 1237.44 953.561 1267.11 C 977.784 1293.29 983.509 1301.6 1014.67 1320.71 C 1015.19 1324.79 1015.75 1328.28 1016.51 1332.32 C 1017.04 1336.51 1017.66 1346.42 1019.19 1349.07 C 1018.99 1353.04 1019.67 1359.2 1020.06 1363.3 C 1026.38 1429.79 1017.47 1494.86 978.118 1551.17 C 949.633 1532.88 910.969 1513.66 877.88 1507.47 z" fill="rgb(135,189,179)" transform="translate(0,0)"></path>
<path d="M 1548.22 1026.87 C 1526.65 974.81 1549.44 926.137 1600.16 903.677 C 1604.76 906.206 1616.24 905.193 1622.3 906.183 C 1666.43 913.388 1689.05 925.779 1714.2 962.389 C 1720.27 978.54 1725.71 994.808 1724.89 1012.35 C 1720.94 1096.64 1637.82 1178.07 1552.95 1176.72 C 1551.06 1178.2 1546.15 1183.34 1544.21 1185.27 C 1533.88 1170.69 1527.32 1165.06 1513.07 1154.2 C 1550.73 1119.55 1542.74 1087.2 1526.32 1042.95 C 1533.42 1046.75 1548.1 1057.84 1551.03 1065.26 C 1553 1065.89 1555 1066.42 1557.02 1066.83 C 1579.48 1071.24 1609.64 1069.89 1628.93 1056.67 C 1685.05 1018.23 1604.91 957.39 1564.7 988.902 C 1552.29 998.629 1549.57 1012.12 1548.22 1026.87 z" fill="rgb(135,189,179)" transform="translate(0,0)"></path>
<path d="M 1526.32 1042.95 C 1533.42 1046.75 1548.1 1057.84 1551.03 1065.26 C 1551.99 1069.79 1559.34 1078.53 1562.18 1082.88 C 1586.01 1119.4 1580.32 1145.81 1552.95 1176.72 C 1551.06 1178.2 1546.15 1183.34 1544.21 1185.27 C 1533.88 1170.69 1527.32 1165.06 1513.07 1154.2 C 1550.73 1119.55 1542.74 1087.2 1526.32 1042.95 z" fill="rgb(226,226,226)" transform="translate(0,0)"></path>
<path d="M 1600.16 903.677 C 1632.64 890.263 1660.01 886.085 1695.32 890.427 C 1760.68 898.467 1823.3 941.589 1848.66 1003.33 C 1866.81 1047.51 1866.39 1097.13 1847.49 1141 C 1822.63 1199.44 1769.36 1246.35 1710.67 1268.9 C 1679.52 1280.87 1659.09 1284.35 1626.63 1289.48 C 1620.43 1290.6 1606.53 1293.28 1600.37 1292.35 C 1606.56 1288.07 1616.91 1283.72 1623.9 1280.02 C 1704.34 1237.38 1790.89 1172.07 1789.08 1070.37 C 1787.28 1062.26 1786.11 1052.04 1784.26 1043.1 C 1781.62 1038.87 1775.65 1024.61 1772.81 1018.85 C 1761.36 995.627 1738.56 971.991 1714.2 962.389 C 1689.05 925.779 1666.43 913.388 1622.3 906.183 C 1616.24 905.193 1604.76 906.206 1600.16 903.677 z" fill="rgb(5,113,180)" transform="translate(0,0)"></path>
<path d="M 1784.26 1043.1 L 1784.06 1041.76 C 1780.27 1017.86 1765.73 1000.45 1753.75 980.42 C 1751.08 975.215 1748.52 968.17 1752.63 962.907 C 1767.32 944.249 1781.22 966.013 1789.74 977.828 C 1806.85 1001.53 1815.79 1026.35 1818.67 1055.32 C 1820.69 1075.59 1802.7 1087.22 1789.08 1070.37 C 1787.28 1062.26 1786.11 1052.04 1784.26 1043.1 z" fill="rgb(226,226,226)" transform="translate(0,0)"></path>
<path d="M 440.886 818.31 L 446.224 820.41 C 489.063 842.015 504.803 880.394 473.066 921.043 C 472.593 897.686 463.731 880.862 437.744 882.222 C 426.218 882.802 415.465 888.19 408.101 897.076 C 397.965 909.127 394.728 925.13 396.402 940.481 C 399.023 963.357 410.699 984.229 428.822 998.433 C 463.384 1025.98 518.065 1022.98 558.548 1014.28 C 563.884 1013.13 569.842 1011.2 575.059 1010.34 C 568.003 1017.3 558.062 1025.97 551.636 1032.8 C 541.046 1039.9 526.608 1066.4 522.83 1078.77 C 521.619 1082.73 519.154 1091.84 518.005 1094.64 C 469.308 1092.84 426.833 1086.97 387.462 1054.83 C 357.667 1030.86 338.95 995.771 335.649 957.677 C 329.854 895.404 367.852 826.944 434.667 820.989 C 437.64 820.002 438.218 819.862 440.886 818.31 z" fill="rgb(135,189,179)" transform="translate(0,0)"></path>
<path d="M 440.886 818.31 L 446.224 820.41 C 441.568 821.15 439.379 820.97 434.667 820.989 C 437.64 820.002 438.218 819.862 440.886 818.31 z" fill="rgb(20,35,81)" transform="translate(0,0)"></path>
<path d="M 551.636 1032.8 C 561.945 1036.24 571.295 1039.49 581.971 1041.81 C 573.887 1061.11 565.077 1084.81 573.632 1105.01 C 592.02 1148.43 661.969 1123.15 690.66 1111.78 C 695.715 1145 704.342 1178.35 732.551 1199.29 C 748.348 1211.02 770.313 1216.12 789.642 1213.37 C 794.072 1238.75 792.895 1249.28 800.494 1277.51 C 789.125 1280.57 777.315 1281.65 765.58 1280.71 C 715.897 1276.95 667.131 1243.77 659.362 1192.07 C 657.936 1182.58 658.46 1175.41 659.175 1165.81 C 633.22 1182.34 610.638 1192.52 578.592 1185.71 C 558.214 1181.18 540.476 1168.73 529.297 1151.1 C 519.426 1135.57 513.902 1112.69 518.005 1094.64 C 519.154 1091.84 521.619 1082.73 522.83 1078.77 C 526.608 1066.4 541.046 1039.9 551.636 1032.8 z" fill="rgb(226,226,226)" transform="translate(0,0)"></path>
<path d="M 922.51 556.001 C 927.043 555.091 951.304 562.264 957.503 563.971 C 960.446 564.176 979.738 565.787 981.786 566.515 C 981.888 571.002 981.656 577.014 984.988 580.375 C 987.693 610.69 983.418 645.829 965.189 671.152 C 963.832 671.518 963.304 671.645 962.403 672.851 C 950.578 688.678 939.711 701.165 925.829 715.153 C 898.761 737.898 858.368 761.561 855.238 799.596 C 854.224 812.154 858.534 824.561 867.116 833.786 C 876.103 843.576 886.08 847.374 897.622 853.172 C 883.416 860.454 874.352 863.188 858.535 866.286 C 857.833 859.635 858.562 858.441 852.983 854.758 C 800.067 830.109 787.317 784.485 817.364 733.807 C 844.935 687.304 907.095 678.163 928.037 625.199 C 938.531 598.659 933.022 581.107 922.51 556.001 z" fill="rgb(226,226,226)" transform="translate(0,0)"></path>
<path d="M 957.503 563.971 C 960.446 564.176 979.738 565.787 981.786 566.515 C 981.888 571.002 981.656 577.014 984.988 580.375 C 987.693 610.69 983.418 645.829 965.189 671.152 C 963.832 671.518 963.304 671.645 962.403 672.851 C 950.578 688.678 939.711 701.165 925.829 715.153 C 898.761 737.898 858.368 761.561 855.238 799.596 C 854.224 812.154 858.534 824.561 867.116 833.786 C 876.103 843.576 886.08 847.374 897.622 853.172 C 883.416 860.454 874.352 863.188 858.535 866.286 C 857.833 859.635 858.562 858.441 852.983 854.758 C 853.921 851.237 843.439 833.525 841.658 828.797 C 813.498 754.061 861.166 731.102 913.593 693.622 C 951.935 666.212 977.657 611.27 957.503 563.971 z" fill="rgb(78,151,165)" transform="translate(0,0)"></path>
<path d="M 719.132 1322.19 C 766.987 1326.36 811.201 1349.45 841.97 1386.33 C 864.379 1412.67 861.052 1433.65 866.785 1465.63 C 872.046 1494.97 866.112 1514.05 863.496 1542.8 C 833.699 1525.34 819.548 1518.33 785.609 1509.16 C 785.698 1515.45 786.093 1524.47 785.79 1530.54 C 784.559 1523.7 784.886 1510.49 784.695 1503.02 C 784.292 1490.19 783.164 1477.41 781.315 1464.71 C 776.332 1432.46 762.635 1398.82 746.854 1370.26 C 738.464 1355.07 727.314 1338.5 719.676 1323.29 L 719.132 1322.19 z" fill="rgb(135,189,179)" transform="translate(0,0)"></path>
<path d="M 892.193 543.984 C 899.085 546.653 916.696 553.034 922.51 556.001 C 933.022 581.107 938.531 598.659 928.037 625.199 C 907.095 678.163 844.935 687.304 817.364 733.807 C 787.317 784.485 800.067 830.109 852.983 854.758 C 858.562 858.441 857.833 859.635 858.535 866.286 C 848.446 867.847 838.139 867.191 828.33 864.363 C 773.364 848.492 748.015 782.418 768.238 731.307 C 787.027 680.936 843.636 665.265 880.584 630.765 C 910.551 602.784 910.75 578.814 892.193 543.984 z" fill="rgb(5,113,180)" transform="translate(0,0)"></path>
<path d="M 745.026 341.541 C 759.593 353.453 768.099 359.135 786.901 361.891 L 786.994 404.884 C 780.607 400.858 775.382 397.718 768.192 395.313 C 761.503 393.076 734.449 384.612 735.26 397.887 C 744.949 404.067 767.407 397.442 787.896 419.441 C 789.999 435.684 791.448 465.835 787.996 481.623 C 785.911 488.063 784.012 494.581 779.79 500.013 C 778.16 498.838 778.752 499.046 777.153 498.543 C 761.202 493.577 746.045 486.352 732.144 477.087 C 710.837 462.859 691.526 442.828 686.667 416.792 C 683.455 400.113 687.207 382.845 697.051 369.002 C 709.028 351.917 725.183 345.146 745.026 341.541 z" fill="rgb(135,189,179)" transform="translate(0,0)"></path>
<path d="M 763.948 822.131 C 773.164 849.281 787.695 874.323 806.692 895.796 C 752.508 899.949 707.438 912.676 660.737 941.523 C 655.487 944.766 645.696 949.626 641.881 953.11 L 641.241 956.314 C 640.285 928.131 642.074 909.312 657.4 883.916 C 673.23 857.687 705.42 837.388 733.977 827.698 C 742.471 824.815 754.37 824.513 762.48 822.506 L 763.948 822.131 z" fill="rgb(5,113,180)" transform="translate(0,0)"></path>
<path d="M 1488.18 1018.04 C 1499.46 1024.39 1517.85 1033.82 1526.32 1042.95 C 1542.74 1087.2 1550.73 1119.55 1513.07 1154.2 C 1478.07 1131 1437.24 1117.74 1408.35 1089.73 C 1457.21 1083.97 1471.3 1059.71 1488.18 1018.04 z" fill="rgb(5,113,180)" transform="translate(0,0)"></path>
<path d="M 794.836 1185.04 C 790.871 1125.72 804.51 1072.49 844.091 1026.55 C 881.46 983.179 941.717 954.585 998.745 951.138 C 1058.69 947.515 1086.07 964.136 1134.28 994.711 C 1139.48 1010.96 1144.78 1023.68 1156.78 1036.27 C 1159.44 1039.07 1166.13 1046.22 1168.09 1049.14 C 1196.81 1091.76 1232.7 1114.19 1285.55 1110.92 C 1293.58 1145.47 1301.78 1165.59 1317.05 1197.11 C 1329.55 1219 1344.77 1239.71 1364.87 1255.29 C 1364.18 1257.73 1363.45 1260.17 1362.69 1262.59 C 1334.68 1350.16 1230.32 1347.46 1179.03 1282.6 C 1175.4 1278.01 1169.83 1265.11 1167.06 1259.48 C 1162.45 1275.57 1156.95 1289.26 1144.31 1301.12 C 1124 1320.18 1097.64 1327.34 1070.1 1326.78 C 1024.32 1325.84 981.225 1296.74 958.201 1258.08 C 950.752 1243.64 948.698 1229.62 936.852 1217.51 C 912.367 1192.47 865.215 1192.18 839.996 1216.39 C 824.302 1231.45 824.119 1244.53 823.857 1264.68 C 818.504 1268.26 812.656 1271.36 807.021 1274.5 C 801.803 1246.57 795.595 1213.47 794.836 1185.04 z" fill="rgb(5,113,180)" transform="translate(0,0)"></path>
<path d="M 794.836 1185.04 C 813.494 1158.97 834.33 1142.46 866.569 1137.53 C 898.396 1132.63 927.544 1139.52 954.048 1157.35 C 993.009 1183.56 995.353 1237.31 1043.17 1252.63 C 1100.54 1271 1135.43 1238.07 1161.39 1191.63 C 1175.02 1208.62 1188.41 1227.66 1207.27 1239.01 C 1257.74 1269.37 1302.63 1256.29 1317.05 1197.11 C 1329.55 1219 1344.77 1239.71 1364.87 1255.29 C 1364.18 1257.73 1363.45 1260.17 1362.69 1262.59 C 1334.68 1350.16 1230.32 1347.46 1179.03 1282.6 C 1175.4 1278.01 1169.83 1265.11 1167.06 1259.48 C 1162.45 1275.57 1156.95 1289.26 1144.31 1301.12 C 1124 1320.18 1097.64 1327.34 1070.1 1326.78 C 1024.32 1325.84 981.225 1296.74 958.201 1258.08 C 950.752 1243.64 948.698 1229.62 936.852 1217.51 C 912.367 1192.47 865.215 1192.18 839.996 1216.39 C 824.302 1231.45 824.119 1244.53 823.857 1264.68 C 818.504 1268.26 812.656 1271.36 807.021 1274.5 C 801.803 1246.57 795.595 1213.47 794.836 1185.04 z" fill="rgb(226,226,226)" transform="translate(0,0)"></path>
<path d="M 1377.47 1047.73 C 1378.96 1049.62 1382.83 1058.48 1383.94 1061.03 C 1390.76 1076.64 1397.28 1088.72 1409.81 1100.64 C 1445.9 1134.98 1500.06 1141.55 1531.37 1182.36 C 1524.79 1179.69 1518.52 1176.59 1512.2 1173.41 C 1506.66 1170.63 1499.76 1164.17 1493.46 1165.41 C 1490.98 1167.84 1491.66 1166.42 1491.27 1169.8 C 1500.61 1180.32 1549.27 1189.93 1537.74 1209.96 C 1524.36 1217.97 1481.59 1186.82 1471.19 1186.29 L 1469.75 1187.59 L 1470.1 1189.93 C 1478.98 1201.69 1517.13 1215.45 1531.57 1219.83 C 1522.21 1228.84 1517.19 1233.1 1506.17 1239.88 C 1474.79 1230.77 1471.59 1224.12 1446.81 1210.91 L 1445.8 1210.39 C 1444.93 1211.55 1442.83 1214.47 1443.82 1215.77 C 1453.58 1228.57 1480.56 1238.26 1494.66 1244.98 C 1462.05 1260.9 1430.78 1257.42 1400.44 1237.89 C 1397.44 1227.31 1382.07 1196.23 1368.74 1199.25 C 1366.89 1207.43 1403.71 1235.16 1390.84 1251.51 C 1381.34 1263.58 1368.33 1249.06 1361.32 1242.21 C 1319.18 1201.02 1292.04 1133.22 1291.17 1074.76 C 1325.04 1086.61 1357.79 1079.34 1377.47 1047.73 z" fill="rgb(135,189,179)" transform="translate(0,0)"></path>
<path d="M 269.016 964.949 C 294.216 963.234 289.139 979.093 290.139 997.351 C 291.246 1017.66 296.419 1037.54 305.353 1055.82 C 324.415 1093.86 354.434 1114.14 391.212 1132.27 C 395.571 1134.41 402.068 1138.67 404.676 1142.7 C 410.117 1151.1 403.609 1159.21 396.431 1163.53 C 383.444 1165.58 373.516 1157.88 362.712 1152.43 C 303.853 1122.71 262.262 1067.76 259.28 1000.76 C 258.664 986.898 255.321 973.55 269.016 964.949 z" fill="rgb(226,226,226)" transform="translate(0,0)"></path>
<path d="M 1729.33 1115.08 C 1738.65 1115 1743.91 1117.24 1747.3 1126.74 C 1749.03 1131.59 1746.6 1138.97 1744 1143.14 C 1722.17 1178.17 1684.67 1209.48 1644.85 1221.27 C 1633.49 1221.86 1623.15 1215.06 1626.82 1202.25 C 1629.95 1191.35 1647.26 1186.74 1656.36 1181.68 C 1667.46 1175.51 1679.36 1168.62 1688.93 1159.98 C 1692.49 1157.21 1696.43 1151.52 1699.76 1148.85 C 1710.71 1140.12 1717.09 1120.54 1729.33 1115.08 z" fill="rgb(226,226,226)" transform="translate(0,0)"></path>
<metadata><recraft-signature>{"signed_by": "recraft", "signature_b64": "q+ngyNvi4HWOtba83ghXvdJayEOS5OBkHyFkAGxl5RWuH8AujPp7AvY0l+VmmQhfT7yg8AS7Bn03ECzK8rBxBg==", "signing_algo": "Ed25519", "generation_timestamp": 1778553242, "identifier": "789d0ffd-7360-48f0-a116-ccc8b2b8a98f"}</recraft-signature></metadata></svg>