<svg xmlns="http://www.w3.org/2000/svg" width="1024" height="1024" viewBox="0 0 1024 1024" role="img" aria-label="Daily check-in calendar icon">
  <path d="M230 216h564c47 0 86 39 86 86v482c0 47-39 86-86 86H230c-47 0-86-39-86-86V302c0-47 39-86 86-86z" fill="#14532D" opacity=".18"/>
  <rect x="180" y="172" width="644" height="684" rx="96" fill="#F8FAFC" stroke="#38BDF8" stroke-width="30"/>
  <path d="M276 172h452c53 0 96 43 96 96v92H180v-92c0-53 43-96 96-96z" fill="#22C55E"/>
  <rect x="306" y="96" width="72" height="170" rx="36" fill="#FBBF24" stroke="#92400E" stroke-width="18"/>
  <rect x="626" y="96" width="72" height="170" rx="36" fill="#FBBF24" stroke="#92400E" stroke-width="18"/>
  <rect x="278" y="438" width="90" height="74" rx="24" fill="#BFDBFE"/>
  <rect x="466" y="438" width="90" height="74" rx="24" fill="#BFDBFE"/>
  <rect x="654" y="438" width="90" height="74" rx="24" fill="#BFDBFE"/>
  <rect x="278" y="592" width="90" height="74" rx="24" fill="#BFDBFE"/>
  <rect x="654" y="592" width="90" height="74" rx="24" fill="#BFDBFE"/>
  <path d="M414 622l92 88 188-218" fill="none" stroke="#16A34A" stroke-width="82" stroke-linecap="round" stroke-linejoin="round"/>
  <path d="M414 622l92 88 188-218" fill="none" stroke="#DCFCE7" stroke-width="34" stroke-linecap="round" stroke-linejoin="round"/>
  <path d="M838 160l25 57 62 9-45 44 11 62-53-29-55 29 11-62-45-44 62-9z" fill="#F59E0B"/>
  <path d="M176 668l18 40 44 7-32 31 8 44-38-21-39 21 8-44-32-31 44-7z" fill="#FBBF24"/>
</svg>
