<svg xmlns="http://www.w3.org/2000/svg" height="1024" preserveAspectRatio="none" style="display: block;" version="1.1" viewBox="0 0 2048 2048" width="1024">

<path d="M 958.201 280.412 C 1006.51 277.733 1064.41 297.67 1107.4 318.954 C 1116.86 323.642 1131.88 329.643 1140.23 335.508 C 1154.2 332.458 1170.26 330.383 1184.44 327.529 C 1264.65 311.185 1338.45 304.791 1416.46 334.488 C 1518.97 373.514 1579.23 445.419 1604.84 552.518 C 1649.21 592.739 1697.23 613.189 1728.18 670.242 C 1763.7 735.725 1752.4 793.66 1734.51 860.144 C 1781 933.063 1820.45 990.677 1817.97 1082.15 C 1815.62 1168.88 1769.9 1223.86 1710.82 1280.14 C 1739.94 1402.16 1706.12 1506.07 1595.2 1573.78 C 1574.99 1586.12 1553.5 1595.01 1531.63 1603.95 C 1520.14 1627.42 1502.45 1649.54 1483.63 1667.42 C 1431.15 1717.25 1368.03 1745.08 1295.2 1747.87 C 1268 1748.92 1243.61 1746.83 1216.45 1745.91 C 1174.32 1769.68 1145.16 1784.78 1099.28 1799.51 C 1091.5 1801.89 1083.65 1804.02 1075.74 1805.9 C 959.739 1832.73 867.18 1791.08 771.296 1731.33 C 730.3 1749.02 679.092 1749.99 637.536 1733.8 C 562.74 1704.65 522.241 1634.84 491.184 1565.95 C 475.686 1555.58 457.434 1545.64 441.471 1535.8 C 358.741 1484.8 300.909 1402.58 293.956 1304.06 C 290.261 1251.7 298.751 1207.36 312.855 1156.64 C 285.847 1118.98 263.816 1063.63 260.292 1017.6 C 254.945 947.745 280.362 887.935 324.858 835.543 C 272.446 647.616 382.448 555.272 537.326 486.693 C 562.663 404.565 621.71 340.039 708.958 325.674 C 750.471 318.838 789.53 317.803 830.573 328.626 C 873.247 303.448 906.833 283.768 958.201 280.412 z" fill="rgb(246,170,51)" transform="translate(0,0)"></path>
<path d="M 1278.59 324.418 C 1286.37 323.4 1303.2 323.505 1311.2 323.792 C 1360.19 325.163 1408.22 337.76 1451.57 360.614 C 1528.06 401.236 1566.67 460.096 1591.52 540.539 C 1546.31 498.079 1508.93 445.549 1453.18 417.309 C 1444.61 412.972 1402.93 392.122 1396.98 393.917 C 1391.19 401.541 1399.3 403.774 1405.72 406.448 C 1441.03 421.061 1477.54 438.465 1504.94 465.786 C 1524.3 485.084 1541.71 506.933 1561.16 526.271 C 1571.95 537.003 1584.75 546.513 1595 557.525 L 1595.92 558.526 C 1615.55 650.874 1638.11 730.831 1688.86 811.937 C 1699.82 829.465 1709.78 845.941 1722.94 862.038 C 1689.96 960.528 1664.31 1059.39 1675.98 1164.42 C 1680.24 1202.8 1689.71 1239.78 1699.47 1277.09 C 1681.4 1293.73 1665.69 1310.66 1648.67 1327.69 C 1603.63 1372.78 1569.36 1422.59 1555.45 1485.91 C 1547.69 1521.25 1541.64 1562.85 1524.06 1595.47 C 1515.52 1598.45 1506.14 1601.1 1497.41 1603.55 C 1410.07 1628.15 1323.75 1659.27 1248.83 1711.67 C 1237.29 1719.74 1225.25 1727.46 1213.41 1735.08 C 1188.24 1733.54 1156.05 1728.27 1130.31 1725.39 C 1059.02 1717.4 990.512 1718.3 919.89 1732.33 C 909.535 1734.39 898.43 1736.06 887.985 1737.99 C 885.285 1738.49 884.318 1739.81 882.949 1741.98 C 882.676 1746.16 882.267 1744.2 884.478 1747.99 C 889.246 1749.88 928.449 1740.69 936.477 1739.21 C 954.841 1735.93 973.387 1733.77 992.014 1732.74 C 1029.74 1730.11 1067.6 1730.19 1105.31 1733 C 1137.16 1735.47 1167.32 1739.96 1198.92 1743.84 C 1154 1767.09 1118.53 1786.65 1067.84 1797.43 C 943.655 1823.83 849.35 1769.78 749.532 1705.53 C 714.568 1684.48 679.331 1661.24 644.193 1639.78 C 596.762 1610.36 548.209 1582.8 498.642 1557.14 C 488.206 1527.35 480.73 1499.59 478.907 1467.94 C 478.756 1465.32 477.504 1464.25 475.546 1463.06 C 471.246 1463 473.09 1462.42 469.687 1464.39 C 465.107 1477.66 481.026 1537.02 486.148 1551.04 C 429.025 1519.45 378.624 1484.01 344.444 1426.91 C 291.747 1338.87 297.611 1262.61 320.053 1169.4 C 341.624 1207.29 374.241 1242.32 393.391 1282.63 C 396.098 1288.32 405.282 1308.2 411.354 1308.15 C 417.683 1300.35 406.813 1285.24 402.363 1277.55 C 378.452 1236.18 351.356 1195.69 323.543 1156.85 C 331.361 1127.89 341.203 1096.53 346.572 1067.18 C 359.233 997.951 355.694 905.849 334.884 838.415 C 347.114 821.153 361.564 804.919 374.038 787.749 C 414.604 731.909 448.013 671.083 471.911 606.295 C 473.869 600.984 477.99 593.043 472.337 589.003 C 462.991 590.347 460.836 606.822 457.687 615.111 C 428.193 692.737 384.479 759.552 332.619 823.676 C 324.473 785.474 317.977 755.287 323.785 715.989 C 329.655 678.466 345.272 643.142 369.076 613.549 C 447.553 514.39 577.682 489.45 685.912 435.758 C 746.285 405.808 780.357 379.134 832.902 340.282 C 837.566 340.863 841.918 341.791 846.532 342.684 C 905.145 354.039 964.613 364.922 1024.56 361.446 C 1062.27 359.259 1098.66 352.357 1135.87 346.895 C 1147.3 345.217 1179.55 371.603 1189.1 368.874 C 1191.28 365.978 1190.9 367.534 1190.5 364.109 C 1186.28 357.426 1164.03 347.014 1155.59 342.456 C 1196.12 335.934 1237.82 327.449 1278.59 324.418 z" fill="rgb(255,255,254)" transform="translate(0,0)"></path>
<path d="M 729.714 488.081 C 734.909 481.366 741.304 476.206 750.015 475.492 C 785.616 472.575 824.524 469.274 860.216 471.272 C 888.19 472.838 914.231 476.521 942.642 477.356 C 981.275 478.491 1012.51 469.582 1050.51 469.013 C 1090.67 468.412 1130.45 476.718 1170.29 477.243 C 1194.35 477.559 1221.5 471.73 1245.88 469.607 C 1286.09 466.105 1325.45 466.776 1365.75 469.426 C 1385.57 470.73 1408.77 471.845 1424.96 485.432 C 1444.6 501.925 1449.91 547.715 1452.73 572.257 C 1454.1 584.103 1452.94 605.185 1451.49 617.023 C 1449.97 629.331 1445.37 647.119 1445.69 659.091 C 1446.13 675.272 1452.02 685.891 1453.04 703.377 C 1454.55 729.472 1451.33 753.426 1451.03 778.735 C 1450.81 797.257 1452.8 821.03 1453.34 840.378 C 1486.81 858.991 1511.63 891.269 1499.37 930.822 C 1492.85 951.863 1489.37 961.031 1497.1 982.99 C 1511.22 1023.04 1488.79 1053.36 1457.97 1076.95 C 1457.09 1088.82 1460.54 1102.71 1460.49 1114.6 C 1460.99 1133.1 1456.66 1154.72 1457.57 1172.9 C 1459.75 1216.12 1462.57 1257.57 1460.11 1300.93 C 1457.67 1344.07 1469.87 1361.75 1420.77 1377.19 C 1417.18 1391.32 1413.94 1403.5 1399.42 1410.09 C 1397.75 1417.09 1392.55 1444.37 1392.48 1451.05 C 1413.07 1463.79 1445.44 1483.67 1450.16 1509 C 1456.77 1544.48 1426.09 1573.59 1392.91 1579.39 C 1355.24 1585.98 1316.38 1578.15 1278.32 1578.36 C 1232.44 1577.86 1188.83 1582.12 1143.29 1581.84 C 1100.09 1581.58 1056.66 1574.68 1013.61 1573.49 C 976.701 1572.47 940.565 1579.68 903.632 1578.95 C 904.805 1612.98 910.729 1648.85 924.965 1680.24 C 927.218 1685.21 931.347 1689.4 929.3 1695.14 C 927.165 1696.46 926.949 1696.42 924.48 1695.72 C 909.055 1691.35 855.602 1638.17 839.439 1645.53 C 824.283 1652.43 790.967 1699.23 780.888 1700.18 C 778.346 1698.73 778.216 1698.9 776.588 1696.54 C 770.967 1668.9 777.622 1607.27 781.486 1579.23 C 748.1 1579.22 715.067 1576.02 681.747 1574.15 C 658.584 1572.85 627.095 1564.38 609.295 1548.85 C 602.848 1543.22 597.471 1535.15 592.431 1528.32 C 575.702 1508.01 573.661 1491.03 572.73 1465.47 C 572.669 1460.52 572.271 1455.8 571.501 1450.91 C 568.663 1432.9 567.012 1415.04 565.582 1396.86 C 564.548 1392.5 564.902 1380.59 565.756 1376.18 L 565.924 1374.89 C 565.189 1344.51 566.734 1313.18 566.671 1282.86 C 566.527 1213.86 568.462 1146.84 572.231 1077.94 C 568.889 1074.59 565.568 1071.21 562.271 1067.82 C 524.794 1029.11 545.034 1017.9 550.374 976.484 C 551.53 967.523 541.079 943.697 542.579 927.688 C 545.436 897.196 552.74 884.999 574.42 864.16 C 575.111 845.549 576.25 825.494 575.606 807.021 C 574.778 783.246 570.748 759.048 569.654 735.265 C 567.586 695.139 568.956 655.167 571.02 615.088 C 572.927 578.052 573.275 541.782 598.027 511.288 C 602.62 505.534 608.244 500.684 614.612 496.988 C 625.345 490.761 639.301 487.752 651.068 483.649 C 673.505 475.825 718.935 466.766 720.419 502.482 C 722.058 500.762 727.832 491.012 729.714 488.081 z" fill="rgb(243,228,210)" transform="translate(0,0)"></path>
<path d="M 729.714 488.081 C 734.909 481.366 741.304 476.206 750.015 475.492 C 785.616 472.575 824.524 469.274 860.216 471.272 C 888.19 472.838 914.231 476.521 942.642 477.356 C 981.275 478.491 1012.51 469.582 1050.51 469.013 C 1090.67 468.412 1130.45 476.718 1170.29 477.243 C 1194.35 477.559 1221.5 471.73 1245.88 469.607 C 1286.09 466.105 1325.45 466.776 1365.75 469.426 C 1385.57 470.73 1408.77 471.845 1424.96 485.432 C 1444.6 501.925 1449.91 547.715 1452.73 572.257 C 1454.1 584.103 1452.94 605.185 1451.49 617.023 C 1449.97 629.331 1445.37 647.119 1445.69 659.091 C 1446.13 675.272 1452.02 685.891 1453.04 703.377 C 1454.55 729.472 1451.33 753.426 1451.03 778.735 C 1450.81 797.257 1452.8 821.03 1453.34 840.378 L 1443.14 834.792 C 1445.98 826.475 1447.8 816.798 1448.28 807.91 C 1449.67 789.256 1440.04 758.472 1426.07 745.339 C 1345.25 669.355 1185.04 774.602 1126.88 829.813 C 1123.83 828.523 1120.71 827.423 1117.52 826.517 C 1097.4 820.604 1051.19 819.158 1029.69 823.729 C 1020.68 825.645 1013.05 829.433 1005.06 833.811 C 974.528 800.118 953.519 782.81 913.513 760.413 C 856.462 728.473 788.437 694.449 727.073 736.838 C 720.335 743.153 715.116 748.246 710.152 756.142 C 702.661 773.938 695.368 801.301 699.394 820.615 C 654.055 828.242 612.519 832.712 574.42 864.16 C 575.111 845.549 576.25 825.494 575.606 807.021 C 574.778 783.246 570.748 759.048 569.654 735.265 C 567.586 695.139 568.956 655.167 571.02 615.088 C 572.927 578.052 573.275 541.782 598.027 511.288 C 602.62 505.534 608.244 500.684 614.612 496.988 C 625.345 490.761 639.301 487.752 651.068 483.649 C 673.505 475.825 718.935 466.766 720.419 502.482 C 722.058 500.762 727.832 491.012 729.714 488.081 z" fill="rgb(212,70,92)" transform="translate(0,0)"></path>
<path d="M 574.42 864.16 C 575.111 845.549 576.25 825.494 575.606 807.021 C 574.778 783.246 570.748 759.048 569.654 735.265 C 567.586 695.139 568.956 655.167 571.02 615.088 C 572.927 578.052 573.275 541.782 598.027 511.288 C 602.62 505.534 608.244 500.684 614.612 496.988 C 625.345 490.761 639.301 487.752 651.068 483.649 C 673.505 475.825 718.935 466.766 720.419 502.482 C 722.058 500.762 727.832 491.012 729.714 488.081 C 732.065 494.061 729.126 545.356 728.925 555.654 L 727.454 656.095 C 726.994 681.423 725.835 711.817 727.073 736.838 C 720.335 743.153 715.116 748.246 710.152 756.142 C 702.661 773.938 695.368 801.301 699.394 820.615 C 654.055 828.242 612.519 832.712 574.42 864.16 z" fill="rgb(212,70,92)" transform="translate(0,0)"></path>
<path d="M 729.714 488.081 C 732.065 494.061 729.126 545.356 728.925 555.654 L 727.454 656.095 C 726.994 681.423 725.835 711.817 727.073 736.838 C 720.335 743.153 715.116 748.246 710.152 756.142 C 709.228 751.376 710.987 709.525 711.15 700.092 C 711.528 678.358 707.435 653.701 707.301 634.004 C 707.075 600.92 710.854 535.071 718.419 503.13 L 720.419 502.482 C 722.058 500.762 727.832 491.012 729.714 488.081 z" fill="rgb(13,31,50)" transform="translate(0,0)"></path>
<path d="M 664.709 516.342 C 673.867 514.484 677.906 520.718 664.496 522.871 C 628.79 528.602 608.107 545.057 605.645 582.307 C 602.94 586.324 599.708 586.087 599.636 581.523 C 599.014 542.151 628.938 521.469 664.709 516.342 z" fill="rgb(243,228,210)" transform="translate(0,0)"></path>
<path d="M 601.6 635.79 C 605.016 637.257 606.472 637.049 605.684 640.99 C 604.124 648.791 602.703 656.605 601.701 664.494 C 600.921 670.635 599.983 676.792 599.808 682.999 C 597.556 695.254 603.585 710.798 599.737 720.254 C 599.455 720.052 596.613 718.145 596.521 717.852 C 592.008 703.522 593.336 684.901 594.859 669.997 C 595.74 661.373 597.616 643.15 601.6 635.79 z" fill="rgb(243,228,210)" transform="translate(0,0)"></path>
<path d="M 614.463 768.387 C 615.099 768.515 619.552 769.104 619.773 770.238 C 621.81 780.692 623.788 797.369 621.548 807.828 C 614.121 807.498 616.617 801.56 616.095 793.72 C 615.555 785.605 614.351 776.297 614.463 768.387 z" fill="rgb(243,228,210)" transform="translate(0,0)"></path>
<path d="M 684.804 515.546 C 685.8 514.425 687.333 513.945 688.791 514.296 C 690.248 514.648 691.393 515.774 691.769 517.226 C 692.145 518.678 691.69 520.218 690.585 521.233 C 688.993 522.696 686.533 522.654 684.992 521.137 C 683.45 519.621 683.368 517.162 684.804 515.546 z" fill="rgb(243,228,210)" transform="translate(0,0)"></path>
<path d="M 1298.44 514.406 C 1318.34 515.735 1313.86 567.153 1323.68 576.845 C 1333.65 586.683 1369.41 582.991 1379.59 596.053 C 1379.91 596.457 1380.82 599.588 1380.09 600.184 C 1370.16 611.459 1333.05 624.297 1319.98 630.406 C 1312.89 647.959 1310.91 674.672 1297.15 689.811 C 1280.33 688.462 1281.11 640.82 1272.87 629.424 C 1265.78 619.616 1218.06 614.417 1215.97 599.418 C 1220.48 589.203 1263.15 584.626 1268.8 578.215 C 1282.53 562.614 1283.82 532.505 1298.44 514.406 z" fill="rgb(246,170,51)" transform="translate(0,0)"></path>
<path d="M 1373.12 503.568 C 1381.2 506.421 1383.71 514.302 1389.37 522.586 C 1390.81 520.67 1403.66 499.838 1406.68 510.574 C 1407.06 511.916 1398.29 520.575 1395.89 524.441 L 1394.44 526.823 C 1397.58 526.913 1412.59 526.735 1413.56 527.393 C 1425.65 535.602 1397.55 533.077 1395.38 533.043 C 1399.24 538.923 1402.93 544.873 1406.52 550.915 C 1408.33 553.936 1405.66 557.47 1402.48 555.262 L 1401.49 554.598 C 1396.41 546.935 1392.68 540.202 1387.87 532.664 C 1385.49 535.38 1370.83 555.021 1369.01 554.833 C 1357.83 553.68 1378.16 535.43 1380.65 532.483 C 1377.91 532.298 1354.65 532.804 1364.01 525.894 C 1363.83 526.029 1380.56 525.957 1383.18 525.877 C 1379.04 519.259 1370.17 510.582 1373.12 503.568 z" fill="rgb(246,170,51)" transform="translate(0,0)"></path>
<path d="M 812.377 513.28 C 818.379 512.692 843.788 514.066 847.926 518.082 C 848.7 518.82 849.088 519.874 848.978 520.937 C 848.569 524.774 846.215 523.825 843.487 523.221 C 805.24 514.764 781.092 521.535 774.091 562.455 C 773.767 568.798 773.126 577.303 774.963 583.504 C 775.685 585.94 775.988 599.744 771.525 593.509 C 765.794 585.502 766.734 566.724 767.709 556.989 C 769.967 534.454 785.309 517.525 808.028 513.947 L 812.377 513.28 z" fill="rgb(243,228,210)" transform="translate(0,0)"></path>
<path d="M 1413.79 616.247 C 1425.34 621.934 1413.62 644.05 1408.26 650.055 C 1396.94 662.724 1411.1 677.107 1403.41 684.985 C 1397.73 680.843 1399.25 677.068 1397.64 670.528 C 1393.86 655.334 1404.06 645.967 1410.16 633.54 C 1412.59 628.603 1411.18 622.992 1413.26 617.708 L 1413.79 616.247 z" fill="rgb(243,228,210)" transform="translate(0,0)"></path>
<path d="M 1053.19 514.443 C 1056.15 514.32 1086.92 511.678 1079.18 520.236 C 1077.94 521.609 1054.07 520.992 1049.76 521.03 C 1046.44 521.116 1024.5 522.915 1023.6 521.867 C 1015.45 512.476 1047.31 514.725 1053.19 514.443 z" fill="rgb(243,228,210)" transform="translate(0,0)"></path>
<path d="M 905.108 511.375 C 916.252 510.63 928.344 510.752 939.472 511.39 C 942.28 511.551 943.03 514.437 941.956 516.844 L 941.48 517.96 C 935.482 517.804 892.37 521.936 905.108 511.375 z" fill="rgb(243,228,210)" transform="translate(0,0)"></path>
<path d="M 766.762 613.986 C 767.162 614.079 771.538 614.859 771.56 615.478 C 771.954 626.626 774.181 640.84 772.64 651.741 C 761.876 649.497 767.926 641.972 765.956 631.28 C 765.364 628.072 765.929 617.257 766.762 613.986 z" fill="rgb(243,228,210)" transform="translate(0,0)"></path>
<path d="M 1213.21 520.191 C 1219.54 519.908 1242.91 516.233 1241.04 525.126 L 1240.75 526.619 C 1235.44 526.679 1229.8 526.771 1224.5 526.682 C 1218.06 526.575 1213.09 529.501 1213.2 522.193 L 1213.21 520.191 z" fill="rgb(243,228,210)" transform="translate(0,0)"></path>
<path d="M 1116.24 513.612 C 1117.42 512.379 1119.18 511.894 1120.83 512.352 C 1122.48 512.809 1123.74 514.133 1124.11 515.8 C 1124.49 517.466 1123.92 519.204 1122.63 520.324 C 1120.76 521.951 1117.94 521.818 1116.23 520.022 C 1114.52 518.226 1114.52 515.403 1116.24 513.612 z" fill="rgb(243,228,210)" transform="translate(0,0)"></path>
<path d="M 1419.51 539.383 C 1421.01 539.349 1422.41 540.13 1423.17 541.424 C 1423.93 542.718 1423.93 544.321 1423.17 545.615 C 1422.41 546.909 1421.01 547.69 1419.51 547.656 C 1417.26 547.606 1415.46 545.769 1415.46 543.52 C 1415.46 541.271 1417.26 539.434 1419.51 539.383 z" fill="rgb(243,228,210)" transform="translate(0,0)"></path>
<path d="M 706.114 1067.04 C 707.757 1057.26 706.162 1046.77 708.409 1035.6 C 713.373 1041.63 717.189 1045.93 722.624 1051.52 C 723.058 1068.29 722.573 1084.67 722.682 1101.36 C 721.179 1172.52 720.898 1243.72 727.689 1314.58 C 729.363 1332.04 729.683 1359.3 737.144 1374.47 C 755.753 1381.95 789.582 1379.31 810.542 1379.72 C 906.828 1381.59 1002.84 1381.04 1099.06 1376.98 C 1123.49 1375.95 1148.71 1382.19 1173.24 1380.67 C 1210.28 1379.64 1248.29 1373.81 1284.94 1373.12 C 1303.14 1372.78 1328.63 1376.95 1348.4 1377.86 C 1372.93 1378.99 1397.53 1376.52 1420.77 1377.19 C 1417.18 1391.32 1413.94 1403.5 1399.42 1410.09 C 1397.75 1417.09 1392.55 1444.37 1392.48 1451.05 C 1413.07 1463.79 1445.44 1483.67 1450.16 1509 C 1456.77 1544.48 1426.09 1573.59 1392.91 1579.39 C 1355.24 1585.98 1316.38 1578.15 1278.32 1578.36 C 1232.44 1577.86 1188.83 1582.12 1143.29 1581.84 C 1100.09 1581.58 1056.66 1574.68 1013.61 1573.49 C 976.701 1572.47 940.565 1579.68 903.632 1578.95 C 904.805 1612.98 910.729 1648.85 924.965 1680.24 C 927.218 1685.21 931.347 1689.4 929.3 1695.14 C 927.165 1696.46 926.949 1696.42 924.48 1695.72 C 909.055 1691.35 855.602 1638.17 839.439 1645.53 C 824.283 1652.43 790.967 1699.23 780.888 1700.18 C 778.346 1698.73 778.216 1698.9 776.588 1696.54 C 770.967 1668.9 777.622 1607.27 781.486 1579.23 C 748.1 1579.22 715.067 1576.02 681.747 1574.15 C 658.584 1572.85 627.095 1564.38 609.295 1548.85 C 602.848 1543.22 597.471 1535.15 592.431 1528.32 C 575.702 1508.01 573.661 1491.03 572.73 1465.47 C 572.669 1460.52 572.271 1455.8 571.501 1450.91 C 568.663 1432.9 567.012 1415.04 565.582 1396.86 C 564.548 1392.5 564.902 1380.59 565.756 1376.18 L 565.924 1374.89 C 565.189 1344.51 566.734 1313.18 566.671 1282.86 C 566.527 1213.86 568.462 1146.84 572.231 1077.94 L 573.081 1071.63 C 578.255 1068.07 582.42 1062.14 587.721 1058.51 C 617.25 1038.3 677.594 1030.8 705.574 1056.42 C 705.872 1059.9 705.969 1063.53 706.114 1067.04 z" fill="rgb(13,31,50)" transform="translate(0,0)"></path>
<path d="M 888.799 1443.32 C 892.762 1441.63 898.102 1441.69 902.377 1441.92 C 1028.37 1448.74 1154.67 1447.9 1280.8 1450.58 C 1294.03 1450.87 1387 1447.99 1392.25 1451.73 L 1392.48 1451.05 C 1413.07 1463.79 1445.44 1483.67 1450.16 1509 C 1456.77 1544.48 1426.09 1573.59 1392.91 1579.39 C 1355.24 1585.98 1316.38 1578.15 1278.32 1578.36 C 1232.44 1577.86 1188.83 1582.12 1143.29 1581.84 C 1100.09 1581.58 1056.66 1574.68 1013.61 1573.49 C 976.701 1572.47 940.565 1579.68 903.632 1578.95 C 903.509 1570.58 904.024 1530.73 907.697 1525.31 C 906.472 1522.38 907.172 1512.41 907.281 1508.6 C 907.433 1495.2 906.815 1490.16 904.32 1476.87 C 903.795 1474.75 903.269 1472.63 902.705 1470.51 C 901.34 1464.67 899.649 1460.75 896.899 1455.49 L 888.799 1443.32 z" fill="rgb(255,255,254)" transform="translate(0,0)"></path>
<path d="M 1392.48 1451.05 C 1413.07 1463.79 1445.44 1483.67 1450.16 1509 C 1456.77 1544.48 1426.09 1573.59 1392.91 1579.39 C 1355.24 1585.98 1316.38 1578.15 1278.32 1578.36 C 1232.44 1577.86 1188.83 1582.12 1143.29 1581.84 C 1100.09 1581.58 1056.66 1574.68 1013.61 1573.49 C 976.701 1572.47 940.565 1579.68 903.632 1578.95 C 903.509 1570.58 904.024 1530.73 907.697 1525.31 C 952.311 1524.08 995.072 1528.87 1039.49 1530.03 C 1062.64 1528.74 1097.01 1527.62 1119.17 1524.77 C 1163.01 1519.14 1381.41 1533.96 1407.33 1511.8 C 1408.76 1504.99 1400.51 1498.6 1397.72 1489.58 C 1393.51 1475.96 1393.49 1465.69 1392.25 1451.73 L 1392.48 1451.05 z" fill="rgb(13,31,50)" transform="translate(0,0)"></path>
<path d="M 1239.16 1541.21 C 1257.22 1540.82 1275.47 1541.22 1293.53 1541.33 C 1298.17 1541.36 1298.75 1543.65 1297.77 1547.4 C 1286.77 1548.48 1271.3 1548.42 1260.13 1547.87 C 1249.33 1547.35 1239.64 1551.76 1239.16 1541.21 z" fill="rgb(243,228,210)" transform="translate(0,0)"></path>
<path d="M 1420.73 1535.66 C 1429.75 1542.97 1409.79 1553.36 1404.34 1555.69 C 1397.46 1548.77 1410.23 1548.88 1414.4 1542.78 C 1415.13 1541.71 1419.54 1537.08 1420.73 1535.66 z" fill="rgb(243,228,210)" transform="translate(0,0)"></path>
<path d="M 902.705 1470.51 L 903.848 1470.35 C 929.008 1466.67 958.905 1468.26 984.286 1468.66 C 986.083 1468.69 985.652 1474.46 983.936 1474.98 C 968.479 1479.59 916.73 1472.17 904.32 1476.87 C 903.795 1474.75 903.269 1472.63 902.705 1470.51 z" fill="rgb(243,228,210)" transform="translate(0,0)"></path>
<path d="M 1235.66 1489.42 C 1248.07 1488.01 1269.46 1488.93 1282.28 1489.49 C 1286.16 1489.65 1288.29 1490.56 1290.63 1493.49 C 1290.37 1497.09 1290.99 1495.54 1288.73 1498.32 C 1284.58 1499.1 1279.25 1498.67 1274.96 1498.44 C 1252.84 1497.25 1231 1498.71 1208.91 1500.2 C 1202.04 1500.81 1157.24 1502.82 1152.48 1501.15 C 1150.56 1498.24 1151.05 1499.84 1151.28 1496.11 C 1155.33 1491.61 1224.44 1490.1 1235.66 1489.42 z" fill="rgb(243,228,210)" transform="translate(0,0)"></path>
<path d="M 967.155 1492.47 C 984.08 1492.31 1005.36 1492.31 1021.97 1494.24 C 1024.16 1494.49 1026 1502.14 1018.5 1502.2 C 1007.58 1502.22 996.665 1502.03 985.752 1501.66 C 975.201 1500.97 939.033 1501.68 926.96 1500.22 C 926.193 1500.12 922.995 1492.86 929.498 1492.99 C 941.499 1493.23 954.751 1492.72 967.155 1492.47 z" fill="rgb(243,228,210)" transform="translate(0,0)"></path>
<path d="M 1329.77 1463.43 C 1338.54 1462.52 1352.54 1462.69 1361.28 1464.61 C 1363.02 1466.7 1363.49 1472.14 1359.55 1471.93 C 1341.74 1470.96 1325.32 1472.62 1307.77 1473.97 C 1304.37 1474.62 1278.86 1478.83 1277.27 1476.71 C 1272.79 1470.73 1277.17 1468.88 1283 1468.07 C 1298.78 1465.88 1313.99 1464.65 1329.77 1463.43 z" fill="rgb(243,228,210)" transform="translate(0,0)"></path>
<path d="M 573.081 1071.63 C 578.255 1068.07 582.42 1062.14 587.721 1058.51 C 617.25 1038.3 677.594 1030.8 705.574 1056.42 C 705.872 1059.9 705.969 1063.53 706.114 1067.04 C 704.987 1128.2 701.161 1189.85 700.641 1250.98 C 700.362 1268.49 700.677 1286.01 701.586 1303.5 C 702.344 1320.52 706.913 1350.87 695.143 1364.45 C 688.037 1372.65 670.712 1368.71 661.051 1371.4 C 618.798 1380.51 573.725 1416.13 572.751 1462.45 C 572.733 1463.45 572.726 1464.46 572.73 1465.47 C 572.669 1460.52 572.271 1455.8 571.501 1450.91 C 568.663 1432.9 567.012 1415.04 565.582 1396.86 C 564.548 1392.5 564.902 1380.59 565.756 1376.18 L 565.924 1374.89 C 565.189 1344.51 566.734 1313.18 566.671 1282.86 C 566.527 1213.86 568.462 1146.84 572.231 1077.94 L 573.081 1071.63 z" fill="rgb(212,70,92)" transform="translate(0,0)"></path>
<path d="M 569.106 1375.67 C 589.598 1347.8 615.742 1327.57 650.315 1321.23 C 659.036 1319.63 682.899 1319.45 685.039 1330.04 L 683.888 1332.31 C 681.189 1332.47 680.67 1331.88 678.116 1330.68 C 664.412 1324.26 644.262 1328.79 630.598 1334.02 C 608.922 1342.09 590.379 1356.85 577.661 1376.17 C 574.062 1381.52 569.874 1389.82 567.01 1393.87 C 565.951 1395.36 566.061 1395.18 565.582 1396.86 C 564.548 1392.5 564.902 1380.59 565.756 1376.18 L 565.924 1374.89 L 569.106 1375.67 z" fill="rgb(243,228,210)" transform="translate(0,0)"></path>
<path d="M 565.582 1396.86 C 564.548 1392.5 564.902 1380.59 565.756 1376.18 C 566.197 1378.04 566.387 1378.11 567.386 1379.96 C 566.72 1383.3 566.969 1390.2 567.01 1393.87 C 565.951 1395.36 566.061 1395.18 565.582 1396.86 z" fill="rgb(244,197,194)" transform="translate(0,0)"></path>
<path d="M 565.924 1374.89 L 569.106 1375.67 L 567.386 1379.96 C 566.387 1378.11 566.197 1378.04 565.756 1376.18 L 565.924 1374.89 z" fill="rgb(212,70,92)" transform="translate(0,0)"></path>
<path d="M 609.611 1053.21 L 613.803 1054.31 C 616.071 1058.33 611.013 1072.52 609.861 1078.36 C 602.655 1114.86 594.178 1145.86 595.166 1183.42 C 601.438 1185.62 605.478 1187.16 611.511 1189.96 C 611.409 1211.92 601.242 1236.04 597.687 1258.47 C 596.132 1268.27 595.724 1292.4 593.016 1298.69 C 575.692 1289.71 609.175 1203.34 604.298 1194.76 C 600.054 1191.86 595.304 1191.29 590.195 1190.14 C 583.719 1161.43 600.261 1082.02 609.611 1053.21 z" fill="rgb(243,228,210)" transform="translate(0,0)"></path>
<path d="M 762.955 1451.93 C 806.327 1452.33 853.73 1457.84 896.899 1455.49 C 899.649 1460.75 901.34 1464.67 902.705 1470.51 C 903.269 1472.63 903.795 1474.75 904.32 1476.87 C 906.815 1490.16 907.433 1495.2 907.281 1508.6 C 907.172 1512.41 906.472 1522.38 907.697 1525.31 C 904.024 1530.73 903.509 1570.58 903.632 1578.95 C 904.805 1612.98 910.729 1648.85 924.965 1680.24 C 927.218 1685.21 931.347 1689.4 929.3 1695.14 C 927.165 1696.46 926.949 1696.42 924.48 1695.72 C 909.055 1691.35 855.602 1638.17 839.439 1645.53 C 824.283 1652.43 790.967 1699.23 780.888 1700.18 C 778.346 1698.73 778.216 1698.9 776.588 1696.54 C 770.967 1668.9 777.622 1607.27 781.486 1579.23 C 784.417 1568.55 787.914 1537.22 786.595 1527.18 C 782.978 1495.16 778.382 1480.56 762.955 1451.93 z" fill="rgb(212,70,92)" transform="translate(0,0)"></path>
<path d="M 897.234 1655.63 C 889.769 1631.79 886.864 1611.27 888.351 1586.05 C 889.268 1570.49 895.984 1518.68 907.281 1508.6 C 907.172 1512.41 906.472 1522.38 907.697 1525.31 C 904.024 1530.73 903.509 1570.58 903.632 1578.95 C 904.805 1612.98 910.729 1648.85 924.965 1680.24 C 927.218 1685.21 931.347 1689.4 929.3 1695.14 C 927.165 1696.46 926.949 1696.42 924.48 1695.72 C 909.055 1691.35 855.602 1638.17 839.439 1645.53 C 824.283 1652.43 790.967 1699.23 780.888 1700.18 C 778.346 1698.73 778.216 1698.9 776.588 1696.54 C 790.046 1677.36 813.051 1642.21 834.616 1633.15 C 851.965 1625.86 879.414 1647.22 897.234 1655.63 z" fill="rgb(178,58,78)" transform="translate(0,0)"></path>
<path d="M 801.889 1474.25 C 810.74 1477.08 813.822 1496.21 814.877 1504.5 C 816.321 1516.02 816.655 1527.65 815.874 1539.24 C 814.329 1562.74 809.198 1585.76 805.045 1608.89 C 803.818 1615.73 804.369 1631.41 800.836 1635.97 C 798.401 1633.87 796.705 1632.13 796.807 1628.61 C 798.122 1583.39 819.243 1536.4 804.719 1491.54 C 803.137 1486.66 800.913 1482.16 799.79 1477.29 L 801.889 1474.25 z" fill="rgb(243,228,210)" transform="translate(0,0)"></path>
<path d="M 644.214 1467.07 C 650.807 1431.21 671.218 1417.05 706.853 1411.14 C 717.086 1410.07 727.966 1411.56 738.155 1410.8 C 816.92 1404.97 896.401 1413.64 975.136 1413.86 L 1330.68 1413.93 C 1353.86 1413.96 1380.06 1409.64 1399.42 1410.09 C 1397.75 1417.09 1392.55 1444.37 1392.48 1451.05 L 1392.25 1451.73 C 1387 1447.99 1294.03 1450.87 1280.8 1450.58 C 1154.67 1447.9 1028.37 1448.74 902.377 1441.92 C 898.102 1441.69 892.762 1441.63 888.799 1443.32 L 896.899 1455.49 C 853.73 1457.84 806.327 1452.33 762.955 1451.93 L 755.009 1440.22 C 723.81 1445.21 690.14 1434.41 660.506 1454.45 C 654.124 1458.76 649.938 1462.96 644.214 1467.07 z" fill="rgb(243,228,210)" transform="translate(0,0)"></path>
<path d="M 884.727 1438.19 L 888.799 1443.32 L 896.899 1455.49 C 853.73 1457.84 806.327 1452.33 762.955 1451.93 L 755.009 1440.22 C 764.747 1438.57 784.664 1439.25 795.14 1438.88 C 824.624 1437.87 855.312 1439.01 884.727 1438.19 z" fill="rgb(13,31,50)" transform="translate(0,0)"></path>
<path d="M 644.214 1467.07 C 649.938 1462.96 654.124 1458.76 660.506 1454.45 C 690.14 1434.41 723.81 1445.21 755.009 1440.22 L 762.955 1451.93 C 778.382 1480.56 782.978 1495.16 786.595 1527.18 C 776.333 1526.85 764.37 1526.67 754.187 1527.37 C 711.769 1530.28 639.782 1527.53 644.214 1467.07 z" fill="rgb(255,255,254)" transform="translate(0,0)"></path>
<path d="M 714.894 1481.28 C 723.476 1480.9 752.578 1480.51 761.343 1481.2 C 763.616 1481.38 770.838 1489.56 758.244 1489.85 C 747.586 1490.7 718.326 1492.13 706.363 1490.33 C 705.8 1490.24 704.938 1488.85 704.751 1488.01 C 704.451 1486.67 704.753 1485.25 705.579 1484.15 C 707.281 1481.91 712.206 1481.73 714.894 1481.28 z" fill="rgb(243,228,210)" transform="translate(0,0)"></path>
<path d="M 972.834 1300.97 C 980.504 1289.3 979.827 1269.52 982.817 1255.32 C 992.637 1208.72 1001.19 1161.41 1013.05 1115.27 C 1023.68 1073.92 1040.65 1033.47 1063.68 997.544 C 1063.93 996.915 1064.18 996.287 1064.44 995.659 C 1082.15 1025.43 1094.1 1047.78 1103.15 1081.88 C 1120.89 1148.75 1133.56 1216.82 1139.09 1285.81 C 1139.88 1295.69 1135.89 1314.45 1147.63 1317.18 C 1201.09 1325.69 1219.71 1291.15 1248.33 1254.28 C 1266.95 1230.3 1328.89 1275.28 1348.35 1241.49 C 1348.39 1239.75 1348.74 1239.59 1348.03 1238.64 C 1348.39 1238.48 1348.75 1238.35 1349.09 1238.16 C 1352.36 1236.39 1354.86 1233.7 1355.95 1230.09 C 1360.91 1213.77 1308.89 1119.43 1298.1 1099.38 C 1310.2 1101.88 1326.39 1103.88 1338.63 1104.56 C 1393 1107.62 1417.07 1098.27 1456.29 1063.78 C 1456.54 1067.13 1456.71 1074.22 1457.97 1076.95 C 1457.09 1088.82 1460.54 1102.71 1460.49 1114.6 C 1460.99 1133.1 1456.66 1154.72 1457.57 1172.9 C 1459.75 1216.12 1462.57 1257.57 1460.11 1300.93 C 1457.67 1344.07 1469.87 1361.75 1420.77 1377.19 C 1397.53 1376.52 1372.93 1378.99 1348.4 1377.86 C 1328.63 1376.95 1303.14 1372.78 1284.94 1373.12 C 1248.29 1373.81 1210.28 1379.64 1173.24 1380.67 C 1148.71 1382.19 1123.49 1375.95 1099.06 1376.98 C 1002.84 1381.04 906.828 1381.59 810.542 1379.72 C 789.582 1379.31 755.753 1381.95 737.144 1374.47 C 729.683 1359.3 729.363 1332.04 727.689 1314.58 C 720.898 1243.72 721.179 1172.52 722.682 1101.36 C 754.389 1123.37 788.07 1121.41 823.297 1108.8 C 832.181 1105.62 839.604 1101.4 848.014 1098 L 849.822 1097.28 C 837.678 1116.87 773.844 1224.37 804.623 1236.78 C 799.365 1240.5 797.046 1242.33 794.007 1247.96 C 795.658 1260.71 820.479 1258.81 830.145 1257.3 C 845.212 1254.95 862.57 1246.99 877.595 1247.26 C 886.092 1251.36 900.416 1265.04 904.881 1273.07 C 911.731 1285.4 963.697 1321.97 973.271 1303.02 C 973.11 1301.16 973.49 1301.75 972.834 1300.97 z" fill="rgb(212,70,92)" transform="translate(0,0)"></path>
<path d="M 1409.41 1214.48 C 1411.61 1214.65 1411.47 1214.6 1413.44 1215.59 C 1416.05 1220.5 1415.16 1229.56 1415.32 1235.11 C 1417.91 1323.81 1396.87 1343.33 1308.75 1341.03 C 1307.34 1340.99 1306.8 1340.64 1305.39 1340.17 L 1304.78 1338.24 C 1306.2 1336.39 1307.6 1335.1 1310.19 1335.14 C 1332.92 1335.55 1359.55 1336.24 1380.37 1325.58 C 1410.74 1310.02 1407.98 1269.31 1408.26 1240.5 C 1408.33 1232.87 1406.79 1221.65 1409.41 1214.48 z" fill="rgb(243,228,210)" transform="translate(0,0)"></path>
<path d="M 1052.61 1331.45 C 1056.36 1330.86 1056.49 1331.35 1058.81 1333.54 L 1058.6 1335.3 C 1053.63 1339.18 1038.56 1339.85 1032.17 1340.46 C 990.581 1344.47 942.955 1347.94 901.792 1340.59 C 898.534 1339.77 895.375 1339.55 894.699 1335.88 C 899.079 1332.69 927.657 1338.24 936.645 1338.75 C 976.733 1341.01 1013.35 1335.27 1052.61 1331.45 z" fill="rgb(243,228,210)" transform="translate(0,0)"></path>
<path d="M 755.443 1245.22 C 762.902 1246.7 760.92 1249.4 761.351 1257.5 C 763.935 1305.31 779.852 1341.06 834.5 1336.56 C 844.239 1335.76 850.836 1332.49 851.176 1341.69 C 830.221 1342.98 805.989 1344.79 787.178 1333.72 C 762.12 1318.97 752.051 1272.09 755.443 1245.22 z" fill="rgb(243,228,210)" transform="translate(0,0)"></path>
<path d="M 1117.97 1330.77 C 1126.52 1331.66 1132.96 1332.99 1143.55 1333.9 C 1155.02 1334.89 1174.84 1333.05 1186.42 1334.99 C 1187.38 1335.15 1187.49 1339.77 1187.55 1340.78 C 1166.82 1341.14 1146.01 1341.47 1125.48 1338.21 C 1120.5 1337.41 1117.54 1338 1117.9 1332.61 L 1117.97 1330.77 z" fill="rgb(243,228,210)" transform="translate(0,0)"></path>
<path d="M 760.469 1160.25 C 763.548 1161.45 765.362 1162.28 765.946 1165.98 C 768.721 1183.55 772.438 1199.46 760.734 1214.49 C 756.587 1214.65 754.604 1212.13 757.221 1208.61 C 767.812 1194.36 758.564 1174.9 760.469 1160.25 z" fill="rgb(243,228,210)" transform="translate(0,0)"></path>
<path d="M 1405.74 1120.23 L 1406.19 1120.39 C 1406.65 1120.54 1410.83 1121.84 1410.71 1122.69 C 1409.38 1132.79 1414.22 1163.1 1411.69 1170.84 C 1410.58 1170.59 1407.11 1170.17 1406.76 1168.6 C 1404.44 1158.09 1402.34 1132.47 1404.98 1122.92 L 1405.74 1120.23 z" fill="rgb(243,228,210)" transform="translate(0,0)"></path>
<path d="M 1279.5 1335.44 C 1280.6 1334.64 1282.03 1334.5 1283.26 1335.06 C 1284.49 1335.62 1285.32 1336.81 1285.43 1338.15 C 1285.54 1339.5 1284.91 1340.8 1283.79 1341.56 C 1282.1 1342.7 1279.81 1342.27 1278.64 1340.6 C 1277.47 1338.94 1277.86 1336.64 1279.5 1335.44 z" fill="rgb(243,228,210)" transform="translate(0,0)"></path>
<path d="M 699.394 820.615 C 702.996 834.72 714.133 866.439 714.266 878.096 C 714.681 914.524 690.072 937.935 690.97 979.47 C 692.699 1000.74 695.945 1017.52 708.409 1035.6 C 706.162 1046.77 707.757 1057.26 706.114 1067.04 C 705.969 1063.53 705.872 1059.9 705.574 1056.42 C 677.594 1030.8 617.25 1038.3 587.721 1058.51 C 582.42 1062.14 578.255 1068.07 573.081 1071.63 L 572.231 1077.94 C 568.889 1074.59 565.568 1071.21 562.271 1067.82 C 524.794 1029.11 545.034 1017.9 550.374 976.484 C 551.53 967.523 541.079 943.697 542.579 927.688 C 545.436 897.196 552.74 884.999 574.42 864.16 C 612.519 832.712 654.055 828.242 699.394 820.615 z" fill="rgb(13,31,50)" transform="translate(0,0)"></path>
<path d="M 690.97 979.47 C 692.699 1000.74 695.945 1017.52 708.409 1035.6 C 706.162 1046.77 707.757 1057.26 706.114 1067.04 C 705.969 1063.53 705.872 1059.9 705.574 1056.42 C 677.594 1030.8 617.25 1038.3 587.721 1058.51 C 582.42 1062.14 578.255 1068.07 573.081 1071.63 C 572.573 1055.91 571.799 1042.85 581.877 1029.97 C 600.687 1005.95 661.466 982.994 690.97 979.47 z" fill="rgb(178,58,78)" transform="translate(0,0)"></path>
<path d="M 615.86 861.203 C 616.656 861.444 617.805 862.354 618.577 862.879 C 618.843 864.098 619.299 866.101 617.441 866.771 C 603.754 871.707 586.931 876.227 578.997 889.661 C 572.59 900.507 581.427 910.349 584.691 920.861 L 585.063 922.098 C 582.233 933.302 577.646 939.262 573.04 949.05 C 569.296 957.005 565.818 966.026 569.954 974.042 C 570.85 975.778 570.283 975.752 569.32 978.165 C 568.21 977.984 566.617 977.501 565.486 977.2 C 555.555 966.75 567.706 945.647 573.206 934.724 C 581.486 918.281 573.882 916.271 568.737 901.318 L 568.355 900.173 C 573.961 874.228 592.353 867.081 615.86 861.203 z" fill="rgb(255,255,254)" transform="translate(0,0)"></path>
<path d="M 599.178 913.308 C 601.214 913.23 602.992 914.674 603.334 916.683 C 603.677 918.691 602.477 920.643 600.531 921.244 C 599.023 921.71 597.382 921.261 596.322 920.091 C 595.263 918.922 594.977 917.244 595.589 915.79 C 596.201 914.336 597.601 913.367 599.178 913.308 z" fill="rgb(255,255,254)" transform="translate(0,0)"></path>
<path d="M 1064.44 995.659 C 1072.25 994.521 1079.31 995.165 1086.92 993.983 C 1104.16 1034.14 1123.5 1072.28 1135.77 1114.73 C 1150.77 1166.66 1154.92 1224.78 1167.05 1276.25 C 1184.38 1349.86 1241.1 1201.88 1250 1189.43 C 1267.67 1194.27 1273.9 1202.99 1289.14 1212.49 C 1306.8 1223.49 1327.87 1233.48 1348.03 1238.64 C 1348.74 1239.59 1348.39 1239.75 1348.35 1241.49 C 1328.89 1275.28 1266.95 1230.3 1248.33 1254.28 C 1219.71 1291.15 1201.09 1325.69 1147.63 1317.18 C 1135.89 1314.45 1139.88 1295.69 1139.09 1285.81 C 1133.56 1216.82 1120.89 1148.75 1103.15 1081.88 C 1094.1 1047.78 1082.15 1025.43 1064.44 995.659 z" fill="rgb(178,58,78)" transform="translate(0,0)"></path>
<path d="M 1443.14 834.792 L 1453.34 840.378 C 1486.81 858.991 1511.63 891.269 1499.37 930.822 C 1492.85 951.863 1489.37 961.031 1497.1 982.99 C 1511.22 1023.04 1488.79 1053.36 1457.97 1076.95 C 1456.71 1074.22 1456.54 1067.13 1456.29 1063.78 C 1451.98 1047.53 1442.46 1043.85 1428.57 1034.61 C 1446.77 1009.37 1447.5 972.015 1437.63 943.624 C 1433.14 930.719 1420.29 902.463 1422.22 889.47 C 1424.44 874.576 1437.56 851.339 1443.14 834.792 z" fill="rgb(13,31,50)" transform="translate(0,0)"></path>
<path d="M 1471.41 967.868 C 1483.11 970.006 1483.29 985.785 1487.68 995.577 C 1489.72 1000.14 1489.49 1005.94 1487.94 1010.79 C 1483.98 1009.46 1483.86 1009.5 1483.08 1004.51 C 1481.94 997.25 1479.58 990.627 1477.43 983.698 C 1475.83 978.521 1471.66 972.818 1471.41 967.868 z" fill="rgb(243,228,210)" transform="translate(0,0)"></path>
<path d="M 1472.18 941.427 C 1473.44 940.703 1474.99 940.715 1476.24 941.459 C 1477.5 942.202 1478.25 943.562 1478.21 945.017 C 1478.18 946.472 1477.37 947.795 1476.08 948.481 C 1474.14 949.518 1471.72 948.804 1470.66 946.877 C 1469.59 944.949 1470.27 942.523 1472.18 941.427 z" fill="rgb(243,228,210)" transform="translate(0,0)"></path>
<path d="M 804.623 1236.78 C 804.943 1236.75 805.264 1236.74 805.584 1236.71 C 822.067 1235.26 847.934 1221.99 861.902 1213.24 C 870.017 1208.15 878.055 1201.71 886.785 1197.79 C 891.346 1195.74 897.927 1193.36 902.522 1196.32 C 914.81 1204.24 938.11 1303.23 971.799 1301.05 C 972.144 1301.02 972.489 1300.99 972.834 1300.97 C 973.49 1301.75 973.11 1301.16 973.271 1303.02 C 963.697 1321.97 911.731 1285.4 904.881 1273.07 C 900.416 1265.04 886.092 1251.36 877.595 1247.26 C 862.57 1246.99 845.212 1254.95 830.145 1257.3 C 820.479 1258.81 795.658 1260.71 794.007 1247.96 C 797.046 1242.33 799.365 1240.5 804.623 1236.78 z" fill="rgb(178,58,78)" transform="translate(0,0)"></path>
<path d="M 722.624 1051.52 C 738.344 1062.79 753.141 1071.23 772.81 1073.19 C 814.507 1077.34 855.872 1064.6 889.46 1039.46 C 884.214 1047.01 853.889 1093.73 849.822 1097.28 L 848.014 1098 C 839.604 1101.4 832.181 1105.62 823.297 1108.8 C 788.07 1121.41 754.389 1123.37 722.682 1101.36 C 722.573 1084.67 723.058 1068.29 722.624 1051.52 z" fill="rgb(178,58,78)" transform="translate(0,0)"></path>
<path d="M 1266.66 1049.74 C 1322.75 1075.71 1386.42 1091.24 1428.57 1034.61 C 1442.46 1043.85 1451.98 1047.53 1456.29 1063.78 C 1417.07 1098.27 1393 1107.62 1338.63 1104.56 C 1326.39 1103.88 1310.2 1101.88 1298.1 1099.38 C 1287.85 1082.77 1276.98 1066.43 1266.66 1049.74 z" fill="rgb(178,58,78)" transform="translate(0,0)"></path>
<path d="M 781.647 732.328 C 819.008 728.61 885.91 756.856 917.57 777.621 C 943.191 794.426 978.541 822.459 1001.06 843.469 C 993.165 857.036 991.749 872.216 989.794 887.544 C 969.077 873.179 948.326 861.94 923.803 855.536 C 905.151 850.665 886.117 847.982 880.592 870.689 C 891.371 921.083 956.794 911.886 989.995 892.444 C 988.862 902.609 988.179 912.818 987.948 923.043 C 960.279 922.473 928.344 927.153 902.974 938.549 C 894.331 942.431 870.423 954.066 865.983 962.414 L 866.637 963.826 C 872.612 964.41 893.073 950.329 901.724 946.334 C 929.172 932.878 957.855 930.376 987.803 928.911 C 988.737 939.612 989.615 954.432 994.548 963.805 C 991.367 966.667 966.741 979.516 960.868 983.244 C 944.496 993.637 926.454 1003.63 909.785 1013.59 C 892.911 1023.67 877.167 1035.39 859.255 1043.86 C 847.097 1049.61 833.862 1054.91 820.496 1057.12 C 794.867 1061.36 758.185 1058.53 736.449 1043.08 C 724.681 1034.72 717.853 1024.84 712.412 1011.8 C 692.73 964.603 722.31 928.132 724.094 881.893 C 724.713 865.855 722.181 851.386 717.138 836.198 C 714.856 829.328 712.096 821.199 710.801 814.023 C 707.293 794.579 714.26 774.521 725.465 758.722 C 738.113 740.89 761.054 735.468 781.647 732.328 z" fill="rgb(13,31,50)" transform="translate(0,0)"></path>
<path d="M 765.757 770.309 C 773.236 769.857 820.761 772.791 803.005 781.191 C 803.768 780.83 774.53 774.78 762.115 777.757 C 746.365 785.486 743.379 800.506 741.472 801.258 C 740.654 801.58 739.324 801.172 738.585 800.781 C 737.897 800.412 737.401 799.765 737.223 799.005 C 736.511 795.896 740.077 788.61 741.81 786.004 C 748.011 776.679 755.03 772.233 765.757 770.309 z" fill="rgb(243,228,210)" transform="translate(0,0)"></path>
<path d="M 748.085 958.621 C 749.263 959.048 752.176 960.084 751.891 961.059 C 750.681 965.208 745.813 973.001 744.464 977.404 C 740.711 989.651 743.714 996.9 751.413 1006.6 C 754.999 1011.12 758.239 1012.24 756.056 1017.47 C 749.263 1016.54 750.816 1016.18 746.175 1010.94 C 731.925 994.839 734.353 974.423 748.085 958.621 z" fill="rgb(255,255,254)" transform="translate(0,0)"></path>
<path d="M 771.289 1027.54 C 773.197 1026.26 775.778 1026.7 777.145 1028.55 C 778.512 1030.4 778.181 1033 776.393 1034.44 C 775.165 1035.44 773.491 1035.68 772.033 1035.07 C 770.575 1034.46 769.569 1033.1 769.414 1031.53 C 769.259 1029.95 769.979 1028.42 771.289 1027.54 z" fill="rgb(255,255,254)" transform="translate(0,0)"></path>
<path d="M 1346.47 734.417 C 1410.21 727.587 1448.09 785.838 1424.8 842.95 C 1418.86 857.513 1408.27 877.704 1409.23 893.299 C 1410.47 920.73 1428.19 946.905 1427.01 974.603 C 1424.89 1024.16 1398.63 1060.67 1345.89 1056.43 C 1284.68 1051.5 1178.91 1004.74 1138.16 961.404 C 1143.04 946.953 1145.91 938.167 1148.07 923.159 C 1175.64 926.442 1191.68 928.517 1216.87 941.071 C 1232.34 949.204 1244.02 959.144 1256.22 971.468 C 1259.46 974.746 1260.89 977.32 1264.43 977.536 L 1266.1 976.044 L 1266.24 973.646 C 1263.85 968.63 1258.73 964.01 1254.81 959.849 C 1229.6 933.107 1184.28 917.811 1148.2 916.9 C 1148.54 909.765 1147.99 901.279 1147.69 894.034 C 1179.07 901.937 1208.87 905.024 1238.28 888.387 C 1258.57 876.907 1262.89 851.987 1236.45 847.111 C 1205.71 841.442 1170.12 861.308 1145.75 878.229 C 1142.01 861.899 1140.66 858.864 1132.47 844.141 C 1145.81 833.343 1159.65 820.961 1172.99 810.626 C 1201.49 788.526 1250.71 758.296 1284.25 746.817 C 1304.37 740.043 1325.28 735.875 1346.47 734.417 z" fill="rgb(13,31,50)" transform="translate(0,0)"></path>
<path d="M 1367.91 766.845 C 1387.26 766.799 1401.88 775.89 1411.56 792.699 C 1415.98 800.371 1418.52 807.01 1416.19 815.703 C 1415.72 815.561 1413.28 814.924 1413.08 814.691 C 1408.97 809.968 1408.66 801.108 1404.71 795.199 C 1398.37 784.579 1388.8 776.649 1376.49 774.109 C 1369.73 772.715 1368.61 773.314 1367.91 766.845 z" fill="rgb(255,255,254)" transform="translate(0,0)"></path>
<path d="M 1402.58 975.135 C 1409.39 976.699 1407.45 980.823 1406.19 987.027 C 1402.29 1006.15 1388.41 1010.97 1371.23 1013.59 C 1369.71 1013.2 1366.13 1012.22 1366.58 1010.52 C 1368.58 1002.97 1380.42 1010.1 1389.47 1001.97 C 1400.66 991.906 1399.93 988.249 1402.58 975.135 z" fill="rgb(243,228,210)" transform="translate(0,0)"></path>
<path d="M 1335.37 766.867 C 1340.11 766.917 1346.21 766.098 1343.87 772.792 L 1343.51 774.034 C 1335.82 775.986 1334.46 774.754 1335.37 766.867 z" fill="rgb(255,255,254)" transform="translate(0,0)"></path>
<path d="M 999.088 975 C 1001.98 976.647 1005.06 982.667 1008.19 984.55 C 1022 992.864 1040.22 993.411 1055.89 995.082 C 1047.32 1005.63 1034.34 1022.64 1028.79 1035.28 C 1004.26 1091.18 991.433 1157.05 980.091 1216.95 C 977.415 1231.08 971.22 1274.74 967.26 1285.1 L 964.975 1284.88 C 949.039 1274.39 925.691 1213.02 918.257 1194.36 C 906.489 1174.16 890.963 1181.57 874.429 1190.64 C 852.609 1202.61 831.922 1213.76 808.167 1221.61 C 817.484 1171.24 862.709 1103.76 888.373 1059.34 C 894.476 1048.78 906.425 1035.54 910.303 1025.52 C 925.217 1016.86 937.721 1007.45 951.913 998.641 C 964.746 990.671 985.326 981.161 999.088 975 z" fill="rgb(13,31,50)" transform="translate(0,0)"></path>
<path d="M 945.955 1028.56 C 956.062 1030.07 948.35 1035.11 944.365 1039.37 C 924.262 1060.84 923.233 1090.32 900.362 1109.57 C 897.807 1108.7 893.215 1107.47 896.875 1104.47 C 913.652 1090.73 918.613 1066.44 929.741 1048.47 C 935.028 1039.93 938.773 1035.43 945.955 1028.56 z" fill="rgb(243,228,210)" transform="translate(0,0)"></path>
<path d="M 879.76 1128.46 C 881.716 1127.45 884.121 1128.2 885.156 1130.15 C 886.191 1132.09 885.471 1134.5 883.54 1135.56 C 882.27 1136.26 880.724 1136.22 879.492 1135.46 C 878.26 1134.7 877.533 1133.33 877.588 1131.88 C 877.644 1130.44 878.474 1129.13 879.76 1128.46 z" fill="rgb(255,255,254)" transform="translate(0,0)"></path>
<path d="M 1133.65 971.045 C 1163.64 998.156 1208.96 1029.71 1248.15 1041.38 C 1254.38 1053.52 1265.9 1067.2 1273.22 1079.69 C 1299.52 1124.57 1327.55 1173.74 1343.75 1223.29 C 1327.79 1217.4 1309.73 1207.4 1294.65 1199.18 C 1276.58 1189.35 1268.22 1179.95 1246.58 1178.26 C 1243.55 1179.44 1241.66 1180.3 1239.24 1182.82 C 1225.8 1196.85 1201.3 1285.68 1180.16 1283.3 C 1175.77 1277.65 1164.93 1196.29 1162.35 1182.56 C 1158.65 1163.29 1154.36 1144.14 1149.48 1125.14 C 1134.75 1069.99 1121.81 1043.74 1097.55 993.477 C 1115.61 988.376 1122.89 986.969 1133.65 971.045 z" fill="rgb(13,31,50)" transform="translate(0,0)"></path>
<path d="M 1186.33 1050.48 C 1191.23 1052.15 1192.62 1053.65 1196.13 1057.98 C 1204.14 1067.7 1210.94 1078.37 1216.36 1089.74 C 1219.07 1095.32 1225.8 1107.89 1223.88 1113.38 C 1223.09 1113.25 1221.07 1113.08 1220.59 1112.86 C 1217.3 1111.09 1214.92 1103.44 1213.28 1099.96 C 1205.72 1083.77 1196.4 1068.65 1184.92 1054.99 C 1184.3 1054.25 1186.1 1050.97 1186.33 1050.48 z" fill="rgb(255,255,254)" transform="translate(0,0)"></path>
<path d="M 1226.54 1131.71 C 1227.92 1131.11 1229.52 1131.31 1230.7 1132.23 C 1231.89 1133.16 1232.47 1134.67 1232.21 1136.15 C 1231.95 1137.63 1230.9 1138.85 1229.47 1139.33 C 1227.4 1140.01 1225.16 1138.95 1224.38 1136.91 C 1223.59 1134.88 1224.55 1132.59 1226.54 1131.71 z" fill="rgb(243,228,210)" transform="translate(0,0)"></path>
<path d="M 1047.42 830.411 C 1068.07 829.476 1099.8 828.932 1118.62 836.701 C 1142.67 874.748 1148.91 928.85 1123.32 968.404 C 1115.4 980.652 1103.76 983.561 1090.24 985.698 C 1069.93 987.964 1030.8 985.517 1012.99 975.447 C 991.393 938.2 996.676 899.23 1006.05 859.215 C 1007.9 851.325 1009.83 845.73 1013.28 838.435 C 1023.45 833.72 1036.3 831.309 1047.42 830.411 z" fill="rgb(13,31,50)" transform="translate(0,0)"></path>
<path d="M 1103.73 896.552 C 1104.36 896.622 1109.33 896.825 1109.59 897.631 C 1111.93 904.707 1110.37 915.83 1109.19 923.01 C 1107.89 930.993 1106.59 939.081 1104.69 946.731 C 1094.69 948.942 1099.58 938.504 1100.91 931.476 C 1103.35 918.681 1104.12 909.582 1103.73 896.552 z" fill="rgb(243,228,210)" transform="translate(0,0)"></path>
<path d="M 1076.16 853.514 C 1087.86 854.421 1105.5 862.319 1106.19 875.643 C 1098.21 876.147 1092.07 861.323 1080.96 861.218 C 1075.82 861.17 1076.48 858.078 1076.16 853.514 z" fill="rgb(255,255,254)" transform="translate(0,0)"></path>
<path d="M 1216.52 853.314 C 1226.44 851.957 1257.16 856.113 1245.57 872.587 C 1232.03 891.854 1201.79 893.846 1179.75 892.957 C 1177.05 892.773 1175.11 892.384 1172.5 892.105 C 1163.85 891.229 1155.31 889.46 1147.03 886.826 C 1164.08 872.539 1194.36 856.536 1216.52 853.314 z" fill="rgb(13,31,50)" transform="translate(0,0)"></path>
<path d="M 900.131 859.247 C 925.244 858.099 962.21 876.881 982.892 890.536 C 977.726 892.351 972.76 893.71 967.534 895.27 C 948.643 899.173 928.446 903.822 909.497 896.95 C 901.124 893.993 894.339 887.715 890.743 879.596 C 885.876 868.421 889.171 862.82 900.131 859.247 z" fill="rgb(13,31,50)" transform="translate(0,0)"></path>
<path d="M 1559.95 619.122 C 1567.2 618.653 1573.21 617.991 1577.79 625.099 C 1584.08 634.856 1577.71 642.827 1569.22 648.183 C 1549.71 652.134 1542.03 631.308 1559.95 619.122 z" fill="rgb(244,197,194)" transform="translate(0,0)"></path>
<path d="M 1308.42 377.545 C 1312.53 376.128 1317.02 378.251 1318.54 382.328 C 1320.06 386.406 1318.05 390.95 1314.01 392.567 C 1311.31 393.649 1308.23 393.181 1305.97 391.345 C 1303.71 389.508 1302.63 386.591 1303.13 383.725 C 1303.64 380.858 1305.66 378.493 1308.42 377.545 z" fill="rgb(244,197,194)" transform="translate(0,0)"></path>
<path d="M 497.186 571.095 C 499.992 570.364 502.973 571.23 504.952 573.349 C 506.93 575.469 507.589 578.502 506.666 581.252 C 505.744 584.001 503.39 586.024 500.533 586.521 C 496.36 587.248 492.356 584.554 491.458 580.414 C 490.56 576.275 493.087 572.163 497.186 571.095 z" fill="rgb(244,197,194)" transform="translate(0,0)"></path>
<path d="M 361.983 1323.25 C 364.672 1322.43 367.597 1323.11 369.643 1325.04 C 371.689 1326.97 372.54 1329.85 371.872 1332.59 C 371.205 1335.32 369.121 1337.48 366.415 1338.25 C 362.291 1339.42 357.993 1337.06 356.778 1332.95 C 355.563 1328.84 357.884 1324.51 361.983 1323.25 z" fill="rgb(244,197,194)" transform="translate(0,0)"></path>
<path d="M 403.519 624.806 C 415.813 625.295 414.395 635.48 405.99 641.827 C 394.995 637.575 394.97 632.022 403.519 624.806 z" fill="rgb(244,197,194)" transform="translate(0,0)"></path>
<path d="M 411.024 1427.47 C 414.777 1425.94 419.056 1427.75 420.578 1431.51 C 422.1 1435.26 420.29 1439.54 416.535 1441.06 C 412.782 1442.58 408.507 1440.77 406.985 1437.02 C 405.464 1433.27 407.272 1428.99 411.024 1427.47 z" fill="rgb(244,197,194)" transform="translate(0,0)"></path>
<path d="M 1216.05 373.497 C 1219.82 372.321 1223.82 374.412 1225.02 378.173 C 1226.21 381.935 1224.14 385.953 1220.38 387.161 C 1216.6 388.375 1212.55 386.287 1211.35 382.503 C 1210.15 378.718 1212.26 374.68 1216.05 373.497 z" fill="rgb(246,170,51)" transform="translate(0,0)"></path>
<path d="M 375.306 843.91 C 379.169 843.907 382.316 847.012 382.365 850.875 C 382.415 854.737 379.348 857.921 375.487 858.018 C 372.947 858.081 370.569 856.773 369.262 854.595 C 367.954 852.416 367.92 849.703 369.171 847.491 C 370.422 845.28 372.765 843.912 375.306 843.91 z" fill="rgb(246,170,51)" transform="translate(0,0)"></path>
<path d="M 432.868 1367.66 C 441.884 1370.5 443.351 1376.79 436.331 1383.25 L 435.024 1384.49 C 427.093 1379.11 422.409 1374.44 432.868 1367.66 z" fill="rgb(244,197,194)" transform="translate(0,0)"></path>
<path d="M 1242.12 1671.69 C 1245.39 1669.73 1249.63 1670.78 1251.62 1674.03 C 1253.61 1677.28 1252.61 1681.53 1249.38 1683.55 C 1247.26 1684.88 1244.59 1684.97 1242.39 1683.78 C 1240.19 1682.6 1238.79 1680.32 1238.73 1677.82 C 1238.68 1675.32 1239.97 1672.98 1242.12 1671.69 z" fill="rgb(246,170,51)" transform="translate(0,0)"></path>
<path d="M 1098.81 1755.73 C 1102.3 1754.79 1105.88 1756.86 1106.8 1760.35 C 1107.71 1763.85 1105.6 1767.41 1102.1 1768.29 C 1098.65 1769.17 1095.14 1767.09 1094.24 1763.64 C 1093.33 1760.2 1095.38 1756.67 1098.81 1755.73 z" fill="rgb(246,170,51)" transform="translate(0,0)"></path>
<path d="M 1729.59 874.571 C 1734.85 879.001 1746.37 898.395 1750.6 904.697 C 1826.13 1017.27 1833.36 1136.5 1736.6 1240.16 C 1728.18 1249.75 1717.11 1259.62 1707.59 1268.25 C 1665.22 1118.18 1682.28 1021.27 1729.59 874.571 z" fill="rgb(255,255,254)" transform="translate(0,0)"></path>
<path d="M 1732.62 1027.66 C 1734.84 1027.98 1739.01 1029.14 1739.17 1031.61 C 1739.73 1040.83 1726.71 1042.63 1723.01 1055 C 1717.97 1071.84 1721.88 1084.63 1733.44 1097.6 C 1740.31 1104.44 1745.26 1102.12 1740.41 1113.44 L 1739.44 1113.32 C 1725.98 1111.84 1714.28 1092.97 1712.1 1080.49 C 1708.2 1058.25 1713.81 1040.44 1732.62 1027.66 z" fill="rgb(244,197,194)" transform="translate(0,0)"></path>
<path d="M 1723.76 1177.32 C 1727.85 1177.49 1731.13 1180.76 1731.33 1184.85 C 1731.52 1188.94 1728.56 1192.5 1724.51 1193.06 C 1721.54 1193.46 1718.6 1192.16 1716.91 1189.69 C 1715.22 1187.23 1715.06 1184.01 1716.51 1181.39 C 1717.96 1178.78 1720.77 1177.2 1723.76 1177.32 z" fill="rgb(244,197,194)" transform="translate(0,0)"></path>
<path d="M 1701.79 1288.92 C 1704.69 1292.61 1706.91 1309.82 1707.67 1314.85 C 1714.39 1360.11 1711.75 1404.33 1694.63 1447.14 C 1667.45 1515.08 1613.52 1557.23 1548.7 1585.89 C 1545.67 1587.3 1544.76 1587.93 1541.36 1588.21 L 1540.68 1586.95 C 1552.32 1548.84 1558.89 1514.67 1568.31 1476.54 C 1586.94 1401.16 1646.6 1340.71 1701.79 1288.92 z" fill="rgb(255,255,254)" transform="translate(0,0)"></path>
<path d="M 1618.26 1465.85 C 1630.15 1465.42 1635.06 1469.63 1627.94 1480.81 C 1616.17 1483.38 1614.47 1475.69 1618.26 1465.85 z" fill="rgb(244,197,194)" transform="translate(0,0)"></path>
<path d="M 1664.52 1410.58 C 1668.17 1409.1 1672.35 1410.79 1673.95 1414.39 C 1675.56 1417.99 1674.02 1422.22 1670.48 1423.95 C 1668.07 1425.12 1665.22 1424.89 1663.03 1423.34 C 1660.85 1421.8 1659.68 1419.18 1659.99 1416.52 C 1660.3 1413.86 1662.04 1411.59 1664.52 1410.58 z" fill="rgb(244,197,194)" transform="translate(0,0)"></path>
<path d="M 1609.45 569.728 C 1649.13 600.832 1690.29 625.977 1716.04 670.089 C 1750.54 729.183 1744.68 777.554 1729.6 839.75 L 1726.47 851.271 C 1676.23 775.079 1642.5 712.887 1621.38 622.776 C 1617.9 607.924 1610.68 584.074 1609.45 569.728 z" fill="rgb(255,255,254)" transform="translate(0,0)"></path>
<path d="M 744.732 331.423 C 764.641 328.824 801.22 331.833 820.133 336.678 C 756.056 388.658 684.021 429.973 606.799 459.034 C 587.989 466.138 569.01 474.179 550.243 481.631 C 585.419 386.293 642.437 340.299 744.732 331.423 z" fill="rgb(255,255,254)" transform="translate(0,0)"></path>
<path d="M 702.694 376.403 C 714.487 376.674 715.118 383.683 708.907 392.299 C 698.531 390.569 698.408 384.397 702.694 376.403 z" fill="rgb(246,170,51)" transform="translate(0,0)"></path>
<path d="M 627.467 412.648 C 638.519 413.35 639.753 418.083 633.131 427.321 C 622.588 426.475 621.89 420.755 627.467 412.648 z" fill="rgb(246,170,51)" transform="translate(0,0)"></path>
<path d="M 326.086 850.627 C 327.123 851.077 327.796 851.678 328.113 852.909 C 353.492 951.374 347.868 1047.49 315.946 1143.77 C 312.907 1137.56 308.877 1130.53 305.539 1124.37 C 252.078 1025.92 257.608 940.016 326.086 850.627 z" fill="rgb(255,255,254)" transform="translate(0,0)"></path>
<path d="M 504.805 1571.49 C 588.357 1615.49 667.928 1666.19 747.85 1716.39 C 751.443 1718.64 757.249 1721.17 759.918 1724.15 L 759.522 1725.61 L 755.54 1727.13 C 630.184 1761.61 550.57 1677.3 504.805 1571.49 z" fill="rgb(255,255,254)" transform="translate(0,0)"></path>
<path d="M 1513.57 1610.09 L 1514.83 1610.01 L 1515.5 1611.28 C 1507.93 1627.86 1477.23 1660.44 1463.82 1671.8 C 1395.32 1729.8 1322.26 1743.34 1235.76 1736.91 C 1233.73 1737.04 1234.32 1737 1232.27 1736.47 L 1232.94 1735.09 C 1246.47 1725.8 1259.17 1715.75 1273.18 1707.05 C 1351.25 1658.53 1426.23 1634.41 1513.57 1610.09 z" fill="rgb(255,255,254)" transform="translate(0,0)"></path>
<path d="M 1343.28 1689.66 C 1345.36 1688.43 1347.95 1688.41 1350.04 1689.63 C 1352.14 1690.84 1353.41 1693.09 1353.37 1695.51 C 1353.33 1697.93 1351.99 1700.14 1349.86 1701.28 C 1346.66 1703 1342.67 1701.85 1340.88 1698.69 C 1339.1 1695.53 1340.16 1691.52 1343.28 1689.66 z" fill="rgb(246,170,51)" transform="translate(0,0)"></path>
<path d="M 958.503 290.426 C 1009.92 286.5 1078.75 314.47 1123.65 338.383 C 1090.67 345.405 1043.8 350.319 1010.25 351.454 C 959.66 353.324 895.015 342.823 845.981 331.445 C 882.132 310.098 915.562 293.024 958.503 290.426 z" fill="rgb(255,255,254)" transform="translate(0,0)"></path>
<path d="M 469.705 1617.97 C 484.108 1617.2 496.406 1628.26 497.166 1642.66 C 497.926 1657.07 486.861 1669.36 472.457 1670.11 C 458.067 1670.86 445.792 1659.8 445.032 1645.42 C 444.273 1631.03 455.316 1618.74 469.705 1617.97 z" fill="rgb(212,70,92)" transform="translate(0,0)"></path>
<path d="M 467.886 1628.24 C 475.247 1628.08 480.945 1628.36 485.129 1635.42 C 487.109 1638.81 487.627 1642.87 486.564 1646.65 C 484.667 1653.29 481.783 1656.76 475.73 1659.81 L 473.998 1660.72 C 454.288 1660.21 447.029 1637.67 467.886 1628.24 z" fill="rgb(255,255,254)" transform="translate(0,0)"></path>
<path d="M 1180.27 245.085 C 1211.08 244.133 1221.16 277.293 1191.38 288.725 C 1156.81 296.858 1152.99 257.129 1180.27 245.085 z" fill="rgb(212,70,92)" transform="translate(0,0)"></path>
<path d="M 1183.06 255.002 C 1200.71 255.569 1207.02 272.638 1187.28 280.111 C 1167.65 282.335 1167 261.97 1183.06 255.002 z" fill="rgb(255,255,254)" transform="translate(0,0)"></path>
<path d="M 478.627 428.037 C 489.783 426.379 500.16 434.111 501.761 445.275 C 503.362 456.44 495.577 466.777 484.405 468.321 C 473.313 469.855 463.066 462.138 461.476 451.054 C 459.886 439.97 467.551 429.684 478.627 428.037 z" fill="rgb(244,197,194)" transform="translate(0,0)"></path>
<path d="M 1555.04 1645.7 C 1561.5 1643.02 1568.92 1644.12 1574.32 1648.57 C 1579.72 1653.01 1582.23 1660.08 1580.84 1666.94 C 1579.44 1673.79 1574.38 1679.32 1567.67 1681.31 C 1558.03 1684.17 1547.83 1678.98 1544.47 1669.5 C 1541.1 1660.02 1545.75 1649.56 1555.04 1645.7 z" fill="rgb(244,197,194)" transform="translate(0,0)"></path>
<path d="M 1794.35 822.095 C 1820.25 820.323 1822.84 851.894 1800.83 859.006 C 1787.56 858.695 1778.36 853.306 1780.39 838.103 C 1781.71 828.238 1785.5 826.095 1794.35 822.095 z" fill="rgb(244,197,194)" transform="translate(0,0)"></path>
<path d="M 1765.98 1291.59 C 1772.21 1289.78 1778.93 1291.47 1783.57 1296.01 C 1788.21 1300.54 1790.05 1307.22 1788.39 1313.49 C 1786.73 1319.77 1781.83 1324.66 1775.55 1326.3 C 1766.02 1328.8 1756.25 1323.17 1753.63 1313.67 C 1751.01 1304.17 1756.51 1294.33 1765.98 1291.59 z" fill="rgb(246,170,51)" transform="translate(0,0)"></path>
<path d="M 833.023 258.41 C 842.006 257.966 849.706 264.762 850.382 273.73 C 851.058 282.698 844.464 290.571 835.517 291.48 C 829.519 292.089 823.663 289.395 820.222 284.445 C 816.78 279.495 816.296 273.068 818.956 267.658 C 821.616 262.248 827.002 258.707 833.023 258.41 z" fill="rgb(246,170,51)" transform="translate(0,0)"></path>
<path d="M 256.646 1149.46 C 262.653 1148.66 268.615 1151.22 272.174 1156.12 C 275.732 1161.03 276.315 1167.49 273.691 1172.95 C 271.067 1178.42 265.659 1182 259.606 1182.29 C 250.776 1182.71 243.184 1176.1 242.39 1167.29 C 241.596 1158.49 247.883 1150.62 256.646 1149.46 z" fill="rgb(244,197,194)" transform="translate(0,0)"></path>
<path d="M 261.025 804.019 C 285.542 803.29 291.642 825.177 271.677 833.761 L 269.898 834.579 C 249.166 838.306 239.769 813.171 261.025 804.019 z" fill="rgb(244,197,194)" transform="translate(0,0)"></path>
<path d="M 765.898 1768.98 C 779.068 1768.5 787.74 1772.07 785.953 1788.5 C 785.315 1794.36 779.931 1798.93 775.126 1801.96 C 752.986 1802.36 747.1 1780.44 765.898 1768.98 z" fill="rgb(246,170,51)" transform="translate(0,0)"></path>
<path d="M 1643.14 491.076 C 1655.75 490.401 1665.45 493.508 1663.91 509.499 C 1663.35 515.344 1658.35 519.69 1653.58 522.739 C 1645.94 523.417 1640.51 522.641 1636.44 515.577 C 1629.15 502.928 1632.75 497.408 1643.14 491.076 z" fill="rgb(246,170,51)" transform="translate(0,0)"></path>
<path d="M 1221.23 1778.34 C 1229.21 1775.8 1237.75 1780.11 1240.45 1788.03 C 1243.16 1795.95 1239.05 1804.58 1231.19 1807.46 C 1225.95 1809.39 1220.08 1808.32 1215.85 1804.68 C 1211.62 1801.05 1209.69 1795.4 1210.8 1789.93 C 1211.92 1784.46 1215.91 1780.03 1221.23 1778.34 z" fill="rgb(244,197,194)" transform="translate(0,0)"></path>
<path d="M 1599.59 1603.13 C 1603.3 1602.26 1607 1604.59 1607.83 1608.3 C 1608.66 1612.02 1606.31 1615.7 1602.58 1616.5 C 1598.91 1617.28 1595.29 1614.96 1594.46 1611.3 C 1593.64 1607.63 1595.93 1603.99 1599.59 1603.13 z" fill="rgb(246,170,51)" transform="translate(0,0)"></path>
<metadata><recraft-signature>{"signed_by": "recraft", "signature_b64": "5xw3qQdGzUbp+IugTgzCxagGXAEOYic+fr3fVrWZufCPu01gbD9DPcLSGlWB5fBwwq6ci0L7pe/Tr3tpiWmSAQ==", "signing_algo": "Ed25519", "generation_timestamp": 1777471561, "identifier": "0db3768a-fd3d-4674-a32c-f80b6b40334d"}</recraft-signature></metadata></svg>