<svg xmlns="http://www.w3.org/2000/svg" height="1024" preserveAspectRatio="none" style="display: block;" version="1.1" viewBox="0 0 2048 2048" width="1024">
<defs>
	<linearGradient gradientUnits="userSpaceOnUse" id="Gradient1" x1="583.482" x2="445.864" y1="1102.55" y2="1191.43">
		<stop class="stop0" offset="0" stop-color="rgb(231,226,209)" stop-opacity="0.670588"></stop>
		<stop class="stop1" offset="1" stop-color="rgb(237,231,218)" stop-opacity="1"></stop>
	</linearGradient>
	<linearGradient gradientUnits="userSpaceOnUse" id="Gradient2" x1="785.052" x2="744.302" y1="1116.41" y2="1200.87">
		<stop class="stop0" offset="0" stop-color="rgb(238,232,220)" stop-opacity="0"></stop>
		<stop class="stop1" offset="1" stop-color="rgb(232,226,211)" stop-opacity="0.0901961"></stop>
	</linearGradient>
</defs>
<path d="M 526.236 887.165 C 539.947 886.011 561.114 891.271 575.338 893.606 C 742.811 921.1 917.941 989.502 997.598 1150.63 C 1008.29 1172.27 1015.8 1194.42 1023.7 1217.41 C 1029.1 1203.38 1034.44 1189.35 1039.87 1175.33 C 1080.07 1071.56 1173.3 994.053 1273.83 950.79 C 1292.58 942.62 1311.69 935.336 1331.12 928.961 C 1358.61 920.118 1506.88 878.193 1529.66 890.176 C 1532.97 891.917 1535.77 894.859 1537.91 897.877 C 1542.68 904.587 1545.85 912.655 1549.8 919.878 C 1555.64 930.549 1562.85 940.988 1570.09 950.761 C 1609.07 1004 1660.4 1046.98 1719.66 1075.98 C 1730.34 1081.11 1741.82 1085.34 1752.87 1089.74 C 1702.7 1095.67 1648.52 1092.45 1598.23 1092.9 L 1598.72 1093.94 C 1599.01 1094.51 1599.3 1095.07 1599.58 1095.64 C 1618.57 1127.87 1649.16 1152.26 1681.35 1170.94 C 1699.19 1181.29 1732.84 1186.31 1725.93 1215.1 C 1724.5 1221.03 1719.66 1227.57 1718.11 1233.03 C 1705.38 1277.76 1713.68 1336.98 1750.91 1368.19 C 1763.12 1377.53 1774.52 1379.82 1784.28 1392.47 C 1798.58 1411.01 1775.93 1435.49 1756.2 1429.26 C 1738.21 1423.57 1719.59 1416.08 1701.26 1409.88 C 1663.88 1397.1 1626.02 1385.78 1587.76 1375.95 C 1434.72 1336.03 1294.89 1325.03 1138.78 1352.1 C 1128.17 1388.41 1107.43 1413.45 1069.86 1424.72 C 1035.7 1434.97 989.745 1433.81 957.648 1416.84 C 930.06 1402.25 917.907 1380.72 909.028 1351.82 C 871.882 1342.85 798.271 1338.73 759.969 1338.94 C 759.779 1355.72 763.106 1406.84 757.484 1419.48 C 755.553 1423.83 752.445 1427.5 747.906 1429.2 C 742.085 1431.37 735.548 1429.68 730.163 1427.07 C 714.419 1419.46 699.168 1403.29 693.563 1386.7 C 680.007 1413.05 648.849 1447.23 618.733 1422.1 C 610.378 1415.13 613.009 1354.66 612.998 1342.64 C 589.322 1344.21 545.093 1353.89 521.142 1359.16 C 476.684 1368.94 426.429 1380.12 383.39 1394.72 C 365.09 1400.92 346.919 1407.5 328.889 1414.45 C 301.957 1424.8 267.215 1446.49 257.691 1404.28 C 262.277 1385.99 269.434 1384.84 284.844 1375.87 C 331.105 1348.93 344.121 1285.02 333.581 1236.02 C 331.812 1227.79 326.857 1223.77 324.288 1216.16 C 320.579 1197.17 331.776 1187.36 347.363 1180.99 C 389.862 1163.62 427.631 1132.03 452.532 1093.57 C 445.041 1093.39 437.237 1093.6 429.732 1093.83 C 384.298 1095.22 339.212 1092.19 293.839 1090.74 C 383.434 1057.42 470.775 992.453 508.867 902.141 C 512.773 892.88 517.244 890.441 526.236 887.165 z M 1621.33 1199.16 C 1622.37 1197.69 1622.78 1197.41 1624.69 1198.18 C 1625.56 1198.53 1632.02 1200.64 1632.1 1199.22 C 1631.64 1198.49 1630.99 1198.03 1630.31 1197.52 L 1629.24 1196.58 L 1631.11 1197.41 C 1639.74 1201.32 1635.22 1193.86 1626.91 1192 C 1629.04 1188.9 1627.91 1191.51 1627.4 1187.05 C 1625.42 1184.86 1619.66 1180.42 1617.19 1178.38 C 1589.54 1155.55 1565.38 1128.6 1554.85 1093.18 C 1495.32 1082.73 1391.43 1084.67 1332.69 1098.15 C 1322.55 1099.27 1292.68 1108.12 1282.51 1111.4 C 1281.31 1111.8 1280.12 1112.22 1278.93 1112.66 C 1272.41 1114.29 1263.58 1118.93 1257.43 1119.99 L 1254.87 1121.72 C 1250.92 1123.39 1244.62 1126.53 1240.58 1126.99 L 1239.44 1127.99 L 1237.01 1130.47 C 1233.58 1131.03 1228.83 1133.39 1225.93 1135.25 C 1200.93 1146.16 1172.45 1165.81 1151.43 1183.42 C 1146.78 1187.32 1143.71 1191.9 1139.67 1195.47 L 1141.43 1197.66 C 1161.75 1187.4 1201.93 1169.83 1224.15 1165.58 C 1227.22 1164.81 1230.29 1163.83 1233.35 1162.96 C 1237.65 1162.63 1243.41 1160.59 1248.18 1159.89 C 1249.68 1159.68 1251.18 1159.46 1252.68 1159.22 L 1253.4 1159.01 C 1258.9 1158.67 1264.29 1157.35 1269.74 1156.55 C 1273.71 1155.89 1282.84 1155.55 1285.98 1154.24 C 1375 1147.13 1439.19 1159 1526.7 1177.76 C 1554.62 1183.74 1594.16 1194.54 1621.33 1199.16 z M 639.308 1087.89 C 631.787 1086.53 625.974 1087.25 618.438 1086.77 C 602.674 1085.17 540.264 1086.93 525.94 1089.86 C 515.246 1090.39 505.114 1091.7 494.497 1092.96 C 492.955 1098.07 491.428 1103.6 489.535 1108.55 C 487.131 1113.25 483.463 1119.55 481.464 1124.11 C 467.134 1147.24 456.487 1158.38 436.77 1176.86 C 429.33 1182.81 419.625 1189.4 412.857 1195.52 C 413.024 1197.27 413.154 1197.22 414.172 1198.87 C 414.328 1199.7 414.259 1200.1 414.946 1200.57 C 415.212 1200.71 415.479 1200.85 415.745 1200.99 C 416.087 1201.21 416.429 1201.42 416.772 1201.64 C 425.495 1199.98 435.742 1197.32 444.534 1195.29 L 450.984 1193.78 C 457.4 1192.24 465.062 1190.77 471.167 1188.7 C 477.774 1188.37 518.202 1178.4 526.112 1176.6 C 557 1169.65 588.085 1163.6 619.325 1158.47 C 621.561 1157.94 623.874 1157.88 626.136 1157.47 C 629.076 1157.01 631.535 1156.67 634.473 1156.05 C 637.745 1155.94 638.97 1155.74 642.138 1155.15 C 720.684 1145.44 789.47 1149.36 864.535 1177.45 C 885.714 1185.37 905.216 1196.72 926.295 1204.72 C 872.068 1136.6 724.381 1088.75 639.308 1087.89 z" fill="rgb(22,14,69)" transform="translate(0,0)"></path>
<path d="M 1321.45 1180.42 C 1338.2 1178.64 1372.12 1180.18 1388.99 1181.26 C 1461.2 1185.84 1533.3 1200.19 1603.58 1216.99 C 1623.51 1221.76 1644.24 1228.94 1664.53 1234.04 C 1661.19 1252.06 1660.51 1264.15 1661.78 1282.31 C 1614.83 1264.95 1524.66 1240.57 1476.12 1242.06 C 1496.37 1249.19 1522.75 1252.48 1546.99 1260.13 C 1583.37 1271.61 1636.46 1287.48 1664.72 1314.34 C 1666.13 1315.69 1679.71 1345.13 1682.51 1350.21 C 1568.82 1310.17 1425.99 1282.47 1305.69 1282.07 C 1277.11 1281.98 1244.03 1285.6 1215.76 1289.26 C 1143.36 1299.57 1099.61 1315.6 1033.2 1344.04 C 1137.16 1236.2 1286.03 1222.76 1427.99 1235.58 C 1431.9 1235.93 1440.11 1236.62 1442.87 1234.08 L 1442.29 1235.56 L 1444.41 1234.87 C 1440.29 1229.85 1406.77 1224.25 1398.72 1222.84 C 1303.19 1205.99 1201.43 1216.27 1115.07 1262.14 C 1104.95 1267.52 1095.53 1274.42 1085.11 1279.84 C 1161.13 1212.21 1220.04 1186.22 1321.45 1180.42 z" fill="rgb(10,162,164)" transform="translate(0,0)"></path>
<path d="M 669.735 1180.44 C 772.3 1174.66 895.654 1204.34 966.258 1283.29 C 924.897 1257.7 879.519 1239.26 832.031 1228.75 C 768.628 1214.28 692.477 1211.35 628.668 1226.02 C 622.944 1227.33 608.723 1230.57 604.372 1233.3 L 604.189 1234.68 C 608.034 1236.62 609.481 1235.81 614.183 1235.61 C 613.766 1252.78 613.134 1270.25 613.67 1287.38 C 591.835 1292.69 569.502 1296.28 547.461 1300.91 C 524.608 1305.88 501.879 1311.4 479.294 1317.48 C 441.501 1327.81 410.03 1336.45 372.956 1349.52 C 379.581 1334.26 382.278 1325.23 386.367 1309.4 C 430.07 1278.85 487.266 1263.67 538.076 1250.45 C 546.519 1248.25 571.819 1243.48 577.399 1238.69 L 576.401 1237.71 C 569.004 1236.51 551.091 1240.87 542.846 1242.47 C 491.259 1252.34 440.221 1264.88 389.942 1280.07 C 389.697 1262.72 389.083 1250.46 384.705 1233.81 C 410.963 1226.48 440.204 1219.65 466.771 1213.26 C 533.483 1197.22 601.041 1183.63 669.735 1180.44 z" fill="rgb(10,162,164)" transform="translate(0,0)"></path>
<path d="M 548.899 939.679 C 606.382 949.924 669.47 962.694 723.98 983.206 C 826.922 1021.94 923.896 1088 969.897 1191.7 C 944.826 1163.46 933.242 1151.96 903.087 1128.78 C 895.103 1122.47 882.286 1113.67 873.428 1108.52 C 805.216 1068.92 712.28 1037.27 633.025 1035.39 C 602.184 1034.65 557.549 1041.9 526.578 1045.21 C 500.017 1048.05 465.015 1049.9 440.204 1056.16 C 489.444 1021.54 521.103 994.44 548.899 939.679 z" fill="rgb(10,162,164)" transform="translate(0,0)"></path>
<path d="M 1496.19 941.43 C 1501.29 940.273 1507.26 952.946 1509.85 957.384 C 1531.18 993.92 1569.19 1032.09 1605.17 1054.27 C 1604.47 1054.13 1603.77 1054 1603.07 1053.89 C 1596.4 1052.82 1588.45 1051.87 1581.68 1051.34 C 1509.9 1045.75 1433.65 1027.89 1362.1 1040.53 C 1287.02 1053.79 1209.26 1082.26 1147.39 1126.98 C 1118.87 1147.66 1100.54 1163.49 1079.08 1191.75 C 1087.2 1170.57 1105.73 1142 1120.43 1123.87 C 1180.6 1049.64 1249.35 1011.29 1337.24 979.567 C 1388.58 960.793 1441.92 947.996 1496.19 941.43 z" fill="rgb(10,162,164)" transform="translate(0,0)"></path>
<path d="M 1332.69 1098.15 C 1391.43 1084.67 1495.32 1082.73 1554.85 1093.18 C 1565.38 1128.6 1589.54 1155.55 1617.19 1178.38 C 1619.66 1180.42 1625.42 1184.86 1627.4 1187.05 C 1627.91 1191.51 1629.04 1188.9 1626.91 1192 C 1627.6 1194.43 1627.81 1194.54 1629.24 1196.58 L 1630.31 1197.52 C 1630.99 1198.03 1631.64 1198.49 1632.1 1199.22 C 1632.02 1200.64 1625.56 1198.53 1624.69 1198.18 C 1622.78 1197.41 1622.37 1197.69 1621.33 1199.16 C 1594.16 1194.54 1554.62 1183.74 1526.7 1177.76 C 1439.19 1159 1375 1147.13 1285.98 1154.24 C 1285.66 1153.38 1285.7 1153.68 1285.71 1153.25 C 1288.41 1148.72 1307.06 1150.07 1311.12 1147.33 L 1311.1 1147.26 C 1308.68 1146.03 1298.62 1148.3 1293.71 1146.81 C 1291.35 1138.66 1285.83 1143.94 1287.51 1137.04 C 1291.43 1120.92 1278.59 1128.29 1277.6 1123.52 C 1279.07 1123.05 1283.43 1122.43 1284.95 1122.26 C 1287.38 1120.02 1282.56 1119.07 1289.05 1114.97 C 1289.89 1111.47 1292.07 1111.34 1295.47 1109.52 C 1295.98 1110.35 1297.36 1112.39 1298.52 1110.83 C 1298.41 1110.21 1297.61 1109.95 1297.34 1109.38 C 1297.38 1108.89 1304.69 1108.26 1307.01 1108.03 C 1313.86 1107.37 1318.87 1104.29 1324.75 1101.47 C 1325.46 1101.6 1327.03 1104.93 1329.23 1106.02 C 1331.55 1107.17 1342.48 1103.07 1342.93 1102 C 1342.68 1099.89 1335.98 1099.9 1332.69 1098.15 z" fill="rgb(235,229,215)" fill-opacity="0.984314" transform="translate(0,0)"></path>
<path d="M 675.969 1233.46 C 698.996 1233.02 719.504 1233.49 742.51 1234.09 C 742.475 1265.51 741.507 1296.97 741.079 1328.4 C 740.719 1354.8 743.643 1389.63 741.06 1415.23 C 708.991 1398.89 714.198 1387.61 699.14 1360.87 C 697.229 1358.95 696.999 1358.93 694.741 1357.34 C 692.968 1357.25 690.465 1357.02 689.402 1359.11 C 680.777 1376.05 664.485 1423.07 638.076 1414.15 C 634.051 1409.53 636.009 1362.89 636.01 1352.54 C 636.166 1313.07 635.973 1273.6 635.434 1234.13 L 675.969 1233.46 z" fill="rgb(249,164,26)" transform="translate(0,0)"></path>
<path d="M 627.205 1105.02 C 627.747 1104.9 628.292 1104.79 628.838 1104.69 C 629.469 1104.58 629.889 1104.64 630.484 1104.2 C 632.488 1102.75 640.931 1105.35 642.453 1102.39 C 642.082 1101.25 627.57 1097.41 626.901 1093.93 C 626.169 1090.12 622.083 1089.8 620.767 1088.43 L 620.964 1088 C 622.112 1087.4 635.025 1088.22 639.308 1087.89 C 724.381 1088.75 872.068 1136.6 926.295 1204.72 C 905.216 1196.72 885.714 1185.37 864.535 1177.45 C 789.47 1149.36 720.684 1145.44 642.138 1155.15 C 640.465 1154.98 639.074 1154.88 637.4 1154.98 L 636.249 1154.33 C 636.075 1154.42 635.901 1154.51 635.728 1154.61 C 636.357 1153.39 639.155 1148.95 639.148 1147.89 C 639.124 1144.38 644.181 1142 644.732 1140.46 C 642.59 1138.3 636.245 1143.43 631.207 1144.24 L 627.971 1144.76 C 625.303 1131.73 622.554 1136.47 618.31 1128.9 C 616.44 1125.56 615.912 1121.63 616.835 1117.91 C 617.91 1113.65 618.786 1111.52 617.491 1107.41 L 617.021 1105.82 C 619.268 1106.15 620.451 1107.35 621.068 1107.26 C 621.717 1106.72 621.209 1103.09 622.968 1104.46 C 624.933 1105.99 625.062 1106.25 627.205 1105.02 z" fill="url(#Gradient2)" transform="translate(0,0)"></path>
<path d="M 494.497 1092.96 C 505.114 1091.7 515.246 1090.39 525.94 1089.86 C 527.717 1094.33 537.499 1093.27 543.325 1095.33 C 551.832 1096.77 561.112 1099.61 569.991 1100.59 C 577.057 1101.37 582.271 1106.05 588.106 1109.29 C 590.963 1111.33 588.687 1116.78 587.443 1120.08 L 587.392 1120.13 C 587.228 1121.19 587.074 1120.81 587.403 1121.34 C 588.029 1121.26 588.692 1120.42 589.363 1120.11 C 589.836 1120.75 587.628 1122.13 588.51 1126.51 C 589.534 1131.59 591.221 1132.97 587.479 1134.83 C 587.534 1136.48 595.321 1140.45 596.458 1140.9 C 605.504 1144.51 601.279 1150.02 604.88 1155.14 C 606.491 1157.44 615.516 1157.6 619.325 1158.47 C 588.085 1163.6 557 1169.65 526.112 1176.6 C 518.202 1178.4 477.774 1188.37 471.167 1188.7 C 467.461 1187.44 462.485 1188.55 462.449 1188.51 C 456.36 1183.05 456.954 1187.85 450.513 1188.02 L 445.96 1188.1 C 439.557 1188.16 448.592 1179.48 436.77 1176.86 C 456.487 1158.38 467.134 1147.24 481.464 1124.11 C 482.123 1126.29 481.854 1126.14 482.124 1128 L 482.768 1128.53 L 482.727 1128.59 C 483.598 1128.84 487.098 1129.59 487.34 1127.69 C 487.664 1125.15 501.324 1123.53 497.471 1119.57 C 488.498 1118.81 489.403 1123.69 489.535 1108.55 C 491.428 1103.6 492.955 1098.07 494.497 1092.96 z M 461.616 1175.62 C 464.189 1172.47 462.028 1170.67 458.555 1170.36 C 456.568 1177.38 452.786 1179.01 461.616 1175.62 z" fill="url(#Gradient1)" transform="translate(0,0)"></path>
<path d="M 458.555 1170.36 C 462.028 1170.67 464.189 1172.47 461.616 1175.62 C 452.786 1179.01 456.568 1177.38 458.555 1170.36 z" fill="rgb(235,229,215)" fill-opacity="0.984314" transform="translate(0,0)"></path>
<path d="M 759.244 1235.9 C 805.73 1239.65 851.542 1249.35 895.554 1264.78 C 933.875 1278.61 996.383 1306.29 1014.32 1344.52 C 995.745 1338.36 971.937 1326.11 951.575 1318.83 C 885.532 1295.22 828.888 1285.88 759.413 1284.22 C 759.66 1268.43 759.313 1251.75 759.244 1235.9 z" fill="rgb(10,162,164)" transform="translate(0,0)"></path>
<path d="M 955.227 1326.65 C 980.113 1335.53 999.846 1343.72 1024.02 1353.9 C 1047.5 1341.51 1068.36 1334.63 1093.51 1326.86 C 1091.52 1336.19 1090.09 1341.7 1086.1 1350.23 C 1061.61 1389.45 997.855 1393.23 968 1357.77 C 960.703 1349.1 957.658 1337.53 955.227 1326.65 z" fill="rgb(10,162,164)" transform="translate(0,0)"></path>
<path d="M 543.325 1095.33 C 550.372 1092.57 562.571 1098.32 570.394 1097.31 C 576.465 1096.52 583.087 1104.06 584.989 1103.61 L 585.195 1103.27 C 584.436 1100.54 575.766 1096.11 580.863 1095.89 C 581.662 1095.86 588.336 1095.86 588.461 1095.71 C 588.912 1093.42 585.487 1092.93 584.224 1092.15 L 584.229 1092.13 C 585.82 1090.74 589.481 1090.26 590.485 1089.33 L 590.378 1089.39 C 590.271 1088.97 589.793 1087.89 589.962 1087.35 C 591.101 1086.53 597.84 1086.68 599.445 1086.7 C 601.93 1092.3 590.397 1091.59 600.686 1100.56 C 606.02 1105.21 610.872 1107.25 607.395 1114.96 C 599.882 1133.43 619.318 1133.02 616.776 1148.01 C 615.481 1155.65 621.63 1156.24 626.136 1157.47 C 623.874 1157.88 621.561 1157.94 619.325 1158.47 C 615.516 1157.6 606.491 1157.44 604.88 1155.14 C 601.279 1150.02 605.504 1144.51 596.458 1140.9 C 595.321 1140.45 587.534 1136.48 587.479 1134.83 C 591.221 1132.97 589.534 1131.59 588.51 1126.51 C 587.628 1122.13 589.836 1120.75 589.363 1120.11 C 588.692 1120.42 588.029 1121.26 587.403 1121.34 C 587.074 1120.81 587.228 1121.19 587.392 1120.13 L 587.443 1120.08 C 588.687 1116.78 590.963 1111.33 588.106 1109.29 C 582.271 1106.05 577.057 1101.37 569.991 1100.59 C 561.112 1099.61 551.832 1096.77 543.325 1095.33 z" fill="rgb(235,229,215)" fill-opacity="0.588235" transform="translate(0,0)"></path>
<path d="M 599.445 1086.7 C 601.311 1086.84 603.132 1086.92 604.999 1087.01 C 611.102 1092.9 600.637 1092.05 600.565 1094.66 C 602.732 1096.32 606.245 1093.62 609.098 1097.87 C 608.974 1097.69 616.69 1105.52 617.021 1105.82 L 617.491 1107.41 C 618.786 1111.52 617.91 1113.65 616.835 1117.91 C 615.912 1121.63 616.44 1125.56 618.31 1128.9 C 622.554 1136.47 625.303 1131.73 627.971 1144.76 C 627.262 1147.25 627.23 1148.26 628.804 1150.51 C 630.741 1153.27 626.788 1154.1 626.456 1155.48 C 627.098 1155.72 633.2 1155.95 634.473 1156.05 C 631.535 1156.67 629.076 1157.01 626.136 1157.47 C 621.63 1156.24 615.481 1155.65 616.776 1148.01 C 619.318 1133.02 599.882 1133.43 607.395 1114.96 C 610.872 1107.25 606.02 1105.21 600.686 1100.56 C 590.397 1091.59 601.93 1092.3 599.445 1086.7 z" fill="rgb(235,229,215)" fill-opacity="0.32549" transform="translate(0,0)"></path>
<path d="M 1257.43 1119.99 C 1263.58 1118.93 1272.41 1114.29 1278.93 1112.66 L 1279.89 1112.88 C 1281.74 1113.32 1287.86 1114.6 1289.05 1114.97 C 1282.56 1119.07 1287.38 1120.02 1284.95 1122.26 C 1283.43 1122.43 1279.07 1123.05 1277.6 1123.52 C 1278.59 1128.29 1291.43 1120.92 1287.51 1137.04 C 1285.83 1143.94 1291.35 1138.66 1293.71 1146.81 C 1298.62 1148.3 1308.68 1146.03 1311.1 1147.26 L 1311.12 1147.33 C 1307.06 1150.07 1288.41 1148.72 1285.71 1153.25 C 1285.7 1153.68 1285.66 1153.38 1285.98 1154.24 C 1282.84 1155.55 1273.71 1155.89 1269.74 1156.55 L 1271.16 1153.84 C 1278.69 1146.27 1276.03 1144.71 1275.08 1137.02 C 1277.25 1139.81 1277.14 1144.53 1281.33 1142.89 C 1281.38 1142.77 1281.43 1142.65 1281.47 1142.53 C 1277.95 1137.11 1282.89 1136.5 1282.46 1132.47 C 1280.68 1130.98 1276.92 1132.97 1274.58 1131.21 C 1266.03 1124.77 1275.28 1124.42 1263.69 1123.01 C 1261.48 1122.08 1259.68 1120.98 1257.43 1119.99 z" fill="rgb(235,229,215)" fill-opacity="0.611765" transform="translate(0,0)"></path>
<path d="M 525.94 1089.86 C 540.264 1086.93 602.674 1085.17 618.438 1086.77 C 615.596 1086.89 612.753 1086.95 609.908 1086.95 C 607.917 1086.89 606.994 1086.91 604.999 1087.01 C 603.132 1086.92 601.311 1086.84 599.445 1086.7 C 597.84 1086.68 591.101 1086.53 589.962 1087.35 C 589.793 1087.89 590.271 1088.97 590.378 1089.39 L 590.485 1089.33 C 589.481 1090.26 585.82 1090.74 584.229 1092.13 L 584.224 1092.15 C 585.487 1092.93 588.912 1093.42 588.461 1095.71 C 588.336 1095.86 581.662 1095.86 580.863 1095.89 C 575.766 1096.11 584.436 1100.54 585.195 1103.27 L 584.989 1103.61 C 583.087 1104.06 576.465 1096.52 570.394 1097.31 C 562.571 1098.32 550.372 1092.57 543.325 1095.33 C 537.499 1093.27 527.717 1094.33 525.94 1089.86 z" fill="rgb(235,229,215)" fill-opacity="0.6" transform="translate(0,0)"></path>
<path d="M 436.77 1176.86 C 448.592 1179.48 439.557 1188.16 445.96 1188.1 L 450.513 1188.02 C 456.954 1187.85 456.36 1183.05 462.449 1188.51 C 462.485 1188.55 467.461 1187.44 471.167 1188.7 C 465.062 1190.77 457.4 1192.24 450.984 1193.78 L 444.534 1195.29 C 435.742 1197.32 425.495 1199.98 416.772 1201.64 C 416.429 1201.42 416.087 1201.21 415.745 1200.99 C 415.479 1200.85 415.212 1200.71 414.946 1200.57 C 414.259 1200.1 414.328 1199.7 414.172 1198.87 C 419.235 1197.28 426.956 1194.58 431.365 1191.63 C 432.376 1190.95 434.254 1186.39 432.44 1186.11 C 425.71 1185.09 423.937 1193.84 416.118 1195.04 L 412.857 1195.52 C 419.625 1189.4 429.33 1182.81 436.77 1176.86 z" fill="rgb(235,229,215)" fill-opacity="0.988235" transform="translate(0,0)"></path>
<path d="M 1225.93 1135.25 C 1228.83 1133.39 1233.58 1131.03 1237.01 1130.47 C 1237.35 1130.66 1237.69 1130.85 1238.02 1131.04 C 1237.94 1132.26 1230.68 1133.79 1230.33 1136 C 1229.56 1140.9 1230.19 1142.89 1226.1 1146.7 C 1217.55 1154.69 1227.85 1153.79 1232.96 1152.08 C 1236.97 1150.74 1244.39 1146.21 1248.47 1149.13 C 1254.45 1153.42 1247.51 1154.68 1248.18 1159.89 C 1243.41 1160.59 1237.65 1162.63 1233.35 1162.96 C 1228.04 1159.9 1221.04 1157.55 1216.28 1154.52 C 1219.11 1143.26 1228.83 1144.55 1225.93 1135.25 z" fill="rgb(231,225,211)" fill-opacity="0.121569" transform="translate(0,0)"></path>
<path d="M 1239.44 1127.99 C 1246.84 1132.9 1236.46 1139.57 1239.96 1143.62 C 1242.37 1146.41 1256.46 1140.62 1257.19 1149.06 C 1257.47 1152.34 1253.96 1154.83 1252.68 1159.22 C 1251.18 1159.46 1249.68 1159.68 1248.18 1159.89 C 1247.51 1154.68 1254.45 1153.42 1248.47 1149.13 C 1244.39 1146.21 1236.97 1150.74 1232.96 1152.08 C 1227.85 1153.79 1217.55 1154.69 1226.1 1146.7 C 1230.19 1142.89 1229.56 1140.9 1230.33 1136 C 1230.68 1133.79 1237.94 1132.26 1238.02 1131.04 C 1237.69 1130.85 1237.35 1130.66 1237.01 1130.47 L 1239.44 1127.99 z" fill="rgb(231,225,211)" fill-opacity="0.184314" transform="translate(0,0)"></path>
<path d="M 1240.58 1126.99 C 1241.31 1127.31 1250.39 1132.68 1250.39 1132.66 C 1249.89 1139.93 1259.37 1139.52 1264.17 1139.41 C 1268.08 1139.67 1270.02 1144.78 1269.51 1145.39 C 1263.55 1152.36 1261.84 1155.25 1253.4 1159.01 L 1252.68 1159.22 C 1253.96 1154.83 1257.47 1152.34 1257.19 1149.06 C 1256.46 1140.62 1242.37 1146.41 1239.96 1143.62 C 1236.46 1139.57 1246.84 1132.9 1239.44 1127.99 L 1240.58 1126.99 z" fill="rgb(231,225,211)" fill-opacity="0.360784" transform="translate(0,0)"></path>
<path d="M 1278.93 1112.66 C 1280.12 1112.22 1281.31 1111.8 1282.51 1111.4 C 1292.68 1108.12 1322.55 1099.27 1332.69 1098.15 C 1335.98 1099.9 1342.68 1099.89 1342.93 1102 C 1342.48 1103.07 1331.55 1107.17 1329.23 1106.02 C 1327.03 1104.93 1325.46 1101.6 1324.75 1101.47 C 1318.87 1104.29 1313.86 1107.37 1307.01 1108.03 C 1304.69 1108.26 1297.38 1108.89 1297.34 1109.38 C 1297.61 1109.95 1298.41 1110.21 1298.52 1110.83 C 1297.36 1112.39 1295.98 1110.35 1295.47 1109.52 C 1292.07 1111.34 1289.89 1111.47 1289.05 1114.97 C 1287.86 1114.6 1281.74 1113.32 1279.89 1112.88 L 1278.93 1112.66 z" fill="rgb(231,225,211)" fill-opacity="0.831373" transform="translate(0,0)"></path>
<path d="M 1256.88 1122.24 C 1260.63 1124.9 1262.19 1126.83 1257.58 1129.15 C 1255.68 1130.1 1255.41 1132.58 1256.74 1134.05 C 1260.42 1138.79 1267.24 1133.15 1271.57 1137.41 C 1273.09 1138.91 1274.4 1142.12 1274.42 1144.19 C 1274.46 1148.21 1269.78 1150.17 1271.16 1153.84 L 1269.74 1156.55 C 1264.29 1157.35 1258.9 1158.67 1253.4 1159.01 C 1261.84 1155.25 1263.55 1152.36 1269.51 1145.39 C 1270.02 1144.78 1268.08 1139.67 1264.17 1139.41 C 1249.82 1134.79 1251.82 1135.88 1256.88 1122.24 z" fill="rgb(231,225,211)" fill-opacity="0.470588" transform="translate(0,0)"></path>
<path d="M 604.999 1087.01 C 606.994 1086.91 607.917 1086.89 609.908 1086.95 C 613.874 1088.31 618.77 1088.39 618.256 1093.53 C 617.959 1096.5 625.481 1101.66 627.205 1105.02 C 625.062 1106.25 624.933 1105.99 622.968 1104.46 C 621.209 1103.09 621.717 1106.72 621.068 1107.26 C 620.451 1107.35 619.268 1106.15 617.021 1105.82 C 616.69 1105.52 608.974 1097.69 609.098 1097.87 C 606.245 1093.62 602.732 1096.32 600.565 1094.66 C 600.637 1092.05 611.102 1092.9 604.999 1087.01 z" fill="rgb(235,229,215)" fill-opacity="0.266667" transform="translate(0,0)"></path>
<path d="M 1254.87 1121.72 L 1257.43 1119.99 C 1259.68 1120.98 1261.48 1122.08 1263.69 1123.01 C 1266.48 1124.38 1269.22 1124.99 1269.48 1128.55 C 1269.96 1135.01 1281.14 1131.42 1273.79 1136.2 C 1273.74 1136.86 1274.47 1136.82 1275.08 1137.02 C 1276.03 1144.71 1278.69 1146.27 1271.16 1153.84 C 1269.78 1150.17 1274.46 1148.21 1274.42 1144.19 C 1274.4 1142.12 1273.09 1138.91 1271.57 1137.41 C 1267.24 1133.15 1260.42 1138.79 1256.74 1134.05 C 1255.41 1132.58 1255.68 1130.1 1257.58 1129.15 C 1262.19 1126.83 1260.63 1124.9 1256.88 1122.24 L 1254.87 1121.72 z" fill="rgb(235,229,215)" fill-opacity="0.576471" transform="translate(0,0)"></path>
<path d="M 618.438 1086.77 C 625.974 1087.25 631.787 1086.53 639.308 1087.89 C 635.025 1088.22 622.112 1087.4 620.964 1088 L 620.767 1088.43 C 622.083 1089.8 626.169 1090.12 626.901 1093.93 C 627.57 1097.41 642.082 1101.25 642.453 1102.39 C 640.931 1105.35 632.488 1102.75 630.484 1104.2 C 629.889 1104.64 629.469 1104.58 628.838 1104.69 C 628.292 1104.79 627.747 1104.9 627.205 1105.02 C 625.481 1101.66 617.959 1096.5 618.256 1093.53 C 618.77 1088.39 613.874 1088.31 609.908 1086.95 C 612.753 1086.95 615.596 1086.89 618.438 1086.77 z" fill="rgb(235,229,215)" fill-opacity="0.117647" transform="translate(0,0)"></path>
<path d="M 627.971 1144.76 L 631.207 1144.24 C 636.245 1143.43 642.59 1138.3 644.732 1140.46 C 644.181 1142 639.124 1144.38 639.148 1147.89 C 639.155 1148.95 636.357 1153.39 635.728 1154.61 C 635.901 1154.51 636.075 1154.42 636.249 1154.33 L 637.4 1154.98 C 639.074 1154.88 640.465 1154.98 642.138 1155.15 C 638.97 1155.74 637.745 1155.94 634.473 1156.05 C 633.2 1155.95 627.098 1155.72 626.456 1155.48 C 626.788 1154.1 630.741 1153.27 628.804 1150.51 C 627.23 1148.26 627.262 1147.25 627.971 1144.76 z" fill="rgb(235,229,215)" fill-opacity="0.235294" transform="translate(0,0)"></path>
<path d="M 1627.4 1187.05 C 1634.68 1191.97 1641.13 1197.62 1648.74 1202.63 L 1643.69 1204.52 C 1643.24 1204.41 1642.78 1204.29 1642.33 1204.18 C 1636.57 1202.71 1630.78 1201.38 1624.96 1200.21 C 1622.89 1199.77 1623.17 1200.08 1621.33 1199.16 C 1622.37 1197.69 1622.78 1197.41 1624.69 1198.18 C 1625.56 1198.53 1632.02 1200.64 1632.1 1199.22 C 1631.64 1198.49 1630.99 1198.03 1630.31 1197.52 L 1629.24 1196.58 L 1631.11 1197.41 C 1639.74 1201.32 1635.22 1193.86 1626.91 1192 C 1629.04 1188.9 1627.91 1191.51 1627.4 1187.05 z" fill="rgb(235,229,215)" transform="translate(0,0)"></path>
<path d="M 489.535 1108.55 C 489.403 1123.69 488.498 1118.81 497.471 1119.57 C 501.324 1123.53 487.664 1125.15 487.34 1127.69 C 487.098 1129.59 483.598 1128.84 482.727 1128.59 L 482.768 1128.53 L 482.124 1128 C 481.854 1126.14 482.123 1126.29 481.464 1124.11 C 483.463 1119.55 487.131 1113.25 489.535 1108.55 z" fill="rgb(231,225,211)" fill-opacity="0.858824" transform="translate(0,0)"></path>
<path d="M 1254.87 1121.72 L 1256.88 1122.24 C 1251.82 1135.88 1249.82 1134.79 1264.17 1139.41 C 1259.37 1139.52 1249.89 1139.93 1250.39 1132.66 C 1250.39 1132.68 1241.31 1127.31 1240.58 1126.99 C 1244.62 1126.53 1250.92 1123.39 1254.87 1121.72 z" fill="rgb(231,225,211)" fill-opacity="0.427451" transform="translate(0,0)"></path>
<path d="M 412.857 1195.52 L 416.118 1195.04 C 423.937 1193.84 425.71 1185.09 432.44 1186.11 C 434.254 1186.39 432.376 1190.95 431.365 1191.63 C 426.956 1194.58 419.235 1197.28 414.172 1198.87 C 413.154 1197.22 413.024 1197.27 412.857 1195.52 z" fill="rgb(235,229,215)" fill-opacity="0.368627" transform="translate(0,0)"></path>
<path d="M 1263.69 1123.01 C 1275.28 1124.42 1266.03 1124.77 1274.58 1131.21 C 1276.92 1132.97 1280.68 1130.98 1282.46 1132.47 C 1282.89 1136.5 1277.95 1137.11 1281.47 1142.53 C 1281.43 1142.65 1281.38 1142.77 1281.33 1142.89 C 1277.14 1144.53 1277.25 1139.81 1275.08 1137.02 C 1274.47 1136.82 1273.74 1136.86 1273.79 1136.2 C 1281.14 1131.42 1269.96 1135.01 1269.48 1128.55 C 1269.22 1124.99 1266.48 1124.38 1263.69 1123.01 z" fill="rgb(235,229,215)" fill-opacity="0.6" transform="translate(0,0)"></path>
<path d="M 394.53 1206.81 C 398.786 1204.08 408.79 1196.94 412.857 1195.52 C 413.024 1197.27 413.154 1197.22 414.172 1198.87 C 414.328 1199.7 414.259 1200.1 414.946 1200.57 C 415.212 1200.71 415.479 1200.85 415.745 1200.99 C 416.087 1201.21 416.429 1201.42 416.772 1201.64 C 409.725 1203.79 401.768 1205.15 394.53 1206.81 z" fill="rgb(235,229,215)" transform="translate(0,0)"></path>
<path d="M 1216.28 1154.52 C 1221.04 1157.55 1228.04 1159.9 1233.35 1162.96 C 1230.29 1163.83 1227.22 1164.81 1224.15 1165.58 C 1222.75 1164.49 1216.11 1161.08 1216.44 1160.36 C 1220.3 1160.03 1217.36 1156.88 1216.28 1154.52 z" fill="rgb(231,225,211)" fill-opacity="0.0431373" transform="translate(0,0)"></path>
<path d="M 1126.27 1208.84 C 1129.53 1205.13 1135.5 1197.2 1139.67 1195.47 L 1141.43 1197.66 C 1141.46 1199.17 1141.01 1199.3 1139.66 1200.17 L 1126.27 1208.84 z" fill="rgb(231,225,211)" transform="translate(0,0)"></path>
<path d="M 1626.91 1192 C 1635.22 1193.86 1639.74 1201.32 1631.11 1197.41 L 1629.24 1196.58 C 1627.81 1194.54 1627.6 1194.43 1626.91 1192 z" fill="rgb(235,229,215)" fill-opacity="0.952941" transform="translate(0,0)"></path>
<path d="M 1648.74 1202.63 C 1649.8 1203.26 1651.91 1204.26 1652.4 1205.41 C 1651.92 1206.62 1644.9 1204.73 1643.69 1204.52 L 1648.74 1202.63 z" fill="rgb(231,225,211)" transform="translate(0,0)"></path>
<path d="M 1025.09 656.156 L 1027.62 656.909 C 1034.7 662.454 1033.05 730.895 1036.62 744.022 C 1038.62 751.38 1039.89 764.515 1043.64 773.361 C 1054.11 796.955 1069.57 821.53 1092.1 835.196 C 1098.98 839.37 1129 847.662 1129.87 855.093 C 1118.77 862.058 1097.81 858.769 1083.57 870.898 C 1052.74 897.388 1039.42 939.73 1033.36 978.66 C 1032.23 985.882 1030.54 1003.83 1025.93 1008.19 L 1023.65 1007.97 L 1022.07 1005.79 C 1013.98 969.497 1015.51 936.553 991.796 902.728 C 980.148 885.933 965.407 870.569 945.751 863.643 C 937.34 860.679 917.465 860.512 913.256 854.199 C 913.439 853.547 913.622 852.894 913.805 852.241 C 927.338 845.641 947.171 840.285 959.588 832.59 C 992.741 812.045 1009.45 771.598 1016.06 734.988 C 1020.15 712.389 1020.11 676.774 1025.09 656.156 z" fill="rgb(249,164,26)" transform="translate(0,0)"></path>
<path d="M 790.148 612.318 C 808.437 611.017 819.827 612.897 837.395 616.456 C 804.897 633.649 781.41 649.829 779.855 690.038 C 777.522 750.411 832.007 782.961 862.22 827.901 C 866.482 834.24 872.663 844.372 873.691 851.99 C 860.745 841.657 849.877 828.05 836.195 817.738 C 819.305 805.007 801.436 795.184 784.087 783.209 C 739.299 752.292 711.194 685.788 745.29 637.222 C 756.526 621.257 771.551 615.123 790.148 612.318 z" fill="rgb(10,162,164)" transform="translate(0,0)"></path>
<path d="M 1324.7 765.476 C 1336.81 768.159 1356.5 784.394 1364.08 794.54 C 1372.66 806.061 1376.18 820.576 1373.84 834.746 C 1371.9 846.068 1366.94 855.034 1359.65 863.819 C 1332.57 896.424 1290.55 888.263 1253.06 899.693 C 1220.82 909.523 1192.4 923.272 1164.58 942.209 C 1157.29 947.827 1150.09 953.768 1142.02 958.144 C 1142.13 957.898 1142.24 957.652 1142.35 957.406 L 1142.93 956.185 C 1162.25 914.915 1220.23 872.029 1263.72 858.142 C 1289.7 849.848 1330.29 844.98 1337.03 814.376 C 1341.3 795.002 1334.55 780.382 1324.7 765.476 z" fill="rgb(10,162,164)" transform="translate(0,0)"></path>
<path d="M 1214.86 622.006 C 1286.25 590.414 1341.9 650.544 1313.69 720.876 C 1287.09 787.21 1221.53 799.416 1178.95 851.324 L 1176.11 849.294 C 1185.25 832.817 1196.08 817.332 1208.42 803.086 C 1225.98 782.632 1243.67 766.617 1257.99 742.959 C 1280.99 704.974 1278.15 641.683 1229.44 625.644 C 1224.65 624.102 1219.75 623.062 1214.86 622.006 z" fill="rgb(10,162,164)" transform="translate(0,0)"></path>
<path d="M 724.338 766.849 L 725.217 766.981 L 725.58 768.189 L 722.853 771.894 C 706.776 793.591 706.226 823.074 732.865 836.701 C 747.8 844.341 763.816 848.954 779.514 854.775 C 832.875 874.561 878.669 908.436 902.491 961.415 C 895.604 956.031 889.399 950.663 882.809 944.953 C 852.604 921.61 815.83 901.853 777.648 894.487 C 737.646 886.771 685.598 884.559 675.95 834.435 C 669.61 801.501 697.423 779.392 724.338 766.849 z" fill="rgb(10,162,164)" transform="translate(0,0)"></path>
<path d="M 1131.01 657.549 C 1133.99 661.522 1136.54 684.917 1139.68 693.433 C 1144.54 709.168 1153.78 721.453 1169.32 727.909 C 1174.62 730.11 1189.58 734.595 1190.76 740.444 C 1188.1 744.96 1171.67 746.324 1162.22 753.416 C 1141.84 768.722 1140.14 789.778 1135.7 812.808 C 1135.19 812.961 1133.13 813.112 1132.51 813.173 C 1126.07 808.966 1126.45 788.793 1119.82 778.462 C 1115.56 770.688 1103.94 757.551 1096.02 753.311 C 1061.15 734.645 1083.62 736.764 1104.43 717.767 C 1121.49 702.188 1125.38 680.527 1131.01 657.549 z" fill="rgb(249,164,26)" transform="translate(0,0)"></path>
<path d="M 913.103 656.6 C 916.791 659.801 923.131 705.094 937.985 719.75 C 949.9 731.507 955.398 733.347 969.177 743.029 C 941.436 752.109 927.813 765.377 920.448 794.207 C 918.598 801.447 916.485 811.651 913.594 818.329 C 904.62 810.591 906.81 784.596 895.023 770.689 C 882.318 755.699 872.443 749.963 855.987 739.22 C 860.253 736.575 869.017 732.862 874.311 729.743 C 905.505 711.361 905.002 687.647 913.103 656.6 z" fill="rgb(249,164,26)" transform="translate(0,0)"></path>
<path d="M 1178.95 851.324 C 1173.84 857.875 1172.92 856.79 1176.11 849.294 L 1178.95 851.324 z" fill="rgb(50,190,189)" fill-opacity="0.972549" transform="translate(0,0)"></path>
<metadata><recraft-signature>{"signed_by": "recraft", "signature_b64": "e1T332ROUZkx41NNZjR439/tXdyZn9zxFBuwuBLF+AEud+dCKleOYIdNZ3ZUpiOn6DNJqjac/6HCx69s18hxDg==", "signing_algo": "Ed25519", "generation_timestamp": 1780052539, "identifier": "202769aa-5534-4e46-9646-a20fc7c27aa5"}</recraft-signature></metadata></svg>