<svg xmlns="http://www.w3.org/2000/svg" height="1024" preserveAspectRatio="none" style="display: block;" version="1.1" viewBox="0 0 2048 2048" width="1024">
<defs>
	<linearGradient gradientUnits="userSpaceOnUse" id="Gradient1" x1="718.378" x2="663.811" y1="641.277" y2="706.112">
		<stop class="stop0" offset="0" stop-color="rgb(197,199,208)" stop-opacity="1"></stop>
		<stop class="stop1" offset="1" stop-color="rgb(230,229,229)" stop-opacity="1"></stop>
	</linearGradient>
	<linearGradient gradientUnits="userSpaceOnUse" id="Gradient2" x1="689.477" x2="681.609" y1="1671.79" y2="2041.93">
		<stop class="stop0" offset="0" stop-color="rgb(9,135,159)" stop-opacity="1"></stop>
		<stop class="stop1" offset="1" stop-color="rgb(41,172,189)" stop-opacity="1"></stop>
	</linearGradient>
</defs>

<path d="M 1254.13 1552.1 C 1254.27 1554.62 1254.06 1556.42 1255.48 1558.44 L 1256.24 1556.78 L 1257.8 1553.4 C 1261.08 1546.09 1266.79 1539.76 1270.94 1532.8 C 1297.3 1488.69 1342.01 1464.28 1391.89 1454.94 C 1425.15 1448.71 1466.93 1448.98 1499.91 1439.44 C 1500.39 1439.2 1500.87 1438.97 1501.35 1438.73 L 1502.4 1438.2 L 1502.62 1438.92 C 1497.37 1442.14 1490.83 1447.11 1485.42 1449.6 C 1439.12 1470.88 1395.8 1466.26 1350.4 1492.29 C 1304 1518.9 1284.81 1560.76 1271.04 1610.77 C 1267.58 1623.68 1266 1638.3 1266.98 1651.61 C 1267.23 1656.36 1269.14 1673.31 1268.58 1676.35 C 1266.08 1673.56 1264.11 1670.34 1262.04 1667.21 L 1259.51 1666.41 L 1262.69 1678.04 C 1280.18 1702.85 1288.92 1744.24 1282.84 1773.97 C 1279.75 1789.07 1276.85 1796.99 1270.66 1810.86 C 1271.13 1816.16 1270.88 1821.12 1270.48 1826.41 C 1268.88 1847.83 1268.61 1868.61 1275.35 1889.35 C 1278.65 1899.38 1283.43 1908.85 1289.54 1917.46 C 1292.05 1920.99 1301.1 1930.95 1301.48 1933.54 C 1300.28 1934.17 1300.13 1934.36 1298.84 1934.7 C 1304.37 1934.77 1316.78 1942.34 1320.33 1945.21 C 1322.99 1951.41 1323.41 1950.15 1327.2 1954.94 C 1325.42 1957.92 1325.71 1958.28 1325.46 1961.85 C 1326.42 1963.03 1326.35 1962.81 1326.67 1964.2 C 1329.35 1965.36 1331.5 1963.27 1333.98 1961.61 C 1344.39 1970.32 1356.12 1977.18 1367.04 1985.15 C 1348.17 1998.19 1312.79 2012.53 1291.59 2025.61 C 1292.51 2027.23 1292.48 2027.74 1293.8 2028.71 C 1269.05 2035.64 1239.24 2039.92 1213.67 2044.27 C 1204.96 2045.76 1185.65 2046.33 1178.69 2048 L 1143.47 2048 L 834.863 2048 L 787.255 2048 L 0 2048 L 0 1970.84 L 0 1967.05 C 16.605 1960.5 63.3826 1956.16 83.6455 1953.7 C 133.993 1947.67 184.374 1941.92 234.785 1936.44 C 288.533 1950.81 356.069 1957.81 411.465 1953.95 L 412.512 1954.26 C 415.668 1955.2 416.202 1954.9 418.891 1956.6 C 426.675 1956.27 439.96 1954.04 447.992 1952.76 L 462.24 1950.55 C 461.098 1950.23 454.455 1949.57 454.55 1949.7 L 454.593 1949.63 C 456.808 1949.1 461.14 1948.62 456.316 1947.42 C 509.809 1937.3 569.026 1918.99 619.627 1898.94 C 667.553 1879.95 711.048 1842.04 753.689 1813.61 C 775.697 1798.8 799.102 1786.18 823.57 1775.93 C 885.018 1750.07 1023.49 1723.42 1067.73 1685.46 C 1072.9 1682.34 1084.27 1677.13 1090.04 1674.18 C 1107 1665.67 1123.74 1656.74 1140.24 1647.38 C 1191.88 1614.28 1218.3 1593.82 1250.24 1540.94 C 1251.43 1538.77 1252.16 1538.42 1253.99 1536.69 C 1254 1541.34 1253.8 1547.6 1254.13 1552.1 z" fill="rgb(36,165,184)" transform="translate(0,0)"></path>
<path d="M 1262.69 1678.04 C 1280.18 1702.85 1288.92 1744.24 1282.84 1773.97 C 1279.75 1789.07 1276.85 1796.99 1270.66 1810.86 C 1271.13 1816.16 1270.88 1821.12 1270.48 1826.41 C 1268.88 1847.83 1268.61 1868.61 1275.35 1889.35 C 1278.65 1899.38 1283.43 1908.85 1289.54 1917.46 C 1292.05 1920.99 1301.1 1930.95 1301.48 1933.54 C 1300.28 1934.17 1300.13 1934.36 1298.84 1934.7 C 1304.37 1934.77 1316.78 1942.34 1320.33 1945.21 C 1322.99 1951.41 1323.41 1950.15 1327.2 1954.94 C 1325.42 1957.92 1325.71 1958.28 1325.46 1961.85 C 1326.42 1963.03 1326.35 1962.81 1326.67 1964.2 C 1329.35 1965.36 1331.5 1963.27 1333.98 1961.61 C 1344.39 1970.32 1356.12 1977.18 1367.04 1985.15 C 1348.17 1998.19 1312.79 2012.53 1291.59 2025.61 C 1292.51 2027.23 1292.48 2027.74 1293.8 2028.71 C 1269.05 2035.64 1239.24 2039.92 1213.67 2044.27 C 1204.96 2045.76 1185.65 2046.33 1178.69 2048 L 1143.47 2048 L 834.863 2048 L 787.255 2048 L 0 2048 L 0 1970.84 L 0 1967.05 C 16.605 1960.5 63.3826 1956.16 83.6455 1953.7 C 133.993 1947.67 184.374 1941.92 234.785 1936.44 C 288.533 1950.81 356.069 1957.81 411.465 1953.95 L 412.512 1954.26 C 415.668 1955.2 416.202 1954.9 418.891 1956.6 L 410.462 1958.05 C 413.708 1958.7 416.911 1959.27 420.15 1959.96 C 439.849 1961.05 461.363 1963.46 480.812 1963.93 C 527.452 1965.05 574.855 1966.39 621.485 1966.86 L 692.657 1967.03 C 705.676 1967.03 726.894 1966.5 739.201 1968.63 C 750.513 1972.51 786.074 1979.32 799.111 1981.85 C 835.447 1988.89 871.25 1992.12 908.024 1986.37 C 949.647 1979.85 972.79 1961.15 1008.95 1946.57 C 1063.97 1924.39 1130.11 1905.62 1179.5 1871.98 C 1230.82 1837.03 1272.64 1786.31 1267.8 1720.71 C 1266.73 1706.13 1263.27 1693.32 1262.24 1679.55 C 1262.39 1679.05 1262.54 1678.54 1262.69 1678.04 z" fill="url(#Gradient2)" transform="translate(0,0)"></path>
<path d="M 0 1970.84 C 26.0684 1972.33 58.6079 1971.33 83.6318 1976.27 C 122.781 1984 156.839 1994.3 197.441 1995.21 C 221.533 1995.8 245.633 1994.47 269.514 1991.23 C 294.896 1987.62 318.847 1978.54 344.946 1982.37 C 397.765 1990.13 428.32 2017.09 484.405 2019.96 C 549.213 2023.28 606.952 1996.67 670.074 2004.1 C 690.906 2006.55 722.34 2026.35 742.556 2034.95 C 758.135 2041.57 770.621 2044.46 787.255 2048 L 0 2048 L 0 1970.84 z" fill="rgb(254,254,254)" transform="translate(0,0)"></path>
<path d="M 1270.66 1810.86 C 1271.13 1816.16 1270.88 1821.12 1270.48 1826.41 C 1268.88 1847.83 1268.61 1868.61 1275.35 1889.35 C 1278.65 1899.38 1283.43 1908.85 1289.54 1917.46 C 1292.05 1920.99 1301.1 1930.95 1301.48 1933.54 C 1300.28 1934.17 1300.13 1934.36 1298.84 1934.7 C 1304.37 1934.77 1316.78 1942.34 1320.33 1945.21 C 1322.99 1951.41 1323.41 1950.15 1327.2 1954.94 C 1325.42 1957.92 1325.71 1958.28 1325.46 1961.85 C 1326.42 1963.03 1326.35 1962.81 1326.67 1964.2 C 1291.81 1957.8 1246.93 1945.96 1234.09 1907.24 C 1221.69 1869.85 1254.05 1841.43 1270.66 1810.86 z" fill="rgb(226,172,86)" transform="translate(0,0)"></path>
<path d="M 1298.84 1934.7 C 1304.37 1934.77 1316.78 1942.34 1320.33 1945.21 C 1322.99 1951.41 1323.41 1950.15 1327.2 1954.94 C 1325.42 1957.92 1325.71 1958.28 1325.46 1961.85 C 1319.53 1958.51 1297.62 1941.94 1298.84 1934.7 z" fill="rgb(25,156,184)" transform="translate(0,0)"></path>
<path d="M 834.863 2048 C 848.966 2045.26 863.795 2044.71 877.796 2041.51 C 926.753 2030.31 975.713 2016.75 1026.49 2022.18 C 1060.32 2025.8 1091.65 2038.82 1124.91 2045.04 C 1130.89 2046.15 1137.75 2046.67 1143.47 2048 L 834.863 2048 z" fill="rgb(254,254,254)" transform="translate(0,0)"></path>
<path d="M 420.15 1959.96 C 416.071 1960.14 411.986 1960.1 407.91 1959.86 C 406.794 1959.78 406.568 1959.71 405.889 1958.95 L 405.965 1958.48 C 407.121 1957.69 409.151 1957.91 410.462 1958.05 C 413.708 1958.7 416.911 1959.27 420.15 1959.96 z" fill="rgb(120,196,209)" transform="translate(0,0)"></path>
<path d="M 1254.13 1552.1 C 1254.27 1554.62 1254.06 1556.42 1255.48 1558.44 L 1256.24 1556.78 L 1257.8 1553.4 C 1261.08 1546.09 1266.79 1539.76 1270.94 1532.8 C 1297.3 1488.69 1342.01 1464.28 1391.89 1454.94 C 1425.15 1448.71 1466.93 1448.98 1499.91 1439.44 C 1500.39 1439.2 1500.87 1438.97 1501.35 1438.73 L 1502.4 1438.2 L 1502.62 1438.92 C 1497.37 1442.14 1490.83 1447.11 1485.42 1449.6 C 1439.12 1470.88 1395.8 1466.26 1350.4 1492.29 C 1304 1518.9 1284.81 1560.76 1271.04 1610.77 C 1267.58 1623.68 1266 1638.3 1266.98 1651.61 C 1267.23 1656.36 1269.14 1673.31 1268.58 1676.35 C 1266.08 1673.56 1264.11 1670.34 1262.04 1667.21 L 1259.51 1666.41 L 1262.69 1678.04 C 1262.54 1678.54 1262.39 1679.05 1262.24 1679.55 C 1263.27 1693.32 1266.73 1706.13 1267.8 1720.71 C 1272.64 1786.31 1230.82 1837.03 1179.5 1871.98 C 1130.11 1905.62 1063.97 1924.39 1008.95 1946.57 C 972.79 1961.15 949.647 1979.85 908.024 1986.37 C 871.25 1992.12 835.447 1988.89 799.111 1981.85 C 786.074 1979.32 750.513 1972.51 739.201 1968.63 C 743.006 1967.42 776.623 1966.06 784.636 1965.27 C 825.957 1961.19 877.593 1955.48 916.333 1938.53 C 1000.12 1901.87 1098.15 1851.36 1157.05 1779.11 C 1171.12 1761.85 1185.09 1735.18 1193.73 1715.24 L 1190.99 1714.04 C 1192.27 1712.39 1193.58 1710.76 1194.92 1709.16 C 1221.05 1672.78 1239.32 1631.36 1248.57 1587.54 C 1251 1576.41 1253.56 1563.43 1253.01 1552.03 L 1254.13 1552.1 z" fill="rgb(204,205,212)" transform="translate(0,0)"></path>
<path d="M 1259.51 1666.41 C 1257.2 1660.32 1259.01 1657.42 1261.42 1665.26 L 1262.04 1667.21 L 1259.51 1666.41 z" fill="rgb(164,156,117)" transform="translate(0,0)"></path>
<path d="M 1194.92 1709.16 C 1194.92 1712.36 1195.04 1712.29 1193.73 1715.24 L 1190.99 1714.04 C 1192.27 1712.39 1193.58 1710.76 1194.92 1709.16 z" fill="rgb(215,214,216)" transform="translate(0,0)"></path>
<path d="M 1095.84 1881.78 C 1145.21 1865.86 1174.71 1842.88 1210.4 1806.46 C 1231.95 1784.46 1247.65 1763.13 1251.17 1731.24 C 1251.72 1726.3 1252.52 1719.47 1254.17 1714.78 C 1257.61 1750.41 1249.79 1773.35 1227.19 1801.16 C 1199.2 1835.61 1166.29 1855.96 1126.09 1873.43 C 1116.53 1877.59 1106.68 1879.98 1097.5 1883.46 L 1095.84 1881.78 z" fill="rgb(7,135,157)" transform="translate(0,0)"></path>
<path d="M 1097.5 1883.46 C 1095.75 1883.83 1089.16 1885.76 1087.99 1885.35 C 1083.9 1883.92 1095.49 1881.84 1095.84 1881.78 L 1097.5 1883.46 z" fill="rgb(105,170,193)" transform="translate(0,0)"></path>
<path d="M 1190.99 1714.04 L 1193.73 1715.24 C 1185.09 1735.18 1171.12 1761.85 1157.05 1779.11 C 1098.15 1851.36 1000.12 1901.87 916.333 1938.53 C 877.593 1955.48 825.957 1961.19 784.636 1965.27 C 776.623 1966.06 743.006 1967.42 739.201 1968.63 C 726.894 1966.5 705.676 1967.03 692.657 1967.03 L 621.485 1966.86 C 574.855 1966.39 527.452 1965.05 480.812 1963.93 C 461.363 1963.46 439.849 1961.05 420.15 1959.96 C 416.911 1959.27 413.708 1958.7 410.462 1958.05 L 418.891 1956.6 C 426.675 1956.27 439.96 1954.04 447.992 1952.76 L 462.24 1950.55 C 540.548 1941.21 620.594 1930.41 695.063 1903.44 C 731.148 1890.36 758.189 1880.82 795.766 1872.02 C 825.539 1864.99 855.503 1858.8 885.624 1853.45 C 925.958 1846.25 1001.5 1834.03 1038.38 1815.52 C 1094.49 1795.09 1153.14 1760.93 1190.99 1714.04 z" fill="rgb(254,254,254)" transform="translate(0,0)"></path>
<path d="M 811.706 1905.4 C 825.458 1902.5 853.389 1906.39 866.822 1911.1 C 842.809 1910.91 822.51 1910.36 798.505 1914.32 C 756.34 1921.28 718.772 1935.44 676.468 1943.76 C 666.928 1945.55 633.573 1950.22 626.357 1945.7 C 651.239 1942.2 663.757 1941.4 689.214 1934.65 C 730.331 1923.74 769.336 1909.95 811.706 1905.4 z" fill="rgb(215,214,216)" transform="translate(0,0)"></path>
<path d="M 1250.24 1540.94 C 1251.43 1538.77 1252.16 1538.42 1253.99 1536.69 C 1254 1541.34 1253.8 1547.6 1254.13 1552.1 L 1253.01 1552.03 C 1253.56 1563.43 1251 1576.41 1248.57 1587.54 C 1239.32 1631.36 1221.05 1672.78 1194.92 1709.16 C 1193.58 1710.76 1192.27 1712.39 1190.99 1714.04 C 1153.14 1760.93 1094.49 1795.09 1038.38 1815.52 C 1038.49 1814.07 1039.82 1810.73 1040.98 1809.79 C 1063.85 1791.33 1086.67 1776.45 1105.33 1752.99 C 1131.69 1719.84 1139.17 1688.68 1140.24 1647.38 C 1191.88 1614.28 1218.3 1593.82 1250.24 1540.94 z" fill="rgb(7,135,157)" transform="translate(0,0)"></path>
<path d="M 1144.11 233.941 C 1144.91 234.861 1145.69 235.791 1146.47 236.731 C 1147.91 237.7 1148.93 238.355 1150.4 239.242 C 1152.67 248.291 1152.04 253.185 1152.34 262.421 C 1153.14 273.307 1148.53 283.723 1143.54 293.244 C 1154.49 302.418 1166.01 330.891 1170.9 344.705 C 1120.93 361.573 1076.59 384.553 1050.92 434.024 C 1035.5 463.747 1030.44 501.714 1041.21 533.949 C 1051.73 564.473 1073.84 589.629 1102.77 603.973 C 1127.53 616.036 1149.28 618.476 1176.17 613.967 C 1174.64 628.197 1172.87 650.422 1169.66 663.748 C 1166.86 663.264 1148.09 667.333 1142.7 668.021 C 1133.2 669.155 1123.66 669.875 1114.1 670.179 C 1100.48 670.706 1086.8 670.452 1073.17 670.047 C 1004.29 667.997 922.138 674.505 863.865 715.231 C 839.207 732.111 819.389 755.144 806.378 782.046 C 803.048 788.92 798.855 800.462 795.91 806.038 C 794.567 797.087 795.159 785.642 793.576 775.205 C 788.037 738.686 776.282 701.06 754.337 670.971 C 751.013 666.413 742.669 658.844 738.385 654.864 C 719.964 630.313 719.403 618.143 709.133 592.298 C 696.064 586.762 690.02 575.744 685.339 563.113 C 684.897 560.954 684.738 554.274 684.614 551.731 C 685.645 533.278 689.921 527.514 700.518 512.988 C 703.893 491.692 705.437 484.81 713.266 465.056 C 709.478 454.168 708.766 451.211 709.203 439.767 C 713.351 409.767 732.917 387.554 756.122 369.494 C 761.793 365.08 768.492 361.902 774.264 357.678 L 775.846 356.509 C 784.821 353.31 794.392 348.791 803.584 345.302 C 878.401 316.91 957.668 328.058 1034.35 312.416 C 1077.22 303.672 1135.01 283.349 1144.11 233.941 z" fill="rgb(36,165,184)" transform="translate(0,0)"></path>
<path d="M 769.186 472.733 C 778.225 439.549 792.631 418.369 820.575 397.687 C 868.948 361.886 947.567 371.945 981.673 423.736 C 987.385 429.807 990.814 436.922 994.506 444.288 C 1026.35 507.827 991.798 586.688 925.384 609.925 C 920.828 611.52 915.601 613.088 910.851 613.803 C 878.816 620.306 851.012 615.56 823.15 597.952 C 795.923 581.03 776.602 553.913 769.497 522.652 C 764.681 523.274 758.994 527.474 754.747 529.832 C 731.317 542.842 712.121 564.652 709.133 592.298 C 696.064 586.762 690.02 575.744 685.339 563.113 C 684.897 560.954 684.738 554.274 684.614 551.731 C 685.645 533.278 689.921 527.514 700.518 512.988 C 723.307 491.423 739.497 483.217 769.186 472.733 z" fill="rgb(226,172,86)" transform="translate(0,0)"></path>
<path d="M 697.38 576.099 C 711.821 543.27 736.236 526.27 767.807 511.748 L 768.599 511.375 C 769.057 515.193 770.014 519.019 769.497 522.652 C 764.681 523.274 758.994 527.474 754.747 529.832 C 731.317 542.842 712.121 564.652 709.133 592.298 C 696.064 586.762 690.02 575.744 685.339 563.113 C 689.914 567.53 693.746 570.832 697.38 576.099 z" fill="rgb(186,138,68)" transform="translate(0,0)"></path>
<path d="M 905.736 610.414 C 850.467 619.13 796.958 586.757 779.028 533.755 C 761.097 480.754 783.961 422.544 833.17 395.914 C 882.378 369.283 943.615 381.981 978.179 425.981 C 1003.35 458.026 1009.66 501.01 994.765 538.94 C 979.867 576.869 945.99 604.067 905.736 610.414 z" fill="rgb(254,254,254)" transform="translate(0,0)"></path>
<path d="M 838.849 587.32 C 803.198 567.753 782.263 529.163 785.298 488.609 C 788.333 448.055 814.779 413.011 852.945 398.969 C 891.112 384.926 933.963 394.473 962.559 423.39 C 963.586 424.429 964.592 425.489 965.574 426.571 C 999.674 464.099 1001.66 520.775 970.266 560.596 C 938.873 600.416 883.3 611.717 838.849 587.32 z" fill="rgb(36,165,184)" transform="translate(0,0)"></path>
<path d="M 965.574 426.571 C 999.674 464.099 1001.66 520.775 970.266 560.596 C 938.873 600.416 883.3 611.717 838.849 587.32 C 847.989 586.817 861.104 592.871 870.703 593.709 C 959.257 601.442 1019.01 502.152 964.942 429.696 L 965.574 426.571 z" fill="rgb(7,135,157)" transform="translate(0,0)"></path>
<path d="M 962.559 423.39 C 963.586 424.429 964.592 425.489 965.574 426.571 L 964.942 429.696 C 963.576 426.358 962.764 428.029 962.559 423.39 z" fill="rgb(25,156,184)" transform="translate(0,0)"></path>
<path d="M 875.449 418.384 C 918.104 412.017 957.846 441.43 964.221 484.084 C 970.596 526.738 941.19 566.485 898.537 572.867 C 855.873 579.251 816.114 549.836 809.738 507.172 C 803.361 464.507 832.783 424.753 875.449 418.384 z" fill="rgb(254,254,254)" transform="translate(0,0)"></path>
<path d="M 878.956 433.223 C 883.814 432.852 888.043 432.634 892.919 432.801 C 910.778 433.314 927.678 440.996 939.807 454.113 C 951.513 466.98 957.59 483.991 956.686 501.362 C 955.552 520.059 946.938 537.512 932.788 549.785 C 919.2 561.714 902.529 566.882 884.602 565.66 C 883.072 565.517 881.545 565.333 880.025 565.108 C 839.35 558.883 819.599 523.591 825.483 484.651 C 859.291 509.879 889.896 466.727 858.757 441.309 C 865.824 437.137 871.179 435.273 878.956 433.223 z" fill="rgb(34,32,33)" transform="translate(0,0)"></path>
<path d="M 1144.11 233.941 C 1144.91 234.861 1145.69 235.791 1146.47 236.731 C 1147.91 237.7 1148.93 238.355 1150.4 239.242 C 1152.67 248.291 1152.04 253.185 1152.34 262.421 C 1153.14 273.307 1148.53 283.723 1143.54 293.244 C 1084 383.348 932.739 359.478 841.027 378.937 C 794.114 388.891 748.725 409.803 721.401 450.783 C 718.335 455.329 715.615 460.1 713.266 465.056 C 709.478 454.168 708.766 451.211 709.203 439.767 C 713.351 409.767 732.917 387.554 756.122 369.494 C 761.793 365.08 768.492 361.902 774.264 357.678 L 775.846 356.509 C 784.821 353.31 794.392 348.791 803.584 345.302 C 878.401 316.91 957.668 328.058 1034.35 312.416 C 1077.22 303.672 1135.01 283.349 1144.11 233.941 z" fill="rgb(226,172,86)" transform="translate(0,0)"></path>
<path d="M 1146.47 236.731 C 1147.91 237.7 1148.93 238.355 1150.4 239.242 C 1152.67 248.291 1152.04 253.185 1152.34 262.421 C 1153.14 273.307 1148.53 283.723 1143.54 293.244 C 1084 383.348 932.739 359.478 841.027 378.937 C 794.114 388.891 748.725 409.803 721.401 450.783 C 718.335 455.329 715.615 460.1 713.266 465.056 C 709.478 454.168 708.766 451.211 709.203 439.767 C 711.693 438.063 713.344 435.416 715.195 433.068 C 771.281 361.947 907.921 363.286 989.933 353.526 C 1044.65 347.014 1100.55 331.267 1135.9 285.78 C 1148.21 269.944 1148.94 255.901 1146.47 236.731 z" fill="rgb(186,138,68)" transform="translate(0,0)"></path>
<path d="M 380.07 1050.8 C 400.091 1011.66 432.199 980.012 471.628 960.559 C 530.809 931.763 611.362 934.006 672.784 955.472 L 675.001 952.788 C 677.72 954.067 678.923 954.808 679.657 957.589 C 735.612 984.38 753.308 995.091 792.382 1048.06 C 795.685 1054.84 799.066 1061.57 802.526 1068.27 C 804.668 1073.5 814.197 1098.05 816.642 1100.98 L 817.995 1101.97 C 811.941 1111.14 804.549 1121.72 799.49 1131.3 L 798.821 1129.7 C 794.606 1119.49 792.931 1111.31 787.476 1099.67 C 771.17 1065.22 742.891 1037.87 707.912 1022.72 C 630.851 989.755 524.585 1014.4 490.524 1096.57 C 478.87 1124.68 476.93 1167.75 490.248 1195.47 C 502.61 1240.37 529.7 1278.07 570.522 1300.7 C 598.728 1316.34 621.176 1319.78 651.398 1328.45 C 717.833 1347.49 772.97 1390.53 791.908 1459.52 C 792.87 1463.11 793.767 1466.72 794.597 1470.34 C 787 1490.31 779.271 1510.5 775.067 1531.52 C 768.053 1539.58 772.372 1554.52 764.137 1568.98 C 751.907 1590.43 713.582 1623.8 690.778 1629.94 C 688.529 1627.85 688.508 1628.02 685.573 1626.94 C 674.607 1628.82 683.883 1633.06 669.648 1638.18 C 634.561 1650.8 594.543 1642.93 565.678 1669.47 C 552.416 1681.66 554.396 1695.93 549.33 1701.51 L 547.568 1701.39 C 545.727 1698.12 545.577 1696.31 541.965 1695.85 C 539.483 1697.64 540.128 1697.69 537.436 1698.27 C 536.114 1691.94 542.777 1677.47 545.942 1671.96 C 569.915 1630.17 615 1629.36 656.682 1625.44 C 684.796 1622.8 728.985 1600.24 747.516 1578.93 C 755.665 1569.56 773.455 1542.78 771.196 1530.03 C 775.316 1502.35 773.365 1484.78 762.706 1458.59 C 739.467 1401.48 684.314 1374.41 628.813 1357.25 C 664.178 1382.51 691.877 1415.22 684.444 1462.92 C 678.97 1498.05 631.416 1526.34 604.704 1493.2 C 595.03 1481.2 606.624 1457.62 623.376 1463.26 C 629.768 1465.41 633.407 1475.4 630.637 1481.07 C 629.201 1478.39 626.09 1471.2 624.092 1469.87 C 620.25 1467.39 614.408 1466.71 611.531 1471 C 600.152 1487.97 621.392 1505.37 638.147 1500.62 C 664.644 1493.11 678.301 1467.99 670.277 1441.87 C 659.214 1406.02 620.979 1385.74 588.969 1370.94 C 537.272 1347.04 463.111 1318.57 445.681 1257.3 L 443.457 1260.58 C 453.603 1302.19 475.792 1332.73 512.951 1355.36 L 513.949 1355.96 L 511.91 1358.9 C 509.815 1357.66 500.178 1353.85 497.4 1352.82 C 407.291 1319.58 372.451 1183.72 431.074 1106.13 L 430.072 1103.7 C 381.381 1155.54 367.853 1204.07 391.672 1271.11 C 345.677 1216.69 343.414 1137.87 382.112 1079.05 C 420.891 1020.1 469.785 987.286 537.929 971.753 L 538.041 970 C 537.082 969.999 536.122 970.013 535.162 970.042 C 468.413 972.459 424.187 1003.72 380.07 1050.8 z" fill="rgb(36,165,184)" transform="translate(0,0)"></path>
<path d="M 430.072 1103.7 C 434.074 1099.22 438.415 1096.09 443.12 1092.46 C 439.247 1097.14 435.229 1101.69 431.074 1106.13 L 430.072 1103.7 z" fill="rgb(120,196,209)" transform="translate(0,0)"></path>
<path d="M 675.001 952.788 C 677.72 954.067 678.923 954.808 679.657 957.589 C 677.333 956.894 675.12 956.124 672.784 955.472 L 675.001 952.788 z" fill="rgb(254,254,254)" transform="translate(0,0)"></path>
<path d="M 538.041 970 C 549.728 967.623 551.33 970.544 537.929 971.753 L 538.041 970 z" fill="rgb(120,196,209)" transform="translate(0,0)"></path>
<path d="M 443.457 1260.58 C 443.255 1259.24 442.262 1254.75 442.785 1253.47 C 444.005 1252.65 444.89 1255.36 445.182 1256.1 L 445.681 1257.3 L 443.457 1260.58 z" fill="rgb(182,219,224)" transform="translate(0,0)"></path>
<path d="M 680.706 1622.19 C 681.409 1622.18 681.194 1622.44 681.555 1623.05 C 680.967 1622.8 680.989 1622.74 680.706 1622.19 z" fill="rgb(105,170,193)" transform="translate(0,0)"></path>
<path d="M 1722.97 535.992 L 1724.6 537.32 C 1675.19 635.696 1588.32 698.943 1490.44 744.111 C 1395.86 787.752 1331.47 814.821 1288.98 918.086 L 1291.11 917.996 C 1318.14 860.54 1374.61 824.208 1432.59 802.588 C 1474.99 786.781 1518.77 782.014 1564.04 789.571 C 1622.53 798.841 1676.44 863.827 1648.69 922.791 C 1638.46 944.532 1609.5 962.208 1586.44 950.251 C 1574.29 943.952 1565.63 929.001 1573.73 916.168 C 1577.37 910.354 1583.31 906.368 1590.07 905.21 C 1601.41 903.26 1609.28 908.515 1605.64 920.879 C 1604.19 918.447 1604.2 918.447 1603.42 915.703 C 1584.47 886.736 1561.88 946.167 1601.98 947.653 C 1629.51 948.674 1644.33 924.049 1643.58 898.67 C 1633.97 796.194 1506.75 789.52 1434.33 829.53 C 1398.26 849.462 1369.43 865.757 1341.21 896.375 C 1318.03 921.769 1297.02 948.815 1273.38 974.004 C 1257.95 990.455 1237.77 1004.54 1223.3 1020.52 C 1223.54 1023.29 1223.66 1023.95 1224.35 1026.64 C 1224.07 1027.13 1223.8 1027.61 1223.52 1028.1 C 1206.65 1102.82 1185.4 1140.68 1108.92 1171.87 C 1110.03 1137.57 1113.71 1103.41 1119.92 1069.67 L 1110.52 1074.56 C 1109.88 1056.04 1112.58 1035.97 1113.03 1017.4 L 1113.45 1016.83 C 1115.51 992.454 1116.68 968.93 1119.03 944.162 C 1148.6 932.415 1204.39 908.023 1229.12 887.622 C 1226.11 887.535 1223.93 887.794 1221.09 889.011 C 1188.79 902.852 1155.53 919.778 1122.6 931.912 C 1125.1 900.343 1137.15 857.68 1148.79 828.538 C 1153.3 825.539 1185.36 815.199 1192.38 812.79 C 1206.44 807.935 1220.41 802.805 1234.27 797.404 C 1277.68 780.622 1318.64 761.084 1363 746.03 C 1487.71 703.706 1655.66 663.383 1722.97 535.992 z" fill="rgb(7,135,157)" transform="translate(0,0)"></path>
<path d="M 1371.65 775.259 L 1372.26 777.104 C 1337.04 802.951 1327.7 813.8 1301.73 848.275 C 1290.53 858.152 1270.66 886.508 1258.85 899.612 C 1217.3 946.563 1168.15 986.189 1113.45 1016.83 C 1115.51 992.454 1116.68 968.93 1119.03 944.162 C 1148.6 932.415 1204.39 908.023 1229.12 887.622 C 1248.66 878.22 1280.09 842.384 1297.25 827.199 C 1321.01 806.185 1343.99 790.878 1371.65 775.259 z" fill="rgb(204,205,212)" transform="translate(0,0)"></path>
<path d="M 1301.73 848.275 C 1295.75 861.398 1285.38 875.543 1279.18 888.527 C 1236.07 978.803 1204.62 1017.02 1119.92 1069.67 L 1110.52 1074.56 C 1109.88 1056.04 1112.58 1035.97 1113.03 1017.4 L 1113.45 1016.83 C 1168.15 986.189 1217.3 946.563 1258.85 899.612 C 1270.66 886.508 1290.53 858.152 1301.73 848.275 z" fill="rgb(186,138,68)" transform="translate(0,0)"></path>
<path d="M 1288.98 918.086 L 1291.11 917.996 C 1290.34 919.84 1285.9 930.768 1284.72 931.123 C 1283.97 929.731 1288.23 919.628 1288.98 918.086 z" fill="rgb(120,196,209)" transform="translate(0,0)"></path>
<path d="M 1371.65 775.259 C 1380.54 767.868 1388.12 769.508 1372.26 777.104 L 1371.65 775.259 z" fill="rgb(120,196,209)" transform="translate(0,0)"></path>
<path d="M 1121.79 833.479 C 1130.68 800.979 1148.41 779.082 1178.42 763.797 C 1215.27 745.418 1260.12 733.35 1299.81 723.106 C 1451.76 683.879 1621.53 659.484 1714.01 516.079 C 1727.37 495.364 1734.86 476.944 1745.58 455.157 L 1746.27 457.103 C 1744.05 462.521 1741.83 468.427 1738.94 473.487 C 1732.98 483.911 1728.28 495.187 1722.49 505.779 C 1718.92 512.312 1714.67 516.974 1711.16 523.413 C 1716.32 523.463 1717.33 525.511 1722.99 526.374 C 1727.34 523.794 1727.71 518.701 1728.67 514.687 C 1729.68 514.888 1730.7 515.089 1731.72 515.289 C 1731.56 521.264 1725.75 529.737 1722.97 535.992 C 1655.66 663.383 1487.71 703.706 1363 746.03 C 1318.64 761.084 1277.68 780.622 1234.27 797.404 C 1220.41 802.805 1206.44 807.935 1192.38 812.79 C 1185.36 815.199 1153.3 825.539 1148.79 828.538 C 1137.15 857.68 1125.1 900.343 1122.6 931.912 C 1155.53 919.778 1188.79 902.852 1221.09 889.011 C 1223.93 887.794 1226.11 887.535 1229.12 887.622 C 1204.39 908.023 1148.6 932.415 1119.03 944.162 C 1077.92 960.681 1040.79 969.599 999.388 982.699 C 950.974 998.018 896.511 1025.19 858.744 1058.88 C 846.792 1069.55 828.161 1087.25 819.442 1100.56 L 817.995 1101.97 L 816.642 1100.98 C 814.197 1098.05 804.668 1073.5 802.526 1068.27 C 803.827 1061.03 803.168 1047.9 803.326 1039.99 C 806.246 894.633 1009.69 857.517 1121.79 833.479 z" fill="rgb(215,214,216)" transform="translate(0,0)"></path>
<path d="M 817.294 1097.14 C 811.513 1083.98 817.261 1043.37 821.815 1028.75 C 851.033 934.975 973.646 893.226 1056.96 863.068 C 1083.66 853.406 1124.75 841.12 1148.79 828.538 C 1137.15 857.68 1125.1 900.343 1122.6 931.912 C 1155.53 919.778 1188.79 902.852 1221.09 889.011 C 1223.93 887.794 1226.11 887.535 1229.12 887.622 C 1204.39 908.023 1148.6 932.415 1119.03 944.162 C 1077.92 960.681 1040.79 969.599 999.388 982.699 C 950.974 998.018 896.511 1025.19 858.744 1058.88 C 846.792 1069.55 828.161 1087.25 819.442 1100.56 L 817.995 1101.97 L 816.642 1100.98 L 817.294 1097.14 z" fill="rgb(36,165,184)" transform="translate(0,0)"></path>
<path d="M 817.294 1097.14 L 819.442 1100.56 L 817.995 1101.97 L 816.642 1100.98 L 817.294 1097.14 z" fill="rgb(25,156,184)" transform="translate(0,0)"></path>
<path d="M 1224.35 1026.64 L 1228.21 1052.61 C 1228.02 1065.37 1226.25 1099.31 1222.35 1110.34 C 1219.26 1129 1204.65 1156.6 1192.92 1171.35 C 1172.71 1196.76 1139.35 1218.78 1109.77 1232.7 L 1109.24 1233.43 C 1078.73 1247.76 1052.94 1257.53 1020.08 1266.01 C 928.083 1289.75 847.131 1345.26 810.499 1435.87 L 802.663 1421.82 C 797.37 1412.05 792.899 1402.12 788.229 1392.04 C 784.811 1384.93 781.651 1377.28 778.517 1370.01 C 777.734 1362.98 774.632 1353.79 773.416 1346.35 C 754.863 1232.81 855.151 1168.72 947.794 1135.25 C 979.67 1123.73 1011.76 1115.38 1043.07 1104.18 C 1066.21 1095.87 1088.74 1085.97 1110.52 1074.56 L 1119.92 1069.67 C 1113.71 1103.41 1110.03 1137.57 1108.92 1171.87 C 1185.4 1140.68 1206.65 1102.82 1223.52 1028.1 C 1223.8 1027.61 1224.07 1027.13 1224.35 1026.64 z" fill="rgb(36,165,184)" transform="translate(0,0)"></path>
<path d="M 788.229 1392.04 C 789.143 1380.57 788.956 1366.76 790.409 1355.97 C 794.993 1321.91 817.711 1271.82 844.838 1249.92 C 887.906 1215.16 978.489 1186.62 1033.13 1185.56 C 929.531 1222.01 832.896 1260.08 810.084 1378.79 C 809.202 1383.38 803.758 1419.94 802.663 1421.82 C 797.37 1412.05 792.899 1402.12 788.229 1392.04 z" fill="rgb(7,135,157)" transform="translate(0,0)"></path>
<path d="M 1106.66 1208.76 C 1153.9 1190.8 1193.51 1158.08 1219.27 1114.42 C 1220.74 1111.93 1219.54 1112.27 1222.35 1110.34 C 1219.26 1129 1204.65 1156.6 1192.92 1171.35 C 1172.71 1196.76 1139.35 1218.78 1109.77 1232.7 C 1106.77 1227.28 1106.85 1215.02 1106.66 1208.76 z" fill="rgb(7,135,157)" transform="translate(0,0)"></path>
<path d="M 1259.51 1666.41 L 1262.04 1667.21 C 1264.11 1670.34 1266.08 1673.56 1268.58 1676.35 L 1269.18 1677.5 C 1276.21 1690.75 1285.69 1702.62 1292.82 1716.5 C 1296.73 1724.11 1303.48 1748.41 1306.29 1752.02 C 1316.25 1762.8 1320.63 1772.64 1328.62 1784.24 C 1340.06 1800.84 1357.98 1818.7 1373.77 1831.75 C 1380.89 1837.53 1403.47 1855.16 1411.87 1858.32 C 1495.38 1908.3 1601.97 1926.82 1698.32 1930.24 C 1731.5 1931.41 1764.71 1924.7 1797.09 1927.42 C 1816.65 1929.07 1845.93 1938.03 1865.73 1943.55 C 1868.53 1949.03 1880.77 1953.17 1886.54 1955.02 C 1898.62 1958.91 1910.94 1961.98 1923.43 1964.23 C 1929.49 1965.36 1947.95 1967.26 1951.06 1971.55 C 1918.3 1977.11 1884.5 1982.52 1851.18 1978.18 C 1820.32 1974.16 1795.96 1966.71 1763.95 1968.19 C 1729.98 1969.76 1710.04 1980.97 1679.38 1991.36 C 1660.2 1997.89 1640.39 2002.42 1620.27 2004.89 C 1588.31 2008.72 1549.09 2008.75 1517.08 2005.36 C 1477.75 2001.19 1445.79 1995.45 1405.75 1998.26 C 1362.68 2001.29 1333.15 2018.91 1293.8 2028.71 C 1292.48 2027.74 1292.51 2027.23 1291.59 2025.61 C 1312.79 2012.53 1348.17 1998.19 1367.04 1985.15 C 1356.12 1977.18 1344.39 1970.32 1333.98 1961.61 C 1331.5 1963.27 1329.35 1965.36 1326.67 1964.2 C 1326.35 1962.81 1326.42 1963.03 1325.46 1961.85 C 1325.71 1958.28 1325.42 1957.92 1327.2 1954.94 C 1323.41 1950.15 1322.99 1951.41 1320.33 1945.21 C 1316.78 1942.34 1304.37 1934.77 1298.84 1934.7 C 1300.13 1934.36 1300.28 1934.17 1301.48 1933.54 C 1301.1 1930.95 1292.05 1920.99 1289.54 1917.46 C 1283.43 1908.85 1278.65 1899.38 1275.35 1889.35 C 1268.61 1868.61 1268.88 1847.83 1270.48 1826.41 C 1270.88 1821.12 1271.13 1816.16 1270.66 1810.86 C 1276.85 1796.99 1279.75 1789.07 1282.84 1773.97 C 1288.92 1744.24 1280.18 1702.85 1262.69 1678.04 L 1259.51 1666.41 z" fill="rgb(7,135,157)" transform="translate(0,0)"></path>
<path d="M 1259.51 1666.41 L 1262.04 1667.21 C 1264.11 1670.34 1266.08 1673.56 1268.58 1676.35 L 1269.18 1677.5 C 1276.21 1690.75 1285.69 1702.62 1292.82 1716.5 C 1296.73 1724.11 1303.48 1748.41 1306.29 1752.02 C 1305.82 1761.14 1308.95 1777.91 1310.4 1787.17 C 1316.62 1826.73 1326.71 1863.19 1354.63 1893.48 C 1389.78 1931.63 1437.85 1952.88 1489.32 1955.39 C 1510.85 1956.29 1532.43 1955.31 1553.79 1952.45 L 1554.03 1955.19 C 1542.79 1959.61 1529.57 1964.67 1517.57 1967.35 C 1471.28 1977.69 1416.07 1973.92 1370.01 1963.07 C 1353.6 1959.2 1335.68 1951.68 1320.33 1945.21 C 1316.78 1942.34 1304.37 1934.77 1298.84 1934.7 C 1300.13 1934.36 1300.28 1934.17 1301.48 1933.54 C 1301.1 1930.95 1292.05 1920.99 1289.54 1917.46 C 1283.43 1908.85 1278.65 1899.38 1275.35 1889.35 C 1268.61 1868.61 1268.88 1847.83 1270.48 1826.41 C 1270.88 1821.12 1271.13 1816.16 1270.66 1810.86 C 1276.85 1796.99 1279.75 1789.07 1282.84 1773.97 C 1288.92 1744.24 1280.18 1702.85 1262.69 1678.04 L 1259.51 1666.41 z" fill="rgb(186,138,68)" transform="translate(0,0)"></path>
<path d="M 1325.46 1961.85 C 1325.71 1958.28 1325.42 1957.92 1327.2 1954.94 L 1333.98 1961.61 C 1331.5 1963.27 1329.35 1965.36 1326.67 1964.2 C 1326.35 1962.81 1326.42 1963.03 1325.46 1961.85 z" fill="rgb(36,165,184)" transform="translate(0,0)"></path>
<path d="M 1553.79 1952.45 C 1554.76 1952.18 1559.54 1950.7 1560.31 1951.72 C 1559.89 1953.14 1555.38 1954.59 1554.03 1955.19 L 1553.79 1952.45 z" fill="rgb(164,156,117)" transform="translate(0,0)"></path>
<path d="M 1235.55 332.458 C 1247.27 331.736 1260.91 336.211 1267.93 345.978 C 1273.19 353.295 1274.42 364.293 1268.75 371.657 C 1283.29 384.805 1294.91 400.867 1302.84 418.8 C 1307.01 430.294 1309.8 438.93 1312.36 450.935 C 1319.48 449.494 1321.17 448.748 1327.28 452.098 C 1339.8 472.028 1336.53 482.002 1327.17 501.857 L 1324.01 505.364 C 1305.98 522.746 1290.39 535.643 1266.48 544.297 C 1255.48 563.755 1241.86 583.782 1222.15 595.462 C 1209.41 604.631 1191.49 610.931 1176.17 613.967 C 1149.28 618.476 1127.53 616.036 1102.77 603.973 C 1073.84 589.629 1051.73 564.473 1041.21 533.949 C 1030.44 501.714 1035.5 463.747 1050.92 434.024 C 1076.59 384.553 1120.93 361.573 1170.9 344.705 C 1186.89 340.264 1205.44 335.682 1222 334.082 C 1226.53 333.652 1231.05 333.11 1235.55 332.458 z" fill="rgb(254,254,254)" transform="translate(0,0)"></path>
<path d="M 1235.55 332.458 C 1247.27 331.736 1260.91 336.211 1267.93 345.978 C 1273.19 353.295 1274.42 364.293 1268.75 371.657 C 1283.29 384.805 1294.91 400.867 1302.84 418.8 C 1307.01 430.294 1309.8 438.93 1312.36 450.935 C 1312.87 454.992 1314.14 459.736 1315.11 463.78 C 1305.93 479.393 1292.63 491.18 1277.39 500.746 C 1275.3 449.567 1249.29 402.551 1199.8 383.868 C 1190.36 380.304 1176.27 379.418 1167.81 374.955 C 1171.46 373.908 1174.62 373.305 1178.35 372.561 C 1177.46 362.097 1175.46 357.076 1171.78 347.111 L 1170.9 344.705 C 1186.89 340.264 1205.44 335.682 1222 334.082 C 1226.53 333.652 1231.05 333.11 1235.55 332.458 z" fill="rgb(7,135,157)" transform="translate(0,0)"></path>
<path d="M 1235.55 332.458 C 1247.27 331.736 1260.91 336.211 1267.93 345.978 C 1273.19 353.295 1274.42 364.293 1268.75 371.657 C 1265.96 369.394 1262.7 365.944 1259.92 363.354 C 1226.44 361.765 1210.55 364.222 1178.35 372.561 C 1177.46 362.097 1175.46 357.076 1171.78 347.111 L 1170.9 344.705 C 1186.89 340.264 1205.44 335.682 1222 334.082 C 1226.53 333.652 1231.05 333.11 1235.55 332.458 z" fill="rgb(186,138,68)" transform="translate(0,0)"></path>
<path d="M 1158.88 381.794 C 1157.65 380.518 1158.14 381.347 1157.79 379.111 C 1160.46 376.402 1164.05 375.941 1167.81 374.955 C 1176.27 379.418 1190.36 380.304 1199.8 383.868 C 1249.29 402.551 1275.3 449.567 1277.39 500.746 C 1292.63 491.18 1305.93 479.393 1315.11 463.78 C 1314.14 459.736 1312.87 454.992 1312.36 450.935 C 1319.48 449.494 1321.17 448.748 1327.28 452.098 C 1339.8 472.028 1336.53 482.002 1327.17 501.857 L 1324.01 505.364 C 1305.98 522.746 1290.39 535.643 1266.48 544.297 C 1255.48 563.755 1241.86 583.782 1222.15 595.462 L 1221.83 594.166 C 1214.06 598.311 1206.15 602.183 1198.11 605.775 C 1205.27 601.127 1223.59 594.106 1226.15 587.082 C 1264.32 557.314 1279.72 506.8 1264.65 460.8 C 1249.57 414.799 1207.26 383.196 1158.88 381.794 z" fill="rgb(186,138,68)" transform="translate(0,0)"></path>
<path d="M 1170.9 344.705 L 1171.78 347.111 C 1175.46 357.076 1177.46 362.097 1178.35 372.561 C 1174.62 373.305 1171.46 373.908 1167.81 374.955 C 1164.05 375.941 1160.46 376.402 1157.79 379.111 C 1158.14 381.347 1157.65 380.518 1158.88 381.794 C 1108.27 380.328 1062.68 412.183 1046.65 460.204 C 1030.62 508.226 1047.94 561.078 1089.28 590.3 C 1130.62 619.522 1186.23 618.215 1226.15 587.082 C 1223.59 594.106 1205.27 601.127 1198.11 605.775 C 1206.15 602.183 1214.06 598.311 1221.83 594.166 L 1222.15 595.462 C 1209.41 604.631 1191.49 610.931 1176.17 613.967 C 1149.28 618.476 1127.53 616.036 1102.77 603.973 C 1073.84 589.629 1051.73 564.473 1041.21 533.949 C 1030.44 501.714 1035.5 463.747 1050.92 434.024 C 1076.59 384.553 1120.93 361.573 1170.9 344.705 z" fill="rgb(226,172,86)" transform="translate(0,0)"></path>
<path d="M 1110 589.048 C 1071.77 570.17 1048.97 529.854 1052.48 487.369 C 1055.99 444.884 1085.11 408.859 1125.91 396.514 C 1166.72 384.17 1210.92 398.013 1237.39 431.426 C 1239.17 433.673 1240.86 435.992 1242.45 438.379 C 1268.48 477.492 1265.01 529.211 1233.99 564.498 C 1202.97 599.786 1152.12 609.853 1110 589.048 z" fill="rgb(36,165,184)" transform="translate(0,0)"></path>
<path d="M 1242.45 438.379 C 1268.48 477.492 1265.01 529.211 1233.99 564.498 C 1202.97 599.786 1152.12 609.853 1110 589.048 C 1113.94 587.076 1129.47 591.952 1134.81 593.03 C 1193.7 604.927 1252.77 551.42 1251.93 492.48 C 1251.65 472.783 1247.36 457.128 1239.34 439.197 L 1242.45 438.379 z" fill="rgb(7,135,157)" transform="translate(0,0)"></path>
<path d="M 1237.39 431.426 C 1239.17 433.673 1240.86 435.992 1242.45 438.379 L 1239.34 439.197 C 1237.23 435.143 1236.2 435.317 1237.39 431.426 z" fill="rgb(25,156,184)" transform="translate(0,0)"></path>
<path d="M 1149.16 417.783 C 1192.04 415.067 1229.05 447.547 1231.91 490.421 C 1234.77 533.295 1202.42 570.41 1159.56 573.423 C 1116.48 576.45 1079.15 543.905 1076.27 500.821 C 1073.39 457.737 1106.07 420.514 1149.16 417.783 z" fill="rgb(254,254,254)" transform="translate(0,0)"></path>
<path d="M 1151.01 433.356 C 1154.98 433.024 1158.02 432.951 1162.02 433.232 C 1179.48 434.576 1195.69 442.811 1207.06 456.121 C 1218.37 469.52 1223.91 486.852 1222.48 504.325 C 1221.02 522.246 1212.36 538.812 1198.49 550.249 C 1182.72 563.314 1166 566.94 1146.06 565.127 C 1106.1 560.446 1086.75 523.441 1092.55 486.06 C 1099.16 489.219 1103.34 491.611 1111.14 491.493 C 1126.6 491.259 1139.34 478.349 1137.88 462.638 C 1136.96 452.717 1132.78 446.909 1125.35 440.599 C 1135.62 436.068 1139.9 434.663 1151.01 433.356 z" fill="rgb(34,32,33)" transform="translate(0,0)"></path>
<path d="M 1324.01 505.364 C 1324.24 544.425 1322.99 550.364 1311.39 587.907 C 1309.68 651.236 1260.73 708.268 1200.29 724.664 C 1190.79 729.422 1133.64 743.478 1121.57 745.894 C 1017.57 766.706 912.12 776.346 836.243 861.182 C 823.827 875.065 816.264 886.839 806.091 902.198 C 801.052 892.405 799.36 887.184 797.224 876.335 C 791.326 858.103 792.031 841.333 793.438 822.761 C 794.467 816.994 795.45 811.89 795.91 806.038 C 798.855 800.462 803.048 788.92 806.378 782.046 C 819.389 755.144 839.207 732.111 863.865 715.231 C 922.138 674.505 1004.29 667.997 1073.17 670.047 C 1086.8 670.452 1100.48 670.706 1114.1 670.179 C 1123.66 669.875 1133.2 669.155 1142.7 668.021 C 1148.09 667.333 1166.86 663.264 1169.66 663.748 C 1172.87 650.422 1174.64 628.197 1176.17 613.967 C 1191.49 610.931 1209.41 604.631 1222.15 595.462 C 1241.86 583.782 1255.48 563.755 1266.48 544.297 C 1290.39 535.643 1305.98 522.746 1324.01 505.364 z" fill="rgb(36,165,184)" transform="translate(0,0)"></path>
<path d="M 795.91 806.038 C 798.855 800.462 803.048 788.92 806.378 782.046 C 819.389 755.144 839.207 732.111 863.865 715.231 C 922.138 674.505 1004.29 667.997 1073.17 670.047 C 1086.8 670.452 1100.48 670.706 1114.1 670.179 C 1123.66 669.875 1133.2 669.155 1142.7 668.021 C 1148.09 667.333 1166.86 663.264 1169.66 663.748 C 1168.38 670.299 1165.63 685.683 1163.4 691.156 C 1157.61 700.023 1146.76 710.276 1138.69 717.295 C 1053.68 702.631 946.358 697.437 871.695 748.371 C 857.683 757.929 825.42 788.457 823.572 805.817 C 815.692 820.047 809.151 831.911 804.38 847.676 C 802.06 855.338 799.769 869.869 797.224 876.335 C 791.326 858.103 792.031 841.333 793.438 822.761 C 794.467 816.994 795.45 811.89 795.91 806.038 z" fill="rgb(226,172,86)" transform="translate(0,0)"></path>
<path d="M 1324.01 505.364 C 1324.24 544.425 1322.99 550.364 1311.39 587.907 C 1284.62 638.517 1252.99 666.048 1197.51 684.118 C 1190.8 686.305 1169.2 692.791 1163.4 691.156 C 1165.63 685.683 1168.38 670.299 1169.66 663.748 C 1172.87 650.422 1174.64 628.197 1176.17 613.967 C 1191.49 610.931 1209.41 604.631 1222.15 595.462 C 1241.86 583.782 1255.48 563.755 1266.48 544.297 C 1290.39 535.643 1305.98 522.746 1324.01 505.364 z" fill="rgb(7,135,157)" transform="translate(0,0)"></path>
<path d="M 1311.39 587.907 C 1309.68 651.236 1260.73 708.268 1200.29 724.664 C 1178.81 725.12 1157.18 728.261 1135.26 726.167 C 1012.48 714.433 910.419 697.97 823.572 805.817 C 825.42 788.457 857.683 757.929 871.695 748.371 C 946.358 697.437 1053.68 702.631 1138.69 717.295 C 1146.76 710.276 1157.61 700.023 1163.4 691.156 C 1169.2 692.791 1190.8 686.305 1197.51 684.118 C 1252.99 666.048 1284.62 638.517 1311.39 587.907 z" fill="rgb(186,138,68)" transform="translate(0,0)"></path>
<path d="M 1172.59 277.11 C 1171.12 268.391 1170.67 257.063 1171.56 248.29 C 1173.92 222.598 1186.73 199.003 1206.98 183.022 C 1263.73 137.844 1356.3 161.727 1398.21 215.368 C 1402.47 220.191 1404.55 222.709 1408.41 228.028 L 1409.09 228.985 L 1406.66 230.289 C 1416.18 248.841 1423.29 265.984 1425.03 287.08 C 1429.42 340.254 1404.72 400.559 1361.45 432.551 C 1352.75 438.975 1337.84 449.405 1327.28 452.098 C 1321.17 448.748 1319.48 449.494 1312.36 450.935 C 1309.8 438.93 1307.01 430.294 1302.84 418.8 C 1294.91 400.867 1283.29 384.805 1268.75 371.657 C 1274.42 364.293 1273.19 353.295 1267.93 345.978 C 1260.91 336.211 1247.27 331.736 1235.55 332.458 C 1231.05 333.11 1226.53 333.652 1222 334.082 C 1205.44 335.682 1186.89 340.264 1170.9 344.705 C 1166.01 330.891 1154.49 302.418 1143.54 293.244 C 1148.53 283.723 1153.14 273.307 1152.34 262.421 C 1160.22 266.623 1165.63 271.924 1172.59 277.11 z" fill="rgb(254,254,254)" transform="translate(0,0)"></path>
<path d="M 1172.59 277.11 C 1171.12 268.391 1170.67 257.063 1171.56 248.29 C 1173.92 222.598 1186.73 199.003 1206.98 183.022 C 1263.73 137.844 1356.3 161.727 1398.21 215.368 C 1402.47 220.191 1404.55 222.709 1408.41 228.028 L 1409.09 228.985 L 1406.66 230.289 C 1416.18 248.841 1423.29 265.984 1425.03 287.08 C 1429.42 340.254 1404.72 400.559 1361.45 432.551 C 1352.75 438.975 1337.84 449.405 1327.28 452.098 C 1321.17 448.748 1319.48 449.494 1312.36 450.935 C 1309.8 438.93 1307.01 430.294 1302.84 418.8 C 1322.57 406.762 1344.43 383.957 1356.45 365.445 C 1386.71 318.823 1383.37 244.842 1331.11 214.926 C 1315.76 206.142 1292.93 197.098 1280.12 216.054 C 1276.24 221.792 1277.39 230.904 1279.2 236.974 L 1279.59 238.242 C 1292.1 251.868 1298.65 247.602 1312.61 238.396 C 1303.79 252.238 1298.44 253.221 1283.16 250.172 C 1277.6 245.531 1274.18 242.059 1271.92 234.903 C 1269.74 227.968 1270.45 220.449 1273.88 214.04 C 1279.67 203.123 1288.28 200.126 1298.97 196.794 C 1249.87 185.839 1182.91 194.251 1173.57 257.934 C 1172.92 262.395 1174.71 273.946 1175.03 279.302 C 1174.08 278.503 1173.47 278.001 1172.59 277.11 z" fill="rgb(204,205,212)" transform="translate(0,0)"></path>
<path d="M 1398.21 215.368 C 1402.47 220.191 1404.55 222.709 1408.41 228.028 L 1409.09 228.985 L 1406.66 230.289 C 1403.05 224.741 1398.84 221.472 1398.21 215.368 z" fill="rgb(120,196,209)" transform="translate(0,0)"></path>
<path d="M 1152.34 262.421 C 1160.22 266.623 1165.63 271.924 1172.59 277.11 C 1173.47 278.001 1174.08 278.503 1175.03 279.302 C 1192.37 292.085 1217.58 317.53 1235.55 332.458 C 1231.05 333.11 1226.53 333.652 1222 334.082 C 1205.44 335.682 1186.89 340.264 1170.9 344.705 C 1166.01 330.891 1154.49 302.418 1143.54 293.244 C 1148.53 283.723 1153.14 273.307 1152.34 262.421 z" fill="rgb(7,135,157)" transform="translate(0,0)"></path>
<path d="M 778.295 1665.52 C 783.146 1661.83 784.649 1648.95 786.074 1642.74 C 788.21 1633.02 791.106 1623.5 794.736 1614.24 C 823.511 1540.65 901.834 1489.73 973.685 1464.06 C 1014.47 1449.49 1053.07 1438.35 1093.15 1420.82 C 1091.07 1447.5 1089.21 1474.2 1087.58 1500.92 C 1086.81 1512.27 1084.79 1529.18 1084.89 1539.71 C 1094.73 1534.24 1104.37 1528.42 1113.79 1522.27 C 1110.86 1538.52 1098.51 1564.74 1092.76 1580.65 C 1090.88 1585.83 1086.16 1595.5 1085.23 1600.52 L 1084.29 1601.31 C 1064.38 1609.7 1048.67 1615.94 1027.21 1620.57 C 1020.36 1615.82 920.415 1628.77 901.898 1625.5 C 885.416 1632.2 849.117 1653.42 837.326 1665.2 C 778.836 1687.34 735.814 1721.12 698.247 1770.71 C 714.781 1736.13 731.661 1708.13 759.643 1680.84 C 764.522 1676.08 772.614 1668.57 778.295 1665.52 z" fill="rgb(36,165,184)" transform="translate(0,0)"></path>
<path d="M 1113.79 1522.27 C 1110.86 1538.52 1098.51 1564.74 1092.76 1580.65 C 1090.88 1585.83 1086.16 1595.5 1085.23 1600.52 L 1084.29 1601.31 C 1064.38 1609.7 1048.67 1615.94 1027.21 1620.57 C 1020.36 1615.82 920.415 1628.77 901.898 1625.5 C 921.361 1613.9 965.255 1598.09 987.577 1588.3 C 1023.49 1572.55 1050.7 1558.84 1084.89 1539.71 C 1094.73 1534.24 1104.37 1528.42 1113.79 1522.27 z" fill="rgb(226,172,86)" transform="translate(0,0)"></path>
<path d="M 1049.55 1495.42 C 1052.34 1494.94 1053.34 1494.45 1055.94 1495.41 C 1054.12 1499.93 1044.36 1501.77 1039.67 1503.56 C 1028.17 1508.02 1016.69 1512.53 1005.23 1517.11 C 923.415 1549.79 868.862 1579.85 804.53 1639.46 C 803.053 1641.05 801.918 1641.94 800.248 1643.33 L 799.957 1642.31 C 846.651 1554.64 953.367 1503.18 1049.55 1495.42 z" fill="rgb(7,135,157)" transform="translate(0,0)"></path>
<path d="M 1076.48 0 L 1091.5 0 C 1110.47 4.10543 1126.07 6.58271 1137.46 25.0108 C 1148.81 43.3884 1149.05 68.8496 1129.03 81.4066 C 1110.51 93.0208 1077.67 76.999 1087.39 53.8497 C 1089.43 48.9881 1093.37 45.1699 1098.29 43.2759 C 1103.04 41.4324 1107.54 41.7063 1112.49 42.1143 L 1111.52 44.4667 C 1078.88 43.6064 1089.34 84.6257 1117.76 77.1751 C 1124.33 75.4961 1129.89 71.1356 1133.09 65.1568 C 1142.39 47.479 1130.13 21.9058 1112.07 15.126 C 1095.93 9.06824 1073.61 9.01229 1058.48 16.0984 C 1018.47 35.3809 1014.85 89.4076 1043.59 120.397 C 1053.73 131.326 1064.99 140.54 1074.66 151.139 C 1107.53 187.132 1105.62 235.404 1066.73 265.701 C 1114.57 246.477 1125.34 217.056 1107.87 169.727 C 1129.18 186.943 1137.49 198.966 1143.64 225.656 C 1143.49 228.908 1143.78 230.671 1144.11 233.941 C 1135.01 283.349 1077.22 303.672 1034.35 312.416 C 957.668 328.058 878.401 316.91 803.584 345.302 C 794.392 348.791 784.821 353.31 775.846 356.509 C 803.712 325.198 834.913 305.336 871.621 286.432 C 919.074 261.717 972.978 249.542 1015.78 216.298 C 1032.07 203.642 1045.74 188.046 1047.06 166.51 C 1048.46 143.737 1026.82 137.123 1016.17 120.706 C 1011.8 113.976 1008.39 105.032 1006.58 97.229 C 1001.78 76.4102 1005.48 54.533 1016.88 36.4591 C 1032.86 11.0482 1049.44 5.97714 1076.48 0 z" fill="rgb(36,165,184)" transform="translate(0,0)"></path>
<path d="M 1227.49 1346.22 C 1229.45 1350.82 1231.44 1355.39 1233.46 1359.95 C 1270.29 1396.95 1279.91 1460.32 1265.22 1509.15 C 1263.35 1515.39 1254.33 1531.81 1253.99 1536.69 C 1252.16 1538.42 1251.43 1538.77 1250.24 1540.94 C 1218.3 1593.82 1191.88 1614.28 1140.24 1647.38 C 1123.74 1656.74 1107 1665.67 1090.04 1674.18 C 1084.27 1677.13 1072.9 1682.34 1067.73 1685.46 C 1061.92 1685.85 1054.99 1689.96 1048.78 1691.81 C 1051.39 1684.8 1056.66 1674.17 1059.79 1666.99 C 1069.25 1645.31 1078.25 1624.26 1084.29 1601.31 L 1085.23 1600.52 C 1086.16 1595.5 1090.88 1585.83 1092.76 1580.65 C 1098.51 1564.74 1110.86 1538.52 1113.79 1522.27 C 1126.59 1512.75 1139.23 1504.33 1151.54 1494.46 C 1192.09 1461.92 1216.33 1422.58 1222.19 1370.79 C 1222.73 1366.05 1224.62 1349.5 1227.49 1346.22 z" fill="rgb(204,205,212)" transform="translate(0,0)"></path>
<path d="M 1227.49 1346.22 C 1229.45 1350.82 1231.44 1355.39 1233.46 1359.95 C 1244.94 1406.98 1250 1448.15 1223.42 1492.19 C 1199.84 1531.26 1158.26 1560.38 1119.32 1582.96 C 1109.64 1588.57 1095.44 1596.58 1085.23 1600.52 C 1086.16 1595.5 1090.88 1585.83 1092.76 1580.65 C 1098.51 1564.74 1110.86 1538.52 1113.79 1522.27 C 1126.59 1512.75 1139.23 1504.33 1151.54 1494.46 C 1192.09 1461.92 1216.33 1422.58 1222.19 1370.79 C 1222.73 1366.05 1224.62 1349.5 1227.49 1346.22 z" fill="rgb(186,138,68)" transform="translate(0,0)"></path>
<path d="M 1048.78 1691.81 C 1054.99 1689.96 1061.92 1685.85 1067.73 1685.46 C 1023.49 1723.42 885.018 1750.07 823.57 1775.93 C 799.102 1786.18 775.697 1798.8 753.689 1813.61 C 711.048 1842.04 667.553 1879.95 619.627 1898.94 C 569.026 1918.99 509.809 1937.3 456.316 1947.42 C 461.14 1948.62 456.808 1949.1 454.593 1949.63 L 454.55 1949.7 C 454.455 1949.57 461.098 1950.23 462.24 1950.55 L 447.992 1952.76 C 439.96 1954.04 426.675 1956.27 418.891 1956.6 C 416.202 1954.9 415.668 1955.2 412.512 1954.26 L 411.465 1953.95 C 356.069 1957.81 288.533 1950.81 234.785 1936.44 C 241.411 1934.71 258.004 1933.58 265.215 1933.02 L 315.043 1929.13 C 422.081 1920.03 527.171 1903.28 620.96 1847.55 C 639.482 1836.69 655.961 1823.12 673.786 1811.19 C 742.544 1765.15 822.073 1731.21 905.06 1723.99 C 938.004 1721.12 969.073 1713.05 1000.86 1704.45 C 1016.68 1700.16 1033.36 1697.19 1048.78 1691.81 z" fill="rgb(226,172,86)" transform="translate(0,0)"></path>
<path d="M 456.316 1947.42 C 461.14 1948.62 456.808 1949.1 454.593 1949.63 L 454.55 1949.7 C 454.455 1949.57 461.098 1950.23 462.24 1950.55 L 447.992 1952.76 C 439.96 1954.04 426.675 1956.27 418.891 1956.6 C 416.202 1954.9 415.668 1955.2 412.512 1954.26 L 411.465 1953.95 C 418.023 1952.89 425.363 1952.01 432.004 1951.14 L 439.003 1950.18 C 444.801 1949.41 450.535 1948.3 456.316 1947.42 z" fill="rgb(25,156,184)" transform="translate(0,0)"></path>
<path d="M 502.496 552.424 C 501.835 549.862 490.75 537.343 488.01 533.226 C 477.227 517.138 469.569 499.164 465.437 480.242 C 452.538 422.085 462.814 357.715 501.555 311.168 C 515.19 294.947 531.483 281.162 549.738 270.402 C 590.042 246.61 635.104 237.911 664.426 194.358 C 694.619 149.512 671.52 79.8796 608.005 92.6401 C 582.06 97.8527 569.354 139.181 598.57 152.484 C 608.681 157.087 621.262 155.737 625.917 143.853 C 628.754 135.832 624.76 130.161 621.325 123.334 L 622.781 123.262 C 629.883 129.531 633.441 141.585 629.753 149.771 C 619.041 173.99 582.837 166.798 575.148 143.39 C 558.105 91.5027 615.095 62.8907 656.464 84.0727 C 688.045 100.243 698.762 133.267 695.473 166.153 C 691.403 218.671 645.811 241.257 611.734 273.359 C 547.849 333.544 510.18 415.645 539.403 502.787 C 551.852 549.546 594.506 585.543 631.951 612.502 C 624.381 612.75 615.761 606.742 609.044 603.23 C 585.837 591.096 563.124 578.361 546.796 557.251 C 515.014 516.161 504.793 460.369 510.539 409.453 L 508.715 407.154 C 494.684 459.614 499.375 499.711 527.173 547.387 C 533.804 558.756 541.828 569.252 551.061 578.632 C 544.991 576.109 506.089 556.021 502.496 552.424 z" fill="rgb(36,165,184)" transform="translate(0,0)"></path>
<path d="M 508.715 407.154 C 508.996 405.563 510.31 398.578 511.197 397.45 C 511.323 397.426 511.449 397.401 511.576 397.377 C 512.624 398.376 510.847 407.855 510.539 409.453 L 508.715 407.154 z" fill="rgb(25,156,184)" transform="translate(0,0)"></path>
<path d="M 1229.6 1278 C 1234.21 1270.36 1239.85 1260.72 1245.12 1253.73 C 1279.75 1207.3 1329.31 1180.52 1386.1 1171.76 C 1416.5 1167.07 1452.51 1168.06 1479.94 1153.82 C 1508.85 1138.82 1517.59 1093.78 1488.91 1073.71 C 1472.06 1061.91 1447.13 1070.52 1447.1 1092.27 C 1447.13 1096.95 1449.33 1102.32 1453.88 1104.38 C 1462.78 1108.42 1465.26 1100.36 1471.27 1098.07 C 1470.48 1102.63 1466.3 1107.41 1461.81 1108.27 C 1441.08 1112.67 1435.33 1084.04 1446.26 1071.6 C 1473.24 1040.92 1519.68 1076.86 1519.52 1109.52 C 1519.2 1173.7 1450.47 1183.75 1403.54 1186.09 C 1401.15 1186.69 1396.62 1186.57 1396.31 1188.8 C 1439.68 1192.13 1455.52 1195.46 1494.46 1176.64 C 1464.66 1204.82 1420.27 1205.22 1382.92 1206.24 C 1322.58 1207.89 1276.17 1251.48 1247.98 1301.24 C 1237.06 1319.81 1235.66 1328.71 1227.49 1346.22 C 1224.62 1349.5 1222.73 1366.05 1222.19 1370.79 C 1216.33 1422.58 1192.09 1461.92 1151.54 1494.46 C 1139.23 1504.33 1126.59 1512.75 1113.79 1522.27 C 1104.37 1528.42 1094.73 1534.24 1084.89 1539.71 C 1084.79 1529.18 1086.81 1512.27 1087.58 1500.92 C 1089.21 1474.2 1091.07 1447.5 1093.15 1420.82 L 1101.64 1416.76 C 1139.67 1399.63 1180.63 1364.36 1203.15 1329.52 C 1213.57 1313.4 1221.69 1295.47 1229.6 1278 z" fill="rgb(7,135,157)" transform="translate(0,0)"></path>
<path d="M 1382.24 1187.42 C 1390.68 1186.38 1394.97 1185.83 1403.54 1186.09 C 1401.15 1186.69 1396.62 1186.57 1396.31 1188.8 C 1391.11 1189.16 1387.41 1188.21 1382.24 1187.42 z" fill="rgb(120,196,209)" transform="translate(0,0)"></path>
<path d="M 1228.21 1052.61 C 1228.74 1058.48 1231.48 1061.99 1234.5 1066.83 C 1255.67 1100.67 1259.24 1144.39 1249.66 1182.61 C 1247.12 1192.73 1242.95 1203.65 1242.98 1214.18 C 1242.99 1215.92 1243.08 1215.4 1242.31 1216.77 C 1240.61 1246.1 1233.47 1255.15 1229.6 1278 C 1221.69 1295.47 1213.57 1313.4 1203.15 1329.52 C 1180.63 1364.36 1139.67 1399.63 1101.64 1416.76 C 1105.24 1396.59 1106.81 1366.44 1108.85 1345.82 L 1109.07 1345.26 C 1110.82 1325.26 1109.57 1299.65 1109.97 1278.96 C 1110.16 1269.63 1110.46 1241.74 1109.24 1233.43 L 1109.77 1232.7 C 1139.35 1218.78 1172.71 1196.76 1192.92 1171.35 C 1204.65 1156.6 1219.26 1129 1222.35 1110.34 C 1226.25 1099.31 1228.02 1065.37 1228.21 1052.61 z" fill="rgb(204,205,212)" transform="translate(0,0)"></path>
<path d="M 1109.07 1345.26 C 1149.88 1324.91 1196.72 1280.88 1221.74 1243.57 C 1224.55 1239.37 1241.02 1208.96 1241.12 1208.9 C 1242.82 1211.17 1242.33 1213.76 1242.31 1216.77 C 1240.61 1246.1 1233.47 1255.15 1229.6 1278 C 1221.69 1295.47 1213.57 1313.4 1203.15 1329.52 C 1180.63 1364.36 1139.67 1399.63 1101.64 1416.76 C 1105.24 1396.59 1106.81 1366.44 1108.85 1345.82 L 1109.07 1345.26 z" fill="rgb(186,138,68)" transform="translate(0,0)"></path>
<path d="M 778.517 1370.01 C 775.88 1366.55 773.901 1362.07 771.738 1358.22 C 751.083 1321.45 750.494 1275.18 763.058 1235.16 C 795.107 1133.1 912.782 1088.66 1004.84 1056.78 C 1048.24 1041.75 1069.87 1039.92 1113.03 1017.4 C 1112.58 1035.97 1109.88 1056.04 1110.52 1074.56 C 1088.74 1085.97 1066.21 1095.87 1043.07 1104.18 C 1011.76 1115.38 979.67 1123.73 947.794 1135.25 C 855.151 1168.72 754.863 1232.81 773.416 1346.35 C 774.632 1353.79 777.734 1362.98 778.517 1370.01 z" fill="rgb(226,172,86)" transform="translate(0,0)"></path>
<path d="M 564.831 615.51 C 513.737 604.165 457.801 573.833 428.292 529.529 C 397.614 483.47 395.496 396.601 447.402 364.041 C 426.923 389.717 417.618 417.47 424.53 450.413 C 432.801 489.826 469.598 530.802 502.496 552.424 C 506.089 556.021 544.991 576.109 551.061 578.632 C 541.828 569.252 533.804 558.756 527.173 547.387 C 499.375 499.711 494.684 459.614 508.715 407.154 L 510.539 409.453 C 504.793 460.369 515.014 516.161 546.796 557.251 C 563.124 578.361 585.837 591.096 609.044 603.23 C 615.761 606.742 624.381 612.75 631.951 612.502 C 684.661 642.456 730.73 665.305 762.465 721.672 C 771.812 738.275 773.902 748.954 780.394 762.455 L 778.64 763.964 C 773.262 753.426 767.007 743.358 759.943 733.867 C 730.173 694.238 677.635 663.557 628.82 656.499 C 613.111 652.25 601.062 653.203 585.179 651.319 C 545.556 646.62 510.917 626.134 481.785 599.511 L 484.072 598.231 C 508.546 609.925 525.895 616.669 553.719 617.124 C 558.483 616.804 561.181 617.578 564.831 615.51 z" fill="rgb(7,135,157)" transform="translate(0,0)"></path>
<path d="M 564.831 615.51 C 566.882 615.774 569.34 615.567 570.725 617.01 L 571.024 616.909 L 571.019 616.973 L 571.157 617.018 C 571.777 618.321 565.587 617.972 565.502 617.972 C 561.539 617.97 557.633 617.74 553.719 617.124 C 558.483 616.804 561.181 617.578 564.831 615.51 z" fill="rgb(120,196,209)" transform="translate(0,0)"></path>
<path d="M 778.295 1665.52 C 775.099 1640.75 783.173 1604.12 791.164 1579.98 C 820.497 1491.35 899.019 1433.94 982.158 1399.73 C 1006.68 1389.64 1030.51 1381.76 1054.69 1371.7 C 1073.42 1363.9 1090.98 1354.94 1108.85 1345.82 C 1106.81 1366.44 1105.24 1396.59 1101.64 1416.76 L 1093.15 1420.82 C 1053.07 1438.35 1014.47 1449.49 973.685 1464.06 C 901.834 1489.73 823.511 1540.65 794.736 1614.24 C 791.106 1623.5 788.21 1633.02 786.074 1642.74 C 784.649 1648.95 783.146 1661.83 778.295 1665.52 z" fill="rgb(226,172,86)" transform="translate(0,0)"></path>
<path d="M 1432.34 303.806 C 1452.99 258.566 1399.06 195.39 1426.37 146.186 C 1450.44 102.817 1503.96 89.2234 1546.8 110.445 L 1546.33 112.285 C 1492.5 81.2029 1418.48 127.817 1435.71 191.621 C 1440.3 208.614 1451.94 222.895 1459.05 238.755 C 1476.95 281.714 1472.88 335.321 1450.79 375.965 C 1428.14 417.654 1403.12 439.259 1363.71 463.419 C 1424.86 458.501 1461.43 461.763 1492.7 400.741 L 1494.51 403.579 C 1485.12 427.18 1467.19 454.745 1442.75 462.823 C 1398.6 477.409 1368.24 472.382 1327.17 501.857 C 1336.53 482.002 1339.8 472.028 1327.28 452.098 C 1337.84 449.405 1352.75 438.975 1361.45 432.551 C 1404.72 400.559 1429.42 340.254 1425.03 287.08 C 1423.29 265.984 1416.18 248.841 1406.66 230.289 L 1409.09 228.985 C 1421.77 249.622 1428.51 269.013 1430.32 293.251 C 1432.65 296.594 1429.89 298.524 1432.34 303.806 z" fill="rgb(36,165,184)" transform="translate(0,0)"></path>
<path d="M 1430.32 293.251 C 1432.65 296.594 1429.89 298.524 1432.34 303.806 C 1432.11 304.81 1431.97 306.436 1430.73 306.651 C 1429.43 305.772 1430.15 294.975 1430.32 293.251 z" fill="rgb(182,219,224)" transform="translate(0,0)"></path>
<path d="M 490.248 1195.47 C 476.93 1167.75 478.87 1124.68 490.524 1096.57 C 524.585 1014.4 630.851 989.755 707.912 1022.72 C 742.891 1037.87 771.17 1065.22 787.476 1099.67 C 792.931 1111.31 794.606 1119.49 798.821 1129.7 L 799.49 1131.3 C 798.098 1135.09 789.72 1150.77 787.448 1155.27 C 786.147 1142.62 783.778 1129.58 777.573 1118.26 C 761.477 1088.89 725.83 1065.03 694.592 1055.25 C 664.868 1045.99 631.332 1047.71 603.652 1062.48 C 587.973 1070.84 586.929 1070.71 577.692 1085.23 C 564.078 1106.62 565.222 1122.31 568.427 1146.45 C 569.041 1151.07 571.776 1156.24 570.458 1160.56 L 567.586 1159.66 C 561.181 1153.76 554.47 1134.16 553.044 1125.09 C 549.33 1101.47 555.051 1081.3 568.434 1061.75 C 578.79 1046.61 603.002 1027.43 621.107 1024.36 L 618.409 1022.67 C 574.302 1033.42 536.751 1049.09 511.874 1089.7 C 498.05 1112.26 489.519 1139.7 489.797 1166.16 C 489.879 1173.98 490.919 1188.79 490.248 1195.47 z" fill="rgb(204,205,212)" transform="translate(0,0)"></path>
<path d="M 618.409 1022.67 C 619.83 1022.38 626.22 1021.1 627.269 1021.89 C 627.68 1023.2 621.841 1024.18 621.107 1024.36 L 618.409 1022.67 z" fill="rgb(215,214,216)" transform="translate(0,0)"></path>
<path d="M 657.103 912.405 L 656.348 911.544 C 651 905.554 644.562 901.079 639.402 895.132 C 623.811 877.165 611.335 852.93 614.889 828.451 C 617.968 807.243 630.499 797.617 650.044 792.759 C 622.019 807.678 611.565 833.295 629.288 861.396 C 667.949 922.698 747.01 931.45 786.007 995.015 C 785.971 1005.51 786.049 1010.79 787.595 1020.97 C 788.785 1028.82 791.875 1040.74 792.382 1048.06 C 753.308 995.091 735.612 984.38 679.657 957.589 C 678.923 954.808 677.72 954.067 675.001 952.788 C 633.1 923.834 587.141 896.372 565.313 848.389 C 562.92 843.128 558.097 837.181 557.055 831.956 L 557.787 831.306 C 559.548 834.902 561.316 838.438 562.936 842.103 C 565.94 836.507 559.708 805.456 561.258 803.214 L 562.937 805.299 C 560.078 819.853 577.576 848.684 586.315 860.739 C 605.358 887.005 631.788 895.591 657.103 912.405 z" fill="rgb(204,205,212)" transform="translate(0,0)"></path>
<path d="M 539.403 502.787 C 548.047 512.424 553.934 538.84 565.692 547.87 C 593.581 569.289 627.101 581.401 656.171 601.066 C 676.859 615.06 697.937 628.331 717.808 643.541 C 725.575 649.371 734.581 654.613 741.65 661.213 L 738.14 656.515 L 738.385 654.864 C 742.669 658.844 751.013 666.413 754.337 670.971 C 776.282 701.06 788.037 738.686 793.576 775.205 C 795.159 785.642 794.567 797.087 795.91 806.038 C 795.45 811.89 794.467 816.994 793.438 822.761 C 789.051 811.866 781.797 793.674 776.137 783.691 C 750.354 738.214 714.917 704.146 669.955 677.725 C 661.724 672.888 632.82 660.651 628.82 656.499 C 677.635 663.557 730.173 694.238 759.943 733.867 C 767.007 743.358 773.262 753.426 778.64 763.964 L 780.394 762.455 C 773.902 748.954 771.812 738.275 762.465 721.672 C 730.73 665.305 684.661 642.456 631.951 612.502 C 594.506 585.543 551.852 549.546 539.403 502.787 z" fill="url(#Gradient1)" transform="translate(0,0)"></path>
<path d="M 780.394 762.455 L 781.312 765.462 C 782.072 767.921 784.826 776.04 783.719 778.274 C 783.05 778.714 782.544 777.55 782.476 777.134 C 781.794 772.943 780.327 769.101 779.037 765.139 L 778.64 763.964 L 780.394 762.455 z" fill="rgb(105,170,193)" transform="translate(0,0)"></path>
<path d="M 1373.77 1831.75 C 1412.13 1822.12 1446.24 1814.39 1468.89 1777.72 C 1478.45 1762.26 1481.74 1740.09 1476.87 1722.46 C 1473.51 1709.8 1465.11 1699.06 1453.62 1692.75 C 1435.44 1682.88 1412.02 1684.05 1400.34 1703.18 C 1394.47 1712.79 1397.17 1729.63 1408.36 1734.65 C 1423.81 1740.76 1431.56 1733.14 1438.1 1720.88 L 1438.9 1720.87 C 1438.78 1734.86 1431.49 1743.36 1416.76 1742.36 C 1409.1 1741.91 1401.98 1738.25 1397.16 1732.28 C 1391.22 1724.93 1388.51 1715.49 1389.64 1706.11 C 1391.02 1695.8 1396.59 1686.51 1405.04 1680.44 C 1415.56 1672.85 1433.1 1670.28 1445.59 1672.82 C 1487.53 1681.35 1510.08 1727.65 1501.52 1767.44 C 1494.46 1800.2 1478.21 1818.66 1450.72 1836.46 C 1441.51 1842.72 1416.85 1854.25 1411.87 1858.32 C 1403.47 1855.16 1380.89 1837.53 1373.77 1831.75 z" fill="rgb(204,205,212)" transform="translate(0,0)"></path>
<path d="M 738.14 656.515 C 732.168 651.995 726.894 639.431 724.617 638.095 C 690.728 618.212 655.726 597.033 634.86 562.437 C 630.635 555.431 628.141 544.73 625.079 536.414 C 609.522 494.164 622.059 450.997 655.991 421.769 C 658.683 419.447 662.192 415.774 665.865 415.991 C 613.724 468.533 627.23 517.652 683.734 559.642 C 683.994 557.002 684.287 554.364 684.614 551.731 C 684.738 554.274 684.897 560.954 685.339 563.113 C 690.02 575.744 696.064 586.762 709.133 592.298 C 719.403 618.143 719.964 630.313 738.385 654.864 L 738.14 656.515 z" fill="rgb(204,205,212)" transform="translate(0,0)"></path>
<path d="M 771.196 1530.03 C 773.455 1542.78 755.665 1569.56 747.516 1578.93 C 728.985 1600.24 684.796 1622.8 656.682 1625.44 C 615 1629.36 569.915 1630.17 545.942 1671.96 C 542.777 1677.47 536.114 1691.94 537.436 1698.27 C 540.128 1697.69 539.483 1697.64 541.965 1695.85 C 545.577 1696.31 545.727 1698.12 547.568 1701.39 L 549.33 1701.51 C 554.396 1695.93 552.416 1681.66 565.678 1669.47 C 594.543 1642.93 634.561 1650.8 669.648 1638.18 C 683.883 1633.06 674.607 1628.82 685.573 1626.94 C 688.508 1628.02 688.529 1627.85 690.778 1629.94 C 713.582 1623.8 751.907 1590.43 764.137 1568.98 C 772.372 1554.52 768.053 1539.58 775.067 1531.52 C 769.339 1560.26 772.531 1565.62 751.577 1588.72 C 722.743 1620.5 688.057 1637.33 646.244 1645.78 C 620.844 1650.91 593.384 1650.14 571.829 1666.41 C 547.739 1686.64 546.141 1719.14 563.953 1743.71 C 583.67 1770.9 632.439 1763.97 631.94 1729.45 C 631.769 1722.42 628.799 1715.75 623.69 1710.92 C 613.874 1701.63 605.169 1710.86 598.338 1718.19 L 597.611 1716.93 C 601.792 1700.3 623.672 1699.54 633.089 1715.37 C 637.135 1722.17 638.288 1730.3 636.289 1737.96 C 633.513 1748.36 626.612 1757.18 617.182 1762.37 C 593.086 1775.53 554.138 1761.67 541.011 1738.06 C 533.601 1724.73 533.186 1701.01 537.493 1686.69 C 548.387 1650.46 582.213 1631.63 617.961 1627.26 C 630.533 1625.52 644.445 1625.66 656.453 1623.52 C 674.589 1620.11 692.133 1614.08 708.535 1605.63 C 742.876 1587.61 759.599 1566.97 771.196 1530.03 z" fill="rgb(105,170,193)" transform="translate(0,0)"></path>
<path d="M 901.898 1625.5 C 920.415 1628.77 1020.36 1615.82 1027.21 1620.57 C 981.987 1631.57 936.431 1638.76 891.038 1649.47 C 873.639 1653.57 853.423 1661.84 837.326 1665.2 C 849.117 1653.42 885.416 1632.2 901.898 1625.5 z" fill="rgb(186,138,68)" transform="translate(0,0)"></path>
<path d="M 1865.73 1943.55 C 1883.65 1946.63 1896.23 1950.28 1914.99 1951.58 C 1947.97 1953.87 1988.52 1949.82 2019.81 1959.81 L 2020.77 1961.17 C 2015.11 1966.29 1962.91 1970.01 1951.06 1971.55 C 1947.95 1967.26 1929.49 1965.36 1923.43 1964.23 C 1910.94 1961.98 1898.62 1958.91 1886.54 1955.02 C 1880.77 1953.17 1868.53 1949.03 1865.73 1943.55 z" fill="rgb(36,165,184)" transform="translate(0,0)"></path>
<path d="M 1731.72 515.289 C 1731.16 510.48 1734.73 511.656 1736.28 506.478 C 1740.13 493.668 1744.48 479.533 1746.83 466.4 C 1747.6 462.083 1748.85 455.376 1749.18 451.679 L 1749.33 451.619 C 1749.68 453.161 1748.29 461.69 1747.94 463.513 C 1743.63 486.009 1736.43 518.38 1724.6 537.32 L 1722.97 535.992 C 1725.75 529.737 1731.56 521.264 1731.72 515.289 z" fill="rgb(105,170,193)" transform="translate(0,0)"></path>
<path d="M 1143.64 225.656 C 1147.69 230.683 1148.41 233.341 1150.4 239.242 C 1148.93 238.355 1147.91 237.7 1146.47 236.731 C 1145.69 235.791 1144.91 234.861 1144.11 233.941 C 1143.78 230.671 1143.49 228.908 1143.64 225.656 z" fill="rgb(218,155,72)" transform="translate(0,0)"></path>
<path d="M 1603.42 915.703 C 1604.2 918.447 1604.19 918.447 1605.64 920.879 C 1603.76 925.221 1600.37 929.794 1597.29 933.392 C 1600.84 925.754 1602.4 923.979 1603.42 915.703 z" fill="rgb(105,170,193)" transform="translate(0,0)"></path>
<path d="M 513.949 1355.96 C 517.612 1357.66 523.063 1360.58 526.562 1362.56 C 523.865 1362.08 521.183 1361.51 518.52 1360.86 C 516.409 1360.37 513.999 1359.56 511.91 1358.9 L 513.949 1355.96 z" fill="rgb(105,170,193)" transform="translate(0,0)"></path>
<path d="M 1546.8 110.445 C 1548.36 111.041 1553.65 113.635 1553.49 115.712 C 1552.12 116.866 1547.33 113.315 1546.33 112.285 L 1546.8 110.445 z" fill="rgb(182,219,224)" transform="translate(0,0)"></path>
<path d="M 1492.7 400.741 L 1494.68 395.943 C 1495.16 394.767 1494.83 395.255 1495.99 394.417 C 1495.97 394.242 1495.95 394.067 1495.93 393.892 C 1496.05 393.832 1496.17 393.772 1496.29 393.712 C 1497.13 394.121 1494.73 402.451 1494.51 403.579 L 1492.7 400.741 z" fill="rgb(120,196,209)" transform="translate(0,0)"></path>
<path d="M 481.785 599.511 C 480.676 598.579 477.15 595.929 476.879 594.676 C 478.206 593.868 482.924 597.465 484.072 598.231 L 481.785 599.511 z" fill="rgb(7,135,157)" transform="translate(0,0)"></path>
<path d="M 1112.49 42.1143 C 1113.41 42.4454 1117.04 43.5009 1117.43 44.5023 C 1116.9 45.6059 1112.39 44.6046 1111.52 44.4667 L 1112.49 42.1143 z" fill="rgb(105,170,193)" transform="translate(0,0)"></path>
<path d="M 1690.2 238.145 C 1703.88 241.343 1729.41 267.717 1736.8 280.244 C 1759.21 318.193 1757.96 360.237 1747.94 401.453 C 1736.77 447.145 1712.78 488.698 1678.81 521.234 C 1675.59 524.346 1662.49 536.193 1658.91 538.359 C 1625.62 569.331 1587.1 594.148 1545.14 611.655 C 1533.27 610.589 1496.29 632.318 1474.91 628.523 C 1489.33 622.479 1505.54 614.354 1519.8 607.55 C 1522.12 605.201 1545.49 589.656 1550.15 586.365 C 1569.69 572.707 1587.69 556.97 1603.84 539.429 C 1644.38 494.999 1676.52 419.346 1624.96 370.736 C 1603.99 350.975 1578.82 346.988 1559.3 370.294 C 1538.15 395.553 1544.19 434.157 1580.68 436.475 C 1587.29 436.895 1597.59 424.067 1600.94 419.006 L 1602.18 419.528 L 1602.27 421.664 C 1595.39 434.577 1580.27 442.985 1565.61 437.743 C 1529.01 424.656 1536.21 372.489 1563.8 354.623 C 1603.9 329.843 1645.45 365.765 1659.46 402.535 C 1674.03 440.777 1666.28 470.46 1650.75 506.205 C 1675 476.208 1689.55 459.467 1705.32 422.76 C 1722.89 381.876 1727.91 319.442 1710.78 278.069 C 1711.01 266.858 1696.91 246.703 1690.2 238.145 z" fill="rgb(215,214,216)" transform="translate(0,0)"></path>
<path d="M 1519.8 607.55 C 1542.3 608.609 1634.31 550.602 1656.58 537.429 L 1658.91 538.359 C 1625.62 569.331 1587.1 594.148 1545.14 611.655 C 1533.27 610.589 1496.29 632.318 1474.91 628.523 C 1489.33 622.479 1505.54 614.354 1519.8 607.55 z" fill="rgb(204,205,212)" transform="translate(0,0)"></path>
<path d="M 1045.86 1323.45 C 1053.88 1322.8 1072.99 1323.82 1080.86 1324.75 L 1082.07 1325.57 L 1081.94 1324.97 L 1083.31 1325.34 L 1082.01 1325.33 C 1081.66 1325.68 1033.97 1330.75 1028.35 1331.46 C 928.794 1344 865.401 1399.85 809.463 1478.38 C 802.371 1489.11 799.579 1493.24 790.391 1502.18 C 794.101 1491.47 798.492 1483.83 803.073 1473.93 C 817.36 1443.04 831.566 1420.05 855.224 1395.03 C 906.114 1341.21 974.769 1325.49 1045.86 1323.45 z" fill="rgb(215,214,216)" transform="translate(0,0)"></path>
<path d="M 1710.78 278.069 C 1702.39 264.952 1690.71 254.261 1676.9 247.056 C 1651.18 233.651 1612.4 231.391 1597.69 261.814 C 1593.57 270.348 1593.15 280.199 1596.51 289.057 C 1604.22 309.081 1633.64 317.895 1645.06 296.077 C 1649.65 287.325 1640.35 277.428 1631.9 275.686 C 1624.11 274.078 1621.87 277.416 1615.65 281.238 L 1615.15 280.706 C 1620.47 272.583 1630.82 269.988 1639.2 274.29 C 1660.92 285.433 1652.08 310.566 1631.16 315.868 C 1609.21 321.434 1589.4 305.943 1585.63 284.848 C 1580.38 255.439 1603.75 230.564 1631.63 225.489 C 1652.06 221.67 1673.17 226.231 1690.2 238.145 C 1696.91 246.703 1711.01 266.858 1710.78 278.069 z" fill="rgb(226,172,86)" transform="translate(0,0)"></path>
<path d="M 938.918 840.973 C 939.547 840.993 939.038 840.926 940.996 841.544 C 938.47 844.771 889.718 868.643 880.008 874.3 C 836.161 899.844 813.399 930.007 786.702 971.507 L 786.417 971.751 C 787.356 960.569 788.088 951.303 793.484 941.175 C 813.024 904.563 844.704 873.313 883.785 858.237 C 900.723 851.703 921.335 846.402 938.918 840.973 z" fill="rgb(215,214,216)" transform="translate(0,0)"></path>
<path d="M 1474.91 628.523 C 1496.29 632.318 1533.27 610.589 1545.14 611.655 C 1520.64 630.276 1398.35 669.986 1365.9 670.496 C 1403.7 656.692 1437.83 644.75 1474.91 628.523 z" fill="rgb(215,214,216)" transform="translate(0,0)"></path>
<metadata><recraft-signature>{"signed_by": "recraft", "signature_b64": "Zmu3NFvSAUnclSYXEM2VC4HOp5p+PBAyn6LQt4BaZuAW5sfZosQ6egAzSblfdLClJSLo323VViWT6Zgmu5VyBQ==", "signing_algo": "Ed25519", "generation_timestamp": 1778553485, "identifier": "597ef697-354f-4ae7-ae8a-5b6efb04ddb7"}</recraft-signature></metadata></svg>