<svg xmlns="http://www.w3.org/2000/svg" height="1024" preserveAspectRatio="none" style="display: block;" version="1.1" viewBox="0 0 2048 2048" width="1024">

<path d="M 934.662 153.065 C 950.828 152.177 951.378 157.427 958.861 167.643 C 964.708 175.625 1006.17 194.932 1013.91 193.781 C 1035.03 190.643 1059.22 194.693 1049.6 222.313 C 1060.4 240.944 1070.94 259.726 1081.21 278.653 C 1094.78 303.423 1110.3 336.688 1131.47 355.653 C 1151.41 374.537 1185.27 367.111 1202.46 388.495 C 1215.5 404.713 1206.78 421.915 1191.91 432.256 C 1202.63 436.096 1213.65 439.896 1224.18 444.178 C 1340.07 489.928 1432.83 580.149 1481.78 694.721 C 1541.22 836.557 1518.49 1011.39 1353.21 1065.66 C 1344.61 1068.48 1336.28 1069.83 1327.79 1073.36 C 1326.17 1075.91 1326.15 1080.62 1325.78 1083.96 L 1327.14 1084.3 C 1358.3 1092.27 1366.46 1120.34 1336.02 1136.93 C 1338.07 1155.31 1329.53 1157.38 1314.12 1161.15 C 1313.88 1161.78 1312.41 1165.31 1313.57 1165.72 C 1349.09 1178.21 1384.87 1192.65 1417.45 1211.55 C 1470.21 1242.52 1516.44 1283.47 1553.56 1332.11 C 1567.15 1349.8 1578.53 1369.42 1592.93 1386.75 C 1616.1 1414.7 1650.91 1446.33 1688.63 1450.14 C 1725.24 1453.84 1766.5 1420.14 1768.84 1383.09 C 1769.86 1366.87 1765.78 1350.34 1757.78 1336.21 C 1755.15 1331.58 1747.46 1327.08 1748.06 1321.56 L 1749.76 1321.45 C 1759.99 1326.65 1772.25 1340.46 1778.24 1349.96 C 1827.3 1427.79 1776.78 1529.27 1705.01 1572.9 C 1657.88 1601.54 1612.01 1607.31 1559.19 1595.68 C 1558.66 1659.54 1501.64 1727.29 1438.67 1737.86 C 1450.92 1714.35 1465.28 1691.57 1449.98 1664.25 C 1444.79 1654.98 1435.85 1645.48 1424.95 1643.57 C 1393.85 1638.11 1387.22 1678.67 1374.33 1697.81 C 1364.62 1712.12 1352.71 1724.57 1338.55 1733.33 C 1343.34 1747.68 1344.37 1757.57 1343.9 1772.46 C 1369.18 1804.93 1356.69 1843.68 1317.83 1852.6 C 1261.23 1865.58 1188.48 1864.33 1132.77 1849.27 C 1128.24 1844.78 1126 1841.13 1122.43 1835.86 L 1117.47 1847.92 C 1099.15 1842.53 1071.16 1839.53 1058.1 1824.68 C 1045.21 1810.04 1050.66 1782.79 1065.5 1770.91 C 1062.77 1752.95 1064.7 1743.43 1067.61 1725.65 C 1046.91 1730.77 1038.63 1737.42 1024.01 1752.25 C 1008.62 1736.89 1001.99 1730.72 980.404 1724.91 C 984.282 1740.16 985.702 1754.52 982.936 1770.01 C 989.15 1776.35 993.245 1782.07 995.248 1790.95 C 1005.25 1835.33 962.057 1840.15 931.568 1847.81 C 929.609 1844.39 927.982 1840.55 924.718 1838.56 L 922.755 1839.04 C 919.98 1842.44 919.619 1844.59 918.184 1848.84 C 873.439 1861.24 811.605 1864.41 765.764 1858.75 C 725.708 1854.05 679.878 1843.15 694.446 1789.5 C 696.357 1782.46 700.027 1777.76 704.842 1772.5 C 704.423 1755.42 705.077 1749.57 710.41 1733.47 C 665.244 1710.58 664.162 1657.42 640.139 1645.95 C 633.62 1642.83 624.883 1642.91 618.167 1645.34 C 608.717 1648.77 601.846 1656.93 597.817 1665.91 C 592.193 1678.44 591.079 1696.21 595.662 1709.25 C 598.708 1717.92 603.455 1726.03 606.7 1734.67 C 607.231 1736.08 607.212 1735.37 606.519 1736.89 C 605.678 1737.12 604.28 1737.58 603.474 1737.33 C 538.117 1717.06 493.394 1662.69 489.701 1595.32 C 465.324 1601.12 441.687 1603.04 416.751 1599.63 C 366.241 1592.73 320.61 1565.86 290.081 1525.03 C 244.489 1464.96 228.237 1378.64 294.25 1324.44 C 296.357 1322.71 298.945 1321.39 301.65 1321.81 C 299.67 1327.03 293.122 1333.12 289.782 1337.9 C 281.106 1350.46 278.494 1367.58 279.136 1382.44 C 280.722 1419.15 322.152 1455.13 359.09 1450.19 C 436.243 1439.85 471.119 1356.84 517.136 1304.23 C 542.619 1275.56 571.571 1250.18 603.323 1228.66 C 637.309 1205.22 675.833 1186.82 714.628 1172.93 C 719.266 1171.27 732.596 1167.23 735.421 1163.85 C 730.576 1156.62 709.867 1160.86 710.891 1138.63 L 710.965 1137.29 C 709.034 1136.11 707.133 1134.89 705.263 1133.62 C 699.355 1129.55 695.014 1122.87 693.871 1115.78 C 692.777 1109.1 694.459 1102.27 698.527 1096.85 C 705.101 1088.07 713.198 1086.49 723.062 1084.85 C 723.09 1083.11 723.593 1074.8 721.916 1074.25 C 712.948 1071.28 703.858 1068.89 694.944 1065.71 C 683.811 1061.81 672.925 1057.23 662.346 1052.01 C 513.517 977.981 513.301 797.935 579.019 667.386 C 636.816 552.573 742.552 468.673 863.76 429.073 C 839.739 407.563 850.207 383.855 879.147 377.473 C 902.546 372.312 933.965 371.711 950.344 351.55 C 990.613 301.982 943.632 219.183 880.839 224.935 C 859.797 226.863 840.471 236.049 826.67 251.917 C 811.81 268.991 806.767 299.362 826.578 314.563 C 835.116 321.102 845.964 323.846 856.583 322.155 C 871.268 319.816 883.126 309.42 880.411 292.987 C 879.797 290.299 877.815 287.093 875.181 286.051 C 868.913 283.573 860.973 283.224 857.783 290.073 C 860.115 295.042 864.566 293.013 867.738 298.48 C 867.012 305.208 861.127 307.966 854.968 307.936 C 844.549 307.885 837.352 294.397 838.655 285.265 C 841.002 268.814 860.945 257.527 876.534 259.56 C 885.076 260.646 892.78 265.242 897.794 272.243 C 905.879 283.389 908.046 299.348 905.764 312.978 C 900.239 345.964 863.168 363.254 832.547 357.022 C 811.571 352.753 797.342 340.472 782.292 326.181 C 777.41 321.546 768.116 318.409 764.619 311.386 C 760.03 303.505 764.664 296.711 771.98 292.708 C 772.012 280.264 772.486 267.831 772.186 255.439 C 771.9 243.608 768.132 237.95 775.819 228.04 C 784.158 217.291 788.421 224.24 796.047 220.883 C 809.727 214.863 826.677 196.712 834.658 185.559 L 835.505 184.364 C 835.86 164.945 845.5 163.854 862.663 163.078 C 881.759 162.216 900.904 161.728 920.007 161.031 C 925.127 156.043 927.793 155.151 934.662 153.065 z" fill="rgb(17,17,18)" transform="translate(0,0)"></path>
<path d="M 912.54 436.325 C 929.208 476.921 969.408 455.786 993.239 436.183 C 1014.67 418.555 1034 434.222 1053.54 444.94 C 1081.75 460.423 1114.43 468.642 1132.12 433.495 C 1153.36 439.692 1161.75 439.217 1182.96 437.418 C 1192.48 436.611 1214.64 445.455 1223.94 449.382 C 1279.46 472.802 1326.76 501.864 1370.71 543.201 C 1449.63 617.448 1505 723.979 1507 833.628 C 1507.83 897.004 1490.47 955.175 1446.25 1002.47 C 1416.95 1033.81 1369.22 1060.33 1325.6 1067.98 C 1323.45 1068.36 1323.04 1067.7 1321.8 1066.35 C 1323.56 1064.6 1335.14 1061.5 1338.91 1060.13 C 1392.06 1040.83 1444.61 1001 1468.93 949.081 C 1464.39 951.723 1460.04 956.003 1455.84 959.309 C 1430.56 979.192 1393.99 983.964 1370.38 958.261 C 1363.94 951.275 1359.86 942.45 1358.7 933.026 C 1354.54 897.806 1389.03 881.198 1404.41 852.205 C 1419.23 824.272 1425.91 796.75 1427 765.021 C 1427.95 737.384 1418.88 692.33 1399.38 671.887 C 1400.95 677.011 1403.8 683.367 1406.02 688.32 C 1432.75 747.793 1429.19 813.992 1371.95 854.071 C 1342.63 874.531 1306.43 882.594 1271.2 876.507 C 1242.08 871.308 1213.77 855.971 1197.19 830.98 C 1185.79 813.798 1177.86 790.552 1179.35 769.74 C 1179.79 763.531 1182.72 751.606 1183.96 744.845 C 1197.7 670.1 1167.15 581.33 1124.78 519.513 L 1123.75 521.393 C 1162.04 585.8 1195.79 677.668 1176.74 752.393 C 1167.01 792.093 1141.54 826.12 1106.19 846.637 C 1069.09 868.419 1022.59 873.935 981.101 862.985 C 941.624 852.865 907.899 827.248 887.559 791.932 C 858.705 741.764 864.186 681.347 879.047 627.694 C 887.313 597.852 907.607 548.579 924.442 522.3 L 923.407 520.134 C 886.33 571.333 857.584 657.828 861.683 721.731 C 864.336 750.601 873.255 767.495 866.388 796.653 C 851.289 860.773 781.011 890.89 719.521 874.499 C 688.033 866.279 661.189 845.713 645.055 817.452 C 619.919 772.932 627.86 723.196 648.697 679.229 C 649.417 677.709 648.997 677.771 648.153 676.374 C 639.306 679.629 629.761 717.584 627.84 727.335 C 618.151 776.51 625.388 828.277 656.533 868.675 C 664.882 879.504 678.277 890.811 684.872 901.48 C 691.601 912.585 693.48 925.965 690.069 938.494 C 680.475 974.244 630.029 985.832 602.185 965.771 C 597.893 962.679 589.65 953.467 585.46 952.278 L 584.976 954.678 C 586.522 960.097 590.083 965.574 593.175 970.532 C 615.933 1007.02 652.976 1033.91 691.224 1052.42 C 698.264 1055.82 723.809 1064.07 726.653 1066.61 L 726.071 1067.98 C 720.612 1069.65 713.845 1066.44 708.537 1064.92 C 526.174 1012.46 507.839 815.598 584.447 668.488 C 645.449 551.345 743.256 473.119 868.465 433.255 C 880.702 438.36 899.651 437.166 912.54 436.325 z" fill="rgb(211,54,74)" transform="translate(0,0)"></path>
<path d="M 923.407 520.134 C 926.046 515.363 928.802 512.54 932.73 508.931 C 930.148 513.159 927.217 518.349 924.442 522.3 L 923.407 520.134 z" fill="rgb(66,14,23)" transform="translate(0,0)"></path>
<path d="M 1115.79 508.242 C 1120.05 512.682 1121.3 514.054 1124.78 519.513 L 1123.75 521.393 C 1120.98 517.076 1118.33 512.691 1115.79 508.242 z" fill="rgb(66,14,23)" transform="translate(0,0)"></path>
<path d="M 1288.25 584.78 C 1323.88 581.566 1355.4 607.753 1358.78 643.365 C 1362.15 678.977 1336.11 710.62 1300.51 714.157 C 1264.69 717.718 1232.8 691.47 1229.4 655.628 C 1226 619.786 1252.39 588.014 1288.25 584.78 z" fill="rgb(234,209,182)" transform="translate(0,0)"></path>
<path d="M 1219.62 502.562 C 1236.92 501.153 1252.08 514.068 1253.43 531.376 C 1254.79 548.683 1241.83 563.799 1224.51 565.099 C 1207.28 566.393 1192.25 553.501 1190.9 536.27 C 1189.55 519.039 1202.39 503.965 1219.62 502.562 z" fill="rgb(234,209,182)" transform="translate(0,0)"></path>
<path d="M 893.324 714.988 C 906.305 715.206 905.33 717.61 907.328 728.989 C 912.934 760.928 925.571 784.765 956.003 798.52 C 960.227 800.43 958.169 808.153 954.679 812.137 C 916.087 811.223 890.17 764.981 889.826 730.72 C 889.772 725.281 888.814 720.381 892.473 716.055 L 893.324 714.988 z" fill="rgb(219,106,107)" transform="translate(0,0)"></path>
<path d="M 575.293 848.772 C 588.086 848.109 586.785 857.883 587.869 868.505 C 589.923 888.619 600.502 909.696 618.528 919.995 C 629.718 926.387 643.948 928.388 628.241 942.315 C 593.415 945.021 551.052 872.851 575.293 848.772 z" fill="rgb(219,106,107)" transform="translate(0,0)"></path>
<path d="M 654.498 759.881 C 668.86 762.774 663.698 771.544 671.163 783.407 C 675.646 790.53 677.939 794.478 683.941 800.51 C 692.198 808.81 699.314 811.829 688.928 821.144 C 669.121 819.083 654.552 788.82 651.118 771.504 C 649.74 764.554 648.851 763.385 654.498 759.881 z" fill="rgb(219,106,107)" transform="translate(0,0)"></path>
<path d="M 1310.85 530.688 C 1319.23 528.884 1327.52 534.106 1329.51 542.444 C 1331.5 550.783 1326.46 559.183 1318.17 561.355 C 1312.64 562.803 1306.76 561.145 1302.8 557.022 C 1298.84 552.899 1297.42 546.957 1299.1 541.491 C 1300.77 536.025 1305.27 531.892 1310.85 530.688 z" fill="rgb(234,209,182)" transform="translate(0,0)"></path>
<path d="M 760.406 530.408 C 767.86 528.23 775.659 532.55 777.767 540.024 C 779.874 547.498 775.482 555.256 767.988 557.294 C 760.594 559.304 752.96 554.982 750.88 547.606 C 748.8 540.231 753.051 532.557 760.406 530.408 z" fill="rgb(234,209,182)" transform="translate(0,0)"></path>
<path d="M 778.301 580.689 C 782.678 579.214 787.512 580.252 790.899 583.394 C 794.286 586.535 795.683 591.277 794.542 595.753 C 793.4 600.23 789.902 603.723 785.424 604.858 C 778.856 606.524 772.147 602.701 770.231 596.202 C 768.316 589.702 771.88 582.852 778.301 580.689 z" fill="rgb(234,209,182)" transform="translate(0,0)"></path>
<path d="M 710.833 623.57 C 716.416 621.687 722.462 624.721 724.289 630.322 C 726.117 635.923 723.023 641.939 717.403 643.71 C 711.863 645.457 705.95 642.416 704.148 636.893 C 702.346 631.37 705.328 625.427 710.833 623.57 z" fill="rgb(234,209,182)" transform="translate(0,0)"></path>
<path d="M 710.229 827.567 C 713.291 826.426 716.7 827.973 717.856 831.03 C 719.013 834.086 717.484 837.502 714.434 838.675 C 711.361 839.857 707.913 838.314 706.748 835.235 C 705.582 832.156 707.144 828.716 710.229 827.567 z" fill="rgb(219,106,107)" transform="translate(0,0)"></path>
<path d="M 977.328 809.497 C 980.251 808.657 983.328 810.211 984.387 813.062 C 985.447 815.913 984.13 819.099 981.368 820.371 C 979.385 821.284 977.057 821.01 975.34 819.661 C 973.623 818.311 972.807 816.114 973.226 813.971 C 973.646 811.828 975.23 810.1 977.328 809.497 z" fill="rgb(219,106,107)" transform="translate(0,0)"></path>
<path d="M 1138.91 844.071 C 1157.67 854.565 1176.37 856.555 1197.12 859.445 C 1208.82 870.908 1222.65 879.968 1237.83 886.113 C 1256.13 893.638 1285.69 897.506 1297.91 914.019 C 1350.86 985.542 1329.92 1050.91 1263.64 1102.76 C 1247.63 1098.19 1239.59 1100.68 1228.56 1113.63 C 1210.28 1103.82 1196.58 1107.09 1183.31 1122.5 C 1169.28 1115.27 1164.13 1115.09 1149.72 1121.39 C 1126.57 1107.49 1104.9 1114.29 1088.07 1134.14 C 1078.46 1119.99 1068.27 1113.67 1050.69 1116.82 C 1022.98 1101.38 999.857 1105.69 981.871 1132.45 C 964.658 1110.51 941.315 1108.72 918.969 1124.08 L 917.598 1124.76 C 901.245 1110.43 882.833 1112.18 865.502 1123.29 C 852.048 1106.96 839.212 1104.78 820.66 1113.74 C 811.799 1101.64 798.985 1098.13 785.122 1103.42 C 770.849 1090.95 756.721 1079.19 745.428 1063.41 C 726.732 1037.29 717.354 1005.4 722.505 973.036 C 727.268 943.114 747.784 912.115 774.405 896.914 C 777.553 895.116 795.012 890.376 799.69 889.079 C 820.166 883.398 830.996 877.026 848.032 864.953 C 874.044 863.88 888.437 858.833 910.957 847.294 C 983.089 902.231 1068.97 902.522 1138.91 844.071 z" fill="rgb(234,209,182)" transform="translate(0,0)"></path>
<path d="M 1218.59 958.758 C 1226.43 958.017 1234.94 956.917 1242.67 957.924 C 1325.28 968.685 1309.47 1067.9 1235.08 1074.84 C 1203.22 1077.82 1170.37 1056.97 1167.6 1023.66 C 1166.67 1011.44 1171.16 995.084 1179.64 985.924 C 1181.89 983.508 1186.41 978.624 1187.43 975.768 C 1185.26 974.825 1185.17 974.88 1182.81 974.538 C 1196.69 976.008 1210.31 970.001 1218.59 958.758 z" fill="rgb(219,106,107)" transform="translate(0,0)"></path>
<path d="M 858.024 974.731 C 911.669 1016.42 867.71 1082.7 808.09 1074.08 C 788.763 1071.22 771.407 1060.68 759.957 1044.85 C 752.164 1034.23 747.006 1019 749.402 1005.88 C 756.749 965.616 794.012 952.971 830.235 959.423 C 836.926 968.215 847.017 973.773 858.024 974.731 z" fill="rgb(219,106,107)" transform="translate(0,0)"></path>
<path d="M 1182.81 974.538 C 1165.1 972.664 1150.87 959.118 1148.12 941.526 C 1145.37 923.934 1154.8 906.693 1171.09 899.508 C 1187.38 892.323 1206.47 896.991 1217.6 910.883 C 1228.74 924.775 1229.14 944.42 1218.59 958.758 C 1210.31 970.001 1196.69 976.008 1182.81 974.538 z" fill="rgb(17,17,18)" transform="translate(0,0)"></path>
<path d="M 1192.97 906.591 C 1200.13 904.918 1207.3 909.33 1209.03 916.475 C 1210.77 923.621 1206.42 930.829 1199.29 932.625 C 1192.07 934.443 1184.75 930.029 1183 922.796 C 1181.24 915.563 1185.72 908.285 1192.97 906.591 z" fill="rgb(251,251,251)" transform="translate(0,0)"></path>
<path d="M 1206.52 939.764 C 1209.37 938.145 1212.99 939.114 1214.65 941.939 C 1216.32 944.764 1215.4 948.401 1212.61 950.107 C 1210.76 951.235 1208.44 951.278 1206.55 950.22 C 1204.66 949.163 1203.49 947.168 1203.48 945.002 C 1203.47 942.836 1204.63 940.834 1206.52 939.764 z" fill="rgb(251,251,251)" transform="translate(0,0)"></path>
<path d="M 830.235 959.423 C 819.018 944.686 819.648 924.108 831.747 910.085 C 843.845 896.062 864.109 892.423 880.331 901.359 C 896.553 910.295 904.305 929.367 898.918 947.087 C 893.531 964.807 876.475 976.336 858.024 974.731 C 847.017 973.773 836.926 968.215 830.235 959.423 z" fill="rgb(17,17,18)" transform="translate(0,0)"></path>
<path d="M 867.753 906.374 C 875.182 904.819 882.468 909.57 884.04 916.995 C 885.613 924.42 880.878 931.717 873.456 933.306 C 866.011 934.901 858.686 930.147 857.108 922.698 C 855.531 915.249 860.301 907.935 867.753 906.374 z" fill="rgb(251,251,251)" transform="translate(0,0)"></path>
<path d="M 882.309 938.735 C 885.561 938.293 888.584 940.491 889.167 943.721 C 889.749 946.952 887.684 950.067 884.482 950.789 C 882.284 951.284 879.991 950.533 878.511 948.834 C 877.032 947.135 876.604 944.761 877.397 942.651 C 878.19 940.542 880.076 939.038 882.309 938.735 z" fill="rgb(251,251,251)" transform="translate(0,0)"></path>
<path d="M 1020.1 936.287 C 1032.05 935.775 1048.73 938.649 1052.9 952.011 C 1054.21 956.126 1053.78 960.598 1051.71 964.386 C 1048.4 970.365 1042.02 974.336 1035.49 975.89 L 1030.48 977.037 C 1020.86 977.347 1014.76 977.833 1005.93 973.256 C 994.14 967.14 989.447 953.542 1000.59 944.087 C 1006.48 939.092 1012.64 937.563 1020.1 936.287 z" fill="rgb(17,17,18)" transform="translate(0,0)"></path>
<path d="M 1017.54 940.261 C 1053.33 937.44 1062.65 966.042 1030.77 973.54 C 997.156 976.41 983.35 949.018 1017.54 940.261 z" fill="rgb(234,209,182)" transform="translate(0,0)"></path>
<path d="M 1092.65 1002.08 C 1091.34 998.19 1087.8 990.702 1091.97 988.339 C 1095 991.457 1094.75 998.749 1096.96 1001.84 C 1100.76 1007.17 1106.4 1004.97 1105.66 1013.27 C 1100.36 1010.99 1099 1009.83 1094.46 1006.43 C 1054.42 1040.21 991.867 1043.55 953.449 1005.91 C 949.018 1008.93 947.616 1010.13 942.546 1011.98 L 941.237 1011.31 C 939.672 1006.47 949.209 1003.88 951.618 1000.5 C 953.363 998.05 955.209 990.662 956.029 987.597 C 957.479 988.592 957.368 988.694 958.545 990.06 C 958.98 994.264 957.307 997.504 955.835 1001.58 C 986.137 1034.09 1044.59 1036.53 1080.25 1012.14 C 1084.67 1009.11 1088.65 1005.63 1092.65 1002.08 z" fill="rgb(17,17,18)" transform="translate(0,0)"></path>
<path d="M 279.794 1347.39 C 265.42 1388.9 281.589 1428.75 321.482 1448.55 C 372.419 1473.82 428.543 1427.9 458.641 1390.38 C 476.409 1368.11 491.184 1343.9 508.962 1321.55 C 569.078 1245.99 647.432 1200.57 737.674 1169.77 C 748.054 1193.3 769.56 1203.22 793.601 1192.29 C 798.735 1200.35 803.174 1205.92 811.088 1211.53 C 812.793 1212.74 812.165 1212 812.953 1214.16 C 814.903 1215.34 816.335 1216.08 818.108 1217.53 C 828.386 1215.46 837.21 1213.35 847.323 1210.76 C 847.727 1211.41 848.142 1212.05 848.566 1212.69 C 863.048 1234.36 885.439 1239.9 907.138 1224.52 C 911.958 1230.25 913.466 1231.94 919.255 1236.69 C 910.843 1248.8 901.841 1260.48 892.28 1271.7 C 846.718 1325.18 790.233 1365.06 735.367 1408.46 C 716.466 1422.74 696.855 1436.6 678.859 1452.04 C 645.375 1480.76 617.049 1514.24 581.997 1541.31 C 543.062 1571.38 503.824 1591.98 454.339 1596.01 C 354.063 1604.19 264.049 1523.85 255.083 1424.98 C 252.49 1396.38 260.982 1368.95 279.794 1347.39 z" fill="rgb(143,159,69)" transform="translate(0,0)"></path>
<path d="M 812.953 1214.16 C 814.903 1215.34 816.335 1216.08 818.108 1217.53 C 817.665 1217.68 817.219 1217.81 816.781 1217.97 C 796.671 1225.18 771.183 1282.79 764.018 1302.77 C 760.377 1312.92 759.011 1324.16 754.186 1333.82 L 753.145 1334.03 C 751.142 1303.88 783.148 1251.41 799.481 1225.52 C 797.408 1226.35 795.46 1227.26 793.447 1228.24 C 737.491 1255.59 688.597 1294.36 645.276 1338.81 C 636.706 1347.61 623.466 1361.88 616.787 1371.71 C 608.551 1383.83 599.705 1403.89 594.696 1417.53 C 587.576 1436.44 582.328 1456 579.027 1475.93 C 578.05 1481.83 576.504 1500.9 575.684 1503.25 L 573.873 1503.69 L 572.616 1502.21 C 569.5 1470.48 591.477 1414.19 603.474 1384.19 C 580.418 1409.63 554.677 1432.49 526.702 1452.38 C 520.793 1465.25 510.82 1480.47 502.941 1492.29 C 498.797 1498.51 475.298 1526.79 468.865 1526.77 L 468.192 1524.98 C 470.271 1521.48 483.349 1509.22 487.576 1504.47 C 501.339 1488.99 509.746 1474.79 519.321 1456.46 C 491.354 1476.12 462.924 1486.77 429.958 1494.12 C 428.358 1496.92 426.498 1499.56 424.402 1502.01 C 416.799 1511.02 376.903 1538.89 368.363 1530.3 C 371.033 1527.15 376.368 1526.43 380.353 1525.11 C 398.069 1519.26 412.857 1509.44 424.778 1495.21 C 422.857 1495.48 420.934 1495.72 419.007 1495.94 C 385.018 1499.83 352.37 1498.88 319.009 1490.57 C 313.357 1489.16 303.669 1486.71 299.126 1483.1 L 299.125 1481.66 C 299.674 1481.31 300.223 1480.95 300.772 1480.6 C 308.126 1482.52 324.542 1487.4 331.511 1488.72 C 353.805 1492.96 374.24 1493.95 396.4 1493.3 C 488.018 1490.62 559.36 1427.54 618.04 1362.79 C 595.829 1361.98 573.589 1362.85 551.507 1365.37 C 544.347 1366.21 518 1370.68 513.58 1370.51 L 512.565 1368.9 C 521.307 1359.67 606.517 1358.06 621.415 1358.01 C 648.323 1326.82 694.642 1284.49 728.957 1261.3 C 692.998 1260.23 662.503 1261.37 627.392 1270.55 C 622.994 1271.7 614.093 1274.2 610.349 1271.95 L 611.355 1270.44 C 636.965 1261.09 707.688 1252.02 734.258 1257.32 C 759.022 1240.41 785.378 1225.95 812.953 1214.16 z" fill="rgb(17,17,18)" transform="translate(0,0)"></path>
<path d="M 1310.44 1170.68 C 1323.7 1172.32 1363.28 1190.09 1375.76 1195.58 C 1442.58 1224.95 1506.13 1276.66 1549.78 1335.01 C 1579.73 1375.95 1600.66 1412.6 1645.67 1440.08 C 1690.43 1467.4 1737.55 1455.84 1765.16 1410.98 C 1778.19 1389.8 1774.19 1367.27 1767.65 1344.1 C 1791.82 1374.96 1798.29 1409.56 1789.75 1447.65 C 1778.14 1498.19 1746.74 1541.96 1702.59 1569.17 C 1661.59 1594.79 1613.25 1602 1566.35 1591.82 C 1480.82 1573.26 1429.48 1505.47 1367.48 1450.8 C 1347.23 1432.94 1326.56 1419.68 1305.75 1403.25 C 1244.36 1354.75 1172.91 1304.43 1131.14 1236.99 C 1134.6 1233.87 1138.18 1229.99 1141.46 1226.61 C 1166.35 1239.27 1183.71 1236.23 1201.14 1213.5 C 1217.7 1216.49 1220.78 1214.51 1237.7 1220.78 C 1257.65 1244.07 1273.01 1270.94 1282.97 1299.95 C 1285.29 1306.6 1291.17 1332.06 1295.68 1334.37 C 1295.97 1333.73 1296.46 1332.8 1296.35 1332.14 C 1290.73 1297.23 1268.88 1251.17 1247.16 1224.94 C 1275.98 1237.21 1310.83 1260.14 1335.66 1278.9 C 1368.45 1304.69 1404.88 1337.28 1431.08 1370.35 C 1446.84 1390.25 1455.61 1425.15 1463.52 1448.96 C 1466.75 1458.66 1471.03 1501.75 1472.05 1503.51 L 1474.33 1503.68 L 1475.83 1502.26 C 1473.15 1455.93 1463.27 1424.55 1443.81 1383.19 C 1473.08 1413.68 1488.41 1428.05 1522.93 1452.8 C 1529.7 1469.89 1561.9 1520.42 1578.99 1527.59 L 1580.33 1526.91 C 1580.3 1522.98 1572.44 1516.04 1569.39 1513.1 C 1552.66 1496.97 1540.44 1479.3 1530.95 1457.79 C 1558.33 1475.5 1585.09 1487.81 1617.41 1494.26 C 1625.34 1505.33 1635.87 1514.89 1647.99 1521.21 C 1654.61 1524.66 1672.33 1532.37 1679.35 1531.62 L 1679.97 1530.05 C 1677.53 1527.88 1671.92 1526.12 1668.48 1524.87 C 1649.14 1517.82 1636.7 1511.68 1624.11 1495.09 C 1625.57 1495.32 1627.04 1495.51 1628.51 1495.68 C 1664.15 1499.85 1697.98 1499.39 1732.67 1489.32 C 1737.34 1487.96 1749.55 1486.78 1749.21 1481.3 C 1746.9 1480.15 1716.52 1488.65 1711.43 1489.59 C 1587.53 1512.4 1508.93 1446.4 1431.32 1362.71 C 1451.32 1362.43 1471.33 1363.23 1491.25 1365.08 C 1501.03 1366.02 1529.73 1371.87 1535.89 1369.68 L 1534.92 1368.16 C 1520.77 1360.28 1446.98 1356.7 1428.29 1358.64 C 1399.98 1329.21 1353.6 1282.74 1318.8 1261.06 C 1355.79 1260.97 1394.63 1262.59 1430.3 1273.28 C 1432.49 1273.94 1435.73 1273.58 1437.63 1272.25 C 1434.07 1260.31 1327.86 1254.47 1312.69 1257.2 C 1295.47 1243.53 1255.83 1222.68 1235.4 1214.27 C 1243.87 1207.6 1247.29 1202.73 1251.84 1193.27 C 1280.22 1200.15 1295.67 1197.21 1310.44 1170.68 z" fill="rgb(143,159,69)" transform="translate(0,0)"></path>
<path d="M 976.054 1252.16 L 978.28 1251.99 C 980.474 1255.96 980.51 1259.46 982.175 1262.77 C 987.31 1272.98 996.739 1281.57 1007.46 1285.67 C 1019.3 1290.23 1032.49 1289.75 1043.96 1284.32 C 1058.28 1277.41 1065.39 1266.16 1070.22 1251.74 C 1082.72 1254.99 1087.04 1255.99 1099.65 1255.2 C 1118.33 1273.07 1132.57 1301.82 1135.71 1327.34 C 1136.69 1335.28 1136.43 1344.92 1139.82 1351.42 L 1141.24 1351.86 C 1144.6 1340.14 1137.99 1306.81 1134.93 1294.68 C 1160.14 1315.37 1205.54 1366.9 1216.72 1398.2 C 1221.35 1411.19 1209.09 1440.03 1202.78 1452.51 C 1181.62 1494.36 1139.81 1517.69 1096.24 1531.39 C 1026.02 1552.05 949.129 1542.64 888.414 1500.98 C 856.778 1479.28 836.056 1441.61 829.261 1404.4 C 842.577 1366.62 886.161 1319.66 915.831 1291.96 C 912.208 1308.02 906.718 1334.05 909.864 1350.04 C 912.481 1348.4 914.15 1331.38 914.585 1327.33 C 917.577 1299.39 929.8 1275.3 948.668 1254.47 C 960.536 1256.55 964.809 1255.26 976.054 1252.16 z" fill="rgb(211,54,74)" transform="translate(0,0)"></path>
<path d="M 1267.14 1105.86 C 1275.23 1098.94 1282.44 1092.85 1290 1085.32 C 1294.7 1080.64 1302.09 1071.68 1306.86 1068.04 C 1313.54 1070.07 1316.41 1071.03 1322.73 1073.99 C 1322.19 1078.98 1321.69 1083.47 1321.5 1088.51 C 1324.93 1091.7 1350.57 1089.79 1350.44 1109.16 C 1350.35 1122.94 1345.13 1129.86 1332.04 1132.88 L 1330.37 1133.28 C 1330.03 1133.36 1329.7 1133.43 1329.36 1133.5 C 1330.93 1141.42 1337.17 1148.29 1323.55 1154.71 C 1320.85 1155.97 1317.28 1156.83 1314.35 1155.91 C 1309.43 1146.52 1306.3 1137.19 1296.31 1133.92 L 1294.69 1134.57 C 1297.46 1143.42 1316.54 1148.48 1304.73 1170.55 C 1296.32 1186.27 1276.15 1182.93 1263.04 1175.82 C 1256.92 1172.5 1252.39 1167.23 1248 1162.3 C 1243.92 1176.81 1242.87 1186.46 1227.78 1195.14 C 1222.68 1198.07 1214.35 1200.41 1208.5 1198.17 C 1196.55 1193.6 1194.2 1173.33 1176.12 1180.05 C 1175.57 1180.25 1174.62 1180.79 1173.97 1181.13 L 1173.45 1183.14 L 1174.44 1184.68 L 1175.61 1184.63 C 1187.22 1184.26 1197.6 1186.98 1198.15 1201 C 1198.4 1206.7 1196.21 1212.24 1192.14 1216.23 C 1187.07 1221.2 1177.5 1224.37 1170.76 1223.84 C 1150.1 1222.19 1145.35 1204.79 1135.37 1190.81 C 1128.9 1181.75 1114.41 1178.92 1104.39 1184.9 L 1104.33 1186.91 C 1109.3 1188.61 1127.13 1180.06 1136.78 1198.35 C 1140.1 1204.73 1140.67 1212.18 1138.36 1218.99 C 1128.62 1247.78 1090.94 1239.18 1069.89 1230.74 C 1069.95 1224.73 1070.65 1216.56 1067.41 1211.59 L 1065.41 1211 L 1063.91 1212.09 C 1064.99 1217.83 1066.45 1222.19 1065.82 1228.21 C 1064.02 1245.44 1048.16 1258.97 1031.54 1261.88 C 1020.12 1263.86 1008.39 1261.1 999.063 1254.23 C 990.651 1248.05 985.235 1238.61 984.147 1228.23 C 983.021 1217.91 985.8 1210.75 991.7 1203 C 999.652 1192.56 1010.87 1195.22 1014.93 1190.94 L 1014.73 1189.69 C 1010 1188.44 1004.73 1188.97 1000.44 1191.38 C 983.714 1200.75 977.634 1213.51 980.172 1232.25 C 963.32 1237.04 939.557 1243.73 923.044 1234.39 C 909.786 1226.9 903.606 1209.81 912.798 1196.51 C 916.347 1191.32 921.866 1187.8 928.072 1186.78 C 935.736 1185.58 940.971 1188.87 944.732 1187.61 L 945.565 1185.98 C 943.272 1182.71 935.556 1182.36 931.488 1182.31 C 914.1 1182.08 906.471 1197.37 902.603 1210.97 C 893.468 1217.55 884.886 1224.47 871.852 1223.12 C 855.051 1221.39 840.083 1200.4 856.938 1187.55 C 860.309 1184.98 872.134 1185.04 876.654 1181.93 C 875.005 1179.84 873.727 1180.18 871.006 1179.85 C 857.312 1178.2 850.83 1186.44 845.374 1197.79 C 815.623 1199.58 804.862 1189.8 800.158 1160.94 C 792.001 1171.88 785.593 1178.94 770.969 1181.56 C 763.909 1182.82 754.793 1181.47 749.215 1176.72 C 740.827 1169.58 741.387 1164.17 739.318 1154.96 L 739.839 1153.72 C 741.415 1150.09 742.081 1148.84 744.428 1145.74 C 746.974 1142.36 754.592 1139.22 753.692 1135.71 C 743.608 1132.81 737.534 1148.42 735.105 1155.92 C 729.482 1155.2 721.754 1154.68 717.879 1149.98 C 716.194 1147.93 715.527 1145.23 716.063 1142.62 C 716.77 1139.27 717.895 1137.46 718.597 1133.41 C 714.403 1129.91 699.999 1133.11 698.154 1113.31 C 697.666 1108.01 699.395 1102.74 702.93 1098.76 C 709.496 1091.24 718.178 1089.66 727.627 1088.99 C 728.445 1087.88 727.538 1082.95 727.421 1082.37 C 726.79 1079.19 726.34 1075.62 728.405 1072.83 C 734.166 1065.05 745.168 1071.5 750.326 1076.66 C 760.406 1086.74 770.19 1096.23 781.146 1105.44 C 777.708 1109.94 774.635 1113.89 774.66 1119.78 L 775.615 1121.4 L 777.242 1121.15 C 781.656 1115.04 782.899 1105.29 791.434 1104.66 C 799.179 1104.1 814.564 1108.45 816.66 1116.99 C 815.567 1120.63 814.519 1121.93 815.46 1125.04 L 817.271 1125.54 C 824.416 1120.18 827.774 1110.51 840.674 1112.36 C 849.948 1113.68 856.689 1120.26 862.853 1126.63 C 860.493 1130.84 858.097 1134.21 857.428 1138.92 L 858.484 1140.63 L 860.285 1140.61 C 861.96 1137.93 862.142 1136.62 863.474 1133.89 C 873.458 1113.4 900.433 1116 915.042 1128.08 C 912.088 1133.41 908.088 1138.63 909.514 1144.29 L 910.811 1145.29 C 912.644 1144.04 914.348 1138.38 915.673 1136.14 C 931.974 1108.58 963.389 1114.81 979.019 1137.2 C 978.822 1141.81 978.172 1146.76 979.59 1151.01 L 980.974 1152.02 L 982.626 1151.4 C 983.207 1148.64 983.318 1148 982.983 1145.18 C 982.247 1138.97 988.127 1129.75 992.271 1125.28 C 999.829 1117.26 1010.23 1112.54 1021.24 1112.13 C 1031.11 1111.77 1043 1116.02 1050.48 1122.65 C 1054.6 1126.3 1059.62 1137.67 1062.93 1143.18 L 1064.69 1143.24 C 1067.47 1135.42 1056.88 1128.38 1056.55 1121.04 C 1062.49 1116.61 1077.03 1125.69 1080.73 1131.21 C 1084.54 1136.88 1084.31 1140.6 1084.04 1147 L 1085.38 1147.55 C 1089.55 1142.34 1091.76 1136.55 1096.41 1131.52 C 1111.32 1115.36 1133.69 1113.23 1150.83 1127.64 L 1153.66 1125 C 1158.41 1122.27 1160.14 1122.06 1165.43 1120.71 C 1169.94 1121.91 1173.47 1122.68 1177.71 1124.96 C 1182.05 1127.29 1186.6 1141.1 1190.93 1139.24 C 1191.32 1134.63 1188.15 1130 1185.77 1126.01 C 1199.79 1111.68 1213.26 1104.66 1227.96 1122.29 L 1231.19 1126.14 L 1232.76 1125.95 C 1234.5 1121.94 1232.42 1121.75 1232.08 1117.06 C 1238.41 1105.28 1251.78 1102.14 1263.56 1107.94 C 1270.91 1111.55 1267.3 1120.67 1272.02 1122.04 C 1276.5 1116.61 1271.31 1109.96 1267.14 1105.86 z" fill="rgb(234,209,182)" transform="translate(0,0)"></path>
<path d="M 1153.66 1125 C 1158.86 1130.92 1162.95 1135.76 1163.31 1144.02 C 1163.37 1145.26 1162.12 1145.78 1161.86 1145.35 C 1157.51 1138.09 1157.39 1134.14 1150.83 1127.64 L 1153.66 1125 z" fill="rgb(17,17,18)" transform="translate(0,0)"></path>
<path d="M 777.37 253.697 C 784.333 251.433 790.552 248.333 794.429 241.694 C 796.849 237.549 795.952 228.96 797.326 227.463 C 802.772 221.529 812.92 215.552 819.059 210.318 C 826.394 204.065 831.35 194.683 838.97 189.008 C 845.947 186.958 855.224 191.2 860.578 182.192 C 861.875 180.01 862.196 171.046 862.357 168.098 C 870.624 166.901 908.807 164.998 916.799 165.847 C 918.606 173.727 918.204 177.531 926.102 182.538 C 939.208 190.845 951.421 188.159 959.568 175.067 C 977.35 188.493 998.374 194.914 1019.96 198.769 C 1019.34 216.989 1028.32 223.226 1045.41 225.158 C 1064.21 255.451 1104.67 339.536 1127.82 358.293 C 1134.99 364.109 1143.89 368.613 1152.63 371.522 C 1169.89 377.269 1194.64 377.252 1202.19 397.149 C 1203.67 401.045 1204.7 405.551 1203.56 409.672 C 1202.46 413.676 1199.5 416.418 1195.96 418.374 C 1180.06 427.155 1155.7 421.339 1139.49 416.073 C 1138.04 415.603 1136.64 415.086 1135.22 414.541 C 1134.06 411.381 1132.77 407.279 1130.94 404.594 L 1127.72 405.703 C 1134.93 415.796 1129.18 433.181 1119.01 437.575 C 1082.21 453.47 1049.81 418.291 1017.45 409.832 C 998.996 421.059 986.37 436.259 963.452 440.214 C 947.388 442.986 934.073 443.646 924.084 428.86 C 924.455 422.835 925.518 415.294 926.106 409.047 C 922.154 412.957 920.152 415.971 916.964 420.434 C 901.289 426.241 851.036 434.2 855.85 401.086 C 858.915 380.005 899.891 379.239 917.142 375.461 C 941.409 370.147 961.633 352.818 967.523 327.46 C 978.129 283.252 948.457 232.406 903.502 222.198 C 881.468 217.195 859.739 221.85 840.54 233.488 C 816.297 248.127 797.914 283.788 816.047 309.504 C 834.04 335.372 880.432 334.213 885.967 298.41 C 886.823 292.874 883.619 287.703 880.154 283.519 C 880.632 276.582 881.736 272.394 882.668 265.678 C 903.226 278.239 906.738 304.826 896.381 325.213 C 879.498 358.445 831.942 361.034 804.803 339.069 C 797.057 333.03 789.351 326.545 783.173 319.551 C 783.427 317.476 783.749 317.295 784.568 315.323 C 789.722 302.913 787.181 297.9 775.916 292.551 C 776.037 278.58 776.422 267.566 777.37 253.697 z" fill="rgb(211,54,74)" transform="translate(0,0)"></path>
<path d="M 1127.72 405.703 C 1116.95 455.918 1056.65 408.954 1035.22 399.261 C 1008.28 387.077 971.427 439.982 933.566 422.826 L 933.449 421.847 C 941.638 420.047 952.916 423.073 960.383 420.864 C 968.432 418.564 976.225 415.448 983.642 411.564 C 995.499 405.294 1007.71 395.898 1020.99 393.081 C 1038.18 389.436 1074.9 425.435 1106 423.507 C 1126.13 422.26 1118.09 409.029 1125.01 401.24 C 1128.48 401.623 1127.72 401.861 1130.94 404.594 L 1127.72 405.703 z" fill="rgb(17,17,18)" transform="translate(0,0)"></path>
<path d="M 891.642 188.4 C 895.293 188.067 898.563 188.063 902.19 188.143 C 1000.2 190.296 1032.52 293.231 1030.28 375.698 C 1030.18 379.434 1030.32 384.077 1027.49 386.732 L 1025.81 386.517 C 1024.04 381.973 1025.62 376.738 1025.62 371.936 C 1025.68 286.704 997.529 198.255 900.599 192.101 C 882.45 192.74 871.446 194.196 854.205 202.363 C 814.83 221.015 779.502 268.943 800.006 313.061 C 807.343 328.849 827.921 340.742 845.196 340.929 C 849.891 340.979 856.393 336.36 861.671 337.898 L 861.859 339.753 C 858.453 343.27 854.801 343.909 850.11 344.555 C 820.444 348.874 791.381 322.173 789.575 293.077 C 787.406 258.132 808.106 227.296 836.16 208.252 C 853.974 196.16 870.471 190.255 891.642 188.4 z" fill="rgb(17,17,18)" transform="translate(0,0)"></path>
<path d="M 981.472 195.894 C 1035.95 221.626 1049.27 273.077 1066.94 326.378 C 1071.07 338.843 1077.2 363.489 1089.37 373.523 C 1105.41 386.741 1153.38 404.633 1174.9 406.675 C 1179.17 407.08 1189.01 397.018 1192.47 396.79 L 1193.3 399.728 C 1175.88 422.353 1147.7 403.763 1125.77 396.657 C 1092.05 385.729 1078.9 376.219 1067.56 342.328 C 1052.64 297.752 1039.81 242.669 1001.13 212.502 C 996.38 208.784 983.817 203.538 980.804 199.488 L 981.472 195.894 z" fill="rgb(17,17,18)" transform="translate(0,0)"></path>
<path d="M 937.299 227.05 C 951.707 225.109 969.759 253.673 975.382 264.259 C 994.131 299.706 1004.69 358.847 965.804 385.316 C 949.226 396.601 930.122 401.308 911.464 407.889 C 893.111 414.362 880.391 416.372 864.731 403.062 C 863.456 399.824 863.591 401.409 864.023 398.169 C 868.945 397.734 875.566 408.195 885.751 408.404 C 902.449 409.385 918.066 400.13 933.575 395.924 C 1008.82 375.518 995.045 297.605 959.469 247.588 C 953.918 239.784 942.338 233.648 937.299 227.05 z" fill="rgb(17,17,18)" transform="translate(0,0)"></path>
<path d="M 1196.02 1607.65 C 1208.8 1609.63 1221.12 1611.25 1229.39 1622.4 C 1238.88 1635.18 1236.55 1649.37 1229.94 1662.46 L 1227.91 1666.53 C 1186.46 1677.81 1161.43 1690.62 1138.18 1729.74 C 1135.08 1734.96 1129.46 1748.23 1130.29 1754.13 C 1134.88 1753.65 1140.3 1734.72 1143.17 1729.87 C 1161.29 1698.59 1192.79 1677.39 1228.59 1672.38 C 1281.2 1665.04 1332.82 1704.07 1338.83 1757.15 C 1340.14 1768.7 1339.85 1783.73 1331.88 1792.85 C 1316.03 1811.36 1275.44 1814.14 1252.67 1815.51 C 1205.25 1818.23 1157.21 1815.02 1111.66 1800.89 C 1101.76 1797.82 1087.65 1794.53 1079.98 1787.72 C 1059.61 1769.61 1072.38 1723.76 1080.46 1702.91 C 1086.47 1704.53 1099.86 1708.76 1105.16 1707.27 L 1105.82 1705.87 C 1104.29 1704.24 1096.27 1701.75 1093.59 1701.21 C 1059.25 1694.37 1035.02 1663.07 1062.89 1632.62 C 1069.94 1624.92 1087.78 1622.09 1098.77 1620.03 C 1100.55 1626.73 1102.66 1633.75 1103.17 1640.65 L 1105.46 1640.59 L 1106.82 1637.37 L 1107.02 1640.55 C 1110.51 1646.47 1129.47 1647.2 1135.93 1647.14 C 1149.72 1647.02 1164.63 1645.25 1177.11 1639.03 C 1182.05 1636.57 1182.41 1635.14 1183.86 1630.19 L 1187.06 1631.34 C 1190.02 1623.49 1192.96 1615.44 1196.02 1607.65 z" fill="rgb(160,102,76)" transform="translate(0,0)"></path>
<path d="M 1187.06 1631.34 L 1187.94 1632.38 C 1193.58 1629.26 1198.43 1625.91 1204.39 1623.6 C 1182.4 1654.4 1126.31 1658.41 1094.47 1641.38 C 1092.66 1640.41 1091.17 1637.94 1090.92 1635.86 L 1092.31 1635.25 C 1096.37 1637.08 1099.31 1638.47 1103.17 1640.65 L 1105.46 1640.59 L 1106.82 1637.37 L 1107.02 1640.55 C 1110.51 1646.47 1129.47 1647.2 1135.93 1647.14 C 1149.72 1647.02 1164.63 1645.25 1177.11 1639.03 C 1182.05 1636.57 1182.41 1635.14 1183.86 1630.19 L 1187.06 1631.34 z" fill="rgb(17,17,18)" transform="translate(0,0)"></path>
<path d="M 850.398 1608.36 C 851.292 1608.29 852.06 1608.61 853.018 1608.86 C 855.435 1613.14 859.585 1628.27 861.229 1633.74 C 857.781 1631.09 853.106 1626.62 849.117 1626.4 L 847.628 1627.97 C 848.233 1630.41 850.035 1632.15 852.092 1633.57 C 877.647 1651.2 911.545 1656.78 941.218 1647.33 C 947.073 1645.47 953.219 1643.47 956.894 1638.36 L 956.287 1636.83 C 952.71 1636.14 949.239 1638.62 945.805 1640.42 C 946.853 1633.52 947.969 1627.5 949.38 1620.66 C 961.864 1622.49 975.36 1623.66 985.033 1632.54 C 1011.5 1656.86 992.481 1687.74 964.564 1698.71 C 958.411 1701.13 946.629 1701.5 942.328 1705.77 L 943.066 1706.82 C 951.76 1707.79 960.706 1704.63 968.89 1702.04 C 973.941 1722.88 981.042 1738.84 979.802 1761.05 C 978.119 1791.23 959.805 1794.58 934.749 1801.4 C 885.667 1815.09 834.469 1819.56 783.755 1814.58 C 744.555 1810.81 702.844 1807.06 710.042 1757.37 C 718.112 1701.65 768.482 1665.23 823.793 1673.35 C 867.26 1679.73 900.69 1711.83 916.13 1751.46 C 916.71 1752.94 917.842 1752.67 919.188 1752.85 L 920.562 1751.37 C 919.622 1745.31 911.509 1731.59 907.91 1725.67 C 886.942 1691.17 859.933 1676.87 822.357 1667.3 C 804.794 1636.32 813.223 1612.43 850.398 1608.36 z" fill="rgb(160,102,76)" transform="translate(0,0)"></path>
<path d="M 769.35 1686.6 C 773.102 1685.15 777.348 1685.83 780.448 1688.4 C 783.549 1690.97 785.02 1695.01 784.292 1698.97 C 783.565 1702.92 780.753 1706.18 776.943 1707.47 C 771.222 1709.42 764.997 1706.43 762.931 1700.75 C 760.866 1695.08 763.717 1688.79 769.35 1686.6 z" fill="rgb(207,162,122)" transform="translate(0,0)"></path>
<path d="M 751.336 1705.28 C 754.125 1703.78 757.598 1704.84 759.083 1707.64 C 760.567 1710.43 759.497 1713.9 756.696 1715.37 C 753.911 1716.84 750.466 1715.77 748.99 1713 C 747.514 1710.22 748.563 1706.77 751.336 1705.28 z" fill="rgb(207,162,122)" transform="translate(0,0)"></path>
<path d="M 587.938 1595.82 C 595.331 1590.08 609.917 1591.28 620.505 1588.33 C 632.199 1585.14 643.351 1580.23 653.592 1573.75 C 675.702 1559.68 694.012 1534.69 699.721 1509.11 C 701.011 1511.26 702.41 1513.34 703.911 1515.35 C 715.942 1531.64 727.219 1534.12 745.906 1536.82 C 745.979 1543.78 745.974 1545.67 747.482 1552.58 C 741.572 1556.82 734.105 1566.18 729.655 1568.88 C 718.11 1575.88 676.958 1645.22 687.397 1654.04 C 689.561 1652.58 696.266 1626.85 699.167 1620.92 C 711.27 1596.19 726.678 1575.03 748.073 1557.82 C 757.241 1587.66 772.533 1615.25 792.973 1638.85 C 803.779 1651.13 808.137 1651.24 817.553 1667.05 C 765.602 1665.93 737.855 1685.93 712.489 1729.3 C 691.904 1716.86 677.436 1700.02 668.501 1677.58 C 662.512 1662.55 654.673 1645.01 637.707 1639.96 C 629.299 1637.46 620.614 1638.01 612.934 1642.5 C 581.187 1661.07 583.549 1703.46 600.744 1731.41 C 578.786 1722.81 557.715 1711.6 540.299 1695.46 C 512.128 1669.09 495.692 1632.54 494.664 1593.97 C 504.565 1590.75 515.177 1586.7 525.023 1583.14 C 543.222 1589.37 567.543 1590.91 586.714 1592.13 L 587.938 1595.82 z" fill="rgb(55,114,74)" transform="translate(0,0)"></path>
<path d="M 587.938 1595.82 C 573.401 1609.37 561.796 1626.84 556.296 1646.04 C 555.696 1647.34 555.077 1651.86 554.055 1652.94 C 551.663 1655.47 551.469 1652.22 551.759 1650.63 C 555.633 1629.39 569.016 1604.81 586.714 1592.13 L 587.938 1595.82 z" fill="rgb(17,17,18)" transform="translate(0,0)"></path>
<path d="M 1346.74 1513.87 C 1348.01 1515.23 1355.78 1532.17 1357.65 1535.41 C 1381.6 1576.91 1413.09 1587.5 1457.97 1593.36 C 1470.3 1605.21 1473.2 1609.39 1482.07 1623.85 C 1486.09 1630.4 1493.24 1652.49 1494.83 1653.72 L 1496.56 1653.12 C 1498.14 1648.97 1495.92 1645.02 1494.72 1640.98 C 1488.98 1621.78 1477.36 1607.28 1464.33 1592.53 C 1484.84 1590.6 1503.77 1588.23 1523.73 1582.87 C 1534.25 1587.52 1544.11 1590.66 1555.01 1593.99 C 1554.67 1610.82 1551.82 1626.1 1544.87 1641.49 C 1523.42 1689.01 1495.29 1712.5 1448.38 1731.45 C 1450.61 1727.14 1452.71 1722.76 1454.68 1718.33 C 1468.01 1687.45 1461.36 1653.2 1427.77 1639.09 C 1388.96 1634.56 1385.36 1672.55 1368.94 1697.41 C 1360.01 1710.92 1349.2 1719.86 1336.68 1729.75 C 1315.98 1687.49 1287.57 1671.32 1242.08 1665.73 C 1278.2 1640.79 1300.12 1610.48 1309.96 1567.05 C 1327.9 1581.99 1339.46 1600.61 1349.44 1621.51 C 1352.68 1628.32 1358.21 1651.2 1361.58 1654.13 C 1362.71 1652.84 1362.69 1653.26 1362.4 1651.38 C 1357.2 1617.93 1335.43 1582.57 1311.24 1560.99 C 1313.23 1552.77 1315.02 1544.5 1316.63 1536.19 C 1331.28 1530.38 1336.83 1525.51 1346.74 1513.87 z" fill="rgb(55,114,74)" transform="translate(0,0)"></path>
<path d="M 1244.89 1387.06 C 1274.57 1394.53 1331.09 1421.62 1351.39 1443.62 C 1359.96 1480.17 1352.19 1519.05 1312.64 1532.19 C 1318.92 1525.13 1337.17 1502.95 1333.1 1492.64 L 1331.15 1492.65 C 1328.93 1495.46 1326.48 1503.26 1325.03 1506.98 C 1318.11 1524.61 1294.77 1544.54 1274.99 1534.76 C 1273.66 1534.64 1272.74 1534.26 1271.54 1533.62 L 1269.21 1532.45 C 1257.54 1534.2 1247.28 1532.24 1245.5 1518.98 C 1243.27 1502.34 1265.63 1483.96 1260.85 1466.27 L 1259.08 1465 L 1257.24 1465.62 L 1256.95 1467.04 C 1252.93 1486 1231.98 1499.08 1216.63 1481.4 C 1209.31 1472.97 1216.15 1450.58 1222.48 1443.86 C 1228.79 1434.36 1238.99 1426.5 1244.7 1417.28 L 1244.89 1387.06 z" fill="rgb(234,209,182)" transform="translate(0,0)"></path>
<path d="M 1269.21 1532.45 C 1282.93 1526.73 1292.84 1514.82 1298.55 1501.33 C 1300.02 1498.2 1301.8 1492.41 1301.91 1489 C 1302.04 1484.89 1305.8 1485.93 1305.79 1487.99 C 1305.63 1507.55 1290.18 1525.33 1274.99 1534.76 C 1273.66 1534.64 1272.74 1534.26 1271.54 1533.62 L 1269.21 1532.45 z" fill="rgb(17,17,18)" transform="translate(0,0)"></path>
<path d="M 801.676 1386.97 L 803.785 1386.88 C 805.924 1389.67 804.633 1412.14 805.13 1418.8 C 813.205 1433.5 831.083 1442.65 834.702 1462.31 C 836.985 1474.71 834.583 1485.54 819.349 1488.71 C 796.544 1493.46 796.392 1468.74 789.953 1464.2 C 772.343 1473.18 825.804 1524.43 790.829 1532.1 C 757.269 1539.47 751.334 1491.02 744.115 1485.96 L 743.349 1487.35 C 743.41 1503.18 753.632 1518.17 764.372 1529.05 C 767.037 1530.72 768.294 1531.27 770.242 1533.8 C 768.808 1535.72 768.118 1536.29 764.825 1536.44 C 748.148 1537.17 732.994 1526.3 725.087 1512.2 C 722.053 1506.78 720.679 1497.31 716.453 1493.94 C 712.336 1505.88 728.342 1524.15 736.126 1531.79 C 734.677 1531.34 733.237 1530.86 731.805 1530.36 C 695.602 1517.5 686.762 1474.4 698.77 1441.68 C 723.05 1417.53 769.564 1398.31 801.676 1386.97 z" fill="rgb(234,209,182)" transform="translate(0,0)"></path>
<path d="M 1185.88 1488.34 C 1200.98 1537.6 1198.87 1581.77 1183.86 1630.19 C 1182.41 1635.14 1182.05 1636.57 1177.11 1639.03 C 1164.63 1645.25 1149.72 1647.02 1135.93 1647.14 C 1129.47 1647.2 1110.51 1646.47 1107.02 1640.55 L 1106.82 1637.37 C 1104.56 1611.13 1092.03 1593.44 1077.74 1572.68 C 1085.42 1568.92 1094.96 1565.38 1103.04 1561.57 C 1127.09 1550.22 1145.38 1537.04 1162.88 1517.04 C 1171.22 1507.51 1177.81 1497.66 1185.88 1488.34 z" fill="rgb(211,54,74)" transform="translate(0,0)"></path>
<path d="M 863.633 1488.4 C 868.056 1490.8 880.17 1508.78 884.507 1513.97 C 909.337 1543.69 934.687 1558.45 970.21 1572.65 C 956.156 1593.14 948.354 1603.9 943.279 1628.56 L 941.731 1642.19 C 914.808 1650.58 891.998 1648.14 866.781 1636.67 C 849.818 1588.87 848.714 1536.88 863.633 1488.4 z" fill="rgb(211,54,74)" transform="translate(0,0)"></path>
<path d="M 1065.5 1776.49 C 1068.23 1778.89 1072.2 1787.17 1075.24 1790.52 C 1082.19 1798.17 1104.7 1803.68 1115.32 1806.7 C 1132.61 1811.73 1150.25 1815.46 1168.1 1817.86 C 1209.82 1823.33 1286.85 1824.59 1325.26 1804.8 C 1336.5 1799.01 1340.03 1790.31 1343.18 1778.88 C 1354.14 1795.29 1355.49 1812.35 1345.22 1829.39 C 1318.12 1866.62 1174.2 1860.21 1133.98 1843.96 C 1130.96 1839.03 1128.66 1834.24 1124.12 1830.84 C 1120.55 1830.01 1122.16 1829.74 1119.11 1831.53 C 1116.43 1835.25 1116.36 1837.25 1115.32 1841.86 C 1096.33 1837.26 1063.31 1833.28 1056.72 1811.59 C 1052.98 1799.27 1058.85 1786.66 1065.5 1776.49 z" fill="rgb(160,102,76)" transform="translate(0,0)"></path>
<path d="M 981.952 1775.47 C 985.472 1779.86 989.612 1787.56 990.996 1792.96 C 1000.52 1830.1 958.754 1836.03 934.091 1841.59 C 931.135 1836.31 928.991 1829.95 922.29 1831.78 C 918.335 1835.22 916.519 1840.02 914.12 1844.82 C 883.163 1852.29 851.492 1856.41 819.655 1857.11 C 786.75 1857.53 728.079 1855.28 704.193 1832.05 C 691.897 1816.18 696.36 1795.97 704.927 1779.7 C 709.879 1796.95 718.045 1804.79 735.313 1810.4 C 762.157 1819.12 791.794 1820.99 819.938 1821.1 C 869.142 1821.29 920.08 1814.53 965.933 1796.12 C 975.879 1792.12 978.677 1784.76 981.952 1775.47 z" fill="rgb(160,102,76)" transform="translate(0,0)"></path>
<path d="M 880.154 283.519 C 872.831 279.424 861.69 277.935 855.94 284.47 C 845.724 296.081 862.182 298.212 862.578 298.666 C 863.199 305.798 849.966 305.076 845.83 296.606 C 835.828 276.125 863.074 257.651 882.668 265.678 C 881.736 272.394 880.632 276.582 880.154 283.519 z" fill="rgb(219,106,107)" transform="translate(0,0)"></path>
<path d="M 935.47 158.212 C 954.866 158.554 964.274 175.898 943.376 183.202 C 922.219 180.81 912.623 163.867 935.47 158.212 z" fill="rgb(211,54,74)" transform="translate(0,0)"></path>
<path d="M 1025.64 197.099 C 1041.33 196.257 1050.15 204.325 1045.03 220.075 C 1030.89 219.795 1020.23 212.045 1025.64 197.099 z" fill="rgb(211,54,74)" transform="translate(0,0)"></path>
<path d="M 788.181 224.9 C 792.233 226.833 793.916 229.46 792.681 234.002 C 791.112 239.739 787.25 244.576 782.003 247.376 C 781.138 247.843 780.264 248.291 779.388 248.771 C 769.323 245.601 777.986 229.051 786.396 225.688 L 788.181 224.9 z" fill="rgb(211,54,74)" transform="translate(0,0)"></path>
<path d="M 848.028 169.075 C 863.372 167.545 858.98 179.588 849.702 183.536 L 847.946 184.331 C 833.809 186.666 839.012 175.069 848.028 169.075 z" fill="rgb(211,54,74)" transform="translate(0,0)"></path>
<path d="M 773.988 296.418 C 785.257 301.75 786.062 308.97 777.165 317.308 C 767.2 311.797 764.53 303.892 773.988 296.418 z" fill="rgb(211,54,74)" transform="translate(0,0)"></path>
<metadata><recraft-signature>{"signed_by": "recraft", "signature_b64": "6oblIXNbxtGkdntCKENm4NX40OeBWOqLCt/prdUBBf8uG9sDkiqETrM1l5yXPYx/ajeAtKvflqz2StvfiU9uCg==", "signing_algo": "Ed25519", "generation_timestamp": 1778553286, "identifier": "e47090b6-e0a2-4717-8a35-055b6c2b66e3"}</recraft-signature></metadata></svg>